<?xml version="1.0" encoding="utf-8"?>
<!-- Generator: Adobe Illustrator 14.0.0, SVG Export Plug-In . SVG Version: 6.00 Build 43363)  -->
<!DOCTYPE svg PUBLIC "-//W3C//DTD SVG 1.1//EN" "http://www.w3.org/Graphics/SVG/1.1/DTD/svg11.dtd">
<svg version="1.1" xmlns="http://www.w3.org/2000/svg" xmlns:xlink="http://www.w3.org/1999/xlink" x="0px" y="0px"
	 width="521.28px" height="356px" viewBox="0 0 521.28 356" enable-background="new 0 0 521.28 356" xml:space="preserve">
<g id="BackBuffer" display="none">
</g>
<g id="Viewport_x5F_BG">
	<g>
		
			<line fill-rule="evenodd" clip-rule="evenodd" fill="none" stroke="#D4D4D4" stroke-linecap="round" stroke-linejoin="round" x1="65.88" y1="102.53" x2="520.28" y2="222.29"/>
		
			<line fill-rule="evenodd" clip-rule="evenodd" fill="none" stroke="#D4D4D4" stroke-linecap="round" stroke-linejoin="round" x1="397.56" y1="354.91" x2="520.28" y2="126.19"/>
		
			<line fill-rule="evenodd" clip-rule="evenodd" fill="none" stroke="#D4D4D4" stroke-linecap="round" stroke-linejoin="round" x1="163.75" y1="33.73" x2="520.28" y2="111.62"/>
		
			<line fill-rule="evenodd" clip-rule="evenodd" fill="none" stroke="#D4D4D4" stroke-linecap="round" stroke-linejoin="round" x1="152.94" y1="41.33" x2="520.28" y2="123.34"/>
		
			<line fill-rule="evenodd" clip-rule="evenodd" fill="none" stroke="#D4D4D4" stroke-linecap="round" stroke-linejoin="round" x1="141.76" y1="49.19" x2="520.28" y2="135.58"/>
		
			<line fill-rule="evenodd" clip-rule="evenodd" fill="none" stroke="#D4D4D4" stroke-linecap="round" stroke-linejoin="round" x1="130.2" y1="57.32" x2="520.28" y2="148.38"/>
		
			<line fill-rule="evenodd" clip-rule="evenodd" fill="none" stroke="#D4D4D4" stroke-linecap="round" stroke-linejoin="round" x1="435.93" y1="354.91" x2="520.28" y2="181.841"/>
		
			<line fill-rule="evenodd" clip-rule="evenodd" fill="none" stroke="#D4D4D4" stroke-linecap="round" stroke-linejoin="round" x1="105.84" y1="74.44" x2="520.28" y2="175.82"/>
		
			<line fill-rule="evenodd" clip-rule="evenodd" fill="none" stroke="#D4D4D4" stroke-linecap="round" stroke-linejoin="round" x1="93" y1="83.46" x2="520.28" y2="190.551"/>
		
			<line fill-rule="evenodd" clip-rule="evenodd" fill="none" stroke="#D4D4D4" stroke-linecap="round" stroke-linejoin="round" x1="79.69" y1="92.82" x2="520.28" y2="206.021"/>
		
			<line fill-rule="evenodd" clip-rule="evenodd" fill="none" stroke="#D4D4D4" stroke-linecap="round" stroke-linejoin="round" x1="205.69" y1="354.91" x2="421.44" y2="79.25"/>
		
			<line fill-rule="evenodd" clip-rule="evenodd" fill="none" stroke="#D4D4D4" stroke-linecap="round" stroke-linejoin="round" x1="1" y1="218.06" x2="413.081" y2="354.91"/>
		
			<line fill-rule="evenodd" clip-rule="evenodd" fill="none" stroke="#D4D4D4" stroke-linecap="round" stroke-linejoin="round" x1="1" y1="239.66" x2="336.78" y2="354.91"/>
		
			<line fill-rule="evenodd" clip-rule="evenodd" fill="none" stroke="#D4D4D4" stroke-linecap="round" stroke-linejoin="round" x1="359.19" y1="354.91" x2="509.61" y2="98.11"/>
		
			<line fill-rule="evenodd" clip-rule="evenodd" fill="none" stroke="#D4D4D4" stroke-linecap="round" stroke-linejoin="round" x1="320.81" y1="354.91" x2="486.959" y2="93.27"/>
		
			<line fill-rule="evenodd" clip-rule="evenodd" fill="none" stroke="#D4D4D4" stroke-linecap="round" stroke-linejoin="round" x1="1" y1="262.75" x2="260.48" y2="354.91"/>
		
			<line fill-rule="evenodd" clip-rule="evenodd" fill="none" stroke="#D4D4D4" stroke-linecap="round" stroke-linejoin="round" x1="244.07" y1="354.91" x2="442.879" y2="83.84"/>
		
			<line fill-rule="evenodd" clip-rule="evenodd" fill="none" stroke="#D4D4D4" stroke-linecap="round" stroke-linejoin="round" x1="1" y1="160.96" x2="493.93" y2="310.12"/>
		
			<line fill-rule="evenodd" clip-rule="evenodd" fill="none" stroke="#D4D4D4" stroke-linecap="round" stroke-linejoin="round" x1="1" y1="240.15" x2="244.58" y2="41.42"/>
		
			<line fill-rule="evenodd" clip-rule="evenodd" fill="none" stroke="#D4D4D4" stroke-linecap="round" stroke-linejoin="round" x1="1" y1="214.48" x2="226.55" y2="37.57"/>
		
			<line fill-rule="evenodd" clip-rule="evenodd" fill="none" stroke="#D4D4D4" stroke-linecap="round" stroke-linejoin="round" x1="1" y1="190.721" x2="208.82" y2="33.77"/>
		
			<line fill-rule="evenodd" clip-rule="evenodd" fill="none" stroke="#D4D4D4" stroke-linecap="round" stroke-linejoin="round" x1="1" y1="197.83" x2="476.169" y2="350.671"/>
		
			<line fill-rule="evenodd" clip-rule="evenodd" fill="none" stroke="#D4D4D4" stroke-linecap="round" stroke-linejoin="round" x1="1" y1="168.66" x2="191.38" y2="30.04"/>
		
			<line fill-rule="evenodd" clip-rule="evenodd" fill="none" stroke="#D4D4D4" stroke-linecap="round" stroke-linejoin="round" x1="60.61" y1="309.44" x2="319.79" y2="57.51"/>
		
			<line fill-rule="evenodd" clip-rule="evenodd" fill="none" stroke="#D4D4D4" stroke-linecap="round" stroke-linejoin="round" x1="34.74" y1="299.921" x2="300.51" y2="53.38"/>
		
			<line fill-rule="evenodd" clip-rule="evenodd" fill="none" stroke="#D4D4D4" stroke-linecap="round" stroke-linejoin="round" x1="9.53" y1="290.65" x2="281.55" y2="49.33"/>
		
			<line fill-rule="evenodd" clip-rule="evenodd" fill="none" stroke="#D4D4D4" stroke-linecap="round" stroke-linejoin="round" x1="87.17" y1="319.221" x2="339.419" y2="61.71"/>
		
			<line fill-rule="evenodd" clip-rule="evenodd" fill="none" stroke="#D4D4D4" stroke-linecap="round" stroke-linejoin="round" x1="142.47" y1="339.57" x2="379.7" y2="70.33"/>
		
			<line fill-rule="evenodd" clip-rule="evenodd" fill="none" stroke="#D4D4D4" stroke-linecap="round" stroke-linejoin="round" x1="171.27" y1="350.16" x2="400.39" y2="74.75"/>
		
			<line fill-rule="evenodd" clip-rule="evenodd" fill="none" stroke="#D4D4D4" stroke-linecap="round" stroke-linejoin="round" x1="21.15" y1="133.97" x2="509.93" y2="273.601"/>
		
			<line fill-rule="evenodd" clip-rule="evenodd" fill="none" stroke="#D4D4D4" stroke-linecap="round" stroke-linejoin="round" x1="5.03" y1="145.3" x2="502.129" y2="291.391"/>
		
			<line fill-rule="evenodd" clip-rule="evenodd" fill="none" stroke="#D4D4D4" stroke-linecap="round" stroke-linejoin="round" x1="36.64" y1="123.08" x2="517.35" y2="256.671"/>
	</g>
	<g>
		
			<line fill-rule="evenodd" clip-rule="evenodd" fill="none" stroke="#8A8A8A" stroke-linecap="round" stroke-linejoin="round" x1="174.22" y1="26.37" x2="520.28" y2="100.39"/>
		
			<line fill-rule="evenodd" clip-rule="evenodd" fill="none" stroke="#8A8A8A" stroke-linecap="round" stroke-linejoin="round" x1="118.23" y1="65.73" x2="520.28" y2="161.78"/>
		
			<line fill-rule="evenodd" clip-rule="evenodd" fill="none" stroke="#8A8A8A" stroke-linecap="round" stroke-linejoin="round" x1="474.31" y1="354.91" x2="520.28" y2="249.98"/>
		
			<line fill-rule="evenodd" clip-rule="evenodd" fill="none" stroke="#8A8A8A" stroke-linecap="round" stroke-linejoin="round" x1="282.44" y1="354.91" x2="464.72" y2="88.51"/>
		
			<line fill-rule="evenodd" clip-rule="evenodd" fill="none" stroke="#8A8A8A" stroke-linecap="round" stroke-linejoin="round" x1="1" y1="287.51" x2="184.18" y2="354.91"/>
		
			<line fill-rule="evenodd" clip-rule="evenodd" fill="none" stroke="#8A8A8A" stroke-linecap="round" stroke-linejoin="round" x1="1" y1="267.96" x2="262.911" y2="45.34"/>
		
			<line fill-rule="evenodd" clip-rule="evenodd" fill="none" stroke="#8A8A8A" stroke-linecap="round" stroke-linejoin="round" x1="1" y1="178.83" x2="485.29" y2="329.851"/>
		
			<line fill-rule="evenodd" clip-rule="evenodd" fill="none" stroke="#8A8A8A" stroke-linecap="round" stroke-linejoin="round" x1="1" y1="148.13" x2="174.22" y2="26.37"/>
		
			<line fill-rule="evenodd" clip-rule="evenodd" fill="none" stroke="#8A8A8A" stroke-linecap="round" stroke-linejoin="round" x1="262.82" y1="169.77" x2="51.54" y2="112.61"/>
		
			<line fill-rule="evenodd" clip-rule="evenodd" fill="none" stroke="#8A8A8A" stroke-linecap="round" stroke-linejoin="round" x1="262.82" y1="169.77" x2="114.45" y2="329.25"/>
	</g>
	
		<line fill-rule="evenodd" clip-rule="evenodd" fill="none" stroke="#12AB00" stroke-width="2" stroke-linecap="round" stroke-linejoin="round" x1="359.379" y1="65.98" x2="262.82" y2="169.77"/>
	
		<line fill-rule="evenodd" clip-rule="evenodd" fill="none" stroke="#A80000" stroke-width="2" stroke-linecap="round" stroke-linejoin="round" x1="520.28" y1="239.421" x2="262.82" y2="169.77"/>
</g>
<g id="Viewport_x5F_MG">
	
		<path fill-rule="evenodd" clip-rule="evenodd" fill="none" stroke="#000000" stroke-width="2" stroke-linecap="round" stroke-linejoin="round" d="
		M429.73,282.221c-50.59,25.25-113.01,33.81-168.25,31.02c-32.39-1.63-63.29-6.77-94.15-17.15
		c-23.74-7.979-47.74-19.399-67.29-35.64c-12.63-10.5-23.93-23.46-30.16-39.12c-5-12.54-6.21-25.7-3.01-38.909
		c6.76-27.911,30.7-48.131,53.55-60.991c48.57-27.33,113.83-34.88,167.52-28.05c31.811,4.05,68.95,14.09,95.09,35.23
		c18.34,14.84,31.931,36.97,20.86,61.49c-4.63,10.24-12.601,18.57-21.34,25.159c-11.49,8.65-23.84,14.351-37.351,18.851
		c-30.1,10.02-64.939,12.38-96.149,8.05c-20.22-2.81-41.73-8.71-59.49-19.56c-11.3-6.9-22.93-16.88-26.99-30.641
		c-7.36-24.96,15.89-42.8,35.12-50.96c18.94-8.03,41.48-10.97,61.79-9.44c15.351,1.15,34.01,5.02,46.83,15.17
		c7.51,5.94,13.359,15.07,7.859,24.8c-5.149,9.141-17.189,13.59-26.339,15.24"/>
	<path fill-rule="evenodd" clip-rule="evenodd" fill="#FF0000" d="M425.21,282.34c-0.07-2.5,1.909-4.58,4.409-4.64
		c2.5-0.07,4.58,1.91,4.641,4.41c0.06,2.5-1.91,4.58-4.41,4.64S425.27,284.84,425.21,282.34z"/>
	<path fill-rule="evenodd" clip-rule="evenodd" fill="#FC0000" d="M414.86,287.2c0.07,2.49,2.15,4.471,4.65,4.41
		c2.5-0.06,4.47-2.15,4.409-4.64c-0.06-2.5-2.14-4.48-4.64-4.42C416.78,282.62,414.8,284.7,414.86,287.2z"/>
	<path fill-rule="evenodd" clip-rule="evenodd" fill="#FA0003" d="M404.32,291.58c0.06,2.5,2.141,4.479,4.641,4.42
		c2.5-0.07,4.47-2.149,4.409-4.649c-0.06-2.5-2.14-4.471-4.64-4.41C406.23,287,404.25,289.08,404.32,291.58z"/>
	<path fill-rule="evenodd" clip-rule="evenodd" fill="#F70005" d="M393.59,295.521c0.06,2.5,2.149,4.479,4.64,4.409
		c2.5-0.06,4.48-2.14,4.42-4.64c-0.069-2.5-2.149-4.47-4.649-4.41C395.51,290.94,393.53,293.021,393.59,295.521z"/>
	<path fill-rule="evenodd" clip-rule="evenodd" fill="#F50008" d="M382.72,299.03c0.06,2.5,2.14,4.479,4.64,4.41
		c2.5-0.061,4.48-2.14,4.42-4.64c-0.069-2.5-2.15-4.471-4.65-4.41C384.629,294.45,382.661,296.53,382.72,299.03z"/>
	<path fill-rule="evenodd" clip-rule="evenodd" fill="#F2000A" d="M371.72,302.13c0.06,2.5,2.149,4.471,4.64,4.41
		c2.5-0.06,4.48-2.14,4.42-4.64c-0.069-2.5-2.15-4.479-4.65-4.42C373.64,297.551,371.661,299.63,371.72,302.13z"/>
	<path fill-rule="evenodd" clip-rule="evenodd" fill="#F0000D" d="M360.62,304.83c0.061,2.5,2.15,4.479,4.641,4.41
		c2.5-0.061,4.479-2.14,4.42-4.64c-0.07-2.5-2.15-4.471-4.65-4.41C362.54,300.25,360.56,302.33,360.62,304.83z"/>
	<path fill-rule="evenodd" clip-rule="evenodd" fill="#F0000D" d="M349.44,307.16c0.061,2.5,2.141,4.47,4.641,4.41
		c2.5-0.061,4.47-2.141,4.409-4.641c-0.06-2.5-2.14-4.479-4.64-4.409C351.35,302.58,349.37,304.66,349.44,307.16z"/>
	<path fill-rule="evenodd" clip-rule="evenodd" fill="#ED000F" d="M338.18,309.12c0.06,2.5,2.15,4.48,4.64,4.42
		c2.5-0.069,4.48-2.149,4.42-4.649c-0.07-2.5-2.149-4.47-4.649-4.41C340.1,304.54,338.12,306.62,338.18,309.12z"/>
	<path fill-rule="evenodd" clip-rule="evenodd" fill="#EB0012" d="M326.87,310.74c0.061,2.5,2.141,4.47,4.641,4.41
		s4.479-2.141,4.42-4.641c-0.07-2.5-2.15-4.479-4.65-4.42C328.78,306.16,326.81,308.24,326.87,310.74z"/>
	<path fill-rule="evenodd" clip-rule="evenodd" fill="#E80014" d="M315.52,312.01c0.061,2.5,2.141,4.471,4.641,4.411
		c2.5-0.061,4.469-2.141,4.409-4.641s-2.14-4.479-4.64-4.41C317.43,307.43,315.45,309.51,315.52,312.01z"/>
	<path fill-rule="evenodd" clip-rule="evenodd" fill="#E60017" d="M304.129,312.94c0.061,2.5,2.141,4.48,4.641,4.42
		c2.5-0.07,4.48-2.15,4.42-4.65c-0.07-2.5-2.15-4.47-4.65-4.409C306.04,308.36,304.07,310.44,304.129,312.94z"/>
	<path fill-rule="evenodd" clip-rule="evenodd" fill="#E60017" d="M292.72,313.551c0.061,2.5,2.14,4.479,4.64,4.42
		c2.5-0.07,4.48-2.15,4.421-4.65c-0.07-2.5-2.151-4.47-4.651-4.41C294.629,308.971,292.661,311.051,292.72,313.551z"/>
	<path fill-rule="evenodd" clip-rule="evenodd" fill="#E30019" d="M281.3,313.841c0.06,2.5,2.14,4.469,4.64,4.409
		s4.479-2.14,4.41-4.64c-0.061-2.5-2.14-4.48-4.64-4.42C283.21,309.26,281.24,311.341,281.3,313.841z"/>
	<path fill-rule="evenodd" clip-rule="evenodd" fill="#E0001C" d="M269.87,313.801c0.07,2.5,2.15,4.47,4.65,4.409
		c2.5-0.06,4.47-2.14,4.41-4.64c-0.061-2.5-2.141-4.479-4.641-4.42C271.79,309.221,269.81,311.301,269.87,313.801z"/>
	<path fill-rule="evenodd" clip-rule="evenodd" fill="#DE001F" d="M258.45,313.43c0.07,2.5,2.15,4.471,4.65,4.411
		c2.5-0.061,4.47-2.141,4.41-4.641c-0.061-2.5-2.141-4.479-4.641-4.42C260.37,308.851,258.39,310.93,258.45,313.43z"/>
	<path fill-rule="evenodd" clip-rule="evenodd" fill="#DB0021" d="M247.05,312.74c0.06,2.5,2.14,4.48,4.64,4.41
		c2.5-0.06,4.48-2.141,4.42-4.641c-0.07-2.5-2.15-4.47-4.65-4.409C248.96,308.16,246.99,310.24,247.05,312.74z"/>
	<path fill-rule="evenodd" clip-rule="evenodd" fill="#D90024" d="M235.67,311.74c0.06,2.5,2.14,4.48,4.64,4.41
		c2.5-0.06,4.48-2.141,4.41-4.641c-0.06-2.5-2.14-4.479-4.64-4.409C237.58,307.16,235.61,309.24,235.67,311.74z"/>
	<path fill-rule="evenodd" clip-rule="evenodd" fill="#D90324" d="M224.32,310.4c0.06,2.5,2.15,4.479,4.64,4.409
		c2.5-0.06,4.48-2.139,4.42-4.639c-0.07-2.5-2.15-4.48-4.65-4.411C226.24,305.82,224.26,307.9,224.32,310.4z"/>
	<path fill-rule="evenodd" clip-rule="evenodd" fill="#D60326" d="M213.02,308.7c0.07,2.5,2.15,4.479,4.65,4.42
		c2.5-0.069,4.47-2.149,4.41-4.649s-2.14-4.471-4.64-4.411C214.94,304.12,212.96,306.2,213.02,308.7z"/>
	<path fill-rule="evenodd" clip-rule="evenodd" fill="#D40329" d="M201.79,306.63c0.06,2.5,2.14,4.48,4.64,4.421
		c2.5-0.07,4.48-2.15,4.41-4.65c-0.06-2.5-2.14-4.471-4.64-4.41S201.72,304.13,201.79,306.63z"/>
	<path fill-rule="evenodd" clip-rule="evenodd" fill="#D1032B" d="M190.63,304.18c0.06,2.5,2.14,4.48,4.64,4.411
		c2.5-0.061,4.48-2.141,4.41-4.641c-0.06-2.5-2.14-4.479-4.64-4.41C192.54,299.601,190.57,301.68,190.63,304.18z"/>
	<path fill-rule="evenodd" clip-rule="evenodd" fill="#CF032E" d="M179.56,301.34c0.07,2.5,2.15,4.47,4.65,4.41s4.47-2.14,4.41-4.64
		s-2.14-4.48-4.64-4.42C181.48,296.76,179.5,298.84,179.56,301.34z"/>
	<path fill-rule="evenodd" clip-rule="evenodd" fill="#CF032E" d="M168.61,298.101c0.06,2.5,2.14,4.479,4.64,4.409
		c2.5-0.06,4.48-2.14,4.41-4.64c-0.06-2.5-2.14-4.479-4.64-4.41C170.52,293.521,168.54,295.601,168.61,298.101z"/>
	<path fill-rule="evenodd" clip-rule="evenodd" fill="#CC0333" d="M157.78,294.471c0.06,2.489,2.14,4.47,4.64,4.409
		c2.5-0.06,4.47-2.149,4.41-4.64c-0.06-2.5-2.14-4.48-4.64-4.42C159.69,289.891,157.71,291.971,157.78,294.471z"/>
	<path fill-rule="evenodd" clip-rule="evenodd" fill="#C90333" d="M147.1,290.41c0.06,2.49,2.14,4.47,4.64,4.41
		c2.5-0.061,4.48-2.149,4.41-4.641c-0.06-2.5-2.14-4.479-4.64-4.42C149.01,285.83,147.03,287.91,147.1,290.41z"/>
	<path fill-rule="evenodd" clip-rule="evenodd" fill="#C70336" d="M136.61,285.87c0.06,2.5,2.14,4.48,4.64,4.42
		c2.5-0.069,4.48-2.149,4.41-4.649c-0.06-2.49-2.14-4.47-4.64-4.41S136.54,283.38,136.61,285.87z"/>
	<path fill-rule="evenodd" clip-rule="evenodd" fill="#C40338" d="M126.35,280.84c0.07,2.5,2.15,4.47,4.65,4.41s4.47-2.14,4.41-4.64
		s-2.14-4.48-4.64-4.41C128.27,276.26,126.29,278.34,126.35,280.84z"/>
	<path fill-rule="evenodd" clip-rule="evenodd" fill="#C2033B" d="M116.39,275.26c0.06,2.49,2.14,4.471,4.64,4.411
		c2.5-0.061,4.48-2.15,4.41-4.641c-0.06-2.5-2.14-4.479-4.64-4.42C118.3,270.68,116.32,272.76,116.39,275.26z"/>
	<path fill-rule="evenodd" clip-rule="evenodd" fill="#C2033B" d="M106.78,269.08c0.06,2.5,2.14,4.479,4.64,4.41
		c2.5-0.061,4.47-2.14,4.41-4.64s-2.14-4.471-4.64-4.41C108.69,264.5,106.71,266.58,106.78,269.08z"/>
	<path fill-rule="evenodd" clip-rule="evenodd" fill="#BF033D" d="M97.61,262.271c0.06,2.5,2.14,4.479,4.64,4.409
		c2.5-0.06,4.47-2.14,4.41-4.64s-2.14-4.48-4.64-4.41C99.52,257.69,97.54,259.771,97.61,262.271z"/>
	<path fill-rule="evenodd" clip-rule="evenodd" fill="#BD0340" d="M88.98,254.78c0.06,2.5,2.14,4.479,4.64,4.42
		c2.5-0.07,4.48-2.149,4.41-4.649c-0.06-2.491-2.14-4.471-4.64-4.41C90.89,250.2,88.91,252.29,88.98,254.78z"/>
	<path fill-rule="evenodd" clip-rule="evenodd" fill="#BA0342" d="M81.05,246.56c0.06,2.5,2.14,4.48,4.64,4.421
		c2.5-0.07,4.48-2.15,4.42-4.65c-0.07-2.49-2.15-4.47-4.65-4.409C82.96,241.98,80.99,244.07,81.05,246.56z"/>
	<path fill-rule="evenodd" clip-rule="evenodd" fill="#B80345" d="M74.04,237.551c0.06,2.5,2.14,4.479,4.64,4.409
		c2.5-0.06,4.47-2.14,4.41-4.64c-0.06-2.5-2.14-4.47-4.64-4.41C75.95,232.971,73.97,235.051,74.04,237.551z"/>
	<path fill-rule="evenodd" clip-rule="evenodd" fill="#B50347" d="M68.19,227.74c0.07,2.5,2.15,4.48,4.65,4.42
		c2.5-0.07,4.47-2.15,4.41-4.65s-2.14-4.47-4.64-4.409C70.11,223.16,68.13,225.24,68.19,227.74z"/>
	<path fill-rule="evenodd" clip-rule="evenodd" fill="#B3034A" d="M63.81,217.2c0.07,2.5,2.15,4.479,4.65,4.42
		c2.49-0.069,4.47-2.149,4.41-4.649s-2.15-4.471-4.64-4.411C65.73,212.62,63.75,214.7,63.81,217.2z"/>
	<path fill-rule="evenodd" clip-rule="evenodd" fill="#B3034A" d="M61.2,206.091c0.07,2.5,2.15,4.479,4.65,4.419
		c2.49-0.069,4.47-2.149,4.41-4.649c-0.06-2.49-2.15-4.47-4.64-4.41C63.12,201.51,61.14,203.601,61.2,206.091z"/>
	<path fill-rule="evenodd" clip-rule="evenodd" fill="#B0034C" d="M60.62,194.7c0.06,2.5,2.14,4.479,4.64,4.41
		c2.5-0.06,4.48-2.14,4.42-4.64c-0.07-2.5-2.15-4.48-4.65-4.411C62.53,190.12,60.56,192.2,60.62,194.7z"/>
	<path fill-rule="evenodd" clip-rule="evenodd" fill="#AD034F" d="M62.14,183.391c0.06,2.5,2.14,4.479,4.64,4.419
		c2.5-0.069,4.48-2.149,4.42-4.649c-0.07-2.5-2.15-4.47-4.65-4.41C64.05,178.81,62.08,180.891,62.14,183.391z"/>
	<path fill-rule="evenodd" clip-rule="evenodd" fill="#AB0552" d="M65.61,172.52c0.06,2.5,2.14,4.48,4.64,4.41
		c2.5-0.06,4.48-2.14,4.41-4.64c-0.06-2.5-2.14-4.48-4.64-4.41C67.52,167.94,65.55,170.02,65.61,172.52z"/>
	<path fill-rule="evenodd" clip-rule="evenodd" fill="#AB0552" d="M70.77,162.34c0.06,2.5,2.14,4.47,4.64,4.41
		c2.5-0.06,4.48-2.14,4.42-4.64c-0.07-2.5-2.15-4.48-4.65-4.41C72.68,157.76,70.71,159.84,70.77,162.34z"/>
	<path fill-rule="evenodd" clip-rule="evenodd" fill="#A80554" d="M77.32,152.98c0.06,2.5,2.14,4.48,4.64,4.42
		c2.5-0.07,4.47-2.15,4.41-4.65c-0.06-2.49-2.14-4.47-4.64-4.41S77.25,150.49,77.32,152.98z"/>
	<path fill-rule="evenodd" clip-rule="evenodd" fill="#A60557" d="M84.95,144.49c0.06,2.5,2.14,4.48,4.64,4.41
		c2.5-0.06,4.48-2.14,4.41-4.64c-0.06-2.5-2.14-4.48-4.64-4.41C86.86,139.91,84.88,141.99,84.95,144.49z"/>
	<path fill-rule="evenodd" clip-rule="evenodd" fill="#A30559" d="M93.41,136.82c0.07,2.5,2.15,4.48,4.65,4.42
		c2.5-0.07,4.47-2.15,4.41-4.65s-2.14-4.47-4.64-4.41S93.35,134.32,93.41,136.82z"/>
	<path fill-rule="evenodd" clip-rule="evenodd" fill="#A1055C" d="M102.52,129.92c0.06,2.5,2.14,4.48,4.64,4.42
		c2.5-0.07,4.48-2.15,4.41-4.65c-0.06-2.5-2.14-4.47-4.64-4.41S102.45,127.42,102.52,129.92z"/>
	<path fill-rule="evenodd" clip-rule="evenodd" fill="#9E055E" d="M112.12,123.73c0.06,2.5,2.14,4.48,4.64,4.42
		c2.5-0.07,4.48-2.15,4.41-4.65c-0.06-2.5-2.14-4.47-4.64-4.41S112.05,121.23,112.12,123.73z"/>
	<path fill-rule="evenodd" clip-rule="evenodd" fill="#9C0561" d="M122.11,118.2c0.07,2.5,2.15,4.48,4.65,4.42
		c2.49-0.07,4.47-2.15,4.41-4.65s-2.15-4.47-4.64-4.41C124.03,113.62,122.05,115.7,122.11,118.2z"/>
	<path fill-rule="evenodd" clip-rule="evenodd" fill="#9C0561" d="M132.42,113.27c0.06,2.5,2.14,4.48,4.64,4.41
		c2.5-0.06,4.48-2.14,4.41-4.64c-0.06-2.5-2.14-4.48-4.64-4.41C134.33,108.69,132.35,110.77,132.42,113.27z"/>
	<path fill-rule="evenodd" clip-rule="evenodd" fill="#990563" d="M142.98,108.91c0.06,2.5,2.14,4.48,4.64,4.41
		c2.5-0.06,4.48-2.14,4.41-4.64c-0.06-2.5-2.14-4.47-4.64-4.41C144.89,104.33,142.91,106.41,142.98,108.91z"/>
	<path fill-rule="evenodd" clip-rule="evenodd" fill="#960566" d="M153.74,105.09c0.07,2.5,2.15,4.47,4.65,4.41
		c2.49-0.06,4.47-2.14,4.41-4.64c-0.06-2.5-2.15-4.48-4.64-4.42C155.66,100.51,153.68,102.59,153.74,105.09z"/>
	<path fill-rule="evenodd" clip-rule="evenodd" fill="#940569" d="M164.68,101.77c0.06,2.5,2.14,4.48,4.64,4.42
		c2.5-0.07,4.47-2.15,4.41-4.65s-2.14-4.47-4.64-4.41S164.61,99.27,164.68,101.77z"/>
	<path fill-rule="evenodd" clip-rule="evenodd" fill="#940569" d="M175.74,98.94c0.07,2.5,2.15,4.48,4.65,4.41
		c2.5-0.06,4.47-2.14,4.41-4.64c-0.06-2.5-2.14-4.48-4.64-4.41C177.66,94.36,175.68,96.44,175.74,98.94z"/>
	<path fill-rule="evenodd" clip-rule="evenodd" fill="#8F056E" d="M186.92,96.57c0.06,2.5,2.14,4.48,4.64,4.41
		c2.5-0.06,4.48-2.14,4.42-4.64c-0.07-2.5-2.15-4.48-4.65-4.41C188.83,91.99,186.86,94.07,186.92,96.57z"/>
	<path fill-rule="evenodd" clip-rule="evenodd" fill="#8F086E" d="M198.18,94.64c0.06,2.5,2.15,4.48,4.64,4.42
		c2.5-0.07,4.48-2.15,4.42-4.65c-0.07-2.5-2.15-4.47-4.65-4.41C200.1,90.06,198.12,92.14,198.18,94.64z"/>
	<path fill-rule="evenodd" clip-rule="evenodd" fill="#8C0870" d="M209.51,93.15c0.06,2.5,2.14,4.47,4.64,4.41s4.48-2.14,4.41-4.64
		c-0.06-2.5-2.14-4.48-4.64-4.42C211.42,88.57,209.44,90.65,209.51,93.15z"/>
	<path fill-rule="evenodd" clip-rule="evenodd" fill="#8A0873" d="M220.88,92.07c0.06,2.5,2.15,4.47,4.64,4.41
		c2.5-0.06,4.48-2.14,4.42-4.64c-0.07-2.5-2.15-4.48-4.65-4.41C222.8,87.49,220.82,89.57,220.88,92.07z"/>
	<path fill-rule="evenodd" clip-rule="evenodd" fill="#870875" d="M232.29,91.4c0.06,2.5,2.14,4.48,4.64,4.41
		c2.5-0.06,4.48-2.14,4.41-4.64c-0.06-2.5-2.14-4.48-4.64-4.41C234.2,86.82,232.22,88.9,232.29,91.4z"/>
	<path fill-rule="evenodd" clip-rule="evenodd" fill="#850878" d="M243.71,91.14c0.06,2.5,2.14,4.47,4.64,4.41s4.48-2.14,4.42-4.64
		c-0.07-2.5-2.15-4.48-4.65-4.41C245.62,86.56,243.65,88.64,243.71,91.14z"/>
	<path fill-rule="evenodd" clip-rule="evenodd" fill="#850878" d="M255.13,91.29c0.07,2.5,2.15,4.47,4.65,4.41
		c2.5-0.06,4.47-2.14,4.41-4.64s-2.14-4.48-4.64-4.42C257.05,86.71,255.07,88.79,255.13,91.29z"/>
	<path fill-rule="evenodd" clip-rule="evenodd" fill="#82087A" d="M266.54,91.86c0.07,2.5,2.15,4.47,4.65,4.41
		c2.5-0.06,4.471-2.14,4.41-4.64s-2.14-4.48-4.64-4.41C268.46,87.28,266.48,89.36,266.54,91.86z"/>
	<path fill-rule="evenodd" clip-rule="evenodd" fill="#80087D" d="M277.93,92.86c0.06,2.5,2.14,4.47,4.64,4.41
		c2.5-0.06,4.47-2.14,4.41-4.64c-0.061-2.5-2.14-4.48-4.64-4.42C279.84,88.28,277.86,90.36,277.93,92.86z"/>
	<path fill-rule="evenodd" clip-rule="evenodd" fill="#7D0880" d="M289.26,94.3c0.06,2.5,2.14,4.48,4.64,4.42
		c2.5-0.07,4.479-2.15,4.41-4.65c-0.06-2.5-2.141-4.47-4.641-4.41S289.2,91.8,289.26,94.3z"/>
	<path fill-rule="evenodd" clip-rule="evenodd" fill="#7A0882" d="M300.52,96.21c0.07,2.5,2.149,4.47,4.649,4.41
		c2.491-0.06,4.471-2.14,4.411-4.64c-0.061-2.5-2.15-4.48-4.641-4.42C302.44,91.63,300.46,93.71,300.52,96.21z"/>
	<path fill-rule="evenodd" clip-rule="evenodd" fill="#780885" d="M311.7,98.58c0.061,2.5,2.141,4.48,4.641,4.41
		c2.5-0.06,4.479-2.14,4.41-4.64c-0.061-2.5-2.141-4.47-4.641-4.41C313.61,94,311.64,96.08,311.7,98.58z"/>
	<path fill-rule="evenodd" clip-rule="evenodd" fill="#780885" d="M322.75,101.46c0.069,2.5,2.149,4.48,4.649,4.42
		c2.49-0.07,4.47-2.15,4.41-4.65s-2.149-4.47-4.641-4.41C324.669,96.88,322.69,98.96,322.75,101.46z"/>
	<path fill-rule="evenodd" clip-rule="evenodd" fill="#750887" d="M333.65,104.9c0.061,2.5,2.14,4.48,4.64,4.41
		c2.5-0.06,4.48-2.14,4.41-4.64c-0.06-2.5-2.14-4.48-4.64-4.41C335.56,100.32,333.59,102.4,333.65,104.9z"/>
	<path fill-rule="evenodd" clip-rule="evenodd" fill="#73088A" d="M344.331,108.95c0.06,2.5,2.14,4.48,4.64,4.41
		c2.5-0.06,4.479-2.14,4.42-4.64c-0.07-2.5-2.15-4.48-4.65-4.41C346.24,104.37,344.27,106.45,344.331,108.95z"/>
	<path fill-rule="evenodd" clip-rule="evenodd" fill="#70088C" d="M354.73,113.68c0.06,2.5,2.14,4.47,4.64,4.41s4.48-2.14,4.41-4.64
		c-0.06-2.5-2.14-4.48-4.64-4.42C356.64,109.1,354.669,111.18,354.73,113.68z"/>
	<path fill-rule="evenodd" clip-rule="evenodd" fill="#6E088F" d="M364.75,119.16c0.06,2.5,2.14,4.48,4.64,4.41
		c2.5-0.06,4.479-2.14,4.42-4.64c-0.07-2.5-2.149-4.48-4.649-4.41C366.661,114.58,364.69,116.66,364.75,119.16z"/>
	<path fill-rule="evenodd" clip-rule="evenodd" fill="#6E088F" d="M374.27,125.47c0.061,2.5,2.141,4.48,4.641,4.42
		c2.5-0.07,4.479-2.15,4.409-4.65c-0.06-2.49-2.14-4.47-4.64-4.41S374.2,122.98,374.27,125.47z"/>
	<path fill-rule="evenodd" clip-rule="evenodd" fill="#690894" d="M383.1,132.71c0.069,2.5,2.15,4.47,4.65,4.41s4.47-2.14,4.41-4.64
		c-0.061-2.5-2.141-4.48-4.641-4.41C385.02,128.13,383.04,130.21,383.1,132.71z"/>
	<path fill-rule="evenodd" clip-rule="evenodd" fill="#690894" d="M390.94,141.01c0.061,2.5,2.15,4.47,4.641,4.41
		c2.5-0.06,4.479-2.14,4.42-4.64c-0.07-2.5-2.15-4.48-4.65-4.41C392.86,136.43,390.879,138.51,390.94,141.01z"/>
	<path fill-rule="evenodd" clip-rule="evenodd" fill="#660896" d="M397.36,150.44c0.06,2.5,2.141,4.48,4.641,4.42
		c2.5-0.07,4.479-2.15,4.41-4.65c-0.061-2.5-2.141-4.47-4.641-4.41S397.29,147.94,397.36,150.44z"/>
	<path fill-rule="evenodd" clip-rule="evenodd" fill="#630899" d="M401.74,160.97c0.061,2.5,2.14,4.47,4.64,4.41
		s4.48-2.14,4.41-4.64c-0.06-2.5-2.14-4.48-4.64-4.41C403.65,156.39,401.68,158.47,401.74,160.97z"/>
	<path fill-rule="evenodd" clip-rule="evenodd" fill="#610A9C" d="M403.35,172.24c0.061,2.5,2.14,4.48,4.64,4.42
		c2.5-0.07,4.48-2.15,4.421-4.65c-0.07-2.49-2.15-4.47-4.65-4.41S403.29,169.75,403.35,172.24z"/>
	<path fill-rule="evenodd" clip-rule="evenodd" fill="#610A9C" d="M401.8,183.53c0.06,2.5,2.14,4.47,4.64,4.41
		c2.5-0.061,4.479-2.14,4.41-4.64c-0.061-2.5-2.14-4.48-4.64-4.42C403.71,178.95,401.73,181.03,401.8,183.53z"/>
	<path fill-rule="evenodd" clip-rule="evenodd" fill="#5E0A9E" d="M397.419,194.051c0.061,2.5,2.15,4.479,4.641,4.42
		c2.5-0.07,4.479-2.15,4.42-4.65c-0.069-2.5-2.149-4.47-4.649-4.41C399.34,189.471,397.36,191.551,397.419,194.051z"/>
	<path fill-rule="evenodd" clip-rule="evenodd" fill="#5C0AA1" d="M390.89,203.4c0.06,2.5,2.14,4.479,4.64,4.42
		c2.5-0.07,4.48-2.149,4.41-4.649c-0.061-2.491-2.14-4.471-4.64-4.411C392.8,198.82,390.82,200.91,390.89,203.4z"/>
	<path fill-rule="evenodd" clip-rule="evenodd" fill="#590AA3" d="M382.831,211.49c0.069,2.5,2.149,4.48,4.649,4.41
		c2.49-0.06,4.47-2.141,4.41-4.641s-2.15-4.479-4.64-4.409C384.75,206.91,382.77,208.99,382.831,211.49z"/>
	<path fill-rule="evenodd" clip-rule="evenodd" fill="#570AA6" d="M373.76,218.421c0.06,2.5,2.14,4.479,4.64,4.42
		c2.5-0.07,4.479-2.15,4.41-4.65c-0.06-2.5-2.141-4.47-4.641-4.41C375.669,213.841,373.7,215.921,373.76,218.421z"/>
	<path fill-rule="evenodd" clip-rule="evenodd" fill="#540AA8" d="M363.99,224.351c0.07,2.489,2.15,4.47,4.65,4.409
		c2.5-0.06,4.47-2.149,4.41-4.64c-0.061-2.5-2.14-4.479-4.64-4.42C365.911,219.771,363.93,221.851,363.99,224.351z"/>
	<path fill-rule="evenodd" clip-rule="evenodd" fill="#520AAB" d="M353.7,229.301c0.07,2.5,2.15,4.479,4.65,4.42
		c2.5-0.07,4.47-2.15,4.41-4.65c-0.061-2.5-2.141-4.47-4.641-4.41C355.62,224.721,353.64,226.801,353.7,229.301z"/>
	<path fill-rule="evenodd" clip-rule="evenodd" fill="#520AAB" d="M343.05,233.421c0.06,2.489,2.14,4.47,4.64,4.409
		c2.5-0.06,4.479-2.15,4.41-4.64c-0.061-2.5-2.14-4.48-4.64-4.42C344.96,228.84,342.98,230.921,343.05,233.421z"/>
	<path fill-rule="evenodd" clip-rule="evenodd" fill="#4F0AAD" d="M332.14,236.83c0.07,2.49,2.149,4.471,4.649,4.41
		s4.471-2.15,4.41-4.64c-0.06-2.5-2.14-4.48-4.64-4.421C334.06,232.25,332.081,234.33,332.14,236.83z"/>
	<path fill-rule="evenodd" clip-rule="evenodd" fill="#4C0AB0" d="M321.05,239.56c0.06,2.491,2.14,4.471,4.64,4.411
		c2.5-0.061,4.479-2.15,4.42-4.641c-0.07-2.5-2.149-4.479-4.649-4.42C322.96,234.98,320.99,237.06,321.05,239.56z"/>
	<path fill-rule="evenodd" clip-rule="evenodd" fill="#4A0AB3" d="M309.82,241.65c0.06,2.5,2.141,4.47,4.641,4.409
		c2.5-0.06,4.479-2.139,4.409-4.639c-0.06-2.5-2.14-4.48-4.64-4.421C311.73,237.07,309.76,239.15,309.82,241.65z"/>
	<path fill-rule="evenodd" clip-rule="evenodd" fill="#4A0AB3" d="M298.49,243.13c0.061,2.5,2.15,4.471,4.64,4.41
		c2.5-0.06,4.48-2.14,4.421-4.64c-0.07-2.5-2.15-4.479-4.65-4.42C300.411,238.551,298.43,240.63,298.49,243.13z"/>
	<path fill-rule="evenodd" clip-rule="evenodd" fill="#470AB5" d="M287.1,244.021c0.069,2.5,2.15,4.479,4.65,4.42
		c2.489-0.07,4.47-2.15,4.41-4.65c-0.061-2.489-2.15-4.47-4.641-4.41C289.02,239.44,287.04,241.53,287.1,244.021z"/>
	<path fill-rule="evenodd" clip-rule="evenodd" fill="#450AB8" d="M275.68,244.351c0.07,2.5,2.15,4.47,4.65,4.409
		c2.489-0.06,4.47-2.14,4.409-4.64c-0.06-2.5-2.149-4.479-4.64-4.42C277.6,239.771,275.62,241.851,275.68,244.351z"/>
	<path fill-rule="evenodd" clip-rule="evenodd" fill="#420DBA" d="M264.26,244.101c0.06,2.5,2.14,4.47,4.64,4.409
		c2.5-0.06,4.479-2.14,4.42-4.64c-0.069-2.5-2.15-4.479-4.65-4.42C266.169,239.521,264.2,241.601,264.26,244.101z"/>
	<path fill-rule="evenodd" clip-rule="evenodd" fill="#400DBD" d="M252.87,243.271c0.06,2.5,2.14,4.47,4.64,4.409
		c2.5-0.06,4.479-2.14,4.409-4.64c-0.06-2.5-2.139-4.48-4.639-4.42C254.78,238.69,252.8,240.771,252.87,243.271z"/>
	<path fill-rule="evenodd" clip-rule="evenodd" fill="#3D0DBF" d="M241.53,241.84c0.07,2.5,2.15,4.48,4.65,4.41
		c2.49-0.06,4.47-2.14,4.41-4.64c-0.06-2.5-2.15-4.48-4.64-4.41C243.45,237.26,241.47,239.34,241.53,241.84z"/>
	<path fill-rule="evenodd" clip-rule="evenodd" fill="#3B0DC2" d="M230.29,239.801c0.07,2.489,2.15,4.47,4.65,4.409
		c2.49-0.06,4.47-2.15,4.41-4.64c-0.06-2.5-2.15-4.48-4.64-4.42C232.21,235.221,230.23,237.301,230.29,239.801z"/>
	<path fill-rule="evenodd" clip-rule="evenodd" fill="#3B0DC2" d="M219.19,237.09c0.07,2.5,2.15,4.48,4.65,4.41
		c2.5-0.06,4.47-2.14,4.41-4.64s-2.14-4.48-4.64-4.41C221.11,232.51,219.13,234.59,219.19,237.09z"/>
	<path fill-rule="evenodd" clip-rule="evenodd" fill="#380DC4" d="M208.3,233.65c0.06,2.5,2.14,4.479,4.64,4.409
		c2.5-0.06,4.48-2.139,4.42-4.639c-0.07-2.5-2.15-4.48-4.65-4.411C210.21,229.07,208.24,231.15,208.3,233.65z"/>
	<path fill-rule="evenodd" clip-rule="evenodd" fill="#360DC7" d="M197.71,229.38c0.06,2.5,2.14,4.48,4.64,4.421
		c2.5-0.07,4.47-2.15,4.41-4.65s-2.14-4.471-4.64-4.41S197.64,226.88,197.71,229.38z"/>
	<path fill-rule="evenodd" clip-rule="evenodd" fill="#330DC9" d="M187.53,224.19c0.07,2.5,2.15,4.48,4.65,4.41
		c2.5-0.061,4.47-2.141,4.41-4.641c-0.06-2.5-2.14-4.479-4.64-4.409C189.45,219.61,187.47,221.69,187.53,224.19z"/>
	<path fill-rule="evenodd" clip-rule="evenodd" fill="#330DCC" d="M177.96,217.971c0.06,2.489,2.14,4.47,4.64,4.409
		c2.5-0.06,4.48-2.149,4.42-4.64c-0.07-2.5-2.15-4.48-4.65-4.42C179.87,213.391,177.9,215.471,177.96,217.971z"/>
	<path fill-rule="evenodd" clip-rule="evenodd" fill="#2E0DCF" d="M169.33,210.5c0.06,2.49,2.14,4.471,4.64,4.41
		c2.5-0.06,4.48-2.15,4.42-4.64c-0.07-2.5-2.15-4.48-4.65-4.42C171.24,205.921,169.27,208,169.33,210.5z"/>
	<path fill-rule="evenodd" clip-rule="evenodd" fill="#2E0DCF" d="M162.28,201.54c0.06,2.49,2.15,4.47,4.64,4.41
		c2.5-0.06,4.48-2.149,4.42-4.641c-0.07-2.5-2.15-4.479-4.65-4.419C164.2,196.96,162.22,199.04,162.28,201.54z"/>
	<path fill-rule="evenodd" clip-rule="evenodd" fill="#2B0DD1" d="M157.76,191.08c0.07,2.5,2.15,4.479,4.65,4.42
		c2.5-0.07,4.47-2.149,4.41-4.649c-0.06-2.49-2.14-4.471-4.64-4.41C159.68,186.5,157.7,188.591,157.76,191.08z"/>
	<path fill-rule="evenodd" clip-rule="evenodd" fill="#290DD4" d="M156.79,179.76c0.06,2.5,2.15,4.48,4.64,4.411
		c2.5-0.061,4.48-2.141,4.42-4.641c-0.07-2.5-2.15-4.47-4.65-4.41C158.71,175.18,156.73,177.26,156.79,179.76z"/>
	<path fill-rule="evenodd" clip-rule="evenodd" fill="#260DD6" d="M159.95,168.85c0.07,2.5,2.15,4.47,4.65,4.41
		c2.49-0.06,4.47-2.14,4.41-4.64s-2.15-4.48-4.64-4.42C161.87,164.27,159.89,166.35,159.95,168.85z"/>
	<path fill-rule="evenodd" clip-rule="evenodd" fill="#240DD9" d="M166.37,159.44c0.07,2.5,2.15,4.47,4.65,4.41s4.47-2.14,4.41-4.64
		s-2.14-4.48-4.64-4.41C168.29,154.86,166.31,156.94,166.37,159.44z"/>
	<path fill-rule="evenodd" clip-rule="evenodd" fill="#240DD9" d="M174.77,151.71c0.06,2.5,2.14,4.48,4.64,4.42
		c2.5-0.07,4.48-2.15,4.41-4.65c-0.06-2.5-2.14-4.47-4.64-4.41S174.7,149.21,174.77,151.71z"/>
	<path fill-rule="evenodd" clip-rule="evenodd" fill="#210DDB" d="M184.32,145.46c0.06,2.5,2.14,4.47,4.64,4.41s4.48-2.14,4.41-4.64
		c-0.06-2.5-2.14-4.48-4.64-4.42C186.23,140.88,184.25,142.96,184.32,145.46z"/>
	<path fill-rule="evenodd" clip-rule="evenodd" fill="#1F0DDE" d="M194.61,140.52c0.07,2.5,2.15,4.48,4.65,4.41
		c2.5-0.06,4.47-2.14,4.41-4.64s-2.14-4.48-4.64-4.41C196.53,135.94,194.55,138.02,194.61,140.52z"/>
	<path fill-rule="evenodd" clip-rule="evenodd" fill="#1C0DE0" d="M205.4,136.77c0.06,2.49,2.14,4.47,4.64,4.41s4.48-2.15,4.41-4.64
		c-0.06-2.5-2.14-4.48-4.64-4.42C207.31,132.19,205.34,134.27,205.4,136.77z"/>
	<path fill-rule="evenodd" clip-rule="evenodd" fill="#190DE3" d="M216.49,134.04c0.06,2.5,2.14,4.47,4.64,4.41s4.48-2.14,4.42-4.64
		c-0.07-2.5-2.15-4.48-4.65-4.42C218.4,129.46,216.43,131.54,216.49,134.04z"/>
	<path fill-rule="evenodd" clip-rule="evenodd" fill="#170DE6" d="M227.77,132.26c0.07,2.5,2.15,4.47,4.65,4.41s4.47-2.14,4.41-4.64
		s-2.14-4.48-4.64-4.42C229.69,127.68,227.71,129.76,227.77,132.26z"/>
	<path fill-rule="evenodd" clip-rule="evenodd" fill="#170FE6" d="M239.16,131.39c0.07,2.5,2.15,4.47,4.65,4.41
		c2.49-0.06,4.47-2.14,4.41-4.64s-2.15-4.48-4.64-4.42C241.08,126.81,239.1,128.89,239.16,131.39z"/>
	<path fill-rule="evenodd" clip-rule="evenodd" fill="#140FE8" d="M250.59,131.42c0.06,2.5,2.14,4.48,4.64,4.41
		c2.5-0.06,4.47-2.14,4.41-4.64s-2.14-4.48-4.64-4.41C252.5,126.84,250.52,128.92,250.59,131.42z"/>
	<path fill-rule="evenodd" clip-rule="evenodd" fill="#120FEB" d="M261.97,132.38c0.061,2.5,2.14,4.48,4.64,4.41
		c2.5-0.06,4.48-2.14,4.41-4.64c-0.06-2.5-2.141-4.47-4.641-4.41S261.9,129.88,261.97,132.38z"/>
	<path fill-rule="evenodd" clip-rule="evenodd" fill="#0F0FED" d="M273.22,134.33c0.061,2.5,2.14,4.47,4.64,4.41
		s4.48-2.14,4.421-4.64c-0.07-2.5-2.151-4.48-4.651-4.42C275.129,129.75,273.161,131.83,273.22,134.33z"/>
	<path fill-rule="evenodd" clip-rule="evenodd" fill="#0D0FF0" d="M284.2,137.47c0.061,2.49,2.141,4.47,4.641,4.41
		s4.479-2.15,4.42-4.64c-0.07-2.5-2.15-4.48-4.65-4.42C286.11,132.89,284.14,134.97,284.2,137.47z"/>
	<path fill-rule="evenodd" clip-rule="evenodd" fill="#0D0FF0" d="M294.62,142.12c0.061,2.49,2.15,4.47,4.641,4.41
		c2.5-0.06,4.479-2.15,4.42-4.64c-0.07-2.5-2.149-4.48-4.649-4.42C296.54,137.54,294.56,139.62,294.62,142.12z"/>
	<path fill-rule="evenodd" clip-rule="evenodd" fill="#0A0FF2" d="M303.94,148.69c0.061,2.5,2.141,4.47,4.641,4.41
		s4.47-2.14,4.409-4.64c-0.06-2.5-2.14-4.48-4.64-4.41C305.85,144.11,303.87,146.19,303.94,148.69z"/>
	<path fill-rule="evenodd" clip-rule="evenodd" fill="#080FF5" d="M310.6,157.86c0.061,2.49,2.14,4.47,4.64,4.41
		c2.5-0.06,4.48-2.15,4.421-4.64c-0.07-2.5-2.15-4.48-4.65-4.42C312.51,153.28,310.54,155.36,310.6,157.86z"/>
	<path fill-rule="evenodd" clip-rule="evenodd" fill="#050FF7" d="M310.86,169.01c0.07,2.5,2.15,4.48,4.65,4.42
		c2.5-0.07,4.47-2.15,4.409-4.65c-0.06-2.5-2.14-4.47-4.64-4.41C312.781,164.43,310.8,166.51,310.86,169.01z"/>
	<path fill-rule="evenodd" clip-rule="evenodd" fill="#030FFA" d="M304.129,178.08c0.061,2.5,2.141,4.471,4.641,4.41
		s4.48-2.14,4.42-4.64c-0.07-2.5-2.15-4.48-4.65-4.42C306.04,173.5,304.07,175.58,304.129,178.08z"/>
	<path fill-rule="evenodd" clip-rule="evenodd" fill="#000FFC" d="M294.27,183.76c0.061,2.5,2.141,4.48,4.641,4.411
		c2.5-0.061,4.479-2.141,4.42-4.641c-0.07-2.5-2.15-4.48-4.65-4.41C296.18,179.18,294.21,181.26,294.27,183.76z"/>
	<path fill-rule="evenodd" clip-rule="evenodd" fill="#000FFF" d="M283.3,186.88c-0.061-2.489,1.91-4.579,4.41-4.64
		s4.579,1.92,4.649,4.41c0.06,2.5-1.92,4.58-4.42,4.65C285.44,191.36,283.36,189.38,283.3,186.88z"/>
</g>
<g id="Viewport_x5F_FG">
	<rect x="1" y="1" fill-rule="evenodd" clip-rule="evenodd" fill="#0000B0" width="145.5" height="23"/>
	<g>
		<path fill="#FFFFFF" d="M17.204,18.9h-3.098l-2.366-4.969h-0.783V18.9H8.302V6.135h3.566c2.216,0,4.631,0.709,4.631,3.891
			c0,2.253-1.173,3.185-2.438,3.491L17.204,18.9z M12.03,12.162c1.125,0,1.751-0.625,1.751-2.076c0-1.433-0.528-2.142-1.858-2.142
			h-0.973v4.218H12.03z"/>
		<path fill="#FFFFFF" d="M23.836,18.9v-5.627c0-0.783-0.049-1.421-0.279-1.788c-0.173-0.261-0.439-0.424-0.871-0.424
			c-0.342,0-0.708,0.108-1.027,0.291c-0.344,0.2-0.758,0.526-1.102,0.903V18.9h-2.521V5.811h2.521v4.542h0.065
			c0.46-0.341,0.933-0.655,1.427-0.879c0.467-0.22,1.025-0.368,1.598-0.368c0.901,0,1.607,0.261,2.051,0.794
			c0.427,0.525,0.659,1.338,0.659,2.529V18.9H23.836z"/>
		<path fill="#FFFFFF" d="M28,7.398V5.685h2.521v1.713H28z M30.521,18.9H28V9.322h2.521V18.9z"/>
		<path fill="#FFFFFF" d="M38.038,18.9v-5.632c0-0.784-0.049-1.406-0.279-1.772c-0.173-0.261-0.435-0.435-0.882-0.435
			c-0.342,0-0.698,0.113-1.017,0.291c-0.344,0.2-0.757,0.526-1.102,0.903V18.9h-2.521V9.322h2.521l-0.026,1.036h0.088
			c0.46-0.341,0.937-0.655,1.43-0.884c0.467-0.22,1.025-0.368,1.598-0.368c0.901,0,1.607,0.261,2.051,0.794
			c0.427,0.525,0.659,1.338,0.659,2.529V18.9H38.038z"/>
		<path fill="#FFFFFF" d="M50.727,14.132c0,3.121-1.461,4.984-4.427,4.984c-3.089,0-4.43-1.906-4.43-5.002
			c0-3.663,1.88-5.009,4.43-5.009c2.547,0,4.427,1.346,4.427,5.009V14.132z M46.317,17.522c1.044,0,1.827-1.084,1.827-3.404
			c0-2.508-0.885-3.418-1.845-3.418c-0.963,0-1.848,0.939-1.848,3.418c0,2.47,0.815,3.404,1.848,3.404H46.317z"/>
		<path fill="#FFFFFF" d="M60.157,17.173c0.265-1.634,0.527-2.904,0.802-4.2l1.26-6.838h2.742L61.775,18.9h-3.361l-3.19-12.766
			h2.742l1.258,6.859c0.269,1.285,0.543,2.544,0.808,4.179H60.157z"/>
		<path fill="#FFFFFF" d="M65.943,7.398V5.685h2.521v1.713H65.943z M68.464,18.9h-2.521V9.322h2.521V18.9z"/>
		<path fill="#FFFFFF" d="M72.365,14.608c0.1,2.282,0.704,3.029,1.545,3.029c0.68,0,1.104-0.49,1.367-1.367l2.597,0.091
			c-0.2,0.645-0.587,1.323-1.249,1.878c-0.653,0.535-1.531,0.877-2.747,0.877c-1.098,0-2.174-0.283-2.938-1.114
			c-0.726-0.785-1.16-2.029-1.16-3.948c0-1.628,0.378-2.997,1.206-3.858c0.677-0.698,1.617-1.091,2.868-1.091
			c1.092,0,2.04,0.334,2.767,1.119c0.902,1.038,1.249,2.508,1.249,4.383H72.365z M75.279,13.331
			c-0.137-1.89-0.699-2.746-1.433-2.746c-0.71,0-1.373,0.582-1.484,2.746H75.279z"/>
		<path fill="#FFFFFF" d="M84.912,11.31c-0.185,1.538-0.363,2.551-0.563,3.808l-0.67,3.783h-3.014l-2.236-9.579h2.369l0.688,3.827
			c0.206,1.092,0.417,2.395,0.615,3.891h0.095c0.208-1.486,0.393-2.7,0.603-3.894l0.668-3.824h2.978l0.664,3.833
			c0.203,1.197,0.407,2.456,0.597,3.885h0.094c0.209-1.517,0.412-2.729,0.623-3.947l0.692-3.771h2.367L89.248,18.9h-3.017
			l-0.659-3.831c-0.202-1.285-0.376-2.275-0.566-3.76H84.912z"/>
		<path fill="#FFFFFF" d="M92.513,9.322h2.521l-0.023,0.752h0.051c0.278-0.225,0.599-0.494,1.036-0.688
			c0.413-0.164,0.874-0.281,1.455-0.281c1.023,0,1.91,0.327,2.606,1.117c0.653,0.776,1.104,2.004,1.104,3.876
			c0,1.772-0.406,3.077-1.035,3.846c-0.63,0.751-1.534,1.172-2.724,1.172c-0.402,0-0.841-0.043-1.333-0.23
			c-0.37-0.141-0.739-0.357-1.103-0.652h-0.035v5.131h-2.521V9.322z M95.034,16.324c0.238,0.324,0.53,0.572,0.862,0.743
			c0.306,0.167,0.654,0.259,1.022,0.259c0.496,0,0.964-0.209,1.292-0.67c0.268-0.405,0.47-1.144,0.47-2.512
			c0-1.202-0.17-2.01-0.481-2.54c-0.3-0.462-0.749-0.707-1.293-0.707c-0.288,0-0.621,0.06-0.974,0.231
			c-0.308,0.155-0.616,0.419-0.898,0.785V16.324z"/>
		<path fill="#FFFFFF" d="M111.188,14.132c0,3.121-1.461,4.984-4.428,4.984c-3.089,0-4.43-1.906-4.43-5.002
			c0-3.663,1.88-5.009,4.43-5.009c2.547,0,4.428,1.346,4.428,5.009V14.132z M106.778,17.522c1.044,0,1.827-1.084,1.827-3.404
			c0-2.508-0.885-3.418-1.845-3.418c-0.963,0-1.848,0.939-1.848,3.418c0,2.47,0.816,3.404,1.848,3.404H106.778z"/>
		<path fill="#FFFFFF" d="M114.917,10.166c0.201-0.276,0.424-0.543,0.704-0.747c0.264-0.184,0.569-0.313,0.941-0.313
			c0.195,0,0.376,0.024,0.538,0.072c0.148,0.044,0.28,0.102,0.409,0.184l-0.201,2.09c-0.091-0.097-0.202-0.173-0.329-0.242
			c-0.164-0.075-0.319-0.112-0.498-0.112c-0.256,0-0.502,0.098-0.826,0.379c-0.26,0.229-0.512,0.551-0.769,0.964v6.46h-2.521V9.322
			h2.521l-0.024,0.844H114.917z"/>
		<path fill="#FFFFFF" d="M118.759,7.196h2.521v2.125h1.542v1.62h-1.542v4.361c0,1.409,0.266,2.112,0.89,2.112
			c0.389,0,0.715-0.21,0.925-0.377l0.376,1.621c-0.529,0.239-1.112,0.458-1.903,0.458c-1.814,0-2.809-0.917-2.809-3.248v-4.927
			h-0.937v-1.62h0.937V7.196z"/>
	</g>
	
		<rect x="1" y="1" fill-rule="evenodd" clip-rule="evenodd" fill="none" stroke="#000000" stroke-width="2" stroke-linecap="round" width="519.28" height="354"/>
</g>
</svg>
