<?xml version="1.0" encoding="utf-8"?>
<!-- Generator: Adobe Illustrator 14.0.0, SVG Export Plug-In . SVG Version: 6.00 Build 43363)  -->
<!DOCTYPE svg PUBLIC "-//W3C//DTD SVG 1.0//EN" "http://www.w3.org/TR/2001/REC-SVG-20010904/DTD/svg10.dtd">
<svg version="1.0" id="Layer_1" xmlns="http://www.w3.org/2000/svg" xmlns:xlink="http://www.w3.org/1999/xlink" x="0px" y="0px"
	 width="167.125px" height="310.701px" viewBox="0 0 167.125 310.701" enable-background="new 0 0 167.125 310.701"
	 xml:space="preserve">
<g>
	<path fill-rule="evenodd" clip-rule="evenodd" fill="none" stroke="#000000" stroke-linecap="round" stroke-linejoin="round" d="
		M40.708,28.199c-13.02,33.97-26.03,67.94-39.05,101.91c21.49,8.17,42.97,16.341,64.45,24.5c13.36,5.08,28.45,0.36,36.54-11.42
		c8.09-11.779,7.07-27.56-2.47-38.2c-8.32-9.279-2.87-24.09,9.48-25.77c12.36-1.68,21.56,11.14,16.01,22.31
		c10.54,2.83,21.08,5.66,31.62,8.49c2.69-9.31,5.39-18.62,8.08-27.93c-9.18-2.831-18.35-5.66-27.52-8.49
		c-8.05-2.48-12.89-10.67-11.18-18.91c1.7-8.25,9.39-13.85,17.76-12.94c2.26-8.63,4.52-17.25,6.78-25.88
		c-13.14-4.7-26.28-9.41-39.42-14.11c-5.71,17.04-11.41,34.08-17.12,51.12C76.677,44.649,58.688,36.429,40.708,28.199z"/>
	<path fill-rule="evenodd" clip-rule="evenodd" stroke="#000000" stroke-width="0.5" d="M0.257,130.099
		c-0.08-0.82,0.52-1.56,1.35-1.649c0.83-0.081,1.57,0.529,1.65,1.349c0.08,0.831-0.52,1.57-1.35,1.651
		C1.077,131.54,0.337,130.929,0.257,130.099z"/>
	<path fill-rule="evenodd" clip-rule="evenodd" stroke="#000000" stroke-width="0.5" d="M39.208,28.349
		c-0.09-0.83,0.52-1.57,1.35-1.65c0.82-0.08,1.56,0.52,1.65,1.35c0.08,0.83-0.53,1.57-1.35,1.65
		C40.027,29.779,39.287,29.179,39.208,28.349z"/>
	<path fill-rule="evenodd" clip-rule="evenodd" stroke="#000000" stroke-width="0.5" d="M93.167,53.029
		c-0.08-0.83,0.52-1.57,1.35-1.65c0.83-0.09,1.57,0.52,1.65,1.35c0.08,0.82-0.52,1.56-1.35,1.65
		C93.987,54.459,93.247,53.849,93.167,53.029z"/>
	<path fill-rule="evenodd" clip-rule="evenodd" stroke="#000000" stroke-width="0.5" d="M110.287,1.909
		c-0.08-0.83,0.52-1.57,1.35-1.65c0.83-0.09,1.57,0.52,1.65,1.35c0.08,0.82-0.52,1.56-1.35,1.65
		C111.107,3.339,110.367,2.729,110.287,1.909z"/>
	<path fill-rule="evenodd" clip-rule="evenodd" stroke="#000000" stroke-width="0.5" d="M149.708,16.019
		c-0.08-0.82,0.52-1.56,1.35-1.65c0.83-0.08,1.57,0.53,1.65,1.35c0.08,0.83-0.52,1.57-1.35,1.65
		C150.527,17.459,149.787,16.849,149.708,16.019z"/>
	<path fill-rule="evenodd" clip-rule="evenodd" stroke="#000000" stroke-width="0.5" d="M142.927,41.899
		c-0.09-0.83,0.52-1.57,1.35-1.65c0.82-0.08,1.56,0.52,1.65,1.35c0.08,0.83-0.53,1.57-1.35,1.65
		C143.747,43.329,143.007,42.729,142.927,41.899z"/>
	<path fill-rule="evenodd" clip-rule="evenodd" stroke="#000000" stroke-width="0.5" d="M163.867,82.239
		c-0.08-0.82,0.52-1.56,1.35-1.649c0.83-0.08,1.57,0.529,1.65,1.35c0.08,0.83-0.52,1.57-1.35,1.65
		C164.688,83.679,163.947,83.069,163.867,82.239z"/>
	<path fill-rule="evenodd" clip-rule="evenodd" stroke="#000000" stroke-width="0.5" d="M155.787,110.168
		c-0.08-0.819,0.52-1.56,1.35-1.649c0.83-0.08,1.57,0.529,1.65,1.35c0.08,0.831-0.52,1.57-1.35,1.65
		C156.607,111.609,155.867,110.999,155.787,110.168z"/>
	<path fill-rule="evenodd" clip-rule="evenodd" stroke="#000000" stroke-width="0.5" d="M124.167,101.679
		c-0.08-0.83,0.53-1.57,1.35-1.65c0.83-0.079,1.57,0.52,1.65,1.351c0.09,0.83-0.52,1.57-1.35,1.649
		C124.997,103.109,124.257,102.509,124.167,101.679z"/>
	<g>
		<path fill-rule="evenodd" clip-rule="evenodd" fill="#FFFFFF" stroke="#000000" stroke-width="0.5" d="M96.867,102.7
			c-0.08-0.831,0.52-1.57,1.35-1.651c0.83-0.089,1.57,0.521,1.65,1.351c0.08,0.82-0.52,1.561-1.35,1.649
			C97.688,104.129,96.947,103.519,96.867,102.7z"/>
		
			<circle fill-rule="evenodd" clip-rule="evenodd" fill="#FFFFFF" stroke="#000000" stroke-width="0.5" cx="137.847" cy="73.599" r="1.507"/>
		<path fill-rule="evenodd" clip-rule="evenodd" fill="#FFFFFF" stroke="#000000" stroke-width="0.5" d="M64.607,154.759
			c-0.08-0.83,0.53-1.57,1.35-1.65c0.83-0.08,1.57,0.521,1.65,1.351c0.09,0.83-0.52,1.569-1.35,1.649
			C65.438,156.189,64.697,155.589,64.607,154.759z"/>
	</g>
	<g>
		<text transform="matrix(1 0 0 1 107.6372 95.9097)" font-family="'Arial-BoldMT'" font-size="10">A</text>
	</g>
</g>
<g>
	<g>
		<path fill-rule="evenodd" clip-rule="evenodd" fill="#E3E3E3" d="M6.337,271.2c-1.26,3.289-1.16,6.949,0.279,10.18
			c1.45,3.22,4.11,5.729,7.411,6.989c1.569-4.14,3.14-8.279,4.72-12.419C14.607,274.359,10.477,272.779,6.337,271.2z"/>
		<path fill-rule="evenodd" clip-rule="evenodd" fill="#E3E3E3" d="M53.477,187.639c-3.579-1.631-7.699-1.6-11.25,0.1
			c-3.37,1.6-5.35,3.74-6.68,7.23c4.13,1.58,8.27,3.17,12.4,4.75C49.787,195.7,51.627,191.668,53.477,187.639z"/>
		<path fill-rule="evenodd" clip-rule="evenodd" fill="#E3E3E3" d="M90.437,200.929c4.141-1.229,7.431-4.41,8.8-8.511
			c-4.2-1.41-8.39-2.81-12.589-4.219c-1.851,4.029-3.69,8.059-5.53,12.079C84.297,201.739,87.087,201.929,90.437,200.929z"/>
		<path fill-rule="evenodd" clip-rule="evenodd" fill="#E3E3E3" d="M107.357,168.179c4.2,1.409,8.4,2.81,12.601,4.22
			c1.49-4.17,2.979-8.34,4.479-12.51c-2.94-1.051-5.52-1.1-8.489-0.15C111.898,161.019,108.708,164.159,107.357,168.179z"/>
		<path fill-rule="evenodd" clip-rule="evenodd" fill="#E3E3E3" d="M139.618,165.329c-1.5,4.17-2.99,8.34-4.48,12.51
			c4.28,1.121,8.561,2.24,12.85,3.361c0.811-3.101,0.61-5.73-0.67-8.671C145.847,169.168,143.067,166.569,139.618,165.329z"/>
		<path fill-rule="evenodd" clip-rule="evenodd" fill="#E3E3E3" d="M146.567,186.629c-4.289-1.121-8.57-2.24-12.85-3.36
			c1.311,4.22,2.63,8.45,3.95,12.681c1.45-0.461,2.73-1.111,3.95-2.011C144.247,191.999,145.737,189.79,146.567,186.629z"/>
		<path fill-rule="evenodd" clip-rule="evenodd" fill="#E3E3E3" d="M152.757,231.779c-1.31,4.23-2.61,8.46-3.92,12.7
			c4.26,1.23,8.51,2.45,12.76,3.681c1.03-3.561,0.75-6.45-0.95-9.761C159.017,235.219,156.167,232.838,152.757,231.779z"/>
		<path fill-rule="evenodd" clip-rule="evenodd" fill="#E3E3E3" d="M160.767,251.029c-4.25-1.23-8.5-2.46-12.76-3.689
			c-1.15,4.279-2.29,8.55-3.44,12.829c3.49,0.94,7.211,0.41,10.311-1.459C158.007,256.819,159.757,254.54,160.767,251.029z"/>
		<path fill-rule="evenodd" clip-rule="evenodd" fill="#E3E3E3" d="M136.857,258.099c1.15-4.28,2.3-8.551,3.45-12.83
			c-4.409,0.44-8.811,0.891-13.22,1.33c0.319,3.149,1.399,5.52,3.58,7.811C132.448,256.29,134.368,257.429,136.857,258.099z"/>
	</g>
	<g>
		<g>
			
				<line fill-rule="evenodd" clip-rule="evenodd" fill="none" stroke="#000000" stroke-linejoin="bevel" x1="46.367" y1="198.149" x2="49.017" y2="200.799"/>
			
				<line fill-rule="evenodd" clip-rule="evenodd" fill="none" stroke="#000000" stroke-linejoin="bevel" x1="46.367" y1="200.799" x2="49.017" y2="198.149"/>
		</g>
		<g>
			
				<line fill-rule="evenodd" clip-rule="evenodd" fill="none" stroke="#000000" stroke-linejoin="bevel" x1="17.057" y1="274.979" x2="19.708" y2="277.629"/>
			
				<line fill-rule="evenodd" clip-rule="evenodd" fill="none" stroke="#000000" stroke-linejoin="bevel" x1="17.057" y1="277.629" x2="19.708" y2="274.979"/>
		</g>
		<g>
			
				<line fill-rule="evenodd" clip-rule="evenodd" fill="none" stroke="#000000" stroke-linejoin="bevel" x1="84.958" y1="187.239" x2="87.607" y2="189.889"/>
			
				<line fill-rule="evenodd" clip-rule="evenodd" fill="none" stroke="#000000" stroke-linejoin="bevel" x1="84.958" y1="189.889" x2="87.607" y2="187.239"/>
		</g>
		<g>
			
				<line fill-rule="evenodd" clip-rule="evenodd" fill="none" stroke="#000000" stroke-linejoin="bevel" x1="138.618" y1="244.309" x2="141.267" y2="246.959"/>
			
				<line fill-rule="evenodd" clip-rule="evenodd" fill="none" stroke="#000000" stroke-linejoin="bevel" x1="138.618" y1="246.959" x2="141.267" y2="244.309"/>
		</g>
		<g>
			
				<line fill-rule="evenodd" clip-rule="evenodd" fill="none" stroke="#000000" stroke-linejoin="bevel" x1="146.328" y1="246.379" x2="148.977" y2="249.029"/>
			
				<line fill-rule="evenodd" clip-rule="evenodd" fill="none" stroke="#000000" stroke-linejoin="bevel" x1="146.328" y1="249.029" x2="148.977" y2="246.379"/>
		</g>
		<g>
			
				<line fill-rule="evenodd" clip-rule="evenodd" fill="none" stroke="#000000" stroke-linejoin="bevel" x1="147.157" y1="243.509" x2="149.807" y2="246.16"/>
			
				<line fill-rule="evenodd" clip-rule="evenodd" fill="none" stroke="#000000" stroke-linejoin="bevel" x1="147.157" y1="246.16" x2="149.807" y2="243.509"/>
		</g>
		<g>
			
				<line fill-rule="evenodd" clip-rule="evenodd" fill="none" stroke="#000000" stroke-linejoin="bevel" x1="132.328" y1="181.999" x2="134.977" y2="184.649"/>
			
				<line fill-rule="evenodd" clip-rule="evenodd" fill="none" stroke="#000000" stroke-linejoin="bevel" x1="132.328" y1="184.649" x2="134.977" y2="181.999"/>
		</g>
		<g>
			
				<line fill-rule="evenodd" clip-rule="evenodd" fill="none" stroke="#000000" stroke-linejoin="bevel" x1="133.877" y1="176.439" x2="136.528" y2="179.088"/>
			
				<line fill-rule="evenodd" clip-rule="evenodd" fill="none" stroke="#000000" stroke-linejoin="bevel" x1="133.877" y1="179.088" x2="136.528" y2="176.439"/>
		</g>
		<g>
			
				<line fill-rule="evenodd" clip-rule="evenodd" fill="none" stroke="#000000" stroke-linejoin="bevel" x1="118.698" y1="171.008" x2="121.347" y2="173.659"/>
			
				<line fill-rule="evenodd" clip-rule="evenodd" fill="none" stroke="#000000" stroke-linejoin="bevel" x1="118.698" y1="173.659" x2="121.347" y2="171.008"/>
		</g>
	</g>
	<g>
		
			<path fill-rule="evenodd" clip-rule="evenodd" fill="none" stroke="#000000" stroke-width="2" stroke-linecap="round" stroke-linejoin="round" d="
			M53.368,187.588c-6.98-3.189-15.2,0.17-17.94,7.33"/>
		<path fill-rule="evenodd" clip-rule="evenodd" fill="none" stroke="#000000" stroke-linecap="round" stroke-linejoin="round" d="
			M35.427,194.918c-9.74,25.42-19.47,50.83-29.21,76.25"/>
		
			<path fill-rule="evenodd" clip-rule="evenodd" fill="none" stroke="#000000" stroke-width="2" stroke-linecap="round" stroke-linejoin="round" d="
			M6.217,271.168c-2.63,6.871,0.811,14.57,7.681,17.181"/>
		<path fill-rule="evenodd" clip-rule="evenodd" fill="none" stroke="#000000" stroke-linecap="round" stroke-linejoin="round" d="
			M13.898,288.349c15.329,5.819,30.659,11.649,45.989,17.479"/>
		<path fill-rule="evenodd" clip-rule="evenodd" fill="none" stroke="#000000" stroke-linecap="round" stroke-linejoin="round" d="
			M59.887,305.829c8.58,3.261,14.18,5.73,23.859,3.54"/>
		<path fill-rule="evenodd" clip-rule="evenodd" fill="none" stroke="#000000" stroke-linecap="round" stroke-linejoin="round" d="
			M83.747,309.369c8.11-1.84,15.131-6.85,19.5-13.93"/>
		<path fill-rule="evenodd" clip-rule="evenodd" fill="none" stroke="#000000" stroke-linecap="round" stroke-linejoin="round" d="
			M103.247,295.439c4.371-7.07,5.721-15.59,3.73-23.67"/>
		<path fill-rule="evenodd" clip-rule="evenodd" fill="none" stroke="#000000" stroke-linecap="round" stroke-linejoin="round" d="
			M106.977,271.769c-1.01-4.13-2.699-7.7-5.24-11.109"/>
		<path fill-rule="evenodd" clip-rule="evenodd" fill="none" stroke="#000000" stroke-linecap="round" stroke-linejoin="round" d="
			M101.737,260.66c-2.95-3.96-4.959-5.241-5.619-10.641"/>
		<path fill-rule="evenodd" clip-rule="evenodd" fill="none" stroke="#000000" stroke-linecap="round" stroke-linejoin="round" d="
			M96.118,250.019c-1.061-8.569,5.08-16.37,13.669-17.34"/>
		<path fill-rule="evenodd" clip-rule="evenodd" fill="none" stroke="#000000" stroke-linecap="round" stroke-linejoin="round" d="
			M109.787,232.679c8.611-0.979,16.351,5.271,17.221,13.89"/>
		
			<path fill-rule="evenodd" clip-rule="evenodd" fill="none" stroke="#000000" stroke-width="2" stroke-linecap="round" stroke-linejoin="round" d="
			M127.007,246.569c0.55,5.49,4.44,10.07,9.771,11.5"/>
		<path fill-rule="evenodd" clip-rule="evenodd" fill="none" stroke="#000000" stroke-linecap="round" stroke-linejoin="round" d="
			M136.778,258.069c2.569,0.69,5.14,1.381,7.709,2.07"/>
		
			<path fill-rule="evenodd" clip-rule="evenodd" fill="none" stroke="#000000" stroke-width="2" stroke-linecap="round" stroke-linejoin="round" d="
			M144.487,260.139c6.99,1.88,14.2-2.18,16.211-9.141"/>
		<path fill-rule="evenodd" clip-rule="evenodd" fill="none" stroke="#000000" stroke-linecap="round" stroke-linejoin="round" d="
			M160.698,250.999c0.279-0.959,0.549-1.909,0.83-2.869"/>
		
			<path fill-rule="evenodd" clip-rule="evenodd" fill="none" stroke="#000000" stroke-width="2" stroke-linecap="round" stroke-linejoin="round" d="
			M161.528,248.129c2.009-6.961-1.921-14.25-8.851-16.391"/>
		<path fill-rule="evenodd" clip-rule="evenodd" fill="none" stroke="#000000" stroke-linecap="round" stroke-linejoin="round" d="
			M152.677,231.739c-4.55-1.4-9.11-2.81-13.67-4.21"/>
		<path fill-rule="evenodd" clip-rule="evenodd" fill="none" stroke="#000000" stroke-linecap="round" stroke-linejoin="round" d="
			M139.007,227.529c-4.95-1.53-8.49-3.63-11.021-8.45"/>
		<path fill-rule="evenodd" clip-rule="evenodd" fill="none" stroke="#000000" stroke-linecap="round" stroke-linejoin="round" d="
			M127.987,219.079c-4.74-9.029-0.14-20.149,9.601-23.189"/>
		
			<path fill-rule="evenodd" clip-rule="evenodd" fill="none" stroke="#000000" stroke-width="2" stroke-linecap="round" stroke-linejoin="round" d="
			M137.587,195.889c4.37-1.36,7.74-4.881,8.899-9.311"/>
		<path fill-rule="evenodd" clip-rule="evenodd" fill="none" stroke="#000000" stroke-linecap="round" stroke-linejoin="round" d="
			M146.487,186.579c0.471-1.81,0.95-3.619,1.42-5.43"/>
		
			<path fill-rule="evenodd" clip-rule="evenodd" fill="none" stroke="#000000" stroke-width="2" stroke-linecap="round" stroke-linejoin="round" d="
			M147.907,181.149c1.75-6.67-1.89-13.561-8.37-15.88"/>
		<path fill-rule="evenodd" clip-rule="evenodd" fill="none" stroke="#000000" stroke-linecap="round" stroke-linejoin="round" d="
			M139.537,165.269c-5.069-1.81-10.13-3.63-15.189-5.44"/>
		
			<path fill-rule="evenodd" clip-rule="evenodd" fill="none" stroke="#000000" stroke-width="2" stroke-linecap="round" stroke-linejoin="round" d="
			M124.347,159.829c-7.01-2.51-14.72,1.23-17.08,8.291"/>
		<path fill-rule="evenodd" clip-rule="evenodd" fill="none" stroke="#000000" stroke-linecap="round" stroke-linejoin="round" d="
			M107.267,168.12c-2.71,8.08-5.41,16.17-8.119,24.25"/>
		
			<path fill-rule="evenodd" clip-rule="evenodd" fill="none" stroke="#000000" stroke-width="2" stroke-linecap="round" stroke-linejoin="round" d="
			M99.148,192.37c-2.511,7.479-10.95,11.149-18.131,7.859"/>
		<path fill-rule="evenodd" clip-rule="evenodd" fill="none" stroke="#000000" stroke-linecap="round" stroke-linejoin="round" d="
			M81.017,200.229c-9.22-4.21-18.439-8.43-27.649-12.641"/>
		
			<path fill-rule="evenodd" clip-rule="evenodd" fill="none" stroke="#000000" stroke-width="0.5" stroke-linecap="round" stroke-linejoin="round" stroke-dasharray="0.99,0.99" d="
			M40.537,181.7c-13.009,33.969-26.029,67.939-39.039,101.909c21.479,8.17,42.96,16.341,64.45,24.5
			c13.35,5.08,28.45,0.36,36.529-11.42c8.09-11.779,7.07-27.56-2.47-38.2c-8.31-9.279-2.87-24.09,9.489-25.77
			c12.351-1.68,21.551,11.14,16.011,22.31c10.54,2.83,21.08,5.66,31.62,8.49c2.689-9.31,5.38-18.62,8.07-27.93
			c-9.17-2.831-18.341-5.66-27.521-8.49c-8.04-2.479-12.88-10.67-11.181-18.91c1.701-8.25,9.391-13.851,17.761-12.94
			c2.26-8.629,4.521-17.25,6.779-25.879c-13.139-4.701-26.279-9.41-39.419-14.111c-5.7,17.041-11.41,34.08-17.121,51.121
			C76.507,198.149,58.528,189.929,40.537,181.7z"/>
	</g>
	<g>
		<text transform="matrix(1 0 0 1 107.5771 250.1489)" font-family="'Arial-BoldMT'" font-size="10">B</text>
	</g>
</g>
</svg>
