<?xml version="1.0" encoding="utf-8"?>
<!-- Generator: Adobe Illustrator 14.0.0, SVG Export Plug-In . SVG Version: 6.00 Build 43363)  -->
<!DOCTYPE svg PUBLIC "-//W3C//DTD SVG 1.1//EN" "http://www.w3.org/Graphics/SVG/1.1/DTD/svg11.dtd">
<svg version="1.1" id="Layer_1" xmlns="http://www.w3.org/2000/svg" xmlns:xlink="http://www.w3.org/1999/xlink" x="0px" y="0px"
	 width="213px" height="94px" viewBox="0 0 213 94" enable-background="new 0 0 213 94" xml:space="preserve">
<path fill-rule="evenodd" clip-rule="evenodd" fill="#BDBDBD" d="M48.313,85.701l-1.75-1.06c-7.54-5.1-12.5-13.73-12.5-23.51
	l0.2-3.2l0.46,0.28c4.021,2.18,8.62,3.42,13.51,3.42s9.49-1.24,13.51-3.42l0.2-0.13l0.21,3.3c0,9.78-4.96,18.41-12.5,23.51
	L48.313,85.701z"/>
<path fill-rule="evenodd" clip-rule="evenodd" fill="#BDBDBD" d="M34.253,57.941l-0.13-0.06c-6.92-3.99-12.01-10.81-13.66-18.88
	l-0.37-2.41l0.21-0.13c4.01-2.18,8.62-3.42,13.51-3.42c5.13,0,9.95,1.36,14.101,3.75l0.01,0.01l-1.36,0.83
	c-6.04,4.08-10.42,10.41-11.93,17.79L34.253,57.941z"/>
<path fill-rule="evenodd" clip-rule="evenodd" fill="#BDBDBD" d="M61.943,58.061l-0.36-2.39c-1.52-7.38-5.9-13.71-11.93-17.79
	l-1.75-1.06l0.4-0.28c4.15-2.39,8.97-3.76,14.1-3.76c4.89,0,9.49,1.25,13.51,3.43l0.47,0.28l-0.38,2.51
	c-1.66,8.07-6.74,14.89-13.67,18.88L61.943,58.061z"/>
<path fill-rule="evenodd" clip-rule="evenodd" fill="#E0E0E0" d="M62.403,89.481c-4.89,0-9.49-1.24-13.51-3.42l-0.58-0.36l1.34-0.81
	c7.54-5.1,12.5-13.73,12.5-23.51c0-0.97-0.05-1.94-0.14-2.89l-0.07-0.43l0.39-0.18c6.93-3.99,12.01-10.81,13.67-18.88l0.38-2.51
	l1.87,1.14c7.54,5.09,12.5,13.72,12.5,23.5C90.753,76.781,78.053,89.481,62.403,89.481z"/>
<path fill-rule="evenodd" clip-rule="evenodd" fill="#E0E0E0" d="M47.923,36.801l-0.01-0.01c-4.15-2.39-8.97-3.75-14.101-3.75
	c-4.89,0-9.5,1.24-13.51,3.42l-0.21,0.13l-0.06-0.41c-0.1-0.95-0.15-1.92-0.15-2.89c0-15.65,12.7-28.35,28.35-28.35
	s28.35,12.7,28.35,28.35l-0.21,3.2l-0.46-0.28c-4.02-2.18-8.62-3.43-13.51-3.43s-9.49,1.25-13.51,3.43L47.923,36.801z"/>
<path fill-rule="evenodd" clip-rule="evenodd" fill="#E0E0E0" d="M33.813,89.731c-15.649,0-28.35-12.7-28.35-28.35
	c0-9.78,4.96-18.4,12.5-23.5l2.13-1.29l0.37,2.41c1.65,8.07,6.74,14.89,13.66,18.88l0.13,0.06l-0.05,0.3
	c-0.101,0.95-0.141,1.91-0.141,2.89c0,9.78,4.96,18.41,12.5,23.51l1.75,1.06l-1,0.61C43.303,88.491,38.693,89.731,33.813,89.731z"/>
<path fill-rule="evenodd" clip-rule="evenodd" fill="#949494" d="M48.233,61.631c-4.89,0-9.49-1.24-13.51-3.42l-0.47-0.29l0.38-2.5
	c1.32-6.45,4.84-12.11,9.74-16.16l3.53-2.44l1.75,1.06c6.03,4.08,10.41,10.41,11.93,17.79l0.36,2.39l-3.97,1.85
	C54.933,61.031,51.653,61.631,48.233,61.631z"/>
<path fill-rule="evenodd" clip-rule="evenodd" fill="none" stroke="#000000" d="M62.153,61.381c0,15.65-12.7,28.35-28.34,28.35
	c-15.649,0-28.35-12.7-28.35-28.35c0-15.64,12.7-28.34,28.35-28.34C49.453,33.041,62.153,45.741,62.153,61.381z"/>
<path fill-rule="evenodd" clip-rule="evenodd" fill="none" stroke="#000000" d="M90.753,61.131c0,15.65-12.7,28.35-28.35,28.35
	c-15.64,0-28.34-12.7-28.34-28.35c0-15.65,12.7-28.35,28.34-28.35C78.053,32.781,90.753,45.481,90.753,61.131z"/>
<path fill-rule="evenodd" clip-rule="evenodd" fill="none" stroke="#000000" d="M76.583,33.291c0,15.64-12.7,28.34-28.35,28.34
	s-28.35-12.7-28.35-28.34c0-15.65,12.7-28.35,28.35-28.35S76.583,17.641,76.583,33.291z"/>
<g>
	<path d="M49.329,13.611l-0.395-1.207h-2.129l-0.422,1.207h-0.875l2.324-5.801h0.207l2.156,5.801H49.329z M47.899,9.311l-0.887,2.52
		h1.699L47.899,9.311z"/>
</g>
<g>
	<path d="M15.462,76.161h-1.633v-5.723c0.695-0.034,1.197-0.051,1.504-0.051c0.565,0,1.002,0.122,1.313,0.365
		s0.465,0.592,0.465,1.045c0,0.266-0.099,0.508-0.297,0.727s-0.417,0.355-0.656,0.41c0.453,0.109,0.783,0.291,0.99,0.543
		s0.311,0.596,0.311,1.031c0,0.502-0.184,0.904-0.553,1.203S16.056,76.161,15.462,76.161z M14.61,71.063v1.645
		c0.164,0.016,0.367,0.023,0.609,0.023c0.74,0,1.109-0.301,1.109-0.902c0-0.529-0.34-0.793-1.02-0.793
		C15.049,71.036,14.816,71.045,14.61,71.063z M14.61,73.313v2.184c0.268,0.026,0.474,0.039,0.617,0.039
		c0.49,0,0.847-0.092,1.072-0.275s0.338-0.476,0.338-0.877c0-0.373-0.107-0.647-0.322-0.824s-0.574-0.266-1.076-0.266L14.61,73.313z
		"/>
</g>
<g>
	<path d="M82.281,70.5l-0.262,0.668c-0.25-0.182-0.643-0.273-1.18-0.273c-0.502,0-0.906,0.216-1.209,0.648s-0.455,0.99-0.455,1.672
		c0,0.651,0.156,1.179,0.467,1.584s0.713,0.607,1.205,0.607c0.537,0,0.949-0.19,1.238-0.57l0.43,0.598
		c-0.453,0.451-1.037,0.676-1.75,0.676c-0.748,0-1.336-0.27-1.766-0.809s-0.645-1.25-0.645-2.133c0-0.854,0.229-1.564,0.688-2.129
		s1.051-0.848,1.777-0.848C81.443,70.191,81.93,70.294,82.281,70.5z"/>
</g>
<g>
	<path d="M43.962,74.511h-1.633v-5.723c0.695-0.034,1.197-0.051,1.504-0.051c0.565,0,1.002,0.122,1.313,0.365
		s0.465,0.592,0.465,1.045c0,0.266-0.099,0.508-0.297,0.727s-0.417,0.355-0.656,0.41c0.453,0.109,0.783,0.291,0.99,0.543
		s0.311,0.596,0.311,1.031c0,0.502-0.184,0.904-0.553,1.203S44.556,74.511,43.962,74.511z M43.11,69.414v1.645
		c0.164,0.016,0.367,0.023,0.609,0.023c0.74,0,1.109-0.301,1.109-0.902c0-0.529-0.34-0.793-1.02-0.793
		C43.549,69.386,43.316,69.396,43.11,69.414z M43.11,71.664v2.184c0.268,0.026,0.474,0.039,0.617,0.039
		c0.49,0,0.847-0.092,1.072-0.275s0.338-0.476,0.338-0.877c0-0.373-0.107-0.647-0.322-0.824s-0.574-0.266-1.076-0.266L43.11,71.664z
		"/>
	<path d="M47.937,71.753H49.3v0.551h-1.363v1.348h-0.551v-1.348h-1.359v-0.551h1.359v-1.34h0.551V71.753z"/>
	<path d="M53.264,69l-0.262,0.668c-0.25-0.182-0.643-0.273-1.18-0.273c-0.502,0-0.906,0.216-1.209,0.648s-0.455,0.99-0.455,1.672
		c0,0.651,0.156,1.179,0.467,1.584s0.713,0.607,1.205,0.607c0.537,0,0.949-0.19,1.238-0.57l0.43,0.598
		c-0.453,0.451-1.037,0.676-1.75,0.676c-0.748,0-1.336-0.27-1.766-0.809s-0.645-1.25-0.645-2.133c0-0.854,0.229-1.564,0.688-2.129
		s1.051-0.848,1.777-0.848C52.426,68.691,52.913,68.794,53.264,69z"/>
</g>
<g>
	<path d="M26.712,43.761h-1.633v-5.723c0.695-0.034,1.197-0.051,1.504-0.051c0.565,0,1.002,0.122,1.313,0.365
		s0.465,0.592,0.465,1.045c0,0.266-0.099,0.508-0.297,0.727s-0.417,0.355-0.656,0.41c0.453,0.109,0.783,0.291,0.99,0.543
		s0.311,0.596,0.311,1.031c0,0.502-0.184,0.904-0.553,1.203S27.306,43.761,26.712,43.761z M25.86,38.664v1.645
		c0.164,0.016,0.367,0.023,0.609,0.023c0.74,0,1.109-0.301,1.109-0.902c0-0.529-0.34-0.793-1.02-0.793
		C26.299,38.636,26.066,38.646,25.86,38.664z M25.86,40.914v2.184c0.268,0.026,0.474,0.039,0.617,0.039
		c0.49,0,0.847-0.092,1.072-0.275s0.338-0.476,0.338-0.877c0-0.373-0.107-0.647-0.322-0.824s-0.574-0.266-1.076-0.266L25.86,40.914z
		"/>
	<path d="M30.687,41.003h1.363v0.551h-1.363v1.348h-0.551v-1.348h-1.359v-0.551h1.359v-1.34h0.551V41.003z"/>
	<path d="M35.612,43.761l-0.395-1.207h-2.129l-0.422,1.207h-0.875l2.324-5.801h0.207l2.156,5.801H35.612z M34.182,39.46l-0.887,2.52
		h1.699L34.182,39.46z"/>
</g>
<g>
	<path d="M62.829,43.161l-0.395-1.207h-2.129l-0.422,1.207h-0.875l2.324-5.801h0.207l2.156,5.801H62.829z M61.399,38.86l-0.887,2.52
		h1.699L61.399,38.86z"/>
	<path d="M65.378,40.403h1.363v0.551h-1.363v1.348h-0.551v-1.348h-1.359v-0.551h1.359v-1.34h0.551V40.403z"/>
	<path d="M70.705,37.649l-0.262,0.668c-0.25-0.182-0.644-0.273-1.18-0.273c-0.503,0-0.906,0.216-1.209,0.648
		c-0.304,0.432-0.455,0.99-0.455,1.672c0,0.651,0.155,1.179,0.467,1.584c0.311,0.405,0.713,0.607,1.205,0.607
		c0.536,0,0.949-0.19,1.238-0.57l0.43,0.598c-0.453,0.451-1.037,0.676-1.75,0.676c-0.748,0-1.336-0.27-1.766-0.809
		s-0.645-1.25-0.645-2.133c0-0.854,0.229-1.564,0.688-2.129c0.458-0.565,1.051-0.848,1.777-0.848
		C69.866,37.341,70.354,37.444,70.705,37.649z"/>
</g>
<g>
	<path d="M41.882,56.211l-0.395-1.207h-2.129l-0.422,1.207h-0.875l2.324-5.801h0.207l2.156,5.801H41.882z M40.453,51.91l-0.887,2.52
		h1.699L40.453,51.91z"/>
	<path d="M44.432,53.453h1.363v0.551h-1.363v1.348h-0.551v-1.348h-1.359v-0.551h1.359v-1.34h0.551V53.453z"/>
	<path d="M47.739,56.211h-1.633v-5.723c0.695-0.034,1.196-0.051,1.504-0.051c0.565,0,1.002,0.122,1.313,0.365
		c0.31,0.244,0.465,0.592,0.465,1.045c0,0.266-0.099,0.508-0.297,0.727c-0.198,0.219-0.417,0.355-0.656,0.41
		c0.453,0.109,0.783,0.291,0.99,0.543s0.311,0.596,0.311,1.031c0,0.502-0.185,0.904-0.553,1.203
		C48.814,56.061,48.333,56.211,47.739,56.211z M46.888,51.113v1.645c0.164,0.016,0.367,0.023,0.609,0.023
		c0.739,0,1.109-0.301,1.109-0.902c0-0.529-0.34-0.793-1.02-0.793C47.326,51.086,47.093,51.095,46.888,51.113z M46.888,53.363v2.184
		c0.268,0.026,0.474,0.039,0.617,0.039c0.489,0,0.847-0.092,1.072-0.275c0.225-0.184,0.338-0.476,0.338-0.877
		c0-0.373-0.107-0.647-0.322-0.824s-0.574-0.266-1.076-0.266L46.888,53.363z"/>
	<path d="M51.714,53.453h1.363v0.551h-1.363v1.348h-0.551v-1.348h-1.359v-0.551h1.359v-1.34h0.551V53.453z"/>
	<path d="M57.042,50.699l-0.262,0.668c-0.25-0.182-0.644-0.273-1.18-0.273c-0.503,0-0.906,0.216-1.209,0.648
		c-0.304,0.432-0.455,0.99-0.455,1.672c0,0.651,0.155,1.179,0.467,1.584c0.311,0.405,0.713,0.607,1.205,0.607
		c0.536,0,0.949-0.19,1.238-0.57l0.43,0.598c-0.453,0.451-1.037,0.676-1.75,0.676c-0.748,0-1.336-0.27-1.766-0.809
		s-0.645-1.25-0.645-2.133c0-0.854,0.229-1.564,0.688-2.129c0.458-0.565,1.051-0.848,1.777-0.848
		C56.203,50.391,56.69,50.494,57.042,50.699z"/>
</g>
<path fill-rule="evenodd" clip-rule="evenodd" fill="#BDBDBD" d="M161.703,85.701l-1.76-1.06c-7.541-5.1-12.5-13.73-12.5-23.51
	l0.199-3.2l0.461,0.28c4.02,2.18,8.619,3.42,13.51,3.42c4.89,0,9.49-1.24,13.51-3.42l0.21-0.12l0.21,3.29
	c0,9.78-4.96,18.41-12.5,23.51L161.703,85.701z"/>
<path fill-rule="evenodd" clip-rule="evenodd" fill="#BDBDBD" d="M147.633,57.941l-0.12-0.06c-6.93-3.99-12.01-10.81-13.67-18.88
	l-0.37-2.41l0.21-0.13c4.021-2.18,8.62-3.42,13.511-3.42c5.129,0,9.949,1.36,14.109,3.75v0.01l-1.359,0.83
	c-6.031,4.08-10.41,10.41-11.92,17.79L147.633,57.941z"/>
<path fill-rule="evenodd" clip-rule="evenodd" fill="#BDBDBD" d="M175.333,58.061l-0.37-2.39c-1.51-7.38-5.891-13.71-11.92-17.79
	l-1.75-1.06l0.39-0.28c4.16-2.39,8.97-3.75,14.11-3.75c4.89,0,9.49,1.24,13.51,3.42l0.471,0.29l-0.391,2.5
	c-1.65,8.07-6.74,14.89-13.66,18.88L175.333,58.061z"/>
<path fill-rule="evenodd" clip-rule="evenodd" fill="#E0E0E0" d="M175.793,89.481c-4.891,0-9.49-1.24-13.51-3.42l-0.58-0.36
	l1.34-0.81c7.54-5.1,12.5-13.73,12.5-23.51c0-0.97-0.051-1.94-0.15-2.89l-0.06-0.43l0.39-0.18c6.92-3.99,12.01-10.81,13.66-18.88
	l0.391-2.5l1.859,1.13c7.54,5.1,12.5,13.72,12.5,23.5C204.133,76.781,191.433,89.481,175.793,89.481z"/>
<path fill-rule="evenodd" clip-rule="evenodd" fill="#E0E0E0" d="M161.303,36.801v-0.01c-4.16-2.39-8.98-3.75-14.109-3.75
	c-4.891,0-9.49,1.24-13.511,3.42l-0.21,0.13l-0.061-0.41c-0.09-0.95-0.139-1.91-0.139-2.89c0-15.65,12.699-28.35,28.34-28.35
	c15.649,0,28.35,12.7,28.35,28.35l-0.2,3.2l-0.46-0.28c-4.02-2.18-8.62-3.42-13.51-3.42c-4.891,0-9.49,1.24-13.51,3.42
	L161.303,36.801z"/>
<path fill-rule="evenodd" clip-rule="evenodd" fill="#E0E0E0" d="M147.193,89.731c-15.65,0-28.351-12.7-28.351-28.35
	c0-9.78,4.96-18.4,12.5-23.5l2.13-1.29l0.37,2.41c1.66,8.07,6.74,14.89,13.67,18.88l0.12,0.06l-0.04,0.3
	c-0.101,0.95-0.149,1.92-0.149,2.89c0,9.78,4.959,18.41,12.5,23.51l1.76,1.06l-1,0.61C156.683,88.491,152.083,89.731,147.193,89.731
	z"/>
<path fill-rule="evenodd" clip-rule="evenodd" fill="#949494" d="M161.613,61.631c-4.891,0-9.49-1.24-13.51-3.42l-0.471-0.28
	l0.391-2.51c1.319-6.45,4.84-12.11,9.739-16.16l3.53-2.44l1.75,1.06c6.029,4.08,10.41,10.41,11.92,17.79l0.37,2.39l-3.97,1.85
	C168.322,61.031,165.043,61.631,161.613,61.631z"/>
<path fill-rule="evenodd" clip-rule="evenodd" fill="none" stroke="#000000" d="M175.543,61.381c0,15.65-12.7,28.35-28.35,28.35
	c-15.65,0-28.351-12.7-28.351-28.35c0-15.64,12.7-28.34,28.351-28.34C162.843,33.041,175.543,45.741,175.543,61.381z"/>
<path fill-rule="evenodd" clip-rule="evenodd" fill="none" stroke="#000000" d="M204.133,61.131c0,15.65-12.7,28.35-28.34,28.35
	c-15.65,0-28.35-12.7-28.35-28.35c0-15.64,12.699-28.34,28.35-28.34C191.433,32.791,204.133,45.491,204.133,61.131z"/>
<path fill-rule="evenodd" clip-rule="evenodd" fill="none" stroke="#000000" d="M189.963,33.291c0,15.64-12.7,28.34-28.35,28.34
	c-15.641,0-28.34-12.7-28.34-28.34c0-15.65,12.699-28.35,28.34-28.35C177.263,4.941,189.963,17.641,189.963,33.291z"/>
<g>
	<path d="M156.718,16.199l-2.957-4.184v4.105h-0.742v-5.723h0.313l2.879,3.957v-3.957h0.742v5.801H156.718z"/>
	<path d="M157.072,14.02c0-0.646,0.174-1.167,0.521-1.564s0.806-0.596,1.373-0.596c0.599,0,1.064,0.191,1.395,0.572
		c0.331,0.381,0.496,0.911,0.496,1.588c0,0.674-0.169,1.207-0.508,1.596c-0.338,0.389-0.799,0.584-1.383,0.584
		c-0.596,0-1.061-0.197-1.395-0.59C157.239,15.216,157.072,14.686,157.072,14.02z M157.853,14.02c0,1.049,0.371,1.574,1.113,1.574
		c0.347,0,0.618-0.141,0.814-0.422c0.197-0.281,0.295-0.666,0.295-1.152c0-1.037-0.37-1.555-1.109-1.555
		c-0.338,0-0.608,0.138-0.811,0.414C157.954,13.155,157.853,13.535,157.853,14.02z"/>
	<path d="M161.184,12.523H160.7v-0.586h0.484v-0.875l0.742-0.285v1.16h1.148v0.586h-1.148v2.078c0,0.352,0.059,0.602,0.178,0.75
		s0.309,0.223,0.572,0.223c0.19,0,0.387-0.048,0.59-0.145l0.109,0.652c-0.307,0.078-0.645,0.117-1.012,0.117
		c-0.331,0-0.61-0.123-0.838-0.369s-0.342-0.557-0.342-0.932V12.523z"/>
	<path d="M166.752,16.121h-1.633v-5.723c0.695-0.034,1.196-0.051,1.504-0.051c0.565,0,1.002,0.122,1.313,0.365
		c0.31,0.244,0.465,0.592,0.465,1.045c0,0.266-0.099,0.508-0.297,0.727c-0.198,0.219-0.417,0.355-0.656,0.41
		c0.453,0.109,0.783,0.291,0.99,0.543s0.311,0.596,0.311,1.031c0,0.502-0.185,0.904-0.553,1.203
		C167.827,15.971,167.346,16.121,166.752,16.121z M165.9,11.023v1.645c0.164,0.016,0.367,0.023,0.609,0.023
		c0.739,0,1.109-0.301,1.109-0.902c0-0.529-0.34-0.793-1.02-0.793C166.339,10.996,166.106,11.005,165.9,11.023z M165.9,13.273v2.184
		c0.268,0.026,0.474,0.039,0.617,0.039c0.489,0,0.847-0.092,1.072-0.275c0.225-0.184,0.338-0.476,0.338-0.877
		c0-0.373-0.107-0.647-0.322-0.824s-0.574-0.266-1.076-0.266L165.9,13.273z"/>
	<path d="M156.718,22.6l-2.957-4.184v4.105h-0.742v-5.723h0.313l2.879,3.957v-3.957h0.742V22.6H156.718z"/>
	<path d="M157.072,20.42c0-0.646,0.174-1.167,0.521-1.564s0.806-0.596,1.373-0.596c0.599,0,1.064,0.191,1.395,0.572
		c0.331,0.381,0.496,0.911,0.496,1.588c0,0.674-0.169,1.207-0.508,1.596c-0.338,0.389-0.799,0.584-1.383,0.584
		c-0.596,0-1.061-0.197-1.395-0.59C157.239,21.617,157.072,21.086,157.072,20.42z M157.853,20.42c0,1.049,0.371,1.574,1.113,1.574
		c0.347,0,0.618-0.141,0.814-0.422c0.197-0.281,0.295-0.666,0.295-1.152c0-1.037-0.37-1.555-1.109-1.555
		c-0.338,0-0.608,0.138-0.811,0.414C157.954,19.555,157.853,19.936,157.853,20.42z"/>
	<path d="M161.184,18.924H160.7v-0.586h0.484v-0.875l0.742-0.285v1.16h1.148v0.586h-1.148v2.078c0,0.352,0.059,0.602,0.178,0.75
		s0.309,0.223,0.572,0.223c0.19,0,0.387-0.048,0.59-0.145l0.109,0.652c-0.307,0.078-0.645,0.117-1.012,0.117
		c-0.331,0-0.61-0.123-0.838-0.369s-0.342-0.557-0.342-0.932V18.924z"/>
	<path d="M168.771,17.01l-0.262,0.668c-0.25-0.182-0.644-0.273-1.18-0.273c-0.503,0-0.906,0.216-1.209,0.648
		c-0.304,0.432-0.455,0.99-0.455,1.672c0,0.651,0.155,1.179,0.467,1.584c0.311,0.405,0.713,0.607,1.205,0.607
		c0.536,0,0.949-0.19,1.238-0.57l0.43,0.598c-0.453,0.451-1.037,0.676-1.75,0.676c-0.748,0-1.336-0.27-1.766-0.809
		s-0.645-1.25-0.645-2.133c0-0.854,0.229-1.564,0.688-2.129c0.458-0.565,1.051-0.848,1.777-0.848
		C167.933,16.701,168.42,16.804,168.771,17.01z"/>
</g>
<g>
	<path d="M130.618,65.549l-2.957-4.184v4.105h-0.742v-5.723h0.313l2.879,3.957v-3.957h0.742v5.801H130.618z"/>
	<path d="M130.972,63.37c0-0.646,0.174-1.167,0.521-1.564s0.806-0.596,1.373-0.596c0.599,0,1.064,0.191,1.395,0.572
		c0.331,0.381,0.496,0.911,0.496,1.588c0,0.674-0.169,1.207-0.508,1.596c-0.338,0.389-0.799,0.584-1.383,0.584
		c-0.596,0-1.061-0.197-1.395-0.59C131.139,64.566,130.972,64.036,130.972,63.37z M131.753,63.37c0,1.049,0.371,1.574,1.113,1.574
		c0.347,0,0.618-0.141,0.814-0.422c0.197-0.281,0.295-0.666,0.295-1.152c0-1.037-0.37-1.555-1.109-1.555
		c-0.338,0-0.608,0.138-0.811,0.414C131.854,62.505,131.753,62.885,131.753,63.37z"/>
	<path d="M135.084,61.874H134.6v-0.586h0.484v-0.875l0.742-0.285v1.16h1.148v0.586h-1.148v2.078c0,0.352,0.059,0.602,0.178,0.75
		s0.309,0.223,0.572,0.223c0.19,0,0.387-0.048,0.59-0.145l0.109,0.652c-0.307,0.078-0.645,0.117-1.012,0.117
		c-0.331,0-0.61-0.123-0.838-0.369s-0.342-0.557-0.342-0.932V61.874z"/>
	<path d="M141.828,65.471l-0.395-1.207h-2.129l-0.422,1.207h-0.875l2.324-5.801h0.207l2.156,5.801H141.828z M140.398,61.17
		l-0.887,2.52h1.699L140.398,61.17z"/>
	<path d="M130.618,71.95l-2.957-4.184v4.105h-0.742v-5.723h0.313l2.879,3.957v-3.957h0.742v5.801H130.618z"/>
	<path d="M130.972,69.77c0-0.646,0.174-1.167,0.521-1.564s0.806-0.596,1.373-0.596c0.599,0,1.064,0.191,1.395,0.572
		c0.331,0.381,0.496,0.911,0.496,1.588c0,0.674-0.169,1.207-0.508,1.596c-0.338,0.389-0.799,0.584-1.383,0.584
		c-0.596,0-1.061-0.197-1.395-0.59C131.139,70.967,130.972,70.437,130.972,69.77z M131.753,69.77c0,1.049,0.371,1.574,1.113,1.574
		c0.347,0,0.618-0.141,0.814-0.422c0.197-0.281,0.295-0.666,0.295-1.152c0-1.037-0.37-1.555-1.109-1.555
		c-0.338,0-0.608,0.138-0.811,0.414C131.854,68.905,131.753,69.286,131.753,69.77z"/>
	<path d="M135.084,68.274H134.6v-0.586h0.484v-0.875l0.742-0.285v1.16h1.148v0.586h-1.148v2.078c0,0.352,0.059,0.602,0.178,0.75
		s0.309,0.223,0.572,0.223c0.19,0,0.387-0.048,0.59-0.145l0.109,0.652c-0.307,0.078-0.645,0.117-1.012,0.117
		c-0.331,0-0.61-0.123-0.838-0.369s-0.342-0.557-0.342-0.932V68.274z"/>
	<path d="M142.672,66.36l-0.262,0.668c-0.25-0.182-0.644-0.273-1.18-0.273c-0.503,0-0.906,0.216-1.209,0.648
		c-0.304,0.432-0.455,0.99-0.455,1.672c0,0.651,0.155,1.179,0.467,1.584c0.311,0.405,0.713,0.607,1.205,0.607
		c0.536,0,0.949-0.19,1.238-0.57l0.43,0.598c-0.453,0.451-1.037,0.676-1.75,0.676c-0.748,0-1.336-0.27-1.766-0.809
		s-0.645-1.25-0.645-2.133c0-0.854,0.229-1.564,0.688-2.129c0.458-0.565,1.051-0.848,1.777-0.848
		C141.833,66.051,142.32,66.154,142.672,66.36z"/>
</g>
<g>
	<path d="M184.738,65.549l-2.957-4.184v4.105h-0.742v-5.723h0.313l2.879,3.957v-3.957h0.742v5.801H184.738z"/>
	<path d="M185.092,63.37c0-0.646,0.174-1.167,0.521-1.564s0.806-0.596,1.373-0.596c0.599,0,1.064,0.191,1.395,0.572
		c0.331,0.381,0.496,0.911,0.496,1.588c0,0.674-0.169,1.207-0.508,1.596c-0.338,0.389-0.799,0.584-1.383,0.584
		c-0.596,0-1.061-0.197-1.395-0.59C185.259,64.566,185.092,64.036,185.092,63.37z M185.873,63.37c0,1.049,0.371,1.574,1.113,1.574
		c0.347,0,0.618-0.141,0.814-0.422c0.197-0.281,0.295-0.666,0.295-1.152c0-1.037-0.37-1.555-1.109-1.555
		c-0.338,0-0.608,0.138-0.811,0.414C185.974,62.505,185.873,62.885,185.873,63.37z"/>
	<path d="M189.204,61.874h-0.484v-0.586h0.484v-0.875l0.742-0.285v1.16h1.148v0.586h-1.148v2.078c0,0.352,0.059,0.602,0.178,0.75
		c0.118,0.148,0.309,0.223,0.572,0.223c0.19,0,0.387-0.048,0.59-0.145l0.109,0.652c-0.308,0.078-0.645,0.117-1.012,0.117
		c-0.331,0-0.61-0.123-0.838-0.369c-0.228-0.246-0.342-0.557-0.342-0.932V61.874z"/>
	<path d="M195.948,65.471l-0.395-1.207h-2.129l-0.422,1.207h-0.875l2.324-5.801h0.207l2.156,5.801H195.948z M194.518,61.17
		l-0.887,2.52h1.699L194.518,61.17z"/>
	<path d="M184.738,71.95l-2.957-4.184v4.105h-0.742v-5.723h0.313l2.879,3.957v-3.957h0.742v5.801H184.738z"/>
	<path d="M185.092,69.77c0-0.646,0.174-1.167,0.521-1.564s0.806-0.596,1.373-0.596c0.599,0,1.064,0.191,1.395,0.572
		c0.331,0.381,0.496,0.911,0.496,1.588c0,0.674-0.169,1.207-0.508,1.596c-0.338,0.389-0.799,0.584-1.383,0.584
		c-0.596,0-1.061-0.197-1.395-0.59C185.259,70.967,185.092,70.437,185.092,69.77z M185.873,69.77c0,1.049,0.371,1.574,1.113,1.574
		c0.347,0,0.618-0.141,0.814-0.422c0.197-0.281,0.295-0.666,0.295-1.152c0-1.037-0.37-1.555-1.109-1.555
		c-0.338,0-0.608,0.138-0.811,0.414C185.974,68.905,185.873,69.286,185.873,69.77z"/>
	<path d="M189.204,68.274h-0.484v-0.586h0.484v-0.875l0.742-0.285v1.16h1.148v0.586h-1.148v2.078c0,0.352,0.059,0.602,0.178,0.75
		c0.118,0.148,0.309,0.223,0.572,0.223c0.19,0,0.387-0.048,0.59-0.145l0.109,0.652c-0.308,0.078-0.645,0.117-1.012,0.117
		c-0.331,0-0.61-0.123-0.838-0.369c-0.228-0.246-0.342-0.557-0.342-0.932V68.274z"/>
	<path d="M194.772,71.872h-1.633v-5.723c0.695-0.034,1.196-0.051,1.504-0.051c0.565,0,1.002,0.122,1.313,0.365
		c0.31,0.244,0.465,0.592,0.465,1.045c0,0.266-0.099,0.508-0.297,0.727c-0.198,0.219-0.417,0.355-0.656,0.41
		c0.453,0.109,0.783,0.291,0.99,0.543s0.311,0.596,0.311,1.031c0,0.502-0.185,0.904-0.553,1.203
		C195.847,71.722,195.366,71.872,194.772,71.872z M193.92,66.774v1.645c0.164,0.016,0.367,0.023,0.609,0.023
		c0.739,0,1.109-0.301,1.109-0.902c0-0.529-0.34-0.793-1.02-0.793C194.359,66.747,194.126,66.756,193.92,66.774z M193.92,69.024
		v2.184c0.268,0.026,0.474,0.039,0.617,0.039c0.489,0,0.847-0.092,1.072-0.275c0.225-0.184,0.338-0.476,0.338-0.877
		c0-0.373-0.107-0.647-0.322-0.824s-0.574-0.266-1.076-0.266L193.92,69.024z"/>
</g>
<g>
	<path d="M157.288,73.5l-2.957-4.184v4.105h-0.742v-5.723h0.313l2.879,3.957v-3.957h0.742V73.5H157.288z"/>
	<path d="M157.642,71.32c0-0.646,0.174-1.167,0.521-1.564s0.806-0.596,1.373-0.596c0.599,0,1.064,0.191,1.395,0.572
		c0.331,0.381,0.496,0.911,0.496,1.588c0,0.674-0.169,1.207-0.508,1.596c-0.338,0.389-0.799,0.584-1.383,0.584
		c-0.596,0-1.061-0.197-1.395-0.59C157.809,72.517,157.642,71.986,157.642,71.32z M158.423,71.32c0,1.049,0.371,1.574,1.113,1.574
		c0.347,0,0.618-0.141,0.814-0.422c0.197-0.281,0.295-0.666,0.295-1.152c0-1.037-0.37-1.555-1.109-1.555
		c-0.338,0-0.608,0.138-0.811,0.414C158.524,70.455,158.423,70.835,158.423,71.32z"/>
	<path d="M161.754,69.824h-0.484v-0.586h0.484v-0.875l0.742-0.285v1.16h1.148v0.586h-1.148v2.078c0,0.352,0.059,0.602,0.178,0.75
		s0.309,0.223,0.572,0.223c0.19,0,0.387-0.048,0.59-0.145l0.109,0.652c-0.307,0.078-0.645,0.117-1.012,0.117
		c-0.331,0-0.61-0.123-0.838-0.369s-0.342-0.557-0.342-0.932V69.824z"/>
	<path d="M168.498,73.421l-0.395-1.207h-2.129l-0.422,1.207h-0.875l2.324-5.801h0.207l2.156,5.801H168.498z M167.068,69.121
		l-0.887,2.52h1.699L167.068,69.121z"/>
</g>
<g>
	<path d="M139.888,42.449l-2.957-4.184v4.105h-0.742v-5.723h0.313l2.879,3.957v-3.957h0.742v5.801H139.888z"/>
	<path d="M140.242,40.27c0-0.646,0.174-1.167,0.521-1.564s0.806-0.596,1.373-0.596c0.599,0,1.064,0.191,1.395,0.572
		c0.331,0.381,0.496,0.911,0.496,1.588c0,0.674-0.169,1.207-0.508,1.596c-0.338,0.389-0.799,0.584-1.383,0.584
		c-0.596,0-1.061-0.197-1.395-0.59C140.409,41.466,140.242,40.936,140.242,40.27z M141.023,40.27c0,1.049,0.371,1.574,1.113,1.574
		c0.347,0,0.618-0.141,0.814-0.422c0.197-0.281,0.295-0.666,0.295-1.152c0-1.037-0.37-1.555-1.109-1.555
		c-0.338,0-0.608,0.138-0.811,0.414C141.125,39.405,141.023,39.785,141.023,40.27z"/>
	<path d="M144.354,38.773h-0.484v-0.586h0.484v-0.875l0.742-0.285v1.16h1.148v0.586h-1.148v2.078c0,0.352,0.059,0.602,0.178,0.75
		c0.118,0.148,0.309,0.223,0.572,0.223c0.19,0,0.387-0.048,0.59-0.145l0.109,0.652c-0.308,0.078-0.645,0.117-1.012,0.117
		c-0.331,0-0.61-0.123-0.838-0.369c-0.228-0.246-0.342-0.557-0.342-0.932V38.773z"/>
	<path d="M151.942,36.859l-0.262,0.668c-0.25-0.182-0.644-0.273-1.18-0.273c-0.503,0-0.906,0.216-1.209,0.648
		c-0.304,0.432-0.455,0.99-0.455,1.672c0,0.651,0.155,1.179,0.467,1.584c0.311,0.405,0.713,0.607,1.205,0.607
		c0.536,0,0.949-0.19,1.238-0.57l0.43,0.598c-0.453,0.451-1.037,0.676-1.75,0.676c-0.748,0-1.336-0.27-1.766-0.809
		s-0.645-1.25-0.645-2.133c0-0.854,0.229-1.564,0.688-2.129c0.458-0.565,1.051-0.848,1.777-0.848
		C151.103,36.551,151.59,36.654,151.942,36.859z"/>
</g>
<g>
	<path d="M173.698,42.449l-2.957-4.184v4.105h-0.742v-5.723h0.313l2.879,3.957v-3.957h0.742v5.801H173.698z"/>
	<path d="M174.052,40.27c0-0.646,0.174-1.167,0.521-1.564s0.806-0.596,1.373-0.596c0.599,0,1.064,0.191,1.395,0.572
		c0.331,0.381,0.496,0.911,0.496,1.588c0,0.674-0.169,1.207-0.508,1.596c-0.338,0.389-0.799,0.584-1.383,0.584
		c-0.596,0-1.061-0.197-1.395-0.59C174.219,41.466,174.052,40.936,174.052,40.27z M174.833,40.27c0,1.049,0.371,1.574,1.113,1.574
		c0.347,0,0.618-0.141,0.814-0.422c0.197-0.281,0.295-0.666,0.295-1.152c0-1.037-0.37-1.555-1.109-1.555
		c-0.338,0-0.608,0.138-0.811,0.414C174.934,39.405,174.833,39.785,174.833,40.27z"/>
	<path d="M178.164,38.773h-0.484v-0.586h0.484v-0.875l0.742-0.285v1.16h1.148v0.586h-1.148v2.078c0,0.352,0.059,0.602,0.178,0.75
		c0.118,0.148,0.309,0.223,0.572,0.223c0.19,0,0.387-0.048,0.59-0.145l0.109,0.652c-0.308,0.078-0.645,0.117-1.012,0.117
		c-0.331,0-0.61-0.123-0.838-0.369c-0.228-0.246-0.342-0.557-0.342-0.932V38.773z"/>
	<path d="M183.732,42.371h-1.633v-5.723c0.695-0.034,1.196-0.051,1.504-0.051c0.565,0,1.002,0.122,1.313,0.365
		c0.31,0.244,0.465,0.592,0.465,1.045c0,0.266-0.099,0.508-0.297,0.727c-0.198,0.219-0.417,0.355-0.656,0.41
		c0.453,0.109,0.783,0.291,0.99,0.543s0.311,0.596,0.311,1.031c0,0.502-0.185,0.904-0.553,1.203
		C184.807,42.221,184.326,42.371,183.732,42.371z M182.88,37.273v1.645c0.164,0.016,0.367,0.023,0.609,0.023
		c0.739,0,1.109-0.301,1.109-0.902c0-0.529-0.34-0.793-1.02-0.793C183.319,37.246,183.086,37.255,182.88,37.273z M182.88,39.523
		v2.184c0.268,0.026,0.474,0.039,0.617,0.039c0.489,0,0.847-0.092,1.072-0.275c0.225-0.184,0.338-0.476,0.338-0.877
		c0-0.373-0.107-0.647-0.322-0.824s-0.574-0.266-1.076-0.266L182.88,39.523z"/>
</g>
<g>
	<path d="M197.588,21.599l-2.957-4.184v4.105h-0.742v-5.723h0.313l2.879,3.957v-3.957h0.742v5.801H197.588z"/>
	<path d="M197.942,19.419c0-0.646,0.174-1.167,0.521-1.564s0.806-0.596,1.373-0.596c0.599,0,1.064,0.191,1.395,0.572
		c0.331,0.381,0.496,0.911,0.496,1.588c0,0.674-0.169,1.207-0.508,1.596c-0.338,0.389-0.799,0.584-1.383,0.584
		c-0.596,0-1.061-0.197-1.395-0.59C198.109,20.616,197.942,20.086,197.942,19.419z M198.723,19.419c0,1.049,0.371,1.574,1.113,1.574
		c0.347,0,0.618-0.141,0.814-0.422c0.197-0.281,0.295-0.666,0.295-1.152c0-1.037-0.37-1.555-1.109-1.555
		c-0.338,0-0.608,0.138-0.811,0.414C198.824,18.555,198.723,18.935,198.723,19.419z"/>
	<path d="M202.054,17.923h-0.484v-0.586h0.484v-0.875l0.742-0.285v1.16h1.148v0.586h-1.148v2.078c0,0.352,0.059,0.602,0.178,0.75
		s0.309,0.223,0.572,0.223c0.19,0,0.387-0.048,0.59-0.145l0.109,0.652c-0.307,0.078-0.645,0.117-1.012,0.117
		c-0.331,0-0.61-0.123-0.838-0.369s-0.342-0.557-0.342-0.932V17.923z"/>
	<path d="M208.798,21.521l-0.395-1.207h-2.129l-0.422,1.207h-0.875l2.324-5.801h0.207l2.156,5.801H208.798z M207.368,17.22
		l-0.887,2.52h1.699L207.368,17.22z"/>
	<path d="M197.588,28l-2.957-4.184v4.105h-0.742v-5.723h0.313l2.879,3.957v-3.957h0.742V28H197.588z"/>
	<path d="M197.942,25.82c0-0.646,0.174-1.167,0.521-1.564s0.806-0.596,1.373-0.596c0.599,0,1.064,0.191,1.395,0.572
		c0.331,0.381,0.496,0.911,0.496,1.588c0,0.674-0.169,1.207-0.508,1.596C200.881,27.805,200.42,28,199.836,28
		c-0.596,0-1.061-0.197-1.395-0.59C198.109,27.017,197.942,26.486,197.942,25.82z M198.723,25.82c0,1.049,0.371,1.574,1.113,1.574
		c0.347,0,0.618-0.141,0.814-0.422c0.197-0.281,0.295-0.666,0.295-1.152c0-1.037-0.37-1.555-1.109-1.555
		c-0.338,0-0.608,0.138-0.811,0.414C198.824,24.955,198.723,25.335,198.723,25.82z"/>
	<path d="M202.054,24.324h-0.484v-0.586h0.484v-0.875l0.742-0.285v1.16h1.148v0.586h-1.148v2.078c0,0.352,0.059,0.602,0.178,0.75
		s0.309,0.223,0.572,0.223c0.19,0,0.387-0.048,0.59-0.145l0.109,0.652C203.938,27.96,203.601,28,203.234,28
		c-0.331,0-0.61-0.123-0.838-0.369s-0.342-0.557-0.342-0.932V24.324z"/>
	<path d="M207.622,27.921h-1.633v-5.723c0.695-0.034,1.196-0.051,1.504-0.051c0.565,0,1.002,0.122,1.313,0.365
		c0.31,0.244,0.465,0.592,0.465,1.045c0,0.266-0.099,0.508-0.297,0.727c-0.198,0.219-0.417,0.355-0.656,0.41
		c0.453,0.109,0.783,0.291,0.99,0.543s0.311,0.596,0.311,1.031c0,0.502-0.185,0.904-0.553,1.203
		C208.697,27.771,208.216,27.921,207.622,27.921z M206.771,22.824v1.645c0.164,0.016,0.367,0.023,0.609,0.023
		c0.739,0,1.109-0.301,1.109-0.902c0-0.529-0.34-0.793-1.02-0.793C207.209,22.796,206.976,22.806,206.771,22.824z M206.771,25.074
		v2.184c0.268,0.026,0.474,0.039,0.617,0.039c0.489,0,0.847-0.092,1.072-0.275c0.225-0.184,0.338-0.476,0.338-0.877
		c0-0.373-0.107-0.647-0.322-0.824s-0.574-0.266-1.076-0.266L206.771,25.074z"/>
	<path d="M197.588,34.4l-2.957-4.184v4.105h-0.742v-5.723h0.313l2.879,3.957v-3.957h0.742V34.4H197.588z"/>
	<path d="M197.942,32.22c0-0.646,0.174-1.167,0.521-1.564s0.806-0.596,1.373-0.596c0.599,0,1.064,0.191,1.395,0.572
		c0.331,0.381,0.496,0.911,0.496,1.588c0,0.674-0.169,1.207-0.508,1.596c-0.338,0.389-0.799,0.584-1.383,0.584
		c-0.596,0-1.061-0.197-1.395-0.59C198.109,33.417,197.942,32.887,197.942,32.22z M198.723,32.22c0,1.049,0.371,1.574,1.113,1.574
		c0.347,0,0.618-0.141,0.814-0.422c0.197-0.281,0.295-0.666,0.295-1.152c0-1.037-0.37-1.555-1.109-1.555
		c-0.338,0-0.608,0.138-0.811,0.414C198.824,31.355,198.723,31.736,198.723,32.22z"/>
	<path d="M202.054,30.724h-0.484v-0.586h0.484v-0.875l0.742-0.285v1.16h1.148v0.586h-1.148v2.078c0,0.352,0.059,0.602,0.178,0.75
		s0.309,0.223,0.572,0.223c0.19,0,0.387-0.048,0.59-0.145l0.109,0.652c-0.307,0.078-0.645,0.117-1.012,0.117
		c-0.331,0-0.61-0.123-0.838-0.369s-0.342-0.557-0.342-0.932V30.724z"/>
	<path d="M209.642,28.81l-0.262,0.668c-0.25-0.182-0.644-0.273-1.18-0.273c-0.503,0-0.906,0.216-1.209,0.648
		c-0.304,0.432-0.455,0.99-0.455,1.672c0,0.651,0.155,1.179,0.467,1.584c0.311,0.405,0.713,0.607,1.205,0.607
		c0.536,0,0.949-0.19,1.238-0.57l0.43,0.598c-0.453,0.451-1.037,0.676-1.75,0.676c-0.748,0-1.336-0.27-1.766-0.809
		s-0.645-1.25-0.645-2.133c0-0.854,0.229-1.564,0.688-2.129c0.458-0.565,1.051-0.848,1.777-0.848
		C208.803,28.501,209.29,28.604,209.642,28.81z"/>
</g>
<g>
	<path d="M101.017,39.98v-0.684h1.672v0.684H101.017z"/>
	<path d="M103.587,39.855c0-0.646,0.174-1.167,0.521-1.564s0.805-0.596,1.373-0.596c0.599,0,1.064,0.191,1.395,0.572
		s0.496,0.911,0.496,1.588c0,0.674-0.169,1.207-0.508,1.596s-0.799,0.584-1.383,0.584c-0.596,0-1.061-0.197-1.395-0.59
		S103.587,40.522,103.587,39.855z M104.369,39.855c0,1.049,0.371,1.574,1.113,1.574c0.346,0,0.618-0.141,0.814-0.422
		s0.295-0.666,0.295-1.152c0-1.037-0.37-1.555-1.109-1.555c-0.338,0-0.609,0.138-0.811,0.414S104.369,39.371,104.369,39.855z"/>
	<path d="M110.427,38.488c-0.162-0.112-0.324-0.168-0.488-0.168c-0.263,0-0.493,0.121-0.689,0.363s-0.295,0.534-0.295,0.875v2.398
		h-0.742v-4.184h0.742v0.668c0.271-0.498,0.673-0.746,1.207-0.746c0.133,0,0.324,0.023,0.574,0.07L110.427,38.488z"/>
	<path d="M111.357,39.98v-0.684h1.672v0.684H111.357z"/>
</g>
</svg>
