<?xml version="1.0" encoding="utf-8"?>
<!-- Generator: Adobe Illustrator 14.0.0, SVG Export Plug-In . SVG Version: 6.00 Build 43363)  -->
<!DOCTYPE svg PUBLIC "-//W3C//DTD SVG 1.0//EN" "http://www.w3.org/TR/2001/REC-SVG-20010904/DTD/svg10.dtd">
<svg version="1.0" id="Layer_1" xmlns="http://www.w3.org/2000/svg" xmlns:xlink="http://www.w3.org/1999/xlink" x="0px" y="0px"
	 width="231.946px" height="62.116px" viewBox="0 0 231.946 62.116" enable-background="new 0 0 231.946 62.116"
	 xml:space="preserve">
<path d="M159.531,32.862c-0.185,0-0.34,0.064-0.469,0.192c-0.128,0.128-0.191,0.284-0.191,0.468c0,0.176,0.065,0.33,0.197,0.462
	c0.133,0.132,0.287,0.198,0.463,0.198c0.039,0,0.096-0.008,0.168-0.024c0.072-0.016,0.123-0.023,0.156-0.023
	c0.055,0,0.084,0.04,0.084,0.12c0,0.624-0.309,1.06-0.925,1.308l0.12,0.24c0.832-0.393,1.248-1.009,1.248-1.849
	c0-0.296-0.068-0.544-0.204-0.744C160.027,32.979,159.811,32.862,159.531,32.862z M4.781,4.138c0.36-0.279,0.84-0.42,1.44-0.42
	h0.648l-1.824,6.576c-0.16,0.576-0.592,0.864-1.296,0.864v0.216h3.264v-0.216c-0.704,0-1.056-0.192-1.056-0.576
	c0-0.08,0.016-0.176,0.048-0.288l1.824-6.576h0.648c0.456,0,0.784,0.052,0.984,0.156c0.28,0.144,0.42,0.428,0.42,0.853
	c0,0.191-0.024,0.436-0.072,0.731l0.216,0.06l0.564-2.184H4.265L3.701,5.326l0.24,0.06C4.197,4.802,4.477,4.386,4.781,4.138z
	 M4.578,18.928L4.014,20.92l0.24,0.06c0.256-0.584,0.536-1,0.84-1.248c0.36-0.279,0.84-0.42,1.44-0.42h0.648l-1.824,6.576
	c-0.16,0.576-0.592,0.864-1.296,0.864v0.216h3.264v-0.216c-0.704,0-1.056-0.192-1.056-0.576c0-0.08,0.016-0.176,0.048-0.288
	l1.824-6.576H8.79c0.456,0,0.784,0.052,0.984,0.156c0.28,0.144,0.42,0.428,0.42,0.853c0,0.191-0.024,0.436-0.072,0.731l0.216,0.06
	l0.564-2.184H4.578z M9.881,35.915c0,0.191-0.024,0.436-0.072,0.731l0.216,0.06l0.564-2.184H4.265l-0.564,1.992l0.24,0.06
	c0.256-0.584,0.536-1,0.84-1.248c0.36-0.279,0.84-0.42,1.44-0.42h0.648l-1.824,6.576c-0.16,0.576-0.592,0.864-1.296,0.864v0.216
	h3.264v-0.216c-0.704,0-1.056-0.192-1.056-0.576c0-0.08,0.016-0.176,0.048-0.288l1.824-6.576h0.648c0.456,0,0.784,0.052,0.984,0.156
	C9.741,35.206,9.881,35.49,9.881,35.915z M22.719,4.138c0.36-0.279,0.84-0.42,1.44-0.42h0.648l-1.824,6.576
	c-0.16,0.576-0.592,0.864-1.296,0.864v0.216h3.264v-0.216c-0.704,0-1.056-0.192-1.056-0.576c0-0.08,0.016-0.176,0.048-0.288
	l1.824-6.576h0.648c0.456,0,0.784,0.052,0.984,0.156c0.28,0.144,0.42,0.428,0.42,0.853c0,0.191-0.024,0.436-0.072,0.731l0.216,0.06
	l0.564-2.184h-6.324l-0.564,1.992l0.24,0.06C22.135,4.802,22.415,4.386,22.719,4.138z M22.515,18.928l-0.564,1.992l0.24,0.06
	c0.256-0.584,0.536-1,0.84-1.248c0.36-0.279,0.84-0.42,1.44-0.42h0.648l-1.824,6.576c-0.16,0.576-0.592,0.864-1.296,0.864v0.216
	h3.264v-0.216c-0.704,0-1.056-0.192-1.056-0.576c0-0.08,0.016-0.176,0.048-0.288l1.824-6.576h0.648c0.456,0,0.784,0.052,0.984,0.156
	c0.28,0.144,0.42,0.428,0.42,0.853c0,0.191-0.024,0.436-0.072,0.731l0.216,0.06l0.564-2.184H22.515z M25.767,34.906h0.648
	c0.456,0,0.784,0.052,0.984,0.156c0.28,0.144,0.42,0.428,0.42,0.853c0,0.191-0.024,0.436-0.072,0.731l0.216,0.06l0.564-2.184h-6.324
	l-0.564,1.992l0.24,0.06c0.256-0.584,0.536-1,0.84-1.248c0.36-0.279,0.84-0.42,1.44-0.42h0.648l-1.824,6.576
	c-0.16,0.576-0.592,0.864-1.296,0.864v0.216h3.264v-0.216c-0.704,0-1.056-0.192-1.056-0.576c0-0.08,0.016-0.176,0.048-0.288
	L25.767,34.906z M40.031,4.138c0.36-0.279,0.84-0.42,1.44-0.42h0.648l-1.824,6.576c-0.16,0.576-0.592,0.864-1.296,0.864v0.216h3.264
	v-0.216c-0.704,0-1.056-0.192-1.056-0.576c0-0.08,0.016-0.176,0.048-0.288l1.824-6.576h0.648c0.456,0,0.784,0.052,0.984,0.156
	c0.28,0.144,0.42,0.428,0.42,0.853c0,0.191-0.024,0.436-0.072,0.731l0.216,0.06l0.564-2.184h-6.324l-0.564,1.992l0.24,0.06
	C39.447,4.802,39.727,4.386,40.031,4.138z M39.828,18.928l-0.564,1.992l0.24,0.06c0.256-0.584,0.536-1,0.84-1.248
	c0.36-0.279,0.84-0.42,1.44-0.42h0.648l-1.824,6.576c-0.16,0.576-0.592,0.864-1.296,0.864v0.216h3.264v-0.216
	c-0.704,0-1.056-0.192-1.056-0.576c0-0.08,0.016-0.176,0.048-0.288l1.824-6.576h0.648c0.456,0,0.784,0.052,0.984,0.156
	c0.28,0.144,0.42,0.428,0.42,0.853c0,0.191-0.024,0.436-0.072,0.731l0.216,0.06l0.564-2.184H39.828z M45.131,35.915
	c0,0.191-0.024,0.436-0.072,0.731l0.216,0.06l0.564-2.184h-6.324l-0.564,1.992l0.24,0.06c0.256-0.584,0.536-1,0.84-1.248
	c0.36-0.279,0.84-0.42,1.44-0.42h0.648l-1.824,6.576c-0.16,0.576-0.592,0.864-1.296,0.864v0.216h3.264v-0.216
	c-0.704,0-1.056-0.192-1.056-0.576c0-0.08,0.016-0.176,0.048-0.288l1.824-6.576h0.648c0.456,0,0.784,0.052,0.984,0.156
	C44.991,35.206,45.131,35.49,45.131,35.915z M13.102,12.027c0.428,0,0.764-0.25,1.008-0.75c0.196-0.399,0.294-0.84,0.294-1.319
	c0-0.48-0.098-0.92-0.294-1.32c-0.244-0.5-0.58-0.75-1.008-0.75c-0.428,0-0.764,0.25-1.008,0.75c-0.196,0.4-0.294,0.84-0.294,1.32
	c0,0.479,0.098,0.92,0.294,1.319C12.338,11.777,12.674,12.027,13.102,12.027z M12.442,8.812c0.152-0.52,0.372-0.779,0.66-0.779
	s0.508,0.26,0.66,0.779c0.108,0.372,0.162,0.754,0.162,1.146c0,0.392-0.054,0.773-0.162,1.146c-0.152,0.521-0.372,0.78-0.66,0.78
	s-0.508-0.26-0.66-0.78c-0.108-0.372-0.162-0.754-0.162-1.146C12.28,9.565,12.334,9.184,12.442,8.812z M8.842,8.638
	c-0.196,0.4-0.294,0.84-0.294,1.32c0,0.479,0.098,0.92,0.294,1.319c0.244,0.5,0.58,0.75,1.008,0.75c0.428,0,0.764-0.25,1.008-0.75
	c0.196-0.399,0.294-0.84,0.294-1.319c0-0.48-0.098-0.92-0.294-1.32c-0.244-0.5-0.58-0.75-1.008-0.75
	C9.422,7.888,9.086,8.138,8.842,8.638z M10.51,8.812c0.108,0.372,0.162,0.754,0.162,1.146c0,0.392-0.054,0.773-0.162,1.146
	c-0.152,0.521-0.372,0.78-0.66,0.78s-0.508-0.26-0.66-0.78c-0.108-0.372-0.162-0.754-0.162-1.146c0-0.393,0.054-0.774,0.162-1.146
	c0.152-0.52,0.372-0.779,0.66-0.779S10.358,8.292,10.51,8.812z M8.942,27.454v0.108h1.56v-0.108c-0.36,0-0.54-0.14-0.54-0.42v-3.51
	c0-0.06-0.03-0.074-0.09-0.042L8.87,24.017v0.084l0.426-0.132c0.024-0.008,0.048-0.013,0.072-0.013c0.076,0,0.114,0.047,0.114,0.139
	v2.939C9.482,27.314,9.302,27.454,8.942,27.454z M12.818,27.622c0.428,0,0.764-0.25,1.008-0.75c0.196-0.399,0.294-0.84,0.294-1.319
	c0-0.48-0.098-0.92-0.294-1.32c-0.244-0.5-0.58-0.75-1.008-0.75c-0.428,0-0.764,0.25-1.008,0.75c-0.196,0.4-0.294,0.84-0.294,1.32
	c0,0.479,0.098,0.92,0.294,1.319C12.054,27.372,12.39,27.622,12.818,27.622z M12.158,24.406c0.152-0.52,0.372-0.779,0.66-0.779
	s0.508,0.26,0.66,0.779c0.108,0.372,0.162,0.754,0.162,1.146c0,0.392-0.054,0.773-0.162,1.146c-0.152,0.521-0.372,0.78-0.66,0.78
	s-0.508-0.26-0.66-0.78c-0.108-0.372-0.162-0.754-0.162-1.146C11.996,25.16,12.05,24.778,12.158,24.406z M13.132,39.076
	c-0.428,0-0.764,0.25-1.008,0.75c-0.196,0.4-0.294,0.84-0.294,1.32c0,0.479,0.098,0.92,0.294,1.319c0.244,0.5,0.58,0.75,1.008,0.75
	c0.428,0,0.764-0.25,1.008-0.75c0.196-0.399,0.294-0.84,0.294-1.319c0-0.48-0.098-0.92-0.294-1.32
	C13.896,39.326,13.56,39.076,13.132,39.076z M13.792,42.292c-0.152,0.521-0.372,0.78-0.66,0.78c-0.288,0-0.508-0.26-0.66-0.78
	c-0.108-0.372-0.162-0.754-0.162-1.146c0-0.393,0.054-0.774,0.162-1.146c0.152-0.52,0.372-0.779,0.66-0.779
	c0.288,0,0.508,0.26,0.66,0.779c0.108,0.372,0.162,0.754,0.162,1.146C13.954,41.538,13.9,41.92,13.792,42.292z M10.882,42.619
	c-0.084,0.054-0.214,0.081-0.39,0.081h-1.35l0.702-0.714c0.716-0.729,1.074-1.358,1.074-1.89c0-0.288-0.106-0.531-0.318-0.729
	s-0.462-0.297-0.75-0.297c-0.328,0-0.612,0.122-0.852,0.366c-0.216,0.22-0.364,0.498-0.444,0.834l0.132,0.023
	c0.068-0.22,0.19-0.408,0.366-0.563c0.188-0.172,0.39-0.258,0.605-0.258c0.224,0,0.41,0.098,0.558,0.294
	c0.136,0.176,0.204,0.38,0.204,0.611c0,0.484-0.246,0.984-0.738,1.5l-1.14,1.194v0.084h2.346l0.33-0.822l-0.084-0.036
	C11.05,42.458,10.966,42.565,10.882,42.619z M30.589,8.361c0.076,0,0.114,0.047,0.114,0.139v2.939c0,0.28-0.18,0.42-0.54,0.42v0.108
	h1.56v-0.108c-0.36,0-0.54-0.14-0.54-0.42V7.93c0-0.06-0.03-0.074-0.09-0.042l-1.002,0.534v0.084l0.426-0.132
	C30.541,8.366,30.565,8.361,30.589,8.361z M26.779,8.638c-0.196,0.4-0.294,0.84-0.294,1.32c0,0.479,0.098,0.92,0.294,1.319
	c0.244,0.5,0.58,0.75,1.008,0.75c0.428,0,0.764-0.25,1.008-0.75c0.196-0.399,0.294-0.84,0.294-1.319c0-0.48-0.098-0.92-0.294-1.32
	c-0.244-0.5-0.58-0.75-1.008-0.75C27.359,7.888,27.023,8.138,26.779,8.638z M28.447,8.812c0.108,0.372,0.162,0.754,0.162,1.146
	c0,0.392-0.054,0.773-0.162,1.146c-0.152,0.521-0.372,0.78-0.66,0.78s-0.508-0.26-0.66-0.78c-0.108-0.372-0.162-0.754-0.162-1.146
	c0-0.393,0.054-0.774,0.162-1.146c0.152-0.52,0.372-0.779,0.66-0.779S28.295,8.292,28.447,8.812z M26.88,27.454v0.108h1.56v-0.108
	c-0.36,0-0.54-0.14-0.54-0.42v-3.51c0-0.06-0.03-0.074-0.09-0.042l-1.002,0.534v0.084l0.426-0.132
	c0.024-0.008,0.048-0.013,0.072-0.013c0.076,0,0.114,0.047,0.114,0.139v2.939C27.42,27.314,27.24,27.454,26.88,27.454z
	 M29.88,27.454v0.108h1.56v-0.108c-0.36,0-0.54-0.14-0.54-0.42v-3.51c0-0.06-0.03-0.074-0.09-0.042l-1.002,0.534v0.084l0.426-0.132
	c0.024-0.008,0.048-0.013,0.072-0.013c0.076,0,0.114,0.047,0.114,0.139v2.939C30.42,27.314,30.24,27.454,29.88,27.454z
	 M31.213,42.628v-3.51c0-0.06-0.03-0.074-0.09-0.042l-1.002,0.534v0.084l0.426-0.132c0.024-0.008,0.048-0.013,0.072-0.013
	c0.076,0,0.114,0.047,0.114,0.139v2.939c0,0.28-0.18,0.42-0.54,0.42v0.108h1.56v-0.108C31.393,43.048,31.213,42.908,31.213,42.628z
	 M28.819,42.619c-0.084,0.054-0.214,0.081-0.39,0.081h-1.35l0.702-0.714c0.716-0.729,1.074-1.358,1.074-1.89
	c0-0.288-0.106-0.531-0.318-0.729s-0.462-0.297-0.75-0.297c-0.328,0-0.612,0.122-0.852,0.366c-0.216,0.22-0.364,0.498-0.444,0.834
	l0.132,0.023c0.068-0.22,0.19-0.408,0.366-0.563c0.188-0.172,0.39-0.258,0.605-0.258c0.224,0,0.41,0.098,0.558,0.294
	c0.136,0.176,0.204,0.38,0.204,0.611c0,0.484-0.246,0.984-0.738,1.5l-1.14,1.194v0.084h2.346l0.33-0.822l-0.084-0.036
	C28.987,42.458,28.903,42.565,28.819,42.619z M44.092,8.638c-0.196,0.4-0.294,0.84-0.294,1.32c0,0.479,0.098,0.92,0.294,1.319
	c0.244,0.5,0.58,0.75,1.008,0.75c0.428,0,0.764-0.25,1.008-0.75c0.196-0.399,0.294-0.84,0.294-1.319c0-0.48-0.098-0.92-0.294-1.32
	c-0.244-0.5-0.58-0.75-1.008-0.75C44.672,7.888,44.336,8.138,44.092,8.638z M45.76,8.812c0.108,0.372,0.162,0.754,0.162,1.146
	c0,0.392-0.054,0.773-0.162,1.146c-0.152,0.521-0.372,0.78-0.66,0.78s-0.508-0.26-0.66-0.78c-0.108-0.372-0.162-0.754-0.162-1.146
	c0-0.393,0.054-0.774,0.162-1.146c0.152-0.52,0.372-0.779,0.66-0.779S45.608,8.292,45.76,8.812z M49.72,11.146l-0.084-0.036
	c-0.084,0.16-0.168,0.268-0.252,0.321s-0.214,0.081-0.39,0.081h-1.35l0.702-0.714c0.716-0.729,1.074-1.358,1.074-1.89
	c0-0.288-0.106-0.531-0.318-0.729s-0.462-0.297-0.75-0.297c-0.328,0-0.612,0.122-0.852,0.366c-0.216,0.22-0.364,0.498-0.444,0.834
	l0.132,0.023c0.068-0.22,0.19-0.408,0.366-0.563c0.188-0.172,0.39-0.258,0.605-0.258c0.224,0,0.41,0.098,0.558,0.294
	c0.136,0.176,0.204,0.38,0.204,0.611c0,0.484-0.246,0.984-0.738,1.5l-1.14,1.194v0.084h2.346L49.72,11.146z M44.192,27.454v0.108
	h1.56v-0.108c-0.36,0-0.54-0.14-0.54-0.42v-3.51c0-0.06-0.03-0.074-0.09-0.042l-1.002,0.534v0.084l0.426-0.132
	c0.024-0.008,0.048-0.013,0.072-0.013c0.076,0,0.114,0.047,0.114,0.139v2.939C44.732,27.314,44.552,27.454,44.192,27.454z
	 M49.436,26.74l-0.084-0.036c-0.084,0.16-0.168,0.268-0.252,0.321s-0.214,0.081-0.39,0.081h-1.35l0.702-0.714
	c0.716-0.729,1.074-1.358,1.074-1.89c0-0.288-0.106-0.531-0.318-0.729s-0.462-0.297-0.75-0.297c-0.328,0-0.612,0.122-0.852,0.366
	c-0.216,0.22-0.364,0.498-0.444,0.834l0.132,0.023c0.068-0.22,0.19-0.408,0.366-0.563c0.188-0.172,0.39-0.258,0.605-0.258
	c0.224,0,0.41,0.098,0.558,0.294c0.136,0.176,0.204,0.38,0.204,0.611c0,0.484-0.246,0.984-0.738,1.5l-1.14,1.194v0.084h2.346
	L49.436,26.74z M49.414,42.619C49.33,42.673,49.2,42.7,49.024,42.7h-1.35l0.702-0.714c0.716-0.729,1.074-1.358,1.074-1.89
	c0-0.288-0.106-0.531-0.318-0.729c-0.212-0.198-0.462-0.297-0.75-0.297c-0.328,0-0.612,0.122-0.852,0.366
	c-0.216,0.22-0.364,0.498-0.444,0.834l0.132,0.023c0.068-0.22,0.19-0.408,0.366-0.563c0.188-0.172,0.39-0.258,0.606-0.258
	c0.224,0,0.41,0.098,0.558,0.294c0.136,0.176,0.204,0.38,0.204,0.611c0,0.484-0.246,0.984-0.738,1.5l-1.14,1.194v0.084h2.346
	l0.33-0.822l-0.084-0.036C49.582,42.458,49.498,42.565,49.414,42.619z M46.132,42.619c-0.084,0.054-0.214,0.081-0.39,0.081h-1.35
	l0.702-0.714c0.716-0.729,1.074-1.358,1.074-1.89c0-0.288-0.106-0.531-0.318-0.729s-0.462-0.297-0.75-0.297
	c-0.328,0-0.612,0.122-0.852,0.366c-0.216,0.22-0.364,0.498-0.444,0.834l0.132,0.023c0.068-0.22,0.19-0.408,0.366-0.563
	c0.188-0.172,0.39-0.258,0.605-0.258c0.224,0,0.41,0.098,0.558,0.294c0.136,0.176,0.204,0.38,0.204,0.611
	c0,0.484-0.246,0.984-0.738,1.5l-1.14,1.194v0.084h2.346l0.33-0.822l-0.084-0.036C46.3,42.458,46.216,42.565,46.132,42.619z
	 M77.777,29.455l0.737,0.756h-6.28v0.531h6.837l0.624,0.62l-0.625,0.622h-6.836v0.531h6.302l-0.758,0.755l0.408,0.409l2.328-2.317
	l-2.328-2.315L77.777,29.455z M99.539,12.812h0.531V5.638l1.152,0.889l-1.416-2.832L98.39,6.526l1.148-0.889V12.812z M101.74,22.202
	l0.192,1.441l0.996-2.996l-3,0.993l1.44,0.191l-4.728,5.436l0.38,0.384L101.74,22.202z M102.008,39.594h-6.336v0.531h6.336
	l-0.888,1.156l2.832-1.418l-2.832-1.418L102.008,39.594z M112.49,12.058l4.719-5.449l0.192,1.441l0.996-2.996l-3,0.993l1.44,0.191
	l-4.728,5.436L112.49,12.058z M117.476,23.999h-6.336v0.531h6.336l-0.888,1.156l2.832-1.418l-2.832-1.418L117.476,23.999z
	 M117.209,41.688l-4.716-5.446l-0.384,0.38l4.728,5.439l-1.44,0.191l3,0.997l-0.996-3.004L117.209,41.688z M132.945,8.405h-6.336
	v0.531h6.336l-0.888,1.156l2.832-1.418l-2.832-1.418L132.945,8.405z M132.678,26.094l-4.716-5.446l-0.384,0.38l4.729,5.439
	l-1.44,0.191l3,0.997l-0.996-3.004L132.678,26.094z M131.008,35h-0.531v7.059l-1.148-0.888L130.744,44l1.416-2.829l-1.152,0.888V35z
	 M170.891,11.374h7.805V3.335h-7.805V11.374z M175.117,3.913h2.93v3.148h-2.93V3.913z M175.117,7.64h2.93v3.156h-2.93V7.64z
	 M171.539,3.913h2.93v3.148h-2.93V3.913z M171.539,7.64h2.93v3.156h-2.93V7.64z M170.891,26.968h7.805v-8.039h-7.805V26.968z
	 M175.117,19.507h2.93v3.148h-2.93V19.507z M175.117,23.233h2.93v3.156h-2.93V23.233z M171.539,19.507h2.93v3.148h-2.93V19.507z
	 M171.539,23.233h2.93v3.156h-2.93V23.233z M170.891,42.563h7.805v-8.039h-7.805V42.563z M175.117,35.102h2.93v3.148h-2.93V35.102z
	 M175.117,38.828h2.93v3.156h-2.93V38.828z M171.539,35.102h2.93v3.148h-2.93V35.102z M171.539,38.828h2.93v3.156h-2.93V38.828z
	 M185.891,11.374h7.805V3.335h-7.805V11.374z M190.117,3.913h2.93v3.148h-2.93V3.913z M190.117,7.64h2.93v3.156h-2.93V7.64z
	 M186.539,3.913h2.93v3.148h-2.93V3.913z M186.539,7.64h2.93v3.156h-2.93V7.64z M185.891,26.968h7.805v-8.039h-7.805V26.968z
	 M190.117,19.507h2.93v3.148h-2.93V19.507z M190.117,23.233h2.93v3.156h-2.93V23.233z M186.539,19.507h2.93v3.148h-2.93V19.507z
	 M186.539,23.233h2.93v3.156h-2.93V23.233z M185.891,42.563h7.805v-8.039h-7.805V42.563z M190.117,35.102h2.93v3.148h-2.93V35.102z
	 M190.117,38.828h2.93v3.156h-2.93V38.828z M186.539,35.102h2.93v3.148h-2.93V35.102z M186.539,38.828h2.93v3.156h-2.93V38.828z
	 M200.891,11.374h7.805V3.335h-7.805V11.374z M205.117,3.913h2.93v3.148h-2.93V3.913z M205.117,7.64h2.93v3.156h-2.93V7.64z
	 M201.539,3.913h2.93v3.148h-2.93V3.913z M201.539,7.64h2.93v3.156h-2.93V7.64z M200.891,26.968h7.805v-8.039h-7.805V26.968z
	 M205.117,19.507h2.93v3.148h-2.93V19.507z M205.117,23.233h2.93v3.156h-2.93V23.233z M201.539,19.507h2.93v3.148h-2.93V19.507z
	 M201.539,23.233h2.93v3.156h-2.93V23.233z M200.891,42.563h7.805v-8.039h-7.805V42.563z M205.117,35.102h2.93v3.148h-2.93V35.102z
	 M205.117,38.828h2.93v3.156h-2.93V38.828z M201.539,35.102h2.93v3.148h-2.93V35.102z M201.539,38.828h2.93v3.156h-2.93V38.828z
	 M9.055,54.732c-0.293,0-0.44,0.149-0.44,0.448s0.146,0.447,0.44,0.447c0.128,0,0.234-0.042,0.32-0.128
	c0.085-0.085,0.128-0.191,0.128-0.319c0-0.134-0.042-0.242-0.124-0.324C9.296,54.773,9.188,54.732,9.055,54.732z M9.055,52.068
	c-0.293,0-0.44,0.149-0.44,0.448s0.146,0.447,0.44,0.447c0.128,0,0.234-0.042,0.32-0.128c0.085-0.085,0.128-0.191,0.128-0.319
	c0-0.134-0.042-0.241-0.124-0.324C9.296,52.109,9.188,52.068,9.055,52.068z M26.679,54.732c-0.293,0-0.44,0.149-0.44,0.448
	s0.146,0.447,0.44,0.447c0.128,0,0.234-0.042,0.32-0.128c0.085-0.085,0.128-0.191,0.128-0.319c0-0.134-0.042-0.242-0.124-0.324
	C26.92,54.773,26.812,54.732,26.679,54.732z M26.679,52.068c-0.293,0-0.44,0.149-0.44,0.448s0.146,0.447,0.44,0.447
	c0.128,0,0.234-0.042,0.32-0.128c0.085-0.085,0.128-0.191,0.128-0.319c0-0.134-0.042-0.241-0.124-0.324
	C26.92,52.109,26.812,52.068,26.679,52.068z M26.679,57.396c-0.293,0-0.44,0.149-0.44,0.448c0,0.298,0.146,0.447,0.44,0.447
	c0.128,0,0.234-0.043,0.32-0.128c0.085-0.085,0.128-0.191,0.128-0.319c0-0.134-0.042-0.242-0.124-0.324
	C26.92,57.438,26.812,57.396,26.679,57.396z M9.055,57.396c-0.293,0-0.44,0.149-0.44,0.448c0,0.298,0.146,0.447,0.44,0.447
	c0.128,0,0.234-0.043,0.32-0.128c0.085-0.085,0.128-0.191,0.128-0.319c0-0.134-0.042-0.242-0.124-0.324
	C9.296,57.438,9.188,57.396,9.055,57.396z M44.336,54.732c-0.293,0-0.44,0.149-0.44,0.448s0.146,0.447,0.44,0.447
	c0.128,0,0.234-0.042,0.32-0.128c0.085-0.085,0.128-0.191,0.128-0.319c0-0.134-0.042-0.242-0.124-0.324
	C44.577,54.773,44.469,54.732,44.336,54.732z M44.336,52.068c-0.293,0-0.44,0.149-0.44,0.448s0.146,0.447,0.44,0.447
	c0.128,0,0.234-0.042,0.32-0.128c0.085-0.085,0.128-0.191,0.128-0.319c0-0.134-0.042-0.241-0.124-0.324
	C44.577,52.109,44.469,52.068,44.336,52.068z M44.336,57.396c-0.293,0-0.44,0.149-0.44,0.448c0,0.298,0.146,0.447,0.44,0.447
	c0.128,0,0.234-0.043,0.32-0.128c0.085-0.085,0.128-0.191,0.128-0.319c0-0.134-0.042-0.242-0.124-0.324
	C44.577,57.438,44.469,57.396,44.336,57.396z M62.727,8.846c-0.293,0-0.44,0.149-0.44,0.448s0.146,0.448,0.44,0.448
	c0.128,0,0.234-0.043,0.32-0.128s0.128-0.192,0.128-0.32c0-0.133-0.042-0.241-0.124-0.324C62.968,8.888,62.86,8.846,62.727,8.846z
	 M57.399,8.846c-0.293,0-0.44,0.149-0.44,0.448s0.146,0.448,0.44,0.448c0.128,0,0.234-0.043,0.32-0.128
	c0.085-0.085,0.128-0.192,0.128-0.32c0-0.133-0.042-0.241-0.124-0.324C57.64,8.888,57.532,8.846,57.399,8.846z M60.063,8.846
	c-0.293,0-0.44,0.149-0.44,0.448s0.146,0.448,0.44,0.448c0.128,0,0.234-0.043,0.32-0.128s0.128-0.192,0.128-0.32
	c0-0.133-0.042-0.241-0.124-0.324C60.304,8.888,60.196,8.846,60.063,8.846z M60.063,24.439c-0.293,0-0.44,0.149-0.44,0.448
	s0.146,0.448,0.44,0.448c0.128,0,0.234-0.043,0.32-0.128s0.128-0.192,0.128-0.32c0-0.133-0.042-0.241-0.124-0.324
	C60.304,24.481,60.196,24.439,60.063,24.439z M57.399,24.439c-0.293,0-0.44,0.149-0.44,0.448s0.146,0.448,0.44,0.448
	c0.128,0,0.234-0.043,0.32-0.128c0.085-0.085,0.128-0.192,0.128-0.32c0-0.133-0.042-0.241-0.124-0.324
	C57.64,24.481,57.532,24.439,57.399,24.439z M62.727,24.439c-0.293,0-0.44,0.149-0.44,0.448s0.146,0.448,0.44,0.448
	c0.128,0,0.234-0.043,0.32-0.128s0.128-0.192,0.128-0.32c0-0.133-0.042-0.241-0.124-0.324C62.968,24.481,62.86,24.439,62.727,24.439
	z M57.399,40.034c-0.293,0-0.44,0.149-0.44,0.448s0.146,0.448,0.44,0.448c0.128,0,0.234-0.043,0.32-0.128
	c0.085-0.085,0.128-0.192,0.128-0.32c0-0.133-0.042-0.241-0.124-0.324C57.64,40.076,57.532,40.034,57.399,40.034z M62.727,40.034
	c-0.293,0-0.44,0.149-0.44,0.448s0.146,0.448,0.44,0.448c0.128,0,0.234-0.043,0.32-0.128s0.128-0.192,0.128-0.32
	c0-0.133-0.042-0.241-0.124-0.324C62.968,40.076,62.86,40.034,62.727,40.034z M60.063,40.034c-0.293,0-0.44,0.149-0.44,0.448
	s0.146,0.448,0.44,0.448c0.128,0,0.234-0.043,0.32-0.128s0.128-0.192,0.128-0.32c0-0.133-0.042-0.241-0.124-0.324
	C60.304,40.076,60.196,40.034,60.063,40.034z M99.807,52.068c-0.293,0-0.44,0.149-0.44,0.448s0.146,0.447,0.44,0.447
	c0.128,0,0.234-0.042,0.32-0.128c0.085-0.085,0.128-0.191,0.128-0.319c0-0.134-0.042-0.241-0.124-0.324
	C100.048,52.109,99.94,52.068,99.807,52.068z M57.399,52.068c-0.293,0-0.44,0.149-0.44,0.448s0.146,0.447,0.44,0.447
	c0.128,0,0.234-0.042,0.32-0.128c0.085-0.085,0.128-0.191,0.128-0.319c0-0.134-0.042-0.241-0.124-0.324
	C57.64,52.109,57.532,52.068,57.399,52.068z M99.807,57.396c-0.293,0-0.44,0.149-0.44,0.448c0,0.298,0.146,0.447,0.44,0.447
	c0.128,0,0.234-0.043,0.32-0.128c0.085-0.085,0.128-0.191,0.128-0.319c0-0.134-0.042-0.242-0.124-0.324
	C100.048,57.438,99.94,57.396,99.807,57.396z M99.807,54.732c-0.293,0-0.44,0.149-0.44,0.448s0.146,0.447,0.44,0.447
	c0.128,0,0.234-0.042,0.32-0.128c0.085-0.085,0.128-0.191,0.128-0.319c0-0.134-0.042-0.242-0.124-0.324
	C100.048,54.773,99.94,54.732,99.807,54.732z M62.727,57.396c-0.293,0-0.44,0.149-0.44,0.448c0,0.298,0.146,0.447,0.44,0.447
	c0.128,0,0.234-0.043,0.32-0.128s0.128-0.191,0.128-0.319c0-0.134-0.042-0.242-0.124-0.324
	C62.968,57.438,62.86,57.396,62.727,57.396z M60.063,54.732c-0.293,0-0.44,0.149-0.44,0.448s0.146,0.447,0.44,0.447
	c0.128,0,0.234-0.042,0.32-0.128c0.085-0.085,0.128-0.191,0.128-0.319c0-0.134-0.042-0.242-0.124-0.324
	C60.304,54.773,60.196,54.732,60.063,54.732z M130.746,54.732c-0.293,0-0.439,0.149-0.439,0.448s0.146,0.447,0.439,0.447
	c0.128,0,0.234-0.042,0.32-0.128c0.085-0.085,0.128-0.191,0.128-0.319c0-0.134-0.042-0.242-0.124-0.324
	C130.987,54.773,130.879,54.732,130.746,54.732z M130.746,57.396c-0.293,0-0.439,0.149-0.439,0.448c0,0.298,0.146,0.447,0.439,0.447
	c0.128,0,0.234-0.043,0.32-0.128c0.085-0.085,0.128-0.191,0.128-0.319c0-0.134-0.042-0.242-0.124-0.324
	C130.987,57.438,130.879,57.396,130.746,57.396z M130.746,52.068c-0.293,0-0.439,0.149-0.439,0.448s0.146,0.447,0.439,0.447
	c0.128,0,0.234-0.042,0.32-0.128c0.085-0.085,0.128-0.191,0.128-0.319c0-0.134-0.042-0.241-0.124-0.324
	C130.987,52.109,130.879,52.068,130.746,52.068z M115.274,57.396c-0.293,0-0.44,0.149-0.44,0.448c0,0.298,0.146,0.447,0.44,0.447
	c0.128,0,0.234-0.043,0.32-0.128c0.085-0.085,0.128-0.191,0.128-0.319c0-0.134-0.042-0.242-0.124-0.324
	C115.515,57.438,115.407,57.396,115.274,57.396z M115.274,52.068c-0.293,0-0.44,0.149-0.44,0.448s0.146,0.447,0.44,0.447
	c0.128,0,0.234-0.042,0.32-0.128c0.085-0.085,0.128-0.191,0.128-0.319c0-0.134-0.042-0.241-0.124-0.324
	C115.515,52.109,115.407,52.068,115.274,52.068z M115.274,54.732c-0.293,0-0.44,0.149-0.44,0.448s0.146,0.447,0.44,0.447
	c0.128,0,0.234-0.042,0.32-0.128c0.085-0.085,0.128-0.191,0.128-0.319c0-0.134-0.042-0.242-0.124-0.324
	C115.515,54.773,115.407,54.732,115.274,54.732z M145.219,8.846c-0.293,0-0.439,0.149-0.439,0.448s0.146,0.448,0.439,0.448
	c0.128,0,0.234-0.043,0.32-0.128c0.085-0.085,0.128-0.192,0.128-0.32c0-0.133-0.042-0.241-0.124-0.324
	C145.46,8.888,145.352,8.846,145.219,8.846z M147.883,8.846c-0.293,0-0.439,0.149-0.439,0.448s0.146,0.448,0.439,0.448
	c0.128,0,0.234-0.043,0.32-0.128c0.085-0.085,0.128-0.192,0.128-0.32c0-0.133-0.042-0.241-0.124-0.324
	C148.124,8.888,148.016,8.846,147.883,8.846z M142.555,8.846c-0.293,0-0.439,0.149-0.439,0.448s0.146,0.448,0.439,0.448
	c0.128,0,0.234-0.043,0.32-0.128c0.085-0.085,0.128-0.192,0.128-0.32c0-0.133-0.042-0.241-0.124-0.324
	C142.796,8.888,142.688,8.846,142.555,8.846z M145.219,24.439c-0.293,0-0.439,0.149-0.439,0.448s0.146,0.448,0.439,0.448
	c0.128,0,0.234-0.043,0.32-0.128c0.085-0.085,0.128-0.192,0.128-0.32c0-0.133-0.042-0.241-0.124-0.324
	C145.46,24.481,145.352,24.439,145.219,24.439z M142.555,24.439c-0.293,0-0.439,0.149-0.439,0.448s0.146,0.448,0.439,0.448
	c0.128,0,0.234-0.043,0.32-0.128c0.085-0.085,0.128-0.192,0.128-0.32c0-0.133-0.042-0.241-0.124-0.324
	C142.796,24.481,142.688,24.439,142.555,24.439z M147.883,24.439c-0.293,0-0.439,0.149-0.439,0.448s0.146,0.448,0.439,0.448
	c0.128,0,0.234-0.043,0.32-0.128c0.085-0.085,0.128-0.192,0.128-0.32c0-0.133-0.042-0.241-0.124-0.324
	C148.124,24.481,148.016,24.439,147.883,24.439z M142.555,40.034c-0.293,0-0.439,0.149-0.439,0.448s0.146,0.448,0.439,0.448
	c0.128,0,0.234-0.043,0.32-0.128c0.085-0.085,0.128-0.192,0.128-0.32c0-0.133-0.042-0.241-0.124-0.324
	C142.796,40.076,142.688,40.034,142.555,40.034z M145.219,40.034c-0.293,0-0.439,0.149-0.439,0.448s0.146,0.448,0.439,0.448
	c0.128,0,0.234-0.043,0.32-0.128c0.085-0.085,0.128-0.192,0.128-0.32c0-0.133-0.042-0.241-0.124-0.324
	C145.46,40.076,145.352,40.034,145.219,40.034z M147.883,40.034c-0.293,0-0.439,0.149-0.439,0.448s0.146,0.448,0.439,0.448
	c0.128,0,0.234-0.043,0.32-0.128c0.085-0.085,0.128-0.192,0.128-0.32c0-0.133-0.042-0.241-0.124-0.324
	C148.124,40.076,148.016,40.034,147.883,40.034z M147.883,57.396c-0.293,0-0.439,0.149-0.439,0.448c0,0.298,0.146,0.447,0.439,0.447
	c0.128,0,0.234-0.043,0.32-0.128c0.085-0.085,0.128-0.191,0.128-0.319c0-0.134-0.042-0.242-0.124-0.324
	C148.124,57.438,148.016,57.396,147.883,57.396z M145.219,54.732c-0.293,0-0.439,0.149-0.439,0.448s0.146,0.447,0.439,0.447
	c0.128,0,0.234-0.042,0.32-0.128c0.085-0.085,0.128-0.191,0.128-0.319c0-0.134-0.042-0.242-0.124-0.324
	C145.46,54.773,145.352,54.732,145.219,54.732z M142.555,52.068c-0.293,0-0.439,0.149-0.439,0.448s0.146,0.447,0.439,0.447
	c0.128,0,0.234-0.042,0.32-0.128c0.085-0.085,0.128-0.191,0.128-0.319c0-0.134-0.042-0.241-0.124-0.324
	C142.796,52.109,142.688,52.068,142.555,52.068z M189.805,57.396c-0.293,0-0.439,0.149-0.439,0.448c0,0.298,0.146,0.447,0.439,0.447
	c0.128,0,0.234-0.043,0.32-0.128c0.085-0.085,0.128-0.191,0.128-0.319c0-0.134-0.042-0.242-0.124-0.324
	C190.046,57.438,189.938,57.396,189.805,57.396z M204.805,52.068c-0.293,0-0.439,0.149-0.439,0.448s0.146,0.447,0.439,0.447
	c0.128,0,0.234-0.042,0.32-0.128c0.085-0.085,0.128-0.191,0.128-0.319c0-0.134-0.042-0.241-0.124-0.324
	C205.046,52.109,204.938,52.068,204.805,52.068z M174.805,52.068c-0.293,0-0.439,0.149-0.439,0.448s0.146,0.447,0.439,0.447
	c0.128,0,0.234-0.042,0.32-0.128c0.085-0.085,0.128-0.191,0.128-0.319c0-0.134-0.042-0.241-0.124-0.324
	C175.046,52.109,174.938,52.068,174.805,52.068z M189.805,52.068c-0.293,0-0.439,0.149-0.439,0.448s0.146,0.447,0.439,0.447
	c0.128,0,0.234-0.042,0.32-0.128c0.085-0.085,0.128-0.191,0.128-0.319c0-0.134-0.042-0.241-0.124-0.324
	C190.046,52.109,189.938,52.068,189.805,52.068z M204.805,57.396c-0.293,0-0.439,0.149-0.439,0.448c0,0.298,0.146,0.447,0.439,0.447
	c0.128,0,0.234-0.043,0.32-0.128c0.085-0.085,0.128-0.191,0.128-0.319c0-0.134-0.042-0.242-0.124-0.324
	C205.046,57.438,204.938,57.396,204.805,57.396z M204.805,54.732c-0.293,0-0.439,0.149-0.439,0.448s0.146,0.447,0.439,0.447
	c0.128,0,0.234-0.042,0.32-0.128c0.085-0.085,0.128-0.191,0.128-0.319c0-0.134-0.042-0.242-0.124-0.324
	C205.046,54.773,204.938,54.732,204.805,54.732z M174.805,54.732c-0.293,0-0.439,0.149-0.439,0.448s0.146,0.447,0.439,0.447
	c0.128,0,0.234-0.042,0.32-0.128c0.085-0.085,0.128-0.191,0.128-0.319c0-0.134-0.042-0.242-0.124-0.324
	C175.046,54.773,174.938,54.732,174.805,54.732z M189.805,54.732c-0.293,0-0.439,0.149-0.439,0.448s0.146,0.447,0.439,0.447
	c0.128,0,0.234-0.042,0.32-0.128c0.085-0.085,0.128-0.191,0.128-0.319c0-0.134-0.042-0.242-0.124-0.324
	C190.046,54.773,189.938,54.732,189.805,54.732z M174.805,57.396c-0.293,0-0.439,0.149-0.439,0.448c0,0.298,0.146,0.447,0.439,0.447
	c0.128,0,0.234-0.043,0.32-0.128c0.085-0.085,0.128-0.191,0.128-0.319c0-0.134-0.042-0.242-0.124-0.324
	C175.046,57.438,174.938,57.396,174.805,57.396z M219.031,8.846c-0.294,0-0.44,0.149-0.44,0.448s0.146,0.448,0.44,0.448
	c0.127,0,0.234-0.043,0.319-0.128s0.128-0.192,0.128-0.32c0-0.133-0.041-0.241-0.123-0.324
	C219.271,8.888,219.164,8.846,219.031,8.846z M221.695,8.846c-0.294,0-0.44,0.149-0.44,0.448s0.146,0.448,0.44,0.448
	c0.127,0,0.234-0.043,0.319-0.128s0.128-0.192,0.128-0.32c0-0.133-0.041-0.241-0.123-0.324
	C221.936,8.888,221.828,8.846,221.695,8.846z M216.367,8.846c-0.294,0-0.44,0.149-0.44,0.448s0.146,0.448,0.44,0.448
	c0.127,0,0.234-0.043,0.32-0.128c0.084-0.085,0.127-0.192,0.127-0.32c0-0.133-0.041-0.241-0.123-0.324
	C216.607,8.888,216.5,8.846,216.367,8.846z M221.695,24.439c-0.294,0-0.44,0.149-0.44,0.448s0.146,0.448,0.44,0.448
	c0.127,0,0.234-0.043,0.319-0.128s0.128-0.192,0.128-0.32c0-0.133-0.041-0.241-0.123-0.324
	C221.936,24.481,221.828,24.439,221.695,24.439z M219.031,24.439c-0.294,0-0.44,0.149-0.44,0.448s0.146,0.448,0.44,0.448
	c0.127,0,0.234-0.043,0.319-0.128s0.128-0.192,0.128-0.32c0-0.133-0.041-0.241-0.123-0.324
	C219.271,24.481,219.164,24.439,219.031,24.439z M216.367,24.439c-0.294,0-0.44,0.149-0.44,0.448s0.146,0.448,0.44,0.448
	c0.127,0,0.234-0.043,0.32-0.128c0.084-0.085,0.127-0.192,0.127-0.32c0-0.133-0.041-0.241-0.123-0.324
	C216.607,24.481,216.5,24.439,216.367,24.439z M219.031,40.034c-0.294,0-0.44,0.149-0.44,0.448s0.146,0.448,0.44,0.448
	c0.127,0,0.234-0.043,0.319-0.128s0.128-0.192,0.128-0.32c0-0.133-0.041-0.241-0.123-0.324
	C219.271,40.076,219.164,40.034,219.031,40.034z M216.367,40.034c-0.294,0-0.44,0.149-0.44,0.448s0.146,0.448,0.44,0.448
	c0.127,0,0.234-0.043,0.32-0.128c0.084-0.085,0.127-0.192,0.127-0.32c0-0.133-0.041-0.241-0.123-0.324
	C216.607,40.076,216.5,40.034,216.367,40.034z M221.695,40.034c-0.294,0-0.44,0.149-0.44,0.448s0.146,0.448,0.44,0.448
	c0.127,0,0.234-0.043,0.319-0.128s0.128-0.192,0.128-0.32c0-0.133-0.041-0.241-0.123-0.324
	C221.936,40.076,221.828,40.034,221.695,40.034z M221.695,57.396c-0.294,0-0.44,0.149-0.44,0.448c0,0.298,0.146,0.447,0.44,0.447
	c0.127,0,0.234-0.043,0.319-0.128s0.128-0.191,0.128-0.319c0-0.134-0.041-0.242-0.123-0.324
	C221.936,57.438,221.828,57.396,221.695,57.396z M216.367,52.068c-0.294,0-0.44,0.149-0.44,0.448s0.146,0.447,0.44,0.447
	c0.127,0,0.234-0.042,0.32-0.128c0.084-0.085,0.127-0.191,0.127-0.319c0-0.134-0.041-0.241-0.123-0.324
	C216.607,52.109,216.5,52.068,216.367,52.068z M219.031,54.732c-0.294,0-0.44,0.149-0.44,0.448s0.146,0.447,0.44,0.447
	c0.127,0,0.234-0.042,0.319-0.128c0.085-0.085,0.128-0.191,0.128-0.319c0-0.134-0.041-0.242-0.123-0.324
	C219.271,54.773,219.164,54.732,219.031,54.732z M0,60.937h2.474v-0.359h-1.02c-0.36,0-0.54-0.18-0.54-0.54V2.095
	c0-0.36,0.18-0.54,0.54-0.54h1.02V1.195H0V60.937z M92,60.937h2.474v-0.359h-1.02c-0.36,0-0.54-0.18-0.54-0.54V2.095
	c0-0.36,0.18-0.54,0.54-0.54h1.02V1.195H92V60.937z M167.219,60.937h2.475v-0.359h-1.021c-0.36,0-0.54-0.18-0.54-0.54V2.095
	c0-0.36,0.18-0.54,0.54-0.54h1.021V1.195h-2.475V60.937z M64.393,1.555h1.02c0.36,0,0.54,0.18,0.54,0.54v57.942
	c0,0.36-0.18,0.54-0.54,0.54h-1.02v0.359h2.474V1.195h-2.474V1.555z M149.549,1.555h1.02c0.36,0,0.541,0.18,0.541,0.54v57.942
	c0,0.36-0.181,0.54-0.541,0.54h-1.02v0.359h2.475V1.195h-2.475V1.555z M223.361,1.555h1.021c0.36,0,0.54,0.18,0.54,0.54v57.942
	c0,0.36-0.18,0.54-0.54,0.54h-1.021v0.359h2.475V1.195h-2.475V1.555z M87.938,2.95v25.677c0,0.815-0.144,1.415-0.432,1.799
	c-0.328,0.424-0.864,0.676-1.608,0.756v0.672c0.744,0.08,1.28,0.332,1.608,0.756c0.288,0.384,0.432,0.983,0.432,1.799v24.756
	c0,1.017,0.208,1.744,0.625,2.184c0.448,0.48,1.192,0.736,2.232,0.769v-0.36c-0.8-0.111-1.336-0.399-1.608-0.863
	c-0.224-0.368-0.336-0.988-0.336-1.86V34.457c0-0.96-0.22-1.66-0.66-2.1c-0.432-0.447-1.12-0.712-2.064-0.792
	c0.48-0.04,0.89-0.144,1.23-0.312s0.622-0.364,0.846-0.588c0.432-0.447,0.648-1.144,0.648-2.087V3.082
	c0-0.871,0.112-1.491,0.336-1.858c0.272-0.464,0.808-0.752,1.608-0.863V0c-1.048,0.04-1.788,0.292-2.22,0.756
	C88.15,1.22,87.938,1.951,87.938,2.95z M230.338,30.426c-0.287-0.384-0.432-0.983-0.432-1.799V2.95c0-1.016-0.209-1.743-0.625-2.183
	c-0.449-0.479-1.193-0.735-2.232-0.768v0.36c0.799,0.111,1.336,0.399,1.607,0.863c0.224,0.367,0.336,0.987,0.336,1.858v25.497
	c0,0.959,0.22,1.659,0.66,2.099c0.216,0.225,0.494,0.418,0.834,0.582s0.75,0.266,1.23,0.306c-0.929,0.08-1.621,0.349-2.076,0.804
	c-0.433,0.44-0.648,1.136-0.648,2.088v24.575c0,0.872-0.112,1.492-0.336,1.86c-0.271,0.464-0.809,0.752-1.607,0.863v0.36
	c1.039-0.032,1.783-0.288,2.232-0.769c0.416-0.439,0.625-1.167,0.625-2.184V34.408c0-0.815,0.145-1.415,0.432-1.799
	c0.328-0.424,0.864-0.676,1.608-0.756v-0.672C231.202,31.102,230.666,30.85,230.338,30.426z"/>
</svg>
