<?xml version="1.0" encoding="utf-8"?>
<!-- Generator: Adobe Illustrator 14.0.0, SVG Export Plug-In . SVG Version: 6.00 Build 43363)  -->
<!DOCTYPE svg PUBLIC "-//W3C//DTD SVG 1.0//EN" "http://www.w3.org/TR/2001/REC-SVG-20010904/DTD/svg10.dtd">
<svg version="1.0" xmlns="http://www.w3.org/2000/svg" xmlns:xlink="http://www.w3.org/1999/xlink" x="0px" y="0px"
	 width="506.65px" height="218.57px" viewBox="0 0 506.65 218.57" enable-background="new 0 0 506.65 218.57" xml:space="preserve">
<g id="Layer_1">
	<path fill-rule="evenodd" clip-rule="evenodd" d="M101.04,218.57l0.08-19.09l0.62-19.08l1.66-19.091l2.97-17.989l-5.94-9.98
		l-6.78-11.9l-6.34-12.179l-5.45-12.01l-7.79-4.18l-8.6-4.76l-8.48-4.99l-8.04-5.15l-6.56,0.32l-7.05,0.28l-7.06,0.14l-6.91-0.03
		L6.88,88.25l0.08,0.14c0.49,1.2,0.09,2.63-1.04,3.38c-0.48,0.33-1.02,0.48-1.56,0.48c-0.9,0-1.78-0.44-2.32-1.24
		c-0.86-1.28-0.52-3.03,0.76-3.89c1.13-0.75,2.6-0.58,3.53,0.33l0.06,0.08l1.87-1.36l4.15-2.9l4.18-2.86l3.24-2.18l-7.88-4.27
		l-6.41-3.65l-0.07,0.12c-0.83,1-2.28,1.32-3.47,0.68c-1.37-0.73-1.89-2.42-1.16-3.79c0.73-1.36,2.43-1.88,3.79-1.15
		C5.82,66.8,6.37,68.18,6,69.43l-0.04,0.1l2.08,1.01l4.52,2.29l4.48,2.34l4.27,2.27l6.86-0.73l7.04-0.56l7.04-0.43l4.72-0.25
		l-2.43-4.06l-3.56-6.09l-3.45-6.15l-3.22-6.12l-15.09-8.38l-0.09,0.14c-0.83,1-2.28,1.32-3.47,0.68c-1.36-0.73-1.88-2.42-1.15-3.79
		c0.72-1.36,2.42-1.88,3.78-1.15c1.2,0.64,1.74,2.02,1.37,3.26l-0.03,0.1l2.07,1.01l4.52,2.29l4.48,2.35l3.45,1.83l0.01-3.94
		l0.27-12.38h-0.01c-1.35-0.21-2.38-1.37-2.38-2.77c0-1.55,1.26-2.8,2.8-2.8c1.55,0,2.8,1.25,2.8,2.8c0,0.7-0.25,1.34-0.68,1.83
		l-1.65,0.92l0.08,2.31l0.11,5.07l0.04,5.06v4.83l3.88,5.71l3.81,5.94l3.69,6.01l3.39,5.64l8.76,3.8l8.87,4.26l8.75,4.49l4.57,2.43
		l0.02-5.18l0.15-9.83l0.41-9.83l0.77-9.52l-3.38-5.64l-3.56-6.09l-3.45-6.16L69,32.24l-15.09-8.38l-0.09,0.13
		c-0.83,1.01-2.28,1.32-3.47,0.69c-1.36-0.73-1.88-2.43-1.15-3.79c0.73-1.37,2.42-1.88,3.79-1.16c1.19,0.64,1.73,2.02,1.36,3.27
		l-0.03,0.1l2.07,1l4.52,2.29l4.48,2.35l3.45,1.83l0.01-3.94l0.27-12.37l-0.01-0.01c-1.35-0.2-2.37-1.36-2.37-2.77
		c0-1.54,1.25-2.79,2.8-2.79c1.54,0,2.8,1.25,2.8,2.79c0,0.71-0.26,1.35-0.69,1.84L70,14.23l0.09,2.32l0.1,5.06l0.04,5.06v4.84
		l3.88,5.71l3.81,5.94l3.69,6.01l2.44,4.05l2.44-4.05l3.7-6.01l3.8-5.94l3.88-5.72l0.3-17.24l-0.03-0.01
		c-1.34-0.2-2.37-1.36-2.37-2.77c0-1.54,1.25-2.79,2.8-2.79c1.55,0,2.8,1.25,2.8,2.79c0,0.71-0.26,1.35-0.68,1.84l-1.66,0.91
		l0.09,2.32l0.1,5.06l0.04,5.06l0.01,3.9l1.21-0.64l13.32-6.78L113.75,23c-0.37-1.25,0.18-2.63,1.37-3.27
		c1.36-0.72,3.06-0.21,3.79,1.16c0.72,1.36,0.21,3.06-1.16,3.79c-1.19,0.63-2.64,0.32-3.47-0.69l-0.06-0.08l-1.99,1.16l-4.42,2.48
		l-4.45,2.41l-4.26,2.28l-3.21,6.11l-3.45,6.16l-3.57,6.09l-3.37,5.64l0.76,9.52l0.42,9.83l0.15,9.83l0.02,8.84l8.04,10.46
		l7.76,11.32l7.31,11.58l3.07,5.08l3.86-4.5l9.12-10.229l9.51-9.891l9.65-9l1.47-8.71l1.77-9.67l2.02-9.63l2.32-9.26l-2.4-6.13
		l-2.51-6.59l-2.39-6.64l-2.17-6.56l-13.5-10.74l-0.12,0.12c-0.98,0.85-2.46,0.92-3.54,0.1c-1.22-0.94-1.45-2.7-0.51-3.93
		c0.94-1.22,2.7-1.45,3.93-0.51c1.07,0.82,1.38,2.27,0.81,3.44l-0.05,0.09l1.88,1.34l4.08,3l4.04,3.05l3.11,2.39l2.96-16.06
		l-0.16-0.05c-1.22-0.47-1.98-1.74-1.75-3.08c0.25-1.52,1.69-2.56,3.22-2.3c1.52,0.25,2.55,1.7,2.3,3.22
		c-0.22,1.34-1.36,2.29-2.66,2.34h-0.1l-0.29,2.29l-0.73,5.01l-0.79,5l-0.79,4.76l2.88,6.28l2.78,6.48l2.66,6.54l1.729,4.39
		l3.08-3.59l4.631-5.32l4.729-5.24l4.771-5l3.13-16.96l-0.16-0.05c-1.22-0.47-1.98-1.74-1.76-3.08c0.26-1.52,1.7-2.55,3.229-2.3
		c1.521,0.26,2.55,1.7,2.3,3.22c-0.22,1.34-1.359,2.3-2.659,2.34h-0.101l-0.29,2.29l-0.729,5.01l-0.8,5l-0.641,3.87l15.561-4.95
		l-0.021-0.16c-0.16-1.29,0.601-2.57,1.89-3c1.461-0.49,3.05,0.3,3.54,1.76c0.5,1.47-0.29,3.06-1.76,3.55
		c-1.28,0.43-2.66-0.12-3.311-1.24l-0.05-0.09l-2.149,0.82l-4.771,1.71l-4.789,1.65l-4.57,1.55l-4.18,5.49l-4.41,5.51l-4.521,5.42
		l-4.25,5.01l-0.819,9.52l-1.201,9.76l-1.47,9.72l-0.84,5.11l4.91-1.64l9.37-2.99l9.45-2.74l9.26-2.32l4.271-5l4.64-5.32l4.73-5.23
		l4.77-5l3.119-16.97l-0.149-0.05c-1.22-0.46-1.98-1.74-1.76-3.07c0.26-1.53,1.7-2.56,3.22-2.3c1.53,0.25,2.56,1.69,2.31,3.22
		c-0.229,1.33-1.359,2.29-2.659,2.34h-0.11l-0.28,2.28l-0.729,5.01l-0.8,5l-0.641,3.85l3.7-1.22l11.86-3.72l-0.021-0.15
		c-0.16-1.29,0.601-2.56,1.88-2.99c1.471-0.5,3.061,0.29,3.55,1.76c0.491,1.46-0.3,3.05-1.759,3.55
		c-1.281,0.43-2.661-0.12-3.311-1.25l-0.051-0.09l-2.159,0.82l-4.761,1.71l-4.789,1.66l-4.57,1.54l-4.18,5.5l-4.41,5.5l-4.52,5.42
		l-3.061,3.61l4.61,1.02l6.88,1.58l6.84,1.71l6.66,1.86l16.439-5.23L229,87.89c-0.159-1.29,0.601-2.56,1.891-3
		c1.46-0.49,3.05,0.3,3.55,1.76c0.49,1.47-0.3,3.06-1.76,3.55c-1.29,0.43-2.66-0.12-3.32-1.24l-0.05-0.09l-2.149,0.82l-4.771,1.71
		l-4.78,1.65l-3.71,1.26l11.69,11.41l0.12-0.11c1.069-0.75,2.55-0.67,3.529,0.25c1.13,1.07,1.18,2.84,0.12,3.96
		c-0.53,0.569-1.24,0.86-1.949,0.88c-0.721,0.021-1.45-0.229-2.011-0.761c-0.98-0.929-1.15-2.399-0.46-3.509l0.06-0.08l-1.739-1.52
		l-3.75-3.4l-3.711-3.44l-3.52-3.31l-6.819-1.1l-6.931-1.31l-6.91-1.43l-6.43-1.4l-8.771,3.76l-9.189,3.53l-9.26,3.29l-8.37,2.83
		l-7.35,10.959L134,124.78l-8.65,10.62l-7.15,8.46l2.88,17.449l1.66,19.091l0.61,19.08l0.09,19.09H101.04z"/>
	<path fill-rule="evenodd" clip-rule="evenodd" d="M370.6,218.57l0.09-19.09l0.609-19.08l1.661-19.091l2.979-17.989l-5.95-9.98
		l-6.779-11.9l-6.341-12.179l-5.45-12.01l-7.779-4.18l-8.6-4.76l-8.48-4.99l-8.04-5.15l-6.57,0.32l-7.05,0.28l-7.05,0.14l-6.91-0.03
		l-14.5,9.37l0.08,0.14c0.489,1.2,0.09,2.63-1.03,3.38c-0.48,0.33-1.029,0.48-1.57,0.48c-0.899,0-1.779-0.44-2.319-1.24
		c-0.86-1.28-0.51-3.03,0.77-3.89c1.12-0.75,2.591-0.58,3.521,0.33l0.07,0.08l1.859-1.36l4.15-2.9l4.18-2.86l3.25-2.18l-7.88-4.27
		l-6.41-3.65l-0.08,0.12c-0.83,1-2.28,1.32-3.47,0.68c-1.37-0.73-1.88-2.42-1.149-3.79c0.72-1.36,2.419-1.88,3.779-1.15
		c1.2,0.63,1.74,2.01,1.37,3.26l-0.03,0.1l2.07,1.01l4.52,2.29l4.48,2.34l4.27,2.27l6.87-0.73l7.03-0.56l7.04-0.43l4.72-0.25
		l-2.42-4.06l-3.569-6.09l-3.45-6.15l-3.221-6.12l-15.079-8.38l-0.091,0.14c-0.84,1-2.28,1.32-3.479,0.68
		c-1.36-0.73-1.88-2.42-1.15-3.79c0.729-1.36,2.43-1.88,3.79-1.15c1.189,0.64,1.74,2.02,1.37,3.26l-0.04,0.1l2.08,1.01l4.51,2.29
		l4.49,2.35l3.44,1.83l0.02-3.94l0.26-12.38h-0.01c-1.34-0.21-2.37-1.37-2.37-2.77c0-1.55,1.25-2.8,2.801-2.8
		c1.539,0,2.8,1.25,2.8,2.8c0,0.7-0.261,1.34-0.69,1.83l-1.65,0.92l0.091,2.31l0.1,5.07l0.04,5.06l0.01,4.83l3.87,5.71l3.811,5.94
		l3.699,6.01l3.391,5.64l8.76,3.8l8.869,4.26l8.74,4.49l4.58,2.43l0.011-5.18l0.149-9.83l0.42-9.83l0.76-9.52l-3.37-5.64
		l-3.569-6.09l-3.45-6.16l-3.21-6.11l-15.09-8.38l-0.09,0.13c-0.83,1.01-2.28,1.32-3.471,0.69c-1.37-0.73-1.879-2.43-1.16-3.79
		c0.73-1.37,2.431-1.88,3.79-1.16c1.19,0.64,1.741,2.02,1.37,3.27l-0.039,0.1l2.08,1l4.51,2.29l4.49,2.35l3.439,1.83l0.02-3.94
		l0.271-12.37l-0.021-0.01c-1.34-0.2-2.37-1.36-2.37-2.77c0-1.54,1.25-2.79,2.801-2.79c1.55,0,2.8,1.25,2.8,2.79
		c0,0.71-0.26,1.35-0.68,1.84l-1.66,0.91l0.09,2.32l0.1,5.06l0.041,5.06l0.009,4.84l3.881,5.71l3.8,5.94l3.7,6.01l2.439,4.05
		l2.44-4.05l3.689-6.01l3.811-5.94l3.88-5.72l0.29-17.24l-0.02-0.01c-1.351-0.2-2.381-1.36-2.381-2.77c0-1.54,1.261-2.79,2.801-2.79
		c1.55,0,2.8,1.25,2.8,2.79c0,0.71-0.25,1.35-0.681,1.84l-1.649,0.91l0.09,2.32l0.101,5.06l0.039,5.06v3.9l1.211-0.64l13.329-6.78
		L383.31,23c-0.37-1.25,0.18-2.63,1.37-3.27c1.369-0.72,3.06-0.21,3.79,1.16c0.729,1.36,0.21,3.06-1.15,3.79
		c-1.2,0.63-2.64,0.32-3.47-0.69l-0.06-0.08l-2,1.16l-4.41,2.48l-4.45,2.41l-4.261,2.28l-3.22,6.11L362,44.51l-3.56,6.09l-3.38,5.64
		l0.77,9.52l0.41,9.83l0.16,9.83l0.02,8.84l8.03,10.46l7.761,11.32l7.31,11.58l3.07,5.08l3.87-4.5l9.109-10.229l9.51-9.891l9.66-9
		l1.471-8.71l1.76-9.67L420,71.07l2.32-9.26l-2.4-6.13l-2.52-6.59l-2.391-6.64l-2.169-6.56l-13.5-10.74l-0.11,0.12
		c-0.99,0.85-2.471,0.92-3.54,0.1c-1.229-0.94-1.46-2.7-0.521-3.93c0.95-1.22,2.711-1.45,3.931-0.51
		c1.069,0.82,1.38,2.27,0.819,3.44l-0.06,0.09l1.89,1.34l4.07,3l4.04,3.05l3.11,2.39l2.96-16.06l-0.16-0.05
		c-1.21-0.47-1.971-1.74-1.75-3.08c0.25-1.52,1.7-2.56,3.22-2.3c1.53,0.25,2.56,1.7,2.301,3.22c-0.221,1.34-1.351,2.29-2.65,2.34
		h-0.11l-0.29,2.29l-0.73,5.01l-0.789,5l-0.79,4.76l2.89,6.28l2.771,6.48l2.659,6.54l1.74,4.39l3.07-3.59l4.63-5.32l4.74-5.24
		l4.76-5l3.13-16.96l-0.16-0.05c-1.21-0.47-1.979-1.74-1.75-3.08c0.25-1.52,1.7-2.55,3.221-2.3c1.529,0.26,2.56,1.7,2.3,3.22
		c-0.22,1.34-1.351,2.3-2.65,2.34h-0.11l-0.289,2.29l-0.73,5.01l-0.79,5l-0.64,3.87l15.56-4.95l-0.03-0.16
		c-0.159-1.29,0.61-2.57,1.891-3c1.46-0.49,3.05,0.3,3.55,1.76c0.49,1.47-0.3,3.06-1.76,3.55c-1.29,0.43-2.66-0.12-3.32-1.24
		l-0.05-0.09l-2.15,0.82l-4.76,1.71l-4.79,1.65l-4.58,1.55l-4.17,5.49l-4.42,5.51l-4.521,5.42l-4.25,5.01l-0.81,9.52l-1.21,9.76
		l-1.46,9.72l-0.84,5.11l4.909-1.64l9.36-2.99l9.45-2.74l9.271-2.32l4.27-5l4.63-5.32l4.73-5.23l4.77-5l3.13-16.97l-0.159-0.05
		c-1.211-0.46-1.98-1.74-1.75-3.07c0.25-1.53,1.689-2.56,3.22-2.3c1.52,0.25,2.56,1.69,2.3,3.22c-0.221,1.33-1.35,2.29-2.66,2.34
		h-0.1l-0.29,2.28l-0.73,5.01l-0.79,5l-0.64,3.85l3.69-1.22l11.869-3.72l-0.03-0.15c-0.159-1.29,0.601-2.56,1.891-2.99
		c1.46-0.5,3.05,0.29,3.54,1.76c0.5,1.46-0.29,3.05-1.76,3.55c-1.28,0.43-2.66-0.12-3.311-1.25l-0.05-0.09l-2.149,0.82l-4.771,1.71
		l-4.78,1.66l-4.58,1.54l-4.18,5.5l-4.41,5.5l-4.52,5.42l-3.061,3.61l4.62,1.02l6.87,1.58l6.85,1.71l6.66,1.86l16.43-5.23
		l-0.02-0.16c-0.16-1.29,0.6-2.56,1.88-3c1.47-0.49,3.06,0.3,3.55,1.76c0.49,1.47-0.289,3.06-1.76,3.55
		c-1.279,0.43-2.66-0.12-3.31-1.24l-0.05-0.09l-2.16,0.82l-4.76,1.71l-4.791,1.65l-3.709,1.26l11.689,11.41l0.13-0.11
		c1.06-0.75,2.54-0.67,3.53,0.25c1.12,1.07,1.18,2.84,0.12,3.96c-0.54,0.569-1.24,0.86-1.96,0.88c-0.721,0.021-1.44-0.229-2-0.761
		c-0.99-0.929-1.15-2.399-0.471-3.509l0.07-0.08l-1.74-1.52l-3.76-3.4l-3.71-3.44l-3.52-3.31l-6.811-1.1l-6.939-1.31l-6.9-1.43
		l-6.431-1.4l-8.779,3.76l-9.181,3.53l-9.27,3.29l-8.36,2.83l-7.359,10.959l-8.25,10.971l-8.65,10.62l-7.15,8.46l2.881,17.449
		l1.659,19.091l0.62,19.08l0.09,19.09H370.6z"/>
</g>
<g id="Layer_2">
	<path fill-rule="evenodd" clip-rule="evenodd" fill="#E3E3E3" d="M113.17,188.54h-1.37v-5.17c-0.5,0.47-1.09,0.819-1.78,1.04v-1.24
		c0.36-0.119,0.75-0.34,1.17-0.67s0.71-0.71,0.87-1.149h1.11V188.54z"/>
	<path fill-rule="evenodd" clip-rule="evenodd" fill="#E3E3E3" d="M99.89,120.29v1.28h-4.81c0.06-0.48,0.21-0.94,0.47-1.37
		c0.26-0.43,0.78-1,1.54-1.72c0.62-0.57,1-0.96,1.14-1.171c0.19-0.279,0.29-0.56,0.29-0.839c0-0.311-0.09-0.54-0.25-0.711
		c-0.17-0.159-0.39-0.239-0.68-0.239s-0.52,0.08-0.69,0.26c-0.16,0.17-0.26,0.46-0.29,0.859l-1.37-0.14
		c0.09-0.76,0.34-1.3,0.77-1.63c0.43-0.319,0.97-0.49,1.61-0.49c0.71,0,1.26,0.19,1.67,0.57c0.4,0.38,0.6,0.859,0.6,1.42
		c0,0.33-0.06,0.63-0.17,0.92c-0.12,0.29-0.3,0.6-0.55,0.92c-0.17,0.21-0.47,0.511-0.9,0.91c-0.43,0.4-0.71,0.66-0.82,0.79
		c-0.12,0.13-0.21,0.26-0.28,0.38H99.89z"/>
	<path fill-rule="evenodd" clip-rule="evenodd" fill="#E3E3E3" d="M128.36,121.84l1.33-0.159c0.04,0.34,0.15,0.6,0.34,0.779
		c0.19,0.18,0.41,0.271,0.67,0.271c0.29,0,0.53-0.11,0.72-0.33c0.19-0.211,0.29-0.5,0.29-0.87c0-0.341-0.09-0.61-0.28-0.82
		c-0.18-0.2-0.41-0.3-0.68-0.3c-0.17,0-0.38,0.04-0.63,0.1l0.15-1.109c0.38,0.01,0.66-0.07,0.85-0.25c0.2-0.17,0.3-0.391,0.3-0.68
		c0-0.24-0.07-0.431-0.22-0.57c-0.14-0.15-0.33-0.22-0.57-0.22c-0.23,0-0.43,0.079-0.6,0.25c-0.17,0.159-0.27,0.399-0.3,0.709
		l-1.27-0.22c0.09-0.43,0.22-0.77,0.4-1.03c0.18-0.26,0.43-0.47,0.74-0.609c0.32-0.15,0.68-0.229,1.07-0.229
		c0.67,0,1.21,0.22,1.62,0.649c0.34,0.351,0.5,0.75,0.5,1.189c0,0.631-0.34,1.131-1.03,1.5c0.41,0.091,0.74,0.291,0.99,0.601
		c0.24,0.3,0.37,0.67,0.37,1.1c0,0.631-0.23,1.17-0.69,1.61c-0.46,0.439-1.03,0.66-1.72,0.66c-0.64,0-1.18-0.18-1.61-0.551
		C128.68,122.931,128.43,122.439,128.36,121.84z"/>
	<path fill-rule="evenodd" clip-rule="evenodd" d="M60.82,95.69v-1.44h-2.93v-1.2L61,88.5h1.15v4.55h0.89v1.2h-0.89v1.44H60.82z
		 M60.82,93.05V90.6l-1.64,2.45H60.82z"/>
	<path fill-rule="evenodd" clip-rule="evenodd" d="M87.78,73.98l1.37-0.14c0.03,0.3,0.15,0.55,0.34,0.73
		c0.19,0.18,0.42,0.27,0.67,0.27c0.28,0,0.53-0.12,0.72-0.35c0.2-0.23,0.3-0.58,0.3-1.05c0-0.44-0.1-0.77-0.29-0.99
		c-0.2-0.22-0.46-0.33-0.77-0.33c-0.4,0-0.75,0.18-1.06,0.52l-1.12-0.16l0.71-3.72h3.63v1.28h-2.59l-0.22,1.22
		c0.31-0.16,0.62-0.23,0.94-0.23c0.61,0,1.12,0.22,1.55,0.66c0.42,0.44,0.63,1.02,0.63,1.73c0,0.58-0.17,1.11-0.51,1.57
		c-0.47,0.63-1.11,0.95-1.94,0.95c-0.66,0-1.2-0.18-1.61-0.53C88.11,75.05,87.86,74.58,87.78,73.98z"/>
	<path fill-rule="evenodd" clip-rule="evenodd" d="M147.91,73.41l-1.33,0.15c-0.03-0.27-0.12-0.48-0.25-0.61
		c-0.14-0.13-0.32-0.19-0.54-0.19c-0.29,0-0.53,0.13-0.73,0.39c-0.2,0.26-0.33,0.8-0.38,1.63c0.34-0.41,0.77-0.61,1.27-0.61
		c0.58,0,1.07,0.22,1.48,0.65c0.4,0.44,0.61,1,0.61,1.69c0,0.74-0.22,1.32-0.65,1.77c-0.43,0.44-0.98,0.66-1.65,0.66
		c-0.72,0-1.32-0.28-1.78-0.84c-0.47-0.56-0.7-1.48-0.7-2.76c0-1.32,0.24-2.26,0.73-2.84c0.48-0.58,1.11-0.87,1.89-0.87
		c0.54,0,0.99,0.15,1.35,0.46C147.58,72.39,147.81,72.83,147.91,73.41z M144.8,76.41c0,0.44,0.1,0.79,0.3,1.03
		c0.21,0.24,0.44,0.36,0.71,0.36c0.25,0,0.46-0.1,0.63-0.3c0.17-0.19,0.26-0.52,0.26-0.97c0-0.47-0.09-0.81-0.28-1.02
		c-0.18-0.22-0.41-0.33-0.68-0.33c-0.26,0-0.49,0.1-0.67,0.31C144.89,75.7,144.8,76,144.8,76.41z"/>
	<path fill-rule="evenodd" clip-rule="evenodd" d="M166.51,99.66v-1.28h4.689v1c-0.39,0.38-0.78,0.93-1.18,1.64
		c-0.4,0.71-0.71,1.47-0.92,2.27c-0.21,0.8-0.31,1.52-0.31,2.15h-1.32c0.02-0.99,0.229-2,0.609-3.03c0.391-1.02,0.9-1.94,1.551-2.75
		H166.51z"/>
	<path fill-rule="evenodd" clip-rule="evenodd" d="M29.69,83.96c-0.36-0.15-0.62-0.36-0.78-0.62c-0.16-0.26-0.24-0.55-0.24-0.86
		c0-0.54,0.19-0.98,0.56-1.33c0.37-0.35,0.9-0.52,1.59-0.52c0.68,0,1.21,0.17,1.58,0.52c0.38,0.35,0.57,0.79,0.57,1.33
		c0,0.33-0.09,0.62-0.26,0.88c-0.17,0.26-0.42,0.46-0.73,0.6c0.4,0.16,0.7,0.39,0.91,0.69c0.2,0.31,0.31,0.66,0.31,1.06
		c0,0.66-0.21,1.2-0.64,1.61c-0.42,0.42-0.98,0.62-1.68,0.62c-0.65,0-1.19-0.17-1.62-0.51c-0.52-0.4-0.77-0.95-0.77-1.66
		c0-0.39,0.1-0.74,0.29-1.06C28.97,84.38,29.27,84.13,29.69,83.96z M29.97,82.57c0,0.28,0.08,0.49,0.23,0.64
		c0.16,0.16,0.36,0.23,0.62,0.23c0.26,0,0.47-0.07,0.62-0.23c0.16-0.15,0.24-0.37,0.24-0.64c0-0.26-0.08-0.46-0.23-0.62
		c-0.16-0.15-0.36-0.23-0.62-0.23c-0.26,0-0.47,0.08-0.63,0.23C30.05,82.11,29.97,82.32,29.97,82.57z M29.84,85.64
		c0,0.38,0.1,0.67,0.29,0.88c0.2,0.22,0.44,0.32,0.73,0.32c0.28,0,0.52-0.1,0.7-0.3c0.19-0.21,0.28-0.5,0.28-0.89
		c0-0.33-0.1-0.6-0.28-0.8c-0.19-0.21-0.43-0.31-0.72-0.31c-0.34,0-0.59,0.12-0.75,0.35C29.92,85.12,29.84,85.37,29.84,85.64z"/>
	<path fill-rule="evenodd" clip-rule="evenodd" d="M32.29,64.79l1.33-0.15c0.03,0.27,0.11,0.47,0.25,0.6
		c0.14,0.13,0.32,0.2,0.54,0.2c0.29,0,0.53-0.13,0.72-0.39c0.2-0.26,0.33-0.81,0.39-1.63c-0.35,0.4-0.78,0.6-1.3,0.61
		c-0.56-0.01-1.05-0.22-1.46-0.66c-0.4-0.43-0.61-1-0.61-1.69c0-0.73,0.22-1.31,0.65-1.76c0.43-0.44,0.98-0.67,1.65-0.67
		c0.72,0,1.32,0.29,1.78,0.85c0.47,0.56,0.7,1.48,0.7,2.77c0,1.31-0.24,2.25-0.73,2.83c-0.48,0.58-1.11,0.87-1.89,0.87
		c-0.56,0-1.01-0.15-1.36-0.45C32.61,65.82,32.39,65.38,32.29,64.79z M35.39,61.79c0-0.44-0.1-0.79-0.3-1.03
		c-0.21-0.25-0.44-0.37-0.71-0.37c-0.25,0-0.46,0.1-0.63,0.3c-0.17,0.2-0.25,0.53-0.25,0.99s0.09,0.8,0.27,1.01
		c0.18,0.22,0.41,0.33,0.69,0.33c0.26,0,0.48-0.1,0.66-0.31C35.3,62.5,35.39,62.19,35.39,61.79z"/>
	<path fill-rule="evenodd" clip-rule="evenodd" d="M66.9,49.19h-1.38v-5.17c-0.5,0.47-1.09,0.82-1.77,1.04v-1.24
		c0.36-0.12,0.75-0.34,1.17-0.67c0.42-0.33,0.71-0.71,0.86-1.15h1.12V49.19z"/>
	<path fill-rule="evenodd" clip-rule="evenodd" d="M71.27,42c0.69,0,1.23,0.25,1.62,0.75c0.47,0.58,0.7,1.55,0.7,2.91
		s-0.23,2.33-0.7,2.92c-0.39,0.49-0.93,0.73-1.62,0.73c-0.7,0-1.26-0.26-1.69-0.8c-0.42-0.53-0.64-1.49-0.64-2.86
		c0-1.35,0.24-2.32,0.71-2.91C70.03,42.25,70.57,42,71.27,42z M71.27,43.14c-0.17,0-0.32,0.06-0.45,0.16
		c-0.13,0.11-0.23,0.3-0.3,0.57c-0.1,0.35-0.14,0.95-0.14,1.79s0.04,1.42,0.12,1.73c0.09,0.32,0.2,0.53,0.32,0.63
		c0.13,0.1,0.28,0.16,0.45,0.16c0.16,0,0.31-0.06,0.44-0.16c0.13-0.11,0.23-0.3,0.3-0.57c0.1-0.35,0.14-0.95,0.14-1.79
		s-0.04-1.41-0.12-1.73c-0.09-0.31-0.19-0.52-0.32-0.63C71.58,43.2,71.43,43.14,71.27,43.14z"/>
	<path fill-rule="evenodd" clip-rule="evenodd" d="M97.27,49.57H95.9V44.4c-0.51,0.47-1.1,0.81-1.78,1.04v-1.25
		c0.36-0.11,0.75-0.34,1.17-0.66c0.42-0.33,0.71-0.71,0.86-1.15h1.12V49.57z"/>
	<path fill-rule="evenodd" clip-rule="evenodd" d="M102.28,49.57h-1.37V44.4c-0.5,0.47-1.1,0.81-1.78,1.04v-1.25
		c0.36-0.11,0.75-0.34,1.17-0.66c0.42-0.33,0.71-0.71,0.87-1.15h1.11V49.57z"/>
	<path fill-rule="evenodd" clip-rule="evenodd" d="M139.27,52.19h-1.37v-5.17c-0.5,0.47-1.09,0.82-1.78,1.04v-1.24
		c0.36-0.12,0.75-0.34,1.17-0.67c0.42-0.33,0.71-0.71,0.87-1.14h1.11V52.19z"/>
	<path fill-rule="evenodd" clip-rule="evenodd" d="M145.95,50.92v1.27h-4.8c0.05-0.48,0.2-0.93,0.46-1.37
		c0.26-0.43,0.78-1,1.55-1.71c0.62-0.58,0.99-0.97,1.13-1.17c0.19-0.29,0.29-0.57,0.29-0.84c0-0.31-0.08-0.54-0.25-0.71
		c-0.16-0.16-0.39-0.25-0.68-0.25s-0.51,0.09-0.68,0.26c-0.17,0.18-0.27,0.46-0.3,0.86l-1.36-0.13c0.08-0.76,0.33-1.3,0.76-1.63
		c0.43-0.33,0.97-0.49,1.61-0.49c0.71,0,1.27,0.19,1.67,0.57s0.6,0.85,0.6,1.42c0,0.32-0.05,0.63-0.17,0.92
		c-0.11,0.29-0.3,0.6-0.55,0.91c-0.16,0.22-0.46,0.52-0.9,0.92c-0.43,0.39-0.7,0.66-0.82,0.79c-0.11,0.13-0.21,0.26-0.28,0.38
		H145.95z"/>
	<path fill-rule="evenodd" clip-rule="evenodd" d="M167.77,58.57h-1.37V53.4c-0.51,0.47-1.101,0.81-1.78,1.04v-1.25
		c0.36-0.11,0.75-0.34,1.171-0.66c0.42-0.33,0.709-0.71,0.859-1.15h1.12V58.57z"/>
	<path fill-rule="evenodd" clip-rule="evenodd" d="M169.77,56.67l1.33-0.16c0.04,0.34,0.149,0.59,0.34,0.77
		c0.19,0.18,0.41,0.27,0.67,0.27c0.29,0,0.53-0.11,0.72-0.32c0.19-0.21,0.29-0.5,0.29-0.87c0-0.34-0.09-0.62-0.279-0.82
		c-0.18-0.2-0.41-0.3-0.68-0.3c-0.171,0-0.381,0.03-0.631,0.1l0.15-1.12c0.38,0.01,0.66-0.07,0.85-0.24c0.2-0.17,0.3-0.4,0.3-0.68
		c0-0.24-0.069-0.43-0.22-0.58c-0.14-0.14-0.33-0.21-0.569-0.21c-0.23,0-0.431,0.08-0.601,0.24c-0.17,0.17-0.271,0.4-0.3,0.72
		l-1.271-0.22c0.091-0.43,0.221-0.78,0.4-1.04c0.18-0.26,0.43-0.46,0.74-0.61c0.319-0.15,0.68-0.22,1.069-0.22
		c0.67,0,1.211,0.22,1.62,0.65c0.341,0.35,0.5,0.74,0.5,1.19c0,0.62-0.34,1.13-1.03,1.5c0.41,0.09,0.741,0.29,0.991,0.59
		c0.239,0.31,0.369,0.68,0.369,1.11c0,0.63-0.23,1.16-0.689,1.61c-0.46,0.44-1.03,0.66-1.721,0.66c-0.64,0-1.18-0.19-1.609-0.56
		C170.09,57.76,169.84,57.27,169.77,56.67z"/>
	<path fill-rule="evenodd" clip-rule="evenodd" d="M186.52,74.69h-1.37v-5.17c-0.5,0.47-1.09,0.82-1.78,1.04v-1.24
		c0.36-0.12,0.75-0.34,1.171-0.67c0.42-0.33,0.709-0.71,0.87-1.14h1.109V74.69z"/>
	<path fill-rule="evenodd" clip-rule="evenodd" d="M191.26,74.69v-1.44h-2.931v-1.2l3.11-4.54h1.15v4.54h0.89v1.2h-0.89v1.44H191.26
		z M191.26,72.05V69.6l-1.641,2.45H191.26z"/>
	<path fill-rule="evenodd" clip-rule="evenodd" d="M198.52,101.69h-1.37v-5.17c-0.5,0.47-1.09,0.82-1.78,1.04v-1.24
		c0.36-0.12,0.75-0.34,1.171-0.67c0.42-0.33,0.709-0.71,0.87-1.15h1.109V101.69z"/>
	<path fill-rule="evenodd" clip-rule="evenodd" d="M200.59,99.85l1.37-0.14c0.039,0.31,0.149,0.55,0.339,0.73
		c0.2,0.19,0.421,0.28,0.671,0.28c0.279,0,0.529-0.12,0.729-0.35c0.19-0.24,0.29-0.59,0.29-1.06c0-0.44-0.09-0.76-0.29-0.98
		c-0.2-0.22-0.46-0.33-0.77-0.33c-0.39,0-0.75,0.17-1.061,0.52l-1.109-0.16l0.7-3.73h3.63v1.29H202.5l-0.22,1.21
		c0.311-0.15,0.62-0.23,0.94-0.23c0.609,0,1.13,0.22,1.55,0.67c0.42,0.44,0.63,1.01,0.63,1.72c0,0.59-0.17,1.11-0.51,1.58
		c-0.46,0.63-1.11,0.94-1.94,0.94c-0.659,0-1.2-0.17-1.609-0.53C200.919,100.93,200.669,100.45,200.59,99.85z"/>
	<path fill-rule="evenodd" clip-rule="evenodd" d="M5.4,101.69H4.02v-5.17c-0.5,0.47-1.09,0.82-1.77,1.04v-1.24
		C2.61,96.2,3,95.98,3.42,95.65c0.42-0.33,0.71-0.71,0.86-1.15H5.4V101.69z"/>
	<path fill-rule="evenodd" clip-rule="evenodd" d="M12.1,96.29l-1.33,0.14c-0.04-0.27-0.12-0.47-0.26-0.6
		c-0.13-0.13-0.31-0.2-0.53-0.2c-0.29,0-0.53,0.13-0.73,0.39c-0.2,0.26-0.33,0.81-0.38,1.63c0.34-0.4,0.76-0.61,1.27-0.61
		c0.57,0,1.07,0.22,1.47,0.66c0.41,0.43,0.62,1,0.62,1.69c0,0.73-0.22,1.32-0.65,1.76c-0.43,0.44-0.98,0.66-1.65,0.66
		c-0.73,0-1.32-0.28-1.78-0.84c-0.47-0.56-0.7-1.48-0.7-2.76c0-1.31,0.24-2.26,0.72-2.84c0.49-0.58,1.12-0.87,1.89-0.87
		c0.55,0,1,0.16,1.35,0.46C11.77,95.27,12,95.71,12.1,96.29z M8.98,99.28c0,0.45,0.11,0.79,0.31,1.03c0.21,0.25,0.44,0.37,0.71,0.37
		c0.25,0,0.46-0.1,0.63-0.3c0.17-0.2,0.25-0.53,0.25-0.98c0-0.46-0.09-0.8-0.27-1.02c-0.18-0.22-0.41-0.33-0.68-0.33
		s-0.49,0.11-0.67,0.31C9.08,98.57,8.98,98.88,8.98,99.28z"/>
	<path fill-rule="evenodd" clip-rule="evenodd" d="M3.15,63.44H1.77v-5.17c-0.5,0.47-1.09,0.82-1.77,1.04v-1.24
		c0.36-0.12,0.75-0.34,1.17-0.67c0.42-0.33,0.71-0.71,0.86-1.14h1.12V63.44z"/>
	<path fill-rule="evenodd" clip-rule="evenodd" d="M5.2,57.66v-1.28h4.69v1c-0.39,0.38-0.78,0.93-1.18,1.64S8,60.49,7.79,61.29
		c-0.21,0.81-0.31,1.52-0.31,2.15H6.16c0.02-0.99,0.23-1.99,0.61-3.02c0.39-1.03,0.9-1.95,1.55-2.76H5.2z"/>
	<path fill-rule="evenodd" clip-rule="evenodd" d="M14.77,38.32H13.4v-5.17c-0.5,0.46-1.09,0.81-1.78,1.04v-1.25
		c0.36-0.12,0.75-0.34,1.17-0.67c0.42-0.32,0.71-0.71,0.87-1.14h1.11V38.32z"/>
	<path fill-rule="evenodd" clip-rule="evenodd" d="M18,34.45c-0.36-0.15-0.62-0.35-0.78-0.61c-0.16-0.27-0.24-0.55-0.24-0.87
		c0-0.53,0.19-0.97,0.56-1.32c0.37-0.35,0.9-0.52,1.59-0.52c0.68,0,1.21,0.17,1.58,0.52c0.38,0.35,0.57,0.79,0.57,1.32
		c0,0.34-0.09,0.63-0.26,0.89c-0.17,0.26-0.42,0.46-0.73,0.59c0.4,0.16,0.7,0.4,0.91,0.7c0.2,0.31,0.31,0.66,0.31,1.06
		c0,0.66-0.21,1.2-0.63,1.61c-0.43,0.42-0.99,0.62-1.69,0.62c-0.65,0-1.19-0.17-1.62-0.51c-0.51-0.4-0.77-0.96-0.77-1.66
		c0-0.39,0.1-0.74,0.29-1.07C17.28,34.88,17.58,34.63,18,34.45z M18.28,33.07c0,0.28,0.08,0.49,0.23,0.64
		c0.16,0.15,0.36,0.23,0.62,0.23c0.26,0,0.47-0.08,0.63-0.23c0.15-0.16,0.23-0.37,0.23-0.64c0-0.26-0.08-0.47-0.23-0.62
		c-0.16-0.16-0.36-0.23-0.62-0.23c-0.26,0-0.47,0.08-0.62,0.23C18.36,32.61,18.28,32.81,18.28,33.07z M18.15,36.14
		c0,0.38,0.1,0.67,0.29,0.88c0.2,0.21,0.44,0.32,0.73,0.32c0.28,0,0.52-0.1,0.7-0.31c0.19-0.2,0.28-0.49,0.28-0.88
		c0-0.33-0.09-0.6-0.28-0.81c-0.19-0.2-0.43-0.3-0.72-0.3c-0.34,0-0.59,0.12-0.75,0.35S18.15,35.87,18.15,36.14z"/>
	<path fill-rule="evenodd" clip-rule="evenodd" d="M32.4,28.57h-1.38V23.4c-0.5,0.47-1.09,0.81-1.77,1.04v-1.25
		c0.36-0.11,0.75-0.34,1.17-0.66c0.42-0.33,0.71-0.71,0.86-1.15h1.12V28.57z"/>
	<path fill-rule="evenodd" clip-rule="evenodd" d="M34.48,26.91l1.32-0.14c0.04,0.27,0.12,0.47,0.26,0.6
		c0.13,0.13,0.32,0.19,0.54,0.19c0.28,0,0.52-0.13,0.72-0.39c0.2-0.26,0.33-0.8,0.38-1.62c-0.34,0.4-0.77,0.6-1.29,0.6
		c-0.56,0-1.05-0.22-1.46-0.65c-0.41-0.44-0.61-1-0.61-1.7c0-0.72,0.21-1.31,0.65-1.75c0.43-0.45,0.98-0.67,1.64-0.67
		c0.73,0,1.33,0.28,1.79,0.84c0.47,0.56,0.7,1.49,0.7,2.77c0,1.31-0.24,2.26-0.73,2.84c-0.48,0.58-1.11,0.86-1.89,0.86
		c-0.56,0-1.01-0.14-1.36-0.44C34.8,27.95,34.57,27.51,34.48,26.91z M37.58,23.91c0-0.44-0.1-0.78-0.3-1.03
		c-0.21-0.24-0.44-0.36-0.71-0.36c-0.25,0-0.46,0.1-0.63,0.3c-0.17,0.2-0.25,0.53-0.25,0.98c0,0.46,0.09,0.8,0.27,1.02
		c0.18,0.22,0.41,0.33,0.68,0.33s0.49-0.11,0.67-0.32C37.49,24.62,37.58,24.32,37.58,23.91z"/>
	<path fill-rule="evenodd" clip-rule="evenodd" d="M50.39,16.79v1.28h-4.81c0.06-0.48,0.21-0.94,0.47-1.37
		c0.26-0.43,0.78-1,1.54-1.72c0.62-0.57,1-0.96,1.14-1.17c0.19-0.28,0.29-0.56,0.29-0.84c0-0.31-0.09-0.54-0.25-0.71
		c-0.17-0.16-0.39-0.24-0.68-0.24s-0.52,0.08-0.69,0.26c-0.16,0.17-0.26,0.46-0.29,0.86L45.74,13c0.09-0.76,0.34-1.3,0.77-1.63
		c0.43-0.32,0.97-0.49,1.61-0.49c0.71,0,1.26,0.19,1.67,0.57c0.4,0.38,0.6,0.86,0.6,1.42c0,0.33-0.06,0.63-0.17,0.92
		c-0.12,0.29-0.3,0.6-0.55,0.92c-0.17,0.21-0.47,0.51-0.9,0.91s-0.71,0.66-0.82,0.79c-0.12,0.13-0.21,0.26-0.28,0.38H50.39z"/>
	<path fill-rule="evenodd" clip-rule="evenodd" d="M53.64,10.88c0.69,0,1.24,0.25,1.63,0.74c0.46,0.59,0.69,1.56,0.69,2.92
		c0,1.35-0.23,2.33-0.7,2.92c-0.39,0.49-0.93,0.73-1.62,0.73c-0.7,0-1.26-0.27-1.68-0.8c-0.43-0.54-0.64-1.49-0.64-2.87
		c0-1.34,0.23-2.31,0.7-2.91C52.41,11.12,52.95,10.88,53.64,10.88z M53.64,12.02c-0.17,0-0.31,0.05-0.44,0.16
		c-0.13,0.1-0.24,0.29-0.31,0.57c-0.09,0.35-0.14,0.95-0.14,1.79s0.04,1.41,0.13,1.73c0.08,0.31,0.19,0.52,0.32,0.63
		c0.13,0.1,0.27,0.15,0.44,0.15s0.31-0.05,0.44-0.16c0.13-0.1,0.24-0.29,0.31-0.57c0.09-0.35,0.14-0.94,0.14-1.78
		s-0.04-1.42-0.13-1.73c-0.08-0.32-0.19-0.53-0.32-0.63C53.95,12.07,53.81,12.02,53.64,12.02z"/>
	<path fill-rule="evenodd" clip-rule="evenodd" d="M68.39,5.92v1.27h-4.81c0.06-0.48,0.21-0.94,0.47-1.37
		c0.26-0.43,0.78-1,1.54-1.71c0.62-0.58,1-0.97,1.14-1.18c0.19-0.28,0.29-0.56,0.29-0.84c0-0.3-0.09-0.54-0.25-0.7
		c-0.17-0.17-0.39-0.25-0.68-0.25S65.57,1.23,65.4,1.4c-0.16,0.17-0.26,0.46-0.29,0.86l-1.37-0.14c0.09-0.75,0.34-1.29,0.77-1.62
		C64.94,0.17,65.48,0,66.12,0c0.71,0,1.26,0.2,1.67,0.58c0.4,0.38,0.6,0.85,0.6,1.42c0,0.32-0.06,0.63-0.17,0.92
		c-0.12,0.29-0.3,0.59-0.55,0.91c-0.17,0.21-0.47,0.52-0.9,0.92c-0.43,0.39-0.71,0.66-0.82,0.79c-0.12,0.13-0.21,0.25-0.28,0.38
		H68.39z"/>
	<path fill-rule="evenodd" clip-rule="evenodd" d="M72.83,7.19h-1.37V2.02c-0.5,0.47-1.09,0.82-1.77,1.04V1.82
		c0.35-0.12,0.74-0.34,1.16-0.67c0.42-0.33,0.71-0.71,0.87-1.15h1.11V7.19z"/>
	<path fill-rule="evenodd" clip-rule="evenodd" d="M96.89,5.92v1.27h-4.81c0.06-0.48,0.21-0.94,0.47-1.37
		c0.26-0.43,0.78-1,1.54-1.71c0.62-0.58,1-0.97,1.14-1.18c0.19-0.28,0.29-0.56,0.29-0.84c0-0.3-0.09-0.54-0.25-0.7
		c-0.17-0.17-0.39-0.25-0.68-0.25S94.07,1.23,93.9,1.4c-0.16,0.17-0.26,0.46-0.29,0.86l-1.37-0.14c0.09-0.75,0.34-1.29,0.77-1.62
		C93.44,0.17,93.98,0,94.62,0c0.71,0,1.26,0.2,1.67,0.58c0.4,0.38,0.6,0.85,0.6,1.42c0,0.32-0.06,0.63-0.17,0.92
		c-0.12,0.29-0.3,0.59-0.55,0.91C96,4.04,95.7,4.35,95.27,4.75c-0.43,0.39-0.71,0.66-0.82,0.79c-0.12,0.13-0.21,0.25-0.28,0.38
		H96.89z"/>
	<path fill-rule="evenodd" clip-rule="evenodd" d="M102.45,5.92v1.27h-4.8c0.05-0.48,0.2-0.94,0.46-1.37c0.26-0.43,0.78-1,1.55-1.71
		c0.62-0.58,0.99-0.97,1.13-1.18c0.19-0.28,0.29-0.56,0.29-0.84c0-0.3-0.08-0.54-0.25-0.7c-0.16-0.17-0.39-0.25-0.68-0.25
		s-0.51,0.09-0.68,0.26c-0.17,0.17-0.27,0.46-0.3,0.86l-1.36-0.14c0.08-0.75,0.33-1.29,0.76-1.62C99,0.17,99.54,0,100.18,0
		c0.71,0,1.27,0.2,1.67,0.58s0.6,0.85,0.6,1.42c0,0.32-0.05,0.63-0.17,0.92c-0.11,0.29-0.3,0.59-0.55,0.91
		c-0.16,0.21-0.46,0.52-0.9,0.92c-0.43,0.39-0.7,0.66-0.82,0.79c-0.11,0.13-0.21,0.25-0.28,0.38H102.45z"/>
	<path fill-rule="evenodd" clip-rule="evenodd" d="M112.64,16.79v1.28h-4.81c0.06-0.48,0.21-0.94,0.47-1.37
		c0.26-0.43,0.78-1,1.54-1.72c0.62-0.57,1-0.96,1.14-1.17c0.19-0.28,0.29-0.56,0.29-0.84c0-0.31-0.09-0.54-0.25-0.71
		c-0.17-0.16-0.39-0.24-0.68-0.24s-0.52,0.08-0.69,0.26c-0.16,0.17-0.26,0.46-0.29,0.86L107.99,13c0.09-0.76,0.34-1.3,0.77-1.63
		c0.43-0.32,0.97-0.49,1.61-0.49c0.71,0,1.26,0.19,1.67,0.57c0.4,0.38,0.6,0.86,0.6,1.42c0,0.33-0.06,0.63-0.17,0.92
		c-0.12,0.29-0.3,0.6-0.55,0.92c-0.17,0.21-0.47,0.51-0.9,0.91s-0.71,0.66-0.82,0.79c-0.12,0.13-0.21,0.26-0.28,0.38H112.64z"/>
	<path fill-rule="evenodd" clip-rule="evenodd" d="M113.52,16.17l1.33-0.16c0.04,0.34,0.16,0.59,0.34,0.77
		c0.19,0.18,0.41,0.27,0.68,0.27c0.28,0,0.52-0.11,0.71-0.32s0.29-0.5,0.29-0.87c0-0.34-0.09-0.62-0.28-0.82
		c-0.18-0.2-0.41-0.3-0.68-0.3c-0.17,0-0.38,0.03-0.63,0.1l0.16-1.12c0.37,0.01,0.65-0.07,0.85-0.24c0.19-0.17,0.29-0.4,0.29-0.68
		c0-0.24-0.07-0.43-0.22-0.58c-0.14-0.14-0.33-0.21-0.57-0.21c-0.23,0-0.43,0.08-0.6,0.24c-0.16,0.17-0.27,0.4-0.3,0.72l-1.27-0.22
		c0.09-0.43,0.23-0.78,0.4-1.04c0.18-0.26,0.43-0.46,0.74-0.61c0.32-0.15,0.68-0.22,1.07-0.22c0.68,0,1.22,0.22,1.62,0.65
		c0.34,0.35,0.51,0.74,0.51,1.19c0,0.62-0.35,1.13-1.03,1.5c0.41,0.09,0.73,0.29,0.98,0.59c0.24,0.31,0.37,0.68,0.37,1.11
		c0,0.63-0.23,1.16-0.69,1.61c-0.46,0.44-1.03,0.66-1.71,0.66c-0.65,0-1.19-0.19-1.62-0.56C113.84,17.26,113.59,16.77,113.52,16.17z
		"/>
	<path fill-rule="evenodd" clip-rule="evenodd" d="M128.39,17.17v1.27h-4.81c0.06-0.48,0.21-0.94,0.47-1.37
		c0.26-0.43,0.78-1,1.54-1.71c0.62-0.58,1-0.97,1.14-1.18c0.19-0.28,0.29-0.56,0.29-0.84c0-0.3-0.09-0.54-0.25-0.7
		c-0.17-0.17-0.39-0.25-0.68-0.25s-0.52,0.09-0.69,0.26c-0.16,0.17-0.26,0.46-0.29,0.86l-1.37-0.14c0.09-0.75,0.34-1.29,0.77-1.62
		c0.43-0.33,0.97-0.5,1.61-0.5c0.71,0,1.26,0.2,1.67,0.58c0.4,0.38,0.6,0.85,0.6,1.42c0,0.32-0.06,0.63-0.17,0.92
		c-0.12,0.29-0.3,0.59-0.55,0.91c-0.17,0.21-0.47,0.52-0.9,0.92c-0.43,0.39-0.71,0.66-0.82,0.79c-0.12,0.13-0.21,0.25-0.28,0.38
		H128.39z"/>
	<path fill-rule="evenodd" clip-rule="evenodd" d="M132.01,18.44V17h-2.93v-1.2l3.11-4.55h1.15v4.55h0.89V17h-0.89v1.44H132.01z
		 M132.01,15.8v-2.45l-1.64,2.45H132.01z"/>
	<path fill-rule="evenodd" clip-rule="evenodd" d="M146.39,10.04v1.28h-4.81c0.06-0.48,0.21-0.94,0.47-1.37
		c0.26-0.43,0.78-1,1.54-1.72c0.62-0.57,1-0.96,1.14-1.17c0.19-0.28,0.29-0.56,0.29-0.84c0-0.31-0.09-0.54-0.25-0.71
		c-0.17-0.16-0.39-0.24-0.68-0.24s-0.52,0.08-0.69,0.26c-0.16,0.17-0.26,0.46-0.29,0.86l-1.37-0.14c0.09-0.76,0.34-1.3,0.77-1.63
		c0.43-0.32,0.97-0.49,1.61-0.49c0.71,0,1.26,0.19,1.67,0.57c0.4,0.38,0.6,0.86,0.6,1.42c0,0.33-0.06,0.63-0.17,0.92
		c-0.12,0.29-0.3,0.6-0.55,0.92c-0.17,0.21-0.47,0.51-0.9,0.91s-0.71,0.66-0.82,0.79c-0.12,0.13-0.21,0.26-0.28,0.38H146.39z"/>
	<path fill-rule="evenodd" clip-rule="evenodd" d="M147.34,9.48l1.37-0.14c0.04,0.3,0.15,0.55,0.34,0.73
		c0.2,0.18,0.42,0.27,0.67,0.27c0.28,0,0.53-0.12,0.73-0.35c0.19-0.23,0.29-0.58,0.29-1.05c0-0.44-0.09-0.77-0.29-0.99
		c-0.2-0.22-0.46-0.33-0.77-0.33c-0.39,0-0.75,0.18-1.06,0.52l-1.11-0.16l0.7-3.72h3.63v1.28h-2.59l-0.22,1.22
		c0.31-0.16,0.62-0.23,0.94-0.23c0.61,0,1.13,0.22,1.55,0.66s0.63,1.02,0.63,1.73c0,0.58-0.17,1.11-0.51,1.57
		c-0.46,0.63-1.11,0.95-1.94,0.95c-0.66,0-1.2-0.18-1.61-0.53C147.67,10.55,147.42,10.08,147.34,9.48z"/>
	<path fill-rule="evenodd" clip-rule="evenodd" d="M174.52,14.92v1.27h-4.81c0.05-0.48,0.209-0.94,0.47-1.37
		c0.26-0.43,0.77-1,1.54-1.71c0.62-0.58,1-0.97,1.14-1.18c0.189-0.28,0.28-0.56,0.28-0.84c0-0.3-0.08-0.54-0.25-0.7
		c-0.16-0.17-0.391-0.25-0.68-0.25c-0.28,0-0.511,0.09-0.681,0.26c-0.17,0.17-0.27,0.46-0.29,0.86l-1.37-0.14
		c0.08-0.75,0.341-1.29,0.771-1.62S171.6,9,172.25,9c0.7,0,1.261,0.2,1.661,0.58c0.409,0.38,0.609,0.85,0.609,1.42
		c0,0.32-0.06,0.63-0.17,0.92c-0.12,0.29-0.301,0.59-0.551,0.91c-0.169,0.21-0.47,0.52-0.899,0.92c-0.439,0.39-0.71,0.66-0.83,0.79
		c-0.109,0.13-0.2,0.25-0.279,0.38H174.52z"/>
	<path fill-rule="evenodd" clip-rule="evenodd" d="M180.1,10.79l-1.33,0.14c-0.04-0.27-0.12-0.47-0.26-0.6
		c-0.13-0.13-0.311-0.2-0.53-0.2c-0.29,0-0.53,0.13-0.73,0.39c-0.2,0.26-0.33,0.81-0.38,1.63c0.341-0.4,0.761-0.61,1.271-0.61
		c0.57,0,1.07,0.22,1.47,0.66c0.41,0.43,0.62,1,0.62,1.69c0,0.73-0.22,1.32-0.65,1.76c-0.43,0.44-0.979,0.66-1.649,0.66
		c-0.73,0-1.32-0.28-1.78-0.84c-0.47-0.56-0.7-1.48-0.7-2.76c0-1.31,0.24-2.26,0.72-2.84C176.661,9.29,177.291,9,178.06,9
		c0.55,0,1,0.16,1.351,0.46C179.77,9.77,180,10.21,180.1,10.79z M176.98,13.78c0,0.45,0.11,0.79,0.311,1.03
		c0.209,0.25,0.439,0.37,0.709,0.37c0.25,0,0.461-0.1,0.631-0.3c0.169-0.2,0.25-0.53,0.25-0.98c0-0.46-0.09-0.8-0.271-1.02
		c-0.18-0.22-0.41-0.33-0.68-0.33s-0.49,0.11-0.67,0.31C177.08,13.07,176.98,13.38,176.98,13.78z"/>
	<path fill-rule="evenodd" clip-rule="evenodd" d="M191.02,28.42v1.27h-4.81c0.05-0.48,0.209-0.94,0.47-1.37
		c0.26-0.43,0.77-1,1.54-1.71c0.62-0.58,1-0.97,1.14-1.18c0.189-0.28,0.28-0.56,0.28-0.84c0-0.3-0.08-0.54-0.25-0.7
		c-0.16-0.17-0.391-0.25-0.68-0.25c-0.28,0-0.511,0.09-0.681,0.26c-0.17,0.17-0.27,0.46-0.29,0.86l-1.37-0.14
		c0.08-0.75,0.341-1.29,0.771-1.62s0.96-0.5,1.609-0.5c0.7,0,1.261,0.2,1.661,0.58c0.409,0.38,0.609,0.85,0.609,1.42
		c0,0.32-0.06,0.63-0.17,0.92c-0.12,0.29-0.301,0.59-0.551,0.91c-0.169,0.21-0.47,0.52-0.899,0.92c-0.439,0.39-0.71,0.66-0.83,0.79
		c-0.109,0.13-0.2,0.25-0.279,0.38H191.02z"/>
	<path fill-rule="evenodd" clip-rule="evenodd" d="M191.95,23.91v-1.28h4.69v1c-0.391,0.38-0.78,0.93-1.18,1.64
		c-0.4,0.71-0.711,1.47-0.92,2.27c-0.211,0.8-0.311,1.52-0.311,2.15h-1.319c0.02-0.99,0.229-2,0.609-3.03
		c0.391-1.02,0.899-1.94,1.55-2.75H191.95z"/>
	<path fill-rule="evenodd" clip-rule="evenodd" d="M206.39,41.17v1.27h-4.811c0.061-0.48,0.211-0.94,0.47-1.37
		c0.261-0.43,0.78-1,1.541-1.71c0.62-0.58,1-0.97,1.14-1.18c0.189-0.28,0.29-0.56,0.29-0.84c0-0.3-0.09-0.54-0.25-0.7
		c-0.17-0.17-0.391-0.25-0.68-0.25c-0.291,0-0.521,0.09-0.69,0.26c-0.16,0.17-0.26,0.46-0.29,0.86l-1.37-0.14
		c0.09-0.75,0.34-1.29,0.771-1.62c0.43-0.33,0.97-0.5,1.609-0.5c0.71,0,1.26,0.2,1.671,0.58c0.399,0.38,0.6,0.85,0.6,1.42
		c0,0.32-0.061,0.63-0.17,0.92c-0.12,0.29-0.301,0.59-0.551,0.91c-0.17,0.21-0.47,0.52-0.899,0.92c-0.43,0.39-0.71,0.66-0.82,0.79
		c-0.12,0.13-0.21,0.25-0.28,0.38H206.39z"/>
	<path fill-rule="evenodd" clip-rule="evenodd" d="M208.5,38.58c-0.359-0.15-0.62-0.36-0.779-0.62c-0.16-0.26-0.24-0.55-0.24-0.86
		c0-0.53,0.189-0.97,0.561-1.32c0.37-0.35,0.899-0.53,1.589-0.53c0.681,0,1.211,0.18,1.581,0.53c0.38,0.35,0.569,0.79,0.569,1.32
		c0,0.33-0.09,0.63-0.26,0.89c-0.17,0.26-0.42,0.45-0.729,0.59c0.399,0.16,0.699,0.39,0.909,0.7c0.2,0.3,0.311,0.66,0.311,1.06
		c0,0.66-0.211,1.2-0.631,1.61c-0.43,0.41-0.989,0.62-1.689,0.62c-0.649,0-1.19-0.17-1.62-0.51c-0.51-0.41-0.771-0.96-0.771-1.66
		c0-0.39,0.101-0.75,0.291-1.07C207.78,39.01,208.08,38.76,208.5,38.58z M208.78,37.2c0,0.27,0.08,0.48,0.23,0.64
		c0.159,0.15,0.359,0.23,0.619,0.23c0.261,0,0.471-0.08,0.631-0.23c0.15-0.16,0.229-0.37,0.229-0.65c0-0.25-0.079-0.46-0.229-0.61
		c-0.16-0.16-0.36-0.24-0.62-0.24c-0.261,0-0.471,0.08-0.62,0.24C208.86,36.73,208.78,36.94,208.78,37.2z M208.65,40.26
		c0,0.38,0.1,0.68,0.29,0.89c0.2,0.21,0.439,0.32,0.729,0.32c0.28,0,0.521-0.11,0.7-0.31c0.19-0.2,0.28-0.5,0.28-0.88
		c0-0.34-0.09-0.61-0.28-0.81c-0.189-0.2-0.43-0.3-0.72-0.3c-0.34,0-0.59,0.11-0.75,0.34S208.65,39.99,208.65,40.26z"/>
	<path fill-rule="evenodd" clip-rule="evenodd" d="M221.02,53.92v1.27h-4.81c0.05-0.48,0.209-0.94,0.47-1.37
		c0.26-0.43,0.77-1,1.54-1.71c0.62-0.58,1-0.97,1.14-1.18c0.189-0.28,0.28-0.56,0.28-0.84c0-0.3-0.08-0.54-0.25-0.7
		c-0.16-0.17-0.391-0.25-0.68-0.25c-0.28,0-0.511,0.09-0.681,0.26c-0.17,0.17-0.27,0.46-0.29,0.86l-1.37-0.14
		c0.08-0.75,0.341-1.29,0.771-1.62s0.96-0.5,1.609-0.5c0.7,0,1.261,0.2,1.661,0.58c0.409,0.38,0.609,0.85,0.609,1.42
		c0,0.32-0.06,0.63-0.17,0.92c-0.12,0.29-0.301,0.59-0.551,0.91c-0.17,0.21-0.47,0.52-0.899,0.92c-0.439,0.39-0.71,0.66-0.83,0.79
		c-0.109,0.13-0.2,0.25-0.279,0.38H221.02z"/>
	<path fill-rule="evenodd" clip-rule="evenodd" d="M221.98,53.54l1.319-0.15c0.041,0.27,0.12,0.47,0.261,0.6
		c0.13,0.13,0.319,0.2,0.54,0.2c0.279,0,0.52-0.13,0.72-0.39c0.2-0.26,0.33-0.81,0.38-1.63c-0.34,0.4-0.77,0.6-1.289,0.61
		c-0.561-0.01-1.051-0.22-1.461-0.66c-0.409-0.43-0.609-1-0.609-1.69c0-0.73,0.209-1.31,0.649-1.76c0.43-0.44,0.98-0.67,1.64-0.67
		c0.73,0,1.331,0.29,1.79,0.85c0.471,0.56,0.7,1.48,0.7,2.77c0,1.31-0.24,2.25-0.729,2.83c-0.479,0.58-1.11,0.87-1.891,0.87
		c-0.56,0-1.01-0.15-1.359-0.45C222.299,54.57,222.07,54.13,221.98,53.54z M225.08,50.54c0-0.44-0.1-0.79-0.3-1.03
		c-0.21-0.25-0.439-0.37-0.71-0.37c-0.25,0-0.46,0.1-0.63,0.3c-0.17,0.2-0.25,0.53-0.25,0.99s0.09,0.8,0.271,1.01
		c0.18,0.22,0.409,0.33,0.68,0.33s0.489-0.1,0.67-0.31C224.99,51.25,225.08,50.94,225.08,50.54z"/>
	<path fill-rule="evenodd" clip-rule="evenodd" d="M226.46,81.04l1.33-0.16c0.039,0.34,0.149,0.6,0.339,0.78
		c0.19,0.18,0.411,0.27,0.67,0.27c0.291,0,0.53-0.11,0.721-0.33c0.19-0.21,0.29-0.5,0.29-0.87c0-0.34-0.09-0.61-0.28-0.82
		c-0.18-0.2-0.41-0.3-0.68-0.3c-0.17,0-0.38,0.04-0.63,0.1l0.149-1.11c0.38,0.01,0.66-0.07,0.851-0.25c0.199-0.17,0.3-0.39,0.3-0.68
		c0-0.24-0.07-0.43-0.221-0.57c-0.139-0.15-0.329-0.22-0.569-0.22c-0.23,0-0.431,0.08-0.601,0.25c-0.169,0.16-0.27,0.4-0.3,0.71
		l-1.27-0.22c0.09-0.43,0.22-0.77,0.4-1.03c0.18-0.26,0.43-0.47,0.739-0.61c0.32-0.15,0.68-0.23,1.07-0.23
		c0.67,0,1.21,0.22,1.62,0.65c0.34,0.35,0.5,0.75,0.5,1.19c0,0.63-0.341,1.13-1.03,1.5c0.41,0.09,0.74,0.29,0.99,0.6
		c0.24,0.3,0.37,0.67,0.37,1.1c0,0.63-0.23,1.17-0.69,1.61c-0.46,0.44-1.03,0.66-1.72,0.66c-0.641,0-1.181-0.18-1.61-0.55
		C226.78,82.13,226.53,81.64,226.46,81.04z"/>
	<path fill-rule="evenodd" clip-rule="evenodd" d="M234.39,75.75c0.689,0,1.239,0.25,1.63,0.75c0.46,0.58,0.69,1.55,0.69,2.91
		s-0.23,2.33-0.7,2.92c-0.391,0.49-0.931,0.73-1.62,0.73c-0.7,0-1.261-0.26-1.68-0.8c-0.431-0.53-0.641-1.49-0.641-2.86
		c0-1.35,0.229-2.32,0.7-2.91C233.161,76,233.7,75.75,234.39,75.75z M234.39,76.89c-0.17,0-0.311,0.06-0.44,0.16
		c-0.13,0.11-0.239,0.3-0.31,0.57c-0.091,0.35-0.141,0.95-0.141,1.79s0.041,1.42,0.13,1.73c0.081,0.32,0.19,0.53,0.32,0.63
		s0.271,0.16,0.44,0.16s0.31-0.06,0.439-0.16c0.131-0.11,0.24-0.3,0.311-0.57c0.09-0.35,0.14-0.95,0.14-1.79s-0.04-1.41-0.13-1.73
		c-0.08-0.31-0.189-0.52-0.32-0.63C234.7,76.95,234.56,76.89,234.39,76.89z"/>
	<path fill-rule="evenodd" clip-rule="evenodd" d="M221.21,117.04l1.33-0.16c0.039,0.341,0.149,0.601,0.339,0.78
		c0.19,0.18,0.411,0.271,0.67,0.271c0.291,0,0.53-0.11,0.721-0.33c0.19-0.211,0.29-0.5,0.29-0.87c0-0.341-0.09-0.61-0.28-0.82
		c-0.18-0.2-0.41-0.3-0.68-0.3c-0.17,0-0.38,0.04-0.63,0.1l0.149-1.109c0.38,0.01,0.66-0.07,0.851-0.25
		c0.199-0.17,0.3-0.391,0.3-0.681c0-0.239-0.07-0.43-0.221-0.569c-0.139-0.15-0.329-0.221-0.569-0.221
		c-0.23,0-0.431,0.08-0.601,0.25c-0.169,0.16-0.27,0.4-0.3,0.71l-1.27-0.22c0.09-0.431,0.22-0.77,0.4-1.03
		c0.18-0.26,0.43-0.47,0.739-0.609c0.32-0.15,0.68-0.23,1.07-0.23c0.67,0,1.21,0.221,1.62,0.65c0.34,0.35,0.5,0.75,0.5,1.189
		c0,0.631-0.341,1.131-1.03,1.5c0.41,0.091,0.74,0.29,0.99,0.6c0.24,0.301,0.37,0.671,0.37,1.101c0,0.63-0.23,1.17-0.69,1.61
		c-0.46,0.439-1.03,0.659-1.72,0.659c-0.641,0-1.181-0.18-1.61-0.55C221.53,118.13,221.28,117.64,221.21,117.04z"/>
	<path fill-rule="evenodd" clip-rule="evenodd" d="M230.33,118.939h-1.369v-5.169c-0.5,0.47-1.091,0.819-1.771,1.039v-1.239
		c0.351-0.12,0.74-0.34,1.16-0.67s0.71-0.711,0.87-1.15h1.109V118.939z"/>
	<path fill-rule="evenodd" clip-rule="evenodd" fill="#E3E3E3" d="M383.1,188.54h-1.37v-5.17c-0.5,0.47-1.09,0.819-1.77,1.04v-1.24
		c0.35-0.119,0.739-0.34,1.159-0.67c0.421-0.33,0.71-0.71,0.87-1.149h1.11V188.54z"/>
	<path fill-rule="evenodd" clip-rule="evenodd" fill="#E3E3E3" d="M369.82,120.29v1.28h-4.811c0.061-0.48,0.211-0.94,0.471-1.37
		s0.779-1,1.55-1.72c0.61-0.57,0.99-0.96,1.13-1.171c0.19-0.279,0.29-0.56,0.29-0.839c0-0.311-0.09-0.54-0.25-0.711
		c-0.159-0.159-0.39-0.239-0.68-0.239s-0.521,0.08-0.68,0.26c-0.171,0.17-0.271,0.46-0.3,0.859l-1.36-0.14
		c0.079-0.76,0.329-1.3,0.76-1.63c0.43-0.319,0.97-0.49,1.609-0.49c0.71,0,1.261,0.19,1.671,0.57c0.399,0.38,0.6,0.859,0.6,1.42
		c0,0.33-0.05,0.63-0.17,0.92s-0.3,0.6-0.55,0.92c-0.17,0.21-0.46,0.511-0.9,0.91c-0.43,0.4-0.7,0.66-0.819,0.79
		c-0.121,0.13-0.211,0.26-0.28,0.38H369.82z"/>
	<path fill-rule="evenodd" clip-rule="evenodd" fill="#E3E3E3" d="M400.2,122.54h-1.37v-5.17c-0.5,0.47-1.09,0.819-1.77,1.04v-1.24
		c0.35-0.119,0.739-0.34,1.16-0.67c0.42-0.33,0.71-0.71,0.87-1.149h1.109V122.54z"/>
	<path fill-rule="evenodd" clip-rule="evenodd" fill="#E3E3E3" d="M402.25,116.76v-1.279h4.69v1c-0.38,0.38-0.78,0.93-1.181,1.64
		c-0.399,0.71-0.699,1.47-0.909,2.27s-0.32,1.521-0.31,2.15h-1.33c0.029-0.989,0.229-2,0.619-3.03c0.381-1.02,0.9-1.939,1.54-2.75
		H402.25z"/>
	<path fill-rule="evenodd" clip-rule="evenodd" d="M328.009,93.79l1.331-0.16c0.05,0.34,0.159,0.6,0.34,0.78
		c0.189,0.18,0.41,0.27,0.68,0.27c0.28,0,0.521-0.11,0.71-0.33c0.2-0.21,0.29-0.5,0.29-0.87c0-0.34-0.09-0.61-0.27-0.82
		c-0.19-0.2-0.421-0.3-0.68-0.3c-0.181,0-0.391,0.04-0.631,0.1l0.15-1.11c0.369,0.01,0.649-0.07,0.85-0.25
		c0.19-0.17,0.29-0.39,0.29-0.68c0-0.24-0.07-0.43-0.21-0.57c-0.149-0.15-0.34-0.22-0.569-0.22c-0.241,0-0.44,0.08-0.61,0.25
		c-0.16,0.16-0.261,0.4-0.3,0.71l-1.261-0.22c0.091-0.43,0.221-0.77,0.4-1.03c0.17-0.26,0.42-0.47,0.739-0.61
		c0.32-0.15,0.671-0.23,1.061-0.23c0.68,0,1.221,0.22,1.63,0.65c0.33,0.35,0.5,0.75,0.5,1.19c0,0.63-0.34,1.13-1.03,1.5
		c0.41,0.09,0.741,0.29,0.98,0.6c0.25,0.3,0.37,0.67,0.37,1.1c0,0.63-0.229,1.17-0.69,1.61c-0.46,0.44-1.03,0.66-1.71,0.66
		c-0.649,0-1.189-0.18-1.61-0.55C328.33,94.88,328.08,94.39,328.009,93.79z"/>
	<path fill-rule="evenodd" clip-rule="evenodd" d="M361.2,75.82h-1.37v-5.17c-0.5,0.47-1.09,0.81-1.77,1.04v-1.25
		c0.35-0.11,0.739-0.34,1.16-0.66c0.42-0.33,0.71-0.71,0.87-1.15h1.109V75.82z"/>
	<path fill-rule="evenodd" clip-rule="evenodd" d="M365.57,68.63c0.689,0,1.24,0.25,1.63,0.74c0.46,0.59,0.7,1.56,0.7,2.92
		c0,1.35-0.24,2.33-0.71,2.92c-0.391,0.49-0.931,0.73-1.62,0.73c-0.7,0-1.26-0.27-1.68-0.8c-0.43-0.54-0.641-1.49-0.641-2.87
		c0-1.34,0.23-2.31,0.7-2.91C364.34,68.87,364.88,68.63,365.57,68.63z M365.57,69.77c-0.16,0-0.311,0.05-0.439,0.16
		c-0.131,0.1-0.23,0.29-0.311,0.57c-0.09,0.35-0.14,0.95-0.14,1.79s0.04,1.41,0.13,1.73c0.08,0.31,0.189,0.52,0.32,0.63
		c0.129,0.1,0.279,0.15,0.439,0.15c0.17,0,0.32-0.05,0.45-0.16c0.13-0.1,0.229-0.29,0.3-0.57c0.09-0.35,0.141-0.94,0.141-1.78
		s-0.041-1.42-0.131-1.73c-0.08-0.32-0.189-0.53-0.32-0.63C365.88,69.82,365.74,69.77,365.57,69.77z"/>
	<path fill-rule="evenodd" clip-rule="evenodd" d="M410.7,78.82h-1.37v-5.17c-0.5,0.47-1.09,0.81-1.77,1.04v-1.25
		c0.35-0.11,0.739-0.34,1.16-0.66c0.42-0.33,0.71-0.71,0.87-1.15h1.109V78.82z"/>
	<path fill-rule="evenodd" clip-rule="evenodd" d="M413.93,74.96c-0.36-0.15-0.61-0.36-0.78-0.62c-0.16-0.26-0.24-0.55-0.24-0.86
		c0-0.54,0.19-0.98,0.561-1.33c0.37-0.35,0.899-0.52,1.59-0.52c0.68,0,1.21,0.17,1.59,0.52c0.37,0.35,0.561,0.79,0.561,1.33
		c0,0.33-0.091,0.62-0.261,0.88c-0.17,0.26-0.409,0.46-0.729,0.6c0.399,0.16,0.699,0.39,0.91,0.69c0.21,0.31,0.31,0.66,0.31,1.06
		c0,0.66-0.21,1.2-0.63,1.61c-0.42,0.42-0.99,0.62-1.69,0.62c-0.649,0-1.189-0.17-1.62-0.51c-0.51-0.4-0.77-0.95-0.77-1.66
		c0-0.39,0.1-0.74,0.29-1.06C413.21,75.38,413.52,75.13,413.93,74.96z M414.21,73.57c0,0.28,0.08,0.49,0.229,0.64
		c0.16,0.16,0.359,0.23,0.62,0.23c0.26,0,0.47-0.07,0.63-0.23c0.15-0.15,0.229-0.37,0.229-0.64c0-0.26-0.079-0.46-0.229-0.62
		c-0.16-0.15-0.36-0.23-0.61-0.23c-0.27,0-0.479,0.08-0.63,0.23C414.291,73.11,414.21,73.32,414.21,73.57z M414.08,76.64
		c0,0.38,0.101,0.67,0.301,0.88c0.189,0.22,0.43,0.32,0.72,0.32c0.28,0,0.52-0.1,0.699-0.3c0.19-0.21,0.28-0.5,0.28-0.89
		c0-0.33-0.09-0.6-0.28-0.8c-0.189-0.21-0.43-0.31-0.72-0.31c-0.33,0-0.58,0.12-0.75,0.35C414.169,76.12,414.08,76.37,414.08,76.64z
		"/>
	<path fill-rule="evenodd" clip-rule="evenodd" d="M441.07,104.17v1.27h-4.811c0.061-0.48,0.211-0.94,0.471-1.37
		c0.26-0.43,0.779-1,1.55-1.71c0.61-0.58,0.99-0.97,1.13-1.18c0.19-0.28,0.29-0.56,0.29-0.84c0-0.3-0.09-0.54-0.25-0.7
		c-0.159-0.17-0.39-0.25-0.68-0.25s-0.521,0.09-0.68,0.26c-0.171,0.17-0.271,0.46-0.3,0.86l-1.36-0.14
		c0.079-0.75,0.329-1.29,0.76-1.62c0.43-0.33,0.97-0.5,1.609-0.5c0.71,0,1.261,0.2,1.671,0.58c0.399,0.38,0.6,0.85,0.6,1.42
		c0,0.32-0.05,0.63-0.17,0.92s-0.3,0.59-0.55,0.91c-0.17,0.21-0.46,0.52-0.9,0.92c-0.43,0.39-0.7,0.66-0.819,0.79
		c-0.121,0.13-0.211,0.25-0.28,0.38H441.07z"/>
	<path fill-rule="evenodd" clip-rule="evenodd" d="M442.02,103.6l1.37-0.14c0.04,0.31,0.15,0.55,0.35,0.73
		c0.19,0.19,0.41,0.28,0.66,0.28c0.29,0,0.53-0.12,0.73-0.35c0.199-0.24,0.289-0.59,0.289-1.06c0-0.44-0.09-0.76-0.289-0.98
		c-0.2-0.22-0.45-0.33-0.771-0.33c-0.39,0-0.75,0.17-1.061,0.52l-1.109-0.16l0.7-3.73h3.63v1.29h-2.59l-0.21,1.21
		c0.3-0.15,0.609-0.23,0.93-0.23c0.609,0,1.13,0.22,1.55,0.67c0.42,0.44,0.641,1.01,0.641,1.72c0,0.59-0.181,1.11-0.521,1.58
		c-0.46,0.63-1.109,0.94-1.939,0.94c-0.66,0-1.19-0.17-1.61-0.53C442.35,104.68,442.1,104.2,442.02,103.6z"/>
	<path fill-rule="evenodd" clip-rule="evenodd" d="M301.13,87.82v-1.44H298.2v-1.2l3.11-4.55h1.15v4.54h0.89v1.21h-0.89v1.44H301.13
		z M301.13,85.17v-2.44l-1.65,2.44H301.13z"/>
	<path fill-rule="evenodd" clip-rule="evenodd" d="M301.59,61.41v-1.28h4.689v1c-0.39,0.38-0.78,0.93-1.18,1.64
		c-0.4,0.71-0.71,1.47-0.92,2.27c-0.21,0.8-0.311,1.52-0.311,2.15h-1.32c0.021-0.99,0.23-2,0.611-3.03
		c0.389-1.02,0.909-1.94,1.55-2.75H301.59z"/>
	<path fill-rule="evenodd" clip-rule="evenodd" d="M336.83,49.19h-1.38v-5.17c-0.5,0.47-1.09,0.82-1.77,1.04v-1.24
		c0.36-0.12,0.75-0.34,1.17-0.67c0.42-0.33,0.71-0.71,0.86-1.15h1.119V49.19z"/>
	<path fill-rule="evenodd" clip-rule="evenodd" d="M341.84,49.19h-1.37v-5.17c-0.51,0.47-1.101,0.82-1.78,1.04v-1.24
		c0.359-0.12,0.75-0.34,1.17-0.67c0.42-0.33,0.71-0.71,0.86-1.15h1.12V49.19z"/>
	<path fill-rule="evenodd" clip-rule="evenodd" d="M366.82,49.94h-1.37v-5.17c-0.5,0.47-1.09,0.82-1.77,1.04v-1.24
		c0.36-0.12,0.75-0.34,1.17-0.67c0.409-0.33,0.699-0.71,0.86-1.14h1.109V49.94z"/>
	<path fill-rule="evenodd" clip-rule="evenodd" d="M371.56,49.94V48.5h-2.93v-1.2l3.109-4.54h1.15v4.54h0.89v1.2h-0.89v1.44H371.56z
		 M371.56,47.3v-2.45l-1.641,2.45H371.56z"/>
	<path fill-rule="evenodd" clip-rule="evenodd" d="M408.45,52.19h-1.37v-5.17c-0.5,0.47-1.09,0.82-1.77,1.04v-1.24
		c0.35-0.12,0.739-0.34,1.16-0.67c0.42-0.33,0.71-0.71,0.87-1.14h1.109V52.19z"/>
	<path fill-rule="evenodd" clip-rule="evenodd" d="M410.53,50.54l1.33-0.15c0.03,0.27,0.12,0.47,0.25,0.6
		c0.14,0.13,0.32,0.2,0.55,0.2c0.28,0,0.521-0.13,0.721-0.39c0.199-0.26,0.319-0.8,0.379-1.62c-0.35,0.4-0.779,0.6-1.299,0.6
		c-0.561,0-1.041-0.22-1.451-0.65c-0.409-0.44-0.619-1-0.619-1.7c0-0.73,0.22-1.31,0.65-1.76c0.43-0.44,0.979-0.66,1.649-0.66
		c0.729,0,1.319,0.28,1.79,0.84c0.46,0.56,0.689,1.48,0.689,2.77c0,1.31-0.239,2.25-0.72,2.83c-0.489,0.58-1.12,0.87-1.9,0.87
		c-0.56,0-1.009-0.15-1.35-0.45C410.85,51.58,410.63,51.13,410.53,50.54z M413.64,47.54c0-0.44-0.11-0.79-0.311-1.03
		c-0.199-0.24-0.439-0.37-0.699-0.37c-0.261,0-0.471,0.1-0.641,0.3c-0.16,0.2-0.25,0.53-0.25,0.99s0.09,0.8,0.28,1.02
		c0.18,0.21,0.41,0.32,0.68,0.32c0.261,0,0.48-0.1,0.67-0.31C413.549,48.25,413.64,47.94,413.64,47.54z"/>
	<path fill-rule="evenodd" clip-rule="evenodd" d="M438.82,57.29v1.28h-4.811c0.051-0.48,0.211-0.94,0.471-1.37
		c0.26-0.43,0.779-1,1.54-1.72c0.62-0.57,1-0.96,1.14-1.17c0.19-0.28,0.28-0.56,0.28-0.84c0-0.31-0.08-0.54-0.24-0.71
		c-0.17-0.16-0.39-0.24-0.68-0.24s-0.521,0.08-0.69,0.26c-0.17,0.17-0.26,0.46-0.289,0.86l-1.371-0.14
		c0.08-0.76,0.34-1.3,0.771-1.63c0.43-0.32,0.97-0.49,1.609-0.49c0.71,0,1.261,0.19,1.671,0.57c0.399,0.38,0.6,0.86,0.6,1.42
		c0,0.33-0.061,0.63-0.17,0.92c-0.12,0.29-0.3,0.6-0.55,0.92c-0.17,0.21-0.47,0.51-0.9,0.91c-0.43,0.4-0.71,0.66-0.819,0.79
		c-0.121,0.13-0.211,0.26-0.28,0.38H438.82z"/>
	<path fill-rule="evenodd" clip-rule="evenodd" d="M444.38,57.29v1.28h-4.811c0.061-0.48,0.21-0.94,0.471-1.37
		c0.259-0.43,0.779-1,1.55-1.72c0.609-0.57,0.989-0.96,1.13-1.17c0.189-0.28,0.289-0.56,0.289-0.84c0-0.31-0.09-0.54-0.25-0.71
		c-0.159-0.16-0.39-0.24-0.68-0.24c-0.289,0-0.52,0.08-0.68,0.26c-0.17,0.17-0.27,0.46-0.3,0.86l-1.36-0.14
		c0.08-0.76,0.33-1.3,0.76-1.63c0.431-0.32,0.971-0.49,1.61-0.49c0.71,0,1.26,0.19,1.67,0.57c0.4,0.38,0.601,0.86,0.601,1.42
		c0,0.33-0.051,0.63-0.17,0.92c-0.12,0.29-0.301,0.6-0.551,0.92c-0.17,0.21-0.46,0.51-0.9,0.91c-0.43,0.4-0.699,0.66-0.819,0.79
		s-0.21,0.26-0.28,0.38H444.38z"/>
	<path fill-rule="evenodd" clip-rule="evenodd" d="M457.57,73.42v1.27h-4.811c0.061-0.48,0.211-0.93,0.471-1.37
		c0.26-0.43,0.779-1,1.55-1.71c0.61-0.58,0.99-0.97,1.13-1.17c0.19-0.29,0.29-0.57,0.29-0.84c0-0.31-0.09-0.54-0.25-0.71
		c-0.159-0.16-0.39-0.25-0.68-0.25s-0.521,0.09-0.68,0.26c-0.171,0.18-0.271,0.46-0.3,0.86l-1.36-0.13
		c0.079-0.76,0.329-1.3,0.76-1.63c0.43-0.33,0.97-0.49,1.609-0.49c0.71,0,1.261,0.19,1.671,0.57c0.399,0.38,0.6,0.85,0.6,1.42
		c0,0.32-0.05,0.63-0.17,0.92s-0.3,0.6-0.55,0.91c-0.17,0.22-0.46,0.52-0.9,0.92c-0.43,0.39-0.7,0.66-0.819,0.79
		c-0.121,0.13-0.211,0.26-0.28,0.38H457.57z"/>
	<path fill-rule="evenodd" clip-rule="evenodd" d="M463.15,69.29l-1.33,0.15c-0.029-0.28-0.12-0.48-0.25-0.61
		c-0.14-0.13-0.32-0.2-0.529-0.2c-0.291,0-0.541,0.13-0.741,0.4c-0.199,0.26-0.329,0.8-0.38,1.62c0.34-0.4,0.771-0.6,1.28-0.6
		c0.57,0,1.06,0.21,1.47,0.65s0.61,1,0.61,1.69c0,0.73-0.21,1.32-0.64,1.76c-0.43,0.44-0.98,0.67-1.66,0.67
		c-0.721,0-1.311-0.28-1.78-0.85c-0.47-0.56-0.7-1.48-0.7-2.76c0-1.31,0.24-2.25,0.73-2.83c0.48-0.58,1.11-0.87,1.89-0.87
		c0.54,0,0.99,0.15,1.351,0.45C462.83,68.27,463.049,68.71,463.15,69.29z M460.041,72.28c0,0.45,0.1,0.79,0.31,1.03
		c0.199,0.25,0.44,0.37,0.699,0.37c0.25,0,0.471-0.1,0.641-0.3c0.16-0.2,0.25-0.52,0.25-0.98c0-0.46-0.09-0.8-0.271-1.02
		c-0.189-0.22-0.41-0.32-0.689-0.32c-0.26,0-0.48,0.1-0.67,0.31C460.13,71.57,460.041,71.88,460.041,72.28z"/>
	<path fill-rule="evenodd" clip-rule="evenodd" d="M469.57,100.42v1.27h-4.811c0.061-0.48,0.211-0.94,0.471-1.37
		c0.26-0.43,0.779-1,1.55-1.71c0.61-0.58,0.99-0.97,1.13-1.18c0.19-0.28,0.29-0.56,0.29-0.84c0-0.3-0.09-0.54-0.25-0.7
		c-0.159-0.17-0.39-0.25-0.68-0.25s-0.521,0.09-0.68,0.26c-0.171,0.17-0.271,0.46-0.3,0.86l-1.36-0.14
		c0.079-0.75,0.329-1.29,0.76-1.62c0.43-0.33,0.97-0.5,1.609-0.5c0.71,0,1.261,0.2,1.671,0.58c0.399,0.38,0.6,0.85,0.6,1.42
		c0,0.32-0.05,0.63-0.17,0.92s-0.3,0.59-0.55,0.91c-0.17,0.21-0.46,0.52-0.9,0.92c-0.43,0.39-0.7,0.66-0.819,0.79
		c-0.121,0.13-0.211,0.25-0.28,0.38H469.57z"/>
	<path fill-rule="evenodd" clip-rule="evenodd" d="M470.53,100.04l1.33-0.15c0.03,0.27,0.12,0.47,0.25,0.6
		c0.14,0.13,0.32,0.2,0.55,0.2c0.28,0,0.521-0.13,0.721-0.39c0.199-0.26,0.319-0.81,0.379-1.63c-0.35,0.4-0.779,0.6-1.299,0.61
		c-0.561-0.01-1.041-0.22-1.451-0.66c-0.409-0.43-0.619-1-0.619-1.69c0-0.73,0.22-1.31,0.65-1.76c0.43-0.44,0.979-0.67,1.649-0.67
		c0.729,0,1.319,0.29,1.79,0.85c0.46,0.56,0.689,1.48,0.689,2.77c0,1.31-0.239,2.25-0.72,2.83c-0.489,0.58-1.12,0.87-1.9,0.87
		c-0.56,0-1.009-0.15-1.35-0.45C470.85,101.07,470.63,100.63,470.53,100.04z M473.64,97.04c0-0.44-0.11-0.79-0.311-1.03
		c-0.199-0.25-0.439-0.37-0.699-0.37c-0.261,0-0.471,0.1-0.641,0.3c-0.16,0.2-0.25,0.53-0.25,0.99s0.09,0.8,0.28,1.01
		c0.18,0.22,0.41,0.33,0.68,0.33c0.261,0,0.48-0.1,0.67-0.31C473.549,97.75,473.64,97.44,473.64,97.04z"/>
	<path fill-rule="evenodd" clip-rule="evenodd" d="M271.84,99.85l1.359-0.14c0.04,0.31,0.16,0.55,0.35,0.73
		c0.19,0.19,0.411,0.28,0.661,0.28c0.289,0,0.529-0.12,0.729-0.35c0.2-0.24,0.3-0.59,0.3-1.06c0-0.44-0.1-0.76-0.3-0.98
		c-0.19-0.22-0.45-0.33-0.771-0.33c-0.39,0-0.739,0.17-1.06,0.52L272,98.36l0.7-3.73h3.63v1.29h-2.59l-0.21,1.21
		c0.311-0.15,0.62-0.23,0.94-0.23c0.609,0,1.12,0.22,1.539,0.67c0.431,0.44,0.641,1.01,0.641,1.72c0,0.59-0.17,1.11-0.51,1.58
		c-0.471,0.63-1.11,0.94-1.94,0.94c-0.659,0-1.2-0.17-1.62-0.53C272.169,100.93,271.919,100.45,271.84,99.85z"/>
	<path fill-rule="evenodd" clip-rule="evenodd" d="M274.21,58.04l-1.32,0.15c-0.04-0.28-0.12-0.48-0.26-0.61
		c-0.131-0.13-0.311-0.2-0.53-0.2c-0.29,0-0.53,0.13-0.73,0.4c-0.209,0.26-0.329,0.8-0.38,1.62c0.34-0.4,0.76-0.6,1.27-0.6
		c0.57,0,1.061,0.21,1.471,0.65s0.62,1,0.62,1.69c0,0.73-0.22,1.32-0.65,1.76c-0.43,0.44-0.979,0.67-1.65,0.67
		c-0.729,0-1.319-0.28-1.79-0.85c-0.46-0.56-0.689-1.48-0.689-2.76c0-1.31,0.24-2.25,0.721-2.83c0.489-0.58,1.12-0.87,1.89-0.87
		c0.55,0,1,0.15,1.35,0.45C273.89,57.02,274.12,57.46,274.21,58.04z M271.1,61.03c0,0.45,0.11,0.79,0.311,1.03
		c0.209,0.25,0.439,0.37,0.699,0.37s0.47-0.1,0.64-0.3c0.17-0.2,0.25-0.52,0.25-0.98c0-0.46-0.089-0.8-0.27-1.02
		c-0.181-0.22-0.41-0.32-0.681-0.32c-0.27,0-0.489,0.1-0.669,0.31C271.19,60.32,271.1,60.63,271.1,61.03z"/>
	<path fill-rule="evenodd" clip-rule="evenodd" d="M282.37,34.45c-0.36-0.15-0.62-0.35-0.779-0.61c-0.16-0.27-0.24-0.55-0.24-0.87
		c0-0.53,0.19-0.97,0.561-1.32c0.369-0.35,0.899-0.52,1.589-0.52c0.681,0,1.211,0.17,1.58,0.52c0.381,0.35,0.57,0.79,0.57,1.32
		c0,0.34-0.09,0.63-0.26,0.89c-0.17,0.26-0.42,0.46-0.729,0.59c0.399,0.16,0.699,0.4,0.909,0.7c0.2,0.31,0.311,0.66,0.311,1.06
		c0,0.66-0.211,1.2-0.641,1.61c-0.42,0.42-0.98,0.62-1.68,0.62c-0.649,0-1.19-0.17-1.62-0.51c-0.51-0.4-0.771-0.96-0.771-1.66
		c0-0.39,0.101-0.74,0.291-1.07C281.65,34.88,281.95,34.63,282.37,34.45z M282.65,33.07c0,0.28,0.08,0.49,0.23,0.64
		c0.16,0.15,0.359,0.23,0.619,0.23s0.471-0.08,0.62-0.23c0.16-0.16,0.24-0.37,0.24-0.64c0-0.26-0.08-0.47-0.229-0.62
		c-0.16-0.16-0.36-0.23-0.621-0.23c-0.26,0-0.469,0.08-0.629,0.23C282.73,32.61,282.65,32.81,282.65,33.07z M282.52,36.14
		c0,0.38,0.1,0.67,0.29,0.88c0.199,0.21,0.439,0.32,0.73,0.32c0.279,0,0.52-0.1,0.699-0.31c0.19-0.2,0.28-0.49,0.28-0.88
		c0-0.33-0.09-0.6-0.28-0.81c-0.19-0.2-0.43-0.3-0.72-0.3c-0.34,0-0.59,0.12-0.75,0.35S282.52,35.87,282.52,36.14z"/>
	<path fill-rule="evenodd" clip-rule="evenodd" d="M298.85,26.91l1.319-0.14c0.041,0.27,0.121,0.47,0.261,0.6
		c0.13,0.13,0.31,0.19,0.54,0.19c0.279,0,0.52-0.13,0.72-0.39c0.2-0.26,0.33-0.8,0.38-1.62c-0.34,0.4-0.771,0.6-1.29,0.6
		c-0.56,0-1.05-0.22-1.46-0.65c-0.409-0.44-0.609-1-0.609-1.7c0-0.72,0.209-1.31,0.649-1.75c0.431-0.45,0.98-0.67,1.64-0.67
		c0.73,0,1.32,0.28,1.791,0.84c0.469,0.56,0.699,1.49,0.699,2.77c0,1.31-0.24,2.26-0.73,2.84c-0.479,0.58-1.119,0.86-1.89,0.86
		c-0.56,0-1.02-0.14-1.36-0.44C299.161,27.95,298.94,27.51,298.85,26.91z M301.95,23.91c0-0.44-0.1-0.78-0.3-1.03
		c-0.21-0.24-0.439-0.36-0.71-0.36c-0.25,0-0.46,0.1-0.63,0.3c-0.17,0.2-0.25,0.53-0.25,0.98c0,0.46,0.09,0.8,0.27,1.02
		c0.18,0.22,0.41,0.33,0.68,0.33c0.271,0,0.49-0.11,0.671-0.32C301.86,24.62,301.95,24.32,301.95,23.91z"/>
	<path fill-rule="evenodd" clip-rule="evenodd" d="M319.2,18.07h-1.37V12.9c-0.5,0.47-1.09,0.81-1.77,1.04v-1.25
		c0.351-0.11,0.739-0.34,1.16-0.66c0.42-0.33,0.71-0.71,0.87-1.15h1.109V18.07z"/>
	<path fill-rule="evenodd" clip-rule="evenodd" d="M325.89,16.79v1.28h-4.811c0.051-0.48,0.2-0.94,0.461-1.37
		c0.27-0.43,0.779-1,1.55-1.72c0.62-0.57,1-0.96,1.14-1.17c0.181-0.28,0.279-0.56,0.279-0.84c0-0.31-0.079-0.54-0.25-0.71
		c-0.159-0.16-0.39-0.24-0.68-0.24c-0.289,0-0.51,0.08-0.68,0.26c-0.17,0.17-0.27,0.46-0.3,0.86L321.24,13
		c0.08-0.76,0.33-1.3,0.76-1.63c0.431-0.32,0.971-0.49,1.61-0.49c0.71,0,1.271,0.19,1.67,0.57c0.4,0.38,0.61,0.86,0.61,1.42
		c0,0.33-0.061,0.63-0.18,0.92c-0.11,0.29-0.3,0.6-0.55,0.92c-0.161,0.21-0.461,0.51-0.901,0.91c-0.43,0.4-0.699,0.66-0.819,0.79
		c-0.11,0.13-0.21,0.26-0.279,0.38H325.89z"/>
	<path fill-rule="evenodd" clip-rule="evenodd" d="M337.2,7.19h-1.37V2.02c-0.5,0.47-1.09,0.82-1.77,1.04V1.82
		c0.351-0.12,0.739-0.34,1.16-0.67c0.42-0.33,0.71-0.71,0.87-1.15h1.109V7.19z"/>
	<path fill-rule="evenodd" clip-rule="evenodd" d="M339.2,5.29l1.33-0.16c0.04,0.34,0.16,0.6,0.34,0.78
		c0.19,0.18,0.41,0.27,0.68,0.27c0.28,0,0.521-0.11,0.71-0.33c0.201-0.21,0.29-0.5,0.29-0.87c0-0.34-0.089-0.61-0.279-0.82
		c-0.18-0.2-0.41-0.3-0.67-0.3c-0.181,0-0.39,0.04-0.63,0.1l0.149-1.11c0.37,0.01,0.65-0.07,0.851-0.25
		c0.189-0.17,0.289-0.39,0.289-0.68c0-0.24-0.069-0.43-0.219-0.57c-0.141-0.15-0.33-0.22-0.57-0.22c-0.23,0-0.43,0.08-0.601,0.25
		c-0.159,0.16-0.26,0.4-0.3,0.71l-1.26-0.22c0.08-0.43,0.22-0.77,0.39-1.03c0.181-0.26,0.431-0.47,0.75-0.61
		c0.31-0.15,0.67-0.23,1.06-0.23c0.681,0,1.221,0.22,1.621,0.65c0.34,0.35,0.51,0.75,0.51,1.19c0,0.63-0.35,1.13-1.03,1.5
		c0.41,0.09,0.73,0.29,0.98,0.6c0.25,0.3,0.37,0.67,0.37,1.1c0,0.63-0.23,1.17-0.69,1.61c-0.46,0.44-1.03,0.66-1.71,0.66
		c-0.65,0-1.19-0.18-1.61-0.55C339.52,6.38,339.27,5.89,339.2,5.29z"/>
	<path fill-rule="evenodd" clip-rule="evenodd" d="M365.7,7.19h-1.37V2.02c-0.5,0.47-1.09,0.82-1.77,1.04V1.82
		c0.35-0.12,0.739-0.34,1.16-0.67c0.42-0.33,0.71-0.71,0.87-1.15h1.109V7.19z"/>
	<path fill-rule="evenodd" clip-rule="evenodd" d="M367.77,5.35l1.37-0.14c0.04,0.31,0.15,0.55,0.35,0.73
		c0.19,0.19,0.41,0.28,0.66,0.28c0.29,0,0.53-0.12,0.73-0.35c0.199-0.24,0.289-0.59,0.289-1.06c0-0.44-0.09-0.76-0.289-0.98
		c-0.2-0.22-0.45-0.33-0.771-0.33c-0.39,0-0.75,0.17-1.061,0.52l-1.109-0.16l0.7-3.73h3.63v1.29h-2.59l-0.21,1.21
		c0.3-0.15,0.609-0.23,0.93-0.23c0.609,0,1.13,0.22,1.55,0.67c0.42,0.44,0.641,1.01,0.641,1.72c0,0.59-0.181,1.11-0.521,1.58
		c-0.46,0.63-1.109,0.94-1.939,0.94c-0.66,0-1.19-0.17-1.61-0.53C368.1,6.43,367.85,5.95,367.77,5.35z"/>
	<path fill-rule="evenodd" clip-rule="evenodd" d="M381.45,18.07h-1.37V12.9c-0.5,0.47-1.09,0.81-1.77,1.04v-1.25
		c0.35-0.11,0.739-0.34,1.16-0.66c0.42-0.33,0.71-0.71,0.87-1.15h1.109V18.07z"/>
	<path fill-rule="evenodd" clip-rule="evenodd" d="M388.15,12.66l-1.33,0.15c-0.029-0.27-0.12-0.48-0.25-0.61
		c-0.14-0.13-0.32-0.19-0.529-0.19c-0.291,0-0.541,0.13-0.741,0.39c-0.199,0.26-0.329,0.8-0.38,1.63c0.34-0.41,0.771-0.61,1.28-0.61
		c0.57,0,1.06,0.22,1.47,0.65c0.41,0.44,0.61,1,0.61,1.69c0,0.74-0.21,1.32-0.64,1.77c-0.43,0.44-0.98,0.66-1.66,0.66
		c-0.721,0-1.311-0.28-1.78-0.84s-0.7-1.48-0.7-2.76c0-1.32,0.24-2.26,0.73-2.84c0.48-0.58,1.11-0.87,1.89-0.87
		c0.54,0,0.99,0.15,1.351,0.46C387.83,11.64,388.049,12.08,388.15,12.66z M385.041,15.66c0,0.44,0.1,0.79,0.31,1.03
		c0.199,0.24,0.44,0.36,0.699,0.36c0.25,0,0.471-0.1,0.641-0.3c0.16-0.19,0.25-0.52,0.25-0.97c0-0.47-0.09-0.81-0.271-1.02
		c-0.189-0.22-0.41-0.33-0.689-0.33c-0.26,0-0.48,0.1-0.67,0.31C385.13,14.95,385.041,15.25,385.041,15.66z"/>
	<path fill-rule="evenodd" clip-rule="evenodd" d="M398.32,17.17v1.27h-4.811c0.061-0.48,0.211-0.94,0.471-1.37
		c0.26-0.43,0.779-1,1.55-1.71c0.61-0.58,0.99-0.97,1.13-1.18c0.19-0.28,0.29-0.56,0.29-0.84c0-0.3-0.09-0.54-0.25-0.7
		c-0.159-0.17-0.39-0.25-0.68-0.25s-0.521,0.09-0.68,0.26c-0.171,0.17-0.271,0.46-0.3,0.86l-1.36-0.14
		c0.079-0.75,0.329-1.29,0.76-1.62c0.43-0.33,0.97-0.5,1.609-0.5c0.71,0,1.261,0.2,1.671,0.58c0.399,0.38,0.6,0.85,0.6,1.42
		c0,0.32-0.05,0.63-0.17,0.92s-0.3,0.59-0.55,0.91c-0.17,0.21-0.46,0.52-0.9,0.92c-0.43,0.39-0.7,0.66-0.819,0.79
		c-0.121,0.13-0.211,0.25-0.28,0.38H398.32z"/>
	<path fill-rule="evenodd" clip-rule="evenodd" d="M401.57,11.25c0.689,0,1.24,0.25,1.63,0.75c0.46,0.58,0.7,1.55,0.7,2.91
		s-0.24,2.33-0.71,2.92c-0.391,0.49-0.931,0.73-1.62,0.73c-0.7,0-1.26-0.26-1.68-0.8c-0.43-0.53-0.641-1.49-0.641-2.86
		c0-1.35,0.23-2.32,0.7-2.91C400.34,11.5,400.88,11.25,401.57,11.25z M401.57,12.39c-0.16,0-0.311,0.06-0.439,0.16
		c-0.131,0.11-0.23,0.3-0.311,0.57c-0.09,0.35-0.14,0.95-0.14,1.79s0.04,1.42,0.13,1.73c0.08,0.32,0.189,0.53,0.32,0.63
		c0.129,0.1,0.279,0.16,0.439,0.16c0.17,0,0.32-0.06,0.45-0.16c0.13-0.11,0.229-0.3,0.3-0.57c0.09-0.35,0.141-0.95,0.141-1.79
		s-0.041-1.41-0.131-1.73c-0.08-0.31-0.189-0.52-0.32-0.63C401.88,12.45,401.74,12.39,401.57,12.39z"/>
	<path fill-rule="evenodd" clip-rule="evenodd" d="M416.32,10.04v1.28h-4.811c0.061-0.48,0.211-0.94,0.471-1.37
		c0.26-0.43,0.779-1,1.55-1.72c0.61-0.57,0.99-0.96,1.13-1.17c0.19-0.28,0.29-0.56,0.29-0.84c0-0.31-0.09-0.54-0.25-0.71
		c-0.159-0.16-0.39-0.24-0.68-0.24s-0.521,0.08-0.68,0.26c-0.171,0.17-0.271,0.46-0.3,0.86l-1.36-0.14
		c0.079-0.76,0.329-1.3,0.76-1.63c0.43-0.32,0.97-0.49,1.609-0.49c0.71,0,1.261,0.19,1.671,0.57c0.399,0.38,0.6,0.86,0.6,1.42
		c0,0.33-0.05,0.63-0.17,0.92s-0.3,0.6-0.55,0.92c-0.17,0.21-0.46,0.51-0.9,0.91c-0.43,0.4-0.7,0.66-0.819,0.79
		c-0.121,0.13-0.211,0.26-0.28,0.38H416.32z"/>
	<path fill-rule="evenodd" clip-rule="evenodd" d="M420.759,11.32h-1.369V6.15c-0.5,0.47-1.091,0.81-1.771,1.04V5.94
		c0.36-0.11,0.75-0.34,1.171-0.66c0.409-0.33,0.699-0.71,0.859-1.15h1.109V11.32z"/>
	<path fill-rule="evenodd" clip-rule="evenodd" d="M444.45,14.92v1.27h-4.81c0.05-0.48,0.21-0.94,0.47-1.37
		c0.26-0.43,0.771-1,1.54-1.71c0.62-0.58,1-0.97,1.141-1.18c0.189-0.28,0.279-0.56,0.279-0.84c0-0.3-0.08-0.54-0.24-0.7
		c-0.17-0.17-0.399-0.25-0.689-0.25c-0.28,0-0.51,0.09-0.68,0.26c-0.17,0.17-0.271,0.46-0.291,0.86l-1.37-0.14
		c0.081-0.75,0.341-1.29,0.771-1.62s0.96-0.5,1.61-0.5c0.71,0,1.26,0.2,1.66,0.58c0.409,0.38,0.609,0.85,0.609,1.42
		c0,0.32-0.06,0.63-0.17,0.92c-0.12,0.29-0.3,0.59-0.55,0.91c-0.17,0.21-0.471,0.52-0.9,0.92c-0.43,0.39-0.71,0.66-0.82,0.79
		c-0.119,0.13-0.21,0.25-0.289,0.38H444.45z"/>
	<path fill-rule="evenodd" clip-rule="evenodd" d="M445.33,14.29l1.33-0.16c0.04,0.34,0.15,0.6,0.34,0.78
		c0.181,0.18,0.41,0.27,0.67,0.27c0.291,0,0.521-0.11,0.721-0.33c0.189-0.21,0.29-0.5,0.29-0.87c0-0.34-0.09-0.61-0.28-0.82
		c-0.189-0.2-0.41-0.3-0.68-0.3c-0.171,0-0.38,0.04-0.63,0.1l0.149-1.11c0.37,0.01,0.66-0.07,0.851-0.25c0.2-0.17,0.3-0.39,0.3-0.68
		c0-0.24-0.08-0.43-0.221-0.57c-0.14-0.15-0.329-0.22-0.569-0.22c-0.23,0-0.44,0.08-0.601,0.25c-0.17,0.16-0.27,0.4-0.3,0.71
		l-1.27-0.22c0.09-0.43,0.22-0.77,0.399-1.03c0.18-0.26,0.42-0.47,0.74-0.61c0.32-0.15,0.67-0.23,1.07-0.23
		c0.67,0,1.21,0.22,1.619,0.65c0.331,0.35,0.5,0.75,0.5,1.19c0,0.63-0.34,1.13-1.029,1.5c0.41,0.09,0.74,0.29,0.99,0.6
		c0.24,0.3,0.359,0.67,0.359,1.1c0,0.63-0.22,1.17-0.68,1.61c-0.46,0.44-1.03,0.66-1.72,0.66c-0.65,0-1.181-0.18-1.61-0.55
		C445.64,15.38,445.4,14.89,445.33,14.29z"/>
	<path fill-rule="evenodd" clip-rule="evenodd" d="M460.95,28.42v1.27h-4.81c0.05-0.48,0.21-0.94,0.47-1.37
		c0.26-0.43,0.771-1,1.54-1.71c0.62-0.58,1-0.97,1.141-1.18c0.189-0.28,0.279-0.56,0.279-0.84c0-0.3-0.08-0.54-0.24-0.7
		c-0.17-0.17-0.399-0.25-0.689-0.25c-0.28,0-0.51,0.09-0.68,0.26c-0.17,0.17-0.271,0.46-0.291,0.86l-1.37-0.14
		c0.081-0.75,0.341-1.29,0.771-1.62s0.96-0.5,1.61-0.5c0.71,0,1.26,0.2,1.66,0.58c0.409,0.38,0.609,0.85,0.609,1.42
		c0,0.32-0.06,0.63-0.17,0.92c-0.12,0.29-0.3,0.59-0.55,0.91c-0.17,0.21-0.471,0.52-0.9,0.92c-0.43,0.39-0.71,0.66-0.82,0.79
		c-0.119,0.13-0.21,0.25-0.289,0.38H460.95z"/>
	<path fill-rule="evenodd" clip-rule="evenodd" d="M464.57,29.69v-1.44h-2.93v-1.2l3.1-4.55h1.16v4.55h0.88v1.2h-0.88v1.44H464.57z
		 M464.57,27.05V24.6l-1.65,2.45H464.57z"/>
	<path fill-rule="evenodd" clip-rule="evenodd" d="M476.32,41.17v1.27h-4.811c0.061-0.48,0.211-0.94,0.471-1.37
		c0.26-0.43,0.779-1,1.55-1.71c0.61-0.58,0.99-0.97,1.13-1.18c0.19-0.28,0.29-0.56,0.29-0.84c0-0.3-0.09-0.54-0.25-0.7
		c-0.159-0.17-0.39-0.25-0.68-0.25s-0.521,0.09-0.68,0.26c-0.171,0.17-0.271,0.46-0.3,0.86l-1.36-0.14
		c0.079-0.75,0.329-1.29,0.76-1.62c0.43-0.33,0.97-0.5,1.609-0.5c0.71,0,1.261,0.2,1.671,0.58c0.399,0.38,0.6,0.85,0.6,1.42
		c0,0.32-0.05,0.63-0.17,0.92s-0.3,0.59-0.55,0.91c-0.17,0.21-0.46,0.52-0.9,0.92c-0.43,0.39-0.7,0.66-0.819,0.79
		c-0.121,0.13-0.211,0.25-0.28,0.38H476.32z"/>
	<path fill-rule="evenodd" clip-rule="evenodd" d="M477.25,36.66v-1.28h4.69v1c-0.38,0.38-0.78,0.93-1.181,1.64
		c-0.399,0.71-0.699,1.47-0.909,2.27c-0.21,0.8-0.32,1.52-0.31,2.15h-1.33c0.029-0.99,0.229-2,0.619-3.03
		c0.381-1.02,0.9-1.94,1.54-2.75H477.25z"/>
	<path fill-rule="evenodd" clip-rule="evenodd" d="M490.95,53.92v1.27h-4.81c0.05-0.48,0.21-0.94,0.47-1.37
		c0.26-0.43,0.771-1,1.54-1.71c0.62-0.58,1-0.97,1.141-1.18c0.189-0.28,0.279-0.56,0.279-0.84c0-0.3-0.08-0.54-0.24-0.7
		c-0.17-0.17-0.399-0.25-0.689-0.25c-0.28,0-0.51,0.09-0.68,0.26c-0.17,0.17-0.271,0.46-0.291,0.86l-1.37-0.14
		c0.081-0.75,0.341-1.29,0.771-1.62s0.96-0.5,1.61-0.5c0.71,0,1.26,0.2,1.66,0.58c0.409,0.38,0.609,0.85,0.609,1.42
		c0,0.32-0.06,0.63-0.17,0.92c-0.12,0.29-0.3,0.59-0.55,0.91c-0.17,0.21-0.471,0.52-0.9,0.92c-0.43,0.39-0.71,0.66-0.82,0.79
		c-0.119,0.13-0.21,0.25-0.289,0.38H490.95z"/>
	<path fill-rule="evenodd" clip-rule="evenodd" d="M493.049,51.33c-0.35-0.15-0.609-0.36-0.77-0.62
		c-0.16-0.26-0.239-0.55-0.239-0.86c0-0.53,0.189-0.97,0.56-1.32c0.37-0.35,0.899-0.53,1.59-0.53c0.68,0,1.21,0.18,1.58,0.53
		c0.38,0.35,0.569,0.79,0.569,1.32c0,0.33-0.09,0.63-0.26,0.89c-0.18,0.26-0.42,0.45-0.729,0.59c0.399,0.16,0.699,0.39,0.909,0.7
		c0.201,0.3,0.311,0.66,0.311,1.06c0,0.66-0.22,1.2-0.64,1.61c-0.421,0.41-0.98,0.62-1.681,0.62c-0.649,0-1.189-0.17-1.63-0.51
		c-0.51-0.41-0.76-0.96-0.76-1.66c0-0.39,0.09-0.75,0.29-1.07C492.34,51.76,492.64,51.51,493.049,51.33z M493.34,49.95
		c0,0.27,0.079,0.48,0.229,0.64c0.15,0.15,0.36,0.23,0.62,0.23s0.47-0.08,0.62-0.23c0.16-0.16,0.239-0.37,0.239-0.65
		c0-0.25-0.079-0.46-0.239-0.61c-0.15-0.16-0.35-0.24-0.61-0.24c-0.26,0-0.47,0.08-0.63,0.24
		C493.419,49.48,493.34,49.69,493.34,49.95z M493.21,53.01c0,0.38,0.1,0.68,0.289,0.89c0.2,0.21,0.44,0.32,0.73,0.32
		c0.279,0,0.51-0.11,0.7-0.31c0.18-0.2,0.28-0.5,0.28-0.88c0-0.34-0.101-0.61-0.291-0.81c-0.18-0.2-0.42-0.3-0.709-0.3
		c-0.341,0-0.591,0.11-0.75,0.34C493.291,52.49,493.21,52.74,493.21,53.01z"/>
	<path fill-rule="evenodd" clip-rule="evenodd" d="M496.39,81.04l1.33-0.16c0.039,0.34,0.16,0.6,0.34,0.78
		c0.189,0.18,0.41,0.27,0.67,0.27c0.29,0,0.529-0.11,0.72-0.33c0.19-0.21,0.29-0.5,0.29-0.87c0-0.34-0.09-0.61-0.279-0.82
		c-0.181-0.2-0.411-0.3-0.681-0.3c-0.17,0-0.38,0.04-0.63,0.1l0.149-1.11c0.381,0.01,0.661-0.07,0.851-0.25
		c0.2-0.17,0.3-0.39,0.3-0.68c0-0.24-0.069-0.43-0.22-0.57c-0.141-0.15-0.33-0.22-0.57-0.22c-0.229,0-0.43,0.08-0.6,0.25
		c-0.17,0.16-0.27,0.4-0.301,0.71l-1.27-0.22c0.09-0.43,0.221-0.77,0.4-1.03c0.18-0.26,0.43-0.47,0.74-0.61
		c0.319-0.15,0.68-0.23,1.069-0.23c0.67,0,1.21,0.22,1.62,0.65c0.34,0.35,0.5,0.75,0.5,1.19c0,0.63-0.34,1.13-1.029,1.5
		c0.409,0.09,0.739,0.29,0.989,0.6c0.24,0.3,0.37,0.67,0.37,1.1c0,0.63-0.23,1.17-0.689,1.61c-0.461,0.44-1.03,0.66-1.721,0.66
		c-0.64,0-1.18-0.18-1.609-0.55C496.71,82.13,496.46,81.64,496.39,81.04z"/>
	<path fill-rule="evenodd" clip-rule="evenodd" d="M504.32,75.75c0.689,0,1.24,0.25,1.63,0.75c0.46,0.58,0.7,1.55,0.7,2.91
		s-0.24,2.33-0.71,2.92c-0.391,0.49-0.931,0.73-1.62,0.73c-0.7,0-1.26-0.26-1.68-0.8C502.21,81.73,502,80.77,502,79.4
		c0-1.35,0.23-2.32,0.7-2.91C503.089,76,503.63,75.75,504.32,75.75z M504.32,76.89c-0.16,0-0.311,0.06-0.439,0.16
		c-0.131,0.11-0.23,0.3-0.311,0.57c-0.09,0.35-0.14,0.95-0.14,1.79s0.04,1.42,0.13,1.73c0.08,0.32,0.189,0.53,0.32,0.63
		c0.129,0.1,0.279,0.16,0.439,0.16c0.17,0,0.32-0.06,0.45-0.16c0.13-0.11,0.229-0.3,0.3-0.57c0.09-0.35,0.141-0.95,0.141-1.79
		s-0.041-1.41-0.131-1.73c-0.08-0.31-0.189-0.52-0.32-0.63C504.63,76.95,504.49,76.89,504.32,76.89z"/>
	<path fill-rule="evenodd" clip-rule="evenodd" d="M491.14,117.04l1.33-0.16c0.039,0.341,0.16,0.601,0.34,0.78
		c0.189,0.18,0.41,0.271,0.67,0.271c0.29,0,0.529-0.11,0.72-0.33c0.19-0.211,0.29-0.5,0.29-0.87c0-0.341-0.09-0.61-0.279-0.82
		c-0.181-0.2-0.411-0.3-0.681-0.3c-0.17,0-0.38,0.04-0.63,0.1l0.149-1.109c0.381,0.01,0.661-0.07,0.851-0.25
		c0.2-0.17,0.3-0.391,0.3-0.681c0-0.239-0.069-0.43-0.22-0.569c-0.14-0.15-0.33-0.221-0.57-0.221c-0.229,0-0.43,0.08-0.6,0.25
		c-0.17,0.16-0.27,0.4-0.301,0.71l-1.27-0.22c0.09-0.431,0.221-0.77,0.4-1.03c0.18-0.26,0.43-0.47,0.74-0.609
		c0.319-0.15,0.68-0.23,1.069-0.23c0.67,0,1.21,0.221,1.62,0.65c0.34,0.35,0.5,0.75,0.5,1.189c0,0.631-0.34,1.131-1.029,1.5
		c0.409,0.091,0.739,0.29,0.989,0.6c0.24,0.301,0.37,0.671,0.37,1.101c0,0.63-0.23,1.17-0.689,1.61
		c-0.461,0.439-1.03,0.659-1.721,0.659c-0.64,0-1.18-0.18-1.609-0.55C491.46,118.13,491.21,117.64,491.14,117.04z"/>
	<path fill-rule="evenodd" clip-rule="evenodd" d="M500.259,118.939h-1.369v-5.169c-0.5,0.47-1.091,0.819-1.771,1.039v-1.239
		c0.36-0.12,0.75-0.34,1.171-0.67c0.409-0.33,0.699-0.711,0.859-1.15h1.109V118.939z"/>
</g>
</svg>
