<?xml version="1.0" encoding="utf-8"?>
<!-- Generator: Adobe Illustrator 14.0.0, SVG Export Plug-In . SVG Version: 6.00 Build 43363)  -->
<!DOCTYPE svg PUBLIC "-//W3C//DTD SVG 1.0//EN" "http://www.w3.org/TR/2001/REC-SVG-20010904/DTD/svg10.dtd">
<svg version="1.0" id="Layer_1" xmlns="http://www.w3.org/2000/svg" xmlns:xlink="http://www.w3.org/1999/xlink" x="0px" y="0px"
	 width="512.899px" height="304.62px" viewBox="0 0 512.899 304.62" enable-background="new 0 0 512.899 304.62"
	 xml:space="preserve">
<polygon fill-rule="evenodd" clip-rule="evenodd" points="341.87,186.13 338.87,179.13 341.5,179.13 341.5,16.68 342.25,16.68 
	342.25,179.13 344.87,179.13 "/>
<polygon fill-rule="evenodd" clip-rule="evenodd" points="495.18,186.13 492.18,179.13 494.811,179.13 494.811,152.6 495.561,152.6 
	495.561,179.13 498.18,179.13 "/>
<polygon fill-rule="evenodd" clip-rule="evenodd" points="17.42,289.35 17.42,195.149 14.79,195.149 17.8,188.149 20.8,195.149 
	18.17,195.149 18.17,289.35 "/>
<polygon fill-rule="evenodd" clip-rule="evenodd" points="171.22,186.13 168.22,179.13 170.84,179.13 170.84,16.68 171.59,16.68 
	171.59,179.13 174.22,179.13 "/>
<g>
	<g>
		<path fill-rule="evenodd" clip-rule="evenodd" d="M20.32,304.62l-0.74-2.271h-3.99l-0.79,2.271h-1.64l4.36-10.88h0.39l4.04,10.88
			H20.32z M17.64,296.55l-1.66,4.73h3.19L17.64,296.55z"/>
	</g>
</g>
<g>
	<g>
		<path fill-rule="evenodd" clip-rule="evenodd" d="M171.33,11.561h-3.06V0.84c1.3-0.07,2.24-0.1,2.82-0.1
			c1.06,0,1.88,0.229,2.46,0.68c0.58,0.46,0.87,1.11,0.87,1.96c0,0.5-0.19,0.96-0.56,1.37c-0.37,0.41-0.78,0.66-1.23,0.77
			c0.85,0.2,1.47,0.541,1.86,1.011c0.39,0.48,0.58,1.12,0.58,1.939c0,0.94-0.35,1.69-1.04,2.25
			C173.34,11.28,172.44,11.561,171.33,11.561z M169.73,2.011V5.09c0.31,0.03,0.69,0.04,1.14,0.04c1.39,0,2.08-0.56,2.08-1.689
			c0-0.99-0.63-1.48-1.91-1.48C170.55,1.96,170.12,1.97,169.73,2.011z M169.73,6.23v4.09c0.5,0.05,0.89,0.07,1.16,0.07
			c0.92,0,1.59-0.171,2.01-0.511c0.42-0.35,0.63-0.899,0.63-1.649c0-0.7-0.2-1.211-0.6-1.54c-0.41-0.33-1.08-0.5-2.02-0.5
			L169.73,6.23z"/>
	</g>
</g>
<g>
	<g>
		<path fill-rule="evenodd" clip-rule="evenodd" d="M344.82,0.57l-0.49,1.26c-0.471-0.34-1.21-0.52-2.21-0.52
			c-0.94,0-1.7,0.409-2.271,1.22C339.28,3.34,339,4.391,339,5.66c0,1.23,0.29,2.22,0.87,2.97c0.59,0.761,1.34,1.14,2.26,1.14
			c1.011,0,1.78-0.35,2.33-1.069l0.8,1.13c-0.85,0.84-1.939,1.26-3.279,1.26c-1.4,0-2.511-0.5-3.311-1.51
			c-0.811-1.01-1.21-2.35-1.21-4c0-1.6,0.431-2.93,1.29-3.99c0.859-1.06,1.97-1.59,3.33-1.59C343.25,0,344.16,0.19,344.82,0.57z"/>
	</g>
</g>
<g>
	<g>
		<path fill-rule="evenodd" clip-rule="evenodd" d="M494.2,148.7h-2.16v-10.73c1.38-0.05,2.26-0.07,2.649-0.07
			c1.49,0,2.681,0.461,3.561,1.37c0.87,0.911,1.311,2.121,1.311,3.63C499.561,146.77,497.77,148.7,494.2,148.7z M493.51,139.29
			v8.021c0.32,0.05,0.73,0.069,1.21,0.069c1.03,0,1.83-0.38,2.421-1.149c0.59-0.771,0.879-1.84,0.879-3.2
			c0-2.54-1.14-3.811-3.42-3.811C494.46,139.22,494.1,139.24,493.51,139.29z"/>
	</g>
</g>
<g>
	<g>
		<path fill-rule="evenodd" clip-rule="evenodd" d="M3.84,183.97H0.78V173.24c1.31-0.061,2.25-0.091,2.82-0.091
			c1.06,0,1.88,0.23,2.46,0.681c0.58,0.46,0.87,1.11,0.87,1.96c0,0.5-0.18,0.95-0.55,1.359c-0.37,0.411-0.78,0.671-1.229,0.771
			C6,178.13,6.62,178.47,7,178.94c0.39,0.47,0.59,1.12,0.59,1.93c0,0.95-0.35,1.7-1.04,2.26C5.86,183.69,4.96,183.97,3.84,183.97z
			 M2.25,174.41v3.09c0.3,0.03,0.69,0.04,1.14,0.04c1.39,0,2.08-0.56,2.08-1.69c0-0.989-0.64-1.489-1.91-1.489
			C3.07,174.36,2.63,174.38,2.25,174.41z M2.25,178.63v4.101c0.5,0.05,0.88,0.069,1.15,0.069c0.92,0,1.589-0.17,2.01-0.52
			c0.43-0.34,0.64-0.89,0.64-1.64c0-0.7-0.2-1.211-0.61-1.551c-0.4-0.329-1.07-0.49-2.01-0.49L2.25,178.63z"/>
		<path fill-rule="evenodd" clip-rule="evenodd" d="M13.59,183.07c-0.55,0.699-1.41,1.05-2.55,1.05c-0.62,0-1.15-0.221-1.6-0.67
			c-0.46-0.45-0.68-1-0.68-1.67c0-0.79,0.35-1.47,1.041-2.02c0.7-0.541,1.58-0.82,2.66-0.82c0.3,0,0.63,0.06,1,0.189
			c0-1.27-0.57-1.899-1.7-1.899c-0.87,0-1.54,0.229-2.01,0.699l-0.58-1.16c0.26-0.22,0.63-0.399,1.089-0.56
			c0.47-0.149,0.911-0.229,1.34-0.229c1.14,0,1.96,0.26,2.48,0.78c0.51,0.52,0.77,1.339,0.77,2.47v2.81c0,0.69,0.21,1.15,0.62,1.38
			v0.69c-0.57,0-0.99-0.08-1.27-0.24S13.71,183.44,13.59,183.07z M13.46,180.12c-0.44-0.101-0.75-0.15-0.92-0.15
			c-0.71,0-1.28,0.18-1.72,0.55c-0.45,0.36-0.67,0.78-0.67,1.28c0,0.811,0.479,1.22,1.439,1.22c0.71,0,1.331-0.329,1.87-1V180.12z"
			/>
		<path fill-rule="evenodd" clip-rule="evenodd" d="M16.53,183.5l0.49-1.32c0.78,0.511,1.4,0.771,1.87,0.771
			c0.86,0,1.29-0.36,1.29-1.09c0-0.511-0.41-0.961-1.24-1.33c-0.64-0.29-1.07-0.52-1.29-0.67c-0.23-0.15-0.42-0.32-0.58-0.511
			c-0.17-0.2-0.29-0.399-0.37-0.619s-0.12-0.45-0.12-0.7c0-0.64,0.23-1.15,0.7-1.511c0.47-0.359,1.09-0.539,1.84-0.539
			c0.57,0,1.29,0.18,2.16,0.539l-0.39,1.291c-0.56-0.44-1.11-0.661-1.67-0.661c-0.33,0-0.61,0.081-0.83,0.241
			c-0.23,0.149-0.34,0.35-0.34,0.59c0,0.5,0.28,0.88,0.85,1.14l1,0.46c0.609,0.28,1.05,0.59,1.33,0.95s0.42,0.8,0.42,1.34
			c0,0.7-0.25,1.25-0.74,1.649c-0.49,0.4-1.18,0.601-2.05,0.601C18.03,184.12,17.26,183.91,16.53,183.5z"/>
		<path fill-rule="evenodd" clip-rule="evenodd" d="M29.72,180.19h-5.65c0,0.909,0.25,1.62,0.75,2.109
			c0.439,0.431,1.02,0.65,1.71,0.65c0.8,0,1.459-0.24,2-0.7l0.58,1c-0.209,0.22-0.54,0.399-0.99,0.561
			c-0.55,0.209-1.17,0.31-1.86,0.31c-0.979,0-1.82-0.34-2.51-1c-0.77-0.74-1.15-1.729-1.15-2.979c0-1.291,0.39-2.33,1.18-3.11
			c0.7-0.7,1.54-1.05,2.5-1.05c1.12,0,1.99,0.319,2.63,0.949c0.61,0.601,0.92,1.4,0.92,2.41
			C29.83,179.641,29.79,179.93,29.72,180.19z M26.34,177.149c-0.62,0-1.14,0.2-1.56,0.601c-0.4,0.38-0.62,0.86-0.68,1.42h4.35
			c0-0.56-0.18-1.029-0.53-1.4C27.53,177.36,27.01,177.149,26.34,177.149z"/>
	</g>
</g>
<g>
	
		<path fill-rule="evenodd" clip-rule="evenodd" fill="none" stroke="#000000" stroke-width="0.37" stroke-linecap="round" stroke-linejoin="round" d="
		M0.75,197.2c21.68,0.569,42.69-0.801,63.93-5.79c20.92-4.91,40.97-12.71,62.12-16.94c21.36-4.279,42.53-4.89,64.13-4.409
		c21.45,0.479,42.88,1.58,64.34,1.56c45.25-0.04,83.32-4.06,128.75,0.529c21.4,2.171,42.5,6.241,63.86,8.671
		c21.41,2.44,42.761,3.01,64.27,2.77"/>
	
		<path fill-rule="evenodd" clip-rule="evenodd" fill="none" stroke="#000000" stroke-width="0.37" stroke-linecap="round" stroke-linejoin="round" d="
		M0.75,207.41c22.15,1.12,43.71-1.93,64.07-11.53c19.92-9.38,37.15-23.14,57.33-32.119c21.55-9.591,41.3-11.5,64.33-10.791
		c11.04,0.341,22.03,1.25,33.04,1.98c10.85,0.71,21.7,1.25,32.58,1.3c22,0.12,43.85-1.859,65.77-2.87
		c22.79-1.04,42.95-0.699,65.521,3.77c21.59,4.28,42.05,12.271,63.409,17.261c21.72,5.07,43.22,6.27,65.35,5.77"/>
	
		<path fill-rule="evenodd" clip-rule="evenodd" fill="none" stroke="#000000" stroke-width="0.37" stroke-linecap="round" stroke-linejoin="round" d="
		M0.75,217.61c23.46,1.75,44.85-3.461,64.24-17.22c18.6-13.211,33.22-30.65,51.33-44.33c19.85-15,38.8-20.5,63.42-20.28
		c11.5,0.1,22.85,1.4,34.25,2.58c11.12,1.15,22.23,2.189,33.42,2.46c25.609,0.63,42.33-2.15,67.699-4.04
		c23.521-1.74,44.331-1.52,67.41,5.15c21.95,6.35,41.45,17.96,62.73,25.659c22.09,7.99,43.76,9.96,66.899,9.19"/>
	
		<path fill-rule="evenodd" clip-rule="evenodd" fill="none" stroke="#000000" stroke-width="0.37" stroke-linecap="round" stroke-linejoin="round" d="
		M0.75,227.811c25.15,2.43,46.23-5.61,64.34-22.8c15.26-14.491,31.81-38.331,45.77-53.791c16.79-18.579,34.29-30.64,60.55-32.3
		c12.11-0.76,23.87,0.65,35.77,2.28c11.47,1.58,22.9,3.27,34.48,3.98c26.689,1.619,44.13-2,70.32-4.801
		c11.609-1.239,23.129-1.989,34.84-1.25c12.09,0.761,23.449,3.14,34.8,7.39c22.46,8.411,40.86,23.271,61.93,33.791
		c22.36,11.159,44.11,14.149,68.6,13.069"/>
	
		<path fill-rule="evenodd" clip-rule="evenodd" fill="none" stroke="#000000" stroke-width="0.37" stroke-linecap="round" stroke-linejoin="round" d="
		M0.75,238.02c27.12,3.19,47.83-8.529,64.51-28.409c14.24-16.95,28.84-43.13,41.11-61.25C114.2,136.8,122.31,126,133.4,117.09
		c8.71-7.01,17.69-11.609,28.73-13.88c12.76-2.63,24.85-1.6,37.43,0.301c11.91,1.8,23.71,4.259,35.71,5.609
		c28.31,3.2,45.871-1.03,73.36-4.92c25.29-3.58,47.95-4.33,72.351,6.84c21.899,10.021,41.1,28.8,60.789,41.5
		c10.931,7.05,22.13,12.04,34.88,14.87c11.831,2.63,23.46,3.23,35.5,2.57"/>
	
		<path fill-rule="evenodd" clip-rule="evenodd" fill="none" stroke="#000000" stroke-width="0.37" stroke-linecap="round" stroke-linejoin="round" d="
		M0.75,248.22c11.59,1.601,22.78,0.03,33.35-5.109c13.24-6.42,23.19-17.15,31.32-28.82c13.4-19.229,26.37-47.12,37.38-67.54
		c7.05-13.069,14.25-25.77,24.09-37.15c7.15-8.25,15.58-15.589,25.81-20.029c12.61-5.471,25.81-5.721,38.95-3.99
		c12.48,1.64,24.63,4.85,37,6.96c30.53,5.2,47.13,0.93,76.581-4.3c26.609-4.721,49.75-6.479,75.279,7.271
		c11.271,6.06,20.74,14,30.1,22.489c9.781,8.87,19.16,18.13,29.521,26.38c10.86,8.66,22.05,15.15,35.6,18.89
		c12.12,3.351,23.96,4.13,36.42,3.311"/>
	
		<path fill-rule="evenodd" clip-rule="evenodd" fill="none" stroke="#000000" stroke-width="0.37" stroke-linecap="round" stroke-linejoin="round" d="
		M0.75,258.431c11.85,1.85,23.11-0.081,33.59-5.971c13.73-7.72,23.52-20.479,31.23-33.43c6.64-11.16,12.12-22.82,17.45-34.62
		c5.8-12.85,11.29-25.83,17.04-38.69c6.35-14.18,12.77-28.18,21.2-41.35c6.1-9.521,13.53-18.91,22.76-25.8
		c25.33-18.9,52.85-8.891,77.83-3.23c14.01,3.18,25.2,4.851,39.68,4.021c13.8-0.8,27-4.021,40.38-6.87
		c27.73-5.91,52.03-8.841,78.449,7.59c11.32,7.03,20.49,15.98,29.521,25.52c9.58,10.131,18.681,20.711,28.8,30.351
		c10.761,10.25,21.82,18.34,36.23,23.13c12.37,4.11,24.359,5.09,37.239,4.11"/>
	
		<path fill-rule="evenodd" clip-rule="evenodd" fill="none" stroke="#000000" stroke-width="0.37" stroke-linecap="round" stroke-linejoin="round" d="
		M0.75,268.63c12.14,2.12,23.46-0.23,33.82-6.83c6.24-3.979,11.3-8.85,15.99-14.489c6.04-7.271,10.82-15.141,15.15-23.471
		c6.25-12.04,11.38-24.5,16.33-37.079c5.45-13.841,10.57-27.811,15.87-41.711c5.73-15,11.53-29.9,18.7-44.31
		c5.54-11.11,11.65-21.479,20.06-30.8c10.85-12.011,23.15-18.9,39.77-19.341c13.65-0.369,25.95,3.48,38.69,6.98
		c14.33,3.939,26.38,6.971,41.53,6.64c14.54-0.31,28.16-3.859,42.03-7.29c28.959-7.16,54.149-11.59,81.56,7.69
		c11.37,7.99,20.26,17.91,28.99,28.44c9.42,11.38,18.27,23.209,28.159,34.22c10.631,11.83,21.48,21.59,36.771,27.56
		c12.58,4.9,24.68,6.11,37.979,4.96"/>
	
		<path fill-rule="evenodd" clip-rule="evenodd" fill="none" stroke="#000000" stroke-width="0.37" stroke-linecap="round" stroke-linejoin="round" d="
		M0.75,278.84c12.45,2.38,23.84-0.43,34.06-7.699c6.37-4.541,11.39-10,16-16.23c6.09-8.21,10.81-17.011,15.06-26.25
		c5.92-12.85,10.75-26.061,15.4-39.391c5.15-14.779,9.95-29.67,14.88-44.52c5.22-15.71,10.5-31.38,16.74-46.73
		c4.99-12.27,10.48-24.079,17.9-35.159c5.29-7.9,11.01-14.87,18.92-20.47c6.16-4.36,12.47-6.98,19.93-8.181
		c13.38-2.14,26.45,1.32,38.76,5.091c14.3,4.39,28.15,9.189,43.54,9.599c15.3,0.411,29.28-3.349,43.65-7.359
		c30.27-8.45,56.29-14.67,84.73,7.721c11.359,8.939,19.99,19.779,28.43,31.229c9.26,12.57,17.87,25.6,27.51,37.909
		c10.49,13.381,21.051,24.881,37.23,32.161c12.38,5.56,25.32,7.14,38.659,5.85"/>
</g>
<path fill-rule="evenodd" clip-rule="evenodd" fill="none" stroke="#000000" stroke-width="1.5" stroke-linecap="round" stroke-linejoin="round" d="
	M0.75,289.32c12.8,2.649,24.25-0.68,34.32-8.61c6.5-5.12,11.47-11.19,16.01-18c6.13-9.19,10.81-18.93,14.99-29.1
	c5.62-13.67,10.21-27.66,14.6-41.761c4.89-15.729,9.43-31.55,14.05-47.35c4.8-16.41,9.63-32.8,15.18-48.989
	c4.58-13.381,9.57-26.48,16.17-39.061c4.95-9.431,10.38-18.149,18.02-25.801c5.63-5.639,11.59-9.759,19.27-12.279
	c12.98-4.28,26.03-1.9,38.3,1.87c15.13,4.659,29.44,11.24,45.71,12.67c16.479,1.45,29.92-2.3,45.18-7.02
	c14.33-4.431,28.181-9.25,43.65-9.491c17.63-0.27,31.409,5.861,44.38,17.241c11.34,9.939,19.72,21.709,27.9,34.09
	c9.09,13.76,17.47,27.97,26.869,41.55c10.061,14.54,21,28.42,37.58,36.88c12.41,6.33,25.53,8.23,39.22,6.771"/>
<line fill-rule="evenodd" clip-rule="evenodd" fill="none" stroke="#000000" stroke-width="1.5" stroke-linecap="round" stroke-linejoin="round" x1="0.75" y1="187" x2="512.149" y2="187"/>
<g>
	
		<path fill-rule="evenodd" clip-rule="evenodd" fill="#FFFFFF" stroke="#000000" stroke-linecap="round" stroke-linejoin="round" d="
		M20.36,289.27c0-1.409-1.15-2.55-2.56-2.55c-1.41,0-2.561,1.141-2.561,2.55c0,1.421,1.15,2.561,2.561,2.561
		C19.21,291.83,20.36,290.69,20.36,289.27z"/>
</g>
<path fill-rule="evenodd" clip-rule="evenodd" fill="#FFFFFF" stroke="#000000" stroke-linecap="round" stroke-linejoin="round" d="
	M173.78,16.53c0-1.41-1.15-2.561-2.56-2.561c-1.41,0-2.56,1.15-2.56,2.561s1.15,2.56,2.56,2.56
	C172.63,19.09,173.78,17.94,173.78,16.53z"/>
<path fill-rule="evenodd" clip-rule="evenodd" fill="#FFFFFF" stroke="#000000" stroke-linecap="round" stroke-linejoin="round" d="
	M344.24,16.53c0-1.41-1.141-2.561-2.561-2.561c-1.41,0-2.55,1.15-2.55,2.561s1.14,2.56,2.55,2.56
	C343.1,19.09,344.24,17.94,344.24,16.53z"/>
<path fill-rule="evenodd" clip-rule="evenodd" fill="#FFFFFF" stroke="#000000" stroke-linecap="round" stroke-linejoin="round" d="
	M497.66,152.899c0-1.409-1.141-2.55-2.561-2.55c-1.41,0-2.55,1.141-2.55,2.55c0,1.411,1.14,2.561,2.55,2.561
	C496.52,155.46,497.66,154.311,497.66,152.899z"/>
</svg>
