<?xml version="1.0" encoding="utf-8"?>
<!-- Generator: Adobe Illustrator 14.0.0, SVG Export Plug-In . SVG Version: 6.00 Build 43363)  -->
<!DOCTYPE svg PUBLIC "-//W3C//DTD SVG 1.0//EN" "http://www.w3.org/TR/2001/REC-SVG-20010904/DTD/svg10.dtd">
<svg version="1.0" id="Layer_1" xmlns="http://www.w3.org/2000/svg" xmlns:xlink="http://www.w3.org/1999/xlink" x="0px" y="0px"
	 width="546.61px" height="144.34px" viewBox="0 0 546.61 144.34" enable-background="new 0 0 546.61 144.34" xml:space="preserve">
<radialGradient id="SVGID_1_" cx="337.6758" cy="20.3003" r="89.3071" gradientUnits="userSpaceOnUse">
	<stop  offset="0" style="stop-color:#FFFFFF"/>
	<stop  offset="0.4062" style="stop-color:#FEFFFD"/>
	<stop  offset="0.5525" style="stop-color:#FCFFF6"/>
	<stop  offset="0.6568" style="stop-color:#F8FFEB"/>
	<stop  offset="0.7412" style="stop-color:#F3FFDA"/>
	<stop  offset="0.8134" style="stop-color:#ECFFC4"/>
	<stop  offset="0.8774" style="stop-color:#E3FFA8"/>
	<stop  offset="0.9353" style="stop-color:#D8FF88"/>
	<stop  offset="0.9867" style="stop-color:#CCFF64"/>
	<stop  offset="1" style="stop-color:#C9FF59"/>
</radialGradient>
<path fill-rule="evenodd" clip-rule="evenodd" fill="url(#SVGID_1_)" d="M338.63,109.98c-8.8,0.1-17.76-1.12-26.64-3.771
	C267.63,92.92,241.22,48.22,249.77,3.69l0.46-1.88l87.45,18.67l88.79-10.83l0.18,1.14c1.271,11.55,0.3,23.54-3.25,35.37
	C411.88,84.61,376.77,109.58,338.63,109.98z"/>
<path fill-rule="evenodd" clip-rule="evenodd" fill="none" stroke="#129E00" stroke-width="0.5" stroke-dasharray="2,2" d="
	M426.78,9.61c2.399,21.07-2.61,43.06-15.771,61.75c-28.51,40.49-84.5,50.209-124.99,21.709C255.96,71.9,242.86,35.58,249.77,1.71"/>
<linearGradient id="SVGID_2_" gradientUnits="userSpaceOnUse" x1="287.1729" y1="94.6836" x2="337.8569" y2="20.3047">
	<stop  offset="0" style="stop-color:#FF0000"/>
	<stop  offset="1" style="stop-color:#D60000"/>
</linearGradient>
<path fill-rule="evenodd" clip-rule="evenodd" fill="url(#SVGID_2_)" d="M286.47,96.46c-0.13,0.029-0.26,0-0.37-0.07
	c-0.229-0.159-0.289-0.47-0.14-0.7l1.13-1.649c0.15-0.23,0.46-0.29,0.69-0.13c0.229,0.149,0.289,0.459,0.14,0.689l-1.13,1.65
	C286.71,96.369,286.6,96.439,286.47,96.46z M288.72,93.16c-0.13,0.02-0.26,0-0.37-0.08c-0.229-0.16-0.289-0.47-0.14-0.7l1.13-1.649
	c0.15-0.23,0.46-0.291,0.69-0.131c0.229,0.15,0.289,0.47,0.14,0.69l-1.13,1.66C288.96,93.06,288.85,93.13,288.72,93.16z
	 M290.97,89.85c-0.13,0.02-0.26,0-0.37-0.08c-0.229-0.15-0.289-0.46-0.14-0.689l1.13-1.66c0.15-0.22,0.46-0.28,0.69-0.13
	c0.229,0.16,0.289,0.47,0.129,0.699l-1.119,1.65C291.21,89.75,291.1,89.83,290.97,89.85z M293.22,86.54
	c-0.13,0.029-0.26,0-0.37-0.08c-0.229-0.15-0.289-0.46-0.14-0.69l1.13-1.65c0.15-0.229,0.46-0.289,0.69-0.139
	c0.229,0.159,0.289,0.47,0.129,0.699l-1.119,1.65C293.46,86.45,293.35,86.52,293.22,86.54z M295.47,83.239
	c-0.13,0.021-0.26,0-0.38-0.079c-0.22-0.16-0.279-0.471-0.13-0.7l1.13-1.65c0.15-0.229,0.46-0.29,0.69-0.13
	c0.229,0.15,0.289,0.46,0.129,0.689l-1.119,1.65C295.71,83.14,295.6,83.21,295.47,83.239z M297.72,79.93
	c-0.13,0.021-0.26,0-0.38-0.08c-0.22-0.16-0.279-0.47-0.13-0.689l1.13-1.66c0.15-0.23,0.46-0.29,0.69-0.131
	c0.229,0.15,0.289,0.471,0.129,0.69l-1.119,1.66C297.96,79.83,297.84,79.9,297.72,79.93z M299.97,76.619
	c-0.13,0.021-0.26,0-0.38-0.079c-0.22-0.15-0.279-0.46-0.13-0.69l1.13-1.66c0.15-0.22,0.46-0.279,0.69-0.13
	c0.229,0.16,0.289,0.471,0.129,0.7l-1.119,1.65C300.21,76.52,300.09,76.6,299.97,76.619z M302.22,73.31c-0.13,0.03-0.26,0-0.38-0.07
	c-0.22-0.16-0.279-0.47-0.13-0.7l1.13-1.65c0.15-0.23,0.46-0.29,0.69-0.14c0.229,0.16,0.289,0.47,0.129,0.7l-1.119,1.65
	C302.46,73.22,302.34,73.29,302.22,73.31z M304.47,70.01c-0.13,0.02-0.26,0-0.38-0.08c-0.22-0.16-0.279-0.47-0.13-0.7l1.13-1.65
	c0.15-0.23,0.46-0.29,0.69-0.13c0.229,0.15,0.289,0.46,0.129,0.69l-1.119,1.66C304.71,69.91,304.59,69.98,304.47,70.01z
	 M306.72,66.7c-0.13,0.02-0.26,0-0.38-0.08c-0.22-0.15-0.279-0.47-0.13-0.69l1.13-1.66c0.15-0.23,0.46-0.29,0.69-0.13
	c0.229,0.16,0.289,0.47,0.129,0.69l-1.119,1.66C306.96,66.6,306.84,66.67,306.72,66.7z M308.97,63.39c-0.13,0.03-0.26,0-0.38-0.08
	c-0.22-0.15-0.279-0.46-0.13-0.69l1.13-1.66c0.15-0.22,0.46-0.28,0.69-0.13c0.229,0.16,0.289,0.47,0.129,0.7l-1.119,1.65
	C309.21,63.3,309.09,63.37,308.97,63.39z M311.22,60.08c-0.13,0.03-0.26,0-0.38-0.07c-0.22-0.16-0.279-0.47-0.13-0.7l1.13-1.65
	c0.15-0.23,0.46-0.29,0.69-0.13c0.229,0.15,0.289,0.46,0.129,0.69l-1.119,1.65C311.46,59.99,311.34,60.06,311.22,60.08z
	 M313.47,56.78c-0.13,0.02-0.26,0-0.38-0.08c-0.22-0.16-0.279-0.47-0.13-0.7l1.13-1.65c0.15-0.23,0.46-0.29,0.69-0.13
	c0.229,0.15,0.289,0.46,0.129,0.69l-1.119,1.66C313.71,56.68,313.59,56.75,313.47,56.78z M315.72,53.47c-0.13,0.02-0.26,0-0.38-0.08
	c-0.229-0.15-0.279-0.47-0.13-0.69l1.13-1.66c0.15-0.23,0.46-0.28,0.69-0.13c0.229,0.16,0.289,0.47,0.129,0.7l-1.119,1.65
	C315.96,53.37,315.84,53.45,315.72,53.47z M317.97,50.16c-0.13,0.03-0.26,0-0.38-0.08c-0.229-0.15-0.279-0.46-0.13-0.69l1.13-1.65
	c0.15-0.23,0.46-0.29,0.69-0.14c0.229,0.16,0.289,0.47,0.129,0.7l-1.119,1.65C318.21,50.07,318.09,50.14,317.97,50.16z
	 M320.22,46.85c-0.13,0.03-0.26,0-0.38-0.07c-0.229-0.16-0.28-0.47-0.13-0.7l1.13-1.65c0.15-0.23,0.46-0.29,0.69-0.13
	c0.229,0.15,0.289,0.46,0.129,0.69l-1.119,1.65C320.46,46.76,320.34,46.83,320.22,46.85z M322.47,43.55c-0.13,0.02-0.26,0-0.38-0.08
	c-0.229-0.16-0.29-0.47-0.13-0.7l1.13-1.65c0.15-0.23,0.46-0.29,0.69-0.13c0.229,0.15,0.289,0.47,0.129,0.69l-1.119,1.66
	C322.71,43.45,322.59,43.52,322.47,43.55z M324.72,40.24c-0.13,0.02-0.26,0-0.38-0.08c-0.229-0.15-0.29-0.46-0.13-0.69l1.12-1.66
	c0.16-0.22,0.47-0.28,0.7-0.13c0.229,0.16,0.289,0.47,0.129,0.7l-1.119,1.65C324.96,40.14,324.84,40.22,324.72,40.24z M326.97,36.93
	c-0.13,0.03-0.26,0-0.38-0.08c-0.229-0.15-0.29-0.46-0.13-0.69l1.12-1.65c0.16-0.23,0.47-0.29,0.7-0.14
	c0.229,0.16,0.289,0.47,0.129,0.7l-1.119,1.65C327.21,36.84,327.09,36.91,326.97,36.93z M329.22,33.63c-0.13,0.02-0.26,0-0.38-0.08
	c-0.229-0.16-0.29-0.47-0.13-0.7l1.12-1.65c0.16-0.23,0.47-0.29,0.7-0.13c0.229,0.15,0.289,0.46,0.129,0.69l-1.119,1.65
	C329.46,33.53,329.34,33.6,329.22,33.63z M331.47,30.32c-0.13,0.02-0.26,0-0.38-0.08c-0.229-0.16-0.29-0.47-0.13-0.69l1.12-1.66
	l0.17-0.11l-2.96-2.01l8.56-5.47l-1.94,9.97l-2.96-2.01l-0.04,0.19l-1.119,1.66C331.71,30.22,331.59,30.29,331.47,30.32z"/>
<g>
	
		<line fill-rule="evenodd" clip-rule="evenodd" fill="none" stroke="#FF0000" stroke-linecap="round" stroke-linejoin="round" x1="316.449" y1="108.67" x2="310.069" y2="143.84"/>
	
		<line fill-rule="evenodd" clip-rule="evenodd" fill="none" stroke="#FF0000" stroke-linecap="round" stroke-linejoin="round" x1="309.87" y1="107.14" x2="300.72" y2="139.39"/>
	
		<line fill-rule="evenodd" clip-rule="evenodd" fill="none" stroke="#FF0000" stroke-linecap="round" stroke-linejoin="round" x1="303.55" y1="105.04" x2="292.28" y2="134.42"/>
	
		<line fill-rule="evenodd" clip-rule="evenodd" fill="none" stroke="#FF0000" stroke-linecap="round" stroke-linejoin="round" x1="297.51" y1="102.42" x2="284.68" y2="129.02"/>
	
		<line fill-rule="evenodd" clip-rule="evenodd" fill="none" stroke="#FF0000" stroke-linecap="round" stroke-linejoin="round" x1="291.79" y1="99.38" x2="277.899" y2="123.27"/>
	
		<line fill-rule="evenodd" clip-rule="evenodd" fill="none" stroke="#FF0000" stroke-linecap="round" stroke-linejoin="round" x1="286.38" y1="95.97" x2="271.93" y2="117.21"/>
	
		<line fill-rule="evenodd" clip-rule="evenodd" fill="none" stroke="#FF0000" stroke-linecap="round" stroke-linejoin="round" x1="281.29" y1="92.26" x2="266.77" y2="110.89"/>
	
		<line fill-rule="evenodd" clip-rule="evenodd" fill="none" stroke="#FF0000" stroke-linecap="round" stroke-linejoin="round" x1="276.5" y1="88.3" x2="262.4" y2="104.38"/>
	
		<line fill-rule="evenodd" clip-rule="evenodd" fill="none" stroke="#FF0000" stroke-linecap="round" stroke-linejoin="round" x1="272.01" y1="84.15" x2="258.82" y2="97.72"/>
	
		<line fill-rule="evenodd" clip-rule="evenodd" fill="none" stroke="#FF0000" stroke-linecap="round" stroke-linejoin="round" x1="267.8" y1="79.86" x2="256.01" y2="90.97"/>
	
		<line fill-rule="evenodd" clip-rule="evenodd" fill="none" stroke="#FF0000" stroke-linecap="round" stroke-linejoin="round" x1="263.82" y1="75.48" x2="253.93" y2="84.15"/>
	
		<line fill-rule="evenodd" clip-rule="evenodd" fill="none" stroke="#FF0000" stroke-linecap="round" stroke-linejoin="round" x1="260.06" y1="71.07" x2="252.55" y2="77.29"/>
	
		<line fill-rule="evenodd" clip-rule="evenodd" fill="none" stroke="#FF0000" stroke-linecap="round" stroke-linejoin="round" x1="256.48" y1="66.65" x2="251.82" y2="70.36"/>
	
		<line fill-rule="evenodd" clip-rule="evenodd" fill="none" stroke="#FF0000" stroke-linecap="round" stroke-linejoin="round" x1="253.03" y1="62.28" x2="251.7" y2="63.32"/>
	
		<line fill-rule="evenodd" clip-rule="evenodd" fill="none" stroke="#FF0000" stroke-linecap="round" stroke-linejoin="round" x1="249.68" y1="58" x2="252.13" y2="56.07"/>
	
		<line fill-rule="evenodd" clip-rule="evenodd" fill="none" stroke="#FF0000" stroke-linecap="round" stroke-linejoin="round" x1="246.38" y1="53.84" x2="253.03" y2="48.48"/>
	
		<line fill-rule="evenodd" clip-rule="evenodd" fill="none" stroke="#FF0000" stroke-linecap="round" stroke-linejoin="round" x1="243.09" y1="49.85" x2="254.25" y2="40.39"/>
	
		<line fill-rule="evenodd" clip-rule="evenodd" fill="none" stroke="#FF0000" stroke-linecap="round" stroke-linejoin="round" x1="239.77" y1="46.07" x2="255.58" y2="31.61"/>
	
		<line fill-rule="evenodd" clip-rule="evenodd" fill="none" stroke="#FF0000" stroke-linecap="round" stroke-linejoin="round" x1="236.37" y1="42.53" x2="256.63" y2="22.01"/>
	
		<line fill-rule="evenodd" clip-rule="evenodd" fill="none" stroke="#FF0000" stroke-linecap="round" stroke-linejoin="round" x1="232.86" y1="39.28" x2="256.88" y2="11.56"/>
	
		<line fill-rule="evenodd" clip-rule="evenodd" fill="none" stroke="#FF0000" stroke-linecap="round" stroke-linejoin="round" x1="229.21" y1="36.35" x2="255.62" y2="0.5"/>
</g>
<path fill-rule="evenodd" clip-rule="evenodd" fill="none" stroke="#000000" stroke-linecap="round" stroke-linejoin="round" stroke-dasharray="1,2" d="
	M255.62,0.5c0.68,3.65,1.11,7.43,1.26,11.06c0.15,3.63,0.01,7.11-0.25,10.45s-0.63,6.54-1.05,9.6c-0.42,3.06-0.89,5.98-1.33,8.78
	c-0.44,2.8-0.86,5.49-1.22,8.09c-0.36,2.6-0.67,5.12-0.9,7.59c-0.22,2.46-0.37,4.87-0.43,7.25c-0.05,2.38-0.02,4.72,0.12,7.04
	c0.14,2.33,0.38,4.64,0.73,6.93c0.35,2.3,0.8,4.59,1.38,6.86c0.57,2.279,1.27,4.56,2.08,6.819c0.81,2.261,1.75,4.511,2.81,6.75
	c1.07,2.24,2.26,4.46,3.58,6.66c1.32,2.189,2.78,4.37,4.37,6.51c1.58,2.141,3.31,4.25,5.16,6.32c1.86,2.06,3.851,4.08,5.97,6.06
	c2.131,1.97,4.381,3.891,6.78,5.75c2.4,1.86,4.931,3.67,7.601,5.4c2.66,1.729,5.46,3.38,8.439,4.97c2.99,1.591,6.17,3.11,9.35,4.45"
	/>
<path d="M228.34,37.58c-2.66-1.9-5.38-3.58-8.33-4.91c-0.75-0.33-1.51-0.64-2.28-0.93c-0.29-0.11-0.57-0.21-0.86-0.31
	c-0.09-0.03-0.19-0.07-0.29-0.1c-0.01-0.01-0.02-0.01-0.04-0.02c-0.01,0-0.03,0-0.04-0.01c-0.01,0-0.03-0.01-0.04-0.01
	c-0.01-0.01-0.03-0.01-0.04-0.02c-0.08-0.02-0.03-0.01-0.01,0c-1.7-0.52-3.44-1.01-5.25-1.33c-1.7-0.31-3.44-0.54-5.26-0.6
	c-1.46-0.05-2.96-0.08-4.41,0.02c-2.49,0.17-4.89,0.47-7.22,0.94c-4.75,0.96-9.19,2.5-13.54,4.25c0.01,0,0.15-0.06-0.07,0.03
	c-0.11,0.05-0.22,0.09-0.33,0.14c-0.11,0.04-0.22,0.09-0.33,0.14c-0.3,0.12-0.6,0.25-0.9,0.38c-0.85,0.36-1.69,0.74-2.52,1.13
	c-3.62,1.66-7.18,3.51-10.64,5.49c-8.54,4.88-16.73,10.44-24.84,16.24c-3.3,2.36-6.58,4.77-9.9,7.13l0,0
	c-16.56,11.93-33.03,24.18-51.42,32.43c-7.12,3.2-14.47,5.81-22.35,7.5c-5.74,1.229-11.82,1.85-18.209,1.7
	c-1.09-0.021-2.17-0.08-3.24-0.16c-6.11-0.44-11.79-1.641-17.21-3.44c-4.58-1.529-8.98-3.57-13.07-6.08
	c-1.95-1.19-3.84-2.51-5.7-3.88c1.33,0.9,2.63,1.811,4,2.62c2.54,1.49,5.12,2.87,7.83,4.05c7.75,3.36,16.18,5.3,25.479,5.61
	c2.59,0.09,5.24-0.011,7.75-0.18c-0.05,0.02,0.13-0.011,0.13-0.011c0.1-0.01,0.2-0.021,0.3-0.029c0.1-0.011,0.2-0.011,0.3-0.021
	c0.5-0.04,0.99-0.09,1.49-0.15c2.01-0.2,3.97-0.5,5.91-0.85c6.11-1.101,11.86-2.89,17.46-5.03c5.9-2.25,11.55-5.029,17.07-8.05
	c7.18-3.94,14.12-8.42,20.93-13.13c4.87-3.38,9.7-6.87,14.49-10.4c2.15-1.58,4.32-3.12,6.44-4.73c0.01,0,0.14-0.1,0.14-0.1
	c0.22-0.16,0.43-0.32,0.64-0.47c0.48-0.35,0.95-0.7,1.43-1.05c1.45-1.06,2.89-2.12,4.34-3.17c5.92-4.31,11.86-8.58,17.96-12.53
	c3.97-2.57,7.99-5.03,12.1-7.34c3.35-1.89,6.8-3.64,10.31-5.2c4.34-1.92,8.77-3.67,13.46-4.89c2.13-0.56,4.3-1.01,6.54-1.38
	c3.18-0.51,6.68-0.72,10.08-0.49c2.03,0.13,3.96,0.36,5.85,0.74c2.94,0.59,5.73,1.47,8.39,2.63c1.33,0.58,2.62,1.24,3.9,1.93
	c1.87,1.01,3.62,2.22,5.38,3.47c0.67,0.48,0.82,1.42,0.34,2.09C229.95,37.91,229.02,38.06,228.34,37.58z"/>
<path fill-rule="evenodd" clip-rule="evenodd" fill="none" stroke="#000000" stroke-width="3" stroke-linecap="round" stroke-linejoin="round" d="
	M229.22,36.36c8.05,5.92,14.48,14.03,20.24,21.36c10.96,13.94,21.45,27.61,36.5,37.96c9.13,6.29,19.5,11.01,30.489,13"/>
<path d="M316.699,107.2c3.381,0.619,6.881,0.96,10.541,1.01c-0.011,0-0.021,0-0.03,0c18.64,0.22,32.939-8.17,46-19.28
	c-0.07,0.07,0.1-0.09,0.18-0.16c0.141-0.109,0.27-0.229,0.4-0.34c0.13-0.12,0.26-0.229,0.4-0.35c0.59-0.511,1.18-1.03,1.77-1.55
	c2.51-2.25,5.02-4.57,7.48-6.94c4.819-4.62,9.609-9.33,14.489-13.82c9.82-9.04,20.24-16.82,32.12-21.76
	c5.98-2.48,12.311-4.22,19.01-5.25c5.7-0.88,11.75-1.22,17.87-1.04c8.04,0.24,15.7,1.37,23.11,2.93
	c14.43,3.05,28.05,7.65,41.25,13.16c2.75,1.15,5.47,2.34,8.18,3.54c2.4,1.06,4.76,2.19,7.141,3.26c-2.69-1.12-5.381-2.26-8.091-3.36
	c-7.92-3.21-15.93-6.19-24.159-8.76c-5.291-1.66-10.681-3.18-16.161-4.43c-1.369-0.31-2.729-0.62-4.1-0.91
	c-0.51-0.11-1.02-0.22-1.53-0.32c-0.18-0.04-0.359-0.07-0.539-0.11c-0.15-0.03-0.301-0.06-0.45-0.09c-0.14-0.03-0.11-0.02-0.08-0.02
	c-2.38-0.44-4.761-0.9-7.19-1.27c-3.32-0.5-6.67-0.91-10.11-1.2c-4.43-0.36-9.14-0.45-13.68-0.24c-2.27,0.11-4.489,0.32-6.689,0.54
	c0.069,0-0.09,0.01-0.16,0.02c-0.12,0.02-0.24,0.03-0.36,0.05c-0.54,0.07-1.08,0.13-1.61,0.2c-0.989,0.15-1.979,0.31-2.97,0.47
	c-1.449,0.23-2.89,0.54-4.3,0.86c-2.59,0.59-5.149,1.29-7.61,2.13c-5.68,1.94-11.05,4.43-16.129,7.53
	c-2.641,1.61-5.2,3.33-7.721,5.18c-2.41,1.76-4.75,3.67-7.07,5.6c0.05-0.05-0.119,0.1-0.14,0.12c-0.08,0.07-0.17,0.14-0.25,0.21
	c-0.25,0.22-0.5,0.43-0.75,0.65c-0.7,0.61-1.399,1.23-2.101,1.85c-1.949,1.73-3.869,3.52-5.77,5.33
	c-5.08,4.811-10.08,9.83-15.17,14.6c-4.029,3.791-8.15,7.431-12.45,10.671c-3.149,2.38-6.37,4.57-9.72,6.52
	c-9.27,5.4-19.52,8.72-31.41,8.78c-4.16,0.029-8.13-0.37-11.94-1.05c-0.819-0.141-1.369-0.921-1.229-1.74
	C315.11,107.61,315.89,107.06,316.699,107.2z"/>
<path fill-rule="evenodd" clip-rule="evenodd" fill="#FFFFFF" stroke="#000000" d="M226.91,36.46c0-1.2,0.98-2.17,2.18-2.17
	s2.17,0.97,2.17,2.17c0,1.2-0.97,2.18-2.17,2.18S226.91,37.66,226.91,36.46z"/>
<path fill-rule="evenodd" clip-rule="evenodd" fill="#FFFFFF" stroke="#000000" d="M314.319,108.61c0-1.2,0.98-2.171,2.181-2.171
	c1.199,0,2.17,0.971,2.17,2.171c0,1.199-0.971,2.18-2.17,2.18C315.3,110.79,314.319,109.81,314.319,108.61z"/>
<text transform="matrix(1 0 0 1 222.1797 46.98)"><tspan x="0" y="0" font-family="'Arial-ItalicMT'" font-size="12">t</tspan><tspan x="3.334" y="1" font-family="'ArialMT'" font-size="6">0</tspan></text>
<text transform="matrix(1 0 0 1 315.1797 103.8496)"><tspan x="0" y="0" font-family="'Arial-ItalicMT'" font-size="12">t</tspan><tspan x="3.334" y="1" font-family="'ArialMT'" font-size="6">1</tspan></text>
<text transform="matrix(1 0 0 1 336.5498 19.3599)" fill="#E00000" font-family="'Arial-BoldMT'" font-size="10">C</text>
</svg>
