<?xml version="1.0" encoding="utf-8"?>
<!-- Generator: Adobe Illustrator 14.0.0, SVG Export Plug-In . SVG Version: 6.00 Build 43363)  -->
<!DOCTYPE svg PUBLIC "-//W3C//DTD SVG 1.0//EN" "http://www.w3.org/TR/2001/REC-SVG-20010904/DTD/svg10.dtd">
<svg version="1.0" xmlns="http://www.w3.org/2000/svg" xmlns:xlink="http://www.w3.org/1999/xlink" x="0px" y="0px"
	 width="207.37px" height="398.733px" viewBox="0 0 207.37 398.733" enable-background="new 0 0 207.37 398.733"
	 xml:space="preserve">
<g id="Extension">
	
		<polyline fill-rule="evenodd" clip-rule="evenodd" fill="none" stroke="#000000" stroke-linecap="round" stroke-dasharray="2,2" points="
		126.42,333.763 140.16,329.513 140.629,362.523 126.741,369.104 	"/>
	
		<polyline fill-rule="evenodd" clip-rule="evenodd" fill="none" stroke="#000000" stroke-linecap="round" stroke-dasharray="2,2" points="
		137.28,300.163 156.01,298.273 156.68,331.583 137.75,335.523 	"/>
	
		<polyline fill-rule="evenodd" clip-rule="evenodd" fill="none" stroke="#000000" stroke-linecap="round" stroke-dasharray="2,2" points="
		148,265.653 172.8,265.703 173.7,299.743 148.621,301.313 	"/>
	
		<polyline fill-rule="evenodd" clip-rule="evenodd" fill="none" stroke="#000000" stroke-linecap="round" stroke-dasharray="2,2" points="
		155.64,229.693 185.041,230.913 186.14,265.653 156.379,265.613 	"/>
	
		<polyline fill-rule="evenodd" clip-rule="evenodd" fill="none" stroke="#000000" stroke-linecap="round" stroke-dasharray="2,2" points="
		162.45,191.423 197.36,192.393 198.68,228.483 163.3,227.974 	"/>
	
		<polyline fill-rule="evenodd" clip-rule="evenodd" fill="none" stroke="#000000" stroke-linecap="round" stroke-dasharray="2,2" points="
		164.74,152.453 201.621,152.803 203.05,189.313 165.64,189.073 	"/>
	
		<polyline fill-rule="evenodd" clip-rule="evenodd" fill="none" stroke="#000000" stroke-linecap="round" stroke-dasharray="2,2" points="
		165.58,108.953 205.28,105.153 206.85,143.393 166.53,146.333 	"/>
	
		<polyline fill-rule="evenodd" clip-rule="evenodd" fill="none" stroke="#000000" stroke-linecap="round" stroke-dasharray="2,2" points="
		162.791,64.693 202.339,56.023 203.94,95.223 163.72,102.393 	"/>
	
		<line fill-rule="evenodd" clip-rule="evenodd" fill="none" stroke="#000000" stroke-linecap="round" stroke-dasharray="2,2" x1="156.71" y1="55.373" x2="155.86" y2="17.263"/>
	
		<polyline fill-rule="evenodd" clip-rule="evenodd" fill="none" stroke="#000000" stroke-linecap="round" stroke-dasharray="2,2" points="
		155.86,17.263 192.22,0.763 193.73,41.153 156.71,55.373 	"/>
	
		<line fill-rule="evenodd" clip-rule="evenodd" fill="none" stroke="#000000" stroke-linecap="round" stroke-dasharray="2,2" x1="54.72" y1="46.623" x2="54.08" y2="80.593"/>
	
		<polyline fill-rule="evenodd" clip-rule="evenodd" fill="none" stroke="#000000" stroke-linecap="round" stroke-dasharray="2,2" points="
		10.8,84.613 13.95,53.303 44.97,46.623 44.32,80.593 	"/>
	
		<line fill-rule="evenodd" clip-rule="evenodd" fill="none" stroke="#000000" stroke-linecap="round" stroke-dasharray="2,2" x1="54.72" y1="46.623" x2="87.72" y2="39.603"/>
	
		<line fill-rule="evenodd" clip-rule="evenodd" fill="none" stroke="#000000" stroke-linecap="round" stroke-dasharray="2,2" x1="87.72" y1="39.603" x2="87.52" y2="74.563"/>
	
		<line fill-rule="evenodd" clip-rule="evenodd" fill="none" stroke="#000000" stroke-linecap="round" stroke-dasharray="2,2" x1="87.52" y1="74.563" x2="54.08" y2="80.593"/>
	
		<line fill-rule="evenodd" clip-rule="evenodd" fill="none" stroke="#000000" stroke-linecap="round" stroke-dasharray="2,2" x1="87.72" y1="39.603" x2="121.25" y2="29.983"/>
	
		<line fill-rule="evenodd" clip-rule="evenodd" fill="none" stroke="#000000" stroke-linecap="round" stroke-dasharray="2,2" x1="121.25" y1="29.983" x2="121.541" y2="66.303"/>
	
		<line fill-rule="evenodd" clip-rule="evenodd" fill="none" stroke="#000000" stroke-linecap="round" stroke-dasharray="2,2" x1="121.541" y1="66.303" x2="87.52" y2="74.563"/>
	
		<line fill-rule="evenodd" clip-rule="evenodd" fill="none" stroke="#000000" stroke-linecap="round" stroke-dasharray="2,2" x1="121.25" y1="29.983" x2="155.86" y2="17.263"/>
	
		<line fill-rule="evenodd" clip-rule="evenodd" fill="none" stroke="#000000" stroke-linecap="round" stroke-dasharray="2,2" x1="156.71" y1="55.373" x2="121.541" y2="66.303"/>
</g>
<g id="Nested">
	
		<polygon fill-rule="evenodd" clip-rule="evenodd" fill="#E3E3E3" stroke="#000000" stroke-linecap="round" stroke-linejoin="round" points="
		107.02,376.033 106.95,338.243 126.42,333.763 126.741,369.104 	"/>
	
		<polygon fill-rule="evenodd" clip-rule="evenodd" fill="#E3E3E3" stroke="#000000" stroke-linecap="round" stroke-linejoin="round" points="
		80.93,383.163 81.23,342.833 106.95,338.243 107.02,376.033 	"/>
	
		<polygon fill-rule="evenodd" clip-rule="evenodd" fill="#E3E3E3" stroke="#000000" stroke-linecap="round" stroke-linejoin="round" points="
		48.18,390.233 48.99,347.394 81.23,342.833 80.93,383.163 	"/>
	
		<polygon fill-rule="evenodd" clip-rule="evenodd" fill="#E3E3E3" stroke="#000000" stroke-linecap="round" stroke-linejoin="round" points="
		48.99,347.394 49.79,305.833 84.25,304.003 84,343.554 	"/>
	
		<polygon fill-rule="evenodd" clip-rule="evenodd" fill="#E3E3E3" stroke="#000000" stroke-linecap="round" stroke-linejoin="round" points="
		84,343.554 84.25,304.003 113.43,302.083 113.6,339.543 	"/>
	
		<polygon fill-rule="evenodd" clip-rule="evenodd" fill="#E3E3E3" stroke="#000000" stroke-linecap="round" stroke-linejoin="round" points="
		113.6,339.543 113.43,302.083 137.28,300.163 137.75,335.523 	"/>
	
		<polygon fill-rule="evenodd" clip-rule="evenodd" fill="#E3E3E3" stroke="#000000" stroke-linecap="round" stroke-linejoin="round" points="
		49.79,305.833 50.55,265.503 86.79,265.554 86.58,304.394 	"/>
	
		<polygon fill-rule="evenodd" clip-rule="evenodd" fill="#E3E3E3" stroke="#000000" stroke-linecap="round" stroke-linejoin="round" points="
		86.58,304.394 86.79,265.554 119.33,265.604 119.58,302.883 	"/>
	
		<polygon fill-rule="evenodd" clip-rule="evenodd" fill="#E3E3E3" stroke="#000000" stroke-linecap="round" stroke-linejoin="round" points="
		119.58,302.883 119.33,265.604 148,265.653 148.621,301.313 	"/>
	
		<polygon fill-rule="evenodd" clip-rule="evenodd" fill="#E3E3E3" stroke="#000000" stroke-linecap="round" stroke-linejoin="round" points="
		50.55,265.503 51.3,226.363 88.59,227.394 88.41,265.543 	"/>
	
		<polygon fill-rule="evenodd" clip-rule="evenodd" fill="#E3E3E3" stroke="#000000" stroke-linecap="round" stroke-linejoin="round" points="
		88.41,265.543 88.59,227.394 123.45,228.513 123.76,265.573 	"/>
	
		<polygon fill-rule="evenodd" clip-rule="evenodd" fill="#E3E3E3" stroke="#000000" stroke-linecap="round" stroke-linejoin="round" points="
		123.76,265.573 123.45,228.513 155.64,229.693 156.379,265.613 	"/>
	
		<polygon fill-rule="evenodd" clip-rule="evenodd" fill="#E3E3E3" stroke="#000000" stroke-linecap="round" stroke-linejoin="round" points="
		126.97,227.453 126.621,190.423 162.45,191.423 163.3,227.974 	"/>
	
		<polygon fill-rule="evenodd" clip-rule="evenodd" fill="#E3E3E3" stroke="#000000" stroke-linecap="round" stroke-linejoin="round" points="
		89.65,226.913 89.82,189.403 126.621,190.423 126.97,227.453 	"/>
	
		<polygon fill-rule="evenodd" clip-rule="evenodd" fill="#E3E3E3" stroke="#000000" stroke-linecap="round" stroke-linejoin="round" points="
		51.3,226.363 52.02,188.343 89.82,189.403 89.65,226.913 	"/>
	
		<polygon fill-rule="evenodd" clip-rule="evenodd" fill="#E3E3E3" stroke="#000000" stroke-linecap="round" stroke-linejoin="round" points="
		128,188.833 127.629,152.113 164.74,152.453 165.64,189.073 	"/>
	
		<polygon fill-rule="evenodd" clip-rule="evenodd" fill="#E3E3E3" stroke="#000000" stroke-linecap="round" stroke-linejoin="round" points="
		90.13,188.583 90.29,151.763 127.629,152.113 128,188.833 	"/>
	
		<polygon fill-rule="evenodd" clip-rule="evenodd" fill="#E3E3E3" stroke="#000000" stroke-linecap="round" stroke-linejoin="round" points="
		52.02,188.343 52.73,151.403 90.29,151.763 90.13,188.583 	"/>
	
		<polygon fill-rule="evenodd" clip-rule="evenodd" fill="#E3E3E3" stroke="#000000" stroke-linecap="round" stroke-linejoin="round" points="
		52.73,151.403 53.41,115.503 90.1,114.063 89.94,150.293 	"/>
	
		<polygon fill-rule="evenodd" clip-rule="evenodd" fill="#E3E3E3" stroke="#000000" stroke-linecap="round" stroke-linejoin="round" points="
		89.94,150.293 90.1,114.063 127.339,111.893 127.72,148.613 	"/>
	
		<polygon fill-rule="evenodd" clip-rule="evenodd" fill="#FFBD00" stroke="#000000" stroke-linecap="round" stroke-linejoin="round" points="
		127.72,148.613 127.339,111.893 165.58,108.953 166.53,146.333 	"/>
	
		<polygon fill-rule="evenodd" clip-rule="evenodd" fill="#E3E3E3" stroke="#000000" stroke-linecap="round" stroke-linejoin="round" points="
		53.41,115.503 54.08,80.593 89.27,76.753 89.1,112.333 	"/>
	
		<polygon fill-rule="evenodd" clip-rule="evenodd" fill="#E3E3E3" stroke="#000000" stroke-linecap="round" stroke-linejoin="round" points="
		89.1,112.333 89.27,76.753 125.32,71.513 125.67,108.023 	"/>
	
		<polygon fill-rule="evenodd" clip-rule="evenodd" fill="#E3E3E3" stroke="#000000" stroke-linecap="round" stroke-linejoin="round" points="
		125.67,108.023 125.32,71.513 162.791,64.693 163.72,102.393 	"/>
</g>
<g id="BaseArray">
	
		<polygon fill-rule="evenodd" clip-rule="evenodd" fill="#CCCCCC" stroke="#000000" stroke-linecap="round" stroke-linejoin="round" points="
		0.6,351.713 39.24,347.394 38.42,390.233 1.31,398.233 	"/>
	
		<polygon fill-rule="evenodd" clip-rule="evenodd" fill="#CCCCCC" stroke="#000000" stroke-linecap="round" stroke-linejoin="round" points="
		0.5,307.483 40.03,305.833 39.24,347.394 0.6,351.713 	"/>
	
		<polygon fill-rule="evenodd" clip-rule="evenodd" fill="#CCCCCC" stroke="#000000" stroke-linecap="round" stroke-linejoin="round" points="
		0.97,265.474 40.8,265.503 40.03,305.833 0.5,307.483 	"/>
	
		<polygon fill-rule="evenodd" clip-rule="evenodd" fill="#CCCCCC" stroke="#000000" stroke-linecap="round" stroke-linejoin="round" points="
		2,225.573 41.54,226.363 40.8,265.503 0.97,265.474 	"/>
	
		<polygon fill-rule="evenodd" clip-rule="evenodd" fill="#CCCCCC" stroke="#000000" stroke-linecap="round" stroke-linejoin="round" points="
		3.54,187.683 42.27,188.343 41.54,226.363 2,225.573 	"/>
	
		<polygon fill-rule="evenodd" clip-rule="evenodd" fill="#CCCCCC" stroke="#000000" stroke-linecap="round" stroke-linejoin="round" points="
		5.55,151.653 42.97,151.403 42.27,188.343 3.54,187.683 	"/>
	
		<polygon fill-rule="evenodd" clip-rule="evenodd" fill="#CCCCCC" stroke="#000000" stroke-linecap="round" stroke-linejoin="round" points="
		7.98,117.353 43.65,115.503 42.97,151.403 5.55,151.653 	"/>
	
		<polygon fill-rule="evenodd" clip-rule="evenodd" fill="#CCCCCC" stroke="#000000" stroke-linecap="round" stroke-linejoin="round" points="
		10.8,84.613 44.32,80.593 43.65,115.503 7.98,117.353 	"/>
</g>
<g id="Text">
	<g>
		<path d="M3.299,357.871c0-1.172,0.286-2.162,0.858-2.971s1.337-1.213,2.294-1.213c1.996,0,2.994,1.457,2.994,4.371
			c0,1.363-0.27,2.451-0.809,3.264s-1.295,1.219-2.268,1.219c-1.047,0-1.82-0.375-2.32-1.125S3.299,359.484,3.299,357.871z
			 M6.422,354.918c-1.027,0-1.541,1.02-1.541,3.059c0,1.145,0.111,1.986,0.334,2.525s0.592,0.809,1.107,0.809
			c0.559,0,0.955-0.243,1.189-0.729s0.352-1.353,0.352-2.599c0-1.16-0.112-1.961-0.337-2.402S6.934,354.918,6.422,354.918
			L6.422,354.918z"/>
	</g>
	<g>
		<path d="M5.814,318.924v-6.188l-1.746,1.049v-1.465c1.121-0.543,2.008-1.215,2.66-2.016h0.609v8.619H5.814z"/>
	</g>
	<g>
		<path d="M3.018,276.924v-0.445l2.719-4.002c0.543-0.801,0.814-1.475,0.814-2.021c0-0.648-0.389-0.973-1.166-0.973
			c-0.594,0-1.072,0.314-1.436,0.943l-1.025-0.809c0.203-0.41,0.522-0.751,0.958-1.022s0.917-0.407,1.444-0.407
			c0.879,0,1.566,0.2,2.063,0.601s0.744,0.956,0.744,1.667c0,0.652-0.318,1.465-0.955,2.438L5.42,275.57h3.223v1.354H3.018z"/>
	</g>
	<g>
		<path d="M5.918,237.291c-0.867,0-1.607-0.279-2.221-0.838l0.762-1.178c0.453,0.48,0.945,0.721,1.477,0.721
			c0.969,0,1.453-0.455,1.453-1.365c0-0.414-0.141-0.751-0.422-1.011s-0.66-0.39-1.137-0.39h-0.27v-1.254H5.79
			c0.875,0,1.313-0.365,1.313-1.096c0-0.766-0.408-1.148-1.225-1.148c-0.422,0-0.832,0.199-1.23,0.598l-0.715-1.049
			c0.184-0.227,0.471-0.424,0.861-0.592s0.781-0.252,1.172-0.252c0.855,0,1.522,0.195,2.001,0.586s0.718,0.938,0.718,1.641
			c0,0.836-0.359,1.473-1.078,1.91c0.91,0.438,1.365,1.152,1.365,2.145c0,0.816-0.271,1.449-0.812,1.898
			S6.872,237.291,5.918,237.291L5.918,237.291z"/>
	</g>
	<g>
		<path d="M10.875,196.309v2.244H9.411v-2.244H5.502v-0.873l4.705-5.502h0.668v5.168h0.867v1.207H10.875z M9.411,192.523
			l-2.203,2.578h2.203V192.523z"/>
	</g>
	<g>
		<path d="M9.406,163.041c-0.844,0-1.58-0.256-2.209-0.768L7.8,161.02c0.621,0.484,1.154,0.727,1.6,0.727
			c0.984,0,1.477-0.605,1.477-1.816c0-0.582-0.111-1.007-0.334-1.274s-0.596-0.401-1.119-0.401c-0.473,0-0.934,0.232-1.383,0.697
			l-0.604-0.393v-4.254h4.623v1.295H8.902v1.535c0.258-0.117,0.566-0.176,0.926-0.176c0.844,0,1.493,0.244,1.948,0.732
			s0.683,1.18,0.683,2.074C12.458,161.949,11.441,163.041,9.406,163.041L9.406,163.041z"/>
	</g>
	<g>
		<path d="M13.683,120.42l0.809,0.855c-0.582,0.305-1.111,0.705-1.588,1.201s-0.805,0.986-0.984,1.471
			c0.406-0.184,0.758-0.275,1.055-0.275c0.809,0,1.458,0.251,1.948,0.753s0.735,1.181,0.735,2.036c0,0.844-0.251,1.526-0.753,2.048
			s-1.136,0.782-1.901,0.782c-2,0-3-1.248-3-3.744c0-1.047,0.386-2.106,1.157-3.179S12.773,120.646,13.683,120.42z M12.898,124.967
			c-0.875,0-1.313,0.488-1.313,1.465c0,1.043,0.443,1.564,1.33,1.564c0.363,0,0.652-0.13,0.867-0.39s0.322-0.622,0.322-1.087
			c0-0.477-0.112-0.854-0.337-1.134S13.253,124.967,12.898,124.967L12.898,124.967z"/>
	</g>
	<g>
		<path d="M14.256,94.674h-1.67c0.637-1.961,1.73-4.365,3.281-7.213h-3.932v-1.406h5.918v0.65l-0.773,1.459
			c-0.254,0.492-0.521,1.03-0.803,1.614s-0.555,1.178-0.82,1.781s-0.5,1.168-0.703,1.693S14.385,94.252,14.256,94.674z"/>
	</g>
	<g>
		<path d="M21.74,63.66l-4.166-5.432v5.32h-1.465v-8.59h0.732l4.055,5.18v-5.18h1.465v8.701H21.74z"/>
	</g>
	<g>
		<path d="M50.93,353.371c0-1.172,0.286-2.162,0.858-2.971s1.337-1.213,2.294-1.213c1.996,0,2.994,1.457,2.994,4.371
			c0,1.363-0.27,2.451-0.809,3.264s-1.295,1.219-2.268,1.219c-1.047,0-1.82-0.375-2.32-1.125S50.93,354.984,50.93,353.371z
			 M54.053,350.418c-1.027,0-1.541,1.02-1.541,3.059c0,1.145,0.111,1.986,0.334,2.525s0.592,0.809,1.107,0.809
			c0.559,0,0.955-0.243,1.189-0.729s0.352-1.353,0.352-2.599c0-1.16-0.112-1.961-0.337-2.402S54.564,350.418,54.053,350.418
			L54.053,350.418z"/>
	</g>
	<g>
		<path d="M51.68,312.5c0-1.172,0.286-2.162,0.858-2.971s1.337-1.213,2.294-1.213c1.996,0,2.994,1.457,2.994,4.371
			c0,1.363-0.27,2.451-0.809,3.264s-1.295,1.219-2.268,1.219c-1.047,0-1.82-0.375-2.32-1.125S51.68,314.113,51.68,312.5z
			 M54.803,309.547c-1.027,0-1.541,1.02-1.541,3.059c0,1.145,0.111,1.986,0.334,2.525s0.592,0.809,1.107,0.809
			c0.559,0,0.955-0.243,1.189-0.729s0.352-1.353,0.352-2.599c0-1.16-0.112-1.961-0.337-2.402S55.314,309.547,54.803,309.547
			L54.803,309.547z"/>
	</g>
	<g>
		<path d="M52.049,271.621c0-1.172,0.286-2.162,0.858-2.971s1.337-1.213,2.294-1.213c1.996,0,2.994,1.457,2.994,4.371
			c0,1.363-0.27,2.451-0.809,3.264s-1.295,1.219-2.268,1.219c-1.047,0-1.82-0.375-2.32-1.125S52.049,273.234,52.049,271.621z
			 M55.172,268.668c-1.027,0-1.541,1.02-1.541,3.059c0,1.145,0.111,1.986,0.334,2.525s0.592,0.809,1.107,0.809
			c0.559,0,0.955-0.243,1.189-0.729s0.352-1.353,0.352-2.599c0-1.16-0.112-1.961-0.337-2.402S55.684,268.668,55.172,268.668
			L55.172,268.668z"/>
	</g>
	<g>
		<path d="M52.799,232.621c0-1.172,0.286-2.162,0.858-2.971s1.337-1.213,2.294-1.213c1.996,0,2.994,1.457,2.994,4.371
			c0,1.363-0.27,2.451-0.809,3.264s-1.295,1.219-2.268,1.219c-1.047,0-1.82-0.375-2.32-1.125S52.799,234.234,52.799,232.621z
			 M55.922,229.668c-1.027,0-1.541,1.02-1.541,3.059c0,1.145,0.111,1.986,0.334,2.525s0.592,0.809,1.107,0.809
			c0.559,0,0.955-0.243,1.189-0.729s0.352-1.353,0.352-2.599c0-1.16-0.112-1.961-0.337-2.402S56.434,229.668,55.922,229.668
			L55.922,229.668z"/>
	</g>
	<g>
		<path d="M53.549,194.75c0-1.172,0.286-2.162,0.858-2.971s1.337-1.213,2.294-1.213c1.996,0,2.994,1.457,2.994,4.371
			c0,1.363-0.27,2.451-0.809,3.264s-1.295,1.219-2.268,1.219c-1.047,0-1.82-0.375-2.32-1.125S53.549,196.363,53.549,194.75z
			 M56.672,191.797c-1.027,0-1.541,1.02-1.541,3.059c0,1.145,0.111,1.986,0.334,2.525s0.592,0.809,1.107,0.809
			c0.559,0,0.955-0.243,1.189-0.729s0.352-1.353,0.352-2.599c0-1.16-0.112-1.961-0.337-2.402S57.184,191.797,56.672,191.797
			L56.672,191.797z"/>
	</g>
	<g>
		<path d="M54.299,158c0-1.172,0.286-2.162,0.858-2.971s1.337-1.213,2.294-1.213c1.996,0,2.994,1.457,2.994,4.371
			c0,1.363-0.27,2.451-0.809,3.264s-1.295,1.219-2.268,1.219c-1.047,0-1.82-0.375-2.32-1.125S54.299,159.613,54.299,158z
			 M57.422,155.047c-1.027,0-1.541,1.02-1.541,3.059c0,1.145,0.111,1.986,0.334,2.525s0.592,0.809,1.107,0.809
			c0.559,0,0.955-0.243,1.189-0.729s0.352-1.353,0.352-2.599c0-1.16-0.112-1.961-0.337-2.402S57.934,155.047,57.422,155.047
			L57.422,155.047z"/>
	</g>
	<g>
		<path d="M55.049,121.621c0-1.172,0.286-2.162,0.858-2.971s1.337-1.213,2.294-1.213c1.996,0,2.994,1.457,2.994,4.371
			c0,1.363-0.27,2.451-0.809,3.264s-1.295,1.219-2.268,1.219c-1.047,0-1.82-0.375-2.32-1.125S55.049,123.234,55.049,121.621z
			 M58.172,118.668c-1.027,0-1.541,1.02-1.541,3.059c0,1.145,0.111,1.986,0.334,2.525s0.592,0.809,1.107,0.809
			c0.559,0,0.955-0.243,1.189-0.729s0.352-1.353,0.352-2.599c0-1.16-0.112-1.961-0.337-2.402S58.684,118.668,58.172,118.668
			L58.172,118.668z"/>
	</g>
	<g>
		<path d="M55.799,86.74c0-1.172,0.286-2.162,0.858-2.971s1.337-1.213,2.294-1.213c1.996,0,2.994,1.457,2.994,4.371
			c0,1.363-0.27,2.451-0.809,3.264s-1.295,1.219-2.268,1.219c-1.047,0-1.82-0.375-2.32-1.125S55.799,88.354,55.799,86.74z
			 M58.922,83.787c-1.027,0-1.541,1.02-1.541,3.059c0,1.145,0.111,1.986,0.334,2.525s0.592,0.809,1.107,0.809
			c0.559,0,0.955-0.243,1.189-0.729s0.352-1.353,0.352-2.599c0-1.16-0.112-1.961-0.337-2.402S59.434,83.787,58.922,83.787
			L58.922,83.787z"/>
	</g>
	<g>
		<path d="M56.549,52.24c0-1.172,0.286-2.162,0.858-2.971s1.337-1.213,2.294-1.213c1.996,0,2.994,1.457,2.994,4.371
			c0,1.363-0.27,2.451-0.809,3.264s-1.295,1.219-2.268,1.219c-1.047,0-1.82-0.375-2.32-1.125S56.549,53.854,56.549,52.24z
			 M59.672,49.287c-1.027,0-1.541,1.02-1.541,3.059c0,1.145,0.111,1.986,0.334,2.525s0.592,0.809,1.107,0.809
			c0.559,0,0.955-0.243,1.189-0.729s0.352-1.353,0.352-2.599c0-1.16-0.112-1.961-0.337-2.402S60.184,49.287,59.672,49.287
			L59.672,49.287z"/>
	</g>
	<g>
		<path d="M85.694,355.303v-6.188l-1.746,1.049v-1.465c1.121-0.543,2.008-1.215,2.66-2.016h0.609v8.619H85.694z"/>
	</g>
	<g>
		<path d="M88.324,315.924v-6.188l-1.746,1.049v-1.465c1.121-0.543,2.008-1.215,2.66-2.016h0.609v8.619H88.324z"/>
	</g>
	<g>
		<path d="M90.574,276.924v-6.188l-1.746,1.049v-1.465c1.121-0.543,2.008-1.215,2.66-2.016h0.609v8.619H90.574z"/>
	</g>
	<g>
		<path d="M92.074,238.674v-6.188l-1.746,1.049v-1.465c1.121-0.543,2.008-1.215,2.66-2.016h0.609v8.619H92.074z"/>
	</g>
	<g>
		<path d="M93.944,200.053v-6.188l-1.746,1.049v-1.465c1.121-0.543,2.008-1.215,2.66-2.016h0.609v8.619H93.944z"/>
	</g>
	<g>
		<path d="M93.944,162.924v-6.188l-1.746,1.049v-1.465c1.121-0.543,2.008-1.215,2.66-2.016h0.609v8.619H93.944z"/>
	</g>
	<g>
		<path d="M94.324,125.043v-6.188l-1.746,1.049v-1.465c1.121-0.543,2.008-1.215,2.66-2.016h0.609v8.619H94.324z"/>
	</g>
	<g>
		<path d="M93.194,87.543v-6.188l-1.746,1.049v-1.465c1.121-0.543,2.008-1.215,2.66-2.016h0.609v8.619H93.194z"/>
	</g>
	<g>
		<path d="M92.074,48.924v-6.188l-1.746,1.049V42.32c1.121-0.543,2.008-1.215,2.66-2.016h0.609v8.619H92.074z"/>
	</g>
	<g>
		<path d="M109.899,351.174v-0.445l2.719-4.002c0.542-0.801,0.814-1.475,0.814-2.021c0-0.648-0.39-0.973-1.166-0.973
			c-0.595,0-1.072,0.314-1.436,0.943l-1.025-0.809c0.202-0.41,0.521-0.751,0.958-1.022c0.436-0.271,0.917-0.407,1.444-0.407
			c0.879,0,1.565,0.2,2.063,0.601c0.495,0.4,0.744,0.956,0.744,1.667c0,0.652-0.319,1.465-0.955,2.438l-1.758,2.678h3.223v1.354
			H109.899z"/>
	</g>
	<g>
		<path d="M115.899,314.043v-0.445l2.719-4.002c0.542-0.801,0.814-1.475,0.814-2.021c0-0.648-0.39-0.973-1.166-0.973
			c-0.595,0-1.072,0.314-1.436,0.943l-1.025-0.809c0.202-0.41,0.521-0.751,0.958-1.022c0.436-0.271,0.917-0.407,1.444-0.407
			c0.879,0,1.565,0.2,2.063,0.601c0.495,0.4,0.744,0.956,0.744,1.667c0,0.652-0.319,1.465-0.955,2.438l-1.758,2.678h3.223v1.354
			H115.899z"/>
	</g>
	<g>
		<path d="M122.649,277.293v-0.445l2.719-4.002c0.542-0.801,0.814-1.475,0.814-2.021c0-0.648-0.39-0.973-1.166-0.973
			c-0.595,0-1.072,0.314-1.436,0.943l-1.025-0.809c0.202-0.41,0.521-0.751,0.958-1.022c0.436-0.271,0.917-0.407,1.444-0.407
			c0.879,0,1.565,0.2,2.063,0.601c0.495,0.4,0.744,0.956,0.744,1.667c0,0.652-0.319,1.465-0.955,2.438l-1.758,2.678h3.223v1.354
			H122.649z"/>
	</g>
	<g>
		<path d="M125.649,239.793v-0.445l2.719-4.002c0.542-0.801,0.814-1.475,0.814-2.021c0-0.648-0.39-0.973-1.166-0.973
			c-0.595,0-1.072,0.314-1.436,0.943l-1.025-0.809c0.202-0.41,0.521-0.751,0.958-1.022c0.436-0.271,0.917-0.407,1.444-0.407
			c0.879,0,1.565,0.2,2.063,0.601c0.495,0.4,0.744,0.956,0.744,1.667c0,0.652-0.319,1.465-0.955,2.438l-1.758,2.678h3.223v1.354
			H125.649z"/>
	</g>
	<g>
		<path d="M129.399,201.543v-0.445l2.719-4.002c0.542-0.801,0.814-1.475,0.814-2.021c0-0.648-0.39-0.973-1.166-0.973
			c-0.595,0-1.072,0.314-1.436,0.943l-1.025-0.809c0.202-0.41,0.521-0.751,0.958-1.022c0.436-0.271,0.917-0.407,1.444-0.407
			c0.879,0,1.565,0.2,2.063,0.601c0.495,0.4,0.744,0.956,0.744,1.667c0,0.652-0.319,1.465-0.955,2.438l-1.758,2.678h3.223v1.354
			H129.399z"/>
	</g>
	<g>
		<path d="M130.149,163.674v-0.445l2.719-4.002c0.542-0.801,0.814-1.475,0.814-2.021c0-0.648-0.39-0.973-1.166-0.973
			c-0.595,0-1.072,0.314-1.436,0.943l-1.025-0.809c0.202-0.41,0.521-0.751,0.958-1.022c0.436-0.271,0.917-0.407,1.444-0.407
			c0.879,0,1.565,0.2,2.063,0.601c0.495,0.4,0.744,0.956,0.744,1.667c0,0.652-0.319,1.465-0.955,2.438l-1.758,2.678h3.223v1.354
			H130.149z"/>
	</g>
	<g>
		<path d="M130.149,122.793v-0.445l2.719-4.002c0.542-0.801,0.814-1.475,0.814-2.021c0-0.648-0.39-0.973-1.166-0.973
			c-0.595,0-1.072,0.314-1.436,0.943l-1.025-0.809c0.202-0.41,0.521-0.751,0.958-1.022c0.436-0.271,0.917-0.407,1.444-0.407
			c0.879,0,1.565,0.2,2.063,0.601c0.495,0.4,0.744,0.956,0.744,1.667c0,0.652-0.319,1.465-0.955,2.438l-1.758,2.678h3.223v1.354
			H130.149z"/>
	</g>
	<g>
		<path d="M127.899,81.543v-0.445l2.719-4.002c0.542-0.801,0.814-1.475,0.814-2.021c0-0.648-0.39-0.973-1.166-0.973
			c-0.595,0-1.072,0.314-1.436,0.943l-1.025-0.809c0.202-0.41,0.521-0.751,0.958-1.022c0.436-0.271,0.917-0.407,1.444-0.407
			c0.879,0,1.565,0.2,2.063,0.601c0.495,0.4,0.744,0.956,0.744,1.667c0,0.652-0.319,1.465-0.955,2.438l-1.758,2.678h3.223v1.354
			H127.899z"/>
	</g>
	<g>
		<path d="M123.768,39.924v-0.445l2.719-4.002c0.543-0.801,0.814-1.475,0.814-2.021c0-0.648-0.389-0.973-1.166-0.973
			c-0.594,0-1.072,0.314-1.436,0.943l-1.025-0.809c0.203-0.41,0.522-0.751,0.958-1.022s0.917-0.407,1.444-0.407
			c0.879,0,1.566,0.2,2.063,0.601s0.744,0.956,0.744,1.667c0,0.652-0.318,1.465-0.955,2.438l-1.758,2.678h3.223v1.354H123.768z"/>
	</g>
	<g>
		<path d="M163.87,27.291l-4.166-5.432v5.32h-1.465v-8.59h0.732l4.055,5.18v-5.18h1.465v8.701H163.87z"/>
	</g>
	<g>
		<path d="M170.62,75.291l-4.166-5.432v5.32h-1.465v-8.59h0.732l4.055,5.18v-5.18h1.465v8.701H170.62z"/>
	</g>
	<g>
		<path d="M173.25,119.91l-4.166-5.432v5.32h-1.465v-8.59h0.732l4.055,5.18v-5.18h1.465v8.701H173.25z"/>
	</g>
	<g>
		<path d="M172.87,163.41l-4.166-5.432v5.32h-1.465v-8.59h0.732l4.055,5.18v-5.18h1.465v8.701H172.87z"/>
	</g>
	<g>
		<path d="M170.62,203.16l-4.166-5.432v5.32h-1.465v-8.59h0.732l4.055,5.18v-5.18h1.465v8.701H170.62z"/>
	</g>
	<g>
		<path d="M163.5,241.041l-4.166-5.432v5.32h-1.465v-8.59h0.732l4.055,5.18v-5.18h1.465v8.701H163.5z"/>
	</g>
	<g>
		<path d="M156,276.66l-4.166-5.432v5.32h-1.465v-8.59h0.732l4.055,5.18v-5.18h1.465v8.701H156z"/>
	</g>
	<g>
		<path d="M145.12,312.291l-4.166-5.432v5.32h-1.465v-8.59h0.732l4.055,5.18v-5.18h1.465v8.701H145.12z"/>
	</g>
	<g>
		<path d="M134.62,347.91l-4.166-5.432v5.32h-1.465v-8.59h0.732l4.055,5.18v-5.18h1.465v8.701H134.62z"/>
	</g>
	<polygon fill-rule="evenodd" clip-rule="evenodd" points="45.86,373.733 41.08,368.943 45.86,364.163 	"/>
	<polygon fill-rule="evenodd" clip-rule="evenodd" points="41.8,325.253 46.59,330.033 46.59,320.463 	"/>
	<polygon fill-rule="evenodd" clip-rule="evenodd" points="42.53,286.354 47.31,291.133 47.31,281.563 	"/>
	<polygon fill-rule="evenodd" clip-rule="evenodd" points="43.25,247.153 48.04,251.943 48.04,242.373 	"/>
	<polygon fill-rule="evenodd" clip-rule="evenodd" points="43.98,209.313 48.76,214.094 48.76,204.523 	"/>
	<polygon fill-rule="evenodd" clip-rule="evenodd" points="44.7,170.553 49.49,175.343 49.49,165.773 	"/>
	<polygon fill-rule="evenodd" clip-rule="evenodd" points="45.43,135.413 50.21,140.203 50.21,130.633 	"/>
	<polygon fill-rule="evenodd" clip-rule="evenodd" points="46.15,99.223 50.94,104.003 50.94,94.433 	"/>
	<polygon fill-rule="evenodd" clip-rule="evenodd" points="51.67,67.353 46.88,62.573 51.67,57.793 	"/>
	<g>
		<path d="M70.339,143.101c0-1.172,0.286-2.162,0.858-2.971s1.337-1.213,2.294-1.213c1.996,0,2.994,1.457,2.994,4.371
			c0,1.363-0.27,2.451-0.809,3.264s-1.295,1.219-2.268,1.219c-1.047,0-1.82-0.375-2.32-1.125S70.339,144.714,70.339,143.101z
			 M73.462,140.147c-1.027,0-1.541,1.02-1.541,3.059c0,1.145,0.111,1.986,0.334,2.525s0.592,0.809,1.107,0.809
			c0.559,0,0.955-0.243,1.189-0.729s0.352-1.353,0.352-2.599c0-1.16-0.112-1.961-0.337-2.402S73.974,140.147,73.462,140.147
			L73.462,140.147z"/>
		<path d="M77.951,146.886c0-0.293,0.103-0.542,0.308-0.747s0.454-0.308,0.747-0.308s0.542,0.103,0.747,0.308
			s0.308,0.454,0.308,0.747s-0.103,0.543-0.308,0.75s-0.454,0.311-0.747,0.311s-0.542-0.104-0.747-0.311
			S77.951,147.179,77.951,146.886z"/>
		<path d="M84.396,147.771c-0.867,0-1.607-0.279-2.221-0.838l0.762-1.178c0.453,0.48,0.945,0.721,1.477,0.721
			c0.969,0,1.453-0.455,1.453-1.365c0-0.414-0.141-0.751-0.422-1.011s-0.66-0.39-1.137-0.39h-0.27v-1.254h0.229
			c0.875,0,1.313-0.365,1.313-1.096c0-0.766-0.408-1.148-1.225-1.148c-0.422,0-0.832,0.199-1.23,0.598l-0.715-1.049
			c0.184-0.227,0.471-0.424,0.861-0.592s0.781-0.252,1.172-0.252c0.855,0,1.522,0.195,2.001,0.586s0.718,0.938,0.718,1.641
			c0,0.836-0.359,1.473-1.078,1.91c0.91,0.438,1.365,1.152,1.365,2.145c0,0.816-0.271,1.449-0.812,1.898
			S85.349,147.771,84.396,147.771L84.396,147.771z"/>
	</g>
	<g>
		<path d="M103.939,143.904v-1.377h3.1v1.377H103.939z"/>
		<path d="M111.041,146.693v-6.188l-1.746,1.049v-1.465c1.121-0.543,2.008-1.215,2.66-2.016h0.609v8.619H111.041z"/>
		<path d="M115.757,145.926c0-0.293,0.103-0.542,0.308-0.747s0.454-0.308,0.747-0.308s0.542,0.103,0.747,0.308
			s0.308,0.454,0.308,0.747s-0.103,0.543-0.308,0.75s-0.454,0.311-0.747,0.311s-0.542-0.104-0.747-0.311
			S115.757,146.219,115.757,145.926z"/>
		<path d="M122.32,146.811c-0.844,0-1.58-0.256-2.209-0.768l0.604-1.254c0.621,0.484,1.154,0.727,1.6,0.727
			c0.984,0,1.477-0.605,1.477-1.816c0-0.582-0.111-1.007-0.334-1.274s-0.596-0.401-1.119-0.401c-0.473,0-0.934,0.232-1.383,0.697
			l-0.604-0.393v-4.254h4.623v1.295h-3.158v1.535c0.258-0.117,0.566-0.176,0.926-0.176c0.844,0,1.493,0.244,1.948,0.732
			s0.683,1.18,0.683,2.074C125.373,145.719,124.355,146.811,122.32,146.811L122.32,146.811z"/>
	</g>
	<g>
		<path d="M152.335,142.359v2.244h-1.465v-2.244h-3.908v-0.873l4.705-5.502h0.668v5.168h0.867v1.207H152.335z M150.871,138.574
			l-2.203,2.578h2.203V138.574z"/>
		<path d="M154.621,143.836c0-0.293,0.103-0.542,0.308-0.747s0.454-0.308,0.747-0.308s0.542,0.103,0.747,0.308
			s0.308,0.454,0.308,0.747s-0.103,0.543-0.308,0.75s-0.454,0.311-0.747,0.311s-0.542-0.104-0.747-0.311
			S154.621,144.129,154.621,143.836z"/>
		<path d="M160.662,144.768l-0.809-0.855c1.188-0.656,2.027-1.514,2.52-2.572c-0.262,0.117-0.596,0.176-1.002,0.176
			c-0.805,0-1.453-0.25-1.945-0.75s-0.738-1.18-0.738-2.039c0-0.852,0.252-1.541,0.756-2.068s1.137-0.791,1.898-0.791
			c2,0,3,1.258,3,3.773c0,1.047-0.386,2.106-1.157,3.179S161.572,144.541,160.662,144.768z M160.24,138.668
			c0,0.48,0.113,0.859,0.34,1.137s0.516,0.416,0.867,0.416c0.875,0,1.313-0.488,1.313-1.465c0-1.063-0.443-1.594-1.33-1.594
			c-0.363,0-0.652,0.134-0.867,0.401S160.24,138.199,160.24,138.668z"/>
	</g>
</g>
</svg>
