<?xml version="1.0" encoding="utf-8"?>
<!-- Generator: Adobe Illustrator 14.0.0, SVG Export Plug-In . SVG Version: 6.00 Build 43363)  -->
<!DOCTYPE svg PUBLIC "-//W3C//DTD SVG 1.0//EN" "http://www.w3.org/TR/2001/REC-SVG-20010904/DTD/svg10.dtd">
<svg version="1.0" id="Layer_1" xmlns="http://www.w3.org/2000/svg" xmlns:xlink="http://www.w3.org/1999/xlink" x="0px" y="0px"
	 width="496.734px" height="186.885px" viewBox="0 0 496.734 186.885" enable-background="new 0 0 496.734 186.885"
	 xml:space="preserve">
<g>
	<defs>
		<rect id="SVGID_1_" width="496.734" height="186.885"/>
	</defs>
	<clipPath id="SVGID_2_">
		<use xlink:href="#SVGID_1_"  overflow="visible"/>
	</clipPath>
	<g clip-path="url(#SVGID_2_)">
		<defs>
			<rect id="SVGID_3_" width="496.734" height="186.885"/>
		</defs>
		<clipPath id="SVGID_4_">
			<use xlink:href="#SVGID_3_"  overflow="visible"/>
		</clipPath>
		<path clip-path="url(#SVGID_4_)" fill="#D0D2D3" d="M9.75,1.749c0,0-8,0-8,8v167.386c0,0,0,8,8,8h472.8c0,0,8,0,8-8V9.749
			c0,0,0-8-8-8H9.75z"/>
		<path clip-path="url(#SVGID_4_)" fill="#FFFFFF" d="M217.576,16.873h272.177v158.901H217.576V16.873z M110.061,16.873h107.515
			v158.901H110.061V16.873z M2.546,16.873h107.515v158.901H2.546V16.873z"/>
		
			<line clip-path="url(#SVGID_4_)" fill="none" stroke="#231F20" stroke-width="0.5" stroke-miterlimit="10" x1="2.546" y1="175.774" x2="110.061" y2="175.774"/>
		
			<line clip-path="url(#SVGID_4_)" fill="none" stroke="#231F20" stroke-width="0.5" stroke-miterlimit="10" x1="2.546" y1="16.872" x2="110.061" y2="16.872"/>
		
			<line clip-path="url(#SVGID_4_)" fill="none" stroke="#231F20" stroke-width="0.5" stroke-miterlimit="10" x1="110.062" y1="16.872" x2="217.576" y2="16.872"/>
		
			<line clip-path="url(#SVGID_4_)" fill="none" stroke="#231F20" stroke-width="0.5" stroke-miterlimit="10" x1="217.576" y1="16.872" x2="489.753" y2="16.872"/>
		
			<line clip-path="url(#SVGID_4_)" fill="none" stroke="#231F20" stroke-width="0.5" stroke-miterlimit="10" x1="110.062" y1="175.774" x2="217.576" y2="175.774"/>
		
			<line clip-path="url(#SVGID_4_)" fill="none" stroke="#231F20" stroke-width="0.5" stroke-miterlimit="10" x1="217.576" y1="175.774" x2="489.753" y2="175.774"/>
	</g>
	<g clip-path="url(#SVGID_2_)">
		<text transform="matrix(1 0 0 1 35.3911 12.8721)"><tspan x="0" y="0" fill="#231F20" font-family="'TrebuchetMS'" font-size="10">V</tspan><tspan x="5.234" y="0" fill="#231F20" font-family="'TrebuchetMS'" font-size="10">ertex list</tspan></text>
	</g>
	<g clip-path="url(#SVGID_2_)">
		<text transform="matrix(1 0 0 1 146.9512 12.8721)" fill="#231F20" font-family="'TrebuchetMS'" font-size="10">Face list</text>
	</g>
	<g clip-path="url(#SVGID_2_)">
		<text transform="matrix(1 0 0 1 322.2109 12.8721)"><tspan x="0" y="0" fill="#231F20" font-family="'TrebuchetMS'" font-size="10">R</tspan><tspan x="5.41" y="0" fill="#231F20" font-family="'TrebuchetMS'" font-size="10">esulting mesh</tspan></text>
	</g>
	<g clip-path="url(#SVGID_2_)">
		<text transform="matrix(1 0 0 1 14.8467 26.7744)" fill="#231F20" font-family="'CourierNewPSMT'" font-size="8">0 = {0.0, 0.0, 0.0}</text>
	</g>
	<g clip-path="url(#SVGID_2_)">
		<text transform="matrix(1 0 0 1 14.8467 36.375)" fill="#231F20" font-family="'CourierNewPSMT'" font-size="8">1 = {1.0, 0.0, 0.0}</text>
	</g>
	<g clip-path="url(#SVGID_2_)">
		<text transform="matrix(1 0 0 1 14.8467 45.9746)" fill="#231F20" font-family="'CourierNewPSMT'" font-size="8">2 = {2.0, 0.0, 0.0}</text>
	</g>
	<g clip-path="url(#SVGID_2_)">
		<text transform="matrix(1 0 0 1 14.8467 55.5752)" fill="#231F20" font-family="'CourierNewPSMT'" font-size="8">3 = {3.0, 0.0, 0.0}</text>
	</g>
	<g clip-path="url(#SVGID_2_)">
		<text transform="matrix(1 0 0 1 14.8467 65.1748)" fill="#231F20" font-family="'CourierNewPSMT'" font-size="8">4 = {0.0, 0.8, 0.3}</text>
	</g>
	<g clip-path="url(#SVGID_2_)">
		<text transform="matrix(1 0 0 1 14.8467 74.7744)" fill="#231F20" font-family="'CourierNewPSMT'" font-size="8">5 = {1.0, 0.8, 0.3}</text>
	</g>
	<g clip-path="url(#SVGID_2_)">
		<text transform="matrix(1 0 0 1 14.8467 84.375)" fill="#231F20" font-family="'CourierNewPSMT'" font-size="8">6 = {2.0, 0.8, 0.3}</text>
	</g>
	<g clip-path="url(#SVGID_2_)">
		<text transform="matrix(1 0 0 1 14.8467 93.9746)" fill="#231F20" font-family="'CourierNewPSMT'" font-size="8">7 = {3.0, 0.8, 0.3}</text>
	</g>
	<g clip-path="url(#SVGID_2_)">
		<text transform="matrix(1 0 0 1 14.8467 103.5752)" fill="#231F20" font-family="'CourierNewPSMT'" font-size="8">8 = {0.0, 1.4, 0.9}</text>
	</g>
	<g clip-path="url(#SVGID_2_)">
		<text transform="matrix(1 0 0 1 14.8467 113.1748)" fill="#231F20" font-family="'CourierNewPSMT'" font-size="8">9 = {1.0, 1.4, 0.9}</text>
	</g>
	<g clip-path="url(#SVGID_2_)">
		<text transform="matrix(1 0 0 1 10.0464 122.7744)" fill="#231F20" font-family="'CourierNewPSMT'" font-size="8">10 = {2.0, 1.4, 0.9}</text>
	</g>
	<g clip-path="url(#SVGID_2_)">
		<text transform="matrix(1 0 0 1 10.0464 132.375)" fill="#231F20" font-family="'CourierNewPSMT'" font-size="8">11 = {3.0, 1.4, 0.9}</text>
	</g>
	<g clip-path="url(#SVGID_2_)">
		<text transform="matrix(1 0 0 1 10.0464 141.9746)" fill="#231F20" font-family="'CourierNewPSMT'" font-size="8">12 = {0.0, 2.0, 1.5}</text>
	</g>
	<g clip-path="url(#SVGID_2_)">
		<text transform="matrix(1 0 0 1 10.0464 151.5752)" fill="#231F20" font-family="'CourierNewPSMT'" font-size="8">13 = {1.0, 2.0, 1.5}</text>
	</g>
	<g clip-path="url(#SVGID_2_)">
		<text transform="matrix(1 0 0 1 10.0464 161.1748)" fill="#231F20" font-family="'CourierNewPSMT'" font-size="8">14 = {2.0, 2.0, 1.5}</text>
	</g>
	<g clip-path="url(#SVGID_2_)">
		<text transform="matrix(1 0 0 1 10.0464 170.7744)" fill="#231F20" font-family="'CourierNewPSMT'" font-size="8">15 = {3.0, 2.0, 1.5}</text>
	</g>
	<g clip-path="url(#SVGID_2_)">
		<text transform="matrix(1 0 0 1 123.0146 26.7744)" fill="#231F20" font-family="'CourierNewPSMT'" font-size="8">A = { 0, 1, 5, 4}</text>
	</g>
	<g clip-path="url(#SVGID_2_)">
		<text transform="matrix(1 0 0 1 123.0146 36.375)" fill="#231F20" font-family="'CourierNewPSMT'" font-size="8">B = { 1, 2, 6, 5}</text>
	</g>
	<g clip-path="url(#SVGID_2_)">
		<text transform="matrix(1 0 0 1 123.0146 45.9746)" fill="#231F20" font-family="'CourierNewPSMT'" font-size="8">C = { 2, 3, 7, 6}</text>
	</g>
	<g clip-path="url(#SVGID_2_)">
		<text transform="matrix(1 0 0 1 123.0146 55.5752)" fill="#231F20" font-family="'CourierNewPSMT'" font-size="8">D = { 4, 5, 9, 8}</text>
	</g>
	<g clip-path="url(#SVGID_2_)">
		<text transform="matrix(1 0 0 1 123.0146 65.1748)" fill="#231F20" font-family="'CourierNewPSMT'" font-size="8">E = { 5, 6,10, 9}</text>
	</g>
	<g clip-path="url(#SVGID_2_)">
		<text transform="matrix(1 0 0 1 123.0146 74.7744)" fill="#231F20" font-family="'CourierNewPSMT'" font-size="8">F = { 6, 7,11,10}</text>
	</g>
	<g clip-path="url(#SVGID_2_)">
		<text transform="matrix(1 0 0 1 123.0146 84.375)" fill="#231F20" font-family="'CourierNewPSMT'" font-size="8">G = { 8, 9,13,12}</text>
	</g>
	<g clip-path="url(#SVGID_2_)">
		<text transform="matrix(1 0 0 1 123.0146 93.9746)" fill="#231F20" font-family="'CourierNewPSMT'" font-size="8">H = { 9,10,14,13}</text>
	</g>
	<g clip-path="url(#SVGID_2_)">
		<text transform="matrix(1 0 0 1 123.0146 103.5752)" fill="#231F20" font-family="'CourierNewPSMT'" font-size="8">I = {11,10,14,15}</text>
	</g>
	<g clip-path="url(#SVGID_2_)">
		<defs>
			<rect id="SVGID_5_" x="235.079" y="20.383" width="233.173" height="151.516"/>
		</defs>
		<clipPath id="SVGID_6_">
			<use xlink:href="#SVGID_5_"  overflow="visible"/>
		</clipPath>
		<polygon clip-path="url(#SVGID_6_)" fill-rule="evenodd" clip-rule="evenodd" fill="#E2E2E2" points="288.998,25.164 
			279.23,75.087 263.259,120.559 239.53,159.342 463.773,167.666 461.803,126.756 461.014,79.515 461.132,28.075 		"/>
		<polygon clip-path="url(#SVGID_6_)" fill="none" stroke="#000000" stroke-width="1.679" stroke-linejoin="bevel" points="
			288.998,25.164 279.23,75.087 263.259,120.559 239.53,159.342 463.773,167.666 461.803,126.756 461.014,79.515 461.132,28.075 		
			"/>
		
			<line clip-path="url(#SVGID_6_)" fill="none" stroke="#000000" stroke-width="0.56" stroke-linecap="round" stroke-linejoin="round" stroke-dasharray="1.12,1.12" x1="399.291" y1="78.015" x2="402.738" y2="27.09"/>
		
			<line clip-path="url(#SVGID_6_)" fill="none" stroke="#000000" stroke-width="0.56" stroke-linecap="round" stroke-linejoin="round" stroke-dasharray="1.12,1.12" x1="399.291" y1="78.015" x2="460.97" y2="79.515"/>
		
			<line clip-path="url(#SVGID_6_)" fill="none" stroke="#000000" stroke-width="0.56" stroke-linecap="round" stroke-linejoin="round" stroke-dasharray="1.12,1.12" x1="338.703" y1="76.537" x2="279.186" y2="75.087"/>
		
			<line clip-path="url(#SVGID_6_)" fill="none" stroke="#000000" stroke-width="0.56" stroke-linecap="round" stroke-linejoin="round" stroke-dasharray="1.12,1.12" x1="345.371" y1="26.121" x2="338.703" y2="76.536"/>
		
			<line clip-path="url(#SVGID_6_)" fill="none" stroke="#000000" stroke-width="0.56" stroke-linecap="round" stroke-linejoin="round" stroke-dasharray="1.12,1.12" x1="263.215" y1="120.559" x2="328.112" y2="122.587"/>
		
			<line clip-path="url(#SVGID_6_)" fill="none" stroke="#000000" stroke-width="0.56" stroke-linecap="round" stroke-linejoin="round" stroke-dasharray="1.12,1.12" x1="338.703" y1="76.537" x2="328.112" y2="122.587"/>
		
			<line clip-path="url(#SVGID_6_)" fill="none" stroke="#000000" stroke-width="0.56" stroke-linecap="round" stroke-linejoin="round" stroke-dasharray="1.12,1.12" x1="399.291" y1="78.015" x2="338.703" y2="76.536"/>
		
			<line clip-path="url(#SVGID_6_)" fill="none" stroke="#000000" stroke-width="0.56" stroke-linecap="round" stroke-linejoin="round" stroke-dasharray="1.12,1.12" x1="394.285" y1="124.651" x2="399.291" y2="78.015"/>
		
			<line clip-path="url(#SVGID_6_)" fill="none" stroke="#000000" stroke-width="0.56" stroke-linecap="round" stroke-linejoin="round" stroke-dasharray="1.12,1.12" x1="328.111" y1="122.586" x2="394.286" y2="124.651"/>
		
			<line clip-path="url(#SVGID_6_)" fill="none" stroke="#000000" stroke-width="0.56" stroke-linecap="round" stroke-linejoin="round" stroke-dasharray="1.12,1.12" x1="312.594" y1="162.057" x2="328.112" y2="122.587"/>
		
			<line clip-path="url(#SVGID_6_)" fill="none" stroke="#000000" stroke-width="0.56" stroke-linecap="round" stroke-linejoin="round" stroke-dasharray="1.12,1.12" x1="394.285" y1="124.651" x2="387.328" y2="164.833"/>
		
			<line clip-path="url(#SVGID_6_)" fill="none" stroke="#000000" stroke-width="0.56" stroke-linecap="round" stroke-linejoin="round" stroke-dasharray="1.12,1.12" x1="461.764" y1="126.756" x2="394.286" y2="124.651"/>
		<path clip-path="url(#SVGID_6_)" fill-rule="evenodd" clip-rule="evenodd" fill="#FFFFFF" d="M236.758,159.006
			c0-1.645,1.338-2.978,2.978-2.978s2.978,1.333,2.978,2.978c0,1.641-1.338,2.974-2.978,2.974S236.758,160.646,236.758,159.006"/>
		<path clip-path="url(#SVGID_6_)" fill="none" stroke="#000000" stroke-width="0.56" d="M236.758,159.006
			c0-1.645,1.338-2.978,2.978-2.978s2.978,1.333,2.978,2.978c0,1.641-1.338,2.974-2.978,2.974S236.758,160.646,236.758,159.006z"/>
		<path clip-path="url(#SVGID_6_)" fill-rule="evenodd" clip-rule="evenodd" d="M239.736,156.957c0.386,0,0.689,0.14,0.912,0.415
			c0.258,0.33,0.387,0.873,0.387,1.634c0,0.756-0.129,1.305-0.392,1.636c-0.218,0.273-0.521,0.407-0.907,0.407
			c-0.392,0-0.705-0.15-0.946-0.446c-0.235-0.303-0.358-0.835-0.358-1.602c0-0.756,0.134-1.299,0.397-1.629
			C239.047,157.097,239.351,156.957,239.736,156.957 M239.736,157.596c-0.095,0-0.174,0.027-0.252,0.09
			c-0.073,0.056-0.129,0.161-0.168,0.318c-0.05,0.197-0.078,0.532-0.078,1.002c0,0.471,0.022,0.795,0.073,0.97
			c0.044,0.173,0.106,0.291,0.179,0.352c0.072,0.056,0.151,0.084,0.246,0.084c0.095,0,0.174-0.028,0.246-0.084
			c0.073-0.061,0.129-0.167,0.174-0.319c0.05-0.194,0.078-0.531,0.078-1.002c0-0.47-0.022-0.795-0.073-0.968
			c-0.044-0.18-0.106-0.297-0.179-0.353C239.91,157.623,239.832,157.596,239.736,157.596"/>
		<path clip-path="url(#SVGID_6_)" fill-rule="evenodd" clip-rule="evenodd" fill="#FFFFFF" d="M309.448,162.517
			c0-1.641,1.332-2.974,2.974-2.974c1.645,0,2.978,1.333,2.978,2.974c0,1.646-1.333,2.978-2.978,2.978
			C310.78,165.494,309.448,164.162,309.448,162.517"/>
		<path clip-path="url(#SVGID_6_)" fill="none" stroke="#000000" stroke-width="0.56" d="M309.448,162.517
			c0-1.641,1.332-2.974,2.974-2.974c1.645,0,2.978,1.333,2.978,2.974c0,1.646-1.333,2.978-2.978,2.978
			C310.78,165.494,309.448,164.162,309.448,162.517z"/>
		<path clip-path="url(#SVGID_6_)" fill-rule="evenodd" clip-rule="evenodd" d="M312.964,164.531h-0.767v-2.895
			c-0.281,0.264-0.61,0.454-0.992,0.583v-0.7c0.203-0.062,0.42-0.19,0.656-0.369c0.234-0.185,0.392-0.397,0.481-0.644h0.621V164.531
			z"/>
		<path clip-path="url(#SVGID_6_)" fill-rule="evenodd" clip-rule="evenodd" fill="#FFFFFF" d="M384.371,165.059
			c0-1.642,1.334-2.979,2.979-2.979c1.641,0,2.973,1.338,2.973,2.979c0,1.64-1.332,2.978-2.973,2.978
			C385.705,168.036,384.371,166.698,384.371,165.059"/>
		<path clip-path="url(#SVGID_6_)" fill="none" stroke="#000000" stroke-width="0.56" d="M384.371,165.059
			c0-1.642,1.334-2.979,2.979-2.979c1.641,0,2.973,1.338,2.973,2.979c0,1.64-1.332,2.978-2.973,2.978
			C385.705,168.036,384.371,166.698,384.371,165.059z"/>
		<path clip-path="url(#SVGID_6_)" fill-rule="evenodd" clip-rule="evenodd" d="M388.648,166.149v0.711h-2.692
			c0.028-0.27,0.118-0.521,0.263-0.761c0.146-0.246,0.432-0.566,0.862-0.964c0.347-0.324,0.56-0.542,0.638-0.654
			c0.107-0.163,0.158-0.319,0.158-0.47c0-0.175-0.046-0.304-0.141-0.397c-0.09-0.091-0.219-0.135-0.381-0.135
			c-0.156,0-0.285,0.044-0.381,0.14c-0.096,0.101-0.15,0.257-0.162,0.481l-0.767-0.073c0.044-0.425,0.19-0.728,0.431-0.912
			s0.537-0.274,0.901-0.274c0.392,0,0.706,0.106,0.929,0.319c0.23,0.212,0.342,0.477,0.342,0.795c0,0.179-0.033,0.353-0.096,0.516
			c-0.066,0.161-0.168,0.335-0.307,0.515c-0.096,0.117-0.264,0.286-0.505,0.509c-0.246,0.225-0.397,0.369-0.464,0.442
			c-0.062,0.072-0.112,0.146-0.157,0.213H388.648z"/>
		<path clip-path="url(#SVGID_6_)" fill-rule="evenodd" clip-rule="evenodd" fill="#FFFFFF" d="M460.622,167.241
			c0-1.641,1.332-2.974,2.972-2.974c1.646,0,2.979,1.333,2.979,2.974c0,1.646-1.333,2.978-2.979,2.978
			C461.954,170.219,460.622,168.887,460.622,167.241"/>
		<path clip-path="url(#SVGID_6_)" fill="none" stroke="#000000" stroke-width="0.56" d="M460.622,167.241
			c0-1.641,1.332-2.974,2.972-2.974c1.646,0,2.979,1.333,2.979,2.974c0,1.646-1.333,2.978-2.979,2.978
			C461.954,170.219,460.622,168.887,460.622,167.241z"/>
		<path clip-path="url(#SVGID_6_)" fill-rule="evenodd" clip-rule="evenodd" d="M462.334,168.093l0.745-0.092
			c0.022,0.191,0.09,0.331,0.19,0.433c0.106,0.101,0.229,0.15,0.381,0.15c0.157,0,0.291-0.062,0.398-0.179
			c0.111-0.124,0.161-0.286,0.161-0.487c0-0.196-0.05-0.347-0.156-0.459c-0.102-0.111-0.229-0.168-0.375-0.168
			c-0.102,0-0.219,0.018-0.354,0.057l0.084-0.627c0.207,0.006,0.364-0.039,0.477-0.135c0.105-0.096,0.163-0.224,0.163-0.381
			c0-0.134-0.039-0.24-0.124-0.325c-0.078-0.077-0.185-0.117-0.319-0.117c-0.128,0-0.24,0.045-0.336,0.136
			c-0.089,0.089-0.146,0.223-0.168,0.396l-0.705-0.116c0.045-0.241,0.123-0.438,0.218-0.582c0.102-0.146,0.241-0.258,0.42-0.343
			c0.174-0.084,0.375-0.121,0.594-0.121c0.382,0,0.684,0.116,0.907,0.356c0.19,0.202,0.285,0.42,0.285,0.672
			c0,0.348-0.196,0.633-0.577,0.84c0.23,0.051,0.409,0.157,0.549,0.33c0.141,0.174,0.207,0.381,0.207,0.622
			c0,0.353-0.129,0.649-0.386,0.901c-0.258,0.246-0.577,0.369-0.957,0.369c-0.365,0-0.666-0.106-0.902-0.313
			C462.515,168.701,462.374,168.428,462.334,168.093"/>
		<path clip-path="url(#SVGID_6_)" fill-rule="evenodd" clip-rule="evenodd" fill="#FFFFFF" d="M259.957,120.257
			c0-1.64,1.332-2.978,2.978-2.978c1.64,0,2.973,1.338,2.973,2.978s-1.333,2.979-2.973,2.979
			C261.289,123.235,259.957,121.896,259.957,120.257"/>
		<path clip-path="url(#SVGID_6_)" fill="none" stroke="#000000" stroke-width="0.56" d="M259.957,120.257
			c0-1.64,1.332-2.978,2.978-2.978c1.64,0,2.973,1.338,2.973,2.978s-1.333,2.979-2.973,2.979
			C261.289,123.235,259.957,121.896,259.957,120.257z"/>
		<path clip-path="url(#SVGID_6_)" fill-rule="evenodd" clip-rule="evenodd" d="M262.935,122.21v-0.806h-1.64v-0.671l1.74-2.547
			h0.645v2.541h0.498v0.677h-0.498v0.806H262.935z M262.935,120.728v-1.366l-0.924,1.366H262.935z"/>
		<path clip-path="url(#SVGID_6_)" fill-rule="evenodd" clip-rule="evenodd" fill="#FFFFFF" d="M325.173,122.949
			c0-1.646,1.332-2.978,2.974-2.978c1.645,0,2.978,1.332,2.978,2.978c0,1.641-1.333,2.974-2.978,2.974
			C326.505,125.923,325.173,124.59,325.173,122.949"/>
		<path clip-path="url(#SVGID_6_)" fill="none" stroke="#000000" stroke-width="0.56" d="M325.173,122.949
			c0-1.646,1.332-2.978,2.974-2.978c1.645,0,2.978,1.332,2.978,2.978c0,1.641-1.333,2.974-2.978,2.974
			C326.505,125.923,325.173,124.59,325.173,122.949z"/>
		<path clip-path="url(#SVGID_6_)" fill-rule="evenodd" clip-rule="evenodd" d="M326.695,123.89l0.768-0.077
			c0.017,0.174,0.084,0.308,0.189,0.407c0.107,0.107,0.235,0.157,0.375,0.157c0.157,0,0.297-0.066,0.403-0.196
			c0.112-0.134,0.168-0.331,0.168-0.593c0-0.247-0.056-0.426-0.162-0.549c-0.112-0.123-0.258-0.185-0.431-0.185
			c-0.225,0-0.42,0.096-0.594,0.292l-0.627-0.091l0.397-2.088h2.032v0.723h-1.45l-0.123,0.677c0.174-0.084,0.347-0.129,0.526-0.129
			c0.342,0,0.627,0.124,0.867,0.376c0.235,0.246,0.354,0.564,0.354,0.962c0,0.331-0.096,0.621-0.286,0.885
			c-0.263,0.354-0.621,0.526-1.086,0.526c-0.369,0-0.672-0.095-0.901-0.297C326.881,124.495,326.74,124.226,326.695,123.89"/>
		<path clip-path="url(#SVGID_6_)" fill-rule="evenodd" clip-rule="evenodd" fill="#FFFFFF" d="M391.279,124.83
			c0-1.64,1.338-2.972,2.979-2.972c1.64,0,2.973,1.332,2.973,2.972c0,1.646-1.333,2.979-2.973,2.979
			C392.617,127.809,391.279,126.476,391.279,124.83"/>
		<path clip-path="url(#SVGID_6_)" fill="none" stroke="#000000" stroke-width="0.56" d="M391.279,124.83
			c0-1.64,1.338-2.972,2.979-2.972c1.64,0,2.973,1.332,2.973,2.972c0,1.646-1.333,2.979-2.973,2.979
			C392.617,127.809,391.279,126.476,391.279,124.83z"/>
		<path clip-path="url(#SVGID_6_)" fill-rule="evenodd" clip-rule="evenodd" d="M395.461,123.778l-0.744,0.084
			c-0.017-0.152-0.067-0.27-0.141-0.342c-0.078-0.072-0.179-0.106-0.302-0.106c-0.162,0-0.296,0.073-0.408,0.219
			s-0.185,0.447-0.213,0.913c0.19-0.229,0.431-0.342,0.711-0.342c0.324,0,0.599,0.123,0.828,0.363
			c0.224,0.247,0.342,0.56,0.342,0.946c0,0.414-0.123,0.738-0.364,0.991c-0.24,0.246-0.549,0.369-0.924,0.369
			c-0.402,0-0.738-0.157-0.996-0.47c-0.264-0.314-0.392-0.829-0.392-1.545c0-0.739,0.134-1.267,0.408-1.591
			c0.269-0.324,0.622-0.486,1.059-0.486c0.302,0,0.554,0.084,0.757,0.257C395.276,123.207,395.405,123.453,395.461,123.778
			 M393.721,125.457c0,0.247,0.056,0.443,0.168,0.577c0.117,0.135,0.246,0.202,0.396,0.202c0.141,0,0.258-0.057,0.354-0.168
			c0.096-0.107,0.146-0.291,0.146-0.543c0-0.264-0.05-0.454-0.157-0.571c-0.101-0.124-0.229-0.186-0.381-0.186
			c-0.145,0-0.273,0.058-0.375,0.175C393.771,125.06,393.721,125.228,393.721,125.457"/>
		<path clip-path="url(#SVGID_6_)" fill-rule="evenodd" clip-rule="evenodd" fill="#FFFFFF" d="M459.418,126.936
			c0-1.641,1.332-2.974,2.979-2.974c1.64,0,2.973,1.333,2.973,2.974c0,1.646-1.333,2.978-2.973,2.978
			C460.75,129.913,459.418,128.581,459.418,126.936"/>
		<path clip-path="url(#SVGID_6_)" fill="none" stroke="#000000" stroke-width="0.56" d="M459.418,126.936
			c0-1.641,1.332-2.974,2.979-2.974c1.64,0,2.973,1.333,2.973,2.974c0,1.646-1.333,2.978-2.973,2.978
			C460.75,129.913,459.418,128.581,459.418,126.936z"/>
		<path clip-path="url(#SVGID_6_)" fill-rule="evenodd" clip-rule="evenodd" d="M461.227,125.799v-0.717h2.625v0.56
			c-0.218,0.213-0.436,0.521-0.66,0.918c-0.224,0.398-0.397,0.823-0.515,1.272c-0.118,0.447-0.174,0.85-0.174,1.203h-0.739
			c0.011-0.556,0.129-1.12,0.342-1.697c0.218-0.571,0.509-1.086,0.868-1.539H461.227z"/>
		<path clip-path="url(#SVGID_6_)" fill-rule="evenodd" clip-rule="evenodd" fill="#FFFFFF" d="M275.895,75.02
			c0-1.64,1.332-2.973,2.973-2.973c1.64,0,2.978,1.333,2.978,2.973s-1.338,2.979-2.978,2.979
			C277.227,77.998,275.895,76.659,275.895,75.02"/>
		<path clip-path="url(#SVGID_6_)" fill="none" stroke="#000000" stroke-width="0.56" d="M275.895,75.02
			c0-1.64,1.332-2.973,2.973-2.973c1.64,0,2.978,1.333,2.978,2.973s-1.338,2.979-2.978,2.979
			C277.227,77.998,275.895,76.659,275.895,75.02z"/>
		<path clip-path="url(#SVGID_6_)" fill-rule="evenodd" clip-rule="evenodd" d="M278.211,74.79
			c-0.201-0.084-0.347-0.201-0.437-0.348c-0.089-0.145-0.134-0.307-0.134-0.48c0-0.298,0.105-0.55,0.314-0.739
			c0.207-0.196,0.502-0.297,0.889-0.297c0.381,0,0.678,0.101,0.885,0.297c0.213,0.189,0.318,0.441,0.318,0.739
			c0,0.185-0.049,0.353-0.145,0.497c-0.096,0.141-0.234,0.253-0.409,0.331c0.224,0.09,0.392,0.219,0.509,0.392
			c0.112,0.168,0.174,0.37,0.174,0.594c0,0.369-0.117,0.666-0.353,0.901c-0.239,0.229-0.554,0.347-0.946,0.347
			c-0.363,0-0.666-0.095-0.906-0.285c-0.285-0.229-0.432-0.538-0.432-0.93c0-0.218,0.057-0.419,0.163-0.6
			C277.809,75.025,277.977,74.886,278.211,74.79 M278.368,74.018c0,0.151,0.046,0.269,0.13,0.357c0.088,0.084,0.2,0.13,0.346,0.13
			s0.264-0.046,0.353-0.135c0.084-0.084,0.129-0.201,0.129-0.358c0-0.146-0.045-0.257-0.129-0.348
			c-0.089-0.084-0.2-0.128-0.347-0.128c-0.145,0-0.264,0.044-0.348,0.135C278.414,73.755,278.368,73.871,278.368,74.018
			 M278.295,75.73c0,0.213,0.057,0.381,0.162,0.498c0.112,0.118,0.248,0.174,0.409,0.174c0.157,0,0.291-0.056,0.392-0.168
			c0.106-0.112,0.158-0.28,0.158-0.493c0-0.189-0.052-0.341-0.158-0.453c-0.105-0.111-0.24-0.174-0.402-0.174
			c-0.191,0-0.33,0.067-0.42,0.196S278.295,75.579,278.295,75.73"/>
		<path clip-path="url(#SVGID_6_)" fill-rule="evenodd" clip-rule="evenodd" fill="#FFFFFF" d="M335.322,77.091
			c0-1.646,1.332-2.978,2.979-2.978c1.639,0,2.973,1.332,2.973,2.978c0,1.64-1.334,2.973-2.973,2.973
			C336.654,80.063,335.322,78.73,335.322,77.091"/>
		<path clip-path="url(#SVGID_6_)" fill="none" stroke="#000000" stroke-width="0.56" d="M335.322,77.091
			c0-1.646,1.332-2.978,2.979-2.978c1.639,0,2.973,1.332,2.973,2.978c0,1.64-1.334,2.973-2.973,2.973
			C336.654,80.063,335.322,78.73,335.322,77.091z"/>
		<path clip-path="url(#SVGID_6_)" fill-rule="evenodd" clip-rule="evenodd" d="M337.125,78.138l0.744-0.084
			c0.017,0.151,0.067,0.264,0.14,0.336c0.079,0.072,0.18,0.111,0.308,0.111c0.157,0,0.291-0.072,0.403-0.218
			s0.181-0.448,0.213-0.907c-0.196,0.225-0.437,0.336-0.722,0.336c-0.319,0-0.588-0.123-0.817-0.37
			c-0.229-0.239-0.342-0.559-0.342-0.945c0-0.408,0.118-0.733,0.358-0.985c0.24-0.246,0.549-0.369,0.924-0.369
			c0.408,0,0.738,0.156,1.002,0.471c0.258,0.313,0.392,0.827,0.392,1.551c0,0.732-0.14,1.259-0.409,1.584
			c-0.273,0.325-0.627,0.486-1.063,0.486c-0.314,0-0.566-0.084-0.756-0.252C337.304,78.721,337.181,78.469,337.125,78.138
			 M338.865,76.458c0-0.246-0.056-0.441-0.174-0.577c-0.111-0.134-0.246-0.207-0.391-0.207c-0.146,0-0.264,0.057-0.359,0.168
			c-0.089,0.112-0.14,0.298-0.14,0.555c0,0.258,0.051,0.448,0.157,0.57c0.101,0.118,0.229,0.181,0.381,0.181
			c0.145,0,0.273-0.057,0.375-0.174C338.815,76.855,338.865,76.683,338.865,76.458"/>
		<path clip-path="url(#SVGID_6_)" fill-rule="evenodd" clip-rule="evenodd" fill="#FFFFFF" d="M398.109,81.144
			c-1.646,0-2.979-1.332-2.979-2.973c0-1.646,1.332-2.979,2.979-2.979h2.474c1.646,0,2.979,1.333,2.979,2.979
			c0,1.641-1.332,2.973-2.979,2.973H398.109z"/>
		<path clip-path="url(#SVGID_6_)" fill="none" stroke="#000000" stroke-width="0.56" d="M398.109,81.144
			c-1.646,0-2.979-1.332-2.979-2.973c0-1.646,1.332-2.979,2.979-2.979h2.474c1.646,0,2.979,1.333,2.979,2.979
			c0,1.641-1.332,2.973-2.979,2.973H398.109z"/>
		<path clip-path="url(#SVGID_6_)" fill-rule="evenodd" clip-rule="evenodd" d="M398.271,80.142h-0.768v-2.894
			c-0.279,0.263-0.609,0.459-0.99,0.582v-0.694c0.201-0.067,0.42-0.19,0.654-0.375c0.235-0.185,0.393-0.398,0.482-0.644h0.621
			V80.142z"/>
		<path clip-path="url(#SVGID_6_)" fill-rule="evenodd" clip-rule="evenodd" d="M400.724,76.117c0.386,0,0.688,0.14,0.907,0.42
			c0.263,0.324,0.392,0.867,0.392,1.629c0,0.755-0.135,1.304-0.392,1.634c-0.219,0.275-0.521,0.409-0.907,0.409
			c-0.392,0-0.705-0.146-0.947-0.448c-0.24-0.302-0.356-0.834-0.356-1.601c0-0.756,0.133-1.299,0.392-1.629
			C400.029,76.257,400.332,76.117,400.724,76.117 M400.724,76.755c-0.096,0-0.181,0.028-0.251,0.09
			c-0.073,0.062-0.131,0.168-0.17,0.319c-0.055,0.196-0.077,0.531-0.077,1.002c0,0.47,0.022,0.795,0.067,0.968
			c0.049,0.179,0.106,0.291,0.18,0.354c0.07,0.056,0.155,0.089,0.251,0.089c0.09,0,0.173-0.033,0.246-0.089
			c0.072-0.063,0.13-0.168,0.168-0.319c0.056-0.196,0.079-0.532,0.079-1.002c0-0.471-0.023-0.795-0.068-0.969
			c-0.049-0.173-0.106-0.291-0.179-0.353C400.896,76.783,400.813,76.755,400.724,76.755"/>
		<path clip-path="url(#SVGID_6_)" fill-rule="evenodd" clip-rule="evenodd" fill="#FFFFFF" d="M459.811,82.454
			c-1.646,0-2.979-1.332-2.979-2.979c0-1.64,1.333-2.973,2.979-2.973h2.475c1.646,0,2.978,1.333,2.978,2.973
			c0,1.646-1.332,2.979-2.978,2.979H459.811z"/>
		<path clip-path="url(#SVGID_6_)" fill="none" stroke="#000000" stroke-width="0.56" d="M459.811,82.454
			c-1.646,0-2.979-1.332-2.979-2.979c0-1.64,1.333-2.973,2.979-2.973h2.475c1.646,0,2.978,1.333,2.978,2.973
			c0,1.646-1.332,2.979-2.978,2.979H459.811z"/>
		<path clip-path="url(#SVGID_6_)" fill-rule="evenodd" clip-rule="evenodd" d="M459.973,81.452h-0.768v-2.895
			c-0.279,0.263-0.609,0.453-0.99,0.582v-0.7c0.201-0.061,0.42-0.189,0.654-0.369c0.235-0.185,0.393-0.397,0.482-0.644h0.621V81.452
			z"/>
		<path clip-path="url(#SVGID_6_)" fill-rule="evenodd" clip-rule="evenodd" d="M462.777,81.452h-0.768v-2.895
			c-0.279,0.263-0.609,0.453-0.99,0.582v-0.7c0.201-0.061,0.42-0.189,0.654-0.369c0.236-0.185,0.393-0.397,0.482-0.644h0.621V81.452
			z"/>
		<path clip-path="url(#SVGID_6_)" fill-rule="evenodd" clip-rule="evenodd" fill="#FFFFFF" d="M287.784,28.014
			c-1.64,0-2.978-1.339-2.978-2.979s1.338-2.973,2.978-2.973h2.479c1.641,0,2.973,1.333,2.973,2.973s-1.332,2.979-2.973,2.979
			H287.784z"/>
		<path clip-path="url(#SVGID_6_)" fill="none" stroke="#000000" stroke-width="0.56" d="M287.784,28.014
			c-1.64,0-2.978-1.339-2.978-2.979s1.338-2.973,2.978-2.973h2.479c1.641,0,2.973,1.333,2.973,2.973s-1.332,2.979-2.973,2.979
			H287.784z"/>
		<path clip-path="url(#SVGID_6_)" fill-rule="evenodd" clip-rule="evenodd" d="M287.952,27.011h-0.767v-2.894
			c-0.285,0.257-0.617,0.453-0.996,0.582v-0.7c0.2-0.066,0.418-0.189,0.654-0.375c0.235-0.179,0.396-0.396,0.48-0.638h0.628V27.011z
			"/>
		<path clip-path="url(#SVGID_6_)" fill-rule="evenodd" clip-rule="evenodd" d="M291.691,26.295v0.717h-2.693
			c0.034-0.275,0.118-0.527,0.264-0.767c0.146-0.241,0.437-0.566,0.863-0.964c0.346-0.324,0.559-0.543,0.637-0.654
			c0.106-0.163,0.162-0.314,0.162-0.471c0-0.174-0.049-0.303-0.14-0.397c-0.095-0.089-0.218-0.134-0.381-0.134
			c-0.162,0-0.291,0.045-0.386,0.145c-0.09,0.095-0.145,0.252-0.162,0.477l-0.768-0.073c0.051-0.425,0.19-0.728,0.432-0.912
			c0.24-0.186,0.543-0.274,0.9-0.274c0.398,0,0.707,0.106,0.936,0.319c0.225,0.212,0.336,0.476,0.336,0.795
			c0,0.179-0.034,0.353-0.096,0.515c-0.066,0.162-0.168,0.335-0.307,0.516c-0.096,0.117-0.264,0.285-0.505,0.509
			s-0.397,0.37-0.459,0.442c-0.067,0.072-0.116,0.146-0.157,0.213H291.691z"/>
		<path clip-path="url(#SVGID_6_)" fill-rule="evenodd" clip-rule="evenodd" fill="#FFFFFF" d="M344.061,28.137
			c-1.646,0-2.979-1.332-2.979-2.974c0-1.645,1.332-2.978,2.979-2.978h2.48c1.64,0,2.972,1.333,2.972,2.978
			c0,1.642-1.332,2.974-2.972,2.974H344.061z"/>
		<path clip-path="url(#SVGID_6_)" fill="none" stroke="#000000" stroke-width="0.56" d="M344.061,28.137
			c-1.646,0-2.979-1.332-2.979-2.974c0-1.645,1.332-2.978,2.979-2.978h2.48c1.64,0,2.972,1.333,2.972,2.978
			c0,1.642-1.332,2.974-2.972,2.974H344.061z"/>
		<path clip-path="url(#SVGID_6_)" fill-rule="evenodd" clip-rule="evenodd" d="M344.229,27.135h-0.773V24.24
			c-0.279,0.263-0.609,0.459-0.99,0.582v-0.694c0.201-0.066,0.42-0.189,0.656-0.375c0.234-0.185,0.396-0.397,0.48-0.644h0.627
			V27.135z"/>
		<path clip-path="url(#SVGID_6_)" fill-rule="evenodd" clip-rule="evenodd" d="M345.348,26.07l0.746-0.09
			c0.021,0.191,0.082,0.336,0.189,0.438c0.102,0.101,0.229,0.15,0.375,0.15c0.162,0,0.291-0.061,0.402-0.184
			c0.106-0.118,0.162-0.28,0.162-0.488c0-0.189-0.05-0.341-0.156-0.459c-0.106-0.111-0.229-0.168-0.381-0.168
			c-0.094,0-0.213,0.023-0.353,0.057l0.084-0.621c0.207,0.006,0.37-0.039,0.476-0.141c0.112-0.095,0.168-0.218,0.168-0.381
			c0-0.134-0.045-0.24-0.123-0.318c-0.078-0.084-0.185-0.123-0.318-0.123c-0.129,0-0.247,0.045-0.336,0.14
			c-0.096,0.09-0.15,0.224-0.168,0.397l-0.711-0.123c0.05-0.24,0.123-0.432,0.224-0.576c0.101-0.146,0.235-0.264,0.414-0.343
			c0.179-0.084,0.375-0.128,0.599-0.128c0.375,0,0.678,0.123,0.907,0.364c0.185,0.195,0.28,0.419,0.28,0.666
			c0,0.353-0.189,0.632-0.577,0.839c0.229,0.051,0.415,0.163,0.556,0.336c0.133,0.168,0.201,0.375,0.201,0.616
			c0,0.354-0.123,0.655-0.382,0.901c-0.257,0.247-0.575,0.37-0.963,0.37c-0.362,0-0.66-0.102-0.901-0.309
			C345.521,26.681,345.387,26.407,345.348,26.07"/>
		<path clip-path="url(#SVGID_6_)" fill-rule="evenodd" clip-rule="evenodd" fill="#FFFFFF" d="M401.754,30.045
			c-1.641,0-2.974-1.332-2.974-2.973c0-1.645,1.333-2.978,2.974-2.978h2.479c1.641,0,2.973,1.333,2.973,2.978
			c0,1.641-1.332,2.973-2.973,2.973H401.754z"/>
		<path clip-path="url(#SVGID_6_)" fill="none" stroke="#000000" stroke-width="0.56" d="M401.754,30.045
			c-1.641,0-2.974-1.332-2.974-2.973c0-1.645,1.333-2.978,2.974-2.978h2.479c1.641,0,2.973,1.333,2.973,2.978
			c0,1.641-1.332,2.973-2.973,2.973H401.754z"/>
		<path clip-path="url(#SVGID_6_)" fill-rule="evenodd" clip-rule="evenodd" d="M401.922,29.043h-0.769v-2.894
			c-0.279,0.263-0.61,0.459-0.989,0.582v-0.694c0.195-0.066,0.413-0.189,0.649-0.375c0.235-0.185,0.396-0.397,0.487-0.644h0.621
			V29.043z"/>
		<path clip-path="url(#SVGID_6_)" fill-rule="evenodd" clip-rule="evenodd" d="M404.575,29.043v-0.806h-1.641v-0.672l1.74-2.547
			h0.646v2.547h0.498v0.672h-0.498v0.806H404.575z M404.575,27.565v-1.372l-0.918,1.372H404.575z"/>
		<path clip-path="url(#SVGID_6_)" fill-rule="evenodd" clip-rule="evenodd" fill="#FFFFFF" d="M460.337,30.852
			c-1.646,0-2.979-1.332-2.979-2.973c0-1.646,1.333-2.979,2.979-2.979h2.474c1.646,0,2.978,1.333,2.978,2.979
			c0,1.641-1.332,2.973-2.978,2.973H460.337z"/>
		<path clip-path="url(#SVGID_6_)" fill="none" stroke="#000000" stroke-width="0.56" d="M460.337,30.852
			c-1.646,0-2.979-1.332-2.979-2.973c0-1.646,1.333-2.979,2.979-2.979h2.474c1.646,0,2.978,1.333,2.978,2.979
			c0,1.641-1.332,2.973-2.978,2.973H460.337z"/>
		<path clip-path="url(#SVGID_6_)" fill-rule="evenodd" clip-rule="evenodd" d="M460.499,29.85h-0.768v-2.895
			c-0.279,0.264-0.609,0.459-0.99,0.582v-0.693c0.201-0.067,0.42-0.19,0.654-0.375c0.235-0.186,0.393-0.398,0.482-0.645h0.621V29.85
			z"/>
		<path clip-path="url(#SVGID_6_)" fill-rule="evenodd" clip-rule="evenodd" d="M461.663,28.819l0.761-0.078
			c0.023,0.173,0.091,0.309,0.196,0.408c0.107,0.107,0.23,0.157,0.37,0.157c0.161,0,0.296-0.067,0.408-0.196
			c0.111-0.134,0.168-0.33,0.168-0.593c0-0.247-0.057-0.426-0.168-0.549c-0.107-0.123-0.252-0.186-0.432-0.186
			c-0.217,0-0.414,0.096-0.593,0.291l-0.622-0.089l0.393-2.088h2.031v0.722h-1.448l-0.117,0.677
			c0.173-0.084,0.346-0.128,0.524-0.128c0.343,0,0.627,0.123,0.862,0.375c0.241,0.246,0.359,0.565,0.359,0.964
			c0,0.329-0.097,0.62-0.286,0.884c-0.263,0.353-0.621,0.525-1.086,0.525c-0.37,0-0.672-0.095-0.907-0.296
			C461.849,29.425,461.708,29.155,461.663,28.819"/>
		<path clip-path="url(#SVGID_6_)" fill-rule="evenodd" clip-rule="evenodd" d="M288.081,143.948h-1.054l-0.42-1.092h-1.925
			l-0.392,1.092h-1.03l1.87-4.804h1.03L288.081,143.948z M286.295,142.05l-0.661-1.786l-0.649,1.786H286.295z"/>
		<path clip-path="url(#SVGID_6_)" fill-rule="evenodd" clip-rule="evenodd" d="M356.382,141.664h1.926
			c0.38,0,0.66,0.011,0.851,0.044c0.185,0.034,0.353,0.101,0.504,0.202c0.146,0.095,0.269,0.229,0.365,0.396
			c0.1,0.168,0.149,0.359,0.149,0.566c0,0.224-0.062,0.43-0.185,0.616c-0.117,0.189-0.285,0.33-0.492,0.425
			c0.291,0.084,0.521,0.229,0.677,0.436c0.157,0.208,0.235,0.448,0.235,0.724c0,0.224-0.051,0.436-0.151,0.638
			c-0.101,0.207-0.239,0.375-0.419,0.498c-0.174,0.123-0.393,0.202-0.65,0.23c-0.162,0.016-0.554,0.027-1.17,0.027h-1.64V141.664z
			 M357.355,142.464v1.108h0.639c0.375,0,0.609-0.005,0.705-0.017c0.162-0.017,0.297-0.078,0.392-0.174
			c0.097-0.095,0.14-0.219,0.14-0.375c0-0.145-0.039-0.268-0.123-0.357c-0.084-0.096-0.201-0.151-0.363-0.175
			c-0.096-0.011-0.375-0.011-0.828-0.011H357.355z M357.355,144.373v1.288h0.896c0.352,0,0.576-0.012,0.666-0.028
			c0.145-0.027,0.263-0.095,0.352-0.195c0.096-0.102,0.141-0.236,0.141-0.409c0-0.141-0.039-0.264-0.106-0.364
			c-0.073-0.101-0.173-0.174-0.302-0.223c-0.135-0.046-0.42-0.068-0.863-0.068H357.355z"/>
		<path clip-path="url(#SVGID_6_)" fill-rule="evenodd" clip-rule="evenodd" d="M426.211,145.123l0.946,0.298
			c-0.146,0.524-0.386,0.912-0.724,1.169c-0.335,0.252-0.76,0.381-1.274,0.381c-0.639,0-1.165-0.218-1.573-0.655
			c-0.415-0.437-0.622-1.029-0.622-1.786c0-0.8,0.207-1.422,0.622-1.862c0.414-0.449,0.957-0.667,1.629-0.667
			c0.588,0,1.069,0.173,1.433,0.521c0.219,0.207,0.387,0.503,0.492,0.884l-0.957,0.23c-0.062-0.247-0.179-0.443-0.357-0.588
			c-0.18-0.146-0.398-0.219-0.655-0.219c-0.358,0-0.649,0.129-0.868,0.387c-0.224,0.252-0.336,0.666-0.336,1.242
			c0,0.604,0.112,1.042,0.33,1.299c0.219,0.258,0.504,0.386,0.852,0.386c0.258,0,0.481-0.084,0.667-0.246
			C425.998,145.733,426.133,145.476,426.211,145.123"/>
		<polygon clip-path="url(#SVGID_6_)" fill-rule="evenodd" clip-rule="evenodd" points="426.083,104.481 426.083,99.679 
			429.38,99.679 429.38,100.491 427.056,100.491 427.056,101.627 429.061,101.627 429.061,102.438 427.056,102.438 427.056,104.481 
					"/>
		<polygon clip-path="url(#SVGID_6_)" fill-rule="evenodd" clip-rule="evenodd" points="363.52,101.963 363.52,97.16 367.085,97.16 
			367.085,97.972 364.487,97.972 364.487,99.035 366.906,99.035 366.906,99.846 364.487,99.846 364.487,101.157 367.174,101.157 
			367.174,101.963 		"/>
		<path clip-path="url(#SVGID_6_)" fill-rule="evenodd" clip-rule="evenodd" d="M300.116,95.061h1.775
			c0.403,0,0.704,0.027,0.918,0.09c0.28,0.084,0.521,0.229,0.722,0.441s0.357,0.471,0.459,0.778
			c0.105,0.308,0.157,0.688,0.157,1.137c0,0.397-0.045,0.739-0.146,1.024c-0.119,0.353-0.291,0.633-0.516,0.851
			c-0.168,0.162-0.396,0.291-0.684,0.381c-0.213,0.067-0.498,0.101-0.855,0.101h-1.831V95.061z M301.09,95.872v3.185h0.723
			c0.273,0,0.47-0.017,0.588-0.045c0.157-0.039,0.291-0.105,0.393-0.2c0.105-0.096,0.189-0.253,0.256-0.466
			c0.063-0.218,0.096-0.509,0.096-0.879c0-0.375-0.033-0.66-0.096-0.855c-0.066-0.202-0.162-0.358-0.279-0.465
			c-0.117-0.112-0.268-0.19-0.447-0.229c-0.135-0.028-0.402-0.045-0.795-0.045H301.09z"/>
		<path clip-path="url(#SVGID_6_)" fill-rule="evenodd" clip-rule="evenodd" d="M312.432,50.237v-0.813h2.094v1.915
			c-0.201,0.196-0.498,0.369-0.885,0.521c-0.386,0.152-0.771,0.224-1.17,0.224c-0.504,0-0.939-0.105-1.314-0.313
			c-0.375-0.213-0.655-0.516-0.846-0.907c-0.185-0.392-0.281-0.817-0.281-1.282c0-0.498,0.107-0.945,0.314-1.332
			c0.213-0.392,0.521-0.688,0.924-0.896c0.307-0.162,0.694-0.241,1.153-0.241c0.593,0,1.058,0.123,1.394,0.375
			s0.555,0.599,0.649,1.036l-0.963,0.185c-0.067-0.24-0.196-0.426-0.38-0.56c-0.191-0.141-0.42-0.207-0.7-0.207
			c-0.426,0-0.763,0.134-1.013,0.403c-0.252,0.269-0.377,0.672-0.377,1.197c0,0.571,0.125,0.996,0.382,1.282
			c0.252,0.285,0.582,0.431,0.997,0.431c0.201,0,0.408-0.039,0.609-0.117c0.207-0.084,0.381-0.18,0.526-0.291v-0.61H312.432z"/>
		<polygon clip-path="url(#SVGID_6_)" fill-rule="evenodd" clip-rule="evenodd" points="368.558,53.68 368.558,48.877 
			369.531,48.877 369.531,50.77 371.435,50.77 371.435,48.877 372.403,48.877 372.403,53.68 371.435,53.68 371.435,51.581 
			369.531,51.581 369.531,53.68 		"/>
		<rect x="428.988" y="48.877" clip-path="url(#SVGID_6_)" fill-rule="evenodd" clip-rule="evenodd" width="0.968" height="4.803"/>
	</g>
	<g clip-path="url(#SVGID_2_)">
		<defs>
			<rect id="SVGID_7_" x="235.079" y="20.383" width="233.173" height="151.516"/>
		</defs>
		<clipPath id="SVGID_8_">
			<use xlink:href="#SVGID_7_"  overflow="visible"/>
		</clipPath>
		<g opacity="0.15" clip-path="url(#SVGID_8_)">
			<g>
				<defs>
					<rect id="SVGID_9_" x="405.828" y="29.938" width="49.784" height="46.322"/>
				</defs>
				<clipPath id="SVGID_10_">
					<use xlink:href="#SVGID_9_"  overflow="visible"/>
				</clipPath>
				<g clip-path="url(#SVGID_10_)">
					<defs>
						<rect id="SVGID_11_" x="405.828" y="29.938" width="49.785" height="46.322"/>
					</defs>
					<clipPath id="SVGID_12_">
						<use xlink:href="#SVGID_11_"  overflow="visible"/>
					</clipPath>
					<path clip-path="url(#SVGID_12_)" fill-rule="evenodd" clip-rule="evenodd" d="M429.884,76.251
						c-14.118-0.336-24.8-10.597-24.016-22.252c0.728-10.938,10.781-19.341,23.03-20.175l2.351-0.056l0.089-2.632
						c0.034-0.856,1.859-1.444,2.8-1.097l16.48,6.051c0.605,0.225,1.383,0.639,1.377,1.188c-0.006,0.548-0.8,0.939-1.411,1.142
						l-16.899,5.554c-0.185,0.062-0.397,0.084-0.622,0.077c-0.968-0.016-2.16-0.599-2.132-1.31l0.072-2.004l-1.517,0.034
						c-8.14,0.549-14.785,6.186-15.188,13.406c-0.432,7.692,6.639,14.338,15.848,14.55c9.214,0.213,16.828-6.13,16.934-13.872
						l8.532,0.18C455.578,66.802,443.996,76.604,429.884,76.251"/>
				</g>
			</g>
		</g>
		<g opacity="0.15" clip-path="url(#SVGID_8_)">
			<g>
				<defs>
					<rect id="SVGID_13_" x="347.064" y="29.049" width="49.053" height="45.929"/>
				</defs>
				<clipPath id="SVGID_14_">
					<use xlink:href="#SVGID_13_"  overflow="visible"/>
				</clipPath>
				<g clip-path="url(#SVGID_14_)">
					<defs>
						<rect id="SVGID_15_" x="347.064" y="29.048" width="49.053" height="45.93"/>
					</defs>
					<clipPath id="SVGID_16_">
						<use xlink:href="#SVGID_15_"  overflow="visible"/>
					</clipPath>
					<path clip-path="url(#SVGID_16_)" fill-rule="evenodd" clip-rule="evenodd" d="M369.408,74.969
						c13.854,0.348,25.875-9.359,26.664-21.009c0.762-10.938-8.123-19.666-20.031-20.909l-2.299-0.14l0.262-2.603
						c0.085-0.852-1.629-1.489-2.592-1.182l-16.861,5.402c-0.609,0.196-1.421,0.577-1.489,1.12c-0.067,0.537,0.65,0.951,1.216,1.17
						l15.719,6.096c0.174,0.067,0.375,0.102,0.594,0.106c0.957,0.011,2.199-0.516,2.267-1.221l0.196-1.986l1.482,0.095
						c7.91,0.834,13.732,6.684,13.156,13.877c-0.599,7.669-8.498,13.95-17.539,13.732c-9.046-0.201-15.572-6.779-14.654-14.398
						l-8.28-0.173C345.701,64.484,355.553,74.64,369.408,74.969"/>
				</g>
			</g>
		</g>
	</g>
	<g clip-path="url(#SVGID_2_)">
		<defs>
			<rect id="SVGID_17_" width="496.734" height="186.885"/>
		</defs>
		<clipPath id="SVGID_18_">
			<use xlink:href="#SVGID_17_"  overflow="visible"/>
		</clipPath>
		<path clip-path="url(#SVGID_18_)" fill="none" stroke="#231F20" stroke-width="1.5" d="M9.75,1.749c0,0-8,0-8,8v167.386
			c0,0,0,8,8,8h472.8c0,0,8,0,8-8V9.749c0,0,0-8-8-8H9.75z"/>
	</g>
</g>
</svg>
