<?xml version="1.0" encoding="utf-8"?>
<!-- Generator: Adobe Illustrator 14.0.0, SVG Export Plug-In . SVG Version: 6.00 Build 43363)  -->
<!DOCTYPE svg PUBLIC "-//W3C//DTD SVG 1.0//EN" "http://www.w3.org/TR/2001/REC-SVG-20010904/DTD/svg10.dtd">
<svg version="1.0" id="Layer_1" xmlns="http://www.w3.org/2000/svg" xmlns:xlink="http://www.w3.org/1999/xlink" x="0px" y="0px"
	 width="481.475px" height="162.082px" viewBox="0 0 481.475 162.082" enable-background="new 0 0 481.475 162.082"
	 xml:space="preserve">
<g>
	<defs>
		<rect id="SVGID_1_" x="6.833" width="225.332" height="144.505"/>
	</defs>
	<clipPath id="SVGID_2_">
		<use xlink:href="#SVGID_1_"  overflow="visible"/>
	</clipPath>
	<path clip-path="url(#SVGID_2_)" fill-rule="evenodd" clip-rule="evenodd" fill="#FF590D" d="M231.507,83.689
		c-9.028,0-18.057-0.066-27.085-0.171c-11.203,0.969-38,1.109-49.207,1.201c-16.41,0.131-32.819,0.202-49.229,0.245
		c-32.832,0.088-65.664,0.066-98.497-0.048v0.346h224.018V83.689z"/>
	<path clip-path="url(#SVGID_2_)" fill-rule="evenodd" clip-rule="evenodd" fill="#B0D68F" d="M231.507,85.263H7.489v17.865
		c2.42,5.82,3.393,14.24,3.941,20.336c0.622,6.908,0.946,13.828,1.201,20.753h4.645c0.255-6.863,0.575-13.718,1.188-20.564
		c0.338-3.778,0.754-7.539,1.429-11.278c2.341-13.025,6.403-18.824,19.859-21.721c3.66-0.789,7.346-1.262,11.062-1.644
		c6.903-0.705,13.82-1.056,20.749-1.336c10.65-0.43,21.305-0.645,31.964-0.811c35.997-0.57,91.979-0.798,127.98-0.693V85.263z"/>
	<path clip-path="url(#SVGID_2_)" fill-rule="evenodd" clip-rule="evenodd" fill="#FF980F" d="M7.49,84.917
		c32.819,0.114,65.642,0.136,98.466,0.048c16.414-0.044,32.823-0.114,49.237-0.245c11.208-0.092,38.022-0.233,49.229-1.201
		c-14.17-0.167-28.34-0.39-42.505-0.811c-12.334-0.368-30.15-1.039-42.418-2.752c-15.217,2.13-40.669,2.765-55.943,3.094
		c-18.689,0.403-37.377,0.583-56.066,0.758V84.917z"/>
	<path clip-path="url(#SVGID_2_)" fill-rule="evenodd" clip-rule="evenodd" fill="#FF6129" d="M231.507,82.545
		c-5.737-0.197-11.47-0.434-17.202-0.767c-2.893,1.03-6.882,1.477-9.883,1.74c9.028,0.105,18.057,0.171,27.085,0.171V82.545z"/>
	<path clip-path="url(#SVGID_2_)" fill-rule="evenodd" clip-rule="evenodd" fill="#FF95BC" d="M223.579,0.603
		c-0.075,14.052-0.136,28.103-0.381,42.155c-0.123,7.025-0.25,14.051-0.759,21.068c-0.254,3.511-0.526,6.973-1.477,10.409
		c-1.069,3.849-2.756,6.154-6.657,7.543c5.732,0.333,11.465,0.57,17.202,0.767v-1.823c-3.269-1.981-4.229-5.268-4.882-8.608
		c-0.653-3.366-0.898-6.75-1.109-10.155c-0.416-6.815-0.543-13.631-0.653-20.451c-0.228-13.635-0.324-27.27-0.425-40.905H223.579z"
		/>
	<path clip-path="url(#SVGID_2_)" fill-rule="evenodd" clip-rule="evenodd" fill="#FFA236" d="M154.417,0.603
		c-0.359,13.666-1.047,35.313-3.125,48.909c-1.108,7.262-3.025,16.685-9.068,22.26c-5.869,5.417-15.568,7.179-22.725,8.183
		c12.262,1.714,30.075,2.384,42.404,2.753c14.17,0.42,28.344,0.644,42.519,0.81c3.002-0.263,6.99-0.71,9.883-1.74
		c-8.735-0.512-20.731-1.411-29.322-3.537c-11.241-2.778-17.168-7.415-20.52-18.855c-2.468-8.428-3.45-20.608-3.998-29.229
		c-0.626-9.844-0.955-19.693-1.214-29.554H154.417z"/>
	<path clip-path="url(#SVGID_2_)" fill-rule="evenodd" clip-rule="evenodd" fill="#FFEF4D" d="M79.742,0.603
		c-0.294,11.286-0.662,22.559-1.508,33.823c-0.42,5.636-0.951,11.246-1.893,16.83c-0.552,3.265-1.232,6.473-2.275,9.629
		c-0.741,2.249-1.639,4.379-2.875,6.412c-3.195,5.242-7.718,7.977-13.311,9.836c-5.435,1.81-10.961,2.616-16.598,3.274
		c-10.291,1.2-23.461,1.783-33.792,2.138v1.263c18.684-0.176,37.364-0.355,56.048-0.759c15.275-0.328,40.739-0.964,55.961-3.094
		c-7.157-1.004-16.861-2.766-22.729-8.183c-6.044-5.579-7.96-15.007-9.069-22.269c-2.077-13.596-2.761-35.234-3.12-48.9H79.742z"/>
	
		<path clip-path="url(#SVGID_2_)" fill="none" stroke="#000000" stroke-width="0.329" stroke-linecap="round" stroke-linejoin="round" stroke-dasharray="0.657,0.657" d="
		M7.49,103.127c2.419,5.82,3.392,14.24,3.94,20.337c0.623,6.907,0.947,13.828,1.201,20.753"/>
	
		<path clip-path="url(#SVGID_2_)" fill="none" stroke="#000000" stroke-width="0.329" stroke-linecap="round" stroke-linejoin="round" stroke-dasharray="0.657,0.657" d="
		M7.49,82.545C17.82,82.19,31,81.604,41.286,80.407c5.628-0.657,11.146-1.464,16.576-3.265c5.597-1.858,10.125-4.593,13.324-9.844
		c1.241-2.029,2.135-4.159,2.876-6.403c1.043-3.152,1.722-6.36,2.274-9.621c0.947-5.584,1.477-11.194,1.898-16.83
		c0.846-11.269,1.214-22.55,1.508-33.84"/>
	
		<path clip-path="url(#SVGID_2_)" fill="none" stroke="#000000" stroke-width="0.329" stroke-linecap="round" stroke-linejoin="round" stroke-dasharray="0.657,0.657" d="
		M7.49,84.917c48.558,0.167,97.112,0.193,145.669-0.184c12.137-0.092,24.269-0.158,36.405-0.491
		c4.216-0.114,8.428-0.259,12.64-0.552c2.209-0.154,4.41-0.346,6.601-0.666c2.349-0.338,4.61-0.741,6.802-1.784
		c3.498-1.661,4.764-4.44,5.583-7.903c0.702-2.967,0.978-5.956,1.21-8.976c0.228-3.011,0.368-6.026,0.478-9.046
		c0.224-6.105,0.324-12.211,0.408-18.32c0.162-12.128,0.228-24.26,0.293-36.391"/>
	
		<path clip-path="url(#SVGID_2_)" fill="none" stroke="#000000" stroke-width="0.329" stroke-linecap="round" stroke-linejoin="round" stroke-dasharray="0.657,0.657" d="
		M231.507,80.722c-3.269-1.981-4.229-5.268-4.882-8.608c-0.653-3.366-0.899-6.75-1.109-10.155
		c-0.416-6.815-0.543-13.631-0.653-20.451c-0.228-13.635-0.324-27.27-0.425-40.905"/>
	
		<path clip-path="url(#SVGID_2_)" fill="none" stroke="#000000" stroke-width="0.329" stroke-linecap="round" stroke-linejoin="round" stroke-dasharray="0.657,0.657" d="
		M7.49,83.808c17.505-0.162,35.015-0.338,52.52-0.684c15.104-0.302,37.426-0.854,52.494-2.349
		c5.474-0.539,10.887-1.214,16.247-2.546c3.2-0.798,6.25-1.784,9.169-3.388c3.41-1.876,5.917-4.217,7.946-7.548
		c2.656-4.361,3.927-9.445,4.843-14.327c2.613-13.942,3.34-38.337,3.708-52.363"/>
	
		<path clip-path="url(#SVGID_2_)" fill="none" stroke="#000000" stroke-width="0.329" stroke-linecap="round" stroke-linejoin="round" stroke-dasharray="0.657,0.657" d="
		M231.507,83.689c-17.509,0-35.014-0.219-52.524-0.565c-15.103-0.303-37.421-0.855-52.489-2.35
		c-5.475-0.539-10.888-1.214-16.252-2.546c-3.2-0.798-6.246-1.784-9.165-3.388c-3.41-1.876-5.917-4.216-7.946-7.547
		c-2.656-4.361-3.931-9.445-4.843-14.328c-2.617-13.942-3.34-38.337-3.708-52.362"/>
	
		<path clip-path="url(#SVGID_2_)" fill="none" stroke="#000000" stroke-width="0.329" stroke-linecap="round" stroke-linejoin="round" stroke-dasharray="0.657,0.657" d="
		M231.507,82.545c-10.335-0.355-23.509-0.942-33.8-2.139c-5.628-0.657-11.146-1.464-16.572-3.265
		c-5.597-1.858-10.129-4.593-13.328-9.844c-1.236-2.029-2.131-4.159-2.876-6.403c-1.038-3.152-1.722-6.36-2.274-9.621
		c-0.943-5.584-1.473-11.194-1.899-16.83c-0.845-11.269-1.209-22.55-1.507-33.84"/>
	
		<path clip-path="url(#SVGID_2_)" fill="none" stroke="#000000" stroke-width="0.329" stroke-linecap="round" stroke-linejoin="round" stroke-dasharray="0.657,0.657" d="
		M231.507,86.17c-36.005-0.105-91.944,0.123-127.945,0.693c-10.659,0.166-21.318,0.381-31.973,0.81
		c-6.938,0.281-13.863,0.631-20.775,1.337c-3.721,0.381-7.407,0.859-11.071,1.648c-13.425,2.893-17.496,8.669-19.846,21.678
		c-0.675,3.738-1.095,7.499-1.433,11.281c-0.609,6.855-0.933,13.723-1.188,20.6"/>
	
		<line clip-path="url(#SVGID_2_)" fill="none" stroke="#000000" stroke-width="0.438" stroke-linecap="round" stroke-linejoin="round" x1="7.49" y1="85.263" x2="231.508" y2="85.263"/>
	
		<line clip-path="url(#SVGID_2_)" fill="none" stroke="#000000" stroke-width="0.329" stroke-linecap="round" stroke-linejoin="round" stroke-dasharray="5.259,2.63" x1="156.832" y1="5.411" x2="156.832" y2="95.9"/>
	
		<line clip-path="url(#SVGID_2_)" fill="none" stroke="#000000" stroke-width="0.329" stroke-linecap="round" stroke-linejoin="round" stroke-dasharray="5.259,2.63" x1="82.161" y1="4.096" x2="82.161" y2="101.204"/>
	
		<line clip-path="url(#SVGID_2_)" fill="none" stroke="#000000" stroke-width="0.329" stroke-linecap="round" stroke-linejoin="round" stroke-dasharray="5.259,2.63" x1="14.954" y1="139.549" x2="14.954" y2="67.735"/>
	
		<line clip-path="url(#SVGID_2_)" fill="none" stroke="#000000" stroke-width="0.329" stroke-linecap="round" stroke-linejoin="round" stroke-dasharray="5.259,2.63" x1="224.039" y1="52.746" x2="224.039" y2="109.57"/>
	<path clip-path="url(#SVGID_2_)" fill-rule="evenodd" clip-rule="evenodd" fill="#FFFFFF" d="M225.161,70.326
		c0-0.618-0.504-1.118-1.122-1.118c-0.618,0-1.118,0.5-1.118,1.118c0,0.618,0.5,1.122,1.118,1.122
		C224.657,71.448,225.161,70.944,225.161,70.326"/>
	
		<circle clip-path="url(#SVGID_2_)" fill="none" stroke="#000000" stroke-width="0.438" stroke-linecap="round" stroke-linejoin="round" cx="224.041" cy="70.326" r="1.12"/>
	<path clip-path="url(#SVGID_2_)" fill-rule="evenodd" clip-rule="evenodd" fill="#FFFFFF" d="M157.954,10.587
		c0-0.618-0.5-1.118-1.122-1.118c-0.618,0-1.118,0.5-1.118,1.118c0,0.618,0.5,1.122,1.118,1.122
		C157.454,11.709,157.954,11.205,157.954,10.587"/>
	
		<path clip-path="url(#SVGID_2_)" fill="none" stroke="#000000" stroke-width="0.438" stroke-linecap="round" stroke-linejoin="round" d="
		M157.954,10.587c0-0.618-0.5-1.118-1.122-1.118c-0.618,0-1.118,0.5-1.118,1.118c0,0.618,0.5,1.122,1.118,1.122
		C157.454,11.709,157.954,11.205,157.954,10.587z"/>
	<path clip-path="url(#SVGID_2_)" fill-rule="evenodd" clip-rule="evenodd" fill="#FFFFFF" d="M83.283,10.587
		c0-0.618-0.504-1.118-1.122-1.118c-0.618,0-1.122,0.5-1.122,1.118c0,0.618,0.504,1.122,1.122,1.122
		C82.779,11.709,83.283,11.205,83.283,10.587"/>
	
		<circle clip-path="url(#SVGID_2_)" fill="none" stroke="#000000" stroke-width="0.438" stroke-linecap="round" stroke-linejoin="round" cx="82.161" cy="10.587" r="1.122"/>
	<path clip-path="url(#SVGID_2_)" fill-rule="evenodd" clip-rule="evenodd" fill="#FFFFFF" d="M16.076,130.065
		c0-0.618-0.504-1.118-1.122-1.118c-0.618,0-1.118,0.5-1.118,1.118c0,0.618,0.5,1.122,1.118,1.122
		C15.572,131.187,16.076,130.683,16.076,130.065"/>
	
		<circle clip-path="url(#SVGID_2_)" fill="none" stroke="#000000" stroke-width="0.438" stroke-linecap="round" stroke-linejoin="round" cx="14.956" cy="130.065" r="1.12"/>
	<path clip-path="url(#SVGID_2_)" fill-rule="evenodd" clip-rule="evenodd" d="M16.037,66.837l-0.325-0.995h-1.748l-0.347,0.995
		h-0.719l1.911-4.769h0.171l1.771,4.769H16.037z M14.862,63.3l-0.728,2.073h1.399L14.862,63.3z"/>
	<path clip-path="url(#SVGID_2_)" fill-rule="evenodd" clip-rule="evenodd" d="M82.222,108.554h-1.341v-4.703
		c0.57-0.027,0.982-0.04,1.236-0.04c0.465,0,0.824,0.101,1.078,0.298c0.254,0.202,0.382,0.487,0.382,0.859
		c0,0.219-0.084,0.417-0.246,0.596c-0.162,0.18-0.342,0.294-0.539,0.338c0.373,0.092,0.644,0.241,0.815,0.447
		s0.254,0.491,0.254,0.846c0,0.416-0.153,0.745-0.455,0.99C83.103,108.431,82.709,108.554,82.222,108.554 M81.521,104.363v1.355
		c0.136,0.013,0.302,0.017,0.5,0.017c0.609,0,0.911-0.245,0.911-0.74c0-0.434-0.276-0.653-0.837-0.653
		C81.88,104.342,81.692,104.35,81.521,104.363 M81.521,106.213v1.797c0.219,0.022,0.39,0.031,0.508,0.031
		c0.404,0,0.697-0.075,0.881-0.228c0.184-0.149,0.276-0.39,0.276-0.719c0-0.307-0.087-0.53-0.262-0.679
		c-0.18-0.145-0.474-0.215-0.886-0.215L81.521,106.213z"/>
	<path clip-path="url(#SVGID_2_)" fill-rule="evenodd" clip-rule="evenodd" d="M158.261,97.868l-0.215,0.548
		c-0.206-0.149-0.53-0.224-0.968-0.224c-0.412,0-0.745,0.176-0.995,0.531s-0.373,0.815-0.373,1.376c0,0.535,0.127,0.968,0.381,1.302
		c0.259,0.333,0.588,0.495,0.991,0.495c0.443,0,0.78-0.154,1.021-0.465l0.351,0.491c-0.373,0.368-0.85,0.552-1.438,0.552
		c-0.613,0-1.1-0.219-1.45-0.661c-0.356-0.443-0.531-1.03-0.531-1.754c0-0.701,0.189-1.284,0.566-1.748
		c0.376-0.465,0.863-0.697,1.459-0.697C157.573,97.614,157.972,97.697,158.261,97.868"/>
	<path clip-path="url(#SVGID_2_)" fill-rule="evenodd" clip-rule="evenodd" d="M223.732,116.394h-0.946v-4.703
		c0.605-0.021,0.99-0.03,1.161-0.03c0.653,0,1.175,0.197,1.56,0.596c0.382,0.399,0.575,0.933,0.575,1.595
		C226.082,115.548,225.297,116.394,223.732,116.394 M223.43,112.27v3.515c0.14,0.022,0.32,0.031,0.53,0.031
		c0.452,0,0.802-0.167,1.061-0.504c0.259-0.338,0.385-0.807,0.385-1.407c0-1.113-0.499-1.666-1.498-1.666
		C223.846,112.239,223.689,112.248,223.43,112.27"/>
</g>
<g>
	<path fill="#231F20" d="M88.406,92.567l0.234-0.591c0.12,0.088,0.269,0.161,0.448,0.22c0.179,0.059,0.339,0.088,0.48,0.088
		c0.25,0,0.452-0.068,0.604-0.206c0.152-0.137,0.228-0.311,0.228-0.523c0-0.159-0.042-0.306-0.127-0.441
		c-0.084-0.136-0.297-0.284-0.637-0.445l-0.379-0.176c-0.321-0.15-0.545-0.328-0.672-0.533s-0.191-0.453-0.191-0.741
		c0-0.351,0.124-0.642,0.373-0.874c0.248-0.231,0.567-0.347,0.957-0.347c0.52,0,0.881,0.084,1.085,0.254l-0.189,0.559
		c-0.085-0.062-0.216-0.122-0.392-0.18c-0.176-0.058-0.338-0.086-0.488-0.086c-0.218,0-0.39,0.062-0.516,0.186
		c-0.125,0.124-0.188,0.284-0.188,0.479c0,0.12,0.022,0.229,0.067,0.327c0.045,0.099,0.107,0.181,0.188,0.248
		c0.081,0.066,0.245,0.159,0.493,0.279l0.385,0.183c0.321,0.152,0.546,0.333,0.675,0.544c0.13,0.21,0.194,0.479,0.194,0.804
		c0,0.353-0.142,0.652-0.425,0.898s-0.663,0.369-1.138,0.369C89.058,92.862,88.702,92.764,88.406,92.567z"/>
</g>
<g>
	<defs>
		<rect id="SVGID_3_" x="6.833" width="225.332" height="144.505"/>
	</defs>
	<clipPath id="SVGID_4_">
		<use xlink:href="#SVGID_3_"  overflow="visible"/>
	</clipPath>
	<rect x="113.818" y="84.251" clip-path="url(#SVGID_4_)" fill="#FFFFFF" width="1.661" height="1.661"/>
	<path clip-path="url(#SVGID_4_)" fill="#231F20" d="M115.698,84.033h-2.1v2.098h2.1v-0.438V84.033z M114.038,84.471h1.223v1.222
		h-1.223V84.471z"/>
	<rect x="88.641" y="84.193" clip-path="url(#SVGID_4_)" fill="#FFFFFF" width="1.661" height="1.661"/>
	<path clip-path="url(#SVGID_4_)" fill="#231F20" d="M90.52,83.975H88.42v2.099h2.099v-0.439V83.975z M88.858,84.413h1.222v1.222
		h-1.222V84.413z"/>
</g>
<g>
	<path fill="#231F20" d="M115.053,88.292v4.125h-0.642v-4.125h-1.496v-0.578h3.702v0.578H115.053z"/>
</g>
<polygon fill-rule="evenodd" clip-rule="evenodd" points="473.27,84.487 471.955,81.419 473.107,81.419 473.107,69.792 
	473.437,69.792 473.437,81.419 474.585,81.419 "/>
<polygon fill-rule="evenodd" clip-rule="evenodd" points="263.871,129.728 263.871,88.441 262.719,88.441 264.039,85.373 
	265.353,88.441 264.201,88.441 264.201,129.728 "/>
<polygon fill-rule="evenodd" clip-rule="evenodd" points="331.281,84.487 329.966,81.419 331.113,81.419 331.113,10.219 
	331.443,10.219 331.443,81.419 332.596,81.419 "/>
<polygon fill-rule="evenodd" clip-rule="evenodd" points="406.075,84.487 404.76,81.419 405.913,81.419 405.913,10.219 
	406.242,10.219 406.242,81.419 407.391,81.419 "/>
<path fill-rule="evenodd" clip-rule="evenodd" d="M265.143,136.513l-0.324-0.995h-1.748l-0.348,0.995h-0.719l1.911-4.769h0.171
	l1.771,4.769H265.143z M263.969,132.976l-0.729,2.073h1.398L263.969,132.976z"/>
<g>
	<defs>
		<rect id="SVGID_5_" x="255.799" y="3.001" width="225.676" height="135.626"/>
	</defs>
	<clipPath id="SVGID_6_">
		<use xlink:href="#SVGID_5_"  overflow="visible"/>
	</clipPath>
	<path clip-path="url(#SVGID_6_)" fill-rule="evenodd" clip-rule="evenodd" d="M331.328,8.072h-1.34V3.369
		c0.569-0.031,0.981-0.044,1.235-0.044c0.466,0,0.824,0.101,1.078,0.302c0.254,0.197,0.382,0.487,0.382,0.855
		c0,0.219-0.084,0.421-0.246,0.6c-0.162,0.18-0.342,0.29-0.539,0.338c0.373,0.087,0.645,0.236,0.815,0.443
		c0.171,0.21,0.254,0.49,0.254,0.85c0,0.412-0.153,0.74-0.455,0.986C332.21,7.949,331.816,8.072,331.328,8.072 M330.628,3.881v1.35
		c0.136,0.013,0.302,0.022,0.5,0.022c0.608,0,0.911-0.25,0.911-0.745c0-0.434-0.276-0.649-0.838-0.649
		C330.986,3.859,330.799,3.864,330.628,3.881 M330.628,5.731v1.793c0.219,0.022,0.39,0.03,0.508,0.03
		c0.404,0,0.697-0.074,0.881-0.223c0.185-0.154,0.276-0.39,0.276-0.723c0-0.303-0.088-0.531-0.264-0.675
		c-0.179-0.145-0.473-0.22-0.885-0.22L330.628,5.731z"/>
	<path clip-path="url(#SVGID_6_)" fill-rule="evenodd" clip-rule="evenodd" d="M407.368,3.254l-0.215,0.548
		c-0.206-0.149-0.53-0.224-0.968-0.224c-0.412,0-0.745,0.176-0.995,0.531c-0.25,0.354-0.373,0.815-0.373,1.376
		c0,0.535,0.127,0.969,0.381,1.302c0.259,0.333,0.588,0.495,0.991,0.495c0.442,0,0.779-0.154,1.021-0.465l0.352,0.491
		c-0.373,0.368-0.851,0.552-1.438,0.552c-0.613,0-1.1-0.219-1.45-0.661c-0.354-0.443-0.53-1.03-0.53-1.754
		c0-0.701,0.188-1.284,0.565-1.748C405.085,3.232,405.571,3,406.167,3C406.681,3,407.079,3.083,407.368,3.254"/>
	<path clip-path="url(#SVGID_6_)" fill-rule="evenodd" clip-rule="evenodd" d="M472.84,68.174h-0.946v-4.703
		c0.605-0.017,0.99-0.03,1.161-0.03c0.653,0,1.175,0.201,1.56,0.6c0.383,0.399,0.575,0.929,0.575,1.591
		C475.189,67.328,474.404,68.174,472.84,68.174 M472.538,64.05v3.515c0.14,0.022,0.319,0.035,0.529,0.035
		c0.452,0,0.803-0.171,1.062-0.508c0.259-0.338,0.386-0.807,0.386-1.403c0-1.113-0.5-1.67-1.499-1.67
		C472.954,64.019,472.797,64.028,472.538,64.05"/>
	<path clip-path="url(#SVGID_6_)" fill-rule="evenodd" clip-rule="evenodd" d="M257.92,83.633h-1.341V78.93
		c0.573-0.027,0.985-0.04,1.235-0.04c0.465,0,0.824,0.101,1.078,0.298c0.254,0.202,0.381,0.487,0.381,0.859
		c0,0.219-0.078,0.417-0.24,0.596c-0.162,0.18-0.342,0.294-0.539,0.338c0.373,0.092,0.644,0.241,0.811,0.447
		c0.172,0.206,0.258,0.491,0.258,0.846c0,0.416-0.152,0.745-0.455,0.99C258.805,83.51,258.411,83.633,257.92,83.633 M257.223,79.447
		v1.35c0.131,0.013,0.303,0.017,0.5,0.017c0.609,0,0.911-0.245,0.911-0.74c0-0.434-0.28-0.653-0.837-0.653
		C257.582,79.421,257.391,79.429,257.223,79.447 M257.223,81.292v1.797c0.219,0.022,0.387,0.031,0.504,0.031
		c0.403,0,0.697-0.075,0.881-0.228c0.188-0.149,0.28-0.39,0.28-0.719c0-0.307-0.087-0.53-0.267-0.675
		c-0.176-0.149-0.469-0.219-0.881-0.219L257.223,81.292z"/>
	<path clip-path="url(#SVGID_6_)" fill-rule="evenodd" clip-rule="evenodd" d="M262.193,83.238c-0.241,0.307-0.618,0.46-1.118,0.46
		c-0.271,0-0.504-0.096-0.701-0.294c-0.202-0.197-0.298-0.438-0.298-0.731c0-0.347,0.152-0.645,0.456-0.881
		c0.307-0.241,0.692-0.364,1.166-0.364c0.131,0,0.276,0.026,0.438,0.083c0-0.557-0.25-0.833-0.746-0.833
		c-0.381,0-0.674,0.101-0.881,0.307l-0.254-0.508c0.114-0.097,0.276-0.176,0.477-0.246c0.207-0.065,0.399-0.101,0.589-0.101
		c0.499,0,0.858,0.114,1.087,0.342c0.223,0.228,0.337,0.588,0.337,1.083v1.232c0,0.302,0.092,0.504,0.272,0.604v0.303
		c-0.25,0-0.435-0.035-0.558-0.105C262.338,83.519,262.246,83.4,262.193,83.238 M262.137,81.945
		c-0.193-0.044-0.33-0.066-0.404-0.066c-0.311,0-0.561,0.079-0.754,0.241c-0.196,0.158-0.293,0.342-0.293,0.561
		c0,0.355,0.211,0.535,0.631,0.535c0.312,0,0.582-0.145,0.82-0.438V81.945z"/>
	<path clip-path="url(#SVGID_6_)" fill-rule="evenodd" clip-rule="evenodd" d="M263.482,83.427l0.215-0.574
		c0.342,0.219,0.612,0.333,0.818,0.333c0.377,0,0.566-0.158,0.566-0.478c0-0.223-0.18-0.421-0.545-0.583
		c-0.279-0.127-0.469-0.223-0.564-0.293c-0.102-0.066-0.184-0.141-0.254-0.224c-0.075-0.088-0.127-0.175-0.163-0.272
		c-0.035-0.092-0.052-0.197-0.052-0.306c0-0.281,0.101-0.5,0.307-0.662c0.206-0.158,0.477-0.237,0.807-0.237
		c0.25,0,0.565,0.079,0.946,0.237l-0.171,0.565c-0.246-0.193-0.486-0.289-0.732-0.289c-0.145,0-0.267,0.035-0.363,0.105
		c-0.102,0.07-0.149,0.153-0.149,0.259c0,0.219,0.123,0.39,0.373,0.499l0.438,0.202c0.267,0.123,0.46,0.258,0.582,0.416
		c0.123,0.158,0.185,0.351,0.185,0.588c0,0.306-0.11,0.547-0.323,0.723c-0.216,0.175-0.518,0.263-0.899,0.263
		C264.139,83.699,263.802,83.607,263.482,83.427"/>
	<path clip-path="url(#SVGID_6_)" fill-rule="evenodd" clip-rule="evenodd" d="M269.262,81.976h-2.476
		c0,0.399,0.11,0.71,0.329,0.925c0.193,0.189,0.447,0.285,0.749,0.285c0.351,0,0.64-0.101,0.877-0.307l0.254,0.443
		c-0.092,0.092-0.237,0.175-0.434,0.241c-0.241,0.092-0.513,0.136-0.815,0.136c-0.43,0-0.798-0.145-1.1-0.438
		c-0.338-0.325-0.504-0.759-0.504-1.307c0-0.565,0.171-1.021,0.517-1.363c0.308-0.306,0.675-0.46,1.097-0.46
		c0.49,0,0.871,0.14,1.151,0.417c0.269,0.263,0.404,0.618,0.404,1.056C269.312,81.735,269.293,81.862,269.262,81.976
		 M267.781,80.644c-0.271,0-0.5,0.088-0.684,0.263c-0.176,0.171-0.272,0.377-0.299,0.627h1.907c0-0.25-0.079-0.452-0.231-0.618
		C268.303,80.736,268.075,80.644,267.781,80.644"/>
	
		<path clip-path="url(#SVGID_6_)" fill="none" stroke="#000000" stroke-width="0.162" stroke-linecap="round" stroke-linejoin="round" d="
		M480.707,84.544c-4.396-1.801-8.792-0.956-13.184-0.465c-4.396,0.491-8.792,0.632-13.184,0.706
		c-4.396,0.07-8.792,0.075-12.886,0.066c-4.094-0.013-7.885-0.04-11.593-0.145c-3.708-0.109-7.333-0.293-11.105-2.086
		c-3.778-1.793-7.701-5.185-12.785-5.119c-5.08,0.065-11.317,3.594-16.635,5.391c-5.315,1.797-9.711,1.862-15.265,1.893
		c-5.553,0.031-12.264,0.035-17.663,0.004c-5.396-0.03-9.476-0.092-13.557-1.902c-4.085-1.81-8.169-5.373-12.031-5.435
		c-3.865-0.065-7.503,3.371-11.08,5.181c-3.576,1.815-7.082,2.003-11.014,2.117c-3.928,0.118-8.275,0.158-12.645,0.197
		c-4.369,0.04-8.758,0.084-13.148,0.268c-4.393,0.179-8.788,0.504-13.18,2.139c-4.396,1.639-8.793,4.584-13.188-1.407"/>
	
		<path clip-path="url(#SVGID_6_)" fill="none" stroke="#000000" stroke-width="0.162" stroke-linecap="round" stroke-linejoin="round" d="
		M480.707,84.128c-4.396-3.598-8.792-1.911-13.184-0.929c-4.396,0.986-8.792,1.266-13.188,1.411
		c-4.392,0.145-8.787,0.154-12.881,0.132s-7.885-0.075-11.602-0.29c-3.721-0.214-7.363-0.587-11.137-4.172
		c-3.778-3.581-7.688-10.374-12.76-10.239c-5.074,0.132-11.307,7.193-16.624,10.782c-5.312,3.594-9.707,3.721-15.261,3.787
		c-5.553,0.066-12.269,0.07-17.659,0.009c-5.387-0.061-9.453-0.184-13.521-3.804c-4.068-3.621-8.136-10.743-12.009-10.87
		c-3.871-0.127-7.549,6.741-11.164,10.365c-3.616,3.621-7.17,4.007-11.103,4.234c-3.931,0.233-8.235,0.307-12.573,0.39
		c-4.345,0.084-8.728,0.167-13.115,0.535c-4.387,0.364-8.782,1.013-13.174,4.282c-4.396,3.27-8.793,9.165-13.188-2.818"/>
	
		<path clip-path="url(#SVGID_6_)" fill="none" stroke="#000000" stroke-width="0.162" stroke-linecap="round" stroke-linejoin="round" d="
		M480.707,83.711c-4.396-5.395-8.792-2.866-13.184-1.389c-4.396,1.472-8.792,1.897-13.188,2.112
		c-4.396,0.219-8.792,0.232-12.886,0.197c-4.093-0.03-7.885-0.109-11.609-0.434c-3.727-0.319-7.386-0.881-11.163-6.258
		c-3.783-5.374-7.676-15.56-12.737-15.358c-5.063,0.202-11.295,10.786-16.607,16.177c-5.312,5.387-9.707,5.58-15.261,5.681
		c-5.558,0.096-12.272,0.1-17.655,0.008c-5.382-0.092-9.432-0.276-13.48-5.706c-4.055-5.431-8.104-16.112-11.988-16.3
		c-3.878-0.193-7.591,10.107-11.246,15.541c-3.656,5.435-7.263,6.009-11.193,6.356c-3.933,0.346-8.192,0.46-12.51,0.583
		c-4.313,0.122-8.687,0.249-13.074,0.797c-4.383,0.553-8.778,1.526-13.17,6.43c-4.396,4.905-8.793,13.745-13.188-4.229"/>
	
		<path clip-path="url(#SVGID_6_)" fill="none" stroke="#000000" stroke-width="0.162" stroke-linecap="round" stroke-linejoin="round" d="
		M480.707,83.295c-4.396-7.197-8.792-3.822-13.184-1.854c-4.396,1.968-8.792,2.529-13.188,2.823
		c-4.396,0.289-8.792,0.302-12.886,0.258c-4.093-0.044-7.885-0.149-11.619-0.574c-3.733-0.429-7.416-1.179-11.197-8.345
		c-3.778-7.166-7.657-20.749-12.711-20.481c-5.054,0.267-11.281,14.38-16.594,21.568c-5.308,7.188-9.703,7.442-15.262,7.574
		c-5.553,0.131-12.268,0.135-17.645,0.013c-5.375-0.123-9.41-0.364-13.447-7.609c-4.037-7.241-8.073-21.481-11.961-21.735
		c-3.893-0.254-7.635,13.478-11.33,20.723c-3.699,7.249-7.35,8.011-11.286,8.472c-3.931,0.464-8.147,0.618-12.438,0.78
		c-4.291,0.166-8.656,0.333-13.035,1.065c-4.383,0.736-8.778,2.034-13.17,8.573c-4.396,6.539-8.793,18.325-13.188-5.641"/>
	
		<path clip-path="url(#SVGID_6_)" fill="none" stroke="#000000" stroke-width="0.162" stroke-linecap="round" stroke-linejoin="round" d="
		M480.707,82.879c-4.396-8.994-8.792-4.777-13.184-2.319c-4.396,2.464-8.792,3.165-13.188,3.529
		c-4.396,0.359-8.792,0.381-12.886,0.324c-4.093-0.053-7.885-0.184-11.632-0.719c-3.743-0.534-7.442-1.472-11.225-10.431
		c-3.778-8.959-7.644-25.934-12.688-25.601s-11.269,17.979-16.576,26.96c-5.308,8.985-9.703,9.304-15.262,9.467
		c-5.553,0.162-12.271,0.171-17.641,0.017c-5.369-0.149-9.389-0.456-13.407-9.511c-4.024-9.05-8.043-26.849-11.944-27.169
		c-3.896-0.316-7.674,16.848-11.412,25.907s-7.438,10.015-11.373,10.589c-3.937,0.574-8.104,0.772-12.369,0.978
		c-4.265,0.201-8.625,0.411-13,1.328c-4.379,0.916-8.774,2.537-13.166,10.716c-4.396,8.174-8.793,22.905-13.188-7.052"/>
	
		<path clip-path="url(#SVGID_6_)" fill="none" stroke="#000000" stroke-width="0.162" stroke-linecap="round" stroke-linejoin="round" d="
		M480.707,82.462c-4.396-10.791-8.792-5.733-13.184-2.779c-4.396,2.95-8.792,3.796-13.188,4.23c-4.396,0.434-8.792,0.46-12.89,0.394
		c-4.094-0.07-7.885-0.223-11.637-0.868c-3.752-0.64-7.468-1.766-11.255-12.517c-3.782-10.747-7.631-31.119-12.667-30.72
		c-5.036,0.403-11.255,21.573-16.559,32.355c-5.308,10.777-9.703,11.163-15.262,11.36c-5.557,0.193-12.275,0.202-17.636,0.018
		c-5.361-0.18-9.367-0.548-13.373-11.413c-4.007-10.861-8.013-32.224-11.917-32.605c-3.909-0.377-7.719,20.218-11.496,31.088
		c-3.778,10.874-7.53,12.018-11.467,12.711c-3.936,0.688-8.06,0.924-12.297,1.17c-4.239,0.245-8.592,0.495-12.965,1.595
		c-4.375,1.1-8.771,3.046-13.162,12.86c-4.396,9.809-8.793,27.485-13.188-8.464"/>
	
		<path clip-path="url(#SVGID_6_)" fill="none" stroke="#000000" stroke-width="0.162" stroke-linecap="round" stroke-linejoin="round" d="
		M480.707,82.046c-4.396-12.592-8.792-6.688-13.184-3.243c-4.396,3.445-8.792,4.431-13.188,4.935
		c-4.396,0.508-8.796,0.535-12.89,0.46c-4.094-0.079-7.885-0.263-11.646-1.012c-3.765-0.746-7.499-2.06-11.285-14.604
		c-3.783-12.54-7.618-36.304-12.646-35.839c-5.022,0.469-11.237,25.171-16.546,37.745c-5.303,12.575-9.698,13.026-15.257,13.254
		c-5.557,0.228-12.275,0.237-17.632,0.022c-5.356-0.21-9.345-0.64-13.333-13.315c-3.993-12.671-7.98-37.592-11.898-38.035
		c-3.914-0.447-7.759,23.584-11.58,36.268c-3.818,12.685-7.619,14.021-11.554,14.828c-3.94,0.802-8.017,1.078-12.229,1.363
		c-4.211,0.285-8.56,0.583-12.928,1.863c-4.371,1.284-8.767,3.554-13.158,14.998c-4.396,11.448-8.793,32.07-13.188-9.875"/>
	
		<path clip-path="url(#SVGID_6_)" fill="none" stroke="#000000" stroke-width="0.162" stroke-linecap="round" stroke-linejoin="round" d="
		M480.707,81.63c-4.396-14.389-8.792-7.644-13.184-3.708c-4.396,3.94-8.792,5.062-13.188,5.641
		c-4.396,0.583-8.796,0.614-12.89,0.526s-7.885-0.298-11.659-1.153c-3.769-0.859-7.524-2.358-11.312-16.69
		s-7.604-41.497-12.623-40.963c-5.014,0.535-11.225,28.765-16.528,43.137c-5.303,14.371-9.698,14.889-15.257,15.147
		c-5.557,0.263-12.279,0.272-17.628,0.027c-5.347-0.242-9.322-0.732-13.297-15.214c-3.976-14.485-7.947-42.965-11.874-43.474
		c-3.928-0.508-7.801,26.955-11.663,41.45c-3.861,14.498-7.709,16.023-11.649,16.944c-3.936,0.92-7.973,1.236-12.158,1.56
		c-4.186,0.329-8.521,0.666-12.891,2.13c-4.365,1.469-8.761,4.063-13.152,17.142c-4.396,13.083-8.793,36.65-13.188-11.286"/>
	
		<path clip-path="url(#SVGID_6_)" fill="none" stroke="#000000" stroke-width="0.162" stroke-linecap="round" stroke-linejoin="round" d="
		M480.707,81.209c-4.396-16.182-8.792-8.59-13.184-4.164c-4.396,4.427-8.792,5.694-13.188,6.347
		c-4.396,0.648-8.796,0.688-12.89,0.587c-4.098-0.101-7.889-0.338-11.667-1.297c-3.783-0.965-7.552-2.652-11.343-18.777
		c-3.787-16.124-7.592-46.682-12.602-46.082c-5.006,0.605-11.212,32.364-16.515,48.532c-5.299,16.169-9.694,16.747-15.253,17.037
		c-5.561,0.293-12.285,0.302-17.623,0.035c-5.343-0.272-9.301-0.824-13.259-17.12c-3.962-16.296-7.919-48.335-11.851-48.909
		c-3.937-0.57-7.846,30.326-11.746,46.634c-3.905,16.305-7.797,18.027-11.742,19.062c-3.94,1.034-7.93,1.389-12.088,1.753
		c-4.159,0.368-8.49,0.749-12.855,2.397c-4.361,1.648-8.757,4.567-13.148,19.285c-4.396,14.718-8.793,41.235-13.188-12.697"/>
	
		<line clip-path="url(#SVGID_6_)" fill="none" stroke="#000000" stroke-width="0.657" stroke-linecap="round" stroke-linejoin="round" x1="256.565" y1="84.961" x2="480.707" y2="84.961"/>
	
		<path clip-path="url(#SVGID_6_)" fill="none" stroke="#000000" stroke-width="0.657" stroke-linecap="round" stroke-linejoin="round" d="
		M256.565,94.818c4.396,59.923,8.792,30.461,13.188,14.109c4.392-16.353,8.787-19.596,13.148-21.428
		c4.357-1.832,8.682-2.253,12.816-2.661c4.133-0.407,8.076-0.802,12.017-1.95c3.945-1.153,7.89-3.064,11.83-21.183
		c3.944-18.119,7.89-52.446,11.829-51.81c3.945,0.635,7.885,36.233,11.83,54.339s7.885,18.719,13.219,19.022
		c5.334,0.298,12.063,0.289,17.619-0.035c5.563-0.329,9.958-0.969,15.257-18.934c5.299-17.966,11.501-53.253,16.502-53.923
		c4.996-0.666,8.783,33.288,12.574,51.201c3.791,17.917,7.583,19.793,11.369,20.863c3.792,1.069,7.583,1.332,11.676,1.442
		c4.099,0.109,8.499,0.07,12.895-0.654c4.396-0.723,8.792-2.13,13.188-7.052c4.392-4.917,8.788-13.35,13.184,4.629"/>
	<path clip-path="url(#SVGID_6_)" fill-rule="evenodd" clip-rule="evenodd" fill="#FFFFFF" d="M265.16,129.789
		c0-0.622-0.504-1.122-1.122-1.122s-1.122,0.5-1.122,1.122c0,0.618,0.504,1.118,1.122,1.118S265.16,130.407,265.16,129.789"/>
	
		<circle clip-path="url(#SVGID_6_)" fill="none" stroke="#000000" stroke-width="0.438" stroke-linecap="round" stroke-linejoin="round" cx="264.038" cy="129.789" r="1.122"/>
	<path clip-path="url(#SVGID_6_)" fill-rule="evenodd" clip-rule="evenodd" fill="#FFFFFF" d="M332.402,10.246
		c0-0.618-0.504-1.122-1.121-1.122c-0.618,0-1.123,0.504-1.123,1.122c0,0.618,0.505,1.122,1.123,1.122
		C331.898,11.367,332.402,10.863,332.402,10.246"/>
	
		<circle clip-path="url(#SVGID_6_)" fill="none" stroke="#000000" stroke-width="0.438" stroke-linecap="round" stroke-linejoin="round" cx="331.28" cy="10.246" r="1.122"/>
	<path clip-path="url(#SVGID_6_)" fill-rule="evenodd" clip-rule="evenodd" fill="#FFFFFF" d="M407.114,10.246
		c0-0.618-0.5-1.122-1.122-1.122c-0.618,0-1.118,0.504-1.118,1.122c0,0.618,0.5,1.122,1.118,1.122
		C406.614,11.367,407.114,10.863,407.114,10.246"/>
	
		<path clip-path="url(#SVGID_6_)" fill="none" stroke="#000000" stroke-width="0.438" stroke-linecap="round" stroke-linejoin="round" d="
		M407.114,10.246c0-0.618-0.5-1.122-1.122-1.122c-0.618,0-1.118,0.504-1.118,1.122c0,0.618,0.5,1.122,1.118,1.122
		C406.614,11.367,407.114,10.863,407.114,10.246z"/>
	<path clip-path="url(#SVGID_6_)" fill-rule="evenodd" clip-rule="evenodd" fill="#FFFFFF" d="M474.356,70.015
		c0-0.618-0.5-1.118-1.122-1.118c-0.618,0-1.118,0.5-1.118,1.118c0,0.622,0.5,1.122,1.118,1.122
		C473.856,71.137,474.356,70.637,474.356,70.015"/>
	
		<path clip-path="url(#SVGID_6_)" fill="none" stroke="#000000" stroke-width="0.438" stroke-linecap="round" stroke-linejoin="round" d="
		M474.356,70.015c0-0.618-0.5-1.118-1.122-1.118c-0.618,0-1.118,0.5-1.118,1.118c0,0.622,0.5,1.122,1.118,1.122
		C473.856,71.137,474.356,70.637,474.356,70.015z"/>
</g>
<g>
	<path fill="#231F20" d="M2.602,147.384v5.02H1.82v-5.02H0v-0.703h4.504v0.703H2.602z"/>
	<path fill="#231F20" d="M7.68,152.404v-2.629c0-0.313-0.077-0.559-0.23-0.738s-0.37-0.27-0.648-0.27
		c-0.18,0-0.36,0.053-0.541,0.158s-0.32,0.229-0.416,0.369v3.109H5.102v-5.898h0.742v2.176c0.099-0.154,0.258-0.282,0.479-0.385
		s0.447-0.154,0.682-0.154c0.443,0,0.79,0.146,1.041,0.438s0.377,0.69,0.377,1.195v2.629H7.68z"/>
	<path fill="#231F20" d="M12.996,150.384H9.98c0,0.49,0.134,0.866,0.402,1.129c0.237,0.229,0.542,0.344,0.914,0.344
		c0.424,0,0.779-0.124,1.063-0.371l0.313,0.535c-0.115,0.115-0.291,0.213-0.527,0.297c-0.297,0.109-0.627,0.164-0.992,0.164
		c-0.526,0-0.973-0.178-1.34-0.535c-0.409-0.393-0.613-0.922-0.613-1.586c0-0.69,0.209-1.244,0.629-1.66
		c0.375-0.373,0.819-0.559,1.332-0.559c0.596,0,1.064,0.168,1.402,0.504c0.328,0.323,0.492,0.751,0.492,1.285
		C13.055,150.095,13.035,150.246,12.996,150.384z M11.195,148.767c-0.331,0-0.608,0.107-0.832,0.32
		c-0.213,0.203-0.334,0.456-0.363,0.758h2.316c0-0.299-0.094-0.549-0.281-0.75C11.83,148.876,11.549,148.767,11.195,148.767z"/>
	<path fill="#231F20" d="M19.292,147.169c-0.151-0.052-0.292-0.078-0.422-0.078c-0.227,0-0.414,0.086-0.561,0.258
		s-0.221,0.389-0.221,0.652c0,0.07,0.006,0.143,0.02,0.219h0.852v0.625h-0.852v3.559h-0.742v-3.559h-0.609v-0.625h0.609
		c0-0.534,0.131-0.953,0.395-1.258s0.611-0.457,1.043-0.457c0.216,0,0.448,0.039,0.695,0.117L19.292,147.169z"/>
	<path fill="#231F20" d="M19.714,150.302c0-0.646,0.174-1.167,0.521-1.564s0.805-0.596,1.373-0.596c0.599,0,1.064,0.191,1.395,0.572
		s0.496,0.911,0.496,1.588c0,0.674-0.169,1.207-0.508,1.596s-0.799,0.584-1.383,0.584c-0.596,0-1.061-0.197-1.395-0.59
		S19.714,150.969,19.714,150.302z M20.495,150.302c0,1.049,0.371,1.574,1.113,1.574c0.346,0,0.618-0.141,0.814-0.422
		s0.295-0.666,0.295-1.152c0-1.037-0.37-1.555-1.109-1.555c-0.338,0-0.609,0.138-0.811,0.414S20.495,149.818,20.495,150.302z"/>
	<path fill="#231F20" d="M24.983,148.22v2.668c0,0.646,0.28,0.969,0.84,0.969c0.245,0,0.469-0.07,0.672-0.211
		s0.337-0.303,0.402-0.488v-2.938h0.742v4.184h-0.742v-0.578c-0.083,0.164-0.25,0.314-0.502,0.451s-0.497,0.205-0.736,0.205
		c-0.458,0-0.809-0.131-1.053-0.395s-0.365-0.637-0.365-1.121v-2.746H24.983z"/>
	<path fill="#231F20" d="M30.925,148.935c-0.162-0.112-0.324-0.168-0.488-0.168c-0.263,0-0.493,0.121-0.689,0.363
		s-0.295,0.534-0.295,0.875v2.398H28.71v-4.184h0.742v0.668c0.271-0.498,0.673-0.746,1.207-0.746c0.133,0,0.324,0.023,0.574,0.07
		L30.925,148.935z"/>
	<path fill="#231F20" d="M37.525,152.404v-2.629c0-0.313-0.077-0.559-0.23-0.738s-0.37-0.27-0.648-0.27
		c-0.18,0-0.36,0.053-0.541,0.158s-0.32,0.229-0.416,0.369v3.109h-0.742v-5.898h0.742v2.176c0.099-0.154,0.258-0.282,0.479-0.385
		s0.447-0.154,0.682-0.154c0.443,0,0.79,0.146,1.041,0.438s0.377,0.69,0.377,1.195v2.629H37.525z"/>
	<path fill="#231F20" d="M40.916,153.115c-0.096,0.266-0.299,0.487-0.607,0.664s-0.653,0.266-1.033,0.266v-0.664
		c0.31,0,0.576-0.072,0.797-0.217s0.332-0.321,0.332-0.529c0-0.229-0.041-0.455-0.121-0.678s-0.185-0.498-0.313-0.826l-1.133-2.91
		h0.758l1.23,3.234l1.105-3.234h0.758L40.916,153.115z"/>
	<path fill="#231F20" d="M44.005,152.173v1.871h-0.742v-5.824h0.742v0.344c0.281-0.281,0.621-0.422,1.02-0.422
		c0.594,0,1.056,0.185,1.387,0.555s0.496,0.912,0.496,1.625c0,0.635-0.167,1.154-0.5,1.557s-0.815,0.604-1.445,0.604
		c-0.177,0-0.367-0.031-0.568-0.094S44.063,152.254,44.005,152.173z M44.005,149.123v2.438c0.047,0.07,0.146,0.137,0.297,0.201
		s0.298,0.096,0.441,0.096c0.922,0,1.383-0.521,1.383-1.563c0-0.529-0.109-0.916-0.328-1.16s-0.569-0.367-1.051-0.367
		c-0.104,0-0.232,0.037-0.383,0.109S44.094,149.031,44.005,149.123z"/>
	<path fill="#231F20" d="M51.244,150.384h-3.016c0,0.49,0.134,0.866,0.402,1.129c0.237,0.229,0.542,0.344,0.914,0.344
		c0.424,0,0.779-0.124,1.063-0.371l0.313,0.535c-0.115,0.115-0.291,0.213-0.527,0.297c-0.297,0.109-0.627,0.164-0.992,0.164
		c-0.526,0-0.973-0.178-1.34-0.535c-0.409-0.393-0.613-0.922-0.613-1.586c0-0.69,0.209-1.244,0.629-1.66
		c0.375-0.373,0.819-0.559,1.332-0.559c0.596,0,1.064,0.168,1.402,0.504c0.328,0.323,0.492,0.751,0.492,1.285
		C51.302,150.095,51.283,150.246,51.244,150.384z M49.443,148.767c-0.331,0-0.608,0.107-0.832,0.32
		c-0.213,0.203-0.334,0.456-0.363,0.758h2.316c0-0.299-0.094-0.549-0.281-0.75C50.077,148.876,49.797,148.767,49.443,148.767z"/>
	<path fill="#231F20" d="M54.357,148.935c-0.162-0.112-0.324-0.168-0.488-0.168c-0.263,0-0.493,0.121-0.689,0.363
		s-0.295,0.534-0.295,0.875v2.398h-0.742v-4.184h0.742v0.668c0.271-0.498,0.673-0.746,1.207-0.746c0.133,0,0.324,0.023,0.574,0.07
		L54.357,148.935z"/>
	<path fill="#231F20" d="M55.826,152.103l-0.262,0.379h-0.371v-5.977h0.742v2.023c0.07-0.096,0.203-0.185,0.396-0.266
		s0.385-0.121,0.572-0.121c0.573,0,1.037,0.198,1.393,0.594s0.533,0.896,0.533,1.5c0,0.698-0.178,1.247-0.535,1.646
		s-0.84,0.6-1.449,0.6c-0.198,0-0.393-0.037-0.584-0.111S55.925,152.207,55.826,152.103z M55.935,149.095v2.414
		c0,0.042,0.092,0.11,0.277,0.205s0.326,0.143,0.422,0.143c0.505,0,0.867-0.121,1.086-0.363s0.328-0.648,0.328-1.219
		c0-0.474-0.127-0.844-0.383-1.109s-0.599-0.398-1.031-0.398c-0.091,0-0.218,0.039-0.381,0.117S55.984,149.033,55.935,149.095z"/>
	<path fill="#231F20" d="M59.376,150.302c0-0.646,0.174-1.167,0.521-1.564s0.805-0.596,1.373-0.596c0.599,0,1.064,0.191,1.395,0.572
		s0.496,0.911,0.496,1.588c0,0.674-0.169,1.207-0.508,1.596s-0.799,0.584-1.383,0.584c-0.596,0-1.061-0.197-1.395-0.59
		S59.376,150.969,59.376,150.302z M60.158,150.302c0,1.049,0.371,1.574,1.113,1.574c0.346,0,0.618-0.141,0.814-0.422
		s0.295-0.666,0.295-1.152c0-1.037-0.37-1.555-1.109-1.555c-0.338,0-0.609,0.138-0.811,0.414S60.158,149.818,60.158,150.302z"/>
	<path fill="#231F20" d="M64.001,151.22v-4.715h0.742v4.59c0,0.224,0.064,0.4,0.193,0.529s0.297,0.193,0.506,0.193v0.664
		C64.482,152.482,64.001,152.062,64.001,151.22z"/>
	<path fill="#231F20" d="M68.666,151.923c-0.297,0.373-0.751,0.559-1.363,0.559c-0.328,0-0.613-0.119-0.854-0.357
		s-0.361-0.535-0.361-0.889c0-0.424,0.186-0.783,0.557-1.076s0.844-0.439,1.42-0.439c0.156,0,0.333,0.034,0.531,0.102
		c0-0.677-0.302-1.016-0.906-1.016c-0.463,0-0.82,0.125-1.07,0.375l-0.313-0.621c0.141-0.115,0.335-0.213,0.584-0.295
		s0.486-0.123,0.713-0.123c0.607,0,1.047,0.138,1.322,0.414s0.412,0.715,0.412,1.316v1.5c0,0.367,0.109,0.612,0.328,0.734v0.371
		c-0.302,0-0.528-0.043-0.678-0.129S68.73,152.121,68.666,151.923z M68.595,150.349c-0.234-0.052-0.398-0.078-0.492-0.078
		c-0.375,0-0.681,0.096-0.918,0.289s-0.355,0.42-0.355,0.684c0,0.435,0.256,0.652,0.77,0.652c0.375,0,0.707-0.178,0.996-0.535
		V150.349z"/>
	<path fill="#231F20" d="M70.232,152.154l0.262-0.703c0.414,0.271,0.748,0.406,1,0.406c0.458,0,0.688-0.193,0.688-0.578
		c0-0.276-0.221-0.513-0.664-0.711c-0.341-0.156-0.571-0.275-0.689-0.355s-0.221-0.172-0.309-0.275s-0.152-0.212-0.195-0.328
		s-0.064-0.24-0.064-0.373c0-0.344,0.125-0.612,0.375-0.805s0.577-0.289,0.98-0.289c0.305,0,0.689,0.096,1.152,0.289l-0.211,0.688
		c-0.294-0.234-0.59-0.352-0.887-0.352c-0.177,0-0.326,0.042-0.447,0.125s-0.182,0.189-0.182,0.316c0,0.268,0.152,0.471,0.457,0.609
		l0.531,0.242c0.326,0.148,0.563,0.318,0.711,0.508s0.223,0.428,0.223,0.715c0,0.375-0.131,0.668-0.395,0.881
		s-0.627,0.318-1.094,0.318C71.034,152.482,70.62,152.373,70.232,152.154z"/>
	<path fill="#231F20" d="M77.204,148.806h-0.484v-0.586h0.484v-0.875l0.742-0.285v1.16h1.148v0.586h-1.148v2.078
		c0,0.352,0.059,0.602,0.178,0.75s0.309,0.223,0.572,0.223c0.19,0,0.387-0.048,0.59-0.145l0.109,0.652
		c-0.307,0.078-0.645,0.117-1.012,0.117c-0.331,0-0.61-0.123-0.838-0.369s-0.342-0.557-0.342-0.932V148.806z"/>
	<path fill="#231F20" d="M82.688,152.404v-2.629c0-0.313-0.077-0.559-0.23-0.738s-0.37-0.27-0.648-0.27
		c-0.18,0-0.36,0.053-0.541,0.158s-0.32,0.229-0.416,0.369v3.109H80.11v-5.898h0.742v2.176c0.099-0.154,0.258-0.282,0.479-0.385
		s0.447-0.154,0.682-0.154c0.443,0,0.79,0.146,1.041,0.438s0.377,0.69,0.377,1.195v2.629H82.688z"/>
	<path fill="#231F20" d="M86.844,151.923c-0.297,0.373-0.751,0.559-1.363,0.559c-0.328,0-0.613-0.119-0.854-0.357
		s-0.361-0.535-0.361-0.889c0-0.424,0.186-0.783,0.557-1.076s0.844-0.439,1.42-0.439c0.156,0,0.333,0.034,0.531,0.102
		c0-0.677-0.302-1.016-0.906-1.016c-0.463,0-0.82,0.125-1.07,0.375l-0.313-0.621c0.141-0.115,0.335-0.213,0.584-0.295
		s0.486-0.123,0.713-0.123c0.607,0,1.047,0.138,1.322,0.414s0.412,0.715,0.412,1.316v1.5c0,0.367,0.109,0.612,0.328,0.734v0.371
		c-0.302,0-0.528-0.043-0.678-0.129S86.909,152.121,86.844,151.923z M86.774,150.349c-0.234-0.052-0.398-0.078-0.492-0.078
		c-0.375,0-0.681,0.096-0.918,0.289s-0.355,0.42-0.355,0.684c0,0.435,0.256,0.652,0.77,0.652c0.375,0,0.707-0.178,0.996-0.535
		V150.349z"/>
	<path fill="#231F20" d="M88.95,148.806h-0.484v-0.586h0.484v-0.875l0.742-0.285v1.16h1.148v0.586h-1.148v2.078
		c0,0.352,0.059,0.602,0.178,0.75s0.309,0.223,0.572,0.223c0.19,0,0.387-0.048,0.59-0.145l0.109,0.652
		c-0.307,0.078-0.645,0.117-1.012,0.117c-0.331,0-0.61-0.123-0.838-0.369s-0.342-0.557-0.342-0.932V148.806z"/>
	<path fill="#231F20" d="M97.636,152.404v-2.629c0-0.313-0.077-0.559-0.23-0.738s-0.37-0.27-0.648-0.27
		c-0.18,0-0.36,0.053-0.541,0.158s-0.32,0.229-0.416,0.369v3.109h-0.742v-5.898H95.8v2.176c0.099-0.154,0.258-0.282,0.479-0.385
		s0.447-0.154,0.682-0.154c0.443,0,0.79,0.146,1.041,0.438s0.377,0.69,0.377,1.195v2.629H97.636z"/>
	<path fill="#231F20" d="M101.792,151.923c-0.297,0.373-0.751,0.559-1.363,0.559c-0.328,0-0.613-0.119-0.854-0.357
		s-0.361-0.535-0.361-0.889c0-0.424,0.186-0.783,0.557-1.076s0.844-0.439,1.42-0.439c0.156,0,0.333,0.034,0.531,0.102
		c0-0.677-0.302-1.016-0.906-1.016c-0.463,0-0.82,0.125-1.07,0.375l-0.313-0.621c0.141-0.115,0.335-0.213,0.584-0.295
		s0.486-0.123,0.713-0.123c0.607,0,1.047,0.138,1.322,0.414s0.412,0.715,0.412,1.316v1.5c0,0.367,0.109,0.612,0.328,0.734v0.371
		c-0.302,0-0.528-0.043-0.678-0.129S101.857,152.121,101.792,151.923z M101.722,150.349c-0.234-0.052-0.398-0.078-0.492-0.078
		c-0.375,0-0.681,0.096-0.918,0.289s-0.355,0.42-0.355,0.684c0,0.435,0.256,0.652,0.77,0.652c0.375,0,0.707-0.178,0.996-0.535
		V150.349z"/>
	<path fill="#231F20" d="M105.14,152.482h-0.195l-1.793-4.273h0.813l1.105,2.93l1.129-2.93h0.777L105.14,152.482z"/>
	<path fill="#231F20" d="M111.074,150.384h-3.016c0,0.49,0.134,0.866,0.402,1.129c0.237,0.229,0.542,0.344,0.914,0.344
		c0.424,0,0.779-0.124,1.063-0.371l0.313,0.535c-0.115,0.115-0.291,0.213-0.527,0.297c-0.297,0.109-0.627,0.164-0.992,0.164
		c-0.526,0-0.973-0.178-1.34-0.535c-0.409-0.393-0.613-0.922-0.613-1.586c0-0.69,0.209-1.244,0.629-1.66
		c0.375-0.373,0.819-0.559,1.332-0.559c0.596,0,1.064,0.168,1.402,0.504c0.328,0.323,0.492,0.751,0.492,1.285
		C111.132,150.095,111.113,150.246,111.074,150.384z M109.273,148.767c-0.331,0-0.608,0.107-0.832,0.32
		c-0.213,0.203-0.334,0.456-0.363,0.758h2.316c0-0.299-0.094-0.549-0.281-0.75C109.907,148.876,109.627,148.767,109.273,148.767z"/>
	<path fill="#231F20" d="M115.373,148.806h-0.484v-0.586h0.484v-0.875l0.742-0.285v1.16h1.148v0.586h-1.148v2.078
		c0,0.352,0.059,0.602,0.178,0.75s0.309,0.223,0.572,0.223c0.19,0,0.387-0.048,0.59-0.145l0.109,0.652
		c-0.307,0.078-0.645,0.117-1.012,0.117c-0.331,0-0.61-0.123-0.838-0.369s-0.342-0.557-0.342-0.932V148.806z"/>
	<path fill="#231F20" d="M118.006,150.302c0-0.646,0.174-1.167,0.521-1.564s0.805-0.596,1.373-0.596
		c0.599,0,1.064,0.191,1.395,0.572s0.496,0.911,0.496,1.588c0,0.674-0.169,1.207-0.508,1.596s-0.799,0.584-1.383,0.584
		c-0.596,0-1.061-0.197-1.395-0.59S118.006,150.969,118.006,150.302z M118.787,150.302c0,1.049,0.371,1.574,1.113,1.574
		c0.346,0,0.618-0.141,0.814-0.422s0.295-0.666,0.295-1.152c0-1.037-0.37-1.555-1.109-1.555c-0.338,0-0.609,0.138-0.811,0.414
		S118.787,149.818,118.787,150.302z"/>
	<path fill="#231F20" d="M126.391,152.103l-0.262,0.379h-0.371v-5.977h0.742v2.023c0.07-0.096,0.203-0.185,0.396-0.266
		s0.385-0.121,0.572-0.121c0.573,0,1.037,0.198,1.393,0.594s0.533,0.896,0.533,1.5c0,0.698-0.178,1.247-0.535,1.646
		s-0.84,0.6-1.449,0.6c-0.198,0-0.393-0.037-0.584-0.111S126.49,152.207,126.391,152.103z M126.5,149.095v2.414
		c0,0.042,0.092,0.11,0.277,0.205s0.326,0.143,0.422,0.143c0.505,0,0.867-0.121,1.086-0.363s0.328-0.648,0.328-1.219
		c0-0.474-0.127-0.844-0.383-1.109s-0.599-0.398-1.031-0.398c-0.091,0-0.218,0.039-0.381,0.117S126.55,149.033,126.5,149.095z"/>
	<path fill="#231F20" d="M133.739,150.384h-3.016c0,0.49,0.134,0.866,0.402,1.129c0.237,0.229,0.542,0.344,0.914,0.344
		c0.424,0,0.779-0.124,1.063-0.371l0.313,0.535c-0.115,0.115-0.291,0.213-0.527,0.297c-0.297,0.109-0.627,0.164-0.992,0.164
		c-0.526,0-0.973-0.178-1.34-0.535c-0.409-0.393-0.613-0.922-0.613-1.586c0-0.69,0.209-1.244,0.629-1.66
		c0.375-0.373,0.819-0.559,1.332-0.559c0.596,0,1.064,0.168,1.402,0.504c0.328,0.323,0.492,0.751,0.492,1.285
		C133.797,150.095,133.778,150.246,133.739,150.384z M131.938,148.767c-0.331,0-0.608,0.107-0.832,0.32
		c-0.213,0.203-0.334,0.456-0.363,0.758h2.316c0-0.299-0.094-0.549-0.281-0.75C132.572,148.876,132.292,148.767,131.938,148.767z"/>
	<path fill="#231F20" d="M140.136,151.923c-0.297,0.373-0.751,0.559-1.363,0.559c-0.328,0-0.613-0.119-0.854-0.357
		s-0.361-0.535-0.361-0.889c0-0.424,0.186-0.783,0.557-1.076s0.844-0.439,1.42-0.439c0.156,0,0.333,0.034,0.531,0.102
		c0-0.677-0.302-1.016-0.906-1.016c-0.463,0-0.82,0.125-1.07,0.375l-0.313-0.621c0.141-0.115,0.335-0.213,0.584-0.295
		s0.486-0.123,0.713-0.123c0.607,0,1.047,0.138,1.322,0.414s0.412,0.715,0.412,1.316v1.5c0,0.367,0.109,0.612,0.328,0.734v0.371
		c-0.302,0-0.528-0.043-0.678-0.129S140.201,152.121,140.136,151.923z M140.066,150.349c-0.234-0.052-0.398-0.078-0.492-0.078
		c-0.375,0-0.681,0.096-0.918,0.289s-0.355,0.42-0.355,0.684c0,0.435,0.256,0.652,0.77,0.652c0.375,0,0.707-0.178,0.996-0.535
		V150.349z"/>
	<path fill="#231F20" d="M144.628,152.4v-0.309c-0.258,0.258-0.633,0.387-1.125,0.387c-0.523,0-0.948-0.188-1.273-0.563
		s-0.488-0.875-0.488-1.5c0-0.627,0.188-1.164,0.563-1.607s0.822-0.666,1.34-0.666c0.432,0,0.76,0.102,0.984,0.305v-1.941h0.742
		v5.895H144.628z M144.628,149.189c-0.188-0.281-0.444-0.422-0.77-0.422c-0.398,0-0.721,0.148-0.967,0.445s-0.369,0.674-0.369,1.133
		c0,1.008,0.458,1.512,1.375,1.512c0.117,0,0.258-0.037,0.422-0.111s0.267-0.153,0.309-0.236V149.189z"/>
	<path fill="#231F20" d="M149.085,152.4v-0.309c-0.258,0.258-0.633,0.387-1.125,0.387c-0.523,0-0.948-0.188-1.273-0.563
		s-0.488-0.875-0.488-1.5c0-0.627,0.188-1.164,0.563-1.607s0.822-0.666,1.34-0.666c0.432,0,0.76,0.102,0.984,0.305v-1.941h0.742
		v5.895H149.085z M149.085,149.189c-0.188-0.281-0.444-0.422-0.77-0.422c-0.398,0-0.721,0.148-0.967,0.445s-0.369,0.674-0.369,1.133
		c0,1.008,0.458,1.512,1.375,1.512c0.117,0,0.258-0.037,0.422-0.111s0.267-0.153,0.309-0.236V149.189z"/>
	<path fill="#231F20" d="M154.414,150.384h-3.016c0,0.49,0.134,0.866,0.402,1.129c0.237,0.229,0.542,0.344,0.914,0.344
		c0.424,0,0.779-0.124,1.063-0.371l0.313,0.535c-0.115,0.115-0.291,0.213-0.527,0.297c-0.297,0.109-0.627,0.164-0.992,0.164
		c-0.526,0-0.973-0.178-1.34-0.535c-0.409-0.393-0.613-0.922-0.613-1.586c0-0.69,0.209-1.244,0.629-1.66
		c0.375-0.373,0.819-0.559,1.332-0.559c0.596,0,1.064,0.168,1.402,0.504c0.328,0.323,0.492,0.751,0.492,1.285
		C154.472,150.095,154.453,150.246,154.414,150.384z M152.613,148.767c-0.331,0-0.608,0.107-0.832,0.32
		c-0.213,0.203-0.334,0.456-0.363,0.758h2.316c0-0.299-0.094-0.549-0.281-0.75C153.247,148.876,152.967,148.767,152.613,148.767z"/>
	<path fill="#231F20" d="M157.906,152.4v-0.309c-0.258,0.258-0.633,0.387-1.125,0.387c-0.523,0-0.948-0.188-1.273-0.563
		s-0.488-0.875-0.488-1.5c0-0.627,0.188-1.164,0.563-1.607s0.822-0.666,1.34-0.666c0.432,0,0.76,0.102,0.984,0.305v-1.941h0.742
		v5.895H157.906z M157.906,149.189c-0.188-0.281-0.444-0.422-0.77-0.422c-0.398,0-0.721,0.148-0.967,0.445s-0.369,0.674-0.369,1.133
		c0,1.008,0.458,1.512,1.375,1.512c0.117,0,0.258-0.037,0.422-0.111s0.267-0.153,0.309-0.236V149.189z"/>
	<path fill="#231F20" d="M163.264,152.404v-3.559h-0.574v-0.625h1.316v4.184H163.264z M163.67,146.638
		c0.127,0,0.236,0.045,0.326,0.135s0.135,0.197,0.135,0.322c0,0.127-0.045,0.236-0.135,0.326s-0.199,0.135-0.326,0.135
		c-0.125,0-0.232-0.045-0.322-0.135s-0.135-0.199-0.135-0.326s0.044-0.236,0.133-0.324S163.543,146.638,163.67,146.638z"/>
	<path fill="#231F20" d="M167.76,152.404v-2.434c0-0.445-0.067-0.757-0.201-0.936s-0.359-0.268-0.674-0.268
		c-0.169,0-0.346,0.051-0.531,0.152s-0.327,0.227-0.426,0.375v3.109h-0.742v-4.184h0.508l0.234,0.539
		c0.245-0.412,0.645-0.617,1.199-0.617c0.917,0,1.375,0.557,1.375,1.672v2.59H167.76z"/>
	<path fill="#231F20" d="M172.478,150.302c0-0.646,0.174-1.167,0.521-1.564s0.805-0.596,1.373-0.596
		c0.599,0,1.064,0.191,1.395,0.572s0.496,0.911,0.496,1.588c0,0.674-0.169,1.207-0.508,1.596s-0.799,0.584-1.383,0.584
		c-0.596,0-1.061-0.197-1.395-0.59S172.478,150.969,172.478,150.302z M173.259,150.302c0,1.049,0.371,1.574,1.113,1.574
		c0.346,0,0.618-0.141,0.814-0.422s0.295-0.666,0.295-1.152c0-1.037-0.37-1.555-1.109-1.555c-0.338,0-0.609,0.138-0.811,0.414
		S173.259,149.818,173.259,150.302z"/>
	<path fill="#231F20" d="M179.317,148.935c-0.162-0.112-0.324-0.168-0.488-0.168c-0.263,0-0.493,0.121-0.689,0.363
		s-0.295,0.534-0.295,0.875v2.398h-0.742v-4.184h0.742v0.668c0.271-0.498,0.673-0.746,1.207-0.746c0.133,0,0.324,0.023,0.574,0.07
		L179.317,148.935z"/>
	<path fill="#231F20" d="M182.806,152.4v-0.309c-0.258,0.258-0.633,0.387-1.125,0.387c-0.523,0-0.948-0.188-1.273-0.563
		s-0.488-0.875-0.488-1.5c0-0.627,0.188-1.164,0.563-1.607s0.822-0.666,1.34-0.666c0.432,0,0.76,0.102,0.984,0.305v-1.941h0.742
		v5.895H182.806z M182.806,149.189c-0.188-0.281-0.444-0.422-0.77-0.422c-0.398,0-0.721,0.148-0.967,0.445s-0.369,0.674-0.369,1.133
		c0,1.008,0.458,1.512,1.375,1.512c0.117,0,0.258-0.037,0.422-0.111s0.267-0.153,0.309-0.236V149.189z"/>
	<path fill="#231F20" d="M188.134,150.384h-3.016c0,0.49,0.134,0.866,0.402,1.129c0.237,0.229,0.542,0.344,0.914,0.344
		c0.424,0,0.779-0.124,1.063-0.371l0.313,0.535c-0.115,0.115-0.291,0.213-0.527,0.297c-0.297,0.109-0.627,0.164-0.992,0.164
		c-0.526,0-0.973-0.178-1.34-0.535c-0.409-0.393-0.613-0.922-0.613-1.586c0-0.69,0.209-1.244,0.629-1.66
		c0.375-0.373,0.819-0.559,1.332-0.559c0.596,0,1.064,0.168,1.402,0.504c0.328,0.323,0.492,0.751,0.492,1.285
		C188.192,150.095,188.173,150.246,188.134,150.384z M186.333,148.767c-0.331,0-0.608,0.107-0.832,0.32
		c-0.213,0.203-0.334,0.456-0.363,0.758h2.316c0-0.299-0.094-0.549-0.281-0.75C186.967,148.876,186.687,148.767,186.333,148.767z"/>
	<path fill="#231F20" d="M191.247,148.935c-0.162-0.112-0.324-0.168-0.488-0.168c-0.263,0-0.493,0.121-0.689,0.363
		s-0.295,0.534-0.295,0.875v2.398h-0.742v-4.184h0.742v0.668c0.271-0.498,0.673-0.746,1.207-0.746c0.133,0,0.324,0.023,0.574,0.07
		L191.247,148.935z"/>
	<path fill="#231F20" d="M195.535,148.806h-0.484v-0.586h0.484v-0.875l0.742-0.285v1.16h1.148v0.586h-1.148v2.078
		c0,0.352,0.059,0.602,0.178,0.75s0.309,0.223,0.572,0.223c0.19,0,0.387-0.048,0.59-0.145l0.109,0.652
		c-0.307,0.078-0.645,0.117-1.012,0.117c-0.331,0-0.61-0.123-0.838-0.369s-0.342-0.557-0.342-0.932V148.806z"/>
	<path fill="#231F20" d="M198.168,150.302c0-0.646,0.174-1.167,0.521-1.564s0.805-0.596,1.373-0.596
		c0.599,0,1.064,0.191,1.395,0.572s0.496,0.911,0.496,1.588c0,0.674-0.169,1.207-0.508,1.596s-0.799,0.584-1.383,0.584
		c-0.596,0-1.061-0.197-1.395-0.59S198.168,150.969,198.168,150.302z M198.949,150.302c0,1.049,0.371,1.574,1.113,1.574
		c0.346,0,0.618-0.141,0.814-0.422s0.295-0.666,0.295-1.152c0-1.037-0.37-1.555-1.109-1.555c-0.338,0-0.609,0.138-0.811,0.414
		S198.949,149.818,198.949,150.302z"/>
	<path fill="#231F20" d="M205.768,153.548l0.402-0.594c0.432,0.289,0.831,0.434,1.195,0.434c0.336,0,0.601-0.058,0.795-0.174
		s0.291-0.26,0.291-0.432c0-0.338-0.245-0.508-0.734-0.508c-0.083,0-0.234,0.021-0.453,0.063s-0.389,0.063-0.512,0.063
		c-0.594,0-0.891-0.224-0.891-0.672c0-0.138,0.07-0.263,0.209-0.375s0.312-0.193,0.518-0.242c-0.588-0.276-0.883-0.755-0.883-1.438
		c0-0.438,0.152-0.802,0.457-1.094s0.681-0.438,1.129-0.438c0.412,0,0.733,0.084,0.965,0.254l0.371-0.445l0.484,0.457l-0.445,0.336
		c0.19,0.248,0.285,0.57,0.285,0.969c0,0.422-0.131,0.776-0.395,1.063s-0.608,0.451-1.035,0.492l-0.613,0.063
		c-0.073,0.008-0.17,0.036-0.293,0.084s-0.184,0.111-0.184,0.189c0,0.107,0.127,0.16,0.383,0.16c0.112,0,0.287-0.02,0.523-0.061
		s0.413-0.061,0.527-0.061c0.412,0,0.732,0.098,0.963,0.295s0.346,0.469,0.346,0.818c0,0.385-0.172,0.697-0.518,0.934
		s-0.782,0.355-1.311,0.355c-0.271,0-0.556-0.048-0.855-0.145S205.95,153.687,205.768,153.548z M207.342,148.74
		c-0.258,0-0.468,0.091-0.631,0.273s-0.244,0.404-0.244,0.664c0,0.292,0.079,0.533,0.236,0.725s0.371,0.287,0.639,0.287
		c0.263,0,0.469-0.093,0.617-0.279s0.223-0.43,0.223-0.732c0-0.26-0.08-0.482-0.24-0.664S207.582,148.74,207.342,148.74z"/>
	<path fill="#231F20" d="M213.459,150.384h-3.016c0,0.49,0.134,0.866,0.402,1.129c0.237,0.229,0.542,0.344,0.914,0.344
		c0.424,0,0.779-0.124,1.063-0.371l0.313,0.535c-0.115,0.115-0.291,0.213-0.527,0.297c-0.297,0.109-0.627,0.164-0.992,0.164
		c-0.526,0-0.973-0.178-1.34-0.535c-0.409-0.393-0.613-0.922-0.613-1.586c0-0.69,0.209-1.244,0.629-1.66
		c0.375-0.373,0.819-0.559,1.332-0.559c0.596,0,1.064,0.168,1.402,0.504c0.328,0.323,0.492,0.751,0.492,1.285
		C213.518,150.095,213.499,150.246,213.459,150.384z M211.659,148.767c-0.331,0-0.608,0.107-0.832,0.32
		c-0.213,0.203-0.334,0.456-0.363,0.758h2.316c0-0.299-0.094-0.549-0.281-0.75C212.293,148.876,212.013,148.767,211.659,148.767z"/>
	<path fill="#231F20" d="M214.565,148.806h-0.484v-0.586h0.484v-0.875l0.742-0.285v1.16h1.148v0.586h-1.148v2.078
		c0,0.352,0.059,0.602,0.178,0.75s0.309,0.223,0.572,0.223c0.19,0,0.387-0.048,0.59-0.145l0.109,0.652
		c-0.307,0.078-0.645,0.117-1.012,0.117c-0.331,0-0.61-0.123-0.838-0.369s-0.342-0.557-0.342-0.932V148.806z"/>
	<path fill="#231F20" d="M220.931,148.806h-0.484v-0.586h0.484v-0.875l0.742-0.285v1.16h1.148v0.586h-1.148v2.078
		c0,0.352,0.059,0.602,0.178,0.75s0.309,0.223,0.572,0.223c0.19,0,0.387-0.048,0.59-0.145l0.109,0.652
		c-0.307,0.078-0.645,0.117-1.012,0.117c-0.331,0-0.61-0.123-0.838-0.369s-0.342-0.557-0.342-0.932V148.806z"/>
	<path fill="#231F20" d="M226.415,152.404v-2.629c0-0.313-0.077-0.559-0.23-0.738s-0.37-0.27-0.648-0.27
		c-0.18,0-0.36,0.053-0.541,0.158s-0.32,0.229-0.416,0.369v3.109h-0.742v-5.898h0.742v2.176c0.099-0.154,0.258-0.282,0.479-0.385
		s0.447-0.154,0.682-0.154c0.443,0,0.79,0.146,1.041,0.438s0.377,0.69,0.377,1.195v2.629H226.415z"/>
	<path fill="#231F20" d="M231.731,150.384h-3.016c0,0.49,0.134,0.866,0.402,1.129c0.237,0.229,0.542,0.344,0.914,0.344
		c0.424,0,0.779-0.124,1.063-0.371l0.313,0.535c-0.115,0.115-0.291,0.213-0.527,0.297c-0.297,0.109-0.627,0.164-0.992,0.164
		c-0.526,0-0.973-0.178-1.34-0.535c-0.409-0.393-0.613-0.922-0.613-1.586c0-0.69,0.209-1.244,0.629-1.66
		c0.375-0.373,0.819-0.559,1.332-0.559c0.596,0,1.064,0.168,1.402,0.504c0.328,0.323,0.492,0.751,0.492,1.285
		C231.79,150.095,231.771,150.246,231.731,150.384z M229.931,148.767c-0.331,0-0.608,0.107-0.832,0.32
		c-0.213,0.203-0.334,0.456-0.363,0.758h2.316c0-0.299-0.094-0.549-0.281-0.75C230.565,148.876,230.285,148.767,229.931,148.767z"/>
</g>
<path fill="#231F20" d="M3.223,162.003v-3.559H1.488v3.559H0.746v-3.559H0.137v-0.625h0.609c0-0.534,0.131-0.953,0.395-1.258
	s0.611-0.457,1.043-0.457c0.216,0,0.448,0.039,0.695,0.117l-0.207,0.547c-0.151-0.052-0.292-0.078-0.422-0.078
	c-0.227,0-0.414,0.086-0.561,0.258s-0.221,0.39-0.221,0.652c0,0.07,0.006,0.144,0.02,0.219h2.488v4.184H3.223z M3.512,156.238
	c0.127,0,0.236,0.045,0.326,0.135s0.135,0.197,0.135,0.322c0,0.128-0.045,0.236-0.135,0.326s-0.199,0.135-0.326,0.135
	c-0.125,0-0.232-0.045-0.322-0.135s-0.135-0.198-0.135-0.326c0-0.127,0.044-0.235,0.133-0.324
	C3.276,156.282,3.384,156.238,3.512,156.238z M7.671,162.003v-2.434c0-0.445-0.067-0.757-0.201-0.936
	c-0.134-0.178-0.359-0.268-0.674-0.268c-0.169,0-0.347,0.051-0.531,0.152c-0.185,0.102-0.327,0.227-0.426,0.375v3.109H5.097v-4.184
	h0.508l0.234,0.539c0.245-0.411,0.645-0.617,1.199-0.617c0.917,0,1.375,0.558,1.375,1.672v2.59H7.671z M11.829,161.523
	c-0.297,0.373-0.751,0.559-1.363,0.559c-0.328,0-0.613-0.119-0.854-0.357c-0.241-0.238-0.361-0.534-0.361-0.889
	c0-0.424,0.186-0.783,0.557-1.076s0.844-0.439,1.42-0.439c0.156,0,0.333,0.034,0.531,0.102c0-0.677-0.302-1.016-0.906-1.016
	c-0.464,0-0.82,0.125-1.07,0.375l-0.313-0.621c0.141-0.114,0.335-0.213,0.584-0.295c0.249-0.082,0.486-0.123,0.713-0.123
	c0.606,0,1.047,0.138,1.322,0.414c0.274,0.276,0.412,0.715,0.412,1.316v1.5c0,0.367,0.109,0.612,0.328,0.734v0.371
	c-0.302,0-0.528-0.043-0.678-0.129C12.001,161.863,11.894,161.721,11.829,161.523z M11.758,159.949
	c-0.234-0.052-0.398-0.078-0.492-0.078c-0.375,0-0.681,0.097-0.918,0.289c-0.237,0.193-0.355,0.421-0.355,0.684
	c0,0.435,0.256,0.652,0.77,0.652c0.375,0,0.707-0.178,0.996-0.535V159.949z M15.165,162.082c-0.961,0-1.441-0.42-1.441-1.262v-4.715
	h0.742v4.59c0,0.224,0.064,0.4,0.193,0.529s0.297,0.193,0.506,0.193V162.082L15.165,162.082z M22.015,159.531
	c0,0.164-0.02,0.315-0.059,0.453h-3.016c0,0.49,0.134,0.866,0.402,1.129c0.237,0.229,0.542,0.344,0.914,0.344
	c0.424,0,0.778-0.124,1.063-0.371l0.313,0.535c-0.115,0.115-0.291,0.214-0.527,0.297c-0.297,0.109-0.628,0.164-0.992,0.164
	c-0.526,0-0.973-0.178-1.34-0.535c-0.409-0.393-0.613-0.922-0.613-1.586c0-0.69,0.209-1.243,0.629-1.66
	c0.375-0.372,0.819-0.559,1.332-0.559c0.596,0,1.063,0.168,1.402,0.504C21.851,158.569,22.015,158.997,22.015,159.531
	L22.015,159.531z M20.996,158.695c-0.206-0.219-0.486-0.328-0.84-0.328c-0.331,0-0.608,0.107-0.832,0.32
	c-0.214,0.203-0.335,0.456-0.363,0.758h2.316C21.277,159.146,21.183,158.896,20.996,158.695L20.996,158.695z M25.066,158.535
	c-0.162-0.112-0.324-0.168-0.488-0.168c-0.263,0-0.493,0.121-0.689,0.363s-0.295,0.534-0.295,0.875v2.398h-0.742v-4.184h0.742v0.668
	c0.271-0.497,0.673-0.746,1.207-0.746c0.133,0,0.324,0.023,0.574,0.07L25.066,158.535z M28.179,158.535
	c-0.162-0.112-0.324-0.168-0.488-0.168c-0.263,0-0.493,0.121-0.689,0.363c-0.197,0.242-0.295,0.534-0.295,0.875v2.398h-0.742v-4.184
	h0.742v0.668c0.271-0.497,0.673-0.746,1.207-0.746c0.133,0,0.324,0.023,0.574,0.07L28.179,158.535z M28.744,159.902
	c0-0.646,0.174-1.167,0.521-1.564c0.348-0.397,0.805-0.596,1.373-0.596c0.599,0,1.064,0.191,1.395,0.572
	c0.331,0.382,0.496,0.911,0.496,1.588c0,0.675-0.169,1.207-0.508,1.596c-0.338,0.39-0.799,0.584-1.383,0.584
	c-0.596,0-1.061-0.196-1.395-0.59C28.91,161.099,28.744,160.569,28.744,159.902z M29.525,159.902c0,1.05,0.371,1.574,1.113,1.574
	c0.346,0,0.618-0.141,0.814-0.422s0.295-0.665,0.295-1.152c0-1.036-0.37-1.555-1.109-1.555c-0.338,0-0.609,0.138-0.811,0.414
	C29.626,159.038,29.525,159.417,29.525,159.902z M35.586,158.535c-0.161-0.112-0.324-0.168-0.488-0.168
	c-0.263,0-0.493,0.121-0.689,0.363c-0.196,0.242-0.295,0.534-0.295,0.875v2.398h-0.742v-4.184h0.742v0.668
	c0.271-0.497,0.673-0.746,1.207-0.746c0.133,0,0.324,0.023,0.574,0.07L35.586,158.535z M41.485,162v-0.309
	c-0.258,0.258-0.633,0.387-1.125,0.387c-0.523,0-0.948-0.188-1.273-0.563c-0.325-0.375-0.488-0.875-0.488-1.5
	c0-0.627,0.188-1.163,0.563-1.607c0.375-0.444,0.822-0.666,1.34-0.666c0.433,0,0.761,0.102,0.984,0.305v-1.941h0.742V162H41.485z
	 M41.485,158.789c-0.188-0.281-0.444-0.422-0.77-0.422c-0.398,0-0.721,0.148-0.967,0.445s-0.369,0.675-0.369,1.133
	c0,1.008,0.458,1.512,1.375,1.512c0.117,0,0.258-0.037,0.422-0.111s0.267-0.153,0.309-0.236V158.789z M43.648,162.003v-3.559h-0.574
	v-0.625h1.316v4.184H43.648z M44.055,156.238c0.128,0,0.236,0.045,0.326,0.135s0.135,0.197,0.135,0.322
	c0,0.128-0.045,0.236-0.135,0.326s-0.198,0.135-0.326,0.135c-0.125,0-0.232-0.045-0.322-0.135s-0.135-0.198-0.135-0.326
	c0-0.127,0.044-0.235,0.133-0.324C43.819,156.282,43.927,156.238,44.055,156.238z M50.409,156.796
	c-0.193-0.07-0.371-0.105-0.535-0.105c-0.474,0-0.711,0.347-0.711,1.039v0.09h1.168v0.625h-1.168v3.559h-0.746v-3.559h-1.824v3.559
	h-0.742v-3.559h-0.688v-0.625h0.688c0-0.497,0.13-0.894,0.391-1.189c0.26-0.295,0.609-0.443,1.047-0.443
	c0.252,0,0.485,0.038,0.699,0.113l-0.145,0.574c-0.185-0.067-0.363-0.102-0.535-0.102c-0.214,0-0.386,0.084-0.518,0.252
	c-0.132,0.168-0.197,0.406-0.197,0.713v0.082h1.824c0-1.141,0.48-1.711,1.441-1.711c0.252,0,0.484,0.037,0.695,0.109L50.409,156.796
	z M51.632,157.82v2.668c0,0.646,0.28,0.969,0.84,0.969c0.245,0,0.469-0.07,0.672-0.211s0.337-0.303,0.402-0.488v-2.938h0.742v4.184
	h-0.742v-0.578c-0.083,0.164-0.25,0.314-0.502,0.451s-0.497,0.205-0.736,0.205c-0.458,0-0.809-0.131-1.053-0.395
	c-0.244-0.263-0.365-0.637-0.365-1.121v-2.746H51.632z M56.266,162.082c-0.44,0-0.854-0.109-1.242-0.328l0.262-0.703
	c0.414,0.271,0.747,0.406,1,0.406c0.458,0,0.688-0.192,0.688-0.578c0-0.276-0.222-0.513-0.664-0.711
	c-0.341-0.156-0.571-0.274-0.689-0.355c-0.119-0.081-0.222-0.172-0.309-0.275c-0.087-0.103-0.152-0.212-0.195-0.328
	c-0.043-0.116-0.064-0.24-0.064-0.373c0-0.344,0.125-0.612,0.375-0.805c0.25-0.192,0.577-0.289,0.98-0.289
	c0.305,0,0.688,0.097,1.152,0.289l-0.211,0.688c-0.294-0.234-0.59-0.352-0.887-0.352c-0.177,0-0.326,0.042-0.447,0.125
	c-0.121,0.083-0.182,0.189-0.182,0.316c0,0.269,0.152,0.472,0.457,0.609l0.531,0.242c0.325,0.148,0.563,0.318,0.711,0.508
	c0.148,0.19,0.223,0.429,0.223,0.715c0,0.375-0.132,0.669-0.395,0.881C57.097,161.976,56.732,162.082,56.266,162.082L56.266,162.082
	z M58.896,162.003v-3.559h-0.574v-0.625h1.316v4.184H58.896z M59.303,156.238c0.128,0,0.236,0.045,0.326,0.135
	s0.135,0.197,0.135,0.322c0,0.128-0.045,0.236-0.135,0.326s-0.198,0.135-0.326,0.135c-0.125,0-0.232-0.045-0.322-0.135
	s-0.135-0.198-0.135-0.326c0-0.127,0.044-0.235,0.133-0.324C59.067,156.282,59.175,156.238,59.303,156.238z M60.544,159.902
	c0-0.646,0.174-1.167,0.521-1.564c0.348-0.397,0.805-0.596,1.373-0.596c0.599,0,1.063,0.191,1.395,0.572
	c0.331,0.382,0.496,0.911,0.496,1.588c0,0.675-0.169,1.207-0.508,1.596c-0.339,0.39-0.8,0.584-1.383,0.584
	c-0.597,0-1.062-0.196-1.395-0.59C60.71,161.099,60.544,160.569,60.544,159.902z M61.325,159.902c0,1.05,0.371,1.574,1.113,1.574
	c0.346,0,0.618-0.141,0.814-0.422c0.196-0.281,0.295-0.665,0.295-1.152c0-1.036-0.37-1.555-1.109-1.555
	c-0.339,0-0.609,0.138-0.811,0.414C61.426,159.038,61.325,159.417,61.325,159.902z M67.688,162.003v-2.434
	c0-0.445-0.067-0.757-0.201-0.936c-0.134-0.178-0.359-0.268-0.674-0.268c-0.169,0-0.346,0.051-0.531,0.152s-0.327,0.227-0.426,0.375
	v3.109h-0.742v-4.184h0.508l0.234,0.539c0.245-0.411,0.645-0.617,1.199-0.617c0.917,0,1.375,0.558,1.375,1.672v2.59H67.688z
	 M74.655,162.003v-3.559H72.92v3.559h-0.742v-3.559h-0.609v-0.625h0.609c0-0.534,0.132-0.953,0.395-1.258
	c0.263-0.305,0.611-0.457,1.043-0.457c0.216,0,0.448,0.039,0.695,0.117l-0.207,0.547c-0.151-0.052-0.292-0.078-0.422-0.078
	c-0.227,0-0.413,0.086-0.561,0.258c-0.147,0.172-0.221,0.39-0.221,0.652c0,0.07,0.007,0.144,0.02,0.219h2.488v4.184H74.655z
	 M74.944,156.238c0.128,0,0.236,0.045,0.326,0.135s0.135,0.197,0.135,0.322c0,0.128-0.045,0.236-0.135,0.326
	s-0.198,0.135-0.326,0.135c-0.125,0-0.232-0.045-0.322-0.135s-0.135-0.198-0.135-0.326c0-0.127,0.044-0.235,0.133-0.324
	C74.708,156.282,74.816,156.238,74.944,156.238z M80.111,159.531c0,0.164-0.02,0.315-0.059,0.453h-3.016
	c0,0.49,0.134,0.866,0.402,1.129c0.237,0.229,0.542,0.344,0.914,0.344c0.424,0,0.779-0.124,1.063-0.371l0.313,0.535
	c-0.115,0.115-0.291,0.214-0.527,0.297c-0.297,0.109-0.627,0.164-0.992,0.164c-0.526,0-0.973-0.178-1.34-0.535
	c-0.409-0.393-0.613-0.922-0.613-1.586c0-0.69,0.209-1.243,0.629-1.66c0.375-0.372,0.819-0.559,1.332-0.559
	c0.596,0,1.064,0.168,1.402,0.504C79.947,158.569,80.111,158.997,80.111,159.531L80.111,159.531z M79.092,158.695
	c-0.206-0.219-0.486-0.328-0.84-0.328c-0.331,0-0.608,0.107-0.832,0.32c-0.213,0.203-0.334,0.456-0.363,0.758h2.316
	C79.373,159.146,79.279,158.896,79.092,158.695L79.092,158.695z M82.389,162.082c-0.961,0-1.441-0.42-1.441-1.262v-4.715h0.742v4.59
	c0,0.224,0.064,0.4,0.193,0.529s0.298,0.193,0.506,0.193V162.082L82.389,162.082z M85.902,162v-0.309
	c-0.258,0.258-0.633,0.387-1.125,0.387c-0.523,0-0.948-0.188-1.273-0.563c-0.326-0.375-0.488-0.875-0.488-1.5
	c0-0.627,0.188-1.163,0.563-1.607c0.375-0.444,0.821-0.666,1.34-0.666c0.432,0,0.76,0.102,0.984,0.305v-1.941h0.742V162H85.902z
	 M85.902,158.789c-0.188-0.281-0.444-0.422-0.77-0.422c-0.398,0-0.721,0.148-0.967,0.445s-0.369,0.675-0.369,1.133
	c0,1.008,0.458,1.512,1.375,1.512c0.117,0,0.258-0.037,0.422-0.111s0.267-0.153,0.309-0.236V158.789z M88.561,160.906
	c0.161,0,0.299,0.058,0.414,0.172c0.114,0.115,0.172,0.253,0.172,0.414c0,0.162-0.058,0.3-0.172,0.416
	c-0.115,0.116-0.253,0.174-0.414,0.174c-0.162,0-0.3-0.058-0.414-0.174c-0.115-0.116-0.172-0.254-0.172-0.416
	c0-0.161,0.057-0.299,0.172-0.414C88.261,160.963,88.399,160.906,88.561,160.906z"/>
<g>
	<path fill="#231F20" d="M252.902,152.404l-0.395-1.207h-2.129l-0.422,1.207h-0.875l2.324-5.801h0.207l2.156,5.801H252.902z
		 M251.473,148.103l-0.887,2.52h1.699L251.473,148.103z"/>
	<path fill="#231F20" d="M256.017,152.154l0.262-0.703c0.414,0.271,0.747,0.406,1,0.406c0.458,0,0.688-0.193,0.688-0.578
		c0-0.276-0.222-0.513-0.664-0.711c-0.341-0.156-0.571-0.275-0.689-0.355s-0.222-0.172-0.309-0.275s-0.152-0.212-0.195-0.328
		s-0.064-0.24-0.064-0.373c0-0.344,0.125-0.612,0.375-0.805s0.577-0.289,0.98-0.289c0.305,0,0.688,0.096,1.152,0.289l-0.211,0.688
		c-0.294-0.234-0.59-0.352-0.887-0.352c-0.177,0-0.326,0.042-0.447,0.125s-0.182,0.189-0.182,0.316c0,0.268,0.152,0.471,0.457,0.609
		l0.531,0.242c0.325,0.148,0.563,0.318,0.711,0.508s0.223,0.428,0.223,0.715c0,0.375-0.132,0.668-0.395,0.881
		s-0.628,0.318-1.094,0.318C256.818,152.482,256.404,152.373,256.017,152.154z"/>
	<path fill="#231F20" d="M263.052,150.384h-3.016c0,0.49,0.134,0.866,0.402,1.129c0.237,0.229,0.542,0.344,0.914,0.344
		c0.425,0,0.778-0.124,1.063-0.371l0.313,0.535c-0.114,0.115-0.29,0.213-0.527,0.297c-0.297,0.109-0.628,0.164-0.992,0.164
		c-0.526,0-0.973-0.178-1.34-0.535c-0.409-0.393-0.613-0.922-0.613-1.586c0-0.69,0.21-1.244,0.629-1.66
		c0.375-0.373,0.819-0.559,1.332-0.559c0.597,0,1.063,0.168,1.402,0.504c0.328,0.323,0.492,0.751,0.492,1.285
		C263.11,150.095,263.091,150.246,263.052,150.384z M261.251,148.767c-0.331,0-0.608,0.107-0.832,0.32
		c-0.214,0.203-0.335,0.456-0.363,0.758h2.316c0-0.299-0.094-0.549-0.281-0.75C261.885,148.876,261.605,148.767,261.251,148.767z"/>
	<path fill="#231F20" d="M267.048,148.56l-0.367,0.523c-0.075-0.076-0.209-0.147-0.4-0.215s-0.38-0.102-0.564-0.102
		c-0.403,0-0.724,0.141-0.961,0.424s-0.355,0.67-0.355,1.162c0,0.49,0.121,0.863,0.363,1.119s0.578,0.385,1.008,0.385
		c0.333,0,0.669-0.129,1.008-0.387l0.293,0.625c-0.398,0.258-0.892,0.387-1.48,0.387c-0.57,0-1.042-0.191-1.414-0.574
		s-0.559-0.901-0.559-1.555c0-0.667,0.193-1.202,0.58-1.605s0.916-0.605,1.588-0.605c0.216,0,0.45,0.045,0.703,0.137
		S266.928,148.464,267.048,148.56z"/>
	<path fill="#231F20" d="M268.118,148.806h-0.484v-0.586h0.484v-0.875l0.742-0.285v1.16h1.148v0.586h-1.148v2.078
		c0,0.352,0.06,0.602,0.178,0.75s0.31,0.223,0.572,0.223c0.19,0,0.387-0.048,0.59-0.145l0.109,0.652
		c-0.308,0.078-0.645,0.117-1.012,0.117c-0.331,0-0.61-0.123-0.838-0.369s-0.342-0.557-0.342-0.932V148.806z"/>
	<path fill="#231F20" d="M271.384,152.404v-3.559h-0.574v-0.625h1.316v4.184H271.384z M271.79,146.638
		c0.128,0,0.236,0.045,0.326,0.135s0.135,0.197,0.135,0.322c0,0.127-0.045,0.236-0.135,0.326s-0.198,0.135-0.326,0.135
		c-0.125,0-0.232-0.045-0.322-0.135s-0.135-0.199-0.135-0.326s0.044-0.236,0.133-0.324S271.662,146.638,271.79,146.638z"/>
	<path fill="#231F20" d="M273.032,150.302c0-0.646,0.174-1.167,0.521-1.564s0.806-0.596,1.373-0.596
		c0.599,0,1.063,0.191,1.395,0.572s0.496,0.911,0.496,1.588c0,0.674-0.169,1.207-0.508,1.596s-0.8,0.584-1.383,0.584
		c-0.597,0-1.062-0.197-1.395-0.59S273.032,150.969,273.032,150.302z M273.813,150.302c0,1.049,0.371,1.574,1.113,1.574
		c0.347,0,0.618-0.141,0.814-0.422s0.295-0.666,0.295-1.152c0-1.037-0.37-1.555-1.109-1.555c-0.339,0-0.608,0.138-0.811,0.414
		S273.813,149.818,273.813,150.302z"/>
	<path fill="#231F20" d="M280.173,152.404v-2.434c0-0.445-0.067-0.757-0.201-0.936s-0.358-0.268-0.674-0.268
		c-0.169,0-0.347,0.051-0.531,0.152s-0.327,0.227-0.426,0.375v3.109h-0.742v-4.184h0.508l0.234,0.539
		c0.245-0.412,0.645-0.617,1.199-0.617c0.917,0,1.375,0.557,1.375,1.672v2.59H280.173z"/>
	<path fill="#231F20" d="M284.646,148.806h-0.484v-0.586h0.484v-0.875l0.742-0.285v1.16h1.148v0.586h-1.148v2.078
		c0,0.352,0.06,0.602,0.178,0.75s0.31,0.223,0.572,0.223c0.19,0,0.387-0.048,0.59-0.145l0.109,0.652
		c-0.308,0.078-0.645,0.117-1.012,0.117c-0.331,0-0.61-0.123-0.838-0.369s-0.342-0.557-0.342-0.932V148.806z"/>
	<path fill="#231F20" d="M290.13,152.404v-2.629c0-0.313-0.077-0.559-0.23-0.738s-0.37-0.27-0.648-0.27
		c-0.18,0-0.36,0.053-0.541,0.158s-0.319,0.229-0.416,0.369v3.109h-0.742v-5.898h0.742v2.176c0.099-0.154,0.259-0.282,0.479-0.385
		s0.447-0.154,0.682-0.154c0.442,0,0.79,0.146,1.041,0.438s0.377,0.69,0.377,1.195v2.629H290.13z"/>
	<path fill="#231F20" d="M294.196,148.935c-0.161-0.112-0.324-0.168-0.488-0.168c-0.263,0-0.493,0.121-0.689,0.363
		s-0.295,0.534-0.295,0.875v2.398h-0.742v-4.184h0.742v0.668c0.271-0.498,0.673-0.746,1.207-0.746c0.133,0,0.324,0.023,0.574,0.07
		L294.196,148.935z"/>
	<path fill="#231F20" d="M294.759,150.302c0-0.646,0.174-1.167,0.521-1.564s0.806-0.596,1.373-0.596
		c0.599,0,1.063,0.191,1.395,0.572s0.496,0.911,0.496,1.588c0,0.674-0.169,1.207-0.508,1.596s-0.8,0.584-1.383,0.584
		c-0.597,0-1.062-0.197-1.395-0.59S294.759,150.969,294.759,150.302z M295.54,150.302c0,1.049,0.371,1.574,1.113,1.574
		c0.347,0,0.618-0.141,0.814-0.422s0.295-0.666,0.295-1.152c0-1.037-0.37-1.555-1.109-1.555c-0.339,0-0.608,0.138-0.811,0.414
		S295.54,149.818,295.54,150.302z"/>
	<path fill="#231F20" d="M300.028,148.22v2.668c0,0.646,0.28,0.969,0.84,0.969c0.245,0,0.469-0.07,0.672-0.211
		s0.337-0.303,0.402-0.488v-2.938h0.742v4.184h-0.742v-0.578c-0.083,0.164-0.251,0.314-0.502,0.451s-0.497,0.205-0.736,0.205
		c-0.458,0-0.81-0.131-1.053-0.395s-0.365-0.637-0.365-1.121v-2.746H300.028z"/>
	<path fill="#231F20" d="M303.544,153.548l0.402-0.594c0.433,0.289,0.831,0.434,1.195,0.434c0.336,0,0.601-0.058,0.795-0.174
		s0.291-0.26,0.291-0.432c0-0.338-0.245-0.508-0.734-0.508c-0.083,0-0.234,0.021-0.453,0.063s-0.39,0.063-0.512,0.063
		c-0.594,0-0.891-0.224-0.891-0.672c0-0.138,0.069-0.263,0.209-0.375s0.312-0.193,0.518-0.242c-0.589-0.276-0.883-0.755-0.883-1.438
		c0-0.438,0.152-0.802,0.457-1.094s0.681-0.438,1.129-0.438c0.411,0,0.733,0.084,0.965,0.254l0.371-0.445l0.484,0.457l-0.445,0.336
		c0.19,0.248,0.285,0.57,0.285,0.969c0,0.422-0.132,0.776-0.395,1.063s-0.608,0.451-1.035,0.492l-0.613,0.063
		c-0.073,0.008-0.171,0.036-0.293,0.084s-0.184,0.111-0.184,0.189c0,0.107,0.128,0.16,0.383,0.16c0.112,0,0.286-0.02,0.523-0.061
		s0.413-0.061,0.527-0.061c0.411,0,0.732,0.098,0.963,0.295s0.346,0.469,0.346,0.818c0,0.385-0.173,0.697-0.518,0.934
		s-0.782,0.355-1.311,0.355c-0.271,0-0.556-0.048-0.855-0.145S303.727,153.687,303.544,153.548z M305.118,148.74
		c-0.258,0-0.468,0.091-0.631,0.273s-0.244,0.404-0.244,0.664c0,0.292,0.079,0.533,0.236,0.725s0.37,0.287,0.639,0.287
		c0.263,0,0.469-0.093,0.617-0.279s0.223-0.43,0.223-0.732c0-0.26-0.08-0.482-0.24-0.664S305.357,148.74,305.118,148.74z"/>
	<path fill="#231F20" d="M310.29,152.404v-2.629c0-0.313-0.077-0.559-0.23-0.738s-0.37-0.27-0.648-0.27
		c-0.18,0-0.36,0.053-0.541,0.158s-0.319,0.229-0.416,0.369v3.109h-0.742v-5.898h0.742v2.176c0.099-0.154,0.259-0.282,0.479-0.385
		s0.447-0.154,0.682-0.154c0.442,0,0.79,0.146,1.041,0.438s0.377,0.69,0.377,1.195v2.629H310.29z"/>
	<path fill="#231F20" d="M314.759,148.806h-0.484v-0.586h0.484v-0.875l0.742-0.285v1.16h1.148v0.586h-1.148v2.078
		c0,0.352,0.06,0.602,0.178,0.75s0.31,0.223,0.572,0.223c0.19,0,0.387-0.048,0.59-0.145l0.109,0.652
		c-0.308,0.078-0.645,0.117-1.012,0.117c-0.331,0-0.61-0.123-0.838-0.369s-0.342-0.557-0.342-0.932V148.806z"/>
	<path fill="#231F20" d="M320.243,152.404v-2.629c0-0.313-0.077-0.559-0.23-0.738s-0.37-0.27-0.648-0.27
		c-0.18,0-0.36,0.053-0.541,0.158s-0.319,0.229-0.416,0.369v3.109h-0.742v-5.898h0.742v2.176c0.099-0.154,0.259-0.282,0.479-0.385
		s0.447-0.154,0.682-0.154c0.442,0,0.79,0.146,1.041,0.438s0.377,0.69,0.377,1.195v2.629H320.243z"/>
	<path fill="#231F20" d="M325.56,150.384h-3.016c0,0.49,0.134,0.866,0.402,1.129c0.237,0.229,0.542,0.344,0.914,0.344
		c0.425,0,0.778-0.124,1.063-0.371l0.313,0.535c-0.114,0.115-0.29,0.213-0.527,0.297c-0.297,0.109-0.628,0.164-0.992,0.164
		c-0.526,0-0.973-0.178-1.34-0.535c-0.409-0.393-0.613-0.922-0.613-1.586c0-0.69,0.21-1.244,0.629-1.66
		c0.375-0.373,0.819-0.559,1.332-0.559c0.597,0,1.063,0.168,1.402,0.504c0.328,0.323,0.492,0.751,0.492,1.285
		C325.618,150.095,325.599,150.246,325.56,150.384z M323.759,148.767c-0.331,0-0.608,0.107-0.832,0.32
		c-0.214,0.203-0.335,0.456-0.363,0.758h2.316c0-0.299-0.094-0.549-0.281-0.75C324.393,148.876,324.113,148.767,323.759,148.767z"/>
	<path fill="#231F20" d="M328.536,152.154l0.262-0.703c0.414,0.271,0.747,0.406,1,0.406c0.458,0,0.688-0.193,0.688-0.578
		c0-0.276-0.222-0.513-0.664-0.711c-0.341-0.156-0.571-0.275-0.689-0.355s-0.222-0.172-0.309-0.275s-0.152-0.212-0.195-0.328
		s-0.064-0.24-0.064-0.373c0-0.344,0.125-0.612,0.375-0.805s0.577-0.289,0.98-0.289c0.305,0,0.688,0.096,1.152,0.289l-0.211,0.688
		c-0.294-0.234-0.59-0.352-0.887-0.352c-0.177,0-0.326,0.042-0.447,0.125s-0.182,0.189-0.182,0.316c0,0.268,0.152,0.471,0.457,0.609
		l0.531,0.242c0.325,0.148,0.563,0.318,0.711,0.508s0.223,0.428,0.223,0.715c0,0.375-0.132,0.668-0.395,0.881
		s-0.628,0.318-1.094,0.318C329.338,152.482,328.924,152.373,328.536,152.154z"/>
	<path fill="#231F20" d="M332.751,148.22v2.668c0,0.646,0.28,0.969,0.84,0.969c0.245,0,0.469-0.07,0.672-0.211
		s0.337-0.303,0.402-0.488v-2.938h0.742v4.184h-0.742v-0.578c-0.083,0.164-0.251,0.314-0.502,0.451s-0.497,0.205-0.736,0.205
		c-0.458,0-0.81-0.131-1.053-0.395s-0.365-0.637-0.365-1.121v-2.746H332.751z"/>
	<path fill="#231F20" d="M338.692,148.935c-0.161-0.112-0.324-0.168-0.488-0.168c-0.263,0-0.493,0.121-0.689,0.363
		s-0.295,0.534-0.295,0.875v2.398h-0.742v-4.184h0.742v0.668c0.271-0.498,0.673-0.746,1.207-0.746c0.133,0,0.324,0.023,0.574,0.07
		L338.692,148.935z"/>
	<path fill="#231F20" d="M341.79,147.169c-0.151-0.052-0.292-0.078-0.422-0.078c-0.227,0-0.413,0.086-0.561,0.258
		s-0.221,0.389-0.221,0.652c0,0.07,0.007,0.143,0.02,0.219h0.852v0.625h-0.852v3.559h-0.742v-3.559h-0.609v-0.625h0.609
		c0-0.534,0.132-0.953,0.395-1.258s0.61-0.457,1.043-0.457c0.216,0,0.448,0.039,0.695,0.117L341.79,147.169z"/>
	<path fill="#231F20" d="M344.849,151.923c-0.297,0.373-0.751,0.559-1.363,0.559c-0.328,0-0.612-0.119-0.854-0.357
		s-0.361-0.535-0.361-0.889c0-0.424,0.186-0.783,0.557-1.076s0.845-0.439,1.42-0.439c0.156,0,0.333,0.034,0.531,0.102
		c0-0.677-0.302-1.016-0.906-1.016c-0.464,0-0.82,0.125-1.07,0.375l-0.313-0.621c0.141-0.115,0.335-0.213,0.584-0.295
		s0.486-0.123,0.713-0.123c0.606,0,1.048,0.138,1.322,0.414s0.412,0.715,0.412,1.316v1.5c0,0.367,0.109,0.612,0.328,0.734v0.371
		c-0.302,0-0.528-0.043-0.678-0.129S344.914,152.121,344.849,151.923z M344.778,150.349c-0.234-0.052-0.398-0.078-0.492-0.078
		c-0.375,0-0.681,0.096-0.918,0.289s-0.355,0.42-0.355,0.684c0,0.435,0.257,0.652,0.77,0.652c0.375,0,0.707-0.178,0.996-0.535
		V150.349z"/>
	<path fill="#231F20" d="M349.845,148.56l-0.367,0.523c-0.075-0.076-0.209-0.147-0.4-0.215s-0.38-0.102-0.564-0.102
		c-0.403,0-0.724,0.141-0.961,0.424s-0.355,0.67-0.355,1.162c0,0.49,0.121,0.863,0.363,1.119s0.578,0.385,1.008,0.385
		c0.333,0,0.669-0.129,1.008-0.387l0.293,0.625c-0.398,0.258-0.892,0.387-1.48,0.387c-0.57,0-1.042-0.191-1.414-0.574
		s-0.559-0.901-0.559-1.555c0-0.667,0.193-1.202,0.58-1.605s0.916-0.605,1.588-0.605c0.216,0,0.45,0.045,0.703,0.137
		S349.725,148.464,349.845,148.56z"/>
	<path fill="#231F20" d="M354.173,150.384h-3.016c0,0.49,0.134,0.866,0.402,1.129c0.237,0.229,0.542,0.344,0.914,0.344
		c0.425,0,0.778-0.124,1.063-0.371l0.313,0.535c-0.114,0.115-0.29,0.213-0.527,0.297c-0.297,0.109-0.628,0.164-0.992,0.164
		c-0.526,0-0.973-0.178-1.34-0.535c-0.409-0.393-0.613-0.922-0.613-1.586c0-0.69,0.21-1.244,0.629-1.66
		c0.375-0.373,0.819-0.559,1.332-0.559c0.597,0,1.063,0.168,1.402,0.504c0.328,0.323,0.492,0.751,0.492,1.285
		C354.231,150.095,354.212,150.246,354.173,150.384z M352.372,148.767c-0.331,0-0.608,0.107-0.832,0.32
		c-0.214,0.203-0.335,0.456-0.363,0.758h2.316c0-0.299-0.094-0.549-0.281-0.75C353.006,148.876,352.727,148.767,352.372,148.767z"/>
	<path fill="#231F20" d="M360.579,148.56l-0.367,0.523c-0.075-0.076-0.209-0.147-0.4-0.215s-0.38-0.102-0.564-0.102
		c-0.403,0-0.724,0.141-0.961,0.424s-0.355,0.67-0.355,1.162c0,0.49,0.121,0.863,0.363,1.119s0.578,0.385,1.008,0.385
		c0.333,0,0.669-0.129,1.008-0.387l0.293,0.625c-0.398,0.258-0.892,0.387-1.48,0.387c-0.57,0-1.042-0.191-1.414-0.574
		s-0.559-0.901-0.559-1.555c0-0.667,0.193-1.202,0.58-1.605s0.916-0.605,1.588-0.605c0.216,0,0.45,0.045,0.703,0.137
		S360.459,148.464,360.579,148.56z"/>
	<path fill="#231F20" d="M361.11,150.302c0-0.646,0.174-1.167,0.521-1.564s0.806-0.596,1.373-0.596c0.599,0,1.063,0.191,1.395,0.572
		s0.496,0.911,0.496,1.588c0,0.674-0.169,1.207-0.508,1.596s-0.8,0.584-1.383,0.584c-0.597,0-1.062-0.197-1.395-0.59
		S361.11,150.969,361.11,150.302z M361.892,150.302c0,1.049,0.371,1.574,1.113,1.574c0.347,0,0.618-0.141,0.814-0.422
		s0.295-0.666,0.295-1.152c0-1.037-0.37-1.555-1.109-1.555c-0.339,0-0.608,0.138-0.811,0.414S361.892,149.818,361.892,150.302z"/>
	<path fill="#231F20" d="M368.251,152.404v-2.434c0-0.445-0.067-0.757-0.201-0.936s-0.358-0.268-0.674-0.268
		c-0.169,0-0.347,0.051-0.531,0.152s-0.327,0.227-0.426,0.375v3.109h-0.742v-4.184h0.508l0.234,0.539
		c0.245-0.412,0.645-0.617,1.199-0.617c0.917,0,1.375,0.557,1.375,1.672v2.59H368.251z"/>
	<path fill="#231F20" d="M370.313,148.806h-0.484v-0.586h0.484v-0.875l0.742-0.285v1.16h1.148v0.586h-1.148v2.078
		c0,0.352,0.06,0.602,0.178,0.75s0.31,0.223,0.572,0.223c0.19,0,0.387-0.048,0.59-0.145l0.109,0.652
		c-0.308,0.078-0.645,0.117-1.012,0.117c-0.331,0-0.61-0.123-0.838-0.369s-0.342-0.557-0.342-0.932V148.806z"/>
	<path fill="#231F20" d="M375.583,151.923c-0.297,0.373-0.751,0.559-1.363,0.559c-0.328,0-0.612-0.119-0.854-0.357
		s-0.361-0.535-0.361-0.889c0-0.424,0.186-0.783,0.557-1.076s0.845-0.439,1.42-0.439c0.156,0,0.333,0.034,0.531,0.102
		c0-0.677-0.302-1.016-0.906-1.016c-0.464,0-0.82,0.125-1.07,0.375l-0.313-0.621c0.141-0.115,0.335-0.213,0.584-0.295
		s0.486-0.123,0.713-0.123c0.606,0,1.048,0.138,1.322,0.414s0.412,0.715,0.412,1.316v1.5c0,0.367,0.109,0.612,0.328,0.734v0.371
		c-0.302,0-0.528-0.043-0.678-0.129S375.648,152.121,375.583,151.923z M375.513,150.349c-0.234-0.052-0.398-0.078-0.492-0.078
		c-0.375,0-0.681,0.096-0.918,0.289s-0.355,0.42-0.355,0.684c0,0.435,0.257,0.652,0.77,0.652c0.375,0,0.707-0.178,0.996-0.535
		V150.349z"/>
	<path fill="#231F20" d="M377.782,152.404v-3.559h-0.574v-0.625h1.316v4.184H377.782z M378.188,146.638
		c0.128,0,0.236,0.045,0.326,0.135s0.135,0.197,0.135,0.322c0,0.127-0.045,0.236-0.135,0.326s-0.198,0.135-0.326,0.135
		c-0.125,0-0.232-0.045-0.322-0.135s-0.135-0.199-0.135-0.326s0.044-0.236,0.133-0.324S378.061,146.638,378.188,146.638z"/>
	<path fill="#231F20" d="M382.278,152.404v-2.434c0-0.445-0.067-0.757-0.201-0.936s-0.358-0.268-0.674-0.268
		c-0.169,0-0.347,0.051-0.531,0.152s-0.327,0.227-0.426,0.375v3.109h-0.742v-4.184h0.508l0.234,0.539
		c0.245-0.412,0.645-0.617,1.199-0.617c0.917,0,1.375,0.557,1.375,1.672v2.59H382.278z"/>
	<path fill="#231F20" d="M384.435,152.404v-3.559h-0.574v-0.625h1.316v4.184H384.435z M384.841,146.638
		c0.128,0,0.236,0.045,0.326,0.135s0.135,0.197,0.135,0.322c0,0.127-0.045,0.236-0.135,0.326s-0.198,0.135-0.326,0.135
		c-0.125,0-0.232-0.045-0.322-0.135s-0.135-0.199-0.135-0.326s0.044-0.236,0.133-0.324S384.713,146.638,384.841,146.638z"/>
	<path fill="#231F20" d="M388.931,152.404v-2.434c0-0.445-0.067-0.757-0.201-0.936s-0.358-0.268-0.674-0.268
		c-0.169,0-0.347,0.051-0.531,0.152s-0.327,0.227-0.426,0.375v3.109h-0.742v-4.184h0.508l0.234,0.539
		c0.245-0.412,0.645-0.617,1.199-0.617c0.917,0,1.375,0.557,1.375,1.672v2.59H388.931z"/>
	<path fill="#231F20" d="M390.575,153.548l0.402-0.594c0.433,0.289,0.831,0.434,1.195,0.434c0.336,0,0.601-0.058,0.795-0.174
		s0.291-0.26,0.291-0.432c0-0.338-0.245-0.508-0.734-0.508c-0.083,0-0.234,0.021-0.453,0.063s-0.39,0.063-0.512,0.063
		c-0.594,0-0.891-0.224-0.891-0.672c0-0.138,0.069-0.263,0.209-0.375s0.312-0.193,0.518-0.242c-0.589-0.276-0.883-0.755-0.883-1.438
		c0-0.438,0.152-0.802,0.457-1.094s0.681-0.438,1.129-0.438c0.411,0,0.733,0.084,0.965,0.254l0.371-0.445l0.484,0.457l-0.445,0.336
		c0.19,0.248,0.285,0.57,0.285,0.969c0,0.422-0.132,0.776-0.395,1.063s-0.608,0.451-1.035,0.492l-0.613,0.063
		c-0.073,0.008-0.171,0.036-0.293,0.084s-0.184,0.111-0.184,0.189c0,0.107,0.128,0.16,0.383,0.16c0.112,0,0.286-0.02,0.523-0.061
		s0.413-0.061,0.527-0.061c0.411,0,0.732,0.098,0.963,0.295s0.346,0.469,0.346,0.818c0,0.385-0.173,0.697-0.518,0.934
		s-0.782,0.355-1.311,0.355c-0.271,0-0.556-0.048-0.855-0.145S390.758,153.687,390.575,153.548z M392.149,148.74
		c-0.258,0-0.468,0.091-0.631,0.273s-0.244,0.404-0.244,0.664c0,0.292,0.079,0.533,0.236,0.725s0.37,0.287,0.639,0.287
		c0.263,0,0.469-0.093,0.617-0.279s0.223-0.43,0.223-0.732c0-0.26-0.08-0.482-0.24-0.664S392.389,148.74,392.149,148.74z"/>
	<path fill="#231F20" d="M397.419,148.806h-0.484v-0.586h0.484v-0.875l0.742-0.285v1.16h1.148v0.586h-1.148v2.078
		c0,0.352,0.06,0.602,0.178,0.75s0.31,0.223,0.572,0.223c0.19,0,0.387-0.048,0.59-0.145l0.109,0.652
		c-0.308,0.078-0.645,0.117-1.012,0.117c-0.331,0-0.61-0.123-0.838-0.369s-0.342-0.557-0.342-0.932V148.806z"/>
	<path fill="#231F20" d="M402.903,152.404v-2.629c0-0.313-0.077-0.559-0.23-0.738s-0.37-0.27-0.648-0.27
		c-0.18,0-0.36,0.053-0.541,0.158s-0.319,0.229-0.416,0.369v3.109h-0.742v-5.898h0.742v2.176c0.099-0.154,0.259-0.282,0.479-0.385
		s0.447-0.154,0.682-0.154c0.442,0,0.79,0.146,1.041,0.438s0.377,0.69,0.377,1.195v2.629H402.903z"/>
	<path fill="#231F20" d="M408.22,150.384h-3.016c0,0.49,0.134,0.866,0.402,1.129c0.237,0.229,0.542,0.344,0.914,0.344
		c0.425,0,0.778-0.124,1.063-0.371l0.313,0.535c-0.114,0.115-0.29,0.213-0.527,0.297c-0.297,0.109-0.628,0.164-0.992,0.164
		c-0.526,0-0.973-0.178-1.34-0.535c-0.409-0.393-0.613-0.922-0.613-1.586c0-0.69,0.21-1.244,0.629-1.66
		c0.375-0.373,0.819-0.559,1.332-0.559c0.597,0,1.063,0.168,1.402,0.504c0.328,0.323,0.492,0.751,0.492,1.285
		C408.278,150.095,408.259,150.246,408.22,150.384z M406.419,148.767c-0.331,0-0.608,0.107-0.832,0.32
		c-0.214,0.203-0.335,0.456-0.363,0.758h2.316c0-0.299-0.094-0.549-0.281-0.75C407.053,148.876,406.773,148.767,406.419,148.767z"/>
	<path fill="#231F20" d="M413.731,147.169c-0.151-0.052-0.292-0.078-0.422-0.078c-0.227,0-0.413,0.086-0.561,0.258
		s-0.221,0.389-0.221,0.652c0,0.07,0.007,0.143,0.02,0.219h0.852v0.625h-0.852v3.559h-0.742v-3.559h-0.609v-0.625h0.609
		c0-0.534,0.132-0.953,0.395-1.258s0.61-0.457,1.043-0.457c0.216,0,0.448,0.039,0.695,0.117L413.731,147.169z"/>
	<path fill="#231F20" d="M414.153,150.302c0-0.646,0.174-1.167,0.521-1.564s0.806-0.596,1.373-0.596
		c0.599,0,1.063,0.191,1.395,0.572s0.496,0.911,0.496,1.588c0,0.674-0.169,1.207-0.508,1.596s-0.8,0.584-1.383,0.584
		c-0.597,0-1.062-0.197-1.395-0.59S414.153,150.969,414.153,150.302z M414.935,150.302c0,1.049,0.371,1.574,1.113,1.574
		c0.347,0,0.618-0.141,0.814-0.422s0.295-0.666,0.295-1.152c0-1.037-0.37-1.555-1.109-1.555c-0.339,0-0.608,0.138-0.811,0.414
		S414.935,149.818,414.935,150.302z"/>
	<path fill="#231F20" d="M419.423,148.22v2.668c0,0.646,0.28,0.969,0.84,0.969c0.245,0,0.469-0.07,0.672-0.211
		s0.337-0.303,0.402-0.488v-2.938h0.742v4.184h-0.742v-0.578c-0.083,0.164-0.251,0.314-0.502,0.451s-0.497,0.205-0.736,0.205
		c-0.458,0-0.81-0.131-1.053-0.395s-0.365-0.637-0.365-1.121v-2.746H419.423z"/>
	<path fill="#231F20" d="M425.364,148.935c-0.161-0.112-0.324-0.168-0.488-0.168c-0.263,0-0.493,0.121-0.689,0.363
		s-0.295,0.534-0.295,0.875v2.398h-0.742v-4.184h0.742v0.668c0.271-0.498,0.673-0.746,1.207-0.746c0.133,0,0.324,0.023,0.574,0.07
		L425.364,148.935z"/>
	<path fill="#231F20" d="M429.353,152.173v1.871h-0.742v-5.824h0.742v0.344c0.281-0.281,0.621-0.422,1.02-0.422
		c0.594,0,1.056,0.185,1.387,0.555s0.496,0.912,0.496,1.625c0,0.635-0.167,1.154-0.5,1.557s-0.815,0.604-1.445,0.604
		c-0.177,0-0.366-0.031-0.568-0.094S429.41,152.254,429.353,152.173z M429.353,149.123v2.438c0.047,0.07,0.146,0.137,0.297,0.201
		s0.298,0.096,0.441,0.096c0.922,0,1.383-0.521,1.383-1.563c0-0.529-0.109-0.916-0.328-1.16s-0.569-0.367-1.051-0.367
		c-0.104,0-0.231,0.037-0.383,0.109S429.441,149.031,429.353,149.123z"/>
	<path fill="#231F20" d="M432.794,150.302c0-0.646,0.174-1.167,0.521-1.564s0.806-0.596,1.373-0.596
		c0.599,0,1.063,0.191,1.395,0.572s0.496,0.911,0.496,1.588c0,0.674-0.169,1.207-0.508,1.596s-0.8,0.584-1.383,0.584
		c-0.597,0-1.062-0.197-1.395-0.59S432.794,150.969,432.794,150.302z M433.575,150.302c0,1.049,0.371,1.574,1.113,1.574
		c0.347,0,0.618-0.141,0.814-0.422s0.295-0.666,0.295-1.152c0-1.037-0.37-1.555-1.109-1.555c-0.339,0-0.608,0.138-0.811,0.414
		S433.575,149.818,433.575,150.302z"/>
	<path fill="#231F20" d="M437.72,152.404v-3.559h-0.574v-0.625h1.316v4.184H437.72z M438.126,146.638
		c0.128,0,0.236,0.045,0.326,0.135s0.135,0.197,0.135,0.322c0,0.127-0.045,0.236-0.135,0.326s-0.198,0.135-0.326,0.135
		c-0.125,0-0.232-0.045-0.322-0.135s-0.135-0.199-0.135-0.326s0.044-0.236,0.133-0.324S437.998,146.638,438.126,146.638z"/>
	<path fill="#231F20" d="M442.216,152.404v-2.434c0-0.445-0.067-0.757-0.201-0.936s-0.358-0.268-0.674-0.268
		c-0.169,0-0.347,0.051-0.531,0.152s-0.327,0.227-0.426,0.375v3.109h-0.742v-4.184h0.508l0.234,0.539
		c0.245-0.412,0.645-0.617,1.199-0.617c0.917,0,1.375,0.557,1.375,1.672v2.59H442.216z"/>
	<path fill="#231F20" d="M444.278,148.806h-0.484v-0.586h0.484v-0.875l0.742-0.285v1.16h1.148v0.586h-1.148v2.078
		c0,0.352,0.06,0.602,0.178,0.75s0.31,0.223,0.572,0.223c0.19,0,0.387-0.048,0.59-0.145l0.109,0.652
		c-0.308,0.078-0.645,0.117-1.012,0.117c-0.331,0-0.61-0.123-0.838-0.369s-0.342-0.557-0.342-0.932V148.806z"/>
	<path fill="#231F20" d="M446.911,152.154l0.262-0.703c0.414,0.271,0.747,0.406,1,0.406c0.458,0,0.688-0.193,0.688-0.578
		c0-0.276-0.222-0.513-0.664-0.711c-0.341-0.156-0.571-0.275-0.689-0.355s-0.222-0.172-0.309-0.275s-0.152-0.212-0.195-0.328
		s-0.064-0.24-0.064-0.373c0-0.344,0.125-0.612,0.375-0.805s0.577-0.289,0.98-0.289c0.305,0,0.688,0.096,1.152,0.289l-0.211,0.688
		c-0.294-0.234-0.59-0.352-0.887-0.352c-0.177,0-0.326,0.042-0.447,0.125s-0.182,0.189-0.182,0.316c0,0.268,0.152,0.471,0.457,0.609
		l0.531,0.242c0.325,0.148,0.563,0.318,0.711,0.508s0.223,0.428,0.223,0.715c0,0.375-0.132,0.668-0.395,0.881
		s-0.628,0.318-1.094,0.318C447.713,152.482,447.299,152.373,446.911,152.154z"/>
	<path fill="#231F20" d="M451.278,151.306c0.161,0,0.3,0.057,0.414,0.172s0.172,0.252,0.172,0.414s-0.058,0.3-0.172,0.416
		s-0.253,0.174-0.414,0.174s-0.3-0.058-0.414-0.174s-0.172-0.254-0.172-0.416s0.058-0.299,0.172-0.414
		S451.117,151.306,451.278,151.306z"/>
</g>
</svg>
