<?xml version="1.0" encoding="utf-8"?>
<!-- Generator: Adobe Illustrator 14.0.0, SVG Export Plug-In . SVG Version: 6.00 Build 43363)  -->
<!DOCTYPE svg PUBLIC "-//W3C//DTD SVG 1.0//EN" "http://www.w3.org/TR/2001/REC-SVG-20010904/DTD/svg10.dtd">
<svg version="1.0" xmlns="http://www.w3.org/2000/svg" xmlns:xlink="http://www.w3.org/1999/xlink" x="0px" y="0px"
	 width="56.695px" height="56.69px" viewBox="0 0 56.695 56.69" enable-background="new 0 0 56.695 56.69" xml:space="preserve">
<g id="Grids">
	<g>
		
			<line fill-rule="evenodd" clip-rule="evenodd" fill="none" stroke="#D4D4D4" stroke-width="0.27" x1="4.935" y1="0" x2="4.935" y2="56.69"/>
		
			<line fill-rule="evenodd" clip-rule="evenodd" fill="none" stroke="#D4D4D4" stroke-width="0.27" x1="9.615" y1="0" x2="9.615" y2="56.69"/>
		
			<line fill-rule="evenodd" clip-rule="evenodd" fill="none" stroke="#D4D4D4" stroke-width="0.27" x1="18.985" y1="0" x2="18.985" y2="56.69"/>
		
			<line fill-rule="evenodd" clip-rule="evenodd" fill="none" stroke="#D4D4D4" stroke-width="0.27" x1="23.665" y1="0" x2="23.665" y2="56.69"/>
		
			<line fill-rule="evenodd" clip-rule="evenodd" fill="none" stroke="#D4D4D4" stroke-width="0.27" x1="33.035" y1="0" x2="33.035" y2="56.69"/>
		
			<line fill-rule="evenodd" clip-rule="evenodd" fill="none" stroke="#D4D4D4" stroke-width="0.27" x1="37.715" y1="0" x2="37.715" y2="56.69"/>
		
			<line fill-rule="evenodd" clip-rule="evenodd" fill="none" stroke="#D4D4D4" stroke-width="0.27" x1="47.075" y1="0" x2="47.075" y2="56.69"/>
		
			<line fill-rule="evenodd" clip-rule="evenodd" fill="none" stroke="#D4D4D4" stroke-width="0.27" x1="51.765" y1="0" x2="51.765" y2="56.69"/>
		
			<line fill-rule="evenodd" clip-rule="evenodd" fill="none" stroke="#D4D4D4" stroke-width="0.27" x1="56.695" y1="4.93" x2="0.005" y2="4.93"/>
		
			<line fill-rule="evenodd" clip-rule="evenodd" fill="none" stroke="#D4D4D4" stroke-width="0.27" x1="56.695" y1="9.61" x2="0.005" y2="9.61"/>
		
			<line fill-rule="evenodd" clip-rule="evenodd" fill="none" stroke="#D4D4D4" stroke-width="0.27" x1="56.695" y1="18.98" x2="0.005" y2="18.98"/>
		
			<line fill-rule="evenodd" clip-rule="evenodd" fill="none" stroke="#D4D4D4" stroke-width="0.27" x1="56.695" y1="23.66" x2="0.005" y2="23.66"/>
		
			<line fill-rule="evenodd" clip-rule="evenodd" fill="none" stroke="#D4D4D4" stroke-width="0.27" x1="56.695" y1="33.03" x2="0.005" y2="33.03"/>
		
			<line fill-rule="evenodd" clip-rule="evenodd" fill="none" stroke="#D4D4D4" stroke-width="0.27" x1="56.695" y1="37.71" x2="0.005" y2="37.71"/>
		
			<line fill-rule="evenodd" clip-rule="evenodd" fill="none" stroke="#D4D4D4" stroke-width="0.27" x1="56.695" y1="47.08" x2="0.005" y2="47.08"/>
		
			<line fill-rule="evenodd" clip-rule="evenodd" fill="none" stroke="#D4D4D4" stroke-width="0.27" x1="56.695" y1="51.76" x2="0.005" y2="51.76"/>
		
			<line fill-rule="evenodd" clip-rule="evenodd" fill="none" stroke="#8A8A8A" stroke-width="0.27" x1="14.295" y1="0" x2="14.295" y2="56.69"/>
		
			<line fill-rule="evenodd" clip-rule="evenodd" fill="none" stroke="#8A8A8A" stroke-width="0.27" x1="0.135" y1="0" x2="0.135" y2="56.69"/>
		
			<line fill-rule="evenodd" clip-rule="evenodd" fill="none" stroke="#8A8A8A" stroke-width="0.27" x1="28.345" y1="28.34" x2="28.345" y2="56.69"/>
		
			<line fill-rule="evenodd" clip-rule="evenodd" fill="none" stroke="#8A8A8A" stroke-width="0.27" x1="42.395" y1="0" x2="42.395" y2="56.69"/>
		
			<line fill-rule="evenodd" clip-rule="evenodd" fill="none" stroke="#8A8A8A" stroke-width="0.27" x1="56.555" y1="0" x2="56.555" y2="56.69"/>
		
			<line fill-rule="evenodd" clip-rule="evenodd" fill="none" stroke="#8A8A8A" stroke-width="0.27" x1="28.345" y1="28.35" x2="0.005" y2="28.35"/>
		
			<line fill-rule="evenodd" clip-rule="evenodd" fill="none" stroke="#8A8A8A" stroke-width="0.27" x1="56.695" y1="14.3" x2="0.005" y2="14.3"/>
		
			<line fill-rule="evenodd" clip-rule="evenodd" fill="none" stroke="#8A8A8A" stroke-width="0.27" x1="56.695" y1="0.14" x2="0.005" y2="0.14"/>
		
			<line fill-rule="evenodd" clip-rule="evenodd" fill="none" stroke="#8A8A8A" stroke-width="0.27" x1="56.695" y1="42.39" x2="0.005" y2="42.39"/>
		
			<line fill-rule="evenodd" clip-rule="evenodd" fill="none" stroke="#8A8A8A" stroke-width="0.27" x1="56.695" y1="56.55" x2="0.005" y2="56.55"/>
		<line fill-rule="evenodd" clip-rule="evenodd" fill="none" stroke="#A80000" x1="56.695" y1="28.35" x2="28.345" y2="28.35"/>
		<line fill-rule="evenodd" clip-rule="evenodd" fill="none" stroke="#12AB00" x1="28.345" y1="0" x2="28.345" y2="28.35"/>
	</g>
</g>
<g id="Text">
	<path fill-rule="evenodd" clip-rule="evenodd" d="M18.065,39.44l-0.34,1.12c0.35-0.421,0.67-0.711,0.95-0.87
		c0.28-0.171,0.56-0.25,0.85-0.25s0.54,0.109,0.74,0.34c0.21,0.229,0.31,0.53,0.31,0.899c0,0.71-0.29,1.44-0.87,2.181
		c-0.59,0.739-1.26,1.109-2.04,1.109c-0.16,0-0.31-0.01-0.43-0.05c-0.13-0.04-0.27-0.101-0.42-0.189l-0.36,1.26
		c-0.07,0.25-0.11,0.409-0.11,0.479s0.02,0.13,0.06,0.19c0.04,0.05,0.1,0.08,0.18,0.109c0.09,0.03,0.25,0.041,0.5,0.041l-0.04,0.18
		h-2.3l0.05-0.18c0.3-0.011,0.51-0.061,0.61-0.15c0.11-0.091,0.22-0.35,0.34-0.761l1.23-4.279c0.08-0.271,0.11-0.43,0.11-0.5
		c0-0.09-0.02-0.16-0.07-0.2c-0.05-0.05-0.13-0.08-0.23-0.08c-0.1,0-0.23,0.01-0.4,0.04V39.69L18.065,39.44z M16.925,43.34
		c0.2,0.24,0.47,0.359,0.81,0.359c0.17,0,0.35-0.039,0.52-0.139c0.18-0.091,0.35-0.23,0.52-0.421c0.16-0.18,0.31-0.399,0.45-0.64
		c0.13-0.24,0.25-0.53,0.36-0.86c0.1-0.32,0.16-0.649,0.16-0.97c0-0.26-0.06-0.46-0.18-0.601c-0.12-0.14-0.26-0.209-0.42-0.209
		c-0.35,0-0.7,0.2-1.04,0.609c-0.35,0.4-0.6,0.87-0.76,1.41L16.925,43.34z"/>
	<path fill-rule="evenodd" clip-rule="evenodd" d="M18.925,37.1c0.23,0,0.43,0.08,0.59,0.24c0.16,0.16,0.24,0.351,0.24,0.58
		s-0.08,0.43-0.24,0.59c-0.16,0.16-0.36,0.24-0.59,0.24s-0.42-0.08-0.58-0.24c-0.16-0.16-0.24-0.36-0.24-0.59s0.08-0.42,0.24-0.58
		C18.505,37.18,18.695,37.1,18.925,37.1z"/>
	<path fill-rule="evenodd" clip-rule="evenodd" d="M50.275,7.91l1.68-0.271l-0.7,2.37c0.57-0.97,1.09-1.649,1.55-2.04
		c0.26-0.22,0.48-0.33,0.65-0.33c0.1,0,0.19,0.03,0.25,0.091c0.06,0.069,0.09,0.159,0.09,0.279c0,0.21-0.05,0.42-0.16,0.61
		c-0.08,0.149-0.19,0.22-0.34,0.22c-0.08,0-0.14-0.021-0.19-0.07c-0.06-0.05-0.09-0.12-0.1-0.22c-0.01-0.069-0.03-0.109-0.05-0.13
		s-0.05-0.04-0.09-0.04c-0.06,0-0.11,0.02-0.16,0.04c-0.08,0.05-0.21,0.18-0.38,0.38c-0.27,0.32-0.57,0.74-0.88,1.24
		c-0.14,0.22-0.26,0.46-0.35,0.729c-0.14,0.37-0.22,0.601-0.24,0.671l-0.15,0.62h-0.75l0.9-3.041c0.11-0.35,0.16-0.6,0.16-0.75
		c0-0.06-0.03-0.109-0.07-0.14c-0.07-0.061-0.16-0.08-0.26-0.08c-0.07,0-0.2,0.011-0.38,0.04L50.275,7.91z"/>
	<path fill-rule="evenodd" clip-rule="evenodd" d="M52.155,5.149c0.23,0,0.43,0.081,0.59,0.24c0.16,0.16,0.24,0.351,0.24,0.58
		s-0.08,0.43-0.25,0.591c-0.16,0.159-0.36,0.239-0.58,0.239c-0.23,0-0.43-0.08-0.59-0.239c-0.16-0.161-0.24-0.361-0.24-0.591
		s0.08-0.42,0.24-0.58C51.725,5.23,51.925,5.149,52.155,5.149z"/>
	<path fill-rule="evenodd" clip-rule="evenodd" d="M33.615,34.34l1.41-0.3c0.1,0.24,0.18,0.479,0.24,0.729
		c0.09,0.37,0.16,0.811,0.22,1.311c0.02,0.26,0.06,0.79,0.11,1.61c0.4-0.44,0.65-0.721,0.72-0.83c0.43-0.58,0.68-0.931,0.75-1.03
		c0.1-0.17,0.18-0.32,0.22-0.45c0.04-0.1,0.05-0.189,0.05-0.28c0-0.08-0.07-0.18-0.22-0.289c-0.15-0.111-0.23-0.241-0.23-0.37
		c0-0.11,0.04-0.2,0.12-0.28c0.09-0.08,0.19-0.12,0.3-0.12c0.14,0,0.26,0.05,0.36,0.17c0.11,0.109,0.16,0.25,0.16,0.41
		c0,0.17-0.03,0.329-0.08,0.479c-0.08,0.25-0.24,0.55-0.47,0.91c-0.24,0.351-0.61,0.83-1.12,1.431
		c-0.07,0.079-0.43,0.449-1.09,1.129h-0.18c-0.07-2.06-0.24-3.339-0.49-3.85c-0.08-0.17-0.21-0.25-0.4-0.25
		c-0.08,0-0.2,0.011-0.35,0.04L33.615,34.34z"/>
	<polygon fill-rule="evenodd" clip-rule="evenodd" points="37.005,33.44 37.165,32.96 33.655,32.96 33.655,32.71 37.165,32.71 
		37.005,32.24 38.805,32.84 	"/>
</g>
<g id="Other">
	<path fill-rule="evenodd" clip-rule="evenodd" fill="#FFFFFF" stroke="#000000" d="M49.075,9.58c0,1.08-0.88,1.97-1.96,1.97
		c-1.09,0-1.97-0.89-1.97-1.97c0-1.09,0.88-1.97,1.97-1.97C48.195,7.61,49.075,8.49,49.075,9.58z"/>
	<path fill-rule="evenodd" clip-rule="evenodd" fill="#FFFFFF" stroke="#000000" d="M25.655,42.35c0,1.091-0.88,1.97-1.97,1.97
		c-1.08,0-1.97-0.879-1.97-1.97c0-1.08,0.89-1.96,1.97-1.96C24.775,40.39,25.655,41.27,25.655,42.35z"/>
</g>
<g id="Vectors">
	<polygon fill-rule="evenodd" clip-rule="evenodd" points="25.147,41.24 24.505,40.438 42.755,14.88 41.755,14.569 45.585,11.79 
		44.185,16.319 43.565,15.46 	"/>
</g>
</svg>
