<?xml version="1.0" encoding="utf-8"?>
<!-- Generator: Adobe Illustrator 14.0.0, SVG Export Plug-In . SVG Version: 6.00 Build 43363)  -->
<!DOCTYPE svg PUBLIC "-//W3C//DTD SVG 1.0//EN" "http://www.w3.org/TR/2001/REC-SVG-20010904/DTD/svg10.dtd">
<svg version="1.0" xmlns="http://www.w3.org/2000/svg" xmlns:xlink="http://www.w3.org/1999/xlink" x="0px" y="0px" width="56.7px"
	 height="56.695px" viewBox="0 0 56.7 56.695" enable-background="new 0 0 56.7 56.695" xml:space="preserve">
<g id="Grids">
	<g>
		
			<line fill-rule="evenodd" clip-rule="evenodd" fill="none" stroke="#D4D4D4" stroke-width="0.27" x1="4.94" y1="0" x2="4.94" y2="56.69"/>
		
			<line fill-rule="evenodd" clip-rule="evenodd" fill="none" stroke="#D4D4D4" stroke-width="0.27" x1="9.62" y1="0" x2="9.62" y2="56.69"/>
		
			<line fill-rule="evenodd" clip-rule="evenodd" fill="none" stroke="#D4D4D4" stroke-width="0.27" x1="18.98" y1="0" x2="18.98" y2="56.69"/>
		
			<line fill-rule="evenodd" clip-rule="evenodd" fill="none" stroke="#D4D4D4" stroke-width="0.27" x1="23.67" y1="0" x2="23.67" y2="56.69"/>
		
			<line fill-rule="evenodd" clip-rule="evenodd" fill="none" stroke="#D4D4D4" stroke-width="0.27" x1="33.03" y1="0" x2="33.03" y2="56.69"/>
		
			<line fill-rule="evenodd" clip-rule="evenodd" fill="none" stroke="#D4D4D4" stroke-width="0.27" x1="37.71" y1="0" x2="37.71" y2="56.69"/>
		
			<line fill-rule="evenodd" clip-rule="evenodd" fill="none" stroke="#D4D4D4" stroke-width="0.27" x1="47.08" y1="0" x2="47.08" y2="56.69"/>
		
			<line fill-rule="evenodd" clip-rule="evenodd" fill="none" stroke="#D4D4D4" stroke-width="0.27" x1="51.76" y1="0" x2="51.76" y2="56.69"/>
		
			<line fill-rule="evenodd" clip-rule="evenodd" fill="none" stroke="#D4D4D4" stroke-width="0.27" x1="56.7" y1="4.93" x2="0" y2="4.93"/>
		
			<line fill-rule="evenodd" clip-rule="evenodd" fill="none" stroke="#D4D4D4" stroke-width="0.27" x1="56.7" y1="9.62" x2="0" y2="9.62"/>
		
			<line fill-rule="evenodd" clip-rule="evenodd" fill="none" stroke="#D4D4D4" stroke-width="0.27" x1="56.7" y1="18.98" x2="0" y2="18.98"/>
		
			<line fill-rule="evenodd" clip-rule="evenodd" fill="none" stroke="#D4D4D4" stroke-width="0.27" x1="56.7" y1="23.66" x2="0" y2="23.66"/>
		
			<line fill-rule="evenodd" clip-rule="evenodd" fill="none" stroke="#D4D4D4" stroke-width="0.27" x1="56.7" y1="33.03" x2="0" y2="33.03"/>
		
			<line fill-rule="evenodd" clip-rule="evenodd" fill="none" stroke="#D4D4D4" stroke-width="0.27" x1="56.7" y1="37.71" x2="0" y2="37.71"/>
		
			<line fill-rule="evenodd" clip-rule="evenodd" fill="none" stroke="#D4D4D4" stroke-width="0.27" x1="56.7" y1="47.08" x2="0" y2="47.08"/>
		
			<line fill-rule="evenodd" clip-rule="evenodd" fill="none" stroke="#D4D4D4" stroke-width="0.27" x1="56.7" y1="51.76" x2="0" y2="51.76"/>
		
			<line fill-rule="evenodd" clip-rule="evenodd" fill="none" stroke="#8A8A8A" stroke-width="0.27" x1="14.3" y1="0" x2="14.3" y2="56.69"/>
		
			<line fill-rule="evenodd" clip-rule="evenodd" fill="none" stroke="#8A8A8A" stroke-width="0.27" x1="0.14" y1="0" x2="0.14" y2="56.69"/>
		
			<line fill-rule="evenodd" clip-rule="evenodd" fill="none" stroke="#8A8A8A" stroke-width="0.27" x1="28.35" y1="28.35" x2="28.35" y2="56.69"/>
		
			<line fill-rule="evenodd" clip-rule="evenodd" fill="none" stroke="#8A8A8A" stroke-width="0.27" x1="42.4" y1="0" x2="42.4" y2="56.69"/>
		
			<line fill-rule="evenodd" clip-rule="evenodd" fill="none" stroke="#8A8A8A" stroke-width="0.27" x1="56.56" y1="0" x2="56.56" y2="56.69"/>
		
			<line fill-rule="evenodd" clip-rule="evenodd" fill="none" stroke="#8A8A8A" stroke-width="0.27" x1="28.35" y1="28.35" x2="0" y2="28.35"/>
		
			<line fill-rule="evenodd" clip-rule="evenodd" fill="none" stroke="#8A8A8A" stroke-width="0.27" x1="56.7" y1="14.3" x2="0" y2="14.3"/>
		
			<line fill-rule="evenodd" clip-rule="evenodd" fill="none" stroke="#8A8A8A" stroke-width="0.27" x1="56.7" y1="0.14" x2="0" y2="0.14"/>
		
			<line fill-rule="evenodd" clip-rule="evenodd" fill="none" stroke="#8A8A8A" stroke-width="0.27" x1="56.7" y1="42.39" x2="0" y2="42.39"/>
		
			<line fill-rule="evenodd" clip-rule="evenodd" fill="none" stroke="#8A8A8A" stroke-width="0.27" x1="56.7" y1="56.561" x2="0" y2="56.561"/>
		<line fill-rule="evenodd" clip-rule="evenodd" fill="none" stroke="#A80000" x1="56.7" y1="28.35" x2="28.35" y2="28.35"/>
		<line fill-rule="evenodd" clip-rule="evenodd" fill="none" stroke="#12AB00" x1="28.35" y1="0" x2="28.35" y2="28.35"/>
	</g>
</g>
<g id="Text">
	<path fill-rule="evenodd" clip-rule="evenodd" d="M42.45,10.49h-0.6l0.16-0.74h0.6l0.22-1.09l1.05-0.4l-0.34,1.49h1.43l-0.15,0.74
		h-1.44l-0.54,2.59c-0.05,0.2-0.07,0.36-0.07,0.47c0,0.5,0.25,0.75,0.74,0.75c0.24,0,0.5-0.06,0.78-0.18l-0.03,0.81
		c-0.27,0.101-0.7,0.15-1.3,0.15c-0.37,0-0.66-0.12-0.86-0.34c-0.21-0.23-0.31-0.55-0.31-0.95c0-0.091,0.01-0.2,0.04-0.341
		L42.45,10.49z"/>
	<path fill-rule="evenodd" clip-rule="evenodd" d="M34.43,44.24h-0.61l0.16-0.74h0.61l0.21-1.09l1.06-0.4l-0.35,1.49h1.44
		l-0.16,0.74h-1.43l-0.55,2.59c-0.04,0.2-0.06,0.36-0.06,0.47c0,0.5,0.24,0.75,0.74,0.75c0.24,0,0.5-0.06,0.78-0.18l-0.04,0.81
		c-0.27,0.101-0.7,0.15-1.29,0.15c-0.37,0-0.66-0.12-0.87-0.34c-0.21-0.23-0.31-0.55-0.31-0.95c0-0.091,0.02-0.2,0.04-0.341
		L34.43,44.24z"/>
	<path fill-rule="evenodd" clip-rule="evenodd" d="M50.25,37.94h-0.6l0.16-0.741h0.6l0.22-1.089l1.05-0.4l-0.34,1.489h1.43
		l-0.15,0.741h-1.44l-0.54,2.59c-0.05,0.2-0.07,0.359-0.07,0.47c0,0.5,0.25,0.75,0.74,0.75c0.24,0,0.5-0.06,0.78-0.181l-0.03,0.811
		c-0.27,0.101-0.7,0.15-1.3,0.15c-0.37,0-0.66-0.12-0.86-0.34c-0.21-0.23-0.31-0.551-0.31-0.95c0-0.091,0.01-0.2,0.04-0.341
		L50.25,37.94z"/>
</g>
<g id="Other">
	<circle fill-rule="evenodd" clip-rule="evenodd" fill="#FF7D00" cx="45.69" cy="38.94" r="8.64"/>
	<circle fill-rule="evenodd" clip-rule="evenodd" fill="#FF7D00" cx="40.44" cy="45.09" r="8.64"/>
	<circle fill-rule="evenodd" clip-rule="evenodd" fill="#FF7D00" cx="39.69" cy="12.99" r="8.64"/>
</g>
<g id="Vectors">
	<polygon fill-rule="evenodd" clip-rule="evenodd" points="46.17,40.069 41.6,38.819 42.43,38.17 28.17,28.68 28.73,27.84 
		42.98,37.34 43.26,36.319 	"/>
	<polygon fill-rule="evenodd" clip-rule="evenodd" points="41.61,46.5 37.75,43.74 38.75,43.42 27.94,28.59 28.74,28 39.56,42.84 
		40.17,41.98 	"/>
	<polygon fill-rule="evenodd" clip-rule="evenodd" points="28.74,28.59 27.93,28.01 37.25,15.17 36.25,14.85 40.1,12.1 38.67,16.61 
		38.06,15.76 	"/>
</g>
</svg>
