<?xml version="1.0" encoding="utf-8"?>
<!-- Generator: Adobe Illustrator 14.0.0, SVG Export Plug-In . SVG Version: 6.00 Build 43363)  -->
<!DOCTYPE svg PUBLIC "-//W3C//DTD SVG 1.0//EN" "http://www.w3.org/TR/2001/REC-SVG-20010904/DTD/svg10.dtd">
<svg version="1.0" id="Layer_1" xmlns="http://www.w3.org/2000/svg" xmlns:xlink="http://www.w3.org/1999/xlink" x="0px" y="0px"
	 width="299.54px" height="197.58px" viewBox="0 0 299.54 197.58" enable-background="new 0 0 299.54 197.58" xml:space="preserve">
<path fill-rule="evenodd" clip-rule="evenodd" fill="#FF8FAB" d="M258.34,34.38l19.859,4.65l-9.29,19.31
	c-5.87,11.42-14.15,15.51-23.53,16.3c-12.909,1.88-27.01-1.79-30.39,5.12c-5.25,9.66,1.13,21.96,7.899,35.47
	c5.681,10.27,8,18.89,4.971,29.63c-1.86,5.72-4.27,11.44-6.76,17.16l-11.551,25.15l-26.399-9.06c6.59-12.75,13.38-25.5,18.96-38.24
	c6.36-14.45,2.38-25.25-1.54-38.3c-4.11-16.59-6.56-31.79-0.271-39.65c3.971-5.35,12.521,0.05,21.75,2.25
	c9.4,1.82,17.63,0.51,23.44-7.26c3.22-4.93,6.181-9.86,8.81-14.79L258.34,34.38z"/>
<polygon fill-rule="evenodd" clip-rule="evenodd" fill="none" stroke="#000000" stroke-width="2" stroke-linecap="round" stroke-linejoin="round" points="
	116.08,1 1,115.55 236.94,196.58 298.54,43.81 "/>
<g opacity="0.25">
	
		<path fill-rule="evenodd" clip-rule="evenodd" fill="none" stroke="#000000" stroke-width="0.25" stroke-linecap="round" stroke-linejoin="round" d="
		M131.65,4.67c-4.64,4.9-9.28,9.79-13.93,14.68c-4.65,4.88-9.331,9.74-14.081,14.53c-4.739,4.8-9.52,9.56-14.219,14.41
		C84.73,53.13,80.1,58.04,75.53,63s-9.09,9.96-13.641,14.94c-4.549,4.98-9.149,9.92-13.77,14.84c-4.62,4.92-9.26,9.82-13.89,14.72
		c-4.64,4.9-9.28,9.8-13.92,14.7"/>
	
		<path fill-rule="evenodd" clip-rule="evenodd" fill="none" stroke="#000000" stroke-width="0.25" stroke-linecap="round" stroke-linejoin="round" d="
		M269.66,37.05c-2.98,6.09-5.96,12.18-8.96,18.25c-3.01,6.09-6.061,12.14-9.189,18.17c-1.5,2.89-3.011,5.78-4.511,8.68
		c-1.61,3.13-3.21,6.26-4.779,9.42c-3.03,6.07-5.971,12.18-8.86,18.32c-2.89,6.13-5.74,12.29-8.62,18.43
		c-2.89,6.14-5.819,12.25-8.77,18.36c-5.9,12.21-11.87,24.4-17.841,36.59"/>
	
		<path fill-rule="evenodd" clip-rule="evenodd" fill="none" stroke="#000000" stroke-width="0.25" stroke-linecap="round" stroke-linejoin="round" d="
		M232.72,28.38c-1.82,3.01-3.66,6-5.581,8.94c-1.729,2.66-3.819,5.73-5.76,8.24c-1.27,1.63-2.569,3.19-4.1,4.59
		c-0.65,0.59-1.32,1.13-2.06,1.61c-0.65,0.41-1.32,0.74-2.05,1c-1.371,0.5-2.811,0.73-4.2,1.14c-1.761,0.51-3.171,1.23-4.57,2.43
		c-0.93,0.81-1.75,1.7-2.53,2.65c-0.97,1.2-1.84,2.46-2.66,3.76c-2.17,3.44-4.03,7.21-5.699,10.91c-1.331,2.98-2.57,6-3.771,9.03
		c-1.319,3.35-2.601,6.72-3.87,10.09c-2.43,6.43-4.83,12.87-7.49,19.22c-2.659,6.34-5.58,12.55-8.709,18.67
		c-6.031,11.75-13.521,24.55-20.341,35.85"/>
	
		<path fill-rule="evenodd" clip-rule="evenodd" fill="none" stroke="#000000" stroke-width="0.25" stroke-linecap="round" stroke-linejoin="round" d="
		M194.54,40.3c3.89,1.29,7.7,2.76,11.48,4.33c3.77,1.57,7.5,3.23,11.25,4.87c8.46,3.69,14.08,5.98,22.85,8.91
		c14.4,4.8,32.551,9.45,47.24,13.17"/>
	
		<path fill-rule="evenodd" clip-rule="evenodd" fill="none" stroke="#000000" stroke-width="0.25" stroke-linecap="round" stroke-linejoin="round" d="
		M35.06,81.67c9.23,2.86,18.46,5.68,27.77,8.27c9.32,2.6,18.66,4.95,28.23,6.54c4.689,0.78,9.41,1.37,14.119,1.98
		c4.87,0.63,9.73,1.29,14.561,2.19c9.57,1.77,18.771,4.44,27.87,7.87c9.061,3.42,17.75,7.61,26.49,11.72
		c9.85,4.65,16.43,7.57,26.63,11.44c9.04,3.43,18.18,6.53,27.37,9.52c9.199,3,18.43,5.87,27.67,8.73"/>
	
		<path fill-rule="evenodd" clip-rule="evenodd" fill="none" stroke="#000000" stroke-width="0.25" stroke-linecap="round" stroke-linejoin="round" d="
		M41.26,75.5c9.189,2.79,18.399,5.48,27.729,7.77c9.271,2.28,18.78,4.18,28.38,4.57c4.71,0.19,9.41,0.05,14.12-0.02
		c4.899-0.06,9.78-0.04,14.67,0.46c9.601,0.98,18.88,3.7,27.67,7.56c8.72,3.83,17.12,8.98,25.28,13.78
		c9.23,5.43,15.71,8.95,25.569,13.18c16.28,6.99,37.57,13.65,54.46,18.77"/>
	
		<path fill-rule="evenodd" clip-rule="evenodd" fill="none" stroke="#000000" stroke-width="0.25" stroke-linecap="round" stroke-linejoin="round" d="
		M47.28,69.51c9.27,2.76,18.561,5.3,28.061,7.19c4.739,0.94,9.47,1.7,14.31,2.04c4.94,0.34,9.57,0.21,14.47-0.58
		c4.69-0.76,9.26-1.97,13.891-2.99c4.83-1.06,9.6-1.9,14.59-1.9c9.859,0,19.16,3.08,27.62,7.75c4.14,2.3,8.01,4.94,11.819,7.73
		c3.99,2.93,7.87,5.98,11.78,8.99c3.94,3.03,7.9,6.01,12.06,8.73c3.94,2.58,8,4.91,12.19,7.04c8.51,4.33,17.79,7.94,26.76,11.12
		c9.11,3.23,18.31,6.11,27.56,8.87"/>
	
		<path fill-rule="evenodd" clip-rule="evenodd" fill="none" stroke="#000000" stroke-width="0.25" stroke-linecap="round" stroke-linejoin="round" d="
		M53.12,63.7c9.31,2.71,19.15,5.18,28.78,6.56c4.81,0.68,9.56,1.08,14.44,0.78c2.449-0.15,4.859-0.47,7.26-1.02
		c2.51-0.57,4.92-1.38,7.31-2.35c4.54-1.85,8.86-4.15,13.33-6.15c4.521-2.02,9.14-3.73,14.16-4.27c4.64-0.5,9.22,0.01,13.68,1.33
		c5.03,1.5,9.71,3.98,14,6.95c3.95,2.74,7.521,5.86,11.03,9.12c3.7,3.45,7.27,7.04,10.89,10.59c3.68,3.61,7.38,7.17,11.36,10.46
		c3.63,3.01,7.43,5.71,11.439,8.18c8.41,5.15,17.541,9.08,26.7,12.56c9.221,3.5,18.58,6.49,28.04,9.25"/>
	
		<path fill-rule="evenodd" clip-rule="evenodd" fill="none" stroke="#000000" stroke-width="0.25" stroke-linecap="round" stroke-linejoin="round" d="
		M58.799,58.05c9.41,2.69,19.73,5.08,29.541,5.94c4.83,0.42,9.529,0.44,14.339-0.46c2.48-0.47,4.86-1.16,7.21-2.11
		c2.561-1.05,4.94-2.38,7.271-3.85c4.311-2.71,8.38-5.77,12.67-8.51c4.15-2.64,8.61-5.07,13.54-6.11c4.65-0.99,9.26-0.7,13.78,0.68
		c5.21,1.58,9.91,4.47,14.06,7.85c3.7,3.01,7.22,6.63,10.41,10.15c3.5,3.86,6.84,7.85,10.221,11.8c3.459,4.06,6.93,8.08,10.72,11.86
		c3.36,3.35,6.93,6.41,10.79,9.19c4.18,3.02,8.57,5.62,13.16,7.96c4.41,2.23,8.919,4.2,13.5,6.05c9.35,3.77,18.89,6.88,28.569,9.66"
		/>
	
		<path fill-rule="evenodd" clip-rule="evenodd" fill="none" stroke="#000000" stroke-width="0.25" stroke-linecap="round" stroke-linejoin="round" d="
		M64.31,52.56c4.91,1.38,9.84,2.6,14.85,3.55c4.79,0.91,10.16,1.66,15.03,1.91c4.81,0.25,9.42,0.03,14.12-1.2
		c5.6-1.47,9.739-3.94,14.3-7.34c4.14-3.1,8.04-6.5,12.189-9.59c3.9-2.9,8.24-5.74,13.03-7.12c4.62-1.34,9.25-1.28,13.85,0.06
		c5.291,1.55,10,4.62,14.07,8.17c3.61,3.14,7.011,6.93,10.061,10.58c3.38,4.05,6.59,8.23,9.819,12.39
		c3.32,4.26,6.65,8.5,10.28,12.51c3.2,3.54,6.61,6.77,10.351,9.73c8.18,6.49,16.96,10.86,26.489,14.82
		c9.4,3.91,18.99,7.06,28.78,9.82"/>
	
		<path fill-rule="evenodd" clip-rule="evenodd" fill="none" stroke="#000000" stroke-width="0.25" stroke-linecap="round" stroke-linejoin="round" d="
		M15.28,101.36c15.93,5.24,41.46,13.66,57.46,18.69c9.61,3.02,19.25,5.94,28.87,8.94c9.61,3.01,19.189,6.12,28.73,9.32
		c9.56,3.21,19.08,6.54,28.6,9.85c9.93,3.45,18.6,6.43,28.57,9.77c15.09,5.05,42.279,13.99,57.39,18.96"/>
	
		<path fill-rule="evenodd" clip-rule="evenodd" fill="none" stroke="#000000" stroke-width="0.25" stroke-linecap="round" stroke-linejoin="round" d="
		M223.75,26.28c-2,3.18-4.07,6.31-6.27,9.36c-1.82,2.5-4.24,5.67-6.49,7.83c-1.22,1.18-2.79,2.48-4.52,2.97
		c-1.681,0.47-3.07-0.02-4.53-0.67s-3.12-1.57-4.801-1.75c-0.93-0.1-1.75,0.02-2.609,0.4c-1.06,0.46-2,1.22-2.8,2.02
		c-0.89,0.9-1.67,1.88-2.39,2.92c-0.92,1.32-1.73,2.69-2.49,4.1c-2.03,3.74-3.721,7.76-5.24,11.72c-1.23,3.21-2.37,6.45-3.49,9.7
		c-1.199,3.51-2.37,7.03-3.529,10.55c-2.25,6.78-4.49,13.57-7.03,20.26c-2.55,6.69-5.4,13.22-8.58,19.63
		c-3.08,6.2-6.75,12.85-10.22,18.84c-3.581,6.19-7.311,12.28-11.131,18.33"/>
	
		<path fill-rule="evenodd" clip-rule="evenodd" fill="none" stroke="#000000" stroke-width="0.25" stroke-linecap="round" stroke-linejoin="round" d="
		M214.889,24.2c-2.409,3.65-4.899,7.21-7.71,10.57c-1.3,1.56-2.959,3.42-4.5,4.75c-1.47,1.28-3.609,2.81-5.839,2.54"/>
	
		<path fill-rule="evenodd" clip-rule="evenodd" fill="none" stroke="#000000" stroke-width="0.25" stroke-linecap="round" stroke-linejoin="round" d="
		M28.67,88.03c9.319,2.95,18.649,5.88,28.009,8.7c9.37,2.81,18.761,5.5,28.28,7.79c9.511,2.29,19.12,4.15,28.62,6.48
		c9.521,2.33,18.86,5.13,28.11,8.36c4.57,1.6,9.09,3.3,13.59,5.07c4.609,1.8,9.19,3.67,13.79,5.52
		c10.24,4.14,16.979,6.75,27.41,10.42c16.909,5.96,38.699,12.83,55.79,18.22"/>
	
		<path fill-rule="evenodd" clip-rule="evenodd" fill="none" stroke="#000000" stroke-width="0.25" stroke-linecap="round" stroke-linejoin="round" d="
		M139.56,6.53c-4.561,4.96-9.12,9.92-13.72,14.84c-4.841,5.17-9.041,9.54-14.101,14.49c-2.34,2.29-4.7,4.56-7.04,6.85
		c-2.47,2.43-4.92,4.88-7.33,7.37c-4.67,4.86-9.18,9.85-13.579,14.96c-4.401,5.12-8.69,10.32-13.061,15.47
		c-4.351,5.13-8.801,10.19-13.29,15.2c-4.511,5.02-9.051,10.01-13.6,14.98c-4.55,4.97-9.101,9.94-13.661,14.9"/>
	
		<path fill-rule="evenodd" clip-rule="evenodd" fill="none" stroke="#000000" stroke-width="0.25" stroke-linecap="round" stroke-linejoin="round" d="
		M22.08,94.59c9.44,3.04,18.879,6.08,28.33,9.07c9.47,2.99,18.96,5.93,28.52,8.65c9.53,2.72,19.12,5.21,28.661,7.92
		c9.539,2.72,19,5.67,28.399,8.86c9.399,3.18,18.7,6.63,28.021,10.05c10.33,3.79,17.64,6.41,28.06,9.94
		c16.319,5.53,40.19,13.21,56.58,18.49"/>
	
		<path fill-rule="evenodd" clip-rule="evenodd" fill="none" stroke="#000000" stroke-width="0.25" stroke-linecap="round" stroke-linejoin="round" d="
		M111.959,5.13c7.68,1.83,15.36,3.66,23.04,5.48c7.7,1.83,15.39,3.66,23.091,5.47c7.699,1.81,15.399,3.58,23.089,5.38
		c7.69,1.79,15.381,3.61,23.061,5.45c7.681,1.84,15.36,3.71,23.04,5.58c7.67,1.87,15.35,3.73,23.03,5.58
		c15.369,3.68,30.75,7.34,46.13,11"/>
	
		<path fill-rule="evenodd" clip-rule="evenodd" fill="none" stroke="#000000" stroke-width="0.25" stroke-linecap="round" stroke-linejoin="round" d="
		M98.95,18.08c8.03,2,16.061,4,24.12,5.88c8.069,1.88,16.15,3.64,24.319,5.02"/>
	
		<path fill-rule="evenodd" clip-rule="evenodd" fill="none" stroke="#000000" stroke-width="0.25" stroke-linecap="round" stroke-linejoin="round" d="
		M163.82,12.22c-4.17,5.01-8.96,10.63-13.54,15.29"/>
	
		<path fill-rule="evenodd" clip-rule="evenodd" fill="none" stroke="#000000" stroke-width="0.25" stroke-linecap="round" stroke-linejoin="round" d="
		M172.1,14.16c-2.91,3.62-5.88,7.17-9.04,10.57"/>
	
		<path fill-rule="evenodd" clip-rule="evenodd" fill="none" stroke="#000000" stroke-width="0.25" stroke-linecap="round" stroke-linejoin="round" d="
		M107.73,9.33c7.78,1.89,15.56,3.77,23.34,5.63c7.76,1.87,15.54,3.72,23.33,5.48c7.8,1.76,15.63,3.42,23.44,5.15
		c7.81,1.73,15.589,3.55,23.359,5.48c3.85,0.95,7.689,1.93,11.53,2.93c3.899,1.02,7.79,2.06,11.69,3.09
		c8.35,2.21,14.85,3.91,23.239,6c12.261,3.07,34.32,8.4,46.61,11.37"/>
	
		<path fill-rule="evenodd" clip-rule="evenodd" fill="none" stroke="#000000" stroke-width="0.25" stroke-linecap="round" stroke-linejoin="round" d="
		M123.82,2.84c-9.431,9.66-18.85,19.35-28.34,28.97c-4.74,4.81-9.49,9.6-14.22,14.42c-4.73,4.82-9.45,9.66-14.16,14.51
		c-4.69,4.85-9.38,9.71-14.08,14.56c-4.7,4.86-9.41,9.7-14.12,14.54c-4.71,4.84-9.43,9.67-14.15,14.5
		c-4.72,4.84-9.44,9.68-14.16,14.52"/>
	
		<path fill-rule="evenodd" clip-rule="evenodd" fill="none" stroke="#000000" stroke-width="0.25" stroke-linecap="round" stroke-linejoin="round" d="
		M206.139,22.15c-2.049,2.97-4.18,5.87-6.52,8.63c-1.17,1.38-2.38,2.71-3.67,3.97c-1.229,1.19-2.72,2.5-4.271,3.3"/>
	
		<path fill-rule="evenodd" clip-rule="evenodd" fill="none" stroke="#000000" stroke-width="0.25" stroke-linecap="round" stroke-linejoin="round" d="
		M155.65,10.3c-4.41,5.12-8.83,10.22-13.46,15.13c-2.34,2.5-4.74,4.93-7.261,7.25c-2.709,2.49-4.779,4.14-7.72,6.35
		c-2.51,1.9-5.06,3.76-7.489,5.78c-2.78,2.3-5.351,4.78-7.8,7.42c-2.16,2.35-4.2,4.78-6.16,7.3c-2.2,2.82-4.261,5.73-6.271,8.68
		c-3.8,5.59-7.399,11.31-11.19,16.9c-3.789,5.59-7.8,11.01-11.959,16.32c-7.9,10.06-17.631,21.4-25.98,31.09"/>
	
		<path fill-rule="evenodd" clip-rule="evenodd" fill="none" stroke="#000000" stroke-width="0.25" stroke-linecap="round" stroke-linejoin="round" d="
		M147.56,8.4c-4.48,5.04-8.96,10.06-13.55,15c-2.28,2.46-4.601,4.89-6.971,7.27c-2.39,2.39-4.84,4.71-7.34,6.98
		c-2.4,2.17-4.83,4.31-7.21,6.5c-2.58,2.38-5.08,4.83-7.51,7.36c-4.66,4.89-8.99,10.02-13.15,15.33
		c-4.159,5.31-8.15,10.73-12.27,16.07c-4.11,5.34-8.37,10.56-12.73,15.71c-8.09,9.57-18.3,21.05-26.63,30.41"/>
	
		<path fill-rule="evenodd" clip-rule="evenodd" fill="none" stroke="#000000" stroke-width="0.25" stroke-linecap="round" stroke-linejoin="round" d="
		M260.26,34.84c-3.11,6.01-6.221,12.01-9.4,17.98c-3.53,6.64-6.09,11.24-9.92,17.71c-1.62,2.74-3.261,5.48-4.85,8.23
		c-1.791,3.11-3.53,6.24-5.211,9.41c-3.17,5.97-6.17,12.03-9.08,18.14c-2.91,6.1-5.76,12.23-8.67,18.33
		c-2.92,6.11-5.92,12.17-8.959,18.21c-6.091,12.09-12.32,24.11-18.541,36.12"/>
	
		<path fill-rule="evenodd" clip-rule="evenodd" fill="none" stroke="#000000" stroke-width="0.25" stroke-linecap="round" stroke-linejoin="round" d="
		M241.79,30.51c-3.189,5.55-6.979,12.04-10.479,17.4c-1.94,2.98-4.16,6.19-6.54,8.86c-2.3,2.58-4.24,4.03-6.73,6.4
		c-2.11,2.01-3.81,3.98-5.49,6.36c-2.279,3.21-4.3,6.71-6.12,10.19c-3.159,6.01-5.85,12.2-8.52,18.43s-5.271,12.48-8.069,18.66
		c-2.801,6.17-5.78,12.25-8.911,18.26c-3.119,6.01-6.369,11.95-9.659,17.86c-3.3,5.91-6.66,11.79-10.04,17.67"/>
	
		<path fill-rule="evenodd" clip-rule="evenodd" fill="none" stroke="#000000" stroke-width="0.25" stroke-linecap="round" stroke-linejoin="round" d="
		M175.52,27.63c-2.23-0.97-4.17,0.08-5.73,1.56c-1.18,1.12-2.18,2.52-3.029,3.89c-1.2,1.92-2.19,3.93-3.11,6
		c-1.11,2.51-2.09,5.06-2.99,7.65c-1.09,3.09-2.069,6.2-3.021,9.32c-1.739,5.76-3.359,11.56-4.989,17.34
		c-1.62,5.79-3.261,11.58-5.06,17.32c-3.771,12.01-7.92,22.12-13.881,33.23c-5.71,10.63-12.1,20.77-18.939,30.7"/>
	
		<path fill-rule="evenodd" clip-rule="evenodd" fill="none" stroke="#000000" stroke-width="0.25" stroke-linecap="round" stroke-linejoin="round" d="
		M197.48,20.12c-1.74,2.42-3.54,4.79-5.47,7.07c-1.801,2.14-4.081,4.6-6.24,6.4"/>
	
		<path fill-rule="evenodd" clip-rule="evenodd" fill="none" stroke="#000000" stroke-width="0.25" stroke-linecap="round" stroke-linejoin="round" d="
		M163.54,24.75c-0.96-0.03-1.86,0.26-2.68,0.72c-1.061,0.6-1.971,1.46-2.75,2.36c-1.09,1.25-1.98,2.6-2.8,4.03
		c-1.07,1.84-1.98,3.75-2.83,5.7c-1.08,2.51-2.03,5.05-2.92,7.63c-1.04,3.02-1.99,6.06-2.91,9.12c-2.99,9.95-6.729,24.19-9.89,34.09
		c-3.771,11.8-7.971,21.71-14,32.54c-5.78,10.37-12.23,20.23-19.15,29.87"/>
	
		<path fill-rule="evenodd" clip-rule="evenodd" fill="none" stroke="#000000" stroke-width="0.25" stroke-linecap="round" stroke-linejoin="round" d="
		M188.92,18.11c-2.891,3.87-6.19,7.96-9.66,11.36"/>
	
		<path fill-rule="evenodd" clip-rule="evenodd" fill="none" stroke="#000000" stroke-width="0.25" stroke-linecap="round" stroke-linejoin="round" d="
		M151.74,26.88c-0.93,0.38-1.72,0.92-2.479,1.57c-0.94,0.81-1.75,1.72-2.5,2.71c-0.94,1.24-1.761,2.54-2.521,3.89
		c-0.92,1.64-1.75,3.33-2.52,5.05c-1.07,2.4-2.011,4.85-2.9,7.32c-1.03,2.84-1.97,5.71-2.891,8.59
		c-3.009,9.5-6.759,22.92-10.06,32.34c-3.899,11.18-8.27,20.44-14.31,30.61c-5.78,9.74-12.16,19.01-18.931,28.07"/>
	
		<path fill-rule="evenodd" clip-rule="evenodd" fill="none" stroke="#000000" stroke-width="0.25" stroke-linecap="round" stroke-linejoin="round" d="
		M180.459,16.12c-2.71,3.5-5.51,6.92-8.56,10.13"/>
	
		<path fill-rule="evenodd" clip-rule="evenodd" fill="none" stroke="#000000" stroke-width="0.25" stroke-linecap="round" stroke-linejoin="round" d="
		M190.709,37.29c0.301,0.23,0.59,0.46,0.881,0.69c0.909,0.71,1.81,1.42,2.709,2.13c0.53,0.41,1.051,0.82,1.58,1.23
		c0.5,0.37,1,0.75,1.51,1.11c0.201,0.15,0.41,0.3,0.621,0.45c0.16,0.11,0.319,0.22,0.479,0.32"/>
	
		<path fill-rule="evenodd" clip-rule="evenodd" fill="none" stroke="#000000" stroke-width="0.25" stroke-linecap="round" stroke-linejoin="round" d="
		M171.389,26.09c1.381,0.43,2.721,0.92,4.04,1.5"/>
	
		<path fill-rule="evenodd" clip-rule="evenodd" fill="none" stroke="#000000" stroke-width="0.25" stroke-linecap="round" stroke-linejoin="round" d="
		M188.28,35.43c0.66,0.49,1.32,0.99,1.97,1.5"/>
	
		<path fill-rule="evenodd" clip-rule="evenodd" fill="none" stroke="#000000" stroke-width="0.25" stroke-linecap="round" stroke-linejoin="round" d="
		M188.28,35.43c-1.93-1.47-3.76-2.04-6.01-0.66c-1.311,0.8-2.4,2.04-3.3,3.24c-1.341,1.78-2.471,3.82-3.46,5.81
		c-1.2,2.4-2.23,4.87-3.2,7.37c-1.181,3.07-2.24,6.19-3.261,9.32c-3.709,11.37-6.819,22.91-10.529,34.28
		c-3.9,11.93-8.07,21.9-13.96,32.99c-5.62,10.59-11.851,20.76-18.45,30.75"/>
	
		<path fill-rule="evenodd" clip-rule="evenodd" fill="none" stroke="#000000" stroke-width="0.25" stroke-linecap="round" stroke-linejoin="round" d="
		M250.97,32.66c-3.24,5.93-6.48,11.85-9.88,17.69c-1.75,3.02-3.551,6.02-5.461,8.95c-1.939,2.99-3.5,5.14-5.609,8.01
		c-1.79,2.44-3.57,4.89-5.24,7.43c-2.05,3.12-3.939,6.33-5.74,9.6c-3.26,5.92-6.199,12-9.05,18.14c-2.84,6.13-5.61,12.29-8.5,18.4
		c-2.89,6.1-5.899,12.14-9,18.14c-6.2,12.01-12.68,23.87-19.16,35.73"/>
	
		<path fill-rule="evenodd" clip-rule="evenodd" fill="none" stroke="#000000" stroke-width="0.25" stroke-linecap="round" stroke-linejoin="round" d="
		M131.85,40.29c-2.051,1.04-4,2.18-5.84,3.57c-2.2,1.65-4.141,3.52-5.98,5.55c-3.351,3.7-6.28,7.89-8.88,12.13
		c-2.63,4.28-5,8.69-7.38,13.11c-2.381,4.41-4.73,8.83-7.26,13.16c-5.181,8.89-10.711,16.69-16.95,24.84
		c-6.101,7.97-12.46,15.71-18.87,23.41"/>
	
		<path fill-rule="evenodd" clip-rule="evenodd" fill="none" stroke="#000000" stroke-width="0.25" stroke-linecap="round" stroke-linejoin="round" d="
		M74.889,42.03c9.04,2.45,18.74,4.53,28.131,5.24c4.82,0.36,9.49,0.32,14.27-0.63c4.971-1,8.92-2.73,13.2-5.37"/>
	
		<path fill-rule="evenodd" clip-rule="evenodd" fill="none" stroke="#000000" stroke-width="0.25" stroke-linecap="round" stroke-linejoin="round" d="
		M185.639,33.7c0.471,0.3,0.931,0.6,1.4,0.91"/>
	
		<path fill-rule="evenodd" clip-rule="evenodd" fill="none" stroke="#000000" stroke-width="0.25" stroke-linecap="round" stroke-linejoin="round" d="
		M84.9,32.07c8.029,2.1,16.09,4.02,24.29,5.41c8.15,1.38,16.43,2.26,24.77,1.14"/>
	
		<path fill-rule="evenodd" clip-rule="evenodd" fill="none" stroke="#000000" stroke-width="0.25" stroke-linecap="round" stroke-linejoin="round" d="
		M79.959,36.98c8.47,2.26,16.961,4.18,25.68,5.28c8.761,1.11,17.331,1.29,25.931-1.78"/>
	
		<path fill-rule="evenodd" clip-rule="evenodd" fill="none" stroke="#000000" stroke-width="0.25" stroke-linecap="round" stroke-linejoin="round" d="
		M198.03,42.91c6.48,4.53,12.49,9.67,18.859,14.36c3.32,2.44,6.331,4.46,9.9,6.52c3.431,1.99,6.95,3.76,10.57,5.37
		c13.34,5.96,31.01,11.03,45.04,14.71"/>
	
		<path fill-rule="evenodd" clip-rule="evenodd" fill="none" stroke="#000000" stroke-width="0.25" stroke-linecap="round" stroke-linejoin="round" d="
		M140.73,33.34c0.5-0.37,1-0.73,1.51-1.09c0.48-0.33,0.97-0.67,1.46-0.99c0.9-0.61,1.83-1.19,2.771-1.75
		c1.669-0.98,3.39-1.86,5.18-2.59"/>
	
		<path fill-rule="evenodd" clip-rule="evenodd" fill="none" stroke="#000000" stroke-width="0.25" stroke-linecap="round" stroke-linejoin="round" d="
		M89.709,27.28c7.831,2.02,15.67,3.96,23.601,5.56c7.96,1.61,15.869,2.9,24.04,3.08"/>
	
		<path fill-rule="evenodd" clip-rule="evenodd" fill="none" stroke="#000000" stroke-width="0.25" stroke-linecap="round" stroke-linejoin="round" d="
		M170.83,25.93c5.29,1.51,10.021,4.48,14.15,7.97c4.06,3.42,7.94,7.69,11.39,11.7c3.551,4.13,6.971,8.37,10.51,12.51
		c3.541,4.16,7.181,8.18,11.291,11.82c8.569,7.57,17.539,12.32,27.959,16.65c10.11,4.2,20.461,7.49,31.01,10.36"/>
	
		<path fill-rule="evenodd" clip-rule="evenodd" fill="none" stroke="#000000" stroke-width="0.25" stroke-linecap="round" stroke-linejoin="round" d="
		M8.26,108.35c19.39,6.52,38.77,13.05,58.169,19.51c9.71,3.23,19.431,6.43,29.15,9.66c9.71,3.22,19.41,6.47,29.1,9.75
		c9.69,3.27,19.37,6.57,29.061,9.87c4.79,1.63,9.59,3.26,14.39,4.89c4.891,1.65,9.78,3.31,14.67,4.96
		c19.4,6.54,38.801,13.05,58.2,19.56"/>
	
		<path fill-rule="evenodd" clip-rule="evenodd" fill="none" stroke="#000000" stroke-width="0.25" stroke-linecap="round" stroke-linejoin="round" d="
		M188.85,35.88c6.789,4.95,13.89,12.52,19.74,18.39c3.18,3.19,6.39,6.33,9.85,9.23c3.47,2.9,7.12,5.47,10.989,7.8
		c7.7,4.61,16.171,8.08,24.57,11.09c8.49,3.04,17.101,5.59,25.811,7.91"/>
	
		<path fill-rule="evenodd" clip-rule="evenodd" fill="none" stroke="#000000" stroke-width="0.25" stroke-linecap="round" stroke-linejoin="round" d="
		M69.67,47.22c4.85,1.34,9.729,2.52,14.68,3.43c4.74,0.88,10.05,1.59,14.87,1.81c4.739,0.22,9.3-0.02,13.939-1.26
		c5.53-1.47,9.66-3.92,14.16-7.29c4.09-3.06,7.94-6.42,12.01-9.5c3.81-2.88,8.11-5.77,12.78-7.25c4.561-1.45,9.16-1.55,13.77-0.3
		c5.26,1.42,9.92,4.39,13.95,7.85c3.591,3.08,6.931,6.8,9.931,10.41c3.35,4.01,6.5,8.17,9.689,12.3c3.26,4.23,6.53,8.44,10.1,12.43
		c3.141,3.51,6.49,6.74,10.181,9.68c8.069,6.45,16.729,10.75,26.159,14.65c9.301,3.85,18.801,6.92,28.49,9.6"/>
	
		<path fill-rule="evenodd" clip-rule="evenodd" fill="none" stroke="#000000" stroke-width="0.25" stroke-linecap="round" stroke-linejoin="round" d="
		M130.49,41.27c0.101-0.07,0.2-0.14,0.31-0.21c0.13-0.1,0.271-0.2,0.4-0.3c0.34-0.25,0.68-0.5,1.01-0.76
		c0.381-0.3,0.761-0.59,1.131-0.89c0.97-0.77,1.93-1.54,2.89-2.31c0.47-0.37,0.94-0.74,1.409-1.11c0.94-0.74,1.9-1.47,2.86-2.18"/>
	
		<path fill-rule="evenodd" clip-rule="evenodd" fill="none" stroke="#000000" stroke-width="0.25" stroke-linecap="round" stroke-linejoin="round" d="
		M151.74,26.88c0.771-0.31,1.54-0.59,2.33-0.84c0.78-0.24,1.569-0.45,2.359-0.63c1.561-0.35,3.15-0.57,4.741-0.65
		c1.6-0.08,3.209-0.02,4.789,0.17c1.65,0.2,3.28,0.54,4.87,1"/>
	
		<path fill-rule="evenodd" clip-rule="evenodd" fill="none" stroke="#000000" stroke-width="0.25" stroke-linecap="round" stroke-linejoin="round" d="
		M175.52,27.63c0.5,0.22,0.99,0.44,1.479,0.68c0.5,0.24,0.99,0.49,1.49,0.75c1.03,0.54,2.04,1.12,3.04,1.73
		c2.27,1.38,4.46,2.91,6.58,4.51"/>
	
		<path fill-rule="evenodd" clip-rule="evenodd" fill="none" stroke="#000000" stroke-width="0.25" stroke-linecap="round" stroke-linejoin="round" d="
		M94.389,22.62c7.831,1.99,15.671,3.95,23.561,5.7c7.891,1.76,15.79,3.32,23.84,4.25"/>
	
		<path fill-rule="evenodd" clip-rule="evenodd" fill="none" stroke="#000000" stroke-width="0.25" stroke-linecap="round" stroke-linejoin="round" d="
		M189.429,36.31c9.081,2.28,16.141,4.61,24.96,7.7c9.561,3.34,15.101,5.38,24.801,8.31c15.189,4.58,35.16,9.55,50.54,13.39"/>
	
		<path fill-rule="evenodd" clip-rule="evenodd" fill="none" stroke="#000000" stroke-width="0.25" stroke-linecap="round" stroke-linejoin="round" d="
		M288.799,41.54c-5.41,12.55-10.83,25.1-16.27,37.63c-5.43,12.54-10.87,25.07-16.27,37.62c-5.4,12.55-10.801,25.11-16.221,37.65
		c-5.41,12.55-10.83,25.09-16.25,37.64"/>
	
		<path fill-rule="evenodd" clip-rule="evenodd" fill="none" stroke="#000000" stroke-width="0.25" stroke-linecap="round" stroke-linejoin="round" d="
		M132.22,39.99c-1.74,1.35-3.221,2.9-4.61,4.6c-1.74,2.12-3.24,4.37-4.63,6.71c-2.521,4.23-4.601,8.65-6.591,13.14
		c-3.989,8.95-7.539,18.08-11.979,26.85c-4.59,9.06-9.53,16.75-15.399,25.01c-5.69,8-11.7,15.72-17.84,23.36"/>
	
		<path fill-rule="evenodd" clip-rule="evenodd" fill="none" stroke="#000000" stroke-width="0.25" stroke-linecap="round" stroke-linejoin="round" d="
		M141.52,32.81c-1.881,1.16-3.46,2.85-4.78,4.55c-1.86,2.41-3.43,5.14-4.79,7.84c-2.35,4.66-4.29,9.74-6.07,14.63
		c-3.289,9.03-7.109,20.89-10.77,29.8c-4.21,10.24-8.83,18.67-14.84,27.95c-5.76,8.88-11.971,17.39-18.45,25.74"/>
	
		<path fill-rule="evenodd" clip-rule="evenodd" fill="none" stroke="#000000" stroke-width="0.25" stroke-linecap="round" stroke-linejoin="round" d="
		M103.4,13.65c8.63,2.12,17.25,4.24,25.899,6.29c8.65,2.06,17.311,4.03,26.03,5.74"/>
	
		<path fill-rule="evenodd" clip-rule="evenodd" fill="none" stroke="#000000" stroke-width="0.25" stroke-linecap="round" stroke-linejoin="round" d="
		M181.59,30.82c9.31,2.02,18.52,4.37,27.67,7.02c4.58,1.31,9.129,2.69,13.699,4.05c4.561,1.37,9.12,2.72,13.711,4
		c4.579,1.29,9.18,2.52,13.779,3.72c4.61,1.2,9.229,2.37,13.84,3.53c9.24,2.32,18.49,4.59,27.74,6.86"/>
	
		<path fill-rule="evenodd" clip-rule="evenodd" fill="none" stroke="#000000" stroke-width="0.25" stroke-linecap="round" stroke-linejoin="round" d="
		M279.17,39.28C273.48,51.65,267.799,64.02,262,76.34c-2.89,6.15-5.8,12.3-8.659,18.46c-2.87,6.17-5.711,12.36-8.521,18.56
		c-2.81,6.2-5.61,12.4-8.41,18.6c-2.819,6.19-5.649,12.38-8.48,18.57c-5.68,12.37-11.38,24.74-17.079,37.11"/>
	
		<path fill-rule="evenodd" clip-rule="evenodd" fill="none" stroke="#000000" stroke-width="0.25" stroke-linecap="round" stroke-linejoin="round" d="
		M197.799,42.75c7.09,3.46,13.75,7.62,20.61,11.46c1.72,0.96,3.46,1.91,5.21,2.82c1.74,0.9,3.49,1.76,5.26,2.58
		c3.57,1.66,7.19,3.16,10.87,4.55c13.671,5.16,31.07,9.84,45.171,13.48"/>
</g>
<g>
	
		<path fill-rule="evenodd" clip-rule="evenodd" fill="none" stroke="#000000" stroke-width="1.5" stroke-linecap="round" stroke-linejoin="round" d="
		M135.19,37.59c-1.561,1.26-2.97,2.71-4.2,4.29c-1.27,1.61-2.37,3.35-3.319,5.17c-0.58,1.13-1.11,2.28-1.58,3.46
		c-0.49,1.22-0.92,2.46-1.311,3.72c-0.609,1.98-1.109,3.99-1.54,6.02c-0.729,3.37-1.29,6.77-1.83,10.17
		c-0.54,3.35-1.069,6.69-1.7,10.03c-0.31,1.64-0.64,3.29-1.01,4.92c-0.29,1.25-0.6,2.5-0.93,3.73c-0.68,2.52-1.471,5-2.36,7.44
		c-0.54,1.5-1.13,2.99-1.75,4.46c-0.569,1.35-1.17,2.69-1.8,4.02c-0.66,1.39-1.34,2.76-2.061,4.12c-0.75,1.44-1.529,2.85-2.329,4.25
		c-0.9,1.58-1.82,3.13-2.771,4.67c-0.84,1.37-1.689,2.73-2.561,4.08c-0.85,1.31-1.699,2.62-2.569,3.92
		c-1.271,1.9-2.56,3.79-3.88,5.66c-3.1,4.42-6.311,8.76-9.59,13.05"/>
	
		<path fill-rule="evenodd" clip-rule="evenodd" fill="none" stroke="#000000" stroke-width="1.5" stroke-linecap="round" stroke-linejoin="round" d="
		M166.28,12.78c-1.101,1.33-2.21,2.66-3.32,3.98c-0.47,0.56-0.949,1.12-1.43,1.68c-0.63,0.73-1.27,1.46-1.91,2.19
		c-0.92,1.05-1.85,2.09-2.8,3.12c-0.62,0.67-1.25,1.34-1.88,2.01"/>
	
		<path fill-rule="evenodd" clip-rule="evenodd" fill="none" stroke="#000000" stroke-width="1.5" stroke-linecap="round" stroke-linejoin="round" d="
		M151.179,27.08c-1.35,0.57-2.589,1.38-3.68,2.36c-0.93,0.83-1.739,1.79-2.439,2.82c-0.58,0.85-1.09,1.76-1.53,2.69
		c-0.48,1.03-0.88,2.1-1.21,3.19c-0.36,1.19-0.641,2.41-0.87,3.64c-0.12,0.67-0.22,1.35-0.3,2.02c-0.14,1.07-0.229,2.14-0.31,3.21
		c-0.131,1.95-0.181,3.89-0.19,5.84c-0.021,1.7-0.011,3.39,0.01,5.09c0.02,1.66,0.05,3.33,0.07,4.99c0.02,1.71,0.03,3.42,0.03,5.13
		c0,1.35-0.011,2.7-0.03,4.04c-0.021,1.49-0.06,2.98-0.12,4.47c-0.061,1.25-0.12,2.49-0.21,3.74c-0.14,2.21-0.34,4.42-0.62,6.61
		c-0.23,1.9-0.52,3.79-0.87,5.66c-0.14,0.8-0.3,1.59-0.47,2.38c-0.18,0.83-0.37,1.66-0.57,2.48c-0.37,1.53-0.779,3.05-1.23,4.56
		c-0.879,2.94-1.909,5.83-3.069,8.68c-0.82,2.02-1.7,4.02-2.63,5.99c-0.561,1.18-1.141,2.35-1.73,3.51
		c-0.64,1.25-1.289,2.49-1.96,3.73c-0.649,1.2-1.32,2.4-1.989,3.59c-0.801,1.4-1.601,2.8-2.42,4.18c-0.65,1.1-1.311,2.19-1.98,3.27
		c-0.78,1.29-1.58,2.57-2.39,3.85c-1.561,2.45-3.15,4.88-4.78,7.29c-1.49,2.22-3,4.42-4.54,6.6"/>
	
		<path fill-rule="evenodd" clip-rule="evenodd" fill="none" stroke="#000000" stroke-width="1.5" stroke-linecap="round" stroke-linejoin="round" d="
		M183.81,16.89c-1.99,2.6-4.03,5.16-6.21,7.61c-0.48,0.55-0.98,1.09-1.48,1.62c-0.39,0.42-0.79,0.83-1.19,1.24"/>
	
		<path fill-rule="evenodd" clip-rule="evenodd" fill="none" stroke="#000000" stroke-width="1.5" stroke-linecap="round" stroke-linejoin="round" d="
		M258.37,34.38c-0.59,1.13-1.18,2.27-1.779,3.4c-0.391,0.74-0.78,1.48-1.17,2.22c-0.971,1.85-1.95,3.69-2.95,5.53
		c-0.73,1.35-1.471,2.69-2.24,4.02c-0.5,0.89-1.021,1.77-1.551,2.64c-0.339,0.56-0.689,1.12-1.05,1.67
		c-0.25,0.39-0.51,0.78-0.77,1.16c-0.439,0.65-0.9,1.27-1.37,1.89c-1.101,1.41-2.3,2.75-3.68,3.89c-1.4,1.16-2.99,2.11-4.69,2.78
		c-1.449,0.56-2.98,0.92-4.529,1.13c-1.451,0.19-2.911,0.26-4.381,0.22c-1.21-0.04-2.43-0.15-3.63-0.32
		c-2.19-0.31-4.34-0.81-6.45-1.44c-2.02-0.61-4-1.33-6-2.02c-0.869-0.3-1.74-0.59-2.63-0.85c-0.729-0.21-1.47-0.39-2.229-0.51
		c-0.61-0.1-1.23-0.17-1.85-0.17c-0.811,0-1.641,0.11-2.41,0.39c-0.681,0.24-1.311,0.6-1.871,1.07c-0.299,0.25-0.59,0.53-0.84,0.84
		c-0.529,0.61-0.959,1.31-1.319,2.03c-0.53,1.05-0.91,2.17-1.2,3.3c-0.21,0.8-0.37,1.62-0.51,2.43c-0.45,2.73-0.58,5.51-0.521,8.28
		c0.061,2.88,0.311,5.75,0.69,8.6c0.489,3.67,1.199,7.31,2.07,10.91c0.33,1.37,0.689,2.74,1.06,4.1c0.45,1.68,0.93,3.35,1.41,5.02
		c0.53,1.85,1.069,3.69,1.569,5.55c0.24,0.87,0.461,1.74,0.671,2.62c0.439,1.81,0.819,3.64,1.06,5.49c0.17,1.29,0.27,2.6,0.28,3.9
		c0.02,1.3-0.05,2.59-0.2,3.88c-0.15,1.27-0.37,2.53-0.66,3.77c-0.42,1.87-0.99,3.69-1.62,5.49c-1.409,3.99-3.18,7.84-5.01,11.65
		c-1.141,2.37-2.3,4.73-3.479,7.07c-1.37,2.73-2.78,5.44-4.181,8.15c-1.21,2.33-2.42,4.66-3.64,6.99
		c-1.21,2.32-2.42,4.63-3.641,6.95"/>
	
		<path fill-rule="evenodd" clip-rule="evenodd" fill="none" stroke="#000000" stroke-width="1.5" stroke-linecap="round" stroke-linejoin="round" d="
		M239.04,29.85c-1.75,2.99-3.52,5.98-5.34,8.93c-0.62,1-1.24,1.99-1.88,2.97c-0.29,0.44-0.58,0.89-0.88,1.33
		c-1.08,1.62-2.2,3.22-3.43,4.74c-0.78,0.97-1.61,1.9-2.521,2.76c-1.069,0.99-2.26,1.88-3.58,2.49c-0.81,0.37-1.66,0.64-2.54,0.78
		c-0.82,0.14-1.67,0.16-2.5,0.1c-1.81-0.12-3.57-0.63-5.25-1.3c-1.52-0.6-2.98-1.33-4.399-2.13c-3.141-1.78-6.091-3.9-9.16-5.79
		c-0.89-0.54-1.79-1.07-2.72-1.53c-0.851-0.42-1.73-0.79-2.641-1.04c-0.71-0.18-1.43-0.3-2.15-0.3c-0.42,0.01-0.84,0.05-1.239,0.14
		c-0.82,0.18-1.59,0.57-2.24,1.09c-0.771,0.61-1.38,1.4-1.891,2.24c-0.3,0.49-0.56,1.01-0.79,1.54c-0.27,0.59-0.489,1.2-0.699,1.82
		c-0.22,0.69-0.42,1.39-0.6,2.1c-0.311,1.3-0.551,2.62-0.74,3.94c-0.26,1.82-0.44,3.65-0.551,5.49c-0.109,1.92-0.16,3.85-0.18,5.78
		c-0.02,3.11,0.07,6.21,0.2,9.32c0.21,4.67,0.55,9.34,0.91,14.01c0.17,2.2,0.35,4.4,0.51,6.61c0.14,2.02,0.28,4.03,0.37,6.06
		c0.15,3.04,0.21,6.1,0.04,9.14c-0.09,1.52-0.229,3.04-0.45,4.55c-0.22,1.56-0.521,3.11-0.88,4.64c-1.19,5.01-3.11,9.83-5.29,14.51
		c-1.13,2.42-2.33,4.81-3.57,7.18c-0.82,1.58-1.66,3.16-2.5,4.73c-0.949,1.74-1.899,3.48-2.869,5.21
		c-0.721,1.28-1.44,2.57-2.17,3.85c-1.031,1.84-2.08,3.66-3.131,5.49c-1.55,2.68-3.11,5.36-4.67,8.04"/>
	
		<path fill-rule="evenodd" clip-rule="evenodd" fill="none" stroke="#000000" stroke-width="1.5" stroke-linecap="round" stroke-linejoin="round" d="
		M201.78,21.1c-1.24,1.76-2.51,3.49-3.83,5.18c-0.43,0.55-0.87,1.09-1.311,1.63c-0.39,0.47-0.779,0.94-1.18,1.4
		c-0.439,0.5-0.88,1.01-1.34,1.5c-0.24,0.26-0.49,0.52-0.73,0.78c-0.35,0.37-0.71,0.73-1.069,1.08c-0.681,0.66-1.37,1.29-2.1,1.89
		c-0.5,0.41-1.011,0.79-1.55,1.15"/>
	
		<path fill-rule="evenodd" clip-rule="evenodd" fill="none" stroke="#000000" stroke-width="1.5" stroke-linecap="round" stroke-linejoin="round" d="
		M149.15,8.76c-4.33,4.89-8.66,9.79-13.11,14.58c-1.05,1.13-2.1,2.25-3.17,3.37c-1.06,1.11-2.14,2.21-3.22,3.3
		c-1.021,1.01-2.05,2.02-3.09,3.01c-0.94,0.89-1.881,1.76-2.851,2.62c-1.149,1.04-2.32,2.05-3.489,3.05
		c-0.921,0.79-1.841,1.58-2.771,2.36c-1.21,1.04-2.42,2.07-3.62,3.13c-0.93,0.82-1.859,1.65-2.77,2.5
		c-0.74,0.68-1.47,1.38-2.19,2.08c-0.91,0.88-1.8,1.78-2.68,2.68c-0.761,0.8-1.52,1.6-2.27,2.41c-0.851,0.93-1.7,1.87-2.531,2.83
		c-1.069,1.22-2.119,2.46-3.149,3.72c-0.979,1.2-1.949,2.42-2.91,3.65c-1.28,1.65-2.53,3.33-3.77,5.01
		c-1.07,1.46-2.12,2.92-3.181,4.39c-0.99,1.37-1.97,2.74-2.959,4.11c-1.121,1.56-2.25,3.12-3.391,4.67
		c-1.12,1.52-2.25,3.03-3.391,4.53c-1.21,1.59-2.439,3.16-3.689,4.73c-1.229,1.56-2.479,3.1-3.74,4.64
		c-1.33,1.62-2.669,3.24-4.02,4.84c-2.48,2.95-4.98,5.88-7.5,8.8c-5.78,6.68-11.641,13.31-17.49,19.93"/>
	
		<path fill-rule="evenodd" clip-rule="evenodd" fill="none" stroke="#000000" stroke-width="1.5" stroke-linecap="round" stroke-linejoin="round" d="
		M132.42,4.83c-4.311,4.56-8.61,9.12-12.931,13.67c-3.91,4.11-7.83,8.22-11.811,12.27c-1.329,1.36-2.669,2.71-4.009,4.06
		c-1.291,1.29-2.591,2.59-3.881,3.89c-1.04,1.03-2.069,2.07-3.11,3.11c-1.06,1.07-2.119,2.14-3.18,3.22
		c-2.11,2.14-4.209,4.29-6.279,6.47c-2.57,2.67-5.101,5.37-7.62,8.09c-1.26,1.36-2.53,2.74-3.78,4.12
		c-1.21,1.32-2.41,2.64-3.61,3.97c-2.119,2.34-4.229,4.69-6.35,7.04c-1.23,1.36-2.46,2.72-3.689,4.08c-1.07,1.17-2.13,2.34-3.2,3.5
		c-1.93,2.1-3.86,4.19-5.8,6.28c-4.031,4.34-8.091,8.66-12.15,12.98c-6.57,6.98-13.16,13.96-19.75,20.93"/>
	
		<path fill-rule="evenodd" clip-rule="evenodd" fill="none" stroke="#000000" stroke-width="1.5" stroke-linecap="round" stroke-linejoin="round" d="
		M178.31,28.95c-0.86-0.45-1.75-0.85-2.671-1.16c-0.659-0.23-1.34-0.41-2.029-0.52c-0.85-0.14-1.721-0.17-2.57-0.06
		c-0.8,0.11-1.6,0.35-2.319,0.72c-0.74,0.39-1.41,0.92-1.98,1.53c-0.66,0.71-1.19,1.52-1.63,2.38c-0.3,0.59-0.57,1.21-0.79,1.84
		c-0.431,1.18-0.75,2.41-1,3.64c-0.141,0.7-0.25,1.39-0.35,2.09c-0.141,1.01-0.25,2.02-0.341,3.04c-0.159,1.91-0.229,3.83-0.27,5.75
		c-0.07,3.9,0.01,7.8,0.11,11.7c0.09,3.91,0.2,7.82,0.26,11.73c0.069,4.4,0.09,8.8-0.04,13.19c-0.09,3.03-0.25,6.05-0.53,9.06
		c-0.18,1.92-0.399,3.82-0.689,5.72c-0.261,1.75-0.581,3.49-0.95,5.22c-0.35,1.62-0.76,3.23-1.2,4.82
		c-0.47,1.66-0.979,3.3-1.54,4.93c-0.7,2.03-1.47,4.04-2.3,6.02c-0.44,1.06-0.91,2.12-1.38,3.16c-0.68,1.5-1.391,2.99-2.12,4.46
		c-0.78,1.6-1.601,3.18-2.431,4.75c-0.959,1.82-1.939,3.62-2.949,5.42c-2.08,3.72-4.24,7.41-6.461,11.06
		c-1.049,1.74-2.119,3.46-3.189,5.18c-1.311,2.1-2.64,4.18-3.97,6.25"/>
	
		<path fill-rule="evenodd" clip-rule="evenodd" fill="none" stroke="#000000" stroke-width="1.5" stroke-linecap="round" stroke-linejoin="round" d="
		M131.4,40.57c-1.7,0.84-3.351,1.8-4.91,2.88c-1.53,1.06-2.97,2.25-4.33,3.51c-1.5,1.41-2.91,2.92-4.23,4.51
		c-2.6,3.11-4.859,6.51-6.819,10.07c-0.689,1.23-1.33,2.48-1.96,3.75c-0.93,1.87-1.81,3.76-2.66,5.67
		c-0.75,1.67-1.49,3.36-2.22,5.04c-0.76,1.72-1.51,3.44-2.28,5.16c-1.42,3.15-2.899,6.28-4.52,9.34
		c-1.891,3.56-3.95,7.01-6.13,10.39c-2.49,3.86-5.15,7.62-7.881,11.32c-2.369,3.22-4.8,6.39-7.27,9.54
		c-1.149,1.47-2.301,2.93-3.47,4.39c-1.13,1.42-2.28,2.84-3.43,4.25c-1.82,2.25-3.651,4.49-5.491,6.72"/>
	
		<path fill-rule="evenodd" clip-rule="evenodd" fill="none" stroke="#000000" stroke-width="1.5" stroke-linecap="round" stroke-linejoin="round" d="
		M220.179,25.42c-1.06,1.64-2.13,3.27-3.239,4.88c-1.13,1.64-2.29,3.26-3.511,4.83c-0.739,0.97-1.509,1.92-2.31,2.84
		c-0.54,0.63-1.1,1.25-1.68,1.85c-0.68,0.7-1.391,1.38-2.16,1.98c-1.04,0.82-2.189,1.53-3.46,1.87c-1.03,0.29-2.13,0.33-3.181,0.15
		c-0.879-0.16-1.729-0.48-2.539-0.87"/>
	
		<path fill-rule="evenodd" clip-rule="evenodd" fill="none" stroke="#000000" stroke-width="1.5" stroke-linecap="round" stroke-linejoin="round" d="
		M278.2,39.03c-1.14,2.46-2.279,4.91-3.42,7.36c-0.78,1.67-1.561,3.33-2.359,4.99c-1.121,2.34-2.271,4.68-3.511,6.96
		c-0.88,1.63-1.81,3.23-2.86,4.76c-0.66,0.97-1.37,1.91-2.14,2.8c-1.16,1.35-2.47,2.58-3.92,3.61c-0.8,0.58-1.649,1.09-2.521,1.55
		c-0.879,0.46-1.77,0.86-2.689,1.22c-1.15,0.45-2.33,0.82-3.52,1.15c-1.931,0.53-3.9,0.92-5.881,1.21
		c-2.64,0.39-5.31,0.61-7.97,0.71c-2.86,0.1-5.72,0.07-8.58,0.05c-1.3-0.01-2.6-0.03-3.9,0.03c-1.189,0.04-2.38,0.14-3.55,0.36
		c-0.959,0.18-1.92,0.44-2.81,0.84c-1,0.46-1.92,1.1-2.66,1.91c-0.73,0.79-1.28,1.74-1.68,2.74c-0.47,1.16-0.74,2.38-0.88,3.63
		c-0.11,0.97-0.15,1.96-0.13,2.94c0.02,1.43,0.169,2.86,0.409,4.27c0.5,3.04,1.4,5.99,2.49,8.87c1.4,3.67,3.13,7.2,4.93,10.69
		c1.36,2.66,2.771,5.28,4.07,7.97c0.551,1.15,1.09,2.31,1.59,3.49c0.961,2.27,1.78,4.61,2.271,7.03c0.09,0.44,0.159,0.88,0.229,1.33
		c0.061,0.4,0.11,0.8,0.15,1.2c0.061,0.7,0.1,1.39,0.11,2.09c0.02,2.25-0.271,4.49-0.74,6.69c-0.15,0.68-0.31,1.36-0.49,2.03
		c-0.28,1.05-0.59,2.1-0.93,3.14c-0.421,1.28-0.881,2.54-1.36,3.8c-1.21,3.22-2.57,6.38-3.95,9.53c-0.96,2.19-1.939,4.38-2.93,6.56
		c-1.07,2.35-2.149,4.7-3.229,7.05c-2.091,4.53-4.19,9.05-6.291,13.58"/>
	
		<path fill-rule="evenodd" clip-rule="evenodd" fill="none" stroke="#000000" stroke-width="1.5" stroke-linecap="round" stroke-linejoin="round" d="
		M295.83,50.49c-0.21,0.53-0.43,1.06-0.64,1.59c-0.24,0.59-0.49,1.19-0.73,1.79c-0.649,1.57-1.31,3.15-1.979,4.72
		c-0.761,1.77-1.551,3.54-2.39,5.28c-0.711,1.49-1.471,2.97-2.32,4.39c-1.21,2.03-2.61,3.95-4.29,5.61c-0.9,0.9-1.87,1.71-2.91,2.44
		c-1.38,0.97-2.86,1.78-4.399,2.49c-1.73,0.8-3.531,1.47-5.351,2.05c-2.63,0.85-5.32,1.52-8.021,2.11
		c-3.33,0.73-6.689,1.32-10.05,1.92c-2.07,0.37-4.149,0.74-6.21,1.21c-1.4,0.31-2.79,0.67-4.15,1.13
		c-1.299,0.43-2.579,0.96-3.77,1.64c-0.609,0.34-1.19,0.73-1.74,1.17c-0.359,0.3-0.7,0.62-1.02,0.96c-0.561,0.6-1.05,1.27-1.42,2
		c-0.54,1.03-0.85,2.17-0.99,3.32c-0.15,1.24-0.08,2.49,0.1,3.72c0.041,0.26,0.08,0.52,0.13,0.79c0.141,0.71,0.32,1.43,0.53,2.13
		c0.44,1.46,1.011,2.89,1.66,4.27c0.91,1.94,1.971,3.81,3.09,5.64c1.351,2.21,2.79,4.36,4.25,6.5c1.72,2.53,3.47,5.05,5.09,7.65
		c1.221,1.95,2.371,3.94,3.351,6.02c0.47,0.99,0.89,2.01,1.271,3.05c0.42,1.18,0.77,2.4,1.009,3.63c0.421,2.13,0.53,4.31,0.4,6.48
		c-0.09,1.42-0.28,2.84-0.54,4.23c-0.42,2.27-1.02,4.5-1.689,6.7c-0.61,1.99-1.28,3.96-1.98,5.93c-0.68,1.91-1.39,3.81-2.12,5.71
		c-0.649,1.73-1.32,3.45-1.989,5.17c-0.721,1.81-1.44,3.63-2.16,5.44c-0.66,1.66-1.33,3.33-2,5c-1.641,4.07-3.28,8.14-4.921,12.2"/>
	
		<path fill-rule="evenodd" clip-rule="evenodd" fill="none" stroke="#000000" stroke-width="1.5" stroke-linecap="round" stroke-linejoin="round" d="
		M279.56,90.85c-2.08,0.55-4.171,1.09-6.25,1.67c-1.671,0.46-3.341,0.95-4.99,1.5c-1.06,0.37-2.12,0.75-3.16,1.19
		c-0.97,0.41-1.93,0.86-2.85,1.37c-0.87,0.49-1.72,1.03-2.5,1.66c-0.74,0.58-1.431,1.24-2.011,1.99c-0.56,0.7-1.02,1.49-1.35,2.32
		c-0.33,0.84-0.529,1.73-0.6,2.62c-0.101,1.23,0.029,2.46,0.3,3.66c0.22,0.98,0.529,1.93,0.91,2.85c0.61,1.53,1.39,2.98,2.25,4.38
		c1.909,3.15,4.2,6.05,6.479,8.94"/>
</g>
<path d="M206.33,47.37c-1.06-0.05-2.01-0.31-2.93-0.67c-1.11-0.44-2.18-0.99-3.221-1.59c-3.439-2.01-6.659-4.46-9.919-6.84
	c-2.811-2.05-5.641-4.08-8.561-5.91c-1.32-0.83-2.65-1.61-4-2.35c-0.66-0.36-1.35-0.69-2.021-1.04c-1.39-0.72-2.88-1.31-4.38-1.81
	c-1.069-0.37-2.149-0.72-3.3-0.93c-3.07-0.56-6.64-0.47-9.729,0.03c-2.32,0.38-4.51,0.99-6.62,1.77c-2.24,0.83-4.33,1.97-6.29,3.32
	c0.08-0.08-0.2,0.14-0.24,0.17c-0.09,0.06-0.18,0.12-0.26,0.19c-0.2,0.13-0.4,0.27-0.59,0.41c-0.62,0.44-1.23,0.9-1.841,1.36
	c-1.989,1.5-3.979,3.06-6.05,4.43c-2.689,1.78-5.49,3.3-8.63,4.19c-1.09,0.31-2.229,0.56-3.399,0.72
	c-0.5,0.06-1.021,0.11-1.521,0.17c-0.229,0.03-0.43-0.13-0.46-0.36c-0.029-0.22,0.13-0.42,0.36-0.45c1.02-0.12,2-0.32,2.949-0.57
	c4.431-1.16,8.141-3.54,11.721-6.36c1.41-1.11,2.81-2.24,4.21-3.37s2.84-2.24,4.33-3.18c4.17-2.63,8.92-4.29,14.109-4.82
	c2.671-0.27,5.59-0.25,8.141,0.21c0.98,0.17,1.9,0.43,2.81,0.72l0,0c2.011,0.68,3.95,1.47,5.83,2.42
	c6.521,3.34,12.341,8.12,18.24,12.74c2.16,1.68,4.31,3.35,6.609,4.74c1.45,0.87,2.95,1.66,4.721,1.87c0.22,0.02,0.38,0.21,0.36,0.43
	C206.75,47.23,206.549,47.39,206.33,47.37z"/>
<polygon opacity="0.5" fill-rule="evenodd" clip-rule="evenodd" points="24.07,92.27 10.14,105.85 30.541,112.58 23.72,120.19 
	62.44,113.42 49.37,91.58 43.35,98.29 "/>
<polygon fill-rule="evenodd" clip-rule="evenodd" fill="#FFFFFF" stroke="#000000" points="20.31,84.79 6.8,98.44 31.37,106.54 
	24.55,114.14 63.27,107.38 50.2,85.54 44.179,92.25 "/>
<g>
	
		<line fill-rule="evenodd" clip-rule="evenodd" fill="none" stroke="#E00000" stroke-width="2" stroke-linejoin="bevel" x1="188.179" y1="168.88" x2="214.129" y2="177.43"/>
	
		<line fill-rule="evenodd" clip-rule="evenodd" fill="none" stroke="#E00000" stroke-width="2" stroke-linejoin="bevel" x1="192.679" y1="159.73" x2="218.179" y2="168.13"/>
	
		<line fill-rule="evenodd" clip-rule="evenodd" fill="none" stroke="#E00000" stroke-width="2" stroke-linejoin="bevel" x1="197.179" y1="151.03" x2="222.23" y2="158.98"/>
	
		<line fill-rule="evenodd" clip-rule="evenodd" fill="none" stroke="#E00000" stroke-width="2" stroke-linejoin="bevel" x1="201.23" y1="142.18" x2="225.83" y2="150.13"/>
	
		<line fill-rule="evenodd" clip-rule="evenodd" fill="none" stroke="#E00000" stroke-width="2" stroke-linejoin="bevel" x1="204.53" y1="133.18" x2="228.679" y2="141.43"/>
	
		<line fill-rule="evenodd" clip-rule="evenodd" fill="none" stroke="#E00000" stroke-width="2" stroke-linejoin="bevel" x1="205.129" y1="123.28" x2="229.28" y2="131.98"/>
	<path fill-rule="evenodd" clip-rule="evenodd" fill="none" stroke="#E00000" stroke-width="2" stroke-linejoin="bevel" d="
		M202.879,110.53c7.55,4.25,15.101,7.85,22.65,10.5"/>
	<path fill-rule="evenodd" clip-rule="evenodd" fill="none" stroke="#E00000" stroke-width="2" stroke-linejoin="bevel" d="
		M198.83,95.23c6.8,5.23,13.6,9.66,20.4,12.9"/>
	<path fill-rule="evenodd" clip-rule="evenodd" fill="none" stroke="#E00000" stroke-width="2" stroke-linejoin="bevel" d="
		M197.03,79.63c5.5,5.94,11.2,11.1,17.1,15.45"/>
	<path fill-rule="evenodd" clip-rule="evenodd" fill="none" stroke="#E00000" stroke-width="2" stroke-linejoin="bevel" d="
		M198.08,67.03c4.21,5.73,9.08,11.33,15.3,16.65"/>
	<path fill-rule="evenodd" clip-rule="evenodd" fill="none" stroke="#E00000" stroke-width="2" stroke-linejoin="bevel" d="
		M202.28,60.88c4.58,6.13,9.62,11.56,15,16.5"/>
	<path fill-rule="evenodd" clip-rule="evenodd" fill="none" stroke="#E00000" stroke-width="2" stroke-linejoin="bevel" d="
		M208.58,60.43c4.99,5.21,10.25,10.15,16.05,14.55"/>
	<path fill-rule="evenodd" clip-rule="evenodd" fill="none" stroke="#E00000" stroke-width="2" stroke-linejoin="bevel" d="
		M218.03,63.28c5.95,4.55,12.3,8.7,19.05,12.45"/>
	<path fill-rule="evenodd" clip-rule="evenodd" fill="none" stroke="#E00000" stroke-width="2" stroke-linejoin="bevel" d="
		M229.129,65.08c6.49,3.53,13.211,6.37,20.101,8.7"/>
	<path fill-rule="evenodd" clip-rule="evenodd" fill="none" stroke="#E00000" stroke-width="2" stroke-linejoin="bevel" d="
		M237.679,63.28c6.75,2.55,13.69,4.91,20.851,7.05"/>
	
		<line fill-rule="evenodd" clip-rule="evenodd" fill="none" stroke="#E00000" stroke-width="2" stroke-linejoin="bevel" x1="243.379" y1="59.38" x2="264.08" y2="65.53"/>
	
		<line fill-rule="evenodd" clip-rule="evenodd" fill="none" stroke="#E00000" stroke-width="2" stroke-linejoin="bevel" x1="247.28" y1="54.73" x2="267.679" y2="60.28"/>
	
		<line fill-rule="evenodd" clip-rule="evenodd" fill="none" stroke="#E00000" stroke-width="2" stroke-linejoin="bevel" x1="250.129" y1="49.48" x2="270.98" y2="54.88"/>
	
		<line fill-rule="evenodd" clip-rule="evenodd" fill="none" stroke="#E00000" stroke-width="2" stroke-linejoin="bevel" x1="253.28" y1="44.53" x2="273.23" y2="49.18"/>
	
		<line fill-rule="evenodd" clip-rule="evenodd" fill="none" stroke="#E00000" stroke-width="2" stroke-linejoin="bevel" x1="255.83" y1="39.43" x2="275.929" y2="44.23"/>
</g>
</svg>
