<?xml version="1.0" encoding="utf-8"?>
<!-- Generator: Adobe Illustrator 14.0.0, SVG Export Plug-In . SVG Version: 6.00 Build 43363)  -->
<!DOCTYPE svg PUBLIC "-//W3C//DTD SVG 1.0//EN" "http://www.w3.org/TR/2001/REC-SVG-20010904/DTD/svg10.dtd">
<svg version="1.0" id="Layer_1" xmlns="http://www.w3.org/2000/svg" xmlns:xlink="http://www.w3.org/1999/xlink" x="0px" y="0px"
	 width="674.03px" height="170.893px" viewBox="0 0 674.03 170.893" enable-background="new 0 0 674.03 170.893"
	 xml:space="preserve">
<line fill-rule="evenodd" clip-rule="evenodd" fill="none" stroke="#000000" stroke-linejoin="round" stroke-dasharray="2,2" x1="501.99" y1="118.122" x2="509.52" y2="100.973"/>
<line fill-rule="evenodd" clip-rule="evenodd" fill="none" stroke="#000000" stroke-linejoin="round" x1="453.69" y1="105.372" x2="454.81" y2="86.672"/>
<line fill-rule="evenodd" clip-rule="evenodd" fill="none" stroke="#000000" stroke-linejoin="round" x1="403.74" y1="110.922" x2="399" y2="92.792"/>
<line fill-rule="evenodd" clip-rule="evenodd" fill="none" stroke="#000000" stroke-linejoin="round" x1="359.18" y1="133.422" x2="348.96" y2="117.723"/>
<line fill-rule="evenodd" clip-rule="evenodd" fill="none" stroke="#000000" stroke-linejoin="round" x1="316.13" y1="159.822" x2="309.79" y2="142.192"/>
<line fill-rule="evenodd" clip-rule="evenodd" fill="none" stroke="#000000" stroke-linejoin="round" x1="266.94" y1="168.223" x2="266.94" y2="149.481"/>
<line fill-rule="evenodd" clip-rule="evenodd" fill="none" stroke="#000000" stroke-linejoin="round" x1="217.89" y1="158.322" x2="224.9" y2="140.952"/>
<line fill-rule="evenodd" clip-rule="evenodd" fill="none" stroke="#000000" stroke-linejoin="round" x1="176.19" y1="129.973" x2="188.15" y2="115.552"/>
<line fill-rule="evenodd" clip-rule="evenodd" fill="none" stroke="#000000" stroke-linejoin="round" x1="139.88" y1="95.322" x2="153.46" y2="82.412"/>
<line fill-rule="evenodd" clip-rule="evenodd" fill="none" stroke="#000000" stroke-linejoin="round" x1="100.28" y1="64.122" x2="109.15" y2="47.622"/>
<line fill-rule="evenodd" clip-rule="evenodd" fill="none" stroke="#000000" stroke-linejoin="round" x1="53.33" y1="47.922" x2="56.75" y2="29.502"/>
<line fill-rule="evenodd" clip-rule="evenodd" fill="none" stroke="#000000" stroke-linejoin="round" x1="3.09" y1="42.822" x2="3.09" y2="24.082"/>
<path fill-rule="evenodd" clip-rule="evenodd" fill="none" stroke="#000000" stroke-linejoin="round" d="M2.6,29.502
	c90.27-2.76,128.41,37.45,157.23,66.28c28.24,28.25,47.69,45.31,72.66,53.18c25.58,8.061,57.79,6.681,80.91-2.79
	c24.93-10.21,40.44-29.55,69.009-42.22c29.171-12.93,68.36-16.67,101.721-7.341"/>
<path fill-rule="evenodd" clip-rule="evenodd" fill="none" stroke="#000000" stroke-linejoin="round" stroke-dasharray="2,2" d="
	M484.13,96.611c32.5,9.081,55.72,29.031,79.64,35.361c20.851,5.52,43.3-0.15,59.78-8.241"/>
<path fill-rule="evenodd" clip-rule="evenodd" fill="none" stroke="#000000" stroke-width="3" stroke-linecap="round" stroke-linejoin="round" d="
	M3.02,43.152c84.44-2.59,119.06,34.17,147.16,62.28c28.1,28.101,49.67,47.55,78.21,56.541c28.53,9,64.02,7.539,90.18-3.171
	c26.16-10.71,42.99-30.67,69.38-42.37c26.38-11.689,62.319-15.12,92.5-6.68c30.189,8.44,54.629,28.74,79.83,35.41
	c25.209,6.68,51.17-0.28,69.289-9.17c18.11-8.89,28.37-19.71,34.891-32.52c6.51-12.82,9.279-27.621,7.579-41.931
	c-1.71-14.3-7.869-28.1-17.6-38.72c-9.72-10.62-22.989-18.06-37.18-20.46c-14.19-2.4-29.3,0.23-41.62,7.67
	c-12.32,7.43-21.859,19.67-25.5,33.58c-3.641,13.92-1.4,29.51,6.649,41.41c8.051,11.9,21.911,20.089,36.301,20.29
	s29.319-7.58,35.399-20.64c6.08-13.04,3.32-31.36-8.619-38.69c-11.94-7.33-33.07-3.68-31.59,13.75"/>
<circle fill-rule="evenodd" clip-rule="evenodd" fill="#FFFFFF" stroke="#000000" stroke-linecap="round" stroke-linejoin="round" cx="3.02" cy="43.152" r="2.52"/>
<path fill-rule="evenodd" clip-rule="evenodd" fill="#FF0000" stroke="#000000" stroke-linecap="round" stroke-linejoin="round" d="
	M56.35,46.882c0-1.77-1.43-3.2-3.19-3.2c-1.77,0-3.2,1.43-3.2,3.2c0,1.76,1.43,3.19,3.2,3.19
	C54.92,50.072,56.35,48.642,56.35,46.882z"/>
<circle fill-rule="evenodd" clip-rule="evenodd" fill="#FFFFFF" stroke="#000000" stroke-linecap="round" stroke-linejoin="round" cx="100.24" cy="64.182" r="2.52"/>
<circle fill-rule="evenodd" clip-rule="evenodd" fill="#FFFFFF" stroke="#000000" stroke-linecap="round" stroke-linejoin="round" cx="139.82" cy="95.132" r="2.52"/>
<path fill-rule="evenodd" clip-rule="evenodd" fill="#FFFFFF" stroke="#000000" stroke-linecap="round" stroke-linejoin="round" d="
	M178.59,130.111c0-1.389-1.13-2.52-2.52-2.52s-2.52,1.131-2.52,2.52c0,1.391,1.13,2.521,2.52,2.521S178.59,131.502,178.59,130.111z"
	/>
<circle fill-rule="evenodd" clip-rule="evenodd" fill="#FFFFFF" stroke="#000000" stroke-linecap="round" stroke-linejoin="round" cx="217.77" cy="158.022" r="2.52"/>
<path fill-rule="evenodd" clip-rule="evenodd" fill="#FFFFFF" stroke="#000000" stroke-linecap="round" stroke-linejoin="round" d="
	M269.37,167.872c0-1.399-1.13-2.52-2.52-2.52c-1.39,0-2.52,1.12-2.52,2.52c0,1.39,1.13,2.521,2.52,2.521
	C268.24,170.393,269.37,169.262,269.37,167.872z"/>
<circle fill-rule="evenodd" clip-rule="evenodd" fill="#FFFFFF" stroke="#000000" stroke-linecap="round" stroke-linejoin="round" cx="316.28" cy="159.712" r="2.52"/>
<path fill-rule="evenodd" clip-rule="evenodd" fill="#FFFFFF" stroke="#000000" stroke-linecap="round" stroke-linejoin="round" d="
	M361.73,133.643c0-1.391-1.13-2.521-2.52-2.521c-1.4,0-2.521,1.13-2.521,2.521c0,1.39,1.12,2.52,2.521,2.52
	C360.6,136.162,361.73,135.032,361.73,133.643z"/>
<circle fill-rule="evenodd" clip-rule="evenodd" fill="#FFFFFF" stroke="#000000" stroke-linecap="round" stroke-linejoin="round" cx="403.76" cy="110.731" r="2.521"/>
<circle fill-rule="evenodd" clip-rule="evenodd" fill="#FFFFFF" stroke="#000000" stroke-linecap="round" stroke-linejoin="round" cx="453.62" cy="105.353" r="2.52"/>
<circle fill-rule="evenodd" clip-rule="evenodd" fill="#FFFFFF" stroke="#000000" stroke-linecap="round" stroke-linejoin="round" cx="502.09" cy="117.902" r="2.52"/>
<path fill-rule="evenodd" clip-rule="evenodd" fill="#FFFFFF" stroke="#000000" stroke-linecap="round" stroke-linejoin="round" d="
	M549.6,140.552c0-1.399-1.12-2.52-2.521-2.52c-1.39,0-2.51,1.12-2.51,2.52c0,1.391,1.12,2.521,2.51,2.521
	C548.48,143.072,549.6,141.942,549.6,140.552z"/>
<path fill-rule="evenodd" clip-rule="evenodd" fill="#FFFFFF" stroke="#000000" stroke-linecap="round" stroke-linejoin="round" d="
	M598.9,146.611c0-1.389-1.13-2.52-2.52-2.52c-1.391,0-2.521,1.131-2.521,2.52c0,1.391,1.13,2.521,2.521,2.521
	C597.77,149.132,598.9,148.002,598.9,146.611z"/>
<circle fill-rule="evenodd" clip-rule="evenodd" fill="#FFFFFF" stroke="#000000" stroke-linecap="round" stroke-linejoin="round" cx="642.85" cy="128.192" r="2.521"/>
<path fill-rule="evenodd" clip-rule="evenodd" fill="#FFFFFF" stroke="#000000" stroke-linecap="round" stroke-linejoin="round" d="
	M672.93,87.361c0-1.389-1.13-2.52-2.521-2.52c-1.39,0-2.52,1.13-2.52,2.52c0,1.4,1.13,2.521,2.52,2.521
	C671.8,89.882,672.93,88.762,672.93,87.361z"/>
<circle fill-rule="evenodd" clip-rule="evenodd" fill="#FFFFFF" stroke="#000000" stroke-linecap="round" stroke-linejoin="round" cx="665.06" cy="38.312" r="2.52"/>
<circle fill-rule="evenodd" clip-rule="evenodd" fill="#FFFFFF" stroke="#000000" stroke-linecap="round" stroke-linejoin="round" cx="628.52" cy="5.372" r="2.52"/>
<path fill-rule="evenodd" clip-rule="evenodd" fill="#FFFFFF" stroke="#000000" stroke-linecap="round" stroke-linejoin="round" d="
	M582.09,7.862c0-1.39-1.12-2.52-2.521-2.52c-1.39,0-2.52,1.13-2.52,2.52c0,1.39,1.13,2.52,2.52,2.52
	C580.97,10.382,582.09,9.252,582.09,7.862z"/>
<path fill-rule="evenodd" clip-rule="evenodd" fill="#FFFFFF" stroke="#000000" stroke-linecap="round" stroke-linejoin="round" d="
	M552.05,46.222c0-1.39-1.13-2.51-2.52-2.51c-1.391,0-2.521,1.12-2.521,2.51c0,1.4,1.13,2.52,2.521,2.52
	C550.92,48.742,552.05,47.622,552.05,46.222z"/>
<path fill-rule="evenodd" clip-rule="evenodd" fill="#FFFFFF" stroke="#000000" stroke-linecap="round" stroke-linejoin="round" d="
	M565.67,92.542c0-1.39-1.12-2.52-2.511-2.52c-1.399,0-2.52,1.13-2.52,2.52s1.12,2.52,2.52,2.52
	C564.55,95.062,565.67,93.932,565.67,92.542z"/>
<circle fill-rule="evenodd" clip-rule="evenodd" fill="#FFFFFF" stroke="#000000" stroke-linecap="round" stroke-linejoin="round" cx="609.73" cy="102.022" r="2.52"/>
<path fill-rule="evenodd" clip-rule="evenodd" fill="#FFFFFF" stroke="#000000" stroke-linecap="round" stroke-linejoin="round" d="
	M632.94,60.972c0-1.39-1.13-2.52-2.52-2.52s-2.521,1.13-2.521,2.52c0,1.4,1.131,2.52,2.521,2.52S632.94,62.372,632.94,60.972z"/>
<circle fill-rule="evenodd" clip-rule="evenodd" fill="#FFFFFF" stroke="#000000" stroke-linecap="round" stroke-linejoin="round" cx="590.93" cy="49.172" r="2.521"/>
<g>
	<path d="M5.34,51.047c-0.173-0.516-0.564-1.215-1.542-1.215c-0.503,0-0.965,0.218-1.24,0.511c-0.248,0.251-0.371,0.609-0.371,1.017
		c0,0.542,0.216,1.008,0.597,1.327c0.371,0.325,0.752,0.593,1.688,1.105c0.895,0.554,1.384,0.857,1.753,1.227
		c0.397,0.44,0.74,1.053,0.74,1.911c0,0.7-0.233,1.399-0.755,1.935c-0.5,0.503-1.264,1.068-2.507,1.068
		c-1.957,0-2.853-0.948-3.127-2.192l1.366-0.096c0.222,0.631,0.715,1.334,1.763,1.334c0.679,0,1.127-0.342,1.427-0.683
		c0.262-0.313,0.405-0.759,0.405-1.2c0-0.598-0.234-1.008-0.542-1.329c-0.303-0.27-0.668-0.497-1.634-1.091
		c-1.001-0.57-1.459-0.912-1.824-1.312c-0.393-0.421-0.75-1.037-0.75-1.915c0-0.663,0.212-1.285,0.718-1.732
		c0.515-0.503,1.256-0.841,2.331-0.841c1.751,0,2.607,0.958,2.832,2.103L5.34,51.047z"/>
	<path d="M8.652,50.167h1.319v1.714h1.784v0.87H9.971v4.235c0,1.396,0.418,2.017,1.068,2.017c0.432,0,0.792-0.215,1.006-0.365
		l0.256,0.857c-0.375,0.188-0.894,0.404-1.532,0.404c-1.277,0-2.117-0.658-2.117-2.544v-4.604H7.688v-0.87h0.964V50.167z"/>
	<path d="M17.613,59.723c-0.131-0.164-0.182-0.375-0.199-0.605h-0.027c-0.426,0.443-1.213,0.782-2.006,0.782
		c-1.685,0-2.417-0.8-2.417-2.163c0-1.575,1.086-2.61,4.395-3.081v-0.283c0-1.199-0.319-1.885-1.342-1.885
		c-0.89,0-1.292,0.727-1.397,1.44l-1.335-0.107c0.208-1.077,0.905-2.117,2.766-2.117c1.731,0,2.629,0.649,2.629,2.946v3.841
		c0,0.657,0.042,0.956,0.263,1.156v0.075H17.613z M17.36,55.385c-2.183,0.35-3.048,1.15-3.048,2.27c0,0.848,0.345,1.412,1.337,1.412
		c0.459,0,1.194-0.218,1.71-0.825V55.385z"/>
	<path d="M21.767,52.683c0.232-0.268,0.465-0.516,0.75-0.701c0.269-0.163,0.564-0.278,0.917-0.278c0.197,0,0.384,0.026,0.553,0.086
		c0.142,0.05,0.256,0.111,0.378,0.199l-0.151,1.059c-0.093-0.096-0.2-0.168-0.321-0.228c-0.159-0.069-0.318-0.103-0.512-0.103
		c-0.252,0-0.516,0.095-0.829,0.333c-0.271,0.21-0.548,0.517-0.806,0.883v5.789h-1.319v-7.842h1.319l-0.021,0.802H21.767z"/>
	<path d="M25.751,50.167h1.32v1.714h1.783v0.87h-1.783v4.235c0,1.396,0.418,2.017,1.068,2.017c0.432,0,0.792-0.215,1.006-0.365
		l0.255,0.857c-0.375,0.188-0.894,0.404-1.532,0.404c-1.277,0-2.118-0.658-2.118-2.544v-4.604h-0.963v-0.87h0.963V50.167z"/>
</g>
<g>
	<path d="M580.209,65.71v0.958h-3.177v4.096h4.217v0.958h-5.614V61.088h5.489v0.958h-4.092v3.665H580.209z"/>
	<path d="M588.031,71.723v-5.063c0-0.615-0.049-1.164-0.311-1.516c-0.202-0.258-0.512-0.442-1.045-0.442
		c-0.373,0-0.765,0.113-1.148,0.306c-0.395,0.208-0.915,0.593-1.275,0.985v5.73h-1.319v-7.842h1.319l-0.022,1.053h0.058
		c0.444-0.343,0.901-0.654,1.37-0.878c0.444-0.216,0.942-0.351,1.448-0.351c0.741,0,1.337,0.2,1.709,0.638
		c0.353,0.417,0.536,1.017,0.536,1.943v5.438H588.031z"/>
	<path d="M596.371,70.938c-0.398,0.33-1.066,0.961-2.269,0.961c-2.182,0-3.226-1.645-3.226-4.095c0-2.73,1.4-4.101,3.184-4.101
		c0.939,0,1.698,0.388,2.307,0.938h0.026v-3.636h1.319v10.716h-1.319l0.018-0.784H596.371z M594.333,70.991
		c1.042,0,1.672-0.662,2.06-1.206v-4.041c-0.569-0.652-1.264-1.13-2.067-1.13c-1.335,0-2.095,1.19-2.1,3.207
		c-0.005,1.986,0.771,3.171,2.093,3.171H594.333z"/>
</g>
<polygon fill-rule="evenodd" clip-rule="evenodd" stroke="#000000" points="52.41,30.192 51.4,35.542 60.45,31.712 59.43,37.062 "/>
<polygon fill-rule="evenodd" clip-rule="evenodd" stroke="#000000" points="3.45,29.372 7.44,26.702 7.44,32.152 "/>
<polygon fill-rule="evenodd" clip-rule="evenodd" stroke="#000000" points="104.92,47.682 101.86,52.182 111.69,52.272 
	108.62,56.782 "/>
<polygon fill-rule="evenodd" clip-rule="evenodd" stroke="#000000" points="149.28,81.102 145.16,84.672 154.63,87.282 
	150.51,90.853 "/>
<polygon fill-rule="evenodd" clip-rule="evenodd" stroke="#000000" points="183.78,114.772 179.95,118.642 189.6,120.512 
	185.77,124.392 "/>
<polygon fill-rule="evenodd" clip-rule="evenodd" stroke="#000000" points="220.41,141.322 218.36,146.372 227.98,144.382 
	225.94,149.432 "/>
<polygon fill-rule="evenodd" clip-rule="evenodd" stroke="#000000" points="262.89,151.353 262.89,156.802 271.06,151.353 
	271.06,156.802 "/>
<polygon fill-rule="evenodd" clip-rule="evenodd" stroke="#000000" points="306.73,145.952 308.69,151.042 314.36,143.012 
	316.32,148.103 "/>
<polygon fill-rule="evenodd" clip-rule="evenodd" stroke="#000000" points="346.81,122.322 349.871,126.822 353.581,117.731 
	356.64,122.242 "/>
<polygon fill-rule="evenodd" clip-rule="evenodd" stroke="#000000" points="395.59,95.762 396.781,101.082 403.56,93.973 
	404.76,99.292 "/>
<polygon fill-rule="evenodd" clip-rule="evenodd" stroke="#000000" points="450.6,88.812 450.201,94.242 458.75,89.412 
	458.35,94.853 "/>
<g>
	<path d="M22.904,19.426h2.988l-0.093,0.677h-2.239L23.25,22.31h0.025c0.24-0.215,0.603-0.413,1.108-0.413
		c1,0,1.811,0.806,1.811,2.261c0,1.498-0.745,2.304-2.054,2.304c-1.209,0-1.81-0.733-1.999-1.669l0.884-0.074
		c0.13,0.625,0.412,1.136,1.094,1.136c0.7,0,1.175-0.505,1.175-1.655c0-1.054-0.478-1.682-1.151-1.682
		c-0.473,0-0.772,0.262-0.973,0.63l-0.775-0.11L22.904,19.426z"/>
	<path d="M28.229,25.236v1.106H27.38v-1.106H28.229z"/>
	<path d="M29.167,22.872c0-2.501,0.805-3.576,2.234-3.576c1.438,0,2.237,1.091,2.237,3.586c0,2.544-0.779,3.591-2.237,3.591
		c-1.392,0-2.234-0.975-2.234-3.591V22.872z M31.391,19.925c-0.728,0-1.325,0.901-1.325,2.96c0,2.271,0.572,2.959,1.335,2.959
		c0.777,0,1.338-0.71,1.338-2.959c0-2.043-0.595-2.96-1.338-2.96H31.391z"/>
</g>
<g>
	<path d="M81.024,31.807h2.988l-0.093,0.677h-2.239L81.37,34.69h0.025c0.24-0.215,0.603-0.413,1.108-0.413
		c1,0,1.811,0.806,1.811,2.261c0,1.498-0.745,2.304-2.054,2.304c-1.209,0-1.81-0.733-1.999-1.669l0.884-0.074
		c0.13,0.625,0.412,1.136,1.094,1.136c0.7,0,1.175-0.505,1.175-1.655c0-1.054-0.478-1.682-1.151-1.682
		c-0.473,0-0.772,0.263-0.973,0.63l-0.775-0.11L81.024,31.807z"/>
	<path d="M86.349,37.617v1.106H85.5v-1.106H86.349z"/>
	<path d="M87.288,35.252c0-2.501,0.805-3.576,2.234-3.576c1.438,0,2.237,1.092,2.237,3.586c0,2.544-0.779,3.591-2.237,3.591
		c-1.392,0-2.234-0.974-2.234-3.591V35.252z M89.511,32.306c-0.728,0-1.325,0.901-1.325,2.96c0,2.271,0.572,2.959,1.335,2.959
		c0.777,0,1.338-0.71,1.338-2.959c0-2.043-0.595-2.96-1.338-2.96H89.511z"/>
</g>
<g>
	<path d="M130.904,59.557h2.988l-0.093,0.677h-2.239l-0.311,2.207h0.025c0.24-0.215,0.603-0.413,1.108-0.413
		c1,0,1.811,0.806,1.811,2.261c0,1.498-0.745,2.304-2.054,2.304c-1.209,0-1.81-0.733-1.999-1.669l0.884-0.074
		c0.13,0.625,0.412,1.136,1.094,1.136c0.7,0,1.175-0.505,1.175-1.655c0-1.054-0.478-1.682-1.151-1.682
		c-0.473,0-0.772,0.263-0.973,0.63l-0.775-0.11L130.904,59.557z"/>
	<path d="M136.229,65.367v1.106h-0.848v-1.106H136.229z"/>
	<path d="M137.167,63.002c0-2.501,0.805-3.576,2.234-3.576c1.438,0,2.237,1.092,2.237,3.586c0,2.544-0.779,3.591-2.237,3.591
		c-1.392,0-2.234-0.974-2.234-3.591V63.002z M139.391,60.056c-0.728,0-1.325,0.901-1.325,2.96c0,2.271,0.572,2.959,1.335,2.959
		c0.777,0,1.338-0.71,1.338-2.959c0-2.043-0.595-2.96-1.338-2.96H139.391z"/>
</g>
<g>
	<path d="M168.024,94.807h2.988l-0.093,0.677h-2.239l-0.311,2.207h0.025c0.24-0.215,0.603-0.413,1.108-0.413
		c1,0,1.811,0.806,1.811,2.261c0,1.499-0.745,2.305-2.054,2.305c-1.209,0-1.81-0.732-1.999-1.669l0.884-0.074
		c0.13,0.625,0.412,1.137,1.094,1.137c0.7,0,1.175-0.505,1.175-1.655c0-1.054-0.478-1.682-1.151-1.682
		c-0.473,0-0.772,0.263-0.973,0.63l-0.775-0.11L168.024,94.807z"/>
	<path d="M173.349,100.616v1.106H172.5v-1.106H173.349z"/>
	<path d="M174.288,98.253c0-2.502,0.805-3.576,2.234-3.576c1.438,0,2.237,1.092,2.237,3.586c0,2.544-0.779,3.591-2.237,3.591
		c-1.392,0-2.234-0.974-2.234-3.591V98.253z M176.511,95.306c-0.728,0-1.325,0.901-1.325,2.96c0,2.271,0.572,2.959,1.335,2.959
		c0.777,0,1.338-0.71,1.338-2.959c0-2.043-0.595-2.96-1.338-2.96H176.511z"/>
</g>
<g>
	<path d="M202.154,125.176h2.988l-0.093,0.677h-2.239l-0.311,2.207h0.025c0.24-0.215,0.603-0.413,1.108-0.413
		c1,0,1.811,0.806,1.811,2.261c0,1.498-0.745,2.305-2.054,2.305c-1.209,0-1.81-0.732-1.999-1.669l0.884-0.074
		c0.13,0.625,0.412,1.137,1.094,1.137c0.7,0,1.175-0.505,1.175-1.655c0-1.054-0.478-1.682-1.151-1.682
		c-0.473,0-0.772,0.263-0.973,0.63l-0.775-0.11L202.154,125.176z"/>
	<path d="M207.479,130.985v1.106h-0.848v-1.106H207.479z"/>
	<path d="M208.417,128.622c0-2.502,0.805-3.576,2.234-3.576c1.438,0,2.237,1.092,2.237,3.586c0,2.544-0.779,3.591-2.237,3.591
		c-1.392,0-2.234-0.974-2.234-3.591V128.622z M210.641,125.675c-0.728,0-1.325,0.901-1.325,2.96c0,2.271,0.572,2.959,1.335,2.959
		c0.777,0,1.338-0.71,1.338-2.959c0-2.043-0.595-2.96-1.338-2.96H210.641z"/>
</g>
<g>
	<path d="M238.904,141.307h2.988l-0.093,0.677h-2.239l-0.311,2.207h0.025c0.24-0.215,0.603-0.413,1.108-0.413
		c1,0,1.811,0.806,1.811,2.261c0,1.499-0.745,2.305-2.054,2.305c-1.209,0-1.81-0.732-1.999-1.669l0.884-0.074
		c0.13,0.625,0.412,1.137,1.094,1.137c0.7,0,1.175-0.505,1.175-1.655c0-1.054-0.478-1.682-1.151-1.682
		c-0.473,0-0.772,0.263-0.973,0.63l-0.775-0.11L238.904,141.307z"/>
	<path d="M244.229,147.116v1.106h-0.848v-1.106H244.229z"/>
	<path d="M245.167,144.753c0-2.502,0.805-3.576,2.234-3.576c1.438,0,2.237,1.092,2.237,3.586c0,2.544-0.779,3.591-2.237,3.591
		c-1.392,0-2.234-0.974-2.234-3.591V144.753z M247.391,141.806c-0.728,0-1.325,0.901-1.325,2.96c0,2.271,0.572,2.959,1.335,2.959
		c0.777,0,1.338-0.71,1.338-2.959c0-2.043-0.595-2.96-1.338-2.96H247.391z"/>
</g>
<g>
	<path d="M281.274,143.176h2.988l-0.093,0.677h-2.239l-0.311,2.207h0.025c0.24-0.215,0.603-0.413,1.108-0.413
		c1,0,1.811,0.806,1.811,2.261c0,1.498-0.745,2.305-2.054,2.305c-1.209,0-1.81-0.732-1.999-1.669l0.884-0.074
		c0.13,0.625,0.412,1.137,1.094,1.137c0.7,0,1.175-0.505,1.175-1.655c0-1.054-0.478-1.682-1.151-1.682
		c-0.473,0-0.772,0.263-0.973,0.63l-0.775-0.11L281.274,143.176z"/>
	<path d="M286.599,148.985v1.106h-0.848v-1.106H286.599z"/>
	<path d="M287.538,146.622c0-2.502,0.805-3.576,2.234-3.576c1.438,0,2.237,1.092,2.237,3.586c0,2.544-0.779,3.591-2.237,3.591
		c-1.392,0-2.234-0.974-2.234-3.591V146.622z M289.761,143.675c-0.728,0-1.325,0.901-1.325,2.96c0,2.271,0.572,2.959,1.335,2.959
		c0.777,0,1.338-0.71,1.338-2.959c0-2.043-0.595-2.96-1.338-2.96H289.761z"/>
</g>
<g>
	<path d="M322.524,126.307h2.988l-0.093,0.677h-2.239l-0.311,2.207h0.025c0.24-0.215,0.603-0.413,1.108-0.413
		c1,0,1.811,0.806,1.811,2.261c0,1.499-0.745,2.305-2.054,2.305c-1.209,0-1.81-0.732-1.999-1.669l0.884-0.074
		c0.13,0.625,0.412,1.137,1.094,1.137c0.7,0,1.175-0.505,1.175-1.655c0-1.054-0.478-1.682-1.151-1.682
		c-0.473,0-0.772,0.263-0.973,0.63l-0.775-0.11L322.524,126.307z"/>
	<path d="M327.849,132.116v1.106H327v-1.106H327.849z"/>
	<path d="M328.788,129.753c0-2.502,0.805-3.576,2.234-3.576c1.438,0,2.237,1.092,2.237,3.586c0,2.544-0.779,3.591-2.237,3.591
		c-1.392,0-2.234-0.974-2.234-3.591V129.753z M331.011,126.806c-0.728,0-1.325,0.901-1.325,2.96c0,2.271,0.572,2.959,1.335,2.959
		c0.777,0,1.338-0.71,1.338-2.959c0-2.043-0.595-2.96-1.338-2.96H331.011z"/>
</g>
<g>
	<path d="M364.155,98.557h2.988l-0.094,0.677h-2.238l-0.311,2.207h0.024c0.24-0.215,0.604-0.413,1.109-0.413
		c1,0,1.811,0.806,1.811,2.261c0,1.499-0.745,2.305-2.054,2.305c-1.21,0-1.811-0.732-1.999-1.669l0.883-0.074
		c0.13,0.625,0.413,1.137,1.095,1.137c0.699,0,1.175-0.505,1.175-1.655c0-1.054-0.477-1.682-1.15-1.682
		c-0.473,0-0.772,0.263-0.973,0.63l-0.775-0.11L364.155,98.557z"/>
	<path d="M369.478,104.366v1.106h-0.848v-1.106H369.478z"/>
	<path d="M370.417,102.003c0-2.502,0.805-3.576,2.233-3.576c1.439,0,2.237,1.092,2.237,3.586c0,2.544-0.779,3.591-2.237,3.591
		c-1.391,0-2.233-0.974-2.233-3.591V102.003z M372.641,99.056c-0.728,0-1.324,0.901-1.324,2.96c0,2.271,0.571,2.959,1.334,2.959
		c0.778,0,1.338-0.71,1.338-2.959c0-2.043-0.595-2.96-1.338-2.96H372.641z"/>
</g>
<g>
	<path d="M420.405,83.176h2.988l-0.094,0.677h-2.238l-0.311,2.207h0.024c0.24-0.215,0.604-0.413,1.109-0.413
		c1,0,1.811,0.806,1.811,2.261c0,1.498-0.745,2.305-2.054,2.305c-1.21,0-1.811-0.732-1.999-1.669l0.883-0.074
		c0.13,0.625,0.413,1.137,1.095,1.137c0.699,0,1.175-0.505,1.175-1.655c0-1.054-0.477-1.682-1.15-1.682
		c-0.473,0-0.772,0.262-0.973,0.63l-0.775-0.11L420.405,83.176z"/>
	<path d="M425.728,88.985v1.106h-0.848v-1.106H425.728z"/>
	<path d="M426.667,86.622c0-2.501,0.805-3.576,2.233-3.576c1.439,0,2.237,1.091,2.237,3.586c0,2.544-0.779,3.591-2.237,3.591
		c-1.391,0-2.233-0.974-2.233-3.591V86.622z M428.891,83.675c-0.728,0-1.324,0.901-1.324,2.96c0,2.271,0.571,2.959,1.334,2.959
		c0.778,0,1.338-0.71,1.338-2.959c0-2.043-0.595-2.96-1.338-2.96H428.891z"/>
</g>
<g>
	<path fill="#7D7D7D" d="M480.404,86.176h2.989l-0.094,0.677h-2.238l-0.311,2.207h0.024c0.24-0.215,0.604-0.413,1.109-0.413
		c1,0,1.811,0.806,1.811,2.261c0,1.498-0.745,2.305-2.055,2.305c-1.209,0-1.81-0.732-1.998-1.669l0.883-0.074
		c0.13,0.625,0.413,1.137,1.095,1.137c0.699,0,1.175-0.505,1.175-1.655c0-1.054-0.477-1.682-1.15-1.682
		c-0.473,0-0.772,0.263-0.973,0.63l-0.775-0.11L480.404,86.176z"/>
	<path fill="#7D7D7D" d="M485.728,91.985v1.106h-0.848v-1.106H485.728z"/>
	<path fill="#7D7D7D" d="M486.667,89.622c0-2.502,0.805-3.576,2.233-3.576c1.439,0,2.237,1.092,2.237,3.586
		c0,2.544-0.779,3.591-2.237,3.591c-1.391,0-2.233-0.974-2.233-3.591V89.622z M488.891,86.675c-0.728,0-1.324,0.901-1.324,2.96
		c0,2.271,0.571,2.959,1.334,2.959c0.778,0,1.338-0.71,1.338-2.959c0-2.043-0.595-2.96-1.338-2.96H488.891z"/>
</g>
<g>
	<path fill="#E3E3E3" d="M528.785,106.426h2.988l-0.094,0.677h-2.238l-0.311,2.207h0.025c0.239-0.215,0.603-0.413,1.108-0.413
		c1,0,1.811,0.806,1.811,2.261c0,1.498-0.745,2.305-2.054,2.305c-1.21,0-1.811-0.732-2-1.669l0.885-0.074
		c0.129,0.625,0.412,1.137,1.094,1.137c0.699,0,1.176-0.505,1.176-1.655c0-1.054-0.478-1.682-1.151-1.682
		c-0.473,0-0.772,0.263-0.973,0.63l-0.775-0.11L528.785,106.426z"/>
	<path fill="#E3E3E3" d="M534.108,112.235v1.106h-0.848v-1.106H534.108z"/>
	<path fill="#E3E3E3" d="M535.047,109.872c0-2.502,0.805-3.576,2.233-3.576c1.439,0,2.237,1.092,2.237,3.586
		c0,2.544-0.779,3.591-2.237,3.591c-1.391,0-2.233-0.974-2.233-3.591V109.872z M537.271,106.925c-0.728,0-1.324,0.901-1.324,2.96
		c0,2.271,0.571,2.959,1.334,2.959c0.778,0,1.338-0.71,1.338-2.959c0-2.043-0.595-2.96-1.338-2.96H537.271z"/>
</g>
</svg>
