<?xml version="1.0" encoding="utf-8"?>
<!-- Generator: Adobe Illustrator 25.0.0, SVG Export Plug-In . SVG Version: 6.00 Build 0)  -->
<svg version="1.1" id="Layer_1" xmlns="http://www.w3.org/2000/svg" xmlns:xlink="http://www.w3.org/1999/xlink" x="0px" y="0px"
	 viewBox="0 0 147.2 116.7" style="enable-background:new 0 0 147.2 116.7;" xml:space="preserve">
<style type="text/css">
	.st0{fill:#803030;stroke:#803030;stroke-miterlimit:10;}
	.st1{fill:#803030;fill-opacity:0;stroke:#803030;stroke-width:0.24;}
</style>
<path class="st0" d="M116.5,115.4c0,0.3-0.1,0.6-0.3,0.8c-0.2,0.2-0.5,0.4-0.8,0.4H1.2c-0.5,0.1-1.2-0.6-1.1-1.1V1.2
	c0-0.5,0.6-1.1,1.1-1.1h114.2c0.3,0,0.6,0.1,0.8,0.4c0.2,0.2,0.3,0.5,0.3,0.8l-0.4,5.1l-0.5,6.3l-0.4,6.3l-0.4,6.3l-0.3,6.3
	l-0.2,6.3l-0.2,6.3c-0.1,2.5,2.2,3.8,4.3,3.7c2.1-0.1,4.1-1.5,6-2.7c2-1.2,4-2.1,6.1-2.6s4.5-0.6,6.6,0s4,2,5.5,3.6s2.7,3.6,3.4,5.7
	c0.8,2.1,1.1,4.3,1.1,6.5s-0.4,4.4-1.1,6.5c-0.8,2.1-1.9,4-3.4,5.7c-1.5,1.6-3.4,3-5.5,3.6s-4.4,0.5-6.6,0c-2.1-0.5-4.1-1.5-6.1-2.6
	c-2-1.2-3.9-2.6-6-2.7s-4.3,1.2-4.3,3.7C114.4,86.9,115.2,101.2,116.5,115.4z M22.4,46.7c-0.4,2.1-0.6,2.6-1.1,2.9s-1.1,0.2-2.4-0.1
	l-5.1-1.2c-1.9-0.3-3.8-0.4-5.2-0.2c-1.4,0.3-2.3,0.9-3,1.7s-1,1.9-1.3,3.5S3.9,57,3.9,58.5s0.2,2.3,0.6,2.7s1,0.5,2.3,0.2
	c1.2-0.3,3.1-0.8,5.7-1s5.8,0.1,9,0.9c3.2,0.8,6.3,2.3,9,4.3c2.8,2,5.2,4.7,7.2,7.4c2,2.7,3.6,5.5,4.6,7.1s1.4,2.1,1.7,1.9
	s0.5-1,0.7-1.9c0.1-1,0.2-2.1-0.1-3.9s-0.8-4.3-1.5-6.3s-1.6-3.6-2.3-4.7s-1.1-1.9-1.1-2.4s0.4-0.7,2.4-1.5s5.5-2.1,9.1-3.7
	c3.6-1.6,7.2-3.5,9.5-5.1s3.1-2.8,3.3-4.3c0.2-1.5-0.2-3.3-0.7-5c-0.6-1.7-1.3-3.3-2.5-5.5s-2.9-5-4.7-7.4s-3.8-4.5-5.1-5.7
	c-1.3-1.2-1.9-1.4-2.4-1.3c-0.4,0.1-0.6,0.5-0.8,2.2l-0.7,7.2c-0.3,2.7-0.9,5.3-2,8.2s-2.8,6.2-4.6,9.2s-3.7,5.6-4.9,6.8
	s-1.6,0.8-2.2,0.3l-2.2-1.8c-0.7-0.6-1.2-1-1.3-1.4c-0.1-0.4,0.2-0.7,1.3-2.1c1-1.4,2.8-3.8,4.4-6.8c1.6-3,3-6.6,3.7-10.6
	c0.7-3.9,0.6-8.2,0.4-10.8c-0.2-2.6-0.6-3.6-1.4-4.1c-0.8-0.6-2.2-0.8-4.5-0.6c-2.4,0.2-5.8,0.8-8.3,1.5c-2.6,0.7-4.2,1.4-5.3,1.9
	c-1.1,0.5-1.5,0.8-1.6,1.3s0.1,1,0.7,2s1.6,2.5,2.5,4.4c0.9,2,1.6,4.5,1.7,7.6C23.5,40.7,22.8,44.5,22.4,46.7z M63.5,52.6
	c-1,0.8-2.6,2.1-4.7,3.2c-2.1,1.2-4.8,2.3-7,3.4c-2.2,1-3.9,2-4.6,3.3c-0.8,1.3-0.7,3,0.2,3.9s2.6,1.1,4.1,1.2s2.7,0,3.8,0.4
	s2.2,1.3,3.5,2.4s2.9,2.3,4.3,2.6c1.3,0.3,2.4-0.4,3.5-0.9c1.1-0.6,2.4-1.1,4.1-1c1.7,0,3.9,0.6,6.1,1.7c2.2,1.2,4.3,2.9,5.5,4
	c1.1,1.1,1.3,1.5,1.1,1.7c-0.1,0.2-0.5,0.1-1.4-0.6s-2.3-2.1-4.2-3.2c-1.9-1.1-4.2-1.9-6.5-1.8c-2.2,0.1-4.4,1-5.7,2.5
	c-1.3,1.6-1.9,3.8-2.5,5.4s-1.3,2.5-2.2,2.9c-0.9,0.3-2,0.1-3.3-0.5l-4-2c-1.2-0.6-2.2-1-2.9-1.6c-0.6-0.6-0.9-1.4-0.9-2.6l0.2-3.9
	c0.1-1.2,0.1-1.9-0.2-2.6s-0.8-1.3-1.1-1.6c-0.3-0.3-0.5-0.3-0.5-0.3v0.7c0.1,0.5,0.3,1.2,0.2,2.7l-0.7,5.4
	c-0.3,1.7-0.5,2.9-0.1,3.7c0.4,0.9,1.4,1.5,3.3,2.5l7,4c2.5,1.5,4.8,3.1,7.2,5l6.9,5.7c1.8,1.6,2.7,2.5,3.4,2.7
	c0.7,0.3,1.2-0.1,1.4-0.6c0.2-0.6,0.1-1.3-0.1-2s-0.4-1.2-1.1-2.1s-1.8-2.1-3.1-3.3L69,90.1c-0.9-0.7-1.1-1.1-1-1.2s0.7,0,1.4,0.5
	l2.8,2.1c1.1,0.8,2.3,1.6,3.4,2.7s2,2.3,2.7,3.3c0.6,0.9,1,1.5,1.4,1.7s0.8,0.1,1.3-0.2l2-1.6c0.8-0.8,1.8-1.8,2.6-2.9
	c0.7-1.1,1.1-2.3,1.4-3.6c0.3-1.3,0.4-2.6,1.1-4c0.8-1.3,2.2-2.7,4.6-4.7l8.8-7.7c3-2.8,5.6-5.4,7.8-8.3c2.2-2.9,4-6.2,4.9-8.1
	s0.9-2.3,0.6-2.4c-0.3-0.1-0.9,0.1-2.8,1.4l-8.7,6.6c-3.6,2.7-7.6,5.5-10.8,7.3c-3.2,1.7-5.5,2.4-7.2,2.6s-2.7-0.2-3.3-0.5
	c-0.7-0.4-1-0.7-1-1.1c-0.1-0.4,0.1-0.8,0.6-1.3l2.1-1.8c0.8-0.7,1.6-1.6,2.2-2.6s1-1.9,1.2-2.7s0.2-1.5-0.2-1.7
	c-0.3-0.2-1,0.1-1.7,0.5l-2.7,1.4c-1.2,0.5-2.6,1-4.3,1.1c-1.6,0.1-3.5-0.2-5-1.4c-1.6-1.2-2.9-3.3-4-5.3s-1.8-4-2.4-5.2
	s-0.8-1.6-1.2-1.5C65,51.3,64.5,51.7,63.5,52.6z M55.9,70.1c-0.9-0.2-1.5,0.1-2,0.5c-0.4,0.4-0.7,0.9-0.2,1.6
	c0.5,0.6,1.8,1.4,2.9,2.2c1.2,0.8,2.2,1.7,3.1,1.9c0.9,0.3,1.5,0,1.9-0.4c0.4-0.5,0.5-1.1,0-1.9s-1.5-1.5-2.6-2.2
	C57.9,71,56.8,70.3,55.9,70.1z"/>
<path class="st1" d="M22.4,46.7c0.4-2.1,1.2-5.9,1.1-9.1c0-3.1-0.8-5.7-1.7-7.6c-0.9-2-1.9-3.4-2.5-4.4s-0.8-1.6-0.7-2
	s0.6-0.7,1.6-1.3c1.1-0.5,2.8-1.3,5.3-1.9c2.6-0.7,6-1.3,8.3-1.5c2.4-0.2,3.7,0,4.5,0.6s1.2,1.5,1.4,4.1s0.2,6.9-0.4,10.8
	c-0.7,3.9-2.1,7.5-3.7,10.6c-1.6,3-3.4,5.5-4.4,6.8c-1,1.4-1.3,1.7-1.3,2.1c0.1,0.4,0.6,0.8,1.3,1.4l2.2,1.8c0.7,0.5,1,0.9,2.2-0.3
	s3.1-3.8,4.9-6.8c1.8-3,3.5-6.2,4.6-9.2c1.1-2.9,1.6-5.5,2-8.2l0.7-7.2c0.2-1.6,0.4-2.1,0.8-2.2c0.4-0.1,1.1,0.2,2.4,1.3
	c1.3,1.2,3.3,3.3,5.1,5.7s3.5,5.2,4.7,7.4s1.9,3.8,2.5,5.5s1,3.5,0.7,5c-0.2,1.5-1.1,2.8-3.3,4.3s-5.9,3.5-9.5,5.1s-7.1,3-9.1,3.7
	c-2,0.8-2.4,1-2.4,1.5s0.5,1.2,1.1,2.4c0.7,1.1,1.6,2.7,2.3,4.7s1.2,4.5,1.5,6.3s0.2,3,0.1,3.9c-0.1,1-0.4,1.8-0.7,1.9
	c-0.3,0.2-0.7-0.3-1.7-1.9s-2.6-4.4-4.6-7.1s-4.5-5.3-7.2-7.4c-2.8-2-5.9-3.5-9-4.3c-3.2-0.8-6.4-1.1-9-0.9c-2.6,0.2-4.4,0.7-5.7,1
	c-1.2,0.3-1.9,0.2-2.3-0.2s-0.6-1.2-0.6-2.7s0.1-3.6,0.4-5.2c0.3-1.6,0.7-2.6,1.3-3.5c0.7-0.8,1.6-1.4,3-1.7s3.3-0.2,5.2,0.2
	l5.1,1.2c1.3,0.3,2,0.3,2.4,0.1S21.9,48.8,22.4,46.7z"/>
<path class="st1" d="M116.5,115.4c0,0.3-0.1,0.6-0.3,0.8c-0.2,0.2-0.5,0.4-0.8,0.4H1.2c-0.5,0.1-1.2-0.6-1.1-1.1V1.2
	c0-0.5,0.6-1.1,1.1-1.1h114.2c0.3,0,0.6,0.1,0.8,0.4c0.2,0.2,0.3,0.5,0.3,0.8l-0.4,5.1l-0.5,6.3l-0.4,6.3l-0.4,6.3l-0.3,6.3
	l-0.2,6.3l-0.2,6.3c-0.1,2.5,2.2,3.8,4.3,3.7c2.1-0.1,4.1-1.5,6-2.7c2-1.2,4-2.1,6.1-2.6s4.5-0.6,6.6,0s4,2,5.5,3.6s2.7,3.6,3.4,5.7
	c0.8,2.1,1.1,4.3,1.1,6.5s-0.4,4.4-1.1,6.5c-0.8,2.1-1.9,4-3.4,5.7c-1.5,1.6-3.4,3-5.5,3.6s-4.4,0.5-6.6,0c-2.1-0.5-4.1-1.5-6.1-2.6
	c-2-1.2-3.9-2.6-6-2.7s-4.3,1.2-4.3,3.7C114.4,86.9,115.2,101.2,116.5,115.4z"/>
<path class="st1" d="M63.5,52.6c1-0.8,1.5-1.3,1.9-1.4c0.4,0,0.7,0.3,1.2,1.5s1.3,3.2,2.4,5.2s2.4,4.1,4,5.3c1.6,1.2,3.4,1.5,5,1.4
	s3.1-0.6,4.3-1.1l2.7-1.4c0.7-0.4,1.4-0.7,1.7-0.5c0.3,0.2,0.4,0.9,0.2,1.7c-0.2,0.8-0.6,1.8-1.2,2.7s-1.4,1.8-2.2,2.6l-2.1,1.8
	c-0.5,0.5-0.7,0.9-0.6,1.3s0.4,0.8,1,1.1c0.7,0.4,1.7,0.7,3.3,0.5c1.7-0.2,4-0.9,7.2-2.6s7.2-4.6,10.8-7.3L112,57
	c1.9-1.4,2.5-1.6,2.8-1.4c0.3,0.1,0.3,0.6-0.6,2.4s-2.7,5.1-4.9,8.1c-2.2,2.9-4.8,5.6-7.8,8.3l-8.8,7.7c-2.4,2.1-3.8,3.4-4.6,4.7
	c-0.8,1.3-0.9,2.7-1.1,4c-0.3,1.3-0.7,2.5-1.4,3.6c-0.7,1.1-1.7,2.1-2.6,2.9L81,99c-0.5,0.3-0.9,0.5-1.3,0.2
	c-0.4-0.2-0.7-0.8-1.4-1.7c-0.7-0.9-1.6-2.2-2.7-3.3c-1.1-1.1-2.3-1.9-3.4-2.7l-2.8-2.1c-0.7-0.5-1.3-0.6-1.4-0.5s0.1,0.5,1,1.2
	l3.7,2.8c1.3,1.1,2.5,2.4,3.1,3.3c0.7,0.9,0.9,1.5,1.1,2.1c0.2,0.7,0.3,1.4,0.1,2c-0.2,0.6-0.7,0.9-1.4,0.6
	c-0.7-0.3-1.6-1.2-3.4-2.7l-6.9-5.7c-2.5-1.9-4.7-3.5-7.2-5l-7-4c-1.9-1-2.9-1.6-3.3-2.5c-0.4-0.9-0.2-2,0.1-3.7l0.7-5.4
	c0.1-1.5-0.1-2.2-0.2-2.7v-0.7c0.1-0.1,0.2-0.1,0.5,0.3c0.3,0.3,0.8,0.9,1.1,1.6s0.3,1.4,0.2,2.6L50,76.9c0,1.2,0.3,2,0.9,2.6
	c0.6,0.6,1.6,1,2.9,1.6l4,2c1.3,0.6,2.4,0.8,3.3,0.5c0.9-0.3,1.6-1.3,2.2-2.9c0.6-1.6,1.2-3.8,2.5-5.4s3.5-2.5,5.7-2.5
	c2.2-0.1,4.6,0.7,6.5,1.8c1.9,1.1,3.3,2.5,4.2,3.2c0.9,0.7,1.3,0.8,1.4,0.6c0.1-0.2,0-0.6-1.1-1.7s-3.3-2.9-5.5-4
	c-2.2-1.2-4.4-1.7-6.1-1.7s-3,0.5-4.1,1c-1.1,0.6-2.2,1.2-3.5,0.9c-1.3-0.3-2.9-1.5-4.3-2.6c-1.3-1.1-2.4-2-3.5-2.4
	s-2.4-0.3-3.8-0.4c-1.5-0.1-3.2-0.3-4.1-1.2c-0.9-0.9-1-2.6-0.2-3.9c0.8-1.3,2.5-2.2,4.6-3.3c2.2-1,4.9-2.2,7-3.4
	C60.9,54.6,62.5,53.4,63.5,52.6z"/>
<path class="st1" d="M55.9,70.1c0.9,0.2,2.1,0.9,3.2,1.6c1.1,0.7,2.1,1.5,2.6,2.2s0.4,1.4,0,1.9s-1,0.7-1.9,0.4
	c-0.9-0.3-1.9-1.1-3.1-1.9c-1.2-0.8-2.4-1.5-2.9-2.2c-0.5-0.6-0.3-1.2,0.2-1.6C54.4,70.2,55,69.9,55.9,70.1z"/>
</svg>
