<?xml version="1.0" encoding="UTF-8" standalone="no"?>
<!DOCTYPE svg PUBLIC "-//W3C//DTD SVG 1.1//EN" "http://www.w3.org/Graphics/SVG/1.1/DTD/svg11.dtd">
<svg width="100%" height="100%" viewBox="0 0 648 144" version="1.1" xmlns="http://www.w3.org/2000/svg">
  <path d="M90.74715,112.2326 C92.07998,110.2391 94.00517,109.2423 96.52273,109.2423 C97.61633,109.2423 98.6188,109.4417 99.53013,109.8404 C100.4529,110.2277 101.1421,110.7403 101.5977,111.3783 C102.0534,112.0162 102.3723,112.7737 102.5546,113.6509 C102.6685,114.2205 102.7255,115.2173 102.7255,116.6412 L102.7255,127.7993 L99.64974,127.7993 L99.64974,116.7608 C99.64974,115.5077 99.53013,114.5736 99.2909,113.9585 C99.05168,113.3319 98.62449,112.8364 98.00934,112.4719 C97.40559,112.0959 96.6936,111.908 95.87341,111.908 C94.56336,111.908 93.42989,112.3238 92.47299,113.1554 C91.52748,113.987 91.05473,115.5647 91.05473,117.8886 L91.05473,127.7993 L87.97898,127.7993 L87.97898,109.6524 L90.74715,109.6524 z" stroke="Black" stroke-width="0" fill="#515151" fill-opacity="1.0" />
  <path d="M154.8936,118.7259 C154.8936,115.3653 155.8277,112.8763 157.696,111.2587 C159.2566,109.9144 161.159,109.2423 163.4032,109.2423 C165.8979,109.2423 167.9371,110.0625 169.5205,111.7029 C171.1039,113.3319 171.8957,115.5875 171.8957,118.4696 C171.8957,120.8049 171.5425,122.6446 170.8362,123.9888 C170.1414,125.3217 169.1218,126.3583 167.7776,127.0988 C166.4448,127.8392 164.9866,128.2094 163.4032,128.2094 C160.8628,128.2094 158.8066,127.3949 157.2346,125.7659 C155.6739,124.1369 154.8936,121.7902 154.8936,118.7259 z M158.0548,118.7259 C158.0548,121.0498 158.5617,122.7927 159.5756,123.9547 C160.5894,125.1052 161.8653,125.6805 163.4032,125.6805 C164.9297,125.6805 166.1998,125.0995 167.2137,123.9376 C168.2276,122.7756 168.7345,121.0042 168.7345,118.6234 C168.7345,116.3792 168.2219,114.6818 167.1966,113.5313 C166.1828,112.3693 164.9183,111.7884 163.4032,111.7884 C161.8653,111.7884 160.5894,112.3636 159.5756,113.5142 C158.5617,114.6648 158.0548,116.402 158.0548,118.7259 z" stroke="Black" stroke-width="0" fill="#515151" fill-opacity="1.0" />
  <path d="M60.7586,106.2862 L60.7586,102.7491 L63.83435,102.7491 L63.83435,106.2862 z" stroke="Black" stroke-width="0" fill="#515151" fill-opacity="1.0" />
  <path d="M67.95244,129.303 L70.94275,129.7473 C71.06805,130.67 71.4155,131.3421 71.98508,131.7636 C72.74833,132.3332 73.79066,132.618 75.1121,132.618 C76.53606,132.618 77.63535,132.3332 78.40998,131.7636 C79.18462,131.1941 79.70863,130.3967 79.98203,129.3714 C80.14152,128.7449 80.21556,127.4291 80.20417,125.4242 C78.85995,127.0076 77.18538,127.7993 75.18045,127.7993 C72.68568,127.7993 70.75478,126.8994 69.38779,125.0995 C68.02079,123.2996 67.33729,121.1409 67.33729,118.6234 C67.33729,116.8918 67.65056,115.297 68.2771,113.8389 C68.90364,112.3693 69.80928,111.2359 70.99401,110.4385 C72.19014,109.641 73.59131,109.2423 75.19753,109.2423 C77.33916,109.2423 79.10487,110.1081 80.49466,111.8396 L80.49466,109.6524 L83.33118,109.6524 L83.33118,125.3387 C83.33118,128.1639 83.0407,130.1631 82.45972,131.3365 C81.89014,132.5212 80.97881,133.4553 79.72572,134.1388 C78.48403,134.8223 76.95185,135.1641 75.12919,135.1641 C72.96477,135.1641 71.21615,134.6742 69.88332,133.6945 C68.5505,132.7262 67.90687,131.2624 67.95244,129.303 z M70.49847,118.4012 C70.49847,120.7821 70.97123,122.5193 71.91673,123.6129 C72.86224,124.7065 74.04697,125.2533 75.47093,125.2533 C76.8835,125.2533 78.06824,124.7122 79.02513,123.63 C79.98203,122.5364 80.46049,120.8276 80.46049,118.5037 C80.46049,116.2824 79.96494,114.6078 78.97387,113.48 C77.99419,112.3522 76.80946,111.7884 75.41967,111.7884 C74.05267,111.7884 72.89072,112.3466 71.93382,113.4629 C70.97692,114.5679 70.49847,116.214 70.49847,118.4012 z" stroke="Black" stroke-width="0" fill="#515151" fill-opacity="1.0" />
  <path d="M111.7477,127.7993 C111.7477,129.0866 111.5199,130.1232 111.0642,130.9093 C110.6085,131.7067 109.8851,132.3218 108.8941,132.7547 L108.0397,131.439 C108.689,131.1542 109.1675,130.7327 109.4751,130.1745 C109.7826,129.6277 109.9535,128.836 109.9877,127.7993 L108.2448,127.7993 L108.2448,124.2964 L111.7477,124.2964 z" stroke="Black" stroke-width="0" fill="#515151" fill-opacity="1.0" />
  <path d="M129.6383,112.1985 C130.2079,111.3099 130.9654,110.5979 131.9109,110.0625 C132.8564,109.5157 133.933,109.2423 135.1405,109.2423 C136.4847,109.2423 137.584,109.5214 138.4384,110.0796 C139.3041,110.6378 139.9136,111.4181 140.2667,112.4206 C141.7021,110.3018 143.5703,109.2423 145.8714,109.2423 C147.6713,109.2423 149.0554,109.7436 150.0237,110.746 C150.992,111.7371 151.4761,113.2693 151.4761,115.3426 L151.4761,127.7993 L148.4174,127.7993 L148.4174,116.3678 C148.4174,115.1375 148.3149,114.2547 148.1099,113.7193 C147.9162,113.1724 147.5574,112.7339 147.0334,112.4035 C146.5094,112.0732 145.8942,111.908 145.1879,111.908 C143.912,111.908 142.8526,112.3352 142.0096,113.1895 C141.1667,114.0325 140.7452,115.3881 140.7452,117.2564 L140.7452,127.7993 L137.6694,127.7993 L137.6694,116.009 C137.6694,114.642 137.4188,113.6167 136.9176,112.9332 C136.4163,112.2497 135.5961,111.908 134.457,111.908 C133.5912,111.908 132.7881,112.1358 132.0476,112.5915 C131.3186,113.0471 130.7888,113.7136 130.4585,114.5907 C130.1281,115.4679 129.963,116.7323 129.963,118.3841 L129.963,127.7993 L126.8872,127.7993 L126.8872,109.6524 L129.6383,109.6524 z" stroke="Black" stroke-width="0" fill="#515151" fill-opacity="1.0" />
  <path d="M436.1367,127.7993 L436.1367,102.7491 L439.2124,102.7491 L439.2124,127.7993 z" stroke="Black" stroke-width="0" fill="#515151" fill-opacity="1.0" />
  <path d="M16.09189,127.7993 L16.09189,125.5096 C14.94133,127.3095 13.24967,128.2094 11.01691,128.2094 C9.570165,128.2094 8.23734,127.8107 7.018432,127.0133 C5.810916,126.2159 4.871104,125.1052 4.198996,123.6813 C3.538279,122.2459 3.207921,120.5998 3.207921,118.743 C3.207921,116.9317 3.5098,115.2913 4.113558,113.8218 C4.717316,112.3409 5.622953,111.2074 6.83047,110.4214 C8.037986,109.6353 9.387898,109.2423 10.88021,109.2423 C11.97381,109.2423 12.94779,109.4759 13.80217,109.9429 C14.65654,110.3986 15.35143,110.9966 15.88684,111.7371 L15.88684,102.7491 L18.9455,102.7491 L18.9455,127.7993 z M6.369107,118.743 C6.369107,121.0669 6.858949,122.8041 7.838632,123.9547 C8.818315,125.1052 9.974568,125.6805 11.30739,125.6805 C12.65161,125.6805 13.79078,125.1337 14.72489,124.0401 C15.6704,122.9351 16.14315,121.2548 16.14315,118.9993 C16.14315,116.5159 15.6647,114.6932 14.7078,113.5313 C13.75091,112.3693 12.57187,111.7884 11.17069,111.7884 C9.803694,111.7884 8.658832,112.3466 7.736107,113.4629 C6.824774,114.5793 6.369107,116.3393 6.369107,118.743 z" stroke="Black" stroke-width="0" fill="#515151" fill-opacity="1.0" />
  <path d="M443.8431,134.7881 L443.5014,131.9003 L445.2614,132.1737 C445.9449,132.1737 446.4917,132.0598 446.9018,131.832 C447.3119,131.6042 447.6479,131.2852 447.91,130.8751 L448.8498,128.5854 L449.1232,127.8335 L442.2369,109.6524 L445.5519,109.6524 L449.3282,120.1612 L450.644,124.3648 L451.9084,120.2296 L455.7873,109.6524 L458.863,109.6524 L451.9597,128.1069 C451.2192,130.1005 450.644,131.4732 450.2339,132.225 C449.6871,133.2389 449.0605,133.9793 448.3542,134.4464 C447.6479,134.9248 446.805,135.1641 445.8253,135.1641 C445.2329,135.1641 444.5722,135.0387 443.8431,134.7881 z" stroke="Black" stroke-width="0" fill="#515151" fill-opacity="1.0" />
  <path d="M60.7586,127.7993 L60.7586,109.6524 L63.83435,109.6524 L63.83435,127.7993 z" stroke="Black" stroke-width="0" fill="#515151" fill-opacity="1.0" />
  <path d="M641.2891,127.7993 L641.2891,124.2964 L644.7921,124.2964 L644.7921,127.7993 z" stroke="Black" stroke-width="0" fill="#515151" fill-opacity="1.0" />
  <path d="M42.01362,122.3826 L45.05519,121.9042 C45.22607,123.1231 45.69883,124.0572 46.47346,124.7065 C47.25948,125.3558 48.35308,125.6805 49.75426,125.6805 C51.16682,125.6805 52.21486,125.3957 52.89835,124.8261 C53.58186,124.2451 53.9236,123.5673 53.9236,122.7927 C53.9236,122.0978 53.62173,121.551 53.01797,121.1523 C52.59648,120.8789 51.54844,120.5315 49.87387,120.11 C47.61832,119.5404 46.05196,119.0505 45.17481,118.6404 C44.30904,118.219 43.64832,117.6437 43.19266,116.9146 C42.74838,116.1742 42.52625,115.3596 42.52625,114.4711 C42.52625,113.6623 42.70851,112.9161 43.07304,112.2326 C43.44897,111.5378 43.9559,110.9625 44.59383,110.5068 C45.07228,110.1537 45.72161,109.8575 46.54181,109.6182 C47.3734,109.3676 48.26195,109.2423 49.20745,109.2423 C50.63141,109.2423 51.8788,109.4474 52.94962,109.8575 C54.03183,110.2676 54.82924,110.8258 55.34187,111.5321 C55.85449,112.2269 56.20763,113.1611 56.40129,114.3344 L53.39389,114.7445 C53.25719,113.8104 52.85848,113.0813 52.19777,112.5573 C51.54844,112.0333 50.62572,111.7713 49.42959,111.7713 C48.01703,111.7713 47.00887,112.0048 46.40511,112.4719 C45.80135,112.9389 45.49947,113.4857 45.49947,114.1123 C45.49947,114.511 45.62478,114.8698 45.87539,115.1888 C46.12601,115.5191 46.51902,115.7925 47.05443,116.009 L49.77134,116.795 C51.94715,117.376 53.46224,117.8544 54.31662,118.2303 C55.18238,118.5949 55.86019,119.1303 56.35003,119.8366 C56.83987,120.5429 57.08479,121.42 57.08479,122.468 C57.08479,123.4933 56.78291,124.4616 56.17915,125.3729 C55.58679,126.2729 54.72672,126.9734 53.59894,127.4747 C52.47117,127.9645 51.1953,128.2094 49.77134,128.2094 C47.41327,128.2094 45.61339,127.7196 44.3717,126.7399 C43.1414,125.7602 42.35537,124.3078 42.01362,122.3826 z" stroke="Black" stroke-width="0" fill="#515151" fill-opacity="1.0" />
  <path d="M621.8436,127.7993 L621.8436,124.2964 L625.3465,124.2964 L625.3465,127.7993 z" stroke="Black" stroke-width="0" fill="#515151" fill-opacity="1.0" />
  <path d="M613.9321,121.9554 L617.1104,122.3484 C616.6091,124.2053 615.6807,125.6463 614.3251,126.6716 C612.9695,127.6968 611.2379,128.2094 609.1305,128.2094 C606.4762,128.2094 604.3688,127.3949 602.8081,125.7659 C601.2589,124.1255 600.4842,121.8301 600.4842,118.8797 C600.4842,115.8267 601.2702,113.4572 602.8423,111.7713 C604.4143,110.0853 606.4534,109.2423 608.9596,109.2423 C611.386,109.2423 613.3682,110.0682 614.9061,111.72 C616.4439,113.3718 617.2129,115.6957 617.2129,118.6917 L617.1958,119.5119 L603.6625,119.5119 C603.7764,121.5055 604.3403,123.0319 605.3541,124.0914 C606.368,125.1508 607.6324,125.6805 609.1476,125.6805 C610.2753,125.6805 611.2379,125.3843 612.0353,124.7919 C612.8328,124.1996 613.465,123.2541 613.9321,121.9554 z M603.8334,116.983 L613.9662,116.983 C613.8295,115.4565 613.4422,114.3116 612.8043,113.5484 C611.8246,112.3636 610.5544,111.7713 608.9938,111.7713 C607.5812,111.7713 606.3908,112.244 605.4225,113.1895 C604.4656,114.135 603.9359,115.3995 603.8334,116.983 z" stroke="Black" stroke-width="0" fill="#515151" fill-opacity="1.0" />
  <path d="M593.9397,112.0447 L590.4709,112.1472 L583.072,112.1472 L583.072,109.6524 L597.904,109.6524 L597.904,111.6858 L588.0787,123.2028 L586.1819,125.3046 L590.0609,125.1508 L598.4508,125.1508 L598.4508,127.7993 L582.3885,127.7993 L582.3885,125.3046 z" stroke="Black" stroke-width="0" fill="#515151" fill-opacity="1.0" />
  <path d="M576.2542,127.7993 L576.2542,109.6524 L579.3299,109.6524 L579.3299,127.7993 z" stroke="Black" stroke-width="0" fill="#515151" fill-opacity="1.0" />
  <path d="M576.2542,106.2862 L576.2542,102.7491 L579.3299,102.7491 L579.3299,106.2862 z" stroke="Black" stroke-width="0" fill="#515151" fill-opacity="1.0" />
  <path d="M568.3939,127.7993 L568.3939,102.7491 L571.4697,102.7491 L571.4697,127.7993 z" stroke="Black" stroke-width="0" fill="#515151" fill-opacity="1.0" />
  <path d="M560.8412,125.5609 C559.702,126.5292 558.6028,127.2127 557.5433,127.6114 C556.4953,128.0101 555.3676,128.2094 554.16,128.2094 C552.1664,128.2094 550.6343,127.7253 549.5635,126.757 C548.4927,125.7773 547.9573,124.5299 547.9573,123.0148 C547.9573,122.1263 548.1566,121.3175 548.5553,120.5884 C548.9654,119.848 549.4951,119.2556 550.1445,118.8113 C550.8052,118.3671 551.5456,118.031 552.3658,117.8032 L555.0998,117.3418 C557.5832,117.0456 559.4116,116.6925 560.5849,116.2824 L560.602,115.4793 C560.602,114.2262 560.3115,113.3433 559.7305,112.8307 C558.9445,112.1358 557.7769,111.7884 556.2276,111.7884 C554.7809,111.7884 553.71,112.0447 553.0151,112.5573 C552.3317,113.0585 551.8247,113.9528 551.4944,115.24 L548.4869,114.8299 C548.7604,113.5427 549.2103,112.506 549.8369,111.72 C550.4634,110.9226 551.3691,110.3131 552.5538,109.8917 C553.7385,109.4588 555.1112,109.2423 556.6719,109.2423 C558.2211,109.2423 559.4799,109.4246 560.4482,109.7891 C561.4165,110.1537 562.1285,110.615 562.5842,111.1732 C563.0398,111.72 563.3588,112.4149 563.541,113.2579 L563.6948,116.0944 L563.6948,120.1954 C563.6948,123.0547 563.7575,124.866 563.8828,125.6292 C564.0195,126.3811 564.2815,127.1045 564.6688,127.7993 L561.4564,127.7993 C561.1374,127.1614 560.9324,126.4153 560.8412,125.5609 z M560.5849,118.6917 C559.4685,119.1474 557.7939,119.5347 555.5612,119.8537 C554.2967,120.0359 553.4025,120.241 552.8784,120.4688 C552.3544,120.6966 551.95,121.0327 551.6652,121.477 C551.3804,121.9099 551.238,122.394 551.238,122.9294 C551.238,123.7496 551.5456,124.4331 552.1608,124.9799 C552.7873,125.5267 553.6987,125.8001 554.8948,125.8001 C556.0795,125.8001 557.1332,125.5438 558.056,125.0312 C558.9787,124.5072 559.6565,123.7952 560.0894,122.8952 C560.4197,122.2003 560.5849,121.1751 560.5849,119.8195 z" stroke="Black" stroke-width="0" fill="#515151" fill-opacity="1.0" />
  <path d="M541.9595,121.9554 L545.1378,122.3484 C544.6366,124.2053 543.7081,125.6463 542.3525,126.6716 C540.9969,127.6968 539.2654,128.2094 537.158,128.2094 C534.5037,128.2094 532.3962,127.3949 530.8356,125.7659 C529.2863,124.1255 528.5117,121.8301 528.5117,118.8797 C528.5117,115.8267 529.2977,113.4572 530.8698,111.7713 C532.4418,110.0853 534.4809,109.2423 536.9871,109.2423 C539.4135,109.2423 541.3956,110.0682 542.9335,111.72 C544.4714,113.3718 545.2404,115.6957 545.2404,118.6917 L545.2233,119.5119 L531.6899,119.5119 C531.8039,121.5055 532.3677,123.0319 533.3816,124.0914 C534.3954,125.1508 535.66,125.6805 537.175,125.6805 C538.3028,125.6805 539.2654,125.3843 540.0628,124.7919 C540.8602,124.1996 541.4925,123.2541 541.9595,121.9554 z M531.8608,116.983 L541.9937,116.983 C541.857,115.4565 541.4697,114.3116 540.8318,113.5484 C539.8521,112.3636 538.5819,111.7713 537.0212,111.7713 C535.6087,111.7713 534.4183,112.244 533.45,113.1895 C532.493,114.135 531.9634,115.3995 531.8608,116.983 z" stroke="Black" stroke-width="0" fill="#515151" fill-opacity="1.0" />
  <path d="M520.6172,112.4035 C521.3235,111.1163 521.9728,110.2676 522.5652,109.8575 C523.169,109.4474 523.8297,109.2423 524.5474,109.2423 C525.584,109.2423 526.6378,109.5727 527.7086,110.2334 L526.6492,113.087 C525.8973,112.6427 525.1454,112.4206 524.3936,112.4206 C523.7215,112.4206 523.1177,112.6256 522.5823,113.0358 C522.0469,113.4345 521.6653,113.9927 521.4374,114.7103 C521.0957,115.8039 520.9248,117 520.9248,118.2987 L520.9248,127.7993 L517.8491,127.7993 L517.8491,109.6524 L520.6172,109.6524 z" stroke="Black" stroke-width="0" fill="#515151" fill-opacity="1.0" />
  <path d="M502.7437,127.7993 C502.7437,129.0866 502.5159,130.1232 502.0602,130.9093 C501.6046,131.7067 500.8812,132.3218 499.8901,132.7547 L499.0357,131.439 C499.6851,131.1542 500.1635,130.7327 500.4711,130.1745 C500.7787,129.6277 500.9496,128.836 500.9837,127.7993 L499.2408,127.7993 L499.2408,124.2964 L502.7437,124.2964 z" stroke="Black" stroke-width="0" fill="#515151" fill-opacity="1.0" />
  <path d="M491.3976,121.9554 L494.5759,122.3484 C494.0747,124.2053 493.1463,125.6463 491.7906,126.6716 C490.4351,127.6968 488.7035,128.2094 486.5961,128.2094 C483.9418,128.2094 481.8344,127.3949 480.2737,125.7659 C478.7244,124.1255 477.9498,121.8301 477.9498,118.8797 C477.9498,115.8267 478.7358,113.4572 480.3079,111.7713 C481.8799,110.0853 483.919,109.2423 486.4252,109.2423 C488.8516,109.2423 490.8337,110.0682 492.3716,111.72 C493.9095,113.3718 494.6784,115.6957 494.6784,118.6917 L494.6613,119.5119 L481.1281,119.5119 C481.242,121.5055 481.8058,123.0319 482.8197,124.0914 C483.8336,125.1508 485.0981,125.6805 486.6131,125.6805 C487.7409,125.6805 488.7035,125.3843 489.5009,124.7919 C490.2983,124.1996 490.9306,123.2541 491.3976,121.9554 z M481.2989,116.983 L491.4318,116.983 C491.2951,115.4565 490.9078,114.3116 490.2699,113.5484 C489.2902,112.3636 488.02,111.7713 486.4594,111.7713 C485.0468,111.7713 483.8564,112.244 482.8881,113.1895 C481.9312,114.135 481.4015,115.3995 481.2989,116.983 z" stroke="Black" stroke-width="0" fill="#515151" fill-opacity="1.0" />
  <path d="M471.4053,112.0447 L467.9365,112.1472 L460.5376,112.1472 L460.5376,109.6524 L475.3696,109.6524 L475.3696,111.6858 L465.5443,123.2028 L463.6476,125.3046 L467.5264,125.1508 L475.9164,125.1508 L475.9164,127.7993 L459.8541,127.7993 L459.8541,125.3046 z" stroke="Black" stroke-width="0" fill="#515151" fill-opacity="1.0" />
  <path d="M631.5663,127.7993 L631.5663,124.2964 L635.0693,124.2964 L635.0693,127.7993 z" stroke="Black" stroke-width="0" fill="#515151" fill-opacity="1.0" />
  <path d="M36.20387,121.9554 L39.38214,122.3484 C38.88091,124.2053 37.95249,125.6463 36.59689,126.6716 C35.24128,127.6968 33.50974,128.2094 31.40229,128.2094 C28.74803,128.2094 26.64057,127.3949 25.07991,125.7659 C23.53065,124.1255 22.75601,121.8301 22.75601,118.8797 C22.75601,115.8267 23.54204,113.4572 25.11409,111.7713 C26.68614,110.0853 28.72525,109.2423 31.23141,109.2423 C33.65784,109.2423 35.63998,110.0682 37.17786,111.72 C38.71574,113.3718 39.48467,115.6957 39.48467,118.6917 L39.46758,119.5119 L25.93429,119.5119 C26.0482,121.5055 26.61209,123.0319 27.62595,124.0914 C28.63981,125.1508 29.90428,125.6805 31.41937,125.6805 C32.54715,125.6805 33.50974,125.3843 34.30716,124.7919 C35.10458,124.1996 35.73682,123.2541 36.20387,121.9554 z M26.10516,116.983 L36.23805,116.983 C36.10135,115.4565 35.71403,114.3116 35.0761,113.5484 C34.09642,112.3636 32.82624,111.7713 31.26559,111.7713 C29.85302,111.7713 28.66259,112.244 27.6943,113.1895 C26.7374,114.135 26.20769,115.3995 26.10516,116.983 z" stroke="Black" stroke-width="0" fill="#515151" fill-opacity="1.0" />
  <path d="M428.584,125.5609 C427.4449,126.5292 426.3456,127.2127 425.2861,127.6114 C424.2381,128.0101 423.1103,128.2094 421.9028,128.2094 C419.9093,128.2094 418.3771,127.7253 417.3063,126.757 C416.2354,125.7773 415.7,124.5299 415.7,123.0148 C415.7,122.1263 415.8994,121.3175 416.2981,120.5884 C416.7082,119.848 417.2379,119.2556 417.8872,118.8113 C418.5479,118.3671 419.2884,118.031 420.1086,117.8032 L422.8426,117.3418 C425.326,117.0456 427.1544,116.6925 428.3277,116.2824 L428.3448,115.4793 C428.3448,114.2262 428.0543,113.3433 427.4733,112.8307 C426.6873,112.1358 425.5197,111.7884 423.9704,111.7884 C422.5237,111.7884 421.4528,112.0447 420.7579,112.5573 C420.0744,113.0585 419.5675,113.9528 419.2372,115.24 L416.2298,114.8299 C416.5031,113.5427 416.9531,112.506 417.5797,111.72 C418.2062,110.9226 419.1118,110.3131 420.2966,109.8917 C421.4813,109.4588 422.854,109.2423 424.4147,109.2423 C425.9639,109.2423 427.2227,109.4246 428.191,109.7891 C429.1593,110.1537 429.8713,110.615 430.3269,111.1732 C430.7826,111.72 431.1016,112.4149 431.2838,113.2579 L431.4376,116.0944 L431.4376,120.1954 C431.4376,123.0547 431.5003,124.866 431.6256,125.6292 C431.7623,126.3811 432.0243,127.1045 432.4116,127.7993 L429.1992,127.7993 C428.8802,127.1614 428.6751,126.4153 428.584,125.5609 z M428.3277,118.6917 C427.2113,119.1474 425.5367,119.5347 423.304,119.8537 C422.0395,120.0359 421.1453,120.241 420.6212,120.4688 C420.0972,120.6966 419.6928,121.0327 419.408,121.477 C419.1232,121.9099 418.9808,122.394 418.9808,122.9294 C418.9808,123.7496 419.2884,124.4331 419.9036,124.9799 C420.5301,125.5267 421.4414,125.8001 422.6376,125.8001 C423.8223,125.8001 424.876,125.5438 425.7987,125.0312 C426.7215,124.5072 427.3993,123.7952 427.8322,122.8952 C428.1625,122.2003 428.3277,121.1751 428.3277,119.8195 z" stroke="Black" stroke-width="0" fill="#515151" fill-opacity="1.0" />
  <path d="M400.0479,112.2326 C401.3807,110.2391 403.3059,109.2423 405.8235,109.2423 C406.9171,109.2423 407.9195,109.4417 408.8309,109.8404 C409.7536,110.2277 410.4428,110.7403 410.8985,111.3783 C411.3541,112.0162 411.6731,112.7737 411.8553,113.6509 C411.9693,114.2205 412.0262,115.2173 412.0262,116.6412 L412.0262,127.7993 L408.9505,127.7993 L408.9505,116.7608 C408.9505,115.5077 408.8309,114.5736 408.5916,113.9585 C408.3524,113.3319 407.9252,112.8364 407.3101,112.4719 C406.7063,112.0959 405.9944,111.908 405.1741,111.908 C403.8641,111.908 402.7306,112.3238 401.7737,113.1554 C400.8282,113.987 400.3555,115.5647 400.3555,117.8886 L400.3555,127.7993 L397.2797,127.7993 L397.2797,109.6524 L400.0479,109.6524 z" stroke="Black" stroke-width="0" fill="#515151" fill-opacity="1.0" />
  <path d="M389.6587,125.5609 C388.5195,126.5292 387.4202,127.2127 386.3608,127.6114 C385.3128,128.0101 384.185,128.2094 382.9775,128.2094 C380.9839,128.2094 379.4518,127.7253 378.381,126.757 C377.3102,125.7773 376.7747,124.5299 376.7747,123.0148 C376.7747,122.1263 376.9741,121.3175 377.3728,120.5884 C377.7829,119.848 378.3126,119.2556 378.9619,118.8113 C379.6227,118.3671 380.3631,118.031 381.1833,117.8032 L383.9173,117.3418 C386.4007,117.0456 388.229,116.6925 389.4024,116.2824 L389.4195,115.4793 C389.4195,114.2262 389.129,113.3433 388.548,112.8307 C387.762,112.1358 386.5943,111.7884 385.0451,111.7884 C383.5983,111.7884 382.5275,112.0447 381.8326,112.5573 C381.1491,113.0585 380.6422,113.9528 380.3118,115.24 L377.3044,114.8299 C377.5779,113.5427 378.0278,112.506 378.6544,111.72 C379.2809,110.9226 380.1865,110.3131 381.3713,109.8917 C382.556,109.4588 383.9287,109.2423 385.4893,109.2423 C387.0386,109.2423 388.2974,109.4246 389.2657,109.7891 C390.234,110.1537 390.946,110.615 391.4016,111.1732 C391.8573,111.72 392.1763,112.4149 392.3585,113.2579 L392.5123,116.0944 L392.5123,120.1954 C392.5123,123.0547 392.575,124.866 392.7003,125.6292 C392.837,126.3811 393.099,127.1045 393.4863,127.7993 L390.2738,127.7993 C389.9549,127.1614 389.7498,126.4153 389.6587,125.5609 z M389.4024,118.6917 C388.286,119.1474 386.6114,119.5347 384.3787,119.8537 C383.1142,120.0359 382.2199,120.241 381.6959,120.4688 C381.1719,120.6966 380.7675,121.0327 380.4827,121.477 C380.1979,121.9099 380.0555,122.394 380.0555,122.9294 C380.0555,123.7496 380.3631,124.4331 380.9782,124.9799 C381.6048,125.5267 382.5161,125.8001 383.7122,125.8001 C384.897,125.8001 385.9507,125.5438 386.8734,125.0312 C387.7962,124.5072 388.474,123.7952 388.9069,122.8952 C389.2372,122.2003 389.4024,121.1751 389.4024,119.8195 z" stroke="Black" stroke-width="0" fill="#515151" fill-opacity="1.0" />
  <path d="M362.6776,127.7993 C362.6776,129.0866 362.4497,130.1232 361.994,130.9093 C361.5384,131.7067 360.815,132.3218 359.8239,132.7547 L358.9695,131.439 C359.6189,131.1542 360.0973,130.7327 360.4049,130.1745 C360.7125,129.6277 360.8834,128.836 360.9175,127.7993 L359.1746,127.7993 L359.1746,124.2964 L362.6776,124.2964 z" stroke="Black" stroke-width="0" fill="#515151" fill-opacity="1.0" />
  <path d="M355.3641,125.0483 L355.8084,127.7652 L353.4845,128.0386 C352.3681,128.0386 351.5023,127.862 350.8872,127.5089 C350.272,127.1557 349.8391,126.6944 349.5885,126.1248 C349.3379,125.5438 349.2126,124.3306 349.2126,122.4851 L349.2126,112.0447 L346.9571,112.0447 L346.9571,109.6524 L349.2126,109.6524 L349.2126,105.1584 L352.2713,103.313 L352.2713,109.6524 L355.3641,109.6524 L355.3641,112.0447 L352.2713,112.0447 L352.2713,122.656 L352.425,124.3477 C352.539,124.5983 352.7155,124.7976 352.9548,124.9457 C353.2054,125.0938 353.5585,125.1679 354.0142,125.1679 z" stroke="Black" stroke-width="0" fill="#515151" fill-opacity="1.0" />
  <path d="M331.9542,112.2326 C333.287,110.2391 335.2122,109.2423 337.7298,109.2423 C338.8234,109.2423 339.8259,109.4417 340.7372,109.8404 C341.6599,110.2277 342.3491,110.7403 342.8048,111.3783 C343.2605,112.0162 343.5794,112.7737 343.7617,113.6509 C343.8756,114.2205 343.9326,115.2173 343.9326,116.6412 L343.9326,127.7993 L340.8568,127.7993 L340.8568,116.7608 C340.8568,115.5077 340.7372,114.5736 340.498,113.9585 C340.2588,113.3319 339.8316,112.8364 339.2164,112.4719 C338.6127,112.0959 337.9007,111.908 337.0805,111.908 C335.7704,111.908 334.637,112.3238 333.6801,113.1554 C332.7346,113.987 332.2618,115.5647 332.2618,117.8886 L332.2618,127.7993 L329.1861,127.7993 L329.1861,109.6524 L331.9542,109.6524 z" stroke="Black" stroke-width="0" fill="#515151" fill-opacity="1.0" />
  <path d="M322.146,121.9554 L325.3243,122.3484 C324.8231,124.2053 323.8946,125.6463 322.539,126.6716 C321.1834,127.6968 319.4519,128.2094 317.3444,128.2094 C314.6902,128.2094 312.5827,127.3949 311.022,125.7659 C309.4728,124.1255 308.6982,121.8301 308.6982,118.8797 C308.6982,115.8267 309.4842,113.4572 311.0562,111.7713 C312.6283,110.0853 314.6674,109.2423 317.1736,109.2423 C319.6,109.2423 321.5821,110.0682 323.12,111.72 C324.6579,113.3718 325.4268,115.6957 325.4268,118.6917 L325.4097,119.5119 L311.8764,119.5119 C311.9903,121.5055 312.5542,123.0319 313.5681,124.0914 C314.5819,125.1508 315.8464,125.6805 317.3615,125.6805 C318.4893,125.6805 319.4519,125.3843 320.2493,124.7919 C321.0467,124.1996 321.679,123.2541 322.146,121.9554 z M312.0473,116.983 L322.1802,116.983 C322.0435,115.4565 321.6562,114.3116 321.0182,113.5484 C320.0385,112.3636 318.7684,111.7713 317.2077,111.7713 C315.7952,111.7713 314.6047,112.244 313.6364,113.1895 C312.6795,114.135 312.1498,115.3995 312.0473,116.983 z" stroke="Black" stroke-width="0" fill="#515151" fill-opacity="1.0" />
  <path d="M290.9955,122.3826 L294.0371,121.9042 C294.2079,123.1231 294.6807,124.0572 295.4554,124.7065 C296.2414,125.3558 297.335,125.6805 298.7361,125.6805 C300.1487,125.6805 301.1967,125.3957 301.8802,124.8261 C302.5638,124.2451 302.9055,123.5673 302.9055,122.7927 C302.9055,122.0978 302.6036,121.551 301.9998,121.1523 C301.5784,120.8789 300.5303,120.5315 298.8557,120.11 C296.6002,119.5404 295.0338,119.0505 294.1567,118.6404 C293.2909,118.219 292.6302,117.6437 292.1745,116.9146 C291.7303,116.1742 291.5081,115.3596 291.5081,114.4711 C291.5081,113.6623 291.6904,112.9161 292.0549,112.2326 C292.4308,111.5378 292.9378,110.9625 293.5757,110.5068 C294.0542,110.1537 294.7035,109.8575 295.5237,109.6182 C296.3553,109.3676 297.2438,109.2423 298.1893,109.2423 C299.6133,109.2423 300.8607,109.4474 301.9315,109.8575 C303.0137,110.2676 303.8111,110.8258 304.3238,111.5321 C304.8364,112.2269 305.1895,113.1611 305.3832,114.3344 L302.3758,114.7445 C302.2391,113.8104 301.8404,113.0813 301.1797,112.5573 C300.5303,112.0333 299.6076,111.7713 298.4115,111.7713 C296.9989,111.7713 295.9908,112.0048 295.387,112.4719 C294.7832,112.9389 294.4814,113.4857 294.4814,114.1123 C294.4814,114.511 294.6067,114.8698 294.8573,115.1888 C295.1079,115.5191 295.5009,115.7925 296.0363,116.009 L298.7532,116.795 C300.929,117.376 302.4441,117.8544 303.2985,118.2303 C304.1643,118.5949 304.8421,119.1303 305.3319,119.8366 C305.8217,120.5429 306.0667,121.42 306.0667,122.468 C306.0667,123.4933 305.7648,124.4616 305.161,125.3729 C304.5687,126.2729 303.7086,126.9734 302.5808,127.4747 C301.4531,127.9645 300.1772,128.2094 298.7532,128.2094 C296.3951,128.2094 294.5953,127.7196 293.3536,126.7399 C292.1233,125.7602 291.3372,124.3078 290.9955,122.3826 z" stroke="Black" stroke-width="0" fill="#515151" fill-opacity="1.0" />
  <path d="M285.1858,121.9554 L288.364,122.3484 C287.8628,124.2053 286.9344,125.6463 285.5788,126.6716 C284.2232,127.6968 282.4916,128.2094 280.3842,128.2094 C277.7299,128.2094 275.6225,127.3949 274.0618,125.7659 C272.5125,124.1255 271.7379,121.8301 271.7379,118.8797 C271.7379,115.8267 272.5239,113.4572 274.096,111.7713 C275.668,110.0853 277.7071,109.2423 280.2133,109.2423 C282.6397,109.2423 284.6219,110.0682 286.1597,111.72 C287.6976,113.3718 288.4666,115.6957 288.4666,118.6917 L288.4495,119.5119 L274.9162,119.5119 C275.0301,121.5055 275.594,123.0319 276.6078,124.0914 C277.6217,125.1508 278.8862,125.6805 280.4012,125.6805 C281.529,125.6805 282.4916,125.3843 283.289,124.7919 C284.0865,124.1996 284.7187,123.2541 285.1858,121.9554 z M275.087,116.983 L285.2199,116.983 C285.0832,115.4565 284.6959,114.3116 284.058,113.5484 C283.0783,112.3636 281.8081,111.7713 280.2475,111.7713 C278.8349,111.7713 277.6445,112.244 276.6762,113.1895 C275.7193,114.135 275.1896,115.3995 275.087,116.983 z" stroke="Black" stroke-width="0" fill="#515151" fill-opacity="1.0" />
  <path d="M263.8435,112.4035 C264.5497,111.1163 265.1991,110.2676 265.7914,109.8575 C266.3952,109.4474 267.0559,109.2423 267.7736,109.2423 C268.8102,109.2423 269.864,109.5727 270.9348,110.2334 L269.8754,113.087 C269.1235,112.6427 268.3717,112.4206 267.6198,112.4206 C266.9477,112.4206 266.3439,112.6256 265.8085,113.0358 C265.2731,113.4345 264.8915,113.9927 264.6637,114.7103 C264.3219,115.8039 264.1511,117 264.1511,118.2987 L264.1511,127.7993 L261.0753,127.7993 L261.0753,109.6524 L263.8435,109.6524 z" stroke="Black" stroke-width="0" fill="#515151" fill-opacity="1.0" />
  <path d="M241.6468,134.754 L241.6468,109.6524 L244.4492,109.6524 L244.4492,112.0105 C245.1099,111.0878 245.856,110.3986 246.6876,109.9429 C247.5192,109.4759 248.5274,109.2423 249.7121,109.2423 C251.2614,109.2423 252.6284,109.641 253.8131,110.4385 C254.9978,111.2359 255.8921,112.3636 256.4958,113.8218 C257.0996,115.2685 257.4015,116.8577 257.4015,118.5892 C257.4015,120.446 257.0654,122.1206 256.3933,123.6129 C255.7326,125.0938 254.7643,126.233 253.4884,127.0304 C252.224,127.8164 250.8912,128.2094 249.49,128.2094 C248.4647,128.2094 247.542,127.993 246.7218,127.5601 C245.913,127.1272 245.2466,126.5804 244.7226,125.9197 L244.7226,134.754 z M244.4321,118.8284 C244.4321,121.1637 244.9048,122.8895 245.8503,124.0059 C246.7959,125.1223 247.9407,125.6805 249.2849,125.6805 C250.6519,125.6805 251.8196,125.1052 252.7879,123.9547 C253.7675,122.7927 254.2574,120.9985 254.2574,118.5721 C254.2574,116.2596 253.7789,114.5281 252.822,113.3775 C251.8765,112.2269 250.7431,111.6517 249.4216,111.6517 C248.1116,111.6517 246.9496,112.2668 245.9358,113.4971 C244.9333,114.716 244.4321,116.4931 244.4321,118.8284 z" stroke="Black" stroke-width="0" fill="#515151" fill-opacity="1.0" />
  <path d="M226.5073,127.7993 C226.5073,129.0866 226.2795,130.1232 225.8238,130.9093 C225.3681,131.7067 224.6448,132.3218 223.6537,132.7547 L222.7993,131.439 C223.4486,131.1542 223.9271,130.7327 224.2347,130.1745 C224.5422,129.6277 224.7131,128.836 224.7473,127.7993 L223.0044,127.7993 L223.0044,124.2964 L226.5073,124.2964 z" stroke="Black" stroke-width="0" fill="#515151" fill-opacity="1.0" />
  <path d="M214.3581,127.7993 L214.3581,102.7491 L217.4338,102.7491 L217.4338,127.7993 z" stroke="Black" stroke-width="0" fill="#515151" fill-opacity="1.0" />
  <path d="M207.3864,121.9554 L210.5647,122.3484 C210.0634,124.2053 209.135,125.6463 207.7794,126.6716 C206.4238,127.6968 204.6923,128.2094 202.5848,128.2094 C199.9306,128.2094 197.8231,127.3949 196.2624,125.7659 C194.7132,124.1255 193.9385,121.8301 193.9385,118.8797 C193.9385,115.8267 194.7246,113.4572 196.2966,111.7713 C197.8687,110.0853 199.9078,109.2423 202.4139,109.2423 C204.8404,109.2423 206.8225,110.0682 208.3604,111.72 C209.8983,113.3718 210.6672,115.6957 210.6672,118.6917 L210.6501,119.5119 L197.1168,119.5119 C197.2307,121.5055 197.7946,123.0319 198.8085,124.0914 C199.8223,125.1508 201.0868,125.6805 202.6019,125.6805 C203.7297,125.6805 204.6923,125.3843 205.4897,124.7919 C206.2871,124.1996 206.9193,123.2541 207.3864,121.9554 z M197.2877,116.983 L207.4206,116.983 C207.2839,115.4565 206.8965,114.3116 206.2586,113.5484 C205.2789,112.3636 204.0088,111.7713 202.4481,111.7713 C201.0355,111.7713 199.8451,112.244 198.8768,113.1895 C197.9199,114.135 197.3902,115.3995 197.2877,116.983 z" stroke="Black" stroke-width="0" fill="#515151" fill-opacity="1.0" />
  <path d="M187.2744,127.7993 L187.2744,125.5096 C186.1239,127.3095 184.4322,128.2094 182.1994,128.2094 C180.7527,128.2094 179.4199,127.8107 178.201,127.0133 C176.9934,126.2159 176.0536,125.1052 175.3815,123.6813 C174.7208,122.2459 174.3904,120.5998 174.3904,118.743 C174.3904,116.9317 174.6923,115.2913 175.2961,113.8218 C175.8998,112.3409 176.8055,111.2074 178.013,110.4214 C179.2205,109.6353 180.5704,109.2423 182.0627,109.2423 C183.1563,109.2423 184.1303,109.4759 184.9847,109.9429 C185.8391,110.3986 186.534,110.9966 187.0694,111.7371 L187.0694,102.7491 L190.128,102.7491 L190.128,127.7993 z M177.5516,118.743 C177.5516,121.0669 178.0415,122.8041 179.0211,123.9547 C180.0008,125.1052 181.1571,125.6805 182.4899,125.6805 C183.8341,125.6805 184.9733,125.1337 185.9074,124.0401 C186.8529,122.9351 187.3257,121.2548 187.3257,118.9993 C187.3257,116.5159 186.8472,114.6932 185.8903,113.5313 C184.9334,112.3693 183.7544,111.7884 182.3532,111.7884 C180.9862,111.7884 179.8414,112.3466 178.9186,113.4629 C178.0073,114.5793 177.5516,116.3393 177.5516,118.743 z" stroke="Black" stroke-width="0" fill="#515151" fill-opacity="1.0" />
  <path d="M377.9391,48.85036 L362.5018,51.63688 C361.9817,48.55313 360.7928,46.23103 358.9351,44.67058 C357.1145,43.11013 354.7367,42.3299 351.8016,42.3299 C347.9005,42.3299 344.7795,43.68601 342.4389,46.39822 C340.1353,49.07328 338.9836,53.56886 338.9836,59.88498 C338.9836,66.90701 340.1539,71.867 342.4946,74.76498 C344.8724,77.66296 348.0491,79.11195 352.0245,79.11195 C354.9968,79.11195 357.4304,78.276 359.3252,76.60409 C361.22,74.89502 362.5575,71.97847 363.3378,67.85442 L378.7194,70.47375 C377.1217,77.53293 374.0566,82.86447 369.5238,86.46837 C364.9911,90.07227 358.9165,91.87421 351.3,91.87421 C342.6432,91.87421 335.7326,89.14342 330.5683,83.68185 C325.4411,78.22027 322.8775,70.65952 322.8775,60.99958 C322.8775,51.22819 325.4597,43.63028 330.624,38.20586 C335.7884,32.74428 342.7733,30.01349 351.5786,30.01349 C358.7864,30.01349 364.5081,31.57394 368.7436,34.69484 C373.0163,37.77859 376.0815,42.49709 377.9391,48.85036 z" stroke="Black" stroke-width="0" fill="#808080" fill-opacity="1.0" />
  <path d="M627.7098,13.74775 C629.6496,13.74775 631.5435,14.24802 633.3914,15.24855 C635.2393,16.23888 636.6789,17.66311 637.7101,19.52124 C638.7412,21.36917 639.2568,23.29877 639.2568,25.31005 C639.2568,27.30091 638.7463,29.2152 637.7253,31.05292 C636.7146,32.89064 635.2904,34.31997 633.4527,35.34092 C631.6252,36.35167 629.7109,36.85704 627.7098,36.85704 C625.7087,36.85704 623.7894,36.35167 621.9517,35.34092 C620.1241,34.31997 618.6999,32.89064 617.679,31.05292 C616.658,29.2152 616.1475,27.30091 616.1475,25.31005 C616.1475,23.29877 616.6631,21.36917 617.6943,19.52124 C618.7357,17.66311 620.1803,16.23888 622.0282,15.24855 C623.8762,14.24802 625.77,13.74775 627.7098,13.74775 z M627.7098,15.66204 C626.0865,15.66204 624.504,16.08063 622.9624,16.91781 C621.431,17.74479 620.2313,18.9342 619.3635,20.48605 C618.4957,22.02769 618.0618,23.63569 618.0618,25.31005 C618.0618,26.97421 618.4855,28.572 619.3329,30.10343 C620.1905,31.62465 621.385,32.81406 622.9164,33.67167 C624.4479,34.51906 626.0457,34.94275 627.7098,34.94275 C629.374,34.94275 630.9717,34.51906 632.5032,33.67167 C634.0346,32.81406 635.2241,31.62465 636.0714,30.10343 C636.9188,28.572 637.3425,26.97421 637.3425,25.31005 C637.3425,23.63569 636.9086,22.02769 636.0408,20.48605 C635.1832,18.9342 633.9836,17.74479 632.442,16.91781 C630.9003,16.08063 629.3229,15.66204 627.7098,15.66204 z" stroke="Black" stroke-width="0" fill="#808080" fill-opacity="1.0" />
  <path d="M627.519,18.95814 C628.9789,18.95814 630.0356,19.07555 630.6891,19.31037 C631.3425,19.53498 631.8632,19.93315 632.2511,20.50488 C632.6391,21.07662 632.8331,21.68408 632.8331,22.32729 C632.8331,23.23594 632.5063,24.02717 631.853,24.701 C631.2097,25.37483 630.3522,25.75259 629.2802,25.83426 L630.3369,26.49278 C630.8371,26.98284 631.4496,27.8047 632.1746,28.95838 L633.6907,31.39335 L631.2404,31.39335 L630.1378,29.43312 C629.27,27.89148 628.5706,26.92668 628.0397,26.53872 C627.6721,26.25285 627.1362,26.10992 626.4317,26.10992 L625.2525,26.10992 L625.2525,31.39335 L623.2463,31.39335 L623.2463,18.95814 z M625.2525,24.39472 L627.6874,24.39472 C628.8513,24.39472 629.6426,24.22116 630.0612,23.87403 C630.49,23.52691 630.7043,23.06748 630.7043,22.49574 C630.7043,22.1282 630.6023,21.80149 630.3981,21.51563 C630.1939,21.21955 629.908,21.00005 629.5405,20.85711 C629.1832,20.71418 628.5144,20.64271 627.5343,20.64271 L625.2525,20.64271 z" stroke="Black" stroke-width="0" fill="#808080" fill-opacity="1.0" />
  <path d="M561.9051,73.65038 L577.6211,71.25397 C578.2899,74.30057 579.6459,76.62267 581.6894,78.22027 C583.7328,79.78072 586.5937,80.56094 590.2719,80.56094 C594.3216,80.56094 597.3682,79.81787 599.4117,78.33173 C600.7863,77.29143 601.4737,75.89817 601.4737,74.15195 C601.4737,72.96304 601.1022,71.97847 600.3591,71.19824 C599.5789,70.45517 597.8326,69.76783 595.1204,69.13622 C582.4882,66.3497 574.4816,63.80468 571.1006,61.50116 C566.4193,58.30595 564.0786,53.86609 564.0786,48.18159 C564.0786,43.0544 566.1035,38.74458 570.1532,35.25214 C574.2029,31.75971 580.4819,30.01349 588.9901,30.01349 C597.0895,30.01349 603.1085,31.33244 607.0468,33.97034 C610.985,36.60825 613.6972,40.50938 615.1833,45.67373 L600.4148,48.40451 C599.7832,46.10099 598.5757,44.3362 596.7924,43.11013 C595.0461,41.88406 592.5383,41.27103 589.2687,41.27103 C585.1447,41.27103 582.191,41.84691 580.4076,42.99867 C579.2187,43.81605 578.6242,44.87492 578.6242,46.1753 C578.6242,47.28991 579.1444,48.23732 580.1847,49.01755 C581.5965,50.05785 586.4636,51.52542 594.786,53.42025 C603.1456,55.31508 608.9787,57.63718 612.2854,60.38655 C615.5549,63.17307 617.1896,67.05562 617.1896,72.03419 C617.1896,77.45862 614.9233,82.1214 610.3906,86.02252 C605.8578,89.92365 599.1516,91.87421 590.2719,91.87421 C582.2095,91.87421 575.8192,90.23946 571.1006,86.96994 C566.4193,83.70042 563.3541,79.26057 561.9051,73.65038 z" stroke="Black" stroke-width="0" fill="#808080" fill-opacity="1.0" />
  <path d="M494.0812,60.10789 C494.0812,54.90639 495.363,49.87208 497.9266,45.00496 C500.4902,40.13784 504.1127,36.42248 508.7941,33.85889 C513.5126,31.29529 518.7698,30.01349 524.5657,30.01349 C533.5198,30.01349 540.8576,32.93005 546.5793,38.76316 C552.3009,44.55912 555.1617,51.89695 555.1617,60.77666 C555.1617,69.73067 552.2637,77.16139 546.4678,83.06881 C540.709,88.93908 533.4455,91.87421 524.6772,91.87421 C519.2528,91.87421 514.0699,90.64815 509.1284,88.19601 C504.2242,85.74387 500.4902,82.15855 497.9266,77.44004 C495.363,72.68439 494.0812,66.90701 494.0812,60.10789 z M510.1316,60.94385 C510.1316,66.81412 511.5248,71.3097 514.3113,74.4306 C517.0979,77.55151 520.5346,79.11195 524.6215,79.11195 C528.7084,79.11195 532.1265,77.55151 534.8759,74.4306 C537.6624,71.3097 539.0557,66.77696 539.0557,60.83239 C539.0557,55.03643 537.6624,50.578 534.8759,47.4571 C532.1265,44.3362 528.7084,42.77575 524.6215,42.77575 C520.5346,42.77575 517.0979,44.3362 514.3113,47.4571 C511.5248,50.578 510.1316,55.07359 510.1316,60.94385 z" stroke="Black" stroke-width="0" fill="#808080" fill-opacity="1.0" />
  <path d="M467.1635,39.76631 C469.6528,35.79087 471.882,33.17154 473.8511,31.90832 C475.8574,30.6451 478.1238,30.01349 480.6502,30.01349 C484.2169,30.01349 487.6537,30.99806 490.9603,32.9672 L486.1118,46.62114 C483.4739,44.91208 481.0218,44.05754 478.7554,44.05754 C476.5633,44.05754 474.7057,44.67058 473.1823,45.89665 C471.6591,47.08556 470.4516,49.25905 469.5599,52.4171 C468.7054,55.57516 468.2781,62.1885 468.2781,72.25712 L468.2781,90.53668 L452.6178,90.53668 L452.6178,31.35102 L467.1635,31.35102 z" stroke="Black" stroke-width="0" fill="#808080" fill-opacity="1.0" />
  <path d="M424.0839,71.69981 L439.6884,74.31915 C437.6821,80.04079 434.5055,84.40634 430.1585,87.41578 C425.8487,90.38807 420.4428,91.87421 413.9409,91.87421 C403.6494,91.87421 396.0329,88.51181 391.0915,81.78701 C387.1904,76.39974 385.2398,69.60064 385.2398,61.38969 C385.2398,51.58115 387.8034,43.90893 392.9306,38.37305 C398.0578,32.80001 404.5411,30.01349 412.3805,30.01349 C421.1859,30.01349 428.1336,32.93005 433.2237,38.76316 C438.3137,44.55912 440.7473,53.4574 440.5244,65.45802 L401.2902,65.45802 C401.4016,70.10221 402.6648,73.72469 405.0798,76.32544 C407.4948,78.88903 410.5042,80.17083 414.1082,80.17083 C416.5603,80.17083 418.6223,79.50207 420.2942,78.16454 C421.9661,76.82701 423.2293,74.6721 424.0839,71.69981 z M424.9756,55.87239 C424.8641,51.33965 423.6938,47.90294 421.4645,45.56227 C419.2354,43.18444 416.5231,41.99552 413.3279,41.99552 C409.9098,41.99552 407.0861,43.24017 404.8569,45.72946 C402.6277,48.21875 401.5316,51.59972 401.5688,55.87239 z" stroke="Black" stroke-width="0" fill="#808080" fill-opacity="1.0" />
  <path d="M252.9916,60.10789 C252.9916,54.90639 254.2734,49.87208 256.837,45.00496 C259.4006,40.13784 263.0231,36.42248 267.7044,33.85889 C272.4229,31.29529 277.6802,30.01349 283.4761,30.01349 C292.4301,30.01349 299.768,32.93005 305.4896,38.76316 C311.2113,44.55912 314.0721,51.89695 314.0721,60.77666 C314.0721,69.73067 311.1741,77.16139 305.3782,83.06881 C299.6194,88.93908 292.3558,91.87421 283.5876,91.87421 C278.1632,91.87421 272.9803,90.64815 268.0388,88.19601 C263.1346,85.74387 259.4006,82.15855 256.837,77.44004 C254.2734,72.68439 252.9916,66.90701 252.9916,60.10789 z M269.042,60.94385 C269.042,66.81412 270.4352,71.3097 273.2217,74.4306 C276.0083,77.55151 279.445,79.11195 283.5319,79.11195 C287.6187,79.11195 291.0369,77.55151 293.7863,74.4306 C296.5728,71.3097 297.966,66.77696 297.966,60.83239 C297.966,55.03643 296.5728,50.578 293.7863,47.4571 C291.0369,44.3362 287.6187,42.77575 283.5319,42.77575 C279.445,42.77575 276.0083,44.3362 273.2217,47.4571 C270.4352,50.578 269.042,55.07359 269.042,60.94385 z" stroke="Black" stroke-width="0" fill="#9A0000" fill-opacity="1.0" />
  <path d="M155.1848,23.32584 L155.1848,8.835944 L170.845,8.835944 L170.845,23.32584 z" stroke="Black" stroke-width="0" fill="#9A0000" fill-opacity="1.0" />
  <path d="M225.0707,60.33082 C225.0707,53.9404 224.7363,49.81635 224.0675,47.95867 C223.3988,46.06384 222.3027,44.59627 220.7794,43.55597 C219.2933,42.51567 217.4914,41.99552 215.3736,41.99552 C212.6614,41.99552 210.2278,42.73859 208.0729,44.22474 C205.918,45.71088 204.4319,47.68002 203.6145,50.13216 C202.8343,52.58429 202.4442,57.11703 202.4442,63.73037 L202.4442,90.53668 L186.7839,90.53668 L186.7839,31.35102 L201.3295,31.35102 L201.3295,40.04496 C206.4939,33.35731 212.9958,30.01349 220.8352,30.01349 C224.2905,30.01349 227.4485,30.6451 230.3093,31.90832 C233.1702,33.13439 235.3251,34.71342 236.7741,36.6454 C238.2602,38.57739 239.2819,40.76945 239.8392,43.22159 C240.4337,45.67373 240.7309,49.18474 240.7309,53.75463 L240.7309,90.53668 L225.0707,90.53668 z" stroke="Black" stroke-width="0" fill="#9A0000" fill-opacity="1.0" />
  <path d="M155.1848,90.53668 L155.1848,31.35102 L170.845,31.35102 L170.845,90.53668 z" stroke="Black" stroke-width="0" fill="#9A0000" fill-opacity="1.0" />
  <path d="M101.0706,38.87462 C106.1235,32.9672 112.1609,30.01349 119.183,30.01349 C122.7869,30.01349 126.0378,30.68225 128.9358,32.01978 C131.8338,33.35731 134.0072,35.06638 135.4562,37.14698 C136.9424,39.22758 137.9455,41.5311 138.4657,44.05754 C139.023,46.58399 139.3016,50.50369 139.3016,55.81665 L139.3016,90.53668 L123.6414,90.53668 L123.6414,59.27194 C123.6414,53.06729 123.3442,49.12901 122.7497,47.4571 C122.1553,45.78519 121.0964,44.46624 119.5731,43.50024 C118.0869,42.49709 116.2107,41.99552 113.9443,41.99552 C111.3436,41.99552 109.0215,42.62713 106.978,43.89035 C104.9346,45.15358 103.4298,47.06699 102.4639,49.63058 C101.535,52.15703 101.0706,55.90954 101.0706,60.88812 L101.0706,90.53668 L85.41035,90.53668 L85.41035,8.835944 L101.0706,8.835944 z" stroke="Black" stroke-width="0" fill="#9A0000" fill-opacity="1.0" />
  <path d="M37.92807,8.835944 C46.65916,8.835944 52.99385,9.579016 56.93213,11.06516 C60.90756,12.51415 64.08419,15.1149 66.46202,18.86741 C68.83985,22.61992 70.02877,26.91117 70.02877,31.74113 C70.02877,37.87147 68.22682,42.94294 64.62292,46.95552 C61.01902,50.93096 55.63175,53.43883 48.46111,54.47913 C52.02785,56.55973 54.96299,58.84467 57.26651,61.33397 C59.60719,63.82325 62.74667,68.24453 66.68494,74.59779 L76.66068,90.53668 L56.93213,90.53668 L45.00583,72.75869 C40.77032,66.40543 37.87234,62.41142 36.31189,60.77666 C34.75143,59.10475 33.0981,57.97157 31.35188,57.37711 C29.60566,56.74549 26.83772,56.42969 23.04806,56.42969 L19.70423,56.42969 L19.70423,90.53668 L3.20804,90.53668 L3.20804,8.835944 z M19.70423,43.38878 L31.90919,43.38878 C39.8229,43.38878 44.76433,43.0544 46.73347,42.38564 C48.70261,41.71687 50.24448,40.56511 51.35909,38.93035 C52.4737,37.29559 53.031,35.25214 53.031,32.80001 C53.031,30.05064 52.28793,27.84 50.80178,26.16809 C49.35279,24.45903 47.29077,23.38157 44.61572,22.93573 C43.27818,22.74996 39.2656,22.65708 32.57795,22.65708 L19.70423,22.65708 z" stroke="Black" stroke-width="0" fill="#9A0000" fill-opacity="1.0" />
</svg>