<?xml version="1.0" encoding="utf-8"?>
<!-- Generator: Adobe Illustrator 14.0.0, SVG Export Plug-In . SVG Version: 6.00 Build 43363)  -->
<!DOCTYPE svg PUBLIC "-//W3C//DTD SVG 1.0//EN" "http://www.w3.org/TR/2001/REC-SVG-20010904/DTD/svg10.dtd">
<svg version="1.0" id="Layer_1" xmlns="http://www.w3.org/2000/svg" xmlns:xlink="http://www.w3.org/1999/xlink" x="0px" y="0px"
	 width="366px" height="240px" viewBox="0 0 366 240" enable-background="new 0 0 366 240" xml:space="preserve">
<polygon fill-rule="evenodd" clip-rule="evenodd" fill="#CCCCCC" points="270.37,82.72 286.47,116.5 287.23,116.17 263.54,66.79 "/>
<polygon fill-rule="evenodd" clip-rule="evenodd" fill="#666666" points="197.2,222.84 194.35,231.79 333.84,158.85 356.18,141.14 
	"/>
<polygon fill-rule="evenodd" clip-rule="evenodd" fill="#999999" points="194.35,231.79 197.2,222.84 8.81,156.7 30.96,173.08 "/>
<polygon fill-rule="evenodd" clip-rule="evenodd" fill="#B0B0B0" points="197.2,222.84 356.18,141.14 345.37,113.42 195.88,182.88 
	"/>
<polygon fill-rule="evenodd" clip-rule="evenodd" fill="#CCCCCC" points="8.81,156.7 197.2,222.84 195.88,182.88 19.71,126.811 "/>
<polygon fill-rule="evenodd" clip-rule="evenodd" fill="#999999" points="84.03,73.01 70.19,49.6 52.95,115.94 74.79,122.44 "/>
<polygon fill-rule="evenodd" clip-rule="evenodd" fill="#7D7D7D" points="170.97,60.7 171.54,47.45 84.03,73.01 81.17,88.31 "/>
<polygon fill-rule="evenodd" clip-rule="evenodd" fill="#999999" points="170.97,60.7 270.37,82.72 263.54,66.79 171.54,47.45 "/>
<polygon fill-rule="evenodd" clip-rule="evenodd" fill="#E3E3E3" points="263.54,66.79 287.23,116.17 311.689,105.61 275.689,43.11 
	"/>
<polygon fill-rule="evenodd" clip-rule="evenodd" fill="#CCCCCC" points="171.54,47.45 263.54,66.79 275.689,43.11 170.63,23.17 "/>
<polygon fill-rule="evenodd" clip-rule="evenodd" fill="#B0B0B0" points="171.54,47.45 170.63,23.17 70.19,49.6 84.03,73.01 "/>
<path fill-rule="evenodd" clip-rule="evenodd" fill="#F7F7F7" d="M275.689,43.11l36,62.5l-119.85,51.73l-138.89-41.4L70.19,49.6
	l100.44-26.43L275.689,43.11z M48.7,44.62l-28.99,82.19l176.17,56.069l149.49-69.46l-51.091-76.39L169.22,14.22L48.7,44.62z"/>
<line fill-rule="evenodd" clip-rule="evenodd" fill="none" x1="42.12" y1="62.51" x2="48.7" y2="44.62"/>
<line fill-rule="evenodd" clip-rule="evenodd" fill="none" x1="42.12" y1="62.51" x2="8.81" y2="156.7"/>
<g>
	<g>
		
			<line fill="none" stroke="#00BD00" stroke-width="2" stroke-linecap="round" stroke-linejoin="round" x1="178.75" y1="96.72" x2="190.58" y2="83.96"/>
		<polygon fill="#00BD00" points="191.337,87.364 196.577,77.439 187.077,83.414 		"/>
	</g>
</g>
<g>
	<g>
		
			<line fill="none" stroke="#0000BD" stroke-width="2" stroke-linecap="round" stroke-linejoin="round" x1="178.75" y1="96.72" x2="178.8" y2="71.27"/>
		<polygon fill="#0000BD" points="181.665,73.257 178.782,62.411 175.855,73.246 		"/>
	</g>
</g>
<g>
	<g>
		
			<line fill="none" stroke="#E30000" stroke-width="2" stroke-linecap="round" stroke-linejoin="round" x1="178.75" y1="96.72" x2="205.05" y2="103.3"/>
		<polygon fill="#E30000" points="202.432,105.603 213.652,105.416 203.841,99.966 		"/>
	</g>
</g>
<polygon fill-rule="evenodd" clip-rule="evenodd" fill="none" stroke="#000000" stroke-width="2" stroke-linejoin="bevel" points="
	48.7,44.62 8.81,156.7 30.96,173.08 194.35,231.79 333.84,158.85 356.18,141.14 345.37,113.42 294.279,37.03 169.22,14.22 "/>
<polyline fill-rule="evenodd" clip-rule="evenodd" fill="none" stroke="#000000" stroke-width="2" stroke-linecap="round" stroke-linejoin="bevel" points="
	52.95,115.94 191.84,157.34 311.689,105.61 "/>
<polyline fill-rule="evenodd" clip-rule="evenodd" fill="none" stroke="#000000" stroke-width="2" stroke-linejoin="bevel" points="
	287.23,116.17 270.37,82.72 170.97,60.7 81.17,88.31 74.68,122.41 "/>
</svg>
