<?xml version="1.0" encoding="utf-8"?>
<!-- Generator: Adobe Illustrator 14.0.0, SVG Export Plug-In . SVG Version: 6.00 Build 43363)  -->
<!DOCTYPE svg PUBLIC "-//W3C//DTD SVG 1.0//EN" "http://www.w3.org/TR/2001/REC-SVG-20010904/DTD/svg10.dtd">
<svg version="1.0" xmlns="http://www.w3.org/2000/svg" xmlns:xlink="http://www.w3.org/1999/xlink" x="0px" y="0px"
	 width="56.694px" height="56.695px" viewBox="0 0 56.694 56.695" enable-background="new 0 0 56.694 56.695" xml:space="preserve">
<g id="Grids">
	<g>
		
			<line fill-rule="evenodd" clip-rule="evenodd" fill="none" stroke="#D4D4D4" stroke-width="0.27" x1="4.934" y1="0" x2="4.934" y2="56.69"/>
		
			<line fill-rule="evenodd" clip-rule="evenodd" fill="none" stroke="#D4D4D4" stroke-width="0.27" x1="9.614" y1="0" x2="9.614" y2="56.69"/>
		
			<line fill-rule="evenodd" clip-rule="evenodd" fill="none" stroke="#D4D4D4" stroke-width="0.27" x1="18.984" y1="0" x2="18.984" y2="56.69"/>
		
			<line fill-rule="evenodd" clip-rule="evenodd" fill="none" stroke="#D4D4D4" stroke-width="0.27" x1="23.664" y1="0" x2="23.664" y2="56.69"/>
		
			<line fill-rule="evenodd" clip-rule="evenodd" fill="none" stroke="#D4D4D4" stroke-width="0.27" x1="33.034" y1="0" x2="33.034" y2="56.69"/>
		
			<line fill-rule="evenodd" clip-rule="evenodd" fill="none" stroke="#D4D4D4" stroke-width="0.27" x1="37.715" y1="0" x2="37.715" y2="56.69"/>
		
			<line fill-rule="evenodd" clip-rule="evenodd" fill="none" stroke="#D4D4D4" stroke-width="0.27" x1="47.074" y1="0" x2="47.074" y2="56.69"/>
		
			<line fill-rule="evenodd" clip-rule="evenodd" fill="none" stroke="#D4D4D4" stroke-width="0.27" x1="51.765" y1="0" x2="51.765" y2="56.69"/>
		
			<line fill-rule="evenodd" clip-rule="evenodd" fill="none" stroke="#D4D4D4" stroke-width="0.27" x1="56.694" y1="4.93" x2="0.004" y2="4.93"/>
		
			<line fill-rule="evenodd" clip-rule="evenodd" fill="none" stroke="#D4D4D4" stroke-width="0.27" x1="56.694" y1="9.62" x2="0.004" y2="9.62"/>
		
			<line fill-rule="evenodd" clip-rule="evenodd" fill="none" stroke="#D4D4D4" stroke-width="0.27" x1="56.694" y1="18.98" x2="0.004" y2="18.98"/>
		
			<line fill-rule="evenodd" clip-rule="evenodd" fill="none" stroke="#D4D4D4" stroke-width="0.27" x1="56.694" y1="23.66" x2="0.004" y2="23.66"/>
		
			<line fill-rule="evenodd" clip-rule="evenodd" fill="none" stroke="#D4D4D4" stroke-width="0.27" x1="56.694" y1="33.03" x2="0.004" y2="33.03"/>
		
			<line fill-rule="evenodd" clip-rule="evenodd" fill="none" stroke="#D4D4D4" stroke-width="0.27" x1="56.694" y1="37.71" x2="0.004" y2="37.71"/>
		
			<line fill-rule="evenodd" clip-rule="evenodd" fill="none" stroke="#D4D4D4" stroke-width="0.27" x1="56.694" y1="47.08" x2="0.004" y2="47.08"/>
		
			<line fill-rule="evenodd" clip-rule="evenodd" fill="none" stroke="#D4D4D4" stroke-width="0.27" x1="56.694" y1="51.76" x2="0.004" y2="51.76"/>
		
			<line fill-rule="evenodd" clip-rule="evenodd" fill="none" stroke="#8A8A8A" stroke-width="0.27" x1="14.294" y1="0" x2="14.294" y2="56.69"/>
		
			<line fill-rule="evenodd" clip-rule="evenodd" fill="none" stroke="#8A8A8A" stroke-width="0.27" x1="0.135" y1="0" x2="0.135" y2="56.69"/>
		
			<line fill-rule="evenodd" clip-rule="evenodd" fill="none" stroke="#8A8A8A" stroke-width="0.27" x1="28.344" y1="28.35" x2="28.344" y2="56.69"/>
		
			<line fill-rule="evenodd" clip-rule="evenodd" fill="none" stroke="#8A8A8A" stroke-width="0.27" x1="42.395" y1="0" x2="42.395" y2="56.69"/>
		
			<line fill-rule="evenodd" clip-rule="evenodd" fill="none" stroke="#8A8A8A" stroke-width="0.27" x1="56.555" y1="0" x2="56.555" y2="56.69"/>
		
			<line fill-rule="evenodd" clip-rule="evenodd" fill="none" stroke="#8A8A8A" stroke-width="0.27" x1="28.344" y1="28.35" x2="0.004" y2="28.35"/>
		
			<line fill-rule="evenodd" clip-rule="evenodd" fill="none" stroke="#8A8A8A" stroke-width="0.27" x1="56.694" y1="14.3" x2="0.004" y2="14.3"/>
		
			<line fill-rule="evenodd" clip-rule="evenodd" fill="none" stroke="#8A8A8A" stroke-width="0.27" x1="56.694" y1="0.14" x2="0.004" y2="0.14"/>
		
			<line fill-rule="evenodd" clip-rule="evenodd" fill="none" stroke="#8A8A8A" stroke-width="0.27" x1="56.694" y1="42.39" x2="0.004" y2="42.39"/>
		
			<line fill-rule="evenodd" clip-rule="evenodd" fill="none" stroke="#8A8A8A" stroke-width="0.27" x1="56.694" y1="56.561" x2="0.004" y2="56.561"/>
		<line fill-rule="evenodd" clip-rule="evenodd" fill="none" stroke="#A80000" x1="56.694" y1="28.35" x2="28.344" y2="28.35"/>
		<line fill-rule="evenodd" clip-rule="evenodd" fill="none" stroke="#12AB00" x1="28.344" y1="0" x2="28.344" y2="28.35"/>
	</g>
</g>
<g id="Text">
	<path fill-rule="evenodd" clip-rule="evenodd" d="M52.114,7.41l-0.34,1.13c0.35-0.42,0.67-0.71,0.949-0.88
		c0.28-0.16,0.561-0.25,0.851-0.25s0.54,0.12,0.74,0.35c0.21,0.23,0.31,0.53,0.31,0.89c0,0.721-0.29,1.45-0.87,2.19
		c-0.59,0.74-1.26,1.109-2.039,1.109c-0.16,0-0.311-0.02-0.431-0.05c-0.13-0.039-0.27-0.1-0.42-0.189l-0.36,1.25
		c-0.07,0.25-0.109,0.41-0.109,0.489c0,0.07,0.02,0.131,0.06,0.181s0.101,0.09,0.181,0.12c0.089,0.03,0.25,0.04,0.5,0.04
		l-0.041,0.18h-2.3l0.05-0.18c0.301-0.01,0.511-0.07,0.61-0.16c0.11-0.09,0.22-0.34,0.34-0.75l1.23-4.28
		c0.08-0.27,0.11-0.439,0.11-0.5c0-0.09-0.021-0.159-0.07-0.21c-0.05-0.05-0.131-0.07-0.23-0.07s-0.229,0.011-0.4,0.03V7.66
		L52.114,7.41z M50.974,11.319c0.2,0.241,0.471,0.36,0.811,0.36c0.17,0,0.351-0.05,0.521-0.14c0.18-0.1,0.35-0.24,0.52-0.42
		c0.16-0.19,0.311-0.4,0.45-0.64c0.13-0.25,0.25-0.531,0.36-0.86c0.1-0.33,0.159-0.65,0.159-0.98c0-0.26-0.06-0.46-0.18-0.59
		c-0.12-0.14-0.26-0.21-0.42-0.21c-0.351,0-0.7,0.2-1.04,0.601c-0.35,0.409-0.6,0.879-0.76,1.42L50.974,11.319z"/>
	<path fill-rule="evenodd" clip-rule="evenodd" d="M52.974,5.069c0.23,0,0.431,0.08,0.591,0.241c0.159,0.159,0.24,0.359,0.24,0.589
		c0,0.23-0.081,0.42-0.24,0.581c-0.16,0.159-0.36,0.239-0.591,0.239c-0.229,0-0.419-0.08-0.579-0.239
		c-0.16-0.161-0.24-0.351-0.24-0.581c0-0.229,0.08-0.43,0.24-0.589C52.555,5.149,52.744,5.069,52.974,5.069z"/>
	<path fill-rule="evenodd" clip-rule="evenodd" d="M36.694,22.24l1.69-0.28l-0.711,2.38c0.57-0.979,1.091-1.66,1.561-2.04
		c0.26-0.23,0.47-0.34,0.64-0.34c0.11,0,0.19,0.03,0.25,0.101c0.07,0.06,0.1,0.149,0.1,0.27c0,0.22-0.06,0.42-0.169,0.619
		c-0.081,0.15-0.19,0.221-0.34,0.221c-0.07,0-0.141-0.03-0.19-0.07c-0.051-0.05-0.091-0.13-0.101-0.229
		c-0.01-0.06-0.02-0.101-0.039-0.12c-0.03-0.03-0.061-0.04-0.101-0.04c-0.05,0-0.101,0.01-0.149,0.04
		c-0.091,0.04-0.221,0.17-0.391,0.38c-0.271,0.319-0.561,0.73-0.88,1.24c-0.13,0.22-0.25,0.46-0.35,0.729
		c-0.13,0.37-0.21,0.591-0.23,0.67l-0.16,0.61h-0.75l0.91-3.03c0.101-0.35,0.149-0.6,0.149-0.75c0-0.06-0.02-0.109-0.069-0.15
		c-0.06-0.05-0.149-0.079-0.26-0.079c-0.07,0-0.19,0.02-0.37,0.05L36.694,22.24z"/>
	<path fill-rule="evenodd" clip-rule="evenodd" d="M38.574,19.47c0.23,0,0.43,0.08,0.59,0.24s0.24,0.359,0.24,0.59
		s-0.08,0.42-0.24,0.58s-0.359,0.24-0.59,0.24s-0.42-0.08-0.58-0.24s-0.24-0.35-0.24-0.58s0.08-0.43,0.24-0.59
		S38.344,19.47,38.574,19.47z"/>
	<path fill-rule="evenodd" clip-rule="evenodd" d="M4.594,55.17v0.2c-0.66-0.09-1.189-0.351-1.6-0.79
		c-0.4-0.44-0.609-0.931-0.609-1.47c0-0.28,0.049-0.601,0.14-0.98c0.09-0.37,0.13-0.66,0.13-0.87c0-0.279-0.12-0.54-0.35-0.779
		c-0.24-0.25-0.57-0.4-0.98-0.45v-0.24c0.41-0.06,0.74-0.21,0.98-0.45c0.229-0.24,0.35-0.5,0.35-0.79c0-0.21-0.04-0.5-0.13-0.87
		c-0.091-0.369-0.14-0.699-0.14-0.98c0-0.529,0.209-1.02,0.609-1.459c0.41-0.44,0.939-0.7,1.6-0.791v0.2
		c-0.459,0.11-0.8,0.291-1.01,0.541s-0.319,0.52-0.319,0.819c0,0.23,0.05,0.53,0.13,0.91c0.09,0.38,0.13,0.7,0.13,0.96
		c0,0.4-0.14,0.78-0.431,1.15c-0.289,0.369-0.72,0.66-1.289,0.859c0.56,0.21,0.989,0.5,1.279,0.88c0.301,0.38,0.44,0.771,0.44,1.16
		c0,0.27-0.04,0.59-0.13,0.97c-0.08,0.37-0.13,0.681-0.13,0.911c0,0.289,0.109,0.569,0.319,0.81
		C3.794,54.87,4.135,55.05,4.594,55.17z"/>
	<path fill-rule="evenodd" clip-rule="evenodd" d="M11.055,47.48l-1.141,3.969l-0.13,0.531c-0.01,0.05-0.02,0.1-0.02,0.13
		c0,0.069,0.02,0.12,0.06,0.17c0.03,0.03,0.07,0.05,0.12,0.05s0.11-0.03,0.19-0.09c0.159-0.12,0.359-0.351,0.609-0.71l0.2,0.14
		c-0.271,0.41-0.54,0.72-0.83,0.93c-0.28,0.22-0.55,0.32-0.79,0.32c-0.17,0-0.29-0.04-0.38-0.12c-0.08-0.09-0.12-0.21-0.12-0.37
		c0-0.189,0.04-0.439,0.13-0.76l0.12-0.439c-0.51,0.669-0.98,1.14-1.41,1.399c-0.31,0.2-0.62,0.29-0.91,0.29
		c-0.289,0-0.53-0.12-0.739-0.351c-0.21-0.239-0.311-0.56-0.311-0.979c0-0.62,0.19-1.271,0.561-1.96s0.85-1.25,1.419-1.66
		c0.451-0.33,0.871-0.489,1.271-0.489c0.24,0,0.44,0.06,0.601,0.189c0.149,0.12,0.27,0.33,0.359,0.62l0.21-0.67L11.055,47.48z
		 M8.965,47.78c-0.25,0-0.511,0.119-0.791,0.35c-0.399,0.34-0.76,0.83-1.069,1.48c-0.311,0.649-0.46,1.239-0.46,1.77
		c0,0.27,0.06,0.48,0.199,0.63c0.13,0.15,0.28,0.23,0.45,0.23c0.43,0,0.89-0.311,1.39-0.94c0.671-0.84,1-1.689,1-2.569
		c0-0.341-0.06-0.581-0.189-0.721C9.364,47.86,9.194,47.78,8.965,47.78z"/>
	<path fill-rule="evenodd" clip-rule="evenodd" d="M12.305,48.899h4.739v0.36h-4.739V48.899z M12.305,50.33h4.739v0.36h-4.739V50.33
		z"/>
	<path fill-rule="evenodd" clip-rule="evenodd" d="M21.874,46.819l-1.14,3.921h0.72l-0.16,0.55h-0.72l-0.46,1.6h-0.649l0.469-1.6
		h-2.159l0.19-0.62l3.579-3.851H21.874z M20.904,47.96l-2.57,2.78h1.771L20.904,47.96z"/>
	<path fill-rule="evenodd" clip-rule="evenodd" d="M22.744,51.99c0.12,0,0.229,0.05,0.32,0.13c0.08,0.09,0.13,0.199,0.13,0.32
		c0,0.12-0.05,0.229-0.14,0.31c-0.081,0.09-0.19,0.13-0.311,0.13s-0.229-0.04-0.32-0.13c-0.08-0.08-0.13-0.189-0.13-0.31
		c0-0.121,0.05-0.23,0.13-0.32C22.515,52.04,22.624,51.99,22.744,51.99z"/>
	<path fill-rule="evenodd" clip-rule="evenodd" d="M27.354,46.699c0.38,0,0.689,0.161,0.95,0.471
		c0.26,0.311,0.379,0.811,0.379,1.479c0,0.581-0.09,1.181-0.279,1.78c-0.189,0.601-0.46,1.131-0.811,1.57
		c-0.27,0.35-0.56,0.6-0.859,0.75c-0.18,0.09-0.38,0.14-0.61,0.14c-0.38,0-0.7-0.159-0.96-0.47c-0.25-0.32-0.38-0.81-0.38-1.49
		c0-0.67,0.13-1.35,0.38-2.03c0.31-0.789,0.69-1.39,1.16-1.8C26.635,46.83,26.974,46.699,27.354,46.699z M27.364,46.93
		c-0.17,0-0.35,0.061-0.521,0.2c-0.17,0.13-0.35,0.41-0.539,0.83c-0.19,0.42-0.36,0.97-0.53,1.63c-0.22,0.87-0.33,1.609-0.33,2.221
		c0,0.31,0.06,0.539,0.19,0.689c0.14,0.149,0.299,0.22,0.479,0.22c0.18,0,0.33-0.05,0.46-0.17c0.34-0.319,0.63-0.859,0.87-1.62
		c0.39-1.25,0.58-2.27,0.58-3.05c0-0.33-0.07-0.569-0.2-0.72C27.694,47,27.544,46.93,27.364,46.93z"/>
	<path fill-rule="evenodd" clip-rule="evenodd" d="M29.524,46.69v-0.16c0.49,0.069,0.89,0.26,1.19,0.59
		c0.31,0.329,0.459,0.699,0.459,1.1c0,0.21-0.029,0.46-0.1,0.74s-0.101,0.489-0.101,0.65c0,0.209,0.091,0.409,0.261,0.589
		c0.18,0.181,0.43,0.291,0.739,0.341v0.18c-0.31,0.04-0.56,0.15-0.739,0.33c-0.17,0.181-0.261,0.38-0.261,0.59
		c0,0.16,0.03,0.38,0.101,0.66s0.1,0.52,0.1,0.73c0,0.399-0.149,0.76-0.459,1.1c-0.301,0.33-0.7,0.53-1.19,0.59v-0.15
		c0.34-0.089,0.59-0.22,0.75-0.399c0.159-0.189,0.24-0.39,0.24-0.62c0-0.17-0.03-0.4-0.101-0.68c-0.07-0.29-0.1-0.53-0.1-0.721
		c0-0.3,0.109-0.589,0.33-0.869c0.22-0.28,0.539-0.49,0.97-0.641c-0.42-0.159-0.74-0.38-0.97-0.659
		c-0.221-0.29-0.33-0.581-0.33-0.87c0-0.2,0.029-0.44,0.1-0.73c0.07-0.28,0.101-0.51,0.101-0.681c0-0.219-0.081-0.43-0.24-0.609
		C30.114,46.899,29.864,46.77,29.524,46.69z"/>
</g>
<g id="Vectors">
</g>
<g id="Other">
	<path fill-rule="evenodd" clip-rule="evenodd" fill="#FFFFFF" stroke="#000000" d="M49.154,9.8c0,1.09-0.88,1.97-1.971,1.97
		c-1.09,0-1.969-0.88-1.969-1.97c0-1.08,0.879-1.96,1.969-1.96C48.274,7.84,49.154,8.72,49.154,9.8z"/>
	<path fill-rule="evenodd" clip-rule="evenodd" fill="#FFFFFF" stroke="#000000" d="M35.104,23.53c0,1.09-0.881,1.97-1.97,1.97
		c-1.08,0-1.971-0.88-1.971-1.97s0.891-1.97,1.971-1.97C34.224,21.561,35.104,22.44,35.104,23.53z"/>
</g>
</svg>
