<?xml version="1.0" encoding="utf-8"?>
<!-- Generator: Adobe Illustrator 14.0.0, SVG Export Plug-In . SVG Version: 6.00 Build 43363)  -->
<!DOCTYPE svg PUBLIC "-//W3C//DTD SVG 1.0//EN" "http://www.w3.org/TR/2001/REC-SVG-20010904/DTD/svg10.dtd">
<svg version="1.0" id="Layer_1" xmlns="http://www.w3.org/2000/svg" xmlns:xlink="http://www.w3.org/1999/xlink" x="0px" y="0px"
	 width="158.504px" height="201.238px" viewBox="0 0 158.504 201.238" enable-background="new 0 0 158.504 201.238"
	 xml:space="preserve">
<g>
	<defs>
		<rect id="SVGID_1_" x="0.293" width="158.211" height="82.764"/>
	</defs>
	<clipPath id="SVGID_2_">
		<use xlink:href="#SVGID_1_"  overflow="visible"/>
	</clipPath>
	<path clip-path="url(#SVGID_2_)" d="M128.305,48.449c-0.624,0.929-1.252,1.858-1.906,2.778c-1.253,1.754-2.599,3.473-4.017,5.142
		c-1.014,1.194-2.069,2.369-3.177,3.509c-0.916,0.938-1.849,1.871-2.8,2.755c-4.815,4.492-10.053,8.185-15.729,10.962
		c-1.557,0.763-3.153,1.468-4.788,2.083c-4.761,1.79-9.791,3.019-15.273,3.378c-0.606,0.041-1.216,0.072-1.84,0.09
		c-3.093,0.099-6.112-0.125-8.952-0.606c-1.692-0.282-3.343-0.659-4.941-1.135c-4.59-1.364-8.826-3.428-12.622-6.381
		c-1.494-1.162-2.939-2.477-4.259-3.913c-0.785-0.848-1.517-1.732-2.188-2.638c-1.002-1.346-1.877-2.742-2.648-4.205
		c-1.557-2.957-2.625-6.17-3.069-9.688c-0.144-1.126-0.202-2.279-0.198-3.482c0-0.296,0.01-0.583,0.023-0.879
		c0.004-0.153,0.004-0.314,0.027-0.467c0.013-0.112,0.013-0.229,0.021-0.341c0.023-0.283,0.045-0.561,0.077-0.839
		c0.099-0.862,0.224-1.696,0.403-2.513c0.467-2.158,1.197-4.204,2.23-6.084c0.502-0.92,1.068-1.822,1.719-2.666
		c0.332-0.431,0.678-0.857,1.045-1.265c1.019-1.127,2.141-2.132,3.344-2.953c0.602-0.413,1.22-0.808,1.866-1.135
		c0.664-0.341,1.338-0.664,2.047-0.92c1.337-0.48,2.723-0.826,4.227-0.974c0.638-0.063,1.306-0.072,1.965-0.067
		c0.494,0.004,0.987,0.067,1.464,0.103c0.215,0.018,0.435,0.058,0.649,0.094c0.392,0.063,0.781,0.139,1.167,0.225
		c2.585,0.565,4.855,1.795,6.861,3.518c0.332,0.287,0.646,0.601,0.956,0.915c0.403,0.408,0.767,0.844,1.117,1.283
		c0.941,1.194,1.678,2.482,2.288,3.842c0.408,0.91,0.731,1.862,0.991,2.844c0.494,1.831,0.709,3.815,0.651,5.901
		c-0.027,0.906-0.13,1.795-0.274,2.648c-0.564,3.284-1.826,6.273-3.692,8.907c-0.534,0.763-1.117,1.498-1.764,2.203
		c-3.279,3.563-7.265,5.806-11.829,6.856c-1.041,0.243-2.126,0.391-3.238,0.472c-0.437,0.031-0.884,0.049-1.333,0.049
		c-3.074,0.018-5.865-0.574-8.405-1.638c-1.548-0.642-3.028-1.436-4.394-2.45c-0.672-0.502-1.322-1.036-1.961-1.62
		c-1.063-0.974-1.974-2.073-2.754-3.199c-1.603-2.32-2.67-4.963-3.082-7.871c-0.051-0.332-0.091-0.673-0.123-1.018
		c-0.035-0.409-0.058-0.826-0.062-1.248c-0.032-2.131,0.31-4.092,0.974-5.883c0.695-1.875,1.74-3.558,3.258-5.016
		c0.914-0.88,1.942-1.602,3.056-2.109c1.216-0.557,2.526-0.92,3.998-0.979c0.592-0.022,1.194,0.009,1.741,0.09
		c1.148,0.171,2.221,0.53,3.203,1.05c0.266,0.139,0.521,0.287,0.768,0.453c0.162,0.104,0.337,0.211,0.489,0.332
		c0.18,0.144,0.368,0.283,0.552,0.436c0.436,0.363,0.871,0.785,1.239,1.22c0.336,0.4,0.637,0.799,0.915,1.221
		c0.256,0.395,0.479,0.803,0.687,1.22c0.938,1.885,1.377,4.106,1.279,6.484c-0.019,0.481-0.063,0.961-0.131,1.423
		c-0.059,0.39-0.125,0.776-0.206,1.153c-0.574,2.647-1.817,4.994-3.549,7.072c-0.755,0.906-1.67,1.772-2.59,2.472
		c-1.867,1.423-3.908,2.446-6.188,3.02c-1.145,0.292-2.334,0.494-3.596,0.539c-0.744,0.027-1.506,0.013-2.229-0.05
		c-0.722-0.058-1.418-0.179-2.101-0.318c-0.668-0.139-1.323-0.332-1.946-0.557c-2.231-0.794-4.235-2.032-5.985-3.787
		c-0.342-0.336-0.656-0.691-0.957-1.045c-0.453-0.539-0.865-1.113-1.229-1.706c-0.668-1.09-1.166-2.234-1.558-3.468
		c-0.291-0.929-0.475-1.925-0.543-2.962c-0.084-1.346,0.045-2.674,0.377-3.859c0.328-1.18,0.826-2.288,1.53-3.271
		c0.494-0.686,1.109-1.364,1.796-1.889c0.713-0.539,1.467-0.974,2.301-1.261c0.66-0.233,1.364-0.377,2.133-0.408
		c1-0.036,1.92,0.139,2.75,0.457c0.207,0.081,0.404,0.166,0.602,0.265c0.104,0.049,0.206,0.099,0.305,0.153
		c0.037,0.022,0.086,0.058,0.125,0.071c0.06,0.018,0.123,0.072,0.176,0.104c0.135,0.076,0.261,0.161,0.391,0.247
		c0.372,0.255,0.719,0.538,1.055,0.866c1.055,1.018,1.719,2.203,2.168,3.527c0.362,1.085,0.528,2.31,0.498,3.585
		c-0.015,0.749-0.113,1.476-0.257,2.158c-0.112,0.552-0.269,1.077-0.458,1.589c-0.695,1.911-1.799,3.634-3.347,5.111
		c-0.287,0.269-0.584,0.52-0.88,0.762c-0.691,0.557-1.428,1.032-2.198,1.432c-1.522,0.79-3.164,1.315-4.972,1.552
		c-1.18,0.153-2.519,0.153-3.693-0.013c-1.979-0.278-3.77-0.956-5.385-1.956c-1.611-0.992-3.141-2.455-4.137-4.079
		c-0.875-1.423-1.504-3.016-1.666-4.802c-0.018-0.237-0.035-0.48-0.045-0.731c-0.026-1.212,0.14-2.333,0.472-3.379
		c0.44-1.369,1.163-2.638,2.315-3.612c0.543-0.453,1.135-0.808,1.781-1.059c0.494-0.189,1.01-0.328,1.557-0.404
		c0.306-0.045,0.625-0.063,0.953-0.058c1.865,0.018,3.422,0.843,4.603,2.225c0.763,0.889,1.252,1.898,1.584,3.011
		c0.149,0.498,0.256,1.041,0.292,1.584c0.027,0.489,0.049,1.019,0.005,1.512c-0.157,1.867-0.75,3.469-1.715,4.936
		c-0.453,0.688-0.991,1.338-1.615,1.939c-0.435,0.417-0.884,0.799-1.351,1.144c-1.543,1.144-3.293,1.93-5.205,2.32
		c-0.588,0.121-1.189,0.188-1.822,0.229c-1.107,0.076-2.248-0.032-3.253-0.238c-2.136-0.435-4.038-1.324-5.69-2.719
		c-1.009-0.853-1.861-1.898-2.453-2.998c-0.302-0.556-0.566-1.131-0.76-1.741c-0.049-0.143,0.027-0.3,0.172-0.35
		c0.144-0.049,0.301,0.027,0.35,0.171c0.525,1.584,1.427,2.979,2.705,4.177c0.593,0.557,1.244,1.019,1.912,1.427
		c1.022,0.624,2.131,1.041,3.312,1.351c1.647,0.435,3.688,0.485,5.403,0.13c-0.019,0.005,0.021-0.004,0.031-0.009
		c0.021-0.004,0.045-0.009,0.071-0.013c0.045-0.009,0.095-0.018,0.144-0.032c0.216-0.049,0.427-0.103,0.638-0.161
		c0.637-0.184,1.243-0.413,1.835-0.678c0.381-0.17,0.749-0.372,1.113-0.579c1.35-0.772,2.67-1.907,3.621-3.204
		c0.789-1.072,1.395-2.252,1.709-3.562c0.144-0.606,0.246-1.243,0.265-1.912c0.005-0.233,0.005-0.48-0.004-0.718
		c0-0.058-0.009-0.135-0.015-0.22c-0.066-0.96-0.295-1.858-0.664-2.665c-0.084-0.184-0.166-0.368-0.265-0.539
		c-0.116-0.202-0.228-0.404-0.362-0.597c-0.287-0.399-0.606-0.789-0.983-1.139c-1.036-0.961-2.343-1.504-3.872-1.445
		c-0.323,0.009-0.628,0.054-0.934,0.108c0.009,0,0.022-0.005,0,0c-0.014,0.004-0.027,0.004-0.041,0.008
		c-0.063,0.014-0.125,0.023-0.184,0.041c-0.121,0.031-0.232,0.058-0.354,0.09c-0.473,0.134-0.911,0.336-1.329,0.583
		c-0.197,0.117-0.396,0.251-0.583,0.399c-0.938,0.745-1.602,1.719-2.033,2.76c-0.516,1.238-0.74,2.647-0.668,4.155
		c0.018,0.355,0.063,0.7,0.115,1.032c0.023,0.121,0.041,0.238,0.068,0.355c0.01,0.04,0.019,0.085,0.027,0.13
		c0,0.004,0,0.013,0.004,0.018c0,0.004,0,0.013,0.005,0.018c0,0.004,0,0.013,0.005,0.018v0.018c0.008,0.036,0.004,0.018,0.004,0.009
		c0.363,1.534,1.027,2.916,1.979,4.159c0.602,0.786,1.352,1.553,2.141,2.154c1.629,1.239,3.42,2.1,5.461,2.517
		c0.844,0.171,1.732,0.27,2.67,0.252c-0.022,0.013,0.037,0.004,0.059,0h0.135c0.211-0.005,0.417-0.018,0.628-0.032
		c0.646-0.045,1.271-0.134,1.88-0.255c1.858-0.382,3.549-1.122,5.075-2.181c1.508-1.05,2.845-2.536,3.72-4.097
		c0.233-0.417,0.436-0.835,0.629-1.274c0.094-0.22,0.18-0.449,0.265-0.683c0.026-0.076,0.058-0.157,0.085-0.242
		c0.009-0.027,0.018-0.058,0.027-0.09c0.004-0.004,0.004-0.009,0.004-0.013c0.01-0.022,0.004-0.009,0.004,0
		c0.145-0.494,0.287-0.983,0.369-1.508c0.071-0.462,0.121-0.929,0.147-1.422c0.022-0.467,0.005-0.942-0.04-1.391
		c-0.018-0.207-0.036-0.409-0.072-0.602c-0.039-0.219-0.08-0.439-0.125-0.65c-0.162-0.768-0.431-1.512-0.799-2.172
		c-0.449-0.808-1.041-1.602-1.813-2.212c-0.193-0.153-0.387-0.296-0.594-0.435c-0.111-0.072-0.224-0.14-0.336-0.207
		c-0.022-0.013-0.039-0.027-0.063-0.036c-0.004-0.004-0.004-0.004-0.01-0.004c-0.004-0.005-0.004-0.005-0.008-0.009
		c-0.004,0-0.004,0-0.01-0.005c-0.031-0.018-0.013-0.004-0.004-0.004c-0.252-0.126-0.498-0.256-0.759-0.364
		c-0.453-0.184-0.933-0.314-1.44-0.395c-0.727-0.112-1.557-0.062-2.238,0.095c-1.109,0.251-2.092,0.776-2.963,1.503
		c-0.403,0.341-0.803,0.745-1.121,1.162c-0.188,0.247-0.368,0.503-0.534,0.758c0.005-0.004,0.014-0.018,0.009-0.013
		c-0.027,0.045-0.059,0.099-0.089,0.148c-0.05,0.085-0.099,0.171-0.147,0.256c-0.203,0.363-0.383,0.74-0.535,1.131
		c-0.436,1.095-0.695,2.302-0.709,3.598c-0.014,1.315,0.18,2.522,0.521,3.671c0.521,1.763,1.392,3.352,2.571,4.792
		c0,0-0.004-0.004-0.004-0.009c0.367,0.467,0.799,0.911,1.238,1.324c0.838,0.794,1.736,1.454,2.688,2.024
		c0.799,0.475,1.656,0.866,2.54,1.184c1.659,0.597,3.454,0.902,5.416,0.884c0.561-0.004,1.112-0.049,1.647-0.107
		c1.026-0.117,2.018-0.332,2.961-0.624c-0.01,0,0.09-0.031,0.121-0.04c0.086-0.027,0.176-0.054,0.264-0.086
		c0.176-0.058,0.351-0.121,0.525-0.188c0.732-0.265,1.432-0.606,2.114-0.987c1.413-0.781,2.715-1.813,3.899-3.061
		c1.019-1.077,1.84-2.284,2.494-3.553c0.157-0.301,0.292-0.615,0.436-0.929c0.314-0.705,0.552-1.454,0.745-2.222
		c0.05-0.192,0.095-0.394,0.135-0.596c0.013-0.059,0.022-0.117,0.036-0.175c0-0.014,0.004-0.027,0.009-0.041v-0.013
		c0.004-0.023,0.004-0.014,0.004-0.009c-0.004,0.004-0.004,0.009-0.004,0.013c0.081-0.502,0.152-0.996,0.197-1.521
		c0.067-0.821,0.05-1.709-0.049-2.508c-0.14-1.122-0.396-2.181-0.809-3.168c-0.202-0.476-0.426-0.956-0.694-1.396
		c-0.198-0.318-0.4-0.641-0.643-0.942c-0.22-0.278-0.449-0.543-0.696-0.817c-0.251-0.269-0.538-0.525-0.821-0.749
		c-0.103-0.085-0.205-0.171-0.309-0.247c-0.041-0.031-0.08-0.063-0.121-0.094c-0.005-0.005-0.014-0.009-0.018-0.014
		c-0.032-0.022,0,0,0.009,0.005c-0.382-0.256-0.769-0.503-1.172-0.714c-0.704-0.372-1.476-0.623-2.288-0.789
		c-0.395-0.081-0.803-0.121-1.225-0.139c-2.239-0.09-4.094,0.655-5.73,1.808c0.053-0.027-0.041,0.036-0.059,0.045
		c-0.063,0.049-0.131,0.099-0.193,0.148c-0.264,0.206-0.52,0.431-0.767,0.66c-0.494,0.457-0.942,0.982-1.328,1.503
		c-1.077,1.445-1.759,3.096-2.159,4.877c-0.21,0.947-0.318,1.943-0.336,2.98c-0.014,0.498,0.009,1,0.045,1.476
		c0.014,0.171,0.027,0.341,0.045,0.507c0.01,0.059,0.014,0.117,0.021,0.175c0.01,0.054,0.015,0.108,0.019,0.157
		c0,0.009,0.005,0.014,0.005,0.023c0.004,0.04,0,0.018,0,0.004c0.372,2.787,1.355,5.3,2.889,7.503
		c0.705,1.014,1.526,1.992,2.469,2.876c0.548,0.507,1.104,0.987,1.688,1.414c1.911,1.395,3.975,2.441,6.25,3.109
		c1.809,0.53,3.729,0.826,5.812,0.817c0.373-0.004,0.741-0.018,1.104-0.04c-0.009,0-0.04,0.004,0.009,0
		c0.027-0.005,0.059-0.005,0.091-0.009c0.13-0.009,0.269-0.018,0.398-0.032c0.251-0.021,0.498-0.049,0.745-0.076
		c1.072-0.13,2.118-0.35,3.114-0.637c2.06-0.593,3.985-1.477,5.757-2.648c0.844-0.552,1.661-1.171,2.428-1.862
		c2.419-2.172,4.258-4.747,5.407-7.601c0.305-0.75,0.562-1.513,0.785-2.302c0.112-0.386,0.202-0.777,0.287-1.176
		c0.026-0.139,0.059-0.278,0.086-0.417c0.009-0.054,0.018-0.103,0.026-0.157c0-0.005,0.005-0.014,0.005-0.023
		c0.009-0.04,0-0.018,0-0.004c0.161-1.001,0.277-2.01,0.292-3.092c0.013-1.185-0.091-2.324-0.283-3.415
		c-0.386-2.198-1.145-4.213-2.257-6.053c-0.785-1.297-1.813-2.535-3.016-3.576c-1.032-0.893-2.159-1.611-3.375-2.154
		c-0.573-0.256-1.167-0.494-1.78-0.66c-0.498-0.134-1.006-0.265-1.526-0.363c-0.175-0.032-0.359-0.063-0.538-0.09
		c-0.104-0.013-0.198-0.022-0.297-0.036c-0.04-0.004-0.076-0.009-0.116-0.018h-0.022c-0.022-0.004-0.027-0.004-0.019-0.004
		s0.019,0.004,0.027,0.004c-0.525-0.049-1.055-0.085-1.603-0.099c-0.879-0.018-1.745,0.072-2.553,0.216
		c-1.683,0.3-3.24,0.848-4.676,1.638c-0.673,0.372-1.314,0.78-1.943,1.238c-0.309,0.225-0.601,0.462-0.896,0.709
		c-0.104,0.085-0.202,0.175-0.301,0.265c-0.041,0.031-0.076,0.067-0.113,0.099c-0.004,0.004-0.012,0.009-0.018,0.013
		c-0.031,0.031-0.004,0.009,0.006,0c-0.319,0.292-0.634,0.597-0.935,0.911c-1.444,1.512-2.562,3.208-3.41,5.021
		C43.227,38.896,42.811,40,42.5,41.144c-0.238,0.87-0.432,1.763-0.57,2.688c-0.066,0.444-0.121,0.893-0.16,1.346
		c-0.015,0.152-0.027,0.309-0.037,0.471c-0.004,0.058-0.008,0.117-0.014,0.175v0.022c-0.004,0.054-0.004,0.023,0,0.009
		c-0.193,3.02,0.211,5.933,0.979,8.544c1.086,3.689,2.904,7.005,5.33,10.021c1.146,1.418,2.474,2.805,3.878,4.007
		c0-0.004-0.004-0.004-0.004-0.009c5.271,4.577,11.522,7.261,18.501,8.418c0.564,0.094,1.135,0.171,1.709,0.243
		c2.679,0.327,5.636,0.417,8.418,0.21c0,0.005-0.01,0.005-0.01,0.005c2.806-0.193,5.488-0.597,8.092-1.212
		c5.546-1.31,10.644-3.473,15.439-6.291c2.37-1.391,4.654-2.97,6.853-4.702c2.104-1.661,4.142-3.456,6.099-5.412
		c1.543-1.544,2.997-3.128,4.37-4.752c2.019-2.383,3.837-4.864,5.533-7.408c0.256-0.386,0.78-0.489,1.167-0.234
		C128.458,47.538,128.561,48.063,128.305,48.449"/>
	<g opacity="0.47" clip-path="url(#SVGID_2_)">
		<g>
			<defs>
				<rect id="SVGID_3_" x="94.067" y="16.383" width="63.314" height="65.473"/>
			</defs>
			<clipPath id="SVGID_4_">
				<use xlink:href="#SVGID_3_"  overflow="visible"/>
			</clipPath>
			<g clip-path="url(#SVGID_4_)">
				<defs>
					<rect id="SVGID_5_" x="94.067" y="16.383" width="63.314" height="65.473"/>
				</defs>
				<clipPath id="SVGID_6_">
					<use xlink:href="#SVGID_5_"  overflow="visible"/>
				</clipPath>
				<polygon clip-path="url(#SVGID_6_)" fill-rule="evenodd" clip-rule="evenodd" fill="#FFFFFF" points="102.912,16.383 
					94.067,69.382 154.08,81.856 157.383,28.983 				"/>
			</g>
		</g>
	</g>
	
		<line clip-path="url(#SVGID_2_)" fill="none" stroke="#1C9B00" stroke-width="1.346" stroke-linecap="round" stroke-linejoin="round" x1="127.605" y1="47.982" x2="130.468" y2="22.755"/>
	
		<line clip-path="url(#SVGID_2_)" fill="none" stroke="#CB0000" stroke-width="1.346" stroke-linecap="round" stroke-linejoin="round" x1="127.605" y1="47.982" x2="155.807" y2="54.188"/>
	<path clip-path="url(#SVGID_2_)" fill-rule="evenodd" clip-rule="evenodd" d="M127.484,48.646
		c-0.091-0.018-0.172-0.049-0.252-0.103c-0.31-0.202-0.395-0.619-0.192-0.929l24.128-36.742l-1.127-0.74l4.277-2.831l-0.898,5.048
		l-1.126-0.741l-24.128,36.742C128.014,48.583,127.74,48.691,127.484,48.646"/>
	
		<polygon clip-path="url(#SVGID_2_)" fill="none" stroke="#000000" stroke-width="1.346" stroke-linecap="round" stroke-linejoin="round" points="
		102.912,16.383 94.067,69.382 154.08,81.856 157.383,28.983 	"/>
	<path clip-path="url(#SVGID_2_)" fill-rule="evenodd" clip-rule="evenodd" fill="#FFFFFF" d="M126.537,47.843
		c0-0.606,0.489-1.095,1.095-1.095c0.602,0,1.09,0.489,1.09,1.095c0,0.601-0.488,1.09-1.09,1.09
		C127.026,48.933,126.537,48.444,126.537,47.843"/>
	<path clip-path="url(#SVGID_2_)" fill="none" stroke="#000000" stroke-width="0.673" stroke-linejoin="bevel" d="M126.537,47.843
		c0-0.606,0.489-1.095,1.095-1.095c0.602,0,1.09,0.489,1.09,1.095c0,0.601-0.488,1.09-1.09,1.09
		C127.026,48.933,126.537,48.444,126.537,47.843z"/>
	
		<line clip-path="url(#SVGID_2_)" fill="none" stroke="#FFFFFF" stroke-width="0.673" stroke-linecap="round" stroke-linejoin="round" x1="44.636" y1="32.457" x2="43.32" y2="34.233"/>
	
		<line clip-path="url(#SVGID_2_)" fill="none" stroke="#FFFFFF" stroke-width="0.673" stroke-linecap="round" stroke-linejoin="round" x1="45.92" y1="34.781" x2="47.117" y2="33.309"/>
	
		<line clip-path="url(#SVGID_2_)" fill="none" stroke="#FFFFFF" stroke-width="0.673" stroke-linecap="round" stroke-linejoin="round" x1="44.447" y1="58.097" x2="45.026" y2="59.294"/>
	
		<line clip-path="url(#SVGID_2_)" fill="none" stroke="#FFFFFF" stroke-width="0.673" stroke-linecap="round" stroke-linejoin="round" x1="42.217" y1="59.043" x2="42.764" y2="60.21"/>
	
		<path clip-path="url(#SVGID_2_)" fill="none" stroke="#FFFFFF" stroke-width="0.673" stroke-linecap="round" stroke-linejoin="round" d="
		M43.379,61.363c0.66,1.162,1.854,2.948,2.733,4.056"/>
	
		<path clip-path="url(#SVGID_2_)" fill="none" stroke="#FFFFFF" stroke-width="0.673" stroke-linecap="round" stroke-linejoin="round" d="
		M46.956,62.476c1.005,1.405,2.194,2.805,3.531,4.209"/>
	
		<path clip-path="url(#SVGID_2_)" fill="none" stroke="#FFFFFF" stroke-width="0.673" stroke-linecap="round" stroke-linejoin="round" d="
		M41.877,60.686c-0.664-0.444-1.262-0.888-1.817-1.333"/>
	
		<path clip-path="url(#SVGID_2_)" fill="none" stroke="#FFFFFF" stroke-width="0.673" stroke-linecap="round" stroke-linejoin="round" d="
		M36.977,59.474c0.699,0.678,1.346,1.301,2.006,1.871"/>
	
		<path clip-path="url(#SVGID_2_)" fill="none" stroke="#FFFFFF" stroke-width="0.673" stroke-linecap="round" stroke-linejoin="round" d="
		M33.023,53.237c0.201,0.529,0.467,1.104,0.74,1.633"/>
	
		<path clip-path="url(#SVGID_2_)" fill="none" stroke="#FFFFFF" stroke-width="0.673" stroke-linecap="round" stroke-linejoin="round" d="
		M34.76,51.541c0.18,0.521,0.377,1.037,0.592,1.557"/>
	
		<path clip-path="url(#SVGID_2_)" fill="none" stroke="#FFFFFF" stroke-width="0.673" stroke-linecap="round" stroke-linejoin="round" d="
		M28.303,56.603c0.39,0.296,0.799,0.579,1.234,0.835"/>
	
		<path clip-path="url(#SVGID_2_)" fill="none" stroke="#FFFFFF" stroke-width="0.673" stroke-linecap="round" stroke-linejoin="round" d="
		M26.014,57.064c0.485,0.471,1.041,0.902,1.639,1.306"/>
	
		<path clip-path="url(#SVGID_2_)" fill="none" stroke="#FFFFFF" stroke-width="0.673" stroke-linecap="round" stroke-linejoin="round" d="
		M16.748,55.207c0.314,0.215,0.678,0.422,1.014,0.606"/>
	
		<path clip-path="url(#SVGID_2_)" fill="none" stroke="#FFFFFF" stroke-width="0.673" stroke-linecap="round" stroke-linejoin="round" d="
		M15.133,55.857c0.377,0.292,0.771,0.565,1.188,0.826"/>
	
		<path clip-path="url(#SVGID_2_)" fill="none" stroke="#FFFFFF" stroke-width="0.673" stroke-linecap="round" stroke-linejoin="round" d="
		M34.576,37.383c-0.418,0.597-0.826,1.247-1.186,1.97"/>
	
		<path clip-path="url(#SVGID_2_)" fill="none" stroke="#FFFFFF" stroke-width="0.673" stroke-linecap="round" stroke-linejoin="round" d="
		M36.057,39.026c-0.359,0.489-0.678,1.104-0.934,1.674"/>
	
		<path clip-path="url(#SVGID_2_)" fill="none" stroke="#FFFFFF" stroke-width="0.673" stroke-linecap="round" stroke-linejoin="round" d="
		M23.008,48.251c0.099,0.678,0.283,1.355,0.543,2.033"/>
	
		<path clip-path="url(#SVGID_2_)" fill="none" stroke="#FFFFFF" stroke-width="0.673" stroke-linecap="round" stroke-linejoin="round" d="
		M22.389,52.128c-0.188-0.435-0.368-0.866-0.521-1.301"/>
	
		<path clip-path="url(#SVGID_2_)" fill="none" stroke="#FFFFFF" stroke-width="0.673" stroke-linecap="round" stroke-linejoin="round" d="
		M22.64,40.448c-0.22,0.372-0.417,0.758-0.588,1.153"/>
	
		<path clip-path="url(#SVGID_2_)" fill="none" stroke="#FFFFFF" stroke-width="0.673" stroke-linecap="round" stroke-linejoin="round" d="
		M23.707,42.046c-0.328,0.731-0.537,1.44-0.69,2.131"/>
	<polygon clip-path="url(#SVGID_2_)" fill-rule="evenodd" clip-rule="evenodd" points="106.098,15.795 104.433,12.332 
		103.822,15.252 103.02,15.086 104.007,10.371 104.411,10.456 106.04,13.762 106.636,10.917 107.439,11.088 106.438,15.868 	"/>
	<path clip-path="url(#SVGID_2_)" fill-rule="evenodd" clip-rule="evenodd" d="M107.506,14.216c0.108-0.525,0.351-0.924,0.724-1.189
		c0.372-0.265,0.808-0.35,1.306-0.242c0.525,0.107,0.897,0.35,1.117,0.731c0.224,0.377,0.278,0.839,0.161,1.391
		c-0.112,0.552-0.351,0.956-0.713,1.216c-0.363,0.265-0.804,0.341-1.315,0.233c-0.52-0.107-0.893-0.359-1.117-0.744
		C107.448,15.221,107.395,14.759,107.506,14.216 M108.341,14.391c-0.156,0.758,0.036,1.194,0.583,1.31
		c0.252,0.054,0.473-0.004,0.66-0.17c0.188-0.166,0.319-0.436,0.396-0.799c0.157-0.749-0.036-1.18-0.583-1.292
		c-0.247-0.054-0.473,0.004-0.66,0.17C108.547,13.776,108.417,14.037,108.341,14.391"/>
	<path clip-path="url(#SVGID_2_)" fill-rule="evenodd" clip-rule="evenodd" d="M113.654,14.494
		c-0.126-0.126-0.274-0.202-0.444-0.238c-0.188-0.04-0.373,0.009-0.552,0.148c-0.18,0.139-0.296,0.332-0.346,0.575L111.9,16.94
		l-0.805-0.166l0.724-3.447l0.803,0.171l-0.067,0.314c0.278-0.206,0.605-0.269,0.979-0.193c0.274,0.058,0.475,0.144,0.605,0.26
		L113.654,14.494z"/>
	<path clip-path="url(#SVGID_2_)" fill-rule="evenodd" clip-rule="evenodd" d="M117.899,18.196l0.452-2.158
		c0.095-0.449-0.058-0.718-0.466-0.804c-0.122-0.027-0.243-0.013-0.368,0.032c-0.126,0.049-0.225,0.112-0.287,0.197l-0.521,2.486
		l-0.803-0.17l0.475-2.284c0.036-0.166,0.015-0.314-0.07-0.436c-0.087-0.121-0.221-0.202-0.413-0.242
		c-0.1-0.022-0.217-0.004-0.351,0.045c-0.139,0.049-0.243,0.112-0.313,0.193l-0.517,2.477l-0.808-0.171l0.722-3.441l0.558,0.112
		l0.098,0.336c0.274-0.197,0.588-0.255,0.943-0.184c0.457,0.095,0.775,0.292,0.956,0.588c0.12-0.09,0.281-0.152,0.475-0.184
		c0.198-0.027,0.382-0.022,0.561,0.014c0.387,0.08,0.66,0.251,0.83,0.516c0.166,0.264,0.211,0.592,0.13,0.973l-0.475,2.275
		L117.899,18.196z"/>
	<path clip-path="url(#SVGID_2_)" fill-rule="evenodd" clip-rule="evenodd" d="M121.565,18.604c-0.099,0.108-0.247,0.18-0.444,0.216
		c-0.197,0.04-0.396,0.036-0.593-0.005c-0.372-0.076-0.642-0.229-0.816-0.462c-0.175-0.229-0.225-0.516-0.152-0.857
		c0.085-0.395,0.296-0.678,0.646-0.839c0.345-0.162,0.794-0.189,1.346-0.072c0.094,0.018,0.202,0.058,0.323,0.117
		c0.085-0.404-0.13-0.66-0.643-0.768c-0.3-0.062-0.564-0.067-0.789-0.009l-0.045-0.659c0.306-0.076,0.646-0.072,1.027,0.009
		c0.53,0.107,0.889,0.309,1.082,0.601c0.193,0.287,0.224,0.767,0.081,1.436l-0.153,0.736c-0.094,0.458-0.063,0.767,0.094,0.92
		c-0.089,0.103-0.179,0.161-0.264,0.17c-0.09,0.009-0.184,0.005-0.288-0.018c-0.116-0.027-0.211-0.089-0.287-0.197
		C121.619,18.82,121.573,18.712,121.565,18.604 M121.754,17.312c-0.13-0.054-0.233-0.09-0.301-0.108
		c-0.633-0.13-0.996,0.009-1.081,0.427c-0.067,0.309,0.081,0.502,0.439,0.574c0.48,0.103,0.771-0.09,0.875-0.57L121.754,17.312z"/>
	<path clip-path="url(#SVGID_2_)" fill-rule="evenodd" clip-rule="evenodd" d="M124.213,14.584l0.844-0.027l-0.813,3.877
		c-0.086,0.422-0.014,0.7,0.225,0.835c-0.175,0.211-0.413,0.287-0.714,0.224c-0.363-0.076-0.493-0.368-0.386-0.875L124.213,14.584z"
		/>
	<polygon clip-path="url(#SVGID_2_)" fill-rule="evenodd" clip-rule="evenodd" points="139.438,18.142 142.826,20.372 
		142.358,21.086 138.967,18.86 138.128,20.139 137.495,19.722 139.68,16.387 140.316,16.805 	"/>
	<path clip-path="url(#SVGID_2_)" fill-rule="evenodd" clip-rule="evenodd" d="M144.356,17.402c0.063,0.125,0.075,0.291,0.04,0.489
		c-0.036,0.197-0.112,0.381-0.221,0.547c-0.211,0.319-0.453,0.516-0.73,0.593c-0.278,0.076-0.562,0.017-0.854-0.171
		c-0.341-0.224-0.52-0.525-0.547-0.911c-0.022-0.381,0.117-0.808,0.426-1.274c0.055-0.081,0.13-0.171,0.229-0.261
		c-0.346-0.228-0.664-0.121-0.951,0.315c-0.166,0.26-0.265,0.502-0.296,0.736l-0.629-0.202c0.041-0.315,0.171-0.633,0.382-0.956
		c0.296-0.449,0.614-0.714,0.956-0.785c0.341-0.077,0.794,0.076,1.364,0.448l0.632,0.413c0.391,0.256,0.687,0.341,0.893,0.247
		c0.063,0.126,0.081,0.229,0.06,0.309c-0.023,0.086-0.063,0.176-0.126,0.265c-0.063,0.099-0.157,0.162-0.283,0.193
		C144.576,17.429,144.463,17.429,144.356,17.402 M143.225,16.751c-0.103,0.099-0.171,0.18-0.211,0.238
		c-0.354,0.543-0.354,0.929,0,1.162c0.266,0.175,0.494,0.108,0.696-0.197c0.273-0.413,0.202-0.754-0.211-1.023L143.225,16.751z"/>
	<path clip-path="url(#SVGID_2_)" fill-rule="evenodd" clip-rule="evenodd" d="M146.788,14.342l-1.701-1.117
		c-0.251-0.166-0.466-0.238-0.641-0.216c-0.181,0.018-0.342,0.139-0.485,0.355c-0.067,0.103-0.108,0.229-0.126,0.381
		c-0.018,0.148-0.009,0.287,0.036,0.404l2.123,1.396l-0.449,0.686l-2.944-1.929l0.328-0.494l0.354,0.054
		c-0.095-0.332-0.022-0.682,0.216-1.046c0.229-0.35,0.516-0.556,0.856-0.619c0.346-0.067,0.704,0.027,1.077,0.269l1.809,1.189
		L146.788,14.342z"/>
	<path clip-path="url(#SVGID_2_)" fill-rule="evenodd" clip-rule="evenodd" d="M148.336,13.628l-0.251-0.786
		c0.381-0.098,0.664-0.291,0.856-0.588c0.131-0.197,0.212-0.376,0.233-0.547c0.027-0.166-0.013-0.283-0.112-0.35
		c-0.175-0.112-0.354-0.027-0.543,0.256c-0.049,0.076-0.115,0.197-0.196,0.359c-0.081,0.166-0.148,0.287-0.198,0.363
		c-0.31,0.471-0.637,0.597-0.973,0.377c-0.1-0.067-0.166-0.166-0.212-0.309c-0.041-0.139-0.05-0.274-0.022-0.409
		c-0.44,0.193-0.857,0.157-1.256-0.103c-0.314-0.211-0.503-0.494-0.558-0.861c-0.053-0.368,0.032-0.718,0.252-1.055
		c0.176-0.265,0.368-0.453,0.583-0.565l-0.135-0.476l0.741-0.188l0.027,0.48c0.247,0,0.483,0.076,0.722,0.233
		c0.332,0.22,0.534,0.498,0.601,0.835c0.068,0.332-0.004,0.659-0.206,0.969c-0.035,0.049-0.081,0.112-0.144,0.188l-0.094,0.104
		c-0.004,0.013-0.019,0.071-0.036,0.183c-0.019,0.113-0.004,0.18,0.041,0.207c0.072,0.049,0.147,0.009,0.232-0.117
		c0.036-0.054,0.085-0.161,0.148-0.309c0.058-0.153,0.121-0.279,0.184-0.373c0.436-0.668,0.925-0.825,1.463-0.476
		c0.297,0.198,0.44,0.485,0.436,0.862c-0.009,0.377-0.134,0.758-0.381,1.135C149.243,13.117,148.843,13.439,148.336,13.628
		 M146.124,11.191c0.175,0.112,0.346,0.157,0.512,0.13c0.17-0.027,0.31-0.121,0.417-0.283c0.104-0.166,0.134-0.323,0.09-0.48
		c-0.045-0.152-0.156-0.291-0.337-0.408c-0.147-0.099-0.305-0.135-0.467-0.108c-0.166,0.027-0.296,0.117-0.396,0.265
		c-0.103,0.162-0.139,0.319-0.103,0.485C145.873,10.954,145.967,11.088,146.124,11.191"/>
	<path clip-path="url(#SVGID_2_)" fill-rule="evenodd" clip-rule="evenodd" d="M150.046,6.632l-1.383,2.105
		c0.242,0.139,0.48,0.179,0.705,0.117c0.229-0.063,0.427-0.22,0.587-0.472c0.207-0.314,0.283-0.605,0.229-0.875l0.696,0.077
		c0.04,0.372-0.1,0.798-0.413,1.274c-0.296,0.449-0.66,0.718-1.096,0.808c-0.435,0.09-0.888-0.023-1.359-0.332
		c-0.462-0.305-0.74-0.691-0.843-1.167c-0.1-0.476-0.015-0.915,0.246-1.315c0.282-0.43,0.633-0.686,1.06-0.78
		c0.421-0.09,0.83-0.005,1.225,0.255C149.785,6.381,149.897,6.484,150.046,6.632 M148.165,8.369l0.947-1.445
		c-0.462-0.233-0.83-0.135-1.113,0.292C147.739,7.606,147.798,7.992,148.165,8.369"/>
	<path clip-path="url(#SVGID_2_)" fill-rule="evenodd" clip-rule="evenodd" d="M152.949,4.963l-1.701-1.117
		c-0.251-0.166-0.466-0.238-0.646-0.216c-0.179,0.018-0.336,0.139-0.479,0.355c-0.067,0.103-0.108,0.229-0.13,0.381
		c-0.019,0.148-0.005,0.287,0.036,0.404l2.127,1.396l-0.449,0.686l-2.944-1.929l0.324-0.494l0.358,0.054
		c-0.099-0.332-0.026-0.682,0.216-1.046c0.229-0.35,0.516-0.556,0.856-0.619c0.341-0.067,0.7,0.027,1.077,0.269l1.804,1.189
		L152.949,4.963z"/>
	<path clip-path="url(#SVGID_2_)" fill-rule="evenodd" clip-rule="evenodd" d="M151.566,1.858l-0.224,0.341l-0.552-0.363
		l0.224-0.341l-0.601-0.391l0.197-0.852l0.853,0.556L151.993,0l0.552,0.364l-0.529,0.807l1.288,0.849
		c0.21,0.139,0.381,0.201,0.511,0.192c0.131-0.008,0.251-0.094,0.359-0.26s0.162-0.35,0.166-0.547l0.633,0.413
		c-0.05,0.197-0.171,0.439-0.364,0.736c-0.192,0.291-0.421,0.462-0.69,0.511c-0.27,0.049-0.556-0.027-0.866-0.229L151.566,1.858z"/>
</g>
<g>
	<defs>
		<path id="SVGID_7_" d="M0.898,136.231c3.18-3.323,7.461-2.565,11.072-0.967c3.588,1.58,6.944,4.134,9.854,6.666
			c5.8,5.047,11.384,11.553,16.013,17.637c9.418,12.39,17.84,26.843,24.658,40.772c10.741-15.848,24.781-30.652,40.705-41.492
			c7.803-5.313,16.93-10.229,26.07-12.956c8.844-2.638,19.682-3.778,28.336,1.577c-6.857-13.79-15.896-26.671-27.386-36.825
			c-5.82-5.149-12.275-9.595-19.386-12.876c-8.501-3.919-17.937-6.176-27.276-6.713c-1.471-0.085-2.94-0.126-4.405-0.126
			C47.819,90.928,18.082,109.91,0.898,136.231"/>
	</defs>
	<clipPath id="SVGID_8_">
		<use xlink:href="#SVGID_7_"  overflow="visible"/>
	</clipPath>
	
		<radialGradient id="SVGID_9_" cx="-320.6987" cy="397.439" r="1" gradientTransform="matrix(109.2844 0 0 -109.2844 35096.9453 43541.5508)" gradientUnits="userSpaceOnUse">
		<stop  offset="0" style="stop-color:#FFCB0F"/>
		<stop  offset="1" style="stop-color:#DD3B00"/>
	</radialGradient>
	<rect x="0.898" y="90.928" clip-path="url(#SVGID_8_)" fill="url(#SVGID_9_)" width="156.707" height="109.411"/>
</g>
<g>
	<defs>
		<rect id="SVGID_10_" y="82.764" width="158.504" height="118.474"/>
	</defs>
	<clipPath id="SVGID_11_">
		<use xlink:href="#SVGID_10_"  overflow="visible"/>
	</clipPath>
	
		<path clip-path="url(#SVGID_11_)" fill="none" stroke="#000000" stroke-width="0.951" stroke-linecap="round" stroke-linejoin="round" d="
		M157.605,147.468c-6.856-13.79-15.895-26.67-27.385-36.824c-5.821-5.148-12.276-9.596-19.386-12.877
		c-8.501-3.918-17.938-6.176-27.275-6.713c-32.931-1.885-64.674,17.624-82.661,45.178c3.18-3.322,7.461-2.566,11.071-0.968
		c3.589,1.581,6.946,4.134,9.854,6.666c5.8,5.048,11.384,11.553,16.013,17.637c9.419,12.39,17.84,26.843,24.658,40.772
		c10.741-15.849,24.78-30.652,40.705-41.491c7.804-5.313,16.931-10.229,26.069-12.957
		C138.113,143.253,148.952,142.112,157.605,147.468z"/>
	
		<path clip-path="url(#SVGID_11_)" fill="none" stroke="#000000" stroke-width="0.634" stroke-linecap="round" stroke-linejoin="round" stroke-dasharray="1.264,1.264" d="
		M140.046,120.59c-8.29-5.36-19.13-4.802-27.9-2.798c-9.216,2.105-18.423,6.273-26.485,11.033
		c-16.254,9.587-31.134,23.411-42.035,38.786"/>
	
		<path clip-path="url(#SVGID_11_)" fill="none" stroke="#000000" stroke-width="0.634" stroke-linecap="round" stroke-linejoin="round" stroke-dasharray="1.264,1.264" d="
		M120.27,103.115c-8.099-5.111-18.244-5.47-27.121-4.054c-9.128,1.454-18.221,4.95-26.3,9.254
		c-16.203,8.623-31.02,21.834-41.36,37.018"/>
	
		<path clip-path="url(#SVGID_11_)" fill="none" stroke="#000000" stroke-width="0.634" stroke-linecap="round" stroke-linejoin="round" stroke-dasharray="1.264,1.264" d="
		M87.259,91.274c-15.125-1.678-31.32,4.329-43.673,11.815c-13.016,7.889-24.518,18.922-32.867,31.667"/>
	
		<path clip-path="url(#SVGID_11_)" fill="none" stroke="#000000" stroke-width="0.634" stroke-linecap="round" stroke-linejoin="round" stroke-dasharray="1.264,1.264" d="
		M49.906,96.389c7.147-2.697,15.789,1.112,21.428,4.464c6.354,3.775,12.378,8.979,17.493,14.229
		c10.331,10.603,19.264,23.674,25.926,36.82"/>
	
		<path clip-path="url(#SVGID_11_)" fill="none" stroke="#000000" stroke-width="0.634" stroke-linecap="round" stroke-linejoin="round" stroke-dasharray="1.264,1.264" d="
		M81.07,90.86c13.1,0.389,26.687,11.282,34.812,19.603c9.41,9.633,17.315,21.373,23.184,33.426"/>
	
		<path clip-path="url(#SVGID_11_)" fill="none" stroke="#000000" stroke-width="0.634" stroke-linecap="round" stroke-linejoin="round" stroke-dasharray="1.264,1.264" d="
		M22.605,112.191c3.324-2.706,7.537-2.309,11.178-1.15c3.83,1.219,7.105,3.176,10.353,5.449
		c6.223,4.363,12.226,10.243,17.235,15.878c10.183,11.456,19.268,25.208,26.373,38.728"/>
	<g opacity="0.67" clip-path="url(#SVGID_11_)">
		<g>
			<defs>
				<rect id="SVGID_12_" x="91.452" y="98.799" width="58.595" height="38.088"/>
			</defs>
			<clipPath id="SVGID_13_">
				<use xlink:href="#SVGID_12_"  overflow="visible"/>
			</clipPath>
			<polygon clip-path="url(#SVGID_13_)" fill-rule="evenodd" clip-rule="evenodd" fill="#FFFFFF" points="91.452,100.908 
				118.947,136.887 150.047,131.396 123.344,98.799 			"/>
		</g>
	</g>
</g>
<line fill="none" stroke="#CB0000" stroke-width="0.951" stroke-linecap="round" stroke-linejoin="round" x1="121.306" y1="116.444" x2="136.347" y2="114.673"/>
<line fill="none" stroke="#1C9B00" stroke-width="0.951" stroke-linecap="round" stroke-linejoin="round" x1="121.306" y1="116.444" x2="109.98" y2="99.683"/>
<polygon fill="none" stroke="#000000" stroke-width="0.951" stroke-linecap="round" stroke-linejoin="round" points="
	91.452,100.908 118.947,136.887 150.047,131.396 123.344,98.799 "/>
<g>
	<defs>
		<rect id="SVGID_14_" y="82.764" width="158.504" height="118.474"/>
	</defs>
	<clipPath id="SVGID_15_">
		<use xlink:href="#SVGID_14_"  overflow="visible"/>
	</clipPath>
	<g opacity="0.5" clip-path="url(#SVGID_15_)">
		<g>
			<defs>
				<rect id="SVGID_16_" x="35.141" y="103.205" width="28.507" height="23.283"/>
			</defs>
			<clipPath id="SVGID_17_">
				<use xlink:href="#SVGID_16_"  overflow="visible"/>
			</clipPath>
			<g clip-path="url(#SVGID_17_)">
				<defs>
					<rect id="SVGID_18_" x="35.141" y="103.205" width="28.506" height="23.283"/>
				</defs>
				<clipPath id="SVGID_19_">
					<use xlink:href="#SVGID_18_"  overflow="visible"/>
				</clipPath>
				<path clip-path="url(#SVGID_19_)" fill-rule="evenodd" clip-rule="evenodd" fill="#FFFFFF" d="M44.398,105.905
					c7.363-4.116,15.581-3.45,18.342,1.488c2.757,4.938-0.985,12.284-8.354,16.397c-7.363,4.113-15.582,3.445-18.338-1.488
					C33.289,117.365,37.029,110.018,44.398,105.905"/>
			</g>
		</g>
	</g>
	<path clip-path="url(#SVGID_15_)" fill-rule="evenodd" clip-rule="evenodd" d="M121.382,116.913
		c-0.119,0.017-0.249-0.008-0.355-0.085c-0.211-0.156-0.258-0.452-0.105-0.663l16.698-23.107l-0.771-0.558l3.104-1.864l-0.79,3.534
		l-0.773-0.558l-16.698,23.106C121.615,116.828,121.5,116.892,121.382,116.913"/>
	<path clip-path="url(#SVGID_15_)" fill-rule="evenodd" clip-rule="evenodd" fill="#FFFFFF" d="M120.325,116.453
		c0-0.566,0.46-1.031,1.03-1.031c0.567,0,1.032,0.465,1.032,1.031c0,0.57-0.465,1.03-1.032,1.03
		C120.785,117.483,120.325,117.023,120.325,116.453"/>
	<path clip-path="url(#SVGID_15_)" fill="none" stroke="#000000" stroke-width="0.634" stroke-linejoin="bevel" d="M120.325,116.453
		c0-0.566,0.46-1.031,1.03-1.031c0.567,0,1.032,0.465,1.032,1.031c0,0.57-0.465,1.03-1.032,1.03
		C120.785,117.483,120.325,117.023,120.325,116.453z"/>
	<polygon clip-path="url(#SVGID_15_)" fill-rule="evenodd" clip-rule="evenodd" points="131.54,99.593 127.926,99.72 
		130.217,101.353 129.768,101.982 126.069,99.349 126.294,99.032 129.768,98.875 127.537,97.286 127.985,96.655 131.73,99.322 	"/>
	<path clip-path="url(#SVGID_15_)" fill-rule="evenodd" clip-rule="evenodd" d="M130.712,97.78
		c-0.415-0.291-0.664-0.651-0.753-1.073c-0.089-0.423,0.005-0.829,0.283-1.218c0.291-0.41,0.643-0.643,1.053-0.689
		c0.409-0.051,0.833,0.076,1.264,0.385c0.432,0.308,0.688,0.668,0.778,1.078c0.093,0.414-0.009,0.82-0.292,1.221
		c-0.296,0.41-0.651,0.639-1.069,0.681C131.557,98.21,131.135,98.084,130.712,97.78 M131.177,97.125
		c0.596,0.423,1.048,0.423,1.353-0.008c0.139-0.195,0.173-0.406,0.102-0.635c-0.072-0.224-0.253-0.439-0.537-0.642
		c-0.587-0.419-1.035-0.414-1.34,0.013c-0.141,0.198-0.174,0.41-0.103,0.638C130.725,96.715,130.901,96.926,131.177,97.125"/>
	<path clip-path="url(#SVGID_15_)" fill-rule="evenodd" clip-rule="evenodd" d="M133.273,92.581
		c-0.152,0.059-0.279,0.156-0.372,0.292c-0.106,0.148-0.131,0.325-0.08,0.532c0.05,0.207,0.173,0.381,0.363,0.516l1.539,1.095
		l-0.448,0.63l-2.701-1.924l0.448-0.63l0.249,0.178c-0.072-0.317-0.004-0.626,0.203-0.917c0.151-0.216,0.305-0.355,0.451-0.423
		L133.273,92.581z"/>
	<path clip-path="url(#SVGID_15_)" fill-rule="evenodd" clip-rule="evenodd" d="M138.075,90.314l-1.69-1.205
		c-0.355-0.253-0.646-0.22-0.875,0.097c-0.063,0.093-0.103,0.203-0.11,0.33c-0.004,0.127,0.013,0.233,0.064,0.321l1.947,1.387
		l-0.451,0.634l-1.788-1.277c-0.131-0.093-0.268-0.131-0.406-0.101c-0.136,0.025-0.258,0.114-0.364,0.262
		c-0.055,0.08-0.089,0.186-0.097,0.321c-0.008,0.136,0.008,0.25,0.051,0.343l1.94,1.382l-0.448,0.63l-2.701-1.923l0.309-0.432
		l0.329,0.038c-0.067-0.308,0-0.604,0.195-0.883c0.258-0.355,0.545-0.558,0.871-0.6c-0.034-0.144-0.026-0.305,0.021-0.482
		c0.047-0.178,0.122-0.338,0.225-0.482c0.211-0.3,0.465-0.474,0.756-0.516c0.292-0.046,0.588,0.038,0.888,0.254l1.784,1.272
		L138.075,90.314z"/>
	<path clip-path="url(#SVGID_15_)" fill-rule="evenodd" clip-rule="evenodd" d="M139.809,87.309
		c0.055,0.123,0.059,0.275,0.021,0.461c-0.042,0.186-0.117,0.355-0.228,0.512c-0.207,0.287-0.444,0.465-0.706,0.528
		c-0.266,0.063-0.533,0-0.799-0.19c-0.313-0.224-0.473-0.516-0.482-0.875c-0.013-0.36,0.141-0.757,0.449-1.188
		c0.05-0.076,0.126-0.152,0.223-0.237c-0.316-0.224-0.62-0.14-0.908,0.262c-0.169,0.237-0.271,0.465-0.305,0.681l-0.588-0.212
		c0.051-0.291,0.187-0.587,0.398-0.887c0.292-0.41,0.6-0.647,0.926-0.702c0.325-0.059,0.748,0.097,1.272,0.469l0.574,0.41
		c0.359,0.258,0.639,0.347,0.833,0.266c0.056,0.119,0.067,0.216,0.042,0.296c-0.021,0.081-0.063,0.161-0.123,0.241
		c-0.063,0.093-0.155,0.148-0.273,0.174C140.016,87.343,139.905,87.338,139.809,87.309 M138.765,86.654
		c-0.097,0.093-0.165,0.165-0.203,0.22c-0.354,0.499-0.368,0.862-0.042,1.095c0.241,0.173,0.461,0.118,0.664-0.161
		c0.266-0.38,0.211-0.706-0.166-0.972L138.765,86.654z"/>
	<path clip-path="url(#SVGID_15_)" fill-rule="evenodd" clip-rule="evenodd" d="M137.34,83.5l0.296-0.736l3.039,2.161
		c0.33,0.241,0.602,0.283,0.809,0.126c0.113,0.233,0.089,0.465-0.081,0.698c-0.202,0.287-0.503,0.287-0.9,0.004L137.34,83.5z"/>
	<polygon clip-path="url(#SVGID_15_)" fill-rule="evenodd" clip-rule="evenodd" points="141.551,111.134 138.54,113.49 
		138.046,112.855 141.056,110.5 140.168,109.363 140.729,108.923 143.043,111.882 142.48,112.322 	"/>
	<path clip-path="url(#SVGID_15_)" fill-rule="evenodd" clip-rule="evenodd" d="M140.729,115.75
		c-0.135,0.012-0.282-0.026-0.446-0.114c-0.166-0.093-0.31-0.216-0.424-0.363c-0.22-0.283-0.325-0.559-0.309-0.828
		c0.013-0.271,0.152-0.508,0.41-0.711c0.3-0.236,0.625-0.309,0.977-0.215c0.347,0.092,0.685,0.351,1.011,0.765
		c0.055,0.071,0.109,0.169,0.165,0.282c0.304-0.24,0.308-0.554,0.004-0.942c-0.183-0.228-0.368-0.394-0.566-0.486l0.371-0.503
		c0.263,0.131,0.508,0.344,0.736,0.635c0.313,0.397,0.447,0.76,0.414,1.086c-0.038,0.326-0.309,0.689-0.816,1.082l-0.557,0.44
		c-0.348,0.271-0.513,0.511-0.491,0.724c-0.127,0.016-0.225,0.004-0.296-0.043c-0.067-0.047-0.131-0.111-0.194-0.19
		c-0.068-0.084-0.097-0.19-0.089-0.313C140.642,115.937,140.675,115.834,140.729,115.75 M141.652,114.935
		c-0.06-0.123-0.11-0.207-0.148-0.263c-0.376-0.478-0.723-0.596-1.04-0.351c-0.233,0.182-0.245,0.41-0.034,0.681
		c0.288,0.367,0.613,0.405,0.981,0.122L141.652,114.935z"/>
	<path clip-path="url(#SVGID_15_)" fill-rule="evenodd" clip-rule="evenodd" d="M142.729,118.84l1.509-1.179
		c0.225-0.178,0.352-0.348,0.39-0.512c0.034-0.166-0.026-0.348-0.173-0.537c-0.072-0.09-0.174-0.165-0.301-0.229
		c-0.131-0.063-0.258-0.093-0.377-0.093l-1.885,1.479l-0.478-0.612l2.612-2.042l0.343,0.439l-0.156,0.305
		c0.325,0.012,0.613,0.182,0.866,0.502c0.246,0.313,0.343,0.631,0.296,0.955c-0.046,0.326-0.232,0.617-0.566,0.88l-1.602,1.252
		L142.729,118.84z"/>
	<path clip-path="url(#SVGID_15_)" fill-rule="evenodd" clip-rule="evenodd" d="M142.898,120.439l0.774,0.012
		c-0.026,0.368,0.063,0.681,0.266,0.943c0.135,0.174,0.275,0.3,0.419,0.371c0.14,0.072,0.258,0.072,0.347,0.004
		c0.156-0.121,0.136-0.308-0.063-0.562c-0.055-0.067-0.14-0.16-0.262-0.283c-0.123-0.122-0.212-0.22-0.263-0.286
		c-0.329-0.42-0.343-0.75-0.043-0.981c0.085-0.068,0.199-0.103,0.334-0.093c0.141,0.004,0.263,0.037,0.378,0.101
		c-0.044-0.452,0.117-0.815,0.473-1.09c0.279-0.22,0.588-0.296,0.934-0.237c0.344,0.063,0.63,0.241,0.863,0.541
		c0.186,0.237,0.295,0.465,0.329,0.693l0.465,0.021l-0.055,0.719l-0.436-0.123c-0.076,0.22-0.216,0.41-0.427,0.574
		c-0.296,0.233-0.604,0.33-0.926,0.289c-0.317-0.043-0.587-0.203-0.803-0.479c-0.034-0.046-0.076-0.105-0.122-0.186l-0.064-0.115
		c-0.013-0.008-0.063-0.037-0.156-0.088c-0.093-0.047-0.161-0.056-0.198-0.025c-0.063,0.051-0.052,0.131,0.033,0.24
		c0.042,0.051,0.118,0.128,0.237,0.229c0.118,0.098,0.207,0.19,0.274,0.275c0.466,0.592,0.457,1.078-0.018,1.449
		c-0.266,0.207-0.562,0.25-0.899,0.127c-0.334-0.118-0.635-0.346-0.896-0.681C143.081,121.398,142.916,120.946,142.898,120.439
		 M145.739,119.196c-0.151,0.123-0.244,0.262-0.271,0.423c-0.029,0.156,0.017,0.309,0.127,0.452c0.114,0.144,0.25,0.22,0.402,0.228
		c0.151,0.006,0.304-0.05,0.465-0.177c0.131-0.103,0.211-0.233,0.236-0.385c0.025-0.156-0.013-0.3-0.118-0.435
		c-0.11-0.141-0.241-0.221-0.397-0.238C146.026,119.043,145.879,119.089,145.739,119.196"/>
	<path clip-path="url(#SVGID_15_)" fill-rule="evenodd" clip-rule="evenodd" d="M148.627,124.07l-1.463-1.865
		c-0.198,0.174-0.304,0.373-0.317,0.597c-0.012,0.22,0.068,0.444,0.245,0.664c0.216,0.278,0.453,0.435,0.711,0.465l-0.279,0.601
		c-0.343-0.076-0.681-0.33-1.015-0.756c-0.308-0.398-0.439-0.805-0.389-1.219c0.055-0.414,0.288-0.786,0.706-1.111
		c0.41-0.321,0.846-0.457,1.298-0.401c0.456,0.055,0.82,0.262,1.099,0.616c0.296,0.381,0.423,0.773,0.376,1.18
		c-0.046,0.406-0.245,0.744-0.596,1.02C148.927,123.917,148.805,123.986,148.627,124.07 M147.642,121.867l1.002,1.285
		c0.352-0.342,0.376-0.701,0.076-1.082C148.449,121.719,148.09,121.656,147.642,121.867"/>
	<path clip-path="url(#SVGID_15_)" fill-rule="evenodd" clip-rule="evenodd" d="M149.24,127.168l1.513-1.185
		c0.22-0.172,0.351-0.342,0.385-0.506c0.038-0.166-0.021-0.348-0.173-0.541c-0.068-0.09-0.169-0.166-0.3-0.225
		c-0.128-0.064-0.254-0.093-0.372-0.093l-1.89,1.475l-0.474-0.608l2.607-2.041l0.347,0.438l-0.156,0.302
		c0.321,0.012,0.613,0.18,0.866,0.506c0.242,0.309,0.339,0.625,0.297,0.951c-0.047,0.325-0.236,0.621-0.57,0.879l-1.603,1.256
		L149.24,127.168z"/>
	<path clip-path="url(#SVGID_15_)" fill-rule="evenodd" clip-rule="evenodd" d="M152.428,126.869l-0.237-0.305l0.491-0.381
		l0.235,0.301l0.533-0.414l0.702,0.435l-0.757,0.588l0.558,0.719l-0.486,0.384l-0.562-0.718l-1.146,0.896
		c-0.186,0.145-0.296,0.279-0.325,0.397c-0.033,0.119,0.009,0.25,0.123,0.398c0.113,0.147,0.262,0.253,0.439,0.317l-0.558,0.438
		c-0.161-0.104-0.343-0.287-0.55-0.55c-0.203-0.258-0.283-0.516-0.245-0.773c0.038-0.253,0.189-0.486,0.461-0.702L152.428,126.869z"
		/>
</g>
</svg>
