<?xml version="1.0" encoding="utf-8"?>
<!-- Generator: Adobe Illustrator 14.0.0, SVG Export Plug-In . SVG Version: 6.00 Build 43363)  -->
<!DOCTYPE svg PUBLIC "-//W3C//DTD SVG 1.0//EN" "http://www.w3.org/TR/2001/REC-SVG-20010904/DTD/svg10.dtd">
<svg version="1.0" id="Layer_1" xmlns="http://www.w3.org/2000/svg" xmlns:xlink="http://www.w3.org/1999/xlink" x="0px" y="0px"
	 width="418.212px" height="333.804px" viewBox="0 0 418.212 333.804" enable-background="new 0 0 418.212 333.804"
	 xml:space="preserve">
<path fill-rule="evenodd" clip-rule="evenodd" fill="none" stroke="#404040" stroke-width="0.83" stroke-linecap="round" stroke-linejoin="bevel" d="
	M220.455,37.034c-3.59,5.84-7.26,11.54-11.18,17.01c-3.3,4.61-6.69,9.09-10.2,13.45c-17.65,21.86-38.18,40.59-61.74,56.01
	c-8.52,5.58-17.48,10.67-26.9,15.28c-9.15,4.48-18.66,8.41-28.08,11.6c-5.98,2.02-11.96,3.84-17.99,5.34
	c-5.96,1.5-11.93,2.77-17.93,3.83c-15.18,2.66-30.53,3.69-46.02,3.31"/>
<path fill-rule="evenodd" clip-rule="evenodd" fill="none" stroke="#424242" stroke-width="0.83" stroke-linecap="round" stroke-linejoin="bevel" d="
	M220.435,37.014c-1.73,2.81-3.471,5.58-5.26,8.31c-1.891,2.91-3.84,5.77-5.84,8.57c-3.32,4.62-6.721,9.13-10.25,13.51
	c-4.67,5.76-9.53,11.31-14.61,16.64c-6.73,7.07-13.83,13.75-21.29,20.04c-3.8,3.19-7.69,6.29-11.68,9.27
	c-4.54,3.41-9.21,6.68-14.01,9.81c-8.54,5.57-17.52,10.66-26.94,15.25c-6.24,3.04-12.64,5.82-19.06,8.29
	c-3.14,1.2-6.29,2.33-9.43,3.38c-5.9,1.99-11.82,3.77-17.78,5.26c-5.89,1.47-11.79,2.73-17.72,3.76
	c-15.22,2.66-30.62,3.69-46.14,3.3"/>
<path fill-rule="evenodd" clip-rule="evenodd" fill="none" stroke="#454545" stroke-width="0.83" stroke-linecap="round" stroke-linejoin="bevel" d="
	M220.405,37.004c-1.71,2.78-3.44,5.53-5.21,8.24c-1.88,2.88-3.81,5.72-5.8,8.49c-3.33,4.65-6.75,9.18-10.3,13.57
	c-4.66,5.74-9.51,11.27-14.57,16.57c-6.72,7.04-13.8,13.7-21.25,19.95c-3.78,3.18-7.67,6.26-11.64,9.24
	c-4.54,3.38-9.2,6.64-13.98,9.75c-8.55,5.58-17.55,10.65-26.99,15.24c-6.33,3.07-12.81,5.86-19.32,8.34
	c-3.18,1.21-6.37,2.34-9.56,3.39c-5.84,1.96-11.69,3.71-17.58,5.17c-5.82,1.45-11.66,2.69-17.52,3.71
	c-15.25,2.65-30.69,3.67-46.25,3.28"/>
<path fill-rule="evenodd" clip-rule="evenodd" fill="none" stroke="#4A4A4A" stroke-width="0.83" stroke-linecap="round" stroke-linejoin="bevel" d="
	M220.385,36.984c-1.7,2.76-3.421,5.49-5.171,8.17c-1.87,2.86-3.779,5.68-5.759,8.43c-3.341,4.67-6.781,9.22-10.351,13.62
	c-4.65,5.72-9.49,11.23-14.54,16.51c-6.7,7.01-13.76,13.63-21.19,19.86c-3.78,3.17-7.66,6.23-11.62,9.19
	c-4.53,3.37-9.17,6.61-13.94,9.71c-8.57,5.57-17.58,10.63-27.04,15.22c-6.41,3.09-12.98,5.9-19.57,8.39
	c-3.23,1.21-6.47,2.35-9.7,3.4c-5.77,1.92-11.56,3.65-17.38,5.08c-5.75,1.43-11.52,2.65-17.31,3.65
	c-15.3,2.65-30.77,3.67-46.37,3.27"/>
<path fill-rule="evenodd" clip-rule="evenodd" fill="none" stroke="#4C4C4C" stroke-width="0.83" stroke-linecap="round" stroke-linejoin="bevel" d="
	M220.365,36.964c-1.689,2.74-3.39,5.44-5.13,8.11c-1.86,2.83-3.76,5.63-5.71,8.36c-3.36,4.69-6.82,9.25-10.42,13.67
	c-4.63,5.7-9.46,11.18-14.49,16.44c-6.69,6.98-13.74,13.58-21.15,19.78c-3.77,3.15-7.63,6.2-11.59,9.15
	c-4.51,3.35-9.14,6.57-13.9,9.66c-8.58,5.56-17.61,10.62-27.09,15.19c-6.5,3.13-13.15,5.96-19.83,8.45
	c-3.28,1.22-6.55,2.36-9.83,3.41c-5.71,1.89-11.43,3.58-17.18,5c-5.69,1.4-11.38,2.6-17.1,3.59c-15.34,2.64-30.85,3.65-46.49,3.25"
	/>
<path fill-rule="evenodd" clip-rule="evenodd" fill="none" stroke="#525252" stroke-width="0.83" stroke-linecap="round" stroke-linejoin="bevel" d="
	M220.335,36.944c-1.671,2.71-3.36,5.4-5.091,8.04c-1.83,2.82-3.72,5.58-5.659,8.29c-3.371,4.72-6.851,9.3-10.471,13.74
	c-4.61,5.67-9.43,11.13-14.46,16.36c-6.67,6.96-13.7,13.53-21.1,19.7c-3.76,3.13-7.61,6.17-11.56,9.1
	c-4.5,3.34-9.12,6.54-13.86,9.61c-8.6,5.56-17.64,10.61-27.14,15.18c-6.59,3.15-13.32,6-20.09,8.5c-3.32,1.22-6.64,2.37-9.96,3.43
	c-5.64,1.85-11.29,3.51-16.98,4.9c-5.62,1.37-11.25,2.56-16.9,3.53c-15.37,2.64-30.92,3.65-46.6,3.24"/>
<path fill-rule="evenodd" clip-rule="evenodd" fill="none" stroke="#575757" stroke-width="0.83" stroke-linecap="round" stroke-linejoin="bevel" d="
	M220.315,36.924c-1.66,2.69-3.33,5.35-5.05,7.97c-1.82,2.8-3.69,5.54-5.62,8.23c-3.38,4.74-6.88,9.34-10.52,13.79
	c-4.6,5.65-9.41,11.09-14.42,16.3c-6.66,6.92-13.68,13.46-21.05,19.6c-3.76,3.13-7.6,6.15-11.54,9.06
	c-4.49,3.32-9.09,6.51-13.82,9.57c-8.61,5.55-17.67,10.6-27.19,15.15c-6.67,3.18-13.49,6.05-20.34,8.56
	c-3.37,1.23-6.74,2.38-10.1,3.44c-5.57,1.81-11.16,3.45-16.78,4.81c-5.55,1.35-11.11,2.52-16.69,3.48
	c-15.42,2.63-31,3.64-46.71,3.22"/>
<path fill-rule="evenodd" clip-rule="evenodd" fill="none" stroke="#595959" stroke-width="0.83" stroke-linecap="round" stroke-linejoin="bevel" d="
	M220.294,36.904c-1.649,2.67-3.31,5.31-5.01,7.91c-1.81,2.77-3.67,5.49-5.579,8.16c-3.401,4.76-6.911,9.37-10.571,13.84
	c-4.59,5.63-9.39,11.04-14.39,16.23c-6.64,6.89-13.64,13.41-21,19.52c-3.74,3.11-7.58,6.12-11.51,9.02
	c-4.47,3.3-9.06,6.47-13.78,9.51c-8.63,5.55-17.7,10.59-27.24,15.14c-6.76,3.21-13.66,6.09-20.6,8.61
	c-3.41,1.23-6.82,2.39-10.23,3.45c-5.51,1.78-11.03,3.38-16.58,4.73c-5.48,1.32-10.97,2.47-16.49,3.41
	c-15.45,2.63-31.07,3.63-46.82,3.21"/>
<path fill-rule="evenodd" clip-rule="evenodd" fill="none" stroke="#5E5E5E" stroke-width="0.83" stroke-linecap="round" stroke-linejoin="bevel" d="
	M220.265,36.884c-1.63,2.65-3.28,5.27-4.961,7.84c-1.799,2.75-3.64,5.45-5.529,8.09c-3.42,4.78-6.95,9.42-10.63,13.9
	c-4.58,5.61-9.36,11-14.35,16.16c-6.63,6.87-13.61,13.35-20.96,19.44c-3.73,3.09-7.56,6.09-11.48,8.97
	c-4.46,3.29-9.04,6.45-13.74,9.47c-8.64,5.54-17.73,10.57-27.28,15.12c-6.86,3.23-13.85,6.13-20.87,8.66
	c-3.45,1.24-6.91,2.4-10.36,3.46c-5.44,1.75-10.9,3.32-16.38,4.64c-5.41,1.3-10.83,2.43-16.28,3.36
	c-15.49,2.62-31.15,3.62-46.94,3.2"/>
<path fill-rule="evenodd" clip-rule="evenodd" fill="none" stroke="#666666" stroke-width="0.83" stroke-linecap="round" stroke-linejoin="bevel" d="
	M220.245,36.874c-1.62,2.62-3.25,5.21-4.92,7.77c-1.78,2.72-3.61,5.4-5.489,8.02c-3.431,4.8-6.98,9.46-10.681,13.96
	c-4.57,5.58-9.34,10.95-14.32,16.09c-6.61,6.83-13.58,13.29-20.91,19.35c-3.72,3.07-7.53,6.06-11.44,8.93
	c-4.46,3.27-9.02,6.41-13.71,9.41c-8.66,5.54-17.76,10.57-27.33,15.1c-6.94,3.27-14.02,6.18-21.12,8.72c-3.5,1.24-7,2.41-10.5,3.47
	c-5.38,1.71-10.77,3.25-16.18,4.55c-5.34,1.28-10.7,2.39-16.07,3.3c-15.53,2.62-31.23,3.61-47.06,3.19"/>
<path fill-rule="evenodd" clip-rule="evenodd" fill="none" stroke="#6B6B6B" stroke-width="0.83" stroke-linecap="round" stroke-linejoin="bevel" d="
	M220.225,36.854c-1.61,2.6-3.23,5.17-4.89,7.7c-1.761,2.7-3.58,5.36-5.44,7.96c-3.44,4.82-7.01,9.49-10.73,14.01
	c-4.56,5.56-9.32,10.9-14.28,16.02c-6.6,6.81-13.55,13.23-20.86,19.26c-3.72,3.07-7.52,6.04-11.42,8.89
	c-4.44,3.25-8.99,6.38-13.67,9.37c-8.67,5.53-17.8,10.55-27.38,15.08c-7.03,3.29-14.19,6.22-21.38,8.77
	c-3.54,1.25-7.09,2.42-10.63,3.48c-5.31,1.68-10.63,3.19-15.98,4.46c-5.28,1.26-10.56,2.35-15.87,3.25
	c-15.57,2.61-31.3,3.6-47.17,3.17"/>
<path fill-rule="evenodd" clip-rule="evenodd" fill="none" stroke="#707070" stroke-width="0.83" stroke-linecap="round" stroke-linejoin="bevel" d="
	M220.195,36.834c-1.59,2.58-3.2,5.12-4.84,7.63c-1.75,2.68-3.551,5.31-5.391,7.9c-3.459,4.84-7.049,9.53-10.79,14.06
	c-4.55,5.54-9.29,10.86-14.25,15.96c-6.58,6.77-13.51,13.17-20.81,19.17c-3.7,3.05-7.5,6.01-11.39,8.85
	c-4.43,3.23-8.97,6.34-13.63,9.31c-8.69,5.53-17.83,10.55-27.43,15.06c-7.11,3.32-14.36,6.27-21.64,8.83
	c-3.58,1.25-7.17,2.43-10.76,3.49c-5.25,1.65-10.5,3.13-15.78,4.38c-5.21,1.23-10.42,2.3-15.66,3.18
	c-15.61,2.61-31.38,3.6-47.29,3.16"/>
<path fill-rule="evenodd" clip-rule="evenodd" fill="none" stroke="#787878" stroke-width="0.83" stroke-linecap="round" stroke-linejoin="bevel" d="
	M220.175,36.814c-1.581,2.55-3.17,5.08-4.801,7.57c-1.739,2.65-3.52,5.26-5.35,7.82c-3.47,4.87-7.08,9.58-10.84,14.12
	c-4.54,5.52-9.27,10.82-14.21,15.89c-6.57,6.74-13.49,13.12-20.77,19.09c-3.69,3.03-7.48,5.98-11.36,8.8
	c-4.42,3.22-8.94,6.31-13.59,9.27c-8.7,5.52-17.86,10.53-27.48,15.04c-7.2,3.35-14.53,6.31-21.89,8.88
	c-3.63,1.26-7.27,2.44-10.91,3.5c-5.17,1.61-10.36,3.06-15.57,4.29c-5.14,1.21-10.29,2.26-15.46,3.13
	c-15.64,2.6-31.45,3.58-47.4,3.14"/>
<path fill-rule="evenodd" clip-rule="evenodd" fill="none" stroke="#808080" stroke-width="0.83" stroke-linecap="round" stroke-linejoin="bevel" d="
	M220.155,36.794c-1.569,2.53-3.149,5.04-4.76,7.5c-1.72,2.63-3.5,5.22-5.31,7.76c-3.491,4.89-7.11,9.61-10.891,14.18
	c-4.53,5.49-9.25,10.76-14.18,15.81c-6.55,6.72-13.45,13.06-20.71,19.01c-3.69,3.02-7.47,5.94-11.34,8.76
	c-4.4,3.19-8.92,6.27-13.55,9.21c-8.72,5.52-17.89,10.53-27.53,15.03c-7.29,3.37-14.7,6.35-22.15,8.93
	c-3.67,1.26-7.35,2.45-11.04,3.52c-5.11,1.57-10.23,2.99-15.37,4.19c-5.07,1.19-10.15,2.22-15.25,3.07
	c-15.69,2.61-31.53,3.58-47.52,3.13"/>
<path fill-rule="evenodd" clip-rule="evenodd" fill="none" stroke="#878787" stroke-width="0.83" stroke-linecap="round" stroke-linejoin="bevel" d="
	M220.125,36.774c-1.55,2.51-3.109,4.99-4.71,7.44c-1.709,2.61-3.47,5.17-5.27,7.69c-3.5,4.9-7.14,9.65-10.94,14.23
	c-4.52,5.46-9.22,10.72-14.14,15.75c-6.54,6.68-13.43,13-20.67,18.91c-3.68,3.01-7.44,5.92-11.31,8.72
	c-4.39,3.18-8.89,6.24-13.51,9.17c-8.73,5.51-17.92,10.51-27.57,15c-7.38,3.41-14.88,6.41-22.42,8.99
	c-3.72,1.27-7.44,2.46-11.17,3.53c-5.04,1.54-10.09,2.93-15.17,4.11c-5,1.16-10.01,2.17-15.04,3.01
	c-15.73,2.6-31.61,3.56-47.64,3.11"/>
<path fill-rule="evenodd" clip-rule="evenodd" fill="none" stroke="#919191" stroke-width="0.83" stroke-linecap="round" stroke-linejoin="bevel" d="
	M220.105,36.754c-1.54,2.49-3.09,4.95-4.68,7.37c-1.69,2.59-3.431,5.13-5.211,7.62c-3.52,4.93-7.18,9.7-11,14.29
	c-4.5,5.44-9.2,10.68-14.11,15.68c-6.52,6.66-13.39,12.94-20.62,18.83c-3.67,2.99-7.42,5.89-11.27,8.68
	c-4.39,3.16-8.87,6.2-13.48,9.12c-8.75,5.5-17.95,10.49-27.62,14.98c-7.47,3.43-15.05,6.45-22.67,9.04
	c-3.77,1.27-7.53,2.46-11.31,3.54c-4.98,1.51-9.96,2.86-14.97,4.02c-4.93,1.14-9.88,2.13-14.84,2.95
	c-15.76,2.6-31.68,3.56-47.75,3.1"/>
<path fill-rule="evenodd" clip-rule="evenodd" fill="none" stroke="#999999" stroke-width="0.83" stroke-linecap="round" stroke-linejoin="bevel" d="
	M0.585,155.524c16.1,0.46,32.06-0.5,47.87-3.09c4.89-0.81,9.76-1.78,14.63-2.9c4.94-1.13,9.86-2.46,14.77-3.93
	c3.82-1.08,7.63-2.27,11.44-3.55c7.71-2.6,15.37-5.64,22.93-9.1c9.69-4.47,18.91-9.46,27.67-14.96c4.59-2.89,9.07-5.92,13.44-9.07
	c3.84-2.77,7.59-5.66,11.25-8.63c7.21-5.86,14.05-12.12,20.57-18.75c4.89-4.98,9.58-10.19,14.07-15.61
	c3.84-4.61,7.52-9.39,11.05-14.34c1.76-2.47,3.49-4.99,5.17-7.56c1.57-2.4,3.109-4.83,4.641-7.29"/>
<path fill-rule="evenodd" clip-rule="evenodd" fill="none" stroke="#A3A3A3" stroke-width="0.83" stroke-linecap="round" stroke-linejoin="bevel" d="
	M0.595,155.064c16.14,0.46,32.14-0.49,47.98-3.07c4.83-0.8,9.63-1.75,14.43-2.85c4.87-1.1,9.73-2.4,14.57-3.84
	c3.86-1.08,7.72-2.28,11.58-3.56c7.79-2.61,15.54-5.66,23.18-9.15c9.71-4.47,18.94-9.45,27.72-14.94c4.58-2.88,9.04-5.9,13.4-9.03
	c3.83-2.75,7.57-5.62,11.22-8.58c7.19-5.84,14.02-12.07,20.52-18.66c4.89-4.96,9.56-10.15,14.04-15.54
	c3.86-4.63,7.56-9.43,11.101-14.4c1.75-2.45,3.469-4.95,5.129-7.49c1.561-2.38,3.08-4.79,4.59-7.23"/>
<path fill-rule="evenodd" clip-rule="evenodd" fill="none" stroke="#ABABAB" stroke-width="0.83" stroke-linecap="round" stroke-linejoin="bevel" d="
	M0.605,154.604c16.18,0.47,32.22-0.48,48.1-3.06c4.76-0.78,9.49-1.71,14.22-2.78c4.8-1.09,9.59-2.35,14.37-3.76
	c3.91-1.08,7.81-2.28,11.71-3.57c7.87-2.62,15.71-5.69,23.44-9.21c9.72-4.45,18.98-9.43,27.77-14.92c4.57-2.86,9.01-5.86,13.36-8.97
	c3.82-2.74,7.55-5.6,11.19-8.55c7.18-5.8,13.99-12,20.48-18.57c4.87-4.93,9.53-10.1,14-15.47c3.88-4.64,7.59-9.46,11.15-14.46
	c1.74-2.43,3.44-4.9,5.09-7.42c1.54-2.35,3.05-4.74,4.55-7.16"/>
<path fill-rule="evenodd" clip-rule="evenodd" fill="none" stroke="#B3B3B3" stroke-width="0.83" stroke-linecap="round" stroke-linejoin="bevel" d="
	M0.615,154.144c16.22,0.47,32.29-0.47,48.22-3.04c4.68-0.77,9.35-1.68,14.01-2.73c4.74-1.06,9.46-2.3,14.17-3.67
	c3.95-1.08,7.9-2.29,11.84-3.58c7.96-2.63,15.89-5.72,23.7-9.26c9.74-4.45,19.02-9.42,27.82-14.9c4.55-2.85,8.99-5.83,13.32-8.93
	c3.82-2.72,7.53-5.57,11.17-8.5c7.15-5.77,13.95-11.95,20.42-18.48c4.86-4.92,9.51-10.06,13.97-15.41
	c3.9-4.66,7.63-9.49,11.209-14.51c1.711-2.41,3.4-4.86,5.041-7.35c1.52-2.34,3.02-4.7,4.51-7.1"/>
<path fill-rule="evenodd" clip-rule="evenodd" fill="none" stroke="#BABABA" stroke-width="0.83" stroke-linecap="round" stroke-linejoin="bevel" d="
	M0.625,153.684c16.26,0.48,32.37-0.46,48.33-3.03c4.62-0.75,9.22-1.64,13.81-2.67c4.67-1.04,9.32-2.24,13.97-3.58
	c4-1.08,7.99-2.29,11.98-3.59c8.04-2.64,16.05-5.74,23.95-9.31c9.76-4.45,19.05-9.41,27.87-14.89c4.54-2.83,8.96-5.79,13.28-8.87
	c3.81-2.71,7.51-5.54,11.14-8.46c7.14-5.75,13.92-11.89,20.38-18.4c4.84-4.89,9.48-10.01,13.93-15.33
	c3.92-4.68,7.67-9.53,11.26-14.57c1.7-2.39,3.37-4.82,4.99-7.29c1.52-2.31,3-4.66,4.47-7.03"/>
<path fill-rule="evenodd" clip-rule="evenodd" fill="none" stroke="#C2C2C2" stroke-width="0.83" stroke-linecap="round" stroke-linejoin="bevel" d="
	M0.635,153.224c16.3,0.49,32.45-0.45,48.45-3.01c4.55-0.74,9.08-1.62,13.6-2.61c4.6-1.02,9.19-2.19,13.77-3.49
	c4.04-1.09,8.08-2.31,12.11-3.61c8.13-2.65,16.22-5.77,24.22-9.37c9.77-4.43,19.08-9.39,27.91-14.86c4.53-2.82,8.93-5.77,13.25-8.83
	c3.79-2.69,7.49-5.51,11.1-8.41c7.13-5.72,13.89-11.84,20.33-18.32c4.84-4.86,9.46-9.96,13.9-15.26
	c3.94-4.69,7.71-9.57,11.311-14.63c1.689-2.36,3.35-4.77,4.949-7.22c1.5-2.29,2.971-4.61,4.43-6.96"/>
<path fill-rule="evenodd" clip-rule="evenodd" fill="none" stroke="#C7C7C7" stroke-width="0.83" stroke-linecap="round" stroke-linejoin="bevel" d="
	M0.645,152.764c16.34,0.49,32.53-0.44,48.56-3c4.48-0.72,8.94-1.58,13.4-2.55c4.53-0.99,9.05-2.14,13.57-3.4
	c4.09-1.09,8.17-2.31,12.24-3.62c8.22-2.66,16.4-5.79,24.48-9.42c9.79-4.43,19.11-9.37,27.96-14.85c4.51-2.8,8.91-5.73,13.21-8.77
	c3.78-2.68,7.47-5.49,11.07-8.38c7.11-5.69,13.86-11.78,20.29-18.22c4.82-4.85,9.43-9.92,13.86-15.2c3.96-4.71,7.75-9.6,11.37-14.68
	c1.66-2.34,3.31-4.73,4.899-7.15c1.49-2.27,2.94-4.57,4.391-6.9"/>
<path fill-rule="evenodd" clip-rule="evenodd" fill="none" stroke="#CCCCCC" stroke-width="0.83" stroke-linecap="round" stroke-linejoin="bevel" d="
	M0.655,152.304c16.38,0.5,32.6-0.43,48.68-2.98c4.41-0.71,8.8-1.55,13.19-2.5c4.47-0.97,8.92-2.08,13.37-3.31
	c4.13-1.09,8.26-2.32,12.38-3.63c8.3-2.67,16.56-5.82,24.73-9.48c9.81-4.41,19.15-9.35,28-14.82c4.51-2.79,8.89-5.7,13.18-8.73
	c3.77-2.66,7.45-5.46,11.05-8.33c7.09-5.66,13.82-11.72,20.23-18.14c4.81-4.82,9.41-9.87,13.83-15.13
	c3.98-4.72,7.79-9.63,11.419-14.73c1.65-2.32,3.28-4.68,4.86-7.09c1.47-2.24,2.91-4.52,4.34-6.83"/>
<path fill-rule="evenodd" clip-rule="evenodd" fill="none" stroke="#D1D1D1" stroke-width="0.83" stroke-linecap="round" stroke-linejoin="bevel" d="
	M0.675,151.854c16.41,0.49,32.67-0.43,48.79-2.98c4.34-0.69,8.66-1.51,12.98-2.44c4.4-0.94,8.78-2.02,13.16-3.22
	c4.19-1.09,8.35-2.32,12.52-3.64c8.39-2.67,16.73-5.85,24.99-9.53c9.83-4.41,19.18-9.34,28.05-14.8c4.5-2.77,8.86-5.68,13.14-8.68
	c3.77-2.66,7.43-5.43,11.02-8.29c7.08-5.64,13.79-11.67,20.19-18.06c4.8-4.79,9.38-9.82,13.79-15.05c4-4.74,7.82-9.67,11.47-14.8
	c1.64-2.3,3.25-4.63,4.819-7.01c1.45-2.23,2.881-4.48,4.301-6.76"/>
<path fill-rule="evenodd" clip-rule="evenodd" fill="none" stroke="#D6D6D6" stroke-width="0.83" stroke-linecap="round" stroke-linejoin="bevel" d="
	M0.685,151.394c16.45,0.5,32.75-0.42,48.9-2.96c4.27-0.68,8.53-1.48,12.78-2.38c4.33-0.92,8.65-1.98,12.96-3.14
	c4.23-1.09,8.44-2.33,12.65-3.65c8.48-2.68,16.91-5.87,25.25-9.58c9.85-4.4,19.22-9.33,28.1-14.79c4.48-2.75,8.84-5.64,13.1-8.63
	c3.76-2.64,7.42-5.4,10.99-8.24c7.06-5.61,13.76-11.61,20.14-17.97c4.79-4.78,9.36-9.78,13.76-14.99
	c4.02-4.76,7.86-9.7,11.521-14.85c1.62-2.28,3.229-4.59,4.77-6.95c1.449-2.2,2.859-4.43,4.27-6.69"/>
<path fill-rule="evenodd" clip-rule="evenodd" fill="none" stroke="#D9D9D9" stroke-width="0.83" stroke-linecap="round" stroke-linejoin="bevel" d="
	M0.695,150.934c16.49,0.51,32.82-0.41,49.02-2.95c4.2-0.66,8.39-1.44,12.57-2.32c4.26-0.9,8.51-1.92,12.76-3.05
	c4.28-1.09,8.53-2.33,12.79-3.66c8.56-2.69,17.07-5.9,25.5-9.64c9.86-4.39,19.25-9.31,28.15-14.76c4.47-2.74,8.81-5.61,13.06-8.59
	c3.75-2.62,7.4-5.37,10.97-8.2c7.04-5.58,13.72-11.55,20.08-17.88c4.78-4.75,9.35-9.73,13.73-14.92c4.04-4.77,7.9-9.73,11.58-14.9
	c1.601-2.26,3.189-4.55,4.72-6.89c1.43-2.18,2.831-4.38,4.22-6.62"/>
<path fill-rule="evenodd" clip-rule="evenodd" fill="none" stroke="#DEDEDE" stroke-width="0.83" stroke-linecap="round" stroke-linejoin="bevel" d="
	M0.705,150.474c16.53,0.51,32.9-0.4,49.13-2.93c4.14-0.65,8.26-1.41,12.37-2.27c4.19-0.87,8.38-1.86,12.56-2.96
	c4.32-1.09,8.62-2.34,12.92-3.67c8.65-2.7,17.25-5.92,25.76-9.69c9.88-4.39,19.29-9.3,28.2-14.75c4.45-2.72,8.78-5.57,13.02-8.53
	c3.74-2.61,7.38-5.35,10.94-8.16c7.02-5.55,13.69-11.5,20.04-17.79c4.77-4.73,9.32-9.69,13.69-14.86
	c4.06-4.78,7.94-9.76,11.629-14.96c1.59-2.23,3.16-4.5,4.681-6.81c1.42-2.16,2.8-4.35,4.18-6.56"/>
<path fill-rule="evenodd" clip-rule="evenodd" fill="none" stroke="#E3E3E3" stroke-width="0.83" stroke-linecap="round" stroke-linejoin="bevel" d="
	M0.715,150.014c16.57,0.52,32.98-0.39,49.25-2.92c4.07-0.63,8.11-1.37,12.16-2.2c4.13-0.86,8.25-1.82,12.36-2.88
	c4.37-1.09,8.71-2.34,13.05-3.68c8.73-2.71,17.42-5.95,26.03-9.75c9.89-4.37,19.31-9.28,28.24-14.72c4.44-2.71,8.76-5.55,12.99-8.49
	c3.72-2.59,7.35-5.31,10.9-8.11c7.01-5.52,13.66-11.44,19.99-17.71c4.76-4.71,9.3-9.64,13.66-14.78c4.07-4.81,7.98-9.81,11.68-15.02
	c1.569-2.21,3.13-4.46,4.64-6.75c1.4-2.13,2.771-4.3,4.14-6.49"/>
<path fill-rule="evenodd" clip-rule="evenodd" fill="none" stroke="#E6E6E6" stroke-width="0.83" stroke-linecap="round" stroke-linejoin="bevel" d="
	M0.725,149.554c16.61,0.52,33.05-0.38,49.37-2.9c3.99-0.62,7.97-1.34,11.95-2.15c4.06-0.83,8.11-1.76,12.16-2.79
	c4.41-1.09,8.8-2.35,13.19-3.69c8.81-2.72,17.58-5.98,26.28-9.8c9.91-4.37,19.35-9.27,28.29-14.71c4.43-2.69,8.73-5.51,12.95-8.43
	c3.72-2.58,7.33-5.29,10.88-8.07c6.99-5.5,13.62-11.39,19.94-17.63c4.74-4.68,9.27-9.59,13.62-14.71
	c4.09-4.82,8.02-9.84,11.73-15.07c1.56-2.19,3.109-4.42,4.6-6.68c1.38-2.12,2.74-4.26,4.09-6.43"/>
<path fill-rule="evenodd" clip-rule="evenodd" fill="none" stroke="#E8E8E8" stroke-width="0.83" stroke-linecap="round" stroke-linejoin="bevel" d="
	M0.735,149.094c16.65,0.53,33.13-0.37,49.48-2.89c3.93-0.6,7.84-1.3,11.75-2.09c3.99-0.8,7.98-1.7,11.96-2.69
	c4.45-1.1,8.89-2.36,13.32-3.71c8.9-2.73,17.76-6,26.54-9.85c9.93-4.36,19.38-9.26,28.34-14.69c4.41-2.68,8.7-5.48,12.91-8.39
	c3.71-2.56,7.32-5.26,10.85-8.03c6.97-5.46,13.59-11.32,19.89-17.53c4.74-4.66,9.25-9.56,13.59-14.65
	c4.11-4.83,8.05-9.87,11.79-15.13c1.54-2.17,3.07-4.37,4.54-6.61c1.38-2.09,2.72-4.21,4.061-6.36"/>
<path fill-rule="evenodd" clip-rule="evenodd" fill="none" stroke="#EBEBEB" stroke-width="0.83" stroke-linecap="round" stroke-linejoin="bevel" d="
	M0.745,148.634c16.69,0.54,33.21-0.36,49.6-2.87c7.81-1.2,15.56-2.75,23.3-4.64c4.5-1.1,8.98-2.37,13.46-3.73
	c8.98-2.73,17.92-6.02,26.79-9.9c9.95-4.35,19.42-9.24,28.39-14.67c4.4-2.66,8.68-5.45,12.87-8.33c3.7-2.55,7.3-5.23,10.82-7.99
	c6.96-5.44,13.56-11.27,19.85-17.45c4.72-4.64,9.22-9.51,13.55-14.58c4.13-4.85,8.09-9.9,11.839-15.18
	c1.521-2.15,3.041-4.33,4.5-6.55c1.36-2.07,2.69-4.16,4.021-6.28"/>
<linearGradient id="SVGID_1_" gradientUnits="userSpaceOnUse" x1="235.02" y1="142.6235" x2="286.0197" y2="197.3732">
	<stop  offset="0" style="stop-color:#D9D9D9"/>
	<stop  offset="1" style="stop-color:#F2F2F2"/>
</linearGradient>
<path fill-rule="evenodd" clip-rule="evenodd" fill="url(#SVGID_1_)" d="M302.735,183.604c-5.13,5.13-7.44,6.891-12.26,11.71
	c-1.011,0.61-1.24,0.681-2.57,2.011c-2.87,0.979-1.91,0.109-2.851,2.85l-6.859,6.851c-3.12,1.459-2.53,0.859-4.851,4.289
	c-7.05,5.091-27.589,24.931-34.81,33.7c-6.74,8.62-14.79,15.149-23.68,23.13c-5.99,0.931-6.93,3.74-11.97,10.301
	c-2.9,1.63-2.51,1.069-2.87,3.419c-1.68,2.05-3.22,4.28-4.01,5.69c-0.34,0-0.17-0.13-0.56,0l-0.3,0.29
	c-0.44,0.88-0.57,1.14-0.58,2.26c-2.03,2.471-2.41,3.051-4.59,5.7c-3.73-0.38-2.3-0.72-4.84,4.29c-1.69,1.21-2.02,1.931-3.71,3.14
	c-6.69,1.421-15.18,12.591-22.54,21.99c-4.51,1.56-3.08,0.81-6,6.56c-1.93-0.62-1.8-0.399-3.69,2.021
	c-1.22-0.229-1.68-0.54-2.53-1.391c-1.36-3.25-1.01-11.959-9.78-7.489c0.04-3.17-0.67-2.88-2.78-3.92c2.8-6.04-17.77-11.15-11.73-22
	c-1.21,0.55-1.47,0.65-3.55,2.15c-2.29-2.28-3.11-4.58-3.16-6.591c-4.25-1.25-0.19-7.239-7.15-4.85c1.34-1.851,1.69-2.051,1.59-2.98
	c-9.23,1.811-2.39-11.06-11.87-9.6l-1.91-1.26l270.75-270.76l0.15,0.3c0.7,0.75,1.86,1.01,4.189,0.21c0.3,4.74-2.29,7.51,1.43,9.44
	c1.721,2.99,5.131,2.15,3.021,7.58c0.88-0.41,1.38-0.43,2.979-1.59c0.48,0.49,0.921,0.35,1.271,0.13c1.57,1.57,1.96,1.82,4.061,1.79
	c-0.011,0.95,0.189,1.33,0.83,1.96c-2.23,3.67-2.061,2.96,0.819,1.97c1.63,2.98,9.55,2.05,12.37,3.24
	c-0.01,0.95,0.189,1.33,0.83,1.96c-0.67,3.15-1.1,2.6,1.95,1.95c0.739,0.75,1.489,1.49,2.229,2.24c-1.54,4.48-2.14,4.81,1.49,4.91
	c1.141,1.14,1.85,1.85,2.93,2.93c-4.149,8.15,0.58,9.17,6.97,6.98c0.19,0.18,0.101,0.09,0.28,0.27c0.57,2.98,4.91,3.58,2.73,7.87
	c-0.45,0.88-0.58,1.15-0.59,2.26c-4.5,3.83-3.771,3.02-2.74,5.26c-10.38,17.08-24.931,26.88-41.28,43.22
	c-6.09,4.39-6.33,5.86-11.43,13.67c-5.64,3.08-11.03,8.8-16.29,16.85c-2.63-1.3-1.85-1.38-3.98,2.3c-2.209,1.67-2.31,1.52-2.01,3.13
	c-6.84,3.85-9.69,7.77-11.99,11.99c-3,2.01-4.569,3.67-6.279,5.71c-2.87,1.62-2.49,1.07-2.851,3.42c-1.17,0.71-1.399,1.299-2.57,2
	c-3.05,1.05-1.85-0.05-2.85,2.86C308.025,177.184,304.485,181.484,302.735,183.604z"/>
<path fill-rule="evenodd" clip-rule="evenodd" fill="#FF0000" d="M161.185,93.724c-0.18,0.07-0.38,0.06-0.57-0.03
	c-0.94-0.45-1.84-0.91-2.7-1.38c-0.37-0.2-0.5-0.65-0.3-1.02c0.19-0.36,0.65-0.5,1.01-0.3c0.84,0.46,1.72,0.91,2.64,1.35
	c0.37,0.18,0.53,0.63,0.35,1C161.525,93.534,161.365,93.664,161.185,93.724z M155.845,90.884c-0.19,0.04-0.39,0.02-0.57-0.09
	c-0.9-0.56-1.74-1.12-2.54-1.68c-0.33-0.24-0.41-0.71-0.17-1.05c0.24-0.34,0.71-0.42,1.04-0.18c0.77,0.55,1.59,1.09,2.46,1.63
	c0.35,0.22,0.46,0.68,0.25,1.03C156.205,90.724,156.035,90.844,155.845,90.884z M150.865,87.414c-0.19,0.02-0.39-0.04-0.55-0.17
	c-0.82-0.69-1.57-1.39-2.25-2.09c-0.29-0.29-0.29-0.77,0.01-1.06c0.29-0.29,0.77-0.28,1.06,0.01c0.65,0.67,1.36,1.33,2.15,1.99
	c0.31,0.26,0.36,0.74,0.09,1.05C151.245,87.304,151.055,87.394,150.865,87.414z M146.525,83.114c-0.19-0.02-0.37-0.12-0.49-0.28
	c-0.67-0.87-1.24-1.74-1.71-2.6c-0.2-0.37-0.06-0.82,0.3-1.02c0.36-0.2,0.82-0.07,1.02,0.29c0.43,0.8,0.96,1.6,1.58,2.41
	c0.25,0.33,0.19,0.8-0.14,1.06C146.915,83.094,146.715,83.144,146.525,83.114z M144.025,77.834c-0.4,0.13-0.82-0.09-0.94-0.49
	c-0.34-1.06-0.54-2.1-0.6-3.11c-0.03-0.41,0.28-0.77,0.69-0.8c0.42-0.03,0.77,0.29,0.8,0.7c0.06,0.88,0.23,1.81,0.54,2.76
	C144.635,77.284,144.415,77.714,144.025,77.834z M173.805,77.054c-0.1-0.02-0.19-0.06-0.27-0.11l-4.15-2.55
	c-0.24-0.15-0.36-0.67-0.14-0.83l1.53-1.1l1.52-1.1c0.22-0.16,0.68,0.12,0.74,0.39l1.11,4.75c0.04,0.17,0.06,0.42-0.08,0.52
	C173.985,77.084,173.895,77.084,173.805,77.054z M169.715,71.954c-0.19-0.02-0.37-0.11-0.5-0.27c-0.65-0.79-1.3-1.52-1.96-2.18
	c-0.29-0.29-0.29-0.76,0-1.06c0.3-0.29,0.77-0.29,1.06,0c0.7,0.7,1.39,1.46,2.06,2.29c0.26,0.32,0.21,0.79-0.11,1.05
	C170.105,71.924,169.905,71.974,169.715,71.954z M143.285,71.934c-0.41-0.09-0.66-0.49-0.58-0.89c0.24-1.07,0.63-2.08,1.15-3
	c0.2-0.36,0.66-0.49,1.02-0.29c0.36,0.21,0.49,0.66,0.28,1.02c-0.44,0.8-0.78,1.66-0.98,2.59
	C144.085,71.764,143.685,72.024,143.285,71.934z M165.645,67.724c-0.2,0.02-0.39-0.03-0.56-0.15c-0.79-0.63-1.59-1.18-2.38-1.64
	c-0.36-0.21-0.48-0.67-0.27-1.03s0.67-0.48,1.03-0.27c0.86,0.51,1.71,1.09,2.55,1.76c0.33,0.25,0.38,0.73,0.13,1.05
	C166.015,67.604,165.835,67.704,165.645,67.724z M146.325,66.804c-0.19,0-0.38-0.08-0.52-0.23c-0.29-0.3-0.28-0.78,0.02-1.06
	c0.76-0.73,1.63-1.36,2.59-1.87c0.37-0.2,0.82-0.06,1.02,0.31c0.19,0.36,0.05,0.82-0.31,1.01c-0.84,0.45-1.6,1-2.26,1.63
	C146.715,66.744,146.515,66.804,146.325,66.804z M160.115,64.674c-0.93-0.37-1.84-0.63-2.74-0.8c-0.41-0.08-0.67-0.48-0.6-0.88
	c0.08-0.41,0.48-0.67,0.88-0.6c0.99,0.19,2,0.48,3.01,0.88c0.38,0.15,0.57,0.58,0.42,0.97S160.505,64.824,160.115,64.674z
	 M151.745,63.964c-0.4,0.1-0.81-0.14-0.91-0.54c-0.1-0.41,0.15-0.81,0.55-0.91c1-0.25,2.05-0.38,3.14-0.4
	c0.41,0,0.75,0.33,0.76,0.74c0,0.41-0.33,0.76-0.74,0.76C153.565,63.624,152.625,63.754,151.745,63.964z"/>
<line fill-rule="evenodd" clip-rule="evenodd" fill="none" stroke="#000000" stroke-width="4" stroke-linejoin="bevel" x1="96.375" y1="275.594" x2="370.554" y2="1.414"/>
<g>
	<g>
		<polygon fill-rule="evenodd" clip-rule="evenodd" points="107.315,275.155 112.435,280.264 111.355,281.344 106.245,276.234 
			104.315,278.164 103.355,277.205 108.375,272.174 109.335,273.134 		"/>
		<path fill-rule="evenodd" clip-rule="evenodd" d="M117.965,274.734l-2.74-2.739c-0.27-0.271-0.58-0.4-0.91-0.4
			c-0.34,0.01-0.65,0.15-0.92,0.431c-0.17,0.17-0.3,0.389-0.38,0.649c-0.08,0.271-0.1,0.5-0.06,0.689l3.19,3.19l-1.05,1.05
			l-6.09-6.09l0.8-1.3l2.18,2.18c0.03-0.51,0.28-1,0.74-1.47c0.56-0.55,1.14-0.83,1.76-0.83c0.61,0,1.21,0.29,1.78,0.86l2.74,2.74
			L117.965,274.734z"/>
		<path fill-rule="evenodd" clip-rule="evenodd" d="M122.175,266.714l-3.17,3.17c0.38,0.33,0.77,0.49,1.19,0.46s0.82-0.23,1.2-0.61
			c0.47-0.47,0.71-0.959,0.71-1.45l1.19,0.391c-0.07,0.66-0.46,1.351-1.19,2.08c-0.67,0.67-1.41,1.01-2.2,1.01
			s-1.54-0.359-2.25-1.069c-0.69-0.7-1.04-1.48-1.05-2.351c0-0.86,0.3-1.6,0.91-2.2c0.64-0.649,1.35-0.97,2.12-0.98
			c0.78,0,1.46,0.291,2.06,0.891C121.815,266.174,121.985,266.394,122.175,266.714z M118.265,269.064l2.18-2.18
			c-0.72-0.57-1.4-0.54-2.05,0.11C117.805,267.584,117.765,268.275,118.265,269.064z"/>
		<path fill-rule="evenodd" clip-rule="evenodd" d="M126.985,265.034l-0.56-1.359c0.72-0.13,1.29-0.399,1.7-0.811
			c0.63-0.63,0.73-1.169,0.29-1.609c-0.21-0.21-0.48-0.33-0.82-0.37c-0.34-0.04-0.85,0.061-1.55,0.29
			c-0.7,0.23-1.21,0.351-1.52,0.359c-0.31,0.011-0.62-0.039-0.91-0.159s-0.57-0.311-0.82-0.561c-0.47-0.47-0.68-1.03-0.65-1.68
			c0.03-0.65,0.32-1.25,0.86-1.79c0.7-0.7,1.35-1.08,1.94-1.149l0.6,1.25c-0.65,0.109-1.18,0.38-1.6,0.8
			c-0.25,0.239-0.38,0.5-0.39,0.77c0,0.27,0.1,0.511,0.31,0.72c0.35,0.351,1.1,0.32,2.24-0.07c0.61-0.209,1.08-0.319,1.43-0.329
			c0.35-0.021,0.68,0.04,0.99,0.17c0.32,0.13,0.62,0.33,0.89,0.6c0.49,0.5,0.7,1.091,0.63,1.801c-0.07,0.709-0.43,1.379-1.08,2.04
			C128.395,264.504,127.735,264.875,126.985,265.034z"/>
		<path fill-rule="evenodd" clip-rule="evenodd" d="M134.755,257.955l-0.37-0.38c-0.03,0.27-0.12,0.58-0.29,0.93
			c-0.17,0.34-0.36,0.62-0.58,0.84c-1.03,1.03-2.09,1-3.18-0.1l-2.88-2.881l1.03-1.029l2.81,2.8c0.56,0.57,1.1,0.6,1.62,0.08
			c0.23-0.23,0.39-0.51,0.47-0.83c0.08-0.33,0.07-0.601-0.02-0.83l-3.05-3.05l1.03-1.03l4.44,4.439L134.755,257.955z"/>
		<path fill-rule="evenodd" clip-rule="evenodd" d="M135.995,249.754c-0.3,0.06-0.57,0.21-0.79,0.43
			c-0.24,0.24-0.34,0.561-0.31,0.96c0.03,0.41,0.2,0.77,0.52,1.08l2.53,2.53l-1.04,1.04l-4.44-4.44l1.04-1.04l0.4,0.41
			c-0.03-0.62,0.19-1.17,0.67-1.649c0.36-0.351,0.68-0.57,0.98-0.65L135.995,249.754z"/>
		<path fill-rule="evenodd" clip-rule="evenodd" d="M137.695,244.384c-0.3,0.149-0.51,0.29-0.63,0.41c-0.2,0.2-0.28,0.45-0.25,0.75
			c0.03,0.31,0.17,0.58,0.42,0.83c0.03,0.03,0.07,0.07,0.11,0.1l0.92-0.92l0.85,0.859l-0.9,0.9l3.58,3.58l-1.03,1.04l-3.59-3.58
			l-0.64,0.641l-0.86-0.851l0.65-0.649c-0.52-0.57-0.8-1.17-0.83-1.8c-0.04-0.641,0.19-1.19,0.66-1.67
			c0.25-0.241,0.6-0.491,1.06-0.73L137.695,244.384z"/>
		<path fill-rule="evenodd" clip-rule="evenodd" d="M145.695,246.114c0.06,0.25,0.02,0.541-0.11,0.87
			c-0.14,0.33-0.33,0.63-0.59,0.88c-0.48,0.48-0.97,0.73-1.48,0.771c-0.52,0.029-0.99-0.17-1.43-0.609
			c-0.51-0.511-0.72-1.111-0.63-1.78c0.1-0.681,0.5-1.37,1.21-2.081c0.12-0.119,0.29-0.239,0.49-0.369
			c-0.52-0.52-1.11-0.45-1.77,0.21c-0.39,0.39-0.65,0.779-0.78,1.17l-1.03-0.58c0.18-0.53,0.52-1.04,1.01-1.53
			c0.68-0.67,1.33-1.02,1.95-1.02c0.63-0.011,1.37,0.42,2.23,1.27l0.94,0.95c0.6,0.59,1.09,0.85,1.48,0.761
			c0.06,0.239,0.06,0.42-0.01,0.56c-0.08,0.14-0.18,0.279-0.31,0.42c-0.15,0.14-0.34,0.22-0.57,0.229
			C146.065,246.245,145.865,246.205,145.695,246.114z M143.945,244.575c-0.21,0.14-0.36,0.25-0.45,0.339
			c-0.82,0.82-0.96,1.491-0.42,2.031c0.4,0.399,0.83,0.369,1.29-0.101c0.62-0.62,0.62-1.24,0-1.86L143.945,244.575z"/>
		<path fill-rule="evenodd" clip-rule="evenodd" d="M147.585,236.945l0.33,1.219c-0.47,0.011-0.91,0.221-1.32,0.631
			c-0.4,0.39-0.57,0.83-0.54,1.319c0.03,0.49,0.28,0.971,0.74,1.431c0.93,0.93,1.84,0.95,2.73,0.06c0.38-0.38,0.59-0.85,0.63-1.39
			l1.2,0.43c-0.12,0.49-0.26,0.87-0.44,1.15c-0.17,0.27-0.41,0.56-0.72,0.869c-0.68,0.69-1.42,1.031-2.22,1.021
			c-0.79,0-1.55-0.359-2.26-1.07c-0.7-0.689-1.04-1.479-1.04-2.339c0-0.861,0.38-1.671,1.13-2.421
			C146.315,237.334,146.915,237.034,147.585,236.945z"/>
		<path fill-rule="evenodd" clip-rule="evenodd" d="M154.585,234.304l-3.17,3.17c0.38,0.33,0.77,0.49,1.19,0.46
			c0.42-0.029,0.82-0.229,1.2-0.609c0.47-0.471,0.71-0.961,0.71-1.45l1.19,0.39c-0.07,0.66-0.46,1.35-1.19,2.08
			c-0.67,0.67-1.41,1.01-2.2,1.01s-1.54-0.359-2.25-1.07c-0.69-0.699-1.04-1.479-1.05-2.35c0-0.859,0.3-1.6,0.91-2.2
			c0.64-0.649,1.35-0.97,2.12-0.979c0.78,0,1.46,0.29,2.06,0.89C154.225,233.764,154.395,233.984,154.585,234.304z M150.675,236.655
			l2.18-2.181c-0.72-0.569-1.4-0.54-2.05,0.11C150.215,235.174,150.175,235.864,150.675,236.655z"/>
	</g>
</g>
<g>
	<g>
		<polygon fill-rule="evenodd" clip-rule="evenodd" points="62.155,132.554 64.125,139.504 62.665,139.924 60.695,132.964 
			58.065,133.704 57.695,132.404 64.535,130.474 64.905,131.774 		"/>
		<path fill-rule="evenodd" clip-rule="evenodd" d="M71.655,137.384l-1.05-3.73c-0.11-0.37-0.31-0.63-0.61-0.79
			c-0.29-0.16-0.63-0.19-1.01-0.08c-0.23,0.06-0.45,0.19-0.65,0.39c-0.2,0.19-0.33,0.38-0.38,0.57l1.22,4.34l-1.43,0.4l-2.34-8.29
			l1.33-0.74l0.85,2.97c0.27-0.43,0.72-0.74,1.36-0.92c0.76-0.21,1.4-0.17,1.94,0.13c0.53,0.3,0.91,0.84,1.13,1.62l1.05,3.73
			L71.655,137.384z"/>
		<path fill-rule="evenodd" clip-rule="evenodd" d="M79.255,132.434l-4.32,1.22c0.16,0.48,0.44,0.8,0.82,0.99
			c0.38,0.18,0.82,0.19,1.34,0.05c0.64-0.18,1.08-0.49,1.32-0.92l0.85,0.92c-0.38,0.55-1.06,0.96-2.05,1.24
			c-0.92,0.26-1.72,0.19-2.41-0.2c-0.69-0.38-1.17-1.06-1.44-2.03c-0.27-0.95-0.2-1.8,0.23-2.56c0.42-0.75,1.04-1.25,1.86-1.48
			c0.88-0.25,1.66-0.19,2.33,0.19c0.68,0.37,1.13,0.96,1.36,1.77C79.195,131.794,79.235,132.064,79.255,132.434z M74.685,132.584
			l2.97-0.84c-0.35-0.86-0.96-1.16-1.84-0.91C75.005,131.064,74.635,131.644,74.685,132.584z"/>
		<path fill-rule="evenodd" clip-rule="evenodd" d="M88.245,124.244l-0.26,1.38c-0.42-0.23-1-0.25-1.72-0.04
			c-0.69,0.19-1.17,0.64-1.45,1.34c-0.28,0.7-0.29,1.5-0.04,2.38s0.65,1.53,1.21,1.93c0.55,0.4,1.17,0.51,1.85,0.32
			c0.78-0.22,1.31-0.67,1.59-1.35l1.02,0.99c-0.42,0.8-1.21,1.37-2.36,1.69c-1.15,0.33-2.16,0.2-3.01-0.38
			c-0.86-0.57-1.47-1.52-1.84-2.83c-0.34-1.22-0.28-2.34,0.2-3.37c0.47-1.02,1.26-1.68,2.37-2
			C86.755,124.044,87.565,124.014,88.245,124.244z"/>
		<path fill-rule="evenodd" clip-rule="evenodd" d="M95.665,130.594l-0.14-0.5c-0.16,0.22-0.39,0.44-0.7,0.66
			c-0.32,0.22-0.62,0.37-0.92,0.46c-1.4,0.39-2.31-0.15-2.73-1.64l-1.11-3.92l1.41-0.4l1.08,3.81c0.22,0.78,0.67,1.07,1.37,0.87
			c0.32-0.09,0.59-0.26,0.82-0.5c0.23-0.24,0.35-0.49,0.38-0.73l-1.17-4.15l1.41-0.4l1.71,6.04L95.665,130.594z"/>
		<path fill-rule="evenodd" clip-rule="evenodd" d="M100.745,124.054c-0.29-0.1-0.59-0.1-0.89-0.02c-0.33,0.1-0.58,0.33-0.75,0.7
			c-0.17,0.36-0.19,0.76-0.07,1.19l0.97,3.44l-1.41,0.4l-1.71-6.04l1.41-0.4l0.16,0.55c0.27-0.55,0.73-0.92,1.38-1.11
			c0.48-0.13,0.87-0.16,1.17-0.09L100.745,124.054z"/>
		<polygon fill-rule="evenodd" clip-rule="evenodd" points="106.065,127.774 105.555,127.914 101.085,122.534 102.635,122.104 
			105.115,125.384 105.625,121.254 107.125,120.834 		"/>
		<path fill-rule="evenodd" clip-rule="evenodd" d="M114.275,122.534l-4.31,1.22c0.16,0.47,0.43,0.8,0.81,0.98
			c0.38,0.18,0.83,0.2,1.34,0.05c0.65-0.18,1.09-0.48,1.33-0.91l0.85,0.92c-0.38,0.54-1.07,0.95-2.05,1.23
			c-0.92,0.26-1.73,0.2-2.42-0.19c-0.68-0.39-1.16-1.07-1.44-2.03c-0.27-0.95-0.19-1.81,0.23-2.56c0.42-0.76,1.05-1.25,1.87-1.49
			c0.87-0.24,1.65-0.18,2.33,0.19s1.13,0.96,1.36,1.77C114.225,121.894,114.255,122.164,114.275,122.534z M109.715,122.684
			l2.96-0.84c-0.34-0.86-0.96-1.16-1.84-0.91C110.035,121.154,109.655,121.744,109.715,122.684z"/>
	</g>
</g>
<path fill-rule="evenodd" clip-rule="evenodd" fill="#FF0000" d="M225.344,130.004c-0.089-0.01-0.189-0.04-0.279-0.07l-4.5-1.86
	c-0.261-0.1-0.471-0.6-0.271-0.79l2.65-2.66c0.2-0.19,0.69,0.01,0.8,0.27l1.85,4.51c0.07,0.16,0.131,0.4,0,0.53
	C225.535,129.994,225.445,130.014,225.344,130.004z M220.195,125.284c-0.189,0-0.38-0.08-0.53-0.22l-2.12-2.12
	c-0.289-0.3-0.289-0.77,0-1.07c0.291-0.29,0.771-0.29,1.061,0l2.12,2.13c0.29,0.29,0.29,0.76,0,1.06
	C220.585,125.204,220.385,125.284,220.195,125.284z M215.956,121.034c-0.19,0-0.381-0.07-0.53-0.22l-2.121-2.12
	c-0.289-0.29-0.289-0.76,0-1.06c0.29-0.29,0.771-0.29,1.061,0l2.12,2.12c0.29,0.3,0.29,0.77,0,1.06
	C216.335,120.964,216.145,121.034,215.956,121.034z M211.714,116.794c-0.189,0-0.379-0.07-0.529-0.22l-2.12-2.12
	c-0.29-0.29-0.29-0.77,0-1.06s0.771-0.29,1.06,0l2.12,2.12c0.29,0.3,0.29,0.77,0,1.06
	C212.094,116.724,211.905,116.794,211.714,116.794z M207.475,112.554c-0.19,0-0.39-0.07-0.53-0.22l-2.12-2.12
	c-0.3-0.29-0.3-0.77,0-1.06c0.29-0.29,0.77-0.29,1.06,0l2.12,2.12c0.29,0.29,0.29,0.77,0,1.06
	C207.855,112.484,207.665,112.554,207.475,112.554z M203.235,108.314c-0.2,0-0.39-0.07-0.53-0.22l-2.12-2.12
	c-0.3-0.29-0.3-0.77,0-1.06c0.29-0.29,0.76-0.29,1.06,0l2.12,2.12c0.29,0.29,0.29,0.77,0,1.06
	C203.615,108.244,203.425,108.314,203.235,108.314z M198.995,104.074c-0.2,0-0.39-0.07-0.53-0.22l-2.13-2.12
	c-0.29-0.29-0.29-0.77,0.01-1.06c0.29-0.29,0.76-0.29,1.06,0l2.12,2.12c0.29,0.29,0.29,0.77,0,1.06
	C199.375,104.004,199.185,104.074,198.995,104.074z M194.745,99.834c-0.19,0-0.38-0.08-0.53-0.22l-2.12-2.12
	c-0.29-0.3-0.29-0.77,0-1.06c0.3-0.3,0.77-0.3,1.06,0l2.13,2.12c0.29,0.29,0.29,0.77,0,1.06
	C195.135,99.754,194.945,99.834,194.745,99.834z M190.505,95.594c-0.19,0-0.38-0.08-0.53-0.22l-2.12-2.12
	c-0.29-0.3-0.29-0.77,0-1.06c0.3-0.3,0.77-0.3,1.06,0l2.12,2.12c0.3,0.29,0.3,0.76,0,1.06
	C190.895,95.514,190.705,95.594,190.505,95.594z"/>
<g>
	<path fill-rule="evenodd" clip-rule="evenodd" fill="#FFFFFF" stroke="#000000" stroke-width="2" d="M174.075,78.704
		c3.85-3.84,10.09-3.84,13.93,0c3.84,3.84,3.84,10.08,0,13.93c-3.84,3.84-10.08,3.84-13.93,0
		C170.235,88.784,170.235,82.544,174.075,78.704z"/>
	<g>
		<g>
			<path fill-rule="evenodd" clip-rule="evenodd" d="M185.045,90.874v-0.27c-1.13-0.25-1.32-0.56-1.96-1.59l-1.94-3.09
				c1.22-0.13,2.88-0.68,2.88-2.78c0-2.69-3.21-2.72-4.44-2.72h-4.46v0.27c1.13,0.25,1.6,0.45,1.6,1.66v6.59
				c0,1.21-0.47,1.41-1.6,1.66v0.27h5.08v-0.27c-1.13-0.25-1.59-0.45-1.59-1.66v-2.98h0.58l2.97,4.91H185.045z M183.585,83.234
				c0,1.02-0.52,1.62-1.79,2.05c0.45-0.39,0.78-1.03,0.78-2.05c0-1.08-0.3-1.75-0.72-2.16
				C181.855,81.074,183.585,81.384,183.585,83.234z M182.155,83.154c0,2.32-1.7,2.35-2.71,2.35h-0.83v-3.73
				c0-0.63,0.07-0.96,0.83-0.96h0.59C180.785,80.814,182.155,81.014,182.155,83.154z M183.635,90.444h-1.23l-2.72-4.48
				c0.79,0,0.89,0,1-0.01l2.04,3.28c0.22,0.34,0.55,0.86,0.88,1.19L183.635,90.444z M178.725,90.444h-2.07
				c0.32-0.29,0.5-0.74,0.5-1.5v-6.59c0-0.76-0.18-1.21-0.5-1.51h1.76c-0.11,0.14-0.21,0.23-0.21,0.79v7.31
				C178.205,89.704,178.385,90.154,178.725,90.444z"/>
			<path fill-rule="evenodd" clip-rule="evenodd" d="M185.125,85.834l0.44-0.69c0.27,0.28,0.55,0.42,0.86,0.42
				c0.57,0,0.85-0.27,0.85-0.8c0-0.24-0.08-0.43-0.24-0.59c-0.17-0.15-0.39-0.22-0.67-0.22h-0.16v-0.73h0.14
				c0.51,0,0.76-0.22,0.76-0.64c0-0.45-0.23-0.67-0.71-0.67c-0.25,0-0.49,0.11-0.72,0.34l-0.42-0.61c0.11-0.13,0.28-0.24,0.51-0.34
				c0.22-0.1,0.45-0.15,0.68-0.15c0.5,0,0.89,0.11,1.17,0.34c0.28,0.23,0.42,0.55,0.42,0.96c0,0.49-0.21,0.86-0.63,1.11
				c0.53,0.26,0.79,0.68,0.79,1.25c0,0.48-0.15,0.85-0.47,1.11c-0.31,0.26-0.75,0.4-1.31,0.4
				C185.915,86.324,185.485,86.154,185.125,85.834z"/>
		</g>
	</g>
</g>
<g>
	<path fill-rule="evenodd" clip-rule="evenodd" fill="#FFFFFF" stroke="#000000" stroke-width="2" d="M162.975,89.804
		c3.85-3.84,10.09-3.84,13.93,0c3.84,3.84,3.84,10.08,0,13.93c-3.84,3.84-10.08,3.84-13.93,0
		C159.135,99.884,159.135,93.644,162.975,89.804z"/>
	<g>
		<g>
			<path fill-rule="evenodd" clip-rule="evenodd" d="M173.945,101.974v-0.27c-1.13-0.25-1.32-0.56-1.96-1.59l-1.94-3.09
				c1.22-0.13,2.88-0.68,2.88-2.78c0-2.69-3.21-2.72-4.44-2.72h-4.46v0.27c1.13,0.25,1.6,0.45,1.6,1.66v6.59
				c0,1.21-0.47,1.41-1.6,1.66v0.27h5.08v-0.27c-1.13-0.25-1.59-0.45-1.59-1.66v-2.98h0.58l2.97,4.91H173.945z M172.485,94.334
				c0,1.02-0.52,1.62-1.79,2.05c0.45-0.39,0.78-1.03,0.78-2.05c0-1.08-0.3-1.75-0.72-2.16
				C170.755,92.174,172.485,92.484,172.485,94.334z M171.055,94.254c0,2.32-1.7,2.35-2.71,2.35h-0.83v-3.73
				c0-0.63,0.07-0.96,0.83-0.96h0.59C169.685,91.914,171.055,92.114,171.055,94.254z M172.535,101.544h-1.23l-2.72-4.48
				c0.79,0,0.89,0,1-0.01l2.04,3.28c0.22,0.34,0.55,0.86,0.88,1.19L172.535,101.544z M167.625,101.544h-2.07
				c0.32-0.29,0.5-0.74,0.5-1.5v-6.59c0-0.76-0.18-1.21-0.5-1.51h1.76c-0.11,0.14-0.21,0.23-0.21,0.79v7.31
				C167.105,100.804,167.285,101.254,167.625,101.544z"/>
			<path fill-rule="evenodd" clip-rule="evenodd" d="M175.475,97.354v-3.61l-1.01,0.61v-0.86c0.65-0.31,1.17-0.7,1.55-1.17h0.35
				v5.03H175.475z"/>
		</g>
	</g>
</g>
<g>
	<path fill-rule="evenodd" clip-rule="evenodd" fill="#FFFFFF" stroke="#000000" stroke-width="2" d="M236.935,120.554
		c3.84-3.85,10.08-3.85,13.92,0c3.85,3.84,3.85,10.08,0,13.92c-3.84,3.84-10.08,3.84-13.92,0
		C233.094,130.634,233.094,124.394,236.935,120.554z"/>
	<g>
		<g>
			<path fill-rule="evenodd" clip-rule="evenodd" d="M247.895,132.714v-0.27c-1.13-0.25-1.31-0.56-1.96-1.59l-1.93-3.09
				c1.209-0.12,2.88-0.67,2.88-2.78c0-2.69-3.221-2.72-4.44-2.72h-4.46v0.27c1.13,0.26,1.59,0.45,1.59,1.67v6.58
				c0,1.21-0.46,1.41-1.59,1.66v0.27h5.08v-0.27c-1.13-0.25-1.601-0.45-1.601-1.66v-2.98h0.58l2.98,4.91H247.895z M246.445,125.074
				c0,1.03-0.52,1.62-1.79,2.06c0.45-0.4,0.771-1.03,0.771-2.06c0-1.07-0.29-1.75-0.711-2.16
				C244.714,122.914,246.445,123.224,246.445,125.074z M245.005,125.004c0,2.31-1.69,2.34-2.711,2.34h-0.83v-3.72
				c0-0.64,0.07-0.96,0.83-0.96h0.601C243.635,122.664,245.005,122.864,245.005,125.004z M246.485,132.294h-1.22l-2.73-4.49
				c0.79,0,0.891,0,1.01-0.01l2.041,3.29c0.209,0.33,0.55,0.86,0.869,1.18L246.485,132.294z M241.585,132.294h-2.08
				c0.33-0.3,0.51-0.75,0.51-1.51v-6.58c0-0.77-0.18-1.22-0.51-1.51h1.77c-0.12,0.14-0.221,0.22-0.221,0.79v7.3
				C241.054,131.544,241.245,131.994,241.585,132.294z"/>
			<path fill-rule="evenodd" clip-rule="evenodd" d="M247.975,127.674l0.45-0.69c0.26,0.28,0.55,0.42,0.859,0.42
				c0.56,0,0.851-0.26,0.851-0.79c0-0.24-0.081-0.44-0.25-0.59c-0.16-0.15-0.38-0.23-0.66-0.23h-0.16v-0.73h0.13
				c0.51,0,0.77-0.21,0.77-0.64c0-0.45-0.239-0.67-0.709-0.67c-0.25,0-0.49,0.12-0.721,0.35l-0.42-0.61
				c0.11-0.14,0.28-0.25,0.5-0.35c0.229-0.1,0.46-0.15,0.689-0.15c0.5,0,0.881,0.12,1.16,0.35c0.28,0.22,0.421,0.54,0.421,0.95
				c0,0.49-0.21,0.86-0.63,1.12c0.529,0.25,0.799,0.67,0.799,1.25c0,0.48-0.159,0.84-0.469,1.11c-0.32,0.26-0.75,0.39-1.311,0.39
				C248.765,128.164,248.335,128.004,247.975,127.674z"/>
		</g>
	</g>
</g>
<path fill-rule="evenodd" clip-rule="evenodd" fill="#FF0000" d="M256.645,159.714c-1-0.11-2.03-0.34-3.08-0.69
	c-0.39-0.14-0.601-0.56-0.471-0.95c0.141-0.4,0.561-0.61,0.96-0.47c0.94,0.32,1.871,0.52,2.761,0.62c0.41,0.04,0.71,0.41,0.66,0.83
	C257.435,159.464,257.054,159.754,256.645,159.714z M259.825,159.674c-0.41,0.06-0.79-0.23-0.85-0.64
	c-0.05-0.41,0.229-0.79,0.64-0.85c0.96-0.13,1.85-0.39,2.68-0.75c0.381-0.17,0.82,0.01,0.99,0.38c0.17,0.38-0.01,0.83-0.39,0.99
	C261.945,159.224,260.915,159.524,259.825,159.674z M250.995,157.834c-0.1-0.01-0.19-0.04-0.28-0.09c-0.87-0.48-1.729-1.05-2.6-1.72
	c-0.32-0.25-0.38-0.72-0.13-1.05c0.25-0.32,0.72-0.39,1.05-0.13c0.81,0.62,1.61,1.15,2.41,1.59c0.359,0.2,0.49,0.66,0.29,1.02
	C251.575,157.724,251.285,157.864,250.995,157.834z M265.075,157.294c-0.189-0.02-0.38-0.11-0.51-0.27
	c-0.271-0.31-0.229-0.79,0.09-1.06c0.71-0.6,1.32-1.3,1.83-2.07c0.22-0.35,0.68-0.45,1.03-0.23c0.35,0.23,0.449,0.69,0.229,1.04
	c-0.59,0.9-1.3,1.71-2.12,2.41C265.464,157.244,265.265,157.304,265.075,157.294z M246.325,154.214c-0.189,0-0.38-0.07-0.53-0.22
	c-0.7-0.69-1.39-1.44-2.069-2.27c-0.271-0.32-0.22-0.79,0.1-1.05c0.311-0.27,0.79-0.22,1.05,0.09c0.66,0.79,1.311,1.51,1.97,2.16
	c0.301,0.29,0.301,0.77,0.011,1.06C246.714,154.134,246.515,154.204,246.325,154.214z M268.435,152.314c-0.1,0.02-0.2,0.01-0.3-0.02
	c-0.4-0.11-0.63-0.52-0.521-0.92c0.24-0.87,0.36-1.79,0.34-2.75c0-0.42,0.33-0.76,0.74-0.77c0.41,0,0.76,0.33,0.76,0.74
	c0.021,1.1-0.11,2.17-0.4,3.18C268.975,152.074,268.725,152.284,268.435,152.314z M242.355,149.594c-0.19-0.03-0.37-0.13-0.48-0.3
	c-0.56-0.81-1.119-1.66-1.66-2.57c-0.209-0.35-0.1-0.81,0.261-1.03c0.36-0.21,0.819-0.09,1.03,0.26c0.52,0.88,1.06,1.7,1.6,2.48
	c0.23,0.34,0.15,0.8-0.19,1.04C242.745,149.594,242.544,149.634,242.355,149.594z M268.165,146.404c-0.29-0.04-0.55-0.24-0.64-0.54
	c-0.25-0.85-0.61-1.72-1.1-2.6c-0.2-0.36-0.07-0.82,0.289-1.02c0.36-0.2,0.82-0.07,1.021,0.29c0.54,0.97,0.95,1.94,1.229,2.91
	c0.121,0.4-0.109,0.81-0.51,0.93C268.355,146.404,268.255,146.414,268.165,146.404z M265.304,141.184
	c-0.189-0.02-0.369-0.11-0.51-0.27c-0.58-0.69-1.24-1.39-2.01-2.07c-0.3-0.28-0.33-0.75-0.05-1.06c0.271-0.31,0.75-0.33,1.05-0.06
	c0.82,0.73,1.54,1.48,2.17,2.23c0.26,0.32,0.221,0.79-0.1,1.06C265.695,141.144,265.495,141.204,265.304,141.184z M261.065,137.164
	c-0.19,0.03-0.39-0.01-0.56-0.12l-1.83-1.17l-0.561,0.95c-0.14,0.24-0.66,0.17-0.83-0.05l-2.94-3.89
	c-0.109-0.14-0.229-0.36-0.14-0.51c0.09-0.16,0.34-0.16,0.51-0.14l4.84,0.65c0.271,0.04,0.601,0.46,0.451,0.7l-0.57,0.99l1.93,1.24
	c0.34,0.24,0.42,0.7,0.189,1.04C261.435,137.024,261.255,137.134,261.065,137.164z"/>
<g>
	<path fill-rule="evenodd" clip-rule="evenodd" fill="#FFFFFF" stroke="#000000" stroke-width="2" d="M226.505,131.134
		c3.839-3.85,10.08-3.85,13.92,0c3.85,3.84,3.85,10.08,0,13.92c-3.84,3.84-10.081,3.84-13.92,0
		C222.665,141.214,222.665,134.974,226.505,131.134z"/>
	<g>
		<g>
			<path fill-rule="evenodd" clip-rule="evenodd" d="M237.464,143.294v-0.27c-1.129-0.25-1.31-0.56-1.959-1.59l-1.931-3.09
				c1.21-0.12,2.88-0.67,2.88-2.77c0-2.7-3.22-2.73-4.449-2.73h-4.451v0.27c1.131,0.26,1.591,0.45,1.591,1.67v6.58
				c0,1.21-0.46,1.41-1.591,1.66v0.27h5.081v-0.27c-1.13-0.25-1.601-0.45-1.601-1.66v-2.97h0.58l2.979,4.9H237.464z
				 M236.015,135.654c0,1.03-0.521,1.62-1.79,2.06c0.45-0.4,0.77-1.03,0.77-2.06c0-1.07-0.29-1.75-0.72-2.16
				C234.275,133.494,236.015,133.804,236.015,135.654z M234.575,135.584c0,2.31-1.689,2.34-2.71,2.34h-0.83v-3.72
				c0-0.64,0.07-0.96,0.83-0.96h0.6C233.205,133.244,234.575,133.444,234.575,135.584z M236.054,142.874h-1.229l-2.72-4.48
				c0.79,0,0.89,0,1-0.02l2.05,3.29c0.21,0.33,0.55,0.86,0.87,1.18L236.054,142.874z M231.145,142.874h-2.07
				c0.33-0.3,0.511-0.75,0.511-1.51v-6.58c0-0.77-0.181-1.22-0.511-1.51h1.761c-0.11,0.14-0.211,0.22-0.211,0.79v7.3
				C230.625,142.124,230.815,142.574,231.145,142.874z"/>
			<path fill-rule="evenodd" clip-rule="evenodd" d="M237.585,138.674v-0.26l1.59-2.33c0.319-0.47,0.479-0.86,0.47-1.18
				c0.01-0.38-0.22-0.57-0.681-0.57c-0.34,0-0.62,0.18-0.829,0.55l-0.601-0.47c0.12-0.24,0.301-0.44,0.56-0.6
				c0.25-0.16,0.53-0.23,0.841-0.23c0.51,0,0.909,0.11,1.2,0.35c0.29,0.23,0.439,0.55,0.439,0.97c0,0.38-0.189,0.85-0.56,1.42
				l-1.021,1.56h1.88v0.79H237.585z"/>
		</g>
	</g>
</g>
<g>
	<g>
		<path fill-rule="evenodd" clip-rule="evenodd" d="M157.125,60.874l-0.59-1.81h-3.2l-0.63,1.81h-1.31l3.48-8.7h0.32l3.23,8.7
			H157.125z M154.975,54.424l-1.33,3.78h2.55L154.975,54.424z"/>
	</g>
</g>
<g>
	<g>
		<path fill-rule="evenodd" clip-rule="evenodd" d="M200.595,118.774h-2.45v-8.58c1.05-0.05,1.8-0.08,2.26-0.08
			c0.85,0,1.5,0.18,1.97,0.55c0.46,0.36,0.7,0.89,0.7,1.57c0,0.39-0.15,0.76-0.45,1.09c-0.3,0.32-0.62,0.53-0.98,0.61
			c0.68,0.17,1.17,0.44,1.48,0.82c0.31,0.37,0.47,0.89,0.47,1.54c0,0.76-0.28,1.36-0.83,1.81
			C202.215,118.554,201.485,118.774,200.595,118.774z M199.325,111.124v2.47c0.24,0.03,0.55,0.04,0.91,0.04
			c1.11,0,1.66-0.45,1.66-1.36c0-0.79-0.51-1.19-1.53-1.19C199.975,111.084,199.625,111.104,199.325,111.124z M199.325,114.504v3.27
			c0.4,0.04,0.71,0.06,0.92,0.06c0.74,0,1.27-0.13,1.61-0.41c0.34-0.27,0.51-0.71,0.51-1.31c0-0.56-0.16-0.98-0.49-1.24
			c-0.32-0.27-0.86-0.4-1.61-0.4L199.325,114.504z"/>
	</g>
</g>
<g>
	<g>
		<path fill-rule="evenodd" clip-rule="evenodd" d="M260.554,162.404l-0.399,1.01c-0.37-0.28-0.96-0.41-1.77-0.41
			c-0.75,0-1.351,0.32-1.811,0.97c-0.45,0.65-0.68,1.48-0.68,2.51c0,0.97,0.229,1.76,0.699,2.37c0.46,0.61,1.07,0.91,1.811,0.91
			c0.8,0,1.42-0.28,1.851-0.851l0.649,0.891c-0.68,0.68-1.561,1.021-2.63,1.021c-1.12,0-2-0.411-2.65-1.221
			c-0.64-0.8-0.96-1.87-0.96-3.19c0-1.29,0.341-2.35,1.03-3.2c0.69-0.85,1.57-1.27,2.66-1.27
			C259.294,161.944,260.025,162.104,260.554,162.404z"/>
	</g>
</g>
<line fill-rule="evenodd" clip-rule="evenodd" fill="none" stroke="#000000" stroke-linecap="round" stroke-linejoin="bevel" x1="246.145" y1="117.464" x2="261.685" y2="101.914"/>
<line fill-rule="evenodd" clip-rule="evenodd" fill="none" stroke="#000000" stroke-linecap="round" stroke-linejoin="bevel" x1="189.915" y1="80.134" x2="214.905" y2="55.134"/>
<line fill-rule="evenodd" clip-rule="evenodd" fill="none" stroke="#000000" stroke-linecap="round" stroke-linejoin="bevel" x1="209.245" y1="60.914" x2="255.964" y2="107.644"/>
<path fill-rule="evenodd" clip-rule="evenodd" d="M210.304,61.984c-0.59,0.58-1.539,0.58-2.129,0c-0.58-0.59-0.58-1.54,0-2.13
	c0.59-0.58,1.54-0.58,2.129,0C210.885,60.444,210.885,61.394,210.304,61.984z"/>
<path fill-rule="evenodd" clip-rule="evenodd" d="M254.905,106.584c0.59-0.58,1.54-0.58,2.12,0c0.59,0.59,0.59,1.54,0,2.12
	c-0.58,0.59-1.53,0.59-2.12,0C254.325,108.124,254.325,107.174,254.905,106.584z"/>
<g>
	<g>
		<path fill-rule="evenodd" clip-rule="evenodd" d="M217.094,64.164l-1.339-1.34l6.06-6.07c0.89,0.83,1.45,1.35,1.67,1.57
			c0.88,0.89,1.319,1.85,1.319,2.88c0,1.04-0.43,1.99-1.279,2.84C221.344,66.224,219.195,66.264,217.094,64.164z M221.955,58.774
			l-4.14,4.14c0.149,0.19,0.33,0.39,0.529,0.59c0.551,0.54,1.171,0.77,1.87,0.68c0.711-0.08,1.41-0.48,2.121-1.19
			c1.3-1.3,1.35-2.55,0.14-3.76C222.355,59.124,222.185,58.964,221.955,58.774z"/>
		<path fill-rule="evenodd" clip-rule="evenodd" d="M227.005,70.274l-3.17-3.17c-0.33,0.37-0.491,0.77-0.461,1.19
			c0.03,0.41,0.23,0.81,0.61,1.19c0.47,0.47,0.95,0.71,1.45,0.71l-0.391,1.19c-0.659-0.07-1.359-0.46-2.08-1.19
			c-0.68-0.67-1.01-1.4-1.01-2.2c0-0.78,0.36-1.53,1.07-2.24c0.7-0.7,1.48-1.05,2.35-1.05c0.86-0.01,1.601,0.3,2.2,0.9
			c0.64,0.64,0.97,1.35,0.97,2.13c0.01,0.77-0.279,1.45-0.88,2.05C227.544,69.904,227.315,70.074,227.005,70.274z M224.655,66.354
			l2.181,2.18c0.569-0.72,0.539-1.4-0.11-2.05C226.135,65.894,225.445,65.854,224.655,66.354z"/>
		<polygon fill-rule="evenodd" clip-rule="evenodd" points="227.775,75.004 227.405,74.634 229.915,68.114 231.054,69.244 
			229.405,73.014 233.255,71.444 234.344,72.544 		"/>
		<path fill-rule="evenodd" clip-rule="evenodd" d="M237.725,72.484c0.17,0.16,0.25,0.36,0.25,0.6c0,0.23-0.08,0.43-0.25,0.6
			c-0.16,0.17-0.36,0.25-0.601,0.25c-0.229,0-0.43-0.08-0.6-0.25s-0.25-0.37-0.25-0.6c0-0.24,0.08-0.44,0.25-0.6
			c0.17-0.17,0.37-0.25,0.6-0.25C237.365,72.234,237.565,72.314,237.725,72.484z M231.035,78.104l3.59-3.59l-0.57-0.57l0.851-0.84
			l1.62,1.61l-4.439,4.44L231.035,78.104z"/>
		<path fill-rule="evenodd" clip-rule="evenodd" d="M236.205,82.384c-0.25,0.06-0.54,0.02-0.869-0.11
			c-0.33-0.14-0.631-0.33-0.881-0.59c-0.479-0.47-0.729-0.97-0.77-1.48c-0.03-0.51,0.17-0.99,0.609-1.43
			c0.51-0.51,1.11-0.72,1.78-0.63c0.681,0.1,1.37,0.5,2.08,1.21c0.12,0.12,0.24,0.29,0.37,0.49c0.52-0.52,0.45-1.11-0.21-1.77
			c-0.39-0.39-0.78-0.65-1.17-0.78l0.58-1.03c0.53,0.19,1.04,0.52,1.53,1.02c0.67,0.67,1.02,1.32,1.02,1.95
			c0.01,0.62-0.42,1.36-1.28,2.22l-0.94,0.95c-0.6,0.59-0.85,1.08-0.76,1.47c-0.24,0.06-0.42,0.06-0.56-0.01
			c-0.141-0.07-0.28-0.18-0.42-0.31c-0.15-0.15-0.221-0.34-0.229-0.57C236.075,82.754,236.115,82.554,236.205,82.384z
			 M237.745,80.644c-0.14-0.22-0.25-0.37-0.34-0.46c-0.819-0.81-1.5-0.95-2.03-0.42c-0.399,0.4-0.369,0.83,0.09,1.29
			c0.63,0.62,1.25,0.62,1.871,0L237.745,80.644z"/>
		<path fill-rule="evenodd" clip-rule="evenodd" d="M241.575,81.434l-0.521-0.52l0.841-0.83l0.51,0.51l0.899-0.9l1.421,0.66
			l-1.28,1.28l1.21,1.22l-0.83,0.83l-1.22-1.22l-1.94,1.95c-0.32,0.31-0.489,0.59-0.52,0.82c-0.04,0.23,0.069,0.47,0.319,0.72
			s0.551,0.41,0.9,0.49l-0.95,0.95c-0.329-0.15-0.71-0.46-1.149-0.9c-0.45-0.44-0.66-0.91-0.65-1.39c0.01-0.49,0.25-0.97,0.71-1.43
			L241.575,81.434z"/>
		<path fill-rule="evenodd" clip-rule="evenodd" d="M248.145,82.894c0.159,0.17,0.25,0.37,0.25,0.61c0,0.23-0.091,0.43-0.25,0.6
			c-0.17,0.16-0.37,0.24-0.601,0.24c-0.24,0-0.439-0.08-0.6-0.24c-0.17-0.17-0.25-0.37-0.25-0.6c0-0.24,0.08-0.44,0.25-0.61
			c0.16-0.16,0.359-0.24,0.6-0.24C247.775,82.654,247.975,82.734,248.145,82.894z M241.455,88.524l3.59-3.59l-0.569-0.57l0.85-0.85
			l1.61,1.62l-4.43,4.44L241.455,88.524z"/>
		<path fill-rule="evenodd" clip-rule="evenodd" d="M245.645,88.254c0.68-0.68,1.42-1.03,2.24-1.07c0.819-0.03,1.54,0.27,2.18,0.91
			c0.68,0.68,1,1.41,0.96,2.19c-0.03,0.78-0.41,1.52-1.12,2.23c-0.7,0.71-1.46,1.08-2.25,1.12c-0.8,0.04-1.53-0.27-2.19-0.93
			c-0.67-0.68-0.989-1.41-0.939-2.21C244.575,89.704,244.945,88.954,245.645,88.254z M246.725,89.334
			c-0.98,0.98-1.12,1.82-0.41,2.52c0.32,0.32,0.7,0.45,1.149,0.39c0.44-0.07,0.9-0.33,1.371-0.8c0.959-0.97,1.09-1.8,0.39-2.5
			c-0.32-0.32-0.71-0.45-1.15-0.39C247.625,88.614,247.175,88.874,246.725,89.334z"/>
		<path fill-rule="evenodd" clip-rule="evenodd" d="M251.365,98.434l2.561-2.57c0.379-0.38,0.58-0.72,0.609-1.04
			c0.03-0.32-0.12-0.65-0.449-0.98c-0.15-0.15-0.351-0.27-0.61-0.35c-0.261-0.09-0.5-0.12-0.72-0.09l-3.211,3.21l-1.039-1.04
			l4.439-4.43l0.75,0.74l-0.23,0.61c0.621-0.05,1.2,0.2,1.75,0.75c0.521,0.52,0.78,1.1,0.771,1.72s-0.3,1.21-0.86,1.78l-2.729,2.72
			L251.365,98.434z"/>
	</g>
</g>
</svg>
