<?xml version="1.0" encoding="utf-8"?>
<!-- Generator: Adobe Illustrator 14.0.0, SVG Export Plug-In . SVG Version: 6.00 Build 43363)  -->
<!DOCTYPE svg PUBLIC "-//W3C//DTD SVG 1.1//EN" "http://www.w3.org/Graphics/SVG/1.1/DTD/svg11.dtd">
<svg version="1.1" id="Layer_1" xmlns="http://www.w3.org/2000/svg" xmlns:xlink="http://www.w3.org/1999/xlink" x="0px" y="0px"
	 width="519.13px" height="160.493px" viewBox="0 0 519.13 160.493" enable-background="new 0 0 519.13 160.493"
	 xml:space="preserve">
<path fill-rule="evenodd" clip-rule="evenodd" d="M233.49,160.44c-5.99,0.25-11.8-0.41-17.27-1.41c-9.99-1.81-19.42-4.74-28.66-8.07
	c-2.17-0.779-4.34-1.589-6.5-2.409c-1.41-0.53-2.81-1.11-4.22-1.62c-1.68-0.62-3.35-1.341-5.04-1.979
	c-1.35-0.511-2.7-1.051-4.06-1.58c-0.19-0.07-0.33-0.19-0.49-0.331c-0.11-0.089-0.22-0.149-0.32-0.26
	c-0.04-0.05-0.12-0.079-0.16-0.13c-0.03-0.061-0.02-0.14-0.04-0.21c-0.06-0.15-0.13-0.43-0.13-0.601
	c-0.01-0.069-0.06-0.139-0.05-0.199c0.01-0.07,0.07-0.13,0.09-0.189c0.05-0.161,0.17-0.421,0.27-0.561
	c0.03-0.06,0.04-0.14,0.08-0.189c0.05-0.051,0.13-0.051,0.19-0.091c0.12-0.09,0.23-0.12,0.37-0.189c0.14-0.07,0.23-0.131,0.37-0.19
	c0.08-0.029,0.19-0.021,0.28-0.029c0.16-0.03,0.32-0.051,0.49-0.07l0.67-0.091l-1.14-0.39c-0.86-0.46-1.67-1.029-2.44-1.68
	c-1.29-1.09-2.39-2.4-3.36-3.72c-0.29-0.4-0.57-0.8-0.85-1.221c-0.13-0.199-0.33-0.44-0.42-0.649c-0.06-0.141-0.18-0.28-0.26-0.421
	c-0.17-0.27-0.34-0.55-0.51-0.829c-0.53-0.891-1.05-1.771-1.54-2.671l-3.59-7.6l-6.5,2.5c-3.31,1.141-6.67,2.19-10.06,3.16
	c-5.71,1.63-11.56,3-17.43,4.311c-3.37,0.759-6.75,1.479-10.15,2.189h-0.01l0.23,4.601c0.01,3.05-0.05,6.08-0.24,9.039
	c-0.08,1.101-0.17,2.221-0.3,3.291c-0.05,0.47-0.1,0.949-0.18,1.409c-0.03,0.16-0.03,0.32-0.06,0.471
	c-0.04,0.159-0.13,0.31-0.17,0.47c-0.2,0.63-0.45,1.239-0.68,1.859c-0.17-0.459-0.35-0.92-0.52-1.39
	c-0.13-0.34-0.25-0.569-0.34-0.92c-0.05-0.149-0.05-0.311-0.08-0.47c-0.1-0.45-0.16-0.921-0.23-1.391
	c-0.19-1.22-0.35-2.46-0.51-3.71c-0.51-4.04-0.98-8.1-1.49-12.14l-0.02-0.189l-5.61,1.13c-6.82,1.34-13.68,2.629-20.53,3.909
	l-10.98,2.091l0.43,4.42c0.17,1.42,0.35,2.81,0.54,4.209c0.06,0.4,0.11,0.791,0.16,1.19c0.03,0.33,0.08,0.66,0.07,1.01
	c0,0.221-0.08,0.37-0.15,0.561c-0.12-0.04-0.28-0.061-0.4-0.12c-0.08-0.05-0.17-0.149-0.24-0.22c-0.19-0.19-0.35-0.41-0.5-0.63
	c-0.24-0.351-0.45-0.711-0.64-1.08c-1.08-2.021-1.79-4.261-2.44-6.49l-0.49-2.16l-5.9,1.12c-6.83,1.34-13.63,2.73-20.37,4.22
	c-9.9,2.2-19.65,4.65-29.29,7.35c-3.02,0.851-6.01,1.771-9.1,2.471c-0.13,0.029-0.271,0.07-0.4,0.09c-0.14,0.02-0.27,0.09-0.4,0.09
	c-0.04,0-0.03-0.07-0.06-0.08s-0.03-0.06-0.05-0.09c-0.05-0.069-0.13-0.16-0.16-0.25l0.05-0.03l0.041-0.02
	c0.73-0.39,1.45-0.79,2.2-1.14c2.35-1.12,4.78-2.091,7.22-3.03c5.41-2.08,10.93-3.92,16.52-5.62c11.07-3.36,22.42-6.19,33.89-8.78
	l4.72-1.04l-1.29-5.699c-1.32-7.101-2.33-14.371-3.2-21.69c-0.72-6.09-1.35-12.23-1.89-18.4c-0.2-2.27-0.38-4.55-0.57-6.83
	c-0.05-0.709-0.11-1.409-0.16-2.13c-0.02-0.199-0.03-0.399-0.05-0.61c-0.01-0.12-0.02-0.25-0.03-0.38c0-0.05-0.01-0.14,0-0.09
	c-1.34-17.13-2.16-34.56-2.59-52.15l-0.08-4.98l-9.03-0.19c-3.1-0.09-6.19-0.2-9.24-0.35c-2.4-0.13-4.55-0.47-6.82-0.8
	c0.97-0.14,1.94-0.29,2.92-0.43c0.68-0.1,1.25-0.21,1.94-0.29c0.32-0.03,0.65-0.03,0.97-0.06c0.97-0.09,1.95-0.13,2.92-0.19
	c2.6-0.17,5.2-0.3,7.81-0.43l8.48-0.36l-0.04-2.4c0-2.56-0.02-5.14,0.25-7.58c0.02-0.27,0.02-0.57,0.09-0.84
	c0.02-0.1,0.08-0.19,0.11-0.29c0.12-0.39,0.29-0.78,0.44-1.17c0.16,0.27,0.32,0.54,0.49,0.81c0.11,0.2,0.22,0.32,0.32,0.53
	c0.04,0.09,0.04,0.19,0.08,0.27c0.09,0.26,0.16,0.54,0.23,0.81c0.2,0.7,0.36,1.4,0.52,2.12c0.42,1.98,0.79,3.99,1.12,6.01l0.2,1.58
	l2.76-0.12c5.04-0.17,10.1-0.29,15.19-0.35c3.84-0.03,7.66-0.03,11.45,0.03l1.75,0.04l-0.63-8.89v-1.18l-5.33,0.39
	c-1.14,0.07-2.23-0.04-3.37-0.13c0.45-0.2,0.89-0.4,1.33-0.61c0.33-0.15,0.55-0.28,0.89-0.4c0.15-0.05,0.31-0.08,0.46-0.13
	c0.76-0.24,1.53-0.42,2.32-0.61l3.7-0.8l0.01-4.2c0.02-0.33,0.02-0.63,0.06-0.96c0.02-0.16,0-0.32,0.03-0.48
	c0.02-0.16,0.09-0.32,0.13-0.48c0.15-0.65,0.36-1.29,0.54-1.94c0.2,0.46,0.41,0.91,0.62,1.37c0.16,0.34,0.3,0.56,0.42,0.91
	c0.12,0.33,0.14,0.59,0.22,0.93l0.85,4.3l17.71-2.38c7.08-0.59,14.45-0.82,21.81-0.65c6.65,0.16,13.14,0.64,19.47,1.45
	c3.97,0.51,7.96,1.07,11.78,1.92c4.8,1.08,9.34,2.65,13.67,4.68c4.73,2.21,9.22,4.98,13.28,8.5c2.53,2.19,4.89,4.71,6.75,7.37
	c2,2.85,3.58,5.93,4.48,9.33c0.75,2.83,1.04,6.16,0.63,9.29c-0.32,2.33-0.94,4.5-1.82,6.55c-1.26,2.95-3,5.65-5.13,8.17l-1.36,1.37
	l1.37,2.77c1.7,3.94,2.86,8.26,2.73,13.1c-0.01,0.43-0.03,0.85-0.06,1.27c-0.22,3.1-0.95,5.959-2.06,8.61
	c-0.89,2.12-2.02,4.08-3.3,6l-4.67,5.87l0.5,0.83c0.41,1.29,0.74,2.61,0.96,3.99c0.42,2.71,0.43,5.78,0.18,8.59
	c-0.2,2.3-0.54,4.54-1.02,6.71l-1.27,4.29l0.36,1.59c0.26,0.88,0.58,1.76,1,2.56c0.5,0.971,1.19,2.061,2.28,2.44
	c0.37,0.13,0.85,0.09,1.25,0.01l1.5-0.59l0.14-0.069c0.14-0.08,0.28-0.171,0.42-0.261c0.56-0.36,1.08-0.819,1.56-1.31
	c1.38-1.41,2.38-3.101,3.23-4.81l0.74-1.761l-0.63-2.46c-0.44-2.62-0.31-5.58,0.09-8.16c0.12-0.77,0.24-1.53,0.4-2.28
	c0.21-0.97,0.43-1.899,0.69-2.839c0.45-1.671,0.99-3.291,1.59-4.891c0.28-0.76,0.52-1.57,1.01-2.221
	c0.41-0.539,0.98-0.939,1.64-1.079c0.89-0.18,1.75,0.13,2.35,0.72c0.56,0.55,0.77,1.25,0.93,2c0.08,0.4,0.13,0.84,0.16,1.26
	c0.08,1.05,0.1,2.1,0.11,3.211c0.03,4.899-0.81,9.42-2.07,13.729l-0.96,2.779l0.65,0.58c0.18,0.061,0.41-0.039,0.56-0.089
	c0.44-0.171,0.83-0.5,1.19-0.841c0.49-0.46,0.9-1,1.26-1.521c0.49-0.699,0.92-1.449,1.3-2.209c1.04-2.091,1.82-4.341,2.47-6.69
	l0.6-2.72L211,101.16c-1.2-8.689-2-17.62-2.16-26.8c-0.12-6.39,0.02-12.8,0.89-18.76c0.23-1.55,0.3-3.37,2.06-3.85
	c0.55-0.14,1.14-0.12,1.63,0.11c0.41,0.18,0.75,0.45,1.03,0.82c0.32,0.44,0.48,0.99,0.58,1.55c0.09,0.48,0.18,0.96,0.25,1.45
	c0.34,2.39,0.63,4.84,0.9,7.26c0.62,5.7,1.13,11.45,1.57,17.27c0.29,3.871,0.55,7.69,0.71,11.58c0.13,3.4,0.29,7.03,0.07,10.381
	c-0.13,1.899-0.47,3.789-0.83,5.619l-0.49,1.961l0.14,0.859c0.56,2.971,1.19,5.9,1.92,8.771c0.53,2.07,1.07,4.13,1.69,6.13
	c0.54,1.75,1.14,3.5,1.77,5.199c0.52,1.421,1.11,2.841,1.76,4.221l0.89,1.62l7.01-0.521c2.57-0.279,5.1-0.6,7.62-0.97l5.02-0.851
	l0.09-0.12l2.33-4.109l0.94-1.899l-0.64-2.851c-0.49-2.47-0.91-4.979-1.3-7.479c-0.87-5.561-1.58-11.19-2.11-16.931
	c-0.42-4.53-0.71-9.14-0.83-13.83c-0.11-4.2-0.04-8.47,0.26-12.53c0.29-3.93,0.8-7.78,1.82-11.33c0.63-2.23,1.43-4.42,2.69-6.32
	c0.83-1.25,1.86-2.44,3.1-3.32c0.81-0.57,1.7-1.03,2.8-1.03c0.42,0,0.78,0.06,1.17,0.15c0.45,0.1,0.87,0.33,1.26,0.57
	c0.79,0.48,1.45,1.25,1.98,1.99c1.11,1.56,1.83,3.41,2.45,5.23c0.81,2.39,1.44,4.88,1.96,7.42c0.79,3.86,1.431,7.81,1.91,11.84
	c0.4,3.27,0.729,6.59,0.869,9.97c0.07,1.62,0.121,3.37,0.011,4.959c-0.05,0.791-0.229,1.471-0.4,2.23
	c-0.329,1.5-0.72,2.97-1.13,4.431c-1.27,4.539-2.8,8.939-4.5,13.27c-1.02,2.61-2.12,5.181-3.29,7.72l-3.39,7.021l0.13,0.649
	c0.2,0.791,0.38,1.591,0.62,2.36v-0.01l0.08,0.24l7.39-1.601l0.77-3.88c0.32-1.6,0.601-3.22,0.891-4.85
	c0.66-3.61,1.31-7.23,1.971-10.84c1.919-10.681,3.81-21.4,6.06-31.82c0.42-1.96,0.88-3.91,1.39-5.85c0.351-1.35,0.72-2.73,1.24-4.01
	c0.409-1.03,0.92-2.21,2.03-2.68c0.27-0.11,0.569-0.18,0.899-0.18c1.181-0.01,1.851,0.86,2.46,1.72c0.141,0.19,0.29,0.38,0.421,0.58
	c0.189,0.3,0.38,0.59,0.569,0.89c0.22,0.36,0.42,0.73,0.62,1.1c0.949,1.74,1.59,3.67,2.11,5.62c1.01,3.87,1.289,8.24,1.14,12.62
	c-0.181,4.851-0.82,9.44-1.64,13.97c-0.62,3.36-1.4,6.641-2.24,9.86c-0.65,2.45-1.34,4.87-2.08,7.26
	c-0.49,1.57-0.96,3.171-1.58,4.671l-1.21,2.529l5.44-1.34c5.1-1.319,10.17-2.71,15.199-4.16c18.09-5.21,35.851-11.04,53.59-16.97
	c11.5-3.84,23-7.681,34.511-11.439c-0.061,0.029,0.13-0.041,0.2-0.061c0.129-0.051,0.259-0.09,0.39-0.13
	c0.26-0.09,0.52-0.171,0.79-0.26c0.789-0.261,1.57-0.521,2.359-0.78c2.551-0.85,5.07-1.74,7.59-2.64
	c8.601-3.041,17.08-6.341,25.53-9.67c16.47-6.48,32.83-13.2,49.511-19.25c11.089-4.02,22.279-7.76,33.83-10.84l6.34-1.47l5.169-1.25
	c1.19-0.27,2.391-0.49,3.561-0.78L510.4,48.6l-1.41,0.33c-6.69,1.71-13.28,3.71-19.76,5.86c-15.58,5.14-30.721,11.19-45.83,17.34
	c-14.211,5.77-28.32,11.69-42.65,17.13c-4.431,1.69-8.88,3.3-13.37,4.85c-2.84,0.979-5.68,1.91-8.53,2.88
	c-11.869,4.021-23.729,8.131-35.58,12.19c-14.95,5.12-29.939,10.09-45.159,14.64c-6.61,1.97-13.271,3.87-19.99,5.61l-4.62,1.15
	l-1.34,2.229c-0.9,1.34-1.841,2.63-2.9,3.87c-1,1.17-2.079,2.31-3.26,3.3c-0.689,0.59-1.42,1.141-2.181,1.609l-1.31,0.631
	l-1.529,3.29c-0.87,1.64-1.94,3.18-3.161,4.64c-1.35,1.61-2.96,3.09-4.61,4.28c-2.03,1.46-4.2,2.609-6.51,3.49
	C242.64,159.459,238.22,160.24,233.49,160.44z M228.83,156.91c6.22,0.15,12.05-0.51,17.17-2.609c2.3-0.95,4.49-2.23,6.42-3.91
	c2.08-1.801,3.77-3.91,5.05-6.181l0.58-1.14l-0.99-0.08c-0.61-0.159-1.17-0.38-1.7-0.67c-2.34-1.28-3.8-3.78-4.74-6.08l-0.14-0.39
	l-1.16,0.25l-2.11,3.359c-2.49,3.551-5.72,7.32-9.77,8.961c-1.47,0.6-3.33,0.939-5.08,0.63c-1.99-0.341-3.66-1.15-5.2-2.391
	c-1.49-1.209-2.76-2.709-3.82-4.229l-1.57-2.771l-8.67,0.591c-8.97,0.38-18.01,0.569-26.85,1.239l-11.42,1.181l0.42,0.16
	c1.3,0.489,2.6,1,3.89,1.5c2.66,1.02,5.34,2.009,8.04,2.979c6.24,2.21,12.51,4.271,19,5.96c3.29,0.86,6.62,1.63,10.03,2.23
	C220.3,156.22,224.47,156.8,228.83,156.91z M233.39,144.44c0.88,0.08,1.69-0.14,2.43-0.43c1.08-0.44,2.09-1.14,3-1.95
	c1.37-1.221,2.6-2.64,3.65-4.05l0.48-0.7l-5.23,0.85c-2.67,0.37-5.36,0.69-8.07,0.961l-2.7,0.18l1.04,1.489
	c0.47,0.61,0.99,1.19,1.57,1.721c0.7,0.64,1.46,1.19,2.3,1.55C232.34,144.26,232.85,144.39,233.39,144.44z M177.54,139.15l6.42-0.61
	c10.76-0.76,21.85-0.869,32.79-1.359l3.48-0.25l-2.73-6.771c-0.81-2.34-1.52-4.729-2.19-7.14l-0.93-3.91l-0.29,0.761
	c-0.67,1.449-1.45,2.839-2.4,4.169c-0.58,0.82-1.28,1.591-2.06,2.261c-1.33,1.13-2.94,1.95-4.88,1.84
	c-0.53-0.03-1.02-0.15-1.47-0.31l-0.92-0.521l-0.67,1.38c-1.04,1.8-2.27,3.44-3.85,4.92c-0.54,0.511-1.14,0.94-1.73,1.341
	c-1.32,0.869-2.83,1.52-4.47,1.689c-2.91,0.3-5.25-1.04-6.86-3.21c-0.28-0.37-0.54-0.75-0.77-1.15l-0.22-0.51l-0.59,1.27
	c-0.7,1.2-1.52,2.391-2.48,3.461c-0.72,0.81-1.49,1.539-2.33,2.159L177.54,139.15z M259.13,138.88l0.521-0.13l0.59-2.541l0.5-2.52
	l-5.93,1.25l1.25,2.32c0.15,0.19,0.3,0.37,0.47,0.55C257.23,138.57,258.02,138.959,259.13,138.88z M68.9,136.089l2.52-0.55
	c6.72-1.45,13.47-2.85,20.21-4.279l14.06-3.06l-2.39-16.95l-1.93-11.681l-7.35,1.02c-1.78,0.111-3.65,0.171-5.48,0.081
	c-0.71-0.03-1.41-0.07-2.09-0.16c-0.2-0.03-0.42-0.04-0.61-0.09c-0.34-0.09-0.68-0.261-1.01-0.391c0.4-0.149,0.78-0.329,1.2-0.44
	c0.33-0.079,0.66-0.119,1-0.18c0.96-0.17,1.92-0.32,2.88-0.47c3.32-0.55,6.59-1.2,9.82-1.93l1.17-0.33l-1.33-8.07
	c-1.84-10.75-3.73-21.47-5.44-32.28c-1.56-9.82-3-19.72-4.01-29.81l-0.1-1.47l-9.71-0.43c-4.18-0.14-8.39-0.24-12.59-0.32
	l-8.76-0.16l1.85,14.44c0.76,7.32,1.4,14.7,2,22.1c0.56,7.04,1.14,14.1,1.68,21.15c1.12,14.67,2.14,29.42,3.4,44.06L68.9,136.089z
	 M264.15,135.871l0.51-0.49l2.771-3.3l-2.631,0.649l-0.1,0.53L264.15,135.871z M172.05,135.85c0.65,0.101,1.37,0,1.92-0.229
	c1.99-0.801,3.57-2.721,4.69-4.521c1.06-1.69,1.9-3.47,2.61-5.32l0.24-0.729l-0.04-0.16c-0.69-3.41-0.95-7.04-0.99-10.75l0.4-7.64
	l-1.16,1.06c-2.61,2.01-5.34,3.811-8.11,5.46c-2.11,1.25-4.26,2.42-6.44,3.51l-5.38,2.48l2.48,5.5c0.58,1.13,1.18,2.21,1.82,3.3
	c0.21,0.37,0.43,0.74,0.65,1.1c0.14,0.23,0.27,0.44,0.41,0.671c0.01,0.009,0.02,0.029,0.03,0.04c0.01,0.01,0.02,0.029,0.03,0.039
	c0.01,0.021,0.02,0.03,0.03,0.05c0,0.011,0.01,0.03,0.02,0.041c0.05,0.08,0.02,0.029,0.01,0.02c0.9,1.46,1.93,2.83,3.22,4.069
	c0.69,0.671,1.44,1.211,2.27,1.611C171.15,135.65,171.58,135.78,172.05,135.85z M265.34,130.02l4.141-1.02l0.97-1.521
	c0.6-1.08,1.149-2.17,1.66-3.29c0.22-0.48,0.409-0.96,0.6-1.45c0.06-0.17,0.12-0.33,0.17-0.489c0.021-0.061,0.11-0.38,0.11-0.32
	c2.17-6.62,4.02-13.32,5.34-20.43c0.8-4.32,1.351-8.721,1.449-13.36c0.101-4.439-0.349-8.64-1.579-12.43
	c-0.28-0.87-0.65-1.69-1.04-2.5l-0.29-0.49l-0.29,0.78c-0.62,2.22-1.149,4.47-1.66,6.72c-1.04,4.53-1.939,9.2-2.84,13.84
	c-1.38,7.11-2.68,14.279-3.99,21.41c-0.811,4.38-1.67,8.81-2.479,13.18L265.34,130.02z M110.8,127.089l1-0.219
	c4.33-0.98,8.65-2,12.94-3.061c1.07-0.26,2.14-0.53,3.21-0.8c0.27-0.07,0.54-0.14,0.81-0.21c0.32-0.08,0.54-0.13,0.69-0.17
	l0.15-0.041l9.8-2.77c2.78-0.869,5.53-1.78,8.25-2.76l5.56-2.189l-2.55-8.021c-1.05-4.33-1.81-8.8-2.29-13.41l-0.24-6.03
	l-2.69,0.891c-6.8,2.239-13.64,4.409-20.61,6.35c-5.29,1.471-10.65,2.82-16.13,3.91l-0.61,0.08l0.32,2.14
	c0.78,5.78,1.45,11.61,1.96,17.521L110.8,127.089z M251.57,121.64l0.8-1.63c2.39-5.18,4.47-10.51,6.23-15.98l2.51-9.19l0.09-0.75
	c0.13-1.979,0.01-4.069-0.11-6.05c-0.189-2.81-0.46-5.6-0.79-8.35c-0.33-2.81-0.771-5.58-1.25-8.32c-0.48-2.75-1.09-5.5-1.87-8.1
	c-0.47-1.55-1.01-3.05-1.71-4.49c-0.27-0.55-0.58-1.08-1-1.52l-0.25-0.23l-0.17,0.12c-0.15,0.1-0.29,0.2-0.43,0.32
	c-0.62,0.51-1.13,1.16-1.55,1.81c-0.89,1.34-1.47,2.88-1.96,4.45c-0.74,2.34-1.17,4.86-1.5,7.42c-0.23,1.71-0.37,3.45-0.48,5.22
	c-0.22,3.52-0.25,7.219-0.16,10.82c0.21,8.09,0.93,15.931,1.91,23.61L251.57,121.64z M157.56,113l5.92-2.82
	c2.55-1.33,5.04-2.78,7.46-4.35c4.63-3.011,9.2-6.671,12.92-11.101l3.97-5.649l2.24-5.271c0.36-1.32,0.62-2.7,0.71-4.17
	c0.15-2.34-0.1-4.63-0.61-6.72c-0.28-1.14-0.63-2.25-1.04-3.32l-0.77-1.73l-5.15,4.03c-1.9,1.33-3.86,2.57-5.85,3.73
	c-3.72,2.15-7.59,4.02-11.57,5.64c-3.35,1.37-6.8,2.51-10.26,3.67l-2.8,0.931l0.02,0.789c0.37,8.24,1.65,16.07,3.81,23.421
	L157.56,113z M107.52,94.839l11.61-3.219c8.58-2.73,17-5.75,25.42-8.82l3.34-1.22l-0.1-2.38c0.05-2.78,0.24-5.51,0.49-8.18
	c0.29-3.31,0.8-6.51,1.36-9.68c0.24-1.33,1.52-2.21,2.84-1.96c1.33,0.24,2.21,1.51,1.96,2.84c-0.62,3.27-1.09,6.63-1.39,10.07
	l-0.29,7.51l0.47-0.17c2.43-0.88,4.8-1.7,7.2-2.65c2.48-0.98,4.93-2.06,7.32-3.23c3.31-1.62,6.54-3.42,9.64-5.48l7.64-6.11
	l-0.98-1.55c-1.83-2.47-3.96-4.85-6.28-7.05c-1.34-1.26-2.69-2.46-4.08-3.58c-0.36-0.29-0.71-0.57-1.07-0.85
	c-0.16-0.12-0.32-0.25-0.48-0.37c-0.04-0.03-0.08-0.06-0.12-0.09c-0.04-0.03-0.08-0.06-0.12-0.1l-0.11-0.07l-0.01-0.01l-3.01-2.16
	c-1.02-0.7-2.05-1.39-3.1-2.05c-3.7-2.34-7.55-4.4-11.52-6.21c-16.4-7.48-34.89-10.79-54.24-12.36l-4.59-0.31L99,45.48
	c2.36,12.64,4.75,25.29,6.83,38.07L107.52,94.839z M189.63,57.46l1.63-2.03c0.85-1.22,1.6-2.49,2.22-3.84
	c0.71-1.53,1.22-3.16,1.51-4.9c0.1-0.59,0.16-1.19,0.19-1.81c0.17-2.87-0.43-5.51-1.38-7.88c-2.34-5.83-7.36-10.8-12.58-14.45
	c-2.6-1.82-5.34-3.36-8.18-4.71c-2.22-1.05-4.5-1.95-6.85-2.73l-7.25-1.95l-7.32-1.33c-3.91-0.63-7.88-1.14-11.9-1.55
	c-11.18-1.14-23.14-1.38-34.77-0.92l-12.49,0.75l0.85,4.31l1.12,6.13l4.79,0.19c22.37,1.12,43.5,4.77,61.86,13.92
	c4.23,2.11,8.3,4.51,12.23,7.22c2.65,1.83,5.22,3.81,7.67,6.03c2.38,2.17,4.61,4.46,6.61,6.87L189.63,57.46z M171.81,48.51
	c-0.02-0.02-0.06-0.04-0.06-0.04l0.03,0.02h0.01v0.01L171.81,48.51z"/>
</svg>
