<?xml version="1.0" encoding="utf-8"?>
<!-- Generator: Adobe Illustrator 14.0.0, SVG Export Plug-In . SVG Version: 6.00 Build 43363)  -->
<!DOCTYPE svg PUBLIC "-//W3C//DTD SVG 1.0//EN" "http://www.w3.org/TR/2001/REC-SVG-20010904/DTD/svg10.dtd">
<svg version="1.0" id="Layer_1" xmlns="http://www.w3.org/2000/svg" xmlns:xlink="http://www.w3.org/1999/xlink" x="0px" y="0px"
	 width="538.709px" height="139.56px" viewBox="0 0 538.709 139.56" enable-background="new 0 0 538.709 139.56"
	 xml:space="preserve">
<g opacity="0.5">
	<g>
		
			<line fill="none" stroke="#000000" stroke-width="0.5" stroke-linejoin="bevel" x1="110.106" y1="121.258" x2="166.199" y2="121.258"/>
		<polygon points="110.796,120.357 110.276,121.258 110.796,122.16 110.244,122.16 109.724,121.258 110.244,120.357 		"/>
	</g>
</g>
<rect x="0.12" y="11.69" fill-rule="evenodd" clip-rule="evenodd" fill="#E00000" width="107.72" height="9.07"/>
<rect x="107.84" y="11.69" fill-rule="evenodd" clip-rule="evenodd" fill="#C4C4C4" width="107.72" height="9.07"/>
<rect x="215.55" y="11.69" fill-rule="evenodd" clip-rule="evenodd" fill="#A100EB" width="107.72" height="9.07"/>
<rect x="323.27" y="11.69" fill-rule="evenodd" clip-rule="evenodd" fill="#00C442" width="107.72" height="9.07"/>
<rect x="430.99" y="11.69" fill-rule="evenodd" clip-rule="evenodd" fill="#FFB800" width="107.72" height="9.07"/>
<line fill-rule="evenodd" clip-rule="evenodd" fill="none" stroke="#000000" stroke-linejoin="bevel" x1="0.12" y1="20.76" x2="538.709" y2="20.76"/>
<g>
	<g>
		<path fill-rule="evenodd" clip-rule="evenodd" d="M2.58,30.29L2.4,31.15c-0.25,0.07-0.5,0.1-0.74,0.1c-0.42,0-0.76-0.1-1.01-0.31
			c-0.18-0.15-0.28-0.37-0.28-0.64c0-0.13,0.05-0.45,0.16-0.94l0.75-3.62h-0.84l0.17-0.82h0.84l0.32-1.52l1.22-0.74l-0.48,2.26h1.04
			l-0.17,0.82H2.34l-0.72,3.44c-0.09,0.44-0.13,0.7-0.13,0.79c0,0.12,0.03,0.22,0.1,0.29c0.08,0.06,0.19,0.1,0.36,0.1
			C2.18,30.36,2.39,30.33,2.58,30.29z"/>
		<path fill-rule="evenodd" clip-rule="evenodd" d="M3.28,30.23c0-0.51,0.05-0.92,0.16-1.23c0.1-0.31,0.26-0.54,0.46-0.71
			c0.21-0.17,0.47-0.25,0.78-0.25c0.23,0,0.43,0.04,0.61,0.13c0.17,0.1,0.32,0.23,0.43,0.41c0.11,0.17,0.2,0.38,0.27,0.63
			c0.06,0.26,0.09,0.59,0.09,1.02c0,0.5-0.05,0.91-0.15,1.22c-0.11,0.31-0.26,0.55-0.47,0.72C5.26,32.34,5,32.42,4.68,32.42
			c-0.41,0-0.74-0.15-0.97-0.44C3.42,31.62,3.28,31.04,3.28,30.23z M3.82,30.23c0,0.71,0.09,1.17,0.25,1.41
			c0.17,0.23,0.37,0.35,0.61,0.35s0.45-0.12,0.61-0.35c0.17-0.24,0.25-0.71,0.25-1.41c0-0.71-0.08-1.18-0.25-1.41
			c-0.16-0.23-0.37-0.35-0.61-0.35c-0.25,0-0.44,0.1-0.58,0.31C3.91,29.04,3.82,29.52,3.82,30.23z"/>
	</g>
</g>
<g>
	<g>
		<path fill-rule="evenodd" clip-rule="evenodd" d="M109.16,30.32l-0.17,0.87c-0.26,0.07-0.5,0.1-0.74,0.1
			c-0.42,0-0.76-0.11-1.01-0.31c-0.19-0.16-0.28-0.37-0.28-0.64c0-0.14,0.05-0.45,0.15-0.94l0.76-3.62h-0.84l0.17-0.82h0.84
			l0.32-1.53l1.21-0.73l-0.47,2.26h1.04l-0.17,0.82h-1.04l-0.72,3.44c-0.09,0.44-0.14,0.7-0.14,0.79c0,0.12,0.04,0.22,0.11,0.28
			c0.07,0.07,0.19,0.1,0.36,0.1C108.77,30.39,108.98,30.37,109.16,30.32z"/>
		<path fill-rule="evenodd" clip-rule="evenodd" d="M111.86,32.38h-0.53v-3.36c-0.13,0.12-0.3,0.25-0.5,0.37
			c-0.21,0.12-0.39,0.21-0.56,0.27v-0.51c0.3-0.14,0.56-0.31,0.78-0.5c0.22-0.2,0.37-0.39,0.47-0.58h0.34V32.38z"/>
	</g>
</g>
<g>
	<g>
		<path fill-rule="evenodd" clip-rule="evenodd" d="M214.94,30.32l-0.18,0.87c-0.25,0.07-0.5,0.1-0.74,0.1
			c-0.42,0-0.76-0.11-1.01-0.31c-0.18-0.16-0.28-0.37-0.28-0.64c0-0.14,0.05-0.45,0.16-0.94l0.75-3.62h-0.84l0.17-0.82h0.84
			l0.32-1.53l1.22-0.73l-0.48,2.26h1.04l-0.17,0.82h-1.04l-0.72,3.44c-0.09,0.44-0.13,0.7-0.13,0.79c0,0.12,0.03,0.22,0.1,0.28
			c0.08,0.07,0.19,0.1,0.36,0.1C214.54,30.39,214.75,30.37,214.94,30.32z"/>
		<path fill-rule="evenodd" clip-rule="evenodd" d="M218.41,31.88v0.5h-2.84c0-0.12,0.02-0.24,0.07-0.36
			c0.07-0.2,0.18-0.39,0.34-0.57c0.16-0.19,0.39-0.41,0.69-0.65c0.47-0.39,0.79-0.69,0.95-0.91c0.16-0.23,0.25-0.44,0.25-0.64
			c0-0.21-0.08-0.38-0.23-0.53c-0.15-0.14-0.34-0.21-0.58-0.21c-0.26,0-0.46,0.07-0.61,0.23c-0.15,0.15-0.23,0.36-0.23,0.63
			l-0.55-0.06c0.04-0.4,0.18-0.71,0.42-0.92c0.25-0.21,0.57-0.32,0.98-0.32s0.74,0.12,0.98,0.34c0.24,0.23,0.36,0.52,0.36,0.85
			c0,0.18-0.04,0.34-0.11,0.51c-0.07,0.17-0.18,0.34-0.35,0.53c-0.16,0.18-0.43,0.43-0.81,0.75c-0.32,0.27-0.52,0.45-0.61,0.54
			c-0.09,0.1-0.16,0.19-0.22,0.29H218.41z"/>
	</g>
</g>
<g>
	<g>
		<path fill-rule="evenodd" clip-rule="evenodd" d="M321.49,30.28l-0.17,0.87c-0.261,0.07-0.5,0.1-0.74,0.1
			c-0.42,0-0.76-0.1-1.01-0.31c-0.19-0.16-0.28-0.37-0.28-0.64c0-0.14,0.051-0.45,0.15-0.94l0.76-3.62h-0.84l0.17-0.82h0.84
			l0.32-1.53l1.21-0.73l-0.47,2.26h1.039l-0.17,0.82h-1.039l-0.721,3.44c-0.09,0.44-0.14,0.7-0.14,0.79c0,0.12,0.04,0.22,0.11,0.28
			c0.069,0.07,0.189,0.1,0.359,0.1C321.099,30.35,321.309,30.33,321.49,30.28z"/>
		<path fill-rule="evenodd" clip-rule="evenodd" d="M322.2,31.21l0.53-0.07c0.06,0.3,0.16,0.52,0.31,0.65
			c0.141,0.13,0.32,0.2,0.53,0.2c0.25,0,0.46-0.09,0.63-0.26c0.17-0.17,0.261-0.39,0.261-0.64c0-0.24-0.081-0.44-0.241-0.6
			s-0.359-0.24-0.609-0.24c-0.09,0-0.22,0.02-0.37,0.06l0.06-0.46c0.041,0,0.061,0.01,0.091,0.01c0.22,0,0.419-0.06,0.6-0.18
			c0.18-0.12,0.271-0.3,0.271-0.54c0-0.2-0.061-0.36-0.19-0.48c-0.13-0.13-0.3-0.19-0.511-0.19c-0.21,0-0.379,0.06-0.51,0.19
			c-0.14,0.13-0.229,0.32-0.27,0.58l-0.52-0.09c0.06-0.36,0.209-0.63,0.439-0.82c0.22-0.2,0.511-0.3,0.85-0.3
			c0.23,0,0.45,0.05,0.65,0.15c0.19,0.11,0.34,0.24,0.45,0.42c0.1,0.17,0.149,0.35,0.149,0.55c0,0.19-0.05,0.35-0.149,0.51
			c-0.091,0.15-0.24,0.27-0.439,0.36c0.259,0.06,0.449,0.18,0.589,0.36c0.141,0.19,0.221,0.42,0.221,0.7
			c0,0.37-0.141,0.69-0.41,0.95c-0.28,0.26-0.62,0.39-1.04,0.39c-0.38,0-0.69-0.11-0.94-0.33
			C322.379,31.86,322.24,31.57,322.2,31.21z"/>
	</g>
</g>
<g>
	<g>
		<path fill-rule="evenodd" clip-rule="evenodd" d="M428.099,30.32l-0.18,0.87c-0.25,0.07-0.5,0.1-0.739,0.1
			c-0.42,0-0.761-0.11-1.011-0.31c-0.18-0.16-0.279-0.37-0.279-0.64c0-0.14,0.05-0.45,0.159-0.94l0.75-3.62h-0.84l0.17-0.82h0.84
			l0.32-1.53l1.221-0.73l-0.48,2.26h1.04l-0.17,0.82h-1.04l-0.72,3.44c-0.091,0.44-0.13,0.7-0.13,0.79c0,0.12,0.029,0.22,0.1,0.28
			c0.08,0.07,0.189,0.1,0.359,0.1C427.7,30.39,427.91,30.37,428.099,30.32z"/>
		<path fill-rule="evenodd" clip-rule="evenodd" d="M430.49,32.38v-1.02h-1.86v-0.49l1.961-2.78h0.43v2.78h0.579v0.49h-0.579v1.02
			H430.49z M430.49,30.87v-1.93l-1.34,1.93H430.49z"/>
	</g>
</g>
<g>
	<g>
		<path fill-rule="evenodd" clip-rule="evenodd" d="M534.68,30.28l-0.181,0.87c-0.25,0.07-0.5,0.1-0.729,0.1
			c-0.43,0-0.76-0.1-1.01-0.31c-0.19-0.16-0.28-0.37-0.28-0.64c0-0.13,0.05-0.45,0.149-0.94l0.75-3.62h-0.83l0.17-0.82h0.83
			l0.33-1.53l1.211-0.73l-0.471,2.26h1.04l-0.18,0.82h-1.03l-0.73,3.44c-0.09,0.44-0.129,0.7-0.129,0.79
			c0,0.12,0.039,0.22,0.109,0.29c0.07,0.06,0.189,0.1,0.35,0.1C534.29,30.36,534.5,30.33,534.68,30.28z"/>
		<path fill-rule="evenodd" clip-rule="evenodd" d="M535.389,31.22l0.551-0.04c0.04,0.26,0.14,0.47,0.29,0.6
			c0.14,0.14,0.319,0.21,0.54,0.21c0.25,0,0.46-0.1,0.64-0.29c0.181-0.19,0.26-0.45,0.26-0.76c0-0.3-0.079-0.54-0.25-0.71
			c-0.17-0.18-0.39-0.26-0.659-0.26c-0.17,0-0.33,0.03-0.461,0.11c-0.14,0.08-0.25,0.18-0.33,0.3l-0.489-0.06l0.42-2.21h2.13v0.5
			h-1.71l-0.229,1.16c0.25-0.18,0.52-0.27,0.81-0.27c0.37,0,0.69,0.13,0.949,0.39c0.25,0.26,0.381,0.59,0.381,1
			c0,0.39-0.11,0.73-0.341,1.01c-0.27,0.35-0.649,0.52-1.119,0.52c-0.391,0-0.711-0.11-0.961-0.33
			C535.559,31.87,535.419,31.58,535.389,31.22z"/>
	</g>
</g>
<rect x="0.12" y="64.84" fill-rule="evenodd" clip-rule="evenodd" fill="#E00000" width="107.72" height="9.07"/>
<rect x="215.55" y="64.84" fill-rule="evenodd" clip-rule="evenodd" fill="#A100EB" width="107.72" height="9.07"/>
<rect x="323.27" y="64.84" fill-rule="evenodd" clip-rule="evenodd" fill="#00C442" width="107.72" height="9.07"/>
<rect x="430.99" y="64.84" fill-rule="evenodd" clip-rule="evenodd" fill="#FFB800" width="107.72" height="9.07"/>
<line fill-rule="evenodd" clip-rule="evenodd" fill="none" stroke="#000000" stroke-linejoin="bevel" x1="0.12" y1="73.91" x2="538.709" y2="73.91"/>
<g>
	<g>
		<path fill-rule="evenodd" clip-rule="evenodd" d="M2.58,83.43L2.4,84.299C2.15,84.37,1.9,84.4,1.66,84.4
			c-0.42,0-0.76-0.101-1.01-0.31c-0.18-0.16-0.28-0.371-0.28-0.641c0-0.14,0.05-0.45,0.16-0.939l0.75-3.62h-0.84l0.17-0.82h0.84
			l0.32-1.53l1.22-0.729l-0.48,2.26h1.04l-0.17,0.82H2.34L1.62,82.33c-0.09,0.44-0.13,0.7-0.13,0.79c0,0.12,0.03,0.221,0.1,0.28
			c0.08,0.069,0.19,0.1,0.36,0.1C2.18,83.5,2.39,83.48,2.58,83.43z"/>
		<path fill-rule="evenodd" clip-rule="evenodd" d="M3.28,83.379c0-0.51,0.05-0.919,0.16-1.229c0.1-0.31,0.26-0.551,0.46-0.72
			c0.21-0.16,0.47-0.25,0.78-0.25c0.23,0,0.43,0.05,0.61,0.14c0.17,0.09,0.32,0.229,0.43,0.399c0.11,0.181,0.2,0.391,0.27,0.641
			c0.06,0.25,0.09,0.59,0.09,1.02c0,0.5-0.05,0.91-0.15,1.22c-0.11,0.311-0.26,0.551-0.47,0.711C5.26,85.48,5,85.57,4.68,85.57
			c-0.41,0-0.74-0.15-0.97-0.45C3.42,84.77,3.28,84.18,3.28,83.379z M3.82,83.379c0,0.7,0.09,1.17,0.25,1.4
			c0.17,0.24,0.37,0.35,0.61,0.35s0.45-0.109,0.61-0.35c0.17-0.23,0.25-0.7,0.25-1.4c0-0.71-0.08-1.18-0.25-1.41
			c-0.16-0.229-0.37-0.35-0.61-0.35c-0.25,0-0.44,0.1-0.58,0.311C3.91,82.19,3.82,82.669,3.82,83.379z"/>
	</g>
</g>
<g>
	<g>
		<path fill-rule="evenodd" clip-rule="evenodd" d="M109.16,83.469l-0.17,0.871c-0.26,0.06-0.5,0.1-0.74,0.1
			c-0.42,0-0.76-0.11-1.01-0.311c-0.19-0.16-0.28-0.369-0.28-0.64c0-0.141,0.05-0.45,0.15-0.95l0.76-3.609h-0.84l0.17-0.82h0.84
			l0.32-1.53l1.21-0.73l-0.47,2.261h1.04l-0.17,0.82h-1.04l-0.72,3.439c-0.09,0.43-0.14,0.7-0.14,0.78c0,0.13,0.04,0.22,0.11,0.29
			c0.07,0.07,0.19,0.1,0.36,0.1C108.77,83.54,108.98,83.52,109.16,83.469z"/>
		<path fill-rule="evenodd" clip-rule="evenodd" d="M111.86,85.53h-0.53v-3.36c-0.13,0.12-0.3,0.24-0.5,0.36
			c-0.21,0.13-0.39,0.22-0.56,0.28v-0.511c0.3-0.14,0.56-0.31,0.78-0.51c0.22-0.19,0.37-0.39,0.47-0.57h0.34V85.53z"/>
	</g>
</g>
<g>
	<g>
		<path fill-rule="evenodd" clip-rule="evenodd" d="M214.94,83.469l-0.18,0.871c-0.25,0.06-0.5,0.1-0.74,0.1
			c-0.42,0-0.76-0.11-1.01-0.311c-0.18-0.16-0.28-0.369-0.28-0.64c0-0.141,0.05-0.45,0.16-0.95l0.75-3.609h-0.84l0.17-0.82h0.84
			l0.32-1.53l1.22-0.73l-0.48,2.261h1.04l-0.17,0.82h-1.04l-0.72,3.439c-0.09,0.43-0.13,0.7-0.13,0.78c0,0.13,0.03,0.22,0.1,0.29
			c0.08,0.07,0.19,0.1,0.36,0.1C214.54,83.54,214.75,83.52,214.94,83.469z"/>
		<path fill-rule="evenodd" clip-rule="evenodd" d="M218.41,85.02v0.51h-2.84c0-0.13,0.02-0.25,0.07-0.37
			c0.07-0.19,0.18-0.38,0.34-0.569c0.16-0.181,0.39-0.4,0.69-0.65c0.47-0.38,0.79-0.68,0.95-0.91c0.16-0.22,0.25-0.431,0.25-0.63
			c0-0.21-0.08-0.39-0.23-0.53c-0.15-0.14-0.34-0.21-0.58-0.21c-0.26,0-0.46,0.07-0.61,0.22c-0.15,0.16-0.23,0.37-0.23,0.641
			l-0.55-0.06c0.04-0.4,0.18-0.711,0.42-0.921c0.25-0.22,0.57-0.32,0.98-0.32s0.74,0.11,0.98,0.341c0.24,0.229,0.36,0.51,0.36,0.85
			c0,0.17-0.04,0.34-0.11,0.51c-0.07,0.16-0.18,0.341-0.35,0.521c-0.16,0.189-0.43,0.439-0.81,0.76c-0.32,0.261-0.52,0.44-0.61,0.54
			c-0.09,0.09-0.16,0.19-0.22,0.28H218.41z"/>
	</g>
</g>
<g>
	<g>
		<path fill-rule="evenodd" clip-rule="evenodd" d="M321.49,83.43l-0.17,0.869c-0.261,0.061-0.5,0.101-0.74,0.101
			c-0.42,0-0.76-0.11-1.01-0.31c-0.19-0.16-0.28-0.371-0.28-0.641c0-0.14,0.051-0.45,0.15-0.95l0.76-3.609h-0.84l0.17-0.82h0.84
			l0.32-1.53l1.21-0.729l-0.47,2.26h1.039l-0.17,0.82h-1.039l-0.721,3.439c-0.09,0.44-0.14,0.7-0.14,0.78
			c0,0.13,0.04,0.23,0.11,0.29c0.069,0.069,0.189,0.1,0.359,0.1C321.099,83.5,321.309,83.48,321.49,83.43z"/>
		<path fill-rule="evenodd" clip-rule="evenodd" d="M322.2,84.36l0.53-0.07c0.06,0.301,0.16,0.51,0.31,0.641
			c0.141,0.14,0.32,0.199,0.53,0.199c0.25,0,0.46-0.08,0.63-0.26c0.17-0.17,0.261-0.38,0.261-0.63s-0.081-0.45-0.241-0.6
			c-0.16-0.16-0.359-0.24-0.609-0.24c-0.09,0-0.22,0.02-0.37,0.061l0.06-0.461c0.041,0,0.061,0,0.091,0c0.22,0,0.419-0.06,0.6-0.17
			c0.18-0.119,0.271-0.3,0.271-0.54c0-0.199-0.061-0.359-0.19-0.49c-0.13-0.119-0.3-0.189-0.511-0.189c-0.21,0-0.379,0.07-0.51,0.2
			c-0.14,0.13-0.229,0.319-0.27,0.58l-0.52-0.101c0.06-0.35,0.209-0.62,0.439-0.82c0.22-0.189,0.511-0.289,0.85-0.289
			c0.23,0,0.45,0.05,0.65,0.149c0.19,0.101,0.34,0.24,0.45,0.41c0.1,0.18,0.149,0.359,0.149,0.56c0,0.181-0.05,0.351-0.149,0.5
			c-0.091,0.161-0.24,0.28-0.439,0.37c0.259,0.061,0.449,0.18,0.589,0.36c0.141,0.189,0.221,0.42,0.221,0.689
			c0,0.38-0.141,0.7-0.41,0.961c-0.28,0.26-0.62,0.39-1.04,0.39c-0.38,0-0.69-0.109-0.94-0.34
			C322.379,85.01,322.24,84.719,322.2,84.36z"/>
	</g>
</g>
<g>
	<g>
		<path fill-rule="evenodd" clip-rule="evenodd" d="M428.099,83.469l-0.18,0.871c-0.25,0.06-0.5,0.1-0.739,0.1
			c-0.42,0-0.761-0.11-1.011-0.311c-0.18-0.16-0.279-0.369-0.279-0.64c0-0.141,0.05-0.45,0.159-0.95l0.75-3.609h-0.84l0.17-0.82
			h0.84l0.32-1.53l1.221-0.73l-0.48,2.261h1.04l-0.17,0.82h-1.04l-0.72,3.439c-0.091,0.43-0.13,0.7-0.13,0.78
			c0,0.13,0.029,0.22,0.1,0.29c0.08,0.07,0.189,0.1,0.359,0.1C427.7,83.54,427.91,83.52,428.099,83.469z"/>
		<path fill-rule="evenodd" clip-rule="evenodd" d="M430.49,85.53V84.5h-1.86V84.02l1.961-2.78h0.43v2.78h0.579V84.5h-0.579v1.03
			H430.49z M430.49,84.02v-1.94l-1.34,1.94H430.49z"/>
	</g>
</g>
<g>
	<g>
		<path fill-rule="evenodd" clip-rule="evenodd" d="M534.68,83.43l-0.181,0.869c-0.25,0.07-0.5,0.101-0.729,0.101
			c-0.43,0-0.76-0.11-1.01-0.31c-0.19-0.16-0.28-0.371-0.28-0.641c0-0.14,0.05-0.45,0.149-0.939l0.75-3.62h-0.83l0.17-0.82h0.83
			l0.33-1.53l1.211-0.729l-0.471,2.26h1.04l-0.18,0.82h-1.03l-0.73,3.439c-0.09,0.44-0.129,0.7-0.129,0.79
			c0,0.12,0.039,0.221,0.109,0.28c0.07,0.069,0.189,0.1,0.35,0.1C534.29,83.5,534.5,83.48,534.68,83.43z"/>
		<path fill-rule="evenodd" clip-rule="evenodd" d="M535.389,84.37l0.551-0.05c0.04,0.271,0.14,0.47,0.29,0.61
			c0.14,0.14,0.319,0.199,0.54,0.199c0.25,0,0.46-0.09,0.64-0.28c0.181-0.189,0.26-0.449,0.26-0.77c0-0.3-0.079-0.53-0.25-0.71
			c-0.17-0.17-0.39-0.26-0.659-0.26c-0.17,0-0.33,0.04-0.461,0.12c-0.14,0.08-0.25,0.18-0.33,0.3l-0.489-0.069l0.42-2.2h2.13v0.5
			h-1.71l-0.229,1.159c0.25-0.18,0.52-0.27,0.81-0.27c0.37,0,0.69,0.13,0.949,0.39c0.25,0.26,0.381,0.59,0.381,1
			c0,0.391-0.11,0.721-0.341,1.01c-0.27,0.341-0.649,0.521-1.119,0.521c-0.391,0-0.711-0.109-0.961-0.33
			C535.559,85.02,535.419,84.73,535.389,84.37z"/>
	</g>
</g>
<rect x="0.12" y="118.84" fill-rule="evenodd" clip-rule="evenodd" fill="#E00000" width="107.72" height="9.06"/>
<rect x="323.27" y="118.84" fill-rule="evenodd" clip-rule="evenodd" fill="#00C442" width="107.72" height="9.06"/>
<rect x="430.99" y="118.84" fill-rule="evenodd" clip-rule="evenodd" fill="#FFB800" width="107.72" height="9.06"/>
<line fill-rule="evenodd" clip-rule="evenodd" fill="none" stroke="#000000" stroke-linejoin="bevel" x1="0.12" y1="127.9" x2="538.709" y2="127.9"/>
<g>
	<g>
		<path fill-rule="evenodd" clip-rule="evenodd" d="M2.58,137.43L2.4,138.29c-0.25,0.07-0.5,0.101-0.74,0.101
			c-0.42,0-0.76-0.101-1.01-0.311c-0.18-0.149-0.28-0.369-0.28-0.64c0-0.13,0.05-0.45,0.16-0.94l0.75-3.609h-0.84l0.17-0.82h0.84
			l0.32-1.53l1.22-0.74l-0.48,2.271h1.04l-0.17,0.82H2.34l-0.72,3.439c-0.09,0.431-0.13,0.69-0.13,0.78c0,0.13,0.03,0.22,0.1,0.29
			c0.08,0.061,0.19,0.1,0.36,0.1C2.18,137.5,2.39,137.469,2.58,137.43z"/>
		<path fill-rule="evenodd" clip-rule="evenodd" d="M3.28,137.37c0-0.51,0.05-0.92,0.16-1.229c0.1-0.3,0.26-0.541,0.46-0.71
			c0.21-0.17,0.47-0.25,0.78-0.25c0.23,0,0.43,0.039,0.61,0.14c0.17,0.09,0.32,0.22,0.43,0.399c0.11,0.171,0.2,0.38,0.27,0.641
			c0.06,0.25,0.09,0.59,0.09,1.01c0,0.5-0.05,0.91-0.15,1.221c-0.11,0.31-0.26,0.55-0.47,0.72c-0.2,0.17-0.459,0.25-0.78,0.25
			c-0.41,0-0.74-0.15-0.97-0.44C3.42,138.76,3.28,138.18,3.28,137.37z M3.82,137.37c0,0.71,0.09,1.18,0.25,1.41
			c0.17,0.23,0.37,0.351,0.61,0.351s0.45-0.12,0.61-0.351c0.17-0.24,0.25-0.71,0.25-1.41c0-0.71-0.08-1.18-0.25-1.409
			c-0.16-0.23-0.37-0.351-0.61-0.351c-0.25,0-0.44,0.109-0.58,0.31C3.91,136.18,3.82,136.669,3.82,137.37z"/>
	</g>
</g>
<g>
	<g>
		<path fill-rule="evenodd" clip-rule="evenodd" d="M109.16,137.46l-0.17,0.869c-0.26,0.07-0.5,0.101-0.74,0.101
			c-0.42,0-0.76-0.101-1.01-0.311c-0.19-0.159-0.28-0.37-0.28-0.64c0-0.14,0.05-0.45,0.15-0.94l0.76-3.62h-0.84l0.17-0.82h0.84
			l0.32-1.529l1.21-0.729l-0.47,2.259h1.04l-0.17,0.82h-1.04l-0.72,3.44c-0.09,0.439-0.14,0.7-0.14,0.79c0,0.12,0.04,0.22,0.11,0.28
			c0.07,0.069,0.19,0.1,0.36,0.1C108.77,137.53,108.98,137.51,109.16,137.46z"/>
		<path fill-rule="evenodd" clip-rule="evenodd" d="M111.86,139.52h-0.53v-3.36c-0.13,0.13-0.3,0.25-0.5,0.37
			c-0.21,0.12-0.39,0.21-0.56,0.27v-0.51c0.3-0.14,0.56-0.31,0.78-0.5c0.22-0.199,0.37-0.39,0.47-0.579h0.34V139.52z"/>
	</g>
</g>
<g>
	<g>
		<path fill-rule="evenodd" clip-rule="evenodd" d="M214.94,137.46l-0.18,0.869c-0.25,0.07-0.5,0.101-0.74,0.101
			c-0.42,0-0.76-0.101-1.01-0.311c-0.18-0.159-0.28-0.37-0.28-0.64c0-0.14,0.05-0.45,0.16-0.94l0.75-3.62h-0.84l0.17-0.82h0.84
			l0.32-1.529l1.22-0.729l-0.48,2.259h1.04l-0.17,0.82h-1.04l-0.72,3.44c-0.09,0.439-0.13,0.7-0.13,0.79c0,0.12,0.03,0.22,0.1,0.28
			c0.08,0.069,0.19,0.1,0.36,0.1C214.54,137.53,214.75,137.51,214.94,137.46z"/>
		<path fill-rule="evenodd" clip-rule="evenodd" d="M218.41,139.02v0.5h-2.84c0-0.12,0.02-0.24,0.07-0.36
			c0.07-0.19,0.18-0.38,0.34-0.569c0.16-0.19,0.39-0.41,0.69-0.65c0.47-0.391,0.79-0.69,0.95-0.91c0.16-0.23,0.25-0.439,0.25-0.64
			c0-0.21-0.08-0.38-0.23-0.53c-0.15-0.141-0.34-0.21-0.58-0.21c-0.26,0-0.46,0.08-0.61,0.23c-0.15,0.149-0.23,0.359-0.23,0.63
			l-0.55-0.061c0.04-0.4,0.18-0.71,0.42-0.92c0.25-0.21,0.57-0.319,0.98-0.319s0.74,0.119,0.98,0.35c0.24,0.22,0.36,0.51,0.36,0.85
			c0,0.17-0.04,0.34-0.11,0.5c-0.07,0.17-0.18,0.34-0.35,0.53c-0.16,0.18-0.43,0.43-0.81,0.75c-0.32,0.271-0.52,0.45-0.61,0.54
			c-0.09,0.1-0.16,0.189-0.22,0.29H218.41z"/>
	</g>
</g>
<g>
	<g>
		<path fill-rule="evenodd" clip-rule="evenodd" d="M321.49,137.419l-0.17,0.87c-0.261,0.07-0.5,0.101-0.74,0.101
			c-0.42,0-0.76-0.101-1.01-0.311c-0.19-0.16-0.28-0.369-0.28-0.64c0-0.13,0.051-0.45,0.15-0.94l0.76-3.619h-0.84l0.17-0.82h0.84
			l0.32-1.53l1.21-0.73l-0.47,2.261h1.039l-0.17,0.82h-1.039l-0.721,3.439c-0.09,0.44-0.14,0.7-0.14,0.79
			c0,0.12,0.04,0.22,0.11,0.29c0.069,0.061,0.189,0.1,0.359,0.1C321.099,137.5,321.309,137.469,321.49,137.419z"/>
		<path fill-rule="evenodd" clip-rule="evenodd" d="M322.2,138.349l0.53-0.069c0.06,0.3,0.16,0.52,0.31,0.65
			c0.141,0.13,0.32,0.2,0.53,0.2c0.25,0,0.46-0.091,0.63-0.261s0.261-0.39,0.261-0.64c0-0.24-0.081-0.44-0.241-0.6
			c-0.16-0.161-0.359-0.23-0.609-0.23c-0.09,0-0.22,0.01-0.37,0.05l0.06-0.46c0.041,0,0.061,0.01,0.091,0.01
			c0.22,0,0.419-0.06,0.6-0.18c0.18-0.12,0.271-0.3,0.271-0.54c0-0.189-0.061-0.35-0.19-0.48c-0.13-0.13-0.3-0.189-0.511-0.189
			c-0.21,0-0.379,0.06-0.51,0.189c-0.14,0.131-0.229,0.32-0.27,0.581l-0.52-0.091c0.06-0.359,0.209-0.63,0.439-0.82
			c0.22-0.199,0.511-0.3,0.85-0.3c0.23,0,0.45,0.061,0.65,0.16c0.19,0.101,0.34,0.23,0.45,0.41c0.1,0.17,0.149,0.359,0.149,0.55
			s-0.05,0.36-0.149,0.51c-0.091,0.15-0.24,0.271-0.439,0.36c0.259,0.06,0.449,0.181,0.589,0.37c0.141,0.181,0.221,0.41,0.221,0.689
			c0,0.371-0.141,0.69-0.41,0.95c-0.28,0.261-0.62,0.391-1.04,0.391c-0.38,0-0.69-0.11-0.94-0.33
			C322.379,139,322.24,138.71,322.2,138.349z"/>
	</g>
</g>
<g>
	<g>
		<path fill-rule="evenodd" clip-rule="evenodd" d="M428.099,137.46l-0.18,0.869c-0.25,0.07-0.5,0.101-0.739,0.101
			c-0.42,0-0.761-0.101-1.011-0.311c-0.18-0.159-0.279-0.37-0.279-0.64c0-0.14,0.05-0.45,0.159-0.94l0.75-3.62h-0.84l0.17-0.82h0.84
			l0.32-1.529l1.221-0.729l-0.48,2.259h1.04l-0.17,0.82h-1.04l-0.72,3.44c-0.091,0.439-0.13,0.7-0.13,0.79
			c0,0.12,0.029,0.22,0.1,0.28c0.08,0.069,0.189,0.1,0.359,0.1C427.7,137.53,427.91,137.51,428.099,137.46z"/>
		<path fill-rule="evenodd" clip-rule="evenodd" d="M430.49,139.52V138.5h-1.86v-0.489l1.961-2.78h0.43v2.78h0.579v0.489h-0.579
			v1.021H430.49z M430.49,138.01v-1.931l-1.34,1.931H430.49z"/>
	</g>
</g>
<g>
	<g>
		<path fill-rule="evenodd" clip-rule="evenodd" d="M534.68,137.43l-0.181,0.859c-0.25,0.07-0.5,0.101-0.729,0.101
			c-0.43,0-0.76-0.101-1.01-0.311c-0.19-0.149-0.28-0.369-0.28-0.64c0-0.13,0.05-0.45,0.149-0.94l0.75-3.619h-0.83l0.17-0.82h0.83
			l0.33-1.521l1.211-0.74l-0.471,2.261h1.04l-0.18,0.82h-1.03l-0.73,3.439c-0.09,0.44-0.129,0.7-0.129,0.79
			c0,0.12,0.039,0.22,0.109,0.29c0.07,0.061,0.189,0.1,0.35,0.1C534.29,137.5,534.5,137.469,534.68,137.43z"/>
		<path fill-rule="evenodd" clip-rule="evenodd" d="M535.389,138.36l0.551-0.04c0.04,0.271,0.14,0.47,0.29,0.6
			c0.14,0.141,0.319,0.211,0.54,0.211c0.25,0,0.46-0.101,0.64-0.29c0.181-0.19,0.26-0.44,0.26-0.761c0-0.3-0.079-0.54-0.25-0.71
			c-0.17-0.18-0.39-0.26-0.659-0.26c-0.17,0-0.33,0.03-0.461,0.109c-0.14,0.08-0.25,0.181-0.33,0.301l-0.489-0.06l0.42-2.211h2.13
			v0.511h-1.71l-0.229,1.149c0.25-0.18,0.52-0.27,0.81-0.27c0.37,0,0.69,0.13,0.949,0.39c0.25,0.26,0.381,0.59,0.381,1
			c0,0.39-0.11,0.73-0.341,1.01c-0.27,0.351-0.649,0.521-1.119,0.521c-0.391,0-0.711-0.11-0.961-0.33
			S535.419,138.719,535.389,138.36z"/>
	</g>
</g>
<g>
	<g>
		<path fill-rule="evenodd" clip-rule="evenodd" d="M0.54,7.16V0h2.7c0.47,0,0.83,0.02,1.08,0.07c0.36,0.06,0.65,0.17,0.89,0.33
			c0.24,0.17,0.43,0.4,0.57,0.7C5.93,1.39,6,1.72,6,2.07C6,2.68,5.81,3.2,5.42,3.62c-0.39,0.42-1.09,0.63-2.1,0.63H1.48v2.91H0.54z
			 M1.48,3.41h1.85c0.62,0,1.05-0.12,1.31-0.35C4.89,2.84,5.02,2.51,5.02,2.1c0-0.3-0.07-0.55-0.22-0.77
			c-0.16-0.21-0.36-0.35-0.6-0.42C4.04,0.87,3.74,0.85,3.31,0.85H1.48V3.41z"/>
		<path fill-rule="evenodd" clip-rule="evenodd" d="M6.77,4.57c0-0.96,0.26-1.67,0.8-2.14C8.01,2.05,8.56,1.86,9.2,1.86
			c0.71,0,1.29,0.23,1.75,0.7c0.45,0.47,0.67,1.11,0.67,1.93c0,0.67-0.1,1.2-0.3,1.58c-0.2,0.38-0.49,0.68-0.87,0.89
			S9.65,7.28,9.2,7.28c-0.73,0-1.32-0.24-1.76-0.7C6.99,6.11,6.77,5.44,6.77,4.57z M7.67,4.57c0,0.66,0.14,1.16,0.43,1.49
			c0.29,0.33,0.66,0.49,1.1,0.49c0.43,0,0.8-0.16,1.09-0.49c0.29-0.34,0.43-0.84,0.43-1.52c0-0.64-0.14-1.13-0.44-1.46
			c-0.29-0.33-0.65-0.5-1.08-0.5c-0.44,0-0.81,0.17-1.1,0.5C7.81,3.41,7.67,3.9,7.67,4.57z"/>
		<path fill-rule="evenodd" clip-rule="evenodd" d="M12.3,5.61l0.87-0.13c0.05,0.34,0.19,0.61,0.41,0.8
			c0.22,0.18,0.541,0.27,0.94,0.27s0.7-0.08,0.89-0.24c0.2-0.17,0.3-0.36,0.3-0.58c0-0.2-0.089-0.36-0.26-0.47
			c-0.12-0.08-0.42-0.18-0.9-0.3c-0.64-0.16-1.09-0.3-1.34-0.42c-0.25-0.12-0.439-0.28-0.57-0.49c-0.13-0.21-0.19-0.44-0.19-0.7
			c0-0.23,0.05-0.44,0.16-0.64c0.1-0.2,0.25-0.36,0.43-0.49c0.14-0.1,0.32-0.19,0.561-0.26c0.24-0.07,0.49-0.1,0.76-0.1
			c0.41,0,0.76,0.06,1.07,0.17c0.31,0.12,0.54,0.28,0.68,0.48c0.15,0.2,0.25,0.47,0.3,0.8l-0.85,0.12
			c-0.04-0.27-0.16-0.48-0.34-0.63c-0.19-0.15-0.46-0.22-0.8-0.22c-0.4,0-0.69,0.07-0.86,0.2c-0.17,0.13-0.26,0.29-0.26,0.47
			c0,0.11,0.04,0.22,0.11,0.31c0.07,0.09,0.18,0.17,0.33,0.23c0.09,0.03,0.35,0.11,0.78,0.23c0.62,0.16,1.06,0.3,1.3,0.4
			c0.25,0.11,0.44,0.26,0.58,0.46c0.14,0.21,0.21,0.46,0.21,0.76c0,0.29-0.09,0.57-0.26,0.82c-0.17,0.26-0.411,0.46-0.74,0.6
			c-0.32,0.15-0.68,0.22-1.09,0.22c-0.67,0-1.19-0.14-1.54-0.42C12.63,6.58,12.4,6.16,12.3,5.61z"/>
		<path fill-rule="evenodd" clip-rule="evenodd" d="M17.66,1.01V0h0.88v1.01H17.66z M17.66,7.16V1.97h0.88v5.19H17.66z"/>
		<path fill-rule="evenodd" clip-rule="evenodd" d="M21.8,6.37l0.12,0.78c-0.24,0.05-0.47,0.08-0.66,0.08
			c-0.32,0-0.57-0.05-0.74-0.15c-0.18-0.1-0.3-0.24-0.37-0.4c-0.08-0.17-0.11-0.51-0.11-1.04V2.66h-0.65V1.97h0.65V0.69l0.87-0.53
			v1.81h0.89v0.69h-0.89v3.03c0,0.25,0.02,0.41,0.05,0.48c0.03,0.08,0.08,0.13,0.15,0.17c0.07,0.05,0.17,0.07,0.3,0.07
			C21.51,6.41,21.64,6.4,21.8,6.37z"/>
		<path fill-rule="evenodd" clip-rule="evenodd" d="M22.66,1.01V0h0.88v1.01H22.66z M22.66,7.16V1.97h0.88v5.19H22.66z"/>
		<path fill-rule="evenodd" clip-rule="evenodd" d="M24.55,4.57c0-0.96,0.27-1.67,0.8-2.14c0.45-0.38,0.99-0.57,1.63-0.57
			c0.709,0,1.3,0.23,1.75,0.7c0.45,0.47,0.68,1.11,0.68,1.93c0,0.67-0.1,1.2-0.3,1.58c-0.2,0.38-0.49,0.68-0.88,0.89
			c-0.38,0.21-0.8,0.32-1.25,0.32c-0.72,0-1.31-0.24-1.76-0.7C24.77,6.11,24.55,5.44,24.55,4.57z M25.45,4.57
			c0,0.66,0.15,1.16,0.44,1.49c0.29,0.33,0.65,0.49,1.09,0.49c0.44,0,0.8-0.16,1.09-0.49c0.29-0.34,0.43-0.84,0.43-1.52
			c0-0.64-0.14-1.13-0.43-1.46c-0.29-0.33-0.66-0.5-1.09-0.5c-0.44,0-0.8,0.17-1.09,0.5C25.6,3.41,25.45,3.9,25.45,4.57z"/>
		<path fill-rule="evenodd" clip-rule="evenodd" d="M30.439,7.16V1.97h0.791v0.74c0.38-0.57,0.93-0.85,1.65-0.85
			c0.31,0,0.6,0.05,0.86,0.17C34,2.14,34.2,2.29,34.33,2.47s0.22,0.4,0.271,0.65c0.04,0.16,0.05,0.44,0.05,0.85v3.19h-0.88V4.01
			c0-0.36-0.03-0.63-0.1-0.81c-0.07-0.17-0.19-0.32-0.36-0.42c-0.18-0.11-0.38-0.16-0.62-0.16c-0.37,0-0.689,0.12-0.959,0.36
			c-0.28,0.23-0.41,0.68-0.41,1.35v2.83H30.439z"/>
	</g>
</g>
<g>
	<g>
		<polygon fill-rule="evenodd" clip-rule="evenodd" points="2.36,59.58 2.36,53.27 0,53.27 0,52.42 5.67,52.42 5.67,53.27 
			3.3,53.27 3.3,59.58 		"/>
		<path fill-rule="evenodd" clip-rule="evenodd" d="M8.81,58.94c-0.33,0.28-0.64,0.47-0.939,0.59c-0.3,0.11-0.63,0.17-0.97,0.17
			c-0.57,0-1.01-0.14-1.31-0.42C5.28,59,5.13,58.64,5.13,58.21c0-0.25,0.05-0.48,0.17-0.69c0.12-0.21,0.27-0.38,0.45-0.51
			c0.189-0.13,0.4-0.22,0.64-0.29c0.17-0.04,0.43-0.09,0.78-0.13c0.71-0.08,1.23-0.18,1.56-0.3c0.01-0.12,0.01-0.2,0.01-0.23
			c0-0.36-0.08-0.61-0.25-0.76c-0.22-0.2-0.56-0.3-1-0.3c-0.41,0-0.72,0.08-0.92,0.22c-0.19,0.15-0.34,0.4-0.43,0.77l-0.86-0.12
			c0.08-0.36,0.2-0.66,0.38-0.89c0.18-0.22,0.44-0.4,0.78-0.52c0.34-0.12,0.73-0.18,1.181-0.18c0.439,0,0.8,0.05,1.08,0.15
			c0.27,0.11,0.48,0.24,0.61,0.4c0.13,0.15,0.22,0.35,0.27,0.59c0.03,0.15,0.041,0.42,0.041,0.81v1.18c0,0.81,0.02,1.33,0.06,1.55
			c0.04,0.21,0.11,0.42,0.22,0.62H8.98C8.89,59.4,8.83,59.18,8.81,58.94z M8.73,56.98c-0.31,0.13-0.791,0.24-1.43,0.33
			c-0.36,0.05-0.62,0.11-0.77,0.17c-0.15,0.07-0.26,0.16-0.34,0.29C6.1,57.9,6.06,58.03,6.06,58.19c0,0.23,0.09,0.43,0.27,0.58
			c0.18,0.16,0.44,0.24,0.78,0.24s0.64-0.08,0.9-0.22c0.27-0.15,0.46-0.36,0.58-0.61c0.1-0.2,0.14-0.49,0.14-0.88V56.98z"/>
		<path fill-rule="evenodd" clip-rule="evenodd" d="M10.99,59.58v-5.19h0.79v0.74c0.38-0.57,0.93-0.85,1.65-0.85
			c0.31,0,0.6,0.05,0.86,0.16c0.26,0.12,0.46,0.26,0.59,0.45c0.13,0.18,0.22,0.4,0.27,0.65c0.03,0.16,0.05,0.44,0.05,0.85v3.19
			h-0.88v-3.16c0-0.35-0.03-0.62-0.1-0.8c-0.07-0.18-0.19-0.32-0.37-0.42c-0.17-0.11-0.37-0.16-0.61-0.16
			c-0.37,0-0.7,0.12-0.97,0.35c-0.27,0.24-0.4,0.69-0.4,1.36v2.83H10.99z"/>
		<path fill-rule="evenodd" clip-rule="evenodd" d="M16.39,60.01l0.85,0.13c0.04,0.26,0.14,0.45,0.3,0.57
			c0.22,0.16,0.52,0.25,0.89,0.25c0.41,0,0.72-0.09,0.95-0.25c0.22-0.16,0.37-0.39,0.44-0.68c0.05-0.18,0.07-0.56,0.07-1.13
			c-0.39,0.45-0.86,0.68-1.44,0.68c-0.71,0-1.26-0.26-1.65-0.77c-0.39-0.52-0.59-1.13-0.59-1.85c0-0.5,0.09-0.95,0.271-1.37
			c0.18-0.42,0.44-0.74,0.78-0.97c0.34-0.23,0.74-0.34,1.2-0.34c0.61,0,1.11,0.24,1.51,0.74v-0.63h0.81v4.49
			c0,0.8-0.08,1.38-0.25,1.71c-0.16,0.34-0.42,0.61-0.78,0.8c-0.35,0.2-0.791,0.29-1.311,0.29c-0.62,0-1.12-0.14-1.5-0.41
			C16.56,60.99,16.37,60.57,16.39,60.01z M17.11,56.89c0,0.68,0.14,1.18,0.41,1.49c0.27,0.32,0.61,0.47,1.02,0.47
			c0.4,0,0.74-0.15,1.01-0.46c0.27-0.32,0.41-0.8,0.41-1.47c0-0.63-0.14-1.11-0.42-1.43C19.26,55.17,18.92,55,18.52,55
			c-0.39,0-0.72,0.16-1,0.48C17.25,55.8,17.11,56.27,17.11,56.89z"/>
		<path fill-rule="evenodd" clip-rule="evenodd" d="M25.66,57.91l0.91,0.11c-0.15,0.53-0.41,0.94-0.8,1.24
			c-0.39,0.29-0.88,0.44-1.48,0.44c-0.76,0-1.36-0.24-1.81-0.7c-0.44-0.47-0.66-1.13-0.66-1.97c0-0.87,0.22-1.55,0.67-2.03
			c0.45-0.48,1.03-0.72,1.75-0.72c0.69,0,1.26,0.23,1.7,0.7c0.44,0.48,0.661,1.14,0.661,2c0,0.05,0,0.13-0.01,0.23h-3.86
			c0.03,0.57,0.19,1.01,0.479,1.31c0.291,0.3,0.65,0.45,1.08,0.45c0.32,0,0.6-0.08,0.831-0.25C25.35,58.55,25.53,58.28,25.66,57.91z
			 M22.77,56.49h2.9c-0.04-0.44-0.15-0.77-0.33-0.98c-0.28-0.34-0.65-0.51-1.09-0.51c-0.4,0-0.74,0.13-1.02,0.4
			C22.959,55.67,22.8,56.04,22.77,56.49z"/>
		<path fill-rule="evenodd" clip-rule="evenodd" d="M27.67,59.58v-5.19h0.79v0.74c0.38-0.57,0.93-0.85,1.65-0.85
			c0.32,0,0.6,0.05,0.87,0.16c0.26,0.12,0.45,0.26,0.58,0.45c0.13,0.18,0.22,0.4,0.28,0.65c0.03,0.16,0.05,0.44,0.05,0.85v3.19
			h-0.88v-3.16c0-0.35-0.04-0.62-0.11-0.8c-0.06-0.18-0.19-0.32-0.36-0.42c-0.169-0.11-0.38-0.16-0.61-0.16
			c-0.38,0-0.7,0.12-0.97,0.35c-0.27,0.24-0.41,0.69-0.41,1.36v2.83H27.67z"/>
		<path fill-rule="evenodd" clip-rule="evenodd" d="M36.62,57.68l0.86,0.11c-0.09,0.6-0.33,1.06-0.72,1.4
			c-0.39,0.34-0.87,0.51-1.44,0.51c-0.71,0-1.28-0.24-1.71-0.7c-0.43-0.46-0.64-1.13-0.64-1.99c0-0.56,0.09-1.05,0.27-1.47
			c0.19-0.42,0.47-0.74,0.85-0.95c0.38-0.21,0.79-0.31,1.24-0.31c0.56,0,1.021,0.14,1.38,0.42c0.36,0.29,0.59,0.69,0.69,1.22
			l-0.86,0.13c-0.08-0.35-0.22-0.61-0.43-0.79c-0.2-0.17-0.45-0.26-0.75-0.26c-0.44,0-0.8,0.16-1.08,0.48
			c-0.27,0.31-0.41,0.81-0.41,1.5c0,0.7,0.13,1.2,0.4,1.52c0.27,0.32,0.61,0.47,1.04,0.47c0.35,0,0.64-0.1,0.87-0.31
			C36.41,58.44,36.56,58.12,36.62,57.68z"/>
		<path fill-rule="evenodd" clip-rule="evenodd" d="M38.2,61.58l-0.1-0.83c0.189,0.05,0.359,0.08,0.5,0.08c0.2,0,0.35-0.03,0.47-0.1
			c0.12-0.06,0.21-0.15,0.29-0.27c0.05-0.09,0.14-0.31,0.27-0.66c0.01-0.05,0.04-0.12,0.07-0.21l-1.96-5.2h0.94l1.08,3.01
			c0.14,0.38,0.27,0.78,0.38,1.2c0.1-0.41,0.22-0.8,0.36-1.18l1.11-3.03h0.88l-1.98,5.28c-0.21,0.57-0.37,0.96-0.49,1.17
			c-0.16,0.29-0.331,0.51-0.54,0.64c-0.2,0.14-0.44,0.2-0.72,0.2C38.59,61.68,38.4,61.65,38.2,61.58z"/>
	</g>
</g>
<g>
	<g>
		<path fill-rule="evenodd" clip-rule="evenodd" d="M5.64,111.11l0.95,0.239c-0.2,0.781-0.56,1.37-1.07,1.781
			C5,113.54,4.37,113.74,3.63,113.74c-0.78,0-1.4-0.149-1.89-0.47c-0.48-0.31-0.85-0.771-1.1-1.36c-0.25-0.6-0.38-1.24-0.38-1.92
			c0-0.75,0.14-1.399,0.43-1.95c0.28-0.56,0.69-0.979,1.22-1.27c0.52-0.29,1.1-0.43,1.73-0.43c0.72,0,1.32,0.18,1.81,0.55
			c0.49,0.359,0.83,0.87,1.02,1.529l-0.93,0.221c-0.169-0.521-0.41-0.9-0.73-1.13c-0.31-0.24-0.709-0.36-1.189-0.36
			c-0.55,0-1.01,0.13-1.38,0.399c-0.37,0.261-0.63,0.61-0.78,1.061c-0.15,0.439-0.22,0.9-0.22,1.37c0,0.61,0.09,1.14,0.26,1.6
			c0.18,0.45,0.459,0.79,0.83,1.011c0.38,0.229,0.78,0.34,1.22,0.34c0.53,0,0.98-0.15,1.35-0.461
			C5.26,112.169,5.51,111.71,5.64,111.11z"/>
		<path fill-rule="evenodd" clip-rule="evenodd" d="M11.04,113.62v-0.76c-0.4,0.58-0.95,0.88-1.64,0.88c-0.31,0-0.59-0.06-0.86-0.18
			c-0.26-0.12-0.46-0.261-0.59-0.44s-0.22-0.4-0.27-0.65c-0.04-0.17-0.05-0.449-0.05-0.819v-3.22H8.5v2.88
			c0,0.46,0.02,0.77,0.06,0.93c0.05,0.229,0.17,0.41,0.35,0.54c0.18,0.13,0.4,0.2,0.66,0.2c0.27,0,0.51-0.07,0.75-0.2
			c0.23-0.14,0.39-0.319,0.49-0.55c0.09-0.24,0.14-0.57,0.14-1.02v-2.78h0.88v5.189H11.04z"/>
		<path fill-rule="evenodd" clip-rule="evenodd" d="M13.2,113.62v-5.189h0.79v0.789c0.2-0.37,0.39-0.609,0.56-0.729
			c0.17-0.109,0.36-0.17,0.56-0.17c0.3,0,0.6,0.09,0.9,0.279l-0.3,0.82c-0.209-0.13-0.43-0.189-0.64-0.189
			c-0.19,0-0.37,0.05-0.52,0.17c-0.15,0.11-0.26,0.27-0.33,0.48c-0.09,0.31-0.14,0.649-0.14,1.029v2.71H13.2z"/>
		<path fill-rule="evenodd" clip-rule="evenodd" d="M17.98,113.62L16,108.43h0.93l1.12,3.109c0.12,0.341,0.23,0.68,0.33,1.04
			c0.08-0.27,0.19-0.6,0.33-0.98l1.15-3.169h0.9l-1.96,5.189H17.98z"/>
		<path fill-rule="evenodd" clip-rule="evenodd" d="M24.92,112.98c-0.32,0.28-0.64,0.47-0.94,0.59c-0.3,0.11-0.62,0.17-0.97,0.17
			c-0.57,0-1.01-0.141-1.31-0.42c-0.31-0.28-0.46-0.63-0.46-1.07c0-0.25,0.06-0.479,0.17-0.689c0.12-0.211,0.27-0.38,0.46-0.511
			c0.18-0.13,0.39-0.22,0.63-0.289c0.17-0.041,0.43-0.091,0.78-0.13c0.71-0.081,1.23-0.181,1.57-0.301c0-0.119,0-0.199,0-0.23
			c0-0.359-0.08-0.609-0.25-0.759c-0.22-0.2-0.55-0.301-1-0.301c-0.411,0-0.72,0.08-0.911,0.221c-0.2,0.149-0.35,0.399-0.439,0.77
			l-0.86-0.12c0.08-0.36,0.21-0.66,0.39-0.89c0.18-0.221,0.43-0.4,0.77-0.521c0.34-0.119,0.73-0.18,1.18-0.18
			c0.44,0,0.8,0.05,1.08,0.149c0.28,0.11,0.48,0.241,0.61,0.4c0.13,0.15,0.22,0.35,0.27,0.591c0.03,0.149,0.05,0.42,0.05,0.819v1.17
			c0,0.811,0.01,1.33,0.05,1.55c0.04,0.211,0.11,0.42,0.22,0.62H25.1C25.01,113.44,24.95,113.219,24.92,112.98z M24.85,111.02
			c-0.32,0.13-0.8,0.24-1.44,0.329c-0.36,0.051-0.61,0.111-0.76,0.181c-0.15,0.061-0.27,0.16-0.35,0.28
			c-0.08,0.13-0.12,0.27-0.12,0.42c0,0.23,0.09,0.43,0.26,0.58c0.181,0.159,0.44,0.239,0.78,0.239s0.64-0.08,0.91-0.22
			c0.26-0.149,0.45-0.35,0.58-0.61c0.09-0.199,0.141-0.489,0.141-0.879V111.02z"/>
		<path fill-rule="evenodd" clip-rule="evenodd" d="M29.02,112.83l0.13,0.78c-0.25,0.05-0.47,0.08-0.67,0.08
			c-0.32,0-0.57-0.05-0.74-0.15c-0.18-0.1-0.3-0.24-0.37-0.399c-0.07-0.171-0.11-0.51-0.11-1.041v-2.979h-0.64v-0.689h0.64v-1.28
			l0.87-0.53v1.811h0.89v0.689h-0.89v3.03c0,0.25,0.02,0.41,0.05,0.48c0.03,0.08,0.08,0.13,0.15,0.169c0.07,0.05,0.17,0.07,0.3,0.07
			C28.73,112.87,28.86,112.86,29.02,112.83z"/>
		<path fill-rule="evenodd" clip-rule="evenodd" d="M33.28,113.62v-0.76c-0.41,0.58-0.96,0.88-1.65,0.88
			c-0.31,0-0.59-0.06-0.86-0.18c-0.26-0.12-0.46-0.261-0.59-0.44s-0.22-0.4-0.27-0.65c-0.03-0.17-0.05-0.449-0.05-0.819v-3.22h0.88
			v2.88c0,0.46,0.01,0.77,0.05,0.93c0.061,0.229,0.17,0.41,0.35,0.54s0.4,0.2,0.67,0.2c0.26,0,0.51-0.07,0.74-0.2
			c0.23-0.14,0.39-0.319,0.49-0.55c0.09-0.24,0.14-0.57,0.14-1.02v-2.78h0.88v5.189H33.28z"/>
		<path fill-rule="evenodd" clip-rule="evenodd" d="M35.43,113.62v-5.189h0.79v0.789c0.2-0.37,0.39-0.609,0.56-0.729
			c0.17-0.109,0.36-0.17,0.56-0.17c0.3,0,0.6,0.09,0.91,0.279l-0.311,0.82c-0.209-0.13-0.43-0.189-0.64-0.189
			c-0.19,0-0.37,0.05-0.52,0.17c-0.15,0.11-0.26,0.27-0.33,0.48c-0.09,0.31-0.14,0.649-0.14,1.029v2.71H35.43z"/>
		<path fill-rule="evenodd" clip-rule="evenodd" d="M42.32,111.95l0.91,0.11c-0.15,0.53-0.41,0.939-0.8,1.239
			c-0.39,0.291-0.88,0.44-1.48,0.44c-0.76,0-1.36-0.24-1.81-0.7c-0.44-0.47-0.66-1.13-0.66-1.97c0-0.87,0.22-1.55,0.67-2.03
			c0.45-0.479,1.03-0.72,1.75-0.72c0.69,0,1.26,0.229,1.7,0.71c0.439,0.47,0.66,1.13,0.66,1.99c0,0.05-0.01,0.13-0.01,0.229h-3.87
			c0.04,0.57,0.2,1.011,0.49,1.311c0.29,0.3,0.65,0.45,1.08,0.45c0.32,0,0.6-0.08,0.83-0.25C42,112.59,42.189,112.32,42.32,111.95z
			 M39.43,110.53h2.9c-0.04-0.439-0.15-0.76-0.33-0.98c-0.28-0.339-0.65-0.51-1.09-0.51c-0.41,0-0.75,0.141-1.02,0.41
			C39.61,109.719,39.459,110.08,39.43,110.53z"/>
	</g>
</g>
<g opacity="0.5">
	<g>
		
			<line fill="none" stroke="#000000" stroke-width="0.5" stroke-linejoin="bevel" x1="321.624" y1="121.577" x2="267.26" y2="121.577"/>
		<polygon points="320.934,122.478 321.454,121.577 320.934,120.675 321.486,120.675 322.006,121.577 321.486,122.478 		"/>
	</g>
</g>
<text transform="matrix(1 0 0 1 111.7397 70.2402)" opacity="0.5" font-family="'ArialMT'" font-size="10">Impossible to evaluate</text>
<text transform="matrix(1 0 0 1 166.7397 124.2388)" opacity="0.5" font-family="'ArialMT'" font-size="10">Impossible to evaluate</text>
<g id="Guides">
</g>
</svg>
