<?xml version="1.0" encoding="utf-8"?>
<!-- Generator: Adobe Illustrator 14.0.0, SVG Export Plug-In . SVG Version: 6.00 Build 43363)  -->
<!DOCTYPE svg PUBLIC "-//W3C//DTD SVG 1.0//EN" "http://www.w3.org/TR/2001/REC-SVG-20010904/DTD/svg10.dtd">
<svg version="1.0" xmlns="http://www.w3.org/2000/svg" xmlns:xlink="http://www.w3.org/1999/xlink" x="0px" y="0px" width="56.69px"
	 height="56.695px" viewBox="0 0 56.69 56.695" enable-background="new 0 0 56.69 56.695" xml:space="preserve">
<g id="Grids">
	<g>
		
			<line fill-rule="evenodd" clip-rule="evenodd" fill="none" stroke="#D4D4D4" stroke-width="0.27" x1="4.93" y1="0.005" x2="4.93" y2="56.695"/>
		
			<line fill-rule="evenodd" clip-rule="evenodd" fill="none" stroke="#D4D4D4" stroke-width="0.27" x1="9.609" y1="0.005" x2="9.609" y2="56.695"/>
		
			<line fill-rule="evenodd" clip-rule="evenodd" fill="none" stroke="#D4D4D4" stroke-width="0.27" x1="18.979" y1="0.005" x2="18.979" y2="56.695"/>
		
			<line fill-rule="evenodd" clip-rule="evenodd" fill="none" stroke="#D4D4D4" stroke-width="0.27" x1="23.66" y1="0.005" x2="23.66" y2="56.695"/>
		
			<line fill-rule="evenodd" clip-rule="evenodd" fill="none" stroke="#D4D4D4" stroke-width="0.27" x1="33.03" y1="0.005" x2="33.03" y2="56.695"/>
		
			<line fill-rule="evenodd" clip-rule="evenodd" fill="none" stroke="#D4D4D4" stroke-width="0.27" x1="37.71" y1="0.005" x2="37.71" y2="56.695"/>
		
			<line fill-rule="evenodd" clip-rule="evenodd" fill="none" stroke="#D4D4D4" stroke-width="0.27" x1="47.08" y1="0.005" x2="47.08" y2="56.695"/>
		
			<line fill-rule="evenodd" clip-rule="evenodd" fill="none" stroke="#D4D4D4" stroke-width="0.27" x1="51.76" y1="0.005" x2="51.76" y2="56.695"/>
		
			<line fill-rule="evenodd" clip-rule="evenodd" fill="none" stroke="#D4D4D4" stroke-width="0.27" x1="56.69" y1="4.935" x2="0" y2="4.935"/>
		
			<line fill-rule="evenodd" clip-rule="evenodd" fill="none" stroke="#D4D4D4" stroke-width="0.27" x1="56.69" y1="9.615" x2="0" y2="9.615"/>
		
			<line fill-rule="evenodd" clip-rule="evenodd" fill="none" stroke="#D4D4D4" stroke-width="0.27" x1="56.69" y1="18.985" x2="0" y2="18.985"/>
		
			<line fill-rule="evenodd" clip-rule="evenodd" fill="none" stroke="#D4D4D4" stroke-width="0.27" x1="56.69" y1="23.665" x2="0" y2="23.665"/>
		
			<line fill-rule="evenodd" clip-rule="evenodd" fill="none" stroke="#D4D4D4" stroke-width="0.27" x1="56.69" y1="33.035" x2="0" y2="33.035"/>
		
			<line fill-rule="evenodd" clip-rule="evenodd" fill="none" stroke="#D4D4D4" stroke-width="0.27" x1="56.69" y1="37.715" x2="0" y2="37.715"/>
		
			<line fill-rule="evenodd" clip-rule="evenodd" fill="none" stroke="#D4D4D4" stroke-width="0.27" x1="56.69" y1="47.075" x2="0" y2="47.075"/>
		
			<line fill-rule="evenodd" clip-rule="evenodd" fill="none" stroke="#D4D4D4" stroke-width="0.27" x1="56.69" y1="51.765" x2="0" y2="51.765"/>
		
			<line fill-rule="evenodd" clip-rule="evenodd" fill="none" stroke="#8A8A8A" stroke-width="0.27" x1="0.14" y1="0.005" x2="0.14" y2="56.695"/>
		
			<line fill-rule="evenodd" clip-rule="evenodd" fill="none" stroke="#8A8A8A" stroke-width="0.27" x1="28.351" y1="28.345" x2="28.351" y2="56.695"/>
		
			<line fill-rule="evenodd" clip-rule="evenodd" fill="none" stroke="#8A8A8A" stroke-width="0.27" x1="42.39" y1="0.005" x2="42.39" y2="56.695"/>
		
			<line fill-rule="evenodd" clip-rule="evenodd" fill="none" stroke="#8A8A8A" stroke-width="0.27" x1="56.55" y1="0.005" x2="56.55" y2="56.695"/>
		
			<line fill-rule="evenodd" clip-rule="evenodd" fill="none" stroke="#8A8A8A" stroke-width="0.27" x1="28.351" y1="28.345" x2="0" y2="28.345"/>
		
			<line fill-rule="evenodd" clip-rule="evenodd" fill="none" stroke="#8A8A8A" stroke-width="0.27" x1="56.69" y1="14.295" x2="0" y2="14.295"/>
		
			<line fill-rule="evenodd" clip-rule="evenodd" fill="none" stroke="#8A8A8A" stroke-width="0.27" x1="56.69" y1="0.135" x2="0" y2="0.135"/>
		
			<line fill-rule="evenodd" clip-rule="evenodd" fill="none" stroke="#8A8A8A" stroke-width="0.27" x1="56.69" y1="56.555" x2="0" y2="56.555"/>
		
			<line fill-rule="evenodd" clip-rule="evenodd" fill="none" stroke="#8A8A8A" stroke-width="0.27" x1="56.69" y1="28.345" x2="28.34" y2="28.345"/>
		
			<line fill-rule="evenodd" clip-rule="evenodd" fill="none" stroke="#8A8A8A" stroke-width="0.27" x1="28.351" y1="0.005" x2="28.351" y2="28.345"/>
		
			<line fill-rule="evenodd" clip-rule="evenodd" fill="none" stroke="#8A8A8A" stroke-width="0.27" x1="14.3" y1="56.695" x2="14.3" y2="42.485"/>
		
			<line fill-rule="evenodd" clip-rule="evenodd" fill="none" stroke="#8A8A8A" stroke-width="0.27" x1="0" y1="42.395" x2="14.05" y2="42.395"/>
		<line fill-rule="evenodd" clip-rule="evenodd" fill="none" stroke="#12AB00" x1="14.3" y1="0.005" x2="14.3" y2="42.485"/>
		<line fill-rule="evenodd" clip-rule="evenodd" fill="none" stroke="#A80000" x1="56.69" y1="42.395" x2="14.05" y2="42.395"/>
	</g>
</g>
<g id="Text">
	<path fill-rule="evenodd" clip-rule="evenodd" d="M24.25,37.155l1.41-0.3c0.1,0.24,0.18,0.48,0.25,0.73
		c0.08,0.37,0.159,0.81,0.21,1.31c0.03,0.25,0.06,0.79,0.109,1.61c0.41-0.45,0.65-0.73,0.73-0.83c0.43-0.59,0.67-0.93,0.74-1.03
		c0.109-0.17,0.18-0.32,0.22-0.45c0.04-0.1,0.06-0.19,0.06-0.28c0-0.09-0.079-0.18-0.229-0.29c-0.149-0.11-0.229-0.24-0.229-0.37
		c0-0.11,0.039-0.2,0.13-0.28c0.079-0.08,0.18-0.12,0.29-0.12c0.14,0,0.26,0.05,0.359,0.16c0.11,0.12,0.16,0.26,0.16,0.42
		c0,0.17-0.03,0.33-0.08,0.48c-0.08,0.25-0.24,0.55-0.47,0.91c-0.23,0.35-0.61,0.83-1.12,1.43c-0.069,0.07-0.431,0.45-1.08,1.13
		h-0.18c-0.08-2.06-0.25-3.35-0.49-3.86c-0.08-0.16-0.221-0.25-0.41-0.25c-0.08,0-0.2,0.02-0.34,0.05L24.25,37.155z"/>
	<path fill-rule="evenodd" clip-rule="evenodd" d="M44.93,3.125l0.341,3.66c0.56-0.67,1.02-1.29,1.359-1.87
		c0.189-0.34,0.29-0.59,0.29-0.75c0-0.07-0.01-0.13-0.05-0.19c-0.011-0.02-0.061-0.07-0.149-0.12c-0.091-0.06-0.151-0.12-0.19-0.18
		c-0.03-0.06-0.051-0.13-0.051-0.19c0-0.1,0.041-0.19,0.11-0.26c0.08-0.07,0.17-0.1,0.29-0.1c0.13,0,0.25,0.04,0.341,0.14
		c0.089,0.1,0.139,0.24,0.139,0.4c0,0.17-0.029,0.33-0.079,0.48c-0.09,0.28-0.28,0.64-0.57,1.08c-0.34,0.53-0.7,1.02-1.06,1.48
		c-0.37,0.45-0.641,0.77-0.82,0.95h-0.18l-0.32-3.38l-2.021,3.38h-0.209c-0.021-1.39-0.091-2.49-0.211-3.29
		c-0.05-0.33-0.13-0.55-0.239-0.66c-0.091-0.07-0.21-0.11-0.38-0.11c-0.091,0-0.211,0.01-0.36,0.03v-0.18l1.399-0.32
		c0.2,0.54,0.33,1.37,0.391,2.5c0.01,0.43,0.029,0.7,0.04,0.81l2.01-3.31H44.93z"/>
	<path fill-rule="evenodd" clip-rule="evenodd" d="M4.94,54.935v0.21c-0.65-0.09-1.181-0.36-1.59-0.8
		c-0.41-0.44-0.61-0.92-0.61-1.46c0-0.28,0.05-0.61,0.14-0.98c0.091-0.37,0.13-0.66,0.13-0.87c0-0.28-0.12-0.55-0.35-0.79
		c-0.24-0.24-0.57-0.39-0.99-0.45v-0.24c0.42-0.05,0.75-0.2,0.99-0.44c0.229-0.25,0.35-0.51,0.35-0.79c0-0.21-0.039-0.5-0.13-0.87
		c-0.09-0.37-0.14-0.7-0.14-0.99c0-0.53,0.2-1.01,0.61-1.45c0.409-0.45,0.939-0.71,1.59-0.8v0.21c-0.45,0.11-0.79,0.29-1,0.54
		c-0.211,0.24-0.32,0.52-0.32,0.81c0,0.23,0.04,0.54,0.13,0.91c0.09,0.38,0.13,0.7,0.13,0.97c0,0.39-0.14,0.78-0.43,1.15
		s-0.721,0.65-1.3,0.86c0.57,0.2,1,0.5,1.29,0.88c0.3,0.38,0.439,0.76,0.439,1.16c0,0.26-0.04,0.58-0.13,0.96
		c-0.09,0.38-0.13,0.68-0.13,0.91c0,0.3,0.109,0.57,0.32,0.82C4.15,54.645,4.49,54.825,4.94,54.935z"/>
	<path fill-rule="evenodd" clip-rule="evenodd" d="M11.41,47.245l-1.15,3.98l-0.12,0.53c-0.02,0.05-0.02,0.09-0.02,0.13
		c0,0.06,0.02,0.12,0.06,0.16c0.03,0.04,0.07,0.05,0.11,0.05c0.05,0,0.12-0.03,0.2-0.09c0.149-0.11,0.36-0.35,0.61-0.7l0.199,0.14
		c-0.27,0.4-0.55,0.71-0.829,0.93c-0.291,0.21-0.551,0.32-0.791,0.32c-0.17,0-0.3-0.05-0.38-0.13c-0.079-0.08-0.13-0.21-0.13-0.37
		c0-0.19,0.051-0.44,0.13-0.75l0.13-0.44c-0.52,0.67-0.989,1.13-1.42,1.4c-0.3,0.19-0.609,0.29-0.9,0.29
		c-0.29,0-0.54-0.12-0.739-0.36c-0.21-0.23-0.311-0.56-0.311-0.97c0-0.62,0.181-1.28,0.561-1.97c0.37-0.69,0.84-1.24,1.42-1.65
		c0.45-0.33,0.87-0.5,1.27-0.5c0.24,0,0.44,0.07,0.591,0.19c0.159,0.13,0.279,0.33,0.359,0.62l0.211-0.67L11.41,47.245z
		 M9.319,47.555c-0.25,0-0.51,0.12-0.799,0.35c-0.391,0.33-0.75,0.82-1.061,1.48c-0.31,0.65-0.47,1.24-0.47,1.77
		c0,0.26,0.069,0.47,0.2,0.63c0.14,0.15,0.289,0.23,0.46,0.23c0.43,0,0.89-0.32,1.39-0.95c0.67-0.83,1-1.69,1-2.57
		c0-0.33-0.061-0.57-0.189-0.72C9.721,47.625,9.54,47.555,9.319,47.555z"/>
	<path fill-rule="evenodd" clip-rule="evenodd" d="M12.65,48.675h4.75v0.36h-4.75V48.675z M12.65,50.104h4.75v0.36h-4.75V50.104z"/>
	<path fill-rule="evenodd" clip-rule="evenodd" d="M22.229,46.595l-1.14,3.92h0.71l-0.149,0.54H20.93l-0.47,1.6h-0.641l0.461-1.6
		h-2.15l0.18-0.61l3.591-3.85H22.229z M21.25,47.725l-2.56,2.79h1.77L21.25,47.725z"/>
	<path fill-rule="evenodd" clip-rule="evenodd" d="M23.101,51.765c0.12,0,0.229,0.04,0.31,0.13c0.09,0.09,0.13,0.19,0.13,0.31
		c0,0.13-0.04,0.23-0.13,0.32c-0.091,0.08-0.189,0.13-0.31,0.13c-0.13,0-0.23-0.05-0.32-0.13c-0.08-0.09-0.13-0.19-0.13-0.32
		c0-0.12,0.05-0.22,0.13-0.31C22.87,51.805,22.971,51.765,23.101,51.765z"/>
	<path fill-rule="evenodd" clip-rule="evenodd" d="M27.71,46.465c0.38,0,0.69,0.16,0.95,0.47c0.25,0.32,0.38,0.81,0.38,1.49
		c0,0.58-0.09,1.17-0.28,1.77c-0.19,0.61-0.46,1.13-0.81,1.57c-0.271,0.35-0.561,0.6-0.86,0.76c-0.18,0.09-0.38,0.13-0.61,0.13
		c-0.39,0-0.699-0.16-0.959-0.47c-0.261-0.31-0.381-0.81-0.381-1.49c0-0.67,0.12-1.34,0.381-2.02c0.299-0.79,0.689-1.39,1.159-1.8
		C26.99,46.604,27.33,46.465,27.71,46.465z M27.71,46.695c-0.17,0-0.34,0.07-0.51,0.2c-0.18,0.14-0.36,0.41-0.54,0.84
		c-0.189,0.42-0.37,0.96-0.54,1.63c-0.22,0.87-0.33,1.61-0.33,2.22c0,0.3,0.069,0.53,0.2,0.68c0.13,0.15,0.29,0.23,0.48,0.23
		c0.18,0,0.329-0.06,0.459-0.18c0.341-0.31,0.62-0.85,0.86-1.62c0.39-1.25,0.59-2.27,0.59-3.05c0-0.32-0.07-0.56-0.2-0.72
		C28.05,46.775,27.89,46.695,27.71,46.695z"/>
	<path fill-rule="evenodd" clip-rule="evenodd" d="M29.88,46.455v-0.15c0.49,0.06,0.88,0.26,1.189,0.59
		c0.311,0.33,0.461,0.69,0.461,1.1c0,0.21-0.03,0.45-0.101,0.73c-0.07,0.28-0.1,0.5-0.1,0.65c0,0.21,0.09,0.41,0.26,0.59
		c0.181,0.19,0.431,0.3,0.74,0.34v0.18c-0.31,0.04-0.56,0.15-0.74,0.34c-0.17,0.18-0.26,0.38-0.26,0.59c0,0.15,0.029,0.37,0.1,0.65
		c0.07,0.28,0.101,0.53,0.101,0.74c0,0.39-0.15,0.76-0.461,1.09c-0.31,0.33-0.699,0.53-1.189,0.6v-0.16
		c0.341-0.08,0.591-0.22,0.75-0.4c0.16-0.18,0.24-0.39,0.24-0.62c0-0.17-0.03-0.4-0.1-0.68c-0.07-0.28-0.101-0.52-0.101-0.72
		c0-0.3,0.11-0.58,0.33-0.86c0.21-0.28,0.54-0.5,0.971-0.65c-0.421-0.15-0.75-0.37-0.971-0.66c-0.22-0.28-0.33-0.57-0.33-0.87
		c0-0.2,0.03-0.44,0.101-0.72c0.069-0.28,0.1-0.51,0.1-0.68c0-0.23-0.08-0.43-0.24-0.62C30.471,46.675,30.221,46.535,29.88,46.455z"
		/>
	<polygon fill-rule="evenodd" clip-rule="evenodd" points="46.76,2.084 46.92,1.604 40.59,1.604 40.59,1.354 46.92,1.354 
		46.76,0.885 48.56,1.485 	"/>
	<polygon fill-rule="evenodd" clip-rule="evenodd" points="27.41,35.834 27.569,35.354 24.06,35.354 24.06,35.104 27.569,35.104 
		27.41,34.635 29.21,35.235 	"/>
</g>
<g id="Vectors">
	<polygon fill-rule="evenodd" clip-rule="evenodd" points="21.19,36.095 20.479,35.385 48.31,7.375 47.37,6.905 51.59,4.775 
		49.49,9.015 49.021,8.075 	"/>
	<polygon fill-rule="evenodd" clip-rule="evenodd" fill="#FF7D00" points="14.66,42.665 13.95,41.965 20.55,35.315 19.609,34.845 
		23.84,32.715 21.74,36.955 21.26,36.015 	"/>
</g>
<g id="Other">
</g>
</svg>
