<?xml version="1.0" encoding="utf-8"?>
<!-- Generator: Adobe Illustrator 14.0.0, SVG Export Plug-In . SVG Version: 6.00 Build 43363)  -->
<!DOCTYPE svg PUBLIC "-//W3C//DTD SVG 1.0//EN" "http://www.w3.org/TR/2001/REC-SVG-20010904/DTD/svg10.dtd">
<svg version="1.0" xmlns="http://www.w3.org/2000/svg" xmlns:xlink="http://www.w3.org/1999/xlink" x="0px" y="0px"
	 width="586.304px" height="341.449px" viewBox="0 0 586.304 341.449" enable-background="new 0 0 586.304 341.449"
	 xml:space="preserve">
<g id="Dashes">
	<linearGradient id="SVGID_1_" gradientUnits="userSpaceOnUse" x1="49.0396" y1="238.4453" x2="212.7732" y2="238.4453">
		<stop  offset="0" style="stop-color:#FFB800"/>
		<stop  offset="1" style="stop-color:#FFFAA3"/>
	</linearGradient>
	<path fill-rule="evenodd" clip-rule="evenodd" fill="url(#SVGID_1_)" d="M585.179,317c-87.81-1.69-221.75-4.56-309.459-9.921
		c-41.56-2.539-112.29-7.339-152.73-22.419c-26.68-9.94-43.72-24.011-55.72-50.42c-10.69-23.541-15.01-49.971-18.35-75.03
		c-6.12,0-12.24,0-18.36,0c0,52.819,0,105.64,0,158.47c184.87,0,369.74,0,554.62,0C585.179,317.449,585.179,317.22,585.179,317z"/>
	<g>
		
			<line fill-rule="evenodd" clip-rule="evenodd" fill="none" stroke="#000000" stroke-width="0.75" stroke-linecap="round" stroke-linejoin="round" x1="30.56" y1="64.14" x2="26.08" y2="64.14"/>
		
			<line fill-rule="evenodd" clip-rule="evenodd" fill="none" stroke="#000000" stroke-width="0.75" stroke-linecap="round" stroke-linejoin="round" x1="30.56" y1="317.68" x2="26.08" y2="317.68"/>
		
			<line fill-rule="evenodd" clip-rule="evenodd" fill="none" stroke="#000000" stroke-width="0.75" stroke-linecap="round" stroke-linejoin="round" x1="30.56" y1="48.29" x2="26.08" y2="48.29"/>
		
			<line fill-rule="evenodd" clip-rule="evenodd" fill="none" stroke="#000000" stroke-width="0.75" stroke-linecap="round" stroke-linejoin="round" x1="30.56" y1="32.44" x2="26.08" y2="32.44"/>
		
			<line fill-rule="evenodd" clip-rule="evenodd" fill="none" stroke="#000000" stroke-width="0.75" stroke-linecap="round" stroke-linejoin="round" x1="30.56" y1="301.829" x2="26.08" y2="301.829"/>
		
			<line fill-rule="evenodd" clip-rule="evenodd" fill="none" stroke="#000000" stroke-width="0.75" stroke-linecap="round" stroke-linejoin="round" x1="30.56" y1="285.979" x2="26.08" y2="285.979"/>
		
			<line fill-rule="evenodd" clip-rule="evenodd" fill="none" stroke="#000000" stroke-width="0.75" stroke-linecap="round" stroke-linejoin="round" x1="30.56" y1="270.14" x2="26.08" y2="270.14"/>
		
			<line fill-rule="evenodd" clip-rule="evenodd" fill="none" stroke="#000000" stroke-width="0.75" stroke-linecap="round" stroke-linejoin="round" x1="30.56" y1="254.29" x2="26.08" y2="254.29"/>
		
			<line fill-rule="evenodd" clip-rule="evenodd" fill="none" stroke="#000000" stroke-width="0.75" stroke-linecap="round" stroke-linejoin="round" x1="30.56" y1="238.44" x2="26.08" y2="238.44"/>
		
			<line fill-rule="evenodd" clip-rule="evenodd" fill="none" stroke="#000000" stroke-width="0.75" stroke-linecap="round" stroke-linejoin="round" x1="30.56" y1="222.6" x2="26.08" y2="222.6"/>
		
			<line fill-rule="evenodd" clip-rule="evenodd" fill="none" stroke="#000000" stroke-width="0.75" stroke-linecap="round" stroke-linejoin="round" x1="30.56" y1="206.75" x2="26.08" y2="206.75"/>
		
			<line fill-rule="evenodd" clip-rule="evenodd" fill="none" stroke="#000000" stroke-width="0.75" stroke-linecap="round" stroke-linejoin="round" x1="30.56" y1="190.91" x2="26.08" y2="190.91"/>
		
			<line fill-rule="evenodd" clip-rule="evenodd" fill="none" stroke="#000000" stroke-width="0.75" stroke-linecap="round" stroke-linejoin="round" x1="30.56" y1="175.06" x2="26.08" y2="175.06"/>
		
			<line fill-rule="evenodd" clip-rule="evenodd" fill="none" stroke="#000000" stroke-width="0.75" stroke-linecap="round" stroke-linejoin="round" x1="30.56" y1="159.21" x2="26.08" y2="159.21"/>
		
			<line fill-rule="evenodd" clip-rule="evenodd" fill="none" stroke="#000000" stroke-width="0.75" stroke-linecap="round" stroke-linejoin="round" x1="30.56" y1="143.37" x2="26.08" y2="143.37"/>
		
			<line fill-rule="evenodd" clip-rule="evenodd" fill="none" stroke="#000000" stroke-width="0.75" stroke-linecap="round" stroke-linejoin="round" x1="30.56" y1="127.52" x2="26.08" y2="127.52"/>
		
			<line fill-rule="evenodd" clip-rule="evenodd" fill="none" stroke="#000000" stroke-width="0.75" stroke-linecap="round" stroke-linejoin="round" x1="30.56" y1="111.67" x2="26.08" y2="111.67"/>
		
			<line fill-rule="evenodd" clip-rule="evenodd" fill="none" stroke="#000000" stroke-width="0.75" stroke-linecap="round" stroke-linejoin="round" x1="30.56" y1="95.83" x2="26.08" y2="95.83"/>
		
			<line fill-rule="evenodd" clip-rule="evenodd" fill="none" stroke="#000000" stroke-width="0.75" stroke-linecap="round" stroke-linejoin="round" x1="30.56" y1="16.6" x2="26.08" y2="16.6"/>
		
			<line fill-rule="evenodd" clip-rule="evenodd" fill="none" stroke="#000000" stroke-width="0.75" stroke-linecap="round" stroke-linejoin="round" x1="30.56" y1="79.98" x2="26.08" y2="79.98"/>
		
			<line fill-rule="evenodd" clip-rule="evenodd" fill="none" stroke="#000000" stroke-width="0.75" stroke-linecap="round" stroke-linejoin="round" x1="30.56" y1="0.75" x2="26.08" y2="0.75"/>
	</g>
	
		<line fill-rule="evenodd" clip-rule="evenodd" fill="none" stroke="#000000" stroke-width="0.75" stroke-linecap="round" stroke-linejoin="round" x1="395.979" y1="317.68" x2="395.979" y2="322.699"/>
	
		<line fill-rule="evenodd" clip-rule="evenodd" fill="none" stroke="#000000" stroke-width="0.75" stroke-linecap="round" stroke-linejoin="round" x1="414.25" y1="317.68" x2="414.25" y2="322.699"/>
	
		<line fill-rule="evenodd" clip-rule="evenodd" fill="none" stroke="#000000" stroke-width="0.75" stroke-linecap="round" stroke-linejoin="round" x1="432.52" y1="317.68" x2="432.52" y2="322.699"/>
	
		<line fill-rule="evenodd" clip-rule="evenodd" fill="none" stroke="#000000" stroke-width="0.75" stroke-linecap="round" stroke-linejoin="round" x1="450.79" y1="317.68" x2="450.79" y2="322.699"/>
	
		<line fill-rule="evenodd" clip-rule="evenodd" fill="none" stroke="#000000" stroke-width="0.75" stroke-linecap="round" stroke-linejoin="round" x1="469.06" y1="317.68" x2="469.06" y2="322.699"/>
	
		<line fill-rule="evenodd" clip-rule="evenodd" fill="none" stroke="#000000" stroke-width="0.75" stroke-linecap="round" stroke-linejoin="round" x1="487.33" y1="317.68" x2="487.33" y2="322.699"/>
	
		<line fill-rule="evenodd" clip-rule="evenodd" fill="none" stroke="#000000" stroke-width="0.75" stroke-linecap="round" stroke-linejoin="round" x1="505.599" y1="317.68" x2="505.599" y2="322.699"/>
	
		<line fill-rule="evenodd" clip-rule="evenodd" fill="none" stroke="#000000" stroke-width="0.75" stroke-linecap="round" stroke-linejoin="round" x1="523.87" y1="317.68" x2="523.87" y2="322.699"/>
	
		<line fill-rule="evenodd" clip-rule="evenodd" fill="none" stroke="#000000" stroke-width="0.75" stroke-linecap="round" stroke-linejoin="round" x1="542.15" y1="317.68" x2="542.15" y2="322.699"/>
	
		<line fill-rule="evenodd" clip-rule="evenodd" fill="none" stroke="#000000" stroke-width="0.75" stroke-linecap="round" stroke-linejoin="round" x1="560.419" y1="317.68" x2="560.419" y2="322.699"/>
	
		<line fill-rule="evenodd" clip-rule="evenodd" fill="none" stroke="#000000" stroke-width="0.75" stroke-linecap="round" stroke-linejoin="round" x1="578.689" y1="317.68" x2="578.689" y2="322.699"/>
	
		<line fill-rule="evenodd" clip-rule="evenodd" fill="none" stroke="#000000" stroke-width="0.75" stroke-linecap="round" stroke-linejoin="round" x1="377.709" y1="317.68" x2="377.709" y2="322.699"/>
	
		<line fill-rule="evenodd" clip-rule="evenodd" fill="none" stroke="#000000" stroke-width="0.75" stroke-linecap="round" stroke-linejoin="round" x1="359.439" y1="317.68" x2="359.439" y2="322.699"/>
	
		<line fill-rule="evenodd" clip-rule="evenodd" fill="none" stroke="#000000" stroke-width="0.75" stroke-linecap="round" stroke-linejoin="round" x1="341.16" y1="317.68" x2="341.16" y2="322.699"/>
	
		<line fill-rule="evenodd" clip-rule="evenodd" fill="none" stroke="#000000" stroke-width="0.75" stroke-linecap="round" stroke-linejoin="round" x1="322.89" y1="317.68" x2="322.89" y2="322.699"/>
	
		<line fill-rule="evenodd" clip-rule="evenodd" fill="none" stroke="#000000" stroke-width="0.75" stroke-linecap="round" stroke-linejoin="round" x1="304.62" y1="317.68" x2="304.62" y2="322.699"/>
	
		<line fill-rule="evenodd" clip-rule="evenodd" fill="none" stroke="#000000" stroke-width="0.75" stroke-linecap="round" stroke-linejoin="round" x1="286.35" y1="317.68" x2="286.35" y2="322.699"/>
	
		<line fill-rule="evenodd" clip-rule="evenodd" fill="none" stroke="#000000" stroke-width="0.75" stroke-linecap="round" stroke-linejoin="round" x1="268.08" y1="317.68" x2="268.08" y2="322.699"/>
	
		<line fill-rule="evenodd" clip-rule="evenodd" fill="none" stroke="#000000" stroke-width="0.75" stroke-linecap="round" stroke-linejoin="round" x1="249.81" y1="317.68" x2="249.81" y2="322.699"/>
	
		<line fill-rule="evenodd" clip-rule="evenodd" fill="none" stroke="#000000" stroke-width="0.75" stroke-linecap="round" stroke-linejoin="round" x1="231.54" y1="317.68" x2="231.54" y2="322.699"/>
	
		<line fill-rule="evenodd" clip-rule="evenodd" fill="none" stroke="#000000" stroke-width="0.75" stroke-linecap="round" stroke-linejoin="round" x1="213.27" y1="317.68" x2="213.27" y2="322.699"/>
	
		<line fill-rule="evenodd" clip-rule="evenodd" fill="none" stroke="#000000" stroke-width="0.75" stroke-linecap="round" stroke-linejoin="round" x1="195" y1="317.68" x2="195" y2="322.699"/>
	
		<line fill-rule="evenodd" clip-rule="evenodd" fill="none" stroke="#000000" stroke-width="0.75" stroke-linecap="round" stroke-linejoin="round" x1="176.729" y1="317.68" x2="176.729" y2="322.699"/>
	
		<line fill-rule="evenodd" clip-rule="evenodd" fill="none" stroke="#000000" stroke-width="0.75" stroke-linecap="round" stroke-linejoin="round" x1="158.45" y1="317.68" x2="158.45" y2="322.699"/>
	
		<line fill-rule="evenodd" clip-rule="evenodd" fill="none" stroke="#000000" stroke-width="0.75" stroke-linecap="round" stroke-linejoin="round" x1="140.18" y1="317.68" x2="140.18" y2="322.699"/>
	
		<line fill-rule="evenodd" clip-rule="evenodd" fill="none" stroke="#000000" stroke-width="0.75" stroke-linecap="round" stroke-linejoin="round" x1="121.91" y1="317.68" x2="121.91" y2="322.699"/>
	
		<line fill-rule="evenodd" clip-rule="evenodd" fill="none" stroke="#000000" stroke-width="0.75" stroke-linecap="round" stroke-linejoin="round" x1="103.64" y1="317.68" x2="103.64" y2="322.699"/>
	
		<line fill-rule="evenodd" clip-rule="evenodd" fill="none" stroke="#000000" stroke-width="0.75" stroke-linecap="round" stroke-linejoin="round" x1="85.37" y1="317.68" x2="85.37" y2="322.699"/>
	
		<line fill-rule="evenodd" clip-rule="evenodd" fill="none" stroke="#000000" stroke-width="0.75" stroke-linecap="round" stroke-linejoin="round" x1="67.1" y1="317.68" x2="67.1" y2="322.699"/>
	
		<line fill-rule="evenodd" clip-rule="evenodd" fill="none" stroke="#000000" stroke-width="0.75" stroke-linecap="round" stroke-linejoin="round" x1="48.83" y1="317.68" x2="48.83" y2="322.699"/>
	
		<line fill-rule="evenodd" clip-rule="evenodd" fill="none" stroke="#000000" stroke-width="0.75" stroke-linecap="round" stroke-linejoin="round" x1="30.56" y1="317.68" x2="30.56" y2="322.699"/>
</g>
<g id="Layer_1">
	
		<line fill-rule="evenodd" clip-rule="evenodd" fill="none" stroke="#000000" stroke-width="0.75" stroke-linecap="round" stroke-linejoin="round" stroke-dasharray="1.5,1.5" x1="30.56" y1="159.21" x2="195.459" y2="159.21"/>
	
		<line fill-rule="evenodd" clip-rule="evenodd" fill="none" stroke="#000000" stroke-width="0.75" stroke-linecap="round" stroke-linejoin="round" stroke-dasharray="1.5,1.5" x1="48.919" y1="159.21" x2="48.919" y2="317.68"/>
	
		<path fill-rule="evenodd" clip-rule="evenodd" fill="none" stroke="#000000" stroke-width="2.25" stroke-linecap="round" stroke-linejoin="round" d="
		M48.919,159.21c3.34,25.02,7.64,51.399,18.3,74.899c11.98,26.461,29.01,40.57,55.73,50.54c40.44,15.091,111.19,19.891,152.75,22.43
		c87.729,5.361,221.66,8.23,309.479,9.921"/>
	
		<path fill-rule="evenodd" clip-rule="evenodd" fill="none" stroke="#000000" stroke-width="1.5" stroke-linecap="round" stroke-linejoin="round" stroke-dasharray="2.99,2.99" d="
		M37.61,0.75c1.9,47.17,5.04,111.54,11.31,158.46"/>
	
		<line fill-rule="evenodd" clip-rule="evenodd" fill="none" stroke="#000000" stroke-width="1.5" stroke-linecap="round" stroke-linejoin="round" x1="30.56" y1="317.68" x2="585.179" y2="317.68"/>
	
		<line fill-rule="evenodd" clip-rule="evenodd" fill="none" stroke="#000000" stroke-width="1.5" stroke-linecap="round" stroke-linejoin="round" x1="30.56" y1="317.68" x2="30.56" y2="0.75"/>
	<g>
		<g>
			<rect x="61.819" y="22.49" fill-rule="evenodd" clip-rule="evenodd" width="1.17" height="8.59"/>
			<path fill-rule="evenodd" clip-rule="evenodd" d="M68.729,31.08v-3.65c0-0.67-0.1-1.14-0.3-1.41c-0.2-0.26-0.54-0.4-1.01-0.4
				c-0.26,0-0.52,0.08-0.8,0.23c-0.28,0.15-0.49,0.34-0.64,0.56v4.67h-1.11V24.8h0.76l0.35,0.81c0.37-0.62,0.97-0.93,1.8-0.93
				c1.37,0,2.06,0.84,2.06,2.51v3.89H68.729z"/>
			<path fill-rule="evenodd" clip-rule="evenodd" d="M74.82,23.23c-0.23-0.08-0.44-0.12-0.64-0.12c-0.34,0-0.62,0.13-0.84,0.39
				c-0.22,0.25-0.33,0.58-0.33,0.97c0,0.11,0.01,0.22,0.03,0.33h1.28v0.94h-1.28v5.34h-1.11v-5.34h-0.92V24.8h0.92
				c0-0.8,0.2-1.43,0.59-1.88c0.39-0.46,0.92-0.69,1.56-0.69c0.33,0,0.68,0.06,1.05,0.18L74.82,23.23z"/>
			<path fill-rule="evenodd" clip-rule="evenodd" d="M77.01,22.43c0.19,0,0.35,0.07,0.49,0.2c0.13,0.14,0.2,0.3,0.2,0.48
				c0,0.2-0.07,0.36-0.2,0.49c-0.14,0.14-0.3,0.21-0.49,0.21s-0.35-0.07-0.49-0.21c-0.13-0.13-0.2-0.29-0.2-0.49
				c0-0.19,0.07-0.35,0.2-0.48C76.65,22.5,76.82,22.43,77.01,22.43z M76.4,31.08v-5.34h-0.86V24.8h1.97v6.28H76.4z"/>
			<path fill-rule="evenodd" clip-rule="evenodd" d="M83.14,31.08v-3.65c0-0.67-0.1-1.14-0.3-1.41c-0.2-0.26-0.54-0.4-1.01-0.4
				c-0.25,0-0.52,0.08-0.8,0.23c-0.27,0.15-0.49,0.34-0.63,0.56v4.67h-1.12V24.8h0.76l0.36,0.81c0.36-0.62,0.96-0.93,1.79-0.93
				c1.38,0,2.07,0.84,2.07,2.51v3.89H83.14z"/>
			<path fill-rule="evenodd" clip-rule="evenodd" d="M86.99,22.43c0.19,0,0.35,0.07,0.49,0.2c0.13,0.14,0.2,0.3,0.2,0.48
				c0,0.2-0.07,0.36-0.2,0.49c-0.14,0.14-0.3,0.21-0.49,0.21s-0.35-0.07-0.49-0.21c-0.13-0.13-0.2-0.29-0.2-0.49
				c0-0.19,0.07-0.35,0.2-0.48C86.63,22.5,86.8,22.43,86.99,22.43z M86.38,31.08v-5.34h-0.86V24.8h1.97v6.28H86.38z"/>
			<path fill-rule="evenodd" clip-rule="evenodd" d="M89.66,25.68h-0.73V24.8h0.73v-1.31l1.11-0.43v1.74h1.73v0.88h-1.73v3.12
				c0,0.53,0.09,0.9,0.27,1.12c0.18,0.23,0.46,0.34,0.86,0.34c0.28,0,0.58-0.08,0.88-0.22l0.17,0.98c-0.46,0.12-0.97,0.17-1.52,0.17
				c-0.5,0-0.92-0.18-1.26-0.55c-0.34-0.37-0.51-0.83-0.51-1.4V25.68z"/>
			<path fill-rule="evenodd" clip-rule="evenodd" d="M96.419,32.14c-0.15,0.4-0.45,0.73-0.92,1c-0.46,0.27-0.98,0.4-1.55,0.4v-1
				c0.47,0,0.87-0.11,1.2-0.32c0.33-0.22,0.5-0.48,0.5-0.8c0-0.34-0.06-0.68-0.18-1.01c-0.12-0.34-0.28-0.75-0.47-1.24l-1.7-4.37
				h1.13l1.85,4.85l1.66-4.85h1.14L96.419,32.14z"/>
		</g>
	</g>
	<path fill-rule="evenodd" clip-rule="evenodd" d="M60.45,27.16c-7.03,0-12.82-5.35-13.52-12.21l-0.04-0.88h-2.66l3.01-7.01l3,7.01
		h-2.6l0.04,0.81c0.65,6.47,6.13,11.53,12.77,11.53V27.16z"/>
	<path fill-rule="evenodd" clip-rule="evenodd" d="M49.93,157.93l2.36-7.25l1.98,1.74l0.41-0.44c3.84-3.95,9.22-6.42,15.16-6.42
		v0.75c-5.73,0-10.92,2.38-14.62,6.19l-0.38,0.42l1.96,1.72L49.93,157.93z"/>
	<g>
		<g>
			<path fill-rule="evenodd" clip-rule="evenodd" d="M72.58,149.81h-1.73v-8.58c1.1-0.04,1.81-0.06,2.11-0.06
				c1.2,0,2.15,0.36,2.85,1.09c0.7,0.73,1.05,1.7,1.05,2.91C76.86,148.27,75.43,149.81,72.58,149.81z M72.02,142.28v6.42
				c0.26,0.04,0.59,0.06,0.97,0.06c0.82,0,1.47-0.31,1.94-0.93c0.47-0.61,0.7-1.47,0.7-2.56c0-2.03-0.91-3.05-2.74-3.05
				C72.78,142.22,72.49,142.24,72.02,142.28z"/>
			<path fill-rule="evenodd" clip-rule="evenodd" d="M79.27,141.16c0.19,0,0.35,0.07,0.49,0.21c0.13,0.13,0.2,0.29,0.2,0.48
				s-0.07,0.35-0.2,0.49c-0.14,0.13-0.3,0.2-0.49,0.2s-0.35-0.07-0.49-0.2c-0.13-0.14-0.2-0.3-0.2-0.49s0.07-0.35,0.2-0.49
				C78.91,141.23,79.08,141.16,79.27,141.16z M78.66,149.81v-5.34H77.8v-0.93h1.97v6.27H78.66z"/>
			<path fill-rule="evenodd" clip-rule="evenodd" d="M81.13,149.44l0.39-1.06c0.63,0.41,1.13,0.61,1.5,0.61
				c0.69,0,1.04-0.29,1.04-0.87c0-0.41-0.34-0.76-1-1.06c-0.51-0.24-0.86-0.41-1.03-0.53c-0.18-0.13-0.34-0.26-0.47-0.42
				c-0.13-0.15-0.23-0.32-0.29-0.49s-0.1-0.36-0.1-0.56c0-0.52,0.19-0.92,0.57-1.21c0.37-0.29,0.86-0.43,1.47-0.43
				c0.45,0,1.03,0.14,1.72,0.43l-0.31,1.03c-0.44-0.35-0.89-0.52-1.33-0.52c-0.27,0-0.49,0.06-0.67,0.18
				c-0.18,0.13-0.28,0.29-0.28,0.48c0,0.4,0.23,0.71,0.69,0.91l0.8,0.37c0.49,0.22,0.84,0.47,1.06,0.76
				c0.23,0.28,0.34,0.64,0.34,1.07c0,0.56-0.2,1-0.59,1.32c-0.4,0.32-0.95,0.48-1.64,0.48C82.33,149.93,81.709,149.77,81.13,149.44z
				"/>
			<path fill-rule="evenodd" clip-rule="evenodd" d="M86.8,144.42h-0.73v-0.88h0.73v-1.32l1.11-0.42v1.74h1.72v0.88h-1.72v3.11
				c0,0.53,0.09,0.91,0.27,1.13c0.18,0.22,0.46,0.33,0.86,0.33c0.28,0,0.58-0.07,0.88-0.22l0.17,0.98
				c-0.47,0.12-0.97,0.18-1.52,0.18c-0.5,0-0.92-0.19-1.26-0.55c-0.34-0.37-0.51-0.84-0.51-1.4V144.42z"/>
			<path fill-rule="evenodd" clip-rule="evenodd" d="M94.7,149.09c-0.44,0.56-1.12,0.84-2.04,0.84c-0.49,0-0.92-0.18-1.28-0.54
				c-0.36-0.35-0.54-0.8-0.54-1.33c0-0.64,0.27-1.17,0.83-1.61c0.56-0.44,1.27-0.66,2.13-0.66c0.23,0,0.5,0.05,0.8,0.15
				c0-1.02-0.46-1.52-1.36-1.52c-0.7,0-1.23,0.18-1.61,0.56l-0.47-0.93c0.21-0.18,0.51-0.32,0.88-0.45
				c0.37-0.12,0.73-0.18,1.07-0.18c0.91,0,1.57,0.21,1.98,0.62c0.41,0.41,0.62,1.07,0.62,1.98v2.25c0,0.55,0.16,0.91,0.49,1.1v0.55
				c-0.45,0-0.79-0.06-1.01-0.19C94.959,149.6,94.8,149.39,94.7,149.09z M94.6,146.73c-0.35-0.08-0.6-0.12-0.74-0.12
				c-0.56,0-1.02,0.15-1.38,0.44c-0.35,0.29-0.53,0.63-0.53,1.02c0,0.65,0.38,0.98,1.15,0.98c0.57,0,1.06-0.27,1.5-0.8V146.73z"/>
			<path fill-rule="evenodd" clip-rule="evenodd" d="M101.32,149.81v-3.65c0-0.67-0.1-1.13-0.3-1.4c-0.2-0.27-0.54-0.4-1.01-0.4
				c-0.25,0-0.52,0.07-0.8,0.23c-0.27,0.15-0.49,0.34-0.63,0.56v4.66h-1.12v-6.27h0.76l0.36,0.81c0.36-0.62,0.96-0.93,1.79-0.93
				c1.38,0,2.07,0.84,2.07,2.51v3.88H101.32z"/>
			<path fill-rule="evenodd" clip-rule="evenodd" d="M108.75,144.05l-0.55,0.78c-0.11-0.11-0.31-0.22-0.6-0.32
				c-0.28-0.1-0.57-0.15-0.84-0.15c-0.61,0-1.09,0.21-1.45,0.63c-0.35,0.43-0.53,1.01-0.53,1.75c0,0.73,0.18,1.29,0.55,1.67
				c0.36,0.39,0.86,0.58,1.51,0.58c0.5,0,1-0.19,1.51-0.58l0.44,0.94c-0.6,0.39-1.34,0.58-2.22,0.58c-0.86,0-1.56-0.29-2.12-0.86
				c-0.56-0.58-0.84-1.35-0.84-2.33c0-1,0.29-1.81,0.87-2.41c0.58-0.61,1.37-0.91,2.38-0.91c0.33,0,0.68,0.07,1.06,0.2
				C108.3,143.76,108.57,143.9,108.75,144.05z"/>
			<path fill-rule="evenodd" clip-rule="evenodd" d="M115.25,146.78h-4.53c0,0.74,0.2,1.3,0.61,1.7c0.35,0.34,0.81,0.51,1.37,0.51
				c0.63,0,1.17-0.18,1.59-0.55l0.47,0.8c-0.17,0.17-0.44,0.32-0.79,0.44c-0.45,0.17-0.94,0.25-1.49,0.25
				c-0.79,0-1.46-0.27-2.01-0.8c-0.61-0.59-0.92-1.39-0.92-2.38c0-1.04,0.32-1.87,0.94-2.49c0.57-0.56,1.23-0.84,2-0.84
				c0.9,0,1.6,0.25,2.11,0.76c0.49,0.48,0.73,1.12,0.73,1.92C115.33,146.35,115.3,146.58,115.25,146.78z M112.54,144.36
				c-0.49,0-0.91,0.16-1.24,0.48c-0.32,0.3-0.51,0.68-0.55,1.13h3.48c0-0.44-0.14-0.82-0.43-1.12
				C113.5,144.52,113.08,144.36,112.54,144.36z"/>
			<path fill-rule="evenodd" clip-rule="evenodd" d="M120.52,144.42h-0.73v-0.88h0.73v-1.32l1.11-0.42v1.74h1.73v0.88h-1.73v3.11
				c0,0.53,0.09,0.91,0.27,1.13c0.18,0.22,0.46,0.33,0.86,0.33c0.28,0,0.58-0.07,0.88-0.22l0.17,0.98
				c-0.46,0.12-0.97,0.18-1.52,0.18c-0.5,0-0.92-0.19-1.26-0.55c-0.34-0.37-0.51-0.84-0.51-1.4V144.42z"/>
			<path fill-rule="evenodd" clip-rule="evenodd" d="M128.75,149.81v-3.94c0-0.47-0.12-0.84-0.35-1.11c-0.23-0.27-0.55-0.4-0.97-0.4
				c-0.27,0-0.54,0.08-0.81,0.23c-0.28,0.16-0.48,0.35-0.63,0.56v4.66h-1.11v-8.85h1.11v3.27c0.15-0.23,0.39-0.42,0.72-0.58
				c0.33-0.15,0.67-0.23,1.02-0.23c0.67,0,1.19,0.22,1.56,0.66c0.38,0.43,0.57,1.03,0.57,1.79v3.94H128.75z"/>
			<path fill-rule="evenodd" clip-rule="evenodd" d="M134.85,144.61c-0.25-0.17-0.49-0.25-0.74-0.25c-0.39,0-0.74,0.18-1.03,0.54
				c-0.3,0.37-0.44,0.8-0.44,1.31v3.6h-1.12v-6.27h1.12v1c0.4-0.75,1.01-1.12,1.81-1.12c0.2,0,0.48,0.04,0.86,0.11L134.85,144.61z"
				/>
			<path fill-rule="evenodd" clip-rule="evenodd" d="M141.38,146.78h-4.52c0,0.74,0.2,1.3,0.61,1.7c0.35,0.34,0.81,0.51,1.37,0.51
				c0.63,0,1.16-0.18,1.59-0.55l0.47,0.8c-0.17,0.17-0.44,0.32-0.79,0.44c-0.45,0.17-0.94,0.25-1.49,0.25
				c-0.79,0-1.46-0.27-2.01-0.8c-0.61-0.59-0.92-1.39-0.92-2.38c0-1.04,0.31-1.87,0.94-2.49c0.57-0.56,1.23-0.84,2-0.84
				c0.9,0,1.6,0.25,2.1,0.76c0.5,0.48,0.74,1.12,0.74,1.92C141.47,146.35,141.439,146.58,141.38,146.78z M138.68,144.36
				c-0.49,0-0.91,0.16-1.24,0.48c-0.32,0.3-0.51,0.68-0.55,1.13h3.48c0-0.44-0.15-0.82-0.43-1.12
				C139.64,144.52,139.22,144.36,138.68,144.36z"/>
			<path fill-rule="evenodd" clip-rule="evenodd" d="M142.229,149.44l0.4-1.06c0.62,0.41,1.12,0.61,1.5,0.61
				c0.68,0,1.03-0.29,1.03-0.87c0-0.41-0.33-0.76-1-1.06c-0.51-0.24-0.85-0.41-1.03-0.53c-0.18-0.13-0.33-0.26-0.46-0.42
				c-0.14-0.15-0.23-0.32-0.3-0.49c-0.06-0.17-0.09-0.36-0.09-0.56c0-0.52,0.18-0.92,0.56-1.21c0.37-0.29,0.86-0.43,1.47-0.43
				c0.46,0,1.03,0.14,1.73,0.43l-0.32,1.03c-0.44-0.35-0.88-0.52-1.33-0.52c-0.26,0-0.49,0.06-0.67,0.18
				c-0.18,0.13-0.27,0.29-0.27,0.48c0,0.4,0.23,0.71,0.68,0.91l0.8,0.37c0.49,0.22,0.84,0.47,1.07,0.76
				c0.22,0.28,0.33,0.64,0.33,1.07c0,0.56-0.2,1-0.59,1.32c-0.4,0.32-0.94,0.48-1.64,0.48
				C143.439,149.93,142.82,149.77,142.229,149.44z"/>
			<path fill-rule="evenodd" clip-rule="evenodd" d="M151.37,149.81v-3.94c0-0.47-0.12-0.84-0.35-1.11s-0.55-0.4-0.97-0.4
				c-0.27,0-0.54,0.08-0.81,0.23c-0.27,0.16-0.48,0.35-0.62,0.56v4.66h-1.12v-8.85h1.12v3.27c0.14-0.23,0.38-0.42,0.71-0.58
				c0.33-0.15,0.67-0.23,1.03-0.23c0.66,0,1.18,0.22,1.56,0.66c0.37,0.43,0.56,1.03,0.56,1.79v3.94H151.37z"/>
			<path fill-rule="evenodd" clip-rule="evenodd" d="M153.65,146.66c0-0.97,0.26-1.75,0.78-2.35c0.52-0.59,1.21-0.89,2.06-0.89
				c0.9,0,1.6,0.29,2.09,0.86c0.5,0.57,0.75,1.36,0.75,2.38c0,1.01-0.26,1.81-0.76,2.39c-0.51,0.59-1.2,0.88-2.08,0.88
				c-0.89,0-1.59-0.3-2.09-0.89C153.9,148.45,153.65,147.66,153.65,146.66z M154.82,146.66c0,1.57,0.56,2.36,1.67,2.36
				c0.52,0,0.93-0.21,1.22-0.63c0.3-0.42,0.45-1,0.45-1.73c0-1.55-0.56-2.33-1.67-2.33c-0.51,0-0.91,0.2-1.21,0.62
				C154.97,145.36,154.82,145.93,154.82,146.66z"/>
			<path fill-rule="evenodd" clip-rule="evenodd" d="M160.59,148.04v-7.08h1.11v6.89c0,0.34,0.1,0.6,0.29,0.79
				c0.19,0.2,0.45,0.29,0.76,0.29v1C161.31,149.93,160.59,149.3,160.59,148.04z"/>
			<path fill-rule="evenodd" clip-rule="evenodd" d="M168.02,149.81v-0.47c-0.39,0.39-0.95,0.58-1.69,0.58
				c-0.79,0-1.42-0.28-1.91-0.84c-0.49-0.56-0.73-1.31-0.73-2.25s0.28-1.75,0.84-2.41c0.56-0.67,1.23-1,2.01-1
				c0.65,0,1.14,0.15,1.48,0.46v-2.92h1.11v8.85H168.02z M168.02,144.99c-0.28-0.42-0.67-0.63-1.16-0.63
				c-0.59,0-1.08,0.22-1.45,0.67c-0.37,0.44-0.55,1.01-0.55,1.69c0,1.52,0.69,2.27,2.06,2.27c0.18,0,0.39-0.05,0.63-0.17
				c0.25-0.11,0.4-0.22,0.47-0.35V144.99z"/>
		</g>
	</g>
	<path fill-rule="evenodd" clip-rule="evenodd" d="M202.89,162.44l-7-3l7-3v2.6l0.81-0.04c6.48-0.66,11.53-6.13,11.53-12.78h0.75
		c0,7.04-5.35,12.83-12.2,13.52l-0.89,0.05V162.44z"/>
	<g>
		<g>
			<polygon fill-rule="evenodd" clip-rule="evenodd" points="218.87,145.12 217.85,139.61 215.979,145.24 215.689,145.24 
				213.76,139.61 212.76,145.12 211.65,145.12 213.25,136.54 213.79,136.54 215.83,142.8 217.72,136.54 218.25,136.54 
				219.99,145.12 			"/>
			<path fill-rule="evenodd" clip-rule="evenodd" d="M224.38,144.4c-0.44,0.56-1.13,0.84-2.04,0.84c-0.5,0-0.92-0.18-1.28-0.53
				c-0.37-0.36-0.55-0.81-0.55-1.34c0-0.63,0.28-1.17,0.84-1.61s1.27-0.66,2.13-0.66c0.23,0,0.5,0.05,0.8,0.15
				c0-1.01-0.46-1.52-1.36-1.52c-0.7,0-1.23,0.19-1.61,0.56l-0.47-0.93c0.21-0.17,0.5-0.32,0.88-0.44c0.37-0.13,0.73-0.19,1.07-0.19
				c0.91,0,1.57,0.21,1.98,0.62c0.41,0.42,0.62,1.08,0.62,1.98v2.25c0,0.55,0.16,0.92,0.49,1.1v0.56c-0.45,0-0.79-0.07-1.02-0.2
				C224.64,144.91,224.479,144.7,224.38,144.4z M224.28,142.04c-0.36-0.07-0.6-0.11-0.74-0.11c-0.57,0-1.02,0.14-1.38,0.43
				s-0.53,0.63-0.53,1.02c0,0.66,0.38,0.98,1.15,0.98c0.56,0,1.06-0.26,1.5-0.8V142.04z"/>
			<polygon fill-rule="evenodd" clip-rule="evenodd" points="230.959,145.12 229.25,142.84 227.72,145.12 226.419,145.12 
				228.7,141.91 226.61,138.85 227.86,138.85 229.27,141.01 230.84,138.85 232.07,138.85 229.8,141.91 232.29,145.12 			"/>
			<path fill-rule="evenodd" clip-rule="evenodd" d="M234.3,136.48c0.19,0,0.36,0.06,0.49,0.2c0.14,0.13,0.2,0.29,0.2,0.48
				s-0.06,0.36-0.2,0.49c-0.13,0.14-0.3,0.2-0.49,0.2s-0.35-0.06-0.48-0.2c-0.14-0.13-0.2-0.3-0.2-0.49s0.06-0.35,0.2-0.48
				C233.95,136.54,234.11,136.48,234.3,136.48z M233.689,145.12v-5.33h-0.86v-0.94h1.98v6.27H233.689z"/>
			<path fill-rule="evenodd" clip-rule="evenodd" d="M243.84,145.12v-3.97c0-0.99-0.43-1.48-1.28-1.48c-0.27,0-0.52,0.08-0.76,0.25
				c-0.23,0.17-0.39,0.35-0.48,0.56v4.64h-1.11v-4.45c0-0.31-0.12-0.56-0.35-0.73c-0.23-0.18-0.54-0.27-0.92-0.27
				c-0.23,0-0.46,0.09-0.72,0.26c-0.25,0.17-0.43,0.36-0.53,0.57v4.62h-1.12v-6.27h0.73l0.37,0.73c0.43-0.57,0.97-0.85,1.61-0.85
				c0.9,0,1.53,0.28,1.89,0.84c0.12-0.24,0.36-0.44,0.7-0.6s0.69-0.24,1.04-0.24c0.65,0,1.15,0.2,1.51,0.58
				c0.36,0.38,0.53,0.92,0.53,1.62v4.19H243.84z"/>
			<path fill-rule="evenodd" clip-rule="evenodd" d="M247.59,138.85v4c0,0.97,0.42,1.45,1.26,1.45c0.37,0,0.7-0.1,1.01-0.31
				c0.3-0.21,0.5-0.46,0.6-0.73v-4.41h1.11v6.27h-1.11v-0.86c-0.12,0.24-0.37,0.47-0.75,0.67c-0.38,0.21-0.75,0.31-1.11,0.31
				c-0.68,0-1.21-0.19-1.57-0.59c-0.37-0.39-0.55-0.95-0.55-1.68v-4.12H247.59z"/>
			<path fill-rule="evenodd" clip-rule="evenodd" d="M260.36,145.12v-3.97c0-0.99-0.43-1.48-1.28-1.48c-0.27,0-0.53,0.08-0.76,0.25
				c-0.24,0.17-0.4,0.35-0.48,0.56v4.64h-1.11v-4.45c0-0.31-0.12-0.56-0.35-0.73c-0.24-0.18-0.54-0.27-0.93-0.27
				c-0.22,0-0.46,0.09-0.71,0.26s-0.43,0.36-0.53,0.57v4.62h-1.12v-6.27h0.73l0.37,0.73c0.43-0.57,0.97-0.85,1.61-0.85
				c0.9,0,1.53,0.28,1.89,0.84c0.12-0.24,0.35-0.44,0.69-0.6c0.34-0.16,0.69-0.24,1.05-0.24c0.65,0,1.15,0.2,1.51,0.58
				c0.35,0.38,0.53,0.92,0.53,1.62v4.19H260.36z"/>
			<polygon fill-rule="evenodd" clip-rule="evenodd" points="272.47,145.24 272.18,145.24 270.34,140.97 268.5,145.24 
				268.209,145.24 265.97,138.83 267.16,138.83 268.5,142.95 270.169,138.83 270.459,138.83 272.18,142.95 273.62,138.83 
				274.72,138.83 			"/>
			<path fill-rule="evenodd" clip-rule="evenodd" d="M280.88,142.1h-4.52c0,0.73,0.2,1.29,0.6,1.69c0.36,0.34,0.82,0.51,1.38,0.51
				c0.63,0,1.16-0.18,1.59-0.55l0.47,0.8c-0.17,0.17-0.44,0.32-0.79,0.45c-0.45,0.16-0.94,0.24-1.49,0.24
				c-0.79,0-1.46-0.27-2.01-0.8c-0.61-0.59-0.92-1.38-0.92-2.38c0-1.03,0.31-1.86,0.94-2.49c0.56-0.56,1.23-0.84,2-0.84
				c0.89,0,1.6,0.25,2.1,0.76c0.5,0.48,0.74,1.13,0.74,1.93C280.97,141.66,280.939,141.89,280.88,142.1z M278.18,139.67
				c-0.49,0-0.91,0.16-1.25,0.48c-0.32,0.31-0.5,0.68-0.54,1.14h3.47c0-0.45-0.14-0.83-0.42-1.13
				C279.13,139.83,278.709,139.67,278.18,139.67z"/>
			<path fill-rule="evenodd" clip-rule="evenodd" d="M283.29,136.48c0.19,0,0.36,0.06,0.49,0.2c0.14,0.13,0.2,0.29,0.2,0.48
				s-0.06,0.36-0.2,0.49c-0.13,0.14-0.3,0.2-0.49,0.2s-0.35-0.06-0.48-0.2c-0.14-0.13-0.2-0.3-0.2-0.49s0.06-0.35,0.2-0.48
				C282.939,136.54,283.1,136.48,283.29,136.48z M282.68,145.12v-5.33h-0.86v-0.94h1.98v6.27H282.68z"/>
			<path fill-rule="evenodd" clip-rule="evenodd" d="M285.34,146.84l0.6-0.89c0.65,0.43,1.25,0.65,1.79,0.65
				c0.51,0,0.91-0.09,1.2-0.26s0.43-0.39,0.43-0.65c0-0.5-0.36-0.76-1.1-0.76c-0.12,0-0.35,0.03-0.68,0.1
				c-0.33,0.06-0.58,0.09-0.77,0.09c-0.89,0-1.33-0.34-1.33-1.01c0-0.21,0.1-0.39,0.31-0.56s0.47-0.29,0.78-0.36
				c-0.88-0.42-1.33-1.14-1.33-2.16c0-0.66,0.23-1.2,0.69-1.64s1.02-0.66,1.69-0.66c0.62,0,1.1,0.13,1.45,0.38l0.56-0.66l0.72,0.68
				l-0.67,0.51c0.29,0.37,0.43,0.85,0.43,1.45c0,0.63-0.19,1.16-0.59,1.59c-0.39,0.43-0.91,0.68-1.55,0.74l-0.92,0.09
				c-0.11,0.02-0.26,0.06-0.44,0.13c-0.18,0.07-0.28,0.17-0.28,0.28c0,0.16,0.19,0.24,0.58,0.24c0.17,0,0.43-0.03,0.78-0.09
				c0.36-0.06,0.62-0.09,0.79-0.09c0.62,0,1.1,0.15,1.45,0.44c0.34,0.3,0.52,0.71,0.52,1.23c0,0.58-0.26,1.05-0.78,1.4
				c-0.52,0.36-1.17,0.54-1.97,0.54c-0.4,0-0.83-0.08-1.28-0.22C285.97,147.22,285.61,147.05,285.34,146.84z M287.7,139.63
				c-0.39,0-0.7,0.14-0.95,0.41c-0.24,0.27-0.36,0.6-0.36,1c0,0.43,0.11,0.8,0.35,1.08c0.24,0.29,0.56,0.43,0.96,0.43
				c0.39,0,0.7-0.14,0.92-0.42c0.23-0.28,0.34-0.64,0.34-1.09c0-0.4-0.12-0.73-0.36-1C288.36,139.77,288.06,139.63,287.7,139.63z"/>
			<path fill-rule="evenodd" clip-rule="evenodd" d="M295.459,145.12v-3.94c0-0.47-0.119-0.84-0.35-1.11s-0.55-0.4-0.97-0.4
				c-0.271,0-0.541,0.08-0.811,0.24c-0.27,0.16-0.48,0.34-0.63,0.55v4.66h-1.11v-8.84h1.11v3.26c0.15-0.23,0.391-0.42,0.72-0.58
				c0.33-0.15,0.671-0.23,1.02-0.23c0.671,0,1.19,0.22,1.561,0.66c0.38,0.44,0.57,1.03,0.57,1.79v3.94H295.459z"/>
			<path fill-rule="evenodd" clip-rule="evenodd" d="M298.549,139.73h-0.729v-0.88h0.729v-1.31l1.11-0.43v1.74h1.72v0.88h-1.72v3.12
				c0,0.52,0.09,0.9,0.27,1.12c0.17,0.22,0.461,0.33,0.851,0.33c0.29,0,0.58-0.07,0.89-0.21l0.16,0.98
				c-0.46,0.11-0.96,0.17-1.52,0.17c-0.49,0-0.91-0.18-1.25-0.55c-0.34-0.37-0.511-0.84-0.511-1.4V139.73z"/>
			<path fill-rule="evenodd" clip-rule="evenodd" d="M309.91,137.27c-0.221-0.07-0.439-0.11-0.63-0.11
				c-0.341,0-0.62,0.13-0.841,0.38c-0.219,0.26-0.329,0.59-0.329,0.98c0,0.11,0.01,0.22,0.03,0.33h1.27v0.94h-1.27v5.33h-1.12v-5.33
				h-0.91v-0.94h0.91c0-0.8,0.2-1.43,0.6-1.89c0.39-0.45,0.91-0.68,1.56-0.68c0.32,0,0.67,0.06,1.041,0.17L309.91,137.27z"/>
			<path fill-rule="evenodd" clip-rule="evenodd" d="M314.5,144.4c-0.439,0.56-1.13,0.84-2.04,0.84c-0.5,0-0.92-0.18-1.28-0.53
				c-0.369-0.36-0.55-0.81-0.55-1.34c0-0.63,0.28-1.17,0.841-1.61c0.56-0.44,1.27-0.66,2.129-0.66c0.23,0,0.5,0.05,0.801,0.15
				c0-1.01-0.461-1.52-1.36-1.52c-0.699,0-1.229,0.19-1.61,0.56l-0.47-0.93c0.21-0.17,0.5-0.32,0.881-0.44
				c0.369-0.13,0.729-0.19,1.069-0.19c0.91,0,1.569,0.21,1.98,0.62c0.409,0.42,0.619,1.08,0.619,1.98v2.25
				c0,0.55,0.16,0.92,0.49,1.1v0.56c-0.45,0-0.79-0.07-1.021-0.2C314.759,144.91,314.599,144.7,314.5,144.4z M314.4,142.04
				c-0.36-0.07-0.601-0.11-0.74-0.11c-0.569,0-1.02,0.14-1.38,0.43s-0.53,0.63-0.53,1.02c0,0.66,0.38,0.98,1.15,0.98
				c0.56,0,1.06-0.26,1.5-0.8V142.04z"/>
			<path fill-rule="evenodd" clip-rule="evenodd" d="M321.99,139.36l-0.551,0.78c-0.109-0.11-0.31-0.22-0.599-0.32
				c-0.28-0.1-0.57-0.15-0.841-0.15c-0.609,0-1.09,0.21-1.439,0.64c-0.36,0.42-0.54,1-0.54,1.74c0,0.73,0.18,1.29,0.55,1.68
				c0.359,0.38,0.859,0.57,1.51,0.57c0.5,0,1-0.19,1.511-0.58l0.439,0.94c-0.601,0.39-1.341,0.58-2.22,0.58
				c-0.86,0-1.561-0.28-2.121-0.86c-0.56-0.57-0.84-1.35-0.84-2.33c0-1,0.291-1.8,0.871-2.41c0.579-0.6,1.37-0.91,2.379-0.91
				c0.33,0,0.681,0.07,1.061,0.21C321.54,139.07,321.82,139.22,321.99,139.36z"/>
			<path fill-rule="evenodd" clip-rule="evenodd" d="M323.599,139.73h-0.729v-0.88h0.729v-1.31l1.11-0.43v1.74h1.729v0.88h-1.729
				v3.12c0,0.52,0.09,0.9,0.27,1.12c0.181,0.22,0.46,0.33,0.861,0.33c0.279,0,0.579-0.07,0.88-0.21l0.17,0.98
				c-0.461,0.11-0.971,0.17-1.521,0.17c-0.5,0-0.92-0.18-1.26-0.55c-0.34-0.37-0.511-0.84-0.511-1.4V139.73z"/>
			<path fill-rule="evenodd" clip-rule="evenodd" d="M327.549,141.97c0-0.97,0.261-1.75,0.78-2.34c0.52-0.6,1.21-0.9,2.061-0.9
				c0.899,0,1.6,0.29,2.089,0.86c0.5,0.57,0.75,1.37,0.75,2.38c0,1.01-0.259,1.81-0.759,2.4c-0.511,0.58-1.2,0.87-2.08,0.87
				c-0.891,0-1.591-0.29-2.091-0.88C327.799,143.77,327.549,142.97,327.549,141.97z M328.72,141.97c0,1.58,0.56,2.36,1.67,2.36
				c0.52,0,0.93-0.21,1.22-0.63c0.3-0.42,0.45-1,0.45-1.73c0-1.55-0.561-2.33-1.67-2.33c-0.511,0-0.911,0.21-1.211,0.62
				C328.87,140.68,328.72,141.25,328.72,141.97z"/>
			<path fill-rule="evenodd" clip-rule="evenodd" d="M337.81,139.92c-0.24-0.17-0.49-0.25-0.73-0.25c-0.4,0-0.739,0.18-1.04,0.55
				c-0.29,0.36-0.44,0.8-0.44,1.31v3.59h-1.109v-6.27h1.109v1c0.41-0.74,1.011-1.12,1.811-1.12c0.2,0,0.49,0.04,0.86,0.11
				L337.81,139.92z"/>
		</g>
	</g>
	<g>
		<g>
			<path fill-rule="evenodd" clip-rule="evenodd" d="M430.14,337.12h-1.73v-8.58c1.1-0.04,1.811-0.061,2.11-0.061
				c1.2,0,2.149,0.37,2.85,1.1c0.7,0.721,1.05,1.69,1.05,2.9C434.419,335.579,432.99,337.12,430.14,337.12z M429.58,329.6v6.41
				c0.26,0.04,0.59,0.061,0.97,0.061c0.82,0,1.471-0.311,1.94-0.921c0.47-0.62,0.699-1.47,0.699-2.57
				c0-2.029-0.909-3.039-2.739-3.039C430.349,329.54,430.049,329.56,429.58,329.6z"/>
			<path fill-rule="evenodd" clip-rule="evenodd" d="M436.83,328.479c0.19,0,0.35,0.061,0.49,0.2c0.13,0.13,0.2,0.29,0.2,0.48
				c0,0.189-0.07,0.359-0.2,0.489c-0.141,0.141-0.3,0.2-0.49,0.2c-0.189,0-0.351-0.06-0.48-0.2c-0.14-0.13-0.209-0.3-0.209-0.489
				c0-0.19,0.069-0.351,0.199-0.48C436.479,328.54,436.64,328.479,436.83,328.479z M436.22,337.12v-5.33h-0.86v-0.94h1.97v6.271
				H436.22z"/>
			<path fill-rule="evenodd" clip-rule="evenodd" d="M438.689,336.75l0.4-1.051c0.62,0.4,1.12,0.601,1.5,0.601
				c0.681,0,1.03-0.28,1.03-0.859c0-0.421-0.34-0.771-1-1.07c-0.51-0.23-0.86-0.41-1.03-0.53c-0.18-0.12-0.34-0.261-0.47-0.41
				c-0.13-0.16-0.229-0.319-0.29-0.5c-0.06-0.17-0.101-0.359-0.101-0.56c0-0.51,0.19-0.91,0.57-1.2c0.37-0.29,0.86-0.44,1.471-0.44
				c0.45,0,1.029,0.15,1.729,0.44l-0.32,1.029c-0.439-0.35-0.89-0.529-1.33-0.529c-0.27,0-0.489,0.06-0.67,0.19
				c-0.18,0.119-0.27,0.279-0.27,0.469c0,0.4,0.22,0.711,0.68,0.921l0.801,0.36c0.489,0.219,0.839,0.479,1.06,0.76
				c0.229,0.29,0.34,0.64,0.34,1.07c0,0.569-0.2,1.009-0.59,1.319c-0.4,0.319-0.94,0.48-1.64,0.48
				C439.9,337.24,439.27,337.079,438.689,336.75z"/>
			<path fill-rule="evenodd" clip-rule="evenodd" d="M444.36,331.729h-0.73v-0.88h0.73v-1.31l1.11-0.43v1.739h1.729v0.88h-1.729
				v3.12c0,0.521,0.09,0.9,0.27,1.12c0.18,0.221,0.46,0.33,0.859,0.33c0.28,0,0.58-0.07,0.88-0.21l0.171,0.98
				c-0.461,0.109-0.971,0.17-1.521,0.17c-0.5,0-0.92-0.181-1.26-0.55c-0.34-0.37-0.51-0.841-0.51-1.4V331.729z"/>
			<path fill-rule="evenodd" clip-rule="evenodd" d="M452.259,336.399c-0.439,0.561-1.119,0.841-2.039,0.841
				c-0.491,0-0.921-0.181-1.281-0.53c-0.359-0.36-0.539-0.811-0.539-1.34c0-0.63,0.27-1.171,0.829-1.61
				c0.561-0.439,1.271-0.66,2.131-0.66c0.239,0,0.5,0.05,0.8,0.15c0-1.01-0.45-1.521-1.36-1.521c-0.7,0-1.229,0.19-1.61,0.561
				l-0.469-0.93c0.219-0.17,0.509-0.32,0.879-0.44c0.371-0.13,0.73-0.19,1.07-0.19c0.91,0,1.57,0.211,1.98,0.62
				c0.42,0.42,0.62,1.08,0.62,1.979v2.25c0,0.551,0.169,0.921,0.489,1.101v0.561c-0.449,0-0.789-0.07-1.01-0.2
				C452.52,336.91,452.36,336.699,452.259,336.399z M452.16,334.04c-0.35-0.07-0.6-0.11-0.74-0.11c-0.56,0-1.02,0.141-1.38,0.431
				c-0.351,0.289-0.53,0.63-0.53,1.02c0,0.66,0.381,0.98,1.15,0.98c0.569,0,1.061-0.261,1.5-0.801V334.04z"/>
			<path fill-rule="evenodd" clip-rule="evenodd" d="M458.89,337.12v-3.65c0-0.66-0.11-1.13-0.311-1.399
				c-0.2-0.271-0.53-0.4-1.01-0.4c-0.25,0-0.521,0.08-0.79,0.229c-0.28,0.15-0.49,0.341-0.64,0.561v4.66h-1.12v-6.271h0.77
				l0.351,0.811c0.359-0.62,0.959-0.931,1.799-0.931c1.371,0,2.061,0.841,2.061,2.511v3.88H458.89z"/>
			<path fill-rule="evenodd" clip-rule="evenodd" d="M466.31,331.36l-0.551,0.779c-0.109-0.11-0.31-0.22-0.6-0.319
				c-0.28-0.101-0.57-0.15-0.84-0.15c-0.61,0-1.091,0.21-1.44,0.64c-0.359,0.42-0.54,1-0.54,1.74c0,0.729,0.181,1.29,0.551,1.68
				c0.359,0.381,0.859,0.57,1.51,0.57c0.5,0,1-0.189,1.51-0.58l0.439,0.94c-0.6,0.39-1.34,0.58-2.22,0.58
				c-0.859,0-1.56-0.28-2.12-0.86c-0.56-0.57-0.84-1.351-0.84-2.33c0-1,0.29-1.8,0.87-2.41c0.58-0.6,1.37-0.91,2.38-0.91
				c0.33,0,0.68,0.07,1.06,0.211C465.86,331.07,466.14,331.22,466.31,331.36z"/>
			<path fill-rule="evenodd" clip-rule="evenodd" d="M472.81,334.1h-4.53c0,0.729,0.199,1.29,0.61,1.69
				c0.35,0.34,0.81,0.51,1.369,0.51c0.631,0,1.17-0.18,1.59-0.55l0.471,0.8c-0.17,0.17-0.43,0.32-0.79,0.45
				c-0.45,0.16-0.94,0.24-1.49,0.24c-0.79,0-1.46-0.271-2.01-0.8c-0.61-0.591-0.92-1.381-0.92-2.381c0-1.03,0.319-1.86,0.95-2.489
				c0.56-0.561,1.22-0.841,1.989-0.841c0.9,0,1.601,0.25,2.11,0.761c0.49,0.479,0.73,1.13,0.73,1.93
				C472.89,333.66,472.87,333.89,472.81,334.1z M470.11,331.67c-0.5,0-0.921,0.159-1.25,0.479c-0.32,0.311-0.5,0.68-0.55,1.141
				h3.479c0-0.45-0.14-0.83-0.42-1.13C471.06,331.829,470.64,331.67,470.11,331.67z"/>
			<path fill-rule="evenodd" clip-rule="evenodd" d="M481.07,329.27c-0.221-0.07-0.43-0.109-0.631-0.109
				c-0.34,0-0.619,0.13-0.84,0.38c-0.22,0.26-0.329,0.59-0.329,0.979c0,0.11,0.01,0.221,0.029,0.33h1.28v0.94h-1.28v5.33h-1.11
				v-5.33h-0.919v-0.94h0.919c0-0.8,0.19-1.43,0.591-1.89c0.39-0.45,0.909-0.681,1.56-0.681c0.33,0,0.67,0.061,1.04,0.17
				L481.07,329.27z"/>
			<path fill-rule="evenodd" clip-rule="evenodd" d="M485.53,331.92c-0.24-0.17-0.49-0.25-0.73-0.25c-0.399,0-0.739,0.18-1.04,0.55
				c-0.289,0.359-0.439,0.8-0.439,1.31v3.591h-1.11v-6.271h1.11v1c0.409-0.739,1.01-1.12,1.81-1.12c0.2,0,0.49,0.04,0.86,0.11
				L485.53,331.92z"/>
			<path fill-rule="evenodd" clip-rule="evenodd" d="M486.37,333.97c0-0.97,0.26-1.75,0.78-2.34c0.529-0.601,1.21-0.9,2.06-0.9
				c0.9,0,1.601,0.29,2.101,0.86c0.489,0.57,0.739,1.37,0.739,2.38s-0.25,1.81-0.76,2.4c-0.51,0.579-1.2,0.87-2.08,0.87
				c-0.89,0-1.59-0.291-2.09-0.88C486.62,335.77,486.37,334.97,486.37,333.97z M487.54,333.97c0,1.58,0.56,2.359,1.67,2.359
				c0.52,0,0.931-0.209,1.229-0.63c0.29-0.42,0.44-1,0.44-1.729c0-1.55-0.56-2.33-1.67-2.33c-0.5,0-0.91,0.21-1.21,0.62
				C487.7,332.68,487.54,333.25,487.54,333.97z"/>
			<path fill-rule="evenodd" clip-rule="evenodd" d="M500.49,337.12v-3.971c0-0.989-0.43-1.479-1.29-1.479
				c-0.271,0-0.521,0.08-0.75,0.25c-0.24,0.17-0.4,0.35-0.479,0.56v4.641h-1.121v-4.45c0-0.31-0.109-0.56-0.34-0.729
				c-0.239-0.181-0.539-0.271-0.93-0.271c-0.22,0-0.46,0.09-0.71,0.26s-0.431,0.36-0.53,0.57v4.62h-1.119v-6.271h0.729l0.37,0.729
				c0.43-0.569,0.96-0.85,1.609-0.85c0.9,0,1.53,0.28,1.891,0.841c0.119-0.241,0.35-0.44,0.689-0.601s0.69-0.24,1.051-0.24
				c0.649,0,1.149,0.2,1.51,0.58c0.35,0.381,0.529,0.92,0.529,1.62v4.19H500.49z"/>
			<path fill-rule="evenodd" clip-rule="evenodd" d="M506.5,336.729l0.43-1.08c0.221,0.16,0.49,0.3,0.811,0.41
				c0.33,0.101,0.62,0.16,0.88,0.16c0.46,0,0.819-0.13,1.101-0.38c0.279-0.25,0.42-0.57,0.42-0.95c0-0.29-0.08-0.561-0.23-0.811
				c-0.16-0.25-0.55-0.52-1.17-0.81l-0.69-0.32c-0.579-0.279-0.989-0.6-1.229-0.979c-0.23-0.37-0.341-0.82-0.341-1.35
				c0-0.641,0.221-1.171,0.681-1.591c0.45-0.419,1.029-0.63,1.74-0.63c0.949,0,1.609,0.15,1.979,0.461l-0.34,1.02
				c-0.16-0.12-0.399-0.23-0.72-0.33c-0.32-0.109-0.62-0.16-0.891-0.16c-0.399,0-0.709,0.11-0.939,0.34
				c-0.23,0.23-0.34,0.521-0.34,0.87c0,0.221,0.039,0.42,0.12,0.6c0.079,0.181,0.2,0.33,0.34,0.45
				c0.149,0.12,0.45,0.291,0.899,0.511l0.711,0.34c0.579,0.27,0.989,0.6,1.229,0.99c0.239,0.38,0.35,0.87,0.35,1.47
				c0,0.64-0.26,1.189-0.77,1.64c-0.521,0.45-1.21,0.67-2.08,0.67C507.689,337.27,507.04,337.09,506.5,336.729z"/>
			<path fill-rule="evenodd" clip-rule="evenodd" d="M514.89,329.31c0,1.04-0.521,1.881-1.551,2.54l-0.4-0.529l0.44-0.371
				c0.22-0.18,0.33-0.409,0.33-0.67c0-0.159-0.1-0.35-0.29-0.56s-0.29-0.41-0.29-0.58c0-0.58,0.29-0.86,0.85-0.86
				C514.589,328.279,514.89,328.62,514.89,329.31z"/>
		</g>
	</g>
	<g>
		<g>
			<path fill-rule="evenodd" clip-rule="evenodd" d="M30.22,338.44c-1.24,0-2.24-0.25-3.02-0.75s-1.17-1.2-1.17-2.111
				c0-0.899,0.33-1.569,0.98-2.02c0.64-0.46,1.78-0.68,3.39-0.68c1.39,0,2.49,0.24,3.29,0.71c0.8,0.47,1.19,1.16,1.19,2.07
				s-0.32,1.6-0.96,2.069C33.27,338.199,32.04,338.44,30.22,338.44z M30.319,337.27c2.38,0,3.57-0.51,3.57-1.529
				c0-0.58-0.27-1.011-0.79-1.28c-0.53-0.27-1.45-0.41-2.77-0.41c-0.91,0-1.58,0.05-2.01,0.16c-0.419,0.1-0.74,0.27-0.959,0.51
				c-0.22,0.229-0.33,0.53-0.33,0.891C27.03,336.71,28.13,337.27,30.319,337.27z"/>
			<path fill-rule="evenodd" clip-rule="evenodd" d="M33.12,331.72c0-0.24,0.09-0.44,0.26-0.62c0.17-0.17,0.38-0.25,0.62-0.25
				c0.24,0,0.45,0.08,0.62,0.25c0.18,0.18,0.26,0.38,0.26,0.62c0,0.25-0.08,0.45-0.26,0.63c-0.17,0.17-0.38,0.25-0.62,0.25
				c-0.24,0-0.45-0.08-0.62-0.25C33.209,332.17,33.12,331.97,33.12,331.72z"/>
			<path fill-rule="evenodd" clip-rule="evenodd" d="M30.22,330.29c-1.24,0-2.24-0.25-3.02-0.75s-1.17-1.2-1.17-2.1
				c0-0.9,0.33-1.58,0.98-2.03c0.64-0.45,1.78-0.681,3.39-0.681c1.39,0,2.49,0.24,3.29,0.711c0.8,0.479,1.19,1.17,1.19,2.079
				c0,0.91-0.32,1.601-0.96,2.07C33.27,330.06,32.04,330.29,30.22,330.29z M30.319,329.12c2.38,0,3.57-0.51,3.57-1.521
				c0-0.58-0.27-1.01-0.79-1.279c-0.53-0.28-1.45-0.41-2.77-0.41c-0.91,0-1.58,0.05-2.01,0.149c-0.419,0.11-0.74,0.28-0.959,0.511
				c-0.22,0.239-0.33,0.54-0.33,0.89C27.03,328.57,28.13,329.12,30.319,329.12z"/>
		</g>
	</g>
	<g>
		<g>
			<path fill-rule="evenodd" clip-rule="evenodd" d="M48.189,341.449c-1.24,0-2.24-0.25-3.02-0.75C44.39,340.199,44,339.5,44,338.59
				c0-0.899,0.33-1.57,0.98-2.02c0.65-0.46,1.78-0.681,3.39-0.681c1.39,0,2.49,0.24,3.29,0.71c0.8,0.471,1.2,1.16,1.2,2.07
				c0,0.909-0.33,1.6-0.97,2.07C51.24,341.21,50.01,341.449,48.189,341.449z M48.29,340.279c2.38,0,3.57-0.51,3.57-1.529
				c0-0.58-0.26-1.01-0.791-1.28c-0.53-0.271-1.45-0.41-2.77-0.41c-0.91,0-1.58,0.051-2.01,0.16c-0.42,0.101-0.74,0.271-0.96,0.51
				c-0.22,0.23-0.33,0.53-0.33,0.891C45,339.72,46.1,340.279,48.29,340.279z"/>
			<path fill-rule="evenodd" clip-rule="evenodd" d="M51.089,334.729c0-0.239,0.09-0.439,0.26-0.619c0.17-0.17,0.38-0.25,0.62-0.25
				s0.45,0.08,0.62,0.25c0.18,0.18,0.271,0.38,0.271,0.619c0,0.25-0.09,0.45-0.271,0.631c-0.17,0.169-0.38,0.25-0.62,0.25
				s-0.45-0.081-0.62-0.25C51.18,335.18,51.089,334.979,51.089,334.729z"/>
			<path fill-rule="evenodd" clip-rule="evenodd" d="M48.189,333.3c-1.24,0-2.24-0.25-3.02-0.75c-0.78-0.5-1.169-1.2-1.169-2.101
				c0-0.899,0.33-1.579,0.98-2.029c0.65-0.45,1.78-0.68,3.39-0.68c1.39,0,2.49,0.239,3.29,0.709c0.8,0.48,1.2,1.171,1.2,2.08
				c0,0.911-0.33,1.601-0.97,2.07C51.24,333.07,50.01,333.3,48.189,333.3z M48.29,332.13c2.38,0,3.57-0.51,3.57-1.52
				c0-0.581-0.26-1.011-0.791-1.281c-0.53-0.279-1.45-0.409-2.77-0.409c-0.91,0-1.58,0.05-2.01,0.15
				c-0.42,0.109-0.74,0.279-0.96,0.509C45.11,329.82,45,330.12,45,330.47C45,331.579,46.1,332.13,48.29,332.13z"/>
			<path fill-rule="evenodd" clip-rule="evenodd" d="M52.74,325.75h-6.58l1.09,1.74h-1.1c-0.22-0.44-0.52-0.911-0.91-1.411
				c-0.4-0.489-0.77-0.88-1.12-1.149v-0.351h8.62V325.75z"/>
		</g>
	</g>
	<polygon fill-rule="evenodd" clip-rule="evenodd" points="530.22,336.35 531.099,333.72 520.799,333.72 520.799,332.97 
		531.099,332.97 530.22,330.35 539.22,333.35 	"/>
	<g>
		<g>
			<polygon fill-rule="evenodd" clip-rule="evenodd" points="18.6,97.05 18.6,97.42 12.68,99.46 18.6,101.37 18.6,101.74 
				9.9,104.45 9.9,103.23 15.89,101.51 9.9,99.62 9.9,99.21 15.88,97.35 9.9,95.6 9.9,94.38 			"/>
			<path fill-rule="evenodd" clip-rule="evenodd" d="M15.45,88.78v4.52c0.74,0,1.3-0.2,1.69-0.6c0.35-0.36,0.52-0.82,0.52-1.38
				c0-0.63-0.19-1.16-0.56-1.59l0.81-0.47c0.17,0.17,0.32,0.44,0.44,0.79c0.17,0.45,0.25,0.94,0.25,1.49c0,0.79-0.27,1.46-0.81,2.01
				c-0.59,0.61-1.38,0.92-2.37,0.92c-1.04,0-1.87-0.31-2.49-0.94c-0.56-0.56-0.84-1.23-0.84-2c0-0.89,0.25-1.6,0.75-2.1
				c0.49-0.5,1.13-0.74,1.93-0.74C15.02,88.69,15.24,88.72,15.45,88.78z M13.03,91.48c0,0.49,0.16,0.91,0.48,1.25
				c0.3,0.32,0.68,0.5,1.13,0.54V89.8c-0.45,0-0.82,0.14-1.12,0.42C13.189,90.53,13.03,90.95,13.03,91.48z"/>
			<path fill-rule="evenodd" clip-rule="evenodd" d="M9.83,86.37c0-0.19,0.07-0.36,0.2-0.49c0.14-0.14,0.3-0.2,0.49-0.2
				s0.35,0.06,0.49,0.2c0.13,0.13,0.2,0.3,0.2,0.49s-0.07,0.35-0.2,0.48c-0.14,0.14-0.3,0.2-0.49,0.2s-0.36-0.06-0.49-0.2
				C9.9,86.72,9.83,86.56,9.83,86.37z M18.48,86.98h-5.34v0.86h-0.93v-1.98h6.271V86.98z"/>
			<path fill-rule="evenodd" clip-rule="evenodd" d="M20.2,84.32l-0.89-0.6c0.43-0.65,0.65-1.25,0.65-1.79
				c0-0.51-0.09-0.91-0.26-1.2c-0.18-0.29-0.39-0.43-0.65-0.43c-0.51,0-0.76,0.36-0.76,1.1c0,0.12,0.03,0.35,0.09,0.68
				c0.06,0.33,0.09,0.58,0.09,0.77c0,0.89-0.33,1.33-1,1.33c-0.21,0-0.4-0.1-0.57-0.31c-0.16-0.21-0.29-0.47-0.36-0.78
				c-0.41,0.88-1.13,1.33-2.16,1.33c-0.65,0-1.2-0.23-1.64-0.69c-0.43-0.46-0.65-1.02-0.65-1.69c0-0.62,0.12-1.1,0.38-1.45
				l-0.67-0.56l0.69-0.72l0.5,0.67c0.37-0.29,0.86-0.43,1.45-0.43c0.64,0,1.17,0.19,1.6,0.59c0.43,0.39,0.67,0.91,0.74,1.55
				l0.09,0.92c0.01,0.11,0.05,0.26,0.12,0.44c0.08,0.18,0.17,0.28,0.29,0.28c0.16,0,0.24-0.19,0.24-0.58c0-0.17-0.03-0.43-0.09-0.78
				c-0.06-0.36-0.09-0.62-0.09-0.79c0-0.62,0.15-1.1,0.44-1.45c0.29-0.34,0.7-0.52,1.23-0.52c0.58,0,1.04,0.26,1.4,0.78
				c0.35,0.52,0.53,1.17,0.53,1.97c0,0.4-0.07,0.83-0.22,1.28C20.58,83.69,20.4,84.05,20.2,84.32z M12.98,81.96
				c0,0.39,0.14,0.7,0.41,0.95c0.28,0.24,0.61,0.36,1,0.36c0.44,0,0.8-0.11,1.09-0.35c0.28-0.24,0.43-0.56,0.43-0.96
				c0-0.39-0.14-0.7-0.42-0.92c-0.28-0.23-0.65-0.34-1.1-0.34c-0.39,0-0.72,0.12-1,0.36C13.12,81.3,12.98,81.6,12.98,81.96z"/>
			<path fill-rule="evenodd" clip-rule="evenodd" d="M18.48,74.2h-3.94c-0.47,0-0.84,0.12-1.11,0.35s-0.4,0.55-0.4,0.97
				c0,0.27,0.07,0.54,0.23,0.81c0.16,0.27,0.35,0.48,0.56,0.63h4.661v1.11H9.63v-1.11h3.27c-0.23-0.15-0.43-0.39-0.581-0.72
				c-0.15-0.33-0.23-0.67-0.23-1.02c0-0.67,0.22-1.19,0.65-1.56c0.44-0.38,1.04-0.57,1.8-0.57h3.94V74.2z"/>
			<path fill-rule="evenodd" clip-rule="evenodd" d="M13.08,71.11v0.73h-0.87v-0.73h-1.32L10.459,70h1.75v-1.72h0.87V70h3.12
				c0.53,0,0.9-0.09,1.13-0.27c0.22-0.17,0.33-0.46,0.33-0.85c0-0.29-0.07-0.58-0.22-0.89l0.98-0.16c0.12,0.46,0.18,0.96,0.18,1.52
				c0,0.49-0.19,0.91-0.56,1.25c-0.37,0.34-0.83,0.51-1.39,0.51H13.08z"/>
			<path fill-rule="evenodd" clip-rule="evenodd" d="M10.63,59.75c-0.08,0.22-0.12,0.44-0.12,0.63c0,0.34,0.13,0.62,0.39,0.84
				c0.26,0.22,0.58,0.33,0.98,0.33c0.1,0,0.209-0.01,0.33-0.03v-1.27h0.93v1.27h5.34v1.12h-5.34v0.91h-0.93v-0.91
				c-0.81,0-1.43-0.2-1.89-0.6C9.86,61.65,9.63,61.13,9.63,60.48c0-0.32,0.06-0.67,0.18-1.04L10.63,59.75z"/>
			<path fill-rule="evenodd" clip-rule="evenodd" d="M17.76,55.16c0.56,0.44,0.84,1.13,0.84,2.04c0,0.5-0.18,0.92-0.54,1.28
				c-0.36,0.37-0.8,0.55-1.33,0.55c-0.641,0-1.18-0.28-1.62-0.84c-0.44-0.56-0.66-1.27-0.66-2.13c0-0.23,0.06-0.5,0.16-0.8
				c-1.021,0-1.53,0.46-1.53,1.36c0,0.7,0.19,1.23,0.57,1.61l-0.94,0.47c-0.17-0.21-0.31-0.5-0.44-0.88
				c-0.12-0.37-0.18-0.73-0.18-1.07c0-0.91,0.2-1.57,0.62-1.98c0.41-0.41,1.07-0.62,1.97-0.62h2.25c0.55,0,0.92-0.16,1.1-0.49h0.56
				c0,0.45-0.06,0.79-0.189,1.02C18.27,54.9,18.06,55.06,17.76,55.16z M15.4,55.26c-0.081,0.36-0.12,0.6-0.12,0.74
				c0,0.57,0.15,1.02,0.43,1.38c0.291,0.36,0.64,0.53,1.03,0.53c0.65,0,0.98-0.38,0.98-1.15c0-0.56-0.27-1.06-0.8-1.5H15.4z"/>
			<path fill-rule="evenodd" clip-rule="evenodd" d="M12.709,47.67l0.791,0.55c-0.11,0.11-0.22,0.31-0.32,0.6
				c-0.1,0.28-0.15,0.57-0.15,0.84c0,0.61,0.21,1.09,0.63,1.44c0.42,0.36,1.01,0.54,1.74,0.54c0.74,0,1.3-0.18,1.68-0.55
				c0.39-0.36,0.58-0.86,0.58-1.51c0-0.5-0.19-1-0.58-1.51l0.94-0.44c0.38,0.6,0.58,1.34,0.58,2.22c0,0.86-0.29,1.56-0.86,2.12
				c-0.58,0.56-1.36,0.84-2.34,0.84c-1,0-1.8-0.29-2.4-0.87c-0.61-0.58-0.911-1.37-0.911-2.38c0-0.33,0.07-0.68,0.2-1.06
				C12.43,48.12,12.569,47.84,12.709,47.67z"/>
			<path fill-rule="evenodd" clip-rule="evenodd" d="M13.08,46.06v0.73h-0.87v-0.73h-1.32l-0.43-1.11h1.75v-1.73h0.87v1.73h3.12
				c0.53,0,0.9-0.09,1.13-0.27c0.22-0.18,0.33-0.46,0.33-0.86c0-0.28-0.07-0.58-0.22-0.88l0.98-0.17c0.12,0.46,0.18,0.97,0.18,1.52
				c0,0.5-0.19,0.92-0.56,1.26s-0.83,0.51-1.39,0.51H13.08z"/>
			<path fill-rule="evenodd" clip-rule="evenodd" d="M15.33,42.11c-0.97,0-1.75-0.26-2.35-0.78c-0.59-0.52-0.891-1.21-0.891-2.06
				c0-0.9,0.28-1.6,0.86-2.09c0.57-0.5,1.36-0.75,2.38-0.75c1.01,0,1.81,0.26,2.39,0.76c0.59,0.51,0.88,1.2,0.88,2.08
				c0,0.89-0.3,1.59-0.89,2.09C17.12,41.86,16.33,42.11,15.33,42.11z M15.33,40.94c1.57,0,2.36-0.56,2.36-1.67
				c0-0.52-0.209-0.93-0.63-1.22c-0.43-0.3-1-0.45-1.73-0.45c-1.56,0-2.33,0.56-2.33,1.67c0,0.51,0.2,0.91,0.62,1.21
				C14.03,40.79,14.6,40.94,15.33,40.94z"/>
			<path fill-rule="evenodd" clip-rule="evenodd" d="M13.28,31.85c-0.17,0.24-0.25,0.49-0.25,0.73c0,0.4,0.18,0.74,0.54,1.04
				c0.36,0.29,0.8,0.44,1.311,0.44h3.6v1.11h-6.271v-1.11h1c-0.75-0.41-1.12-1.01-1.12-1.81c0-0.2,0.03-0.49,0.1-0.86L13.28,31.85z"
				/>
		</g>
	</g>
	<polygon fill-rule="evenodd" clip-rule="evenodd" points="14.33,28.84 14.33,18.54 11.7,19.42 14.7,10.42 17.7,19.42 15.08,18.54 
		15.08,28.84 	"/>
	<g>
		<g>
			<path fill-rule="evenodd" clip-rule="evenodd" d="M9.36,317.47c0-1.24,0.25-2.24,0.75-3.021c0.5-0.779,1.2-1.159,2.11-1.159
				c0.89,0,1.57,0.32,2.02,0.97c0.45,0.65,0.68,1.78,0.68,3.4c0,1.39-0.24,2.479-0.71,3.28c-0.479,0.8-1.17,1.199-2.08,1.199
				c-0.91,0-1.6-0.319-2.07-0.97C9.589,320.529,9.36,319.29,9.36,317.47z M10.53,317.57c0,2.379,0.51,3.569,1.52,3.569
				c0.58,0,1.01-0.26,1.28-0.79c0.28-0.529,0.41-1.45,0.41-2.771c0-0.909-0.05-1.579-0.15-2c-0.109-0.43-0.28-0.75-0.51-0.969
				c-0.24-0.221-0.53-0.331-0.89-0.331C11.08,314.279,10.53,315.38,10.53,317.57z"/>
			<path fill-rule="evenodd" clip-rule="evenodd" d="M16.069,320.37c0.24,0,0.45,0.09,0.62,0.26c0.17,0.17,0.26,0.38,0.26,0.62
				c0,0.25-0.09,0.449-0.26,0.63c-0.17,0.17-0.38,0.26-0.62,0.26c-0.24,0-0.45-0.09-0.62-0.26c-0.17-0.181-0.26-0.39-0.26-0.63
				s0.09-0.45,0.26-0.62S15.83,320.37,16.069,320.37z"/>
			<path fill-rule="evenodd" clip-rule="evenodd" d="M17.5,317.47c0-1.24,0.25-2.24,0.75-3.021c0.5-0.779,1.2-1.159,2.11-1.159
				c0.9,0,1.57,0.32,2.02,0.97c0.45,0.65,0.68,1.78,0.68,3.4c0,1.39-0.24,2.479-0.71,3.28c-0.47,0.8-1.16,1.199-2.07,1.199
				c-0.91,0-1.6-0.319-2.07-0.97C17.74,320.529,17.5,319.29,17.5,317.47z M18.669,317.57c0,2.379,0.51,3.569,1.53,3.569
				c0.58,0,1.01-0.26,1.28-0.79c0.27-0.529,0.41-1.45,0.41-2.771c0-0.909-0.05-1.579-0.16-2c-0.11-0.43-0.28-0.75-0.51-0.969
				c-0.23-0.221-0.53-0.331-0.89-0.331C19.23,314.279,18.669,315.38,18.669,317.57z"/>
		</g>
	</g>
	<g>
		<g>
			<path fill-rule="evenodd" clip-rule="evenodd" d="M1.74,163v-6.58L0,157.51v-1.1c0.44-0.22,0.91-0.53,1.399-0.92
				c0.5-0.39,0.89-0.76,1.16-1.11h0.35V163H1.74z"/>
			<path fill-rule="evenodd" clip-rule="evenodd" d="M4.21,158.45c0-1.24,0.25-2.24,0.75-3.02c0.5-0.78,1.209-1.17,2.109-1.17
				c0.9,0,1.581,0.33,2.03,0.98c0.45,0.64,0.67,1.78,0.67,3.39c0,1.39-0.23,2.49-0.71,3.29c-0.47,0.8-1.16,1.19-2.07,1.19
				s-1.6-0.32-2.07-0.96C4.45,161.5,4.21,160.27,4.21,158.45z M5.39,158.55c0,2.38,0.5,3.57,1.52,3.57c0.58,0,1.01-0.27,1.28-0.79
				c0.27-0.53,0.41-1.45,0.41-2.77c0-0.91-0.05-1.58-0.16-2.01c-0.1-0.42-0.27-0.74-0.51-0.96c-0.23-0.22-0.53-0.33-0.89-0.33
				C5.94,155.26,5.39,156.36,5.39,158.55z"/>
			<path fill-rule="evenodd" clip-rule="evenodd" d="M10.51,158.45c0-1.24,0.25-2.24,0.75-3.02c0.5-0.78,1.2-1.17,2.1-1.17
				c0.9,0,1.58,0.33,2.03,0.98c0.45,0.65,0.68,1.78,0.68,3.39c0,1.39-0.24,2.49-0.709,3.29c-0.48,0.8-1.17,1.2-2.08,1.2
				c-0.91,0-1.6-0.33-2.07-0.97C10.74,161.5,10.51,160.27,10.51,158.45z M11.68,158.55c0,2.38,0.51,3.57,1.52,3.57
				c0.58,0,1.01-0.26,1.28-0.79c0.28-0.53,0.41-1.45,0.41-2.77c0-0.91-0.05-1.58-0.15-2.01c-0.11-0.42-0.28-0.74-0.51-0.96
				c-0.24-0.22-0.541-0.33-0.891-0.33C12.23,155.26,11.68,156.36,11.68,158.55z"/>
			<path fill-rule="evenodd" clip-rule="evenodd" d="M17.22,161.35c0.24,0,0.45,0.09,0.62,0.26c0.17,0.17,0.26,0.38,0.26,0.62
				c0,0.24-0.09,0.45-0.26,0.62c-0.17,0.18-0.38,0.27-0.62,0.27s-0.45-0.09-0.62-0.27c-0.17-0.17-0.26-0.38-0.26-0.62
				c0-0.24,0.09-0.45,0.26-0.62S16.98,161.35,17.22,161.35z"/>
			<path fill-rule="evenodd" clip-rule="evenodd" d="M18.65,158.45c0-1.24,0.25-2.24,0.75-3.02c0.5-0.78,1.2-1.17,2.11-1.17
				c0.9,0,1.57,0.33,2.02,0.98s0.68,1.78,0.68,3.39c0,1.39-0.24,2.49-0.709,3.29c-0.47,0.8-1.161,1.2-2.07,1.2
				c-0.91,0-1.6-0.33-2.07-0.97C18.89,161.5,18.65,160.27,18.65,158.45z M19.819,158.55c0,2.38,0.51,3.57,1.52,3.57
				c0.59,0,1.01-0.26,1.291-0.79c0.27-0.53,0.41-1.45,0.41-2.77c0-0.91-0.06-1.58-0.16-2.01c-0.11-0.42-0.28-0.74-0.51-0.96
				c-0.23-0.22-0.53-0.33-0.89-0.33C20.37,155.26,19.819,156.36,19.819,158.55z"/>
		</g>
	</g>
</g>
</svg>
