<?xml version="1.0" encoding="utf-8"?>
<!-- Generator: Adobe Illustrator 14.0.0, SVG Export Plug-In . SVG Version: 6.00 Build 43363)  -->
<!DOCTYPE svg PUBLIC "-//W3C//DTD SVG 1.0//EN" "http://www.w3.org/TR/2001/REC-SVG-20010904/DTD/svg10.dtd">
<svg version="1.0" xmlns="http://www.w3.org/2000/svg" xmlns:xlink="http://www.w3.org/1999/xlink" x="0px" y="0px"
	 width="56.699px" height="56.695px" viewBox="0 0 56.699 56.695" enable-background="new 0 0 56.699 56.695" xml:space="preserve">
<g id="Grids">
	<g>
		
			<line fill-rule="evenodd" clip-rule="evenodd" fill="none" stroke="#D4D4D4" stroke-width="0.27" x1="4.93" y1="0" x2="4.93" y2="56.69"/>
		
			<line fill-rule="evenodd" clip-rule="evenodd" fill="none" stroke="#D4D4D4" stroke-width="0.27" x1="9.619" y1="0" x2="9.619" y2="56.69"/>
		
			<line fill-rule="evenodd" clip-rule="evenodd" fill="none" stroke="#D4D4D4" stroke-width="0.27" x1="18.979" y1="0" x2="18.979" y2="56.69"/>
		
			<line fill-rule="evenodd" clip-rule="evenodd" fill="none" stroke="#D4D4D4" stroke-width="0.27" x1="23.669" y1="0" x2="23.669" y2="56.69"/>
		
			<line fill-rule="evenodd" clip-rule="evenodd" fill="none" stroke="#D4D4D4" stroke-width="0.27" x1="33.029" y1="0" x2="33.029" y2="56.69"/>
		
			<line fill-rule="evenodd" clip-rule="evenodd" fill="none" stroke="#D4D4D4" stroke-width="0.27" x1="37.71" y1="0" x2="37.71" y2="56.69"/>
		
			<line fill-rule="evenodd" clip-rule="evenodd" fill="none" stroke="#D4D4D4" stroke-width="0.27" x1="47.08" y1="0" x2="47.08" y2="56.69"/>
		
			<line fill-rule="evenodd" clip-rule="evenodd" fill="none" stroke="#D4D4D4" stroke-width="0.27" x1="51.76" y1="0" x2="51.76" y2="56.69"/>
		
			<line fill-rule="evenodd" clip-rule="evenodd" fill="none" stroke="#D4D4D4" stroke-width="0.27" x1="56.689" y1="4.93" x2="0" y2="4.93"/>
		
			<line fill-rule="evenodd" clip-rule="evenodd" fill="none" stroke="#D4D4D4" stroke-width="0.27" x1="56.689" y1="9.62" x2="0" y2="9.62"/>
		
			<line fill-rule="evenodd" clip-rule="evenodd" fill="none" stroke="#D4D4D4" stroke-width="0.27" x1="56.689" y1="18.98" x2="0" y2="18.98"/>
		
			<line fill-rule="evenodd" clip-rule="evenodd" fill="none" stroke="#D4D4D4" stroke-width="0.27" x1="56.689" y1="23.66" x2="0" y2="23.66"/>
		
			<line fill-rule="evenodd" clip-rule="evenodd" fill="none" stroke="#D4D4D4" stroke-width="0.27" x1="56.689" y1="33.03" x2="0" y2="33.03"/>
		
			<line fill-rule="evenodd" clip-rule="evenodd" fill="none" stroke="#D4D4D4" stroke-width="0.27" x1="56.689" y1="37.71" x2="0" y2="37.71"/>
		
			<line fill-rule="evenodd" clip-rule="evenodd" fill="none" stroke="#D4D4D4" stroke-width="0.27" x1="56.689" y1="47.08" x2="0" y2="47.08"/>
		
			<line fill-rule="evenodd" clip-rule="evenodd" fill="none" stroke="#D4D4D4" stroke-width="0.27" x1="56.689" y1="51.76" x2="0" y2="51.76"/>
		
			<line fill-rule="evenodd" clip-rule="evenodd" fill="none" stroke="#8A8A8A" stroke-width="0.27" x1="14.3" y1="0" x2="14.3" y2="56.69"/>
		
			<line fill-rule="evenodd" clip-rule="evenodd" fill="none" stroke="#8A8A8A" stroke-width="0.27" x1="0.14" y1="0" x2="0.14" y2="56.69"/>
		
			<line fill-rule="evenodd" clip-rule="evenodd" fill="none" stroke="#8A8A8A" stroke-width="0.27" x1="28.35" y1="28.35" x2="28.35" y2="56.69"/>
		
			<line fill-rule="evenodd" clip-rule="evenodd" fill="none" stroke="#8A8A8A" stroke-width="0.27" x1="42.399" y1="0" x2="42.399" y2="56.69"/>
		
			<line fill-rule="evenodd" clip-rule="evenodd" fill="none" stroke="#8A8A8A" stroke-width="0.27" x1="56.56" y1="0" x2="56.56" y2="56.69"/>
		
			<line fill-rule="evenodd" clip-rule="evenodd" fill="none" stroke="#8A8A8A" stroke-width="0.27" x1="28.35" y1="28.35" x2="0" y2="28.35"/>
		
			<line fill-rule="evenodd" clip-rule="evenodd" fill="none" stroke="#8A8A8A" stroke-width="0.27" x1="56.689" y1="14.3" x2="0" y2="14.3"/>
		
			<line fill-rule="evenodd" clip-rule="evenodd" fill="none" stroke="#8A8A8A" stroke-width="0.27" x1="56.699" y1="0.14" x2="0" y2="0.14"/>
		
			<line fill-rule="evenodd" clip-rule="evenodd" fill="none" stroke="#8A8A8A" stroke-width="0.27" x1="56.689" y1="42.39" x2="0" y2="42.39"/>
		
			<line fill-rule="evenodd" clip-rule="evenodd" fill="none" stroke="#8A8A8A" stroke-width="0.27" x1="56.689" y1="56.561" x2="0" y2="56.561"/>
		<line fill-rule="evenodd" clip-rule="evenodd" fill="none" stroke="#A80000" x1="56.689" y1="28.35" x2="28.35" y2="28.35"/>
		<line fill-rule="evenodd" clip-rule="evenodd" fill="none" stroke="#12AB00" x1="28.35" y1="0" x2="28.35" y2="28.35"/>
	</g>
</g>
<g id="Text">
	<path fill-rule="evenodd" clip-rule="evenodd" d="M38.76,20.84l-0.341,1.12c0.36-0.42,0.681-0.71,0.95-0.87
		c0.28-0.17,0.57-0.25,0.86-0.25s0.53,0.109,0.74,0.34c0.199,0.23,0.31,0.53,0.31,0.9c0,0.71-0.29,1.439-0.88,2.18
		c-0.58,0.74-1.26,1.11-2.03,1.11c-0.17,0-0.31-0.01-0.439-0.051c-0.12-0.039-0.261-0.1-0.42-0.189l-0.35,1.26
		c-0.08,0.25-0.11,0.41-0.11,0.48s0.02,0.14,0.05,0.19c0.04,0.05,0.1,0.089,0.189,0.109c0.08,0.029,0.25,0.04,0.5,0.05l-0.039,0.18
		h-2.301l0.051-0.18c0.3-0.021,0.5-0.07,0.609-0.159c0.101-0.091,0.221-0.341,0.33-0.761l1.24-4.28c0.07-0.27,0.109-0.43,0.109-0.5
		c0-0.09-0.029-0.149-0.079-0.2c-0.05-0.05-0.12-0.079-0.23-0.079c-0.09,0-0.22,0.01-0.39,0.04v-0.19L38.76,20.84z M37.619,24.74
		c0.211,0.25,0.48,0.37,0.82,0.37c0.17,0,0.34-0.05,0.521-0.15c0.169-0.09,0.34-0.229,0.51-0.42c0.17-0.18,0.319-0.4,0.449-0.641
		c0.141-0.239,0.261-0.529,0.36-0.85c0.11-0.33,0.16-0.66,0.16-0.98c0-0.259-0.061-0.459-0.18-0.6c-0.12-0.14-0.25-0.21-0.41-0.21
		c-0.36,0-0.7,0.2-1.05,0.61c-0.34,0.399-0.59,0.87-0.75,1.41L37.619,24.74z"/>
	<path fill-rule="evenodd" clip-rule="evenodd" d="M39.629,18.5c0.23,0,0.431,0.08,0.591,0.24c0.159,0.159,0.24,0.35,0.24,0.579
		c0,0.23-0.081,0.431-0.24,0.591c-0.17,0.159-0.36,0.239-0.591,0.239c-0.229,0-0.43-0.08-0.59-0.239
		c-0.16-0.16-0.239-0.36-0.239-0.591c0-0.229,0.079-0.42,0.239-0.579C39.199,18.58,39.399,18.5,39.629,18.5z"/>
	<path fill-rule="evenodd" clip-rule="evenodd" d="M50.649,8.29l1.681-0.28l-0.701,2.38c0.57-0.979,1.091-1.659,1.551-2.04
		c0.27-0.229,0.48-0.34,0.65-0.34c0.1,0,0.189,0.03,0.25,0.101c0.06,0.06,0.089,0.149,0.089,0.27c0,0.22-0.05,0.42-0.159,0.62
		c-0.08,0.149-0.19,0.22-0.341,0.22c-0.069,0-0.14-0.029-0.189-0.07c-0.061-0.05-0.09-0.13-0.101-0.229
		c-0.01-0.06-0.02-0.101-0.049-0.12c-0.021-0.03-0.051-0.04-0.091-0.04c-0.06,0-0.11,0.01-0.159,0.04
		C53,8.84,52.869,8.97,52.699,9.18c-0.27,0.32-0.57,0.73-0.88,1.24c-0.14,0.22-0.25,0.46-0.35,0.729
		c-0.14,0.37-0.22,0.591-0.24,0.67l-0.149,0.61h-0.75l0.899-3.03c0.11-0.35,0.16-0.6,0.16-0.75c0-0.06-0.021-0.109-0.07-0.149
		c-0.069-0.051-0.159-0.08-0.26-0.08c-0.07,0-0.2,0.021-0.38,0.05L50.649,8.29z"/>
	<path fill-rule="evenodd" clip-rule="evenodd" d="M52.529,5.52c0.23,0,0.431,0.08,0.59,0.24c0.16,0.16,0.24,0.36,0.24,0.59
		c0,0.23-0.08,0.42-0.24,0.58c-0.17,0.16-0.359,0.24-0.59,0.24c-0.229,0-0.43-0.08-0.59-0.24s-0.24-0.35-0.24-0.58
		c0-0.229,0.08-0.43,0.24-0.59S52.3,5.52,52.529,5.52z"/>
	<path fill-rule="evenodd" clip-rule="evenodd" d="M4.59,55.17v0.2C3.939,55.28,3.41,55.02,3,54.58c-0.41-0.44-0.61-0.931-0.61-1.47
		c0-0.28,0.04-0.601,0.13-0.98c0.09-0.37,0.141-0.66,0.141-0.87c0-0.279-0.121-0.54-0.36-0.779c-0.23-0.25-0.561-0.4-0.98-0.45
		v-0.24c0.42-0.06,0.75-0.21,0.98-0.45c0.239-0.24,0.36-0.5,0.36-0.79c0-0.21-0.051-0.5-0.141-0.87
		c-0.09-0.369-0.13-0.699-0.13-0.98c0-0.529,0.2-1.02,0.61-1.459c0.41-0.44,0.939-0.7,1.59-0.791v0.2
		c-0.461,0.11-0.79,0.291-1,0.541c-0.221,0.25-0.32,0.52-0.32,0.819c0,0.23,0.04,0.53,0.13,0.91s0.131,0.7,0.131,0.96
		c0,0.4-0.141,0.78-0.431,1.15c-0.29,0.369-0.721,0.66-1.3,0.859c0.569,0.21,0.989,0.5,1.29,0.88c0.289,0.38,0.44,0.771,0.44,1.16
		c0,0.27-0.041,0.59-0.131,0.97c-0.09,0.37-0.13,0.681-0.13,0.911c0,0.289,0.1,0.569,0.32,0.81C3.8,54.87,4.129,55.05,4.59,55.17z"
		/>
	<path fill-rule="evenodd" clip-rule="evenodd" d="M11.05,47.48l-1.14,3.969L9.78,51.98c-0.011,0.05-0.011,0.1-0.011,0.13
		c0,0.069,0.02,0.12,0.05,0.17c0.04,0.03,0.07,0.05,0.12,0.05s0.12-0.03,0.2-0.09c0.149-0.12,0.36-0.351,0.61-0.71l0.199,0.14
		c-0.27,0.41-0.55,0.72-0.83,0.93c-0.289,0.22-0.55,0.32-0.789,0.32c-0.17,0-0.3-0.04-0.381-0.12c-0.09-0.09-0.13-0.21-0.13-0.37
		c0-0.189,0.05-0.439,0.13-0.76l0.12-0.439C8.56,51.899,8.09,52.37,7.66,52.63c-0.311,0.2-0.61,0.29-0.91,0.29
		c-0.28,0-0.53-0.12-0.73-0.351c-0.21-0.239-0.31-0.56-0.31-0.979c0-0.62,0.18-1.271,0.55-1.96c0.38-0.689,0.85-1.25,1.43-1.66
		c0.439-0.33,0.87-0.489,1.271-0.489c0.239,0,0.43,0.06,0.59,0.189c0.16,0.12,0.28,0.33,0.36,0.62l0.209-0.67L11.05,47.48z
		 M8.97,47.78c-0.25,0-0.521,0.119-0.801,0.35c-0.399,0.34-0.75,0.83-1.06,1.48C6.8,50.26,6.64,50.85,6.64,51.38
		c0,0.27,0.07,0.48,0.2,0.63c0.13,0.15,0.289,0.23,0.46,0.23c0.42,0,0.89-0.311,1.39-0.94c0.67-0.84,1-1.689,1-2.569
		c0-0.341-0.061-0.581-0.189-0.721C9.369,47.86,9.189,47.78,8.97,47.78z"/>
	<path fill-rule="evenodd" clip-rule="evenodd" d="M12.3,48.899h4.739v0.36H12.3V48.899z M12.3,50.33h4.739v0.36H12.3V50.33z"/>
	<path fill-rule="evenodd" clip-rule="evenodd" d="M21.879,46.819l-1.14,3.921h0.71l-0.16,0.55h-0.72l-0.46,1.6h-0.64l0.46-1.6
		h-2.15l0.181-0.62l3.579-3.851H21.879z M20.899,47.96l-2.56,2.78h1.76L20.899,47.96z"/>
	<path fill-rule="evenodd" clip-rule="evenodd" d="M22.739,51.99c0.13,0,0.24,0.05,0.32,0.13c0.09,0.09,0.13,0.199,0.13,0.32
		c0,0.12-0.04,0.229-0.13,0.31c-0.09,0.09-0.19,0.13-0.32,0.13c-0.12,0-0.22-0.04-0.31-0.13c-0.09-0.08-0.13-0.189-0.13-0.31
		c0-0.121,0.04-0.23,0.13-0.32C22.52,52.04,22.619,51.99,22.739,51.99z"/>
	<path fill-rule="evenodd" clip-rule="evenodd" d="M27.359,46.699c0.37,0,0.69,0.161,0.95,0.471c0.25,0.311,0.38,0.811,0.38,1.479
		c0,0.581-0.1,1.181-0.29,1.78c-0.189,0.601-0.45,1.131-0.8,1.57c-0.28,0.35-0.561,0.6-0.87,0.75c-0.17,0.09-0.38,0.14-0.61,0.14
		c-0.38,0-0.7-0.159-0.95-0.47c-0.259-0.32-0.39-0.81-0.39-1.49c0-0.67,0.131-1.35,0.39-2.03c0.301-0.789,0.69-1.39,1.161-1.8
		C26.629,46.83,26.979,46.699,27.359,46.699z M27.359,46.93c-0.17,0-0.34,0.061-0.51,0.2c-0.181,0.13-0.36,0.41-0.54,0.83
		c-0.19,0.42-0.37,0.97-0.54,1.63c-0.22,0.87-0.33,1.609-0.33,2.221c0,0.31,0.07,0.539,0.2,0.689c0.13,0.149,0.29,0.22,0.479,0.22
		c0.181,0,0.33-0.05,0.461-0.17c0.33-0.319,0.619-0.859,0.859-1.62c0.391-1.25,0.59-2.27,0.59-3.05c0-0.33-0.069-0.569-0.199-0.72
		C27.699,47,27.539,46.93,27.359,46.93z"/>
	<path fill-rule="evenodd" clip-rule="evenodd" d="M29.52,46.69v-0.16c0.49,0.069,0.891,0.26,1.2,0.59
		c0.3,0.329,0.46,0.699,0.46,1.1c0,0.21-0.04,0.46-0.1,0.74c-0.07,0.28-0.101,0.489-0.101,0.65c0,0.209,0.08,0.409,0.26,0.589
		c0.18,0.181,0.421,0.291,0.74,0.341v0.18c-0.319,0.04-0.561,0.15-0.74,0.33c-0.18,0.181-0.26,0.38-0.26,0.59
		c0,0.16,0.03,0.38,0.101,0.66c0.06,0.28,0.1,0.52,0.1,0.73c0,0.399-0.16,0.76-0.46,1.1c-0.31,0.33-0.71,0.53-1.2,0.59v-0.15
		c0.35-0.089,0.6-0.22,0.76-0.399c0.16-0.189,0.24-0.39,0.24-0.62c0-0.17-0.04-0.4-0.101-0.68c-0.069-0.29-0.1-0.53-0.1-0.721
		c0-0.3,0.11-0.589,0.32-0.869c0.22-0.28,0.55-0.49,0.979-0.641c-0.43-0.159-0.75-0.38-0.97-0.659c-0.22-0.29-0.33-0.581-0.33-0.87
		c0-0.2,0.03-0.44,0.1-0.73c0.061-0.28,0.101-0.51,0.101-0.681c0-0.219-0.08-0.43-0.24-0.609
		C30.119,46.899,29.869,46.77,29.52,46.69z"/>
</g>
<g id="Vectors">
</g>
<g id="Other">
	<path fill-rule="evenodd" clip-rule="evenodd" fill="#FFFFFF" stroke="#000000" d="M49.16,9.8c0,1.09-0.891,1.97-1.971,1.97
		c-1.09,0-1.97-0.88-1.97-1.97c0-1.08,0.88-1.96,1.97-1.96C48.27,7.84,49.16,8.72,49.16,9.8z"/>
	<path fill-rule="evenodd" clip-rule="evenodd" fill="#FFFFFF" stroke="#000000" d="M35.109,23.53c0,1.09-0.89,1.97-1.97,1.97
		c-1.09,0-1.971-0.88-1.971-1.97s0.881-1.97,1.971-1.97C34.22,21.561,35.109,22.44,35.109,23.53z"/>
</g>
</svg>
