<?xml version="1.0" encoding="utf-8"?>
<!-- Generator: Adobe Illustrator 14.0.0, SVG Export Plug-In . SVG Version: 6.00 Build 43363)  -->
<!DOCTYPE svg PUBLIC "-//W3C//DTD SVG 1.0//EN" "http://www.w3.org/TR/2001/REC-SVG-20010904/DTD/svg10.dtd">
<svg version="1.0" id="Layer_1" xmlns="http://www.w3.org/2000/svg" xmlns:xlink="http://www.w3.org/1999/xlink" x="0px" y="0px"
	 width="443.87px" height="265.891px" viewBox="0 0 443.87 265.891" enable-background="new 0 0 443.87 265.891"
	 xml:space="preserve">
<polygon fill="#E50000" points="10.08,191.19 84.36,206.26 158.57,221.62 232.75,237.13 306.87,252.93 232.6,237.87 158.39,222.5 
	84.2,207 "/>
<polygon fill="#E50000" points="49.89,173.87 124.13,183.46 198.34,193.34 272.53,203.37 346.68,213.7 272.43,204.11 
	198.22,194.229 124.03,184.2 "/>
<g>
	<polygon fill="#0DA300" points="265.81,165.66 201.1,186.96 136.3,207.97 71.45,228.84 6.52,249.43 71.22,228.13 136.02,207.12 
		200.87,186.25 	"/>
</g>
<g>
	<polygon fill="#0DA300" points="327.82,171.2 269.879,195.22 211.82,218.96 153.71,242.56 95.48,265.891 153.43,241.87 
		211.48,218.13 269.6,194.529 	"/>
</g>
<line fill-rule="evenodd" clip-rule="evenodd" fill="none" stroke="#000000" stroke-linejoin="round" stroke-dasharray="2,2" x1="219.97" y1="214.67" x2="219.83" y2="70.2"/>
<line fill-rule="evenodd" clip-rule="evenodd" fill="none" stroke="#000000" stroke-linejoin="round" stroke-dasharray="2,2" x1="150.33" y1="203.24" x2="147.94" y2="58.25"/>
<polygon fill="#E50000" points="30.96,183.649 105.27,195.09 179.5,207.12 253.67,219.45 327.75,232.36 253.43,220.93 
	179.21,208.899 105.03,196.57 "/>
<path fill-rule="evenodd" clip-rule="evenodd" d="M184.14,209.79c-0.55,0.01-1-0.44-1.01-0.99l-1.41-143.88l-2,0.02l2.93-7.03
	l3.07,6.97l-2,0.02l1.41,143.879C185.14,209.33,184.69,209.79,184.14,209.79z"/>
<path d="M0,0c6.94,13.53,14.44,26.77,23.52,39.22c2.21,3.03,4.52,6.01,6.96,8.92c0.94,1.13,1.9,2.25,2.87,3.35
	c0.36,0.4,0.71,0.8,1.07,1.2c0.27,0.3,0.54,0.59,0.81,0.89c1.12,1.23,0.33,0.37,0.26,0.28c2.97,3.17,6.1,6.3,9.33,9.1
	c7.2,6.23,15.1,11.18,24.09,13.85c4.06,1.21,8.36,1.96,12.94,2.13c3.18,0.11,6.32-0.07,9.32-0.42c-0.15,0.02,0.22-0.03,0.36-0.05
	c0.39-0.05,0.78-0.11,1.16-0.17c1.04-0.15,2.06-0.33,3.08-0.53c3.28-0.64,6.47-1.52,9.57-2.53c8.1-2.65,15.75-6.24,23.3-9.99
	c5.77-2.87,11.49-5.85,17.33-8.6c6.55-3.08,13.22-5.88,20.44-7.62c2.89-0.7,5.9-1.19,9.04-1.39c2.44-0.15,4.98-0.07,7.34,0.17
	c1.71,0.19,3.37,0.48,4.98,0.86c2.67,0.63,5.24,1.5,7.71,2.54c6.74,2.86,12.87,6.94,18.8,11.4c5.11,3.84,10.05,8.03,14.92,12.35
	c8.26,7.34,16.41,14.92,24.74,22.15c2.069,1.8,4.14,3.58,6.24,5.33c0.44,0.37,0.88,0.74,1.329,1.11
	c0.111,0.09,0.221,0.18,0.331,0.28c0.109,0.09,0.22,0.18,0.33,0.27c0.479,0.4,0.43,0.37,0.33,0.27
	c6.379,5.23,12.879,10.2,19.59,14.77c5.739,3.91,11.6,7.53,17.64,10.82c3.3,1.8,6.64,3.49,10.04,5.08
	c1.35,0.64,2.699,1.25,4.07,1.851c0.5,0.22,1,0.439,1.5,0.649c0.379,0.17,0.75,0.32,1.129,0.48c0.75,0.319,0.48,0.22,0.371,0.159
	c4.91,2.03,9.91,3.881,15.029,5.5c8.84,2.8,18,4.95,27.48,6.47c12.25,1.961,25.09,2.851,38.38,2.7c1.75-0.02,3.489-0.06,5.22-0.109
	c14.101-0.43,27.66-1.93,40.92-4.03c-17.49,3.3-35.5,5.61-54.59,5.72c-2.71,0.011-5.41-0.01-8.08-0.09
	c-3.82-0.11-7.59-0.311-11.31-0.6c-24.74-1.95-47.36-8.141-67.99-18.29c-9.57-4.71-18.74-10.22-27.57-16.4
	c-7.84-5.48-15.399-11.47-22.82-17.79c-3.529-3-7.029-6.06-10.52-9.15c-1.73-1.54-3.46-3.09-5.189-4.63
	c-0.43-0.39-0.86-0.77-1.3-1.16c-42.851-38.28-1.57-1.43-1.291-1.16c-5.319-4.75-10.63-9.52-16.089-13.97
	c-1.54-1.26-3.1-2.49-4.66-3.69c-0.4-0.31-0.8-0.61-1.19-0.91c-0.1-0.07-0.2-0.15-0.3-0.22c-0.1-0.08-0.2-0.15-0.3-0.23
	c-0.5-0.37-0.38-0.28-0.28-0.21c-4.01-2.94-8.08-5.73-12.42-8.03c-6.14-3.25-12.74-5.56-20.54-5.47c-1.78,0.03-3.51,0.16-5.18,0.39
	c-4.99,0.67-9.65,2.06-14.15,3.71c-1.39,0.52-2.78,1.06-4.15,1.62c-0.31,0.13-0.61,0.25-0.91,0.38c-0.08,0.03-0.16,0.06-0.23,0.09
	c-0.08,0.04-0.16,0.07-0.23,0.1c-0.4,0.17-0.29,0.12-0.21,0.09c-9.57,4.14-18.79,9-28.29,13.29c-6.52,2.94-13.17,5.62-20.19,7.55
	c-6.31,1.74-13,2.89-20.24,2.69c-1.1-0.03-2.18-0.09-3.25-0.18c-1.14-0.09-2.27-0.22-3.38-0.38c-3.19-0.47-6.25-1.2-9.2-2.17
	c-9.78-3.2-18.3-9-26.01-16.35c-2.62-2.49-5.1-5.14-7.45-7.8c-4.75-5.36-8.97-11.01-12.87-16.8C13.18,26.34,6.34,13.29,0,0z"/>
<g>
	<polygon fill="#0DA300" points="310.709,162.63 248.129,186.25 185.33,209.31 122.44,232.09 59.34,254.31 121.93,230.68 
		184.72,207.62 247.61,184.84 	"/>
</g>
<path fill-rule="evenodd" clip-rule="evenodd" d="M180.5,208.7c0-1.98,1.61-3.601,3.59-3.601c1.99,0,3.6,1.62,3.6,3.601
	c0,1.99-1.61,3.6-3.6,3.6C182.11,212.3,180.5,210.69,180.5,208.7z"/>
<path fill-rule="evenodd" clip-rule="evenodd" d="M177.72,50.15c0-2.81,2.29-5.1,5.1-5.1s5.1,2.29,5.1,5.1s-2.29,5.1-5.1,5.1
	S177.72,52.96,177.72,50.15z"/>
<g>
	<path d="M182.396,219.104l-0.748,2.566h-1.207l2.754-8.503h1.464l2.759,8.503h-1.211l-0.755-2.566H182.396z M184.575,216.118
		c-0.209-0.729-0.417-1.429-0.619-2.244h-0.068c-0.195,0.808-0.4,1.531-0.603,2.241l-0.643,2.231h2.57L184.575,216.118z"/>
</g>
<g>
	<path d="M183.195,38.353c1.357,0.155,2.026,0.847,2.026,2.167c0,1.786-1.359,2.319-3.074,2.319h-2.215v-8.503h2.006
		c1.986,0,2.916,0.572,2.916,2.072c0,1.194-0.578,1.784-1.659,1.909V38.353z M181.05,38.002h1.009c1.283,0,1.685-0.561,1.685-1.473
		c0-0.962-0.543-1.423-1.711-1.423h-0.983V38.002z M181.05,42.07h0.985c1.154,0,2.046-0.367,2.046-1.614
		c0-1.045-0.63-1.684-1.977-1.684h-1.054V42.07z"/>
</g>
<path fill-rule="evenodd" clip-rule="evenodd" d="M147.57,203.38c0-1.489,1.21-2.7,2.7-2.7c1.49,0,2.7,1.211,2.7,2.7
	c0,1.48-1.21,2.69-2.7,2.69C148.78,206.07,147.57,204.86,147.57,203.38z"/>
<path fill-rule="evenodd" clip-rule="evenodd" d="M217.32,214.93c0-1.489,1.21-2.7,2.7-2.7c1.49,0,2.699,1.211,2.699,2.7
	c0,1.48-1.209,2.69-2.699,2.69C218.53,217.62,217.32,216.41,217.32,214.93z"/>
<path fill-rule="evenodd" clip-rule="evenodd" d="M216.05,70.32c0-2.31,1.88-4.19,4.19-4.19c2.32,0,4.2,1.88,4.2,4.19
	c0,2.32-1.88,4.2-4.2,4.2C217.93,74.52,216.05,72.64,216.05,70.32z"/>
<path fill-rule="evenodd" clip-rule="evenodd" d="M143.45,58.17c0-2.31,1.88-4.19,4.19-4.19c2.32,0,4.2,1.88,4.2,4.19
	c0,2.32-1.88,4.2-4.2,4.2C145.33,62.37,143.45,60.49,143.45,58.17z"/>
<g>
	<path d="M147.406,212.693l-0.748,2.566h-1.207l2.754-8.503h1.464l2.759,8.503h-1.211l-0.755-2.566H147.406z M149.586,209.708
		c-0.209-0.729-0.417-1.429-0.62-2.244h-0.068c-0.195,0.808-0.4,1.531-0.603,2.241l-0.643,2.231h2.57L149.586,209.708z"/>
	<path d="M155.694,211.828v0.883h-2.478v-0.883H155.694z"/>
</g>
<g>
	<path d="M218.246,225.023l-0.748,2.566h-1.207l2.754-8.503h1.464l2.759,8.503h-1.211l-0.755-2.566H218.246z M220.425,222.038
		c-0.209-0.729-0.417-1.429-0.619-2.244h-0.068c-0.195,0.808-0.4,1.531-0.603,2.241l-0.643,2.231h2.569L220.425,222.038z"/>
	<path d="M227.389,227.173h-0.719v-2.381h-2.261v-0.687h2.261v-2.238h0.719v2.238h2.257v0.687h-2.257V227.173z"/>
</g>
<g>
	<path d="M147.495,46.453c1.357,0.155,2.026,0.847,2.026,2.167c0,1.786-1.359,2.319-3.074,2.319h-2.215v-8.503h2.006
		c1.986,0,2.915,0.572,2.915,2.072c0,1.194-0.577,1.784-1.658,1.909V46.453z M145.35,46.102h1.009c1.283,0,1.685-0.561,1.685-1.473
		c0-0.962-0.543-1.423-1.711-1.423h-0.983V46.102z M145.35,50.17h0.985c1.154,0,2.046-0.367,2.046-1.614
		c0-1.045-0.63-1.684-1.977-1.684h-1.054V50.17z"/>
	<path d="M153.024,47.508v0.882h-2.478v-0.882H153.024z"/>
</g>
<g>
	<path d="M222.565,59.654c1.357,0.155,2.025,0.847,2.025,2.167c0,1.786-1.358,2.319-3.074,2.319h-2.215v-8.503h2.006
		c1.986,0,2.915,0.572,2.915,2.072c0,1.194-0.577,1.784-1.658,1.909V59.654z M220.419,59.303h1.009c1.283,0,1.685-0.561,1.685-1.473
		c0-0.962-0.544-1.423-1.711-1.423h-0.983V59.303z M220.419,63.371h0.985c1.154,0,2.046-0.367,2.046-1.614
		c0-1.045-0.63-1.684-1.977-1.684h-1.054V63.371z"/>
	<path d="M228.949,63.724h-0.719v-2.381h-2.261v-0.687h2.261v-2.238h0.719v2.238h2.257v0.687h-2.257V63.724z"/>
</g>
<g>
	<path d="M16.227,90.336c0.695-0.165,1.811-0.274,2.909-0.274c1.592,0,2.616,0.274,3.366,0.896c0.641,0.476,1.043,1.208,1.043,2.177
		c0,1.208-0.805,2.25-2.085,2.708v0.055c1.171,0.274,2.543,1.244,2.543,3.074c0,1.061-0.421,1.884-1.061,2.47
		c-0.842,0.787-2.232,1.153-4.245,1.153c-1.098,0-1.939-0.073-2.47-0.146V90.336z M17.818,95.385h1.445
		c1.665,0,2.653-0.896,2.653-2.085c0-1.427-1.079-2.013-2.689-2.013c-0.731,0-1.152,0.055-1.409,0.11V95.385z M17.818,101.276
		c0.33,0.055,0.769,0.073,1.336,0.073c1.646,0,3.165-0.604,3.165-2.396c0-1.665-1.445-2.378-3.184-2.378h-1.317V101.276z"/>
	<path d="M25.799,99.883l0.631,0.952c0.174,0.247,0.312,0.467,0.458,0.714h0.018c0.146-0.256,0.293-0.485,0.449-0.723l0.613-0.943
		h0.879l-1.51,2.142l1.547,2.289h-0.906l-0.659-0.998c-0.174-0.256-0.32-0.503-0.476-0.769h-0.018
		c-0.146,0.266-0.293,0.503-0.467,0.769l-0.641,0.998h-0.888l1.575-2.261l-1.501-2.17H25.799z"/>
	<path d="M33.603,96.318v-1.098h9.44v1.098H33.603z M33.603,99.904v-1.098h9.44v1.098H33.603z"/>
	<path d="M51.042,98.605l-1.281,3.878h-1.646l4.208-12.331h1.902l4.208,12.331h-1.701l-1.317-3.878H51.042z M55.103,97.361
		l-1.226-3.549c-0.274-0.805-0.457-1.537-0.64-2.25H53.2c-0.183,0.713-0.366,1.482-0.622,2.232l-1.208,3.568H55.103z"/>
	<path d="M59.9,99.883l0.632,0.952c0.174,0.247,0.312,0.467,0.458,0.714h0.018c0.146-0.256,0.293-0.485,0.449-0.723l0.613-0.943
		h0.879l-1.511,2.142l1.547,2.289h-0.906l-0.659-0.998c-0.174-0.256-0.32-0.503-0.476-0.769h-0.019
		c-0.146,0.266-0.293,0.503-0.467,0.769l-0.641,0.998H58.93l1.575-2.261l-1.501-2.17H59.9z"/>
	<path d="M16.227,114.336c0.695-0.165,1.811-0.274,2.909-0.274c1.592,0,2.616,0.274,3.366,0.896
		c0.641,0.476,1.043,1.208,1.043,2.177c0,1.208-0.805,2.25-2.085,2.708v0.055c1.171,0.274,2.543,1.244,2.543,3.074
		c0,1.061-0.421,1.884-1.061,2.47c-0.842,0.787-2.232,1.153-4.245,1.153c-1.098,0-1.939-0.073-2.47-0.146V114.336z M17.818,119.385
		h1.445c1.665,0,2.653-0.896,2.653-2.085c0-1.427-1.079-2.013-2.689-2.013c-0.731,0-1.152,0.055-1.409,0.11V119.385z
		 M17.818,125.276c0.33,0.055,0.769,0.073,1.336,0.073c1.646,0,3.165-0.604,3.165-2.396c0-1.665-1.445-2.378-3.184-2.378h-1.317
		V125.276z"/>
	<path d="M25.716,123.883l0.961,2.618c0.11,0.293,0.22,0.641,0.293,0.907h0.018c0.083-0.266,0.174-0.604,0.284-0.925l0.879-2.6
		h0.852l-1.208,3.159c-0.577,1.52-0.97,2.289-1.52,2.774c-0.403,0.339-0.788,0.476-0.989,0.513l-0.202-0.668
		c0.202-0.064,0.467-0.192,0.705-0.394c0.22-0.174,0.485-0.485,0.677-0.897c0.037-0.082,0.064-0.146,0.064-0.192
		c0-0.046-0.019-0.11-0.064-0.211l-1.629-4.083H25.716z"/>
	<path d="M33.676,120.318v-1.098h9.44v1.098H33.676z M33.676,123.904v-1.098h9.44v1.098H33.676z"/>
	<path d="M51.115,122.605l-1.281,3.878h-1.646l4.208-12.331h1.903l4.208,12.331h-1.702l-1.317-3.878H51.115z M55.176,121.361
		l-1.226-3.549c-0.274-0.805-0.457-1.537-0.64-2.25h-0.037c-0.183,0.713-0.366,1.482-0.622,2.232l-1.208,3.568H55.176z"/>
	<path d="M59.891,123.883l0.961,2.618c0.11,0.293,0.22,0.641,0.293,0.907h0.019c0.082-0.266,0.174-0.604,0.284-0.925l0.879-2.6
		h0.852l-1.208,3.159c-0.577,1.52-0.971,2.289-1.52,2.774c-0.403,0.339-0.787,0.476-0.989,0.513l-0.201-0.668
		c0.201-0.064,0.467-0.192,0.705-0.394c0.22-0.174,0.485-0.485,0.678-0.897c0.037-0.082,0.064-0.146,0.064-0.192
		c0-0.046-0.018-0.11-0.064-0.211l-1.63-4.083H59.891z"/>
	<path d="M16.227,138.336c0.695-0.165,1.811-0.274,2.909-0.274c1.592,0,2.616,0.274,3.366,0.896
		c0.641,0.476,1.043,1.207,1.043,2.177c0,1.208-0.805,2.251-2.085,2.708v0.055c1.171,0.274,2.543,1.244,2.543,3.074
		c0,1.061-0.421,1.884-1.061,2.47c-0.842,0.786-2.232,1.152-4.245,1.152c-1.098,0-1.939-0.073-2.47-0.146V138.336z M17.818,143.386
		h1.445c1.665,0,2.653-0.896,2.653-2.086c0-1.427-1.079-2.013-2.689-2.013c-0.731,0-1.152,0.055-1.409,0.109V143.386z
		 M17.818,149.276c0.33,0.055,0.769,0.073,1.336,0.073c1.646,0,3.165-0.604,3.165-2.396c0-1.665-1.445-2.379-3.184-2.379h-1.317
		V149.276z"/>
	<path d="M24.92,151.847l1.996-2.609c0.202-0.247,0.385-0.457,0.586-0.695v-0.019h-2.398v-0.641h3.369v0.504l-1.978,2.572
		c-0.192,0.247-0.366,0.476-0.568,0.695v0.019h2.582v0.641H24.92V151.847z"/>
	<path d="M33.282,144.318v-1.098h9.44v1.098H33.282z M33.282,147.904v-1.098h9.44v1.098H33.282z"/>
	<path d="M51.754,142.567l-1.574,7.381c-0.28,1.322-0.869,2.403-1.767,3.243s-1.824,1.26-2.776,1.26c-0.523,0-0.909-0.1-1.156-0.299
		c-0.247-0.2-0.37-0.452-0.37-0.756c0-0.256,0.078-0.482,0.232-0.679s0.378-0.295,0.67-0.295c0.185,0,0.347,0.042,0.487,0.125
		c0.14,0.084,0.264,0.188,0.371,0.313c0.083,0.102,0.177,0.238,0.282,0.411s0.195,0.322,0.272,0.447
		c0.459-0.036,0.851-0.346,1.175-0.93s0.606-1.418,0.844-2.502l1.647-7.72h-1.746l0.188-0.813h1.721l0.128-0.606
		c0.143-0.689,0.37-1.312,0.679-1.864s0.661-1.023,1.055-1.409c0.387-0.381,0.826-0.68,1.318-0.896
		c0.491-0.217,0.963-0.326,1.416-0.326c0.524,0,0.91,0.101,1.157,0.3s0.371,0.451,0.371,0.755c0,0.256-0.073,0.482-0.22,0.679
		c-0.146,0.197-0.375,0.295-0.686,0.295c-0.186,0-0.347-0.04-0.484-0.12c-0.138-0.081-0.26-0.187-0.368-0.317
		c-0.12-0.148-0.215-0.289-0.287-0.42c-0.071-0.131-0.161-0.277-0.269-0.438c-0.412,0.018-0.777,0.288-1.094,0.812
		c-0.317,0.522-0.602,1.394-0.854,2.612l-0.2,0.945h2.255l-0.188,0.813H51.754z"/>
	<path d="M59.992,137.787c-1.335,1.812-2.287,4.171-2.287,7.501c0,3.257,1.006,5.58,2.287,7.409h-1.244
		c-1.152-1.519-2.396-3.86-2.396-7.428c0.018-3.586,1.244-5.945,2.396-7.482H59.992z"/>
	<path d="M63.762,146.605l-1.28,3.878h-1.647l4.208-12.33h1.903l4.208,12.33h-1.702l-1.317-3.878H63.762z M67.823,145.361
		l-1.226-3.55c-0.274-0.805-0.458-1.536-0.64-2.25h-0.037c-0.183,0.714-0.366,1.482-0.622,2.232l-1.208,3.567H67.823z"/>
	<path d="M72.621,147.883l0.632,0.952c0.174,0.247,0.311,0.467,0.458,0.714h0.019c0.146-0.256,0.293-0.485,0.448-0.723l0.614-0.943
		h0.879l-1.511,2.143l1.547,2.288h-0.907l-0.659-0.997c-0.174-0.257-0.32-0.504-0.476-0.77h-0.018
		c-0.146,0.266-0.293,0.504-0.467,0.77l-0.641,0.997H71.65l1.575-2.261l-1.501-2.17H72.621z"/>
	<path d="M79.985,152.753c0.402-1.098,0.896-3.056,1.098-4.392l1.793-0.183c-0.439,1.555-1.244,3.586-1.756,4.445L79.985,152.753z"
		/>
	<path d="M90.745,146.605l-1.281,3.878h-1.646l4.208-12.33h1.902l4.208,12.33h-1.701l-1.317-3.878H90.745z M94.806,145.361
		l-1.226-3.55c-0.274-0.805-0.457-1.536-0.64-2.25h-0.037c-0.183,0.714-0.366,1.482-0.622,2.232l-1.208,3.567H94.806z"/>
	<path d="M99.521,147.883l0.961,2.618c0.11,0.293,0.22,0.641,0.293,0.906h0.019c0.083-0.266,0.174-0.604,0.284-0.925l0.879-2.6
		h0.852l-1.208,3.158c-0.577,1.521-0.971,2.289-1.52,2.774c-0.403,0.339-0.787,0.476-0.989,0.513l-0.201-0.668
		c0.201-0.064,0.467-0.192,0.705-0.395c0.22-0.174,0.485-0.484,0.677-0.896c0.037-0.083,0.064-0.146,0.064-0.192
		s-0.018-0.11-0.064-0.211l-1.629-4.083H99.521z"/>
	<path d="M103.235,152.697c1.281-1.811,2.287-4.171,2.287-7.464s-0.988-5.617-2.287-7.446h1.244c1.153,1.5,2.396,3.86,2.396,7.446
		c-0.018,3.586-1.244,5.928-2.396,7.464H103.235z"/>
</g>
</svg>
