<?xml version="1.0" encoding="utf-8"?>
<!-- Generator: Adobe Illustrator 14.0.0, SVG Export Plug-In . SVG Version: 6.00 Build 43363)  -->
<!DOCTYPE svg PUBLIC "-//W3C//DTD SVG 1.0//EN" "http://www.w3.org/TR/2001/REC-SVG-20010904/DTD/svg10.dtd">
<svg version="1.0" xmlns="http://www.w3.org/2000/svg" xmlns:xlink="http://www.w3.org/1999/xlink" x="0px" y="0px"
	 width="567.91px" height="226.97px" viewBox="0 0 567.91 226.97" enable-background="new 0 0 567.91 226.97" xml:space="preserve">
<g id="Layer_1">
	
		<path fill-rule="evenodd" clip-rule="evenodd" fill="none" stroke="#000000" stroke-width="0.5" stroke-linecap="round" stroke-linejoin="round" d="
		M3.61,120.24C38.48,83.34,61.72,74.79,83.9,72.22c44.35-5.15,84.49,13.59,124.12,16.94c39.64,3.35,78.79-8.68,115.14-0.67
		c36.351,8,69.92,36.04,96.43,34.121c26.511-1.92,45.971-33.811,75.4-41.28c14.71-3.73,31.92-1.36,70.01,38.91"/>
	
		<path fill-rule="evenodd" clip-rule="evenodd" fill="none" stroke="#000000" stroke-width="0.5" stroke-linecap="round" stroke-linejoin="round" d="
		M3.61,120.24C36.63,82.95,59.97,73.1,82.26,70.3c44.57-5.61,84.96,16.95,125.01,20.08c40.06,3.14,79.78-13.15,116.76-4.39
		c36.99,8.76,71.24,42.581,97.44,40.531c26.2-2.061,44.369-39.98,73.869-47.801c14.761-3.91,32.351-0.3,69.66,41.521"/>
	
		<path fill-rule="evenodd" clip-rule="evenodd" fill="none" stroke="#000000" stroke-width="0.5" stroke-linecap="round" stroke-linejoin="round" d="
		M3.61,120.24C34.67,82.8,58.14,71.29,80.56,68.17c44.84-6.26,85.46,21.02,125.92,23.84c40.47,2.82,80.77-18.81,118.45-9.2
		c37.67,9.62,72.72,50.49,98.56,48.31c25.84-2.17,42.471-47.38,72.15-55.38c14.84-3.99,32.939,1.31,69.359,44.5"/>
	
		<path fill-rule="evenodd" clip-rule="evenodd" fill="none" stroke="#000000" stroke-width="0.5" stroke-linecap="round" stroke-linejoin="round" d="
		M3.61,120.24C32.57,82.98,56.22,69.36,78.8,65.78c45.15-7.14,85.98,25.96,126.84,28.36c40.86,2.39,81.76-25.93,120.199-15.35
		c38.44,10.59,74.41,60.07,99.82,57.79s40.24-56.32,70.211-64.23c14.989-3.95,33.759,3.63,69.129,47.89"/>
	
		<path fill-rule="evenodd" clip-rule="evenodd" fill="none" stroke="#000000" stroke-width="0.5" stroke-linecap="round" stroke-linejoin="round" d="
		M3.61,120.24C30.32,83.6,54.21,67.27,76.97,63.1c45.52-8.34,86.53,31.97,127.78,33.8c41.24,1.82,82.73-34.84,122.01-23.17
		c39.28,11.68,76.36,71.69,101.26,69.32c24.89-2.359,37.59-67.12,68.01-74.58c15.2-3.74,34.841,6.85,68.97,51.771"/>
	
		<path fill-rule="evenodd" clip-rule="evenodd" fill="none" stroke="#000000" stroke-width="0.5" stroke-linecap="round" stroke-linejoin="round" d="
		M3.61,120.24C27.9,84.8,52.09,65.03,75.08,60.05c45.97-9.94,87.12,39.3,128.72,40.39c41.6,1.09,83.649-45.97,123.88-33.06
		C367.9,80.3,406.3,153.2,430.58,150.76c24.291-2.439,34.461-80.22,65.5-86.77c15.53-3.27,36.271,11.26,68.92,56.25"/>
	
		<path fill-rule="evenodd" clip-rule="evenodd" fill="none" stroke="#000000" stroke-width="0.5" stroke-linecap="round" stroke-linejoin="round" d="
		M3.61,120.24C25.3,86.74,49.87,62.6,73.12,56.56c46.5-12.07,87.75,48.25,129.67,48.41c41.92,0.16,84.51-59.86,125.799-45.53
		c41.271,14.32,81.24,102.991,104.801,100.51c23.57-2.49,30.73-96.13,62.64-101.13c15.95-2.49,38.091,17.17,68.97,61.42"/>
	
		<path fill-rule="evenodd" clip-rule="evenodd" fill="none" stroke="#000000" stroke-width="0.5" stroke-linecap="round" stroke-linejoin="round" d="
		M3.61,120.24c18.88-30.57,43.92-60.26,67.49-67.7c47.14-14.89,88.42,59.19,130.61,58.18c42.19-1.01,85.29-77.13,127.75-61.19
		C371.93,65.46,413.78,173.44,436.49,170.931c22.71-2.5,26.28-115.5,59.35-118.111c16.531-1.3,40.431,24.99,69.16,67.42"/>
	
		<path fill-rule="evenodd" clip-rule="evenodd" fill="none" stroke="#000000" stroke-width="2" stroke-linecap="round" stroke-linejoin="round" d="
		M3.61,120.24c15.83-26.39,41.44-63.1,65.4-72.38c47.9-18.57,89.17,72.6,131.56,70.13c42.39-2.461,85.91-98.57,129.721-80.8
		c43.819,17.77,87.93,149.42,109.63,146.91c21.7-2.5,20.989-139.149,55.569-138.28c17.28,0.44,43.39,35.25,69.51,74.42"/>
</g>
<g id="Layer_2">
	<g>
		
			<polyline fill-rule="evenodd" clip-rule="evenodd" fill="none" stroke="#000000" stroke-linecap="round" stroke-linejoin="round" stroke-dasharray="2,2" points="
			2.49,120.06 12.01,104.18 24.48,85.2 38.74,66.9 83.47,25.39 123.7,58.15 149.3,92.61 199.63,145.97 251.32,86.67 277.42,49.66 
			329.95,2.54 382.85,92.42 407.11,146.75 446.7,224.44 459.33,140.729 464.69,85.76 479.97,24.5 519.129,56.31 533.96,74.24 
			549.669,96.49 565.371,120.06 		"/>
		<circle fill-rule="evenodd" clip-rule="evenodd" fill="#FFFFFF" stroke="#000000" cx="38.83" cy="66.79" r="2.03"/>
		<circle fill-rule="evenodd" clip-rule="evenodd" fill="#FFFFFF" stroke="#000000" cx="24.58" cy="85.39" r="2.03"/>
		<circle fill-rule="evenodd" clip-rule="evenodd" fill="#FFFFFF" stroke="#000000" cx="2.53" cy="120.19" r="2.03"/>
		<path fill-rule="evenodd" clip-rule="evenodd" fill="#FFFFFF" stroke="#000000" d="M83.47,23.36c1.12,0,2.03,0.91,2.03,2.03
			c0,1.12-0.91,2.03-2.03,2.03c-1.13,0-2.04-0.91-2.04-2.03C81.43,24.27,82.34,23.36,83.47,23.36z"/>
		<circle fill-rule="evenodd" clip-rule="evenodd" fill="#FFFFFF" stroke="#000000" cx="123.7" cy="58.15" r="2.03"/>
		<circle fill-rule="evenodd" clip-rule="evenodd" fill="#FFFFFF" stroke="#000000" cx="199.63" cy="145.97" r="2.03"/>
		<path fill-rule="evenodd" clip-rule="evenodd" fill="#FFFFFF" stroke="#000000" d="M149.3,90.57c1.12,0,2.03,0.91,2.03,2.04
			c0,1.12-0.91,2.03-2.03,2.03c-1.12,0-2.03-0.91-2.03-2.03C147.27,91.48,148.18,90.57,149.3,90.57z"/>
		<circle fill-rule="evenodd" clip-rule="evenodd" fill="#FFFFFF" stroke="#000000" cx="251.32" cy="86.67" r="2.03"/>
		<path fill-rule="evenodd" clip-rule="evenodd" fill="#FFFFFF" stroke="#000000" d="M277.42,47.63c1.12,0,2.03,0.91,2.03,2.03
			c0,1.12-0.91,2.03-2.03,2.03c-1.13,0-2.04-0.91-2.04-2.03C275.38,48.54,276.29,47.63,277.42,47.63z"/>
		<path fill-rule="evenodd" clip-rule="evenodd" fill="#FFFFFF" stroke="#000000" d="M329.95,0.5c1.13,0,2.041,0.91,2.041,2.04
			c0,1.12-0.911,2.03-2.041,2.03c-1.12,0-2.029-0.91-2.029-2.03C327.92,1.41,328.83,0.5,329.95,0.5z"/>
		<circle fill-rule="evenodd" clip-rule="evenodd" fill="#FFFFFF" stroke="#000000" cx="382.85" cy="92.42" r="2.03"/>
		<path fill-rule="evenodd" clip-rule="evenodd" fill="#FFFFFF" stroke="#000000" d="M446.7,222.41c1.13,0,2.04,0.91,2.04,2.03
			s-0.91,2.029-2.04,2.029c-1.12,0-2.029-0.909-2.029-2.029S445.58,222.41,446.7,222.41z"/>
		<circle fill-rule="evenodd" clip-rule="evenodd" fill="#FFFFFF" stroke="#000000" cx="459.33" cy="140.73" r="2.03"/>
		<circle fill-rule="evenodd" clip-rule="evenodd" fill="#FFFFFF" stroke="#000000" cx="464.69" cy="85.76" r="2.03"/>
		<circle fill-rule="evenodd" clip-rule="evenodd" fill="#FFFFFF" stroke="#000000" cx="479.97" cy="24.5" r="2.03"/>
		<circle fill-rule="evenodd" clip-rule="evenodd" fill="#FFFFFF" stroke="#000000" cx="519.129" cy="56.31" r="2.03"/>
		<circle fill-rule="evenodd" clip-rule="evenodd" fill="#FFFFFF" stroke="#000000" cx="533.96" cy="74.24" r="2.03"/>
		<path fill-rule="evenodd" clip-rule="evenodd" fill="#FFFFFF" stroke="#000000" d="M565.371,118.029
			c1.129,0,2.039,0.911,2.039,2.03c0,1.121-0.91,2.03-2.039,2.03c-1.121,0-2.031-0.909-2.031-2.03
			C563.339,118.94,564.25,118.029,565.371,118.029z"/>
		<circle fill-rule="evenodd" clip-rule="evenodd" fill="#FFFFFF" stroke="#000000" cx="407.11" cy="146.75" r="2.03"/>
	</g>
	<g>
		<path fill-rule="evenodd" clip-rule="evenodd" fill="#FFFFFF" stroke="#000000" stroke-width="0.75" d="M435.28,156.529
			c1.9,0,3.45,1.551,3.45,3.45c0,1.911-1.55,3.451-3.45,3.451s-3.45-1.54-3.45-3.451C431.83,158.08,433.379,156.529,435.28,156.529z
			"/>
		<text transform="matrix(1 0 0 1 433.3999 162.0801)" font-family="'Helvetica'" font-size="6.507">2</text>
	</g>
	<g>
		<path fill-rule="evenodd" clip-rule="evenodd" fill="#FFFFFF" stroke="#000000" stroke-width="0.75" d="M433.03,147.38
			c1.9,0,3.45,1.551,3.45,3.45c0,1.91-1.55,3.449-3.45,3.449s-3.45-1.539-3.45-3.449C429.58,148.931,431.129,147.38,433.03,147.38z"
			/>
		<text transform="matrix(1 0 0 1 431.3198 153.1494)" font-family="'Helvetica'" font-size="6.507">3</text>
	</g>
	<path fill-rule="evenodd" clip-rule="evenodd" fill="#FFFFFF" stroke="#000000" stroke-width="0.75" d="M431.08,139.21
		c1.9,0,3.45,1.54,3.45,3.45c0,1.899-1.55,3.45-3.45,3.45c-1.899,0-3.45-1.551-3.45-3.45
		C427.629,140.75,429.18,139.21,431.08,139.21z"/>
	<text transform="matrix(1 0 0 1 429.1401 144.9502)" font-family="'Helvetica'" font-size="6.507">4</text>
	<path fill-rule="evenodd" clip-rule="evenodd" fill="#FFFFFF" stroke="#000000" stroke-width="0.75" d="M437.35,166.99
		c1.899,0,3.45,1.539,3.45,3.45c0,1.899-1.551,3.45-3.45,3.45c-1.91,0-3.45-1.551-3.45-3.45
		C433.9,168.529,435.44,166.99,437.35,166.99z"/>
	<text transform="matrix(1 0 0 1 435.8003 172.4268)" font-family="'Helvetica'" font-size="6.507">1</text>
	<path fill-rule="evenodd" clip-rule="evenodd" fill="#FFFFFF" stroke="#000000" stroke-width="0.75" d="M432.52,131.24
		c1.91,0,3.45,1.55,3.45,3.45c0,1.909-1.54,3.45-3.45,3.45c-1.899,0-3.45-1.541-3.45-3.45
		C429.07,132.79,430.621,131.24,432.52,131.24z"/>
	<text transform="matrix(1 0 0 1 430.7563 136.7373)" font-family="'Helvetica'" font-size="6.507">5</text>
	<path fill-rule="evenodd" clip-rule="evenodd" fill="#FFFFFF" stroke="#000000" stroke-width="0.75" d="M424.7,127.87
		c1.9,0,3.45,1.55,3.45,3.45c0,1.909-1.55,3.45-3.45,3.45c-1.899,0-3.45-1.541-3.45-3.45C421.25,129.42,422.8,127.87,424.7,127.87z"
		/>
	<text transform="matrix(1 0 0 1 422.8198 133.5029)" font-family="'Helvetica'" font-size="6.507">6</text>
	<path fill-rule="evenodd" clip-rule="evenodd" fill="#FFFFFF" stroke="#000000" stroke-width="0.75" d="M430.24,121.399
		c1.9,0,3.44,1.541,3.44,3.45c0,1.9-1.54,3.45-3.44,3.45c-1.91,0-3.449-1.55-3.449-3.45
		C426.791,122.94,428.33,121.399,430.24,121.399z"/>
	<text transform="matrix(1 0 0 1 428.7124 127.3096)" font-family="'Helvetica'" font-size="6.507">7</text>
	<g>
		<path fill-rule="evenodd" clip-rule="evenodd" fill="#FFFFFF" stroke="#000000" stroke-width="0.75" d="M422.379,118.521
			c1.911,0,3.45,1.539,3.45,3.439c0,1.91-1.539,3.45-3.45,3.45c-1.899,0-3.449-1.54-3.449-3.45
			C418.93,120.06,420.48,118.521,422.379,118.521z"/>
		<text transform="matrix(1 0 0 1 420.6001 124.1807)" font-family="'Helvetica'" font-size="6.507">8</text>
	</g>
	<path fill-rule="evenodd" clip-rule="evenodd" fill="#FFFFFF" stroke="#000000" stroke-width="0.75" d="M436.6,183.1L436.6,183.1
		c0,2.171,1.76,3.93,3.93,3.93h35.58c2.17,0,3.931-1.759,3.931-3.93l0,0c0-2.17-1.761-3.93-3.931-3.93h-35.58
		C438.36,179.17,436.6,180.93,436.6,183.1z"/>
	<text transform="matrix(1 0 0 1 439.1772 185.1064)" font-family="'Helvetica'" font-size="6.507">Original curve</text>
	<g>
		<g>
			
				<line fill="none" stroke="#FF4000" stroke-width="0.97" stroke-linejoin="bevel" x1="79.57" y1="152.45" x2="75.065" y2="186.519"/>
			<polygon fill="#FF4000" points="73.68,184.445 75.095,186.292 76.942,184.876 76.759,186.26 74.913,187.675 73.497,185.829 			
				"/>
		</g>
	</g>
	<g>
		
			<line fill-rule="evenodd" clip-rule="evenodd" fill="none" stroke="#000000" stroke-linejoin="bevel" x1="82.57" y1="129.33" x2="79.7" y2="151.391"/>
		<polygon points="78.267,149.256 79.73,151.157 81.631,149.693 81.445,151.12 79.545,152.583 78.082,150.683 		"/>
	</g>
	
		<line fill-rule="evenodd" clip-rule="evenodd" fill="none" stroke="#FF4000" stroke-width="0.75" stroke-linecap="round" stroke-linejoin="bevel" stroke-dasharray="1.5,1.5" x1="40.49" y1="198.76" x2="110.13" y2="180.521"/>
	
		<polyline fill-rule="evenodd" clip-rule="evenodd" fill="none" stroke="#000000" stroke-linecap="round" stroke-linejoin="round" stroke-dasharray="2,2" points="
		39.26,199.08 82.57,129.33 110.13,180.521 	"/>
	<path fill-rule="evenodd" clip-rule="evenodd" fill="#FFFFFF" stroke="#000000" stroke-width="1.5" d="M39.26,196.029
		c1.68,0,3.04,1.37,3.04,3.051c0,1.68-1.36,3.05-3.04,3.05c-1.69,0-3.05-1.37-3.05-3.05C36.21,197.399,37.57,196.029,39.26,196.029z
		"/>
	<path fill-rule="evenodd" clip-rule="evenodd" fill="#FFFFFF" stroke="#000000" stroke-width="1.5" d="M82.57,126.279
		c1.68,0,3.05,1.37,3.05,3.051c0,1.68-1.37,3.05-3.05,3.05c-1.68,0-3.05-1.37-3.05-3.05C79.52,127.649,80.89,126.279,82.57,126.279z
		"/>
	<path fill-rule="evenodd" clip-rule="evenodd" fill="#FFFFFF" stroke="#000000" stroke-width="1.5" d="M110.13,177.47
		c1.68,0,3.05,1.37,3.05,3.051c0,1.68-1.37,3.04-3.05,3.04c-1.68,0-3.05-1.36-3.05-3.04C107.08,178.84,108.45,177.47,110.13,177.47z
		"/>
	<text transform="matrix(1 0 0 1 79.1699 121.2002)" font-family="'TrebuchetMS-Italic'" font-size="11.25" letter-spacing="-1">p</text>
	<text transform="matrix(1 0 0 1 26.3403 207.25)"><tspan x="0" y="0" font-family="'TrebuchetMS-Italic'" font-size="11.25">p</tspan><tspan x="6.268" y="1.125" font-family="'TrebuchetMS'" font-size="5.625">prev</tspan></text>
	<text transform="matrix(1 0 0 1 114.9302 182.4307)"><tspan x="0" y="0" font-family="'TrebuchetMS-Italic'" font-size="11.25">p</tspan><tspan x="6.268" y="1.125" font-family="'TrebuchetMS'" font-size="5.625">next</tspan></text>
	<path fill-rule="evenodd" clip-rule="evenodd" fill="#FF4000" stroke="#000000" stroke-width="0.37" d="M73.31,189.82
		c-0.01-0.76,0.6-1.391,1.36-1.41c0.76-0.011,1.39,0.6,1.41,1.36c0.01,0.77-0.6,1.399-1.36,1.409
		C73.95,191.19,73.32,190.58,73.31,189.82z"/>
	<text transform="matrix(1 0 0 1 66.0898 182.0596)"><tspan x="0" y="0" font-family="'TrebuchetMS-Italic'" font-size="11.25" letter-spacing="-1">v</tspan><tspan x="4.385" y="1.125" font-family="'TrebuchetMS'" font-size="5.625">A</tspan></text>
	<text transform="matrix(1 0 0 1 82.0801 155.9307)"><tspan x="0" y="0" font-family="'TrebuchetMS-Italic'" font-size="11.25" letter-spacing="-1">v</tspan><tspan x="4.385" y="1.125" font-family="'TrebuchetMS'" font-size="5.625">M</tspan></text>
	<text transform="matrix(1 0 0 1 73.5103 199.7295)"><tspan x="0" y="0" font-family="'TrebuchetMS-Italic'" font-size="11.25">p</tspan><tspan x="6.268" y="1.125" font-family="'TrebuchetMS'" font-size="5.625">M</tspan></text>
</g>
</svg>
