<?xml version="1.0" encoding="utf-8"?>
<!-- Generator: Adobe Illustrator 14.0.0, SVG Export Plug-In . SVG Version: 6.00 Build 43363)  -->
<!DOCTYPE svg PUBLIC "-//W3C//DTD SVG 1.0//EN" "http://www.w3.org/TR/2001/REC-SVG-20010904/DTD/svg10.dtd">
<svg version="1.0" xmlns="http://www.w3.org/2000/svg" xmlns:xlink="http://www.w3.org/1999/xlink" x="0px" y="0px" width="56.69px"
	 height="56.695px" viewBox="0 0 56.69 56.695" enable-background="new 0 0 56.69 56.695" xml:space="preserve">
<g id="Grids">
	<g>
		
			<line fill-rule="evenodd" clip-rule="evenodd" fill="none" stroke="#D4D4D4" stroke-width="0.27" x1="4.93" y1="0.005" x2="4.93" y2="56.695"/>
		
			<line fill-rule="evenodd" clip-rule="evenodd" fill="none" stroke="#D4D4D4" stroke-width="0.27" x1="9.61" y1="0.005" x2="9.61" y2="56.695"/>
		
			<line fill-rule="evenodd" clip-rule="evenodd" fill="none" stroke="#D4D4D4" stroke-width="0.27" x1="18.979" y1="0.005" x2="18.979" y2="56.695"/>
		
			<line fill-rule="evenodd" clip-rule="evenodd" fill="none" stroke="#D4D4D4" stroke-width="0.27" x1="23.66" y1="0.005" x2="23.66" y2="56.695"/>
		
			<line fill-rule="evenodd" clip-rule="evenodd" fill="none" stroke="#D4D4D4" stroke-width="0.27" x1="33.029" y1="0.005" x2="33.029" y2="56.695"/>
		
			<line fill-rule="evenodd" clip-rule="evenodd" fill="none" stroke="#D4D4D4" stroke-width="0.27" x1="37.71" y1="0.005" x2="37.71" y2="56.695"/>
		
			<line fill-rule="evenodd" clip-rule="evenodd" fill="none" stroke="#D4D4D4" stroke-width="0.27" x1="47.08" y1="0.005" x2="47.08" y2="56.695"/>
		
			<line fill-rule="evenodd" clip-rule="evenodd" fill="none" stroke="#D4D4D4" stroke-width="0.27" x1="51.76" y1="0.005" x2="51.76" y2="56.695"/>
		
			<line fill-rule="evenodd" clip-rule="evenodd" fill="none" stroke="#D4D4D4" stroke-width="0.27" x1="56.69" y1="4.935" x2="0" y2="4.935"/>
		
			<line fill-rule="evenodd" clip-rule="evenodd" fill="none" stroke="#D4D4D4" stroke-width="0.27" x1="56.69" y1="9.615" x2="0" y2="9.615"/>
		
			<line fill-rule="evenodd" clip-rule="evenodd" fill="none" stroke="#D4D4D4" stroke-width="0.27" x1="56.69" y1="18.985" x2="0" y2="18.985"/>
		
			<line fill-rule="evenodd" clip-rule="evenodd" fill="none" stroke="#D4D4D4" stroke-width="0.27" x1="56.69" y1="23.665" x2="0" y2="23.665"/>
		
			<line fill-rule="evenodd" clip-rule="evenodd" fill="none" stroke="#D4D4D4" stroke-width="0.27" x1="56.69" y1="33.035" x2="0" y2="33.035"/>
		
			<line fill-rule="evenodd" clip-rule="evenodd" fill="none" stroke="#D4D4D4" stroke-width="0.27" x1="56.69" y1="37.715" x2="0" y2="37.715"/>
		
			<line fill-rule="evenodd" clip-rule="evenodd" fill="none" stroke="#D4D4D4" stroke-width="0.27" x1="56.69" y1="47.075" x2="0" y2="47.075"/>
		
			<line fill-rule="evenodd" clip-rule="evenodd" fill="none" stroke="#D4D4D4" stroke-width="0.27" x1="56.69" y1="51.765" x2="0" y2="51.765"/>
		
			<line fill-rule="evenodd" clip-rule="evenodd" fill="none" stroke="#8A8A8A" stroke-width="0.27" x1="14.3" y1="0.005" x2="14.3" y2="56.695"/>
		
			<line fill-rule="evenodd" clip-rule="evenodd" fill="none" stroke="#8A8A8A" stroke-width="0.27" x1="0.14" y1="0.005" x2="0.14" y2="56.695"/>
		
			<line fill-rule="evenodd" clip-rule="evenodd" fill="none" stroke="#8A8A8A" stroke-width="0.27" x1="28.35" y1="28.345" x2="28.35" y2="56.695"/>
		
			<line fill-rule="evenodd" clip-rule="evenodd" fill="none" stroke="#8A8A8A" stroke-width="0.27" x1="42.39" y1="0.005" x2="42.39" y2="56.695"/>
		
			<line fill-rule="evenodd" clip-rule="evenodd" fill="none" stroke="#8A8A8A" stroke-width="0.27" x1="56.55" y1="0.005" x2="56.55" y2="56.695"/>
		
			<line fill-rule="evenodd" clip-rule="evenodd" fill="none" stroke="#8A8A8A" stroke-width="0.27" x1="28.35" y1="28.345" x2="0" y2="28.345"/>
		
			<line fill-rule="evenodd" clip-rule="evenodd" fill="none" stroke="#8A8A8A" stroke-width="0.27" x1="56.69" y1="14.295" x2="0" y2="14.295"/>
		
			<line fill-rule="evenodd" clip-rule="evenodd" fill="none" stroke="#8A8A8A" stroke-width="0.27" x1="56.69" y1="0.135" x2="0" y2="0.135"/>
		
			<line fill-rule="evenodd" clip-rule="evenodd" fill="none" stroke="#8A8A8A" stroke-width="0.27" x1="56.69" y1="42.395" x2="0" y2="42.395"/>
		
			<line fill-rule="evenodd" clip-rule="evenodd" fill="none" stroke="#8A8A8A" stroke-width="0.27" x1="56.69" y1="56.555" x2="0" y2="56.555"/>
		<line fill-rule="evenodd" clip-rule="evenodd" fill="none" stroke="#A80000" x1="56.69" y1="28.345" x2="28.34" y2="28.345"/>
		<line fill-rule="evenodd" clip-rule="evenodd" fill="none" stroke="#12AB00" x1="28.35" y1="0.005" x2="28.35" y2="28.345"/>
	</g>
</g>
<g id="Text">
	<path fill-rule="evenodd" clip-rule="evenodd" d="M47.7,7.905l1.41-0.3c0.1,0.24,0.18,0.48,0.239,0.73
		c0.091,0.37,0.16,0.81,0.221,1.31c0.02,0.26,0.06,0.79,0.1,1.61c0.41-0.45,0.65-0.72,0.729-0.83c0.431-0.58,0.681-0.93,0.74-1.03
		c0.11-0.17,0.19-0.32,0.23-0.45c0.029-0.1,0.05-0.19,0.05-0.28c0-0.08-0.07-0.18-0.22-0.29c-0.16-0.11-0.23-0.24-0.23-0.37
		c0-0.11,0.04-0.2,0.12-0.28c0.09-0.08,0.181-0.12,0.3-0.12c0.131,0,0.26,0.05,0.36,0.16c0.1,0.12,0.16,0.26,0.16,0.42
		c0,0.17-0.03,0.33-0.08,0.48c-0.091,0.25-0.24,0.55-0.48,0.91c-0.229,0.35-0.6,0.83-1.11,1.43c-0.069,0.07-0.43,0.45-1.09,1.13
		h-0.18c-0.08-2.06-0.24-3.34-0.49-3.86c-0.08-0.16-0.209-0.24-0.399-0.24c-0.08,0-0.2,0.01-0.351,0.04L47.7,7.905z"/>
	<path fill-rule="evenodd" clip-rule="evenodd" d="M19.93,47.895l0.33,3.66c0.57-0.66,1.02-1.28,1.36-1.87
		c0.2-0.34,0.3-0.59,0.3-0.74c0-0.07-0.021-0.13-0.05-0.19c-0.01-0.03-0.061-0.07-0.15-0.13c-0.09-0.06-0.16-0.11-0.19-0.17
		c-0.04-0.06-0.05-0.13-0.05-0.2c0-0.1,0.03-0.18,0.11-0.25c0.07-0.07,0.17-0.11,0.29-0.11c0.13,0,0.24,0.05,0.33,0.15
		c0.1,0.1,0.14,0.23,0.14,0.4s-0.02,0.33-0.07,0.47c-0.1,0.28-0.29,0.64-0.569,1.09c-0.35,0.53-0.7,1.02-1.07,1.47
		c-0.36,0.46-0.64,0.77-0.819,0.96H19.64l-0.31-3.38l-2.021,3.38H17.1c-0.029-1.39-0.1-2.49-0.21-3.29
		c-0.05-0.34-0.13-0.56-0.25-0.66c-0.08-0.08-0.199-0.12-0.369-0.12c-0.091,0-0.211,0.01-0.36,0.03v-0.17l1.399-0.33
		c0.2,0.54,0.32,1.38,0.381,2.51c0.02,0.42,0.039,0.69,0.049,0.8l2.011-3.31H19.93z"/>
	<polygon fill-rule="evenodd" clip-rule="evenodd" points="21.96,46.854 22.12,46.385 15.79,46.385 15.79,46.135 22.12,46.135 
		21.96,45.655 23.76,46.255 	"/>
	<polygon fill-rule="evenodd" clip-rule="evenodd" points="51.279,6.735 51.44,6.255 47.93,6.255 47.93,6.005 51.44,6.005 
		51.279,5.535 53.08,6.135 	"/>
</g>
<g id="Vectors">
	<polygon fill-rule="evenodd" clip-rule="evenodd" points="28.72,28.615 27.94,27.985 43.97,7.885 42.979,7.515 46.95,4.945 
		45.32,9.385 44.75,8.505 	"/>
	<polygon fill-rule="evenodd" clip-rule="evenodd" points="9.71,51.655 11.33,47.215 11.91,48.095 27.94,27.985 28.72,28.615 
		12.69,48.715 13.68,49.084 	"/>
</g>
<g id="Other">
</g>
</svg>
