<?xml version="1.0" encoding="utf-8"?>
<!-- Generator: Adobe Illustrator 14.0.0, SVG Export Plug-In . SVG Version: 6.00 Build 43363)  -->
<!DOCTYPE svg PUBLIC "-//W3C//DTD SVG 1.1//EN" "http://www.w3.org/Graphics/SVG/1.1/DTD/svg11.dtd">
<svg version="1.1" xmlns="http://www.w3.org/2000/svg" xmlns:xlink="http://www.w3.org/1999/xlink" x="0px" y="0px"
	 width="521.28px" height="417.41px" viewBox="0 0 521.28 417.41" enable-background="new 0 0 521.28 417.41" xml:space="preserve">
<g id="BackBuffer" display="none">
</g>
<g id="Viewport_x5F_BG">
	<g>
		
			<line fill-rule="evenodd" clip-rule="evenodd" fill="none" stroke="#D4D4D4" stroke-linecap="round" stroke-linejoin="round" x1="65.88" y1="164.03" x2="520.28" y2="283.79"/>
		
			<line fill-rule="evenodd" clip-rule="evenodd" fill="none" stroke="#D4D4D4" stroke-linecap="round" stroke-linejoin="round" x1="397.56" y1="416.41" x2="520.28" y2="187.69"/>
		
			<line fill-rule="evenodd" clip-rule="evenodd" fill="none" stroke="#D4D4D4" stroke-linecap="round" stroke-linejoin="round" x1="163.75" y1="95.23" x2="520.28" y2="173.12"/>
		
			<line fill-rule="evenodd" clip-rule="evenodd" fill="none" stroke="#D4D4D4" stroke-linecap="round" stroke-linejoin="round" x1="152.94" y1="102.83" x2="520.28" y2="184.84"/>
		
			<line fill-rule="evenodd" clip-rule="evenodd" fill="none" stroke="#D4D4D4" stroke-linecap="round" stroke-linejoin="round" x1="141.76" y1="110.69" x2="520.28" y2="197.08"/>
		
			<line fill-rule="evenodd" clip-rule="evenodd" fill="none" stroke="#D4D4D4" stroke-linecap="round" stroke-linejoin="round" x1="130.2" y1="118.82" x2="520.28" y2="209.88"/>
		
			<line fill-rule="evenodd" clip-rule="evenodd" fill="none" stroke="#D4D4D4" stroke-linecap="round" stroke-linejoin="round" x1="435.93" y1="416.41" x2="520.28" y2="243.34"/>
		
			<line fill-rule="evenodd" clip-rule="evenodd" fill="none" stroke="#D4D4D4" stroke-linecap="round" stroke-linejoin="round" x1="105.84" y1="135.94" x2="520.28" y2="237.32"/>
		
			<line fill-rule="evenodd" clip-rule="evenodd" fill="none" stroke="#D4D4D4" stroke-linecap="round" stroke-linejoin="round" x1="93" y1="144.96" x2="520.28" y2="252.051"/>
		
			<line fill-rule="evenodd" clip-rule="evenodd" fill="none" stroke="#D4D4D4" stroke-linecap="round" stroke-linejoin="round" x1="79.69" y1="154.32" x2="520.28" y2="267.521"/>
		
			<line fill-rule="evenodd" clip-rule="evenodd" fill="none" stroke="#D4D4D4" stroke-linecap="round" stroke-linejoin="round" x1="205.69" y1="416.41" x2="421.44" y2="140.75"/>
		
			<line fill-rule="evenodd" clip-rule="evenodd" fill="none" stroke="#D4D4D4" stroke-linecap="round" stroke-linejoin="round" x1="1" y1="279.56" x2="413.081" y2="416.41"/>
		
			<line fill-rule="evenodd" clip-rule="evenodd" fill="none" stroke="#D4D4D4" stroke-linecap="round" stroke-linejoin="round" x1="1" y1="301.16" x2="336.78" y2="416.41"/>
		
			<line fill-rule="evenodd" clip-rule="evenodd" fill="none" stroke="#D4D4D4" stroke-linecap="round" stroke-linejoin="round" x1="359.19" y1="416.41" x2="509.61" y2="159.61"/>
		
			<line fill-rule="evenodd" clip-rule="evenodd" fill="none" stroke="#D4D4D4" stroke-linecap="round" stroke-linejoin="round" x1="320.81" y1="416.41" x2="486.959" y2="154.77"/>
		
			<line fill-rule="evenodd" clip-rule="evenodd" fill="none" stroke="#D4D4D4" stroke-linecap="round" stroke-linejoin="round" x1="1" y1="324.25" x2="260.48" y2="416.41"/>
		
			<line fill-rule="evenodd" clip-rule="evenodd" fill="none" stroke="#D4D4D4" stroke-linecap="round" stroke-linejoin="round" x1="244.07" y1="416.41" x2="442.879" y2="145.34"/>
		
			<line fill-rule="evenodd" clip-rule="evenodd" fill="none" stroke="#D4D4D4" stroke-linecap="round" stroke-linejoin="round" x1="1" y1="222.46" x2="493.93" y2="371.62"/>
		
			<line fill-rule="evenodd" clip-rule="evenodd" fill="none" stroke="#D4D4D4" stroke-linecap="round" stroke-linejoin="round" x1="1" y1="301.65" x2="244.58" y2="102.92"/>
		
			<line fill-rule="evenodd" clip-rule="evenodd" fill="none" stroke="#D4D4D4" stroke-linecap="round" stroke-linejoin="round" x1="1" y1="275.98" x2="226.55" y2="99.07"/>
		
			<line fill-rule="evenodd" clip-rule="evenodd" fill="none" stroke="#D4D4D4" stroke-linecap="round" stroke-linejoin="round" x1="1" y1="252.221" x2="208.82" y2="95.27"/>
		
			<line fill-rule="evenodd" clip-rule="evenodd" fill="none" stroke="#D4D4D4" stroke-linecap="round" stroke-linejoin="round" x1="1" y1="259.33" x2="476.169" y2="412.171"/>
		
			<line fill-rule="evenodd" clip-rule="evenodd" fill="none" stroke="#D4D4D4" stroke-linecap="round" stroke-linejoin="round" x1="1" y1="230.16" x2="191.38" y2="91.54"/>
		
			<line fill-rule="evenodd" clip-rule="evenodd" fill="none" stroke="#D4D4D4" stroke-linecap="round" stroke-linejoin="round" x1="60.61" y1="370.94" x2="319.79" y2="119.01"/>
		
			<line fill-rule="evenodd" clip-rule="evenodd" fill="none" stroke="#D4D4D4" stroke-linecap="round" stroke-linejoin="round" x1="34.74" y1="361.421" x2="300.51" y2="114.88"/>
		
			<line fill-rule="evenodd" clip-rule="evenodd" fill="none" stroke="#D4D4D4" stroke-linecap="round" stroke-linejoin="round" x1="9.53" y1="352.15" x2="281.55" y2="110.83"/>
		
			<line fill-rule="evenodd" clip-rule="evenodd" fill="none" stroke="#D4D4D4" stroke-linecap="round" stroke-linejoin="round" x1="87.17" y1="380.721" x2="339.419" y2="123.21"/>
		
			<line fill-rule="evenodd" clip-rule="evenodd" fill="none" stroke="#D4D4D4" stroke-linecap="round" stroke-linejoin="round" x1="142.47" y1="401.07" x2="379.7" y2="131.83"/>
		
			<line fill-rule="evenodd" clip-rule="evenodd" fill="none" stroke="#D4D4D4" stroke-linecap="round" stroke-linejoin="round" x1="171.27" y1="411.66" x2="400.39" y2="136.25"/>
		
			<line fill-rule="evenodd" clip-rule="evenodd" fill="none" stroke="#D4D4D4" stroke-linecap="round" stroke-linejoin="round" x1="21.15" y1="195.47" x2="509.93" y2="335.101"/>
		
			<line fill-rule="evenodd" clip-rule="evenodd" fill="none" stroke="#D4D4D4" stroke-linecap="round" stroke-linejoin="round" x1="5.03" y1="206.8" x2="502.129" y2="352.891"/>
		
			<line fill-rule="evenodd" clip-rule="evenodd" fill="none" stroke="#D4D4D4" stroke-linecap="round" stroke-linejoin="round" x1="36.64" y1="184.58" x2="517.35" y2="318.171"/>
	</g>
	<g>
		
			<line fill-rule="evenodd" clip-rule="evenodd" fill="none" stroke="#8A8A8A" stroke-linecap="round" stroke-linejoin="round" x1="174.22" y1="87.87" x2="520.28" y2="161.89"/>
		
			<line fill-rule="evenodd" clip-rule="evenodd" fill="none" stroke="#8A8A8A" stroke-linecap="round" stroke-linejoin="round" x1="118.23" y1="127.23" x2="520.28" y2="223.28"/>
		
			<line fill-rule="evenodd" clip-rule="evenodd" fill="none" stroke="#8A8A8A" stroke-linecap="round" stroke-linejoin="round" x1="474.31" y1="416.41" x2="520.28" y2="311.48"/>
		
			<line fill-rule="evenodd" clip-rule="evenodd" fill="none" stroke="#8A8A8A" stroke-linecap="round" stroke-linejoin="round" x1="282.44" y1="416.41" x2="464.72" y2="150.01"/>
		
			<line fill-rule="evenodd" clip-rule="evenodd" fill="none" stroke="#8A8A8A" stroke-linecap="round" stroke-linejoin="round" x1="1" y1="349.01" x2="184.18" y2="416.41"/>
		
			<line fill-rule="evenodd" clip-rule="evenodd" fill="none" stroke="#8A8A8A" stroke-linecap="round" stroke-linejoin="round" x1="1" y1="329.46" x2="262.911" y2="106.84"/>
		
			<line fill-rule="evenodd" clip-rule="evenodd" fill="none" stroke="#8A8A8A" stroke-linecap="round" stroke-linejoin="round" x1="1" y1="240.33" x2="485.29" y2="391.351"/>
		
			<line fill-rule="evenodd" clip-rule="evenodd" fill="none" stroke="#8A8A8A" stroke-linecap="round" stroke-linejoin="round" x1="1" y1="209.63" x2="174.22" y2="87.87"/>
		
			<line fill-rule="evenodd" clip-rule="evenodd" fill="none" stroke="#8A8A8A" stroke-linecap="round" stroke-linejoin="round" x1="262.82" y1="231.271" x2="51.54" y2="174.11"/>
		
			<line fill-rule="evenodd" clip-rule="evenodd" fill="none" stroke="#8A8A8A" stroke-linecap="round" stroke-linejoin="round" x1="262.82" y1="231.271" x2="114.45" y2="390.75"/>
	</g>
	
		<line fill-rule="evenodd" clip-rule="evenodd" fill="none" stroke="#12AB00" stroke-width="2" stroke-linecap="round" stroke-linejoin="round" x1="359.379" y1="127.48" x2="262.82" y2="231.271"/>
	
		<line fill-rule="evenodd" clip-rule="evenodd" fill="none" stroke="#A80000" stroke-width="2" stroke-linecap="round" stroke-linejoin="round" x1="520.28" y1="300.921" x2="262.82" y2="231.271"/>
</g>
<g id="Viewport_x5F_MG">
	<path fill-rule="evenodd" clip-rule="evenodd" fill="#CCCCCC" d="M43.64,99.19c13.28-1.12,26.28-1.91,39.64,0.35
		c6.46,1.09,12.52,2.66,18.37,5.83c4.53,2.45,9.84,6.61,10.1,12.64c0.2,4.62-2.35,8.06-5.2,11.1c-3.03,3.24-6.37,6.13-9.53,9.22
		c-3.93,3.82-7.61,7.8-10.96,12.16c-12.37,16.09-18.16,35.17-12.66,55.52c5.29,19.59,19.15,35.1,34.21,47.13
		c30.73,24.56,70.49,38.229,107.47,47.109c12.95,3.101,26.06,5.43,38.91,8.99c6.2,1.72,12.15,3.681,17.799,6.931
		c7.421,4.27,13.4,9.109,17.91,16.659c7.04,11.8,5.051,21.32,0.561,33.04c66.34,11.51,132.68,23.021,199.02,34.521
		c6.33-60.851-30.39-108.79-77.449-139.391c-23.99-15.6-49.15-26.399-76.49-34.38c-18.421-5.38-37.19-8.779-55.95-12.47
		c-8.74-1.71-17.42-3.37-25.86-6.45c-7.44-2.73-14.42-5.94-20.92-10.6c-4.84-3.46-8.93-7.18-12-12.43
		c-2.58-4.42-4.02-9.78-3.02-14.99c0.74-3.81,2.36-6.97,4.5-10.13c3.09-4.54,6.78-8.61,9.81-13.19
		c19.52-29.49,3.84-53.48-23.41-68.99c-23.75-13.51-53.87-20.01-80.27-23.11c-15.29-1.79-30.54-2.55-45.92-2.54
		c-12.74,0.02-25.42,0.72-38.11,1.62C44,68.62,43.82,83.9,43.64,99.19z"/>
	
		<path fill-rule="evenodd" clip-rule="evenodd" fill="none" stroke="#FF0000" stroke-width="8" stroke-linecap="round" stroke-linejoin="round" d="
		M43.64,99.19c12.15-1.88,24.23-3.77,37.04-4.34c18.68-0.82,36.98,1.14,52.23,7.8c9.24,4.04,19.89,11.32,20.96,22.56
		c0.65,6.91-2.64,12.48-5.46,17.79c-3.27,6.15-6.16,12.43-6.84,19.87c-1.99,21.79,15.12,38.03,31.57,48.03
		c4.17,2.529,8.46,4.79,12.88,6.83c5.16,2.37,10.45,4.46,15.88,6.3c7.16,2.42,14.53,4.43,22.08,6.07
		c18.35,3.989,38.16,5.029,57.59,7.04c12.58,1.31,24.97,3.01,36.98,5.479c39.29,8.11,76.03,23.42,107.14,47.939
		c14.51,11.44,28.141,25.591,38.141,40.65c7.909,11.91,14.14,24.61,18.43,38.33c3.1,9.91,5.04,20.36,7.02,30.851"/>
	<g>
		
			<path fill-rule="evenodd" clip-rule="evenodd" fill="none" stroke="#000000" stroke-width="0.5" stroke-linecap="round" stroke-linejoin="round" d="
			M294.6,348.24c64.779,6.22,129.55,12.5,194.319,18.76"/>
		
			<path fill-rule="evenodd" clip-rule="evenodd" fill="none" stroke="#000000" stroke-width="0.5" stroke-linecap="round" stroke-linejoin="round" d="
			M292.45,338.04c61.18-3.23,122.36-6.42,183.54-9.619"/>
		
			<path fill-rule="evenodd" clip-rule="evenodd" fill="none" stroke="#000000" stroke-width="0.5" stroke-linecap="round" stroke-linejoin="round" d="
			M287.96,330.091C342.28,317.83,396.61,305.58,450.93,293.32"/>
		
			<path fill-rule="evenodd" clip-rule="evenodd" fill="none" stroke="#000000" stroke-width="0.5" stroke-linecap="round" stroke-linejoin="round" d="
			M281.72,323.351c44.85-19.8,89.699-39.61,134.55-59.41"/>
		
			<path fill-rule="evenodd" clip-rule="evenodd" fill="none" stroke="#000000" stroke-width="0.5" stroke-linecap="round" stroke-linejoin="round" d="
			M273.69,317.471c33.76-25.391,67.439-50.891,101.16-76.341"/>
		
			<path fill-rule="evenodd" clip-rule="evenodd" fill="none" stroke="#000000" stroke-width="0.5" stroke-linecap="round" stroke-linejoin="round" d="
			M262.531,312.16c12.949-15.46,54.819-70.989,66.989-87.02"/>
		
			<path fill-rule="evenodd" clip-rule="evenodd" fill="none" stroke="#000000" stroke-width="0.5" stroke-linecap="round" stroke-linejoin="round" d="
			M241.75,306.48c17.44-29.19,31.75-59.771,45.98-90.53"/>
		
			<path fill-rule="evenodd" clip-rule="evenodd" fill="none" stroke="#000000" stroke-width="0.5" stroke-linecap="round" stroke-linejoin="round" d="
			M206.3,298.31c19.08-29.1,38.06-58.27,57.01-87.459"/>
		
			<path fill-rule="evenodd" clip-rule="evenodd" fill="none" stroke="#000000" stroke-width="0.5" stroke-linecap="round" stroke-linejoin="round" d="
			M162.44,284.19c29.08-25.96,58.15-51.931,87.26-77.87"/>
		
			<path fill-rule="evenodd" clip-rule="evenodd" fill="none" stroke="#000000" stroke-width="0.5" stroke-linecap="round" stroke-linejoin="round" d="
			M124.93,265.5c38.1-21.39,76.2-42.779,114.31-64.16"/>
		
			<path fill-rule="evenodd" clip-rule="evenodd" fill="none" stroke="#000000" stroke-width="0.5" stroke-linecap="round" stroke-linejoin="round" d="
			M96.82,243.75c44.74-15.94,89.47-31.87,134.2-47.81"/>
		
			<path fill-rule="evenodd" clip-rule="evenodd" fill="none" stroke="#000000" stroke-width="0.5" stroke-linecap="round" stroke-linejoin="round" d="
			M79.17,220.5c48.52-10.12,97.05-20.24,145.57-30.36"/>
		
			<path fill-rule="evenodd" clip-rule="evenodd" fill="none" stroke="#000000" stroke-width="0.5" stroke-linecap="round" stroke-linejoin="round" d="
			M71.78,197.25c49.51-4.45,99.03-8.9,148.54-13.35"/>
		
			<path fill-rule="evenodd" clip-rule="evenodd" fill="none" stroke="#000000" stroke-width="0.5" stroke-linecap="round" stroke-linejoin="round" d="
			M73.55,175.26c48.11,0.61,96.23,1.24,144.34,1.83"/>
		
			<path fill-rule="evenodd" clip-rule="evenodd" fill="none" stroke="#000000" stroke-width="0.5" stroke-linecap="round" stroke-linejoin="round" d="
			M82.62,155.64c45.11,4.6,90.21,9.2,135.32,13.77"/>
		
			<path fill-rule="evenodd" clip-rule="evenodd" fill="none" stroke="#000000" stroke-width="0.5" stroke-linecap="round" stroke-linejoin="round" d="
			M95.61,140c42.26,6.56,84.52,13.11,126.78,19.67"/>
		
			<path fill-rule="evenodd" clip-rule="evenodd" fill="none" stroke="#000000" stroke-width="0.5" stroke-linecap="round" stroke-linejoin="round" d="
			M107.21,128.7c41.51,6.15,83.03,12.3,124.54,18.46"/>
		
			<path fill-rule="evenodd" clip-rule="evenodd" fill="none" stroke="#000000" stroke-width="0.5" stroke-linecap="round" stroke-linejoin="round" d="
			M111.53,121.37c42.69,3.12,85.37,6.3,128.05,9.46"/>
		
			<path fill-rule="evenodd" clip-rule="evenodd" fill="none" stroke="#000000" stroke-width="0.5" stroke-linecap="round" stroke-linejoin="round" d="
			M111.6,116.15c42.83-0.97,85.66-1.88,128.49-2.81"/>
		
			<path fill-rule="evenodd" clip-rule="evenodd" fill="none" stroke="#000000" stroke-width="0.5" stroke-linecap="round" stroke-linejoin="round" d="
			M109.58,111.88c40.86-5.02,81.72-10.03,122.59-15.04"/>
		
			<path fill-rule="evenodd" clip-rule="evenodd" fill="none" stroke="#000000" stroke-width="0.5" stroke-linecap="round" stroke-linejoin="round" d="
			M106.02,108.25c36.82-8.64,73.64-17.28,110.45-25.93"/>
		
			<path fill-rule="evenodd" clip-rule="evenodd" fill="none" stroke="#000000" stroke-width="0.5" stroke-linecap="round" stroke-linejoin="round" d="
			M101.14,105.16c31.03-11.6,62.05-23.19,93.08-34.78"/>
		
			<path fill-rule="evenodd" clip-rule="evenodd" fill="none" stroke="#000000" stroke-width="0.5" stroke-linecap="round" stroke-linejoin="round" d="
			M94.97,102.54c23.95-13.74,47.89-27.48,71.84-41.22"/>
		
			<path fill-rule="evenodd" clip-rule="evenodd" fill="none" stroke="#000000" stroke-width="0.5" stroke-linecap="round" stroke-linejoin="round" d="
			M87.34,100.42c16.16-15.03,32.29-30.09,48.43-45.14"/>
		
			<path fill-rule="evenodd" clip-rule="evenodd" fill="none" stroke="#000000" stroke-width="0.5" stroke-linecap="round" stroke-linejoin="round" d="
			M77.83,98.86c8.37-15.51,16.66-31.06,24.96-46.61"/>
		
			<path fill-rule="evenodd" clip-rule="evenodd" fill="none" stroke="#000000" stroke-width="0.5" stroke-linecap="round" stroke-linejoin="round" d="
			M65.08,98.15c1.77-15.39,3.48-30.78,5.21-46.17"/>
		
			<path fill-rule="evenodd" clip-rule="evenodd" fill="none" stroke="#000000" stroke-width="0.5" stroke-linecap="round" stroke-linejoin="round" d="
			M44.21,57.56c12.58-0.9,25.14-1.6,37.76-1.58c14.66,0.03,29.19,0.82,43.74,2.62c25.31,3.15,55.09,9.77,77.34,24.16
			c11.44,7.39,22.86,18.24,24.76,33.2c1.77,14-5.5,25.47-13.46,35.32c-4.82,5.96-9.61,11.27-10.87,19.53
			c-0.88,5.79,0.27,10.49,2.93,15.56c6.71,12.85,21.02,20.78,33.2,25.92c8.58,3.62,17.37,6.101,26.45,8.03
			c17.601,3.73,35.351,6.63,52.79,11.14c26.819,6.94,51.48,16.8,75.15,31.41c46.55,28.73,82.979,74.83,75.16,134.38"/>
		
			<path fill-rule="evenodd" clip-rule="evenodd" fill="none" stroke="#000000" stroke-width="0.5" stroke-linecap="round" stroke-linejoin="round" d="
			M44.16,61.81c12.48-0.91,24.95-1.62,37.48-1.55c13.91,0.08,27.7,0.91,41.51,2.75c14.42,1.91,28.42,4.79,42.24,9.48
			c11.45,3.89,22.04,8.58,31.8,16.04c10.48,8.01,19.26,19.3,17.89,33.83c-1.4,14.91-11.15,23.07-18.92,33.54
			c-20.09,27.03,5.32,49.53,29.22,60.76c9.23,4.33,18.68,7.57,28.58,9.98c15.84,3.84,31.951,6.27,47.821,9.919
			c26.119,5.991,50.359,14.641,73.68,28.161c22.52,13.05,43.489,30.659,57.609,53.14c14.82,23.569,19.96,48.3,15.58,75.83"/>
		
			<path fill-rule="evenodd" clip-rule="evenodd" fill="none" stroke="#000000" stroke-width="0.5" stroke-linecap="round" stroke-linejoin="round" d="
			M44.11,66.15c12.4-0.92,24.77-1.63,37.22-1.5c13.16,0.14,26.19,1.01,39.23,2.88c14.21,2.04,27.91,5.08,41.38,10.24
			c10.22,3.92,20.94,9.39,29.01,17.17c9.38,9.06,14.25,20.71,9.69,33.83c-2.32,6.64-6.18,11.89-10.63,17.13
			c-4.14,4.86-8.44,9.48-11.51,15.23c-5.54,10.34-5.24,21.26,0.25,31.49c6.93,12.93,20.11,22.101,32.4,28.439
			c9.73,5.031,19.77,8.82,30.3,11.801c14.17,4.01,28.65,6.28,43.01,9.26c12.479,2.59,24.8,5.551,36.909,9.62
			c12.24,4.11,23.971,9.09,35.36,15.2c22.16,11.899,43.07,28.36,57.101,49.92c14.859,22.84,19.459,46.561,14.47,73.3"/>
		
			<path fill-rule="evenodd" clip-rule="evenodd" fill="none" stroke="#000000" stroke-width="0.5" stroke-linecap="round" stroke-linejoin="round" d="
			M44.05,70.58c12.35-0.92,24.67-1.64,37.07-1.43c12.39,0.2,24.63,1.13,36.88,3.05c14.07,2.21,27.51,5.45,40.61,11.33
			c9.28,4.16,19.21,10.13,25.4,18.79c7.52,10.52,6.95,21.67,0.42,32.35c-7.36,12.04-17.77,17.73-22.6,32.13
			c-3.52,10.49-1.78,20.98,3.59,30.33c7.11,12.4,19.35,21.59,31.27,28.299c9.86,5.541,20.11,9.761,30.84,13.241
			c12.94,4.199,26.17,6.8,39.459,9.419c26.03,5.141,46.48,9.66,70.68,21.47c21.82,10.641,42.75,25.831,56.801,46.4
			c15.06,22.03,19.21,44.73,13.649,70.7"/>
		
			<path fill-rule="evenodd" clip-rule="evenodd" fill="none" stroke="#000000" stroke-width="0.5" stroke-linecap="round" stroke-linejoin="round" d="
			M44,75.11c12.33-0.93,24.62-1.66,37-1.35c11.6,0.29,23.04,1.28,34.47,3.27c13.94,2.43,27.02,5.86,39.61,12.8
			c8.2,4.52,17.02,11.23,20.29,20.91c3.91,11.56-1.89,21.41-8.91,29.44c-8.72,9.97-17.96,18.35-20.46,32.88
			c-1.8,10.49,0.87,20.36,6.31,29.2c7.2,11.71,18.52,20.73,29.92,27.63c21.1,12.76,43.26,19.419,66.99,24.38
			c24.83,5.189,45.47,8.22,69.18,18.46c21.44,9.26,42.511,23.12,56.66,42.56c15.34,21.101,19.12,42.74,13.04,67.9"/>
		
			<path fill-rule="evenodd" clip-rule="evenodd" fill="none" stroke="#000000" stroke-width="0.5" stroke-linecap="round" stroke-linejoin="round" d="
			M43.94,79.74c23.19-1.79,45.78-2.27,68.91,2.28c12.71,2.51,27.13,6.81,37.96,14.71c7.44,5.43,13.93,13.32,12.77,23.57
			c-1.28,11.24-10.46,18.77-16.96,25.89c-8.52,9.34-15.14,19.92-15.76,33.28c-0.47,10.26,2.84,19.72,8.31,28.13
			c7.17,11.05,17.66,19.85,28.5,26.84c19.2,12.38,41.88,20.569,63.79,25.96c22.35,5.5,45.24,8.2,67.15,16.13
			c20.98,7.59,42.4,20.11,56.71,38.12c7.22,9.07,12.16,18.42,14.7,29.859c2.73,12.28,1.43,23.37-1.77,35.23"/>
		
			<path fill-rule="evenodd" clip-rule="evenodd" fill="none" stroke="#000000" stroke-width="0.5" stroke-linecap="round" stroke-linejoin="round" d="
			M43.89,84.48c22.38-1.77,44.04-2.35,66.33,2.76c11.43,2.62,25.49,7.23,34.19,16.33c7.38,7.72,8.42,16.73,2.78,25.84
			c-2.58,4.15-5.93,7.49-9.29,10.92c-4.06,4.15-8.01,8.33-11.41,13.07c-6.87,9.57-11,20.58-10.31,32.65
			c0.59,10.32,4.05,18.6,9.72,27.009c7.29,10.781,16.39,18.7,26.96,25.94c18.84,12.9,38.92,20.91,60.58,27.221
			c11.66,3.399,23.49,5.97,35.37,8.39c9.94,2.02,19.859,4,29.65,6.74c20.659,5.779,42.14,16.42,56.89,32.959
			c7.24,8.12,12.29,16.57,15.069,27.221c3.2,12.271,1.661,23.05-1.839,34.8"/>
		
			<path fill-rule="evenodd" clip-rule="evenodd" fill="none" stroke="#000000" stroke-width="0.5" stroke-linecap="round" stroke-linejoin="round" d="
			M43.83,89.31c21.6-1.74,42.31-2.51,63.78,3.46c9.34,2.6,21.82,7.28,27.62,16.54c6.92,11.04-0.65,20.08-7.93,27.39
			c-7.42,7.44-14.59,14.69-19.62,24.23c-5.19,9.87-7.47,20.61-5.87,31.79c3.17,22.19,19.6,39,36.18,50.98
			c17.76,12.851,36.81,21.33,57.41,28.16c10.99,3.64,22.11,6.649,33.39,9.21c9.62,2.18,19.3,4.01,28.92,6.17
			c21.06,4.73,40.91,11.39,57.25,27.09c7.31,7.021,12.54,14.479,15.72,24.24c3.989,12.271,2.199,22.71-1.6,34.38"/>
		
			<path fill-rule="evenodd" clip-rule="evenodd" fill="none" stroke="#000000" stroke-width="0.5" stroke-linecap="round" stroke-linejoin="round" d="
			M43.77,94.25c12.8-1.05,25.45-1.83,38.33-0.42c7.8,0.85,15.34,2.23,22.77,4.91c6.93,2.51,16.42,7.05,19.27,15.19
			c1.47,4.19,0.91,7.45-1.08,11.27c-1.58,3.02-3.77,5.41-6.13,7.79c-3.45,3.49-7.08,6.79-10.44,10.38
			c-35.13,37.5-20.84,76.75,16.48,105.15c32.91,25.039,74.83,37.109,113.68,45.35c20.33,4.31,39.79,7.439,57.351,21.101
			c7.379,5.739,12.91,12.02,16.64,20.77c5.18,12.181,3.239,22.2-0.89,33.86"/>
	</g>
	
		<path fill-rule="evenodd" clip-rule="evenodd" fill="none" stroke="#000000" stroke-width="4" stroke-linecap="round" stroke-linejoin="round" d="
		M43.64,99.19c13.28-1.12,26.28-1.91,39.64,0.35c6.46,1.09,12.52,2.66,18.37,5.83c4.53,2.45,9.84,6.61,10.1,12.64
		c0.2,4.62-2.35,8.06-5.2,11.1c-3.03,3.24-6.37,6.13-9.53,9.22c-3.93,3.82-7.61,7.8-10.96,12.16
		c-12.37,16.09-18.16,35.17-12.66,55.52c5.29,19.59,19.15,35.1,34.21,47.13c30.73,24.56,70.49,38.229,107.47,47.109
		c12.95,3.101,26.06,5.43,38.91,8.99c6.2,1.72,12.15,3.681,17.799,6.931c7.421,4.27,13.4,9.109,17.91,16.659
		c7.04,11.8,5.051,21.32,0.561,33.04c66.34,11.51,132.68,23.021,199.02,34.521c6.33-60.851-30.39-108.79-77.449-139.391
		c-23.99-15.6-49.15-26.399-76.49-34.38c-18.421-5.38-37.19-8.779-55.95-12.47c-8.74-1.71-17.42-3.37-25.86-6.45
		c-7.44-2.73-14.42-5.94-20.92-10.6c-4.84-3.46-8.93-7.18-12-12.43c-2.58-4.42-4.02-9.78-3.02-14.99c0.74-3.81,2.36-6.97,4.5-10.13
		c3.09-4.54,6.78-8.61,9.81-13.19c19.52-29.49,3.84-53.48-23.41-68.99c-23.75-13.51-53.87-20.01-80.27-23.11
		c-15.29-1.79-30.54-2.55-45.92-2.54c-12.74,0.02-25.42,0.72-38.11,1.62C44,68.62,43.82,83.9,43.64,99.19z"/>
	
		<path fill-rule="evenodd" clip-rule="evenodd" fill="none" stroke="#268C00" stroke-width="2" stroke-linecap="round" stroke-linejoin="round" stroke-dasharray="4,4" d="
		M43.64,99.19c23.6-1.93,47.73-2.46,65.16,11.23c125.73,98.79,246.8,188.95,380.479,289.97"/>
	<g>
		<path fill-rule="evenodd" clip-rule="evenodd" fill="#FFFFFF" stroke="#000000" d="M37.24,99.23c-0.02-3.62,2.89-6.57,6.5-6.59
			c3.62-0.02,6.57,2.9,6.59,6.51c0.02,3.61-2.89,6.56-6.51,6.58C40.21,105.75,37.26,102.84,37.24,99.23z"/>
		<g>
			<path d="M45.908,102.74l-0.647-1.796h-3.036l-0.617,1.796H39.86l3.532-8.981h0.689l3.563,8.981H45.908z M43.737,96.468
				l-1.064,3.272h2.129L43.737,96.468z"/>
		</g>
	</g>
	<g>
		<path fill-rule="evenodd" clip-rule="evenodd" fill="#FFFFFF" stroke="#000000" d="M482.61,400.51
			c-0.02-3.609,2.891-6.56,6.5-6.58c3.62-0.02,6.57,2.891,6.59,6.5c0.021,3.621-2.899,6.57-6.51,6.591
			C485.581,407.04,482.629,404.13,482.61,400.51z"/>
		<g>
			<path d="M489.256,404.851h-2.709v-8.854c1.193-0.057,2.03-0.085,2.51-0.085c0.919,0,1.638,0.197,2.156,0.59
				c0.518,0.394,0.777,0.955,0.777,1.685c0,0.701-0.371,1.256-1.113,1.663c1.101,0.383,1.651,1.173,1.651,2.371
				c0,0.806-0.305,1.446-0.913,1.92C491.006,404.613,490.22,404.851,489.256,404.851z M489.021,397.224
				c-0.246,0-0.547,0.011-0.901,0.03v2.123c0.242,0.016,0.496,0.024,0.762,0.024c1.024,0,1.536-0.386,1.536-1.155
				C490.417,397.564,489.953,397.224,489.021,397.224L489.021,397.224z M488.912,400.586c-0.153,0-0.417,0.007-0.792,0.019v2.927
				c0.318,0.028,0.576,0.043,0.774,0.043c0.701,0,1.21-0.119,1.526-0.357c0.317-0.237,0.476-0.633,0.476-1.185
				c0-0.504-0.147-0.871-0.441-1.102C490.16,400.701,489.646,400.586,488.912,400.586L488.912,400.586z"/>
		</g>
	</g>
</g>
<g id="Viewport_x5F_FG">
	<rect x="1" y="1" fill-rule="evenodd" clip-rule="evenodd" fill="#0000B0" width="145.5" height="23"/>
	<g>
		<path fill="#FFFFFF" d="M17.204,18.9h-3.098l-2.366-4.969h-0.783V18.9H8.302V6.135h3.566c2.216,0,4.631,0.709,4.631,3.891
			c0,2.253-1.173,3.185-2.438,3.491L17.204,18.9z M12.03,12.162c1.125,0,1.751-0.625,1.751-2.076c0-1.433-0.528-2.142-1.858-2.142
			h-0.973v4.218H12.03z"/>
		<path fill="#FFFFFF" d="M23.836,18.9v-5.627c0-0.783-0.049-1.421-0.279-1.788c-0.173-0.261-0.439-0.424-0.871-0.424
			c-0.342,0-0.708,0.108-1.027,0.291c-0.344,0.2-0.758,0.526-1.102,0.903V18.9h-2.521V5.811h2.521v4.542h0.065
			c0.46-0.341,0.933-0.655,1.427-0.879c0.467-0.22,1.025-0.368,1.598-0.368c0.901,0,1.607,0.261,2.051,0.794
			c0.427,0.525,0.659,1.338,0.659,2.529V18.9H23.836z"/>
		<path fill="#FFFFFF" d="M28,7.398V5.685h2.521v1.713H28z M30.521,18.9H28V9.322h2.521V18.9z"/>
		<path fill="#FFFFFF" d="M38.038,18.9v-5.632c0-0.784-0.049-1.406-0.279-1.772c-0.173-0.261-0.435-0.435-0.882-0.435
			c-0.342,0-0.698,0.113-1.017,0.291c-0.344,0.2-0.757,0.526-1.102,0.903V18.9h-2.521V9.322h2.521l-0.026,1.036h0.088
			c0.46-0.341,0.937-0.655,1.43-0.884c0.467-0.22,1.025-0.368,1.598-0.368c0.901,0,1.607,0.261,2.051,0.794
			c0.427,0.525,0.659,1.338,0.659,2.529V18.9H38.038z"/>
		<path fill="#FFFFFF" d="M50.727,14.132c0,3.121-1.461,4.984-4.427,4.984c-3.089,0-4.43-1.906-4.43-5.002
			c0-3.663,1.88-5.009,4.43-5.009c2.547,0,4.427,1.346,4.427,5.009V14.132z M46.317,17.522c1.044,0,1.827-1.084,1.827-3.404
			c0-2.508-0.885-3.418-1.845-3.418c-0.963,0-1.848,0.939-1.848,3.418c0,2.47,0.815,3.404,1.848,3.404H46.317z"/>
		<path fill="#FFFFFF" d="M60.157,17.173c0.265-1.634,0.527-2.904,0.802-4.2l1.26-6.838h2.742L61.775,18.9h-3.361l-3.19-12.766
			h2.742l1.258,6.859c0.269,1.285,0.543,2.544,0.808,4.179H60.157z"/>
		<path fill="#FFFFFF" d="M65.943,7.398V5.685h2.521v1.713H65.943z M68.464,18.9h-2.521V9.322h2.521V18.9z"/>
		<path fill="#FFFFFF" d="M72.365,14.608c0.1,2.282,0.704,3.029,1.545,3.029c0.68,0,1.104-0.49,1.367-1.367l2.597,0.091
			c-0.2,0.645-0.587,1.323-1.249,1.878c-0.653,0.535-1.531,0.877-2.747,0.877c-1.098,0-2.174-0.283-2.938-1.114
			c-0.726-0.785-1.16-2.029-1.16-3.948c0-1.628,0.378-2.997,1.206-3.858c0.677-0.698,1.617-1.091,2.868-1.091
			c1.092,0,2.04,0.334,2.767,1.119c0.902,1.038,1.249,2.508,1.249,4.383H72.365z M75.279,13.331
			c-0.137-1.89-0.699-2.746-1.433-2.746c-0.71,0-1.373,0.582-1.484,2.746H75.279z"/>
		<path fill="#FFFFFF" d="M84.912,11.31c-0.185,1.538-0.363,2.551-0.563,3.808l-0.67,3.783h-3.014l-2.236-9.579h2.369l0.688,3.827
			c0.206,1.092,0.417,2.395,0.615,3.891h0.095c0.208-1.486,0.393-2.7,0.603-3.894l0.668-3.824h2.978l0.664,3.833
			c0.203,1.197,0.407,2.456,0.597,3.885h0.094c0.209-1.517,0.412-2.729,0.623-3.947l0.692-3.771h2.367L89.248,18.9h-3.017
			l-0.659-3.831c-0.202-1.285-0.376-2.275-0.566-3.76H84.912z"/>
		<path fill="#FFFFFF" d="M92.513,9.322h2.521l-0.023,0.752h0.051c0.278-0.225,0.599-0.494,1.036-0.688
			c0.413-0.164,0.874-0.281,1.455-0.281c1.023,0,1.91,0.327,2.606,1.117c0.653,0.776,1.104,2.004,1.104,3.876
			c0,1.772-0.406,3.077-1.035,3.846c-0.63,0.751-1.534,1.172-2.724,1.172c-0.402,0-0.841-0.043-1.333-0.23
			c-0.37-0.141-0.739-0.357-1.103-0.652h-0.035v5.131h-2.521V9.322z M95.034,16.324c0.238,0.324,0.53,0.572,0.862,0.743
			c0.306,0.167,0.654,0.259,1.022,0.259c0.496,0,0.964-0.209,1.292-0.67c0.268-0.405,0.47-1.144,0.47-2.512
			c0-1.202-0.17-2.01-0.481-2.54c-0.3-0.462-0.749-0.707-1.293-0.707c-0.288,0-0.621,0.06-0.974,0.231
			c-0.308,0.155-0.616,0.419-0.898,0.785V16.324z"/>
		<path fill="#FFFFFF" d="M111.188,14.132c0,3.121-1.461,4.984-4.428,4.984c-3.089,0-4.43-1.906-4.43-5.002
			c0-3.663,1.88-5.009,4.43-5.009c2.547,0,4.428,1.346,4.428,5.009V14.132z M106.778,17.522c1.044,0,1.827-1.084,1.827-3.404
			c0-2.508-0.885-3.418-1.845-3.418c-0.963,0-1.848,0.939-1.848,3.418c0,2.47,0.816,3.404,1.848,3.404H106.778z"/>
		<path fill="#FFFFFF" d="M114.917,10.166c0.201-0.276,0.424-0.543,0.704-0.747c0.264-0.184,0.569-0.313,0.941-0.313
			c0.195,0,0.376,0.024,0.538,0.072c0.148,0.044,0.28,0.102,0.409,0.184l-0.201,2.09c-0.091-0.097-0.202-0.173-0.329-0.242
			c-0.164-0.075-0.319-0.112-0.498-0.112c-0.256,0-0.502,0.098-0.826,0.379c-0.26,0.229-0.512,0.551-0.769,0.964v6.46h-2.521V9.322
			h2.521l-0.024,0.844H114.917z"/>
		<path fill="#FFFFFF" d="M118.759,7.196h2.521v2.125h1.542v1.62h-1.542v4.361c0,1.409,0.266,2.112,0.89,2.112
			c0.389,0,0.715-0.21,0.925-0.377l0.376,1.621c-0.529,0.239-1.112,0.458-1.903,0.458c-1.814,0-2.809-0.917-2.809-3.248v-4.927
			h-0.937v-1.62h0.937V7.196z"/>
	</g>
	
		<rect x="1" y="1" fill-rule="evenodd" clip-rule="evenodd" fill="none" stroke="#000000" stroke-width="2" stroke-linecap="round" width="519.28" height="415.41"/>
</g>
</svg>
