<?xml version="1.0" encoding="utf-8"?>
<!-- Generator: Adobe Illustrator 14.0.0, SVG Export Plug-In . SVG Version: 6.00 Build 43363)  -->
<!DOCTYPE svg PUBLIC "-//W3C//DTD SVG 1.0//EN" "http://www.w3.org/TR/2001/REC-SVG-20010904/DTD/svg10.dtd">
<svg version="1.0" xmlns="http://www.w3.org/2000/svg" xmlns:xlink="http://www.w3.org/1999/xlink" x="0px" y="0px"
	 width="563.761px" height="149.732px" viewBox="0 0 563.761 149.732" enable-background="new 0 0 563.761 149.732"
	 xml:space="preserve">
<g id="Layer_1">
	<g opacity="0.25">
		
			<line fill-rule="evenodd" clip-rule="evenodd" fill="none" stroke="#000000" stroke-width="0.5" stroke-linecap="round" stroke-linejoin="round" x1="326.805" y1="59.252" x2="411.985" y2="59.212"/>
		
			<line fill-rule="evenodd" clip-rule="evenodd" fill="none" stroke="#000000" stroke-linecap="round" stroke-linejoin="round" x1="369.435" y1="144.412" x2="369.416" y2="101.821"/>
		
			<line fill-rule="evenodd" clip-rule="evenodd" fill="none" stroke="#000000" stroke-width="0.5" stroke-linecap="round" stroke-linejoin="round" x1="326.835" y1="130.232" x2="412.015" y2="130.191"/>
		
			<line fill-rule="evenodd" clip-rule="evenodd" fill="none" stroke="#000000" stroke-width="0.5" stroke-linecap="round" stroke-linejoin="round" x1="326.835" y1="116.042" x2="412.015" y2="115.992"/>
		
			<line fill-rule="evenodd" clip-rule="evenodd" fill="none" stroke="#000000" stroke-width="0.5" stroke-linecap="round" stroke-linejoin="round" x1="326.815" y1="87.642" x2="411.995" y2="87.602"/>
		
			<line fill-rule="evenodd" clip-rule="evenodd" fill="none" stroke="#000000" stroke-width="0.5" stroke-linecap="round" stroke-linejoin="round" x1="326.805" y1="73.452" x2="411.985" y2="73.402"/>
		
			<line fill-rule="evenodd" clip-rule="evenodd" fill="none" stroke="#000000" stroke-width="0.5" stroke-linecap="round" stroke-linejoin="round" x1="326.845" y1="144.433" x2="412.025" y2="144.392"/>
		
			<line fill-rule="evenodd" clip-rule="evenodd" fill="none" stroke="#000000" stroke-width="0.5" stroke-linecap="round" stroke-linejoin="round" x1="412.025" y1="144.392" x2="411.985" y2="59.212"/>
		
			<line fill-rule="evenodd" clip-rule="evenodd" fill="none" stroke="#000000" stroke-linecap="round" stroke-linejoin="round" x1="369.416" y1="101.821" x2="412.005" y2="101.802"/>
		
			<line fill-rule="evenodd" clip-rule="evenodd" fill="none" stroke="#000000" stroke-width="0.5" stroke-linecap="round" stroke-linejoin="round" x1="383.634" y1="144.402" x2="383.585" y2="59.222"/>
		
			<line fill-rule="evenodd" clip-rule="evenodd" fill="none" stroke="#000000" stroke-width="0.5" stroke-linecap="round" stroke-linejoin="round" x1="355.235" y1="144.422" x2="355.195" y2="59.242"/>
		
			<line fill-rule="evenodd" clip-rule="evenodd" fill="none" stroke="#000000" stroke-width="0.5" stroke-linecap="round" stroke-linejoin="round" x1="341.044" y1="144.422" x2="340.995" y2="59.242"/>
		
			<line fill-rule="evenodd" clip-rule="evenodd" fill="none" stroke="#000000" stroke-width="0.5" stroke-linecap="round" stroke-linejoin="round" x1="397.825" y1="144.392" x2="397.785" y2="59.222"/>
		
			<line fill-rule="evenodd" clip-rule="evenodd" fill="none" stroke="#000000" stroke-width="0.5" stroke-linecap="round" stroke-linejoin="round" x1="326.845" y1="144.433" x2="326.805" y2="59.252"/>
		
			<line fill-rule="evenodd" clip-rule="evenodd" fill="none" stroke="#000000" stroke-linecap="round" stroke-linejoin="round" x1="326.825" y1="101.842" x2="369.416" y2="101.821"/>
		
			<line fill-rule="evenodd" clip-rule="evenodd" fill="none" stroke="#000000" stroke-linecap="round" stroke-linejoin="round" x1="369.416" y1="101.821" x2="369.384" y2="59.232"/>
	</g>
	
		<line fill-rule="evenodd" clip-rule="evenodd" fill="none" stroke="#A100EB" stroke-width="2" stroke-linecap="round" stroke-linejoin="round" x1="153.865" y1="57.942" x2="326.134" y2="144.071"/>
	
		<path fill-rule="evenodd" clip-rule="evenodd" fill="none" stroke="#FFB800" stroke-width="2" stroke-linecap="round" stroke-linejoin="round" d="
		M412.265,57.942c0.4,4.86,1.26,9.91,2.52,14.74c1.26,4.839,2.94,9.459,4.99,13.88c2.04,4.42,4.47,8.649,7.23,12.6
		c2.75,3.95,5.83,7.63,9.18,10.979c3.35,3.36,6.97,6.391,10.8,9.07s7.86,4.99,12.04,6.93c4.17,1.93,8.48,3.49,12.859,4.65
		c4.381,1.149,8.82,1.91,13.261,2.279c4.45,0.37,8.88,0.341,13.25-0.069s8.66-1.2,12.819-2.35c4.16-1.15,8.181-2.66,12.011-4.49
		s7.46-3.979,10.85-6.41s6.54-5.15,9.4-8.08c2.86-2.939,5.44-6.101,7.699-9.439c2.271-3.33,4.21-6.841,5.831-10.45
		c1.609-3.62,2.89-7.341,3.83-11.11c0.93-3.78,1.529-7.6,1.779-11.4c0.26-3.81,0.17-7.61-0.24-11.33c-0.41-3.72-1.14-7.37-2.18-10.9
		c-1.04-3.52-2.38-6.92-3.99-10.14c-1.609-3.22-3.49-6.27-5.6-9.1c-2.1-2.84-4.439-5.45-6.971-7.82
		c-2.52-2.37-5.219-4.49-8.069-6.34c-2.84-1.85-5.81-3.43-8.87-4.72s-6.189-2.29-9.359-3.01c-3.17-0.72-6.36-1.14-9.541-1.29
		c-3.17-0.14-6.319,0-9.399,0.41c-3.08,0.41-6.08,1.09-8.971,2.02c-2.89,0.92-5.669,2.1-8.279,3.49c-2.62,1.38-5.08,2.99-7.36,4.78
		c-2.27,1.78-4.36,3.75-6.24,5.86c-1.87,2.11-3.529,4.36-4.97,6.71c-1.43,2.34-2.64,4.79-3.609,7.29c-0.971,2.5-1.7,5.05-2.19,7.61
		c-0.5,2.56-0.76,5.13-0.79,7.67s0.16,5.05,0.57,7.48c0.42,2.44,1.04,4.8,1.85,7.05c0.82,2.26,1.82,4.41,2.99,6.42
		c1.17,2.01,2.5,3.89,3.97,5.6c1.46,1.721,3.06,3.28,4.75,4.66c1.7,1.38,3.49,2.59,5.34,3.61c1.86,1.02,3.771,1.85,5.711,2.5
		c1.939,0.64,3.909,1.1,5.869,1.38c1.95,0.279,3.9,0.37,5.811,0.29c1.899-0.08,3.76-0.34,5.55-0.75s3.51-0.97,5.13-1.681
		c1.62-0.7,3.141-1.539,4.55-2.489c1.41-0.94,2.7-2,3.86-3.15c1.15-1.14,2.18-2.36,3.07-3.64c0.89-1.28,1.64-2.62,2.239-3.98
		c0.61-1.36,1.07-2.75,1.4-4.13c0.319-1.38,0.51-2.76,0.56-4.11c0.061-1.35-0.02-2.68-0.21-3.95c-0.189-1.27-0.5-2.48-0.909-3.63
		c-0.411-1.14-0.92-2.22-1.511-3.2c-0.59-0.99-1.26-1.89-1.989-2.69c-0.73-0.8-1.521-1.51-2.341-2.11s-1.67-1.1-2.54-1.49
		c-0.859-0.39-1.74-0.68-2.609-0.88c-0.87-0.19-1.721-0.28-2.551-0.28c-0.819-0.01-1.62,0.08-2.359,0.24
		c-0.75,0.17-1.44,0.41-2.08,0.72c-0.641,0.31-1.221,0.68-1.71,1.08"/>
	
		<path fill-rule="evenodd" clip-rule="evenodd" fill="none" stroke="#E00000" stroke-width="2" stroke-linecap="round" stroke-linejoin="round" d="
		M67.735,40.722c-0.97-0.36-2.06-0.64-3.18-0.82c-1.12-0.18-2.27-0.25-3.46-0.2c-1.18,0.04-2.39,0.2-3.61,0.48
		c-1.22,0.28-2.43,0.68-3.63,1.21c-1.2,0.53-2.37,1.19-3.5,1.96c-1.13,0.78-2.21,1.68-3.22,2.7c-1.01,1.01-1.939,2.15-2.78,3.38
		c-0.84,1.24-1.58,2.58-2.2,4c-0.62,1.43-1.12,2.94-1.49,4.51c-0.36,1.58-0.59,3.21-0.66,4.89c-0.08,1.68,0,3.39,0.24,5.12
		c0.24,1.72,0.64,3.46,1.21,5.17c0.57,1.71,1.3,3.399,2.19,5.03c0.9,1.64,1.96,3.22,3.18,4.72c1.209,1.49,2.58,2.899,4.1,4.199
		c1.51,1.291,3.16,2.471,4.939,3.5c1.77,1.041,3.66,1.931,5.65,2.651c1.99,0.719,4.08,1.27,6.22,1.64c2.15,0.36,4.36,0.54,6.6,0.51
		c2.24-0.021,4.51-0.25,6.78-0.689c2.26-0.431,4.51-1.07,6.72-1.931c2.21-0.85,4.37-1.91,6.44-3.181
		c2.08-1.259,4.07-2.729,5.93-4.389c1.86-1.65,3.6-3.491,5.18-5.5c1.59-2.011,3.01-4.181,4.24-6.5c1.22-2.31,2.26-4.76,3.08-7.31
		c0.82-2.55,1.43-5.21,1.79-7.93c0.37-2.72,0.49-5.5,0.37-8.31c-0.13-2.8-0.5-5.63-1.13-8.43c-0.64-2.8-1.52-5.57-2.66-8.28
		c-1.14-2.7-2.54-5.33-4.17-7.85c-1.63-2.51-3.5-4.9-5.6-7.14c-2.09-2.23-4.4-4.3-6.91-6.16c-2.5-1.87-5.2-3.54-8.05-4.96
		c-2.85-1.43-5.85-2.61-8.97-3.53c-3.11-0.92-6.34-1.58-9.64-1.94c-3.29-0.36-6.65-0.44-10.02-0.22c-3.36,0.23-6.75,0.75-10.08,1.58
		c-3.34,0.83-6.64,1.96-9.84,3.38c-3.2,1.43-6.3,3.15-9.25,5.15c-2.95,2-5.75,4.28-8.35,6.81c-2.61,2.54-5,5.32-7.161,8.32
		c-2.15,3-4.06,6.22-5.68,9.6c-1.62,3.39-2.95,6.95-3.97,10.63c-1.02,3.68-1.73,7.49-2.09,11.35c-0.37,3.87-0.39,7.8-0.07,11.73
		c0.33,3.93,1,7.87,2.02,11.74c1.02,3.88,2.4,7.7,4.11,11.39c1.71,3.7,3.76,7.27,6.13,10.66c2.37,3.39,5.06,6.601,8.03,9.57
		c2.97,2.97,6.22,5.7,9.72,8.14c3.5,2.44,7.23,4.59,11.16,6.399c3.93,1.82,8.04,3.301,12.29,4.421c4.24,1.12,8.62,1.87,13.05,2.24
		c4.44,0.359,8.94,0.339,13.44-0.08c4.5-0.43,8.99-1.25,13.4-2.47c4.42-1.221,8.76-2.831,12.95-4.831s8.23-4.379,12.06-7.119
		s7.45-5.83,10.78-9.24c3.34-3.41,6.4-7.13,9.12-11.12c2.73-4,5.12-8.26,7.13-12.72c2.02-4.45,3.65-9.09,4.87-13.94
		c1.22-4.85,2.03-9.91,2.38-14.77"/>
	
		<path fill-rule="evenodd" clip-rule="evenodd" fill="none" stroke="#00C442" stroke-width="2" stroke-linecap="round" stroke-linejoin="round" d="
		M412.265,57.942c-47.57,0-86.131,38.56-86.131,86.129"/>
	<path fill-rule="evenodd" clip-rule="evenodd" d="M67.975,38.592c1.36,0,2.46,1.1,2.46,2.46c0,1.36-1.1,2.47-2.46,2.47
		c-1.36,0-2.47-1.11-2.47-2.47C65.505,39.692,66.615,38.592,67.975,38.592z"/>
	<path fill-rule="evenodd" clip-rule="evenodd" d="M326.355,142.092c1.35,0,2.46,1.1,2.46,2.46s-1.11,2.47-2.46,2.47
		c-1.36,0-2.471-1.109-2.471-2.47S324.995,142.092,326.355,142.092z"/>
	<path fill-rule="evenodd" clip-rule="evenodd" d="M412.225,55.472c1.36,0,2.47,1.1,2.47,2.46c0,1.36-1.109,2.46-2.47,2.46
		s-2.46-1.1-2.46-2.46C409.765,56.572,410.865,55.472,412.225,55.472z"/>
	<path fill-rule="evenodd" clip-rule="evenodd" d="M498.105,47.222c1.35,0,2.46,1.1,2.46,2.46c0,1.36-1.11,2.46-2.46,2.46
		c-1.36,0-2.471-1.1-2.471-2.46C495.634,48.322,496.745,47.222,498.105,47.222z"/>
	<path fill-rule="evenodd" clip-rule="evenodd" d="M153.815,55.732c1.36,0,2.46,1.1,2.46,2.46s-1.1,2.47-2.46,2.47
		s-2.47-1.11-2.47-2.47S152.455,55.732,153.815,55.732z"/>
	<g>
		<g>
			<path fill-rule="evenodd" clip-rule="evenodd" d="M74.155,43.942l-0.18,0.87c-0.25,0.07-0.5,0.1-0.74,0.1
				c-0.42,0-0.76-0.1-1.01-0.31c-0.18-0.16-0.28-0.37-0.28-0.64c0-0.14,0.05-0.45,0.16-0.94l0.75-3.62h-0.84l0.17-0.82h0.84
				l0.32-1.53l1.22-0.73l-0.48,2.26h1.04l-0.17,0.82h-1.04l-0.72,3.44c-0.09,0.44-0.13,0.7-0.13,0.79c0,0.12,0.03,0.22,0.1,0.28
				c0.08,0.07,0.19,0.1,0.36,0.1C73.755,44.012,73.965,43.992,74.155,43.942z"/>
			<path fill-rule="evenodd" clip-rule="evenodd" d="M74.855,43.892c0-0.51,0.05-0.92,0.16-1.23c0.1-0.31,0.26-0.55,0.46-0.71
				c0.21-0.17,0.47-0.26,0.78-0.26c0.23,0,0.43,0.05,0.61,0.14c0.17,0.1,0.32,0.23,0.43,0.4c0.11,0.18,0.2,0.39,0.27,0.64
				c0.06,0.25,0.09,0.59,0.09,1.02c0,0.5-0.05,0.91-0.15,1.22c-0.11,0.31-0.26,0.55-0.47,0.72c-0.2,0.16-0.46,0.25-0.78,0.25
				c-0.41,0-0.74-0.15-0.97-0.45C74.995,45.282,74.855,44.692,74.855,43.892z M75.395,43.892c0,0.7,0.09,1.17,0.25,1.41
				c0.17,0.23,0.37,0.35,0.61,0.35c0.24,0,0.45-0.12,0.61-0.36c0.17-0.23,0.25-0.7,0.25-1.4c0-0.71-0.08-1.18-0.25-1.41
				c-0.16-0.23-0.37-0.35-0.61-0.35c-0.25,0-0.44,0.1-0.58,0.31C75.485,42.702,75.395,43.182,75.395,43.892z"/>
		</g>
	</g>
	<g>
		<g>
			<path fill-rule="evenodd" clip-rule="evenodd" d="M135.805,58.192l-0.17,0.87c-0.26,0.07-0.5,0.1-0.74,0.1
				c-0.42,0-0.76-0.1-1.01-0.31c-0.19-0.16-0.28-0.37-0.28-0.64c0-0.14,0.05-0.45,0.15-0.94l0.76-3.62h-0.84l0.17-0.82h0.84
				l0.32-1.53l1.21-0.73l-0.47,2.26h1.04l-0.17,0.82h-1.04l-0.72,3.44c-0.09,0.44-0.14,0.7-0.14,0.79c0,0.12,0.04,0.22,0.11,0.28
				c0.07,0.07,0.19,0.1,0.36,0.1C135.415,58.262,135.625,58.242,135.805,58.192z"/>
			<path fill-rule="evenodd" clip-rule="evenodd" d="M138.505,60.262h-0.53v-3.36c-0.13,0.12-0.29,0.24-0.5,0.36
				c-0.21,0.12-0.39,0.21-0.56,0.27v-0.51c0.3-0.14,0.56-0.3,0.78-0.5c0.22-0.2,0.37-0.39,0.47-0.58h0.34V60.262z"/>
		</g>
	</g>
	<g>
		<g>
			<path fill-rule="evenodd" clip-rule="evenodd" d="M151.895,40.742l-0.17,0.87c-0.26,0.06-0.5,0.1-0.74,0.1
				c-0.42,0-0.76-0.11-1.01-0.31c-0.19-0.16-0.28-0.37-0.28-0.64c0-0.14,0.05-0.45,0.15-0.95l0.76-3.61h-0.84l0.17-0.82h0.84
				l0.32-1.53l1.21-0.73l-0.47,2.26h1.04l-0.18,0.82h-1.03l-0.72,3.44c-0.09,0.44-0.14,0.7-0.14,0.78c0,0.13,0.04,0.22,0.11,0.29
				s0.19,0.1,0.35,0.1C151.505,40.812,151.715,40.792,151.895,40.742z"/>
			<path fill-rule="evenodd" clip-rule="evenodd" d="M155.375,42.302v0.5h-2.84c0-0.12,0.02-0.25,0.06-0.36
				c0.07-0.2,0.19-0.39,0.35-0.58c0.16-0.18,0.39-0.4,0.69-0.65c0.47-0.38,0.78-0.68,0.95-0.91c0.16-0.22,0.24-0.43,0.24-0.63
				c0-0.21-0.07-0.38-0.22-0.53c-0.15-0.14-0.35-0.21-0.59-0.21c-0.25,0-0.45,0.07-0.61,0.22c-0.15,0.16-0.23,0.37-0.23,0.64
				l-0.54-0.06c0.04-0.4,0.18-0.71,0.42-0.92c0.24-0.21,0.57-0.32,0.97-0.32c0.42,0,0.74,0.11,0.98,0.34
				c0.24,0.23,0.36,0.51,0.36,0.85c0,0.17-0.03,0.34-0.1,0.51c-0.07,0.16-0.19,0.34-0.35,0.52c-0.17,0.19-0.44,0.44-0.82,0.76
				c-0.31,0.26-0.51,0.44-0.6,0.54c-0.09,0.09-0.17,0.19-0.23,0.29H155.375z"/>
		</g>
	</g>
	<g>
		<g>
			<path fill-rule="evenodd" clip-rule="evenodd" d="M332.525,147.592l-0.17,0.87c-0.26,0.07-0.5,0.101-0.74,0.101
				c-0.42,0-0.76-0.101-1.01-0.311c-0.189-0.16-0.28-0.37-0.28-0.64c0-0.14,0.05-0.45,0.15-0.94l0.76-3.62h-0.84l0.17-0.819h0.84
				l0.32-1.53l1.21-0.729l-0.47,2.26h1.04l-0.181,0.819h-1.03l-0.72,3.44c-0.09,0.44-0.14,0.699-0.14,0.79
				c0,0.12,0.04,0.22,0.109,0.28c0.07,0.069,0.19,0.1,0.351,0.1C332.134,147.662,332.345,147.642,332.525,147.592z"/>
			<path fill-rule="evenodd" clip-rule="evenodd" d="M333.235,148.521l0.53-0.069c0.06,0.3,0.159,0.521,0.31,0.649
				c0.141,0.131,0.32,0.2,0.53,0.2c0.25,0,0.46-0.09,0.63-0.26s0.25-0.39,0.25-0.64c0-0.24-0.08-0.44-0.229-0.601
				c-0.16-0.16-0.36-0.239-0.61-0.239c-0.101,0-0.221,0.02-0.37,0.06l0.061-0.46c0.029,0,0.06,0.01,0.08,0.01
				c0.229,0,0.43-0.06,0.609-0.18s0.27-0.301,0.27-0.54c0-0.2-0.069-0.36-0.199-0.479c-0.13-0.131-0.301-0.19-0.5-0.19
				c-0.211,0-0.38,0.06-0.521,0.19c-0.13,0.129-0.22,0.319-0.26,0.579l-0.529-0.09c0.069-0.36,0.209-0.63,0.439-0.82
				c0.229-0.2,0.52-0.3,0.86-0.3c0.229,0,0.449,0.05,0.64,0.15c0.199,0.109,0.35,0.24,0.46,0.42c0.1,0.17,0.15,0.35,0.15,0.55
				c0,0.19-0.051,0.351-0.15,0.511c-0.1,0.149-0.24,0.27-0.44,0.359c0.25,0.06,0.45,0.18,0.591,0.359
				c0.14,0.19,0.209,0.421,0.209,0.7c0,0.37-0.129,0.69-0.41,0.95c-0.27,0.26-0.619,0.391-1.029,0.391
				c-0.38,0-0.689-0.11-0.939-0.33C333.416,149.172,333.275,148.882,333.235,148.521z"/>
		</g>
	</g>
	<g>
		<g>
			<path fill-rule="evenodd" clip-rule="evenodd" d="M418.174,60.142l-0.169,0.87c-0.261,0.07-0.5,0.1-0.74,0.1
				c-0.42,0-0.76-0.1-1.01-0.31c-0.19-0.16-0.28-0.37-0.28-0.64c0-0.14,0.05-0.45,0.149-0.94l0.76-3.62h-0.84l0.171-0.82h0.84
				l0.319-1.53l1.211-0.73l-0.471,2.26h1.04l-0.18,0.82h-1.03l-0.72,3.44c-0.091,0.44-0.14,0.7-0.14,0.79
				c0,0.12,0.039,0.22,0.109,0.28c0.07,0.07,0.189,0.1,0.35,0.1C417.785,60.212,417.995,60.192,418.174,60.142z"/>
			<path fill-rule="evenodd" clip-rule="evenodd" d="M420.575,62.212v-1.03h-1.859v-0.49l1.959-2.78h0.431v2.78h0.58v0.49h-0.58
				v1.03H420.575z M420.575,60.692v-1.93l-1.35,1.93H420.575z"/>
		</g>
	</g>
	<g>
		<g>
			<path fill-rule="evenodd" clip-rule="evenodd" d="M493.255,54.672l-0.181,0.86c-0.25,0.07-0.5,0.1-0.739,0.1
				c-0.42,0-0.761-0.1-1.011-0.31c-0.18-0.15-0.28-0.37-0.28-0.63c0-0.14,0.051-0.46,0.16-0.95l0.75-3.61h-0.84l0.17-0.82h0.84
				l0.32-1.53l1.221-0.73l-0.48,2.26h1.05l-0.18,0.82h-1.04l-0.721,3.44c-0.09,0.43-0.129,0.7-0.129,0.78
				c0,0.13,0.029,0.22,0.109,0.29c0.07,0.06,0.189,0.1,0.35,0.1C492.855,54.742,493.065,54.712,493.255,54.672z"/>
			<path fill-rule="evenodd" clip-rule="evenodd" d="M493.955,55.612l0.561-0.05c0.04,0.27,0.13,0.47,0.279,0.61
				c0.15,0.13,0.33,0.2,0.541,0.2c0.26,0,0.47-0.1,0.649-0.29c0.17-0.19,0.26-0.44,0.26-0.76c0-0.3-0.079-0.54-0.25-0.71
				c-0.17-0.17-0.39-0.26-0.67-0.26c-0.17,0-0.319,0.04-0.46,0.11c-0.13,0.08-0.24,0.18-0.32,0.3l-0.489-0.06l0.409-2.21h2.141v0.51
				h-1.721l-0.229,1.15c0.261-0.18,0.53-0.27,0.81-0.27c0.381,0,0.701,0.13,0.951,0.39c0.259,0.26,0.39,0.6,0.39,1
				c0,0.39-0.11,0.73-0.341,1.01c-0.27,0.35-0.649,0.52-1.129,0.52c-0.391,0-0.711-0.11-0.951-0.32
				C494.134,56.262,493.995,55.972,493.955,55.612z"/>
		</g>
	</g>
	<polygon fill-rule="evenodd" clip-rule="evenodd" points="153.975,55.312 151.975,50.642 153.725,50.642 153.725,43.742 
		154.225,43.742 154.225,50.642 155.965,50.642 	"/>
	<polygon fill-rule="evenodd" clip-rule="evenodd" points="146.265,60.042 146.265,58.292 139.365,58.292 139.365,57.792 
		146.265,57.792 146.265,56.042 150.925,58.042 	"/>
</g>
<g id="Guides">
</g>
</svg>
