<?xml version="1.0" encoding="utf-8"?>
<!-- Generator: Adobe Illustrator 14.0.0, SVG Export Plug-In . SVG Version: 6.00 Build 43363)  -->
<!DOCTYPE svg PUBLIC "-//W3C//DTD SVG 1.1//EN" "http://www.w3.org/Graphics/SVG/1.1/DTD/svg11.dtd">
<svg version="1.1" id="Layer_1" xmlns="http://www.w3.org/2000/svg" xmlns:xlink="http://www.w3.org/1999/xlink" x="0px" y="0px"
	 width="469.984px" height="158.96px" viewBox="0 0 469.984 158.96" enable-background="new 0 0 469.984 158.96"
	 xml:space="preserve">
<path fill-rule="evenodd" clip-rule="evenodd" fill="none" stroke="#FF0000" stroke-width="3" stroke-linecap="round" stroke-linejoin="round" d="
	M59.481,22.88c-52.49,78-18.7,95.97,7.98,88.8"/>
<path fill-rule="evenodd" clip-rule="evenodd" fill="none" stroke="#FFB800" stroke-width="3" stroke-linecap="round" stroke-linejoin="round" d="
	M67.461,111.68c26.68-7.16,46.26-39.47,64.6-56.42"/>
<path fill-rule="evenodd" clip-rule="evenodd" fill="none" stroke="#75FF00" stroke-width="3" stroke-linecap="round" stroke-linejoin="round" d="
	M132.062,55.26c18.35-16.94,35.47-18.53,47.29-15.87"/>
<path fill-rule="evenodd" clip-rule="evenodd" fill="none" stroke="#00FF80" stroke-width="3" stroke-linecap="round" stroke-linejoin="round" d="
	M179.352,39.39c11.83,2.66,18.36,9.57,7.94,27.37"/>
<path fill-rule="evenodd" clip-rule="evenodd" fill="none" stroke="#00C7CC" stroke-width="3" stroke-linecap="round" stroke-linejoin="round" d="
	M187.292,66.76c-10.42,17.791-37.79,46.47-27.78,46.64"/>
<path fill-rule="evenodd" clip-rule="evenodd" fill="none" stroke="#001FFF" stroke-width="3" stroke-linecap="round" stroke-linejoin="round" d="
	M159.511,113.4c10.02,0.17,57.42-28.17,94.01-17.13"/>
<path fill-rule="evenodd" clip-rule="evenodd" fill="none" stroke="#B200FF" stroke-width="3" stroke-linecap="round" stroke-linejoin="round" d="
	M253.521,96.27c36.58,11.04,62.34,61.449,194.98-13.189"/>
<path fill-rule="evenodd" clip-rule="evenodd" fill="#FFFFFF" stroke="#000000" stroke-linecap="round" stroke-linejoin="round" d="
	M255.051,95.39c-0.49-0.851-1.569-1.14-2.41-0.65c-0.85,0.49-1.14,1.57-0.65,2.41c0.48,0.851,1.561,1.14,2.411,0.65
	C255.251,97.32,255.542,96.24,255.051,95.39z"/>
<path fill-rule="evenodd" clip-rule="evenodd" fill="#FFFFFF" stroke="#000000" stroke-linecap="round" stroke-linejoin="round" d="
	M161.051,112.52c-0.49-0.851-1.57-1.14-2.42-0.65c-0.85,0.48-1.14,1.561-0.65,2.41c0.49,0.851,1.57,1.14,2.41,0.65
	C161.241,114.45,161.531,113.36,161.051,112.52z"/>
<path fill-rule="evenodd" clip-rule="evenodd" fill="#FFFFFF" stroke="#000000" stroke-linecap="round" stroke-linejoin="round" d="
	M188.821,65.87c-0.48-0.84-1.57-1.13-2.41-0.65c-0.85,0.49-1.14,1.57-0.65,2.42c0.49,0.84,1.57,1.14,2.41,0.65
	C189.021,67.8,189.312,66.72,188.821,65.87z"/>
<path fill-rule="evenodd" clip-rule="evenodd" fill="#FFFFFF" stroke="#000000" stroke-linecap="round" stroke-linejoin="round" d="
	M180.892,38.51c-0.49-0.85-1.57-1.14-2.42-0.65c-0.84,0.49-1.14,1.57-0.65,2.41c0.49,0.85,1.57,1.14,2.42,0.65
	C181.082,40.44,181.372,39.36,180.892,38.51z"/>
<path fill-rule="evenodd" clip-rule="evenodd" fill="#FFFFFF" stroke="#000000" stroke-linecap="round" stroke-linejoin="round" d="
	M133.602,54.38c-0.49-0.84-1.57-1.13-2.42-0.65c-0.84,0.49-1.14,1.57-0.65,2.42c0.49,0.84,1.57,1.13,2.41,0.65
	C133.792,56.31,134.082,55.23,133.602,54.38z"/>
<path fill-rule="evenodd" clip-rule="evenodd" fill="#FFFFFF" stroke="#000000" stroke-linecap="round" stroke-linejoin="round" d="
	M68.991,110.8c-0.48-0.851-1.57-1.141-2.41-0.65c-0.85,0.49-1.14,1.569-0.65,2.42c0.48,0.84,1.57,1.13,2.41,0.649
	C69.191,112.73,69.481,111.65,68.991,110.8z"/>
<polyline fill-rule="evenodd" clip-rule="evenodd" fill="none" stroke="#000000" stroke-width="0.5" stroke-linecap="round" stroke-linejoin="round" stroke-dasharray="0.99,0.99" points="
	59.481,22.88 6.992,100.88 74.571,136.82 133.292,39.91 184.651,35.14 204.241,55.87 122.122,141.91 264.341,56.9 315.861,157.719 
	448.501,83.081 "/>
<path fill-rule="evenodd" clip-rule="evenodd" d="M132.181,39.94c0-0.58,0.47-1.05,1.05-1.05c0.57,0,1.05,0.47,1.05,1.05
	s-0.48,1.05-1.05,1.05C132.651,40.99,132.181,40.52,132.181,39.94z"/>
<path fill-rule="evenodd" clip-rule="evenodd" d="M183.551,35.21c0-0.57,0.47-1.05,1.05-1.05c0.58,0,1.05,0.48,1.05,1.05
	c0,0.58-0.47,1.05-1.05,1.05C184.021,36.26,183.551,35.79,183.551,35.21z"/>
<path fill-rule="evenodd" clip-rule="evenodd" d="M203.431,55.76c0-0.57,0.47-1.05,1.05-1.05c0.57,0,1.05,0.48,1.05,1.05
	c0,0.58-0.48,1.05-1.05,1.05C203.901,56.81,203.431,56.34,203.431,55.76z"/>
<path fill-rule="evenodd" clip-rule="evenodd" d="M121.151,142.01c0-0.57,0.47-1.05,1.05-1.05c0.58,0,1.05,0.479,1.05,1.05
	c0,0.579-0.47,1.05-1.05,1.05C121.622,143.06,121.151,142.589,121.151,142.01z"/>
<path fill-rule="evenodd" clip-rule="evenodd" d="M263.282,56.81c0-0.57,0.47-1.05,1.05-1.05c0.57,0,1.05,0.48,1.05,1.05
	c0,0.58-0.479,1.05-1.05,1.05C263.751,57.86,263.282,57.39,263.282,56.81z"/>
<path fill-rule="evenodd" clip-rule="evenodd" d="M314.732,157.91c0-0.57,0.469-1.05,1.05-1.05c0.569,0,1.05,0.479,1.05,1.05
	c0,0.58-0.48,1.051-1.05,1.051C315.201,158.96,314.732,158.49,314.732,157.91z"/>
<path fill-rule="evenodd" clip-rule="evenodd" d="M73.451,136.91c0-0.57,0.47-1.05,1.05-1.05s1.05,0.479,1.05,1.05
	c0,0.58-0.47,1.051-1.05,1.051S73.451,137.49,73.451,136.91z"/>
<path fill-rule="evenodd" clip-rule="evenodd" d="M5.951,100.91c0-0.57,0.47-1.05,1.05-1.05c0.58,0,1.05,0.479,1.05,1.05
	c0,0.58-0.47,1.051-1.05,1.051C6.421,101.96,5.951,101.49,5.951,100.91z"/>
<path fill-rule="evenodd" clip-rule="evenodd" fill="#FFFFFF" stroke="#000000" stroke-linecap="round" stroke-linejoin="round" d="
	M61.912,20.46c-0.49-0.84-1.57-1.13-2.42-0.65c-0.84,0.49-1.14,1.57-0.65,2.42c0.49,0.84,1.57,1.13,2.42,0.65
	C62.102,22.39,62.392,21.31,61.912,20.46z"/>
<path fill-rule="evenodd" clip-rule="evenodd" fill="#FFFFFF" stroke="#000000" stroke-linecap="round" stroke-linejoin="round" d="
	M58.771,22.09c-0.49-0.84-1.57-1.13-2.41-0.65c-0.85,0.49-1.14,1.57-0.65,2.42c0.48,0.84,1.57,1.14,2.41,0.65
	C58.971,24.02,59.261,22.94,58.771,22.09z"/>
<path fill-rule="evenodd" clip-rule="evenodd" fill="#FFFFFF" stroke="#000000" stroke-linecap="round" stroke-linejoin="round" d="
	M61.872,24.01c-0.49-0.85-1.57-1.14-2.42-0.65c-0.84,0.48-1.13,1.57-0.65,2.41c0.49,0.85,1.57,1.14,2.42,0.65
	C62.062,25.94,62.352,24.85,61.872,24.01z"/>
<path fill-rule="evenodd" clip-rule="evenodd" fill="#FFFFFF" stroke="#000000" stroke-linecap="round" stroke-linejoin="round" d="
	M451.631,81.4c-0.49-0.85-1.57-1.14-2.42-0.65c-0.851,0.49-1.14,1.57-0.65,2.419c0.49,0.841,1.57,1.131,2.421,0.65
	C451.822,83.331,452.111,82.25,451.631,81.4z"/>
<path fill-rule="evenodd" clip-rule="evenodd" fill="#FFFFFF" stroke="#000000" stroke-linecap="round" stroke-linejoin="round" d="
	M448.101,81.16c-0.49-0.85-1.57-1.14-2.41-0.65c-0.85,0.48-1.14,1.56-0.649,2.41c0.479,0.851,1.56,1.141,2.409,0.65
	C448.301,83.081,448.591,82,448.101,81.16z"/>
<path fill-rule="evenodd" clip-rule="evenodd" fill="#FFFFFF" stroke="#000000" stroke-linecap="round" stroke-linejoin="round" d="
	M449.751,84.4c-0.49-0.85-1.57-1.14-2.41-0.649c-0.851,0.489-1.141,1.569-0.65,2.419c0.48,0.841,1.561,1.131,2.41,0.65
	C449.951,86.331,450.241,85.25,449.751,84.4z"/>
<g>
	<path d="M49.826,5.972c0.693,0,1.235,0.248,1.626,0.742C51.917,7.3,52.15,8.272,52.15,9.629c0,1.354-0.234,2.328-0.703,2.92
		c-0.387,0.488-0.928,0.732-1.621,0.732c-0.697,0-1.258-0.268-1.685-0.803s-0.64-1.49-0.64-2.864c0-1.348,0.234-2.318,0.703-2.91
		C48.592,6.216,49.132,5.972,49.826,5.972z M49.826,7.11c-0.166,0-0.314,0.053-0.444,0.159s-0.231,0.295-0.303,0.569
		c-0.094,0.355-0.142,0.952-0.142,1.792s0.042,1.417,0.127,1.731s0.191,0.523,0.32,0.627s0.276,0.156,0.442,0.156
		s0.314-0.053,0.444-0.159s0.231-0.295,0.303-0.569c0.094-0.352,0.142-0.947,0.142-1.787s-0.042-1.417-0.127-1.731
		s-0.191-0.524-0.32-0.63S49.992,7.11,49.826,7.11z"/>
</g>
<g>
	<path d="M67.407,8.58h-1.372V3.409c-0.501,0.469-1.092,0.815-1.772,1.04V3.204c0.358-0.117,0.747-0.339,1.167-0.667
		s0.708-0.709,0.864-1.145h1.113V8.58z"/>
</g>
<g>
	<path d="M78.65,24.186v1.274h-4.81c0.052-0.482,0.208-0.938,0.469-1.37s0.775-1.003,1.543-1.716
		c0.619-0.576,0.998-0.967,1.138-1.172c0.189-0.283,0.283-0.563,0.283-0.84c0-0.306-0.082-0.541-0.247-0.706
		s-0.392-0.247-0.681-0.247c-0.287,0-0.514,0.086-0.684,0.259s-0.267,0.459-0.293,0.859l-1.367-0.137
		c0.082-0.755,0.337-1.297,0.767-1.626s0.967-0.493,1.611-0.493c0.707,0,1.261,0.19,1.665,0.571s0.605,0.854,0.605,1.421
		c0,0.322-0.058,0.629-0.173,0.92s-0.299,0.597-0.549,0.916c-0.166,0.211-0.465,0.516-0.898,0.913s-0.707,0.661-0.823,0.791
		s-0.209,0.257-0.281,0.381H78.65z"/>
</g>
<g>
	<path d="M61.217,96.3l1.328-0.161c0.042,0.339,0.156,0.598,0.342,0.776s0.41,0.269,0.674,0.269c0.283,0,0.521-0.107,0.715-0.322
		s0.291-0.505,0.291-0.869c0-0.345-0.093-0.618-0.278-0.82s-0.412-0.303-0.679-0.303c-0.176,0-0.386,0.034-0.63,0.103l0.151-1.118
		c0.371,0.01,0.654-0.071,0.85-0.241c0.195-0.172,0.293-0.398,0.293-0.682c0-0.241-0.072-0.433-0.215-0.576
		s-0.333-0.215-0.571-0.215c-0.234,0-0.435,0.081-0.601,0.244s-0.267,0.4-0.303,0.713l-1.265-0.215
		c0.088-0.433,0.221-0.779,0.398-1.037c0.177-0.26,0.425-0.463,0.742-0.611c0.317-0.147,0.673-0.222,1.067-0.222
		c0.674,0,1.214,0.215,1.621,0.645c0.335,0.352,0.503,0.749,0.503,1.191c0,0.628-0.343,1.13-1.03,1.504
		c0.41,0.088,0.738,0.285,0.984,0.591s0.369,0.676,0.369,1.108c0,0.628-0.229,1.164-0.688,1.606s-1.03,0.664-1.714,0.664
		c-0.648,0-1.185-0.187-1.611-0.559C61.533,97.39,61.286,96.903,61.217,96.3z"/>
</g>
<g>
	<path d="M141.586,68.81v-1.44h-2.93v-1.201l3.105-4.546h1.152v4.541h0.889v1.206h-0.889v1.44H141.586z M141.586,66.164v-2.446
		l-1.646,2.446H141.586z"/>
</g>
<g>
	<path d="M165.916,55.339l1.367-0.142c0.039,0.309,0.155,0.554,0.347,0.735s0.414,0.271,0.664,0.271
		c0.287,0,0.529-0.116,0.728-0.349s0.298-0.583,0.298-1.052c0-0.439-0.099-0.769-0.295-0.989s-0.453-0.33-0.769-0.33
		c-0.394,0-0.747,0.174-1.06,0.522l-1.113-0.161l0.703-3.726h3.628v1.284h-2.588l-0.215,1.216c0.306-0.153,0.619-0.229,0.938-0.229
		c0.609,0,1.125,0.221,1.548,0.664s0.635,1.017,0.635,1.724c0,0.589-0.171,1.115-0.513,1.577c-0.465,0.631-1.112,0.947-1.938,0.947
		c-0.661,0-1.2-0.177-1.616-0.532S165.997,55.938,165.916,55.339z"/>
</g>
<g>
	<path d="M173.834,65.945l-1.328,0.146c-0.033-0.273-0.117-0.475-0.254-0.605s-0.314-0.195-0.532-0.195
		c-0.29,0-0.535,0.13-0.735,0.391s-0.326,0.802-0.378,1.626c0.342-0.404,0.767-0.605,1.274-0.605c0.573,0,1.063,0.218,1.472,0.654
		s0.613,1,0.613,1.689c0,0.732-0.215,1.32-0.645,1.763s-0.981,0.664-1.655,0.664c-0.723,0-1.317-0.281-1.782-0.842
		s-0.698-1.482-0.698-2.761c0-1.312,0.243-2.257,0.728-2.837s1.115-0.869,1.89-0.869c0.543,0,0.994,0.152,1.35,0.457
		S173.737,65.365,173.834,65.945z M170.724,68.938c0,0.446,0.103,0.79,0.308,1.033s0.439,0.364,0.703,0.364
		c0.254,0,0.465-0.099,0.635-0.298s0.254-0.524,0.254-0.977c0-0.465-0.091-0.807-0.273-1.023s-0.41-0.325-0.684-0.325
		c-0.264,0-0.487,0.104-0.669,0.31S170.724,68.534,170.724,68.938z"/>
</g>
<g>
	<path d="M170.766,97.963v-1.274h4.692v0.996c-0.387,0.381-0.781,0.928-1.182,1.641s-0.706,1.471-0.916,2.273
		c-0.21,0.802-0.313,1.519-0.31,2.15h-1.323c0.023-0.989,0.227-1.999,0.613-3.027s0.901-1.948,1.545-2.759H170.766z"/>
</g>
<g>
	<path d="M247.923,111.887c-0.354-0.149-0.613-0.355-0.773-0.618c-0.162-0.262-0.242-0.549-0.242-0.861
		c0-0.534,0.187-0.975,0.559-1.323c0.373-0.349,0.903-0.522,1.59-0.522c0.681,0,1.209,0.174,1.584,0.522
		c0.377,0.349,0.564,0.789,0.564,1.323c0,0.332-0.086,0.627-0.259,0.887c-0.173,0.258-0.415,0.456-0.728,0.593
		c0.397,0.159,0.699,0.393,0.906,0.698c0.206,0.306,0.31,0.659,0.31,1.06c0,0.661-0.211,1.198-0.632,1.611
		c-0.422,0.413-0.982,0.62-1.683,0.62c-0.651,0-1.193-0.171-1.626-0.513c-0.511-0.403-0.767-0.957-0.767-1.66
		c0-0.388,0.096-0.743,0.288-1.067C247.208,112.313,247.51,112.063,247.923,111.887z M248.08,113.572
		c0,0.378,0.097,0.672,0.291,0.884c0.193,0.212,0.435,0.317,0.725,0.317c0.283,0,0.518-0.102,0.703-0.305
		c0.186-0.204,0.278-0.498,0.278-0.882c0-0.335-0.095-0.604-0.283-0.808c-0.188-0.204-0.428-0.306-0.718-0.306
		c-0.335,0-0.585,0.115-0.75,0.347C248.162,113.051,248.08,113.301,248.08,113.572z M248.207,110.505
		c0,0.273,0.077,0.486,0.232,0.64c0.154,0.153,0.36,0.229,0.617,0.229c0.261,0,0.469-0.077,0.625-0.232
		c0.156-0.154,0.234-0.368,0.234-0.642c0-0.257-0.077-0.463-0.232-0.618c-0.154-0.154-0.358-0.231-0.612-0.231
		c-0.264,0-0.474,0.078-0.63,0.234S248.207,110.249,248.207,110.505z"/>
</g>
<g>
	<path d="M459.237,97.419h-1.372v-5.171c-0.501,0.469-1.092,0.815-1.772,1.04v-1.245c0.358-0.117,0.747-0.339,1.167-0.667
		c0.42-0.326,0.708-0.708,0.864-1.145h1.113V97.419z"/>
	<path d="M464.247,97.419h-1.372v-5.171c-0.501,0.469-1.092,0.815-1.772,1.04v-1.245c0.358-0.117,0.747-0.339,1.167-0.667
		c0.42-0.326,0.708-0.708,0.864-1.145h1.113V97.419z"/>
</g>
<g>
	<path d="M462.796,78.86h-1.372v-5.171c-0.501,0.469-1.092,0.815-1.772,1.04v-1.245c0.358-0.117,0.747-0.339,1.167-0.667
		s0.708-0.709,0.864-1.145h1.113V78.86z"/>
	<path d="M467.167,71.672c0.693,0,1.235,0.248,1.626,0.742c0.466,0.586,0.698,1.558,0.698,2.915c0,1.354-0.234,2.328-0.703,2.92
		c-0.388,0.488-0.928,0.732-1.621,0.732c-0.696,0-1.258-0.268-1.685-0.803s-0.64-1.49-0.64-2.864c0-1.348,0.234-2.318,0.703-2.91
		C465.933,71.917,466.473,71.672,467.167,71.672z M467.167,72.81c-0.166,0-0.314,0.053-0.444,0.159s-0.231,0.295-0.303,0.569
		c-0.095,0.355-0.142,0.952-0.142,1.792s0.042,1.417,0.127,1.731s0.191,0.523,0.319,0.627c0.129,0.104,0.276,0.156,0.442,0.156
		s0.314-0.053,0.444-0.159s0.231-0.295,0.303-0.569c0.095-0.352,0.142-0.947,0.142-1.787s-0.042-1.417-0.127-1.731
		s-0.191-0.524-0.319-0.63C467.48,72.863,467.333,72.81,467.167,72.81z"/>
</g>
<g>
	<path d="M443.645,69.024l1.328-0.146c0.032,0.27,0.117,0.47,0.254,0.601s0.317,0.195,0.542,0.195c0.283,0,0.524-0.13,0.723-0.391
		s0.325-0.801,0.381-1.621c-0.345,0.4-0.776,0.601-1.294,0.601c-0.563,0-1.049-0.217-1.458-0.652c-0.408-0.435-0.612-1-0.612-1.697
		c0-0.726,0.216-1.311,0.647-1.755c0.431-0.444,0.98-0.667,1.647-0.667c0.726,0,1.321,0.281,1.787,0.842s0.698,1.485,0.698,2.771
		c0,1.309-0.242,2.252-0.728,2.832s-1.116,0.869-1.895,0.869c-0.56,0-1.013-0.149-1.357-0.447S443.743,69.617,443.645,69.024z
		 M446.75,66.026c0-0.443-0.102-0.786-0.306-1.03c-0.203-0.244-0.438-0.366-0.705-0.366c-0.254,0-0.465,0.1-0.633,0.3
		c-0.167,0.2-0.251,0.528-0.251,0.984c0,0.462,0.091,0.802,0.273,1.018s0.41,0.325,0.684,0.325c0.264,0,0.485-0.104,0.667-0.313
		C446.66,66.736,446.75,66.43,446.75,66.026z"/>
</g>
<line fill-rule="evenodd" clip-rule="evenodd" fill="none" stroke="#000000" stroke-width="0.5" stroke-linejoin="bevel" x1="51.701" y1="13.69" x2="55.231" y2="19.39"/>
<path fill-rule="evenodd" clip-rule="evenodd" d="M55.801,18.89l-1.28,0.79C54.521,19.68,56.082,20.77,55.801,18.89z"/>
<line fill-rule="evenodd" clip-rule="evenodd" fill="none" stroke="#000000" stroke-width="0.5" stroke-linejoin="bevel" x1="65.651" y1="10.24" x2="62.051" y2="17.29"/>
<path fill-rule="evenodd" clip-rule="evenodd" d="M62.771,17.52l-1.33-0.68C61.441,16.84,61.312,18.74,62.771,17.52z"/>
<line fill-rule="evenodd" clip-rule="evenodd" fill="none" stroke="#000000" stroke-width="0.5" stroke-linejoin="bevel" x1="72.401" y1="23.14" x2="64.832" y2="24.26"/>
<path fill-rule="evenodd" clip-rule="evenodd" d="M65.062,24.99l-0.22-1.48C64.841,23.51,63.221,24.5,65.062,24.99z"/>
<line fill-rule="evenodd" clip-rule="evenodd" fill="none" stroke="#000000" stroke-width="0.5" stroke-linejoin="bevel" x1="64.832" y1="99.41" x2="66.332" y2="107.36"/>
<path fill-rule="evenodd" clip-rule="evenodd" d="M67.042,107.1l-1.47,0.28C65.571,107.38,66.631,108.96,67.042,107.1z"/>
<line fill-rule="evenodd" clip-rule="evenodd" fill="none" stroke="#000000" stroke-width="0.5" stroke-linejoin="bevel" x1="138.781" y1="62.66" x2="134.801" y2="58.16"/>
<path fill-rule="evenodd" clip-rule="evenodd" d="M134.321,58.75l1.12-0.99C135.441,57.76,133.731,56.95,134.321,58.75z"/>
<line fill-rule="evenodd" clip-rule="evenodd" fill="none" stroke="#000000" stroke-width="0.5" stroke-linejoin="bevel" x1="170.951" y1="49.39" x2="176.651" y2="42.71"/>
<path fill-rule="evenodd" clip-rule="evenodd" d="M176.001,42.32l1.14,0.98C177.142,43.3,177.711,41.48,176.001,42.32z"/>
<line fill-rule="evenodd" clip-rule="evenodd" fill="none" stroke="#000000" stroke-width="0.5" stroke-linejoin="bevel" x1="174.931" y1="67.46" x2="183.102" y2="66.71"/>
<path fill-rule="evenodd" clip-rule="evenodd" d="M182.912,65.98l0.13,1.49C183.042,67.47,184.721,66.57,182.912,65.98z"/>
<line fill-rule="evenodd" clip-rule="evenodd" fill="none" stroke="#000000" stroke-width="0.5" stroke-linejoin="bevel" x1="170.201" y1="102.41" x2="162.931" y2="109.39"/>
<path fill-rule="evenodd" clip-rule="evenodd" d="M163.531,109.839l-1.03-1.079C162.501,108.76,161.751,110.51,163.531,109.839z"/>
<line fill-rule="evenodd" clip-rule="evenodd" fill="none" stroke="#000000" stroke-width="0.5" stroke-linejoin="bevel" x1="249.931" y1="107.66" x2="252.102" y2="100.54"/>
<path fill-rule="evenodd" clip-rule="evenodd" d="M251.352,100.44l1.43,0.44C252.782,100.88,252.572,98.99,251.352,100.44z"/>
<line fill-rule="evenodd" clip-rule="evenodd" fill="none" stroke="#000000" stroke-width="0.5" stroke-linejoin="bevel" x1="446.131" y1="72.11" x2="446.201" y2="77.44"/>
<path fill-rule="evenodd" clip-rule="evenodd" d="M446.951,77.3l-1.5,0.03C445.451,77.33,446.221,79.06,446.951,77.3z"/>
<line fill-rule="evenodd" clip-rule="evenodd" fill="none" stroke="#000000" stroke-width="0.5" stroke-linejoin="bevel" x1="459.701" y1="77.36" x2="454.001" y2="80.36"/>
<path fill-rule="evenodd" clip-rule="evenodd" d="M454.461,80.97l-0.7-1.33C453.761,79.64,452.561,81.12,454.461,80.97z"/>
<line fill-rule="evenodd" clip-rule="evenodd" fill="none" stroke="#000000" stroke-width="0.5" stroke-linejoin="bevel" x1="456.332" y1="90.69" x2="451.681" y2="87.56"/>
<path fill-rule="evenodd" clip-rule="evenodd" d="M451.361,88.26l0.84-1.25C452.201,87.01,450.332,86.66,451.361,88.26z"/>
<g>
	<path d="M4.575,103.841H2.012l-0.449,1.045c-0.111,0.257-0.166,0.449-0.166,0.576c0,0.101,0.048,0.189,0.144,0.266
		c0.096,0.077,0.304,0.127,0.623,0.149v0.181H0.078v-0.181c0.277-0.049,0.456-0.112,0.537-0.19c0.166-0.156,0.35-0.474,0.552-0.952
		l2.329-5.449h0.171l2.305,5.508c0.186,0.442,0.354,0.729,0.505,0.862c0.151,0.131,0.362,0.205,0.632,0.222v0.181H4.497v-0.181
		c0.264-0.013,0.442-0.057,0.535-0.132s0.139-0.166,0.139-0.273c0-0.144-0.065-0.369-0.195-0.679L4.575,103.841z M4.438,103.48
		l-1.123-2.676l-1.152,2.676H4.438z"/>
</g>
<g>
	<path d="M76.905,142.648c0.459,0.098,0.802,0.254,1.03,0.469c0.316,0.3,0.474,0.666,0.474,1.099c0,0.329-0.104,0.644-0.313,0.944
		c-0.208,0.302-0.494,0.521-0.857,0.66c-0.363,0.138-0.917,0.207-1.663,0.207h-3.125v-0.181h0.249c0.277,0,0.475-0.088,0.596-0.264
		c0.075-0.114,0.112-0.356,0.112-0.728v-4.277c0-0.41-0.047-0.669-0.142-0.776c-0.127-0.144-0.316-0.215-0.566-0.215h-0.249v-0.181
		h2.861c0.534,0,0.962,0.039,1.284,0.117c0.488,0.117,0.861,0.324,1.118,0.623c0.257,0.297,0.386,0.64,0.386,1.027
		c0,0.332-0.101,0.629-0.303,0.891C77.597,142.327,77.299,142.521,76.905,142.648z M74.346,142.384
		c0.121,0.022,0.258,0.04,0.413,0.051c0.155,0.012,0.325,0.018,0.51,0.018c0.475,0,0.833-0.051,1.072-0.154
		c0.239-0.102,0.422-0.259,0.549-0.471s0.19-0.442,0.19-0.693c0-0.388-0.158-0.718-0.474-0.991s-0.776-0.41-1.382-0.41
		c-0.326,0-0.619,0.036-0.879,0.107V142.384z M74.346,145.548c0.377,0.088,0.75,0.132,1.118,0.132c0.589,0,1.039-0.133,1.348-0.397
		c0.309-0.266,0.464-0.594,0.464-0.984c0-0.257-0.07-0.505-0.21-0.742s-0.368-0.425-0.684-0.562s-0.707-0.205-1.172-0.205
		c-0.202,0-0.375,0.003-0.518,0.01s-0.259,0.018-0.347,0.034V145.548z"/>
</g>
<g>
	<path d="M133.041,30.683l0.151,2.251h-0.151c-0.202-0.674-0.49-1.159-0.864-1.455s-0.824-0.444-1.348-0.444
		c-0.439,0-0.836,0.111-1.191,0.334s-0.634,0.579-0.837,1.067s-0.305,1.095-0.305,1.821c0,0.599,0.096,1.118,0.288,1.558
		s0.481,0.776,0.867,1.011s0.826,0.352,1.321,0.352c0.43,0,0.809-0.092,1.138-0.276s0.69-0.549,1.084-1.096l0.151,0.098
		c-0.332,0.589-0.719,1.021-1.162,1.294s-0.968,0.41-1.577,0.41c-1.097,0-1.947-0.407-2.549-1.221
		c-0.449-0.605-0.674-1.318-0.674-2.139c0-0.661,0.148-1.268,0.444-1.821s0.704-0.982,1.223-1.287s1.086-0.457,1.702-0.457
		c0.479,0,0.951,0.117,1.416,0.352c0.137,0.072,0.234,0.107,0.293,0.107c0.088,0,0.165-0.031,0.229-0.093
		c0.084-0.088,0.145-0.21,0.181-0.366H133.041z"/>
</g>
<g>
	<path d="M182.732,32.68V32.5h0.249c0.28,0,0.479-0.089,0.596-0.269c0.072-0.107,0.107-0.348,0.107-0.723v-4.277
		c0-0.414-0.045-0.672-0.137-0.776c-0.127-0.143-0.316-0.215-0.566-0.215h-0.249v-0.181h2.695c0.99,0,1.742,0.112,2.258,0.337
		s0.931,0.599,1.245,1.123s0.471,1.129,0.471,1.816c0,0.921-0.28,1.691-0.84,2.31c-0.628,0.69-1.585,1.035-2.871,1.035H182.732z
		 M184.622,32.202c0.414,0.091,0.76,0.137,1.04,0.137c0.755,0,1.382-0.265,1.88-0.796s0.747-1.25,0.747-2.158
		c0-0.915-0.249-1.636-0.747-2.163s-1.138-0.791-1.919-0.791c-0.293,0-0.626,0.047-1.001,0.142V32.202z"/>
</g>
</svg>
