<?xml version="1.0" encoding="utf-8"?>
<!-- Generator: Adobe Illustrator 14.0.0, SVG Export Plug-In . SVG Version: 6.00 Build 43363)  -->
<!DOCTYPE svg PUBLIC "-//W3C//DTD SVG 1.0//EN" "http://www.w3.org/TR/2001/REC-SVG-20010904/DTD/svg10.dtd">
<svg version="1.0" id="Layer_1" xmlns="http://www.w3.org/2000/svg" xmlns:xlink="http://www.w3.org/1999/xlink" x="0px" y="0px"
	 width="504.819px" height="150.603px" viewBox="0 0 504.819 150.603" enable-background="new 0 0 504.819 150.603"
	 xml:space="preserve">
<g>
	<g>
		<defs>
			<path id="SVGID_1_" d="M28.557,21.128c-1.73,3.313-3.411,4.285-6.3,6.322c-2.853,2.01-4.016,4.008-5.087,7.23
				c-1.558,4.685-2.814,12.895-3.656,17.694c-1.045,5.941-2.285,11.828-3.705,17.688c-0.927,3.813-3.453,13.71-4.923,17.385
				c11.12,0.256,22.104,1.019,33.09,3c11.93,2.156,20.569,5.206,31.899,9.29c11.188,4.034,20.06,7.27,31.857,9.42
				c11.008,2.009,21.966,2.688,33.123,2.606c-0.961-5.99-1.676-12.011-2.602-18.005c-0.464-2.996-0.938-5.985-1.65-8.941
				c-0.398-1.634-0.911-3.218-1.527-4.78c-0.498-1.26-1.018-2.511-1.409-3.812c-1.416-4.696-1.894-13.252-2.262-18.021
				c-0.349-4.485-1.022-13.617-2.22-18.042c-8.126-0.265-16.137-0.784-24.137-2.538c-8.003-1.757-15.429-4.895-22.988-7.823
				c-8.252-3.192-14.518-5.298-23.286-6.813c-7.682-1.329-15.335-1.863-23.1-1.863C29.302,21.124,28.929,21.124,28.557,21.128"/>
		</defs>
		<clipPath id="SVGID_2_">
			<use xlink:href="#SVGID_1_"  overflow="visible"/>
		</clipPath>
		
			<linearGradient id="SVGID_3_" gradientUnits="userSpaceOnUse" x1="-146.8726" y1="365.958" x2="-145.8726" y2="365.958" gradientTransform="matrix(-101.4875 -87.1852 -87.1852 101.4875 17125.6035 -49831.4023)">
			<stop  offset="0" style="stop-color:#EAEAEA"/>
			<stop  offset="1" style="stop-color:#DDDDDD"/>
		</linearGradient>
		<polygon clip-path="url(#SVGID_2_)" fill="url(#SVGID_3_)" points="79.667,176.086 -39.957,73.322 60.074,-43.118 179.697,59.646 
					"/>
	</g>
	<g>
		<defs>
			<rect id="SVGID_4_" x="4.217" y="20.403" width="131.308" height="91.881"/>
		</defs>
		<clipPath id="SVGID_5_">
			<use xlink:href="#SVGID_4_"  overflow="visible"/>
		</clipPath>
		
			<path clip-path="url(#SVGID_5_)" fill="none" stroke="#000000" stroke-width="0.574" stroke-linecap="round" stroke-linejoin="round" d="
			M4.887,87.447c11.119,0.256,22.104,1.019,33.089,3.001c11.931,2.155,20.569,5.205,31.899,9.289
			c11.188,4.035,20.06,7.27,31.857,9.42c11.008,2.009,21.966,2.688,33.123,2.606c-0.96-5.99-1.676-12.011-2.602-18.004
			c-0.463-2.997-0.938-5.987-1.65-8.942c-0.398-1.634-0.911-3.219-1.527-4.78c-0.498-1.259-1.018-2.511-1.409-3.812
			c-1.416-4.697-1.894-13.251-2.262-18.021c-0.348-4.484-1.022-13.618-2.22-18.043c-8.126-0.264-16.137-0.784-24.136-2.537
			c-8.004-1.757-15.429-4.896-22.989-7.823c-8.252-3.192-14.518-5.298-23.286-6.813c-8.05-1.393-16.069-1.914-24.217-1.859
			c-1.73,3.314-3.411,4.286-6.301,6.322c-2.851,2.01-4.015,4.008-5.086,7.23c-1.558,4.685-2.814,12.895-3.656,17.694
			c-1.045,5.94-2.285,11.827-3.705,17.688C8.883,73.874,6.356,83.773,4.887,87.447z"/>
		
			<path clip-path="url(#SVGID_5_)" fill="none" stroke="#000000" stroke-width="0.142" stroke-linecap="round" stroke-linejoin="round" d="
			M124.582,48.861c-8.631-0.333-17.105-0.818-25.564-3.034c-8.478-2.225-15.961-6.313-23.7-10.078
			c-8.467-4.115-14.92-6.76-24.244-8.566c-8.539-1.658-17.025-2.132-25.687-1.998"/>
		
			<path clip-path="url(#SVGID_5_)" fill="none" stroke="#000000" stroke-width="0.142" stroke-linecap="round" stroke-linejoin="round" d="
			M125.539,59.977c-9.332-0.106-18.296-0.498-27.321-3.717c-9.003-3.211-16.08-8.982-23.75-14.135
			c-8.44-5.664-14.993-9.144-25.005-11.544c-9.122-2.186-18.22-2.771-27.521-2.909"/>
		
			<path clip-path="url(#SVGID_5_)" fill="none" stroke="#000000" stroke-width="0.142" stroke-linecap="round" stroke-linejoin="round" d="
			M126.431,69.883c-9.657,0.115-19.693-0.318-28.921-4.249c-8.712-3.708-16.772-11.432-23.853-17.093
			c-8.452-6.757-15.169-10.855-25.775-13.73c-9.63-2.605-19.291-3.311-29.147-3.72"/>
		
			<path clip-path="url(#SVGID_5_)" fill="none" stroke="#000000" stroke-width="0.142" stroke-linecap="round" stroke-linejoin="round" d="
			M127.586,75.953c-9.898,0.08-20.217-0.379-29.74-4.099c-9.297-3.629-17.377-10.947-24.979-16.758
			c-8.811-6.74-15.712-10.912-26.609-13.81c-9.894-2.634-19.807-3.33-29.924-3.709"/>
		
			<path clip-path="url(#SVGID_5_)" fill="none" stroke="#000000" stroke-width="0.142" stroke-linecap="round" stroke-linejoin="round" d="
			M129.003,79.85c-10.2-0.092-20.091-0.536-30.035-3.54c-10.013-3.023-18.173-8.743-26.777-14.117
			c-9.424-5.886-16.593-9.702-27.574-12.297c-9.99-2.362-19.957-2.967-30.131-3.135"/>
		
			<path clip-path="url(#SVGID_5_)" fill="none" stroke="#000000" stroke-width="0.142" stroke-linecap="round" stroke-linejoin="round" d="
			M130.542,84.58c-10.239-0.19-20.305-0.696-30.387-2.963c-10.713-2.411-18.694-6.44-28.458-11.054
			c-10.074-4.757-17.664-8.06-28.718-10.261c-10.112-2.014-20.194-2.549-30.448-2.588"/>
		
			<path clip-path="url(#SVGID_5_)" fill="none" stroke="#000000" stroke-width="0.142" stroke-linecap="round" stroke-linejoin="round" d="
			M132.065,92.572c-10.472-0.084-20.807-0.578-31.168-2.457c-11.111-2.014-19.386-5.229-29.851-9.163
			c-10.667-4.012-18.655-6.879-29.977-8.822c-10.35-1.78-20.696-2.327-31.157-2.508"/>
		
			<path clip-path="url(#SVGID_5_)" fill="none" stroke="#000000" stroke-width="0.142" stroke-linecap="round" stroke-linejoin="round" d="
			M133.512,102.489c-10.805,0.089-21.457-0.421-32.151-2.205c-11.475-1.909-20.13-4.906-31.057-8.614
			c-11.142-3.778-19.421-6.492-31.107-8.402c-10.667-1.745-21.354-2.377-32.121-2.756"/>
		
			<path clip-path="url(#SVGID_5_)" fill="none" stroke="#000000" stroke-width="0.142" stroke-linecap="round" stroke-linejoin="round" d="
			M19.324,88.129c1.918-4.987,6.798-29.224,7.827-34.364c1.156-5.76,2.213-11.532,3.881-17.189c0.843-2.862,1.792-5.53,3.683-7.953
			c0.8-1.03,1.707-1.972,2.514-2.997c1.03-1.294,1.857-2.675,2.565-4.165"/>
		
			<path clip-path="url(#SVGID_5_)" fill="none" stroke="#000000" stroke-width="0.142" stroke-linecap="round" stroke-linejoin="round" d="
			M34.068,89.794c0.788-2.545,3.02-14.385,3.529-16.976c1.106-5.669,2.235-11.334,3.544-16.96c1.309-5.63,2.775-11.215,4.41-16.761
			c2.185-7.422,2.836-9.187,5.73-16.358"/>
		
			<path clip-path="url(#SVGID_5_)" fill="none" stroke="#000000" stroke-width="0.142" stroke-linecap="round" stroke-linejoin="round" d="
			M48.815,92.844c0.413-1.813,2.507-15.226,2.813-17.059c0.949-5.692,1.998-11.349,3.457-16.941
			c1.454-5.585,3.387-11.023,4.818-16.615c0.724-2.813,1.103-5.646,1.325-8.531c0.226-2.886,0.509-5.715,1.378-8.517"/>
		
			<path clip-path="url(#SVGID_5_)" fill="none" stroke="#000000" stroke-width="0.142" stroke-linecap="round" stroke-linejoin="round" d="
			M63.314,97.396c0.459-2.863,0.723-5.749,1.045-8.627c0.321-2.887,0.651-5.772,1.018-8.651c0.731-5.76,1.596-11.459,3.116-17.09
			c1.512-5.592,3.636-10.958,4.114-16.871c0.372-4.636-0.118-12.7,0.819-17.358"/>
		
			<path clip-path="url(#SVGID_5_)" fill="none" stroke="#000000" stroke-width="0.142" stroke-linecap="round" stroke-linejoin="round" d="
			M77.595,102.497c1.106-11.62,0.827-23.283,3.529-34.835c1.791-7.662,2.132-9.438,2.27-17.331
			c0.069-4.088-0.019-13.427,0.371-17.521"/>
		
			<path clip-path="url(#SVGID_5_)" fill="none" stroke="#000000" stroke-width="0.142" stroke-linecap="round" stroke-linejoin="round" d="
			M91.833,106.96c0.276-11.776-0.092-23.551,1.037-35.332c0.827-8.607,0.896-26.743,0.884-35.354"/>
		
			<path clip-path="url(#SVGID_5_)" fill="none" stroke="#000000" stroke-width="0.142" stroke-linecap="round" stroke-linejoin="round" d="
			M106.206,109.899c-0.306-5.947-0.524-11.903-0.8-17.855c-0.134-2.975-0.276-5.944-0.467-8.914
			c-0.191-2.974-0.566-5.934-0.746-8.907c-0.368-5.959-0.203-11.907-0.211-17.867c-0.007-4.31-0.019-13.553-0.413-17.866"/>
		
			<path clip-path="url(#SVGID_5_)" fill="none" stroke="#000000" stroke-width="0.142" stroke-linecap="round" stroke-linejoin="round" d="
			M120.621,111.4c-0.7-5.982-1.16-11.98-1.768-17.97c-0.307-2.997-0.617-5.991-1.087-8.969c-0.264-1.665-0.62-3.307-1.064-4.938
			c-0.345-1.278-0.701-2.554-0.946-3.858c-0.842-4.505-1.022-13.48-1.183-18.001c-0.149-4.306-0.455-13.729-1.236-18.016"/>
		<path clip-path="url(#SVGID_5_)" fill-rule="evenodd" clip-rule="evenodd" d="M67.257,68.754c-0.073,0.012-0.149,0-0.214-0.046
			c-0.134-0.089-0.169-0.269-0.077-0.398l28.11-41.429l-1.661-1.13l4.91-3.146l-1.11,5.727l-1.665-1.13L67.44,68.632
			C67.395,68.696,67.33,68.738,67.257,68.754"/>
		<path clip-path="url(#SVGID_5_)" fill-rule="evenodd" clip-rule="evenodd" fill="#FFFFFF" d="M66.154,68.467
			c0-0.578,0.475-1.045,1.053-1.045c0.578,0.004,1.045,0.475,1.045,1.053c-0.004,0.578-0.475,1.045-1.053,1.045
			C66.617,69.52,66.15,69.045,66.154,68.467"/>
		
			<circle clip-path="url(#SVGID_5_)" fill="none" stroke="#000000" stroke-width="0.574" stroke-linejoin="bevel" cx="67.203" cy="68.471" r="1.049"/>
	</g>
	<g>
		<defs>
			<path id="SVGID_6_" d="M198.341,21.128c-1.733,3.319-3.415,4.293-6.309,6.33c-2.854,2.014-4.02,4.013-5.093,7.24
				c-1.559,4.69-2.816,12.91-3.659,17.715c-1.047,5.949-2.288,11.843-3.71,17.709c-0.927,3.817-3.457,13.728-4.928,17.406
				c11.133,0.256,22.131,1.02,33.129,3.004c11.945,2.157,20.594,5.212,31.937,9.301c11.202,4.039,20.085,7.277,31.895,9.432
				c11.022,2.012,21.994,2.689,33.164,2.609c-0.962-5.998-1.678-12.025-2.604-18.026c-0.465-3.001-0.94-5.993-1.653-8.952
				c-0.397-1.636-0.911-3.223-1.528-4.787c-0.498-1.26-1.019-2.514-1.41-3.816c-1.418-4.701-1.896-13.268-2.265-18.042
				c-0.349-4.49-1.024-13.635-2.223-18.064c-8.136-0.265-16.156-0.786-24.165-2.541c-8.014-1.758-15.448-4.901-23.017-7.832
				c-8.262-3.196-14.535-5.304-23.314-6.822c-7.686-1.329-15.345-1.866-23.113-1.866C199.097,21.124,198.719,21.126,198.341,21.128"
				/>
		</defs>
		<clipPath id="SVGID_7_">
			<use xlink:href="#SVGID_6_"  overflow="visible"/>
		</clipPath>
		
			<linearGradient id="SVGID_8_" gradientUnits="userSpaceOnUse" x1="-146.8721" y1="365.96" x2="-145.8721" y2="365.96" gradientTransform="matrix(-101.6099 -87.2903 -87.2903 101.6099 17316.1895 -49891.5859)">
			<stop  offset="0" style="stop-color:#EAEAEA"/>
			<stop  offset="1" style="stop-color:#DDDDDD"/>
		</linearGradient>
		<polygon clip-path="url(#SVGID_7_)" fill="url(#SVGID_8_)" points="249.512,176.273 129.746,73.386 229.896,-43.194 
			349.662,59.693 		"/>
	</g>
	<g>
		<defs>
			<rect id="SVGID_9_" x="159.396" y="20.403" width="165.514" height="91.881"/>
		</defs>
		<clipPath id="SVGID_10_">
			<use xlink:href="#SVGID_9_"  overflow="visible"/>
		</clipPath>
		
			<path clip-path="url(#SVGID_10_)" fill="none" stroke="#000000" stroke-width="0.575" stroke-linecap="round" stroke-linejoin="round" d="
			M174.642,87.528c11.132,0.257,22.131,1.019,33.129,3.004c11.945,2.158,20.594,5.212,31.937,9.301
			c11.202,4.039,20.085,7.277,31.896,9.432c11.021,2.012,21.992,2.689,33.164,2.609c-0.963-5.998-1.679-12.025-2.606-18.027
			c-0.464-3-0.939-5.992-1.651-8.951c-0.398-1.637-0.912-3.224-1.529-4.786c-0.498-1.261-1.02-2.515-1.41-3.817
			c-1.418-4.702-1.897-13.267-2.265-18.042c-0.349-4.491-1.024-13.635-2.223-18.064c-8.136-0.265-16.157-0.785-24.166-2.54
			c-8.013-1.76-15.447-4.902-23.016-7.833c-8.262-3.196-14.535-5.304-23.315-6.822c-8.059-1.396-16.087-1.916-24.246-1.862
			c-1.732,3.319-3.414,4.292-6.308,6.331c-2.855,2.013-4.02,4.013-5.093,7.239c-1.559,4.689-2.816,12.91-3.659,17.716
			c-1.046,5.947-2.288,11.841-3.71,17.708C178.643,73.939,176.114,83.85,174.642,87.528z"/>
		
			<path clip-path="url(#SVGID_10_)" fill="none" stroke="#000000" stroke-width="0.142" stroke-linecap="round" stroke-linejoin="round" d="
			M294.481,48.896c-8.642-0.333-17.126-0.82-25.595-3.039c-8.488-2.227-15.98-6.319-23.729-10.091
			c-8.477-4.119-14.938-6.768-24.273-8.575c-8.549-1.66-17.045-2.136-25.718-2.001"/>
		
			<path clip-path="url(#SVGID_10_)" fill="none" stroke="#000000" stroke-width="0.142" stroke-linecap="round" stroke-linejoin="round" d="
			M295.439,60.024c-9.343-0.106-18.318-0.498-27.354-3.721c-9.014-3.215-16.099-8.994-23.779-14.152
			c-8.45-5.672-15.01-9.154-25.035-11.558c-9.132-2.188-18.241-2.775-27.554-2.913"/>
		
			<path clip-path="url(#SVGID_10_)" fill="none" stroke="#000000" stroke-width="0.142" stroke-linecap="round" stroke-linejoin="round" d="
			M296.332,69.942c-9.668,0.115-19.717-0.318-28.955-4.254c-8.723-3.713-16.792-11.446-23.882-17.114
			c-8.461-6.764-15.187-10.868-25.806-13.746c-9.642-2.609-19.314-3.314-29.182-3.725"/>
		
			<path clip-path="url(#SVGID_10_)" fill="none" stroke="#000000" stroke-width="0.142" stroke-linecap="round" stroke-linejoin="round" d="
			M297.49,76.021c-9.91,0.08-20.242-0.379-29.776-4.104c-9.308-3.633-17.398-10.96-25.009-16.778
			c-8.821-6.747-15.731-10.925-26.641-13.825c-9.906-2.638-19.831-3.334-29.96-3.713"/>
		
			<path clip-path="url(#SVGID_10_)" fill="none" stroke="#000000" stroke-width="0.142" stroke-linecap="round" stroke-linejoin="round" d="
			M298.908,79.921c-10.213-0.092-20.115-0.535-30.071-3.545c-10.025-3.026-18.195-8.752-26.81-14.133
			c-9.435-5.894-16.612-9.714-27.607-12.313c-10.002-2.364-19.981-2.971-30.167-3.139"/>
		
			<path clip-path="url(#SVGID_10_)" fill="none" stroke="#000000" stroke-width="0.142" stroke-linecap="round" stroke-linejoin="round" d="
			M300.448,84.658c-10.251-0.192-20.33-0.697-30.424-2.967c-10.726-2.413-18.716-6.449-28.492-11.066
			c-10.086-4.764-17.685-8.071-28.753-10.274c-10.124-2.016-20.218-2.553-30.485-2.591"/>
		
			<path clip-path="url(#SVGID_10_)" fill="none" stroke="#000000" stroke-width="0.142" stroke-linecap="round" stroke-linejoin="round" d="
			M301.974,92.659c-10.485-0.084-20.832-0.579-31.205-2.46c-11.125-2.016-19.41-5.234-29.887-9.174
			c-10.681-4.017-18.678-6.887-30.014-8.834c-10.362-1.782-20.721-2.33-31.194-2.51"/>
		
			<path clip-path="url(#SVGID_10_)" fill="none" stroke="#000000" stroke-width="0.142" stroke-linecap="round" stroke-linejoin="round" d="
			M303.422,102.589c-10.818,0.088-21.482-0.422-32.189-2.207c-11.489-1.913-20.154-4.913-31.095-8.627
			c-11.155-3.782-19.444-6.499-31.144-8.411c-10.68-1.748-21.379-2.38-32.159-2.759"/>
		
			<path clip-path="url(#SVGID_10_)" fill="none" stroke="#000000" stroke-width="0.142" stroke-linecap="round" stroke-linejoin="round" d="
			M189.097,88.21c1.92-4.992,6.806-29.259,7.837-34.404c1.157-5.769,2.215-11.547,3.886-17.211c0.843-2.866,1.793-5.537,3.686-7.963
			c0.801-1.031,1.709-1.974,2.518-3c1.031-1.297,1.858-2.68,2.567-4.17"/>
		
			<path clip-path="url(#SVGID_10_)" fill="none" stroke="#000000" stroke-width="0.142" stroke-linecap="round" stroke-linejoin="round" d="
			M203.858,89.877c0.789-2.548,3.024-14.4,3.533-16.995c1.108-5.676,2.238-11.348,3.549-16.98c1.31-5.637,2.778-11.228,4.415-16.781
			c2.188-7.431,2.839-9.196,5.736-16.379"/>
		
			<path clip-path="url(#SVGID_10_)" fill="none" stroke="#000000" stroke-width="0.142" stroke-linecap="round" stroke-linejoin="round" d="
			M218.624,92.932c0.414-1.816,2.51-15.244,2.817-17.08c0.95-5.698,2-11.362,3.46-16.961c1.456-5.591,3.392-11.037,4.825-16.636
			c0.724-2.816,1.103-5.652,1.326-8.542c0.226-2.89,0.509-5.722,1.379-8.526"/>
		
			<path clip-path="url(#SVGID_10_)" fill="none" stroke="#000000" stroke-width="0.142" stroke-linecap="round" stroke-linejoin="round" d="
			M233.14,97.488c0.46-2.866,0.724-5.756,1.046-8.639c0.322-2.889,0.652-5.778,1.02-8.659c0.731-5.769,1.598-11.475,3.119-17.111
			c1.514-5.6,3.64-10.972,4.12-16.893c0.371-4.641-0.119-12.715,0.82-17.379"/>
		
			<path clip-path="url(#SVGID_10_)" fill="none" stroke="#000000" stroke-width="0.142" stroke-linecap="round" stroke-linejoin="round" d="
			M247.438,102.597c1.107-11.635,0.828-23.312,3.533-34.877c1.794-7.673,2.135-9.45,2.273-17.353
			c0.069-4.092-0.019-13.443,0.371-17.543"/>
		
			<path clip-path="url(#SVGID_10_)" fill="none" stroke="#000000" stroke-width="0.142" stroke-linecap="round" stroke-linejoin="round" d="
			M261.693,107.064c0.276-11.792-0.092-23.579,1.039-35.375c0.827-8.618,0.896-26.774,0.885-35.397"/>
		
			<path clip-path="url(#SVGID_10_)" fill="none" stroke="#000000" stroke-width="0.142" stroke-linecap="round" stroke-linejoin="round" d="
			M276.084,110.008c-0.308-5.955-0.525-11.918-0.802-17.877c-0.134-2.979-0.276-5.951-0.467-8.925
			c-0.192-2.979-0.568-5.94-0.748-8.918c-0.368-5.967-0.203-11.922-0.21-17.889c-0.008-4.314-0.02-13.569-0.414-17.889"/>
		
			<path clip-path="url(#SVGID_10_)" fill="none" stroke="#000000" stroke-width="0.142" stroke-linecap="round" stroke-linejoin="round" d="
			M290.516,111.51c-0.701-5.99-1.161-11.995-1.771-17.992c-0.307-3.001-0.616-5.997-1.089-8.979
			c-0.264-1.667-0.621-3.312-1.064-4.943c-0.346-1.279-0.701-2.556-0.947-3.862c-0.844-4.512-1.023-13.497-1.184-18.023
			c-0.149-4.311-0.457-13.746-1.238-18.038"/>
		
			<path clip-path="url(#SVGID_10_)" fill="none" stroke="#D80000" stroke-width="0.429" stroke-linecap="round" stroke-linejoin="round" stroke-dasharray="0.862,0.862" d="
			M214.5,21.88c1.318,1.869,2.989,3.299,4.71,4.743c1.713,1.438,3.433,2.859,5.012,4.453c3.273,3.3,5.507,6.89,7.048,11.274
			c1.494,4.262,2.226,8.649,3.061,13.045c0.832,4.392,1.671,8.779,2.702,13.133"/>
		
			<path clip-path="url(#SVGID_10_)" fill="none" stroke="#D80000" stroke-width="0.429" stroke-linecap="round" stroke-linejoin="round" stroke-dasharray="0.862,0.862" d="
			M234.328,25.738c0.567,3.579,1.69,7.005,2.506,10.515c0.824,3.538,1.288,7.067,1.38,10.7c0.134,5.228-0.839,16.39-1.18,21.575"/>
		
			<path clip-path="url(#SVGID_10_)" fill="none" stroke="#D80000" stroke-width="0.429" stroke-linecap="round" stroke-linejoin="round" stroke-dasharray="0.862,0.862" d="
			M269.664,37.802c-2.744,2.548-5.296,5.277-7.916,7.937c-2.63,2.663-5.281,5.293-8.083,7.771c-2.802,2.477-5.726,4.806-8.515,7.293
			c-2.79,2.491-5.465,5.093-8.117,7.726"/>
		
			<path clip-path="url(#SVGID_10_)" fill="none" stroke="#D80000" stroke-width="0.429" stroke-linecap="round" stroke-linejoin="round" stroke-dasharray="0.862,0.862" d="
			M264.073,107.67c-9.694-8.561-21.307-28.132-27.04-39.142"/>
		
			<path clip-path="url(#SVGID_10_)" fill="none" stroke="#D80000" stroke-width="0.429" stroke-linecap="round" stroke-linejoin="round" stroke-dasharray="0.862,0.862" d="
			M175.435,85.256c18.594-5.58,42.07-14.03,61.598-16.728"/>
		
			<path clip-path="url(#SVGID_10_)" fill="none" stroke="#D80000" stroke-width="0.429" stroke-linecap="round" stroke-linejoin="round" stroke-dasharray="0.862,0.862" d="
			M213.607,91.709c3.568-3.058,20.107-19.889,23.426-23.181"/>
		
			<path clip-path="url(#SVGID_10_)" fill="none" stroke="#D80000" stroke-width="0.429" stroke-linecap="round" stroke-linejoin="round" stroke-dasharray="0.862,0.862" d="
			M303.732,104.808c-11.48-3.744-24.618-8.868-35.336-14.521c-11.42-6.02-21.484-13.604-31.363-21.759"/>
		
			<path clip-path="url(#SVGID_10_)" fill="none" stroke="#D80000" stroke-width="0.429" stroke-linecap="round" stroke-linejoin="round" stroke-dasharray="0.862,0.862" d="
			M196.167,24.239c5.859,2.044,9.377,2.519,15.011,5.335c4.985,2.495,8.733,5.726,11.895,10.323
			c3.058,4.449,5.089,9.31,7.212,14.195c2.115,4.874,4.292,9.714,6.748,14.436"/>
		
			<path clip-path="url(#SVGID_10_)" fill="none" stroke="#D80000" stroke-width="0.429" stroke-linecap="round" stroke-linejoin="round" stroke-dasharray="0.862,0.862" d="
			M295.479,60.484c-8.037,3.46-19.304,8.442-28.539,8.718c-5.065,0.15-9.959-0.889-14.945-1.283
			c-5.047-0.395-9.971-0.08-14.96,0.609"/>
		
			<path clip-path="url(#SVGID_10_)" fill="none" stroke="#D80000" stroke-width="0.429" stroke-linecap="round" stroke-linejoin="round" stroke-dasharray="0.862,0.862" d="
			M186.706,35.434c9.557,3.652,18.21,8.507,26.58,14.325c8.316,5.779,15.961,12.343,23.748,18.77"/>
		
			<path clip-path="url(#SVGID_10_)" fill="none" stroke="#D80000" stroke-width="0.429" stroke-linecap="round" stroke-linejoin="round" stroke-dasharray="0.862,0.862" d="
			M190.806,28.394c11.447,2.342,18.923,6.871,26.722,15.451c3.541,3.895,6.687,8.079,9.841,12.275
			c3.15,4.191,6.319,8.365,9.665,12.408"/>
		
			<path clip-path="url(#SVGID_10_)" fill="none" stroke="#D80000" stroke-width="0.429" stroke-linecap="round" stroke-linejoin="round" stroke-dasharray="0.862,0.862" d="
			M251.465,31.992c-1.107,3.081-2.341,6.116-3.495,9.178c-1.157,3.066-2.238,6.158-3.38,9.229c-2.288,6.146-4.909,12.14-7.557,18.13
			"/>
		
			<path clip-path="url(#SVGID_10_)" fill="none" stroke="#D80000" stroke-width="0.429" stroke-linecap="round" stroke-linejoin="round" stroke-dasharray="0.862,0.862" d="
			M181.574,61.309c9.389-0.08,18.716,0.165,28.067,1.203c9.929,1.1,17.908,2.9,27.392,6.017"/>
		
			<path clip-path="url(#SVGID_10_)" fill="none" stroke="#D80000" stroke-width="0.429" stroke-linecap="round" stroke-linejoin="round" stroke-dasharray="0.862,0.862" d="
			M225.74,95.009c1.495-4.646,9.335-22.055,11.293-26.48"/>
		
			<path clip-path="url(#SVGID_10_)" fill="none" stroke="#D80000" stroke-width="0.429" stroke-linecap="round" stroke-linejoin="round" stroke-dasharray="0.862,0.862" d="
			M183.904,48.8c9.266,2.112,18.41,4.491,27.381,7.703c9.81,3.515,16.67,6.986,25.748,12.025"/>
		
			<path clip-path="url(#SVGID_10_)" fill="none" stroke="#D80000" stroke-width="0.429" stroke-linecap="round" stroke-linejoin="round" stroke-dasharray="0.862,0.862" d="
			M287.308,111.284c-19.464-9.436-36.911-26.596-50.274-42.756"/>
		
			<path clip-path="url(#SVGID_10_)" fill="none" stroke="#D80000" stroke-width="0.429" stroke-linecap="round" stroke-linejoin="round" stroke-dasharray="0.862,0.862" d="
			M178.938,72.667c18.766-3.28,38.755-6.239,58.096-4.139"/>
		
			<path clip-path="url(#SVGID_10_)" fill="none" stroke="#D80000" stroke-width="0.429" stroke-linecap="round" stroke-linejoin="round" stroke-dasharray="0.862,0.862" d="
			M236.742,98.768c-1.337-6.131-0.103-24.254,0.291-30.239"/>
		
			<path clip-path="url(#SVGID_10_)" fill="none" stroke="#D80000" stroke-width="0.429" stroke-linecap="round" stroke-linejoin="round" stroke-dasharray="0.862,0.862" d="
			M248.683,103.029c-4.744-7.488-9.699-26.266-11.65-34.501"/>
		
			<path clip-path="url(#SVGID_10_)" fill="none" stroke="#D80000" stroke-width="0.429" stroke-linecap="round" stroke-linejoin="round" stroke-dasharray="0.862,0.862" d="
			M297.114,74.563c-10.606,1.525-19.612,2.017-30.289,0.038c-4.998-0.927-9.872-2.337-14.812-3.49
			c-4.951-1.153-9.921-2.035-14.98-2.583"/>
		
			<path clip-path="url(#SVGID_10_)" fill="none" stroke="#D80000" stroke-width="0.429" stroke-linecap="round" stroke-linejoin="round" stroke-dasharray="0.862,0.862" d="
			M197.125,88.973c4.189-1.682,15.995-8.136,19.939-10.251c6.591-3.529,13.175-7.051,19.969-10.193"/>
		
			<path clip-path="url(#SVGID_10_)" fill="none" stroke="#D80000" stroke-width="0.429" stroke-linecap="round" stroke-linejoin="round" stroke-dasharray="0.862,0.862" d="
			M301.759,91.318c-11.401-1.901-22.667-3.939-33.692-7.664c-11.082-3.741-20.942-9.523-31.033-15.126"/>
		
			<path clip-path="url(#SVGID_10_)" fill="none" stroke="#D80000" stroke-width="0.429" stroke-linecap="round" stroke-linejoin="round" stroke-dasharray="0.862,0.862" d="
			M299.629,81.849c-10.8-0.148-21.404-0.636-32.029-3.1c-10.559-2.453-20.361-6.867-30.566-10.221"/>
		
			<path clip-path="url(#SVGID_10_)" fill="none" stroke="#D80000" stroke-width="0.429" stroke-linecap="round" stroke-linejoin="round" stroke-dasharray="0.862,0.862" d="
			M293.481,41.898c-4.511,2.698-8.875,5.614-13.263,8.5c-4.389,2.889-8.746,5.794-13.414,8.25
			c-6.092,3.208-8.288,3.438-14.921,4.771c-5.223,1.051-10.048,2.89-14.85,5.108"/>
	</g>
	<g>
		<defs>
			<rect id="SVGID_11_" x="159.396" y="20.403" width="165.514" height="91.881"/>
		</defs>
		<clipPath id="SVGID_12_">
			<use xlink:href="#SVGID_11_"  overflow="visible"/>
		</clipPath>
		<g clip-path="url(#SVGID_12_)">
			<g>
				<defs>
					<rect id="SVGID_13_" x="163.234" y="43.906" width="158.104" height="56.683"/>
				</defs>
				<clipPath id="SVGID_14_">
					<use xlink:href="#SVGID_13_"  overflow="visible"/>
				</clipPath>
				<g clip-path="url(#SVGID_14_)">
					<defs>
						<rect id="SVGID_15_" x="163.234" y="43.906" width="158.104" height="56.683"/>
					</defs>
					<clipPath id="SVGID_16_">
						<use xlink:href="#SVGID_15_"  overflow="visible"/>
					</clipPath>
					<path clip-path="url(#SVGID_16_)" fill-rule="evenodd" clip-rule="evenodd" fill="#FFACF1" d="M228.979,96.132
						c-17.743-6.239-35.93-8.382-54.336-8.604c4.15-12.577,7.104-25.53,9.262-38.728c11.416,2.51,22.729,5.683,33.838,10.178
						c15.643,6.453,29.232,15.999,44.419,22.457c12.558,4.993,25.901,7.779,39.599,9.883c0.459,2.851,0.885,5.698,1.271,8.546
						l14.4,0.724l3.906-51.998l-158.104-4.684l4.679,49.148L228.979,96.132z"/>
				</g>
			</g>
		</g>
	</g>
	
		<line fill="none" stroke="#000000" stroke-width="0.287" stroke-linecap="round" stroke-linejoin="bevel" stroke-dasharray="0.575,0.575" x1="162.946" y1="40.902" x2="168.284" y2="96.948"/>
	
		<line fill="none" stroke="#000000" stroke-width="0.287" stroke-linecap="round" stroke-linejoin="bevel" stroke-dasharray="0.575,0.575" x1="159.922" y1="43.757" x2="324.385" y2="48.681"/>
	
		<line fill="none" stroke="#000000" stroke-width="0.287" stroke-linecap="round" stroke-linejoin="bevel" stroke-dasharray="0.575,0.575" x1="317.256" y1="103.007" x2="321.475" y2="46.007"/>
	
		<line fill="none" stroke="#000000" stroke-width="0.287" stroke-linecap="round" stroke-linejoin="bevel" stroke-dasharray="0.575,0.575" x1="228.979" y1="96.132" x2="164.939" y2="92.782"/>
	
		<line fill="none" stroke="#000000" stroke-width="0.287" stroke-linecap="round" stroke-linejoin="bevel" stroke-dasharray="0.575,0.575" x1="303.027" y1="99.864" x2="320.004" y2="100.696"/>
	<g>
		<defs>
			<rect id="SVGID_17_" x="159.396" y="20.403" width="165.514" height="91.881"/>
		</defs>
		<clipPath id="SVGID_18_">
			<use xlink:href="#SVGID_17_"  overflow="visible"/>
		</clipPath>
		<path clip-path="url(#SVGID_18_)" fill-rule="evenodd" clip-rule="evenodd" d="M237.087,68.812c-0.073,0.013-0.149,0-0.215-0.046
			c-0.134-0.088-0.168-0.268-0.076-0.398l28.144-41.479l-1.664-1.13l4.918-3.149l-1.112,5.731l-1.667-1.13l-28.143,41.479
			C237.225,68.755,237.16,68.797,237.087,68.812"/>
		<path clip-path="url(#SVGID_18_)" fill-rule="evenodd" clip-rule="evenodd" fill="#FFFFFF" d="M235.983,68.524
			c0-0.579,0.475-1.046,1.054-1.046c0.579,0.004,1.046,0.475,1.046,1.054c-0.004,0.578-0.475,1.046-1.054,1.046
			C236.447,69.578,235.979,69.104,235.983,68.524"/>
		
			<circle clip-path="url(#SVGID_18_)" fill="none" stroke="#000000" stroke-width="0.575" stroke-linejoin="bevel" cx="237.033" cy="68.528" r="1.05"/>
	</g>
	<g>
		<defs>
			<path id="SVGID_19_" d="M396.414,21.122c-1.732,3.319-3.414,4.291-6.309,6.33c-2.854,2.012-4.018,4.012-5.091,7.238
				c-1.56,4.69-2.815,12.908-3.659,17.713c-1.046,5.946-2.287,11.839-3.709,17.705c-0.927,3.816-3.455,13.724-4.928,17.403
				c11.131,0.256,22.128,1.019,33.124,3.004c11.943,2.157,20.59,5.211,31.932,9.299c11.199,4.038,20.081,7.276,31.891,9.429
				c11.018,2.012,21.987,2.69,33.157,2.609c-0.963-5.996-1.679-12.023-2.605-18.023c-0.464-3-0.939-5.992-1.652-8.95
				c-0.397-1.636-0.91-3.223-1.528-4.785c-0.497-1.261-1.02-2.515-1.409-3.816c-1.419-4.702-1.897-13.265-2.266-18.039
				c-0.349-4.491-1.022-13.632-2.223-18.062c-8.134-0.265-16.153-0.785-24.161-2.54c-8.012-1.758-15.444-4.9-23.012-7.831
				c-8.26-3.196-14.532-5.303-23.312-6.821c-7.683-1.33-15.34-1.864-23.106-1.864C397.169,21.12,396.792,21.12,396.414,21.122"/>
		</defs>
		<clipPath id="SVGID_20_">
			<use xlink:href="#SVGID_19_"  overflow="visible"/>
		</clipPath>
		
			<linearGradient id="SVGID_21_" gradientUnits="userSpaceOnUse" x1="-146.8721" y1="365.96" x2="-145.8721" y2="365.96" gradientTransform="matrix(-101.5924 -87.2753 -87.2753 101.5924 17511.332 -49882.957)">
			<stop  offset="0" style="stop-color:#EAEAEA"/>
			<stop  offset="1" style="stop-color:#DDDDDD"/>
		</linearGradient>
		<polygon clip-path="url(#SVGID_20_)" fill="url(#SVGID_21_)" points="447.576,176.241 327.83,73.371 427.964,-43.188 
			547.71,59.682 		"/>
	</g>
	<g>
		<defs>
			<rect id="SVGID_22_" x="343.935" y="2.403" width="159.558" height="134.3"/>
		</defs>
		<clipPath id="SVGID_23_">
			<use xlink:href="#SVGID_22_"  overflow="visible"/>
		</clipPath>
		
			<path clip-path="url(#SVGID_23_)" fill="none" stroke="#000000" stroke-width="0.575" stroke-linecap="round" stroke-linejoin="round" d="
			M372.719,87.512c11.131,0.257,22.127,1.019,33.123,3.004c11.943,2.156,20.591,5.211,31.933,9.299
			c11.199,4.038,20.081,7.275,31.89,9.429c11.019,2.012,21.989,2.69,33.158,2.61c-0.962-5.997-1.678-12.024-2.606-18.024
			c-0.463-3-0.938-5.992-1.65-8.95c-0.399-1.636-0.912-3.223-1.529-4.786c-0.498-1.26-1.02-2.513-1.41-3.815
			c-1.417-4.701-1.896-13.265-2.264-18.039c-0.35-4.49-1.023-13.632-2.224-18.061c-8.134-0.266-16.152-0.786-24.16-2.541
			c-8.013-1.759-15.445-4.9-23.013-7.831c-8.261-3.196-14.533-5.303-23.311-6.82c-8.059-1.395-16.085-1.916-24.242-1.863
			c-1.731,3.319-3.414,4.292-6.308,6.33c-2.854,2.012-4.019,4.012-5.092,7.238c-1.559,4.689-2.815,12.908-3.658,17.713
			c-1.047,5.946-2.287,11.839-3.709,17.705C376.719,73.924,374.189,83.833,372.719,87.512z"/>
		
			<path clip-path="url(#SVGID_23_)" fill="none" stroke="#000000" stroke-width="0.142" stroke-linecap="round" stroke-linejoin="round" d="
			M492.538,48.886c-8.64-0.333-17.123-0.82-25.591-3.038c-8.486-2.226-15.978-6.318-23.725-10.089
			c-8.476-4.119-14.936-6.766-24.269-8.575c-8.548-1.659-17.043-2.134-25.713-2"/>
		
			<path clip-path="url(#SVGID_23_)" fill="none" stroke="#000000" stroke-width="0.142" stroke-linecap="round" stroke-linejoin="round" d="
			M493.496,60.013c-9.341-0.107-18.315-0.498-27.35-3.72c-9.012-3.216-16.096-8.993-23.774-14.15
			c-8.448-5.671-15.008-9.154-25.031-11.556c-9.131-2.188-18.238-2.774-27.549-2.912"/>
		
			<path clip-path="url(#SVGID_23_)" fill="none" stroke="#000000" stroke-width="0.142" stroke-linecap="round" stroke-linejoin="round" d="
			M494.389,69.929c-9.667,0.115-19.713-0.318-28.951-4.253c-8.72-3.713-16.79-11.445-23.878-17.112
			c-8.46-6.762-15.184-10.866-25.801-13.743c-9.64-2.608-19.312-3.313-29.177-3.724"/>
		
			<path clip-path="url(#SVGID_23_)" fill="none" stroke="#000000" stroke-width="0.142" stroke-linecap="round" stroke-linejoin="round" d="
			M495.546,76.005c-9.908,0.08-20.238-0.379-29.771-4.104c-9.307-3.632-17.395-10.958-25.004-16.774
			c-8.819-6.747-15.729-10.924-26.637-13.823c-9.904-2.637-19.828-3.333-29.955-3.714"/>
		
			<path clip-path="url(#SVGID_23_)" fill="none" stroke="#000000" stroke-width="0.142" stroke-linecap="round" stroke-linejoin="round" d="
			M496.964,79.905c-10.211-0.092-20.112-0.535-30.066-3.544c-10.023-3.026-18.192-8.751-26.805-14.131
			c-9.434-5.893-16.61-9.713-27.603-12.31c-10.001-2.364-19.978-2.97-30.162-3.138"/>
		
			<path clip-path="url(#SVGID_23_)" fill="none" stroke="#000000" stroke-width="0.142" stroke-linecap="round" stroke-linejoin="round" d="
			M498.504,84.642c-10.249-0.192-20.326-0.697-30.418-2.966c-10.726-2.413-18.713-6.448-28.488-11.065
			c-10.084-4.763-17.682-8.069-28.747-10.271c-10.123-2.017-20.215-2.553-30.479-2.591"/>
		
			<path clip-path="url(#SVGID_23_)" fill="none" stroke="#000000" stroke-width="0.142" stroke-linecap="round" stroke-linejoin="round" d="
			M500.028,92.642c-10.482-0.084-20.827-0.579-31.199-2.46c-11.123-2.015-19.407-5.234-29.883-9.172
			c-10.678-4.016-18.675-6.886-30.008-8.832c-10.36-1.782-20.717-2.33-31.188-2.51"/>
		
			<path clip-path="url(#SVGID_23_)" fill="none" stroke="#000000" stroke-width="0.142" stroke-linecap="round" stroke-linejoin="round" d="
			M501.477,102.569c-10.815,0.088-21.479-0.421-32.185-2.207c-11.487-1.912-20.15-4.912-31.089-8.625
			c-11.153-3.781-19.441-6.498-31.138-8.41c-10.68-1.747-21.376-2.379-32.154-2.759"/>
		
			<path clip-path="url(#SVGID_23_)" fill="none" stroke="#000000" stroke-width="0.142" stroke-linecap="round" stroke-linejoin="round" d="
			M387.172,88.193c1.92-4.992,6.805-29.254,7.835-34.399c1.158-5.767,2.215-11.545,3.886-17.208
			c0.843-2.865,1.793-5.536,3.685-7.961c0.802-1.03,1.709-1.974,2.519-3.001c1.03-1.295,1.857-2.678,2.566-4.168"/>
		
			<path clip-path="url(#SVGID_23_)" fill="none" stroke="#000000" stroke-width="0.142" stroke-linecap="round" stroke-linejoin="round" d="
			M401.931,89.86c0.789-2.549,3.022-14.399,3.533-16.993c1.106-5.674,2.236-11.345,3.548-16.978
			c1.31-5.636,2.776-11.226,4.414-16.777c2.187-7.431,2.839-9.196,5.734-16.377"/>
		
			<path clip-path="url(#SVGID_23_)" fill="none" stroke="#000000" stroke-width="0.142" stroke-linecap="round" stroke-linejoin="round" d="
			M416.693,92.914c0.414-1.816,2.51-15.242,2.816-17.077c0.949-5.697,2-11.36,3.46-16.958c1.456-5.59,3.391-11.035,4.823-16.633
			c0.725-2.816,1.104-5.651,1.326-8.54c0.227-2.89,0.509-5.722,1.379-8.525"/>
		
			<path clip-path="url(#SVGID_23_)" fill="none" stroke="#000000" stroke-width="0.142" stroke-linecap="round" stroke-linejoin="round" d="
			M431.207,97.47c0.46-2.866,0.724-5.755,1.046-8.637c0.322-2.889,0.651-5.777,1.02-8.658c0.731-5.768,1.598-11.473,3.118-17.108
			c1.514-5.598,3.641-10.97,4.119-16.889c0.372-4.641-0.119-12.713,0.82-17.376"/>
		
			<path clip-path="url(#SVGID_23_)" fill="none" stroke="#000000" stroke-width="0.142" stroke-linecap="round" stroke-linejoin="round" d="
			M445.503,102.577c1.106-11.633,0.827-23.308,3.532-34.871c1.793-7.67,2.135-9.448,2.272-17.35c0.069-4.092-0.02-13.44,0.371-17.54
			"/>
		
			<path clip-path="url(#SVGID_23_)" fill="none" stroke="#000000" stroke-width="0.142" stroke-linecap="round" stroke-linejoin="round" d="
			M459.756,107.044c0.275-11.79-0.092-23.574,1.038-35.368c0.828-8.617,0.896-26.771,0.885-35.392"/>
		
			<path clip-path="url(#SVGID_23_)" fill="none" stroke="#000000" stroke-width="0.142" stroke-linecap="round" stroke-linejoin="round" d="
			M474.143,109.987c-0.307-5.954-0.524-11.916-0.801-17.874c-0.134-2.978-0.275-5.95-0.467-8.925
			c-0.192-2.977-0.567-5.938-0.747-8.916c-0.368-5.965-0.203-11.919-0.211-17.885c-0.008-4.313-0.019-13.566-0.414-17.885"/>
		
			<path clip-path="url(#SVGID_23_)" fill="none" stroke="#000000" stroke-width="0.142" stroke-linecap="round" stroke-linejoin="round" d="
			M488.572,111.489c-0.701-5.989-1.161-11.993-1.77-17.989c-0.308-3-0.617-5.996-1.088-8.978c-0.266-1.667-0.621-3.311-1.065-4.942
			c-0.345-1.28-0.702-2.556-0.947-3.862c-0.843-4.51-1.022-13.495-1.184-18.02c-0.149-4.311-0.456-13.743-1.237-18.034"/>
	</g>
	<g>
		<defs>
			<rect id="SVGID_24_" x="343.935" y="2.403" width="159.558" height="134.3"/>
		</defs>
		<clipPath id="SVGID_25_">
			<use xlink:href="#SVGID_24_"  overflow="visible"/>
		</clipPath>
		<g opacity="0.25" clip-path="url(#SVGID_25_)">
			<g>
				<defs>
					<rect id="SVGID_26_" x="378.878" y="67.107" width="91.041" height="38.54"/>
				</defs>
				<clipPath id="SVGID_27_">
					<use xlink:href="#SVGID_26_"  overflow="visible"/>
				</clipPath>
				<g clip-path="url(#SVGID_27_)">
					<defs>
						<rect id="SVGID_28_" x="378.878" y="67.107" width="91.041" height="38.54"/>
					</defs>
					<clipPath id="SVGID_29_">
						<use xlink:href="#SVGID_28_"  overflow="visible"/>
					</clipPath>
					
						<path clip-path="url(#SVGID_29_)" fill="none" stroke="#000000" stroke-width="0.862" stroke-linecap="round" stroke-linejoin="round" d="
						M453.276,105.217c3.36-2.973,6.494-6.123,9.314-9.675c2.598-3.272,5.158-7.199,6.299-11.337
						c3.414-12.346-8.467-16.059-18.391-16.583c-17.958-0.95-40.828,6.406-56.622,13.25c-4.701,2.033-9.629,4.387-14.567,7.007"/>
				</g>
			</g>
		</g>
		
			<path clip-path="url(#SVGID_25_)" fill="none" stroke="#000000" stroke-width="0.429" stroke-linecap="round" stroke-linejoin="round" stroke-dasharray="0.862,0.862" d="
			M435.05,68.431c-1.188-2.257-2.33-4.536-3.425-6.852c-3.46-7.313-7.468-18.265-13.028-24.675
			c-3.198-3.686-6.881-6.126-11.291-8.069c-4.299-1.893-8.832-2.962-13.261-4.397"/>
		
			<path clip-path="url(#SVGID_25_)" fill="none" stroke="#000000" stroke-width="0.429" stroke-linecap="round" stroke-linejoin="round" stroke-dasharray="0.862,0.862" d="
			M493.492,59.936c-4.74,2.077-9.479,4.139-14.364,5.87c-4.938,1.747-9.79,3.073-15.116,3.181c-5.226,0.103-10.287-1.046-15.46-1.28
			c-4.608-0.21-9.106,0.165-13.628,0.836"/>
		
			<path clip-path="url(#SVGID_25_)" fill="none" stroke="#000000" stroke-width="0.862" stroke-linecap="round" stroke-linejoin="round" stroke-dasharray="0.383,1.533" d="
			M413.662,3.218c0.89,5.379,1.958,10.729,3.212,16.021"/>
		
			<path clip-path="url(#SVGID_25_)" fill="none" stroke="#000000" stroke-width="0.862" stroke-linecap="round" stroke-linejoin="round" d="
			M416.873,19.237c8.641,36.519,26.047,70.492,53.975,95.611"/>
		
			<path clip-path="url(#SVGID_25_)" fill="none" stroke="#000000" stroke-width="0.862" stroke-linecap="round" stroke-linejoin="round" stroke-dasharray="0.383,1.533" d="
			M470.848,114.849c8.924,8.027,18.92,15.15,30.047,21.161"/>
		
			<path clip-path="url(#SVGID_25_)" fill="none" stroke="#000000" stroke-width="0.862" stroke-linecap="round" stroke-linejoin="round" stroke-dasharray="0.383,1.533" d="
			M400.501,136.011c9.591-3.705,19.718-8.491,29.273-14.073"/>
		
			<path clip-path="url(#SVGID_25_)" fill="none" stroke="#000000" stroke-width="0.862" stroke-linecap="round" stroke-linejoin="round" d="
			M429.774,121.938c7.686-4.494,15-9.502,21.38-14.885c0.716-0.606,1.425-1.216,2.122-1.836"/>
		
			<path clip-path="url(#SVGID_25_)" fill="none" stroke="#000000" stroke-width="0.862" stroke-linecap="round" stroke-linejoin="round" d="
			M379.309,87.879c-1.409,0.747-2.823,1.518-4.233,2.308"/>
		
			<path clip-path="url(#SVGID_25_)" fill="none" stroke="#000000" stroke-width="0.862" stroke-linecap="round" stroke-linejoin="round" stroke-dasharray="0.383,1.533" d="
			M375.076,90.186c-11.104,6.234-21.994,13.759-30.326,22.059"/>
		<g clip-path="url(#SVGID_25_)">
			<g>
				<defs>
					<rect id="SVGID_30_" x="403.034" y="26.954" width="32.734" height="42.195"/>
				</defs>
				<clipPath id="SVGID_31_">
					<use xlink:href="#SVGID_30_"  overflow="visible"/>
				</clipPath>
				<g clip-path="url(#SVGID_31_)">
					<defs>
						<rect id="SVGID_32_" x="403.034" y="26.954" width="32.733" height="42.195"/>
					</defs>
					<clipPath id="SVGID_33_">
						<use xlink:href="#SVGID_32_"  overflow="visible"/>
					</clipPath>
					<path clip-path="url(#SVGID_33_)" fill-rule="evenodd" clip-rule="evenodd" fill="#FF0052" d="M435.111,69.146
						c-0.28,0.023-0.559-0.118-0.697-0.383c-1.191-2.261-2.341-4.552-3.44-6.878c-3.511-7.425-7.445-18.199-12.92-24.51
						c-2.725-3.138-5.813-5.36-9.445-7.143l-1.264-0.59l-0.579,1.311l-3.731-4l5.472,0.054l-0.582,1.322l1.32,0.617
						c3.775,1.85,7.024,4.18,9.894,7.486c5.647,6.509,9.729,17.637,13.135,24.835c1.092,2.308,2.229,4.579,3.414,6.828
						c0.184,0.35,0.05,0.786-0.303,0.97C435.295,69.113,435.203,69.139,435.111,69.146"/>
				</g>
			</g>
		</g>
		<g clip-path="url(#SVGID_25_)">
			<g>
				<defs>
					<rect id="SVGID_34_" x="434.206" y="63.894" width="49.323" height="5.817"/>
				</defs>
				<clipPath id="SVGID_35_">
					<use xlink:href="#SVGID_34_"  overflow="visible"/>
				</clipPath>
				<g clip-path="url(#SVGID_35_)">
					<defs>
						<rect id="SVGID_36_" x="434.206" y="63.895" width="49.324" height="5.816"/>
					</defs>
					<clipPath id="SVGID_37_">
						<use xlink:href="#SVGID_36_"  overflow="visible"/>
					</clipPath>
					<path clip-path="url(#SVGID_37_)" fill-rule="evenodd" clip-rule="evenodd" fill="#59F400" d="M463.035,69.71
						c-4.935-0.042-9.709-1.069-14.514-1.287c-4.552-0.207-9,0.164-13.491,0.827c-0.394,0.058-0.758-0.211-0.815-0.604
						c-0.062-0.392,0.211-0.76,0.605-0.816c4.548-0.675,9.096-1.054,13.767-0.843c5.227,0.236,10.25,1.387,15.41,1.279
						c4.89-0.096,9.384-1.245,13.974-2.816l0.579-0.203l-0.479-1.352l5.46,0.352l-4.022,3.709l-0.479-1.356l-0.594,0.207
						c-4.655,1.598-9.312,2.793-14.407,2.896C463.694,69.71,463.364,69.71,463.035,69.71"/>
				</g>
			</g>
		</g>
		<path clip-path="url(#SVGID_25_)" fill-rule="evenodd" clip-rule="evenodd" d="M435.153,68.798c-0.073,0.013-0.148,0-0.215-0.046
			c-0.134-0.088-0.168-0.268-0.076-0.397l28.139-41.474l-1.662-1.13l4.915-3.15l-1.111,5.732l-1.666-1.13l-28.139,41.472
			C435.292,68.741,435.227,68.783,435.153,68.798"/>
		<path clip-path="url(#SVGID_25_)" fill-rule="evenodd" clip-rule="evenodd" fill="#FFFFFF" d="M434.05,68.511
			c0-0.579,0.476-1.046,1.055-1.046c0.577,0.004,1.046,0.475,1.046,1.054c-0.004,0.578-0.476,1.046-1.055,1.046
			C434.514,69.564,434.046,69.09,434.05,68.511"/>
		<path clip-path="url(#SVGID_25_)" fill="none" stroke="#000000" stroke-width="0.575" stroke-linejoin="bevel" d="M434.05,68.511
			c0-0.579,0.476-1.046,1.055-1.046c0.577,0.004,1.046,0.475,1.046,1.054c-0.004,0.578-0.476,1.046-1.055,1.046
			C434.514,69.564,434.046,69.09,434.05,68.511z"/>
	</g>
	<g>
		<path fill="#231F20" d="M54.398,144.602h-1.633v-5.723c0.695-0.034,1.197-0.051,1.504-0.051c0.565,0,1.002,0.122,1.313,0.365
			s0.465,0.592,0.465,1.045c0,0.266-0.099,0.508-0.297,0.727s-0.417,0.355-0.656,0.41c0.453,0.109,0.783,0.29,0.99,0.543
			s0.311,0.597,0.311,1.031c0,0.503-0.184,0.903-0.553,1.203S54.992,144.602,54.398,144.602z M53.546,139.504v1.645
			c0.164,0.016,0.367,0.023,0.609,0.023c0.74,0,1.109-0.301,1.109-0.902c0-0.528-0.34-0.793-1.02-0.793
			C53.985,139.477,53.752,139.485,53.546,139.504z M53.546,141.754v2.184c0.268,0.026,0.474,0.039,0.617,0.039
			c0.49,0,0.847-0.092,1.072-0.275s0.338-0.476,0.338-0.877c0-0.372-0.107-0.647-0.322-0.824s-0.574-0.266-1.076-0.266
			L53.546,141.754z"/>
		<path fill="#231F20" d="M59.597,144.121c-0.297,0.372-0.751,0.559-1.363,0.559c-0.328,0-0.613-0.119-0.854-0.357
			s-0.361-0.534-0.361-0.889c0-0.425,0.186-0.783,0.557-1.076s0.844-0.439,1.42-0.439c0.156,0,0.333,0.034,0.531,0.102
			c0-0.677-0.302-1.016-0.906-1.016c-0.463,0-0.82,0.125-1.07,0.375l-0.313-0.621c0.141-0.114,0.335-0.213,0.584-0.295
			s0.486-0.123,0.713-0.123c0.607,0,1.047,0.138,1.322,0.414s0.412,0.715,0.412,1.316v1.5c0,0.367,0.109,0.612,0.328,0.734v0.371
			c-0.302,0-0.528-0.043-0.678-0.129S59.662,144.319,59.597,144.121z M59.527,142.547c-0.234-0.052-0.398-0.078-0.492-0.078
			c-0.375,0-0.681,0.097-0.918,0.289s-0.355,0.421-0.355,0.684c0,0.435,0.256,0.652,0.77,0.652c0.375,0,0.707-0.179,0.996-0.535
			V142.547z"/>
		<path fill="#231F20" d="M61.164,144.352l0.262-0.703c0.414,0.271,0.748,0.406,1,0.406c0.458,0,0.688-0.192,0.688-0.578
			c0-0.276-0.221-0.513-0.664-0.711c-0.341-0.156-0.571-0.274-0.689-0.355s-0.221-0.173-0.309-0.275s-0.152-0.212-0.195-0.328
			s-0.064-0.24-0.064-0.373c0-0.344,0.125-0.612,0.375-0.805s0.577-0.289,0.98-0.289c0.305,0,0.689,0.097,1.152,0.289l-0.211,0.688
			c-0.294-0.234-0.59-0.352-0.887-0.352c-0.177,0-0.326,0.042-0.447,0.125s-0.182,0.188-0.182,0.316
			c0,0.269,0.152,0.472,0.457,0.609l0.531,0.242c0.326,0.148,0.563,0.317,0.711,0.508s0.223,0.429,0.223,0.715
			c0,0.375-0.131,0.669-0.395,0.881s-0.627,0.318-1.094,0.318C61.966,144.68,61.552,144.57,61.164,144.352z"/>
		<path fill="#231F20" d="M68.199,142.582h-3.016c0,0.489,0.134,0.866,0.402,1.129c0.237,0.229,0.542,0.344,0.914,0.344
			c0.424,0,0.779-0.124,1.063-0.371l0.313,0.535c-0.115,0.114-0.291,0.214-0.527,0.297c-0.297,0.109-0.627,0.164-0.992,0.164
			c-0.526,0-0.973-0.179-1.34-0.535c-0.409-0.394-0.613-0.922-0.613-1.586c0-0.69,0.209-1.243,0.629-1.66
			c0.375-0.372,0.819-0.559,1.332-0.559c0.596,0,1.064,0.168,1.402,0.504c0.328,0.323,0.492,0.751,0.492,1.285
			C68.257,142.293,68.238,142.444,68.199,142.582z M66.398,140.965c-0.331,0-0.608,0.106-0.832,0.32
			c-0.213,0.203-0.334,0.456-0.363,0.758h2.316c0-0.3-0.094-0.55-0.281-0.75C67.032,141.074,66.752,140.965,66.398,140.965z"/>
		<path fill="#231F20" d="M71.175,144.352l0.262-0.703c0.414,0.271,0.748,0.406,1,0.406c0.458,0,0.688-0.192,0.688-0.578
			c0-0.276-0.221-0.513-0.664-0.711c-0.341-0.156-0.571-0.274-0.689-0.355s-0.221-0.173-0.309-0.275s-0.152-0.212-0.195-0.328
			s-0.064-0.24-0.064-0.373c0-0.344,0.125-0.612,0.375-0.805s0.577-0.289,0.98-0.289c0.305,0,0.689,0.097,1.152,0.289l-0.211,0.688
			c-0.294-0.234-0.59-0.352-0.887-0.352c-0.177,0-0.326,0.042-0.447,0.125s-0.182,0.188-0.182,0.316
			c0,0.269,0.152,0.472,0.457,0.609l0.531,0.242c0.326,0.148,0.563,0.317,0.711,0.508s0.223,0.429,0.223,0.715
			c0,0.375-0.131,0.669-0.395,0.881s-0.627,0.318-1.094,0.318C71.978,144.68,71.563,144.57,71.175,144.352z"/>
		<path fill="#231F20" d="M75.39,140.418v2.668c0,0.646,0.28,0.969,0.84,0.969c0.245,0,0.469-0.07,0.672-0.211
			s0.337-0.304,0.402-0.488v-2.938h0.742v4.184h-0.742v-0.578c-0.083,0.164-0.25,0.314-0.502,0.451s-0.497,0.205-0.736,0.205
			c-0.458,0-0.809-0.132-1.053-0.395s-0.365-0.637-0.365-1.121v-2.746H75.39z"/>
		<path fill="#231F20" d="M81.332,141.133c-0.162-0.112-0.324-0.168-0.488-0.168c-0.263,0-0.493,0.121-0.689,0.363
			s-0.295,0.534-0.295,0.875v2.398h-0.742v-4.184h0.742v0.668c0.271-0.497,0.673-0.746,1.207-0.746c0.133,0,0.324,0.023,0.574,0.07
			L81.332,141.133z"/>
		<path fill="#231F20" d="M84.429,139.367c-0.151-0.052-0.292-0.078-0.422-0.078c-0.227,0-0.414,0.086-0.561,0.258
			s-0.221,0.39-0.221,0.652c0,0.07,0.006,0.144,0.02,0.219h0.852v0.625h-0.852v3.559h-0.742v-3.559h-0.609v-0.625h0.609
			c0-0.534,0.131-0.953,0.395-1.258s0.611-0.457,1.043-0.457c0.216,0,0.448,0.039,0.695,0.117L84.429,139.367z"/>
		<path fill="#231F20" d="M87.488,144.121c-0.297,0.372-0.751,0.559-1.363,0.559c-0.328,0-0.613-0.119-0.854-0.357
			s-0.361-0.534-0.361-0.889c0-0.425,0.186-0.783,0.557-1.076s0.844-0.439,1.42-0.439c0.156,0,0.333,0.034,0.531,0.102
			c0-0.677-0.302-1.016-0.906-1.016c-0.463,0-0.82,0.125-1.07,0.375l-0.313-0.621c0.141-0.114,0.335-0.213,0.584-0.295
			s0.486-0.123,0.713-0.123c0.607,0,1.047,0.138,1.322,0.414s0.412,0.715,0.412,1.316v1.5c0,0.367,0.109,0.612,0.328,0.734v0.371
			c-0.302,0-0.528-0.043-0.678-0.129S87.553,144.319,87.488,144.121z M87.417,142.547c-0.234-0.052-0.398-0.078-0.492-0.078
			c-0.375,0-0.681,0.097-0.918,0.289s-0.355,0.421-0.355,0.684c0,0.435,0.256,0.652,0.77,0.652c0.375,0,0.707-0.179,0.996-0.535
			V142.547z"/>
		<path fill="#231F20" d="M92.484,140.758l-0.367,0.523c-0.076-0.075-0.209-0.147-0.4-0.215s-0.379-0.102-0.564-0.102
			c-0.404,0-0.724,0.142-0.961,0.424s-0.355,0.67-0.355,1.162c0,0.489,0.121,0.862,0.363,1.119s0.578,0.385,1.008,0.385
			c0.333,0,0.669-0.129,1.008-0.387l0.293,0.625c-0.398,0.258-0.892,0.387-1.48,0.387c-0.57,0-1.042-0.191-1.414-0.574
			s-0.559-0.901-0.559-1.555c0-0.667,0.193-1.202,0.58-1.605s0.916-0.605,1.588-0.605c0.216,0,0.451,0.046,0.703,0.137
			S92.364,140.661,92.484,140.758z"/>
		<path fill="#231F20" d="M96.812,142.582h-3.016c0,0.489,0.134,0.866,0.402,1.129c0.237,0.229,0.542,0.344,0.914,0.344
			c0.424,0,0.779-0.124,1.063-0.371l0.313,0.535c-0.115,0.114-0.291,0.214-0.527,0.297c-0.297,0.109-0.627,0.164-0.992,0.164
			c-0.526,0-0.973-0.179-1.34-0.535c-0.409-0.394-0.613-0.922-0.613-1.586c0-0.69,0.209-1.243,0.629-1.66
			c0.375-0.372,0.819-0.559,1.332-0.559c0.596,0,1.064,0.168,1.402,0.504c0.328,0.323,0.492,0.751,0.492,1.285
			C96.871,142.293,96.851,142.444,96.812,142.582z M95.011,140.965c-0.331,0-0.608,0.106-0.832,0.32
			c-0.213,0.203-0.334,0.456-0.363,0.758h2.316c0-0.3-0.094-0.55-0.281-0.75C95.646,141.074,95.365,140.965,95.011,140.965z"/>
	</g>
	<g>
		<path fill="#231F20" d="M163.747,144.34l0.285-0.719c0.146,0.106,0.328,0.196,0.545,0.268s0.412,0.107,0.584,0.107
			c0.305,0,0.549-0.083,0.734-0.25s0.277-0.379,0.277-0.637c0-0.192-0.051-0.372-0.154-0.537s-0.361-0.346-0.775-0.541l-0.461-0.215
			c-0.391-0.183-0.664-0.398-0.818-0.648s-0.232-0.551-0.232-0.902c0-0.427,0.151-0.781,0.453-1.063s0.69-0.422,1.164-0.422
			c0.633,0,1.073,0.103,1.32,0.309l-0.23,0.68c-0.104-0.075-0.263-0.148-0.477-0.219s-0.412-0.105-0.594-0.105
			c-0.266,0-0.475,0.075-0.627,0.227s-0.229,0.345-0.229,0.582c0,0.146,0.027,0.278,0.082,0.398s0.131,0.22,0.229,0.301
			s0.297,0.194,0.6,0.34l0.469,0.223c0.391,0.185,0.665,0.405,0.822,0.662s0.236,0.583,0.236,0.979c0,0.43-0.172,0.794-0.518,1.094
			s-0.807,0.449-1.385,0.449C164.54,144.699,164.106,144.579,163.747,144.34z"/>
		<path fill="#231F20" d="M168.497,140.418v2.668c0,0.646,0.28,0.969,0.84,0.969c0.245,0,0.469-0.07,0.672-0.211
			s0.337-0.304,0.402-0.488v-2.938h0.742v4.184h-0.742v-0.578c-0.083,0.164-0.25,0.314-0.502,0.451s-0.497,0.205-0.736,0.205
			c-0.458,0-0.809-0.132-1.053-0.395s-0.365-0.637-0.365-1.121v-2.746H168.497z"/>
		<path fill="#231F20" d="M172.798,144.301l-0.262,0.379h-0.371v-5.977h0.742v2.023c0.07-0.097,0.203-0.185,0.396-0.266
			s0.385-0.121,0.572-0.121c0.573,0,1.037,0.198,1.393,0.594s0.533,0.896,0.533,1.5c0,0.698-0.178,1.247-0.535,1.646
			s-0.84,0.6-1.449,0.6c-0.198,0-0.393-0.037-0.584-0.111S172.897,144.405,172.798,144.301z M172.907,141.293v2.414
			c0,0.042,0.092,0.11,0.277,0.205s0.326,0.143,0.422,0.143c0.505,0,0.867-0.121,1.086-0.363s0.328-0.648,0.328-1.219
			c0-0.474-0.127-0.844-0.383-1.109s-0.599-0.398-1.031-0.398c-0.091,0-0.218,0.039-0.381,0.117S172.957,141.23,172.907,141.293z"/>
		<path fill="#231F20" d="M176.349,144.352l0.262-0.703c0.414,0.271,0.748,0.406,1,0.406c0.458,0,0.688-0.192,0.688-0.578
			c0-0.276-0.221-0.513-0.664-0.711c-0.341-0.156-0.571-0.274-0.689-0.355s-0.221-0.173-0.309-0.275s-0.152-0.212-0.195-0.328
			s-0.064-0.24-0.064-0.373c0-0.344,0.125-0.612,0.375-0.805s0.577-0.289,0.98-0.289c0.305,0,0.689,0.097,1.152,0.289l-0.211,0.688
			c-0.294-0.234-0.59-0.352-0.887-0.352c-0.177,0-0.326,0.042-0.447,0.125s-0.182,0.188-0.182,0.316
			c0,0.269,0.152,0.472,0.457,0.609l0.531,0.242c0.326,0.148,0.563,0.317,0.711,0.508s0.223,0.429,0.223,0.715
			c0,0.375-0.131,0.669-0.395,0.881s-0.627,0.318-1.094,0.318C177.151,144.68,176.737,144.57,176.349,144.352z"/>
		<path fill="#231F20" d="M183.384,142.582h-3.016c0,0.489,0.134,0.866,0.402,1.129c0.237,0.229,0.542,0.344,0.914,0.344
			c0.424,0,0.779-0.124,1.063-0.371l0.313,0.535c-0.115,0.114-0.291,0.214-0.527,0.297c-0.297,0.109-0.627,0.164-0.992,0.164
			c-0.526,0-0.973-0.179-1.34-0.535c-0.409-0.394-0.613-0.922-0.613-1.586c0-0.69,0.209-1.243,0.629-1.66
			c0.375-0.372,0.819-0.559,1.332-0.559c0.596,0,1.064,0.168,1.402,0.504c0.328,0.323,0.492,0.751,0.492,1.285
			C183.442,142.293,183.423,142.444,183.384,142.582z M181.583,140.965c-0.331,0-0.608,0.106-0.832,0.32
			c-0.213,0.203-0.334,0.456-0.363,0.758h2.316c0-0.3-0.094-0.55-0.281-0.75C182.217,141.074,181.937,140.965,181.583,140.965z"/>
		<path fill="#231F20" d="M184.489,141.004h-0.484v-0.586h0.484v-0.875l0.742-0.285v1.16h1.148v0.586h-1.148v2.078
			c0,0.352,0.059,0.602,0.178,0.75s0.309,0.223,0.572,0.223c0.19,0,0.387-0.048,0.59-0.145l0.109,0.652
			c-0.307,0.078-0.645,0.117-1.012,0.117c-0.331,0-0.61-0.123-0.838-0.369s-0.342-0.557-0.342-0.932V141.004z"/>
		<path fill="#231F20" d="M189.532,142.5c0-0.646,0.174-1.167,0.521-1.564s0.805-0.596,1.373-0.596c0.599,0,1.064,0.19,1.395,0.572
			s0.496,0.911,0.496,1.588c0,0.675-0.169,1.206-0.508,1.596s-0.799,0.584-1.383,0.584c-0.596,0-1.061-0.196-1.395-0.59
			S189.532,143.167,189.532,142.5z M190.313,142.5c0,1.05,0.371,1.574,1.113,1.574c0.346,0,0.618-0.141,0.814-0.422
			s0.295-0.665,0.295-1.152c0-1.036-0.37-1.555-1.109-1.555c-0.338,0-0.609,0.138-0.811,0.414S190.313,142.016,190.313,142.5z"/>
		<path fill="#231F20" d="M196.36,139.367c-0.151-0.052-0.292-0.078-0.422-0.078c-0.227,0-0.414,0.086-0.561,0.258
			s-0.221,0.39-0.221,0.652c0,0.07,0.006,0.144,0.02,0.219h0.852v0.625h-0.852v3.559h-0.742v-3.559h-0.609v-0.625h0.609
			c0-0.534,0.131-0.953,0.395-1.258s0.611-0.457,1.043-0.457c0.216,0,0.448,0.039,0.695,0.117L196.36,139.367z"/>
		<path fill="#231F20" d="M201.829,144.121c-0.297,0.372-0.751,0.559-1.363,0.559c-0.328,0-0.613-0.119-0.854-0.357
			s-0.361-0.534-0.361-0.889c0-0.425,0.186-0.783,0.557-1.076s0.844-0.439,1.42-0.439c0.156,0,0.333,0.034,0.531,0.102
			c0-0.677-0.302-1.016-0.906-1.016c-0.463,0-0.82,0.125-1.07,0.375l-0.313-0.621c0.141-0.114,0.335-0.213,0.584-0.295
			s0.486-0.123,0.713-0.123c0.607,0,1.047,0.138,1.322,0.414s0.412,0.715,0.412,1.316v1.5c0,0.367,0.109,0.612,0.328,0.734v0.371
			c-0.302,0-0.528-0.043-0.678-0.129S201.894,144.319,201.829,144.121z M201.759,142.547c-0.234-0.052-0.398-0.078-0.492-0.078
			c-0.375,0-0.681,0.097-0.918,0.289s-0.355,0.421-0.355,0.684c0,0.435,0.256,0.652,0.77,0.652c0.375,0,0.707-0.179,0.996-0.535
			V142.547z"/>
		<path fill="#231F20" d="M203.728,143.418v-4.715h0.742v4.59c0,0.224,0.064,0.4,0.193,0.529s0.297,0.193,0.506,0.193v0.664
			C204.208,144.68,203.728,144.259,203.728,143.418z"/>
		<path fill="#231F20" d="M206.087,143.418v-4.715h0.742v4.59c0,0.224,0.064,0.4,0.193,0.529s0.297,0.193,0.506,0.193v0.664
			C206.567,144.68,206.087,144.259,206.087,143.418z"/>
		<path fill="#231F20" d="M211.54,144.371v1.871h-0.742v-5.824h0.742v0.344c0.281-0.281,0.621-0.422,1.02-0.422
			c0.594,0,1.056,0.185,1.387,0.555s0.496,0.911,0.496,1.625c0,0.636-0.167,1.154-0.5,1.557s-0.815,0.604-1.445,0.604
			c-0.177,0-0.367-0.031-0.568-0.094S211.597,144.452,211.54,144.371z M211.54,141.32v2.438c0.047,0.07,0.146,0.138,0.297,0.201
			s0.298,0.096,0.441,0.096c0.922,0,1.383-0.521,1.383-1.563c0-0.528-0.109-0.915-0.328-1.16s-0.569-0.367-1.051-0.367
			c-0.104,0-0.232,0.036-0.383,0.109S211.628,141.229,211.54,141.32z"/>
		<path fill="#231F20" d="M214.981,142.5c0-0.646,0.174-1.167,0.521-1.564s0.805-0.596,1.373-0.596c0.599,0,1.064,0.19,1.395,0.572
			s0.496,0.911,0.496,1.588c0,0.675-0.169,1.206-0.508,1.596s-0.799,0.584-1.383,0.584c-0.596,0-1.061-0.196-1.395-0.59
			S214.981,143.167,214.981,142.5z M215.763,142.5c0,1.05,0.371,1.574,1.113,1.574c0.346,0,0.618-0.141,0.814-0.422
			s0.295-0.665,0.295-1.152c0-1.036-0.37-1.555-1.109-1.555c-0.338,0-0.609,0.138-0.811,0.414S215.763,142.016,215.763,142.5z"/>
		<path fill="#231F20" d="M219.274,144.352l0.262-0.703c0.414,0.271,0.748,0.406,1,0.406c0.458,0,0.688-0.192,0.688-0.578
			c0-0.276-0.221-0.513-0.664-0.711c-0.341-0.156-0.571-0.274-0.689-0.355s-0.221-0.173-0.309-0.275s-0.152-0.212-0.195-0.328
			s-0.064-0.24-0.064-0.373c0-0.344,0.125-0.612,0.375-0.805s0.577-0.289,0.98-0.289c0.305,0,0.689,0.097,1.152,0.289l-0.211,0.688
			c-0.294-0.234-0.59-0.352-0.887-0.352c-0.177,0-0.326,0.042-0.447,0.125s-0.182,0.188-0.182,0.316
			c0,0.269,0.152,0.472,0.457,0.609l0.531,0.242c0.326,0.148,0.563,0.317,0.711,0.508s0.223,0.429,0.223,0.715
			c0,0.375-0.131,0.669-0.395,0.881s-0.627,0.318-1.094,0.318C220.077,144.68,219.663,144.57,219.274,144.352z"/>
		<path fill="#231F20" d="M222.513,144.352l0.262-0.703c0.414,0.271,0.748,0.406,1,0.406c0.458,0,0.688-0.192,0.688-0.578
			c0-0.276-0.221-0.513-0.664-0.711c-0.341-0.156-0.571-0.274-0.689-0.355s-0.221-0.173-0.309-0.275s-0.152-0.212-0.195-0.328
			s-0.064-0.24-0.064-0.373c0-0.344,0.125-0.612,0.375-0.805s0.577-0.289,0.98-0.289c0.305,0,0.689,0.097,1.152,0.289l-0.211,0.688
			c-0.294-0.234-0.59-0.352-0.887-0.352c-0.177,0-0.326,0.042-0.447,0.125s-0.182,0.188-0.182,0.316
			c0,0.269,0.152,0.472,0.457,0.609l0.531,0.242c0.326,0.148,0.563,0.317,0.711,0.508s0.223,0.429,0.223,0.715
			c0,0.375-0.131,0.669-0.395,0.881s-0.627,0.318-1.094,0.318C223.315,144.68,222.901,144.57,222.513,144.352z"/>
		<path fill="#231F20" d="M226.384,144.602v-3.559h-0.574v-0.625h1.316v4.184H226.384z M226.79,138.836
			c0.127,0,0.236,0.045,0.326,0.135s0.135,0.197,0.135,0.322c0,0.128-0.045,0.236-0.135,0.326s-0.199,0.135-0.326,0.135
			c-0.125,0-0.232-0.045-0.322-0.135s-0.135-0.198-0.135-0.326s0.044-0.235,0.133-0.324S226.663,138.836,226.79,138.836z"/>
		<path fill="#231F20" d="M228.938,144.301l-0.262,0.379h-0.371v-5.977h0.742v2.023c0.07-0.097,0.203-0.185,0.396-0.266
			s0.385-0.121,0.572-0.121c0.573,0,1.037,0.198,1.393,0.594s0.533,0.896,0.533,1.5c0,0.698-0.178,1.247-0.535,1.646
			s-0.84,0.6-1.449,0.6c-0.198,0-0.393-0.037-0.584-0.111S229.038,144.405,228.938,144.301z M229.048,141.293v2.414
			c0,0.042,0.092,0.11,0.277,0.205s0.326,0.143,0.422,0.143c0.505,0,0.867-0.121,1.086-0.363s0.328-0.648,0.328-1.219
			c0-0.474-0.127-0.844-0.383-1.109s-0.599-0.398-1.031-0.398c-0.091,0-0.218,0.039-0.381,0.117S229.097,141.23,229.048,141.293z"/>
		<path fill="#231F20" d="M232.821,143.418v-4.715h0.742v4.59c0,0.224,0.064,0.4,0.193,0.529s0.297,0.193,0.506,0.193v0.664
			C233.302,144.68,232.821,144.259,232.821,143.418z"/>
		<path fill="#231F20" d="M238.646,142.582h-3.016c0,0.489,0.134,0.866,0.402,1.129c0.237,0.229,0.542,0.344,0.914,0.344
			c0.424,0,0.779-0.124,1.063-0.371l0.313,0.535c-0.115,0.114-0.291,0.214-0.527,0.297c-0.297,0.109-0.627,0.164-0.992,0.164
			c-0.526,0-0.973-0.179-1.34-0.535c-0.409-0.394-0.613-0.922-0.613-1.586c0-0.69,0.209-1.243,0.629-1.66
			c0.375-0.372,0.819-0.559,1.332-0.559c0.596,0,1.064,0.168,1.402,0.504c0.328,0.323,0.492,0.751,0.492,1.285
			C238.704,142.293,238.685,142.444,238.646,142.582z M236.845,140.965c-0.331,0-0.608,0.106-0.832,0.32
			c-0.213,0.203-0.334,0.456-0.363,0.758h2.316c0-0.3-0.094-0.55-0.281-0.75C237.479,141.074,237.199,140.965,236.845,140.965z"/>
		<path fill="#231F20" d="M244.47,144.602v-2.434c0-0.445-0.067-0.757-0.201-0.936s-0.359-0.268-0.674-0.268
			c-0.169,0-0.346,0.051-0.531,0.152s-0.327,0.227-0.426,0.375v3.109h-0.742v-4.184h0.508l0.234,0.539
			c0.245-0.411,0.645-0.617,1.199-0.617c0.917,0,1.375,0.558,1.375,1.672v2.59H244.47z"/>
		<path fill="#231F20" d="M245.993,142.5c0-0.646,0.174-1.167,0.521-1.564s0.805-0.596,1.373-0.596c0.599,0,1.064,0.19,1.395,0.572
			s0.496,0.911,0.496,1.588c0,0.675-0.169,1.206-0.508,1.596s-0.799,0.584-1.383,0.584c-0.596,0-1.061-0.196-1.395-0.59
			S245.993,143.167,245.993,142.5z M246.774,142.5c0,1.05,0.371,1.574,1.113,1.574c0.346,0,0.618-0.141,0.814-0.422
			s0.295-0.665,0.295-1.152c0-1.036-0.37-1.555-1.109-1.555c-0.338,0-0.609,0.138-0.811,0.414S246.774,142.016,246.774,142.5z"/>
		<path fill="#231F20" d="M252.833,141.133c-0.162-0.112-0.324-0.168-0.488-0.168c-0.263,0-0.493,0.121-0.689,0.363
			s-0.295,0.534-0.295,0.875v2.398h-0.742v-4.184h0.742v0.668c0.271-0.497,0.673-0.746,1.207-0.746c0.133,0,0.324,0.023,0.574,0.07
			L252.833,141.133z"/>
		<path fill="#231F20" d="M258.513,144.602v-2.648c0-0.659-0.285-0.988-0.855-0.988c-0.18,0-0.348,0.056-0.504,0.166
			s-0.263,0.236-0.32,0.377v3.094h-0.742v-2.973c0-0.206-0.077-0.368-0.232-0.486s-0.36-0.178-0.615-0.178
			c-0.148,0-0.307,0.058-0.475,0.172s-0.287,0.241-0.357,0.379v3.086h-0.742v-4.184h0.484l0.246,0.484
			c0.286-0.375,0.645-0.563,1.074-0.563c0.599,0,1.019,0.187,1.258,0.559c0.083-0.159,0.238-0.292,0.465-0.398s0.46-0.16,0.699-0.16
			c0.433,0,0.767,0.128,1.004,0.385s0.355,0.616,0.355,1.08v2.797H258.513z"/>
		<path fill="#231F20" d="M262.673,144.121c-0.297,0.372-0.751,0.559-1.363,0.559c-0.328,0-0.612-0.119-0.854-0.357
			s-0.361-0.534-0.361-0.889c0-0.425,0.186-0.783,0.557-1.076s0.845-0.439,1.42-0.439c0.156,0,0.333,0.034,0.531,0.102
			c0-0.677-0.302-1.016-0.906-1.016c-0.464,0-0.82,0.125-1.07,0.375l-0.313-0.621c0.141-0.114,0.335-0.213,0.584-0.295
			s0.486-0.123,0.713-0.123c0.606,0,1.048,0.138,1.322,0.414s0.412,0.715,0.412,1.316v1.5c0,0.367,0.109,0.612,0.328,0.734v0.371
			c-0.302,0-0.528-0.043-0.678-0.129S262.738,144.319,262.673,144.121z M262.603,142.547c-0.234-0.052-0.398-0.078-0.492-0.078
			c-0.375,0-0.681,0.097-0.918,0.289s-0.355,0.421-0.355,0.684c0,0.435,0.257,0.652,0.77,0.652c0.375,0,0.707-0.179,0.996-0.535
			V142.547z"/>
		<path fill="#231F20" d="M264.571,143.418v-4.715h0.742v4.59c0,0.224,0.064,0.4,0.193,0.529s0.298,0.193,0.506,0.193v0.664
			C265.052,144.68,264.571,144.259,264.571,143.418z"/>
		<path fill="#231F20" d="M272.438,140.758l-0.367,0.523c-0.075-0.075-0.209-0.147-0.4-0.215s-0.38-0.102-0.564-0.102
			c-0.403,0-0.724,0.142-0.961,0.424s-0.355,0.67-0.355,1.162c0,0.489,0.121,0.862,0.363,1.119s0.578,0.385,1.008,0.385
			c0.333,0,0.669-0.129,1.008-0.387l0.293,0.625c-0.398,0.258-0.892,0.387-1.48,0.387c-0.57,0-1.042-0.191-1.414-0.574
			s-0.559-0.901-0.559-1.555c0-0.667,0.193-1.202,0.58-1.605s0.916-0.605,1.588-0.605c0.216,0,0.45,0.046,0.703,0.137
			S272.318,140.661,272.438,140.758z"/>
		<path fill="#231F20" d="M273.946,140.418v2.668c0,0.646,0.28,0.969,0.84,0.969c0.245,0,0.469-0.07,0.672-0.211
			s0.337-0.304,0.402-0.488v-2.938h0.742v4.184h-0.742v-0.578c-0.083,0.164-0.251,0.314-0.502,0.451s-0.497,0.205-0.736,0.205
			c-0.458,0-0.81-0.132-1.053-0.395s-0.365-0.637-0.365-1.121v-2.746H273.946z"/>
		<path fill="#231F20" d="M279.888,141.133c-0.161-0.112-0.324-0.168-0.488-0.168c-0.263,0-0.493,0.121-0.689,0.363
			s-0.295,0.534-0.295,0.875v2.398h-0.742v-4.184h0.742v0.668c0.271-0.497,0.673-0.746,1.207-0.746c0.133,0,0.324,0.023,0.574,0.07
			L279.888,141.133z"/>
		<path fill="#231F20" d="M282.231,144.68h-0.195l-1.793-4.273h0.813l1.105,2.93l1.129-2.93h0.777L282.231,144.68z"/>
		<path fill="#231F20" d="M287.005,144.121c-0.297,0.372-0.751,0.559-1.363,0.559c-0.328,0-0.612-0.119-0.854-0.357
			s-0.361-0.534-0.361-0.889c0-0.425,0.186-0.783,0.557-1.076s0.845-0.439,1.42-0.439c0.156,0,0.333,0.034,0.531,0.102
			c0-0.677-0.302-1.016-0.906-1.016c-0.464,0-0.82,0.125-1.07,0.375l-0.313-0.621c0.141-0.114,0.335-0.213,0.584-0.295
			s0.486-0.123,0.713-0.123c0.606,0,1.048,0.138,1.322,0.414s0.412,0.715,0.412,1.316v1.5c0,0.367,0.109,0.612,0.328,0.734v0.371
			c-0.302,0-0.528-0.043-0.678-0.129S287.07,144.319,287.005,144.121z M286.935,142.547c-0.234-0.052-0.398-0.078-0.492-0.078
			c-0.375,0-0.681,0.097-0.918,0.289s-0.355,0.421-0.355,0.684c0,0.435,0.257,0.652,0.77,0.652c0.375,0,0.707-0.179,0.996-0.535
			V142.547z"/>
		<path fill="#231F20" d="M289.11,141.004h-0.484v-0.586h0.484v-0.875l0.742-0.285v1.16h1.148v0.586h-1.148v2.078
			c0,0.352,0.06,0.602,0.178,0.75s0.31,0.223,0.572,0.223c0.19,0,0.387-0.048,0.59-0.145l0.109,0.652
			c-0.308,0.078-0.645,0.117-1.012,0.117c-0.331,0-0.61-0.123-0.838-0.369s-0.342-0.557-0.342-0.932V141.004z"/>
		<path fill="#231F20" d="M292.72,140.418v2.668c0,0.646,0.28,0.969,0.84,0.969c0.245,0,0.469-0.07,0.672-0.211
			s0.337-0.304,0.402-0.488v-2.938h0.742v4.184h-0.742v-0.578c-0.083,0.164-0.251,0.314-0.502,0.451s-0.497,0.205-0.736,0.205
			c-0.458,0-0.81-0.132-1.053-0.395s-0.365-0.637-0.365-1.121v-2.746H292.72z"/>
		<path fill="#231F20" d="M298.661,141.133c-0.161-0.112-0.324-0.168-0.488-0.168c-0.263,0-0.493,0.121-0.689,0.363
			s-0.295,0.534-0.295,0.875v2.398h-0.742v-4.184h0.742v0.668c0.271-0.497,0.673-0.746,1.207-0.746c0.133,0,0.324,0.023,0.574,0.07
			L298.661,141.133z"/>
		<path fill="#231F20" d="M303.021,142.582h-3.016c0,0.489,0.134,0.866,0.402,1.129c0.237,0.229,0.542,0.344,0.914,0.344
			c0.425,0,0.778-0.124,1.063-0.371l0.313,0.535c-0.114,0.114-0.29,0.214-0.527,0.297c-0.297,0.109-0.628,0.164-0.992,0.164
			c-0.526,0-0.973-0.179-1.34-0.535c-0.409-0.394-0.613-0.922-0.613-1.586c0-0.69,0.21-1.243,0.629-1.66
			c0.375-0.372,0.819-0.559,1.332-0.559c0.597,0,1.063,0.168,1.402,0.504c0.328,0.323,0.492,0.751,0.492,1.285
			C303.079,142.293,303.06,142.444,303.021,142.582z M301.22,140.965c-0.331,0-0.608,0.106-0.832,0.32
			c-0.214,0.203-0.335,0.456-0.363,0.758h2.316c0-0.3-0.094-0.55-0.281-0.75C301.854,141.074,301.574,140.965,301.22,140.965z"/>
		<path fill="#231F20" d="M303.587,144.352l0.262-0.703c0.414,0.271,0.747,0.406,1,0.406c0.458,0,0.688-0.192,0.688-0.578
			c0-0.276-0.222-0.513-0.664-0.711c-0.341-0.156-0.571-0.274-0.689-0.355s-0.222-0.173-0.309-0.275s-0.152-0.212-0.195-0.328
			s-0.064-0.24-0.064-0.373c0-0.344,0.125-0.612,0.375-0.805s0.577-0.289,0.98-0.289c0.305,0,0.688,0.097,1.152,0.289l-0.211,0.688
			c-0.294-0.234-0.59-0.352-0.887-0.352c-0.177,0-0.326,0.042-0.447,0.125s-0.182,0.188-0.182,0.316
			c0,0.269,0.152,0.472,0.457,0.609l0.531,0.242c0.325,0.148,0.563,0.317,0.711,0.508s0.223,0.429,0.223,0.715
			c0,0.375-0.132,0.669-0.395,0.881s-0.628,0.318-1.094,0.318C304.389,144.68,303.975,144.57,303.587,144.352z"/>
	</g>
	<g>
		<path fill="#231F20" d="M379.898,142.398v2.203h-0.781v-5.723c0.592-0.026,0.947-0.039,1.07-0.039
			c1.662,0,2.492,0.556,2.492,1.668c0,1.286-0.734,1.93-2.203,1.93C380.389,142.438,380.195,142.425,379.898,142.398z
			 M379.898,139.582v2.113c0.33,0.026,0.506,0.039,0.523,0.039c0.969,0,1.453-0.382,1.453-1.145c0-0.698-0.518-1.047-1.551-1.047
			C380.221,139.543,380.078,139.556,379.898,139.582z"/>
		<path fill="#231F20" d="M385.425,141.133c-0.161-0.112-0.324-0.168-0.488-0.168c-0.263,0-0.493,0.121-0.689,0.363
			s-0.295,0.534-0.295,0.875v2.398h-0.742v-4.184h0.742v0.668c0.271-0.497,0.673-0.746,1.207-0.746c0.133,0,0.324,0.023,0.574,0.07
			L385.425,141.133z"/>
		<path fill="#231F20" d="M386.62,144.602v-3.559h-0.574v-0.625h1.316v4.184H386.62z M387.026,138.836
			c0.128,0,0.236,0.045,0.326,0.135s0.135,0.197,0.135,0.322c0,0.128-0.045,0.236-0.135,0.326s-0.198,0.135-0.326,0.135
			c-0.125,0-0.232-0.045-0.322-0.135s-0.135-0.198-0.135-0.326s0.044-0.235,0.133-0.324S386.898,138.836,387.026,138.836z"/>
		<path fill="#231F20" d="M391.116,144.602v-2.434c0-0.445-0.067-0.757-0.201-0.936s-0.358-0.268-0.674-0.268
			c-0.169,0-0.347,0.051-0.531,0.152s-0.327,0.227-0.426,0.375v3.109h-0.742v-4.184h0.508l0.234,0.539
			c0.245-0.411,0.645-0.617,1.199-0.617c0.917,0,1.375,0.558,1.375,1.672v2.59H391.116z"/>
		<path fill="#231F20" d="M396.069,140.758l-0.367,0.523c-0.075-0.075-0.209-0.147-0.4-0.215s-0.38-0.102-0.564-0.102
			c-0.403,0-0.724,0.142-0.961,0.424s-0.355,0.67-0.355,1.162c0,0.489,0.121,0.862,0.363,1.119s0.578,0.385,1.008,0.385
			c0.333,0,0.669-0.129,1.008-0.387l0.293,0.625c-0.398,0.258-0.892,0.387-1.48,0.387c-0.57,0-1.042-0.191-1.414-0.574
			s-0.559-0.901-0.559-1.555c0-0.667,0.193-1.202,0.58-1.605s0.916-0.605,1.588-0.605c0.216,0,0.45,0.046,0.703,0.137
			S395.949,140.661,396.069,140.758z"/>
		<path fill="#231F20" d="M397.233,144.602v-3.559h-0.574v-0.625h1.316v4.184H397.233z M397.64,138.836
			c0.128,0,0.236,0.045,0.326,0.135s0.135,0.197,0.135,0.322c0,0.128-0.045,0.236-0.135,0.326s-0.198,0.135-0.326,0.135
			c-0.125,0-0.232-0.045-0.322-0.135s-0.135-0.198-0.135-0.326s0.044-0.235,0.133-0.324S397.512,138.836,397.64,138.836z"/>
		<path fill="#231F20" d="M399.897,144.371v1.871h-0.742v-5.824h0.742v0.344c0.281-0.281,0.621-0.422,1.02-0.422
			c0.594,0,1.056,0.185,1.387,0.555s0.496,0.911,0.496,1.625c0,0.636-0.167,1.154-0.5,1.557s-0.815,0.604-1.445,0.604
			c-0.177,0-0.366-0.031-0.568-0.094S399.955,144.452,399.897,144.371z M399.897,141.32v2.438c0.047,0.07,0.146,0.138,0.297,0.201
			s0.298,0.096,0.441,0.096c0.922,0,1.383-0.521,1.383-1.563c0-0.528-0.109-0.915-0.328-1.16s-0.569-0.367-1.051-0.367
			c-0.104,0-0.231,0.036-0.383,0.109S399.986,141.229,399.897,141.32z"/>
		<path fill="#231F20" d="M405.976,144.121c-0.297,0.372-0.751,0.559-1.363,0.559c-0.328,0-0.612-0.119-0.854-0.357
			s-0.361-0.534-0.361-0.889c0-0.425,0.186-0.783,0.557-1.076s0.845-0.439,1.42-0.439c0.156,0,0.333,0.034,0.531,0.102
			c0-0.677-0.302-1.016-0.906-1.016c-0.464,0-0.82,0.125-1.07,0.375l-0.313-0.621c0.141-0.114,0.335-0.213,0.584-0.295
			s0.486-0.123,0.713-0.123c0.606,0,1.048,0.138,1.322,0.414s0.412,0.715,0.412,1.316v1.5c0,0.367,0.109,0.612,0.328,0.734v0.371
			c-0.302,0-0.528-0.043-0.678-0.129S406.041,144.319,405.976,144.121z M405.905,142.547c-0.234-0.052-0.398-0.078-0.492-0.078
			c-0.375,0-0.681,0.097-0.918,0.289s-0.355,0.421-0.355,0.684c0,0.435,0.257,0.652,0.77,0.652c0.375,0,0.707-0.179,0.996-0.535
			V142.547z"/>
		<path fill="#231F20" d="M407.874,143.418v-4.715h0.742v4.59c0,0.224,0.064,0.4,0.193,0.529s0.298,0.193,0.506,0.193v0.664
			C408.354,144.68,407.874,144.259,407.874,143.418z"/>
		<path fill="#231F20" d="M415.741,140.758l-0.367,0.523c-0.075-0.075-0.209-0.147-0.4-0.215s-0.38-0.102-0.564-0.102
			c-0.403,0-0.724,0.142-0.961,0.424s-0.355,0.67-0.355,1.162c0,0.489,0.121,0.862,0.363,1.119s0.578,0.385,1.008,0.385
			c0.333,0,0.669-0.129,1.008-0.387l0.293,0.625c-0.398,0.258-0.892,0.387-1.48,0.387c-0.57,0-1.042-0.191-1.414-0.574
			s-0.559-0.901-0.559-1.555c0-0.667,0.193-1.202,0.58-1.605s0.916-0.605,1.588-0.605c0.216,0,0.45,0.046,0.703,0.137
			S415.621,140.661,415.741,140.758z"/>
		<path fill="#231F20" d="M417.249,140.418v2.668c0,0.646,0.28,0.969,0.84,0.969c0.245,0,0.469-0.07,0.672-0.211
			s0.337-0.304,0.402-0.488v-2.938h0.742v4.184h-0.742v-0.578c-0.083,0.164-0.251,0.314-0.502,0.451s-0.497,0.205-0.736,0.205
			c-0.458,0-0.81-0.132-1.053-0.395s-0.365-0.637-0.365-1.121v-2.746H417.249z"/>
		<path fill="#231F20" d="M423.19,141.133c-0.161-0.112-0.324-0.168-0.488-0.168c-0.263,0-0.493,0.121-0.689,0.363
			s-0.295,0.534-0.295,0.875v2.398h-0.742v-4.184h0.742v0.668c0.271-0.497,0.673-0.746,1.207-0.746c0.133,0,0.324,0.023,0.574,0.07
			L423.19,141.133z"/>
		<path fill="#231F20" d="M425.534,144.68h-0.195l-1.793-4.273h0.813l1.105,2.93l1.129-2.93h0.777L425.534,144.68z"/>
		<path fill="#231F20" d="M430.308,144.121c-0.297,0.372-0.751,0.559-1.363,0.559c-0.328,0-0.612-0.119-0.854-0.357
			s-0.361-0.534-0.361-0.889c0-0.425,0.186-0.783,0.557-1.076s0.845-0.439,1.42-0.439c0.156,0,0.333,0.034,0.531,0.102
			c0-0.677-0.302-1.016-0.906-1.016c-0.464,0-0.82,0.125-1.07,0.375l-0.313-0.621c0.141-0.114,0.335-0.213,0.584-0.295
			s0.486-0.123,0.713-0.123c0.606,0,1.048,0.138,1.322,0.414s0.412,0.715,0.412,1.316v1.5c0,0.367,0.109,0.612,0.328,0.734v0.371
			c-0.302,0-0.528-0.043-0.678-0.129S430.373,144.319,430.308,144.121z M430.237,142.547c-0.234-0.052-0.398-0.078-0.492-0.078
			c-0.375,0-0.681,0.097-0.918,0.289s-0.355,0.421-0.355,0.684c0,0.435,0.257,0.652,0.77,0.652c0.375,0,0.707-0.179,0.996-0.535
			V142.547z"/>
		<path fill="#231F20" d="M432.413,141.004h-0.484v-0.586h0.484v-0.875l0.742-0.285v1.16h1.148v0.586h-1.148v2.078
			c0,0.352,0.06,0.602,0.178,0.75s0.31,0.223,0.572,0.223c0.19,0,0.387-0.048,0.59-0.145l0.109,0.652
			c-0.308,0.078-0.645,0.117-1.012,0.117c-0.331,0-0.61-0.123-0.838-0.369s-0.342-0.557-0.342-0.932V141.004z"/>
		<path fill="#231F20" d="M436.022,140.418v2.668c0,0.646,0.28,0.969,0.84,0.969c0.245,0,0.469-0.07,0.672-0.211
			s0.337-0.304,0.402-0.488v-2.938h0.742v4.184h-0.742v-0.578c-0.083,0.164-0.251,0.314-0.502,0.451s-0.497,0.205-0.736,0.205
			c-0.458,0-0.81-0.132-1.053-0.395s-0.365-0.637-0.365-1.121v-2.746H436.022z"/>
		<path fill="#231F20" d="M441.964,141.133c-0.161-0.112-0.324-0.168-0.488-0.168c-0.263,0-0.493,0.121-0.689,0.363
			s-0.295,0.534-0.295,0.875v2.398h-0.742v-4.184h0.742v0.668c0.271-0.497,0.673-0.746,1.207-0.746c0.133,0,0.324,0.023,0.574,0.07
			L441.964,141.133z"/>
		<path fill="#231F20" d="M446.323,142.582h-3.016c0,0.489,0.134,0.866,0.402,1.129c0.237,0.229,0.542,0.344,0.914,0.344
			c0.425,0,0.778-0.124,1.063-0.371l0.313,0.535c-0.114,0.114-0.29,0.214-0.527,0.297c-0.297,0.109-0.628,0.164-0.992,0.164
			c-0.526,0-0.973-0.179-1.34-0.535c-0.409-0.394-0.613-0.922-0.613-1.586c0-0.69,0.21-1.243,0.629-1.66
			c0.375-0.372,0.819-0.559,1.332-0.559c0.597,0,1.063,0.168,1.402,0.504c0.328,0.323,0.492,0.751,0.492,1.285
			C446.382,142.293,446.362,142.444,446.323,142.582z M444.522,140.965c-0.331,0-0.608,0.106-0.832,0.32
			c-0.214,0.203-0.335,0.456-0.363,0.758h2.316c0-0.3-0.094-0.55-0.281-0.75C445.156,141.074,444.877,140.965,444.522,140.965z"/>
		<path fill="#231F20" d="M446.89,144.352l0.262-0.703c0.414,0.271,0.747,0.406,1,0.406c0.458,0,0.688-0.192,0.688-0.578
			c0-0.276-0.222-0.513-0.664-0.711c-0.341-0.156-0.571-0.274-0.689-0.355s-0.222-0.173-0.309-0.275s-0.152-0.212-0.195-0.328
			s-0.064-0.24-0.064-0.373c0-0.344,0.125-0.612,0.375-0.805s0.577-0.289,0.98-0.289c0.305,0,0.688,0.097,1.152,0.289l-0.211,0.688
			c-0.294-0.234-0.59-0.352-0.887-0.352c-0.177,0-0.326,0.042-0.447,0.125s-0.182,0.188-0.182,0.316
			c0,0.269,0.152,0.472,0.457,0.609l0.531,0.242c0.325,0.148,0.563,0.317,0.711,0.508s0.223,0.429,0.223,0.715
			c0,0.375-0.132,0.669-0.395,0.881s-0.628,0.318-1.094,0.318C447.691,144.68,447.277,144.57,446.89,144.352z"/>
	</g>
</g>
</svg>
