<?xml version="1.0" encoding="utf-8"?>
<!-- Generator: Adobe Illustrator 14.0.0, SVG Export Plug-In . SVG Version: 6.00 Build 43363)  -->
<!DOCTYPE svg PUBLIC "-//W3C//DTD SVG 1.0//EN" "http://www.w3.org/TR/2001/REC-SVG-20010904/DTD/svg10.dtd">
<svg version="1.0" xmlns="http://www.w3.org/2000/svg" xmlns:xlink="http://www.w3.org/1999/xlink" x="0px" y="0px" width="56.77px"
	 height="56.71px" viewBox="0 0 56.77 56.71" enable-background="new 0 0 56.77 56.71" xml:space="preserve">
<g id="Grids">
	<g>
		<g>
			<g>
				
					<line fill-rule="evenodd" clip-rule="evenodd" fill="none" stroke="#D4D4D4" stroke-width="0.27" stroke-linecap="round" stroke-linejoin="round" x1="7.164" y1="29.225" x2="56.414" y2="42.205"/>
				
					<line fill-rule="evenodd" clip-rule="evenodd" fill="none" stroke="#D4D4D4" stroke-width="0.27" stroke-linecap="round" stroke-linejoin="round" x1="43.114" y1="56.575" x2="56.414" y2="31.785"/>
				
					<line fill-rule="evenodd" clip-rule="evenodd" fill="none" stroke="#D4D4D4" stroke-width="0.27" stroke-linecap="round" stroke-linejoin="round" x1="17.774" y1="21.765" x2="56.414" y2="30.205"/>
				
					<line fill-rule="evenodd" clip-rule="evenodd" fill="none" stroke="#D4D4D4" stroke-width="0.27" stroke-linecap="round" stroke-linejoin="round" x1="16.604" y1="22.585" x2="56.414" y2="31.475"/>
				
					<line fill-rule="evenodd" clip-rule="evenodd" fill="none" stroke="#D4D4D4" stroke-width="0.27" stroke-linecap="round" stroke-linejoin="round" x1="15.395" y1="23.445" x2="56.414" y2="32.805"/>
				
					<line fill-rule="evenodd" clip-rule="evenodd" fill="none" stroke="#D4D4D4" stroke-width="0.27" stroke-linecap="round" stroke-linejoin="round" x1="14.135" y1="24.325" x2="56.414" y2="34.195"/>
				
					<line fill-rule="evenodd" clip-rule="evenodd" fill="none" stroke="#D4D4D4" stroke-width="0.27" stroke-linecap="round" stroke-linejoin="round" x1="47.274" y1="56.575" x2="56.414" y2="37.815"/>
				
					<line fill-rule="evenodd" clip-rule="evenodd" fill="none" stroke="#D4D4D4" stroke-width="0.27" stroke-linecap="round" stroke-linejoin="round" x1="11.494" y1="26.175" x2="56.414" y2="37.165"/>
				
					<line fill-rule="evenodd" clip-rule="evenodd" fill="none" stroke="#D4D4D4" stroke-width="0.27" stroke-linecap="round" stroke-linejoin="round" x1="10.104" y1="27.155" x2="56.414" y2="38.765"/>
				
					<line fill-rule="evenodd" clip-rule="evenodd" fill="none" stroke="#D4D4D4" stroke-width="0.27" stroke-linecap="round" stroke-linejoin="round" x1="8.664" y1="28.165" x2="56.414" y2="40.435"/>
				
					<line fill-rule="evenodd" clip-rule="evenodd" fill="none" stroke="#D4D4D4" stroke-width="0.27" stroke-linecap="round" stroke-linejoin="round" x1="22.324" y1="56.575" x2="45.704" y2="26.695"/>
				
					<line fill-rule="evenodd" clip-rule="evenodd" fill="none" stroke="#D4D4D4" stroke-width="0.27" stroke-linecap="round" stroke-linejoin="round" x1="0.135" y1="41.745" x2="44.794" y2="56.575"/>
				
					<line fill-rule="evenodd" clip-rule="evenodd" fill="none" stroke="#D4D4D4" stroke-width="0.27" stroke-linecap="round" stroke-linejoin="round" x1="0.135" y1="44.085" x2="36.524" y2="56.575"/>
				
					<line fill-rule="evenodd" clip-rule="evenodd" fill="none" stroke="#D4D4D4" stroke-width="0.27" stroke-linecap="round" stroke-linejoin="round" x1="38.954" y1="56.575" x2="55.264" y2="28.745"/>
				
					<line fill-rule="evenodd" clip-rule="evenodd" fill="none" stroke="#D4D4D4" stroke-width="0.27" stroke-linecap="round" stroke-linejoin="round" x1="34.794" y1="56.575" x2="52.805" y2="28.215"/>
				
					<line fill-rule="evenodd" clip-rule="evenodd" fill="none" stroke="#D4D4D4" stroke-width="0.27" stroke-linecap="round" stroke-linejoin="round" x1="0.135" y1="46.585" x2="28.254" y2="56.575"/>
				
					<line fill-rule="evenodd" clip-rule="evenodd" fill="none" stroke="#D4D4D4" stroke-width="0.27" stroke-linecap="round" stroke-linejoin="round" x1="26.484" y1="56.575" x2="48.024" y2="27.195"/>
				
					<line fill-rule="evenodd" clip-rule="evenodd" fill="none" stroke="#D4D4D4" stroke-width="0.27" stroke-linecap="round" stroke-linejoin="round" x1="0.135" y1="35.555" x2="53.564" y2="51.725"/>
				
					<line fill-rule="evenodd" clip-rule="evenodd" fill="none" stroke="#D4D4D4" stroke-width="0.27" stroke-linecap="round" stroke-linejoin="round" x1="0.135" y1="44.135" x2="26.534" y2="22.595"/>
				
					<line fill-rule="evenodd" clip-rule="evenodd" fill="none" stroke="#D4D4D4" stroke-width="0.27" stroke-linecap="round" stroke-linejoin="round" x1="0.135" y1="41.355" x2="24.584" y2="22.185"/>
				
					<line fill-rule="evenodd" clip-rule="evenodd" fill="none" stroke="#D4D4D4" stroke-width="0.27" stroke-linecap="round" stroke-linejoin="round" x1="0.135" y1="38.775" x2="22.664" y2="21.765"/>
				
					<line fill-rule="evenodd" clip-rule="evenodd" fill="none" stroke="#D4D4D4" stroke-width="0.27" stroke-linecap="round" stroke-linejoin="round" x1="0.135" y1="39.555" x2="51.635" y2="56.115"/>
				
					<line fill-rule="evenodd" clip-rule="evenodd" fill="none" stroke="#D4D4D4" stroke-width="0.27" stroke-linecap="round" stroke-linejoin="round" x1="0.135" y1="36.385" x2="20.774" y2="21.365"/>
				
					<line fill-rule="evenodd" clip-rule="evenodd" fill="none" stroke="#D4D4D4" stroke-width="0.27" stroke-linecap="round" stroke-linejoin="round" x1="6.594" y1="51.645" x2="34.684" y2="24.345"/>
				
					<line fill-rule="evenodd" clip-rule="evenodd" fill="none" stroke="#D4D4D4" stroke-width="0.27" stroke-linecap="round" stroke-linejoin="round" x1="3.794" y1="50.615" x2="32.594" y2="23.895"/>
				
					<line fill-rule="evenodd" clip-rule="evenodd" fill="none" stroke="#D4D4D4" stroke-width="0.27" stroke-linecap="round" stroke-linejoin="round" x1="1.064" y1="49.605" x2="30.544" y2="23.455"/>
				
					<line fill-rule="evenodd" clip-rule="evenodd" fill="none" stroke="#D4D4D4" stroke-width="0.27" stroke-linecap="round" stroke-linejoin="round" x1="9.474" y1="52.705" x2="36.814" y2="24.795"/>
				
					<line fill-rule="evenodd" clip-rule="evenodd" fill="none" stroke="#D4D4D4" stroke-width="0.27" stroke-linecap="round" stroke-linejoin="round" x1="15.465" y1="54.915" x2="41.174" y2="25.735"/>
				
					<line fill-rule="evenodd" clip-rule="evenodd" fill="none" stroke="#D4D4D4" stroke-width="0.27" stroke-linecap="round" stroke-linejoin="round" x1="18.594" y1="56.065" x2="43.424" y2="26.205"/>
				
					<line fill-rule="evenodd" clip-rule="evenodd" fill="none" stroke="#D4D4D4" stroke-width="0.27" stroke-linecap="round" stroke-linejoin="round" x1="2.324" y1="32.625" x2="55.294" y2="47.765"/>
				
					<line fill-rule="evenodd" clip-rule="evenodd" fill="none" stroke="#D4D4D4" stroke-width="0.27" stroke-linecap="round" stroke-linejoin="round" x1="0.574" y1="33.855" x2="54.454" y2="49.695"/>
				
					<line fill-rule="evenodd" clip-rule="evenodd" fill="none" stroke="#D4D4D4" stroke-width="0.27" stroke-linecap="round" stroke-linejoin="round" x1="3.994" y1="31.445" x2="56.094" y2="45.925"/>
			</g>
			<g>
				
					<line fill-rule="evenodd" clip-rule="evenodd" fill="none" stroke="#8A8A8A" stroke-width="0.27" stroke-linecap="round" stroke-linejoin="round" x1="18.914" y1="20.965" x2="56.414" y2="28.985"/>
				
					<line fill-rule="evenodd" clip-rule="evenodd" fill="none" stroke="#8A8A8A" stroke-width="0.27" stroke-linecap="round" stroke-linejoin="round" x1="12.844" y1="25.235" x2="56.414" y2="35.645"/>
				
					<line fill-rule="evenodd" clip-rule="evenodd" fill="none" stroke="#8A8A8A" stroke-width="0.27" stroke-linecap="round" stroke-linejoin="round" x1="51.434" y1="56.575" x2="56.414" y2="45.205"/>
				
					<line fill-rule="evenodd" clip-rule="evenodd" fill="none" stroke="#8A8A8A" stroke-width="0.27" stroke-linecap="round" stroke-linejoin="round" x1="30.635" y1="56.575" x2="50.395" y2="27.705"/>
				
					<line fill-rule="evenodd" clip-rule="evenodd" fill="none" stroke="#8A8A8A" stroke-width="0.27" stroke-linecap="round" stroke-linejoin="round" x1="0.135" y1="49.265" x2="19.984" y2="56.575"/>
				
					<line fill-rule="evenodd" clip-rule="evenodd" fill="none" stroke="#8A8A8A" stroke-width="0.27" stroke-linecap="round" stroke-linejoin="round" x1="0.135" y1="47.155" x2="28.524" y2="23.025"/>
				
					<line fill-rule="evenodd" clip-rule="evenodd" fill="none" stroke="#8A8A8A" stroke-width="0.27" stroke-linecap="round" stroke-linejoin="round" x1="0.135" y1="37.495" x2="52.624" y2="53.855"/>
				
					<line fill-rule="evenodd" clip-rule="evenodd" fill="none" stroke="#8A8A8A" stroke-width="0.27" stroke-linecap="round" stroke-linejoin="round" x1="0.135" y1="34.165" x2="18.914" y2="20.965"/>
				
					<line fill-rule="evenodd" clip-rule="evenodd" fill="none" stroke="#8A8A8A" stroke-width="0.27" stroke-linecap="round" stroke-linejoin="round" x1="28.514" y1="36.505" x2="5.614" y2="30.315"/>
				
					<line fill-rule="evenodd" clip-rule="evenodd" fill="none" stroke="#8A8A8A" stroke-width="0.27" stroke-linecap="round" stroke-linejoin="round" x1="28.514" y1="36.505" x2="12.434" y2="53.795"/>
			</g>
			
				<line fill-rule="evenodd" clip-rule="evenodd" fill="none" stroke="#12AB00" stroke-width="0.55" stroke-linecap="round" stroke-linejoin="round" x1="38.974" y1="25.265" x2="28.514" y2="36.505"/>
			
				<line fill-rule="evenodd" clip-rule="evenodd" fill="none" stroke="#A80000" stroke-width="0.55" stroke-linecap="round" stroke-linejoin="round" x1="56.414" y1="44.055" x2="28.514" y2="36.505"/>
		</g>
		
			<rect x="0.174" y="0.125" fill-rule="evenodd" clip-rule="evenodd" fill="none" stroke="#000000" stroke-width="0.25" width="56.471" height="56.43"/>
	</g>
</g>
<g id="Text">
	<path fill-rule="evenodd" clip-rule="evenodd" d="M50.874,19.185l1.41-0.3c0.101,0.24,0.189,0.48,0.25,0.73
		c0.09,0.37,0.16,0.81,0.21,1.31c0.03,0.26,0.061,0.79,0.11,1.61c0.409-0.45,0.649-0.72,0.729-0.83c0.43-0.58,0.67-0.93,0.74-1.03
		c0.109-0.17,0.18-0.32,0.22-0.45c0.04-0.1,0.061-0.19,0.061-0.28c0-0.08-0.08-0.18-0.23-0.29c-0.15-0.11-0.229-0.24-0.229-0.37
		c0-0.11,0.05-0.2,0.13-0.28c0.08-0.08,0.18-0.12,0.29-0.12c0.14,0,0.26,0.05,0.369,0.16c0.101,0.12,0.15,0.26,0.15,0.42
		c0,0.17-0.02,0.33-0.08,0.48c-0.08,0.25-0.24,0.55-0.47,0.91c-0.229,0.35-0.601,0.83-1.12,1.43c-0.06,0.07-0.42,0.45-1.08,1.13
		h-0.18c-0.08-2.06-0.24-3.34-0.49-3.86c-0.08-0.16-0.22-0.24-0.41-0.24c-0.08,0-0.189,0.01-0.34,0.04L50.874,19.185z"/>
	<path fill-rule="evenodd" clip-rule="evenodd" d="M33.604,4.875l0.34,3.66c0.569-0.66,1.021-1.28,1.36-1.87
		c0.199-0.34,0.3-0.59,0.3-0.74c0-0.07-0.021-0.13-0.05-0.19c-0.021-0.03-0.07-0.07-0.16-0.13s-0.15-0.11-0.19-0.17
		c-0.03-0.06-0.05-0.13-0.05-0.2c0-0.1,0.04-0.18,0.109-0.25c0.08-0.07,0.17-0.11,0.291-0.11c0.129,0,0.25,0.05,0.34,0.15
		c0.09,0.1,0.14,0.23,0.14,0.4c0,0.17-0.021,0.33-0.069,0.47c-0.101,0.28-0.291,0.64-0.57,1.09c-0.351,0.53-0.711,1.02-1.07,1.47
		c-0.37,0.46-0.641,0.77-0.82,0.96h-0.18l-0.32-3.38l-2.01,3.38h-0.22c-0.021-1.39-0.091-2.49-0.21-3.29
		c-0.051-0.34-0.131-0.56-0.24-0.66c-0.08-0.08-0.21-0.12-0.37-0.12c-0.1,0-0.22,0.01-0.37,0.03v-0.17l1.41-0.33
		c0.189,0.54,0.32,1.38,0.38,2.51c0.021,0.42,0.03,0.69,0.05,0.8l2-3.31H33.604z"/>
	<path fill-rule="evenodd" clip-rule="evenodd" d="M11.944,15.335l-0.851,2.91c-0.129,0.44-0.189,0.71-0.189,0.82
		c0,0.06,0.01,0.11,0.029,0.13c0.021,0.03,0.051,0.04,0.091,0.04c0.05,0,0.11-0.02,0.18-0.07c0.07-0.05,0.24-0.25,0.511-0.6
		l0.14,0.11c-0.25,0.41-0.521,0.7-0.79,0.9c-0.18,0.12-0.35,0.18-0.521,0.18c-0.12,0-0.22-0.03-0.29-0.11
		c-0.08-0.07-0.109-0.16-0.109-0.27s0.02-0.26,0.06-0.44c0.05-0.24,0.2-0.77,0.45-1.58c-0.561,0.91-1.02,1.54-1.391,1.88
		c-0.369,0.35-0.72,0.52-1.04,0.52c-0.149,0-0.279-0.05-0.38-0.15c-0.1-0.11-0.16-0.24-0.16-0.4c0-0.24,0.07-0.62,0.221-1.12
		l0.42-1.51c0.109-0.36,0.16-0.59,0.16-0.68c0-0.03-0.011-0.07-0.04-0.1c-0.03-0.02-0.06-0.04-0.09-0.04
		c-0.07,0-0.14,0.03-0.21,0.08c-0.07,0.05-0.221,0.23-0.461,0.54l-0.149-0.11c0.24-0.38,0.5-0.65,0.771-0.83
		c0.209-0.14,0.399-0.21,0.58-0.21c0.119,0,0.22,0.03,0.289,0.11c0.08,0.08,0.12,0.18,0.12,0.3c0,0.17-0.07,0.49-0.2,0.94
		l-0.449,1.58c-0.131,0.43-0.2,0.7-0.2,0.81c0,0.06,0.029,0.11,0.069,0.15c0.041,0.04,0.091,0.06,0.16,0.06
		c0.11,0,0.25-0.06,0.42-0.16c0.17-0.11,0.4-0.35,0.69-0.72c0.29-0.37,0.53-0.72,0.71-1.04c0.189-0.32,0.391-0.84,0.6-1.55
		l0.11-0.37H11.944z"/>
	<path fill-rule="evenodd" clip-rule="evenodd" d="M33.484,28.915h0.71l-1.39,2.52c-0.021,0.13,0,0.31,0.08,0.53
		c0.08,0.24,0.189,0.37,0.33,0.37c0.079,0,0.18-0.09,0.31-0.25c0.03-0.04,0.069-0.06,0.12-0.06c0.079,0,0.109,0.04,0.109,0.11
		c0,0.05-0.01,0.11-0.05,0.18c-0.21,0.41-0.42,0.61-0.64,0.61c-0.141,0-0.271-0.14-0.381-0.42c-0.029-0.07-0.09-0.28-0.189-0.63
		c-0.39,0.71-0.95,1.06-1.65,1.06c-0.43,0-0.75-0.14-0.97-0.43c-0.21-0.26-0.31-0.59-0.31-1.02c0-0.17,0.02-0.35,0.06-0.53
		c0.11-0.56,0.341-1.04,0.681-1.45c0.41-0.48,0.869-0.72,1.399-0.72c0.33,0,0.59,0.14,0.79,0.41c0.17,0.25,0.26,0.53,0.26,0.86
		c0,0.09-0.01,0.16-0.02,0.24L33.484,28.915z M32.414,30.985c0.03-0.11,0.051-0.24,0.051-0.38c0-0.34-0.07-0.64-0.19-0.89
		c-0.15-0.3-0.37-0.45-0.65-0.45c-0.35,0-0.65,0.19-0.92,0.58c-0.2,0.29-0.34,0.63-0.42,1.02c-0.04,0.19-0.061,0.38-0.061,0.55
		c0,0.66,0.261,1.01,0.79,1.06c0.25,0.03,0.541-0.15,0.871-0.56C32.174,31.575,32.344,31.255,32.414,30.985z"/>
	<polygon fill-rule="evenodd" clip-rule="evenodd" points="35.604,3.835 35.764,3.365 29.434,3.365 29.434,3.115 35.764,3.115 
		35.604,2.635 37.404,3.235 	"/>
	<polygon fill-rule="evenodd" clip-rule="evenodd" points="10.924,14.265 11.084,13.785 7.574,13.785 7.574,13.535 11.084,13.535 
		10.924,13.065 12.724,13.665 	"/>
	<polygon fill-rule="evenodd" clip-rule="evenodd" points="54.274,17.715 54.434,17.235 50.924,17.235 50.924,16.985 54.434,16.985 
		54.274,16.515 56.074,17.115 	"/>
</g>
<g id="Vectors">
	<polygon fill-rule="evenodd" clip-rule="evenodd" points="28.854,37.025 28.434,36.115 48.454,27.025 47.744,26.255 52.454,25.765 
		48.984,28.985 48.874,27.935 	"/>
	<polygon fill-rule="evenodd" clip-rule="evenodd" points="27.994,36.495 27.994,11.105 26.994,11.435 28.494,6.945 29.994,11.435 
		28.994,11.105 28.994,36.495 	"/>
	<polygon fill-rule="evenodd" clip-rule="evenodd" points="28.294,36.925 15.145,23.865 14.674,24.805 12.544,20.585 16.784,22.685 
		15.844,23.155 28.994,36.215 	"/>
</g>
<g id="Other">
	<path fill-rule="evenodd" clip-rule="evenodd" fill="#FF7D00" stroke="#000000" stroke-width="0.5" d="M51.994,25.995l-23.779,10.8
		l-15.601-16.08c4.18-1.15,9.729-1.85,15.83-1.85C41.444,18.865,51.994,22.065,51.994,25.995z"/>
	<path opacity="0.5" fill-rule="evenodd" clip-rule="evenodd" fill="#FFBD00" d="M18.314,19.785c1.449-0.14,3.05,0.64,3.71,2.27
		l6.35,14.19l-3.05-14.49c-0.34-1.48,0.2-2.32,1.46-2.64C23.574,19.195,20.864,19.455,18.314,19.785z"/>
</g>
</svg>
