<?xml version="1.0" encoding="utf-8"?>
<!-- Generator: Adobe Illustrator 14.0.0, SVG Export Plug-In . SVG Version: 6.00 Build 43363)  -->
<!DOCTYPE svg PUBLIC "-//W3C//DTD SVG 1.0//EN" "http://www.w3.org/TR/2001/REC-SVG-20010904/DTD/svg10.dtd">
<svg version="1.0" id="Layer_1" xmlns="http://www.w3.org/2000/svg" xmlns:xlink="http://www.w3.org/1999/xlink" x="0px" y="0px"
	 width="131.949px" height="288.435px" viewBox="0 0 131.949 288.435" enable-background="new 0 0 131.949 288.435"
	 xml:space="preserve">
<g>
	<defs>
		<path id="SVGID_1_" d="M28.633,28.131C15.042,43.975,16.87,67.834,32.714,81.426c15.841,13.587,39.696,11.767,53.291-4.067
			c13.603-15.844,11.782-39.713-4.065-53.309c-7.129-6.117-15.883-9.111-24.594-9.111C46.696,14.938,36.11,19.414,28.633,28.131"/>
	</defs>
	<clipPath id="SVGID_2_">
		<use xlink:href="#SVGID_1_"  overflow="visible"/>
	</clipPath>
	
		<radialGradient id="SVGID_3_" cx="-328.3276" cy="443.3672" r="1" gradientTransform="matrix(57.9196 0 0 -57.9196 19058.252 25718.5527)" gradientUnits="userSpaceOnUse">
		<stop  offset="0" style="stop-color:#ECECEC"/>
		<stop  offset="1" style="stop-color:#A2A2A2"/>
	</radialGradient>
	<rect x="15.042" y="14.938" clip-path="url(#SVGID_2_)" fill="url(#SVGID_3_)" width="84.565" height="80.074"/>
</g>
<g>
	<defs>
		<rect id="SVGID_4_" x="14.328" y="9.74" width="85.993" height="85.987"/>
	</defs>
	<clipPath id="SVGID_5_">
		<use xlink:href="#SVGID_4_"  overflow="visible"/>
	</clipPath>
	
		<path clip-path="url(#SVGID_5_)" fill="none" stroke="#000000" stroke-width="0.357" stroke-linecap="round" stroke-linejoin="round" stroke-dasharray="0.714,0.714" d="
		M57.352,77.395c6.551,3.809,16.43,7.283,24.266,3.402c1.789-0.89,3.271-2.081,4.463-3.502"/>
	
		<path clip-path="url(#SVGID_5_)" fill="none" stroke="#000000" stroke-width="0.357" stroke-linecap="round" stroke-linejoin="round" stroke-dasharray="0.714,0.714" d="
		M57.352,77.395C45.17,70.312,33.978,56.51,30.894,42.429c-2.246-10.249,0.389-17.832,6.069-21.527"/>
	
		<path clip-path="url(#SVGID_5_)" fill="none" stroke="#000000" stroke-width="0.357" stroke-linecap="round" stroke-linejoin="round" stroke-dasharray="0.714,0.714" d="
		M94.595,59.187c0.728-4.266-0.168-8.715-2.931-12.912c-4.573-6.951-12.807-11.146-20.375-13.171
		c-7.907-2.117-16.565-2.353-24.583-0.764c-7.815,1.546-16.098,5.03-21.617,11.268c-4.028,4.552-5.855,9.921-5.034,15.298"/>
	
		<path clip-path="url(#SVGID_5_)" fill="none" stroke="#000000" stroke-width="0.357" stroke-linecap="round" stroke-linejoin="round" stroke-dasharray="0.714,0.714" d="
		M57.352,77.395c9.236-9.118,16.607-23.256,19.296-35.855c1.218-5.715,2.128-14.498-1.241-20.164
		c-1.133-1.898-2.639-3.22-4.453-3.916"/>
	
		<path clip-path="url(#SVGID_5_)" fill="none" stroke="#000000" stroke-width="0.357" stroke-linecap="round" stroke-linejoin="round" stroke-dasharray="0.714,0.714" d="
		M57.352,77.395c-2.756,2.724-6.116,5.419-9.718,7.03c-3.345,1.499-7.447,2.273-10.796,0.053"/>
	
		<path clip-path="url(#SVGID_5_)" fill="none" stroke="#000000" stroke-width="0.714" stroke-linecap="round" stroke-linejoin="round" d="
		M86.08,77.295c1.484-1.771,2.518-3.899,3.135-6.233c1.088-4.145,0.817-8.521-0.078-12.61C85.719,42.84,72.057,26.885,57.351,20.83"
		/>
	
		<path clip-path="url(#SVGID_5_)" fill="none" stroke="#000000" stroke-width="0.714" stroke-linecap="round" stroke-linejoin="round" d="
		M70.953,17.459c-1.256-0.485-2.66-0.668-4.19-0.539c-3.417,0.289-6.719,2.029-9.411,3.91"/>
	
		<path clip-path="url(#SVGID_5_)" fill="none" stroke="#000000" stroke-width="0.714" stroke-linecap="round" stroke-linejoin="round" d="
		M36.962,20.901c4.912-3.195,12.106-3.481,20.389-0.071"/>
	
		<path clip-path="url(#SVGID_5_)" fill="none" stroke="#000000" stroke-width="0.714" stroke-linecap="round" stroke-linejoin="round" d="
		M36.838,84.478c-0.214-0.143-0.425-0.296-0.632-0.464c-3.238-2.606-4.248-7.122-4.52-10.835c-0.3-4.092,0.168-7.99,1.018-11.967
		c1.642-7.712,4.923-15.56,8.918-22.311c3.863-6.526,9.361-13.616,15.73-18.071"/>
</g>
<g>
	<defs>
		<rect id="SVGID_6_" x="14.328" y="9.74" width="85.993" height="85.987"/>
	</defs>
	<clipPath id="SVGID_7_">
		<use xlink:href="#SVGID_6_"  overflow="visible"/>
	</clipPath>
	<g clip-path="url(#SVGID_7_)">
		<defs>
			<rect id="SVGID_8_" x="49.041" y="69.926" width="32.133" height="20.536"/>
		</defs>
		<clipPath id="SVGID_9_">
			<use xlink:href="#SVGID_8_"  overflow="visible"/>
		</clipPath>
		<g clip-path="url(#SVGID_9_)">
			<defs>
				<path id="SVGID_10_" d="M49.04,85.799c1.432,0.893,3.02,1.78,4.709,2.592l5.205,2.07l1.246-0.035
					c6.026-0.461,11.946-2.36,17.194-5.648l2.742-1.917l0.07-0.161c0.854-2.584,1.107-5.49,0.896-8.41
					c-5.588,0.146-11.221-1.761-15.99-4.362C59.754,75.217,54.395,80.508,49.04,85.799"/>
			</defs>
			<clipPath id="SVGID_11_">
				<use xlink:href="#SVGID_10_"  overflow="visible"/>
			</clipPath>
			
				<linearGradient id="SVGID_12_" gradientUnits="userSpaceOnUse" x1="-343.2632" y1="427.8223" x2="-342.2632" y2="427.8223" gradientTransform="matrix(-16.9897 -13.4765 -13.4765 16.9897 9.8715 -11805.5918)">
				<stop  offset="0" style="stop-color:#B75200"/>
				<stop  offset="1" style="stop-color:#FFD000"/>
			</linearGradient>
			<polygon clip-path="url(#SVGID_11_)" fill="url(#SVGID_12_)" points="68.85,106.174 39.042,82.53 61.504,54.213 91.312,77.856 
							"/>
		</g>
	</g>
</g>
<g>
	<defs>
		<path id="SVGID_13_" d="M77.395,84.777c-5.248,3.288-11.168,5.188-17.194,5.648l-1.246,0.035l0.115,0.043
			c2.759,0.863,5.63,1.375,8.426,1.274c0.935-0.032,1.858-0.133,2.771-0.311c4.332-0.847,7.183-3.195,8.877-6.305l0.994-2.303
			h-0.002L77.395,84.777z"/>
	</defs>
	<clipPath id="SVGID_14_">
		<use xlink:href="#SVGID_13_"  overflow="visible"/>
	</clipPath>
	
		<linearGradient id="SVGID_15_" gradientUnits="userSpaceOnUse" x1="-343.2632" y1="427.8457" x2="-342.2632" y2="427.8457" gradientTransform="matrix(-16.9897 -13.4765 -13.4765 16.9897 8.3715 -11803.709)">
		<stop  offset="0" style="stop-color:#B75200"/>
		<stop  offset="1" style="stop-color:#FFD000"/>
	</linearGradient>
	<polygon clip-path="url(#SVGID_14_)" fill="url(#SVGID_15_)" points="71.955,102.191 54.563,88.396 67.135,72.548 84.527,86.344 	
		"/>
</g>
<g>
	<defs>
		<rect id="SVGID_16_" x="14.328" y="9.74" width="85.993" height="85.987"/>
	</defs>
	<clipPath id="SVGID_17_">
		<use xlink:href="#SVGID_16_"  overflow="visible"/>
	</clipPath>
	
		<path clip-path="url(#SVGID_17_)" fill="none" stroke="#000000" stroke-width="1.428" stroke-linecap="round" stroke-linejoin="round" d="
		M49.041,85.799c5.734,3.566,13.938,7.094,21.223,5.669c8.67-1.692,11.404-9.394,10.84-17.179
		c-5.588,0.146-11.221-1.761-15.99-4.363C59.754,75.217,54.396,80.508,49.041,85.799z"/>
	
		<path clip-path="url(#SVGID_17_)" fill="none" stroke="#000000" stroke-width="0.714" stroke-linecap="round" stroke-linejoin="round" d="
		M86.006,77.358C72.41,93.191,48.555,95.013,32.714,81.425c-15.844-13.591-17.672-37.45-4.081-53.294
		c13.592-15.848,37.462-17.676,53.306-4.081C97.786,37.645,99.607,61.515,86.006,77.358z"/>
	
		<path clip-path="url(#SVGID_17_)" fill="none" stroke="#000000" stroke-width="0.714" stroke-linecap="round" stroke-linejoin="round" d="
		M20.055,58.905c0.389,2.542,1.371,5.087,2.992,7.551c4.616,7.008,12.756,11.128,20.385,13.166
		c7.908,2.114,16.558,2.346,24.572,0.757c4.599-0.91,8.861-2.335,13.003-4.584c3.278-1.781,6.127-3.873,8.618-6.69
		c2.668-3.02,4.371-6.404,4.97-9.918"/>
</g>
<g>
	<defs>
		<path id="SVGID_18_" d="M57.405,20.861c0.232,0.953,0.457,1.914,0.671,2.87c0.243,1.079,0.472,2.16,0.697,3.242
			c0.496,2.418,0.956,4.841,1.385,7.27c0.478,2.691,0.92,5.383,1.338,8.082c0.432,2.8,0.836,5.599,1.214,8.404
			c1.835-1.61,3.675-3.217,5.513-4.823c4.891,5.977,8.657,12.188,11.074,19.604c2.057,6.318,3.463,15.69-1.543,21.685
			c2.703-3.128,5.409-6.255,8.112-9.379c2.616-3.026,5.233-6.055,7.851-9.078c4.928-5.698,4.994-13.898,3.432-20.532
			c-1.639-6.954-5.277-13.612-9.729-19.097c1.399-1.22,2.8-2.444,4.198-3.67c-8.406-3.461-18.2-4.815-27.452-4.815
			C61.868,20.623,59.604,20.707,57.405,20.861"/>
	</defs>
	<clipPath id="SVGID_19_">
		<use xlink:href="#SVGID_18_"  overflow="visible"/>
	</clipPath>
	
		<linearGradient id="SVGID_20_" gradientUnits="userSpaceOnUse" x1="-331.2427" y1="447.5479" x2="-330.243" y2="447.5479" gradientTransform="matrix(36.0152 38.0042 38.0042 -36.0152 -5022.4443 28738.2578)">
		<stop  offset="0" style="stop-color:#FFD000"/>
		<stop  offset="1" style="stop-color:#B75200"/>
	</linearGradient>
	<polygon clip-path="url(#SVGID_19_)" fill="url(#SVGID_20_)" points="79.168,0 131.949,55.696 76.949,107.817 24.167,52.121 	"/>
</g>
<g>
	<defs>
		<rect id="SVGID_21_" x="14.328" y="9.74" width="85.993" height="85.987"/>
	</defs>
	<clipPath id="SVGID_22_">
		<use xlink:href="#SVGID_21_"  overflow="visible"/>
	</clipPath>
	
		<path clip-path="url(#SVGID_22_)" fill="none" stroke="#000000" stroke-width="1.428" stroke-linecap="round" stroke-linejoin="round" d="
		M68.223,45.906c4.891,5.976,8.658,12.188,11.074,19.603c2.057,6.32,3.463,15.691-1.543,21.686c2.703-3.127,5.41-6.255,8.111-9.378
		c2.617-3.028,5.234-6.056,7.852-9.079c4.927-5.698,4.994-13.899,3.431-20.532c-1.64-6.954-5.276-13.613-9.729-19.096
		c1.4-1.221,2.799-2.446,4.199-3.67c-10.492-4.32-23.148-5.359-34.211-4.577c0.232,0.953,0.457,1.913,0.671,2.87
		c0.243,1.078,0.471,2.16,0.696,3.242c0.496,2.416,0.957,4.841,1.385,7.268c0.479,2.692,0.921,5.384,1.339,8.083
		c0.432,2.799,0.835,5.598,1.214,8.404C64.545,49.119,66.383,47.514,68.223,45.906z"/>
</g>
<g>
	<defs>
		<path id="SVGID_23_" d="M29.539,126.594c-13.594,15.847-11.765,39.709,4.081,53.302c15.843,13.59,39.701,11.768,53.298-4.067
			c13.604-15.846,11.783-39.719-4.066-53.315c-7.131-6.117-15.885-9.113-24.599-9.113C47.603,113.399,37.015,117.876,29.539,126.594
			"/>
	</defs>
	<clipPath id="SVGID_24_">
		<use xlink:href="#SVGID_23_"  overflow="visible"/>
	</clipPath>
	
		<radialGradient id="SVGID_25_" cx="-328.3281" cy="443.3672" r="1" gradientTransform="matrix(57.9274 0 0 -57.9274 19061.7402 25820.4297)" gradientUnits="userSpaceOnUse">
		<stop  offset="0" style="stop-color:#ECECEC"/>
		<stop  offset="1" style="stop-color:#A2A2A2"/>
	</radialGradient>
	<rect x="15.945" y="113.399" clip-path="url(#SVGID_24_)" fill="url(#SVGID_25_)" width="84.576" height="80.086"/>
</g>
<g>
	<defs>
		<rect id="SVGID_26_" x="14.328" y="108.201" width="85.993" height="85.998"/>
	</defs>
	<clipPath id="SVGID_27_">
		<use xlink:href="#SVGID_26_"  overflow="visible"/>
	</clipPath>
	
		<path clip-path="url(#SVGID_27_)" fill="none" stroke="#000000" stroke-width="0.357" stroke-linecap="round" stroke-linejoin="round" stroke-dasharray="0.714,0.714" d="
		M58.261,175.864c6.556,3.811,16.432,7.284,24.269,3.403c1.789-0.89,3.275-2.082,4.467-3.503"/>
	
		<path clip-path="url(#SVGID_27_)" fill="none" stroke="#000000" stroke-width="0.357" stroke-linecap="round" stroke-linejoin="round" stroke-dasharray="0.714,0.714" d="
		M58.261,175.864c-12.183-7.084-23.377-20.888-26.462-34.97c-2.245-10.251,0.39-17.835,6.07-21.531"/>
	
		<path clip-path="url(#SVGID_27_)" fill="none" stroke="#000000" stroke-width="0.357" stroke-linecap="round" stroke-linejoin="round" stroke-dasharray="0.714,0.714" d="
		M95.509,157.654c0.728-4.267-0.168-8.716-2.931-12.915c-4.574-6.952-12.809-11.146-20.374-13.172
		c-7.913-2.117-16.571-2.353-24.587-0.764c-7.82,1.546-16.104,5.03-21.624,11.269c-4.024,4.552-5.855,9.923-5.034,15.3"/>
	
		<path clip-path="url(#SVGID_27_)" fill="none" stroke="#000000" stroke-width="0.357" stroke-linecap="round" stroke-linejoin="round" stroke-dasharray="0.714,0.714" d="
		M58.261,175.864c9.237-9.119,16.61-23.259,19.299-35.858c1.218-5.718,2.128-14.5-1.243-20.168
		c-1.131-1.899-2.638-3.221-4.451-3.917"/>
	
		<path clip-path="url(#SVGID_27_)" fill="none" stroke="#000000" stroke-width="0.357" stroke-linecap="round" stroke-linejoin="round" stroke-dasharray="0.714,0.714" d="
		M58.261,175.864c-2.756,2.724-6.116,5.42-9.719,7.03c-3.346,1.5-7.448,2.274-10.798,0.054"/>
	
		<path clip-path="url(#SVGID_27_)" fill="none" stroke="#000000" stroke-width="0.714" stroke-linecap="round" stroke-linejoin="round" d="
		M20.958,157.372c0.389,2.542,1.371,5.088,2.992,7.553c4.617,7.009,12.758,11.129,20.388,13.168
		c7.909,2.113,16.561,2.346,24.577,0.757c4.598-0.91,8.865-2.335,13.004-4.585c3.277-1.781,6.127-3.874,8.619-6.691
		c2.671-3.021,4.369-6.405,4.97-9.919"/>
	
		<path clip-path="url(#SVGID_27_)" fill="none" stroke="#000000" stroke-width="0.714" stroke-linecap="round" stroke-linejoin="round" d="
		M71.865,115.921c-1.258-0.485-2.66-0.668-4.193-0.538c-3.417,0.288-6.719,2.027-9.411,3.909"/>
	
		<path clip-path="url(#SVGID_27_)" fill="none" stroke="#000000" stroke-width="0.714" stroke-linecap="round" stroke-linejoin="round" d="
		M37.869,119.363c4.917-3.196,12.108-3.48,20.392-0.071"/>
</g>
<g>
	<defs>
		<rect id="SVGID_28_" x="14.328" y="108.201" width="85.993" height="85.998"/>
	</defs>
	<clipPath id="SVGID_29_">
		<use xlink:href="#SVGID_28_"  overflow="visible"/>
	</clipPath>
	<g clip-path="url(#SVGID_29_)">
		<defs>
			<rect id="SVGID_30_" x="18.951" y="121.503" width="78.143" height="35.559"/>
		</defs>
		<clipPath id="SVGID_31_">
			<use xlink:href="#SVGID_30_"  overflow="visible"/>
		</clipPath>
		<g clip-path="url(#SVGID_31_)">
			<defs>
				<path id="SVGID_32_" d="M28.51,130.058c-9.162,6.713-13.111,17.192-5.645,27.004c2.314-6.934,8.298-11.94,14.472-14.957
					c6.366-3.117,13.664-4.56,20.688-4.56c7.02,0,14.315,1.446,20.681,4.556c6.173,3.021,12.158,8.024,14.472,14.961
					c7.474-9.815,3.514-20.302-5.656-27.012c-8.291-6.073-19.592-8.547-29.5-8.547C48.109,121.503,36.805,123.98,28.51,130.058"/>
			</defs>
			<clipPath id="SVGID_33_">
				<use xlink:href="#SVGID_32_"  overflow="visible"/>
			</clipPath>
			
				<linearGradient id="SVGID_34_" gradientUnits="userSpaceOnUse" x1="-331.0854" y1="444.9609" x2="-330.0854" y2="444.9609" gradientTransform="matrix(66.8838 38.6238 38.6238 -66.8838 4986.4463 42670.5)">
				<stop  offset="0" style="stop-color:#FFD000"/>
				<stop  offset="1" style="stop-color:#B75200"/>
			</linearGradient>
			<polygon clip-path="url(#SVGID_33_)" fill="url(#SVGID_34_)" points="36.719,84.583 116.051,130.396 79.331,193.98 0,148.169 			
				"/>
		</g>
	</g>
	
		<path clip-path="url(#SVGID_29_)" fill="none" stroke="#000000" stroke-width="0.714" stroke-linecap="round" stroke-linejoin="round" d="
		M86.996,175.765c1.482-1.771,2.515-3.899,3.131-6.234c1.09-4.146,0.818-8.522-0.077-12.612
		c-3.417-15.613-17.082-31.57-31.789-37.626"/>
	
		<path clip-path="url(#SVGID_29_)" fill="none" stroke="#000000" stroke-width="0.714" stroke-linecap="round" stroke-linejoin="round" d="
		M86.918,175.829c-13.597,15.836-37.455,17.656-53.298,4.066c-15.846-13.593-17.674-37.456-4.081-53.302
		c13.593-15.85,37.466-17.678,53.313-4.081C98.701,136.109,100.521,159.982,86.918,175.829z"/>
</g>
<g>
	<defs>
		<path id="SVGID_35_" d="M76.499,168.109c-2.546,0.867-5.124,1.521-7.767,1.999c-1.307,0.236-2.613,0.429-3.93,0.574
			c-0.164,0.019-0.329,0.037-0.489,0.054c-0.061,0.004-0.365-0.014-0.368,0.101c-0.007,0.168-0.011,0.34-0.014,0.511
			c-0.011,0.339-0.022,0.678-0.033,1.021c-0.142,4.817-0.289,9.635-0.432,14.454c-0.007,0.176-0.011,0.35-0.018,0.525
			c0,0.089-0.003,0.178-0.006,0.264c0,0.046,0,0.09-0.004,0.132c-0.003,0.125,0.121,0.015,0.186,0.008
			c0.617-0.067,1.235-0.146,1.849-0.239c1.253-0.187,2.492-0.414,3.728-0.696c2.499-0.571,4.913-1.325,7.284-2.313
			c4.595-1.911,8.489-4.327,11.903-8.041c1.847-2.011,3.285-4.146,4.328-6.685c0.832-2.021,1.176-4.117,1.545-6.233
			c0.84-4.749,1.676-9.494,2.515-14.243C94.866,159.18,84.732,165.303,76.499,168.109"/>
	</defs>
	<clipPath id="SVGID_36_">
		<use xlink:href="#SVGID_35_"  overflow="visible"/>
	</clipPath>
	
		<linearGradient id="SVGID_37_" gradientUnits="userSpaceOnUse" x1="-331.0854" y1="444.8955" x2="-330.0854" y2="444.8955" gradientTransform="matrix(66.8838 38.6238 38.6238 -66.8838 4981.7588 42678.5625)">
		<stop  offset="0" style="stop-color:#FFD000"/>
		<stop  offset="1" style="stop-color:#B75200"/>
	</linearGradient>
	<polygon clip-path="url(#SVGID_36_)" fill="url(#SVGID_37_)" points="71.773,134.861 113.479,158.945 88.438,202.308 
		46.732,178.224 	"/>
</g>
<g>
	<defs>
		<rect id="SVGID_38_" x="14.328" y="108.201" width="85.993" height="85.998"/>
	</defs>
	<clipPath id="SVGID_39_">
		<use xlink:href="#SVGID_38_"  overflow="visible"/>
	</clipPath>
	
		<path clip-path="url(#SVGID_39_)" fill="none" stroke="#000000" stroke-width="1.428" stroke-linecap="round" stroke-linejoin="round" d="
		M96.776,149.299c-0.839,4.749-1.675,9.494-2.514,14.243c-0.371,2.117-0.714,4.213-1.546,6.234
		c-1.043,2.539-2.481,4.674-4.327,6.684c-3.414,3.714-7.31,6.131-11.905,8.041c-2.371,0.989-4.783,1.743-7.283,2.314
		c-1.236,0.282-2.475,0.511-3.728,0.696c-0.614,0.093-1.232,0.172-1.85,0.239c-0.064,0.007-0.189,0.117-0.186-0.008
		c0.004-0.042,0.004-0.085,0.004-0.132c0.004-0.085,0.007-0.175,0.007-0.264c0.007-0.176,0.011-0.351,0.018-0.525
		c0.143-4.82,0.289-9.637,0.432-14.453c0.011-0.343,0.021-0.682,0.032-1.021c0.004-0.172,0.007-0.343,0.014-0.511
		c0.004-0.114,0.308-0.097,0.368-0.1c0.161-0.018,0.325-0.036,0.489-0.054c1.318-0.146,2.625-0.339,3.932-0.575
		c2.642-0.479,5.22-1.132,7.767-1.999C84.732,165.303,94.867,159.18,96.776,149.299z"/>
	
		<path clip-path="url(#SVGID_39_)" fill="none" stroke="#000000" stroke-width="0.714" stroke-linecap="round" stroke-linejoin="round" d="
		M37.744,182.948c-0.214-0.143-0.425-0.296-0.632-0.464c-3.239-2.607-4.249-7.123-4.52-10.837c-0.3-4.092,0.171-7.991,1.017-11.968
		c1.643-7.713,4.924-15.562,8.92-22.313c3.863-6.526,9.362-13.618,15.732-18.074"/>
</g>
<g>
	<defs>
		<path id="SVGID_40_" d="M19.245,149.171c0.506,2.882,1.014,5.763,1.524,8.644c0.254,1.439,0.508,2.879,0.761,4.321
			c0.261,1.481,0.478,2.974,0.8,4.449c1.289,5.955,5.32,10.66,10.076,14.015c3.049,2.145,6.266,3.699,9.78,4.898
			c0.192,0.063,0.146,0.218,0.157,0.36c0.011,0.132,0.024,0.26,0.035,0.394c0.022,0.264,0.043,0.523,0.065,0.784
			c0.046,0.525,0.093,1.051,0.136,1.575c0.046,0.525,0.089,1.05,0.135,1.571l0.032,0.396c0.008,0.076,0.075-0.011,0.111-0.021
			c0.043-0.011,0.082-0.021,0.121-0.032c0.082-0.021,0.161-0.043,0.243-0.064c0.329-0.09,0.654-0.186,0.979-0.282
			c5.777-1.753,10.801-4.548,15.75-7.88c1.227-0.825,2.434-1.683,3.62-2.563c0.036-0.028,0.186-0.04,0.107-0.087
			c-0.035-0.017-0.071-0.038-0.111-0.06c-0.071-0.043-0.146-0.085-0.218-0.125c-0.146-0.086-0.292-0.171-0.439-0.254
			c-0.296-0.175-0.592-0.35-0.888-0.525c-0.604-0.36-1.204-0.724-1.8-1.099c-2.567-1.604-5.056-3.311-7.495-5.106
			c-2.524-1.864-4.974-3.81-7.362-5.838c-1.261-1.068-2.5-2.157-3.721-3.271c-0.311-0.281-0.618-0.563-0.928-0.85
			c-0.076-0.071-0.154-0.143-0.229-0.214c-0.054-0.049-0.182-0.261-0.168-0.121c0.007,0.096,0.015,0.196,0.025,0.293
			c0.033,0.393,0.064,0.781,0.1,1.175c0.082,0.979,0.169,1.96,0.25,2.938c0.043,0.488,0.086,0.978,0.129,1.471
			c0.011,0.121,0.017,0.243,0.028,0.368c0.004,0.029,0.007,0.06,0.011,0.089c0.007,0.093-0.093-0.011-0.139-0.025
			c-0.11-0.034-0.225-0.07-0.335-0.106c-0.45-0.146-0.897-0.296-1.343-0.453c-3.453-1.218-6.652-2.746-9.683-4.828
			C24.608,159.847,20.362,155.209,19.245,149.171z"/>
	</defs>
	<clipPath id="SVGID_41_">
		<use xlink:href="#SVGID_40_"  overflow="visible"/>
	</clipPath>
	
		<linearGradient id="SVGID_42_" gradientUnits="userSpaceOnUse" x1="-331.0854" y1="444.9639" x2="-330.0854" y2="444.9639" gradientTransform="matrix(66.8838 38.6238 38.6238 -66.8838 4968.8838 42700.8125)">
		<stop  offset="0" style="stop-color:#FFD000"/>
		<stop  offset="1" style="stop-color:#B75200"/>
	</linearGradient>
	<polygon clip-path="url(#SVGID_41_)" fill="url(#SVGID_42_)" points="30.376,129.895 81.721,159.545 52.625,209.931 1.28,180.28 	
		"/>
</g>
<g>
	<defs>
		<rect id="SVGID_43_" x="14.328" y="108.201" width="85.993" height="85.998"/>
	</defs>
	<clipPath id="SVGID_44_">
		<use xlink:href="#SVGID_43_"  overflow="visible"/>
	</clipPath>
	
		<path clip-path="url(#SVGID_44_)" fill="none" stroke="#000000" stroke-width="1.428" stroke-linecap="round" stroke-linejoin="round" d="
		M19.245,149.171c1.118,6.038,5.363,10.676,10.115,13.936c3.032,2.082,6.231,3.61,9.684,4.827c0.446,0.158,0.893,0.307,1.342,0.454
		c0.111,0.036,0.225,0.071,0.336,0.107c0.046,0.014,0.146,0.117,0.139,0.024c-0.003-0.029-0.007-0.061-0.01-0.089
		c-0.011-0.125-0.018-0.247-0.029-0.368c-0.043-0.493-0.086-0.981-0.129-1.471c-0.082-0.979-0.167-1.96-0.249-2.939
		c-0.036-0.392-0.068-0.781-0.1-1.174c-0.011-0.097-0.018-0.197-0.025-0.293c-0.015-0.139,0.114,0.071,0.167,0.121
		c0.075,0.072,0.154,0.143,0.229,0.214c0.311,0.286,0.618,0.568,0.928,0.851c1.221,1.113,2.46,2.202,3.721,3.271
		c2.389,2.028,4.838,3.974,7.362,5.838c2.439,1.796,4.928,3.503,7.495,5.106c0.596,0.375,1.196,0.738,1.8,1.099
		c0.296,0.175,0.592,0.351,0.889,0.525c0.146,0.082,0.292,0.168,0.439,0.254c0.071,0.039,0.146,0.082,0.218,0.125
		c0.039,0.021,0.075,0.043,0.11,0.06c0.079,0.047-0.071,0.059-0.107,0.086c-1.185,0.882-2.392,1.739-3.62,2.564
		c-4.949,3.331-9.973,6.127-15.75,7.88c-0.325,0.097-0.65,0.193-0.979,0.282c-0.082,0.021-0.16,0.043-0.242,0.063
		c-0.04,0.012-0.079,0.022-0.122,0.033c-0.035,0.01-0.103,0.096-0.11,0.021l-0.033-0.396c-0.046-0.521-0.089-1.046-0.135-1.571
		c-0.043-0.524-0.09-1.05-0.136-1.574c-0.021-0.262-0.043-0.521-0.064-0.785c-0.011-0.133-0.025-0.262-0.036-0.394
		c-0.011-0.143,0.036-0.297-0.157-0.36c-3.513-1.2-6.731-2.753-9.78-4.899c-4.756-3.352-8.787-8.059-10.076-14.014
		c-0.321-1.476-0.539-2.968-0.8-4.449c-0.253-1.443-0.507-2.882-0.76-4.321C20.259,154.934,19.752,152.052,19.245,149.171z"/>
	
		<path clip-path="url(#SVGID_44_)" fill="none" stroke="#000000" stroke-width="1.428" stroke-linecap="round" stroke-linejoin="round" d="
		M42.325,185.651c-0.293-0.136-0.582-0.271-0.871-0.411"/>
	
		<path clip-path="url(#SVGID_44_)" fill="none" stroke="#000000" stroke-width="1.428" stroke-linecap="round" stroke-linejoin="round" d="
		M93.178,157.062c-2.314-6.938-8.299-11.939-14.473-14.961c-6.365-3.11-13.661-4.556-20.68-4.556c-7.024,0-14.322,1.442-20.688,4.56
		c-6.174,3.018-12.158,8.023-14.472,14.957c-7.466-9.812-3.517-20.292,5.645-27.004c8.295-6.077,19.599-8.555,29.511-8.555
		c9.908,0,21.209,2.474,29.5,8.548C96.69,136.76,100.65,147.246,93.178,157.062z"/>
</g>
<g>
	<defs>
		<path id="SVGID_45_" d="M57.342,202.261c-10.649,0.001-21.237,4.476-28.712,13.191c-13.588,15.845-11.763,39.703,4.084,53.294
			c15.837,13.589,39.693,11.768,53.287-4.065c13.603-15.844,11.786-39.714-4.062-53.31c-7.131-6.116-15.882-9.11-24.593-9.11
			C57.344,202.261,57.343,202.261,57.342,202.261"/>
	</defs>
	<clipPath id="SVGID_46_">
		<use xlink:href="#SVGID_45_"  overflow="visible"/>
	</clipPath>
	
		<radialGradient id="SVGID_47_" cx="-328.3276" cy="443.3672" r="1" gradientTransform="matrix(57.9196 0 0 -57.9196 19058.2207 25905.8945)" gradientUnits="userSpaceOnUse">
		<stop  offset="0" style="stop-color:#ECECEC"/>
		<stop  offset="1" style="stop-color:#A2A2A2"/>
	</radialGradient>
	<rect x="15.042" y="202.261" clip-path="url(#SVGID_46_)" fill="url(#SVGID_47_)" width="84.562" height="80.074"/>
</g>
<g>
	<defs>
		<rect id="SVGID_48_" x="14.328" y="197.063" width="85.99" height="85.986"/>
	</defs>
	<clipPath id="SVGID_49_">
		<use xlink:href="#SVGID_48_"  overflow="visible"/>
	</clipPath>
	
		<path clip-path="url(#SVGID_49_)" fill="none" stroke="#000000" stroke-width="0.714" stroke-linecap="round" stroke-linejoin="round" d="
		M86.002,264.681c-13.596,15.833-37.45,17.653-53.287,4.065c-15.848-13.591-17.672-37.449-4.085-53.294
		c13.592-15.848,37.462-17.676,53.309-4.081C97.787,224.967,99.604,248.837,86.002,264.681z"/>
	
		<path clip-path="url(#SVGID_49_)" fill="none" stroke="#000000" stroke-width="0.357" stroke-linecap="round" stroke-linejoin="round" stroke-dasharray="0.714,0.714" d="
		M57.352,264.716c6.551,3.81,16.43,7.283,24.262,3.402c1.789-0.889,3.274-2.081,4.467-3.502"/>
	
		<path clip-path="url(#SVGID_49_)" fill="none" stroke="#000000" stroke-width="0.357" stroke-linecap="round" stroke-linejoin="round" stroke-dasharray="0.714,0.714" d="
		M57.352,264.716c-12.185-7.083-23.377-20.885-26.462-34.966c-2.245-10.249,0.39-17.832,6.073-21.526"/>
	
		<path clip-path="url(#SVGID_49_)" fill="none" stroke="#000000" stroke-width="0.357" stroke-linecap="round" stroke-linejoin="round" stroke-dasharray="0.714,0.714" d="
		M94.592,246.509c0.731-4.267-0.168-8.715-2.928-12.913c-4.574-6.951-12.81-11.146-20.375-13.17
		c-7.911-2.117-16.565-2.354-24.584-0.764c-7.818,1.546-16.101,5.029-21.62,11.267c-4.024,4.552-5.852,9.921-5.031,15.298"/>
	
		<path clip-path="url(#SVGID_49_)" fill="none" stroke="#000000" stroke-width="0.357" stroke-linecap="round" stroke-linejoin="round" stroke-dasharray="0.714,0.714" d="
		M57.352,264.716c9.232-9.117,16.605-23.256,19.293-35.854c1.221-5.715,2.131-14.498-1.243-20.164
		c-1.131-1.899-2.638-3.22-4.45-3.916"/>
	
		<path clip-path="url(#SVGID_49_)" fill="none" stroke="#000000" stroke-width="0.357" stroke-linecap="round" stroke-linejoin="round" stroke-dasharray="0.714,0.714" d="
		M57.352,264.716c-2.76,2.725-6.119,5.419-9.718,7.03c-3.349,1.499-7.447,2.274-10.799,0.053"/>
	
		<path clip-path="url(#SVGID_49_)" fill="none" stroke="#000000" stroke-width="0.714" stroke-linecap="round" stroke-linejoin="round" d="
		M20.055,246.227c0.386,2.542,1.367,5.087,2.992,7.551c4.612,7.008,12.756,11.128,20.385,13.166
		c7.904,2.114,16.558,2.347,24.57,0.757c4.601-0.909,8.863-2.335,13.002-4.584c3.277-1.78,6.125-3.873,8.617-6.689
		c2.672-3.021,4.371-6.405,4.971-9.918"/>
</g>
<g>
	<defs>
		<rect id="SVGID_50_" x="14.328" y="197.063" width="85.99" height="85.986"/>
	</defs>
	<clipPath id="SVGID_51_">
		<use xlink:href="#SVGID_50_"  overflow="visible"/>
	</clipPath>
	<g clip-path="url(#SVGID_51_)">
		<defs>
			<rect id="SVGID_52_" x="26.27" y="202.413" width="62.238" height="17.166"/>
		</defs>
		<clipPath id="SVGID_53_">
			<use xlink:href="#SVGID_52_"  overflow="visible"/>
		</clipPath>
		<g clip-path="url(#SVGID_53_)">
			<defs>
				<path id="SVGID_54_" d="M57.408,202.415c-6.254,0.031-12.959,1.046-18.778,3.58c-5.306,2.31-11.735,6.861-12.36,13.584
					c0.949-0.803,1.953-1.546,2.992-2.234c1.078-0.71,2.192-1.36,3.334-1.957c1.164-0.606,2.356-1.153,3.57-1.649
					c1.293-0.528,2.61-0.996,3.945-1.405c1.35-0.42,2.714-0.775,4.091-1.082c1.468-0.329,2.95-0.598,4.438-0.808
					c1.475-0.207,2.96-0.364,4.449-0.467c1.535-0.107,3.074-0.165,4.609-0.161c3.024,0.003,6.043,0.221,9.032,0.675
					c1.424,0.218,2.838,0.485,4.24,0.813c1.364,0.313,2.715,0.686,4.049,1.114c2.582,0.824,5.099,1.856,7.486,3.135
					c1.055,0.563,2.081,1.175,3.074,1.835c1.018,0.674,1.996,1.406,2.928,2.191c-0.507-6.661-7.172-11.317-12.349-13.591
					c-5.737-2.521-12.237-3.575-18.438-3.575C57.617,202.413,57.513,202.413,57.408,202.415"/>
			</defs>
			<clipPath id="SVGID_55_">
				<use xlink:href="#SVGID_54_"  overflow="visible"/>
			</clipPath>
			
				<linearGradient id="SVGID_56_" gradientUnits="userSpaceOnUse" x1="-341.7334" y1="438.7109" x2="-340.7337" y2="438.7109" gradientTransform="matrix(-44.1801 -1.6069 -1.6069 44.1801 -14313.9287 -19719.6445)">
				<stop  offset="0" style="stop-color:#FFD000"/>
				<stop  offset="1" style="stop-color:#B75200"/>
			</linearGradient>
			<polygon clip-path="url(#SVGID_55_)" fill="url(#SVGID_56_)" points="88.426,221.84 25.646,219.557 26.353,200.153 
				89.132,202.437 			"/>
		</g>
	</g>
	
		<path clip-path="url(#SVGID_51_)" fill="none" stroke="#000000" stroke-width="1.428" stroke-linecap="round" stroke-linejoin="round" d="
		M26.27,219.579c0.95-0.803,1.953-1.546,2.992-2.234c1.078-0.711,2.192-1.36,3.334-1.956c1.164-0.607,2.356-1.153,3.57-1.65
		c1.293-0.528,2.61-0.996,3.945-1.406c1.35-0.418,2.714-0.774,4.092-1.082c1.467-0.329,2.949-0.596,4.437-0.807
		c1.475-0.207,2.96-0.364,4.449-0.468c1.535-0.107,3.074-0.164,4.609-0.16c3.024,0.003,6.044,0.221,9.032,0.675
		c1.424,0.217,2.838,0.485,4.24,0.813c1.365,0.314,2.715,0.686,4.049,1.113c2.582,0.825,5.099,1.857,7.486,3.136
		c1.053,0.563,2.082,1.174,3.074,1.835c1.018,0.675,1.996,1.406,2.928,2.191c-0.507-6.662-7.172-11.316-12.349-13.591
		c-5.834-2.564-12.456-3.61-18.751-3.574c-6.254,0.032-12.959,1.046-18.778,3.581C33.325,208.306,26.895,212.856,26.27,219.579z"/>
	
		<path clip-path="url(#SVGID_51_)" fill="none" stroke="#000000" stroke-width="0.714" stroke-linecap="round" stroke-linejoin="round" d="
		M86.08,264.616c1.482-1.771,2.518-3.899,3.131-6.233c1.09-4.145,0.818-8.521-0.074-12.609
		c-3.418-15.612-17.084-31.567-31.786-37.622"/>
	
		<path clip-path="url(#SVGID_51_)" fill="none" stroke="#000000" stroke-width="0.714" stroke-linecap="round" stroke-linejoin="round" d="
		M36.834,271.799c-0.214-0.143-0.425-0.296-0.632-0.464c-3.238-2.605-4.248-7.122-4.52-10.835c-0.3-4.092,0.172-7.989,1.018-11.967
		c1.646-7.712,4.923-15.559,8.918-22.31c3.863-6.526,9.361-13.616,15.733-18.072"/>
</g>
<g>
	<defs>
		<path id="SVGID_57_" d="M84.557,229.065c-3.696,3.813-8.994,6.208-13.922,7.604c-1.584,0.449-3.187,0.813-4.812,1.099
			c-0.86,0.154-1.724,0.282-2.592,0.393c-0.221,0.029-0.443,0.058-0.664,0.083c-0.111,0.014-0.221,0.024-0.336,0.038
			c-0.008,0.001-0.02,0.001-0.035,0.001c-0.074,0-0.214,0-0.21,0.074c0.018,0.266,0.035,0.529,0.053,0.793
			c0.136,2.113,0.275,4.228,0.41,6.337c0.158,2.417,0.319,4.83,0.475,7.248c0.079,1.206,0.158,2.412,0.236,3.623
			c0.039,0.604,0.078,1.207,0.122,1.811c0.007,0.153,0.018,0.303,0.028,0.452c0.007,0.127,0.282,0.04,0.346,0.033
			c0.161-0.018,0.325-0.04,0.49-0.058c0.642-0.078,1.288-0.167,1.931-0.263c9.532-1.461,21.624-5.924,27.397-14.87
			c3.023-4.682,3.815-10.019,1.623-15.28c-0.803-1.928-2.944-5.174-4.041-6.912c-1.42-2.264-2.845-4.527-4.266-6.79
			C89.943,219.726,88.59,224.902,84.557,229.065"/>
	</defs>
	<clipPath id="SVGID_58_">
		<use xlink:href="#SVGID_57_"  overflow="visible"/>
	</clipPath>
	
		<linearGradient id="SVGID_59_" gradientUnits="userSpaceOnUse" x1="-329.4668" y1="442.7695" x2="-328.4668" y2="442.7695" gradientTransform="matrix(72.83 -3.2131 -3.2131 -72.83 25439.707 31427.4395)">
		<stop  offset="0" style="stop-color:#FFD000"/>
		<stop  offset="1" style="stop-color:#B75200"/>
	</linearGradient>
	<polygon clip-path="url(#SVGID_58_)" fill="url(#SVGID_59_)" points="60.033,214.567 97.222,212.927 99.239,258.661 
		62.051,260.303 	"/>
</g>
<g>
	<defs>
		<rect id="SVGID_60_" x="14.328" y="197.063" width="85.99" height="85.986"/>
	</defs>
	<clipPath id="SVGID_61_">
		<use xlink:href="#SVGID_60_"  overflow="visible"/>
	</clipPath>
	
		<path clip-path="url(#SVGID_61_)" fill="none" stroke="#000000" stroke-width="1.428" stroke-linecap="round" stroke-linejoin="round" d="
		M86.791,214.481c3.151,5.244,1.799,10.421-2.235,14.584c-3.694,3.813-8.993,6.208-13.92,7.604c-1.585,0.45-3.188,0.814-4.812,1.101
		c-0.861,0.152-1.725,0.281-2.592,0.393c-0.222,0.028-0.443,0.057-0.664,0.082c-0.111,0.014-0.222,0.025-0.336,0.039
		c-0.046,0.003-0.25-0.014-0.246,0.075c0.018,0.264,0.036,0.527,0.053,0.792c0.136,2.114,0.275,4.227,0.411,6.337
		c0.157,2.417,0.318,4.831,0.475,7.248c0.078,1.206,0.157,2.413,0.235,3.623c0.04,0.604,0.079,1.207,0.122,1.81
		c0.007,0.154,0.018,0.305,0.028,0.454c0.008,0.125,0.282,0.039,0.347,0.032c0.16-0.019,0.325-0.039,0.489-0.057
		c0.642-0.079,1.289-0.169,1.931-0.265c9.532-1.461,21.625-5.923,27.397-14.87c3.024-4.68,3.817-10.018,1.625-15.279
		c-0.804-1.929-2.946-5.174-4.042-6.912C89.636,219.008,88.211,216.744,86.791,214.481z"/>
</g>
<g>
	<defs>
		<path id="SVGID_62_" d="M22.939,222.543c-1.864,2.959-3.378,4.998-4.155,8.558c-1.489,6.779,1.735,12.698,6.475,17.033
			c2.4,2.19,5.024,3.883,7.916,5.333c1.428,0.714,2.888,1.346,4.384,1.91c0.746,0.282,1.499,0.543,2.263,0.778
			c0.096,0.028,0.193,0.057,0.285,0.085c0.093,0.029,0,0.223-0.007,0.272c-0.031,0.196-0.064,0.392-0.1,0.588
			c-0.063,0.393-0.127,0.79-0.192,1.182c-0.153,0.936-0.307,1.875-0.461,2.814c-0.078,0.468-0.153,0.935-0.231,1.403
			c-0.018,0.1,0.092-0.045,0.135-0.071c0.05-0.029,0.103-0.063,0.154-0.094c0.107-0.064,0.21-0.124,0.314-0.189
			c0.21-0.125,0.417-0.25,0.628-0.374c0.421-0.254,0.842-0.504,1.264-0.754c3.427-2.027,6.893-3.998,10.332-6.005
			c2.713-1.585,5.408-3.195,8.061-4.88c0.653-0.414,1.307-0.832,1.953-1.257c0.161-0.107,0.321-0.215,0.482-0.317
			c0.039-0.029,0.078-0.054,0.121-0.083c0.032-0.021,0.09-0.042,0.043-0.089c-0.071-0.075-0.143-0.153-0.218-0.229
			c-0.289-0.303-0.578-0.605-0.871-0.905c-1.149-1.193-2.306-2.383-3.463-3.567c-2.356-2.414-4.72-4.823-7.029-7.286
			c-1.104-1.175-2.193-2.364-3.256-3.57c-0.518-0.59-1.028-1.179-1.532-1.778c-0.25-0.292-0.496-0.585-0.739-0.885
			c-0.035-0.044-0.107-0.187-0.125-0.087c-0.011,0.048-0.017,0.098-0.028,0.144c-0.018,0.096-0.036,0.193-0.058,0.289
			c-0.299,1.567-0.603,3.138-0.902,4.706c-0.076,0.389-0.151,0.781-0.225,1.175c-0.018,0.085,0,0.21-0.133,0.174
			c-0.096-0.029-0.192-0.053-0.289-0.082c-0.19-0.054-0.382-0.109-0.575-0.168c-0.764-0.23-1.521-0.481-2.27-0.757
			c-3.046-1.11-5.834-2.488-8.433-4.469c-5.47-4.182-8.354-10.144-4.423-16.651C26.334,217.141,24.638,219.841,22.939,222.543"/>
	</defs>
	<clipPath id="SVGID_63_">
		<use xlink:href="#SVGID_62_"  overflow="visible"/>
	</clipPath>
	
		<linearGradient id="SVGID_64_" gradientUnits="userSpaceOnUse" x1="-329.4668" y1="442.7676" x2="-328.4668" y2="442.7676" gradientTransform="matrix(72.83 -3.2131 -3.2131 -72.83 25439.707 31427.502)">
		<stop  offset="0" style="stop-color:#FFD000"/>
		<stop  offset="1" style="stop-color:#B75200"/>
	</linearGradient>
	<polygon clip-path="url(#SVGID_63_)" fill="url(#SVGID_64_)" points="15.174,214.532 62.562,212.441 64.771,262.506 
		17.383,264.597 	"/>
</g>
<g>
	<defs>
		<rect id="SVGID_65_" x="14.328" y="197.063" width="85.99" height="85.986"/>
	</defs>
	<clipPath id="SVGID_66_">
		<use xlink:href="#SVGID_65_"  overflow="visible"/>
	</clipPath>
	
		<path clip-path="url(#SVGID_66_)" fill="none" stroke="#000000" stroke-width="1.428" stroke-linecap="round" stroke-linejoin="round" d="
		M28.034,214.438c-1.699,2.703-3.395,5.402-5.095,8.104c-1.863,2.96-3.377,4.998-4.155,8.559
		c-1.489,6.778,1.735,12.699,6.476,17.033c2.399,2.191,5.023,3.884,7.915,5.333c1.428,0.714,2.888,1.346,4.384,1.909
		c0.746,0.282,1.499,0.543,2.263,0.779c0.097,0.028,0.193,0.057,0.286,0.085c0.093,0.029,0,0.222-0.007,0.272
		c-0.032,0.195-0.064,0.392-0.1,0.589c-0.064,0.392-0.129,0.789-0.193,1.181c-0.153,0.937-0.307,1.875-0.46,2.814
		c-0.079,0.467-0.154,0.935-0.232,1.402c-0.018,0.101,0.092-0.043,0.135-0.071c0.05-0.028,0.104-0.061,0.154-0.093
		c0.107-0.064,0.21-0.125,0.314-0.189c0.211-0.125,0.418-0.25,0.628-0.375c0.422-0.253,0.843-0.503,1.264-0.753
		c3.427-2.028,6.894-3.998,10.332-6.005c2.713-1.585,5.409-3.195,8.061-4.88c0.654-0.414,1.307-0.832,1.953-1.258
		c0.161-0.106,0.321-0.214,0.482-0.316c0.039-0.029,0.079-0.055,0.122-0.083c0.032-0.021,0.089-0.042,0.042-0.089
		c-0.071-0.075-0.142-0.153-0.217-0.229c-0.29-0.304-0.579-0.606-0.872-0.907c-1.149-1.192-2.306-2.381-3.463-3.566
		c-2.356-2.413-4.719-4.823-7.029-7.286c-1.103-1.175-2.192-2.364-3.256-3.57c-0.518-0.589-1.028-1.179-1.532-1.777
		c-0.25-0.293-0.496-0.586-0.739-0.887c-0.035-0.043-0.107-0.185-0.125-0.085c-0.01,0.046-0.017,0.097-0.028,0.143
		c-0.018,0.097-0.036,0.192-0.057,0.29c-0.3,1.566-0.604,3.138-0.903,4.705c-0.075,0.389-0.15,0.781-0.225,1.175
		c-0.018,0.085,0,0.21-0.132,0.175c-0.097-0.029-0.193-0.054-0.29-0.083c-0.189-0.053-0.382-0.11-0.574-0.167
		c-0.764-0.232-1.521-0.482-2.271-0.757c-3.045-1.111-5.834-2.489-8.433-4.47C26.988,226.908,24.103,220.946,28.034,214.438z"/>
	
		<path clip-path="url(#SVGID_66_)" fill="none" stroke="#000000" stroke-width="0.714" stroke-linecap="round" stroke-linejoin="round" d="
		M70.95,204.781c-1.257-0.486-2.66-0.668-4.188-0.539c-3.416,0.289-6.722,2.028-9.411,3.909"/>
	
		<path clip-path="url(#SVGID_66_)" fill="none" stroke="#000000" stroke-width="0.714" stroke-linecap="round" stroke-linejoin="round" d="
		M36.962,208.223c4.912-3.195,12.103-3.48,20.389-0.071"/>
</g>
</svg>
