<?xml version="1.0" encoding="utf-8"?>
<!-- Generator: Adobe Illustrator 14.0.0, SVG Export Plug-In . SVG Version: 6.00 Build 43363)  -->
<!DOCTYPE svg PUBLIC "-//W3C//DTD SVG 1.0//EN" "http://www.w3.org/TR/2001/REC-SVG-20010904/DTD/svg10.dtd">
<svg version="1.0" id="Layer_1" xmlns="http://www.w3.org/2000/svg" xmlns:xlink="http://www.w3.org/1999/xlink" x="0px" y="0px"
	 width="323.663px" height="65.53px" viewBox="0 0 323.663 65.53" enable-background="new 0 0 323.663 65.53" xml:space="preserve">
<rect x="38.023" y="19.751" fill-rule="evenodd" clip-rule="evenodd" fill="#CCCCCC" width="30.932" height="30.927"/>
<polygon fill-rule="evenodd" clip-rule="evenodd" fill="#FFFFFF" points="68.955,19.752 67.406,21.301 39.572,21.301 39.572,49.135 
	38.023,50.679 38.023,19.752 "/>
<polygon fill-rule="evenodd" clip-rule="evenodd" fill="#B0B0B0" points="38.023,50.678 39.572,49.134 67.406,49.134 67.406,21.301 
	68.95,19.751 68.95,50.678 "/>
<rect x="68.949" y="19.751" fill-rule="evenodd" clip-rule="evenodd" fill="#CCCCCC" width="30.932" height="30.927"/>
<polygon fill-rule="evenodd" clip-rule="evenodd" fill="#FFFFFF" points="99.881,19.752 98.333,21.301 70.499,21.301 70.499,49.135 
	68.95,50.679 68.95,19.752 "/>
<polygon fill-rule="evenodd" clip-rule="evenodd" fill="#B0B0B0" points="68.95,50.678 70.499,49.134 98.333,49.134 98.333,21.301 
	99.881,19.751 99.881,50.678 "/>
<rect x="99.876" y="19.751" fill-rule="evenodd" clip-rule="evenodd" fill="#CCCCCC" width="30.932" height="30.927"/>
<polygon fill-rule="evenodd" clip-rule="evenodd" fill="#FFFFFF" points="130.808,19.752 129.259,21.301 101.425,21.301 
	101.425,49.135 99.881,50.679 99.881,19.752 "/>
<polygon fill-rule="evenodd" clip-rule="evenodd" fill="#B0B0B0" points="99.881,50.678 101.426,49.134 129.265,49.134 
	129.265,21.301 130.809,19.751 130.809,50.678 "/>
<rect x="130.808" y="19.751" fill-rule="evenodd" clip-rule="evenodd" fill="#CCCCCC" width="30.927" height="30.927"/>
<polygon fill-rule="evenodd" clip-rule="evenodd" fill="#FFFFFF" points="161.734,19.752 160.19,21.301 132.352,21.301 
	132.352,49.135 130.808,50.679 130.808,19.752 "/>
<polygon fill-rule="evenodd" clip-rule="evenodd" fill="#B0B0B0" points="130.808,50.678 132.357,49.134 160.191,49.134 
	160.191,21.301 161.735,19.751 161.735,50.678 "/>
<rect x="161.734" y="19.751" fill-rule="evenodd" clip-rule="evenodd" fill="#CCCCCC" width="30.932" height="30.927"/>
<polygon fill-rule="evenodd" clip-rule="evenodd" fill="#FFFFFF" points="192.667,19.752 191.118,21.301 163.284,21.301 
	163.284,49.135 161.734,50.679 161.734,19.752 "/>
<polygon fill-rule="evenodd" clip-rule="evenodd" fill="#B0B0B0" points="161.734,50.678 163.284,49.134 191.118,49.134 
	191.118,21.301 192.667,19.751 192.667,50.678 "/>
<rect x="192.662" y="19.751" fill-rule="evenodd" clip-rule="evenodd" fill="#CCCCCC" width="30.932" height="30.927"/>
<polygon fill-rule="evenodd" clip-rule="evenodd" fill="#FFFFFF" points="223.593,19.752 222.044,21.301 194.21,21.301 
	194.21,49.135 192.662,50.679 192.662,19.752 "/>
<polygon fill-rule="evenodd" clip-rule="evenodd" fill="#B0B0B0" points="192.662,50.678 194.21,49.134 222.044,49.134 
	222.044,21.301 223.588,19.751 223.588,50.678 "/>
<rect x="223.593" y="19.751" fill-rule="evenodd" clip-rule="evenodd" fill="#CCCCCC" width="30.928" height="30.927"/>
<polygon fill-rule="evenodd" clip-rule="evenodd" fill="#FFFFFF" points="254.519,19.752 252.976,21.301 225.136,21.301 
	225.136,49.135 223.593,50.679 223.593,19.752 "/>
<polygon fill-rule="evenodd" clip-rule="evenodd" fill="#B0B0B0" points="223.593,50.678 225.137,49.134 252.976,49.134 
	252.976,21.301 254.52,19.751 254.52,50.678 "/>
<rect x="254.514" y="19.751" fill-rule="evenodd" clip-rule="evenodd" fill="#CCCCCC" width="30.933" height="30.927"/>
<polygon fill-rule="evenodd" clip-rule="evenodd" fill="#FFFFFF" points="285.447,19.752 283.897,21.301 256.063,21.301 
	256.063,49.135 254.52,50.679 254.52,19.752 "/>
<polygon fill-rule="evenodd" clip-rule="evenodd" fill="#B0B0B0" points="254.519,50.678 256.064,49.134 283.903,49.134 
	283.903,21.301 285.446,19.751 285.446,50.678 "/>
<rect x="285.447" y="19.751" fill-rule="evenodd" clip-rule="evenodd" fill="#CCCCCC" width="30.932" height="30.927"/>
<polygon fill-rule="evenodd" clip-rule="evenodd" fill="#FFFFFF" points="316.378,19.752 314.83,21.301 286.996,21.301 
	286.996,49.135 285.447,50.679 285.447,19.752 "/>
<polygon fill-rule="evenodd" clip-rule="evenodd" fill="#B0B0B0" points="285.447,50.678 286.996,49.134 314.83,49.134 
	314.83,21.301 316.378,19.751 316.378,50.678 "/>
<rect x="38.023" y="5.835" fill-rule="evenodd" clip-rule="evenodd" fill="#CCCCCC" width="30.932" height="13.917"/>
<polygon fill-rule="evenodd" clip-rule="evenodd" fill="#FFFFFF" points="68.955,5.835 67.406,7.374 39.572,7.374 39.572,18.213 
	38.023,19.752 38.023,5.835 "/>
<polygon fill-rule="evenodd" clip-rule="evenodd" fill="#B0B0B0" points="38.023,19.752 39.572,18.214 67.406,18.214 67.406,7.375 
	68.955,5.835 68.95,19.752 "/>
<rect x="68.949" y="5.835" fill-rule="evenodd" clip-rule="evenodd" fill="#CCCCCC" width="30.932" height="13.917"/>
<polygon fill-rule="evenodd" clip-rule="evenodd" fill="#FFFFFF" points="99.881,5.835 98.333,7.374 70.499,7.374 70.499,18.213 
	68.95,19.752 68.95,5.835 "/>
<polygon fill-rule="evenodd" clip-rule="evenodd" fill="#B0B0B0" points="68.95,19.752 70.499,18.214 98.333,18.214 98.333,7.375 
	99.881,5.835 99.881,19.752 "/>
<rect x="99.879" y="5.835" fill-rule="evenodd" clip-rule="evenodd" fill="#CCCCCC" width="30.932" height="13.917"/>
<polygon fill-rule="evenodd" clip-rule="evenodd" fill="#FFFFFF" points="130.808,5.835 129.264,7.374 101.425,7.374 
	101.425,18.213 99.881,19.752 99.881,5.835 "/>
<polygon fill-rule="evenodd" clip-rule="evenodd" fill="#B0B0B0" points="99.881,19.752 101.426,18.214 129.265,18.214 
	129.265,7.375 130.809,5.835 130.809,19.752 "/>
<polygon fill-rule="evenodd" clip-rule="evenodd" fill="#CCCCCC" points="130.808,5.835 130.808,19.752 161.735,19.752 
	161.74,5.835 "/>
<polygon fill-rule="evenodd" clip-rule="evenodd" fill="#FFFFFF" points="161.74,5.835 160.191,7.374 132.357,7.374 132.352,18.213 
	130.808,19.752 130.808,5.835 "/>
<polygon fill-rule="evenodd" clip-rule="evenodd" fill="#B0B0B0" points="130.808,19.752 132.357,18.214 160.191,18.214 
	160.191,7.375 161.735,5.835 161.735,19.752 "/>
<rect x="161.734" y="5.835" fill-rule="evenodd" clip-rule="evenodd" fill="#CCCCCC" width="30.932" height="13.917"/>
<polygon fill-rule="evenodd" clip-rule="evenodd" fill="#FFFFFF" points="192.667,5.835 191.118,7.374 163.284,7.374 
	163.284,18.213 161.734,19.752 161.734,5.835 "/>
<polygon fill-rule="evenodd" clip-rule="evenodd" fill="#B0B0B0" points="161.734,19.752 163.284,18.214 191.118,18.214 
	191.118,7.375 192.667,5.835 192.667,19.752 "/>
<rect x="192.662" y="5.835" fill-rule="evenodd" clip-rule="evenodd" fill="#CCCCCC" width="30.932" height="13.917"/>
<polygon fill-rule="evenodd" clip-rule="evenodd" fill="#FFFFFF" points="223.593,5.835 222.044,7.374 194.21,7.374 194.21,18.213 
	192.662,19.752 192.662,5.835 "/>
<polygon fill-rule="evenodd" clip-rule="evenodd" fill="#B0B0B0" points="192.662,19.752 194.21,18.214 222.044,18.214 
	222.044,7.375 223.593,5.835 223.588,19.752 "/>
<rect x="223.593" y="5.835" fill-rule="evenodd" clip-rule="evenodd" fill="#CCCCCC" width="30.928" height="13.917"/>
<polygon fill-rule="evenodd" clip-rule="evenodd" fill="#FFFFFF" points="254.519,5.835 252.976,7.374 225.136,7.374 
	225.136,18.213 223.593,19.752 223.593,5.835 "/>
<polygon fill-rule="evenodd" clip-rule="evenodd" fill="#B0B0B0" points="223.593,19.752 225.137,18.214 252.976,18.214 
	252.976,7.375 254.52,5.835 254.52,19.752 "/>
<rect x="254.517" y="5.835" fill-rule="evenodd" clip-rule="evenodd" fill="#CCCCCC" width="30.931" height="13.917"/>
<polygon fill-rule="evenodd" clip-rule="evenodd" fill="#FFFFFF" points="285.447,5.835 283.902,7.374 256.063,7.374 
	256.063,18.213 254.52,19.752 254.52,5.835 "/>
<polygon fill-rule="evenodd" clip-rule="evenodd" fill="#B0B0B0" points="254.519,19.752 256.064,18.214 283.903,18.214 
	283.903,7.375 285.446,5.835 285.446,19.752 "/>
<rect x="285.447" y="5.835" fill-rule="evenodd" clip-rule="evenodd" fill="#CCCCCC" width="30.932" height="13.917"/>
<polygon fill-rule="evenodd" clip-rule="evenodd" fill="#FFFFFF" points="316.378,5.835 314.83,7.374 286.996,7.374 286.996,18.213 
	285.447,19.752 285.451,5.835 "/>
<polygon fill-rule="evenodd" clip-rule="evenodd" fill="#B0B0B0" points="285.447,19.752 286.996,18.214 314.83,18.214 
	314.83,7.375 316.378,5.835 316.378,19.752 "/>
<text transform="matrix(1 0 0 1 45.2681 43.0034)" font-family="'TrebuchetMS-Bold'" font-size="26.1858">A</text>
<text transform="matrix(1 0 0 1 110.6538 43.0034)" font-family="'TrebuchetMS-Bold'" font-size="26.1858">f</text>
<text transform="matrix(1 0 0 1 138.8823 43.0034)" font-family="'TrebuchetMS-Bold'" font-size="26.1858">e</text>
<text transform="matrix(1 0 0 1 173.4214 43.0034)" font-family="'TrebuchetMS-Bold'" font-size="26.1858">l</text>
<text transform="matrix(1 0 0 1 202.5659 43.0034)" font-family="'TrebuchetMS-Bold'" font-size="26.1858">?</text>
<text transform="matrix(1 0 0 1 262.2959 43.0034)" font-family="'TrebuchetMS-Bold'" font-size="26.1858">#</text>
<text transform="matrix(1 0 0 1 292.1738 43.0034)" font-family="'TrebuchetMS-Bold'" font-size="26.1858">1</text>
<text transform="matrix(1 0 0 1 76.874 43.0034)" font-family="'TrebuchetMS-Bold'" font-size="26.1858">p</text>
<text transform="matrix(1 0 0 1 48.9131 15.9878)" font-family="'Helvetica-Oblique'" font-size="7.6375">65</text>
<text transform="matrix(1 0 0 1 77.7979 15.9878)" font-family="'Helvetica-Oblique'" font-size="7.6375">112</text>
<text transform="matrix(1 0 0 1 108.646 15.9878)" font-family="'Helvetica-Oblique'" font-size="7.6375">102</text>
<text transform="matrix(1 0 0 1 139.4937 15.9878)" font-family="'Helvetica-Oblique'" font-size="7.6375">101</text>
<text transform="matrix(1 0 0 1 170.3413 15.9878)" font-family="'Helvetica-Oblique'" font-size="7.6375">108</text>
<text transform="matrix(1 0 0 1 203.1445 15.9878)" font-family="'Helvetica-Oblique'" font-size="7.6375">63</text>
<text transform="matrix(1 0 0 1 233.9922 15.9878)" font-family="'Helvetica-Oblique'" font-size="7.6375">32</text>
<text transform="matrix(1 0 0 1 264.8403 15.9878)" font-family="'Helvetica-Oblique'" font-size="7.6375">35</text>
<text transform="matrix(1 0 0 1 295.688 15.9878)" font-family="'Helvetica-Oblique'" font-size="7.6375">49</text>
<text transform="matrix(1 0 0 1 51.1431 60.2095)" font-family="'Helvetica-Oblique'" font-size="7.6375">1</text>
<text transform="matrix(1 0 0 1 81.9907 60.2095)" font-family="'Helvetica-Oblique'" font-size="7.6375">2</text>
<text transform="matrix(1 0 0 1 112.8389 60.2095)" font-family="'Helvetica-Oblique'" font-size="7.6375">3</text>
<text transform="matrix(1 0 0 1 143.6865 60.2095)" font-family="'Helvetica-Oblique'" font-size="7.6375">4</text>
<text transform="matrix(1 0 0 1 174.5347 60.2095)" font-family="'Helvetica-Oblique'" font-size="7.6375">5</text>
<text transform="matrix(1 0 0 1 205.3823 60.2095)" font-family="'Helvetica-Oblique'" font-size="7.6375">6</text>
<text transform="matrix(1 0 0 1 236.23 60.2095)" font-family="'Helvetica-Oblique'" font-size="7.6375">7</text>
<text transform="matrix(1 0 0 1 267.0781 60.2095)" font-family="'Helvetica-Oblique'" font-size="7.6375">8</text>
<text transform="matrix(1 0 0 1 297.9258 60.2095)" font-family="'Helvetica-Oblique'" font-size="7.6375">9</text>
<text transform="matrix(1 0 0 1 9.5815 14.9673)"><tspan x="0" y="0" font-family="'Helvetica-Oblique'" font-size="5.4554">Char </tspan><tspan x="11.762" y="0" font-family="'Helvetica-Oblique'" font-size="5.4554">c</tspan><tspan x="14.178" y="0" font-family="'Helvetica-Oblique'" font-size="5.4554">ode</tspan></text>
<text transform="matrix(1 0 0 1 21.7036 36.8599)" font-family="'Helvetica-Oblique'" font-size="5.4554">Char</text>
<text transform="matrix(1 0 0 1 17.4429 58.5562)" font-family="'Helvetica-Oblique'" font-size="5.4554">Char #</text>
<line fill="none" stroke="#000000" stroke-width="1.091" x1="130.808" y1="5.835" x2="130.808" y2="50.678"/>
<line fill="none" stroke="#000000" stroke-width="1.091" x1="68.95" y1="5.835" x2="68.95" y2="50.678"/>
<line fill="none" stroke="#000000" stroke-width="1.091" x1="99.876" y1="5.835" x2="99.876" y2="50.678"/>
<rect x="38.023" y="5.835" fill="none" stroke="#000000" stroke-width="1.091" width="278.355" height="44.843"/>
<line fill="none" stroke="#000000" stroke-width="1.091" x1="161.734" y1="5.835" x2="161.734" y2="50.678"/>
<line fill="none" stroke="#000000" stroke-width="1.091" x1="192.662" y1="5.835" x2="192.662" y2="50.678"/>
<line fill="none" stroke="#000000" stroke-width="1.091" x1="223.593" y1="5.835" x2="223.593" y2="50.678"/>
<line fill="none" stroke="#000000" stroke-width="1.091" x1="254.519" y1="5.835" x2="254.519" y2="50.678"/>
<line fill="none" stroke="#000000" stroke-width="1.091" x1="285.447" y1="5.835" x2="285.447" y2="50.678"/>
<line fill="none" stroke="#000000" stroke-width="1.091" x1="316.378" y1="19.752" x2="38.023" y2="19.752"/>
</svg>
