<?xml version="1.0" encoding="utf-8"?>
<!-- Generator: Adobe Illustrator 14.0.0, SVG Export Plug-In . SVG Version: 6.00 Build 43363)  -->
<!DOCTYPE svg PUBLIC "-//W3C//DTD SVG 1.0//EN" "http://www.w3.org/TR/2001/REC-SVG-20010904/DTD/svg10.dtd">
<svg version="1.0" id="Layer_1" xmlns="http://www.w3.org/2000/svg" xmlns:xlink="http://www.w3.org/1999/xlink" x="0px" y="0px"
	 width="307.62px" height="292.855px" viewBox="0 0 307.62 292.855" enable-background="new 0 0 307.62 292.855"
	 xml:space="preserve">
<linearGradient id="SVGID_1_" gradientUnits="userSpaceOnUse" x1="205.6094" y1="188.5474" x2="132.8591" y2="115.7971">
	<stop  offset="0" style="stop-color:#A1A1A1"/>
	<stop  offset="1" style="stop-color:#EBEBEB"/>
</linearGradient>
<path fill-rule="evenodd" clip-rule="evenodd" fill="url(#SVGID_1_)" stroke="#000000" stroke-width="1.5" stroke-linecap="round" stroke-linejoin="round" d="
	M4.11,226.774c-0.42,0.511,1.82,2.601,2.07,2.841c2.49,2.39,5.18,4.529,7.88,6.659c3.64,2.881,7.35,5.681,11.08,8.45
	c7.47,5.541,15.03,10.931,22.65,16.261c15.23,10.659,30.65,21.03,46.28,31.12c16.3-21.181,33.59-41.131,53.26-59.34
	c9.81-9.08,20.06-17.53,30.76-25.521c10.641-7.96,21.7-15.32,31.801-24.05c20.789-17.96,35.649-38.98,48.899-62.61
	c13.89-24.74,24.931-44.69,48.08-63.02c-7.86-16.05-20.311-31.15-35.5-40.97c-14.38-9.3-35.21-15.77-51.55-4.71
	c-23.24,15.73-37.02,32.98-50.67,56.97c-6.35,11.17-12.58,22.34-20.39,32.65c-7.87,10.39-16.57,19.43-27.11,27.2
	c-10.39,7.65-21.8,13.56-32.58,20.52c-10.81,6.98-21.15,14.49-31.09,22.67C37.97,188.375,20.5,206.804,4.11,226.774z"/>
<path fill-rule="evenodd" clip-rule="evenodd" fill="none" stroke="#0D8F00" stroke-width="0.75" stroke-linecap="round" stroke-linejoin="round" stroke-dasharray="1.5,1.5" d="
	M184.84,202.285c-7.95-16.5-19.72-32.79-33.54-44.96c-7.19-6.33-14.63-11.59-23.65-15.17c-8.28-3.29-18.74-5.08-27.25,0.02"/>
<line fill-rule="evenodd" clip-rule="evenodd" fill="none" stroke="#000000" stroke-width="1.5" stroke-linecap="round" stroke-linejoin="round" x1="126.59" y1="141.745" x2="95.95" y2="6.305"/>
<path fill-rule="evenodd" clip-rule="evenodd" fill="none" stroke="#D10000" stroke-width="0.75" stroke-linecap="round" stroke-linejoin="round" stroke-dasharray="1.5,1.5" d="
	M18.37,239.635c17.36-21.561,35.75-41.73,56.6-60.041c10.38-9.109,21.17-17.59,32.52-25.459c5.8-4.021,11.71-7.861,17.72-11.551
	c5.73-3.52,11.57-6.85,17.18-10.59c11.74-7.82,21.37-16.99,29.75-28.34c8.24-11.17,14.32-23.49,21.281-35.37
	c14.31-24.44,30.349-45.08,54.199-61.47"/>
<g opacity="0.25">
	
		<path fill-rule="evenodd" clip-rule="evenodd" fill="none" stroke="#000000" stroke-width="0.75" stroke-linecap="round" stroke-linejoin="round" stroke-dasharray="1.5,1.5" d="
		M107.74,274.905c-14.43-11.53-29.04-22.8-43.87-33.811c-7.42-5.51-14.87-10.95-22.44-16.239c-3.79-2.65-7.59-5.271-11.46-7.801
		c-2.84-1.859-5.67-3.699-8.68-5.289c-0.41-0.221-2.84-1.78-3.4-1.141"/>
	
		<path fill-rule="evenodd" clip-rule="evenodd" fill="none" stroke="#000000" stroke-width="0.75" stroke-linecap="round" stroke-linejoin="round" stroke-dasharray="1.5,1.5" d="
		M119.39,261.325c-13.4-12.939-27.37-25.12-42.04-36.61c-7.32-5.729-14.77-11.27-22.54-16.39c-3.89-2.56-7.82-5.021-11.94-7.189
		c-2.79-1.48-5.55-2.881-8.66-3.661c-1.15-0.289-3.25-0.81-4.34,0.311"/>
	
		<path fill-rule="evenodd" clip-rule="evenodd" fill="none" stroke="#000000" stroke-width="0.75" stroke-linecap="round" stroke-linejoin="round" stroke-dasharray="1.5,1.5" d="
		M131.49,248.274c-12.26-14.389-25.5-27.479-40.1-39.5c-7.27-5.989-14.74-11.609-22.82-16.5c-4.03-2.439-8.12-4.669-12.53-6.38
		c-2.72-1.05-5.38-1.92-8.37-2.009c-1.94-0.061-3.54,0.06-5.09,1.5"/>
	
		<path fill-rule="evenodd" clip-rule="evenodd" fill="none" stroke="#000000" stroke-width="0.75" stroke-linecap="round" stroke-linejoin="round" stroke-dasharray="1.5,1.5" d="
		M144.08,235.804c-11.05-15.71-23.48-29.6-38.08-42.109c-7.25-6.2-14.73-11.84-23.17-16.41c-5.97-3.24-19.55-9.83-26.77-3.8"/>
	
		<path fill-rule="evenodd" clip-rule="evenodd" fill="none" stroke="#000000" stroke-width="0.75" stroke-linecap="round" stroke-linejoin="round" stroke-dasharray="1.5,1.5" d="
		M157.08,224.054c-9.43-15.93-22.18-31.76-36.12-44.02c-7.24-6.36-14.72-11.94-23.49-16.141c-7.25-3.479-19.25-7.56-27.22-1.62"/>
	
		<path fill-rule="evenodd" clip-rule="evenodd" fill="none" stroke="#000000" stroke-width="0.75" stroke-linecap="round" stroke-linejoin="round" stroke-dasharray="1.5,1.5" d="
		M170.59,212.974c-8.47-16.43-20.609-32.7-34.49-45.039c-7.21-6.4-14.67-11.841-23.65-15.7c-8.01-3.44-19-5.96-27.37-0.391"/>
	
		<path fill-rule="evenodd" clip-rule="evenodd" fill="none" stroke="#000000" stroke-width="0.75" stroke-linecap="round" stroke-linejoin="round" stroke-dasharray="1.5,1.5" d="
		M200.36,190.945c-8.271-16.24-20.431-32.14-34.5-43.89c-7.31-6.1-14.85-11.14-23.92-14.47c-8.31-3.04-18.81-4.57-27.09,0.81"/>
	
		<path fill-rule="evenodd" clip-rule="evenodd" fill="none" stroke="#000000" stroke-width="0.75" stroke-linecap="round" stroke-linejoin="round" stroke-dasharray="1.5,1.5" d="
		M218.76,175.004c-10.25-14.78-23.99-29.1-38.52-39.75c-7.561-5.55-15.29-10.29-24.15-13.6c-7.3-2.73-19.3-5.68-26.53,0.69"/>
	
		<path fill-rule="evenodd" clip-rule="evenodd" fill="none" stroke="#000000" stroke-width="0.75" stroke-linecap="round" stroke-linejoin="round" stroke-dasharray="1.5,1.5" d="
		M237.721,153.315c-13.36-12.13-27.58-22.71-42.98-32.101c-7.67-4.68-15.48-8.97-23.77-12.5c-4.131-1.76-8.291-3.31-12.69-4.33
		c-2.71-0.63-5.35-1.1-8.18-0.8c-1.84,0.2-3.33,0.51-4.61,2.08"/>
	
		<path fill-rule="evenodd" clip-rule="evenodd" fill="none" stroke="#000000" stroke-width="0.75" stroke-linecap="round" stroke-linejoin="round" stroke-dasharray="1.5,1.5" d="
		M253.03,130.555c-14.851-9.27-30.04-17.86-45.609-25.87c-7.78-4-15.62-7.84-23.631-11.36c-4-1.77-8.03-3.45-12.15-4.92
		c-2.899-1.04-5.77-2.04-8.83-2.53c-0.839-0.13-3.069-0.59-3.729,0.48"/>
	
		<path fill-rule="evenodd" clip-rule="evenodd" fill="none" stroke="#000000" stroke-width="0.75" stroke-linecap="round" stroke-linejoin="round" stroke-dasharray="1.5,1.5" d="
		M263.721,111.745c-15.07-8.91-30.44-17.19-46.161-24.89c-7.859-3.85-15.779-7.54-23.859-10.91c-4.04-1.69-8.1-3.3-12.25-4.7
		c-2.931-0.99-5.82-1.94-8.899-2.39c-0.811-0.11-3.08-0.55-3.69,0.52"/>
	
		<path fill-rule="evenodd" clip-rule="evenodd" fill="none" stroke="#000000" stroke-width="0.75" stroke-linecap="round" stroke-linejoin="round" stroke-dasharray="1.5,1.5" d="
		M272.37,97.104c-14.5-10.39-29.55-19.6-45.42-27.75c-7.92-4.07-15.94-7.82-24.29-10.93c-4.17-1.55-8.359-2.94-12.71-3.91
		c-2.82-0.62-5.56-1.13-8.5-0.89c-1.42,0.12-3.29,0.45-4.21,1.86"/>
	
		<path fill-rule="evenodd" clip-rule="evenodd" fill="none" stroke="#000000" stroke-width="0.75" stroke-linecap="round" stroke-linejoin="round" stroke-dasharray="1.5,1.5" d="
		M280.34,85.325c-13.35-12.72-27.689-23.35-43.84-32.28c-8.01-4.43-16.13-8.26-24.94-10.92c-6.1-1.84-20.419-5.53-25.899,1.5"/>
	
		<path fill-rule="evenodd" clip-rule="evenodd" fill="none" stroke="#000000" stroke-width="0.75" stroke-linecap="round" stroke-linejoin="round" stroke-dasharray="1.5,1.5" d="
		M288.16,75.455c-11.141-14.17-25.93-27.46-41.51-36.63c-8.11-4.77-16.29-8.59-25.6-10.63c-8.101-1.78-19.511-2.4-26.221,4.72"/>
	
		<path fill-rule="evenodd" clip-rule="evenodd" fill="none" stroke="#000000" stroke-width="0.75" stroke-linecap="round" stroke-linejoin="round" stroke-dasharray="1.5,1.5" d="
		M296.19,66.895c-9.431-15.5-23.12-30.04-38.671-39.66c-8.109-5.01-16.229-8.71-25.789-10.25c-9.01-1.45-18.98-0.5-26.4,5.9"/>
	
		<path fill-rule="evenodd" clip-rule="evenodd" fill="none" stroke="#000000" stroke-width="0.75" stroke-linecap="round" stroke-linejoin="round" stroke-dasharray="1.5,1.5" d="
		M8.49,231.705c16.96-20.87,34.97-40.33,55.44-57.899c10.2-8.74,20.81-16.831,31.96-24.331c5.59-3.76,11.28-7.35,17.06-10.799
		c5.69-3.41,11.44-6.7,16.95-10.42c11.34-7.66,20.76-16.6,29.029-27.5c8.171-10.76,14.261-22.62,20.95-34.21
		c13.771-23.84,29.14-43.95,52.48-59.77"/>
	
		<path fill-rule="evenodd" clip-rule="evenodd" fill="none" stroke="#000000" stroke-width="0.75" stroke-linecap="round" stroke-linejoin="round" stroke-dasharray="1.5,1.5" d="
		M33.36,250.735c17.49-21.961,36.01-42.591,56.97-61.38c10.44-9.36,21.29-18.09,32.71-26.22c5.83-4.15,11.77-8.131,17.82-11.95
		c5.76-3.65,11.63-7.101,17.26-10.951c11.81-8.08,21.51-17.5,29.95-29.04c8.32-11.38,14.51-23.88,21.55-35.95
		c14.46-24.79,30.62-45.89,54.58-62.77"/>
	
		<path fill-rule="evenodd" clip-rule="evenodd" fill="none" stroke="#000000" stroke-width="0.75" stroke-linecap="round" stroke-linejoin="round" stroke-dasharray="1.5,1.5" d="
		M52.24,264.084c17.33-22.04,35.69-42.79,56.46-61.74c10.34-9.439,21.11-18.26,32.43-26.5c5.71-4.149,11.52-8.14,17.429-12
		c5.801-3.779,11.661-7.439,17.271-11.52c11.5-8.38,21.08-18.01,29.521-29.46c8.359-11.32,14.739-23.7,21.68-35.82
		c14.2-24.84,29.93-46.31,53.6-63.55"/>
	
		<path fill-rule="evenodd" clip-rule="evenodd" fill="none" stroke="#000000" stroke-width="0.75" stroke-linecap="round" stroke-linejoin="round" stroke-dasharray="1.5,1.5" d="
		M73.19,278.365c16.93-21.78,34.86-42.3,55.18-61.061c10.12-9.34,20.67-18.069,31.75-26.26c11.051-8.17,22.78-15.34,33.58-23.89
		c10.91-8.65,20.221-18.39,28.58-29.5c8.31-11.06,15.029-22.97,21.71-34.99c13.64-24.52,28.36-46.23,51.34-63.66"/>
</g>
<g>
	<g>
		<path fill-rule="evenodd" clip-rule="evenodd" d="M188.28,212.394c0-1.029,0.21-1.87,0.63-2.52c0.41-0.64,1-0.97,1.75-0.97
			s1.32,0.27,1.69,0.81c0.38,0.54,0.57,1.49,0.57,2.83c0,1.16-0.2,2.08-0.601,2.74c-0.391,0.67-0.97,1-1.72,1
			c-0.761,0-1.341-0.27-1.73-0.811C188.48,214.945,188.28,213.915,188.28,212.394z M189.26,212.485c0,1.979,0.42,2.97,1.271,2.97
			c0.479,0,0.84-0.22,1.07-0.66c0.22-0.439,0.34-1.21,0.34-2.31c0-0.761-0.05-1.311-0.131-1.67c-0.089-0.351-0.229-0.62-0.43-0.8
			c-0.189-0.19-0.439-0.28-0.739-0.28C189.721,209.735,189.26,210.655,189.26,212.485z"/>
		<path fill-rule="evenodd" clip-rule="evenodd" d="M194.94,214.815c0.2,0,0.38,0.07,0.52,0.209c0.141,0.15,0.211,0.32,0.211,0.521
			s-0.07,0.38-0.211,0.521c-0.14,0.149-0.319,0.22-0.52,0.22s-0.37-0.07-0.52-0.22c-0.141-0.141-0.211-0.32-0.211-0.521
			s0.07-0.37,0.211-0.521C194.57,214.885,194.74,214.815,194.94,214.815z"/>
		<path fill-rule="evenodd" clip-rule="evenodd" d="M197.421,215.674l0.47-0.75c0.31,0.35,0.72,0.53,1.21,0.53
			c0.899,0,1.35-0.439,1.35-1.33c0-0.4-0.13-0.73-0.391-0.98c-0.259-0.25-0.609-0.379-1.05-0.379h-0.08v-0.791h0.041
			c0.83,0,1.239-0.369,1.25-1.1c-0.011-0.76-0.391-1.14-1.17-1.14c-0.431,0-0.761,0.14-1.011,0.43l-0.439-0.67
			c0.31-0.39,0.81-0.59,1.52-0.59c0.63,0,1.14,0.17,1.53,0.5c0.39,0.34,0.59,0.76,0.59,1.28c0,0.399-0.11,0.75-0.33,1.06
			c-0.22,0.3-0.48,0.51-0.77,0.61c0.41,0.14,0.729,0.359,0.979,0.689c0.24,0.32,0.36,0.7,0.36,1.16c0,0.66-0.211,1.181-0.63,1.54
			c-0.421,0.36-1.011,0.54-1.771,0.54c-0.32,0-0.63-0.061-0.939-0.18C197.84,215.985,197.601,215.844,197.421,215.674z"/>
		<path fill-rule="evenodd" clip-rule="evenodd" d="M203.26,212.695l-0.33-0.23v-3.46h3.561v0.83h-2.63v1.74
			c0.24-0.181,0.54-0.271,0.92-0.271c0.66,0,1.17,0.2,1.521,0.601c0.35,0.39,0.52,0.96,0.52,1.689c0,1.791-0.801,2.69-2.399,2.69
			c-0.661,0-1.221-0.19-1.661-0.561l0.381-0.81c0.439,0.359,0.869,0.54,1.28,0.54c0.919,0,1.38-0.569,1.38-1.72
			c0-1.07-0.461-1.6-1.36-1.6C204,212.135,203.61,212.325,203.26,212.695z"/>
	</g>
</g>
<g>
	<g>
		<path fill-rule="evenodd" clip-rule="evenodd" d="M0,249.315c0-1.03,0.21-1.87,0.62-2.511c0.42-0.649,1.01-0.979,1.76-0.979
			s1.31,0.28,1.69,0.819c0.37,0.541,0.56,1.48,0.56,2.83c0,1.161-0.19,2.07-0.59,2.73c-0.39,0.67-0.97,1-1.73,1
			c-0.76,0-1.33-0.27-1.72-0.8C0.19,251.865,0,250.834,0,249.315z M0.97,249.405c0.01,1.98,0.43,2.97,1.27,2.97
			c0.49,0,0.85-0.22,1.07-0.66c0.23-0.44,0.35-1.21,0.35-2.31c0-0.75-0.05-1.311-0.14-1.67c-0.08-0.35-0.23-0.62-0.42-0.8
			c-0.2-0.181-0.44-0.271-0.74-0.271C1.44,246.665,0.98,247.575,0.97,249.405z"/>
		<path fill-rule="evenodd" clip-rule="evenodd" d="M6.66,251.735c0.2,0,0.37,0.069,0.52,0.22c0.14,0.14,0.21,0.311,0.21,0.52
			c0,0.2-0.07,0.37-0.21,0.521c-0.15,0.141-0.32,0.21-0.52,0.21c-0.2,0-0.38-0.069-0.52-0.21c-0.14-0.15-0.21-0.32-0.21-0.521
			c0-0.209,0.07-0.38,0.21-0.52C6.28,251.804,6.46,251.735,6.66,251.735z"/>
		<path fill-rule="evenodd" clip-rule="evenodd" d="M9.73,249.615l-0.33-0.229v-3.461h3.56v0.83h-2.63v1.74
			c0.24-0.18,0.55-0.271,0.92-0.271c0.66,0,1.17,0.2,1.52,0.601c0.35,0.399,0.52,0.96,0.52,1.69c0,1.8-0.79,2.689-2.39,2.689
			c-0.67,0-1.22-0.181-1.66-0.55l0.37-0.82c0.45,0.36,0.87,0.54,1.28,0.54c0.92,0,1.38-0.57,1.38-1.72
			c0-1.061-0.45-1.601-1.36-1.601C10.48,249.054,10.08,249.245,9.73,249.615z"/>
	</g>
</g>
<polygon fill-rule="evenodd" clip-rule="evenodd" points="191.69,205.535 185.101,202.424 185.7,209.695 "/>
<polygon fill-rule="evenodd" clip-rule="evenodd" points="17.22,247.174 18.15,239.945 11.42,242.754 "/>
<g>
	
		<line fill-rule="evenodd" clip-rule="evenodd" fill="none" stroke="#000000" stroke-width="2.25" stroke-linejoin="bevel" x1="97.89" y1="0.584" x2="93.1" y2="8.464"/>
	
		<line fill-rule="evenodd" clip-rule="evenodd" fill="none" stroke="#000000" stroke-width="2.25" stroke-linejoin="bevel" x1="91.56" y1="2.135" x2="99.44" y2="6.925"/>
</g>
<path fill-rule="evenodd" clip-rule="evenodd" d="M124.6,141.754c0-1.14,0.93-2.07,2.07-2.07c1.13,0,2.06,0.93,2.06,2.07
	c0,1.14-0.93,2.06-2.06,2.06C125.53,143.814,124.6,142.895,124.6,141.754z"/>
<g>
	<g>
		<path fill-rule="evenodd" clip-rule="evenodd" d="M3.29,266.464c-0.56,0-1.02-0.13-1.38-0.399c-0.37-0.26-0.55-0.62-0.55-1.05
			c0-0.23,0.06-0.58,0.18-1.051c0.12-0.47,0.18-0.82,0.18-1.07c0-0.64-0.34-0.989-1.02-1.029v-0.41c0.32-0.03,0.57-0.14,0.75-0.34
			s0.27-0.46,0.27-0.78c0-0.22-0.06-0.54-0.18-0.94c-0.12-0.409-0.18-0.72-0.18-0.92c0-0.409,0.18-0.75,0.55-1.01
			c0.36-0.25,0.8-0.38,1.34-0.38h0.72v0.65H3.11c-0.53,0-0.8,0.3-0.8,0.9c0,0.209,0.05,0.479,0.16,0.81c0.1,0.329,0.15,0.6,0.15,0.8
			c0,0.51-0.37,0.979-1.1,1.399c0.34,0.141,0.61,0.33,0.81,0.551c0.19,0.22,0.29,0.449,0.29,0.67c0,0.22-0.05,0.51-0.15,0.88
			c-0.11,0.38-0.16,0.68-0.16,0.93c0,0.74,0.43,1.11,1.29,1.11h0.37v0.68H3.29z"/>
		<path fill-rule="evenodd" clip-rule="evenodd" d="M5.73,259.185v3.339c0,0.801,0.35,1.211,1.05,1.211c0.3,0,0.58-0.091,0.84-0.271
			c0.25-0.17,0.42-0.37,0.5-0.609v-3.67h0.93v5.229H8.12v-0.72c-0.11,0.199-0.31,0.39-0.63,0.56c-0.31,0.17-0.62,0.261-0.92,0.261
			c-0.57,0-1.01-0.16-1.32-0.491c-0.3-0.329-0.45-0.8-0.45-1.399v-3.439H5.73z"/>
		<path fill-rule="evenodd" clip-rule="evenodd" d="M9.84,266.464v-0.68h0.37c0.85,0,1.28-0.37,1.28-1.11
			c0-0.25-0.05-0.55-0.15-0.93c-0.1-0.37-0.15-0.66-0.15-0.88c0-0.221,0.09-0.45,0.29-0.67c0.19-0.221,0.46-0.41,0.8-0.551
			c-0.73-0.42-1.09-0.89-1.09-1.399c0-0.2,0.05-0.471,0.15-0.8c0.1-0.33,0.15-0.601,0.15-0.81c0-0.601-0.26-0.9-0.8-0.9H9.84v-0.65
			h0.72c0.53,0,0.98,0.13,1.34,0.38c0.36,0.26,0.54,0.601,0.54,1.01c0,0.2-0.06,0.511-0.18,0.92c-0.12,0.4-0.18,0.721-0.18,0.94
			c0,0.32,0.09,0.58,0.27,0.78c0.18,0.2,0.43,0.31,0.75,0.34v0.41c-0.68,0.04-1.02,0.39-1.02,1.029c0,0.241,0.06,0.601,0.18,1.061
			s0.18,0.819,0.18,1.061c0,0.43-0.18,0.79-0.54,1.05c-0.37,0.27-0.83,0.399-1.38,0.399H9.84z"/>
	</g>
</g>
<g>
	<g>
		<path fill-rule="evenodd" clip-rule="evenodd" d="M193.91,229.135c-0.56,0-1.02-0.131-1.38-0.4c-0.359-0.271-0.55-0.62-0.55-1.05
			c0-0.23,0.06-0.58,0.18-1.05c0.12-0.471,0.18-0.82,0.18-1.07c0-0.641-0.34-0.99-1.02-1.03v-0.41c0.33-0.03,0.58-0.14,0.76-0.34
			c0.17-0.2,0.26-0.46,0.26-0.78c0-0.22-0.06-0.54-0.18-0.95s-0.18-0.71-0.18-0.91c0-0.409,0.18-0.75,0.55-1.009
			c0.36-0.261,0.81-0.381,1.34-0.381h0.72v0.65h-0.85c-0.54,0-0.811,0.3-0.811,0.89c0,0.221,0.061,0.49,0.16,0.82
			c0.101,0.33,0.15,0.6,0.15,0.8c0,0.51-0.36,0.979-1.1,1.4c0.35,0.14,0.609,0.32,0.81,0.55c0.19,0.22,0.29,0.45,0.29,0.67
			c0,0.21-0.05,0.51-0.15,0.88c-0.1,0.38-0.16,0.68-0.16,0.92c0,0.75,0.431,1.12,1.291,1.12h0.369v0.681H193.91z"/>
		<polygon fill-rule="evenodd" clip-rule="evenodd" points="197.351,227.185 197.11,227.185 194.87,221.844 195.88,221.844 
			197.27,225.504 198.68,221.844 199.65,221.844 		"/>
		<path fill-rule="evenodd" clip-rule="evenodd" d="M199.891,229.135v-0.681h0.369c0.86,0,1.291-0.37,1.291-1.12
			c0-0.24-0.051-0.54-0.16-0.92c-0.101-0.37-0.15-0.67-0.15-0.88c0-0.22,0.1-0.45,0.29-0.67c0.2-0.229,0.47-0.41,0.81-0.55
			c-0.729-0.421-1.1-0.891-1.1-1.4c0-0.2,0.05-0.47,0.15-0.8c0.109-0.33,0.16-0.6,0.16-0.82c0-0.59-0.271-0.89-0.801-0.89h-0.859
			v-0.65h0.729c0.53,0,0.97,0.12,1.34,0.381c0.36,0.259,0.54,0.6,0.54,1.009c0,0.2-0.06,0.5-0.18,0.91s-0.18,0.73-0.18,0.95
			c0,0.32,0.09,0.58,0.27,0.78s0.43,0.31,0.75,0.34v0.41c-0.68,0.04-1.02,0.39-1.02,1.03c0,0.239,0.06,0.59,0.18,1.06
			c0.12,0.46,0.18,0.811,0.18,1.061c0,0.43-0.18,0.779-0.55,1.05c-0.36,0.27-0.82,0.4-1.38,0.4H199.891z"/>
	</g>
</g>
<g>
	<g>
		<path fill-rule="evenodd" clip-rule="evenodd" d="M117.54,70.935c-0.55,0-1.01-0.14-1.38-0.4c-0.36-0.27-0.55-0.62-0.55-1.06
			c0-0.23,0.06-0.57,0.18-1.04c0.12-0.47,0.19-0.83,0.19-1.07c0-0.65-0.35-0.99-1.03-1.04v-0.41c0.33-0.02,0.58-0.14,0.76-0.34
			c0.18-0.2,0.27-0.46,0.27-0.78c0-0.22-0.07-0.53-0.19-0.94c-0.12-0.41-0.18-0.71-0.18-0.91c0-0.42,0.19-0.75,0.55-1.01
			c0.36-0.26,0.81-0.39,1.34-0.39h0.72v0.65h-0.85c-0.54,0-0.8,0.3-0.8,0.9c0,0.21,0.05,0.48,0.15,0.82
			c0.1,0.33,0.15,0.59,0.15,0.79c0,0.52-0.36,0.98-1.1,1.41c0.35,0.14,0.62,0.32,0.81,0.54c0.2,0.23,0.29,0.45,0.29,0.68
			c0,0.21-0.05,0.5-0.15,0.88c-0.1,0.37-0.15,0.68-0.15,0.92c0,0.74,0.42,1.11,1.28,1.11h0.37v0.69H117.54z"/>
		<polygon fill-rule="evenodd" clip-rule="evenodd" points="123.93,68.975 123.69,68.975 122.16,65.415 120.63,68.975 
			120.38,68.975 118.51,63.635 119.51,63.635 120.62,67.064 122.02,63.635 122.26,63.635 123.69,67.064 124.9,63.635 125.81,63.635 
					"/>
		<path fill-rule="evenodd" clip-rule="evenodd" d="M126.07,70.935v-0.69h0.37c0.85,0,1.28-0.37,1.28-1.11
			c0-0.24-0.05-0.55-0.15-0.92c-0.1-0.38-0.15-0.67-0.15-0.88c0-0.23,0.09-0.45,0.29-0.68c0.19-0.22,0.46-0.4,0.8-0.54
			c-0.73-0.43-1.09-0.89-1.09-1.41c0-0.2,0.05-0.46,0.15-0.79c0.1-0.34,0.15-0.61,0.15-0.82c0-0.6-0.26-0.9-0.8-0.9h-0.85v-0.65
			h0.72c0.53,0,0.98,0.13,1.34,0.39c0.36,0.26,0.54,0.59,0.54,1.01c0,0.2-0.06,0.5-0.18,0.91c-0.12,0.41-0.18,0.72-0.18,0.94
			c0,0.32,0.09,0.58,0.27,0.78c0.18,0.2,0.43,0.32,0.75,0.34v0.41c-0.68,0.05-1.02,0.39-1.02,1.04c0,0.24,0.06,0.59,0.18,1.05
			c0.12,0.47,0.18,0.82,0.18,1.06c0,0.44-0.18,0.79-0.54,1.06c-0.37,0.26-0.83,0.4-1.38,0.4H126.07z"/>
	</g>
</g>
<g>
	<g>
		<path fill-rule="evenodd" clip-rule="evenodd" d="M115.09,50.925l0.48,0.53c-0.29,0.11-0.7,0.5-1.24,1.15
			c-0.55,0.66-0.85,1.16-0.91,1.52c0.27-0.26,0.65-0.39,1.13-0.39c0.63,0,1.14,0.2,1.52,0.6c0.38,0.41,0.57,0.96,0.57,1.67
			c0,0.7-0.19,1.26-0.59,1.69c-0.39,0.42-0.88,0.64-1.47,0.64c-1.57,0-2.36-1.04-2.36-3.12c0-0.87,0.31-1.76,0.92-2.66
			C113.76,51.645,114.41,51.104,115.09,50.925z M113.25,55.975c0,1.02,0.42,1.53,1.25,1.53c0.35,0,0.63-0.14,0.84-0.4
			c0.2-0.27,0.3-0.62,0.3-1.05c0-0.46-0.11-0.82-0.32-1.09c-0.22-0.27-0.49-0.4-0.83-0.4C113.66,54.564,113.25,55.035,113.25,55.975
			z"/>
		<path fill-rule="evenodd" clip-rule="evenodd" d="M118.79,56.834c0.2,0,0.37,0.07,0.51,0.22c0.15,0.14,0.22,0.31,0.22,0.52
			c0,0.2-0.07,0.37-0.22,0.52c-0.14,0.14-0.31,0.21-0.51,0.21c-0.21,0-0.38-0.07-0.52-0.21c-0.15-0.15-0.22-0.32-0.22-0.52
			c0-0.21,0.07-0.38,0.22-0.52C118.41,56.905,118.58,56.834,118.79,56.834z"/>
		<path fill-rule="evenodd" clip-rule="evenodd" d="M121.86,54.714l-0.33-0.23v-3.46h3.56v0.83h-2.63v1.74
			c0.24-0.18,0.54-0.27,0.92-0.27c0.66,0,1.17,0.2,1.52,0.6c0.35,0.4,0.52,0.96,0.52,1.69c0,1.8-0.8,2.69-2.4,2.69
			c-0.66,0-1.22-0.18-1.66-0.55l0.38-0.82c0.44,0.36,0.87,0.54,1.28,0.54c0.92,0,1.38-0.57,1.38-1.72c0-1.06-0.46-1.6-1.36-1.6
			C122.6,54.155,122.21,54.345,121.86,54.714z"/>
		<path fill-rule="evenodd" clip-rule="evenodd" d="M126.29,54.415c0-1.03,0.2-1.87,0.62-2.51c0.42-0.65,1-0.98,1.76-0.98
			c0.75,0,1.31,0.28,1.69,0.82c0.37,0.54,0.56,1.48,0.56,2.83c0,1.16-0.2,2.07-0.59,2.73c-0.4,0.67-0.97,1-1.73,1
			c-0.76,0-1.33-0.27-1.73-0.8C126.48,56.964,126.29,55.935,126.29,54.415z M127.26,54.504c0,1.98,0.43,2.97,1.27,2.97
			c0.49,0,0.84-0.22,1.07-0.66s0.34-1.21,0.34-2.31c0-0.75-0.04-1.31-0.13-1.67c-0.09-0.35-0.23-0.62-0.42-0.8
			c-0.2-0.18-0.45-0.27-0.75-0.27C127.72,51.765,127.26,52.675,127.26,54.504z"/>
	</g>
</g>
</svg>
