<?xml version="1.0" ?>
<!-- Uploaded to: SVG Repo, www.svgrepo.com, Generator: SVG Repo Mixer Tools -->
<svg width="800px" height="800px" viewBox="0 0 32 32" xmlns="http://www.w3.org/2000/svg">
<defs>
<style>.cls-1{fill:#f2d8c2;}.cls-2{fill:#568c78;}</style>
</defs>
<title/>
<g data-name="Layer 3" id="Layer_3">
<path class="cls-1" d="M26.72,8.38,20.85,2.31A1,1,0,0,0,20.13,2H6A1,1,0,0,0,5,3V29a1,1,0,0,0,1,1H26a1,1,0,0,0,1-1V9.08A1,1,0,0,0,26.72,8.38Z"/>
<path class="cls-2" d="M26.71,8.29l-6-6a1,1,0,0,0-1.09-.21A1,1,0,0,0,19,3V9a1,1,0,0,0,1,1h6a1,1,0,0,0,.92-.62A1,1,0,0,0,26.71,8.29Z"/>
<path class="cls-2" d="M22,18H10a1,1,0,0,1,0-2H22a1,1,0,0,1,0,2Z"/>
<path class="cls-2" d="M22,14H10a1,1,0,0,1,0-2H22a1,1,0,0,1,0,2Z"/>
<path class="cls-2" d="M22,22H10a1,1,0,0,1,0-2H22a1,1,0,0,1,0,2Z"/>
</g>
</svg>