<?xml version="1.0" encoding="utf-8"?>
<!-- Generator: Adobe Illustrator 14.0.0, SVG Export Plug-In . SVG Version: 6.00 Build 43363)  -->
<!DOCTYPE svg PUBLIC "-//W3C//DTD SVG 1.0//EN" "http://www.w3.org/TR/2001/REC-SVG-20010904/DTD/svg10.dtd">
<svg version="1.0" xmlns="http://www.w3.org/2000/svg" xmlns:xlink="http://www.w3.org/1999/xlink" x="0px" y="0px"
	 width="362.653px" height="320.663px" viewBox="0 0 362.653 320.663" enable-background="new 0 0 362.653 320.663"
	 xml:space="preserve">
<g id="Layer_1">
	<path fill-rule="evenodd" clip-rule="evenodd" fill="#0F5700" d="M306.49,36.915c-0.381,0.05-0.78-0.05-1.11-0.31
		c-0.65-0.5-0.771-1.45-0.261-2.1l19.971-25.77l-2.37-1.84l9.99-5.54l-2.88,11.05l-2.37-1.83l-19.97,25.77
		C307.229,36.675,306.869,36.865,306.49,36.915z"/>
	<path fill-rule="evenodd" clip-rule="evenodd" fill="#B20000" d="M53.79,320.655c-3.47,0.05-6.96-0.149-10.23-0.649
		c-8.15-1.221-15.57-3.851-22.21-8.091c-3.06-1.95-5.98-4.239-8.64-6.989c-1.51-1.561-2.89-3.181-4.13-4.87
		c-3.26-4.41-5.63-9.311-7.08-14.641c-0.5-1.819-0.89-3.71-1.18-5.65c-0.13-0.829-0.19-1.699-0.32-2.539
		c0.2,0.51,0.35,1.05,0.53,1.56c0.31,0.91,0.64,1.79,1,2.68c0.98,2.471,2.17,4.82,3.52,7.101c1.35,2.26,2.92,4.449,4.7,6.49
		c0.95,1.09,1.96,2.159,3.03,3.18c5.2,4.96,11.2,8.41,17.74,10.68c3.88,1.35,8,2.271,12.3,2.72c1.5,0.161,3.04,0.271,4.6,0.32
		l4.67-0.029h0.08c0.07,0,0.14-0.011,0.21-0.011c0.25-0.01,0.5-0.02,0.75-0.039c0.63-0.041,1.25-0.091,1.87-0.141
		c1.23-0.101,2.47-0.24,3.67-0.42c5.08-0.74,9.9-1.96,14.51-3.62c6.04-2.181,11.76-5.05,17.1-8.63c5.06-3.4,9.89-7.37,14.27-12.06
		c1.66-1.771,3.2-3.601,4.67-5.46c1.7-2.17,4.85-2.551,7.01-0.841c2.17,1.7,2.55,4.851,0.85,7.021c-1.81,2.289-3.73,4.539-5.8,6.71
		c-5.26,5.529-11.09,10.14-17.23,13.99c-3.17,1.989-6.48,3.75-9.88,5.279c-3.28,1.471-6.65,2.771-10.15,3.801
		c-3.26,0.97-6.6,1.75-10.07,2.3C60.73,320.315,57.26,320.615,53.79,320.655z"/>
	<linearGradient id="SVGID_1_" gradientUnits="userSpaceOnUse" x1="186.3643" y1="56.6733" x2="302.8359" y2="166.1382">
		<stop  offset="0" style="stop-color:#FFF000"/>
		<stop  offset="1" style="stop-color:#E66900"/>
	</linearGradient>
	<path fill-rule="evenodd" clip-rule="evenodd" fill="url(#SVGID_1_)" d="M155.6,146.145c-2.73,7.9,9.33,21.66,13.31,26
		c12.541,13.68,37.63,33.23,56.94,37.43c2.971,0.65,7.74,1.31,10.71-0.59c37.82-23.17,75.641-46.351,113.46-69.53
		c11.32-6.94,12.021-19.83,9.311-31.04c-2.84-11.76-8.41-21.45-15.24-31.13c-14.24-20.21-34.86-38.55-55.52-51.73
		c-18.161-11.57-47.74-26.01-71.391-23.2c-10.04,1.19-19.29,5.81-22.54,16.42C181.63,61.225,168.61,103.685,155.6,146.145z"/>
	<path fill-rule="evenodd" clip-rule="evenodd" fill="#E57500" d="M155.6,146.145c-2.73,7.9,9.33,21.66,13.31,26
		c12.541,13.68,37.63,33.23,56.94,37.43c2.971,0.65,7.74,1.31,10.71-0.59c2.47-1.58,2.78-4.34,2.36-6.9
		c-0.43-2.64-1.47-4.93-2.7-7.25c-2.479-4.63-5.61-8.659-9.04-12.59c-8.3-9.5-17.63-17.369-28.01-24.46
		c-8.511-5.82-22.69-14.14-33.58-15.45C162.21,141.925,157.05,141.945,155.6,146.145z"/>
	
		<path fill-rule="evenodd" clip-rule="evenodd" fill="none" stroke="#000000" stroke-linecap="round" stroke-linejoin="round" stroke-dasharray="4,4" d="
		M194.46,19.385c-5.41,19.44,11.38,44.69,21.699,57.46c23.341,28.89,68.9,63.04,108.631,66.85c7.88,0.76,17.16,0.33,24.46-3.79"/>
	
		<line fill-rule="evenodd" clip-rule="evenodd" fill="none" stroke="#527300" stroke-width="3" stroke-linecap="round" stroke-linejoin="round" stroke-dasharray="6,6" x1="196.83" y1="176.665" x2="280.9" y2="68.195"/>
	
		<line fill-rule="evenodd" clip-rule="evenodd" fill="none" stroke="#575700" stroke-width="3" stroke-linecap="round" stroke-linejoin="round" x1="277.58" y1="72.475" x2="305.275" y2="36.746"/>
	<path opacity="0.52" fill-rule="evenodd" clip-rule="evenodd" fill="#FFFFFF" d="M222.38,2.005L168,142.705
		c7.38,1.79,14.39,4.8,21.04,8.94l78.59-137.69C252.97,6.945,238.01,2.125,222.38,2.005z"/>
	
		<path fill-rule="evenodd" clip-rule="evenodd" fill="none" stroke="#000000" stroke-width="4" stroke-linecap="round" stroke-linejoin="round" d="
		M155.6,146.145c-2.73,7.9,9.33,21.66,13.31,26c12.541,13.68,37.63,33.23,56.94,37.43c2.971,0.65,7.74,1.31,10.71-0.59
		c37.82-23.17,75.641-46.351,113.46-69.53c11.32-6.94,12.021-19.83,9.311-31.04c-2.84-11.76-8.41-21.45-15.24-31.13
		c-14.24-20.21-34.86-38.55-55.52-51.73c-18.161-11.57-47.74-26.01-71.391-23.2c-10.04,1.19-19.29,5.81-22.54,16.42
		C181.63,61.225,168.61,103.685,155.6,146.145z"/>
	
		<path fill-rule="evenodd" clip-rule="evenodd" fill="none" stroke="#634F61" stroke-width="3" stroke-linecap="round" stroke-dasharray="6,6" d="
		M217.06,192.084c25.94-15.81,53.99-29.02,83.79-39.82"/>
	
		<polyline fill-rule="evenodd" clip-rule="evenodd" fill="none" stroke="#000000" stroke-linejoin="bevel" stroke-dasharray="2,2" points="
		155.6,146.145 113.15,284.634 236.56,208.985 	"/>
	<g>
		
			<line fill-rule="evenodd" clip-rule="evenodd" fill="none" stroke="#000000" stroke-width="3" stroke-linejoin="bevel" x1="304.51" y1="155.895" x2="297.24" y2="148.625"/>
		
			<line fill-rule="evenodd" clip-rule="evenodd" fill="none" stroke="#000000" stroke-width="3" stroke-linejoin="bevel" x1="297.24" y1="155.895" x2="304.51" y2="148.625"/>
	</g>
	<path fill-rule="evenodd" clip-rule="evenodd" fill="none" stroke="#000000" stroke-linecap="round" stroke-linejoin="round" d="
		M155.6,146.145c-2.73,7.9,9.33,21.66,13.31,26c12.541,13.68,37.63,33.23,56.94,37.43c2.971,0.65,7.74,1.31,10.71-0.59
		c2.47-1.58,2.78-4.34,2.36-6.9c-0.43-2.64-1.47-4.93-2.7-7.25c-2.479-4.63-5.61-8.659-9.04-12.59
		c-8.3-9.5-17.63-17.369-28.01-24.46c-8.511-5.82-22.69-14.14-33.58-15.45C162.21,141.925,157.05,141.945,155.6,146.145z"/>
	<path fill-rule="evenodd" clip-rule="evenodd" fill="none" stroke="#0800A8" stroke-width="3" stroke-linecap="round" d="
		M113.18,284.555c28.73-37.44,63.79-68.05,103.88-92.471"/>
	
		<line fill-rule="evenodd" clip-rule="evenodd" fill="none" stroke="#0F5700" stroke-width="3" stroke-linecap="round" stroke-linejoin="round" x1="113.15" y1="284.634" x2="196.83" y2="176.665"/>
	<path fill-rule="evenodd" clip-rule="evenodd" fill="#FFFFFF" stroke="#000000" stroke-width="4" d="M107.59,285.095
		c-0.25-3.07,2.03-5.771,5.1-6.021c3.06-0.25,5.76,2.03,6.01,5.101c0.25,3.06-2.03,5.76-5.1,6.01
		C110.54,290.445,107.84,288.155,107.59,285.095z"/>
	<text transform="matrix(1 0 0 1 121.5068 295.4448)" font-family="'ArialMT'" font-size="14">A</text>
	<text transform="matrix(1 0 0 1 334.5068 13.1113)" font-family="'ArialMT'" font-size="14">D</text>
	<text transform="matrix(1 0 0 1 286.1738 150.4443)" font-family="'ArialMT'" font-size="14">B</text>
	<text transform="matrix(1 0 0 1 128.1733 144.7778)"><tspan x="0" y="0" font-family="'ArialMT'" font-size="14">L</tspan><tspan x="7.786" y="2" font-family="'ArialMT'" font-size="10">min</tspan></text>
	<text transform="matrix(1 0 0 1 165.8394 14.4443)"><tspan x="0" y="0" font-family="'ArialMT'" font-size="14">L</tspan><tspan x="7.786" y="2" font-family="'ArialMT'" font-size="10">max</tspan></text>
	<text transform="matrix(1 0 0 1 35.5063 308.1108)" font-family="'ArialMT'" font-size="10">Branch</text>
	<text transform="matrix(0.9089 -0.4171 0.4171 0.9089 238.667 174.646)" font-family="'ArialMT'" font-size="10">Twig</text>
</g>
<g id="Layer_2" display="none">
</g>
</svg>
