<?xml version="1.0" encoding="utf-8"?>
<!-- Generator: Adobe Illustrator 14.0.0, SVG Export Plug-In . SVG Version: 6.00 Build 43363)  -->
<!DOCTYPE svg PUBLIC "-//W3C//DTD SVG 1.1//EN" "http://www.w3.org/Graphics/SVG/1.1/DTD/svg11.dtd">
<svg version="1.1" xmlns="http://www.w3.org/2000/svg" xmlns:xlink="http://www.w3.org/1999/xlink" x="0px" y="0px"
	 width="521.28px" height="417.41px" viewBox="0 0 521.28 417.41" enable-background="new 0 0 521.28 417.41" xml:space="preserve">
<g id="Viewport_x5F_BG">
	<g>
		
			<line fill-rule="evenodd" clip-rule="evenodd" fill="none" stroke="#D4D4D4" stroke-linecap="round" stroke-linejoin="round" x1="65.88" y1="164.03" x2="520.28" y2="283.79"/>
		
			<line fill-rule="evenodd" clip-rule="evenodd" fill="none" stroke="#D4D4D4" stroke-linecap="round" stroke-linejoin="round" x1="397.56" y1="416.41" x2="520.28" y2="187.69"/>
		
			<line fill-rule="evenodd" clip-rule="evenodd" fill="none" stroke="#D4D4D4" stroke-linecap="round" stroke-linejoin="round" x1="163.75" y1="95.23" x2="520.28" y2="173.12"/>
		
			<line fill-rule="evenodd" clip-rule="evenodd" fill="none" stroke="#D4D4D4" stroke-linecap="round" stroke-linejoin="round" x1="152.94" y1="102.83" x2="520.28" y2="184.84"/>
		
			<line fill-rule="evenodd" clip-rule="evenodd" fill="none" stroke="#D4D4D4" stroke-linecap="round" stroke-linejoin="round" x1="141.76" y1="110.69" x2="520.28" y2="197.08"/>
		
			<line fill-rule="evenodd" clip-rule="evenodd" fill="none" stroke="#D4D4D4" stroke-linecap="round" stroke-linejoin="round" x1="130.2" y1="118.82" x2="520.28" y2="209.88"/>
		
			<line fill-rule="evenodd" clip-rule="evenodd" fill="none" stroke="#D4D4D4" stroke-linecap="round" stroke-linejoin="round" x1="435.93" y1="416.41" x2="520.28" y2="243.34"/>
		
			<line fill-rule="evenodd" clip-rule="evenodd" fill="none" stroke="#D4D4D4" stroke-linecap="round" stroke-linejoin="round" x1="105.84" y1="135.94" x2="520.28" y2="237.32"/>
		
			<line fill-rule="evenodd" clip-rule="evenodd" fill="none" stroke="#D4D4D4" stroke-linecap="round" stroke-linejoin="round" x1="93" y1="144.96" x2="520.28" y2="252.051"/>
		
			<line fill-rule="evenodd" clip-rule="evenodd" fill="none" stroke="#D4D4D4" stroke-linecap="round" stroke-linejoin="round" x1="79.69" y1="154.32" x2="520.28" y2="267.521"/>
		
			<line fill-rule="evenodd" clip-rule="evenodd" fill="none" stroke="#D4D4D4" stroke-linecap="round" stroke-linejoin="round" x1="205.69" y1="416.41" x2="421.44" y2="140.75"/>
		
			<line fill-rule="evenodd" clip-rule="evenodd" fill="none" stroke="#D4D4D4" stroke-linecap="round" stroke-linejoin="round" x1="1" y1="279.56" x2="413.081" y2="416.41"/>
		
			<line fill-rule="evenodd" clip-rule="evenodd" fill="none" stroke="#D4D4D4" stroke-linecap="round" stroke-linejoin="round" x1="1" y1="301.16" x2="336.78" y2="416.41"/>
		
			<line fill-rule="evenodd" clip-rule="evenodd" fill="none" stroke="#D4D4D4" stroke-linecap="round" stroke-linejoin="round" x1="359.19" y1="416.41" x2="509.61" y2="159.61"/>
		
			<line fill-rule="evenodd" clip-rule="evenodd" fill="none" stroke="#D4D4D4" stroke-linecap="round" stroke-linejoin="round" x1="320.81" y1="416.41" x2="486.959" y2="154.77"/>
		
			<line fill-rule="evenodd" clip-rule="evenodd" fill="none" stroke="#D4D4D4" stroke-linecap="round" stroke-linejoin="round" x1="1" y1="324.25" x2="260.48" y2="416.41"/>
		
			<line fill-rule="evenodd" clip-rule="evenodd" fill="none" stroke="#D4D4D4" stroke-linecap="round" stroke-linejoin="round" x1="244.07" y1="416.41" x2="442.879" y2="145.34"/>
		
			<line fill-rule="evenodd" clip-rule="evenodd" fill="none" stroke="#D4D4D4" stroke-linecap="round" stroke-linejoin="round" x1="1" y1="222.46" x2="493.93" y2="371.62"/>
		
			<line fill-rule="evenodd" clip-rule="evenodd" fill="none" stroke="#D4D4D4" stroke-linecap="round" stroke-linejoin="round" x1="1" y1="301.65" x2="244.58" y2="102.92"/>
		
			<line fill-rule="evenodd" clip-rule="evenodd" fill="none" stroke="#D4D4D4" stroke-linecap="round" stroke-linejoin="round" x1="1" y1="275.98" x2="226.55" y2="99.07"/>
		
			<line fill-rule="evenodd" clip-rule="evenodd" fill="none" stroke="#D4D4D4" stroke-linecap="round" stroke-linejoin="round" x1="1" y1="252.221" x2="208.82" y2="95.27"/>
		
			<line fill-rule="evenodd" clip-rule="evenodd" fill="none" stroke="#D4D4D4" stroke-linecap="round" stroke-linejoin="round" x1="1" y1="259.33" x2="476.169" y2="412.171"/>
		
			<line fill-rule="evenodd" clip-rule="evenodd" fill="none" stroke="#D4D4D4" stroke-linecap="round" stroke-linejoin="round" x1="1" y1="230.16" x2="191.38" y2="91.54"/>
		
			<line fill-rule="evenodd" clip-rule="evenodd" fill="none" stroke="#D4D4D4" stroke-linecap="round" stroke-linejoin="round" x1="60.61" y1="370.94" x2="319.79" y2="119.01"/>
		
			<line fill-rule="evenodd" clip-rule="evenodd" fill="none" stroke="#D4D4D4" stroke-linecap="round" stroke-linejoin="round" x1="34.74" y1="361.421" x2="300.51" y2="114.88"/>
		
			<line fill-rule="evenodd" clip-rule="evenodd" fill="none" stroke="#D4D4D4" stroke-linecap="round" stroke-linejoin="round" x1="9.53" y1="352.15" x2="281.55" y2="110.83"/>
		
			<line fill-rule="evenodd" clip-rule="evenodd" fill="none" stroke="#D4D4D4" stroke-linecap="round" stroke-linejoin="round" x1="87.17" y1="380.721" x2="339.419" y2="123.21"/>
		
			<line fill-rule="evenodd" clip-rule="evenodd" fill="none" stroke="#D4D4D4" stroke-linecap="round" stroke-linejoin="round" x1="142.47" y1="401.07" x2="379.7" y2="131.83"/>
		
			<line fill-rule="evenodd" clip-rule="evenodd" fill="none" stroke="#D4D4D4" stroke-linecap="round" stroke-linejoin="round" x1="171.27" y1="411.66" x2="400.39" y2="136.25"/>
		
			<line fill-rule="evenodd" clip-rule="evenodd" fill="none" stroke="#D4D4D4" stroke-linecap="round" stroke-linejoin="round" x1="21.15" y1="195.47" x2="509.93" y2="335.101"/>
		
			<line fill-rule="evenodd" clip-rule="evenodd" fill="none" stroke="#D4D4D4" stroke-linecap="round" stroke-linejoin="round" x1="5.03" y1="206.8" x2="502.129" y2="352.891"/>
		
			<line fill-rule="evenodd" clip-rule="evenodd" fill="none" stroke="#D4D4D4" stroke-linecap="round" stroke-linejoin="round" x1="36.64" y1="184.58" x2="517.35" y2="318.171"/>
	</g>
	<g>
		
			<line fill-rule="evenodd" clip-rule="evenodd" fill="none" stroke="#8A8A8A" stroke-linecap="round" stroke-linejoin="round" x1="174.22" y1="87.87" x2="520.28" y2="161.89"/>
		
			<line fill-rule="evenodd" clip-rule="evenodd" fill="none" stroke="#8A8A8A" stroke-linecap="round" stroke-linejoin="round" x1="118.23" y1="127.23" x2="520.28" y2="223.28"/>
		
			<line fill-rule="evenodd" clip-rule="evenodd" fill="none" stroke="#8A8A8A" stroke-linecap="round" stroke-linejoin="round" x1="474.31" y1="416.41" x2="520.28" y2="311.48"/>
		
			<line fill-rule="evenodd" clip-rule="evenodd" fill="none" stroke="#8A8A8A" stroke-linecap="round" stroke-linejoin="round" x1="282.44" y1="416.41" x2="464.72" y2="150.01"/>
		
			<line fill-rule="evenodd" clip-rule="evenodd" fill="none" stroke="#8A8A8A" stroke-linecap="round" stroke-linejoin="round" x1="1" y1="349.01" x2="184.18" y2="416.41"/>
		
			<line fill-rule="evenodd" clip-rule="evenodd" fill="none" stroke="#8A8A8A" stroke-linecap="round" stroke-linejoin="round" x1="1" y1="329.46" x2="262.911" y2="106.84"/>
		
			<line fill-rule="evenodd" clip-rule="evenodd" fill="none" stroke="#8A8A8A" stroke-linecap="round" stroke-linejoin="round" x1="1" y1="240.33" x2="485.29" y2="391.351"/>
		
			<line fill-rule="evenodd" clip-rule="evenodd" fill="none" stroke="#8A8A8A" stroke-linecap="round" stroke-linejoin="round" x1="1" y1="209.63" x2="174.22" y2="87.87"/>
		
			<line fill-rule="evenodd" clip-rule="evenodd" fill="none" stroke="#8A8A8A" stroke-linecap="round" stroke-linejoin="round" x1="262.82" y1="231.271" x2="51.54" y2="174.11"/>
		
			<line fill-rule="evenodd" clip-rule="evenodd" fill="none" stroke="#8A8A8A" stroke-linecap="round" stroke-linejoin="round" x1="262.82" y1="231.271" x2="114.45" y2="390.75"/>
	</g>
	
		<line fill-rule="evenodd" clip-rule="evenodd" fill="none" stroke="#12AB00" stroke-width="2" stroke-linecap="round" stroke-linejoin="round" x1="359.379" y1="127.48" x2="262.82" y2="231.271"/>
	
		<line fill-rule="evenodd" clip-rule="evenodd" fill="none" stroke="#A80000" stroke-width="2" stroke-linecap="round" stroke-linejoin="round" x1="520.28" y1="300.921" x2="262.82" y2="231.271"/>
</g>
<g id="Viewport_x5F_MG">
	<g>
		<path fill-rule="evenodd" clip-rule="evenodd" d="M489.3,258.141c0-3.771-3.061-6.831-6.83-6.831c-3.771,0-6.83,3.061-6.83,6.831
			c0,3.77,3.06,6.83,6.83,6.83C486.24,264.971,489.3,261.91,489.3,258.141z"/>
		<path fill-rule="evenodd" clip-rule="evenodd" d="M482.661,256.271c0-3.761-3.051-6.8-6.811-6.8s-6.811,3.039-6.811,6.8
			c0,3.77,3.051,6.81,6.811,6.81S482.661,260.04,482.661,256.271z"/>
		<path fill-rule="evenodd" clip-rule="evenodd" d="M475.129,256.101c0-3.761-3.049-6.8-6.81-6.8c-3.76,0-6.8,3.039-6.8,6.8
			c0,3.76,3.04,6.81,6.8,6.81C472.081,262.91,475.129,259.86,475.129,256.101z"/>
		<path fill-rule="evenodd" clip-rule="evenodd" d="M466.71,257.53c0-3.771-3.05-6.83-6.82-6.83s-6.83,3.06-6.83,6.83
			s3.06,6.82,6.83,6.82S466.71,261.301,466.71,257.53z"/>
		<path fill-rule="evenodd" clip-rule="evenodd" d="M457.44,260.37c0-3.78-3.07-6.85-6.859-6.85c-3.78,0-6.851,3.069-6.851,6.85
			c0,3.79,3.07,6.86,6.851,6.86C454.37,267.23,457.44,264.16,457.44,260.37z"/>
		<circle fill-rule="evenodd" clip-rule="evenodd" cx="440.51" cy="264.38" r="6.9"/>
		<path fill-rule="evenodd" clip-rule="evenodd" d="M436.77,269.24c0-3.84-3.109-6.95-6.95-6.95c-3.84,0-6.95,3.11-6.95,6.95
			s3.11,6.96,6.95,6.96C433.661,276.2,436.77,273.08,436.77,269.24z"/>
		<path fill-rule="evenodd" clip-rule="evenodd" d="M425.74,274.57c0-3.88-3.14-7.011-7.02-7.011c-3.87,0-7.01,3.131-7.01,7.011
			c0,3.87,3.14,7.01,7.01,7.01C422.6,281.58,425.74,278.44,425.74,274.57z"/>
		<path fill-rule="evenodd" clip-rule="evenodd" d="M414.55,279.921c0-3.911-3.171-7.07-7.07-7.07c-3.91,0-7.069,3.159-7.069,7.07
			c0,3.899,3.159,7.069,7.069,7.069C411.379,286.99,414.55,283.82,414.55,279.921z"/>
		<path fill-rule="evenodd" clip-rule="evenodd" d="M403.5,284.84c0-3.93-3.19-7.119-7.121-7.119c-3.939,0-7.129,3.189-7.129,7.119
			c0,3.94,3.189,7.131,7.129,7.131C400.31,291.971,403.5,288.78,403.5,284.84z"/>
		<path fill-rule="evenodd" clip-rule="evenodd" d="M392.911,288.88c0-3.959-3.211-7.159-7.171-7.159s-7.17,3.2-7.17,7.159
			c0,3.96,3.21,7.171,7.17,7.171S392.911,292.84,392.911,288.88z"/>
		<path fill-rule="evenodd" clip-rule="evenodd" d="M383.06,291.641c0-3.98-3.22-7.2-7.19-7.2c-3.979,0-7.2,3.22-7.2,7.2
			c0,3.97,3.221,7.189,7.2,7.189C379.84,298.83,383.06,295.61,383.06,291.641z"/>
		<path fill-rule="evenodd" clip-rule="evenodd" d="M374.24,292.771c0-3.98-3.229-7.211-7.21-7.211c-3.979,0-7.21,3.23-7.21,7.211
			c0,3.979,3.23,7.21,7.21,7.21C371.01,299.98,374.24,296.75,374.24,292.771z"/>
		<path fill-rule="evenodd" clip-rule="evenodd" d="M366.64,292.08c0-3.979-3.221-7.2-7.2-7.2s-7.2,3.221-7.2,7.2
			s3.221,7.21,7.2,7.21S366.64,296.06,366.64,292.08z"/>
		<path fill-rule="evenodd" clip-rule="evenodd" d="M360.379,289.51c0-3.97-3.219-7.18-7.18-7.18c-3.96,0-7.17,3.21-7.17,7.18
			c0,3.961,3.21,7.17,7.17,7.17C357.161,296.68,360.379,293.471,360.379,289.51z"/>
		<path fill-rule="evenodd" clip-rule="evenodd" d="M355.46,285.13c0-3.939-3.19-7.13-7.13-7.13c-3.94,0-7.131,3.19-7.131,7.13
			c0,3.93,3.19,7.12,7.131,7.12C352.27,292.25,355.46,289.06,355.46,285.13z"/>
		<circle fill-rule="evenodd" clip-rule="evenodd" cx="344.72" cy="279.171" r="7.06"/>
		<path fill-rule="evenodd" clip-rule="evenodd" d="M349.169,271.96c0-3.85-3.119-6.979-6.979-6.979
			c-3.859,0-6.979,3.13-6.979,6.979c0,3.86,3.12,6.99,6.979,6.99C346.05,278.95,349.169,275.82,349.169,271.96z"/>
		<path fill-rule="evenodd" clip-rule="evenodd" d="M347.36,263.921c0-3.801-3.08-6.891-6.89-6.891s-6.89,3.09-6.89,6.891
			c0,3.81,3.08,6.899,6.89,6.899S347.36,267.73,347.36,263.921z"/>
		<path fill-rule="evenodd" clip-rule="evenodd" d="M346.05,255.49c0-3.76-3.04-6.8-6.8-6.8c-3.761,0-6.801,3.04-6.801,6.8
			s3.04,6.8,6.801,6.8C343.01,262.29,346.05,259.25,346.05,255.49z"/>
		<path fill-rule="evenodd" clip-rule="evenodd" d="M344.911,247.101c0-3.7-3-6.71-6.711-6.71c-3.699,0-6.71,3.01-6.71,6.71
			c0,3.709,3.011,6.709,6.71,6.709C341.911,253.81,344.911,250.81,344.911,247.101z"/>
		<path fill-rule="evenodd" clip-rule="evenodd" d="M343.62,239.16c0-3.65-2.959-6.62-6.619-6.62c-3.65,0-6.621,2.97-6.621,6.62
			c0,3.66,2.971,6.62,6.621,6.62C340.661,245.78,343.62,242.82,343.62,239.16z"/>
		<path fill-rule="evenodd" clip-rule="evenodd" d="M341.9,232.03c0-3.62-2.93-6.55-6.55-6.55c-3.61,0-6.54,2.93-6.54,6.55
			c0,3.61,2.93,6.54,6.54,6.54C338.97,238.57,341.9,235.641,341.9,232.03z"/>
		<path fill-rule="evenodd" clip-rule="evenodd" d="M339.46,225.98c0-3.58-2.9-6.48-6.471-6.48c-3.579,0-6.479,2.9-6.479,6.48
			c0,3.57,2.9,6.47,6.479,6.47C336.56,232.45,339.46,229.551,339.46,225.98z"/>
		<path fill-rule="evenodd" clip-rule="evenodd" d="M336.12,221.221c0-3.55-2.88-6.431-6.43-6.431c-3.54,0-6.42,2.881-6.42,6.431
			s2.88,6.42,6.42,6.42C333.24,227.641,336.12,224.771,336.12,221.221z"/>
		<path fill-rule="evenodd" clip-rule="evenodd" d="M331.7,217.9c0-3.53-2.859-6.391-6.39-6.391s-6.391,2.86-6.391,6.391
			c0,3.521,2.86,6.38,6.391,6.38S331.7,221.421,331.7,217.9z"/>
		<path fill-rule="evenodd" clip-rule="evenodd" d="M326.09,216.07c0-3.52-2.851-6.37-6.36-6.37c-3.52,0-6.37,2.851-6.37,6.37
			c0,3.51,2.851,6.359,6.37,6.359C323.24,222.43,326.09,219.58,326.09,216.07z"/>
		<path fill-rule="evenodd" clip-rule="evenodd" d="M319.26,215.721c0-3.511-2.85-6.36-6.36-6.36c-3.521,0-6.369,2.85-6.369,6.36
			c0,3.52,2.849,6.37,6.369,6.37C316.411,222.091,319.26,219.24,319.26,215.721z"/>
		<path fill-rule="evenodd" clip-rule="evenodd" d="M311.21,216.79c0-3.52-2.86-6.38-6.38-6.38c-3.521,0-6.37,2.86-6.37,6.38
			s2.85,6.37,6.37,6.37C308.35,223.16,311.21,220.31,311.21,216.79z"/>
		<path fill-rule="evenodd" clip-rule="evenodd" d="M302.01,219.12c0-3.529-2.86-6.399-6.4-6.399c-3.529,0-6.399,2.87-6.399,6.399
			c0,3.54,2.87,6.4,6.399,6.4C299.15,225.521,302.01,222.66,302.01,219.12z"/>
		<path fill-rule="evenodd" clip-rule="evenodd" d="M291.82,222.5c0-3.55-2.88-6.44-6.44-6.44c-3.549,0-6.43,2.891-6.43,6.44
			c0,3.56,2.881,6.44,6.43,6.44C288.94,228.94,291.82,226.06,291.82,222.5z"/>
		<path fill-rule="evenodd" clip-rule="evenodd" d="M280.84,226.66c0-3.58-2.9-6.48-6.48-6.48c-3.579,0-6.48,2.9-6.48,6.48
			s2.901,6.49,6.48,6.49C277.94,233.15,280.84,230.24,280.84,226.66z"/>
		<path fill-rule="evenodd" clip-rule="evenodd" d="M269.35,231.271c0-3.61-2.92-6.54-6.53-6.54c-3.61,0-6.54,2.93-6.54,6.54
			c0,3.609,2.93,6.53,6.54,6.53C266.43,237.801,269.35,234.88,269.35,231.271z"/>
		<path fill-rule="evenodd" clip-rule="evenodd" d="M257.68,235.94c0-3.631-2.95-6.58-6.59-6.58c-3.63,0-6.58,2.949-6.58,6.58
			c0,3.64,2.95,6.59,6.58,6.59C254.73,242.53,257.68,239.58,257.68,235.94z"/>
		<path fill-rule="evenodd" clip-rule="evenodd" d="M246.2,240.301c0-3.671-2.97-6.641-6.63-6.641c-3.67,0-6.64,2.97-6.64,6.641
			c0,3.659,2.97,6.629,6.64,6.629C243.23,246.93,246.2,243.96,246.2,240.301z"/>
		<path fill-rule="evenodd" clip-rule="evenodd" d="M235.3,243.93c0-3.689-2.99-6.67-6.68-6.67c-3.68,0-6.67,2.98-6.67,6.67
			c0,3.69,2.99,6.671,6.67,6.671C232.31,250.601,235.3,247.62,235.3,243.93z"/>
		<path fill-rule="evenodd" clip-rule="evenodd" d="M225.35,246.48c0-3.7-3-6.7-6.7-6.7c-3.7,0-6.7,3-6.7,6.7
			c0,3.71,3,6.71,6.7,6.71C222.35,253.19,225.35,250.19,225.35,246.48z"/>
		<path fill-rule="evenodd" clip-rule="evenodd" d="M216.69,247.671c0-3.711-3-6.721-6.71-6.721s-6.72,3.01-6.72,6.721
			c0,3.709,3.01,6.709,6.72,6.709S216.69,251.38,216.69,247.671z"/>
		<path fill-rule="evenodd" clip-rule="evenodd" d="M209.55,247.29c0-3.71-3-6.71-6.71-6.71c-3.7,0-6.71,3-6.71,6.71
			c0,3.7,3.01,6.71,6.71,6.71C206.55,254,209.55,250.99,209.55,247.29z"/>
		<path fill-rule="evenodd" clip-rule="evenodd" d="M204.07,245.271c0-3.7-2.99-6.69-6.69-6.69c-3.69,0-6.69,2.99-6.69,6.69
			c0,3.689,3,6.689,6.69,6.689C201.08,251.96,204.07,248.96,204.07,245.271z"/>
		<path fill-rule="evenodd" clip-rule="evenodd" d="M200.25,241.671c0-3.681-2.98-6.65-6.65-6.65s-6.65,2.97-6.65,6.65
			c0,3.669,2.98,6.639,6.65,6.639S200.25,245.34,200.25,241.671z"/>
		<path fill-rule="evenodd" clip-rule="evenodd" d="M197.97,236.65c0-3.641-2.95-6.591-6.59-6.591c-3.64,0-6.6,2.95-6.6,6.591
			c0,3.64,2.96,6.6,6.6,6.6C195.02,243.25,197.97,240.29,197.97,236.65z"/>
		<path fill-rule="evenodd" clip-rule="evenodd" d="M197,230.51c0-3.609-2.93-6.529-6.53-6.529c-3.61,0-6.53,2.92-6.53,6.529
			c0,3.601,2.92,6.521,6.53,6.521C194.07,237.03,197,234.11,197,230.51z"/>
		<path fill-rule="evenodd" clip-rule="evenodd" d="M197,223.57c0-3.561-2.89-6.45-6.45-6.45c-3.56,0-6.45,2.89-6.45,6.45
			c0,3.57,2.89,6.45,6.45,6.45C194.11,230.021,197,227.141,197,223.57z"/>
		<path fill-rule="evenodd" clip-rule="evenodd" d="M197.62,216.23c0-3.51-2.86-6.37-6.37-6.37c-3.52,0-6.37,2.86-6.37,6.37
			c0,3.52,2.85,6.37,6.37,6.37C194.76,222.601,197.62,219.75,197.62,216.23z"/>
		<path fill-rule="evenodd" clip-rule="evenodd" d="M198.43,208.87c0-3.47-2.81-6.29-6.28-6.29c-3.48,0-6.29,2.82-6.29,6.29
			c0,3.471,2.81,6.29,6.29,6.29C195.62,215.16,198.43,212.341,198.43,208.87z"/>
		<path fill-rule="evenodd" clip-rule="evenodd" d="M199.07,201.84c0-3.43-2.79-6.21-6.22-6.21s-6.21,2.78-6.21,6.21
			c0,3.43,2.78,6.21,6.21,6.21S199.07,205.27,199.07,201.84z"/>
		<path fill-rule="evenodd" clip-rule="evenodd" d="M199.15,195.47c0-3.39-2.75-6.14-6.14-6.14c-3.4,0-6.15,2.75-6.15,6.14
			s2.75,6.14,6.15,6.14C196.4,201.61,199.15,198.86,199.15,195.47z"/>
		<path fill-rule="evenodd" clip-rule="evenodd" d="M198.36,190.01c0-3.35-2.72-6.08-6.08-6.08c-3.36,0-6.08,2.73-6.08,6.08
			c0,3.36,2.72,6.09,6.08,6.09C195.64,196.1,198.36,193.37,198.36,190.01z"/>
		<path fill-rule="evenodd" clip-rule="evenodd" d="M196.46,185.67c0-3.33-2.7-6.03-6.03-6.03c-3.34,0-6.04,2.7-6.04,6.03
			c0,3.33,2.7,6.03,6.04,6.03C193.76,191.7,196.46,189,196.46,185.67z"/>
		<path fill-rule="evenodd" clip-rule="evenodd" d="M193.24,182.57c0-3.31-2.68-6-6-6c-3.31,0-6,2.69-6,6s2.69,6,6,6
			C190.56,188.57,193.24,185.88,193.24,182.57z"/>
		<path fill-rule="evenodd" clip-rule="evenodd" d="M188.59,180.78c0-3.3-2.68-5.98-5.98-5.98c-3.3,0-5.98,2.68-5.98,5.98
			s2.68,5.98,5.98,5.98C185.91,186.76,188.59,184.08,188.59,180.78z"/>
		<path fill-rule="evenodd" clip-rule="evenodd" d="M182.45,180.31c0-3.3-2.68-5.98-5.98-5.98c-3.3,0-5.97,2.68-5.97,5.98
			c0,3.3,2.67,5.97,5.97,5.97C179.77,186.28,182.45,183.61,182.45,180.31z"/>
		<path fill-rule="evenodd" clip-rule="evenodd" d="M174.84,181.09c0-3.3-2.68-5.98-5.98-5.98c-3.31,0-5.99,2.68-5.99,5.98
			c0,3.3,2.68,5.98,5.99,5.98C172.16,187.07,174.84,184.39,174.84,181.09z"/>
		<path fill-rule="evenodd" clip-rule="evenodd" d="M165.86,183c0-3.31-2.69-6-6-6c-3.32,0-6.01,2.69-6.01,6
			c0,3.32,2.69,6.01,6.01,6.01C163.17,189.01,165.86,186.32,165.86,183z"/>
		<path fill-rule="evenodd" clip-rule="evenodd" d="M155.69,185.87c0-3.33-2.7-6.03-6.03-6.03c-3.34,0-6.04,2.7-6.04,6.03
			c0,3.34,2.7,6.04,6.04,6.04C152.99,191.91,155.69,189.21,155.69,185.87z"/>
		<path fill-rule="evenodd" clip-rule="evenodd" d="M144.58,189.46c0-3.36-2.72-6.08-6.07-6.08c-3.36,0-6.08,2.72-6.08,6.08
			c0,3.35,2.72,6.07,6.08,6.07C141.86,195.53,144.58,192.81,144.58,189.46z"/>
		<circle fill-rule="evenodd" clip-rule="evenodd" cx="126.74" cy="193.47" r="6.12"/>
		<path fill-rule="evenodd" clip-rule="evenodd" d="M120.9,197.59c0-3.4-2.76-6.16-6.16-6.16c-3.41,0-6.17,2.76-6.17,6.16
			c0,3.41,2.76,6.17,6.17,6.17C118.14,203.76,120.9,201,120.9,197.59z"/>
		<circle fill-rule="evenodd" clip-rule="evenodd" cx="102.94" cy="201.47" r="6.21"/>
		<path fill-rule="evenodd" clip-rule="evenodd" d="M98.04,204.76c0-3.45-2.79-6.25-6.24-6.25c-3.45,0-6.24,2.8-6.24,6.25
			S88.35,211,91.8,211C95.25,211,98.04,208.21,98.04,204.76z"/>
		<path fill-rule="evenodd" clip-rule="evenodd" d="M88.02,207.14c0-3.47-2.81-6.27-6.27-6.27s-6.27,2.8-6.27,6.27
			c0,3.46,2.81,6.27,6.27,6.27S88.02,210.601,88.02,207.14z"/>
		<path fill-rule="evenodd" clip-rule="evenodd" d="M79.44,208.34c0-3.46-2.81-6.28-6.28-6.28c-3.47,0-6.28,2.82-6.28,6.28
			c0,3.469,2.81,6.29,6.28,6.29C76.63,214.63,79.44,211.81,79.44,208.34z"/>
		<circle fill-rule="evenodd" clip-rule="evenodd" cx="66.32" cy="208.2" r="6.28"/>
		<path fill-rule="evenodd" clip-rule="evenodd" d="M67.64,206.62c0-3.46-2.8-6.26-6.26-6.26c-3.46,0-6.26,2.8-6.26,6.26
			s2.8,6.26,6.26,6.26C64.84,212.88,67.64,210.08,67.64,206.62z"/>
	</g>
</g>
<g id="Viewport_x5F_FG">
	<rect x="1" y="1" fill-rule="evenodd" clip-rule="evenodd" fill="#0000B0" width="145.5" height="23"/>
	<g>
		<path fill="#FFFFFF" d="M17.204,18.9h-3.098l-2.366-4.969h-0.783V18.9H8.302V6.135h3.566c2.216,0,4.631,0.709,4.631,3.891
			c0,2.253-1.173,3.185-2.438,3.491L17.204,18.9z M12.03,12.162c1.125,0,1.751-0.625,1.751-2.076c0-1.433-0.528-2.142-1.858-2.142
			h-0.973v4.218H12.03z"/>
		<path fill="#FFFFFF" d="M23.836,18.9v-5.627c0-0.783-0.049-1.421-0.279-1.788c-0.173-0.261-0.439-0.424-0.871-0.424
			c-0.342,0-0.708,0.108-1.027,0.291c-0.344,0.2-0.758,0.526-1.102,0.903V18.9h-2.521V5.811h2.521v4.542h0.065
			c0.46-0.341,0.933-0.655,1.427-0.879c0.467-0.22,1.025-0.368,1.598-0.368c0.901,0,1.607,0.261,2.051,0.794
			c0.427,0.525,0.659,1.338,0.659,2.529V18.9H23.836z"/>
		<path fill="#FFFFFF" d="M28,7.398V5.685h2.521v1.713H28z M30.521,18.9H28V9.322h2.521V18.9z"/>
		<path fill="#FFFFFF" d="M38.038,18.9v-5.632c0-0.784-0.049-1.406-0.279-1.772c-0.173-0.261-0.435-0.435-0.882-0.435
			c-0.342,0-0.698,0.113-1.017,0.291c-0.344,0.2-0.757,0.526-1.102,0.903V18.9h-2.521V9.322h2.521l-0.026,1.036h0.088
			c0.46-0.341,0.937-0.655,1.43-0.884c0.467-0.22,1.025-0.368,1.598-0.368c0.901,0,1.607,0.261,2.051,0.794
			c0.427,0.525,0.659,1.338,0.659,2.529V18.9H38.038z"/>
		<path fill="#FFFFFF" d="M50.727,14.132c0,3.121-1.461,4.984-4.427,4.984c-3.089,0-4.43-1.906-4.43-5.002
			c0-3.663,1.88-5.009,4.43-5.009c2.547,0,4.427,1.346,4.427,5.009V14.132z M46.317,17.522c1.044,0,1.827-1.084,1.827-3.404
			c0-2.508-0.885-3.418-1.845-3.418c-0.963,0-1.848,0.939-1.848,3.418c0,2.47,0.815,3.404,1.848,3.404H46.317z"/>
		<path fill="#FFFFFF" d="M60.157,17.173c0.265-1.634,0.527-2.904,0.802-4.2l1.26-6.838h2.742L61.775,18.9h-3.361l-3.19-12.766
			h2.742l1.258,6.859c0.269,1.285,0.543,2.544,0.808,4.179H60.157z"/>
		<path fill="#FFFFFF" d="M65.943,7.398V5.685h2.521v1.713H65.943z M68.464,18.9h-2.521V9.322h2.521V18.9z"/>
		<path fill="#FFFFFF" d="M72.365,14.608c0.1,2.282,0.704,3.029,1.545,3.029c0.68,0,1.104-0.49,1.367-1.367l2.597,0.091
			c-0.2,0.645-0.587,1.323-1.249,1.878c-0.653,0.535-1.531,0.877-2.747,0.877c-1.098,0-2.174-0.283-2.938-1.114
			c-0.726-0.785-1.16-2.029-1.16-3.948c0-1.628,0.378-2.997,1.206-3.858c0.677-0.698,1.617-1.091,2.868-1.091
			c1.092,0,2.04,0.334,2.767,1.119c0.902,1.038,1.249,2.508,1.249,4.383H72.365z M75.279,13.331
			c-0.137-1.89-0.699-2.746-1.433-2.746c-0.71,0-1.373,0.582-1.484,2.746H75.279z"/>
		<path fill="#FFFFFF" d="M84.912,11.31c-0.185,1.538-0.363,2.551-0.563,3.808l-0.67,3.783h-3.014l-2.236-9.579h2.369l0.688,3.827
			c0.206,1.092,0.417,2.395,0.615,3.891h0.095c0.208-1.486,0.393-2.7,0.603-3.894l0.668-3.824h2.978l0.664,3.833
			c0.203,1.197,0.407,2.456,0.597,3.885h0.094c0.209-1.517,0.412-2.729,0.623-3.947l0.692-3.771h2.367L89.248,18.9h-3.017
			l-0.659-3.831c-0.202-1.285-0.376-2.275-0.566-3.76H84.912z"/>
		<path fill="#FFFFFF" d="M92.513,9.322h2.521l-0.023,0.752h0.051c0.278-0.225,0.599-0.494,1.036-0.688
			c0.413-0.164,0.874-0.281,1.455-0.281c1.023,0,1.91,0.327,2.606,1.117c0.653,0.776,1.104,2.004,1.104,3.876
			c0,1.772-0.406,3.077-1.035,3.846c-0.63,0.751-1.534,1.172-2.724,1.172c-0.402,0-0.841-0.043-1.333-0.23
			c-0.37-0.141-0.739-0.357-1.103-0.652h-0.035v5.131h-2.521V9.322z M95.034,16.324c0.238,0.324,0.53,0.572,0.862,0.743
			c0.306,0.167,0.654,0.259,1.022,0.259c0.496,0,0.964-0.209,1.292-0.67c0.268-0.405,0.47-1.144,0.47-2.512
			c0-1.202-0.17-2.01-0.481-2.54c-0.3-0.462-0.749-0.707-1.293-0.707c-0.288,0-0.621,0.06-0.974,0.231
			c-0.308,0.155-0.616,0.419-0.898,0.785V16.324z"/>
		<path fill="#FFFFFF" d="M111.188,14.132c0,3.121-1.461,4.984-4.428,4.984c-3.089,0-4.43-1.906-4.43-5.002
			c0-3.663,1.88-5.009,4.43-5.009c2.547,0,4.428,1.346,4.428,5.009V14.132z M106.778,17.522c1.044,0,1.827-1.084,1.827-3.404
			c0-2.508-0.885-3.418-1.845-3.418c-0.963,0-1.848,0.939-1.848,3.418c0,2.47,0.816,3.404,1.848,3.404H106.778z"/>
		<path fill="#FFFFFF" d="M114.917,10.166c0.201-0.276,0.424-0.543,0.704-0.747c0.264-0.184,0.569-0.313,0.941-0.313
			c0.195,0,0.376,0.024,0.538,0.072c0.148,0.044,0.28,0.102,0.409,0.184l-0.201,2.09c-0.091-0.097-0.202-0.173-0.329-0.242
			c-0.164-0.075-0.319-0.112-0.498-0.112c-0.256,0-0.502,0.098-0.826,0.379c-0.26,0.229-0.512,0.551-0.769,0.964v6.46h-2.521V9.322
			h2.521l-0.024,0.844H114.917z"/>
		<path fill="#FFFFFF" d="M118.759,7.196h2.521v2.125h1.542v1.62h-1.542v4.361c0,1.409,0.266,2.112,0.89,2.112
			c0.389,0,0.715-0.21,0.925-0.377l0.376,1.621c-0.529,0.239-1.112,0.458-1.903,0.458c-1.814,0-2.809-0.917-2.809-3.248v-4.927
			h-0.937v-1.62h0.937V7.196z"/>
	</g>
	
		<rect x="1" y="1" fill-rule="evenodd" clip-rule="evenodd" fill="none" stroke="#000000" stroke-width="2" stroke-linecap="round" width="519.28" height="415.41"/>
</g>
</svg>
