<?xml version="1.0" encoding="utf-8"?>
<!-- Generator: Adobe Illustrator 14.0.0, SVG Export Plug-In . SVG Version: 6.00 Build 43363)  -->
<!DOCTYPE svg PUBLIC "-//W3C//DTD SVG 1.1//EN" "http://www.w3.org/Graphics/SVG/1.1/DTD/svg11.dtd">
<svg version="1.1" xmlns="http://www.w3.org/2000/svg" xmlns:xlink="http://www.w3.org/1999/xlink" x="0px" y="0px"
	 width="379.333px" height="330.667px" viewBox="0 0 379.333 330.667" enable-background="new 0 0 379.333 330.667"
	 xml:space="preserve">
<g id="Layer_1">
	<path fill-rule="evenodd" clip-rule="evenodd" fill="#0F5700" d="M315.484,42.304c-0.381,0.05-0.78-0.05-1.11-0.31
		c-0.65-0.5-0.771-1.45-0.261-2.1l19.971-25.77l-2.37-1.84l9.99-5.54l-2.88,11.05l-2.37-1.83l-19.97,25.77
		C316.223,42.063,315.863,42.253,315.484,42.304z"/>
	<path fill-rule="evenodd" clip-rule="evenodd" fill="#B20000" d="M62.784,326.043c-3.47,0.05-6.96-0.149-10.23-0.649
		c-8.15-1.221-15.57-3.851-22.21-8.091c-3.06-1.95-5.98-4.239-8.64-6.989c-1.51-1.561-2.89-3.181-4.13-4.87
		c-3.26-4.41-5.63-9.311-7.08-14.641c-0.5-1.819-0.89-3.71-1.18-5.65c-0.13-0.829-0.19-1.699-0.32-2.539
		c0.2,0.51,0.35,1.05,0.53,1.56c0.31,0.91,0.64,1.79,1,2.68c0.98,2.471,2.17,4.82,3.52,7.101c1.35,2.26,2.92,4.449,4.7,6.49
		c0.95,1.09,1.96,2.159,3.03,3.18c5.2,4.96,11.2,8.41,17.74,10.68c3.88,1.35,8,2.271,12.3,2.72c1.5,0.161,3.04,0.271,4.6,0.32
		l4.67-0.029h0.08c0.07,0,0.14-0.011,0.21-0.011c0.25-0.01,0.5-0.02,0.75-0.039c0.63-0.041,1.25-0.091,1.87-0.141
		c1.23-0.101,2.47-0.24,3.67-0.42c5.08-0.74,9.9-1.96,14.51-3.62c6.04-2.181,11.76-5.05,17.1-8.63c5.06-3.4,9.89-7.37,14.27-12.06
		c1.66-1.771,3.2-3.601,4.67-5.46c1.7-2.17,4.85-2.551,7.01-0.841c2.17,1.7,2.55,4.851,0.85,7.021c-1.81,2.289-3.73,4.539-5.8,6.71
		c-5.26,5.529-11.09,10.14-17.23,13.99c-3.17,1.989-6.48,3.75-9.88,5.279c-3.28,1.471-6.65,2.771-10.15,3.801
		c-3.26,0.97-6.6,1.75-10.07,2.3C69.724,325.704,66.253,326.003,62.784,326.043z"/>
	<linearGradient id="SVGID_1_" gradientUnits="userSpaceOnUse" x1="195.3579" y1="62.062" x2="311.8295" y2="171.5268">
		<stop  offset="0" style="stop-color:#FFF000"/>
		<stop  offset="1" style="stop-color:#E66900"/>
	</linearGradient>
	<path fill-rule="evenodd" clip-rule="evenodd" fill="url(#SVGID_1_)" d="M164.593,151.534c-2.73,7.9,9.33,21.66,13.31,26
		c12.541,13.68,37.63,33.23,56.94,37.43c2.971,0.65,7.74,1.31,10.71-0.59c37.82-23.17,75.641-46.351,113.46-69.53
		c11.32-6.94,12.021-19.83,9.311-31.04c-2.84-11.76-8.41-21.45-15.24-31.13c-14.24-20.21-34.86-38.55-55.52-51.73
		c-18.161-11.57-47.74-26.01-71.391-23.2c-10.04,1.19-19.29,5.81-22.54,16.42C190.624,66.613,177.604,109.074,164.593,151.534z"/>
	<path fill-rule="evenodd" clip-rule="evenodd" fill="#E57500" d="M164.593,151.534c-2.73,7.9,9.33,21.66,13.31,26
		c12.541,13.68,37.63,33.23,56.94,37.43c2.971,0.65,7.74,1.31,10.71-0.59c2.47-1.58,2.78-4.34,2.36-6.9
		c-0.43-2.64-1.47-4.93-2.7-7.25c-2.479-4.63-5.61-8.659-9.04-12.59c-8.3-9.5-17.63-17.369-28.01-24.46
		c-8.511-5.82-22.69-14.14-33.58-15.45C171.204,147.313,166.043,147.333,164.593,151.534z"/>
	
		<path fill-rule="evenodd" clip-rule="evenodd" fill="none" stroke="#000000" stroke-linecap="round" stroke-linejoin="round" stroke-dasharray="4,4" d="
		M203.454,24.773c-5.41,19.44,11.38,44.69,21.699,57.46c23.341,28.89,68.9,63.04,108.631,66.85c7.88,0.76,17.16,0.33,24.46-3.79"/>
	
		<line fill-rule="evenodd" clip-rule="evenodd" fill="none" stroke="#527300" stroke-width="3" stroke-linecap="round" stroke-linejoin="round" stroke-dasharray="6,6" x1="205.824" y1="182.053" x2="289.894" y2="73.583"/>
	
		<line fill-rule="evenodd" clip-rule="evenodd" fill="none" stroke="#575700" stroke-width="3" stroke-linecap="round" stroke-linejoin="round" x1="286.574" y1="77.863" x2="314.269" y2="42.134"/>
	<path opacity="0.52" fill-rule="evenodd" clip-rule="evenodd" fill="#FFFFFF" d="M231.374,7.394l-54.38,140.7
		c7.38,1.79,14.39,4.8,21.04,8.94l78.59-137.69C261.963,12.333,247.003,7.514,231.374,7.394z"/>
	
		<path fill-rule="evenodd" clip-rule="evenodd" fill="none" stroke="#000000" stroke-width="4" stroke-linecap="round" stroke-linejoin="round" d="
		M164.593,151.534c-2.73,7.9,9.33,21.66,13.31,26c12.541,13.68,37.63,33.23,56.94,37.43c2.971,0.65,7.74,1.31,10.71-0.59
		c37.82-23.17,75.641-46.351,113.46-69.53c11.32-6.94,12.021-19.83,9.311-31.04c-2.84-11.76-8.41-21.45-15.24-31.13
		c-14.24-20.21-34.86-38.55-55.52-51.73c-18.161-11.57-47.74-26.01-71.391-23.2c-10.04,1.19-19.29,5.81-22.54,16.42
		C190.624,66.613,177.604,109.074,164.593,151.534z"/>
	
		<path fill-rule="evenodd" clip-rule="evenodd" fill="none" stroke="#634F61" stroke-width="3" stroke-linecap="round" stroke-dasharray="6,6" d="
		M226.053,197.473c25.94-15.81,53.99-29.02,83.79-39.82"/>
	
		<polyline fill-rule="evenodd" clip-rule="evenodd" fill="none" stroke="#000000" stroke-linejoin="bevel" stroke-dasharray="2,2" points="
		164.593,151.534 122.144,290.023 245.553,214.374 	"/>
	<g>
		
			<line fill-rule="evenodd" clip-rule="evenodd" fill="none" stroke="#000000" stroke-width="3" stroke-linejoin="bevel" x1="313.503" y1="161.284" x2="306.234" y2="154.014"/>
		
			<line fill-rule="evenodd" clip-rule="evenodd" fill="none" stroke="#000000" stroke-width="3" stroke-linejoin="bevel" x1="306.234" y1="161.284" x2="313.503" y2="154.014"/>
	</g>
	<path fill-rule="evenodd" clip-rule="evenodd" fill="none" stroke="#000000" stroke-linecap="round" stroke-linejoin="round" d="
		M164.593,151.534c-2.73,7.9,9.33,21.66,13.31,26c12.541,13.68,37.63,33.23,56.94,37.43c2.971,0.65,7.74,1.31,10.71-0.59
		c2.47-1.58,2.78-4.34,2.36-6.9c-0.43-2.64-1.47-4.93-2.7-7.25c-2.479-4.63-5.61-8.659-9.04-12.59
		c-8.3-9.5-17.63-17.369-28.01-24.46c-8.511-5.82-22.69-14.14-33.58-15.45C171.204,147.313,166.043,147.333,164.593,151.534z"/>
	<path fill-rule="evenodd" clip-rule="evenodd" fill="none" stroke="#0800A8" stroke-width="3" stroke-linecap="round" d="
		M122.173,289.944c28.73-37.44,63.79-68.05,103.88-92.471"/>
	
		<line fill-rule="evenodd" clip-rule="evenodd" fill="none" stroke="#0F5700" stroke-width="3" stroke-linecap="round" stroke-linejoin="round" x1="122.144" y1="290.023" x2="205.824" y2="182.053"/>
	<path fill-rule="evenodd" clip-rule="evenodd" fill="#FFFFFF" stroke="#000000" stroke-width="4" d="M116.583,290.484
		c-0.25-3.07,2.03-5.771,5.1-6.021c3.06-0.25,5.76,2.03,6.01,5.101c0.25,3.06-2.03,5.76-5.1,6.01
		C119.534,295.833,116.833,293.543,116.583,290.484z"/>
	<g>
		<path d="M130.48,300.833l3.849-10.021h1.429l4.102,10.021h-1.511l-1.169-3.035h-4.19l-1.101,3.035H130.48z M133.372,296.718h3.397
			l-1.046-2.775c-0.319-0.844-0.556-1.535-0.711-2.078c-0.127,0.643-0.308,1.281-0.54,1.914L133.372,296.718z"/>
	</g>
	<g>
		<path d="M344.581,18.5V8.479h3.452c0.779,0,1.374,0.048,1.784,0.144c0.574,0.132,1.063,0.372,1.47,0.718
			c0.529,0.447,0.924,1.018,1.186,1.712c0.263,0.695,0.394,1.489,0.394,2.382c0,0.761-0.089,1.436-0.267,2.023
			s-0.406,1.074-0.684,1.459s-0.582,0.688-0.912,0.909c-0.331,0.221-0.729,0.389-1.197,0.502c-0.467,0.114-1.004,0.171-1.609,0.171
			H344.581z M345.907,17.317h2.14c0.66,0,1.18-0.062,1.555-0.185c0.377-0.123,0.676-0.296,0.899-0.52
			c0.314-0.314,0.56-0.737,0.735-1.268c0.175-0.531,0.263-1.175,0.263-1.931c0-1.048-0.172-1.854-0.517-2.417
			c-0.344-0.563-0.762-0.94-1.254-1.131c-0.355-0.137-0.928-0.205-1.716-0.205h-2.105V17.317z"/>
	</g>
	<g>
		<path d="M296.193,155.833v-10.021h3.76c0.766,0,1.379,0.102,1.842,0.304s0.824,0.515,1.087,0.937s0.394,0.862,0.394,1.323
			c0,0.428-0.117,0.832-0.35,1.21s-0.583,0.684-1.053,0.916c0.606,0.178,1.072,0.481,1.398,0.909s0.488,0.934,0.488,1.518
			c0,0.469-0.099,0.906-0.297,1.309s-0.443,0.714-0.734,0.933c-0.292,0.219-0.658,0.384-1.098,0.496s-0.979,0.167-1.617,0.167
			H296.193z M297.519,150.022h2.166c0.588,0,1.01-0.039,1.266-0.116c0.337-0.1,0.591-0.267,0.762-0.499s0.256-0.524,0.256-0.875
			c0-0.333-0.079-0.625-0.238-0.878c-0.16-0.253-0.388-0.426-0.684-0.52c-0.297-0.093-0.805-0.14-1.525-0.14h-2.002V150.022z
			 M297.519,154.65h2.494c0.429,0,0.729-0.016,0.902-0.048c0.306-0.055,0.561-0.146,0.766-0.273s0.374-0.313,0.506-0.557
			c0.133-0.244,0.199-0.525,0.199-0.844c0-0.374-0.096-0.698-0.287-0.974s-0.457-0.469-0.797-0.581s-0.828-0.167-1.467-0.167h-2.316
			V154.65z"/>
	</g>
	<g>
		<path d="M138.192,150.167v-10.021h1.326v8.839h4.936v1.183H138.192z"/>
		<path d="M145.612,152.167v-5.186h0.786v0.728c0.163-0.254,0.379-0.458,0.649-0.613s0.578-0.232,0.923-0.232
			c0.384,0,0.699,0.08,0.945,0.239s0.419,0.382,0.52,0.669c0.41-0.605,0.944-0.908,1.602-0.908c0.514,0,0.91,0.143,1.187,0.427
			s0.415,0.724,0.415,1.316v3.56h-0.874V148.9c0-0.352-0.028-0.604-0.085-0.759s-0.16-0.279-0.31-0.374s-0.326-0.142-0.527-0.142
			c-0.365,0-0.667,0.121-0.908,0.364s-0.361,0.631-0.361,1.165v3.013h-0.879v-3.369c0-0.391-0.072-0.684-0.215-0.879
			s-0.377-0.293-0.703-0.293c-0.248,0-0.476,0.065-0.686,0.195s-0.362,0.321-0.457,0.571s-0.142,0.612-0.142,1.084v2.69H145.612z"/>
		<path d="M153.947,146.019v-1.011h0.879v1.011H153.947z M153.947,152.167v-5.186h0.879v5.186H153.947z"/>
		<path d="M156.164,152.167v-5.186h0.791v0.737c0.381-0.57,0.931-0.854,1.65-0.854c0.313,0,0.6,0.056,0.862,0.168
			s0.458,0.26,0.588,0.442s0.221,0.399,0.273,0.649c0.033,0.163,0.049,0.448,0.049,0.854v3.188h-0.879v-3.154
			c0-0.358-0.034-0.626-0.103-0.803s-0.189-0.319-0.364-0.425s-0.378-0.159-0.613-0.159c-0.375,0-0.697,0.119-0.969,0.356
			s-0.408,0.688-0.408,1.353v2.832H156.164z"/>
	</g>
	<g>
		<path d="M175.858,19.833V9.812h1.326v8.839h4.936v1.183H175.858z"/>
		<path d="M183.278,21.833v-5.186h0.786v0.728c0.163-0.254,0.379-0.458,0.649-0.613s0.578-0.232,0.923-0.232
			c0.384,0,0.699,0.08,0.945,0.239s0.419,0.382,0.52,0.669c0.41-0.605,0.944-0.908,1.602-0.908c0.514,0,0.91,0.143,1.187,0.427
			s0.415,0.724,0.415,1.316v3.56h-0.874v-3.267c0-0.352-0.028-0.604-0.085-0.759s-0.16-0.279-0.31-0.374s-0.326-0.142-0.527-0.142
			c-0.365,0-0.667,0.121-0.908,0.364s-0.361,0.631-0.361,1.165v3.013h-0.879v-3.369c0-0.391-0.072-0.684-0.215-0.879
			s-0.377-0.293-0.703-0.293c-0.248,0-0.476,0.065-0.686,0.195s-0.362,0.321-0.457,0.571s-0.142,0.612-0.142,1.084v2.69H183.278z"/>
		<path d="M194.992,21.193c-0.325,0.277-0.639,0.472-0.939,0.586s-0.624,0.171-0.969,0.171c-0.57,0-1.008-0.139-1.314-0.417
			c-0.306-0.278-0.459-0.634-0.459-1.067c0-0.254,0.059-0.486,0.174-0.696s0.268-0.378,0.454-0.505s0.397-0.223,0.632-0.288
			c0.173-0.045,0.434-0.089,0.781-0.132c0.71-0.084,1.232-0.186,1.568-0.303c0.003-0.121,0.004-0.197,0.004-0.229
			c0-0.358-0.082-0.61-0.248-0.757c-0.225-0.199-0.559-0.298-1.002-0.298c-0.413,0-0.719,0.072-0.915,0.217
			s-0.343,0.401-0.437,0.769l-0.859-0.117c0.078-0.368,0.206-0.665,0.385-0.891c0.18-0.226,0.438-0.4,0.777-0.522
			c0.338-0.122,0.73-0.183,1.176-0.183c0.443,0,0.803,0.052,1.08,0.156c0.276,0.104,0.479,0.235,0.609,0.393
			c0.131,0.158,0.222,0.357,0.273,0.598c0.029,0.15,0.045,0.42,0.045,0.811v1.172c0,0.817,0.018,1.334,0.056,1.55
			s0.111,0.424,0.222,0.623h-0.918C195.077,21.651,195.018,21.438,194.992,21.193z M194.919,19.23
			c-0.319,0.13-0.798,0.241-1.436,0.332c-0.361,0.052-0.617,0.111-0.768,0.176c-0.149,0.065-0.265,0.16-0.346,0.286
			c-0.082,0.125-0.123,0.265-0.123,0.417c0,0.234,0.09,0.43,0.267,0.586s0.437,0.234,0.778,0.234c0.339,0,0.641-0.074,0.904-0.222
			s0.457-0.351,0.58-0.608c0.095-0.199,0.143-0.492,0.143-0.879V19.23z"/>
		<path d="M196.583,21.833l1.895-2.695l-1.752-2.49h1.098l0.797,1.216c0.149,0.231,0.27,0.425,0.361,0.581
			c0.143-0.215,0.274-0.405,0.395-0.571l0.875-1.226h1.049l-1.791,2.441l1.928,2.744h-1.078l-1.064-1.611l-0.283-0.435l-1.363,2.046
			H196.583z"/>
	</g>
	<g>
		<path d="M45.232,313.5v-7.158h2.686c0.547,0,0.985,0.072,1.316,0.218s0.589,0.368,0.776,0.669s0.281,0.616,0.281,0.945
			c0,0.306-0.083,0.594-0.249,0.863c-0.166,0.271-0.417,0.488-0.752,0.654c0.433,0.127,0.766,0.344,0.999,0.65
			c0.233,0.306,0.349,0.667,0.349,1.084c0,0.335-0.071,0.646-0.212,0.935s-0.316,0.511-0.525,0.667s-0.47,0.273-0.784,0.354
			s-0.699,0.119-1.155,0.119H45.232z M46.18,309.349h1.548c0.42,0,0.721-0.027,0.903-0.082c0.241-0.072,0.422-0.191,0.544-0.357
			s0.183-0.374,0.183-0.625c0-0.237-0.057-0.446-0.171-0.627s-0.277-0.305-0.488-0.371s-0.575-0.1-1.089-0.1H46.18V309.349z
			 M46.18,312.656h1.782c0.306,0,0.521-0.012,0.645-0.035c0.218-0.039,0.4-0.104,0.547-0.195c0.146-0.091,0.267-0.223,0.361-0.397
			s0.142-0.375,0.142-0.603c0-0.268-0.068-0.5-0.205-0.696s-0.326-0.335-0.569-0.415s-0.592-0.119-1.047-0.119H46.18V312.656z"/>
		<path d="M51.819,313.5v-5.186h0.791v0.787c0.202-0.368,0.388-0.611,0.559-0.729s0.359-0.176,0.564-0.176
			c0.296,0,0.597,0.095,0.903,0.283l-0.303,0.816c-0.215-0.127-0.43-0.191-0.645-0.191c-0.192,0-0.365,0.059-0.518,0.174
			s-0.262,0.275-0.327,0.48c-0.098,0.313-0.146,0.654-0.146,1.025v2.715H51.819z"/>
		<path d="M58.543,312.861c-0.326,0.276-0.639,0.472-0.94,0.586c-0.301,0.113-0.624,0.17-0.969,0.17
			c-0.57,0-1.007-0.139-1.313-0.417s-0.459-0.634-0.459-1.067c0-0.254,0.058-0.485,0.173-0.695s0.267-0.379,0.454-0.506
			s0.398-0.223,0.632-0.287c0.172-0.046,0.433-0.09,0.781-0.133c0.709-0.084,1.232-0.186,1.567-0.303
			c0.003-0.12,0.005-0.196,0.005-0.229c0-0.358-0.083-0.611-0.249-0.758c-0.225-0.198-0.558-0.297-1.001-0.297
			c-0.414,0-0.719,0.072-0.916,0.217s-0.343,0.401-0.437,0.77l-0.859-0.117c0.078-0.368,0.207-0.666,0.386-0.892
			s0.438-0.4,0.776-0.522s0.731-0.184,1.177-0.184c0.443,0,0.802,0.053,1.079,0.156c0.277,0.104,0.48,0.236,0.61,0.394
			s0.221,0.357,0.273,0.599c0.029,0.149,0.044,0.42,0.044,0.811v1.172c0,0.816,0.019,1.334,0.056,1.55s0.111,0.424,0.222,0.622
			h-0.918C58.627,313.318,58.569,313.105,58.543,312.861z M58.47,310.898c-0.319,0.13-0.797,0.24-1.436,0.332
			c-0.361,0.052-0.617,0.11-0.767,0.176c-0.15,0.064-0.265,0.16-0.347,0.285s-0.122,0.265-0.122,0.418
			c0,0.234,0.089,0.43,0.266,0.586s0.437,0.234,0.779,0.234c0.338,0,0.64-0.074,0.903-0.223s0.458-0.351,0.581-0.607
			c0.094-0.199,0.142-0.492,0.142-0.879V310.898z"/>
		<path d="M60.721,313.5v-5.186h0.791v0.738c0.381-0.57,0.931-0.855,1.65-0.855c0.313,0,0.6,0.057,0.862,0.169
			s0.458,0.26,0.588,0.442c0.13,0.182,0.221,0.398,0.273,0.648c0.033,0.163,0.049,0.448,0.049,0.855v3.188h-0.879v-3.154
			c0-0.357-0.034-0.625-0.103-0.803s-0.189-0.318-0.364-0.425s-0.378-0.159-0.613-0.159c-0.375,0-0.697,0.119-0.969,0.357
			c-0.272,0.237-0.408,0.688-0.408,1.352v2.832H60.721z"/>
		<path d="M69.666,311.601l0.864,0.111c-0.094,0.596-0.336,1.063-0.725,1.399s-0.867,0.505-1.433,0.505
			c-0.709,0-1.28-0.231-1.711-0.695s-0.647-1.129-0.647-1.994c0-0.561,0.093-1.051,0.278-1.471s0.468-0.734,0.847-0.944
			s0.792-0.315,1.238-0.315c0.563,0,1.024,0.143,1.382,0.428s0.587,0.689,0.688,1.213l-0.854,0.133
			c-0.082-0.349-0.226-0.611-0.432-0.787s-0.457-0.264-0.75-0.264c-0.443,0-0.802,0.159-1.079,0.477s-0.415,0.819-0.415,1.506
			c0,0.697,0.133,1.203,0.4,1.52c0.267,0.315,0.615,0.473,1.045,0.473c0.345,0,0.633-0.105,0.864-0.316
			C69.458,312.366,69.604,312.041,69.666,311.601z"/>
		<path d="M71.282,313.5v-7.158h0.879v2.568c0.41-0.475,0.928-0.713,1.553-0.713c0.384,0,0.718,0.076,1.001,0.228
			s0.486,0.36,0.608,0.628c0.122,0.267,0.183,0.654,0.183,1.162v3.285h-0.879v-3.285c0-0.439-0.095-0.76-0.286-0.96
			s-0.46-0.3-0.808-0.3c-0.26,0-0.505,0.066-0.735,0.202s-0.393,0.318-0.491,0.55c-0.098,0.23-0.146,0.55-0.146,0.957v2.836H71.282z
			"/>
	</g>
	<g>
		<path d="M250.017,178.953l-2.634-5.737l-2.144,0.983l-0.352-0.768l5.156-2.367l0.353,0.768l-2.152,0.988l2.634,5.738
			L250.017,178.953z"/>
		<path d="M254.179,177.042l-3.604-4.051l0.825-0.379l1.998,2.377l0.744,0.883c-0.011-0.056-0.078-0.417-0.202-1.084l-0.517-3.104
			l0.821-0.377l1.96,2.41l0.648,0.793l-0.146-1.034l-0.443-3.096l0.777-0.356l0.689,5.39l-0.83,0.381l-2.045-2.479l-0.551-0.72
			l0.71,4.063L254.179,177.042z"/>
		<path d="M257.314,168.84l-0.422-0.919l0.799-0.366l0.422,0.919L257.314,168.84z M259.878,174.427l-2.164-4.713l0.799-0.366
			l2.163,4.713L259.878,174.427z"/>
		<path d="M261.925,173.96l0.83-0.241c0.142,0.226,0.313,0.358,0.511,0.399c0.266,0.057,0.57,0.007,0.913-0.15
			c0.37-0.17,0.622-0.375,0.755-0.615c0.134-0.24,0.175-0.51,0.124-0.809c-0.034-0.182-0.172-0.532-0.413-1.051
			c-0.161,0.571-0.501,0.977-1.022,1.215c-0.647,0.297-1.256,0.293-1.826-0.011c-0.568-0.304-1.004-0.784-1.304-1.438
			c-0.206-0.449-0.315-0.901-0.327-1.356s0.09-0.857,0.303-1.206c0.215-0.35,0.53-0.619,0.947-0.811
			c0.557-0.255,1.118-0.241,1.686,0.043l-0.261-0.567l0.736-0.339l1.87,4.074c0.336,0.733,0.501,1.288,0.492,1.663
			c-0.01,0.374-0.135,0.725-0.377,1.051c-0.243,0.326-0.601,0.598-1.074,0.815c-0.563,0.258-1.074,0.34-1.537,0.245
			C262.489,174.779,262.147,174.475,261.925,173.96z M261.287,170.826c0.284,0.618,0.614,1.014,0.99,1.185
			c0.375,0.171,0.748,0.172,1.118,0.003c0.367-0.169,0.61-0.451,0.729-0.848c0.119-0.396,0.04-0.896-0.237-1.5
			c-0.265-0.577-0.592-0.953-0.982-1.129s-0.766-0.181-1.127-0.015c-0.355,0.163-0.591,0.445-0.707,0.849
			C260.955,169.773,261.027,170.257,261.287,170.826z"/>
	</g>
</g>
<g id="Layer_2" display="none">
</g>
</svg>
