<?xml version="1.0" encoding="utf-8"?>
<!-- Generator: Adobe Illustrator 14.0.0, SVG Export Plug-In . SVG Version: 6.00 Build 43363)  -->
<!DOCTYPE svg PUBLIC "-//W3C//DTD SVG 1.0//EN" "http://www.w3.org/TR/2001/REC-SVG-20010904/DTD/svg10.dtd">
<svg version="1.0" id="Shape" xmlns="http://www.w3.org/2000/svg" xmlns:xlink="http://www.w3.org/1999/xlink" x="0px" y="0px"
	 width="404.38px" height="150.218px" viewBox="0 0 404.38 150.218" enable-background="new 0 0 404.38 150.218"
	 xml:space="preserve">
<path fill-rule="evenodd" clip-rule="evenodd" fill="none" stroke="#000000" stroke-width="2" stroke-linejoin="round" d="
	M295.281,126.452c5.109-0.05,10.06-0.49,15.039-1.77c3.11-0.8,10.961-3.38,10.381-7.61"/>
<path fill-rule="evenodd" clip-rule="evenodd" fill="none" stroke="#000000" stroke-width="0.5" stroke-linecap="round" stroke-linejoin="round" stroke-dasharray="1,1" d="
	M320.701,117.072c-0.061-0.42-0.201-0.86-0.44-1.311c-1.011-1.939-2.58-2.81-4.37-3.739c-2.82-1.46-5.76-2.3-8.83-2.97
	c-5.01-1.091-9.99-1.53-15.09-1.53c-5.1-0.011-10.061,0.39-15.05,1.569c-2.86,0.681-11.05,3.03-11.2,7.25"/>
<path fill-rule="evenodd" clip-rule="evenodd" fill="none" stroke="#000000" stroke-width="2" stroke-linejoin="round" d="
	M265.72,116.341c-0.01,0.36,0.029,0.73,0.14,1.12c0.62,2.13,2.08,2.98,3.78,3.98c2.82,1.67,5.8,2.561,8.94,3.3
	c4.979,1.16,9.95,1.649,15.06,1.71"/>
<line fill-rule="evenodd" clip-rule="evenodd" fill="none" stroke="#000000" stroke-linecap="round" stroke-linejoin="round" x1="293.64" y1="126.942" x2="295.8" y2="16.442"/>
<path fill-rule="evenodd" clip-rule="evenodd" fill="none" stroke="#000000" stroke-width="2" stroke-linejoin="round" d="
	M295.8,16.952c-5.061-0.05-10.03-0.43-15.02-1.34c-3.211-0.58-6.311-1.3-9.32-2.67c-1.43-0.65-3.4-1.64-4.13-3.29
	c-0.761-1.76,0.689-3.11,1.959-3.94c3.03-1.99,6.28-2.62,9.7-3.24c4.99-0.92,9.971-1.24,15.021-1.23c5.38,0,24.479,0.88,28.88,6.58
	c1.22,1.58,0.58,3.01-0.81,4.15c-2.561,2.09-6.561,2.99-9.581,3.6c-4.979,0.99-9.949,1.34-15.02,1.38"/>
<line fill-rule="evenodd" clip-rule="evenodd" fill="none" stroke="#000000" stroke-linecap="round" stroke-linejoin="round" x1="297.48" y1="16.452" x2="295.27" y2="126.952"/>
<path fill-rule="evenodd" clip-rule="evenodd" fill="none" stroke="#000000" stroke-width="2" stroke-linecap="round" stroke-linejoin="round" d="
	M214.871,126.761c6.33-0.05,15.55-1.009,21.43-4.14c2.55-1.36,4.449-3.22,4.239-5.28"/>
<path fill-rule="evenodd" clip-rule="evenodd" fill="none" stroke="#000000" stroke-width="0.5" stroke-linecap="round" stroke-linejoin="round" stroke-dasharray="1,1" d="
	M240.54,117.341c-0.1-1.02-0.709-2.089-2.009-3.169c-2.7-2.24-6.841-3.45-10.091-4.17c-4.56-1.011-9.039-1.48-13.56-1.5"/>
<path fill-rule="evenodd" clip-rule="evenodd" fill="none" stroke="#000000" stroke-width="2" stroke-linecap="round" stroke-linejoin="round" d="
	M214.88,108.502c-2.75-0.011-5.521,0.139-8.341,0.43c-3.68,0.38-7.239,1-10.77,2.18c-2.48,0.83-8.11,2.88-8,6.63"/>
<line fill-rule="evenodd" clip-rule="evenodd" fill="none" stroke="#000000" stroke-width="2" stroke-linecap="round" stroke-linejoin="round" x1="187.77" y1="117.742" x2="187.15" y2="9.722"/>
<path fill-rule="evenodd" clip-rule="evenodd" fill="none" stroke="#000000" stroke-width="2" stroke-linecap="round" stroke-linejoin="round" d="
	M187.15,9.722c-0.12-3.38,6.61-5.09,8.68-5.63c3.56-0.92,7.15-1.41,10.8-1.7c7.359-0.6,14.529-0.43,21.83,0.83
	c3.64,0.64,7.1,1.29,10.38,3.29c4.74,2.9,1.899,5.74-2.341,7.45c-6.079,2.45-15.199,3.21-21.549,3.25"/>
<line fill-rule="evenodd" clip-rule="evenodd" fill="none" stroke="#000000" stroke-width="2" stroke-linecap="round" stroke-linejoin="round" x1="214.951" y1="17.212" x2="214.871" y2="126.761"/>
<path fill-rule="evenodd" clip-rule="evenodd" fill="none" stroke="#000000" stroke-width="2" stroke-linecap="round" stroke-linejoin="round" d="
	M100.73,127.772c9.02-0.08,17.8-0.94,26.61-3.03c4.38-1.04,8.6-2.33,12.67-4.319c3.13-1.531,8.7-4.781,8.88-9.261"/>
<line fill-rule="evenodd" clip-rule="evenodd" fill="none" stroke="#000000" stroke-width="2" stroke-linecap="round" stroke-linejoin="round" x1="148.89" y1="111.162" x2="147.27" y2="4.252"/>
<path fill-rule="evenodd" clip-rule="evenodd" fill="none" stroke="#000000" stroke-width="2" stroke-linecap="round" stroke-linejoin="round" d="
	M147.27,4.252c-0.21,4.19-7.18,6.97-9.95,8.01c-4.21,1.57-8.51,2.59-12.92,3.41c-8.83,1.63-17.64,2.31-26.6,2.37"/>
<line fill-rule="evenodd" clip-rule="evenodd" fill="none" stroke="#000000" stroke-width="2" stroke-linecap="round" stroke-linejoin="round" x1="97.8" y1="18.042" x2="100.73" y2="127.772"/>
<line fill-rule="evenodd" clip-rule="evenodd" fill="none" stroke="#000000" stroke-width="2" stroke-linecap="round" stroke-linejoin="round" x1="6.44" y1="128.591" x2="73.82" y2="128.002"/>
<line fill-rule="evenodd" clip-rule="evenodd" fill="none" stroke="#000000" stroke-width="2" stroke-linecap="round" stroke-linejoin="round" x1="73.82" y1="128.002" x2="70.17" y2="18.242"/>
<line fill-rule="evenodd" clip-rule="evenodd" fill="none" stroke="#000000" stroke-width="2" stroke-linecap="round" stroke-linejoin="round" x1="70.17" y1="18.242" x2="1" y2="18.732"/>
<line fill-rule="evenodd" clip-rule="evenodd" fill="none" stroke="#000000" stroke-width="2" stroke-linecap="round" stroke-linejoin="round" x1="1" y1="18.732" x2="6.44" y2="128.591"/>
<path fill-rule="evenodd" clip-rule="evenodd" fill="none" stroke="#000000" stroke-width="2" stroke-linecap="round" stroke-linejoin="round" d="
	M379.63,16.042c-6.87,0.05-22.271-0.89-28.6-5.44c-1.461-1.05-2.721-2.61-1.36-4.36c1.869-2.4,5.989-3.27,8.53-3.82
	c4.859-1.05,9.689-1.39,14.63-1.42c6.87-0.05,22.29,0.89,28.62,5.44c1.43,1.03,2.689,2.58,1.38,4.31
	c-1.841,2.45-6.021,3.31-8.561,3.86C389.41,15.672,384.57,16.012,379.63,16.042z"/>
<line fill-rule="evenodd" clip-rule="evenodd" fill="none" x1="379.59" y1="16.862" x2="375.331" y2="125.132"/>
<line fill-rule="evenodd" clip-rule="evenodd" fill="none" stroke="#000000" stroke-width="0.83" stroke-linecap="round" stroke-linejoin="round" stroke-dasharray="3.34,3.34" x1="378.51" y1="15.722" x2="380.66" y2="18.042"/>
<line fill-rule="evenodd" clip-rule="evenodd" fill="none" stroke="#000000" stroke-width="0.83" stroke-linecap="round" stroke-linejoin="round" stroke-dasharray="3.34,3.34" x1="380.74" y1="15.812" x2="378.42" y2="17.952"/>
<line fill-rule="evenodd" clip-rule="evenodd" fill="none" stroke="#000000" stroke-width="0.83" stroke-linecap="round" stroke-linejoin="round" stroke-dasharray="3.34,3.34" x1="378.29" y1="21.292" x2="380.44" y2="23.612"/>
<line fill-rule="evenodd" clip-rule="evenodd" fill="none" stroke="#000000" stroke-width="0.83" stroke-linecap="round" stroke-linejoin="round" stroke-dasharray="3.34,3.34" x1="380.531" y1="21.382" x2="378.201" y2="23.522"/>
<line fill-rule="evenodd" clip-rule="evenodd" fill="none" stroke="#000000" stroke-width="0.83" stroke-linecap="round" stroke-linejoin="round" stroke-dasharray="3.34,3.34" x1="378.07" y1="26.862" x2="380.22" y2="29.182"/>
<line fill-rule="evenodd" clip-rule="evenodd" fill="none" stroke="#000000" stroke-width="0.83" stroke-linecap="round" stroke-linejoin="round" stroke-dasharray="3.34,3.34" x1="380.31" y1="26.952" x2="377.98" y2="29.102"/>
<line fill-rule="evenodd" clip-rule="evenodd" fill="none" stroke="#000000" stroke-width="0.83" stroke-linecap="round" stroke-linejoin="round" stroke-dasharray="3.34,3.34" x1="377.85" y1="32.432" x2="380" y2="34.762"/>
<line fill-rule="evenodd" clip-rule="evenodd" fill="none" stroke="#000000" stroke-width="0.83" stroke-linecap="round" stroke-linejoin="round" stroke-dasharray="3.34,3.34" x1="380.09" y1="32.522" x2="377.76" y2="34.672"/>
<line fill-rule="evenodd" clip-rule="evenodd" fill="none" stroke="#000000" stroke-width="0.83" stroke-linecap="round" stroke-linejoin="round" stroke-dasharray="3.34,3.34" x1="377.63" y1="38.002" x2="379.781" y2="40.332"/>
<line fill-rule="evenodd" clip-rule="evenodd" fill="none" stroke="#000000" stroke-width="0.83" stroke-linecap="round" stroke-linejoin="round" stroke-dasharray="3.34,3.34" x1="379.871" y1="38.092" x2="377.54" y2="40.242"/>
<line fill-rule="evenodd" clip-rule="evenodd" fill="none" stroke="#000000" stroke-width="0.83" stroke-linecap="round" stroke-linejoin="round" stroke-dasharray="3.34,3.34" x1="377.41" y1="43.572" x2="379.56" y2="45.902"/>
<line fill-rule="evenodd" clip-rule="evenodd" fill="none" stroke="#000000" stroke-width="0.83" stroke-linecap="round" stroke-linejoin="round" stroke-dasharray="3.34,3.34" x1="379.65" y1="43.662" x2="377.32" y2="45.812"/>
<line fill-rule="evenodd" clip-rule="evenodd" fill="none" stroke="#000000" stroke-width="0.83" stroke-linecap="round" stroke-linejoin="round" stroke-dasharray="3.34,3.34" x1="377.19" y1="49.142" x2="379.34" y2="51.472"/>
<line fill-rule="evenodd" clip-rule="evenodd" fill="none" stroke="#000000" stroke-width="0.83" stroke-linecap="round" stroke-linejoin="round" stroke-dasharray="3.34,3.34" x1="379.43" y1="49.232" x2="377.1" y2="51.382"/>
<line fill-rule="evenodd" clip-rule="evenodd" fill="none" stroke="#000000" stroke-width="0.83" stroke-linecap="round" stroke-linejoin="round" stroke-dasharray="3.34,3.34" x1="376.97" y1="54.712" x2="379.121" y2="57.042"/>
<line fill-rule="evenodd" clip-rule="evenodd" fill="none" stroke="#000000" stroke-width="0.83" stroke-linecap="round" stroke-linejoin="round" stroke-dasharray="3.34,3.34" x1="379.21" y1="54.802" x2="376.89" y2="56.952"/>
<line fill-rule="evenodd" clip-rule="evenodd" fill="none" stroke="#000000" stroke-width="0.83" stroke-linecap="round" stroke-linejoin="round" stroke-dasharray="3.34,3.34" x1="376.75" y1="60.292" x2="378.9" y2="62.612"/>
<line fill-rule="evenodd" clip-rule="evenodd" fill="none" stroke="#000000" stroke-width="0.83" stroke-linecap="round" stroke-linejoin="round" stroke-dasharray="3.34,3.34" x1="378.99" y1="60.372" x2="376.67" y2="62.522"/>
<line fill-rule="evenodd" clip-rule="evenodd" fill="none" stroke="#000000" stroke-width="0.83" stroke-linecap="round" stroke-linejoin="round" stroke-dasharray="3.34,3.34" x1="376.531" y1="65.862" x2="378.68" y2="68.182"/>
<line fill-rule="evenodd" clip-rule="evenodd" fill="none" stroke="#000000" stroke-width="0.83" stroke-linecap="round" stroke-linejoin="round" stroke-dasharray="3.34,3.34" x1="378.77" y1="65.942" x2="376.451" y2="68.091"/>
<line fill-rule="evenodd" clip-rule="evenodd" fill="none" stroke="#000000" stroke-width="0.83" stroke-linecap="round" stroke-linejoin="round" stroke-dasharray="3.34,3.34" x1="376.31" y1="71.432" x2="378.46" y2="73.752"/>
<line fill-rule="evenodd" clip-rule="evenodd" fill="none" stroke="#000000" stroke-width="0.83" stroke-linecap="round" stroke-linejoin="round" stroke-dasharray="3.34,3.34" x1="378.55" y1="71.511" x2="376.23" y2="73.662"/>
<line fill-rule="evenodd" clip-rule="evenodd" fill="none" stroke="#000000" stroke-width="0.83" stroke-linecap="round" stroke-linejoin="round" stroke-dasharray="3.34,3.34" x1="376.1" y1="77.002" x2="378.24" y2="79.322"/>
<line fill-rule="evenodd" clip-rule="evenodd" fill="none" stroke="#000000" stroke-width="0.83" stroke-linecap="round" stroke-linejoin="round" stroke-dasharray="3.34,3.34" x1="378.331" y1="77.091" x2="376.01" y2="79.232"/>
<line fill-rule="evenodd" clip-rule="evenodd" fill="none" stroke="#000000" stroke-width="0.83" stroke-linecap="round" stroke-linejoin="round" stroke-dasharray="3.34,3.34" x1="375.88" y1="82.572" x2="378.02" y2="84.891"/>
<line fill-rule="evenodd" clip-rule="evenodd" fill="none" stroke="#000000" stroke-width="0.83" stroke-linecap="round" stroke-linejoin="round" stroke-dasharray="3.34,3.34" x1="378.11" y1="82.662" x2="375.79" y2="84.802"/>
<line fill-rule="evenodd" clip-rule="evenodd" fill="none" stroke="#000000" stroke-width="0.83" stroke-linecap="round" stroke-linejoin="round" stroke-dasharray="3.34,3.34" x1="375.66" y1="88.141" x2="377.8" y2="90.461"/>
<line fill-rule="evenodd" clip-rule="evenodd" fill="none" stroke="#000000" stroke-width="0.83" stroke-linecap="round" stroke-linejoin="round" stroke-dasharray="3.34,3.34" x1="377.89" y1="88.232" x2="375.57" y2="90.372"/>
<line fill-rule="evenodd" clip-rule="evenodd" fill="none" stroke="#000000" stroke-width="0.83" stroke-linecap="round" stroke-linejoin="round" stroke-dasharray="3.34,3.34" x1="375.44" y1="93.711" x2="377.581" y2="96.032"/>
<line fill-rule="evenodd" clip-rule="evenodd" fill="none" stroke="#000000" stroke-width="0.83" stroke-linecap="round" stroke-linejoin="round" stroke-dasharray="3.34,3.34" x1="377.67" y1="93.802" x2="375.35" y2="95.942"/>
<line fill-rule="evenodd" clip-rule="evenodd" fill="none" stroke="#000000" stroke-width="0.83" stroke-linecap="round" stroke-linejoin="round" stroke-dasharray="3.34,3.34" x1="375.22" y1="99.282" x2="377.36" y2="101.602"/>
<line fill-rule="evenodd" clip-rule="evenodd" fill="none" stroke="#000000" stroke-width="0.83" stroke-linecap="round" stroke-linejoin="round" stroke-dasharray="3.34,3.34" x1="377.451" y1="99.372" x2="375.13" y2="101.511"/>
<line fill-rule="evenodd" clip-rule="evenodd" fill="none" stroke="#000000" stroke-width="0.83" stroke-linecap="round" stroke-linejoin="round" stroke-dasharray="3.34,3.34" x1="375" y1="104.852" x2="377.14" y2="107.171"/>
<line fill-rule="evenodd" clip-rule="evenodd" fill="none" stroke="#000000" stroke-width="0.83" stroke-linecap="round" stroke-linejoin="round" stroke-dasharray="3.34,3.34" x1="377.23" y1="104.942" x2="374.91" y2="107.082"/>
<line fill-rule="evenodd" clip-rule="evenodd" fill="none" stroke="#000000" stroke-width="0.83" stroke-linecap="round" stroke-linejoin="round" stroke-dasharray="3.34,3.34" x1="374.781" y1="110.421" x2="376.92" y2="112.742"/>
<line fill-rule="evenodd" clip-rule="evenodd" fill="none" stroke="#000000" stroke-width="0.83" stroke-linecap="round" stroke-linejoin="round" stroke-dasharray="3.34,3.34" x1="377.01" y1="110.511" x2="374.69" y2="112.662"/>
<line fill-rule="evenodd" clip-rule="evenodd" fill="none" stroke="#000000" stroke-width="0.83" stroke-linecap="round" stroke-linejoin="round" stroke-dasharray="3.34,3.34" x1="374.56" y1="115.992" x2="376.701" y2="118.322"/>
<line fill-rule="evenodd" clip-rule="evenodd" fill="none" stroke="#000000" stroke-width="0.83" stroke-linecap="round" stroke-linejoin="round" stroke-dasharray="3.34,3.34" x1="376.79" y1="116.082" x2="374.47" y2="118.232"/>
<line fill-rule="evenodd" clip-rule="evenodd" fill="none" stroke="#000000" stroke-width="0.83" stroke-linecap="round" stroke-linejoin="round" stroke-dasharray="3.34,3.34" x1="374.34" y1="121.562" x2="376.48" y2="123.891"/>
<line fill-rule="evenodd" clip-rule="evenodd" fill="none" stroke="#000000" stroke-width="0.83" stroke-linecap="round" stroke-linejoin="round" stroke-dasharray="3.34,3.34" x1="376.57" y1="121.652" x2="374.25" y2="123.802"/>
<path fill-rule="evenodd" clip-rule="evenodd" fill="none" stroke="#000000" stroke-width="2" stroke-linecap="round" stroke-linejoin="round" d="
	M345.581,115.362c-0.011,0.94,0.439,1.97,1.529,3.07c5.71,5.77,21.45,6.979,28.221,6.92c4.97-0.04,9.79-0.461,14.62-1.811
	c3.51-0.979,8.799-3.27,8.63-6.51"/>
<path fill-rule="evenodd" clip-rule="evenodd" fill="none" stroke="#000000" stroke-width="0.5" stroke-linecap="round" stroke-linejoin="round" stroke-dasharray="1,1" d="
	M398.581,117.032c-0.05-0.891-0.511-1.859-1.53-2.88c-5.71-5.77-21.45-6.98-28.21-6.92c-4.99,0.04-9.81,0.46-14.65,1.82
	c-3.44,0.959-8.569,3.17-8.609,6.31"/>
<line fill-rule="evenodd" clip-rule="evenodd" fill="none" stroke="#000000" stroke-width="2" stroke-linejoin="bevel" x1="241.29" y1="9.462" x2="240.52" y2="117.211"/>
<line fill-rule="evenodd" clip-rule="evenodd" fill="none" stroke="#000000" stroke-width="2" stroke-linejoin="bevel" x1="267.13" y1="8.542" x2="265.72" y2="116.532"/>
<line fill-rule="evenodd" clip-rule="evenodd" fill="none" stroke="#000000" stroke-width="2" stroke-linejoin="bevel" x1="320.73" y1="117.332" x2="323.54" y2="9.452"/>
<line fill-rule="evenodd" clip-rule="evenodd" fill="none" stroke="#000000" stroke-width="2" stroke-linejoin="bevel" x1="349.09" y1="7.692" x2="345.581" y2="115.382"/>
<line fill-rule="evenodd" clip-rule="evenodd" fill="none" stroke="#000000" stroke-width="2" stroke-linejoin="bevel" x1="398.55" y1="117.622" x2="403.38" y2="9.262"/>
<text transform="matrix(1 0 0 1 36.2202 147.0718)" font-family="'TrebuchetMS'" font-size="12">A</text>
<text transform="matrix(1 0 0 1 127.7202 147.0718)" font-family="'TrebuchetMS'" font-size="12">B</text>
<text transform="matrix(1 0 0 1 211.2202 147.0718)" font-family="'TrebuchetMS'" font-size="12">C</text>
<text transform="matrix(1 0 0 1 291.7202 147.0718)" font-family="'TrebuchetMS'" font-size="12">D</text>
<text transform="matrix(1 0 0 1 371.2202 147.0718)" font-family="'TrebuchetMS'" font-size="12">E</text>
</svg>
