<?xml version="1.0" encoding="utf-8"?>
<!-- Generator: Adobe Illustrator 14.0.0, SVG Export Plug-In . SVG Version: 6.00 Build 43363)  -->
<!DOCTYPE svg PUBLIC "-//W3C//DTD SVG 1.0//EN" "http://www.w3.org/TR/2001/REC-SVG-20010904/DTD/svg10.dtd">
<svg version="1.0" id="Layer_1" xmlns="http://www.w3.org/2000/svg" xmlns:xlink="http://www.w3.org/1999/xlink" x="0px" y="0px"
	 width="501.605px" height="422.149px" viewBox="0 0 501.605 422.149" enable-background="new 0 0 501.605 422.149"
	 xml:space="preserve">
<g>
	<defs>
		<rect id="SVGID_1_" x="5" y="3.777" width="503.033" height="414.414"/>
	</defs>
	<clipPath id="SVGID_2_">
		<use xlink:href="#SVGID_1_"  overflow="visible"/>
	</clipPath>
	<path clip-path="url(#SVGID_2_)" fill="#D0D2D3" d="M20.726,5.527c0,0-8,0-8,8v392.905c0,0,0,8,8,8h466.2c0,0,8,0,8-8V13.527
		c0,0,0-8-8-8H20.726z"/>
	<rect x="13.82" y="21.598" clip-path="url(#SVGID_2_)" fill="#FFFFFF" width="480.01" height="20.768"/>
	<path clip-path="url(#SVGID_2_)" fill="#FFFFFF" d="M347.223,403.309h146.608v8.444H347.223V403.309z M67.896,403.309h279.327
		v8.444H67.896V403.309z M13.82,403.309h54.076v8.444H13.82V403.309z M347.223,195.825h146.608v207.483H347.223V195.825z
		 M67.896,195.825h279.327v207.483H67.896V195.825z M13.82,195.825h54.076v207.483H13.82V195.825z M347.223,181.697h146.608v14.128
		H347.223V181.697z M67.896,181.697h279.327v14.128H67.896V181.697z M13.82,181.697h54.076v14.128H13.82V181.697z M347.223,157.879
		h146.608v8.444H347.223V157.879z M67.896,157.879h279.327v8.444H67.896V157.879z M13.82,157.879h54.076v8.444H13.82V157.879z
		 M347.223,142.506h146.608v15.372H347.223V142.506z M67.896,142.506h279.327v15.372H67.896V142.506z M13.82,142.506h54.076v15.372
		H13.82V142.506z M347.223,127.133h146.608v15.373H347.223V127.133z M67.896,127.133h279.327v15.373H67.896V127.133z M13.82,127.133
		h54.076v15.373H13.82V127.133z M347.223,113.004h146.608v14.128H347.223V113.004z M67.896,113.004h279.327v14.128H67.896V113.004z
		 M13.82,113.004h54.076v14.128H13.82V113.004z M347.223,98.877h146.608v14.128H347.223V98.877z M67.896,98.877h279.327v14.128
		H67.896V98.877z M13.82,98.877h54.076v14.128H13.82V98.877z M347.223,84.75h146.608v14.128H347.223V84.75z M67.896,84.75h279.327
		v14.128H67.896V84.75z M13.82,84.75h54.076v14.128H13.82V84.75z M347.223,70.622h146.608V84.75H347.223V70.622z M67.896,70.622
		h279.327V84.75H67.896V70.622z M13.82,70.622h54.076V84.75H13.82V70.622z M347.223,56.493h146.608v14.128H347.223V56.493z
		 M67.896,56.493h279.327v14.128H67.896V56.493z M13.82,56.493h54.076v14.128H13.82V56.493z M347.223,42.365h146.608v14.128H347.223
		V42.365z M67.896,42.365h279.327v14.128H67.896V42.365z M13.82,42.365h54.076v14.128H13.82V42.365z"/>
	<rect x="13.82" y="166.324" clip-path="url(#SVGID_2_)" fill="#FFFFFF" width="480.01" height="15.373"/>
	
		<line clip-path="url(#SVGID_2_)" fill="none" stroke="#231F20" stroke-miterlimit="10" x1="13.82" y1="21.598" x2="67.896" y2="21.598"/>
	
		<line clip-path="url(#SVGID_2_)" fill="none" stroke="#231F20" stroke-miterlimit="10" x1="67.896" y1="21.598" x2="347.223" y2="21.598"/>
	
		<line clip-path="url(#SVGID_2_)" fill="none" stroke="#231F20" stroke-miterlimit="10" x1="347.223" y1="21.598" x2="493.831" y2="21.598"/>
	
		<line clip-path="url(#SVGID_2_)" fill="none" stroke="#231F20" stroke-width="0.25" stroke-miterlimit="10" x1="13.82" y1="42.365" x2="67.896" y2="42.365"/>
	
		<line clip-path="url(#SVGID_2_)" fill="none" stroke="#231F20" stroke-width="0.25" stroke-miterlimit="10" x1="67.896" y1="42.365" x2="347.223" y2="42.365"/>
	
		<line clip-path="url(#SVGID_2_)" fill="none" stroke="#231F20" stroke-width="0.25" stroke-miterlimit="10" x1="347.223" y1="42.365" x2="493.831" y2="42.365"/>
	
		<line clip-path="url(#SVGID_2_)" fill="none" stroke="#231F20" stroke-width="0.25" stroke-miterlimit="10" x1="13.82" y1="56.493" x2="67.896" y2="56.493"/>
	
		<line clip-path="url(#SVGID_2_)" fill="none" stroke="#231F20" stroke-width="0.25" stroke-miterlimit="10" x1="67.896" y1="56.493" x2="347.223" y2="56.493"/>
	
		<line clip-path="url(#SVGID_2_)" fill="none" stroke="#231F20" stroke-width="0.25" stroke-miterlimit="10" x1="347.223" y1="56.493" x2="493.831" y2="56.493"/>
	
		<line clip-path="url(#SVGID_2_)" fill="none" stroke="#231F20" stroke-width="0.25" stroke-miterlimit="10" x1="13.82" y1="70.621" x2="67.896" y2="70.621"/>
	
		<line clip-path="url(#SVGID_2_)" fill="none" stroke="#231F20" stroke-width="0.25" stroke-miterlimit="10" x1="67.896" y1="70.621" x2="347.223" y2="70.621"/>
	
		<line clip-path="url(#SVGID_2_)" fill="none" stroke="#231F20" stroke-width="0.25" stroke-miterlimit="10" x1="347.223" y1="70.621" x2="493.831" y2="70.621"/>
	
		<line clip-path="url(#SVGID_2_)" fill="none" stroke="#231F20" stroke-width="0.25" stroke-miterlimit="10" x1="13.82" y1="84.749" x2="67.896" y2="84.749"/>
	
		<line clip-path="url(#SVGID_2_)" fill="none" stroke="#231F20" stroke-width="0.25" stroke-miterlimit="10" x1="67.896" y1="84.749" x2="347.223" y2="84.749"/>
	
		<line clip-path="url(#SVGID_2_)" fill="none" stroke="#231F20" stroke-width="0.25" stroke-miterlimit="10" x1="347.223" y1="84.749" x2="493.831" y2="84.749"/>
	
		<line clip-path="url(#SVGID_2_)" fill="none" stroke="#231F20" stroke-width="0.25" stroke-miterlimit="10" x1="13.82" y1="98.877" x2="67.896" y2="98.877"/>
	
		<line clip-path="url(#SVGID_2_)" fill="none" stroke="#231F20" stroke-width="0.25" stroke-miterlimit="10" x1="67.896" y1="98.877" x2="347.223" y2="98.877"/>
	
		<line clip-path="url(#SVGID_2_)" fill="none" stroke="#231F20" stroke-width="0.25" stroke-miterlimit="10" x1="347.223" y1="98.877" x2="493.831" y2="98.877"/>
	
		<line clip-path="url(#SVGID_2_)" fill="none" stroke="#231F20" stroke-width="0.25" stroke-miterlimit="10" x1="13.82" y1="113.005" x2="67.896" y2="113.005"/>
	
		<line clip-path="url(#SVGID_2_)" fill="none" stroke="#231F20" stroke-width="0.25" stroke-miterlimit="10" x1="67.896" y1="113.005" x2="347.223" y2="113.005"/>
	
		<line clip-path="url(#SVGID_2_)" fill="none" stroke="#231F20" stroke-width="0.25" stroke-miterlimit="10" x1="347.223" y1="113.005" x2="493.831" y2="113.005"/>
	
		<line clip-path="url(#SVGID_2_)" fill="none" stroke="#231F20" stroke-width="0.25" stroke-miterlimit="10" x1="13.82" y1="127.133" x2="67.896" y2="127.133"/>
	
		<line clip-path="url(#SVGID_2_)" fill="none" stroke="#231F20" stroke-width="0.25" stroke-miterlimit="10" x1="67.896" y1="127.133" x2="347.223" y2="127.133"/>
	
		<line clip-path="url(#SVGID_2_)" fill="none" stroke="#231F20" stroke-width="0.25" stroke-miterlimit="10" x1="347.223" y1="127.133" x2="493.831" y2="127.133"/>
	
		<line clip-path="url(#SVGID_2_)" fill="none" stroke="#231F20" stroke-width="0.25" stroke-miterlimit="10" x1="13.82" y1="142.506" x2="67.896" y2="142.506"/>
	
		<line clip-path="url(#SVGID_2_)" fill="none" stroke="#231F20" stroke-width="0.25" stroke-miterlimit="10" x1="67.896" y1="142.506" x2="347.223" y2="142.506"/>
	
		<line clip-path="url(#SVGID_2_)" fill="none" stroke="#231F20" stroke-width="0.25" stroke-miterlimit="10" x1="347.223" y1="142.506" x2="493.831" y2="142.506"/>
	
		<line clip-path="url(#SVGID_2_)" fill="none" stroke="#231F20" stroke-width="0.25" stroke-miterlimit="10" x1="13.82" y1="181.697" x2="67.896" y2="181.697"/>
	
		<line clip-path="url(#SVGID_2_)" fill="none" stroke="#231F20" stroke-width="0.25" stroke-miterlimit="10" x1="67.896" y1="181.697" x2="347.223" y2="181.697"/>
	
		<line clip-path="url(#SVGID_2_)" fill="none" stroke="#231F20" stroke-width="0.25" stroke-miterlimit="10" x1="347.223" y1="181.697" x2="493.831" y2="181.697"/>
	
		<line clip-path="url(#SVGID_2_)" fill="none" stroke="#231F20" stroke-width="0.25" stroke-miterlimit="10" x1="13.82" y1="195.825" x2="67.896" y2="195.825"/>
	
		<line clip-path="url(#SVGID_2_)" fill="none" stroke="#231F20" stroke-width="0.25" stroke-miterlimit="10" x1="67.896" y1="195.825" x2="347.223" y2="195.825"/>
	
		<line clip-path="url(#SVGID_2_)" fill="none" stroke="#231F20" stroke-width="0.25" stroke-miterlimit="10" x1="347.223" y1="195.825" x2="493.831" y2="195.825"/>
	
		<line clip-path="url(#SVGID_2_)" fill="none" stroke="#231F20" stroke-width="0.25" stroke-miterlimit="10" x1="13.82" y1="403.309" x2="67.896" y2="403.309"/>
	
		<line clip-path="url(#SVGID_2_)" fill="none" stroke="#231F20" stroke-width="0.25" stroke-miterlimit="10" x1="67.896" y1="403.309" x2="347.223" y2="403.309"/>
	
		<line clip-path="url(#SVGID_2_)" fill="none" stroke="#231F20" stroke-width="0.25" stroke-miterlimit="10" x1="347.223" y1="403.309" x2="493.831" y2="403.309"/>
	
		<line clip-path="url(#SVGID_2_)" fill="none" stroke="#231F20" stroke-width="0.25" stroke-miterlimit="10" x1="13.82" y1="157.879" x2="67.896" y2="157.879"/>
	
		<line clip-path="url(#SVGID_2_)" fill="none" stroke="#231F20" stroke-width="0.25" stroke-miterlimit="10" x1="67.896" y1="157.879" x2="347.223" y2="157.879"/>
	
		<line clip-path="url(#SVGID_2_)" fill="none" stroke="#231F20" stroke-width="0.25" stroke-miterlimit="10" x1="347.223" y1="157.879" x2="493.831" y2="157.879"/>
</g>
<text transform="matrix(1 0 0 1 22.5059 16.6504)" fill="#231F20" font-family="'TrebuchetMS-Italic'" font-size="10">Operator</text>
<text transform="matrix(1 0 0 1 351.9058 16.6504)" fill="#231F20" font-family="'TrebuchetMS-Italic'" font-size="10">Example</text>
<text transform="matrix(1 0 0 1 18.5059 38.3701)" fill="#231F20" font-family="'TrebuchetMS'" font-size="10">Arithmetic operators:</text>
<text transform="matrix(1 0 0 1.1111 18.5059 52.4932)" fill="#231F20" font-family="'CourierNewPS-ItalicMT'" font-size="9">=</text>
<text transform="matrix(1 0 0 1.1111 72.5776 52.4932)" fill="#231F20" font-family="'CourierNewPS-ItalicMT'" font-size="9">Assign a value to a variable</text>
<text transform="matrix(1 0 0 1.1111 351.9019 52.4932)" fill="#231F20" font-family="'CourierNewPS-ItalicMT'" font-size="9">x = 5</text>
<text transform="matrix(1 0 0 1.1111 18.4971 66.623)" fill="#231F20" font-family="'CourierNewPS-ItalicMT'" font-size="9">+</text>
<text transform="matrix(1 0 0 1.1111 72.5688 66.623)" fill="#231F20" font-family="'CourierNewPS-ItalicMT'" font-size="9">Add two numeric values</text>
<text transform="matrix(1 0 0 1.1111 351.8926 66.623)" fill="#231F20" font-family="'CourierNewPS-ItalicMT'" font-size="9">x = x + 1</text>
<text transform="matrix(1 0 0 1.1111 18.4878 80.7534)" fill="#231F20" font-family="'CourierNewPS-ItalicMT'" font-size="9">-</text>
<text transform="matrix(1 0 0 1.1111 72.5601 80.7534)" fill="#231F20" font-family="'CourierNewPS-ItalicMT'" font-size="9">Subtract two values</text>
<text transform="matrix(1 0 0 1.1111 351.8838 80.7534)" fill="#231F20" font-family="'CourierNewPS-ItalicMT'" font-size="9">x = 1 - x</text>
<text transform="matrix(1 0 0 1.1111 18.479 94.8833)" fill="#231F20" font-family="'CourierNewPS-ItalicMT'" font-size="9">*</text>
<text transform="matrix(1 0 0 1.1111 72.5508 94.8833)" fill="#231F20" font-family="'CourierNewPS-ItalicMT'" font-size="9">Multiply two values</text>
<text transform="matrix(1 0 0 1.1111 351.875 94.8833)" fill="#231F20" font-family="'CourierNewPS-ItalicMT'" font-size="9">x = x * (x-1)</text>
<text transform="matrix(1 0 0 1.1111 18.4697 109.0132)" fill="#231F20" font-family="'CourierNewPS-ItalicMT'" font-size="9">/</text>
<text transform="matrix(1 0 0 1.1111 72.542 109.0132)" fill="#231F20" font-family="'CourierNewPS-ItalicMT'" font-size="9">Divide two values</text>
<text transform="matrix(1 0 0 1.1111 351.8657 109.0132)" fill="#231F20" font-family="'CourierNewPS-ItalicMT'" font-size="9">x = (x+1) / (2*x + 1)</text>
<text transform="matrix(1 0 0 1.1111 18.4609 123.1436)" fill="#231F20" font-family="'CourierNewPS-ItalicMT'" font-size="9">//</text>
<text transform="matrix(1 0 0 1.1111 72.5327 123.1436)" fill="#231F20" font-family="'CourierNewPS-ItalicMT'" font-size="9">Floored Quotient </text>
<text transform="matrix(1 0 0 1.1111 351.8569 123.1436)" fill="#231F20" font-family="'CourierNewPS-ItalicMT'" font-size="9">x = x // 10</text>
<text transform="matrix(1 0 0 1 18.5059 138.5059)" fill="#231F20" font-family="'TrebuchetMS'" font-size="10">**</text>
<text transform="matrix(1 0 0 1.1111 72.5815 137.2607)" fill="#231F20" font-family="'CourierNewPS-ItalicMT'" font-size="9">Raise a number to the power of an exponent</text>
<text transform="matrix(1 0 0 1.1111 351.9053 138.5107)" fill="#231F20" font-family="'CourierNewPS-ItalicMT'" font-size="9">x = x </text>
<text transform="matrix(1 0 0 1 384.313 138.5059)" fill="#231F20" font-family="'TrebuchetMS'" font-size="10">**</text>
<text transform="matrix(1 0 0 1.1111 391.6567 138.5059)" fill="#231F20" font-family="'CourierNewPS-ItalicMT'" font-size="9"> 2.3    </text>
<text transform="matrix(1 0 0 1 434.8633 138.5059)" fill="#231F20" font-family="'TrebuchetMS'" font-size="10">means:  </text>
<text transform="matrix(1 0 0 1.1111 473.0811 138.5059)" fill="#231F20" font-family="'CourierNewPS-ItalicMT'" font-size="9">x</text>
<text transform="matrix(1 0 0 1.1111 478.4824 135.1758)" fill="#231F20" font-family="'CourierNewPS-ItalicMT'" font-size="5.247">2.3</text>
<text transform="matrix(1 0 0 1 18.5059 153.8789)" fill="#231F20" font-family="'TrebuchetMS'" font-size="10">%</text>
<text transform="matrix(1 0 0 1.1111 72.5815 152.6338)" fill="#231F20" font-family="'CourierNewPS-ItalicMT'" font-size="9">Divide two numbers and return only the remainder</text>
<text transform="matrix(1 0 0 1.1111 351.9053 153.8838)" fill="#231F20" font-family="'CourierNewPS-ItalicMT'" font-size="9">x = x </text>
<text transform="matrix(1 0 0 1 384.313 153.8789)" fill="#231F20" font-family="'TrebuchetMS'" font-size="10">%</text>
<text transform="matrix(1 0 0 1.1111 390.314 153.8789)" fill="#231F20" font-family="'CourierNewPS-ItalicMT'" font-size="9"> 5</text>
<text transform="matrix(1 0 0 1 18.5059 177.6973)" fill="#231F20" font-family="'TrebuchetMS'" font-size="10">Concatenation operators:</text>
<text transform="matrix(1 0 0 1.1111 18.5059 191.8252)" fill="#231F20" font-family="'CourierNewPS-ItalicMT'" font-size="9">+</text>
<text transform="matrix(1 0 0 1.1111 72.5776 191.8252)" fill="#231F20" font-family="'CourierNewPS-ItalicMT'" font-size="9">Concatenate two String variables</text>
<text transform="matrix(1 0 0 1.1111 351.9019 191.8252)" fill="#231F20" font-family="'CourierNewPS-ItalicMT'" font-size="9">x = x + </text>
<text transform="matrix(1 0 0 1 395.1147 191.8252)" fill="#860000" font-family="'CourierNewPSMT'" font-size="8">&quot; _Enter&quot;</text>
<g>
	<defs>
		<rect id="SVGID_3_" x="1" y="3.777" width="503.033" height="414.414"/>
	</defs>
	<clipPath id="SVGID_4_">
		<use xlink:href="#SVGID_3_"  overflow="visible"/>
	</clipPath>
	<rect x="13.82" y="199.825" clip-path="url(#SVGID_4_)" fill="#FFFFFF" width="480.01" height="15.373"/>
	<path clip-path="url(#SVGID_4_)" fill="#FFFFFF" d="M347.223,382.488h146.608v16.32H347.223V382.488z M67.896,382.488h279.327
		v16.32H67.896V382.488z M13.82,382.488h54.076v16.32H13.82V382.488z M347.223,368.36h146.608v14.128H347.223V368.36z
		 M67.896,368.36h279.327v14.128H67.896V368.36z M13.82,368.36h54.076v14.128H13.82V368.36z M347.223,354.232h146.608v14.128
		H347.223V354.232z M67.896,354.232h279.327v14.128H67.896V354.232z M13.82,354.232h54.076v14.128H13.82V354.232z M347.223,340.104
		h146.608v14.128H347.223V340.104z M67.896,340.104h279.327v14.128H67.896V340.104z M13.82,340.104h54.076v14.128H13.82V340.104z
		 M347.223,316.286h146.608v8.445H347.223V316.286z M67.896,316.286h279.327v8.445H67.896V316.286z M13.82,316.286h54.076v8.445
		H13.82V316.286z M347.223,299.966h146.608v16.319H347.223V299.966z M67.896,299.966h279.327v16.319H67.896V299.966z M13.82,299.966
		h54.076v16.319H13.82V299.966z M347.223,285.838h146.608v14.128H347.223V285.838z M67.896,285.838h279.327v14.128H67.896V285.838z
		 M13.82,285.838h54.076v14.128H13.82V285.838z M347.223,271.71h146.608v14.129H347.223V271.71z M67.896,271.71h279.327v14.129
		H67.896V271.71z M13.82,271.71h54.076v14.129H13.82V271.71z M347.223,257.582h146.608v14.128H347.223V257.582z M67.896,257.582
		h279.327v14.128H67.896V257.582z M13.82,257.582h54.076v14.128H13.82V257.582z M347.223,243.454h146.608v14.128H347.223V243.454z
		 M67.896,243.454h279.327v14.128H67.896V243.454z M13.82,243.454h54.076v14.128H13.82V243.454z M347.223,229.326h146.608v14.128
		H347.223V229.326z M67.896,229.326h279.327v14.128H67.896V229.326z M13.82,229.326h54.076v14.128H13.82V229.326z M347.223,215.198
		h146.608v14.128H347.223V215.198z M67.896,215.198h279.327v14.128H67.896V215.198z M13.82,215.198h54.076v14.128H13.82V215.198z"/>
	<rect x="13.82" y="324.731" clip-path="url(#SVGID_4_)" fill="#FFFFFF" width="480.01" height="15.373"/>
	
		<line clip-path="url(#SVGID_4_)" fill="none" stroke="#231F20" stroke-width="0.25" stroke-miterlimit="10" x1="13.82" y1="215.198" x2="67.896" y2="215.198"/>
	
		<line clip-path="url(#SVGID_4_)" fill="none" stroke="#231F20" stroke-width="0.25" stroke-miterlimit="10" x1="67.896" y1="215.198" x2="347.223" y2="215.198"/>
	
		<line clip-path="url(#SVGID_4_)" fill="none" stroke="#231F20" stroke-width="0.25" stroke-miterlimit="10" x1="347.223" y1="215.198" x2="493.831" y2="215.198"/>
	
		<line clip-path="url(#SVGID_4_)" fill="none" stroke="#231F20" stroke-width="0.25" stroke-miterlimit="10" x1="13.82" y1="229.326" x2="67.896" y2="229.326"/>
	
		<line clip-path="url(#SVGID_4_)" fill="none" stroke="#231F20" stroke-width="0.25" stroke-miterlimit="10" x1="67.896" y1="229.326" x2="347.223" y2="229.326"/>
	
		<line clip-path="url(#SVGID_4_)" fill="none" stroke="#231F20" stroke-width="0.25" stroke-miterlimit="10" x1="347.223" y1="229.326" x2="493.831" y2="229.326"/>
	
		<line clip-path="url(#SVGID_4_)" fill="none" stroke="#231F20" stroke-width="0.25" stroke-miterlimit="10" x1="13.82" y1="243.454" x2="67.896" y2="243.454"/>
	
		<line clip-path="url(#SVGID_4_)" fill="none" stroke="#231F20" stroke-width="0.25" stroke-miterlimit="10" x1="67.896" y1="243.454" x2="347.223" y2="243.454"/>
	
		<line clip-path="url(#SVGID_4_)" fill="none" stroke="#231F20" stroke-width="0.25" stroke-miterlimit="10" x1="347.223" y1="243.454" x2="493.831" y2="243.454"/>
	
		<line clip-path="url(#SVGID_4_)" fill="none" stroke="#231F20" stroke-width="0.25" stroke-miterlimit="10" x1="13.82" y1="257.582" x2="67.896" y2="257.582"/>
	
		<line clip-path="url(#SVGID_4_)" fill="none" stroke="#231F20" stroke-width="0.25" stroke-miterlimit="10" x1="67.896" y1="257.582" x2="347.223" y2="257.582"/>
	
		<line clip-path="url(#SVGID_4_)" fill="none" stroke="#231F20" stroke-width="0.25" stroke-miterlimit="10" x1="347.223" y1="257.582" x2="493.831" y2="257.582"/>
	
		<line clip-path="url(#SVGID_4_)" fill="none" stroke="#231F20" stroke-width="0.25" stroke-miterlimit="10" x1="13.82" y1="271.71" x2="67.896" y2="271.71"/>
	
		<line clip-path="url(#SVGID_4_)" fill="none" stroke="#231F20" stroke-width="0.25" stroke-miterlimit="10" x1="67.896" y1="271.71" x2="347.223" y2="271.71"/>
	
		<line clip-path="url(#SVGID_4_)" fill="none" stroke="#231F20" stroke-width="0.25" stroke-miterlimit="10" x1="347.223" y1="271.71" x2="493.831" y2="271.71"/>
	
		<line clip-path="url(#SVGID_4_)" fill="none" stroke="#231F20" stroke-width="0.25" stroke-miterlimit="10" x1="13.82" y1="285.838" x2="67.896" y2="285.838"/>
	
		<line clip-path="url(#SVGID_4_)" fill="none" stroke="#231F20" stroke-width="0.25" stroke-miterlimit="10" x1="67.896" y1="285.838" x2="347.223" y2="285.838"/>
	
		<line clip-path="url(#SVGID_4_)" fill="none" stroke="#231F20" stroke-width="0.25" stroke-miterlimit="10" x1="347.223" y1="285.838" x2="493.831" y2="285.838"/>
	
		<line clip-path="url(#SVGID_4_)" fill="none" stroke="#231F20" stroke-width="0.25" stroke-miterlimit="10" x1="13.82" y1="299.966" x2="67.896" y2="299.966"/>
	
		<line clip-path="url(#SVGID_4_)" fill="none" stroke="#231F20" stroke-width="0.25" stroke-miterlimit="10" x1="67.896" y1="299.966" x2="347.223" y2="299.966"/>
	
		<line clip-path="url(#SVGID_4_)" fill="none" stroke="#231F20" stroke-width="0.25" stroke-miterlimit="10" x1="347.223" y1="299.966" x2="493.831" y2="299.966"/>
	
		<line clip-path="url(#SVGID_4_)" fill="none" stroke="#231F20" stroke-width="0.25" stroke-miterlimit="10" x1="13.82" y1="316.286" x2="67.896" y2="316.286"/>
	
		<line clip-path="url(#SVGID_4_)" fill="none" stroke="#231F20" stroke-width="0.25" stroke-miterlimit="10" x1="67.896" y1="316.286" x2="347.223" y2="316.286"/>
	
		<line clip-path="url(#SVGID_4_)" fill="none" stroke="#231F20" stroke-width="0.25" stroke-miterlimit="10" x1="347.223" y1="316.286" x2="493.831" y2="316.286"/>
	
		<line clip-path="url(#SVGID_4_)" fill="none" stroke="#231F20" stroke-width="0.25" stroke-miterlimit="10" x1="13.82" y1="340.104" x2="67.896" y2="340.104"/>
	
		<line clip-path="url(#SVGID_4_)" fill="none" stroke="#231F20" stroke-width="0.25" stroke-miterlimit="10" x1="67.896" y1="340.104" x2="347.223" y2="340.104"/>
	
		<line clip-path="url(#SVGID_4_)" fill="none" stroke="#231F20" stroke-width="0.25" stroke-miterlimit="10" x1="347.223" y1="340.104" x2="493.831" y2="340.104"/>
	
		<line clip-path="url(#SVGID_4_)" fill="none" stroke="#231F20" stroke-width="0.25" stroke-miterlimit="10" x1="13.82" y1="354.232" x2="67.896" y2="354.232"/>
	
		<line clip-path="url(#SVGID_4_)" fill="none" stroke="#231F20" stroke-width="0.25" stroke-miterlimit="10" x1="67.896" y1="354.232" x2="347.223" y2="354.232"/>
	
		<line clip-path="url(#SVGID_4_)" fill="none" stroke="#231F20" stroke-width="0.25" stroke-miterlimit="10" x1="347.223" y1="354.232" x2="493.831" y2="354.232"/>
	
		<line clip-path="url(#SVGID_4_)" fill="none" stroke="#231F20" stroke-width="0.25" stroke-miterlimit="10" x1="13.82" y1="368.36" x2="67.896" y2="368.36"/>
	
		<line clip-path="url(#SVGID_4_)" fill="none" stroke="#231F20" stroke-width="0.25" stroke-miterlimit="10" x1="67.896" y1="368.36" x2="347.223" y2="368.36"/>
	
		<line clip-path="url(#SVGID_4_)" fill="none" stroke="#231F20" stroke-width="0.25" stroke-miterlimit="10" x1="347.223" y1="368.36" x2="493.831" y2="368.36"/>
	
		<line clip-path="url(#SVGID_4_)" fill="none" stroke="#231F20" stroke-width="0.25" stroke-miterlimit="10" x1="13.82" y1="382.488" x2="67.896" y2="382.488"/>
	
		<line clip-path="url(#SVGID_4_)" fill="none" stroke="#231F20" stroke-width="0.25" stroke-miterlimit="10" x1="67.896" y1="382.488" x2="347.223" y2="382.488"/>
	
		<line clip-path="url(#SVGID_4_)" fill="none" stroke="#231F20" stroke-width="0.25" stroke-miterlimit="10" x1="347.223" y1="382.488" x2="493.831" y2="382.488"/>
	
		<line clip-path="url(#SVGID_4_)" fill="none" stroke="#231F20" stroke-miterlimit="10" x1="13.82" y1="398.809" x2="67.896" y2="398.809"/>
	
		<line clip-path="url(#SVGID_4_)" fill="none" stroke="#231F20" stroke-miterlimit="10" x1="67.896" y1="398.809" x2="347.223" y2="398.809"/>
	
		<line clip-path="url(#SVGID_4_)" fill="none" stroke="#231F20" stroke-miterlimit="10" x1="347.223" y1="398.809" x2="493.831" y2="398.809"/>
</g>
<text transform="matrix(1 0 0 1 21.8203 211.1982)" fill="#231F20" font-family="'TrebuchetMS'" font-size="10">Comparison operators:</text>
<text transform="matrix(1 0 0 1.1111 21.8203 225.3262)" fill="#231F20" font-family="'CourierNewPS-ItalicMT'" font-size="9">&lt;</text>
<text transform="matrix(1 0 0 1.1111 75.8921 225.3262)" fill="#231F20" font-family="'CourierNewPS-ItalicMT'" font-size="9">Less than</text>
<text transform="matrix(1 0 0 1 355.2222 225.3262)" fill="#25408E" font-family="'CourierNewPS-BoldMT'" font-size="8">if</text>
<text transform="matrix(1 0 0 1.1111 364.8237 225.3262)" fill="#231F20" font-family="'CourierNewPS-ItalicMT'" font-size="9">(x &lt; 5):</text>
<text transform="matrix(1 0 0 1.1111 21.8247 239.4561)" fill="#231F20" font-family="'CourierNewPS-ItalicMT'" font-size="9">&lt;=</text>
<text transform="matrix(1 0 0 1.1111 75.8965 239.4561)" fill="#231F20" font-family="'CourierNewPS-ItalicMT'" font-size="9">Less than or equal to</text>
<text transform="matrix(1 0 0 1 355.2222 239.4541)" fill="#25408E" font-family="'CourierNewPS-BoldMT'" font-size="8">if</text>
<text transform="matrix(1 0 0 1.1111 364.8237 239.4541)" fill="#231F20" font-family="'CourierNewPS-ItalicMT'" font-size="9">(x &lt;= 4):</text>
<text transform="matrix(1 0 0 1.1111 21.8247 253.584)" fill="#231F20" font-family="'CourierNewPS-ItalicMT'" font-size="9">&gt;</text>
<text transform="matrix(1 0 0 1.1111 75.8965 253.584)" fill="#231F20" font-family="'CourierNewPS-ItalicMT'" font-size="9">Greater than</text>
<text transform="matrix(1 0 0 1 355.2222 253.582)" fill="#25408E" font-family="'CourierNewPS-BoldMT'" font-size="8">if</text>
<text transform="matrix(1 0 0 1.1111 364.8237 253.582)" fill="#231F20" font-family="'CourierNewPS-ItalicMT'" font-size="9">(x &gt; -1):</text>
<text transform="matrix(1 0 0 1.1111 21.8247 267.7119)" fill="#231F20" font-family="'CourierNewPS-ItalicMT'" font-size="9">&gt;=</text>
<text transform="matrix(1 0 0 1.1111 75.8965 267.7119)" fill="#231F20" font-family="'CourierNewPS-ItalicMT'" font-size="9">Greater than or equal to</text>
<text transform="matrix(1 0 0 1 355.2222 267.71)" fill="#25408E" font-family="'CourierNewPS-BoldMT'" font-size="8">if</text>
<text transform="matrix(1 0 0 1.1111 364.8237 267.71)" fill="#231F20" font-family="'CourierNewPS-ItalicMT'" font-size="9">(x &gt;= 0):</text>
<text transform="matrix(1 0 0 1.1111 21.8247 281.8398)" fill="#231F20" font-family="'CourierNewPS-ItalicMT'" font-size="9">==</text>
<text transform="matrix(1 0 0 1.1111 75.8965 281.8398)" fill="#231F20" font-family="'CourierNewPS-ItalicMT'" font-size="9">Equal to</text>
<text transform="matrix(1 0 0 1 355.2222 281.8379)" fill="#25408E" font-family="'CourierNewPS-BoldMT'" font-size="8">if</text>
<text transform="matrix(1 0 0 1.1111 364.8237 281.8379)" fill="#231F20" font-family="'CourierNewPS-ItalicMT'" font-size="9">(x == 10.0):</text>
<text transform="matrix(1 0 0 1.1111 21.8247 295.9678)" fill="#231F20" font-family="'CourierNewPS-ItalicMT'" font-size="9">!=</text>
<text transform="matrix(1 0 0 1.1111 75.8965 295.9678)" fill="#231F20" font-family="'CourierNewPS-ItalicMT'" font-size="9">Not equal to</text>
<text transform="matrix(1 0 0 1 355.2222 295.9658)" fill="#25408E" font-family="'CourierNewPS-BoldMT'" font-size="8">if</text>
<text transform="matrix(1 0 0 1.1111 364.8237 295.9658)" fill="#231F20" font-family="'CourierNewPS-ItalicMT'" font-size="9">(x != 10.0):</text>
<text transform="matrix(1 0 0 1.1111 21.8247 310.0957)" fill="#231F20" font-family="'CourierNewPS-ItalicMT'" font-size="9">Is</text>
<text transform="matrix(1 0 0 1.1111 75.8965 310.0957)" fill="#231F20" font-family="'CourierNewPS-ItalicMT'" font-size="9">Compare object variables for equality</text>
<text transform="matrix(1 0 0 1 21.8203 336.1045)" fill="#231F20" font-family="'TrebuchetMS'" font-size="10">Logical and bitwise operators:</text>
<text transform="matrix(1 0 0 1.1111 21.8203 350.2324)" fill="#231F20" font-family="'CourierNewPS-ItalicMT'" font-size="9">And</text>
<text transform="matrix(1 0 0 1.1111 75.8921 350.2324)" fill="#231F20" font-family="'CourierNewPS-ItalicMT'" font-size="9">Logical conjunction</text>
<text transform="matrix(1 0 0 1 355.2222 350.2324)" fill="#25408E" font-family="'CourierNewPS-BoldMT'" font-size="8">if</text>
<text transform="matrix(1 0 0 1.1111 364.8237 350.2324)" fill="#231F20" font-family="'CourierNewPS-ItalicMT'" font-size="9">(A </text>
<text transform="matrix(1 0 0 1 381.0264 350.2324)" fill="#25408E" font-family="'CourierNewPS-BoldMT'" font-size="8">and</text>
<text transform="matrix(1 0 0 1.1111 395.4287 350.2324)" fill="#231F20" font-family="'CourierNewPS-ItalicMT'" font-size="9"> B):</text>
<text transform="matrix(1 0 0 1.1111 21.8208 364.3623)" fill="#231F20" font-family="'CourierNewPS-ItalicMT'" font-size="9">Or</text>
<text transform="matrix(1 0 0 1.1111 75.8926 364.3623)" fill="#231F20" font-family="'CourierNewPS-ItalicMT'" font-size="9">Logical disjunction</text>
<text transform="matrix(1 0 0 1 355.2222 364.3604)" fill="#25408E" font-family="'CourierNewPS-BoldMT'" font-size="8">if</text>
<text transform="matrix(1 0 0 1.1111 364.8237 364.3604)" fill="#231F20" font-family="'CourierNewPS-ItalicMT'" font-size="9">(A </text>
<text transform="matrix(1 0 0 1 381.0264 364.3604)" fill="#25408E" font-family="'CourierNewPS-BoldMT'" font-size="8">or</text>
<text transform="matrix(1 0 0 1.1111 390.6279 364.3604)" fill="#231F20" font-family="'CourierNewPS-ItalicMT'" font-size="9"> B):</text>
<text transform="matrix(1 0 0 1.1111 21.8169 378.4902)" fill="#231F20" font-family="'CourierNewPS-ItalicMT'" font-size="9">Not</text>
<text transform="matrix(1 0 0 1.1111 75.8887 378.4902)" fill="#231F20" font-family="'CourierNewPS-ItalicMT'" font-size="9">Logical negation</text>
<text transform="matrix(1 0 0 1 355.2222 378.4883)" fill="#25408E" font-family="'CourierNewPS-BoldMT'" font-size="8">if</text>
<text transform="matrix(1 0 0 1.1111 364.8237 378.4883)" fill="#231F20" font-family="'CourierNewPS-ItalicMT'" font-size="9">(A </text>
<text transform="matrix(1 0 0 1 381.0264 378.4883)" fill="#25408E" font-family="'CourierNewPS-BoldMT'" font-size="8">not</text>
<text transform="matrix(1 0 0 1.1111 395.4287 378.4883)" fill="#231F20" font-family="'CourierNewPS-ItalicMT'" font-size="9"> B):</text>
<g>
	<defs>
		<rect id="SVGID_5_" x="5.686" y="3.777" width="503.033" height="414.414"/>
	</defs>
	<clipPath id="SVGID_6_">
		<use xlink:href="#SVGID_5_"  overflow="visible"/>
	</clipPath>
	<path clip-path="url(#SVGID_6_)" fill="none" stroke="#231F20" stroke-width="1.5" d="M21.411,5.527c0,0-8,0-8,8v392.905
		c0,0,0,8,8,8h466.2c0,0,8,0,8-8V13.527c0,0,0-8-8-8H21.411z"/>
</g>
</svg>
