<?xml version="1.0" encoding="utf-8"?>
<!-- Generator: Adobe Illustrator 14.0.0, SVG Export Plug-In . SVG Version: 6.00 Build 43363)  -->
<!DOCTYPE svg PUBLIC "-//W3C//DTD SVG 1.0//EN" "http://www.w3.org/TR/2001/REC-SVG-20010904/DTD/svg10.dtd">
<svg version="1.0" id="Layer_1" xmlns="http://www.w3.org/2000/svg" xmlns:xlink="http://www.w3.org/1999/xlink" x="0px" y="0px"
	 width="464.459px" height="205.691px" viewBox="0 0 464.459 205.691" enable-background="new 0 0 464.459 205.691"
	 xml:space="preserve">
<g>
	<defs>
		<rect id="SVGID_1_" y="0.505" width="90.72" height="90.59"/>
	</defs>
	<clipPath id="SVGID_2_">
		<use xlink:href="#SVGID_1_"  overflow="visible"/>
	</clipPath>
	<path clip-path="url(#SVGID_2_)" fill="#FFFFFF" d="M90.752,91.095H0V0.505h90.752V91.095z M87.542,59.035
		c0-10.733-6.043-20.059-14.92-24.77c0.132-1.099,0.199-2.217,0.199-3.352c0-15.483-12.575-28.035-28.085-28.035
		c-15.512,0-28.087,12.552-28.087,28.035c0,1.656,0.144,3.28,0.42,4.857c-7.486,5.034-12.41,13.577-12.41,23.265
		c0,15.484,12.575,28.037,28.087,28.037c4.834,0,9.383-1.219,13.354-3.368c3.972,2.149,8.521,3.368,13.356,3.368
		C74.968,87.072,87.542,74.519,87.542,59.035"/>
	<path clip-path="url(#SVGID_2_)" fill="#FFFFFF" d="M72.623,34.265c8.876,4.71,14.92,14.036,14.92,24.77
		c0,15.485-12.575,28.037-28.085,28.037c-4.835,0-9.385-1.219-13.356-3.368c8.774-4.742,14.731-14.01,14.731-24.669
		c0-1.656-0.144-3.279-0.42-4.855C67.021,49.733,71.634,42.555,72.623,34.265"/>
	<path clip-path="url(#SVGID_2_)" fill="#B2B2B2" d="M72.821,30.913c0,1.135-0.067,2.253-0.199,3.352
		C68.697,32.179,64.215,31,59.457,31c-4.835,0-9.385,1.219-13.356,3.368C42.129,32.219,37.581,31,32.746,31
		c-5.805,0-11.199,1.757-15.677,4.771c-0.277-1.577-0.42-3.201-0.42-4.857c0-15.483,12.575-28.035,28.087-28.035
		C60.247,2.878,72.821,15.43,72.821,30.913"/>
	<path clip-path="url(#SVGID_2_)" fill="#B2B2B2" d="M72.623,34.265c-0.988,8.29-5.602,15.468-12.211,19.914
		c-1.5-8.573-6.899-15.807-14.311-19.812C50.072,32.219,54.622,31,59.457,31C64.215,31,68.697,32.179,72.623,34.265"/>
	<path clip-path="url(#SVGID_2_)" fill="#FFFFFF" d="M60.411,54.179c0.277,1.577,0.42,3.199,0.42,4.855
		c0,10.659-5.957,19.927-14.731,24.669c-8.772-4.742-14.73-14.01-14.73-24.669c0-1.133,0.066-2.251,0.199-3.35
		c3.928,2.084,8.409,3.266,13.167,3.266C50.542,58.95,55.935,57.191,60.411,54.179"/>
	<path clip-path="url(#SVGID_2_)" fill="#B2B2B2" d="M46.101,34.367c7.411,4.005,12.811,11.239,14.311,19.812
		c-4.477,3.012-9.87,4.771-15.675,4.771c-4.758,0-9.239-1.182-13.167-3.266C32.669,46.457,38.261,38.604,46.101,34.367"/>
	<path clip-path="url(#SVGID_2_)" fill="#B2B2B2" d="M46.101,34.367c-7.839,4.236-13.431,12.089-14.532,21.317
		c-7.507-3.984-12.987-11.268-14.5-19.915C21.547,32.756,26.941,31,32.746,31C37.581,31,42.129,32.219,46.101,34.367"/>
	<path clip-path="url(#SVGID_2_)" fill="#FFFFFF" d="M31.37,59.035c0,10.659,5.958,19.927,14.73,24.669
		c-3.972,2.149-8.52,3.368-13.354,3.368c-15.512,0-28.087-12.553-28.087-28.037c0-9.688,4.924-18.23,12.41-23.265
		c1.513,8.646,6.992,15.93,14.5,19.915C31.437,56.783,31.37,57.902,31.37,59.035"/>
	<path clip-path="url(#SVGID_2_)" fill="none" stroke="#000000" stroke-width="1.627" d="M17.069,35.77
		c-0.277-1.577-0.42-3.201-0.42-4.857c0-15.483,12.575-28.035,28.087-28.035c15.511,0,28.085,12.552,28.085,28.035
		c0,1.135-0.067,2.253-0.199,3.352c-0.988,8.29-5.602,15.468-12.211,19.914c-4.477,3.012-9.87,4.771-15.675,4.771
		c-4.758,0-9.239-1.182-13.167-3.266C24.062,51.7,18.582,44.417,17.069,35.77z"/>
	<path clip-path="url(#SVGID_2_)" fill="none" stroke="#000000" stroke-width="1.627" d="M60.411,54.179
		c0.277,1.577,0.42,3.199,0.42,4.855c0,10.659-5.957,19.927-14.731,24.669c-3.972,2.149-8.52,3.368-13.354,3.368
		c-15.512,0-28.087-12.553-28.087-28.037c0-9.688,4.924-18.23,12.41-23.265C21.547,32.756,26.941,31,32.746,31
		c4.834,0,9.383,1.219,13.354,3.368C53.512,38.373,58.912,45.606,60.411,54.179z"/>
	<path clip-path="url(#SVGID_2_)" fill="none" stroke="#000000" stroke-width="1.627" d="M72.623,34.265
		c8.876,4.71,14.92,14.036,14.92,24.77c0,15.485-12.575,28.037-28.085,28.037c-4.835,0-9.385-1.219-13.356-3.368
		c-8.772-4.742-14.73-14.01-14.73-24.669c0-1.133,0.066-2.251,0.199-3.35c1.101-9.228,6.692-17.081,14.532-21.317
		C50.072,32.219,54.622,31,59.457,31C64.215,31,68.697,32.179,72.623,34.265z"/>
</g>
<g>
	<defs>
		<rect id="SVGID_3_" x="123.735" width="90.408" height="89.762"/>
	</defs>
	<clipPath id="SVGID_4_">
		<use xlink:href="#SVGID_3_"  overflow="visible"/>
	</clipPath>
	<path clip-path="url(#SVGID_4_)" fill-rule="evenodd" clip-rule="evenodd" fill="#A6A6A6" d="M169.786,88.959
		c-0.252-0.126-0.291-0.174-0.708-0.174c-0.601-0.6-0.32-0.581-0.892,0h-2.142c-0.708-0.532-0.523-0.542-1.424-0.184
		c-1.89-0.629-8.189-0.852-10.68-0.348c-2.394,0.59-4.671,0.106-7.297-0.184c-1.076-1.606-1.657-1.016-3.469-0.532
		c-0.708-0.397-0.562-0.455-0.979,0.174c-0.582,0.126-1.172,0.339-1.512,0.542c-0.058-0.106-0.01-0.097-0.097-0.184
		c-0.078-0.077,0.029,0-0.087,0c-0.204,0.135-0.271,0.184-0.446,0.532c-0.698,0.145-0.853,0.213-1.599,0.358
		c-0.523-1.306-0.252-0.958-1.424-0.174c-0.456-0.155-0.62-0.029-1.066-0.184c-1.27-1.674-4.332-0.822-6.949-0.174
		c-0.94-0.938-0.601-0.726-1.958,0.174c-0.204-0.813-0.213-0.697-0.892-0.532c-0.155-0.455-0.174-0.706-0.174-1.238
		c0.291-1.48,1.706-4.14-0.359-5.514c0.504-0.997,0.349-1.132,0.185-2.128c1.376-1.035-1.037-9.219,1.599-10.757
		c-0.281-0.203-0.329-0.251-0.892-0.445c0-1.451,0.233-2.447,0.533-3.105c-0.465-1.751,1.105-2.37-0.358-3.821
		c0.504-0.165,0.581-0.116,0.717-0.445c-1.725-2.36,1.347-4.286-0.358-6.839c0-1.238-0.262-2.099-0.533-3.202
		c0.301-0.455,0.32-0.474,0.175-0.978c-0.223-1.673,0.756-0.948,1.076-1.692c0.368-0.861-1.396-1.993-0.717-3.463
		c-0.136-0.203-0.184-0.271-0.533-0.445c-0.329-0.436-0.572-0.997-0.892-1.422c0.155-1.074,0.136-1.567,0-2.486
		c0.64-0.803,0.698-0.784,0.892-2.312c0.543-0.726,0.533-0.716,0.175-1.509c0.766-1.906,0.368-5.04-0.175-6.307
		c0.892-3.56,0.533-10.128,0-12.798c0-1.383,0.223-2.089,0.533-2.757c-0.901-1.238-0.417-1.964-0.892-2.747
		c0.184-0.552,0.146-0.406,0-0.629c2.181-1.083,2.743-3.744,1.425-4.527c-0.32-2.244-0.427-2.863,1.424-4.092
		c0.64,0.319,0.465,0.493,0.892-0.349c1.337-0.154,3.043-0.184,4.632-0.184c0.63,0.213,1.89,0.358,2.578,0.532
		c1.435-0.213,7.065,1.044,8.364,2.486c0.988-0.706,0.998-1.044,0.445-2.215c0.504-0.416,0.572-0.271,1.25-0.445
		c0.649,0.648,0.417,0.648,1.066,0h0.533c0.601,0.6,0.319,0.571,0.891,0c0.64,0,0.892,0.048,1.425,0.174
		c0.204,0.822,0.281,0.687,0.804,0.532c2.413,0.967,2.142-0.474,3.828-1.596c0.794,0.319,0.872,0.368,1.87-0.174
		c0.775,0.135,0.979,0.087,1.512-0.184c0.552,0.367,0.446,0.493,0.892-0.174c0.61,0.31,0.901,0.329,1.153,0.532
		c0.078-0.154,0.097-0.019,0.175-0.174c0.659,0.29,1.076,0.174,1.434,0.174c0.833,0.155,0.862,0.165,2.045,0
		c0,0.562-0.029,0.349,0.358,0.532c1.367,0.822,3.305,0.3,4.807,0h3.382c0.582,0.59,0.417,0.503,1.066,0.184
		c2.811,0,4.962,0,7.123-0.542c0.601,0.609,0.31,0.581,0.882,0h0.717c0.601,0.609,0.31,0.581,0.892,0h0.892
		c0.853,0.861,3.954,0.667,5.785,0.184c1.037,0,1.997-0.377,2.762-0.532c0.3,0,0.397-0.097,0.446-0.184
		c0.252,0.174,0.262,0.184,0.62,0.184c0.601,0.6,0.426,0.735,0.892-0.184c0.368,0.193,0.368,0.184,0.708,0.184
		c0.746,0.735,0.494,0.909,0.717-0.184c0.601,0.455,0.95,0.677,1.328,0.89c1.328,0.203,2.161-0.348,3.382,0.532
		c0.058-0.029,0.31-0.319,0.359-0.349c0.484,0.213,0.94,0.349,1.25,0.349c0.146,0,0.862-0.116,1.066-0.174
		c0.494,0.396,0.514,0.329,0.892,0.174c0.659,0.377,0.62,0.358,1.153,0c0.988,0.203,1.037-0.039,2.316-0.89
		c0.756,0.754,0.572,0.958,1.25-0.174c1.085,1.093,0.979,0.745,1.425,0c0.388,0.136,0.63,0.281,0.892,0.532
		c0,0.581-0.048,0.832-0.184,1.248c-0.863,0.648-0.863,0.416,0,1.064c0,0.31,0.087,0.406,0.184,0.445
		c-0.242,1.761-0.63,2.245,0,3.289v0.532c-0.756,0.561-0.746,0.348-0.542,1.596c-0.63,1.064-0.523,0.899,0,2.138v0.174
		c-0.814,0.822-0.775,0.464,0,1.248c-0.359,0.551-0.349,0.561-0.349,1.238c-0.078,0.377-0.456,1.306-0.533,1.693
		c0.679,0.938,0.669,1.819,0.349,3.019c0.087,0.067,0.446,0.464,0.533,0.532c-0.165,0.261-0.175,0.271-0.175,0.629
		c-0.562,0.184-0.61,0.232-0.892,0.436c0.572,1.248,0.378,2.825,0.717,4.179c-0.204,1.18-0.31,0.793,0.708,1.606
		c0.32,2.834-1.027,4.827-0.892,5.504c0.223,1.538,0.562,2.641,0.358,4.092c-0.63-0.165-0.766-0.116-1.066,0.261
		c0.146,0.474,0.659,1.761,0.892,2.225c-0.368,1.471-0.407,1.345,0.174,2.312c-0.174,0.687-0.194,0.697,0.359,1.064v4.266
		c0,0.503,0.077,0.764,0.174,1.064c-0.562,0.754-0.766,0.619,0.358,1.064c-0.126,0.484-0.232,0.764-0.358,1.248
		c-0.262,0.396-0.358,0.6-0.358,1.422c-0.204,1.016-0.611,1.877,0.358,2.844c-0.688,1.606-1.521,1.664-1.241,3.463
		c-0.203,1.5,0.456,2.322-0.717,3.376c0.204,0.154,0.281,0.3,0.717,0.445c0,0.31,0.087,0.396,0.175,0.445
		c0,0.997,0.019,1.2,0.358,1.867c-0.155,0.3-0.184,0.483-0.184,0.89c-0.921,0.455-0.775,0.281-0.174,0.89
		c-0.213,1.461,1.163,3.695,1.424,4.972c-0.155,0.3-0.174,0.484-0.174,0.89c-0.601,0.793-0.582,0.474,0,1.238v1.422
		c-0.95,0.938-1.085,0.852-0.542,2.051v1.857c-1.909,1.277-1.337,3.115,0,4.45v0.174c-0.369,1.132,0.213,2.708-0.795,3.376
		c-0.213,0.136-0.271,0.184-0.446,0.532c-1.298-0.213-1.056-0.242-1.25,0.803c-4.284,2.138-8.073,0.619-13.17,0.619
		c-1.638-0.542-1.9-0.145-3.916,0.716c-1.366-0.813-3.091-0.716-5.165,0.174c-0.213-1.248-0.078-1.025-0.979-0.532
		c-0.61-0.174-0.601-0.251-0.804,0.358c-1.667-0.958-2.723-0.609-3.741,0c-0.775-0.319-1.279-0.29-1.871-0.184
		c-0.698-0.397-0.552-0.455-0.979,0.184c-0.291-0.145-0.417-0.039-0.708-0.184c-0.64-0.639-0.281-0.6-0.892,0
		c-1.56,0.174-2.781,0.416-3.382,0.532C171.928,89.133,171.289,88.959,169.786,88.959"/>
	<path clip-path="url(#SVGID_4_)" fill-rule="evenodd" clip-rule="evenodd" fill="#FFFFFF" d="M155.511,55.141l-0.126-0.058
		c-6.706-3.86-11.639-10.458-13.238-18.264l-0.358-2.332l0.203-0.126c3.896-2.109,8.354-3.308,13.093-3.308
		c4.972,0,9.643,1.315,13.665,3.627l0.009,0.01l-1.318,0.803c-5.844,3.947-10.098,10.07-11.561,17.209L155.511,55.141z"/>
	<path clip-path="url(#SVGID_4_)" fill-rule="evenodd" clip-rule="evenodd" fill="#FFFFFF" d="M182.346,55.256l-0.349-2.312
		c-1.463-7.139-5.718-13.262-11.562-17.209l-1.696-1.026l0.388-0.271c4.021-2.312,8.693-3.628,13.664-3.628
		c4.739,0,9.207,1.2,13.093,3.309l0.456,0.281l-0.369,2.418c-1.599,7.807-6.532,14.404-13.238,18.264L182.346,55.256z"/>
	<path clip-path="url(#SVGID_4_)" fill-rule="evenodd" clip-rule="evenodd" fill="#FFFFFF" d="M168.759,34.69l-0.009-0.01
		c-4.022-2.312-8.693-3.627-13.665-3.627c-4.739,0-9.197,1.199-13.092,3.308l-0.204,0.126l-0.058-0.396
		c-0.097-0.919-0.146-1.848-0.146-2.796c0-15.139,12.308-27.425,27.474-27.425s27.474,12.286,27.474,27.425l-0.203,3.096
		l-0.446-0.271c-3.886-2.109-8.354-3.309-13.093-3.309s-9.197,1.2-13.083,3.309L168.759,34.69z"/>
	<path clip-path="url(#SVGID_4_)" fill-rule="evenodd" clip-rule="evenodd" fill="#A6A6A6" d="M169.137,81.994l-1.696-1.025
		c-7.307-4.933-12.114-13.282-12.114-22.743l0.194-3.095l0.446,0.271c3.896,2.108,8.354,3.308,13.093,3.308
		c4.739,0,9.197-1.2,13.092-3.308l0.204-0.116l0.194,3.183c0,9.46-4.807,17.809-12.114,22.743L169.137,81.994z"/>
	<path clip-path="url(#SVGID_4_)" fill-rule="evenodd" clip-rule="evenodd" fill="#A6A6A6" d="M182.792,85.651
		c-4.739,0-9.197-1.199-13.083-3.308l-0.572-0.349l1.299-0.783c7.307-4.934,12.114-13.282,12.114-22.743
		c0-0.938-0.048-1.877-0.136-2.796l-0.068-0.416l0.388-0.174c6.706-3.86,11.639-10.458,13.238-18.264l0.369-2.418l1.812,1.093
		c7.307,4.934,12.114,13.272,12.114,22.733C210.266,73.366,197.958,85.651,182.792,85.651"/>
	<path clip-path="url(#SVGID_4_)" fill-rule="evenodd" clip-rule="evenodd" fill="#A6A6A6" d="M155.085,85.893
		c-15.167,0-27.474-12.286-27.474-27.425c0-9.461,4.807-17.8,12.114-22.733l2.064-1.248l0.358,2.332
		c1.599,7.806,6.532,14.404,13.238,18.264l0.126,0.058l-0.048,0.29c-0.087,0.919-0.136,1.857-0.136,2.795
		c0,9.461,4.807,17.81,12.114,22.743l1.696,1.026l-0.959,0.59C164.282,84.693,159.824,85.893,155.085,85.893"/>
	<path clip-path="url(#SVGID_4_)" fill-rule="evenodd" clip-rule="evenodd" fill="#FFFFFF" d="M169.06,58.71
		c-4.739,0-9.197-1.2-13.093-3.308l-0.456-0.271l0.369-2.428c1.289-6.239,4.7-11.715,9.449-15.632l3.411-2.36l1.696,1.025
		c5.844,3.947,10.098,10.07,11.562,17.209l0.349,2.312l-3.847,1.79C175.552,58.129,172.374,58.71,169.06,58.71"/>
	<path clip-path="url(#SVGID_4_)" fill="none" stroke="#000000" stroke-width="1.4523" d="M182.549,58.468
		c0,15.139-12.308,27.425-27.464,27.425c-15.167,0-27.474-12.286-27.474-27.425c0-15.13,12.308-27.415,27.474-27.415
		C170.242,31.053,182.549,43.338,182.549,58.468z"/>
	<path clip-path="url(#SVGID_4_)" fill="none" stroke="#000000" stroke-width="1.4523" d="M210.266,58.226
		c0,15.14-12.308,27.425-27.474,27.425c-15.157,0-27.464-12.285-27.464-27.425c0-15.129,12.308-27.415,27.464-27.415
		C197.958,30.811,210.266,43.097,210.266,58.226z"/>
	<path clip-path="url(#SVGID_4_)" fill="none" stroke="#000000" stroke-width="1.4523" d="M196.533,31.295
		c0,15.129-12.307,27.415-27.474,27.415s-27.474-12.286-27.474-27.415c0-15.139,12.308-27.425,27.474-27.425
		S196.533,16.156,196.533,31.295z"/>
</g>
<g>
	<defs>
		<rect id="SVGID_5_" x="249.138" y="0.505" width="90.72" height="90.59"/>
	</defs>
	<clipPath id="SVGID_6_">
		<use xlink:href="#SVGID_5_"  overflow="visible"/>
	</clipPath>
	<path clip-path="url(#SVGID_6_)" fill="#FFFFFF" d="M339.89,91.095h-90.752V0.505h90.752V91.095z M336.68,59.035
		c0-10.733-6.043-20.059-14.92-24.77c0.132-1.099,0.199-2.217,0.199-3.352c0-15.483-12.575-28.035-28.085-28.035
		c-15.513,0-28.087,12.552-28.087,28.035c0,1.656,0.143,3.28,0.42,4.857c-7.486,5.034-12.41,13.577-12.41,23.265
		c0,15.484,12.575,28.037,28.087,28.037c4.835,0,9.383-1.219,13.354-3.368c3.972,2.149,8.521,3.368,13.356,3.368
		C324.105,87.072,336.68,74.519,336.68,59.035"/>
	<path clip-path="url(#SVGID_6_)" fill="#FFFFFF" d="M321.761,34.265c8.876,4.71,14.919,14.036,14.919,24.77
		c0,15.485-12.575,28.037-28.085,28.037c-4.835,0-9.385-1.219-13.356-3.368c8.774-4.742,14.731-14.01,14.731-24.669
		c0-1.656-0.144-3.279-0.42-4.855C316.159,49.733,320.772,42.555,321.761,34.265"/>
	<path clip-path="url(#SVGID_6_)" fill="#FFFFFF" d="M321.959,30.913c0,1.135-0.066,2.253-0.199,3.352
		C317.834,32.179,313.353,31,308.595,31c-4.835,0-9.385,1.219-13.356,3.368c-3.972-2.148-8.52-3.368-13.354-3.368
		c-5.805,0-11.199,1.757-15.677,4.771c-0.277-1.577-0.42-3.201-0.42-4.857c0-15.483,12.575-28.035,28.087-28.035
		C309.384,2.878,321.959,15.43,321.959,30.913"/>
	<path clip-path="url(#SVGID_6_)" fill="#FFFFFF" d="M321.761,34.265c-0.989,8.29-5.602,15.468-12.212,19.914
		c-1.5-8.573-6.899-15.807-14.311-19.812C299.21,32.219,303.76,31,308.595,31C313.353,31,317.834,32.179,321.761,34.265"/>
	<path clip-path="url(#SVGID_6_)" fill="#FFFFFF" d="M309.549,54.179c0.277,1.577,0.42,3.199,0.42,4.855
		c0,10.659-5.957,19.927-14.731,24.669c-8.772-4.742-14.73-14.01-14.73-24.669c0-1.133,0.067-2.251,0.199-3.35
		c3.928,2.084,8.409,3.266,13.167,3.266C299.679,58.95,305.072,57.191,309.549,54.179"/>
	<path clip-path="url(#SVGID_6_)" fill="#B2B2B2" d="M295.238,34.367c7.411,4.005,12.811,11.239,14.311,19.812
		c-4.477,3.012-9.87,4.771-15.675,4.771c-4.758,0-9.24-1.182-13.167-3.266C281.807,46.457,287.399,38.604,295.238,34.367"/>
	<path clip-path="url(#SVGID_6_)" fill="#B2B2B2" d="M295.238,34.367c-7.839,4.236-13.431,12.089-14.532,21.317
		c-7.507-3.984-12.987-11.268-14.5-19.915c4.478-3.014,9.872-4.771,15.677-4.771C286.719,31,291.267,32.219,295.238,34.367"/>
	<path clip-path="url(#SVGID_6_)" fill="#FFFFFF" d="M280.508,59.035c0,10.659,5.958,19.927,14.73,24.669
		c-3.972,2.149-8.52,3.368-13.354,3.368c-15.512,0-28.087-12.553-28.087-28.037c0-9.688,4.924-18.23,12.41-23.265
		c1.513,8.646,6.992,15.93,14.5,19.915C280.575,56.783,280.508,57.902,280.508,59.035"/>
	<path clip-path="url(#SVGID_6_)" fill="none" stroke="#000000" stroke-width="1.627" d="M266.207,35.77
		c-0.277-1.577-0.42-3.201-0.42-4.857c0-15.483,12.574-28.035,28.087-28.035c15.51,0,28.085,12.552,28.085,28.035
		c0,1.135-0.066,2.253-0.199,3.352c-0.988,8.29-5.602,15.468-12.211,19.914c-4.477,3.012-9.87,4.771-15.675,4.771
		c-4.758,0-9.24-1.182-13.167-3.266C273.199,51.7,267.72,44.417,266.207,35.77z"/>
	<path clip-path="url(#SVGID_6_)" fill="none" stroke="#000000" stroke-width="1.627" d="M309.549,54.179
		c0.277,1.577,0.42,3.199,0.42,4.855c0,10.659-5.957,19.927-14.731,24.669c-3.972,2.149-8.52,3.368-13.354,3.368
		c-15.512,0-28.087-12.553-28.087-28.037c0-9.688,4.924-18.23,12.41-23.265c4.478-3.014,9.872-4.771,15.677-4.771
		c4.835,0,9.383,1.219,13.354,3.368C302.649,38.373,308.049,45.606,309.549,54.179z"/>
	<path clip-path="url(#SVGID_6_)" fill="none" stroke="#000000" stroke-width="1.627" d="M321.761,34.265
		c8.876,4.71,14.919,14.036,14.919,24.77c0,15.485-12.575,28.037-28.085,28.037c-4.835,0-9.385-1.219-13.356-3.368
		c-8.772-4.742-14.73-14.01-14.73-24.669c0-1.133,0.067-2.251,0.199-3.35c1.101-9.228,6.693-17.081,14.532-21.317
		C299.21,32.219,303.76,31,308.595,31C313.353,31,317.834,32.179,321.761,34.265z"/>
</g>
<g>
	<defs>
		<rect id="SVGID_7_" x="373.707" y="0.505" width="90.719" height="90.59"/>
	</defs>
	<clipPath id="SVGID_8_">
		<use xlink:href="#SVGID_7_"  overflow="visible"/>
	</clipPath>
	<path clip-path="url(#SVGID_8_)" fill="#FFFFFF" d="M464.459,91.095h-90.752V0.505h90.752V91.095z M461.249,59.035
		c0-10.733-6.043-20.059-14.92-24.77c0.132-1.099,0.199-2.217,0.199-3.352c0-15.483-12.575-28.035-28.086-28.035
		c-15.512,0-28.087,12.552-28.087,28.035c0,1.656,0.144,3.28,0.421,4.857c-7.486,5.034-12.411,13.577-12.411,23.265
		c0,15.484,12.575,28.037,28.088,28.037c4.834,0,9.383-1.219,13.354-3.368c3.972,2.149,8.521,3.368,13.356,3.368
		C448.674,87.072,461.249,74.519,461.249,59.035"/>
	<path clip-path="url(#SVGID_8_)" fill="#FFFFFF" d="M446.329,34.265c8.877,4.71,14.92,14.036,14.92,24.77
		c0,15.485-12.575,28.037-28.085,28.037c-4.835,0-9.385-1.219-13.356-3.368c8.773-4.742,14.73-14.01,14.73-24.669
		c0-1.656-0.144-3.279-0.42-4.855C440.728,49.733,445.341,42.555,446.329,34.265"/>
	<path clip-path="url(#SVGID_8_)" fill="#B2B2B2" d="M446.528,30.913c0,1.135-0.067,2.253-0.199,3.352
		C442.403,32.179,437.922,31,433.163,31c-4.834,0-9.384,1.219-13.355,3.368C415.836,32.219,411.287,31,406.452,31
		c-5.805,0-11.198,1.757-15.677,4.771c-0.276-1.577-0.42-3.201-0.42-4.857c0-15.483,12.575-28.035,28.087-28.035
		C433.953,2.878,446.528,15.43,446.528,30.913"/>
	<path clip-path="url(#SVGID_8_)" fill="#B2B2B2" d="M446.329,34.265c-0.988,8.29-5.602,15.468-12.211,19.914
		c-1.5-8.573-6.9-15.807-14.311-19.812c3.972-2.148,8.521-3.368,13.356-3.368C437.922,31,442.403,32.179,446.329,34.265"/>
	<path clip-path="url(#SVGID_8_)" fill="#B2B2B2" d="M434.118,54.179c0.276,1.577,0.42,3.199,0.42,4.855
		c0,10.659-5.957,19.927-14.73,24.669c-8.772-4.742-14.731-14.01-14.731-24.669c0-1.133,0.067-2.251,0.199-3.35
		c3.928,2.084,8.409,3.266,13.167,3.266C424.248,58.95,429.642,57.191,434.118,54.179"/>
	<path clip-path="url(#SVGID_8_)" fill="#B2B2B2" d="M419.808,34.367c7.41,4.005,12.811,11.239,14.311,19.812
		c-4.477,3.012-9.87,4.771-15.676,4.771c-4.758,0-9.239-1.182-13.167-3.266C406.376,46.457,411.968,38.604,419.808,34.367"/>
	<path clip-path="url(#SVGID_8_)" fill="#B2B2B2" d="M419.808,34.367c-7.84,4.236-13.432,12.089-14.532,21.317
		c-7.507-3.984-12.986-11.268-14.5-19.915c4.479-3.014,9.872-4.771,15.677-4.771C411.287,31,415.836,32.219,419.808,34.367"/>
	<path clip-path="url(#SVGID_8_)" fill="#B2B2B2" d="M405.077,59.035c0,10.659,5.958,19.927,14.73,24.669
		c-3.972,2.149-8.521,3.368-13.354,3.368c-15.513,0-28.088-12.553-28.088-28.037c0-9.688,4.925-18.23,12.411-23.265
		c1.513,8.646,6.992,15.93,14.499,19.915C405.144,56.783,405.077,57.902,405.077,59.035"/>
	<path clip-path="url(#SVGID_8_)" fill="none" stroke="#000000" stroke-width="1.627" d="M390.776,35.77
		c-0.277-1.577-0.421-3.201-0.421-4.857c0-15.483,12.575-28.035,28.087-28.035c15.511,0,28.086,12.552,28.086,28.035
		c0,1.135-0.067,2.253-0.199,3.352c-0.988,8.29-5.602,15.468-12.211,19.914c-4.477,3.012-9.87,4.771-15.676,4.771
		c-4.758,0-9.239-1.182-13.167-3.266C397.769,51.7,392.289,44.417,390.776,35.77z"/>
	<path clip-path="url(#SVGID_8_)" fill="none" stroke="#000000" stroke-width="1.627" d="M434.118,54.179
		c0.276,1.577,0.42,3.199,0.42,4.855c0,10.659-5.957,19.927-14.73,24.669c-3.972,2.149-8.521,3.368-13.354,3.368
		c-15.513,0-28.087-12.553-28.087-28.037c0-9.688,4.924-18.23,12.41-23.265c4.478-3.014,9.871-4.771,15.677-4.771
		c4.834,0,9.383,1.219,13.354,3.368C427.218,38.373,432.618,45.606,434.118,54.179z"/>
	<path clip-path="url(#SVGID_8_)" fill="none" stroke="#000000" stroke-width="1.627" d="M446.329,34.265
		c8.877,4.71,14.92,14.036,14.92,24.77c0,15.485-12.575,28.037-28.085,28.037c-4.835,0-9.385-1.219-13.356-3.368
		c-8.772-4.742-14.73-14.01-14.73-24.669c0-1.133,0.066-2.251,0.198-3.35c1.101-9.228,6.692-17.081,14.532-21.317
		c3.972-2.148,8.521-3.368,13.356-3.368C437.922,31,442.403,32.179,446.329,34.265z"/>
</g>
<text transform="matrix(1 0 0 1 42.9595 98.6313)" fill="#231F20" font-family="'CourierNewPSMT'" font-size="8">A</text>
<text transform="matrix(1 0 0 1 157.9272 98.6313)" fill="#231F20" font-family="'CourierNewPSMT'" font-size="8">Not A</text>
<text transform="matrix(1 0 0 1 277.6953 98.6313)" fill="#231F20" font-family="'CourierNewPSMT'" font-size="8">A And B</text>
<text transform="matrix(1 0 0 1 404.6631 98.6313)" fill="#231F20" font-family="'CourierNewPSMT'" font-size="8">A Or B</text>
<g>
	<defs>
		<rect id="SVGID_9_" y="102.632" width="90.72" height="90.59"/>
	</defs>
	<clipPath id="SVGID_10_">
		<use xlink:href="#SVGID_9_"  overflow="visible"/>
	</clipPath>
	<path clip-path="url(#SVGID_10_)" fill="#FFFFFF" d="M90.752,193.221H0v-90.59h90.752V193.221z M87.542,161.161
		c0-10.733-6.043-20.059-14.92-24.77c0.132-1.099,0.199-2.217,0.199-3.352c0-15.483-12.575-28.035-28.085-28.035
		c-15.512,0-28.087,12.552-28.087,28.035c0,1.656,0.144,3.28,0.42,4.857c-7.486,5.035-12.41,13.577-12.41,23.265
		c0,15.485,12.575,28.037,28.087,28.037c4.834,0,9.383-1.219,13.354-3.368c3.972,2.149,8.521,3.368,13.356,3.368
		C74.968,189.198,87.542,176.646,87.542,161.161"/>
	<path clip-path="url(#SVGID_10_)" fill="#B2B2B2" d="M72.623,136.392c8.876,4.71,14.92,14.036,14.92,24.77
		c0,15.485-12.575,28.037-28.085,28.037c-4.835,0-9.385-1.219-13.356-3.368c8.774-4.742,14.731-14.01,14.731-24.669
		c0-1.656-0.144-3.279-0.42-4.855C67.021,151.86,71.634,144.682,72.623,136.392"/>
	<path clip-path="url(#SVGID_10_)" fill="#B2B2B2" d="M72.821,133.04c0,1.135-0.067,2.253-0.199,3.352
		c-3.926-2.085-8.407-3.266-13.166-3.266c-4.835,0-9.385,1.219-13.356,3.368c-3.972-2.148-8.52-3.368-13.354-3.368
		c-5.805,0-11.199,1.757-15.677,4.771c-0.277-1.577-0.42-3.2-0.42-4.857c0-15.483,12.575-28.035,28.087-28.035
		C60.247,105.004,72.821,117.557,72.821,133.04"/>
	<path clip-path="url(#SVGID_10_)" fill="#B2B2B2" d="M72.623,136.392c-0.988,8.29-5.602,15.468-12.211,19.914
		c-1.5-8.573-6.899-15.807-14.311-19.812c3.972-2.148,8.521-3.368,13.356-3.368C64.215,133.126,68.697,134.306,72.623,136.392"/>
	<path clip-path="url(#SVGID_10_)" fill="#B2B2B2" d="M60.411,156.306c0.277,1.577,0.42,3.199,0.42,4.855
		c0,10.659-5.957,19.927-14.731,24.669c-8.772-4.742-14.73-14.01-14.73-24.669c0-1.133,0.066-2.251,0.199-3.35
		c3.928,2.084,8.409,3.266,13.167,3.266C50.542,161.077,55.935,159.318,60.411,156.306"/>
	<path clip-path="url(#SVGID_10_)" fill="#B2B2B2" d="M46.101,136.494c7.411,4.005,12.811,11.239,14.311,19.812
		c-4.477,3.012-9.87,4.771-15.675,4.771c-4.758,0-9.239-1.182-13.167-3.266C32.669,148.583,38.261,140.73,46.101,136.494"/>
	<path clip-path="url(#SVGID_10_)" fill="#B2B2B2" d="M46.101,136.494c-7.839,4.236-13.431,12.089-14.532,21.317
		c-7.507-3.984-12.987-11.268-14.5-19.914c4.478-3.014,9.872-4.771,15.677-4.771C37.581,133.126,42.129,134.345,46.101,136.494"/>
	<path clip-path="url(#SVGID_10_)" fill="#B2B2B2" d="M31.37,161.161c0,10.659,5.958,19.927,14.73,24.669
		c-3.972,2.149-8.52,3.368-13.354,3.368c-15.512,0-28.087-12.552-28.087-28.037c0-9.688,4.924-18.23,12.41-23.265
		c1.513,8.646,6.992,15.93,14.5,19.915C31.437,158.91,31.37,160.028,31.37,161.161"/>
	<path clip-path="url(#SVGID_10_)" fill="none" stroke="#000000" stroke-width="1.627" d="M17.069,137.896
		c-0.277-1.577-0.42-3.201-0.42-4.857c0-15.483,12.575-28.035,28.087-28.035c15.511,0,28.085,12.552,28.085,28.035
		c0,1.135-0.067,2.253-0.199,3.352c-0.988,8.29-5.602,15.468-12.211,19.914c-4.477,3.012-9.87,4.771-15.675,4.771
		c-4.758,0-9.239-1.182-13.167-3.266C24.062,153.827,18.582,146.543,17.069,137.896z"/>
	<path clip-path="url(#SVGID_10_)" fill="none" stroke="#000000" stroke-width="1.627" d="M60.411,156.306
		c0.277,1.577,0.42,3.199,0.42,4.855c0,10.659-5.957,19.927-14.731,24.669c-3.972,2.149-8.52,3.368-13.354,3.368
		c-15.512,0-28.087-12.552-28.087-28.037c0-9.688,4.924-18.23,12.41-23.265c4.478-3.014,9.872-4.771,15.677-4.771
		c4.834,0,9.383,1.219,13.354,3.368C53.512,140.499,58.912,147.733,60.411,156.306z"/>
	<path clip-path="url(#SVGID_10_)" fill="none" stroke="#000000" stroke-width="1.627" d="M72.623,136.392
		c8.876,4.71,14.92,14.036,14.92,24.77c0,15.485-12.575,28.037-28.085,28.037c-4.835,0-9.385-1.219-13.356-3.368
		c-8.772-4.742-14.73-14.01-14.73-24.669c0-1.133,0.066-2.251,0.199-3.35c1.101-9.228,6.692-17.081,14.532-21.317
		c3.972-2.148,8.521-3.368,13.356-3.368C64.215,133.126,68.697,134.306,72.623,136.392z"/>
</g>
<g>
	<defs>
		<rect id="SVGID_11_" x="124.569" y="102.632" width="90.72" height="90.59"/>
	</defs>
	<clipPath id="SVGID_12_">
		<use xlink:href="#SVGID_11_"  overflow="visible"/>
	</clipPath>
	<path clip-path="url(#SVGID_12_)" fill="#FFFFFF" d="M215.321,193.221h-90.752v-90.59h90.752V193.221z M212.111,161.161
		c0-10.733-6.043-20.059-14.92-24.77c0.132-1.099,0.199-2.217,0.199-3.352c0-15.483-12.575-28.035-28.085-28.035
		c-15.513,0-28.087,12.552-28.087,28.035c0,1.656,0.144,3.28,0.42,4.857c-7.486,5.035-12.41,13.577-12.41,23.265
		c0,15.485,12.575,28.037,28.087,28.037c4.835,0,9.383-1.219,13.354-3.368c3.972,2.149,8.521,3.368,13.356,3.368
		C199.537,189.198,212.111,176.646,212.111,161.161"/>
	<path clip-path="url(#SVGID_12_)" fill="#FFFFFF" d="M197.191,136.392c8.876,4.71,14.92,14.036,14.92,24.77
		c0,15.485-12.575,28.037-28.085,28.037c-4.835,0-9.385-1.219-13.356-3.368c8.774-4.742,14.731-14.01,14.731-24.669
		c0-1.656-0.144-3.279-0.42-4.855C191.59,151.86,196.203,144.682,197.191,136.392"/>
	<path clip-path="url(#SVGID_12_)" fill="#B2B2B2" d="M197.39,133.04c0,1.135-0.066,2.253-0.199,3.352
		c-3.926-2.085-8.407-3.266-13.166-3.266c-4.835,0-9.385,1.219-13.356,3.368c-3.972-2.148-8.52-3.368-13.354-3.368
		c-5.805,0-11.199,1.757-15.677,4.771c-0.277-1.577-0.42-3.2-0.42-4.857c0-15.483,12.575-28.035,28.087-28.035
		C184.815,105.004,197.39,117.557,197.39,133.04"/>
	<path clip-path="url(#SVGID_12_)" fill="#FFFFFF" d="M197.191,136.392c-0.988,8.29-5.602,15.468-12.211,19.914
		c-1.5-8.573-6.899-15.807-14.311-19.812c3.972-2.148,8.521-3.368,13.356-3.368C188.784,133.126,193.266,134.306,197.191,136.392"/>
	<path clip-path="url(#SVGID_12_)" fill="#FFFFFF" d="M184.98,156.306c0.277,1.577,0.42,3.199,0.42,4.855
		c0,10.659-5.957,19.927-14.731,24.669c-8.772-4.742-14.73-14.01-14.73-24.669c0-1.133,0.067-2.251,0.199-3.35
		c3.928,2.084,8.409,3.266,13.167,3.266C175.11,161.077,180.503,159.318,184.98,156.306"/>
	<path clip-path="url(#SVGID_12_)" fill="#FFFFFF" d="M170.669,136.494c7.411,4.005,12.811,11.239,14.311,19.812
		c-4.477,3.012-9.87,4.771-15.675,4.771c-4.758,0-9.24-1.182-13.167-3.266C157.238,148.583,162.831,140.73,170.669,136.494"/>
	<path clip-path="url(#SVGID_12_)" fill="#B2B2B2" d="M170.669,136.494c-7.839,4.236-13.431,12.089-14.532,21.317
		c-7.507-3.984-12.987-11.268-14.5-19.914c4.478-3.014,9.872-4.771,15.677-4.771C162.15,133.126,166.698,134.345,170.669,136.494"/>
	<path clip-path="url(#SVGID_12_)" fill="#B2B2B2" d="M155.939,161.161c0,10.659,5.958,19.927,14.73,24.669
		c-3.972,2.149-8.52,3.368-13.354,3.368c-15.512,0-28.087-12.552-28.087-28.037c0-9.688,4.924-18.23,12.41-23.265
		c1.513,8.646,6.992,15.93,14.5,19.915C156.006,158.91,155.939,160.028,155.939,161.161"/>
	<path clip-path="url(#SVGID_12_)" fill="none" stroke="#000000" stroke-width="1.627" d="M141.638,137.896
		c-0.277-1.577-0.42-3.201-0.42-4.857c0-15.483,12.575-28.035,28.087-28.035c15.51,0,28.085,12.552,28.085,28.035
		c0,1.135-0.066,2.253-0.199,3.352c-0.988,8.29-5.602,15.468-12.211,19.914c-4.477,3.012-9.87,4.771-15.675,4.771
		c-4.758,0-9.24-1.182-13.167-3.266C148.63,153.827,143.151,146.543,141.638,137.896z"/>
	<path clip-path="url(#SVGID_12_)" fill="none" stroke="#000000" stroke-width="1.627" d="M184.98,156.306
		c0.277,1.577,0.42,3.199,0.42,4.855c0,10.659-5.957,19.927-14.731,24.669c-3.972,2.149-8.52,3.368-13.354,3.368
		c-15.512,0-28.087-12.552-28.087-28.037c0-9.688,4.924-18.23,12.41-23.265c4.478-3.014,9.872-4.771,15.677-4.771
		c4.835,0,9.383,1.219,13.354,3.368C178.081,140.499,183.48,147.733,184.98,156.306z"/>
	<path clip-path="url(#SVGID_12_)" fill="none" stroke="#000000" stroke-width="1.627" d="M197.191,136.392
		c8.877,4.71,14.92,14.036,14.92,24.77c0,15.485-12.575,28.037-28.085,28.037c-4.835,0-9.385-1.219-13.356-3.368
		c-8.772-4.742-14.73-14.01-14.73-24.669c0-1.133,0.067-2.251,0.199-3.35c1.101-9.228,6.693-17.081,14.532-21.317
		c3.972-2.148,8.521-3.368,13.356-3.368C188.784,133.126,193.266,134.306,197.191,136.392z"/>
</g>
<g>
	<defs>
		<rect id="SVGID_13_" x="249.138" y="102.632" width="90.72" height="90.59"/>
	</defs>
	<clipPath id="SVGID_14_">
		<use xlink:href="#SVGID_13_"  overflow="visible"/>
	</clipPath>
	<path clip-path="url(#SVGID_14_)" fill="#FFFFFF" d="M339.89,193.221h-90.752v-90.59h90.752V193.221z M336.68,161.161
		c0-10.733-6.043-20.059-14.92-24.77c0.132-1.099,0.199-2.217,0.199-3.352c0-15.483-12.575-28.035-28.085-28.035
		c-15.513,0-28.087,12.552-28.087,28.035c0,1.656,0.143,3.28,0.42,4.857c-7.486,5.035-12.41,13.577-12.41,23.265
		c0,15.485,12.575,28.037,28.087,28.037c4.835,0,9.383-1.219,13.354-3.368c3.972,2.149,8.521,3.368,13.356,3.368
		C324.105,189.198,336.68,176.646,336.68,161.161"/>
	<path clip-path="url(#SVGID_14_)" fill="#B2B2B2" d="M321.761,136.392c8.876,4.71,14.919,14.036,14.919,24.77
		c0,15.485-12.575,28.037-28.085,28.037c-4.835,0-9.385-1.219-13.356-3.368c8.774-4.742,14.731-14.01,14.731-24.669
		c0-1.656-0.144-3.279-0.42-4.855C316.159,151.86,320.772,144.682,321.761,136.392"/>
	<path clip-path="url(#SVGID_14_)" fill="#FFFFFF" d="M321.959,133.04c0,1.135-0.066,2.253-0.199,3.352
		c-3.926-2.085-8.407-3.266-13.166-3.266c-4.835,0-9.385,1.219-13.356,3.368c-3.972-2.148-8.52-3.368-13.354-3.368
		c-5.805,0-11.199,1.757-15.677,4.771c-0.277-1.577-0.42-3.2-0.42-4.857c0-15.483,12.575-28.035,28.087-28.035
		C309.384,105.004,321.959,117.557,321.959,133.04"/>
	<path clip-path="url(#SVGID_14_)" fill="#FFFFFF" d="M321.761,136.392c-0.989,8.29-5.602,15.468-12.212,19.914
		c-1.5-8.573-6.899-15.807-14.311-19.812c3.972-2.148,8.521-3.368,13.356-3.368C313.353,133.126,317.834,134.306,321.761,136.392"/>
	<path clip-path="url(#SVGID_14_)" fill="#FFFFFF" d="M309.549,156.306c0.277,1.577,0.42,3.199,0.42,4.855
		c0,10.659-5.957,19.927-14.731,24.669c-8.772-4.742-14.73-14.01-14.73-24.669c0-1.133,0.067-2.251,0.199-3.35
		c3.928,2.084,8.409,3.266,13.167,3.266C299.679,161.077,305.072,159.318,309.549,156.306"/>
	<path clip-path="url(#SVGID_14_)" fill="#FFFFFF" d="M295.238,136.494c7.411,4.005,12.811,11.239,14.311,19.812
		c-4.477,3.012-9.87,4.771-15.675,4.771c-4.758,0-9.24-1.182-13.167-3.266C281.807,148.583,287.399,140.73,295.238,136.494"/>
	<path clip-path="url(#SVGID_14_)" fill="#FFFFFF" d="M295.238,136.494c-7.839,4.236-13.431,12.089-14.532,21.317
		c-7.507-3.984-12.987-11.268-14.5-19.914c4.478-3.014,9.872-4.771,15.677-4.771C286.719,133.126,291.267,134.345,295.238,136.494"
		/>
	<path clip-path="url(#SVGID_14_)" fill="#FFFFFF" d="M280.508,161.161c0,10.659,5.958,19.927,14.73,24.669
		c-3.972,2.149-8.52,3.368-13.354,3.368c-15.512,0-28.087-12.552-28.087-28.037c0-9.688,4.924-18.23,12.41-23.265
		c1.513,8.646,6.992,15.93,14.5,19.915C280.575,158.91,280.508,160.028,280.508,161.161"/>
	<path clip-path="url(#SVGID_14_)" fill="none" stroke="#000000" stroke-width="1.627" d="M266.207,137.896
		c-0.277-1.577-0.42-3.201-0.42-4.857c0-15.483,12.574-28.035,28.087-28.035c15.51,0,28.085,12.552,28.085,28.035
		c0,1.135-0.066,2.253-0.199,3.352c-0.988,8.29-5.602,15.468-12.211,19.914c-4.477,3.012-9.87,4.771-15.675,4.771
		c-4.758,0-9.24-1.182-13.167-3.266C273.199,153.827,267.72,146.543,266.207,137.896z"/>
	<path clip-path="url(#SVGID_14_)" fill="none" stroke="#000000" stroke-width="1.627" d="M309.549,156.306
		c0.277,1.577,0.42,3.199,0.42,4.855c0,10.659-5.957,19.927-14.731,24.669c-3.972,2.149-8.52,3.368-13.354,3.368
		c-15.512,0-28.087-12.552-28.087-28.037c0-9.688,4.924-18.23,12.41-23.265c4.478-3.014,9.872-4.771,15.677-4.771
		c4.835,0,9.383,1.219,13.354,3.368C302.649,140.499,308.049,147.733,309.549,156.306z"/>
	<path clip-path="url(#SVGID_14_)" fill="none" stroke="#000000" stroke-width="1.627" d="M321.761,136.392
		c8.876,4.71,14.919,14.036,14.919,24.77c0,15.485-12.575,28.037-28.085,28.037c-4.835,0-9.385-1.219-13.356-3.368
		c-8.772-4.742-14.73-14.01-14.73-24.669c0-1.133,0.067-2.251,0.199-3.35c1.101-9.228,6.693-17.081,14.532-21.317
		c3.972-2.148,8.521-3.368,13.356-3.368C313.353,133.126,317.834,134.306,321.761,136.392z"/>
</g>
<g>
	<defs>
		<rect id="SVGID_15_" x="373.707" y="102.632" width="90.719" height="90.59"/>
	</defs>
	<clipPath id="SVGID_16_">
		<use xlink:href="#SVGID_15_"  overflow="visible"/>
	</clipPath>
	<path clip-path="url(#SVGID_16_)" fill="#FFFFFF" d="M464.459,193.221h-90.752v-90.59h90.752V193.221z M461.249,161.161
		c0-10.733-6.043-20.059-14.92-24.77c0.132-1.099,0.199-2.217,0.199-3.352c0-15.483-12.575-28.035-28.086-28.035
		c-15.512,0-28.087,12.552-28.087,28.035c0,1.656,0.144,3.28,0.421,4.857c-7.486,5.035-12.411,13.577-12.411,23.265
		c0,15.485,12.575,28.037,28.088,28.037c4.834,0,9.383-1.219,13.354-3.368c3.972,2.149,8.521,3.368,13.356,3.368
		C448.674,189.198,461.249,176.646,461.249,161.161"/>
	<path clip-path="url(#SVGID_16_)" fill="#FFFFFF" d="M446.329,136.392c8.877,4.71,14.92,14.036,14.92,24.77
		c0,15.485-12.575,28.037-28.085,28.037c-4.835,0-9.385-1.219-13.356-3.368c8.773-4.742,14.73-14.01,14.73-24.669
		c0-1.656-0.144-3.279-0.42-4.855C440.728,151.86,445.341,144.682,446.329,136.392"/>
	<path clip-path="url(#SVGID_16_)" fill="#FFFFFF" d="M446.528,133.04c0,1.135-0.067,2.253-0.199,3.352
		c-3.926-2.085-8.407-3.266-13.166-3.266c-4.834,0-9.384,1.219-13.355,3.368c-3.972-2.148-8.521-3.368-13.355-3.368
		c-5.805,0-11.198,1.757-15.677,4.771c-0.276-1.577-0.42-3.2-0.42-4.857c0-15.483,12.575-28.035,28.087-28.035
		C433.953,105.004,446.528,117.557,446.528,133.04"/>
	<path clip-path="url(#SVGID_16_)" fill="#B2B2B2" d="M446.329,136.392c-0.988,8.29-5.602,15.468-12.211,19.914
		c-1.5-8.573-6.9-15.807-14.311-19.812c3.972-2.148,8.521-3.368,13.356-3.368C437.922,133.126,442.403,134.306,446.329,136.392"/>
	<path clip-path="url(#SVGID_16_)" fill="#B2B2B2" d="M434.118,156.306c0.276,1.577,0.42,3.199,0.42,4.855
		c0,10.659-5.957,19.927-14.73,24.669c-8.772-4.742-14.731-14.01-14.731-24.669c0-1.133,0.067-2.251,0.199-3.35
		c3.928,2.084,8.409,3.266,13.167,3.266C424.248,161.077,429.642,159.318,434.118,156.306"/>
	<path clip-path="url(#SVGID_16_)" fill="#B2B2B2" d="M419.808,136.494c7.41,4.005,12.811,11.239,14.311,19.812
		c-4.477,3.012-9.87,4.771-15.676,4.771c-4.758,0-9.239-1.182-13.167-3.266C406.376,148.583,411.968,140.73,419.808,136.494"/>
	<path clip-path="url(#SVGID_16_)" fill="#B2B2B2" d="M419.808,136.494c-7.84,4.236-13.432,12.089-14.532,21.317
		c-7.507-3.984-12.986-11.268-14.5-19.914c4.479-3.014,9.872-4.771,15.677-4.771C411.287,133.126,415.836,134.345,419.808,136.494"
		/>
	<path clip-path="url(#SVGID_16_)" fill="#B2B2B2" d="M405.077,161.161c0,10.659,5.958,19.927,14.73,24.669
		c-3.972,2.149-8.521,3.368-13.354,3.368c-15.513,0-28.088-12.552-28.088-28.037c0-9.688,4.925-18.23,12.411-23.265
		c1.513,8.646,6.992,15.93,14.499,19.915C405.144,158.91,405.077,160.028,405.077,161.161"/>
	<path clip-path="url(#SVGID_16_)" fill="none" stroke="#000000" stroke-width="1.627" d="M390.776,137.896
		c-0.277-1.577-0.421-3.201-0.421-4.857c0-15.483,12.575-28.035,28.087-28.035c15.511,0,28.086,12.552,28.086,28.035
		c0,1.135-0.067,2.253-0.199,3.352c-0.988,8.29-5.602,15.468-12.211,19.914c-4.477,3.012-9.87,4.771-15.676,4.771
		c-4.758,0-9.239-1.182-13.167-3.266C397.769,153.827,392.289,146.543,390.776,137.896z"/>
	<path clip-path="url(#SVGID_16_)" fill="none" stroke="#000000" stroke-width="1.627" d="M434.118,156.306
		c0.276,1.577,0.42,3.199,0.42,4.855c0,10.659-5.957,19.927-14.73,24.669c-3.972,2.149-8.521,3.368-13.354,3.368
		c-15.513,0-28.087-12.552-28.087-28.037c0-9.688,4.924-18.23,12.41-23.265c4.478-3.014,9.871-4.771,15.677-4.771
		c4.834,0,9.383,1.219,13.354,3.368C427.218,140.499,432.618,147.733,434.118,156.306z"/>
	<path clip-path="url(#SVGID_16_)" fill="none" stroke="#000000" stroke-width="1.627" d="M446.329,136.392
		c8.877,4.71,14.92,14.036,14.92,24.77c0,15.485-12.575,28.037-28.085,28.037c-4.835,0-9.385-1.219-13.356-3.368
		c-8.772-4.742-14.73-14.01-14.73-24.669c0-1.133,0.066-2.251,0.198-3.35c1.101-9.228,6.692-17.081,14.532-21.317
		c3.972-2.148,8.521-3.368,13.356-3.368C437.922,133.126,442.403,134.306,446.329,136.392z"/>
</g>
<text transform="matrix(1 0 0 1 18.9556 200.2534)" fill="#231F20" font-family="'CourierNewPSMT'" font-size="8">A Or B Or C</text>
<text transform="matrix(1 0 0 1 126.7236 200.2534)" fill="#231F20" font-family="'CourierNewPSMT'" font-size="8">(A Or B) And Not C </text>
<text transform="matrix(1 0 0 1 244.0913 200.2534)" fill="#231F20" font-family="'CourierNewPSMT'" font-size="8">C And Not A And Not B</text>
<text transform="matrix(1 0 0 1 385.459 200.2534)" fill="#231F20" font-family="'CourierNewPSMT'" font-size="8">B Or (C And A)</text>
</svg>
