<?xml version="1.0" encoding="utf-8"?>
<!-- Generator: Adobe Illustrator 14.0.0, SVG Export Plug-In . SVG Version: 6.00 Build 43363)  -->
<!DOCTYPE svg PUBLIC "-//W3C//DTD SVG 1.0//EN" "http://www.w3.org/TR/2001/REC-SVG-20010904/DTD/svg10.dtd">
<svg version="1.0" id="Layer_1" xmlns="http://www.w3.org/2000/svg" xmlns:xlink="http://www.w3.org/1999/xlink" x="0px" y="0px"
	 width="462.826px" height="127.441px" viewBox="0 0 462.826 127.441" enable-background="new 0 0 462.826 127.441"
	 xml:space="preserve">
<g>
	<defs>
		<rect id="SVGID_1_" width="462.826" height="127.441"/>
	</defs>
	<clipPath id="SVGID_2_">
		<use xlink:href="#SVGID_1_"  overflow="visible"/>
	</clipPath>
	<path clip-path="url(#SVGID_2_)" fill="#D0D2D3" d="M9.75,1.75c0,0-8,0-8,8v107.941c0,0,0,8,8,8h438.375c0,0,8,0,8-8V9.75
		c0,0,0-8-8-8H9.75z"/>
	<path clip-path="url(#SVGID_2_)" fill="#FFFFFF" d="M107.565,101.641h348.281v14.128H107.565V101.641z M40.922,101.641h66.642
		v14.128H40.922V101.641z M2.03,101.641h38.892v14.128H2.03V101.641z M107.565,87.513h348.281v14.128H107.565V87.513z
		 M40.922,87.513h66.642v14.128H40.922V87.513z M2.03,87.513h38.892v14.128H2.03V87.513z M107.565,73.385h348.281v14.128H107.565
		V73.385z M40.922,73.385h66.642v14.128H40.922V73.385z M2.03,73.385h38.892v14.128H2.03V73.385z M107.565,59.257h348.281v14.128
		H107.565V59.257z M40.922,59.257h66.642v14.128H40.922V59.257z M2.03,59.257h38.892v14.128H2.03V59.257z M107.565,45.128h348.281
		v14.129H107.565V45.128z M40.922,45.128h66.642v14.129H40.922V45.128z M2.03,45.128h38.892v14.129H2.03V45.128z M107.565,31.001
		h348.281V45.13H107.565V31.001z M40.922,31.001h66.642V45.13H40.922V31.001z M2.03,31.001h38.892V45.13H2.03V31.001z
		 M107.565,16.873h348.281v14.128H107.565V16.873z M40.922,16.873h66.642v14.128H40.922V16.873z M2.03,16.873h38.892v14.128H2.03
		V16.873z"/>
	
		<line clip-path="url(#SVGID_2_)" fill="none" stroke="#231F20" stroke-miterlimit="10" x1="2.03" y1="16.873" x2="40.922" y2="16.873"/>
	
		<line clip-path="url(#SVGID_2_)" fill="none" stroke="#231F20" stroke-miterlimit="10" x1="40.922" y1="16.873" x2="107.564" y2="16.873"/>
	
		<line clip-path="url(#SVGID_2_)" fill="none" stroke="#231F20" stroke-miterlimit="10" x1="107.564" y1="16.873" x2="455.846" y2="16.873"/>
	
		<line clip-path="url(#SVGID_2_)" fill="none" stroke="#231F20" stroke-width="0.25" stroke-miterlimit="10" x1="2.03" y1="31.001" x2="40.922" y2="31.001"/>
	
		<line clip-path="url(#SVGID_2_)" fill="none" stroke="#231F20" stroke-width="0.25" stroke-miterlimit="10" x1="40.922" y1="31.001" x2="107.564" y2="31.001"/>
	
		<line clip-path="url(#SVGID_2_)" fill="none" stroke="#231F20" stroke-width="0.25" stroke-miterlimit="10" x1="107.564" y1="31.001" x2="455.846" y2="31.001"/>
	
		<line clip-path="url(#SVGID_2_)" fill="none" stroke="#231F20" stroke-width="0.25" stroke-miterlimit="10" x1="2.03" y1="45.129" x2="40.922" y2="45.129"/>
	
		<line clip-path="url(#SVGID_2_)" fill="none" stroke="#231F20" stroke-width="0.25" stroke-miterlimit="10" x1="40.922" y1="45.129" x2="107.564" y2="45.129"/>
	
		<line clip-path="url(#SVGID_2_)" fill="none" stroke="#231F20" stroke-width="0.25" stroke-miterlimit="10" x1="107.564" y1="45.129" x2="455.846" y2="45.129"/>
	
		<line clip-path="url(#SVGID_2_)" fill="none" stroke="#231F20" stroke-width="0.25" stroke-miterlimit="10" x1="2.03" y1="59.257" x2="40.922" y2="59.257"/>
	
		<line clip-path="url(#SVGID_2_)" fill="none" stroke="#231F20" stroke-width="0.25" stroke-miterlimit="10" x1="40.922" y1="59.257" x2="107.564" y2="59.257"/>
	
		<line clip-path="url(#SVGID_2_)" fill="none" stroke="#231F20" stroke-width="0.25" stroke-miterlimit="10" x1="107.564" y1="59.257" x2="455.846" y2="59.257"/>
	
		<line clip-path="url(#SVGID_2_)" fill="none" stroke="#231F20" stroke-width="0.25" stroke-miterlimit="10" x1="2.03" y1="73.385" x2="40.922" y2="73.385"/>
	
		<line clip-path="url(#SVGID_2_)" fill="none" stroke="#231F20" stroke-width="0.25" stroke-miterlimit="10" x1="40.922" y1="73.385" x2="107.564" y2="73.385"/>
	
		<line clip-path="url(#SVGID_2_)" fill="none" stroke="#231F20" stroke-width="0.25" stroke-miterlimit="10" x1="107.564" y1="73.385" x2="455.846" y2="73.385"/>
	
		<line clip-path="url(#SVGID_2_)" fill="none" stroke="#231F20" stroke-width="0.25" stroke-miterlimit="10" x1="2.03" y1="87.513" x2="40.922" y2="87.513"/>
	
		<line clip-path="url(#SVGID_2_)" fill="none" stroke="#231F20" stroke-width="0.25" stroke-miterlimit="10" x1="40.922" y1="87.513" x2="107.564" y2="87.513"/>
	
		<line clip-path="url(#SVGID_2_)" fill="none" stroke="#231F20" stroke-width="0.25" stroke-miterlimit="10" x1="107.564" y1="87.513" x2="455.846" y2="87.513"/>
	
		<line clip-path="url(#SVGID_2_)" fill="none" stroke="#231F20" stroke-width="0.25" stroke-miterlimit="10" x1="2.03" y1="101.641" x2="40.922" y2="101.641"/>
	
		<line clip-path="url(#SVGID_2_)" fill="none" stroke="#231F20" stroke-width="0.25" stroke-miterlimit="10" x1="40.922" y1="101.641" x2="107.564" y2="101.641"/>
	
		<line clip-path="url(#SVGID_2_)" fill="none" stroke="#231F20" stroke-width="0.25" stroke-miterlimit="10" x1="107.564" y1="101.641" x2="455.846" y2="101.641"/>
	
		<line clip-path="url(#SVGID_2_)" fill="none" stroke="#231F20" stroke-width="0.25" stroke-miterlimit="10" x1="2.03" y1="115.769" x2="40.922" y2="115.769"/>
	
		<line clip-path="url(#SVGID_2_)" fill="none" stroke="#231F20" stroke-width="0.25" stroke-miterlimit="10" x1="40.922" y1="115.769" x2="107.564" y2="115.769"/>
	
		<line clip-path="url(#SVGID_2_)" fill="none" stroke="#231F20" stroke-width="0.25" stroke-miterlimit="10" x1="107.564" y1="115.769" x2="455.846" y2="115.769"/>
</g>
<text transform="matrix(1 0 0 1 10.0298 12.873)" fill="#231F20" font-family="'TrebuchetMS-Italic'" font-size="10">Index</text>
<text transform="matrix(1 0 0 1 44.9199 12.873)"><tspan x="0" y="0" fill="#231F20" font-family="'TrebuchetMS-Italic'" font-size="10">T</tspan><tspan x="4.855" y="0" fill="#231F20" font-family="'TrebuchetMS-Italic'" font-size="10">ype</tspan></text>
<text transform="matrix(1 0 0 1 111.5596 12.873)" fill="#231F20" font-family="'TrebuchetMS-Italic'" font-size="10">Description</text>
<text transform="matrix(1 0 0 1.1111 6.0298 27.001)" fill="#231F20" font-family="'CourierNewPS-ItalicMT'" font-size="9">0</text>
<text transform="matrix(1 0 0 1.1111 44.9189 27.001)" fill="#231F20" font-family="'CourierNewPS-ItalicMT'" font-size="9">Integer</text>
<text transform="matrix(1 0 0 1.1111 111.5635 27.001)" fill="#231F20" font-family="'CourierNewPS-ItalicMT'" font-size="9">Minimum number of twigs per branch</text>
<text transform="matrix(1 0 0 1.1111 6.0298 41.1309)" fill="#231F20" font-family="'CourierNewPS-ItalicMT'" font-size="9">1</text>
<text transform="matrix(1 0 0 1.1111 44.9189 41.1309)" fill="#231F20" font-family="'CourierNewPS-ItalicMT'" font-size="9">Integer</text>
<text transform="matrix(1 0 0 1.1111 111.5635 41.1309)" fill="#231F20" font-family="'CourierNewPS-ItalicMT'" font-size="9">Maximum number of twigs per branch</text>
<text transform="matrix(1 0 0 1.1111 6.0298 55.2607)" fill="#231F20" font-family="'CourierNewPS-ItalicMT'" font-size="9">2</text>
<text transform="matrix(1 0 0 1.1111 44.9189 55.2607)" fill="#231F20" font-family="'CourierNewPS-ItalicMT'" font-size="9">Integer</text>
<text transform="matrix(1 0 0 1.1111 111.5635 55.2607)" fill="#231F20" font-family="'CourierNewPS-ItalicMT'" font-size="9">Maximum number of allowed generations</text>
<text transform="matrix(1 0 0 1.1111 6.0298 69.3906)" fill="#231F20" font-family="'CourierNewPS-ItalicMT'" font-size="9">3</text>
<text transform="matrix(1 0 0 1.1111 44.9189 69.3906)" fill="#231F20" font-family="'CourierNewPS-ItalicMT'" font-size="9">Double</text>
<text transform="matrix(1 0 0 1.1111 111.564 69.3906)" fill="#231F20" font-family="'CourierNewPS-ItalicMT'" font-size="9">Maximum twig length</text>
<text transform="matrix(1 0 0 1.1111 6.0298 83.5215)" fill="#231F20" font-family="'CourierNewPS-ItalicMT'" font-size="9">4</text>
<text transform="matrix(1 0 0 1.1111 44.9189 83.5215)" fill="#231F20" font-family="'CourierNewPS-ItalicMT'" font-size="9">Double</text>
<text transform="matrix(1 0 0 1.1111 111.564 83.5215)" fill="#231F20" font-family="'CourierNewPS-ItalicMT'" font-size="9">Twig length mutation per generation</text>
<text transform="matrix(1 0 0 1.1111 6.0298 97.6514)" fill="#231F20" font-family="'CourierNewPS-ItalicMT'" font-size="9">5</text>
<text transform="matrix(1 0 0 1.1111 44.9189 97.6514)" fill="#231F20" font-family="'CourierNewPS-ItalicMT'" font-size="9">Double</text>
<text transform="matrix(1 0 0 1.1111 111.564 97.6514)" fill="#231F20" font-family="'CourierNewPS-ItalicMT'" font-size="9">Maximum twig angle</text>
<text transform="matrix(1 0 0 1.1111 6.0298 111.7813)" fill="#231F20" font-family="'CourierNewPS-ItalicMT'" font-size="9">6</text>
<text transform="matrix(1 0 0 1.1111 44.9189 111.7813)" fill="#231F20" font-family="'CourierNewPS-ItalicMT'" font-size="9">Double</text>
<text transform="matrix(1 0 0 1.1111 111.564 111.7813)" fill="#231F20" font-family="'CourierNewPS-ItalicMT'" font-size="9">Twig angle mutation per generation</text>
<g>
	<defs>
		<rect id="SVGID_3_" width="462.826" height="127.441"/>
	</defs>
	<clipPath id="SVGID_4_">
		<use xlink:href="#SVGID_3_"  overflow="visible"/>
	</clipPath>
	<path clip-path="url(#SVGID_4_)" fill="none" stroke="#231F20" stroke-width="1.5" d="M9.75,1.75c0,0-8,0-8,8v107.941c0,0,0,8,8,8
		h438.375c0,0,8,0,8-8V9.75c0,0,0-8-8-8H9.75z"/>
</g>
</svg>
