<?xml version="1.0" encoding="utf-8"?>
<!-- Generator: Adobe Illustrator 14.0.0, SVG Export Plug-In . SVG Version: 6.00 Build 43363)  -->
<!DOCTYPE svg PUBLIC "-//W3C//DTD SVG 1.1//EN" "http://www.w3.org/Graphics/SVG/1.1/DTD/svg11.dtd">
<svg version="1.1" xmlns="http://www.w3.org/2000/svg" xmlns:xlink="http://www.w3.org/1999/xlink" x="0px" y="0px"
	 width="521.28px" height="417.41px" viewBox="0 0 521.28 417.41" enable-background="new 0 0 521.28 417.41" xml:space="preserve">
<g id="Viewport_x5F_Backbuffer">
</g>
<g id="Viewport_x5F_BG">
	<g>
		
			<line fill-rule="evenodd" clip-rule="evenodd" fill="none" stroke="#D4D4D4" stroke-linecap="round" stroke-linejoin="round" x1="65.88" y1="164.03" x2="520.28" y2="283.79"/>
		
			<line fill-rule="evenodd" clip-rule="evenodd" fill="none" stroke="#D4D4D4" stroke-linecap="round" stroke-linejoin="round" x1="397.56" y1="416.41" x2="520.28" y2="187.69"/>
		
			<line fill-rule="evenodd" clip-rule="evenodd" fill="none" stroke="#D4D4D4" stroke-linecap="round" stroke-linejoin="round" x1="163.75" y1="95.23" x2="520.28" y2="173.12"/>
		
			<line fill-rule="evenodd" clip-rule="evenodd" fill="none" stroke="#D4D4D4" stroke-linecap="round" stroke-linejoin="round" x1="152.94" y1="102.83" x2="520.28" y2="184.84"/>
		
			<line fill-rule="evenodd" clip-rule="evenodd" fill="none" stroke="#D4D4D4" stroke-linecap="round" stroke-linejoin="round" x1="141.76" y1="110.69" x2="520.28" y2="197.08"/>
		
			<line fill-rule="evenodd" clip-rule="evenodd" fill="none" stroke="#D4D4D4" stroke-linecap="round" stroke-linejoin="round" x1="130.2" y1="118.82" x2="520.28" y2="209.88"/>
		
			<line fill-rule="evenodd" clip-rule="evenodd" fill="none" stroke="#D4D4D4" stroke-linecap="round" stroke-linejoin="round" x1="435.93" y1="416.41" x2="520.28" y2="243.34"/>
		
			<line fill-rule="evenodd" clip-rule="evenodd" fill="none" stroke="#D4D4D4" stroke-linecap="round" stroke-linejoin="round" x1="105.84" y1="135.94" x2="520.28" y2="237.32"/>
		
			<line fill-rule="evenodd" clip-rule="evenodd" fill="none" stroke="#D4D4D4" stroke-linecap="round" stroke-linejoin="round" x1="93" y1="144.96" x2="520.28" y2="252.051"/>
		
			<line fill-rule="evenodd" clip-rule="evenodd" fill="none" stroke="#D4D4D4" stroke-linecap="round" stroke-linejoin="round" x1="79.69" y1="154.32" x2="520.28" y2="267.521"/>
		
			<line fill-rule="evenodd" clip-rule="evenodd" fill="none" stroke="#D4D4D4" stroke-linecap="round" stroke-linejoin="round" x1="205.69" y1="416.41" x2="421.44" y2="140.75"/>
		
			<line fill-rule="evenodd" clip-rule="evenodd" fill="none" stroke="#D4D4D4" stroke-linecap="round" stroke-linejoin="round" x1="1" y1="279.56" x2="413.081" y2="416.41"/>
		
			<line fill-rule="evenodd" clip-rule="evenodd" fill="none" stroke="#D4D4D4" stroke-linecap="round" stroke-linejoin="round" x1="1" y1="301.16" x2="336.78" y2="416.41"/>
		
			<line fill-rule="evenodd" clip-rule="evenodd" fill="none" stroke="#D4D4D4" stroke-linecap="round" stroke-linejoin="round" x1="359.19" y1="416.41" x2="509.61" y2="159.61"/>
		
			<line fill-rule="evenodd" clip-rule="evenodd" fill="none" stroke="#D4D4D4" stroke-linecap="round" stroke-linejoin="round" x1="320.81" y1="416.41" x2="486.959" y2="154.77"/>
		
			<line fill-rule="evenodd" clip-rule="evenodd" fill="none" stroke="#D4D4D4" stroke-linecap="round" stroke-linejoin="round" x1="1" y1="324.25" x2="260.48" y2="416.41"/>
		
			<line fill-rule="evenodd" clip-rule="evenodd" fill="none" stroke="#D4D4D4" stroke-linecap="round" stroke-linejoin="round" x1="244.07" y1="416.41" x2="442.879" y2="145.34"/>
		
			<line fill-rule="evenodd" clip-rule="evenodd" fill="none" stroke="#D4D4D4" stroke-linecap="round" stroke-linejoin="round" x1="1" y1="222.46" x2="493.93" y2="371.62"/>
		
			<line fill-rule="evenodd" clip-rule="evenodd" fill="none" stroke="#D4D4D4" stroke-linecap="round" stroke-linejoin="round" x1="1" y1="301.65" x2="244.58" y2="102.92"/>
		
			<line fill-rule="evenodd" clip-rule="evenodd" fill="none" stroke="#D4D4D4" stroke-linecap="round" stroke-linejoin="round" x1="1" y1="275.98" x2="226.55" y2="99.07"/>
		
			<line fill-rule="evenodd" clip-rule="evenodd" fill="none" stroke="#D4D4D4" stroke-linecap="round" stroke-linejoin="round" x1="1" y1="252.221" x2="208.82" y2="95.27"/>
		
			<line fill-rule="evenodd" clip-rule="evenodd" fill="none" stroke="#D4D4D4" stroke-linecap="round" stroke-linejoin="round" x1="1" y1="259.33" x2="476.169" y2="412.171"/>
		
			<line fill-rule="evenodd" clip-rule="evenodd" fill="none" stroke="#D4D4D4" stroke-linecap="round" stroke-linejoin="round" x1="1" y1="230.16" x2="191.38" y2="91.54"/>
		
			<line fill-rule="evenodd" clip-rule="evenodd" fill="none" stroke="#D4D4D4" stroke-linecap="round" stroke-linejoin="round" x1="60.61" y1="370.94" x2="319.79" y2="119.01"/>
		
			<line fill-rule="evenodd" clip-rule="evenodd" fill="none" stroke="#D4D4D4" stroke-linecap="round" stroke-linejoin="round" x1="34.74" y1="361.421" x2="300.51" y2="114.88"/>
		
			<line fill-rule="evenodd" clip-rule="evenodd" fill="none" stroke="#D4D4D4" stroke-linecap="round" stroke-linejoin="round" x1="9.53" y1="352.15" x2="281.55" y2="110.83"/>
		
			<line fill-rule="evenodd" clip-rule="evenodd" fill="none" stroke="#D4D4D4" stroke-linecap="round" stroke-linejoin="round" x1="87.17" y1="380.721" x2="339.419" y2="123.21"/>
		
			<line fill-rule="evenodd" clip-rule="evenodd" fill="none" stroke="#D4D4D4" stroke-linecap="round" stroke-linejoin="round" x1="142.47" y1="401.07" x2="379.7" y2="131.83"/>
		
			<line fill-rule="evenodd" clip-rule="evenodd" fill="none" stroke="#D4D4D4" stroke-linecap="round" stroke-linejoin="round" x1="171.27" y1="411.66" x2="400.39" y2="136.25"/>
		
			<line fill-rule="evenodd" clip-rule="evenodd" fill="none" stroke="#D4D4D4" stroke-linecap="round" stroke-linejoin="round" x1="21.15" y1="195.47" x2="509.93" y2="335.101"/>
		
			<line fill-rule="evenodd" clip-rule="evenodd" fill="none" stroke="#D4D4D4" stroke-linecap="round" stroke-linejoin="round" x1="5.03" y1="206.8" x2="502.129" y2="352.891"/>
		
			<line fill-rule="evenodd" clip-rule="evenodd" fill="none" stroke="#D4D4D4" stroke-linecap="round" stroke-linejoin="round" x1="36.64" y1="184.58" x2="517.35" y2="318.171"/>
	</g>
	<g>
		
			<line fill-rule="evenodd" clip-rule="evenodd" fill="none" stroke="#8A8A8A" stroke-linecap="round" stroke-linejoin="round" x1="174.22" y1="87.87" x2="520.28" y2="161.89"/>
		
			<line fill-rule="evenodd" clip-rule="evenodd" fill="none" stroke="#8A8A8A" stroke-linecap="round" stroke-linejoin="round" x1="118.23" y1="127.23" x2="520.28" y2="223.28"/>
		
			<line fill-rule="evenodd" clip-rule="evenodd" fill="none" stroke="#8A8A8A" stroke-linecap="round" stroke-linejoin="round" x1="474.31" y1="416.41" x2="520.28" y2="311.48"/>
		
			<line fill-rule="evenodd" clip-rule="evenodd" fill="none" stroke="#8A8A8A" stroke-linecap="round" stroke-linejoin="round" x1="282.44" y1="416.41" x2="464.72" y2="150.01"/>
		
			<line fill-rule="evenodd" clip-rule="evenodd" fill="none" stroke="#8A8A8A" stroke-linecap="round" stroke-linejoin="round" x1="1" y1="349.01" x2="184.18" y2="416.41"/>
		
			<line fill-rule="evenodd" clip-rule="evenodd" fill="none" stroke="#8A8A8A" stroke-linecap="round" stroke-linejoin="round" x1="1" y1="329.46" x2="262.911" y2="106.84"/>
		
			<line fill-rule="evenodd" clip-rule="evenodd" fill="none" stroke="#8A8A8A" stroke-linecap="round" stroke-linejoin="round" x1="1" y1="240.33" x2="485.29" y2="391.351"/>
		
			<line fill-rule="evenodd" clip-rule="evenodd" fill="none" stroke="#8A8A8A" stroke-linecap="round" stroke-linejoin="round" x1="1" y1="209.63" x2="174.22" y2="87.87"/>
		
			<line fill-rule="evenodd" clip-rule="evenodd" fill="none" stroke="#8A8A8A" stroke-linecap="round" stroke-linejoin="round" x1="262.82" y1="231.271" x2="51.54" y2="174.11"/>
		
			<line fill-rule="evenodd" clip-rule="evenodd" fill="none" stroke="#8A8A8A" stroke-linecap="round" stroke-linejoin="round" x1="262.82" y1="231.271" x2="114.45" y2="390.75"/>
	</g>
	
		<line fill-rule="evenodd" clip-rule="evenodd" fill="none" stroke="#12AB00" stroke-width="2" stroke-linecap="round" stroke-linejoin="round" x1="359.379" y1="127.48" x2="262.82" y2="231.271"/>
	
		<line fill-rule="evenodd" clip-rule="evenodd" fill="none" stroke="#A80000" stroke-width="2" stroke-linecap="round" stroke-linejoin="round" x1="520.28" y1="300.921" x2="262.82" y2="231.271"/>
</g>
<g id="Viewport_x5F_MG">
	<g>
		<path fill-rule="evenodd" clip-rule="evenodd" d="M43.84,254.06l-11.11-3.47L134.22,171c-5.63,1.88-12.08,3.58-19.35,5.1
			c-7.27,1.51-13.36,2.51-18.2,2.97l14.07-10.63c9.33-1.4,18.68-3.57,27.93-6.46c9.26-2.89,17-5.92,23.26-9.08l6.43,1.55
			L43.84,254.06z"/>
		<path fill-rule="evenodd" clip-rule="evenodd" d="M135.49,282.68l-64.06-20c4.18-3.62,8.67-6.87,13.45-9.789
			c7.86-4.831,16.37-9.181,25.56-13.101c9.18-3.92,20.62-8.1,34.13-12.489c20.98-6.83,35.77-12.36,45.11-16.761
			c9.32-4.39,16.37-8.87,21.27-13.41c5.14-4.76,7.78-9.06,8.1-12.95c0.32-3.89-1.99-6.39-6.86-7.59c-5.15-1.28-11.03-0.7-17.82,1.77
			c-6.78,2.47-13.58,6.57-20.56,12.56l-9.55-4.08c11.23-8.65,21.53-14.32,31.42-17.5c9.87-3.17,18.7-3.74,26.89-1.77
			c8.26,2.01,12.33,5.93,12.07,12.03c-0.29,6.11-4.29,12.98-12.5,20.77c-4.18,3.96-9.12,7.74-14.85,11.31
			c-5.73,3.58-12.79,7.161-21.25,10.75c-8.46,3.601-21.21,8.301-38.77,14.271c-14.62,4.94-24.59,8.471-29.46,10.44
			c-4.89,1.97-9.49,4.08-13.81,6.319l47.26,14.28L135.49,282.68z"/>
		<path fill-rule="evenodd" clip-rule="evenodd" d="M170.15,293.51l-14.41-4.5l18.23-17.989l14.15,4.25L170.15,293.51z
			 M239.22,223.38l-13.35-3.57l14.64-14.439l13.12,3.39L239.22,223.38z"/>
		<path fill-rule="evenodd" clip-rule="evenodd" d="M229.53,314.24c-2.93-0.23-5.74-0.76-8.41-1.61
			c-9.65-3.01-14.17-9.239-13.77-18.18c0.38-8.93,5.33-18.771,14.2-29.25l14.49,1.63c-6.5,9.03-9.99,16.32-10.08,21.46
			c-0.09,5.15,2.46,8.601,7.73,10.21c6.25,1.91,14.01,0.771,22.96-3.35c8.95-4.11,16.65-10.091,23-17.67
			c6.07-7.221,8.9-13.51,8.811-18.99c-0.091-5.48-3.081-8.931-8.88-10.52c-2.381-0.65-5.791-0.931-10.25-0.841l12.39-11.909
			c0.729,0.319,1.35,0.55,1.85,0.689c5.25,1.399,11.391,1.141,18.25-0.79c6.87-1.92,12.97-6.069,18.15-12.18
			c4.1-4.83,5.88-9.11,5.5-12.89c-0.39-3.781-2.92-6.201-7.57-7.36c-4.61-1.14-9.739-0.59-15.54,1.66
			c-5.79,2.26-11.93,6.3-18.609,12.371l-9.74-5.33c9.46-8.101,18.55-13.53,27.64-16.7c9.08-3.16,17.22-3.8,24.75-1.99
			c5.2,1.26,9.03,3.55,11.5,6.96c2.479,3.41,3.24,7.46,2.17,12.25c-1.06,4.79-3.569,9.649-7.64,14.59
			c-3.86,4.7-8.65,8.78-14.37,12.171c-5.71,3.38-11.979,5.689-18.72,6.839c4.729,3.23,6.76,7.82,5.94,13.98
			c-0.831,6.16-4.471,13.319-11.271,21.689c-9.19,11.33-20.971,20.491-35.16,26.851C248.21,312.82,238.31,314.91,229.53,314.24z"/>
		<path fill-rule="evenodd" clip-rule="evenodd" d="M351.911,350.271l-78.891-24.63c3.359-4.41,7.17-8.36,11.44-11.9
			c6.979-5.86,14.859-11.12,23.62-15.85c8.76-4.73,19.899-9.761,33.229-15.03c20.7-8.2,34.979-14.81,43.63-20.07
			c8.641-5.25,14.721-10.6,18.4-16c3.859-5.67,5.12-10.79,4-15.41c-1.13-4.63-4.62-7.59-10.421-9.029
			c-6.14-1.51-12.369-0.841-18.899,2.07c-6.54,2.919-12.47,7.779-17.93,14.889l-12.03-4.869c9.16-10.27,18.359-16.95,28.01-20.7
			c9.66-3.72,19.12-4.38,28.841-2.04c9.81,2.391,15.779,7.021,17.819,14.26c2.021,7.25,0.25,15.42-5.819,24.711
			c-3.091,4.72-7.11,9.239-12.08,13.52c-4.971,4.28-11.42,8.58-19.42,12.88c-8,4.31-20.351,9.96-37.601,17.15
			c-14.38,5.95-24.16,10.22-28.85,12.6c-4.7,2.38-9.05,4.93-13.03,7.65l57.949,17.51L351.911,350.271z"/>
		<path fill-rule="evenodd" clip-rule="evenodd" d="M394.831,363.68l-17.87-5.579l13.52-22.061l17.431,5.23L394.831,363.68z
			 M444.661,278.32l-16.16-4.33l10.6-17.311l15.8,4.091L444.661,278.32z"/>
		<path fill-rule="evenodd" clip-rule="evenodd" d="M480.89,390.56l-16.96-5.3l55.21-116.159c-5.19,2.64-11.54,5.04-19.07,7.17
			c-7.52,2.14-14.08,3.539-19.58,4.17l7.94-15.07c10.1-1.949,19.56-4.99,28.239-9.04l3.61-1.95v48.58L480.89,390.56z"/>
	</g>
</g>
<g id="Viewport_x5F_FG">
	<rect x="1" y="1" fill-rule="evenodd" clip-rule="evenodd" fill="#0000B0" width="145.5" height="23"/>
	
		<rect x="1" y="1" fill-rule="evenodd" clip-rule="evenodd" fill="none" stroke="#000000" stroke-width="2" stroke-linecap="round" width="519.28" height="415.41"/>
	<g>
		<path fill="#FFFFFF" d="M17.204,18.9h-3.098l-2.366-4.969h-0.783V18.9H8.302V6.135h3.566c2.216,0,4.631,0.709,4.631,3.891
			c0,2.253-1.173,3.185-2.438,3.491L17.204,18.9z M12.03,12.162c1.125,0,1.751-0.625,1.751-2.076c0-1.433-0.528-2.142-1.858-2.142
			h-0.973v4.218H12.03z"/>
		<path fill="#FFFFFF" d="M23.836,18.9v-5.627c0-0.783-0.049-1.421-0.279-1.788c-0.173-0.261-0.439-0.424-0.871-0.424
			c-0.342,0-0.708,0.108-1.027,0.291c-0.344,0.2-0.758,0.526-1.102,0.903V18.9h-2.521V5.811h2.521v4.542h0.065
			c0.46-0.341,0.933-0.655,1.427-0.879c0.467-0.22,1.025-0.368,1.598-0.368c0.901,0,1.607,0.261,2.051,0.794
			c0.427,0.525,0.659,1.338,0.659,2.529V18.9H23.836z"/>
		<path fill="#FFFFFF" d="M28,7.398V5.685h2.521v1.713H28z M30.521,18.9H28V9.322h2.521V18.9z"/>
		<path fill="#FFFFFF" d="M38.038,18.9v-5.632c0-0.784-0.049-1.406-0.279-1.772c-0.173-0.261-0.435-0.435-0.882-0.435
			c-0.342,0-0.698,0.113-1.017,0.291c-0.344,0.2-0.757,0.526-1.102,0.903V18.9h-2.521V9.322h2.521l-0.026,1.036h0.088
			c0.46-0.341,0.937-0.655,1.43-0.884c0.467-0.22,1.025-0.368,1.598-0.368c0.901,0,1.607,0.261,2.051,0.794
			c0.427,0.525,0.659,1.338,0.659,2.529V18.9H38.038z"/>
		<path fill="#FFFFFF" d="M50.727,14.132c0,3.121-1.461,4.984-4.427,4.984c-3.089,0-4.43-1.906-4.43-5.002
			c0-3.663,1.88-5.009,4.43-5.009c2.547,0,4.427,1.346,4.427,5.009V14.132z M46.317,17.522c1.044,0,1.827-1.084,1.827-3.404
			c0-2.508-0.885-3.418-1.845-3.418c-0.963,0-1.848,0.939-1.848,3.418c0,2.47,0.815,3.404,1.848,3.404H46.317z"/>
		<path fill="#FFFFFF" d="M60.157,17.173c0.265-1.634,0.527-2.904,0.802-4.2l1.26-6.838h2.742L61.775,18.9h-3.361l-3.19-12.766
			h2.742l1.258,6.859c0.269,1.285,0.543,2.544,0.808,4.179H60.157z"/>
		<path fill="#FFFFFF" d="M65.943,7.398V5.685h2.521v1.713H65.943z M68.464,18.9h-2.521V9.322h2.521V18.9z"/>
		<path fill="#FFFFFF" d="M72.365,14.608c0.1,2.282,0.704,3.029,1.545,3.029c0.68,0,1.104-0.49,1.367-1.367l2.597,0.091
			c-0.2,0.645-0.587,1.323-1.249,1.878c-0.653,0.535-1.531,0.877-2.747,0.877c-1.098,0-2.174-0.283-2.938-1.114
			c-0.726-0.785-1.16-2.029-1.16-3.948c0-1.628,0.378-2.997,1.206-3.858c0.677-0.698,1.617-1.091,2.868-1.091
			c1.092,0,2.04,0.334,2.767,1.119c0.902,1.038,1.249,2.508,1.249,4.383H72.365z M75.279,13.331
			c-0.137-1.89-0.699-2.746-1.433-2.746c-0.71,0-1.373,0.582-1.484,2.746H75.279z"/>
		<path fill="#FFFFFF" d="M84.912,11.31c-0.185,1.538-0.363,2.551-0.563,3.808l-0.67,3.783h-3.014l-2.236-9.579h2.369l0.688,3.827
			c0.206,1.092,0.417,2.395,0.615,3.891h0.095c0.208-1.486,0.393-2.7,0.603-3.894l0.668-3.824h2.978l0.664,3.833
			c0.203,1.197,0.407,2.456,0.597,3.885h0.094c0.209-1.517,0.412-2.729,0.623-3.947l0.692-3.771h2.367L89.248,18.9h-3.017
			l-0.659-3.831c-0.202-1.285-0.376-2.275-0.566-3.76H84.912z"/>
		<path fill="#FFFFFF" d="M92.513,9.322h2.521l-0.023,0.752h0.051c0.278-0.225,0.599-0.494,1.036-0.688
			c0.413-0.164,0.874-0.281,1.455-0.281c1.023,0,1.91,0.327,2.606,1.117c0.653,0.776,1.104,2.004,1.104,3.876
			c0,1.772-0.406,3.077-1.035,3.846c-0.63,0.751-1.534,1.172-2.724,1.172c-0.402,0-0.841-0.043-1.333-0.23
			c-0.37-0.141-0.739-0.357-1.103-0.652h-0.035v5.131h-2.521V9.322z M95.034,16.324c0.238,0.324,0.53,0.572,0.862,0.743
			c0.306,0.167,0.654,0.259,1.022,0.259c0.496,0,0.964-0.209,1.292-0.67c0.268-0.405,0.47-1.144,0.47-2.512
			c0-1.202-0.17-2.01-0.481-2.54c-0.3-0.462-0.749-0.707-1.293-0.707c-0.288,0-0.621,0.06-0.974,0.231
			c-0.308,0.155-0.616,0.419-0.898,0.785V16.324z"/>
		<path fill="#FFFFFF" d="M111.188,14.132c0,3.121-1.461,4.984-4.428,4.984c-3.089,0-4.43-1.906-4.43-5.002
			c0-3.663,1.88-5.009,4.43-5.009c2.547,0,4.428,1.346,4.428,5.009V14.132z M106.778,17.522c1.044,0,1.827-1.084,1.827-3.404
			c0-2.508-0.885-3.418-1.845-3.418c-0.963,0-1.848,0.939-1.848,3.418c0,2.47,0.816,3.404,1.848,3.404H106.778z"/>
		<path fill="#FFFFFF" d="M114.917,10.166c0.201-0.276,0.424-0.543,0.704-0.747c0.264-0.184,0.569-0.313,0.941-0.313
			c0.195,0,0.376,0.024,0.538,0.072c0.148,0.044,0.28,0.102,0.409,0.184l-0.201,2.09c-0.091-0.097-0.202-0.173-0.329-0.242
			c-0.164-0.075-0.319-0.112-0.498-0.112c-0.256,0-0.502,0.098-0.826,0.379c-0.26,0.229-0.512,0.551-0.769,0.964v6.46h-2.521V9.322
			h2.521l-0.024,0.844H114.917z"/>
		<path fill="#FFFFFF" d="M118.759,7.196h2.521v2.125h1.542v1.62h-1.542v4.361c0,1.409,0.266,2.112,0.89,2.112
			c0.389,0,0.715-0.21,0.925-0.377l0.376,1.621c-0.529,0.239-1.112,0.458-1.903,0.458c-1.814,0-2.809-0.917-2.809-3.248v-4.927
			h-0.937v-1.62h0.937V7.196z"/>
	</g>
</g>
</svg>
