<?xml version="1.0" encoding="utf-8"?>
<!-- Generator: Adobe Illustrator 14.0.0, SVG Export Plug-In . SVG Version: 6.00 Build 43363)  -->
<!DOCTYPE svg PUBLIC "-//W3C//DTD SVG 1.0//EN" "http://www.w3.org/TR/2001/REC-SVG-20010904/DTD/svg10.dtd">
<svg version="1.0" id="Layer_1" xmlns="http://www.w3.org/2000/svg" xmlns:xlink="http://www.w3.org/1999/xlink" x="0px" y="0px"
	 width="499.276px" height="78.094px" viewBox="0 0 499.276 78.094" enable-background="new 0 0 499.276 78.094"
	 xml:space="preserve">
<g>
	
		<line fill="none" stroke="#000000" stroke-width="1.798" stroke-linecap="round" stroke-linejoin="round" x1="4.62" y1="46.103" x2="33.878" y2="16.854"/>
	<rect x="32.764" y="14.931" fill-rule="evenodd" clip-rule="evenodd" fill="#FFFFFF" width="3.182" height="3.182"/>
	<rect x="32.764" y="14.931" fill="none" stroke="#000000" stroke-width="0.899" width="3.182" height="3.182"/>
	<rect x="2.697" y="44.728" fill-rule="evenodd" clip-rule="evenodd" fill="#FFFFFF" width="3.182" height="3.182"/>
	<rect x="2.697" y="44.728" fill="none" stroke="#000000" stroke-width="0.899" width="3.182" height="3.182"/>
	<polyline fill="none" stroke="#000000" stroke-width="0.449" stroke-linecap="round" stroke-linejoin="round" points="
		331.925,44.404 331.925,22.472 346.55,22.472 361.174,51.721 375.799,44.404 383.115,22.472 	"/>
	<g>
		<defs>
			<rect id="SVGID_1_" y="0.001" width="499.276" height="65.491"/>
		</defs>
		<clipPath id="SVGID_2_">
			<use xlink:href="#SVGID_1_"  overflow="visible"/>
		</clipPath>
		
			<path clip-path="url(#SVGID_2_)" fill="none" stroke="#000000" stroke-width="1.798" stroke-linecap="round" stroke-linejoin="round" d="
			M331.925,44.404c0-21.932,7.308-21.932,13.401-17.06c6.095,4.871,10.976,14.624,17.07,17.671
			c6.094,3.047,13.402-0.611,20.719-22.543"/>
	</g>
	<rect x="330.334" y="43.587" fill-rule="evenodd" clip-rule="evenodd" fill="#FFFFFF" width="3.182" height="3.173"/>
	<rect x="330.334" y="43.587" fill="none" stroke="#000000" stroke-width="0.899" width="3.182" height="3.173"/>
	<rect x="330.334" y="20.594" fill-rule="evenodd" clip-rule="evenodd" fill="#FFFFFF" width="3.182" height="3.182"/>
	<rect x="330.334" y="20.594" fill="none" stroke="#000000" stroke-width="0.899" width="3.182" height="3.182"/>
	<rect x="345.3" y="20.594" fill-rule="evenodd" clip-rule="evenodd" fill="#FFFFFF" width="3.183" height="3.182"/>
	<rect x="345.3" y="20.594" fill="none" stroke="#000000" stroke-width="0.899" width="3.183" height="3.182"/>
	<rect x="359.592" y="50.193" fill-rule="evenodd" clip-rule="evenodd" fill="#FFFFFF" width="3.182" height="3.173"/>
	<rect x="359.592" y="50.193" fill="none" stroke="#000000" stroke-width="0.899" width="3.182" height="3.173"/>
	<rect x="374.288" y="42.912" fill-rule="evenodd" clip-rule="evenodd" fill="#FFFFFF" width="3.183" height="3.173"/>
	<rect x="374.288" y="42.912" fill="none" stroke="#000000" stroke-width="0.899" width="3.183" height="3.173"/>
	<rect x="381.568" y="20.594" fill-rule="evenodd" clip-rule="evenodd" fill="#FFFFFF" width="3.183" height="3.182"/>
	<rect x="381.568" y="20.594" fill="none" stroke="#000000" stroke-width="0.899" width="3.183" height="3.182"/>
	<g>
		<defs>
			<rect id="SVGID_3_" y="0.001" width="499.276" height="65.491"/>
		</defs>
		<clipPath id="SVGID_4_">
			<use xlink:href="#SVGID_3_"  overflow="visible"/>
		</clipPath>
		<g clip-path="url(#SVGID_4_)">
			<defs>
				<rect id="SVGID_5_" x="447.807" y="0.001" width="51.47" height="51.469"/>
			</defs>
			<clipPath id="SVGID_6_">
				<use xlink:href="#SVGID_5_"  overflow="visible"/>
			</clipPath>
			<g clip-path="url(#SVGID_6_)">
				<defs>
					<rect id="SVGID_7_" x="447.807" y="0.001" width="51.47" height="51.469"/>
				</defs>
				<clipPath id="SVGID_8_">
					<use xlink:href="#SVGID_7_"  overflow="visible"/>
				</clipPath>
				
					<line clip-path="url(#SVGID_8_)" fill="none" stroke="#000000" stroke-width="0.449" stroke-linecap="round" stroke-linejoin="round" x1="448.031" y1="27.11" x2="472.166" y2="0.225"/>
			</g>
			
				<line clip-path="url(#SVGID_6_)" fill="none" stroke="#000000" stroke-width="0.449" stroke-linecap="round" stroke-linejoin="round" x1="486.988" y1="37.798" x2="473.541" y2="25.735"/>
			
				<line clip-path="url(#SVGID_6_)" fill="none" stroke="#000000" stroke-width="0.449" stroke-linecap="round" stroke-linejoin="round" x1="470.44" y1="47.218" x2="494.566" y2="20.333"/>
			
				<line clip-path="url(#SVGID_6_)" fill="none" stroke="#000000" stroke-width="0.449" stroke-linecap="round" stroke-linejoin="round" x1="465.964" y1="43.2" x2="490.09" y2="16.306"/>
			
				<line clip-path="url(#SVGID_6_)" fill="none" stroke="#000000" stroke-width="0.449" stroke-linecap="round" stroke-linejoin="round" x1="457.002" y1="35.155" x2="481.128" y2="8.27"/>
			
				<line clip-path="url(#SVGID_6_)" fill="none" stroke="#000000" stroke-width="0.449" stroke-linecap="round" stroke-linejoin="round" x1="452.517" y1="31.137" x2="476.643" y2="4.243"/>
			<g clip-path="url(#SVGID_6_)">
				<defs>
					<rect id="SVGID_9_" x="447.807" y="0.001" width="51.47" height="51.469"/>
				</defs>
				<clipPath id="SVGID_10_">
					<use xlink:href="#SVGID_9_"  overflow="visible"/>
				</clipPath>
				
					<line clip-path="url(#SVGID_10_)" fill="none" stroke="#000000" stroke-width="0.449" stroke-linecap="round" stroke-linejoin="round" x1="474.926" y1="51.245" x2="499.052" y2="24.351"/>
				
					<line clip-path="url(#SVGID_10_)" fill="none" stroke="#000000" stroke-width="0.449" stroke-linecap="round" stroke-linejoin="round" x1="499.051" y1="24.351" x2="472.166" y2="0.225"/>
			</g>
			
				<line clip-path="url(#SVGID_6_)" fill="none" stroke="#000000" stroke-width="0.449" stroke-linecap="round" stroke-linejoin="round" x1="473.541" y1="25.735" x2="485.604" y2="12.288"/>
			
				<line clip-path="url(#SVGID_6_)" fill="none" stroke="#000000" stroke-width="0.449" stroke-linecap="round" stroke-linejoin="round" x1="491.006" y1="33.313" x2="464.121" y2="9.187"/>
			
				<line clip-path="url(#SVGID_6_)" fill="none" stroke="#000000" stroke-width="0.449" stroke-linecap="round" stroke-linejoin="round" x1="482.961" y1="42.274" x2="456.076" y2="18.148"/>
			
				<line clip-path="url(#SVGID_6_)" fill="none" stroke="#000000" stroke-width="0.449" stroke-linecap="round" stroke-linejoin="round" x1="478.943" y1="46.759" x2="452.059" y2="22.633"/>
			
				<line clip-path="url(#SVGID_6_)" fill="none" stroke="#000000" stroke-width="0.449" stroke-linecap="round" stroke-linejoin="round" x1="495.033" y1="28.836" x2="468.139" y2="4.701"/>
			<g clip-path="url(#SVGID_6_)">
				<defs>
					<rect id="SVGID_11_" x="447.807" y="0.001" width="51.47" height="51.469"/>
				</defs>
				<clipPath id="SVGID_12_">
					<use xlink:href="#SVGID_11_"  overflow="visible"/>
				</clipPath>
				
					<line clip-path="url(#SVGID_12_)" fill="none" stroke="#000000" stroke-width="0.449" stroke-linecap="round" stroke-linejoin="round" x1="474.926" y1="51.245" x2="448.031" y2="27.11"/>
			</g>
		</g>
	</g>
	
		<line fill="none" stroke="#129800" stroke-width="0.899" stroke-linecap="round" stroke-linejoin="round" x1="461.479" y1="39.173" x2="473.541" y2="25.735"/>
	
		<line fill="none" stroke="#AF0000" stroke-width="0.899" stroke-linecap="round" stroke-linejoin="round" x1="473.541" y1="25.735" x2="460.104" y2="13.672"/>
	<g>
		<defs>
			<rect id="SVGID_13_" y="0.001" width="499.276" height="65.491"/>
		</defs>
		<clipPath id="SVGID_14_">
			<use xlink:href="#SVGID_13_"  overflow="visible"/>
		</clipPath>
		
			<path clip-path="url(#SVGID_14_)" fill="none" stroke="#000000" stroke-width="1.798" stroke-linecap="round" stroke-linejoin="round" d="
			M461.515,39.155c-7.39-6.634-8.01-17.995-1.375-25.384"/>
	</g>
	<polyline fill="none" stroke="#000000" stroke-width="0.449" stroke-linecap="round" stroke-linejoin="round" points="
		418.108,25.223 418.108,39.848 432.733,39.848 432.733,54.48 447.366,54.48 447.366,39.848 461.991,39.848 	"/>
	<g>
		<defs>
			<rect id="SVGID_15_" y="0.001" width="499.276" height="65.491"/>
		</defs>
		<clipPath id="SVGID_16_">
			<use xlink:href="#SVGID_15_"  overflow="visible"/>
		</clipPath>
		
			<path clip-path="url(#SVGID_16_)" fill="none" stroke="#000000" stroke-width="1.798" stroke-linecap="round" stroke-linejoin="round" d="
			M418.108,25.223c0,14.625,14.625,14.625,14.625,29.258c14.633,0,14.633-14.633,29.258-14.633"/>
	</g>
	<rect x="460.31" y="38.193" fill-rule="evenodd" clip-rule="evenodd" fill="#FFFFFF" width="3.183" height="3.173"/>
	<rect x="460.31" y="38.193" fill="none" stroke="#000000" stroke-width="0.899" width="3.183" height="3.173"/>
	<rect x="445.748" y="38.193" fill-rule="evenodd" clip-rule="evenodd" fill="#FFFFFF" width="3.182" height="3.173"/>
	<rect x="445.748" y="38.193" fill="none" stroke="#000000" stroke-width="0.899" width="3.182" height="3.173"/>
	<rect x="445.748" y="52.755" fill-rule="evenodd" clip-rule="evenodd" fill="#FFFFFF" width="3.182" height="3.173"/>
	<rect x="445.748" y="52.755" fill="none" stroke="#000000" stroke-width="0.899" width="3.182" height="3.173"/>
	<rect x="431.052" y="52.755" fill-rule="evenodd" clip-rule="evenodd" fill="#FFFFFF" width="3.183" height="3.173"/>
	<rect x="431.052" y="52.755" fill="none" stroke="#000000" stroke-width="0.899" width="3.183" height="3.173"/>
	<rect x="431.052" y="38.193" fill-rule="evenodd" clip-rule="evenodd" fill="#FFFFFF" width="3.183" height="3.173"/>
	<rect x="431.052" y="38.193" fill="none" stroke="#000000" stroke-width="0.899" width="3.183" height="3.173"/>
	<rect x="416.625" y="38.193" fill-rule="evenodd" clip-rule="evenodd" fill="#FFFFFF" width="3.182" height="3.173"/>
	<rect x="416.625" y="38.193" fill="none" stroke="#000000" stroke-width="0.899" width="3.182" height="3.173"/>
	<rect x="416.355" y="23.56" fill-rule="evenodd" clip-rule="evenodd" fill="#FFFFFF" width="3.182" height="3.182"/>
	<rect x="416.355" y="23.56" fill="none" stroke="#000000" stroke-width="0.899" width="3.182" height="3.182"/>
	<rect x="471.77" y="24.036" fill-rule="evenodd" clip-rule="evenodd" fill="#FFFFFF" width="3.183" height="3.173"/>
	<rect x="471.77" y="24.036" fill="none" stroke="#000000" stroke-width="0.899" width="3.183" height="3.173"/>
	<rect x="458.557" y="11.902" fill-rule="evenodd" clip-rule="evenodd" fill="#FFFFFF" width="3.183" height="3.173"/>
	<rect x="458.557" y="11.902" fill="none" stroke="#000000" stroke-width="0.899" width="3.183" height="3.173"/>
	<polyline fill="none" stroke="#000000" stroke-width="1.798" stroke-linecap="round" stroke-linejoin="round" points="
		53.824,50.589 67.909,46.634 63.954,32.558 78.03,28.603 74.084,14.517 88.161,10.562 	"/>
	<rect x="51.883" y="49.043" fill-rule="evenodd" clip-rule="evenodd" fill="#FFFFFF" width="3.182" height="3.182"/>
	<rect x="51.883" y="49.043" fill="none" stroke="#000000" stroke-width="0.899" width="3.182" height="3.182"/>
	<rect x="66.309" y="45.133" fill-rule="evenodd" clip-rule="evenodd" fill="#FFFFFF" width="3.182" height="3.182"/>
	<rect x="66.309" y="45.133" fill="none" stroke="#000000" stroke-width="0.899" width="3.182" height="3.182"/>
	<rect x="62.265" y="31.11" fill-rule="evenodd" clip-rule="evenodd" fill="#FFFFFF" width="3.182" height="3.182"/>
	<rect x="62.265" y="31.11" fill="none" stroke="#000000" stroke-width="0.899" width="3.182" height="3.182"/>
	<rect x="76.287" y="26.931" fill-rule="evenodd" clip-rule="evenodd" fill="#FFFFFF" width="3.182" height="3.182"/>
	<rect x="76.287" y="26.931" fill="none" stroke="#000000" stroke-width="0.899" width="3.182" height="3.182"/>
	<rect x="72.646" y="12.908" fill-rule="evenodd" clip-rule="evenodd" fill="#FFFFFF" width="3.182" height="3.182"/>
	<rect x="72.646" y="12.908" fill="none" stroke="#000000" stroke-width="0.899" width="3.182" height="3.182"/>
	<rect x="86.804" y="9.133" fill-rule="evenodd" clip-rule="evenodd" fill="#FFFFFF" width="3.182" height="3.182"/>
	<rect x="86.804" y="9.133" fill="none" stroke="#000000" stroke-width="0.899" width="3.182" height="3.182"/>
	<g>
		<defs>
			<rect id="SVGID_17_" y="0.001" width="499.276" height="65.491"/>
		</defs>
		<clipPath id="SVGID_18_">
			<use xlink:href="#SVGID_17_"  overflow="visible"/>
		</clipPath>
		<g clip-path="url(#SVGID_18_)">
			<defs>
				<rect id="SVGID_19_" x="105.581" y="3.92" width="57.581" height="57.581"/>
			</defs>
			<clipPath id="SVGID_20_">
				<use xlink:href="#SVGID_19_"  overflow="visible"/>
			</clipPath>
			<g clip-path="url(#SVGID_20_)">
				<defs>
					<rect id="SVGID_21_" x="105.581" y="3.92" width="57.581" height="57.581"/>
				</defs>
				<clipPath id="SVGID_22_">
					<use xlink:href="#SVGID_21_"  overflow="visible"/>
				</clipPath>
				
					<line clip-path="url(#SVGID_22_)" fill="none" stroke="#000000" stroke-width="0.449" stroke-linecap="round" stroke-linejoin="round" x1="146.479" y1="4.144" x2="162.938" y2="44.818"/>
			</g>
			
				<line clip-path="url(#SVGID_20_)" fill="none" stroke="#000000" stroke-width="0.449" stroke-linecap="round" stroke-linejoin="round" x1="114.039" y1="40.935" x2="134.371" y2="32.71"/>
			
				<line clip-path="url(#SVGID_20_)" fill="none" stroke="#000000" stroke-width="0.449" stroke-linecap="round" stroke-linejoin="round" x1="112.583" y1="17.861" x2="129.05" y2="58.535"/>
			
				<line clip-path="url(#SVGID_20_)" fill="none" stroke="#000000" stroke-width="0.449" stroke-linecap="round" stroke-linejoin="round" x1="119.36" y1="15.11" x2="135.828" y2="55.784"/>
			
				<line clip-path="url(#SVGID_20_)" fill="none" stroke="#000000" stroke-width="0.449" stroke-linecap="round" stroke-linejoin="round" x1="132.924" y1="9.627" x2="149.382" y2="50.301"/>
			
				<line clip-path="url(#SVGID_20_)" fill="none" stroke="#000000" stroke-width="0.449" stroke-linecap="round" stroke-linejoin="round" x1="139.702" y1="6.886" x2="156.16" y2="47.56"/>
			<g clip-path="url(#SVGID_20_)">
				<defs>
					<rect id="SVGID_23_" x="105.581" y="3.92" width="57.581" height="57.581"/>
				</defs>
				<clipPath id="SVGID_24_">
					<use xlink:href="#SVGID_23_"  overflow="visible"/>
				</clipPath>
				
					<line clip-path="url(#SVGID_24_)" fill="none" stroke="#000000" stroke-width="0.449" stroke-linecap="round" stroke-linejoin="round" x1="105.806" y1="20.603" x2="122.264" y2="61.276"/>
				
					<line clip-path="url(#SVGID_24_)" fill="none" stroke="#000000" stroke-width="0.449" stroke-linecap="round" stroke-linejoin="round" x1="122.264" y1="61.276" x2="162.938" y2="44.818"/>
			</g>
			
				<line clip-path="url(#SVGID_20_)" fill="none" stroke="#000000" stroke-width="0.449" stroke-linecap="round" stroke-linejoin="round" x1="134.372" y1="32.71" x2="142.605" y2="53.042"/>
			
				<line clip-path="url(#SVGID_20_)" fill="none" stroke="#000000" stroke-width="0.449" stroke-linecap="round" stroke-linejoin="round" x1="116.781" y1="47.721" x2="157.455" y2="31.254"/>
			
				<line clip-path="url(#SVGID_20_)" fill="none" stroke="#000000" stroke-width="0.449" stroke-linecap="round" stroke-linejoin="round" x1="111.289" y1="34.157" x2="151.963" y2="17.699"/>
			
				<line clip-path="url(#SVGID_20_)" fill="none" stroke="#000000" stroke-width="0.449" stroke-linecap="round" stroke-linejoin="round" x1="108.547" y1="27.38" x2="149.221" y2="10.922"/>
			
				<line clip-path="url(#SVGID_20_)" fill="none" stroke="#000000" stroke-width="0.449" stroke-linecap="round" stroke-linejoin="round" x1="119.522" y1="54.499" x2="160.196" y2="38.032"/>
			<g clip-path="url(#SVGID_20_)">
				<defs>
					<rect id="SVGID_25_" x="105.581" y="3.92" width="57.581" height="57.581"/>
				</defs>
				<clipPath id="SVGID_26_">
					<use xlink:href="#SVGID_25_"  overflow="visible"/>
				</clipPath>
				
					<line clip-path="url(#SVGID_26_)" fill="none" stroke="#000000" stroke-width="0.449" stroke-linecap="round" stroke-linejoin="round" x1="105.806" y1="20.603" x2="146.479" y2="4.145"/>
			</g>
		</g>
	</g>
	
		<line fill="none" stroke="#129800" stroke-width="0.899" stroke-linecap="round" stroke-linejoin="round" x1="126.147" y1="12.369" x2="134.372" y2="32.71"/>
	
		<line fill="none" stroke="#AF0000" stroke-width="0.899" stroke-linecap="round" stroke-linejoin="round" x1="134.372" y1="32.71" x2="154.713" y2="24.476"/>
	<g>
		<defs>
			<rect id="SVGID_27_" y="0.001" width="499.276" height="65.491"/>
		</defs>
		<clipPath id="SVGID_28_">
			<use xlink:href="#SVGID_27_"  overflow="visible"/>
		</clipPath>
		
			<path clip-path="url(#SVGID_28_)" fill="none" stroke="#000000" stroke-width="1.798" stroke-linecap="round" stroke-linejoin="round" d="
			M154.677,24.44c-4.539-11.227-17.33-16.647-28.566-12.108c-11.227,4.549-16.647,17.339-12.108,28.566
			c4.549,11.236,17.339,16.656,28.566,12.108C153.805,48.468,159.225,35.677,154.677,24.44z"/>
	</g>
	<rect x="132.673" y="31.11" fill-rule="evenodd" clip-rule="evenodd" fill="#FFFFFF" width="3.182" height="3.182"/>
	<rect x="132.673" y="31.11" fill="none" stroke="#000000" stroke-width="0.899" width="3.182" height="3.182"/>
	<rect x="153.032" y="23.02" fill-rule="evenodd" clip-rule="evenodd" fill="#FFFFFF" width="3.182" height="3.182"/>
	<rect x="153.032" y="23.02" fill="none" stroke="#000000" stroke-width="0.899" width="3.182" height="3.182"/>
	<g>
		<defs>
			<rect id="SVGID_29_" y="0.001" width="499.276" height="65.491"/>
		</defs>
		<clipPath id="SVGID_30_">
			<use xlink:href="#SVGID_29_"  overflow="visible"/>
		</clipPath>
		<g clip-path="url(#SVGID_30_)">
			<defs>
				<rect id="SVGID_31_" x="178.003" y="2.913" width="57.734" height="57.734"/>
			</defs>
			<clipPath id="SVGID_32_">
				<use xlink:href="#SVGID_31_"  overflow="visible"/>
			</clipPath>
			<g clip-path="url(#SVGID_32_)">
				<defs>
					<rect id="SVGID_33_" x="178.003" y="2.913" width="57.734" height="57.734"/>
				</defs>
				<clipPath id="SVGID_34_">
					<use xlink:href="#SVGID_33_"  overflow="visible"/>
				</clipPath>
				
					<line clip-path="url(#SVGID_34_)" fill="none" stroke="#000000" stroke-width="0.449" stroke-linecap="round" stroke-linejoin="round" x1="235.512" y1="19.856" x2="218.793" y2="60.422"/>
			</g>
			
				<line clip-path="url(#SVGID_32_)" fill="none" stroke="#000000" stroke-width="0.449" stroke-linecap="round" stroke-linejoin="round" x1="186.587" y1="23.416" x2="206.874" y2="31.775"/>
			
				<line clip-path="url(#SVGID_32_)" fill="none" stroke="#000000" stroke-width="0.449" stroke-linecap="round" stroke-linejoin="round" x1="201.706" y1="5.924" x2="184.987" y2="46.49"/>
			
				<line clip-path="url(#SVGID_32_)" fill="none" stroke="#000000" stroke-width="0.449" stroke-linecap="round" stroke-linejoin="round" x1="208.465" y1="8.71" x2="191.746" y2="49.276"/>
			
				<line clip-path="url(#SVGID_32_)" fill="none" stroke="#000000" stroke-width="0.449" stroke-linecap="round" stroke-linejoin="round" x1="221.993" y1="14.283" x2="205.274" y2="54.85"/>
			
				<line clip-path="url(#SVGID_32_)" fill="none" stroke="#000000" stroke-width="0.449" stroke-linecap="round" stroke-linejoin="round" x1="228.753" y1="17.07" x2="212.034" y2="57.636"/>
			<g clip-path="url(#SVGID_32_)">
				<defs>
					<rect id="SVGID_35_" x="178.003" y="2.913" width="57.734" height="57.734"/>
				</defs>
				<clipPath id="SVGID_36_">
					<use xlink:href="#SVGID_35_"  overflow="visible"/>
				</clipPath>
				
					<line clip-path="url(#SVGID_36_)" fill="none" stroke="#000000" stroke-width="0.449" stroke-linecap="round" stroke-linejoin="round" x1="194.946" y1="3.137" x2="178.228" y2="43.704"/>
				
					<line clip-path="url(#SVGID_36_)" fill="none" stroke="#000000" stroke-width="0.449" stroke-linecap="round" stroke-linejoin="round" x1="178.228" y1="43.703" x2="218.793" y2="60.422"/>
			</g>
			
				<line clip-path="url(#SVGID_32_)" fill="none" stroke="#000000" stroke-width="0.449" stroke-linecap="round" stroke-linejoin="round" x1="206.875" y1="31.775" x2="198.506" y2="52.063"/>
			
				<line clip-path="url(#SVGID_32_)" fill="none" stroke="#000000" stroke-width="0.449" stroke-linecap="round" stroke-linejoin="round" x1="183.8" y1="30.185" x2="224.366" y2="46.903"/>
			
				<line clip-path="url(#SVGID_32_)" fill="none" stroke="#000000" stroke-width="0.449" stroke-linecap="round" stroke-linejoin="round" x1="189.374" y1="16.656" x2="229.939" y2="33.375"/>
			
				<line clip-path="url(#SVGID_32_)" fill="none" stroke="#000000" stroke-width="0.449" stroke-linecap="round" stroke-linejoin="round" x1="192.16" y1="9.897" x2="232.726" y2="26.616"/>
			
				<line clip-path="url(#SVGID_32_)" fill="none" stroke="#000000" stroke-width="0.449" stroke-linecap="round" stroke-linejoin="round" x1="181.014" y1="36.944" x2="221.58" y2="53.663"/>
			<g clip-path="url(#SVGID_32_)">
				<defs>
					<rect id="SVGID_37_" x="178.003" y="2.913" width="57.734" height="57.734"/>
				</defs>
				<clipPath id="SVGID_38_">
					<use xlink:href="#SVGID_37_"  overflow="visible"/>
				</clipPath>
				
					<line clip-path="url(#SVGID_38_)" fill="none" stroke="#000000" stroke-width="0.449" stroke-linecap="round" stroke-linejoin="round" x1="194.946" y1="3.137" x2="235.512" y2="19.856"/>
			</g>
		</g>
	</g>
	
		<line fill="none" stroke="#129800" stroke-width="0.899" stroke-linecap="round" stroke-linejoin="round" x1="215.234" y1="11.497" x2="206.875" y2="31.775"/>
	
		<line fill="none" stroke="#AF0000" stroke-width="0.899" stroke-linecap="round" stroke-linejoin="round" x1="206.875" y1="31.775" x2="227.152" y2="40.144"/>
	<g>
		<defs>
			<rect id="SVGID_39_" y="0.001" width="499.276" height="65.491"/>
		</defs>
		<clipPath id="SVGID_40_">
			<use xlink:href="#SVGID_39_"  overflow="visible"/>
		</clipPath>
		
			<path clip-path="url(#SVGID_40_)" fill="none" stroke="#000000" stroke-width="1.798" stroke-linecap="round" stroke-linejoin="round" d="
			M227.233,39.919c0.584-1.429-0.234-2.939-0.971-4.009c-1.456-2.121-3.721-3.937-5.78-5.366c-3.379-2.355-6.957-4.189-10.75-5.753
			s-7.622-2.786-11.685-3.497c-2.463-0.431-5.348-0.737-7.883-0.26c-1.277,0.234-2.913,0.737-3.506,2.157
			c-0.584,1.429,0.234,2.939,0.971,4.009c1.456,2.121,3.721,3.937,5.78,5.366c3.379,2.355,6.957,4.189,10.75,5.753
			c3.793,1.564,7.622,2.786,11.685,3.497c2.463,0.431,5.349,0.737,7.883,0.26C224.996,41.843,226.641,41.339,227.233,39.919z"/>
	</g>
	<rect x="205.211" y="30.571" fill-rule="evenodd" clip-rule="evenodd" fill="#FFFFFF" width="3.182" height="3.182"/>
	<rect x="205.211" y="30.571" fill="none" stroke="#000000" stroke-width="0.899" width="3.182" height="3.182"/>
	<rect x="208.312" y="23.425" fill-rule="evenodd" clip-rule="evenodd" fill="#FFFFFF" width="3.182" height="3.182"/>
	<rect x="208.312" y="23.425" fill="none" stroke="#000000" stroke-width="0.899" width="3.182" height="3.182"/>
	<rect x="225.706" y="38.796" fill-rule="evenodd" clip-rule="evenodd" fill="#FFFFFF" width="3.182" height="3.182"/>
	<rect x="225.706" y="38.796" fill="none" stroke="#000000" stroke-width="0.899" width="3.182" height="3.182"/>
	<g>
		<defs>
			<rect id="SVGID_41_" y="0.001" width="499.276" height="65.491"/>
		</defs>
		<clipPath id="SVGID_42_">
			<use xlink:href="#SVGID_41_"  overflow="visible"/>
		</clipPath>
		<g clip-path="url(#SVGID_42_)">
			<defs>
				<rect id="SVGID_43_" x="258.686" y="12.387" width="53.104" height="53.105"/>
			</defs>
			<clipPath id="SVGID_44_">
				<use xlink:href="#SVGID_43_"  overflow="visible"/>
			</clipPath>
			<g clip-path="url(#SVGID_44_)">
				<defs>
					<rect id="SVGID_45_" x="258.686" y="12.387" width="53.104" height="53.105"/>
				</defs>
				<clipPath id="SVGID_46_">
					<use xlink:href="#SVGID_45_"  overflow="visible"/>
				</clipPath>
				
					<line clip-path="url(#SVGID_46_)" fill="none" stroke="#000000" stroke-width="0.449" stroke-linecap="round" stroke-linejoin="round" x1="268.824" y1="12.611" x2="311.565" y2="22.525"/>
			</g>
			
				<line clip-path="url(#SVGID_44_)" fill="none" stroke="#000000" stroke-width="0.449" stroke-linecap="round" stroke-linejoin="round" x1="280.275" y1="60.314" x2="285.238" y2="38.939"/>
			
				<line clip-path="url(#SVGID_44_)" fill="none" stroke="#000000" stroke-width="0.449" stroke-linecap="round" stroke-linejoin="round" x1="260.555" y1="48.225" x2="303.305" y2="58.147"/>
			
				<line clip-path="url(#SVGID_44_)" fill="none" stroke="#000000" stroke-width="0.449" stroke-linecap="round" stroke-linejoin="round" x1="262.209" y1="41.105" x2="304.959" y2="51.021"/>
			
				<line clip-path="url(#SVGID_44_)" fill="none" stroke="#000000" stroke-width="0.449" stroke-linecap="round" stroke-linejoin="round" x1="265.517" y1="26.858" x2="308.258" y2="36.772"/>
			
				<line clip-path="url(#SVGID_44_)" fill="none" stroke="#000000" stroke-width="0.449" stroke-linecap="round" stroke-linejoin="round" x1="267.17" y1="19.73" x2="309.911" y2="29.654"/>
			<g clip-path="url(#SVGID_44_)">
				<defs>
					<rect id="SVGID_47_" x="258.686" y="12.387" width="53.104" height="53.105"/>
				</defs>
				<clipPath id="SVGID_48_">
					<use xlink:href="#SVGID_47_"  overflow="visible"/>
				</clipPath>
				
					<line clip-path="url(#SVGID_48_)" fill="none" stroke="#000000" stroke-width="0.449" stroke-linecap="round" stroke-linejoin="round" x1="258.91" y1="55.353" x2="301.65" y2="65.267"/>
				
					<line clip-path="url(#SVGID_48_)" fill="none" stroke="#000000" stroke-width="0.449" stroke-linecap="round" stroke-linejoin="round" x1="301.65" y1="65.267" x2="311.564" y2="22.526"/>
			</g>
			
				<line clip-path="url(#SVGID_44_)" fill="none" stroke="#000000" stroke-width="0.449" stroke-linecap="round" stroke-linejoin="round" x1="285.237" y1="38.939" x2="306.604" y2="43.901"/>
			
				<line clip-path="url(#SVGID_44_)" fill="none" stroke="#000000" stroke-width="0.449" stroke-linecap="round" stroke-linejoin="round" x1="287.404" y1="61.968" x2="297.318" y2="19.218"/>
			
				<line clip-path="url(#SVGID_44_)" fill="none" stroke="#000000" stroke-width="0.449" stroke-linecap="round" stroke-linejoin="round" x1="273.156" y1="58.661" x2="283.072" y2="15.911"/>
			
				<line clip-path="url(#SVGID_44_)" fill="none" stroke="#000000" stroke-width="0.449" stroke-linecap="round" stroke-linejoin="round" x1="266.029" y1="57.006" x2="275.951" y2="14.266"/>
			
				<line clip-path="url(#SVGID_44_)" fill="none" stroke="#000000" stroke-width="0.449" stroke-linecap="round" stroke-linejoin="round" x1="294.523" y1="63.613" x2="304.445" y2="20.872"/>
			
				<line clip-path="url(#SVGID_44_)" fill="none" stroke="#000000" stroke-width="0.449" stroke-linecap="round" stroke-linejoin="round" x1="258.91" y1="55.353" x2="268.824" y2="12.612"/>
		</g>
	</g>
	
		<line fill="none" stroke="#129800" stroke-width="0.899" stroke-linecap="round" stroke-linejoin="round" x1="263.862" y1="33.978" x2="285.237" y2="38.939"/>
	
		<line fill="none" stroke="#AF0000" stroke-width="0.899" stroke-linecap="round" stroke-linejoin="round" x1="285.237" y1="38.939" x2="290.199" y2="17.564"/>
	<g>
		<defs>
			<rect id="SVGID_49_" y="0.001" width="499.276" height="65.491"/>
		</defs>
		<clipPath id="SVGID_50_">
			<use xlink:href="#SVGID_49_"  overflow="visible"/>
		</clipPath>
		
			<path clip-path="url(#SVGID_50_)" fill="none" stroke="#000000" stroke-width="1.798" stroke-linecap="round" stroke-linejoin="round" d="
			M263.907,34.004c2.724-11.748,14.454-19.056,26.202-16.332"/>
	</g>
	<rect x="283.952" y="37.582" fill-rule="evenodd" clip-rule="evenodd" fill="#FFFFFF" width="3.182" height="3.182"/>
	<rect x="283.952" y="37.582" fill="none" stroke="#000000" stroke-width="0.899" width="3.182" height="3.182"/>
	<rect x="289.076" y="16.009" fill-rule="evenodd" clip-rule="evenodd" fill="#FFFFFF" width="3.182" height="3.182"/>
	<rect x="289.076" y="16.009" fill="none" stroke="#000000" stroke-width="0.899" width="3.182" height="3.182"/>
	<rect x="261.975" y="32.863" fill-rule="evenodd" clip-rule="evenodd" fill="#FFFFFF" width="3.183" height="3.182"/>
	<rect x="261.975" y="32.863" fill="none" stroke="#000000" stroke-width="0.899" width="3.183" height="3.182"/>
	<g>
		<path fill="#231F20" d="M14.862,76.434l1.012-5.723h0.797l-0.887,5.02h2.586l-0.125,0.703H14.862z"/>
		<path fill="#231F20" d="M19.124,76.434l0.633-3.559h-0.555l0.137-0.613h1.277l-0.738,4.172H19.124z M20.323,70.61
			c0.143,0,0.266,0.05,0.367,0.15s0.152,0.223,0.152,0.369c0,0.143-0.051,0.265-0.152,0.365s-0.224,0.15-0.367,0.15
			s-0.266-0.05-0.367-0.15s-0.152-0.222-0.152-0.365c0-0.146,0.051-0.269,0.152-0.369S20.18,70.61,20.323,70.61z"/>
		<path fill="#231F20" d="M23.882,76.434L24.319,74c0.039-0.216,0.059-0.396,0.059-0.539c0-0.443-0.23-0.664-0.691-0.664
			c-0.177,0-0.367,0.052-0.568,0.156s-0.363,0.228-0.482,0.371l-0.543,3.109h-0.75l0.563-3.172c0.013-0.073,0.02-0.159,0.02-0.258
			c0-0.266-0.027-0.496-0.082-0.691l0.719-0.141c0.07,0.38,0.104,0.587,0.102,0.621c0.318-0.414,0.776-0.621,1.375-0.621
			c0.755,0,1.133,0.385,1.133,1.156c0,0.154-0.017,0.326-0.051,0.516l-0.449,2.59H23.882z"/>
		<path fill="#231F20" d="M26.624,74.458c-0.023,0.125-0.035,0.245-0.035,0.359c0,0.344,0.096,0.608,0.289,0.793
			s0.462,0.277,0.809,0.277c0.307,0,0.617-0.113,0.93-0.34l-0.078,0.758c-0.417,0.138-0.785,0.207-1.105,0.207
			c-1.078,0-1.617-0.604-1.617-1.813c0-0.711,0.227-1.31,0.68-1.797s1.023-0.73,1.711-0.73c0.414,0,0.745,0.088,0.992,0.266
			s0.371,0.43,0.371,0.758c0,0.456-0.193,0.815-0.578,1.078s-0.858,0.395-1.418,0.395C27.198,74.668,26.882,74.598,26.624,74.458z
			 M26.753,73.918c0.198,0.088,0.431,0.133,0.699,0.133c0.406,0,0.738-0.066,0.996-0.197s0.387-0.324,0.387-0.576
			c0-0.32-0.221-0.48-0.664-0.48C27.497,72.797,27.024,73.171,26.753,73.918z"/>
	</g>
	<g>
		<path fill="#231F20" d="M58.292,74.231l-0.391,2.203h-0.813l1.043-5.723c0.484-0.052,0.867-0.078,1.148-0.078
			c1.438,0,2.156,0.555,2.156,1.664c0,0.638-0.221,1.135-0.664,1.492s-1.009,0.535-1.699,0.535
			C58.8,74.325,58.54,74.293,58.292,74.231z M58.789,71.415l-0.371,2.113c0.143,0.07,0.354,0.105,0.633,0.105
			c0.463,0,0.838-0.109,1.125-0.326s0.43-0.528,0.43-0.932c0-0.701-0.377-1.051-1.133-1.051
			C59.259,71.325,59.031,71.354,58.789,71.415z"/>
		<path fill="#231F20" d="M61.511,74.895c0-0.748,0.219-1.388,0.656-1.922s0.994-0.801,1.668-0.801c0.508,0,0.896,0.137,1.164,0.412
			s0.402,0.665,0.402,1.17c0,0.401-0.08,0.818-0.24,1.25s-0.422,0.792-0.785,1.078s-0.799,0.43-1.307,0.43
			c-0.502,0-0.888-0.141-1.156-0.424S61.511,75.408,61.511,74.895z M62.292,74.848c0,0.706,0.295,1.059,0.887,1.059
			c0.44,0,0.79-0.213,1.049-0.641s0.389-0.92,0.389-1.48c0-0.672-0.295-1.008-0.887-1.008c-0.299,0-0.563,0.107-0.791,0.32
			s-0.393,0.487-0.494,0.82S62.292,74.562,62.292,74.848z"/>
		<path fill="#231F20" d="M67.429,75.965l-0.086,0.547c-0.836,0-1.254-0.31-1.254-0.93c0-0.188,0.065-0.605,0.195-1.254l0.75-3.793
			h0.773l-0.715,3.563c-0.148,0.74-0.223,1.203-0.223,1.391C66.871,75.807,67.057,75.965,67.429,75.965z"/>
		<path fill="#231F20" d="M68.203,78.075v-0.746c0.484,0,0.828-0.073,1.031-0.219s0.349-0.365,0.438-0.656
			c-0.367,0-0.611-0.362-0.73-1.086l-0.523-3.117h0.809l0.461,3.035c0.044,0.299,0.151,0.449,0.32,0.449l1.508-3.484h0.844
			l-2.098,4.684c-0.177,0.396-0.413,0.685-0.707,0.867S68.81,78.075,68.203,78.075z"/>
		<path fill="#231F20" d="M73.937,75.965l-0.086,0.547c-0.836,0-1.254-0.31-1.254-0.93c0-0.188,0.065-0.605,0.195-1.254l0.75-3.793
			h0.773l-0.715,3.563c-0.148,0.74-0.223,1.203-0.223,1.391C73.378,75.807,73.564,75.965,73.937,75.965z"/>
		<path fill="#231F20" d="M75.128,76.434l0.633-3.559h-0.555l0.137-0.613h1.277l-0.738,4.172H75.128z M76.328,70.61
			c0.143,0,0.266,0.05,0.367,0.15s0.152,0.223,0.152,0.369c0,0.143-0.051,0.265-0.152,0.365s-0.224,0.15-0.367,0.15
			s-0.266-0.05-0.367-0.15s-0.152-0.222-0.152-0.365c0-0.146,0.051-0.269,0.152-0.369S76.185,70.61,76.328,70.61z"/>
		<path fill="#231F20" d="M79.886,76.434L80.324,74c0.039-0.216,0.059-0.396,0.059-0.539c0-0.443-0.23-0.664-0.691-0.664
			c-0.177,0-0.367,0.052-0.568,0.156s-0.363,0.228-0.482,0.371l-0.543,3.109h-0.75l0.563-3.172c0.013-0.073,0.02-0.159,0.02-0.258
			c0-0.266-0.027-0.496-0.082-0.691l0.719-0.141c0.07,0.38,0.104,0.587,0.102,0.621c0.318-0.414,0.776-0.621,1.375-0.621
			c0.755,0,1.133,0.385,1.133,1.156c0,0.154-0.017,0.326-0.051,0.516l-0.449,2.59H79.886z"/>
		<path fill="#231F20" d="M82.628,74.458c-0.023,0.125-0.035,0.245-0.035,0.359c0,0.344,0.096,0.608,0.289,0.793
			s0.462,0.277,0.809,0.277c0.307,0,0.617-0.113,0.93-0.34l-0.078,0.758c-0.417,0.138-0.785,0.207-1.105,0.207
			c-1.078,0-1.617-0.604-1.617-1.813c0-0.711,0.227-1.31,0.68-1.797s1.023-0.73,1.711-0.73c0.414,0,0.745,0.088,0.992,0.266
			s0.371,0.43,0.371,0.758c0,0.456-0.193,0.815-0.578,1.078s-0.858,0.395-1.418,0.395C83.203,74.668,82.886,74.598,82.628,74.458z
			 M82.757,73.918c0.198,0.088,0.431,0.133,0.699,0.133c0.406,0,0.738-0.066,0.996-0.197s0.387-0.324,0.387-0.576
			c0-0.32-0.221-0.48-0.664-0.48C83.501,72.797,83.028,73.171,82.757,73.918z"/>
	</g>
	<g>
		<path fill="#231F20" d="M127.91,70.797l-0.215,0.762c-0.219-0.167-0.527-0.25-0.926-0.25c-0.615,0-1.132,0.307-1.553,0.92
			s-0.631,1.275-0.631,1.986c0,1.076,0.447,1.613,1.34,1.613c0.461,0,0.909-0.189,1.344-0.566l-0.063,0.828
			c-0.32,0.294-0.816,0.441-1.488,0.441c-0.625,0-1.108-0.193-1.449-0.578s-0.512-0.917-0.512-1.594
			c0-1.047,0.285-1.933,0.854-2.658s1.304-1.088,2.205-1.088C127.269,70.614,127.634,70.675,127.91,70.797z"/>
		<path fill="#231F20" d="M128.531,76.434l0.633-3.559h-0.555l0.137-0.613h1.277l-0.738,4.172H128.531z M129.73,70.61
			c0.143,0,0.266,0.05,0.367,0.15s0.152,0.223,0.152,0.369c0,0.143-0.051,0.265-0.152,0.365s-0.224,0.15-0.367,0.15
			s-0.266-0.05-0.367-0.15s-0.152-0.222-0.152-0.365c0-0.146,0.051-0.269,0.152-0.369S129.587,70.61,129.73,70.61z"/>
		<path fill="#231F20" d="M133.707,72.985c-0.156-0.125-0.338-0.188-0.547-0.188c-0.263,0-0.514,0.122-0.754,0.365
			s-0.389,0.535-0.449,0.873l-0.426,2.398h-0.742l0.738-4.184h0.742l-0.117,0.668c0.359-0.498,0.806-0.746,1.34-0.746
			c0.091,0,0.233,0.018,0.426,0.055L133.707,72.985z"/>
		<path fill="#231F20" d="M137.402,72.383l-0.137,0.637c-0.188-0.148-0.439-0.223-0.754-0.223c-0.479,0-0.867,0.189-1.162,0.568
			s-0.443,0.844-0.443,1.396c0,0.338,0.096,0.609,0.287,0.811s0.41,0.303,0.654,0.303c0.377,0,0.74-0.116,1.086-0.348l-0.082,0.758
			c-0.341,0.151-0.715,0.227-1.121,0.227c-0.516,0-0.912-0.148-1.188-0.443s-0.414-0.688-0.414-1.178
			c0-0.797,0.219-1.449,0.656-1.957s0.995-0.762,1.672-0.762C136.857,72.172,137.173,72.243,137.402,72.383z"/>
		<path fill="#231F20" d="M139.367,75.965l-0.086,0.547c-0.836,0-1.254-0.31-1.254-0.93c0-0.188,0.065-0.605,0.195-1.254l0.75-3.793
			h0.773l-0.715,3.563c-0.148,0.74-0.223,1.203-0.223,1.391C138.808,75.807,138.994,75.965,139.367,75.965z"/>
		<path fill="#231F20" d="M141.234,74.458c-0.023,0.125-0.035,0.245-0.035,0.359c0,0.344,0.096,0.608,0.289,0.793
			s0.462,0.277,0.809,0.277c0.307,0,0.617-0.113,0.93-0.34l-0.078,0.758c-0.417,0.138-0.785,0.207-1.105,0.207
			c-1.078,0-1.617-0.604-1.617-1.813c0-0.711,0.227-1.31,0.68-1.797s1.023-0.73,1.711-0.73c0.414,0,0.745,0.088,0.992,0.266
			s0.371,0.43,0.371,0.758c0,0.456-0.193,0.815-0.578,1.078s-0.858,0.395-1.418,0.395C141.808,74.668,141.492,74.598,141.234,74.458
			z M141.363,73.918c0.198,0.088,0.431,0.133,0.699,0.133c0.406,0,0.738-0.066,0.996-0.197s0.387-0.324,0.387-0.576
			c0-0.32-0.221-0.48-0.664-0.48C142.106,72.797,141.634,73.171,141.363,73.918z"/>
	</g>
	<g>
		<path fill="#231F20" d="M196.193,71.415l-0.281,1.59h1.891l-0.117,0.664h-1.891l-0.363,2.063h2.594l-0.125,0.703h-3.414
			l1.012-5.723h3.457l-0.129,0.703H196.193z"/>
		<path fill="#231F20" d="M200.498,75.965l-0.086,0.547c-0.836,0-1.254-0.31-1.254-0.93c0-0.188,0.065-0.605,0.195-1.254l0.75-3.793
			h0.773l-0.715,3.563c-0.148,0.74-0.223,1.203-0.223,1.391C199.939,75.807,200.125,75.965,200.498,75.965z"/>
		<path fill="#231F20" d="M203.06,75.965l-0.086,0.547c-0.836,0-1.254-0.31-1.254-0.93c0-0.188,0.065-0.605,0.195-1.254l0.75-3.793
			h0.773l-0.715,3.563c-0.148,0.74-0.223,1.203-0.223,1.391C202.501,75.807,202.688,75.965,203.06,75.965z"/>
		<path fill="#231F20" d="M204.251,76.434l0.633-3.559h-0.555l0.137-0.613h1.277l-0.738,4.172H204.251z M205.451,70.61
			c0.143,0,0.266,0.05,0.367,0.15s0.152,0.223,0.152,0.369c0,0.143-0.051,0.265-0.152,0.365s-0.224,0.15-0.367,0.15
			s-0.266-0.05-0.367-0.15s-0.152-0.222-0.152-0.365c0-0.146,0.051-0.269,0.152-0.369S205.308,70.61,205.451,70.61z"/>
		<path fill="#231F20" d="M207.177,76.223l-0.328,1.871h-0.742l0.82-4.594c0.037-0.201,0.055-0.397,0.055-0.59
			c0-0.198-0.02-0.391-0.059-0.578l0.746-0.141c0.013,0.034,0.037,0.212,0.07,0.535c0.123-0.151,0.298-0.278,0.527-0.381
			s0.443-0.154,0.641-0.154c0.521,0,0.911,0.129,1.17,0.387s0.389,0.646,0.389,1.164c0,0.792-0.219,1.455-0.658,1.988
			s-1.015,0.801-1.729,0.801c-0.154,0-0.33-0.03-0.529-0.09S207.227,76.309,207.177,76.223z M207.287,75.61
			c0.047,0.083,0.142,0.154,0.285,0.211s0.277,0.086,0.402,0.086c0.544,0,0.964-0.184,1.26-0.553s0.443-0.872,0.443-1.51
			c0-0.344-0.086-0.601-0.26-0.771s-0.433-0.256-0.779-0.256c-0.151,0-0.326,0.053-0.525,0.158s-0.34,0.215-0.424,0.33
			L207.287,75.61z"/>
		<path fill="#231F20" d="M210.658,76.184l0.387-0.703c0.102,0.102,0.248,0.195,0.438,0.279s0.353,0.127,0.488,0.127
			c0.232,0,0.423-0.063,0.574-0.188s0.227-0.294,0.227-0.508c0-0.109-0.04-0.207-0.119-0.293s-0.217-0.185-0.412-0.297l-0.551-0.305
			c-0.169-0.096-0.296-0.218-0.381-0.365s-0.127-0.304-0.127-0.471c0-0.388,0.151-0.7,0.453-0.936s0.673-0.354,1.113-0.354
			c0.305,0,0.672,0.096,1.102,0.289l-0.332,0.688c-0.255-0.234-0.53-0.352-0.824-0.352c-0.195,0-0.364,0.05-0.506,0.15
			s-0.213,0.232-0.213,0.396c0,0.12,0.041,0.223,0.121,0.309s0.22,0.182,0.418,0.289l0.547,0.297
			c0.169,0.091,0.295,0.208,0.379,0.352s0.125,0.299,0.125,0.469c0,0.448-0.162,0.802-0.486,1.063s-0.736,0.391-1.236,0.391
			C211.401,76.512,211.007,76.403,210.658,76.184z"/>
		<path fill="#231F20" d="M215.076,74.458c-0.023,0.125-0.035,0.245-0.035,0.359c0,0.344,0.096,0.608,0.289,0.793
			s0.462,0.277,0.809,0.277c0.307,0,0.617-0.113,0.93-0.34l-0.078,0.758c-0.417,0.138-0.785,0.207-1.105,0.207
			c-1.078,0-1.617-0.604-1.617-1.813c0-0.711,0.227-1.31,0.68-1.797s1.023-0.73,1.711-0.73c0.414,0,0.745,0.088,0.992,0.266
			s0.371,0.43,0.371,0.758c0,0.456-0.193,0.815-0.578,1.078s-0.858,0.395-1.418,0.395C215.65,74.668,215.333,74.598,215.076,74.458z
			 M215.205,73.918c0.198,0.088,0.431,0.133,0.699,0.133c0.406,0,0.738-0.066,0.996-0.197s0.387-0.324,0.387-0.576
			c0-0.32-0.221-0.48-0.664-0.48C215.948,72.797,215.476,73.171,215.205,73.918z"/>
	</g>
	<g>
		<path fill="#231F20" d="M279.07,76.434l-0.18-1.207h-2.051l-0.676,1.207h-0.875l3.348-5.801h0.207l1.133,5.801H279.07z
			 M278.457,72.208l-1.309,2.445h1.66L278.457,72.208z"/>
		<path fill="#231F20" d="M283.563,72.985c-0.156-0.125-0.338-0.188-0.547-0.188c-0.263,0-0.514,0.122-0.754,0.365
			c-0.239,0.244-0.389,0.535-0.449,0.873l-0.426,2.398h-0.742l0.738-4.184h0.742l-0.117,0.668c0.359-0.498,0.807-0.746,1.34-0.746
			c0.092,0,0.233,0.018,0.426,0.055L283.563,72.985z"/>
		<path fill="#231F20" d="M287.258,72.383l-0.137,0.637c-0.188-0.148-0.438-0.223-0.754-0.223c-0.479,0-0.866,0.189-1.162,0.568
			c-0.295,0.379-0.443,0.844-0.443,1.396c0,0.338,0.096,0.609,0.287,0.811s0.41,0.303,0.654,0.303c0.378,0,0.74-0.116,1.086-0.348
			l-0.082,0.758c-0.341,0.151-0.715,0.227-1.121,0.227c-0.516,0-0.911-0.148-1.188-0.443c-0.275-0.295-0.414-0.688-0.414-1.178
			c0-0.797,0.219-1.449,0.656-1.957s0.995-0.762,1.672-0.762C286.714,72.172,287.029,72.243,287.258,72.383z"/>
	</g>
	<g>
		<path fill="#231F20" d="M343.396,76.512l-2.234-4.063l-0.672,3.984h-0.781l1.012-5.723h0.313l2.188,3.898l0.66-3.898h0.773
			l-1.023,5.801H343.396z"/>
		<path fill="#231F20" d="M346.268,72.25l-0.488,2.668c-0.021,0.115-0.031,0.22-0.031,0.316c0,0.435,0.227,0.652,0.68,0.652
			c0.279,0,0.547-0.104,0.803-0.313s0.41-0.457,0.463-0.746l0.477-2.578h0.781l-0.766,4.184h-0.781l0.109-0.59
			c-0.291,0.445-0.797,0.668-1.516,0.668c-0.326,0-0.58-0.096-0.762-0.289s-0.273-0.466-0.273-0.82c0-0.125,0.014-0.26,0.039-0.406
			l0.484-2.746H346.268z"/>
		<path fill="#231F20" d="M352.299,72.985c-0.156-0.125-0.338-0.188-0.547-0.188c-0.264,0-0.514,0.122-0.754,0.365
			s-0.389,0.535-0.449,0.873l-0.426,2.398h-0.742l0.738-4.184h0.742l-0.117,0.668c0.359-0.498,0.807-0.746,1.34-0.746
			c0.092,0,0.232,0.018,0.426,0.055L352.299,72.985z"/>
		<path fill="#231F20" d="M353.357,76.032l-0.395,0.48h-0.488c0.17-0.487,0.313-1.053,0.43-1.699l0.75-4.277h0.719l-0.348,2.156
			c0.195-0.346,0.543-0.52,1.043-0.52c0.447,0,0.818,0.166,1.111,0.498s0.439,0.778,0.439,1.338c0,0.659-0.229,1.241-0.684,1.746
			s-1.02,0.758-1.691,0.758C353.82,76.512,353.523,76.352,353.357,76.032z M353.92,73.372l-0.391,2.035
			c-0.006,0.029,0.023,0.087,0.086,0.176s0.15,0.164,0.264,0.227s0.227,0.094,0.342,0.094c0.443,0,0.818-0.195,1.129-0.586
			s0.465-0.806,0.465-1.246c0-0.849-0.375-1.273-1.125-1.273C354.393,72.797,354.137,72.989,353.92,73.372z"/>
		<path fill="#231F20" d="M356.861,76.184l0.387-0.703c0.102,0.102,0.248,0.195,0.438,0.279s0.354,0.127,0.488,0.127
			c0.232,0,0.424-0.063,0.574-0.188s0.227-0.294,0.227-0.508c0-0.109-0.039-0.207-0.119-0.293s-0.217-0.185-0.412-0.297
			l-0.551-0.305c-0.17-0.096-0.297-0.218-0.381-0.365s-0.127-0.304-0.127-0.471c0-0.388,0.15-0.7,0.453-0.936
			s0.674-0.354,1.113-0.354c0.305,0,0.672,0.096,1.102,0.289l-0.332,0.688c-0.256-0.234-0.529-0.352-0.824-0.352
			c-0.195,0-0.363,0.05-0.506,0.15s-0.213,0.232-0.213,0.396c0,0.12,0.041,0.223,0.121,0.309s0.221,0.182,0.418,0.289l0.547,0.297
			c0.17,0.091,0.295,0.208,0.379,0.352s0.125,0.299,0.125,0.469c0,0.448-0.162,0.802-0.486,1.063s-0.736,0.391-1.236,0.391
			C357.605,76.512,357.211,76.403,356.861,76.184z"/>
		<path fill="#231F20" d="M366.1,72.383l-0.137,0.637c-0.188-0.148-0.439-0.223-0.754-0.223c-0.479,0-0.867,0.189-1.162,0.568
			s-0.443,0.844-0.443,1.396c0,0.338,0.096,0.609,0.287,0.811s0.41,0.303,0.654,0.303c0.377,0,0.74-0.116,1.086-0.348l-0.082,0.758
			c-0.342,0.151-0.715,0.227-1.121,0.227c-0.516,0-0.912-0.148-1.188-0.443s-0.414-0.688-0.414-1.178
			c0-0.797,0.219-1.449,0.656-1.957s0.994-0.762,1.672-0.762C365.555,72.172,365.871,72.243,366.1,72.383z"/>
		<path fill="#231F20" d="M367.838,72.25l-0.488,2.668c-0.021,0.115-0.031,0.22-0.031,0.316c0,0.435,0.227,0.652,0.68,0.652
			c0.279,0,0.547-0.104,0.803-0.313s0.41-0.457,0.463-0.746l0.477-2.578h0.781l-0.766,4.184h-0.781l0.109-0.59
			c-0.291,0.445-0.797,0.668-1.516,0.668c-0.326,0-0.58-0.096-0.762-0.289s-0.273-0.466-0.273-0.82c0-0.125,0.014-0.26,0.039-0.406
			l0.484-2.746H367.838z"/>
		<path fill="#231F20" d="M373.869,72.985c-0.156-0.125-0.338-0.188-0.547-0.188c-0.264,0-0.514,0.122-0.754,0.365
			s-0.389,0.535-0.449,0.873l-0.426,2.398h-0.742l0.738-4.184h0.742l-0.117,0.668c0.359-0.498,0.807-0.746,1.34-0.746
			c0.092,0,0.232,0.018,0.426,0.055L373.869,72.985z"/>
		<path fill="#231F20" d="M375.736,76.512h-0.195l-1.215-4.273h0.773l0.75,2.879l1.59-2.879h0.855L375.736,76.512z"/>
		<path fill="#231F20" d="M379.072,74.458c-0.023,0.125-0.035,0.245-0.035,0.359c0,0.344,0.096,0.608,0.289,0.793
			s0.463,0.277,0.809,0.277c0.307,0,0.617-0.113,0.93-0.34l-0.078,0.758c-0.416,0.138-0.785,0.207-1.105,0.207
			c-1.078,0-1.617-0.604-1.617-1.813c0-0.711,0.227-1.31,0.68-1.797s1.023-0.73,1.711-0.73c0.414,0,0.744,0.088,0.992,0.266
			s0.371,0.43,0.371,0.758c0,0.456-0.193,0.815-0.578,1.078s-0.857,0.395-1.418,0.395C379.646,74.668,379.33,74.598,379.072,74.458z
			 M379.201,73.918c0.197,0.088,0.432,0.133,0.699,0.133c0.406,0,0.738-0.066,0.996-0.197s0.387-0.324,0.387-0.576
			c0-0.32-0.221-0.48-0.664-0.48C379.945,72.797,379.473,73.171,379.201,73.918z"/>
	</g>
	<g>
		<path fill="#231F20" d="M433.532,74.231l-0.391,2.203h-0.813l1.043-5.723c0.484-0.052,0.867-0.078,1.148-0.078
			c1.438,0,2.156,0.555,2.156,1.664c0,0.638-0.222,1.135-0.664,1.492s-1.009,0.535-1.699,0.535
			C434.04,74.325,433.779,74.293,433.532,74.231z M434.028,71.415l-0.371,2.113c0.144,0.07,0.354,0.105,0.633,0.105
			c0.464,0,0.839-0.109,1.125-0.326s0.43-0.528,0.43-0.932c0-0.701-0.378-1.051-1.133-1.051
			C434.498,71.325,434.271,71.354,434.028,71.415z"/>
		<path fill="#231F20" d="M436.751,74.895c0-0.748,0.219-1.388,0.656-1.922s0.993-0.801,1.668-0.801
			c0.508,0,0.896,0.137,1.164,0.412s0.402,0.665,0.402,1.17c0,0.401-0.08,0.818-0.24,1.25s-0.422,0.792-0.785,1.078
			s-0.799,0.43-1.307,0.43c-0.503,0-0.888-0.141-1.156-0.424S436.751,75.408,436.751,74.895z M437.532,74.848
			c0,0.706,0.296,1.059,0.887,1.059c0.44,0,0.79-0.213,1.049-0.641s0.389-0.92,0.389-1.48c0-0.672-0.296-1.008-0.887-1.008
			c-0.3,0-0.563,0.107-0.791,0.32s-0.393,0.487-0.494,0.82S437.532,74.562,437.532,74.848z"/>
		<path fill="#231F20" d="M442.669,75.965l-0.086,0.547c-0.836,0-1.254-0.31-1.254-0.93c0-0.188,0.065-0.605,0.195-1.254l0.75-3.793
			h0.773l-0.715,3.563c-0.148,0.74-0.223,1.203-0.223,1.391C442.11,75.807,442.297,75.965,442.669,75.965z"/>
		<path fill="#231F20" d="M443.442,78.075v-0.746c0.484,0,0.828-0.073,1.031-0.219s0.349-0.365,0.438-0.656
			c-0.367,0-0.61-0.362-0.73-1.086l-0.523-3.117h0.809l0.461,3.035c0.044,0.299,0.151,0.449,0.32,0.449l1.508-3.484h0.844
			l-2.098,4.684c-0.177,0.396-0.413,0.685-0.707,0.867S444.049,78.075,443.442,78.075z"/>
		<path fill="#231F20" d="M453.302,72.383l-0.137,0.637c-0.188-0.148-0.438-0.223-0.754-0.223c-0.479,0-0.866,0.189-1.162,0.568
			s-0.443,0.844-0.443,1.396c0,0.338,0.096,0.609,0.287,0.811s0.409,0.303,0.654,0.303c0.378,0,0.739-0.116,1.086-0.348
			l-0.082,0.758c-0.341,0.151-0.715,0.227-1.121,0.227c-0.516,0-0.911-0.148-1.188-0.443s-0.414-0.688-0.414-1.178
			c0-0.797,0.219-1.449,0.656-1.957s0.995-0.762,1.672-0.762C452.758,72.172,453.072,72.243,453.302,72.383z"/>
		<path fill="#231F20" d="M455.04,72.25l-0.488,2.668c-0.021,0.115-0.031,0.22-0.031,0.316c0,0.435,0.227,0.652,0.68,0.652
			c0.278,0,0.546-0.104,0.803-0.313s0.411-0.457,0.463-0.746l0.477-2.578h0.781l-0.766,4.184h-0.781l0.109-0.59
			c-0.292,0.445-0.797,0.668-1.516,0.668c-0.325,0-0.579-0.096-0.762-0.289s-0.273-0.466-0.273-0.82c0-0.125,0.013-0.26,0.039-0.406
			l0.484-2.746H455.04z"/>
		<path fill="#231F20" d="M461.071,72.985c-0.156-0.125-0.339-0.188-0.547-0.188c-0.263,0-0.515,0.122-0.754,0.365
			s-0.39,0.535-0.449,0.873l-0.426,2.398h-0.742l0.738-4.184h0.742l-0.117,0.668c0.359-0.498,0.806-0.746,1.34-0.746
			c0.091,0,0.233,0.018,0.426,0.055L461.071,72.985z"/>
		<path fill="#231F20" d="M462.938,76.512h-0.195l-1.215-4.273h0.773l0.75,2.879l1.59-2.879h0.855L462.938,76.512z"/>
		<path fill="#231F20" d="M466.274,74.458c-0.023,0.125-0.035,0.245-0.035,0.359c0,0.344,0.097,0.608,0.289,0.793
			s0.462,0.277,0.809,0.277c0.308,0,0.617-0.113,0.93-0.34l-0.078,0.758c-0.417,0.138-0.785,0.207-1.105,0.207
			c-1.078,0-1.617-0.604-1.617-1.813c0-0.711,0.227-1.31,0.68-1.797s1.023-0.73,1.711-0.73c0.414,0,0.745,0.088,0.992,0.266
			s0.371,0.43,0.371,0.758c0,0.456-0.192,0.815-0.578,1.078s-0.858,0.395-1.418,0.395C466.849,74.668,466.532,74.598,466.274,74.458
			z M466.403,73.918c0.198,0.088,0.431,0.133,0.699,0.133c0.406,0,0.738-0.066,0.996-0.197s0.387-0.324,0.387-0.576
			c0-0.32-0.222-0.48-0.664-0.48C467.146,72.797,466.674,73.171,466.403,73.918z"/>
	</g>
</g>
</svg>
