<?xml version="1.0" encoding="utf-8"?>
<!-- Generator: Adobe Illustrator 14.0.0, SVG Export Plug-In . SVG Version: 6.00 Build 43363)  -->
<!DOCTYPE svg PUBLIC "-//W3C//DTD SVG 1.0//EN" "http://www.w3.org/TR/2001/REC-SVG-20010904/DTD/svg10.dtd">
<svg version="1.0" id="Layer_1" xmlns="http://www.w3.org/2000/svg" xmlns:xlink="http://www.w3.org/1999/xlink" x="0px" y="0px"
	 width="184.79px" height="125.721px" viewBox="0 0 184.79 125.721" enable-background="new 0 0 184.79 125.721"
	 xml:space="preserve">
<line fill-rule="evenodd" clip-rule="evenodd" fill="none" stroke="#000000" stroke-width="0.5" stroke-linejoin="bevel" stroke-dasharray="0.99,0.99" x1="6.17" y1="6.17" x2="6.17" y2="62.86"/>
<line fill-rule="evenodd" clip-rule="evenodd" fill="none" stroke="#000000" stroke-width="0.5" stroke-linejoin="bevel" stroke-dasharray="0.99,0.99" x1="62.86" y1="6.17" x2="62.86" y2="62.86"/>
<line fill-rule="evenodd" clip-rule="evenodd" fill="none" stroke="#000000" stroke-linejoin="bevel" x1="6.17" y1="116.721" x2="6.17" y2="62.86"/>
<line fill-rule="evenodd" clip-rule="evenodd" fill="none" stroke="#000000" stroke-linejoin="bevel" x1="62.86" y1="116.721" x2="62.86" y2="62.86"/>
<line fill-rule="evenodd" clip-rule="evenodd" fill="none" stroke="#000000" stroke-width="0.5" stroke-linejoin="bevel" stroke-dasharray="0.99,0.99" x1="119.79" y1="8.76" x2="119.79" y2="116.48"/>
<line fill-rule="evenodd" clip-rule="evenodd" fill="none" stroke="#000000" stroke-width="0.5" stroke-linejoin="bevel" stroke-dasharray="0.99,0.99" x1="176.25" y1="9" x2="176.25" y2="116.721"/>
<line fill-rule="evenodd" clip-rule="evenodd" fill="none" stroke="#000000" stroke-width="0.5" stroke-linejoin="bevel" stroke-dasharray="0.99,0.99" x1="179.75" y1="62.86" x2="62.86" y2="62.86"/>
<line fill-rule="evenodd" clip-rule="evenodd" fill="none" stroke="#000000" stroke-width="0.5" stroke-linejoin="bevel" stroke-dasharray="0.99,0.99" x1="179.75" y1="119.551" x2="62.86" y2="119.551"/>
<line fill-rule="evenodd" clip-rule="evenodd" fill="none" stroke="#000000" stroke-linejoin="bevel" x1="6.17" y1="62.86" x2="62.86" y2="62.86"/>
<line fill-rule="evenodd" clip-rule="evenodd" fill="none" stroke="#000000" stroke-width="0.5" stroke-linejoin="bevel" stroke-dasharray="0.99,0.99" x1="6.17" y1="6.17" x2="176.25" y2="6.17"/>
<line fill-rule="evenodd" clip-rule="evenodd" fill="none" stroke="#000000" stroke-linejoin="bevel" x1="6.17" y1="119.551" x2="62.86" y2="119.551"/>
<g>
	<path fill-rule="evenodd" clip-rule="evenodd" fill="#FFFFFF" stroke="#000000" d="M1.21,119.91c0-2.939,2.38-5.319,5.32-5.319
		c2.93,0,5.31,2.38,5.31,5.319c0,2.931-2.38,5.311-5.31,5.311C3.59,125.221,1.21,122.841,1.21,119.91z"/>
	<g>
		<g>
			<path fill-rule="evenodd" clip-rule="evenodd" d="M6.52,116.25c0.7,0,1.24,0.25,1.63,0.74c0.47,0.59,0.7,1.561,0.7,2.92
				c0,1.35-0.24,2.33-0.7,2.92c-0.39,0.49-0.93,0.729-1.63,0.729c-0.69,0-1.25-0.27-1.68-0.8c-0.43-0.539-0.64-1.489-0.64-2.859
				c0-1.35,0.23-2.32,0.7-2.91C5.29,116.5,5.83,116.25,6.52,116.25z M6.52,117.391c-0.16,0-0.31,0.05-0.44,0.16
				c-0.13,0.1-0.23,0.29-0.3,0.569c-0.1,0.351-0.14,0.95-0.14,1.79s0.04,1.42,0.12,1.73c0.09,0.31,0.19,0.52,0.32,0.63
				c0.13,0.1,0.28,0.15,0.44,0.15c0.17,0,0.32-0.051,0.45-0.15c0.13-0.11,0.23-0.3,0.3-0.57c0.1-0.35,0.14-0.95,0.14-1.79
				s-0.04-1.42-0.12-1.73c-0.09-0.319-0.2-0.529-0.32-0.629C6.84,117.44,6.69,117.391,6.52,117.391z"/>
		</g>
	</g>
</g>
<g>
	<path fill-rule="evenodd" clip-rule="evenodd" fill="#FFFFFF" stroke="#000000" d="M0.5,62.51c0-2.94,2.38-5.32,5.32-5.32
		c2.93,0,5.31,2.38,5.31,5.32c0,2.93-2.38,5.31-5.31,5.31C2.88,67.82,0.5,65.44,0.5,62.51z"/>
	<g>
		<g>
			<path fill-rule="evenodd" clip-rule="evenodd" d="M6.79,66.101H5.42v-5.17c-0.5,0.47-1.09,0.82-1.78,1.04v-1.24
				c0.36-0.12,0.75-0.34,1.17-0.67c0.42-0.33,0.71-0.71,0.87-1.15h1.11V66.101z"/>
		</g>
	</g>
</g>
<g>
	<path fill-rule="evenodd" clip-rule="evenodd" fill="#FFFFFF" stroke="#000000" d="M1.21,5.81c0-2.93,2.38-5.31,5.32-5.31
		c2.93,0,5.31,2.38,5.31,5.31c0,2.94-2.38,5.32-5.31,5.32C3.59,11.13,1.21,8.75,1.21,5.81z"/>
	<g>
		<g>
			<path fill-rule="evenodd" clip-rule="evenodd" d="M8.85,7.76v1.28H4.04C4.09,8.56,4.25,8.1,4.51,7.67c0.26-0.43,0.77-1,1.54-1.72
				c0.62-0.57,1-0.96,1.14-1.17C7.38,4.5,7.47,4.22,7.47,3.94c0-0.31-0.08-0.54-0.25-0.71C7.06,3.07,6.83,2.99,6.54,2.99
				c-0.28,0-0.51,0.08-0.68,0.26C5.69,3.42,5.59,3.71,5.57,4.11L4.2,3.97c0.08-0.76,0.34-1.3,0.76-1.63
				c0.43-0.32,0.97-0.49,1.62-0.49c0.7,0,1.26,0.19,1.66,0.57c0.4,0.38,0.61,0.86,0.61,1.42c0,0.33-0.06,0.63-0.18,0.92
				c-0.11,0.29-0.3,0.6-0.55,0.92C7.96,5.89,7.66,6.19,7.23,6.59C6.79,6.99,6.52,7.25,6.4,7.38C6.29,7.51,6.19,7.64,6.12,7.76H8.85z
				"/>
		</g>
	</g>
</g>
<g>
	<path fill-rule="evenodd" clip-rule="evenodd" fill="#FFFFFF" stroke="#000000" d="M57.9,119.2c0-2.93,2.38-5.32,5.32-5.32
		c2.93,0,5.31,2.391,5.31,5.32s-2.38,5.31-5.31,5.31C60.28,124.51,57.9,122.13,57.9,119.2z"/>
	<g>
		<g>
			<path fill-rule="evenodd" clip-rule="evenodd" d="M60.97,120.71l1.33-0.159c0.04,0.34,0.15,0.6,0.34,0.779
				c0.18,0.18,0.41,0.271,0.67,0.271c0.29,0,0.52-0.11,0.72-0.33c0.19-0.211,0.29-0.5,0.29-0.87c0-0.341-0.09-0.61-0.28-0.82
				c-0.19-0.2-0.41-0.3-0.68-0.3c-0.17,0-0.38,0.04-0.63,0.1l0.15-1.109c0.37,0.01,0.66-0.08,0.85-0.25c0.2-0.17,0.3-0.391,0.3-0.68
				c0-0.24-0.08-0.431-0.22-0.57c-0.14-0.15-0.33-0.22-0.57-0.22c-0.23,0-0.44,0.079-0.6,0.25c-0.17,0.159-0.27,0.399-0.3,0.709
				l-1.27-0.22c0.09-0.43,0.22-0.78,0.4-1.03c0.18-0.26,0.42-0.47,0.74-0.609c0.32-0.15,0.67-0.229,1.07-0.229
				c0.67,0,1.21,0.22,1.62,0.649c0.33,0.351,0.5,0.75,0.5,1.189c0,0.631-0.34,1.131-1.03,1.5c0.41,0.091,0.74,0.291,0.99,0.591
				c0.24,0.31,0.36,0.68,0.36,1.109c0,0.631-0.22,1.17-0.68,1.61c-0.46,0.439-1.03,0.66-1.72,0.66c-0.65,0-1.18-0.18-1.61-0.56
				C61.28,121.801,61.04,121.31,60.97,120.71z"/>
		</g>
	</g>
</g>
<g>
	<path fill-rule="evenodd" clip-rule="evenodd" fill="#FFFFFF" stroke="#000000" d="M57.2,62.51c0-2.94,2.38-5.32,5.31-5.32
		c2.93,0,5.32,2.38,5.32,5.32c0,2.93-2.39,5.31-5.32,5.31C59.58,67.82,57.2,65.44,57.2,62.51z"/>
	<g>
		<g>
			<path fill-rule="evenodd" clip-rule="evenodd" d="M62.51,65.99v-1.439h-2.93V63.35l3.11-4.54h1.15v4.54h0.89v1.201h-0.89v1.439
				H62.51z M62.51,63.35V60.9l-1.64,2.45H62.51z"/>
		</g>
	</g>
</g>
<g>
	<path fill-rule="evenodd" clip-rule="evenodd" fill="#FFFFFF" stroke="#000000" d="M57.9,6.52c0-2.93,2.38-5.31,5.32-5.31
		c2.93,0,5.31,2.38,5.31,5.31c0,2.93-2.38,5.32-5.31,5.32C60.28,11.84,57.9,9.45,57.9,6.52z"/>
	<g>
		<g>
			<path fill-rule="evenodd" clip-rule="evenodd" d="M60.62,8.21l1.37-0.15c0.04,0.31,0.16,0.56,0.35,0.74S62.75,9.07,63,9.07
				c0.29,0,0.53-0.12,0.73-0.35c0.2-0.23,0.3-0.58,0.3-1.05c0-0.44-0.1-0.77-0.3-0.99c-0.19-0.22-0.45-0.33-0.77-0.33
				c-0.39,0-0.74,0.17-1.06,0.52l-1.11-0.16l0.7-3.72h3.63v1.28h-2.59l-0.21,1.22c0.3-0.16,0.62-0.23,0.94-0.23
				c0.6,0,1.12,0.22,1.54,0.66c0.43,0.44,0.64,1.02,0.64,1.72c0,0.59-0.17,1.12-0.51,1.58c-0.47,0.63-1.12,0.95-1.94,0.95
				c-0.66,0-1.2-0.18-1.62-0.53C60.95,9.28,60.71,8.8,60.62,8.21z"/>
		</g>
	</g>
</g>
<g>
	<path fill-rule="evenodd" clip-rule="evenodd" fill="#FFFFFF" stroke="#000000" d="M114.641,119.91c0-2.939,2.38-5.319,5.31-5.319
		c2.94,0,5.32,2.38,5.32,5.319c0,2.931-2.38,5.311-5.32,5.311C117.021,125.221,114.641,122.841,114.641,119.91z"/>
	<g>
		<g>
			<path fill-rule="evenodd" clip-rule="evenodd" d="M122.1,118.03l-1.329,0.141c-0.03-0.271-0.11-0.471-0.25-0.601
				c-0.141-0.13-0.311-0.2-0.53-0.2c-0.29,0-0.54,0.13-0.74,0.39c-0.2,0.261-0.32,0.811-0.38,1.631c0.351-0.4,0.771-0.61,1.28-0.61
				c0.57,0,1.06,0.22,1.47,0.66c0.41,0.43,0.609,1,0.609,1.689c0,0.73-0.209,1.32-0.639,1.761c-0.431,0.439-0.98,0.66-1.661,0.66
				c-0.72,0-1.31-0.28-1.779-0.841c-0.46-0.56-0.7-1.479-0.7-2.76c0-1.31,0.25-2.26,0.729-2.84c0.49-0.58,1.12-0.87,1.891-0.87
				c0.54,0,0.99,0.16,1.35,0.46C121.78,117.01,122,117.45,122.1,118.03z M118.99,121.021c0,0.45,0.101,0.789,0.31,1.03
				c0.2,0.25,0.44,0.37,0.7,0.37s0.471-0.101,0.641-0.301c0.17-0.199,0.25-0.529,0.25-0.979c0-0.461-0.091-0.8-0.271-1.021
				c-0.18-0.22-0.41-0.33-0.69-0.33c-0.26,0-0.479,0.11-0.659,0.311C119.08,120.31,118.99,120.62,118.99,121.021z"/>
		</g>
	</g>
</g>
<g>
	<path fill-rule="evenodd" clip-rule="evenodd" fill="#FFFFFF" stroke="#000000" d="M114.6,63.21c0-2.93,2.38-5.31,5.311-5.31
		s5.319,2.38,5.319,5.31c0,2.94-2.389,5.32-5.319,5.32S114.6,66.15,114.6,63.21z"/>
	<g>
		<g>
			<path fill-rule="evenodd" clip-rule="evenodd" d="M117.82,61.18V59.9h4.7v1c-0.391,0.38-0.791,0.93-1.19,1.64
				c-0.4,0.71-0.7,1.47-0.91,2.27c-0.21,0.811-0.32,1.521-0.31,2.151h-1.33c0.03-0.99,0.229-1.99,0.62-3.021
				c0.38-1.03,0.899-1.95,1.54-2.76H117.82z"/>
		</g>
	</g>
</g>
<g>
	<path fill-rule="evenodd" clip-rule="evenodd" fill="#FFFFFF" stroke="#000000" d="M114.6,6.52c0-2.93,2.38-5.31,5.311-5.31
		s5.319,2.38,5.319,5.31c0,2.93-2.389,5.32-5.319,5.32S114.6,9.45,114.6,6.52z"/>
	<g>
		<g>
			<path fill-rule="evenodd" clip-rule="evenodd" d="M118.74,6.11c-0.36-0.15-0.62-0.36-0.78-0.62s-0.239-0.55-0.239-0.86
				c0-0.53,0.189-0.98,0.56-1.32c0.37-0.35,0.899-0.53,1.59-0.53c0.68,0,1.21,0.18,1.58,0.53c0.38,0.34,0.57,0.79,0.57,1.32
				c0,0.33-0.091,0.63-0.261,0.89c-0.169,0.25-0.419,0.45-0.729,0.59c0.399,0.16,0.699,0.39,0.91,0.7c0.2,0.3,0.31,0.66,0.31,1.06
				c0,0.66-0.21,1.19-0.63,1.61c-0.43,0.41-0.99,0.62-1.69,0.62c-0.649,0-1.189-0.17-1.619-0.51c-0.511-0.41-0.771-0.96-0.771-1.66
				c0-0.39,0.101-0.75,0.29-1.07C118.021,6.53,118.32,6.28,118.74,6.11z M119.021,4.73c0,0.27,0.079,0.48,0.229,0.64
				c0.16,0.15,0.36,0.23,0.62,0.23s0.471-0.08,0.63-0.24c0.15-0.15,0.229-0.36,0.229-0.64c0-0.26-0.079-0.46-0.229-0.62
				c-0.159-0.15-0.359-0.23-0.62-0.23c-0.26,0-0.47,0.08-0.62,0.24C119.1,4.26,119.021,4.47,119.021,4.73z M118.891,7.79
				c0,0.38,0.1,0.68,0.289,0.89c0.2,0.21,0.44,0.31,0.73,0.31c0.28,0,0.52-0.1,0.7-0.3c0.189-0.2,0.28-0.5,0.28-0.88
				c0-0.34-0.091-0.61-0.28-0.81c-0.19-0.2-0.431-0.31-0.72-0.31c-0.341,0-0.591,0.12-0.75,0.35
				C118.979,7.27,118.891,7.52,118.891,7.79z"/>
		</g>
	</g>
</g>
<g>
	<path fill-rule="evenodd" clip-rule="evenodd" fill="#FFFFFF" stroke="#000000" d="M171.29,119.91c0-2.939,2.38-5.319,5.31-5.319
		c2.94,0,5.32,2.38,5.32,5.319c0,2.931-2.38,5.311-5.32,5.311C173.67,125.221,171.29,122.841,171.29,119.91z"/>
	<g>
		<g>
			<path fill-rule="evenodd" clip-rule="evenodd" d="M174.51,121.78l1.331-0.15c0.029,0.271,0.109,0.471,0.25,0.601
				c0.139,0.13,0.319,0.199,0.539,0.199c0.29,0,0.53-0.129,0.72-0.39c0.2-0.26,0.33-0.81,0.391-1.63c-0.35,0.399-0.78,0.6-1.3,0.61
				c-0.561-0.011-1.05-0.22-1.461-0.66c-0.399-0.431-0.609-1-0.609-1.689c0-0.73,0.221-1.311,0.65-1.761
				c0.43-0.439,0.979-0.67,1.649-0.67c0.721,0,1.32,0.29,1.78,0.851c0.47,0.56,0.7,1.479,0.7,2.77c0,1.311-0.24,2.25-0.73,2.83
				c-0.479,0.58-1.109,0.869-1.89,0.869c-0.56,0-1.01-0.149-1.36-0.449C174.83,122.81,174.61,122.37,174.51,121.78z M177.61,118.78
				c0-0.439-0.101-0.79-0.3-1.03c-0.211-0.25-0.44-0.37-0.711-0.37c-0.25,0-0.459,0.101-0.629,0.3c-0.171,0.2-0.25,0.53-0.25,0.991
				c0,0.459,0.09,0.8,0.27,1.009c0.18,0.221,0.41,0.33,0.689,0.33c0.261,0,0.48-0.1,0.661-0.31
				C177.521,119.49,177.61,119.18,177.61,118.78z"/>
		</g>
	</g>
</g>
<g>
	<path fill-rule="evenodd" clip-rule="evenodd" fill="#FFFFFF" stroke="#000000" d="M174.4,67.82c-2.94,0-5.32-2.38-5.32-5.31
		c0-2.94,2.38-5.32,5.32-5.32h4.42c2.939,0,5.32,2.38,5.32,5.32c0,2.93-2.381,5.31-5.32,5.31H174.4z"/>
	<g>
		<g>
			<path fill-rule="evenodd" clip-rule="evenodd" d="M174.7,66.03h-1.38v-5.17c-0.5,0.47-1.091,0.82-1.771,1.04v-1.24
				c0.36-0.12,0.75-0.34,1.171-0.67c0.42-0.33,0.709-0.71,0.859-1.15h1.12V66.03z"/>
			<path fill-rule="evenodd" clip-rule="evenodd" d="M179.07,58.84c0.689,0,1.229,0.25,1.62,0.75c0.47,0.58,0.7,1.55,0.7,2.91
				c0,1.35-0.23,2.33-0.7,2.921c-0.391,0.489-0.931,0.729-1.62,0.729c-0.7,0-1.26-0.26-1.69-0.8c-0.42-0.541-0.64-1.49-0.64-2.86
				c0-1.35,0.239-2.32,0.71-2.91C177.83,59.09,178.37,58.84,179.07,58.84z M179.07,59.98c-0.17,0-0.32,0.05-0.45,0.16
				s-0.229,0.3-0.3,0.57c-0.1,0.35-0.141,0.95-0.141,1.79c0,0.84,0.041,1.42,0.12,1.73c0.091,0.32,0.2,0.52,0.32,0.63
				c0.13,0.101,0.28,0.16,0.45,0.16c0.159,0,0.31-0.06,0.439-0.16c0.131-0.11,0.23-0.301,0.301-0.57c0.1-0.35,0.14-0.95,0.14-1.79
				c0-0.84-0.04-1.42-0.12-1.73c-0.09-0.31-0.189-0.52-0.32-0.63C179.38,60.03,179.229,59.98,179.07,59.98z"/>
		</g>
	</g>
</g>
<g>
	<path fill-rule="evenodd" clip-rule="evenodd" fill="#FFFFFF" stroke="#000000" d="M174.55,11.13c-2.939,0-5.32-2.38-5.32-5.32
		c0-2.93,2.381-5.31,5.32-5.31h4.421c2.939,0,5.319,2.38,5.319,5.31c0,2.94-2.38,5.32-5.319,5.32H174.55z"/>
	<g>
		<g>
			<path fill-rule="evenodd" clip-rule="evenodd" d="M175.26,9.34h-1.369V4.17c-0.511,0.47-1.101,0.81-1.78,1.04V3.96
				c0.36-0.11,0.75-0.34,1.17-0.66c0.42-0.33,0.71-0.71,0.86-1.15h1.119V9.34z"/>
			<path fill-rule="evenodd" clip-rule="evenodd" d="M180.271,9.34h-1.37V4.17c-0.5,0.47-1.101,0.81-1.78,1.04V3.96
				c0.359-0.11,0.75-0.34,1.17-0.66c0.42-0.33,0.71-0.71,0.87-1.15h1.11V9.34z"/>
		</g>
	</g>
</g>
<g>
	<g>
		<g>
			<path fill-rule="evenodd" clip-rule="evenodd" d="M18.89,114.051h-1.57l-0.63-1.63h-2.86l-0.59,1.63h-1.53l2.78-7.16h1.53
				L18.89,114.051z M16.23,111.21l-0.99-2.65l-0.97,2.65H16.23z"/>
		</g>
	</g>
	<g>
		<g>
			<path fill-rule="evenodd" clip-rule="evenodd" d="M51.24,106.891h2.87c0.56,0,0.98,0.02,1.26,0.069c0.28,0.05,0.53,0.15,0.75,0.3
				c0.22,0.141,0.4,0.341,0.55,0.591c0.15,0.25,0.22,0.529,0.22,0.84c0,0.34-0.09,0.64-0.27,0.92s-0.43,0.49-0.74,0.63
				c0.44,0.13,0.77,0.351,1.01,0.65c0.23,0.31,0.35,0.669,0.35,1.08c0,0.33-0.08,0.64-0.23,0.95c-0.15,0.31-0.35,0.55-0.62,0.739
				c-0.26,0.181-0.58,0.3-0.97,0.34c-0.24,0.021-0.82,0.04-1.74,0.051h-2.44V106.891z M52.69,108.08v1.66h0.95
				c0.56,0,0.91-0.01,1.05-0.03c0.24-0.03,0.44-0.109,0.58-0.26c0.14-0.141,0.21-0.32,0.21-0.55s-0.06-0.41-0.18-0.54
				c-0.12-0.14-0.3-0.23-0.54-0.26c-0.15-0.01-0.56-0.021-1.24-0.021H52.69z M52.69,110.93v1.911h1.34c0.52,0,0.85-0.011,0.99-0.04
				c0.21-0.041,0.39-0.141,0.52-0.291c0.14-0.149,0.21-0.35,0.21-0.609c0-0.21-0.06-0.391-0.16-0.54c-0.1-0.15-0.25-0.26-0.45-0.33
				s-0.63-0.101-1.28-0.101H52.69z"/>
		</g>
	</g>
	<g>
		<g>
			<path fill-rule="evenodd" clip-rule="evenodd" d="M12.43,67.51h2.64c0.59,0,1.05,0.05,1.36,0.141c0.42,0.12,0.78,0.34,1.08,0.659
				c0.3,0.311,0.53,0.7,0.68,1.161c0.16,0.45,0.24,1.02,0.24,1.689c0,0.59-0.07,1.1-0.22,1.52c-0.18,0.521-0.44,0.95-0.77,1.271
				c-0.25,0.24-0.59,0.43-1.01,0.57c-0.32,0.1-0.75,0.15-1.28,0.15h-2.72V67.51z M13.87,68.721v4.74h1.08
				c0.41,0,0.7-0.021,0.88-0.061c0.23-0.061,0.42-0.16,0.58-0.3c0.15-0.14,0.28-0.37,0.38-0.69s0.14-0.76,0.14-1.31
				c0-0.561-0.04-0.98-0.14-1.28c-0.1-0.29-0.24-0.53-0.41-0.69c-0.18-0.169-0.4-0.279-0.67-0.34c-0.2-0.04-0.6-0.069-1.19-0.069
				H13.87z"/>
		</g>
	</g>
	<g>
		<g>
			<path fill-rule="evenodd" clip-rule="evenodd" d="M55.82,72.04l1.4,0.44c-0.21,0.779-0.57,1.359-1.07,1.74
				c-0.5,0.38-1.13,0.569-1.9,0.569c-0.95,0-1.73-0.319-2.35-0.97c-0.61-0.649-0.91-1.54-0.91-2.67c0-1.189,0.3-2.11,0.92-2.771
				c0.61-0.659,1.42-0.989,2.43-0.989c0.87,0,1.58,0.26,2.13,0.78c0.32,0.3,0.57,0.739,0.73,1.31l-1.43,0.35
				c-0.08-0.369-0.26-0.67-0.53-0.88c-0.27-0.22-0.59-0.32-0.98-0.32c-0.53,0-0.96,0.19-1.29,0.57s-0.5,0.99-0.5,1.851
				c0,0.899,0.17,1.55,0.49,1.93c0.33,0.38,0.75,0.579,1.27,0.579c0.39,0,0.72-0.13,0.99-0.369C55.5,72.95,55.7,72.56,55.82,72.04z"
				/>
		</g>
	</g>
</g>
<g opacity="0.25">
	<g>
		<g>
			<path fill-rule="evenodd" clip-rule="evenodd" d="M132.891,57.42h-1.57l-0.63-1.62h-2.86l-0.59,1.62h-1.53l2.78-7.16h1.53
				L132.891,57.42z M130.229,54.59l-0.989-2.66l-0.97,2.66H130.229z"/>
		</g>
	</g>
	<g>
		<g>
			<path fill-rule="evenodd" clip-rule="evenodd" d="M165.24,50.26h2.87c0.56,0,0.98,0.03,1.26,0.07c0.28,0.05,0.53,0.15,0.75,0.3
				c0.221,0.15,0.4,0.35,0.55,0.6c0.15,0.25,0.221,0.53,0.221,0.83c0,0.34-0.091,0.65-0.271,0.93s-0.43,0.49-0.74,0.63
				c0.44,0.12,0.771,0.34,1.011,0.65c0.229,0.3,0.35,0.66,0.35,1.08c0,0.32-0.08,0.64-0.23,0.95c-0.149,0.3-0.35,0.55-0.619,0.73
				c-0.261,0.19-0.58,0.3-0.971,0.34c-0.24,0.03-0.82,0.04-1.74,0.05h-2.439V50.26z M166.69,51.45v1.66h0.95
				c0.56,0,0.909-0.01,1.05-0.02c0.239-0.03,0.439-0.12,0.58-0.26c0.14-0.14,0.209-0.33,0.209-0.56c0-0.22-0.06-0.4-0.18-0.54
				c-0.12-0.14-0.3-0.22-0.54-0.25c-0.149-0.02-0.56-0.03-1.239-0.03H166.69z M166.69,54.3v1.91h1.34c0.52,0,0.85-0.01,0.99-0.04
				c0.209-0.04,0.39-0.13,0.52-0.28c0.14-0.16,0.21-0.36,0.21-0.61c0-0.22-0.06-0.4-0.159-0.55c-0.101-0.15-0.25-0.26-0.45-0.33
				c-0.2-0.06-0.631-0.1-1.28-0.1H166.69z"/>
		</g>
	</g>
	<g>
		<g>
			<path fill-rule="evenodd" clip-rule="evenodd" d="M126.43,10.89h2.641c0.59,0,1.05,0.04,1.359,0.13
				c0.42,0.13,0.78,0.35,1.08,0.66c0.301,0.32,0.53,0.7,0.681,1.16c0.159,0.46,0.239,1.02,0.239,1.69c0,0.59-0.069,1.1-0.22,1.53
				c-0.18,0.52-0.439,0.94-0.77,1.26c-0.25,0.25-0.591,0.44-1.011,0.57c-0.319,0.1-0.75,0.15-1.279,0.15h-2.721V10.89z M127.87,12.1
				v4.74h1.08c0.41,0,0.7-0.02,0.88-0.07c0.23-0.06,0.42-0.16,0.58-0.3c0.15-0.14,0.28-0.37,0.38-0.69
				c0.101-0.32,0.14-0.76,0.14-1.31s-0.039-0.98-0.14-1.27c-0.1-0.3-0.24-0.53-0.41-0.7c-0.18-0.16-0.4-0.28-0.67-0.33
				c-0.2-0.05-0.6-0.07-1.189-0.07H127.87z"/>
		</g>
	</g>
	<g>
		<g>
			<path fill-rule="evenodd" clip-rule="evenodd" d="M169.82,15.41l1.4,0.45c-0.211,0.78-0.57,1.36-1.07,1.74
				c-0.5,0.38-1.13,0.57-1.9,0.57c-0.95,0-1.729-0.33-2.35-0.98c-0.61-0.65-0.91-1.54-0.91-2.66c0-1.19,0.3-2.12,0.92-2.78
				c0.61-0.66,1.42-0.99,2.431-0.99c0.869,0,1.579,0.26,2.13,0.78c0.319,0.31,0.569,0.75,0.729,1.32l-1.43,0.34
				c-0.08-0.37-0.261-0.66-0.53-0.88c-0.27-0.21-0.59-0.32-0.98-0.32c-0.53,0-0.96,0.19-1.289,0.57c-0.33,0.38-0.5,1-0.5,1.85
				c0,0.91,0.17,1.55,0.489,1.93c0.33,0.39,0.75,0.58,1.27,0.58c0.391,0,0.721-0.12,0.991-0.37
				C169.5,16.32,169.7,15.94,169.82,15.41z"/>
		</g>
	</g>
</g>
<g opacity="0.25">
	<g>
		<g>
			<path fill-rule="evenodd" clip-rule="evenodd" d="M75.81,57.42h-1.57l-0.63-1.62h-2.86l-0.59,1.62h-1.53l2.78-7.16h1.53
				L75.81,57.42z M73.15,54.59l-0.99-2.66l-0.96,2.66H73.15z"/>
		</g>
	</g>
	<g>
		<g>
			<path fill-rule="evenodd" clip-rule="evenodd" d="M108.17,50.26h2.86c0.561,0,0.99,0.03,1.26,0.07c0.28,0.05,0.53,0.15,0.75,0.3
				s0.4,0.35,0.551,0.6c0.149,0.25,0.22,0.53,0.22,0.83c0,0.34-0.09,0.65-0.271,0.93c-0.18,0.28-0.43,0.49-0.74,0.63
				c0.44,0.12,0.78,0.34,1.011,0.65c0.239,0.3,0.35,0.66,0.35,1.08c0,0.32-0.069,0.64-0.22,0.95c-0.16,0.3-0.36,0.55-0.62,0.73
				c-0.271,0.19-0.591,0.3-0.971,0.34c-0.239,0.03-0.829,0.04-1.75,0.05h-2.43V50.26z M109.61,51.45v1.66h0.95
				c0.56,0,0.91-0.01,1.05-0.02c0.25-0.03,0.439-0.12,0.58-0.26c0.14-0.14,0.21-0.33,0.21-0.56c0-0.22-0.06-0.4-0.18-0.54
				c-0.121-0.14-0.301-0.22-0.541-0.25c-0.149-0.02-0.56-0.03-1.239-0.03H109.61z M109.61,54.3v1.91h1.34
				c0.521,0,0.85-0.01,0.99-0.04c0.22-0.04,0.39-0.13,0.53-0.28c0.129-0.16,0.199-0.36,0.199-0.61c0-0.22-0.05-0.4-0.16-0.55
				c-0.1-0.15-0.25-0.26-0.449-0.33c-0.2-0.06-0.62-0.1-1.28-0.1H109.61z"/>
		</g>
	</g>
	<g>
		<g>
			<path fill-rule="evenodd" clip-rule="evenodd" d="M69.35,10.89h2.64c0.6,0,1.05,0.04,1.36,0.13c0.42,0.13,0.78,0.35,1.08,0.66
				c0.3,0.32,0.53,0.7,0.69,1.16c0.15,0.46,0.23,1.02,0.23,1.69c0,0.59-0.07,1.1-0.22,1.53c-0.18,0.52-0.43,0.94-0.77,1.26
				c-0.25,0.25-0.59,0.44-1.01,0.57c-0.32,0.1-0.75,0.15-1.28,0.15h-2.72V10.89z M70.79,12.1v4.74h1.08c0.41,0,0.7-0.02,0.88-0.07
				c0.23-0.06,0.43-0.16,0.58-0.3c0.16-0.14,0.28-0.37,0.38-0.69c0.1-0.32,0.15-0.76,0.15-1.31s-0.05-0.98-0.15-1.27
				c-0.1-0.3-0.23-0.53-0.41-0.7c-0.18-0.16-0.4-0.28-0.67-0.33c-0.2-0.05-0.6-0.07-1.19-0.07H70.79z"/>
		</g>
	</g>
	<g>
		<g>
			<path fill-rule="evenodd" clip-rule="evenodd" d="M112.74,15.41l1.4,0.45c-0.211,0.78-0.57,1.36-1.07,1.74
				c-0.5,0.38-1.13,0.57-1.9,0.57c-0.949,0-1.729-0.33-2.34-0.98c-0.62-0.65-0.92-1.54-0.92-2.66c0-1.19,0.311-2.12,0.92-2.78
				c0.62-0.66,1.42-0.99,2.43-0.99c0.87,0,1.581,0.26,2.131,0.78c0.33,0.31,0.569,0.75,0.729,1.32l-1.43,0.34
				c-0.08-0.37-0.261-0.66-0.53-0.88c-0.27-0.21-0.59-0.32-0.98-0.32c-0.529,0-0.959,0.19-1.289,0.57s-0.49,1-0.49,1.85
				c0,0.91,0.16,1.55,0.49,1.93c0.319,0.39,0.739,0.58,1.26,0.58c0.39,0,0.72-0.12,1-0.37C112.42,16.32,112.62,15.94,112.74,15.41z"
				/>
		</g>
	</g>
</g>
<g opacity="0.25">
	<g>
		<g>
			<path fill-rule="evenodd" clip-rule="evenodd" d="M19.22,57.42h-1.57l-0.62-1.62h-2.86l-0.59,1.62h-1.54l2.79-7.16h1.53
				L19.22,57.42z M16.56,54.59l-0.98-2.66l-0.97,2.66H16.56z"/>
		</g>
	</g>
	<g>
		<g>
			<path fill-rule="evenodd" clip-rule="evenodd" d="M51.58,50.26h2.86c0.57,0,0.99,0.03,1.27,0.07c0.28,0.05,0.53,0.15,0.75,0.3
				c0.22,0.15,0.4,0.35,0.55,0.6c0.14,0.25,0.22,0.53,0.22,0.83c0,0.34-0.09,0.65-0.28,0.93c-0.18,0.28-0.42,0.49-0.73,0.63
				c0.44,0.12,0.77,0.34,1.01,0.65c0.23,0.3,0.35,0.66,0.35,1.08c0,0.32-0.08,0.64-0.23,0.95c-0.15,0.3-0.36,0.55-0.62,0.73
				c-0.26,0.19-0.58,0.3-0.97,0.34c-0.24,0.03-0.82,0.04-1.74,0.05h-2.44V50.26z M53.03,51.45v1.66h0.94c0.57,0,0.92-0.01,1.05-0.02
				c0.25-0.03,0.45-0.12,0.59-0.26c0.14-0.14,0.21-0.33,0.21-0.56c0-0.22-0.06-0.4-0.18-0.54c-0.13-0.14-0.31-0.22-0.55-0.25
				c-0.14-0.02-0.55-0.03-1.23-0.03H53.03z M53.03,54.3v1.91h1.33c0.53,0,0.86-0.01,1-0.04c0.21-0.04,0.39-0.13,0.52-0.28
				c0.14-0.16,0.2-0.36,0.2-0.61c0-0.22-0.05-0.4-0.15-0.55c-0.11-0.15-0.26-0.26-0.45-0.33c-0.2-0.06-0.63-0.1-1.29-0.1H53.03z"/>
		</g>
	</g>
	<g>
		<g>
			<path fill-rule="evenodd" clip-rule="evenodd" d="M12.76,10.89h2.65c0.59,0,1.05,0.04,1.36,0.13c0.42,0.13,0.78,0.35,1.08,0.66
				c0.3,0.32,0.52,0.7,0.68,1.16c0.16,0.46,0.24,1.02,0.24,1.69c0,0.59-0.08,1.1-0.22,1.53c-0.18,0.52-0.44,0.94-0.77,1.26
				c-0.25,0.25-0.59,0.44-1.02,0.57c-0.32,0.1-0.74,0.15-1.28,0.15h-2.72V10.89z M14.21,12.1v4.74h1.08c0.4,0,0.69-0.02,0.87-0.07
				c0.24-0.06,0.43-0.16,0.59-0.3c0.15-0.14,0.28-0.37,0.37-0.69c0.1-0.32,0.15-0.76,0.15-1.31s-0.05-0.98-0.15-1.27
				c-0.09-0.3-0.23-0.53-0.41-0.7c-0.17-0.16-0.39-0.28-0.66-0.33c-0.21-0.05-0.6-0.07-1.19-0.07H14.21z"/>
		</g>
	</g>
	<g>
		<g>
			<path fill-rule="evenodd" clip-rule="evenodd" d="M56.16,15.41l1.4,0.45c-0.22,0.78-0.57,1.36-1.07,1.74
				c-0.5,0.38-1.14,0.57-1.91,0.57c-0.95,0-1.73-0.33-2.34-0.98c-0.61-0.65-0.92-1.54-0.92-2.66c0-1.19,0.31-2.12,0.93-2.78
				c0.61-0.66,1.42-0.99,2.42-0.99c0.88,0,1.59,0.26,2.14,0.78c0.32,0.31,0.57,0.75,0.73,1.32l-1.43,0.34
				c-0.09-0.37-0.26-0.66-0.53-0.88C55.31,12.11,54.98,12,54.6,12c-0.53,0-0.96,0.19-1.29,0.57s-0.5,1-0.5,1.85
				c0,0.91,0.16,1.55,0.49,1.93c0.33,0.39,0.75,0.58,1.27,0.58c0.38,0,0.71-0.12,0.99-0.37C55.84,16.32,56.04,15.94,56.16,15.41z"/>
		</g>
	</g>
</g>
<g opacity="0.25">
	<g>
		<g>
			<path fill-rule="evenodd" clip-rule="evenodd" d="M132.891,114.141h-1.57l-0.63-1.62h-2.86l-0.59,1.62h-1.53l2.78-7.15h1.53
				L132.891,114.141z M130.229,111.31l-0.989-2.649l-0.97,2.649H130.229z"/>
		</g>
	</g>
	<g>
		<g>
			<path fill-rule="evenodd" clip-rule="evenodd" d="M165.24,106.99h2.87c0.56,0,0.98,0.02,1.26,0.069
				c0.28,0.041,0.53,0.141,0.75,0.291c0.221,0.149,0.4,0.35,0.55,0.6c0.15,0.25,0.221,0.53,0.221,0.84c0,0.33-0.091,0.64-0.271,0.92
				s-0.43,0.49-0.74,0.631c0.44,0.13,0.771,0.339,1.011,0.649c0.229,0.311,0.35,0.67,0.35,1.08c0,0.33-0.08,0.64-0.23,0.95
				c-0.149,0.31-0.35,0.55-0.619,0.739c-0.261,0.181-0.58,0.291-0.971,0.341c-0.24,0.02-0.82,0.04-1.74,0.04h-2.439V106.99z
				 M166.69,108.18v1.65h0.95c0.56,0,0.909,0,1.05-0.021c0.239-0.029,0.439-0.119,0.58-0.259c0.14-0.141,0.209-0.33,0.209-0.561
				c0-0.22-0.06-0.399-0.18-0.54c-0.12-0.13-0.3-0.22-0.54-0.25c-0.149-0.01-0.56-0.021-1.239-0.021H166.69z M166.69,111.021v1.92
				h1.34c0.52,0,0.85-0.02,0.99-0.04c0.209-0.04,0.39-0.141,0.52-0.29c0.14-0.15,0.21-0.351,0.21-0.61c0-0.21-0.06-0.399-0.159-0.55
				c-0.101-0.149-0.25-0.25-0.45-0.32s-0.631-0.109-1.28-0.109H166.69z"/>
		</g>
	</g>
	<g>
		<g>
			<path fill-rule="evenodd" clip-rule="evenodd" d="M126.43,67.61h2.641c0.59,0,1.05,0.05,1.359,0.14
				c0.42,0.12,0.78,0.34,1.08,0.66c0.301,0.311,0.53,0.7,0.681,1.16c0.159,0.45,0.239,1.02,0.239,1.689
				c0,0.591-0.069,1.091-0.22,1.521c-0.18,0.521-0.439,0.94-0.77,1.271c-0.25,0.239-0.591,0.43-1.011,0.569
				c-0.319,0.101-0.75,0.15-1.279,0.15h-2.721V67.61z M127.87,68.82v4.739h1.08c0.41,0,0.7-0.02,0.88-0.069
				c0.23-0.061,0.42-0.15,0.58-0.29c0.15-0.141,0.28-0.37,0.38-0.7c0.101-0.32,0.14-0.75,0.14-1.31c0-0.55-0.039-0.97-0.14-1.27
				c-0.1-0.301-0.24-0.53-0.41-0.69c-0.18-0.171-0.4-0.28-0.67-0.34c-0.2-0.051-0.6-0.07-1.189-0.07H127.87z"/>
		</g>
	</g>
	<g>
		<g>
			<path fill-rule="evenodd" clip-rule="evenodd" d="M169.82,72.141l1.4,0.439c-0.211,0.78-0.57,1.36-1.07,1.74s-1.13,0.57-1.9,0.57
				c-0.95,0-1.729-0.32-2.35-0.97c-0.61-0.65-0.91-1.541-0.91-2.671c0-1.19,0.3-2.109,0.92-2.77c0.61-0.66,1.42-0.99,2.431-0.99
				c0.869,0,1.579,0.26,2.13,0.77c0.319,0.311,0.569,0.75,0.729,1.32l-1.43,0.341c-0.08-0.37-0.261-0.661-0.53-0.87
				c-0.27-0.221-0.59-0.33-0.98-0.33c-0.53,0-0.96,0.189-1.289,0.569c-0.33,0.39-0.5,1-0.5,1.86c0,0.9,0.17,1.54,0.489,1.93
				c0.33,0.381,0.75,0.57,1.27,0.57c0.391,0,0.721-0.12,0.991-0.36C169.5,73.04,169.7,72.66,169.82,72.141z"/>
		</g>
	</g>
</g>
<g opacity="0.25">
	<g>
		<g>
			<path fill-rule="evenodd" clip-rule="evenodd" d="M75.81,114.141h-1.57l-0.63-1.62h-2.86l-0.59,1.62h-1.53l2.78-7.15h1.53
				L75.81,114.141z M73.15,111.31l-0.99-2.649l-0.96,2.649H73.15z"/>
		</g>
	</g>
	<g>
		<g>
			<path fill-rule="evenodd" clip-rule="evenodd" d="M108.17,106.99h2.86c0.561,0,0.99,0.02,1.26,0.069
				c0.28,0.041,0.53,0.141,0.75,0.291c0.22,0.149,0.4,0.35,0.551,0.6c0.149,0.25,0.22,0.53,0.22,0.84c0,0.33-0.09,0.64-0.271,0.92
				c-0.18,0.28-0.43,0.49-0.74,0.631c0.44,0.13,0.78,0.339,1.011,0.649c0.239,0.311,0.35,0.67,0.35,1.08
				c0,0.33-0.069,0.64-0.22,0.95c-0.16,0.31-0.36,0.55-0.62,0.739c-0.271,0.181-0.591,0.291-0.971,0.341
				c-0.239,0.02-0.829,0.04-1.75,0.04h-2.43V106.99z M109.61,108.18v1.65h0.95c0.56,0,0.91,0,1.05-0.021
				c0.25-0.029,0.439-0.119,0.58-0.259c0.14-0.141,0.21-0.33,0.21-0.561c0-0.22-0.06-0.399-0.18-0.54
				c-0.121-0.13-0.301-0.22-0.541-0.25c-0.149-0.01-0.56-0.021-1.239-0.021H109.61z M109.61,111.021v1.92h1.34
				c0.521,0,0.85-0.02,0.99-0.04c0.22-0.04,0.39-0.141,0.53-0.29c0.129-0.15,0.199-0.351,0.199-0.61c0-0.21-0.05-0.399-0.16-0.55
				c-0.1-0.149-0.25-0.25-0.449-0.32c-0.2-0.07-0.62-0.109-1.28-0.109H109.61z"/>
		</g>
	</g>
	<g>
		<g>
			<path fill-rule="evenodd" clip-rule="evenodd" d="M69.35,67.61h2.64c0.6,0,1.05,0.05,1.36,0.14c0.42,0.12,0.78,0.34,1.08,0.66
				c0.3,0.311,0.53,0.7,0.69,1.16c0.15,0.45,0.23,1.02,0.23,1.689c0,0.591-0.07,1.091-0.22,1.521c-0.18,0.521-0.43,0.94-0.77,1.271
				c-0.25,0.239-0.59,0.43-1.01,0.569c-0.32,0.101-0.75,0.15-1.28,0.15h-2.72V67.61z M70.79,68.82v4.739h1.08
				c0.41,0,0.7-0.02,0.88-0.069c0.23-0.061,0.43-0.15,0.58-0.29c0.16-0.141,0.28-0.37,0.38-0.7c0.1-0.32,0.15-0.75,0.15-1.31
				c0-0.55-0.05-0.97-0.15-1.27c-0.1-0.301-0.23-0.53-0.41-0.69c-0.18-0.171-0.4-0.28-0.67-0.34c-0.2-0.051-0.6-0.07-1.19-0.07
				H70.79z"/>
		</g>
	</g>
	<g>
		<g>
			<path fill-rule="evenodd" clip-rule="evenodd" d="M112.74,72.141l1.4,0.439c-0.211,0.78-0.57,1.36-1.07,1.74s-1.13,0.57-1.9,0.57
				c-0.949,0-1.729-0.32-2.34-0.97c-0.62-0.65-0.92-1.541-0.92-2.671c0-1.19,0.311-2.109,0.92-2.77c0.62-0.66,1.42-0.99,2.43-0.99
				c0.87,0,1.581,0.26,2.131,0.77c0.33,0.311,0.569,0.75,0.729,1.32l-1.43,0.341c-0.08-0.37-0.261-0.661-0.53-0.87
				c-0.27-0.221-0.59-0.33-0.98-0.33c-0.529,0-0.959,0.189-1.289,0.569c-0.33,0.39-0.49,1-0.49,1.86c0,0.9,0.16,1.54,0.49,1.93
				c0.319,0.381,0.739,0.57,1.26,0.57c0.39,0,0.72-0.12,1-0.36C112.42,73.04,112.62,72.66,112.74,72.141z"/>
		</g>
	</g>
</g>
<polygon fill-rule="evenodd" clip-rule="evenodd" points="47.01,112.06 47.01,111.06 17.02,111.06 17.02,110.06 47.01,110.06 
	47.01,109.07 50.51,110.56 "/>
<polygon fill-rule="evenodd" clip-rule="evenodd" points="22.24,72.76 18.74,71.26 22.24,69.771 22.24,70.76 51.47,70.76 
	51.47,71.76 22.24,71.76 "/>
<polygon fill-rule="evenodd" clip-rule="evenodd" points="53.48,107.16 53.48,79.28 52.48,79.28 53.98,75.78 55.48,79.28 
	54.48,79.28 54.48,107.16 "/>
</svg>
