<?xml version="1.0" encoding="utf-8"?>
<!-- Generator: Adobe Illustrator 14.0.0, SVG Export Plug-In . SVG Version: 6.00 Build 43363)  -->
<!DOCTYPE svg PUBLIC "-//W3C//DTD SVG 1.0//EN" "http://www.w3.org/TR/2001/REC-SVG-20010904/DTD/svg10.dtd">
<svg version="1.0" xmlns="http://www.w3.org/2000/svg" xmlns:xlink="http://www.w3.org/1999/xlink" x="0px" y="0px"
	 width="521.28px" height="417.41px" viewBox="0 0 521.28 417.41" enable-background="new 0 0 521.28 417.41" xml:space="preserve">
<g id="BackBuffer" display="none">
</g>
<g id="Viewport_x5F_BG">
	<g>
		
			<line fill-rule="evenodd" clip-rule="evenodd" fill="none" stroke="#D4D4D4" stroke-linecap="round" stroke-linejoin="round" x1="65.88" y1="164.03" x2="520.28" y2="283.79"/>
		
			<line fill-rule="evenodd" clip-rule="evenodd" fill="none" stroke="#D4D4D4" stroke-linecap="round" stroke-linejoin="round" x1="397.56" y1="416.41" x2="520.28" y2="187.69"/>
		
			<line fill-rule="evenodd" clip-rule="evenodd" fill="none" stroke="#D4D4D4" stroke-linecap="round" stroke-linejoin="round" x1="163.75" y1="95.23" x2="520.28" y2="173.12"/>
		
			<line fill-rule="evenodd" clip-rule="evenodd" fill="none" stroke="#D4D4D4" stroke-linecap="round" stroke-linejoin="round" x1="152.94" y1="102.83" x2="520.28" y2="184.84"/>
		
			<line fill-rule="evenodd" clip-rule="evenodd" fill="none" stroke="#D4D4D4" stroke-linecap="round" stroke-linejoin="round" x1="141.76" y1="110.69" x2="520.28" y2="197.08"/>
		
			<line fill-rule="evenodd" clip-rule="evenodd" fill="none" stroke="#D4D4D4" stroke-linecap="round" stroke-linejoin="round" x1="130.2" y1="118.82" x2="520.28" y2="209.88"/>
		
			<line fill-rule="evenodd" clip-rule="evenodd" fill="none" stroke="#D4D4D4" stroke-linecap="round" stroke-linejoin="round" x1="435.93" y1="416.41" x2="520.28" y2="243.34"/>
		
			<line fill-rule="evenodd" clip-rule="evenodd" fill="none" stroke="#D4D4D4" stroke-linecap="round" stroke-linejoin="round" x1="105.84" y1="135.94" x2="520.28" y2="237.32"/>
		
			<line fill-rule="evenodd" clip-rule="evenodd" fill="none" stroke="#D4D4D4" stroke-linecap="round" stroke-linejoin="round" x1="93" y1="144.96" x2="520.28" y2="252.051"/>
		
			<line fill-rule="evenodd" clip-rule="evenodd" fill="none" stroke="#D4D4D4" stroke-linecap="round" stroke-linejoin="round" x1="79.69" y1="154.32" x2="520.28" y2="267.521"/>
		
			<line fill-rule="evenodd" clip-rule="evenodd" fill="none" stroke="#D4D4D4" stroke-linecap="round" stroke-linejoin="round" x1="205.69" y1="416.41" x2="421.44" y2="140.75"/>
		
			<line fill-rule="evenodd" clip-rule="evenodd" fill="none" stroke="#D4D4D4" stroke-linecap="round" stroke-linejoin="round" x1="1" y1="279.56" x2="413.081" y2="416.41"/>
		
			<line fill-rule="evenodd" clip-rule="evenodd" fill="none" stroke="#D4D4D4" stroke-linecap="round" stroke-linejoin="round" x1="1" y1="301.16" x2="336.78" y2="416.41"/>
		
			<line fill-rule="evenodd" clip-rule="evenodd" fill="none" stroke="#D4D4D4" stroke-linecap="round" stroke-linejoin="round" x1="359.19" y1="416.41" x2="509.61" y2="159.61"/>
		
			<line fill-rule="evenodd" clip-rule="evenodd" fill="none" stroke="#D4D4D4" stroke-linecap="round" stroke-linejoin="round" x1="320.81" y1="416.41" x2="486.959" y2="154.77"/>
		
			<line fill-rule="evenodd" clip-rule="evenodd" fill="none" stroke="#D4D4D4" stroke-linecap="round" stroke-linejoin="round" x1="1" y1="324.25" x2="260.48" y2="416.41"/>
		
			<line fill-rule="evenodd" clip-rule="evenodd" fill="none" stroke="#D4D4D4" stroke-linecap="round" stroke-linejoin="round" x1="244.07" y1="416.41" x2="442.879" y2="145.34"/>
		
			<line fill-rule="evenodd" clip-rule="evenodd" fill="none" stroke="#D4D4D4" stroke-linecap="round" stroke-linejoin="round" x1="1" y1="222.46" x2="493.93" y2="371.62"/>
		
			<line fill-rule="evenodd" clip-rule="evenodd" fill="none" stroke="#D4D4D4" stroke-linecap="round" stroke-linejoin="round" x1="1" y1="301.65" x2="244.58" y2="102.92"/>
		
			<line fill-rule="evenodd" clip-rule="evenodd" fill="none" stroke="#D4D4D4" stroke-linecap="round" stroke-linejoin="round" x1="1" y1="275.98" x2="226.55" y2="99.07"/>
		
			<line fill-rule="evenodd" clip-rule="evenodd" fill="none" stroke="#D4D4D4" stroke-linecap="round" stroke-linejoin="round" x1="1" y1="252.221" x2="208.82" y2="95.27"/>
		
			<line fill-rule="evenodd" clip-rule="evenodd" fill="none" stroke="#D4D4D4" stroke-linecap="round" stroke-linejoin="round" x1="1" y1="259.33" x2="476.169" y2="412.171"/>
		
			<line fill-rule="evenodd" clip-rule="evenodd" fill="none" stroke="#D4D4D4" stroke-linecap="round" stroke-linejoin="round" x1="1" y1="230.16" x2="191.38" y2="91.54"/>
		
			<line fill-rule="evenodd" clip-rule="evenodd" fill="none" stroke="#D4D4D4" stroke-linecap="round" stroke-linejoin="round" x1="60.61" y1="370.94" x2="319.79" y2="119.01"/>
		
			<line fill-rule="evenodd" clip-rule="evenodd" fill="none" stroke="#D4D4D4" stroke-linecap="round" stroke-linejoin="round" x1="34.74" y1="361.421" x2="300.51" y2="114.88"/>
		
			<line fill-rule="evenodd" clip-rule="evenodd" fill="none" stroke="#D4D4D4" stroke-linecap="round" stroke-linejoin="round" x1="9.53" y1="352.15" x2="281.55" y2="110.83"/>
		
			<line fill-rule="evenodd" clip-rule="evenodd" fill="none" stroke="#D4D4D4" stroke-linecap="round" stroke-linejoin="round" x1="87.17" y1="380.721" x2="339.419" y2="123.21"/>
		
			<line fill-rule="evenodd" clip-rule="evenodd" fill="none" stroke="#D4D4D4" stroke-linecap="round" stroke-linejoin="round" x1="142.47" y1="401.07" x2="379.7" y2="131.83"/>
		
			<line fill-rule="evenodd" clip-rule="evenodd" fill="none" stroke="#D4D4D4" stroke-linecap="round" stroke-linejoin="round" x1="171.27" y1="411.66" x2="400.39" y2="136.25"/>
		
			<line fill-rule="evenodd" clip-rule="evenodd" fill="none" stroke="#D4D4D4" stroke-linecap="round" stroke-linejoin="round" x1="21.15" y1="195.47" x2="509.93" y2="335.101"/>
		
			<line fill-rule="evenodd" clip-rule="evenodd" fill="none" stroke="#D4D4D4" stroke-linecap="round" stroke-linejoin="round" x1="5.03" y1="206.8" x2="502.129" y2="352.891"/>
		
			<line fill-rule="evenodd" clip-rule="evenodd" fill="none" stroke="#D4D4D4" stroke-linecap="round" stroke-linejoin="round" x1="36.64" y1="184.58" x2="517.35" y2="318.171"/>
	</g>
	<g>
		
			<line fill-rule="evenodd" clip-rule="evenodd" fill="none" stroke="#8A8A8A" stroke-linecap="round" stroke-linejoin="round" x1="174.22" y1="87.87" x2="520.28" y2="161.89"/>
		
			<line fill-rule="evenodd" clip-rule="evenodd" fill="none" stroke="#8A8A8A" stroke-linecap="round" stroke-linejoin="round" x1="118.23" y1="127.23" x2="520.28" y2="223.28"/>
		
			<line fill-rule="evenodd" clip-rule="evenodd" fill="none" stroke="#8A8A8A" stroke-linecap="round" stroke-linejoin="round" x1="474.31" y1="416.41" x2="520.28" y2="311.48"/>
		
			<line fill-rule="evenodd" clip-rule="evenodd" fill="none" stroke="#8A8A8A" stroke-linecap="round" stroke-linejoin="round" x1="282.44" y1="416.41" x2="464.72" y2="150.01"/>
		
			<line fill-rule="evenodd" clip-rule="evenodd" fill="none" stroke="#8A8A8A" stroke-linecap="round" stroke-linejoin="round" x1="1" y1="349.01" x2="184.18" y2="416.41"/>
		
			<line fill-rule="evenodd" clip-rule="evenodd" fill="none" stroke="#8A8A8A" stroke-linecap="round" stroke-linejoin="round" x1="1" y1="329.46" x2="262.911" y2="106.84"/>
		
			<line fill-rule="evenodd" clip-rule="evenodd" fill="none" stroke="#8A8A8A" stroke-linecap="round" stroke-linejoin="round" x1="1" y1="240.33" x2="485.29" y2="391.351"/>
		
			<line fill-rule="evenodd" clip-rule="evenodd" fill="none" stroke="#8A8A8A" stroke-linecap="round" stroke-linejoin="round" x1="1" y1="209.63" x2="174.22" y2="87.87"/>
		
			<line fill-rule="evenodd" clip-rule="evenodd" fill="none" stroke="#8A8A8A" stroke-linecap="round" stroke-linejoin="round" x1="262.82" y1="231.271" x2="51.54" y2="174.11"/>
		
			<line fill-rule="evenodd" clip-rule="evenodd" fill="none" stroke="#8A8A8A" stroke-linecap="round" stroke-linejoin="round" x1="262.82" y1="231.271" x2="114.45" y2="390.75"/>
	</g>
	
		<line fill-rule="evenodd" clip-rule="evenodd" fill="none" stroke="#12AB00" stroke-width="2" stroke-linecap="round" stroke-linejoin="round" x1="359.379" y1="127.48" x2="262.82" y2="231.271"/>
	
		<line fill-rule="evenodd" clip-rule="evenodd" fill="none" stroke="#A80000" stroke-width="2" stroke-linecap="round" stroke-linejoin="round" x1="520.28" y1="300.921" x2="262.82" y2="231.271"/>
</g>
<g id="Viewport_x5F_MG">
	<g>
		<path fill-rule="evenodd" clip-rule="evenodd" fill="#CCCCCC" d="M217.04,61.1c0.74-0.01,0.07-0.74,0.08-1.11
			c0.02-0.41,0.05-0.8,0.1-1.21c0.1-0.8,0.27-1.58,0.52-2.35c0.51-1.58,1.26-2.94,2.32-4.21c2.3-2.76,4.75-4.06,8.33-4.41
			c3.57-0.35,6.23,0.45,9.03,2.7c1.29,1.03,2.3,2.21,3.11,3.65c0.4,0.71,0.73,1.43,0.99,2.2c0.11,0.32,0.12,2.12,0.76,2.11
			c1.08-0.04,0.82-0.93,0.93-1.63c0.13-0.8,0.32-1.58,0.6-2.34c0.56-1.56,1.35-2.89,2.45-4.14c2.38-2.69,4.87-3.92,8.46-4.16
			c6.79-0.45,12.61,4.67,13.26,11.39c0.101,0.99,1.23,0.28,1.38-0.55c0.141-0.81,0.36-1.57,0.65-2.33c0.6-1.55,1.42-2.86,2.55-4.07
			c2.44-2.63,4.95-3.82,8.54-3.99c6.811-0.34,12.52,4.89,13.029,11.64c0.021,0.37-0.599,1.11,0.131,1.1c0.43,0,0.65-0.15,0.75-0.57
			c0.2-0.78,0.46-1.54,0.8-2.27c0.69-1.51,1.59-2.77,2.79-3.92c2.58-2.47,5.16-3.53,8.75-3.52c6.819,0.02,12.27,5.5,12.46,12.27
			c0.54-1.23,1.26-2.37,2.14-3.38c1.061-1.22,2.351-2.23,3.79-2.98c1.421-0.73,2.98-1.21,4.58-1.37c1.591-0.16,3.2-0.02,4.74,0.41
			c1.54,0.44,2.99,1.17,4.25,2.15c1.271,0.98,2.351,2.21,3.16,3.59c0.81,1.39,1.36,2.93,1.6,4.52c0.761-0.84,1.62-1.58,2.56-2.2
			c1.4-0.92,2.971-1.57,4.61-1.9c1.63-0.32,3.33-0.34,4.96-0.03c1.62,0.31,3.19,0.94,4.57,1.84c1.391,0.9,2.6,2.07,3.54,3.43
			c0.94,1.36,1.609,2.91,1.97,4.53c1.24-0.73,2.6-1.26,4.01-1.56c2.211-0.47,4.541-0.36,6.7,0.31c2.15,0.68,4.12,1.92,5.64,3.58
			c1.531,1.65,2.61,3.71,3.121,5.89c7.52-1.56,14.83,3.42,15.97,11.06c2,0.35,3.93,1.14,5.59,2.31c1.92,1.36,3.479,3.23,4.479,5.36
			c0.99,2.14,1.421,4.54,1.23,6.89c1.63,1.18,3.02,2.71,4.01,4.46c1.181,2.06,1.811,4.44,1.83,6.82c0.02,2.39-0.58,4.79-1.72,6.9
			c1.66,3.43,1.92,6.45,0.91,10.12c0.619,3.56,0.119,6.44-1.66,9.57c-0.17,2.03-0.71,3.81-1.68,5.59c0.01,0.26,0.02,0.51,0.01,0.77
			c1.51,3.21,1.79,6.07,0.94,9.51c0.55,3.42,0.039,6.19-1.681,9.19c-0.229,1.94-0.8,3.64-1.78,5.32c0.03,0.32,0.061,0.64,0.07,0.97
			c1.48,3.07,1.811,5.84,1.061,9.16c0.489,3.32-0.021,6.01-1.701,8.9c-0.289,1.85-0.899,3.48-1.899,5.06
			c0.06,0.35,0.101,0.69,0.13,1.04c1.49,2.95,1.851,5.64,1.21,8.88c0.44,3.25-0.09,5.88-1.76,8.7c-0.35,1.761-1,3.301-2,4.78
			c0.069,0.33,0.13,0.67,0.18,1c1.511,2.859,1.93,5.489,1.38,8.67c0.41,3.23-0.149,5.819-1.84,8.6c-0.42,1.65-1.1,3.09-2.1,4.47
			c0.08,0.28,0.14,0.561,0.199,0.841c3.701,6.529,1.311,14.8-5.289,18.37c2.01,8.3-3.94,16.35-12.44,16.939
			c0.311,9.891-9.43,16.95-18.76,13.7c-0.68,12.03-14.89,17.8-23.91,9.891c-0.79,14.89-20.64,19.06-27.561,5.909
			c-0.81,0-0.439,1.82-0.5,2.23c-0.13,0.869-0.339,1.72-0.619,2.55c-0.57,1.689-1.381,3.16-2.49,4.54
			c-2.391,2.97-5.021,4.529-8.771,5.22c-7.12,1.31-14.14-2.76-16.6-9.56c-0.34,0.02-1.75-0.53-1.85,0.13
			c-0.09,0.66-0.23,1.31-0.41,1.96c-0.37,1.32-0.899,2.529-1.61,3.7c-1.47,2.43-3.28,4.12-5.789,5.449
			c-4.861,2.561-10.73,2.171-15.25-0.939c-2.331-1.62-3.911-3.52-5.091-6.1c-0.28-0.61-0.52-1.23-0.71-1.881
			c-0.18-0.589-0.21-1.209-1.05-1.189c-0.61,0.01-1.31-0.37-1.6,0.51c-0.2,0.641-0.45,1.261-0.73,1.87
			c-2.36,4.95-7.24,8.24-12.74,8.479c-5.48,0.25-10.66-2.579-13.42-7.339c-0.68-1.17-1.17-2.391-1.52-3.7
			c-0.17-0.65-0.3-1.311-0.38-1.97c-0.1-0.83-0.71-0.73-1.33-0.75c-0.33-0.021-0.86,1.539-0.96,1.699
			c-0.34,0.58-0.72,1.13-1.14,1.65c-0.85,1.06-1.8,1.97-2.9,2.76c-9.69,7.01-23.16,0.2-23.28-11.75c-8,11.08-25.48,6.22-26.32-7.479
			c-9.34,5.789-21.5-0.601-21.81-11.63c-9.09,1.5-17.15-6.011-16.16-15.2c-7.89-2-12.26-10.44-9.34-18.041
			c-3.77-3.06-5.56-7.949-4.65-12.72c-0.29-3.02,0.26-5.5,1.79-8.12c-1.39-1.78-2.21-3.619-2.61-5.85c-1.51-2.88-1.9-5.51-1.3-8.71
			c-0.4-3.109,0.09-5.68,1.61-8.43c-1.41-1.91-2.19-3.85-2.51-6.19c-1.52-2.95-1.9-5.64-1.27-8.9c-0.49-3.15-0.06-5.78,1.41-8.61
			c-1.4-2.01-2.15-4.05-2.38-6.49c-1.55-3.03-1.93-5.78-1.25-9.13c-0.27-1.42-0.32-2.88-0.14-4.31c0.18-1.56,0.64-3.09,1.33-4.5
			c-1.39-2.13-2.09-4.26-2.24-6.79c-1.6-3.13-1.98-5.97-1.24-9.41c-0.34-1.53-0.42-3.13-0.24-4.69c0.18-1.49,0.58-2.95,1.21-4.31
			c-1.35-2.22-1.99-4.4-2.06-6.99c-0.44-0.85-0.8-1.75-1.07-2.67c-0.68-2.37-0.74-4.92-0.17-7.31c0.48-1.97,1.38-3.84,2.62-5.43
			c-0.69-2.27-0.8-4.7-0.31-7.02c0.49-2.31,1.59-4.49,3.15-6.26c1.31-1.49,2.95-2.68,4.76-3.49c0.1-2.3,0.79-4.59,2-6.55
			c1.21-1.95,2.92-3.58,4.93-4.69c2-1.11,4.29-1.7,6.58-1.7c1.61-8.01,9.93-12.53,17.56-9.75c2.23-9.29,13.23-12.94,20.71-7.08
			c0.32-1.61,0.96-3.15,1.86-4.52c0.9-1.36,2.06-2.55,3.41-3.48c1.34-0.92,2.86-1.57,4.45-1.92c1.6-0.35,3.26-0.39,4.88-0.11
			c1.62,0.27,3.18,0.86,4.58,1.72c1.41,0.87,2.66,2,3.65,3.33c0.11,0.15,0.22,0.29,0.32,0.44c0.18-1.51,0.62-3,1.32-4.36
			c0.69-1.35,1.62-2.57,2.74-3.59s2.43-1.84,3.84-2.39c1.41-0.56,2.92-0.85,4.44-0.87s3.04,0.25,4.47,0.77
			c1.44,0.53,2.78,1.31,3.93,2.31c1.18,1.01,2.17,2.23,2.91,3.58C216.36,58.97,216.77,60.01,217.04,61.1z"/>
	</g>
	<g>
		
			<path fill-rule="evenodd" clip-rule="evenodd" fill="none" stroke="#000000" stroke-width="2" stroke-linecap="round" stroke-linejoin="round" d="
			M311.24,296.32c-2.86,1.95-5.62,2.739-9.07,2.59"/>
		
			<path fill-rule="evenodd" clip-rule="evenodd" fill="none" stroke="#000000" stroke-width="2" stroke-linecap="round" stroke-linejoin="round" d="
			M118.03,148.37c-2.14-1.26-3.97-3.06-5.26-5.2c-1.3-2.16-2.05-4.66-2.13-7.18c-0.08-2.48,0.48-4.97,1.61-7.17
			c1.14-2.22,2.87-4.14,4.95-5.52c2.08-1.37,4.52-2.2,7.01-2.4c2.51-0.19,5.07,0.26,7.37,1.29c2.29,1.03,4.32,2.64,5.83,4.63
			c1.52,2,2.53,4.38,2.9,6.87"/>
		
			<path fill-rule="evenodd" clip-rule="evenodd" fill="none" stroke="#000000" stroke-width="2" stroke-linecap="round" stroke-linejoin="round" d="
			M135.67,123.7c0.23,0.58,0.43,1.17,0.58,1.77"/>
		
			<path fill-rule="evenodd" clip-rule="evenodd" fill="none" stroke="#000000" stroke-width="2" stroke-linecap="round" stroke-linejoin="round" d="
			M110.32,136.02c-1.34-2.22-1.99-4.4-2.06-6.99"/>
		
			<path fill-rule="evenodd" clip-rule="evenodd" fill="none" stroke="#000000" stroke-width="2" stroke-linecap="round" stroke-linejoin="round" d="
			M331.9,227.36c-3.45,4.21-7.01,5.84-12.45,5.699"/>
		
			<path fill-rule="evenodd" clip-rule="evenodd" fill="none" stroke="#000000" stroke-width="2" stroke-linecap="round" stroke-linejoin="round" d="
			M296.831,235.45c-2.911,1.771-5.69,2.46-9.091,2.271"/>
		
			<path fill-rule="evenodd" clip-rule="evenodd" fill="none" stroke="#000000" stroke-width="2" stroke-linecap="round" stroke-linejoin="round" d="
			M256.85,238.74c-0.64,0.04-1.29,0.04-1.94,0"/>
		
			<path fill-rule="evenodd" clip-rule="evenodd" fill="none" stroke="#000000" stroke-width="2" stroke-linecap="round" stroke-linejoin="round" d="
			M207.9,220.53c0-0.13,0-0.25,0-0.38"/>
		
			<path fill-rule="evenodd" clip-rule="evenodd" fill="none" stroke="#000000" stroke-width="2" stroke-linecap="round" stroke-linejoin="round" d="
			M224.16,236.06c-3.22,0.131-5.89-0.55-8.66-2.209"/>
		
			<path fill-rule="evenodd" clip-rule="evenodd" fill="none" stroke="#000000" stroke-width="2" stroke-linecap="round" stroke-linejoin="round" d="
			M291.71,171.62c-0.041,0-0.07-0.01-0.101-0.01"/>
		
			<path fill-rule="evenodd" clip-rule="evenodd" fill="none" stroke="#000000" stroke-width="2" stroke-linecap="round" stroke-linejoin="round" d="
			M409.32,214.79c-0.359,1.761-1.01,3.301-2.01,4.79"/>
		
			<path fill-rule="evenodd" clip-rule="evenodd" fill="none" stroke="#000000" stroke-width="2" stroke-linecap="round" stroke-linejoin="round" d="
			M122.81,253.18c-3.78-3.06-5.56-7.939-4.66-12.72"/>
		
			<path fill-rule="evenodd" clip-rule="evenodd" fill="none" stroke="#000000" stroke-width="2" stroke-linecap="round" stroke-linejoin="round" d="
			M115.87,183.07c-4.18-3.84-5.36-7.48-4.23-13.04"/>
		
			<path fill-rule="evenodd" clip-rule="evenodd" fill="none" stroke="#000000" stroke-width="2" stroke-linecap="round" stroke-linejoin="round" d="
			M235.95,117.16c-1.71,0.85-3.39,1.26-5.29,1.27"/>
		
			<path fill-rule="evenodd" clip-rule="evenodd" fill="none" stroke="#000000" stroke-width="2" stroke-linecap="round" stroke-linejoin="round" d="
			M256.35,116.63c-0.38,0.02-0.76,0.02-1.14,0"/>
		
			<path fill-rule="evenodd" clip-rule="evenodd" fill="none" stroke="#000000" stroke-width="2" stroke-linecap="round" stroke-linejoin="round" d="
			M281.3,117.16c-0.33,0.01-0.66,0-0.99-0.02"/>
		
			<path fill-rule="evenodd" clip-rule="evenodd" fill="none" stroke="#000000" stroke-width="2" stroke-linecap="round" stroke-linejoin="round" d="
			M305.4,119.98c-1.81-0.08-3.41-0.5-5.021-1.32"/>
		
			<path fill-rule="evenodd" clip-rule="evenodd" fill="none" stroke="#000000" stroke-width="2" stroke-linecap="round" stroke-linejoin="round" d="
			M119.94,232.34c-1.39-1.78-2.21-3.63-2.61-5.85"/>
		
			<path fill-rule="evenodd" clip-rule="evenodd" fill="none" stroke="#000000" stroke-width="2" stroke-linecap="round" stroke-linejoin="round" d="
			M367.82,93.79c-2.08-0.82-3.95-2.2-5.35-3.94c-1.41-1.76-2.351-3.9-2.71-6.12c-0.36-2.23-0.131-4.55,0.63-6.67
			c0.79-2.15,2.13-4.11,3.86-5.61c1.72-1.49,3.819-2.55,6.039-3.02c2.211-0.47,4.551-0.36,6.7,0.31c2.15,0.68,4.12,1.92,5.65,3.58
			c1.521,1.65,2.6,3.71,3.11,5.89"/>
		
			<path fill-rule="evenodd" clip-rule="evenodd" fill="none" stroke="#000000" stroke-width="2" stroke-linecap="round" stroke-linejoin="round" d="
			M340.8,75.11c-0.25-1.64-0.181-3.33,0.21-4.95c0.38-1.62,1.07-3.17,2.029-4.54c0.961-1.38,2.19-2.57,3.59-3.5
			c1.4-0.92,2.971-1.57,4.61-1.9c1.64-0.32,3.33-0.34,4.96-0.03c1.62,0.31,3.19,0.94,4.57,1.84c1.391,0.9,2.6,2.07,3.54,3.43
			c0.94,1.36,1.62,2.91,1.97,4.53"/>
		
			<path fill-rule="evenodd" clip-rule="evenodd" fill="none" stroke="#000000" stroke-width="2" stroke-linecap="round" stroke-linejoin="round" d="
			M224.78,261.93c-3.33,0.141-6.05-0.59-8.87-2.39"/>
		
			<path fill-rule="evenodd" clip-rule="evenodd" fill="none" stroke="#000000" stroke-width="2" stroke-linecap="round" stroke-linejoin="round" d="
			M256.96,264.68c-0.67,0.041-1.34,0.041-2.01,0"/>
		
			<path fill-rule="evenodd" clip-rule="evenodd" fill="none" stroke="#000000" stroke-width="2" stroke-linecap="round" stroke-linejoin="round" d="
			M296.56,261.18c-2.95,1.91-5.779,2.66-9.29,2.45"/>
		
			<path fill-rule="evenodd" clip-rule="evenodd" fill="none" stroke="#000000" stroke-width="2" stroke-linecap="round" stroke-linejoin="round" d="
			M318.73,66.93c-0.04-1.62,0.22-3.24,0.771-4.77c0.55-1.52,1.39-2.94,2.449-4.16c1.07-1.22,2.351-2.23,3.79-2.98
			c1.421-0.73,2.98-1.21,4.58-1.37c1.591-0.16,3.21-0.02,4.74,0.41c1.54,0.44,2.99,1.17,4.25,2.15c1.271,0.98,2.351,2.21,3.16,3.59
			c0.81,1.39,1.36,2.93,1.61,4.52"/>
		
			<path fill-rule="evenodd" clip-rule="evenodd" fill="none" stroke="#000000" stroke-width="2" stroke-linecap="round" stroke-linejoin="round" d="
			M306.64,74.56c-1.65-0.06-3.14-0.41-4.63-1.09"/>
		
			<path fill-rule="evenodd" clip-rule="evenodd" fill="none" stroke="#000000" stroke-width="2" stroke-linecap="round" stroke-linejoin="round" d="
			M281.87,71.95c-0.33,0-0.659,0-0.99-0.02"/>
		
			<path fill-rule="evenodd" clip-rule="evenodd" fill="none" stroke="#000000" stroke-width="2" stroke-linecap="round" stroke-linejoin="round" d="
			M256.21,71.45c-0.38,0.02-0.76,0.02-1.14,0.01"/>
		
			<path fill-rule="evenodd" clip-rule="evenodd" fill="none" stroke="#000000" stroke-width="2" stroke-linecap="round" stroke-linejoin="round" d="
			M127.16,194.39c-0.96-0.45-1.88-1-2.72-1.65c-0.85-0.64-1.62-1.37-2.31-2.18c-1.36-1.6-2.37-3.5-2.94-5.52
			c-0.57-2.04-0.69-4.2-0.35-6.28c0.34-2.06,1.14-4.05,2.32-5.78"/>
		
			<path fill-rule="evenodd" clip-rule="evenodd" fill="none" stroke="#000000" stroke-width="2" stroke-linecap="round" stroke-linejoin="round" d="
			M117.61,179.18c-0.73-0.5-1.4-1.06-2.02-1.68c-0.62-0.62-1.18-1.3-1.68-2.02c-0.98-1.41-1.69-3-2.1-4.67
			c-0.41-1.66-0.52-3.39-0.31-5.09c0.21-1.72,0.74-3.4,1.55-4.93"/>
		
			<path fill-rule="evenodd" clip-rule="evenodd" fill="none" stroke="#000000" stroke-width="2" stroke-linecap="round" stroke-linejoin="round" d="
			M243.41,83.54c-0.32,0.02-0.64,0.03-0.95,0.02"/>
		
			<path fill-rule="evenodd" clip-rule="evenodd" fill="none" stroke="#000000" stroke-width="2" stroke-linecap="round" stroke-linejoin="round" d="
			M269.05,82.95c-0.39,0.02-0.77,0.01-1.15-0.01"/>
		
			<path fill-rule="evenodd" clip-rule="evenodd" fill="none" stroke="#000000" stroke-width="2" stroke-linecap="round" stroke-linejoin="round" d="
			M294.18,84.55c-0.22,0-0.44-0.01-0.649-0.02"/>
		
			<path fill-rule="evenodd" clip-rule="evenodd" fill="none" stroke="#000000" stroke-width="2" stroke-linecap="round" stroke-linejoin="round" d="
			M222.64,85.19c-1.51,0.71-3.01,1.07-4.68,1.15"/>
		
			<path fill-rule="evenodd" clip-rule="evenodd" fill="none" stroke="#000000" stroke-width="2" stroke-linecap="round" stroke-linejoin="round" d="
			M118.25,207.15c-4.25-3.75-5.47-7.34-4.38-12.89"/>
		
			<path fill-rule="evenodd" clip-rule="evenodd" fill="none" stroke="#000000" stroke-width="2" stroke-linecap="round" stroke-linejoin="round" d="
			M257.06,289.76c-0.7,0.05-1.39,0.05-2.08,0"/>
		
			<path fill-rule="evenodd" clip-rule="evenodd" fill="none" stroke="#000000" stroke-width="2" stroke-linecap="round" stroke-linejoin="round" d="
			M223.41,107.79c-1.56,0.78-3.12,1.18-4.87,1.25"/>
		
			<path fill-rule="evenodd" clip-rule="evenodd" fill="none" stroke="#000000" stroke-width="2" stroke-linecap="round" stroke-linejoin="round" d="
			M243.65,106.15c-0.31,0.02-0.63,0.03-0.95,0.02"/>
		
			<path fill-rule="evenodd" clip-rule="evenodd" fill="none" stroke="#000000" stroke-width="2" stroke-linecap="round" stroke-linejoin="round" d="
			M268.94,105.53c-0.38,0.02-0.76,0.02-1.15,0"/>
		
			<path fill-rule="evenodd" clip-rule="evenodd" fill="none" stroke="#000000" stroke-width="2" stroke-linecap="round" stroke-linejoin="round" d="
			M293.73,107.19c-0.229,0-0.449-0.01-0.67-0.02"/>
		
			<path fill-rule="evenodd" clip-rule="evenodd" fill="none" stroke="#000000" stroke-width="2" stroke-linecap="round" stroke-linejoin="round" d="
			M416.39,141.7c-0.17,2.03-0.71,3.81-1.68,5.59"/>
		
			<path fill-rule="evenodd" clip-rule="evenodd" fill="none" stroke="#000000" stroke-width="2" stroke-linecap="round" stroke-linejoin="round" d="
			M112.83,161.22c-1.39-2.13-2.09-4.26-2.23-6.8"/>
		
			<path fill-rule="evenodd" clip-rule="evenodd" fill="none" stroke="#000000" stroke-width="2" stroke-linecap="round" stroke-linejoin="round" d="
			M140,132.14c0.46,0.58,0.86,1.18,1.23,1.81"/>
		
			<path fill-rule="evenodd" clip-rule="evenodd" fill="none" stroke="#000000" stroke-width="2" stroke-linecap="round" stroke-linejoin="round" d="
			M151.22,122.19c3.01,5.49,1.74,12.33-3.05,16.36"/>
		
			<path fill-rule="evenodd" clip-rule="evenodd" fill="none" stroke="#000000" stroke-width="2" stroke-linecap="round" stroke-linejoin="round" d="
			M280.7,274.63c-3.07,2.101-6,2.9-9.71,2.641"/>
		
			<path fill-rule="evenodd" clip-rule="evenodd" fill="none" stroke="#000000" stroke-width="2" stroke-linecap="round" stroke-linejoin="round" d="
			M256.48,159.49c-0.38,0.02-0.76,0.02-1.14,0.01"/>
		
			<path fill-rule="evenodd" clip-rule="evenodd" fill="none" stroke="#000000" stroke-width="2" stroke-linecap="round" stroke-linejoin="round" d="
			M237.06,159.91c-1.79,1-3.56,1.47-5.62,1.49"/>
		
			<path fill-rule="evenodd" clip-rule="evenodd" fill="none" stroke="#000000" stroke-width="2" stroke-linecap="round" stroke-linejoin="round" d="
			M280.77,160.05c-0.34,0.01-0.67,0-1.01-0.02"/>
		
			<path fill-rule="evenodd" clip-rule="evenodd" fill="none" stroke="#000000" stroke-width="2" stroke-linecap="round" stroke-linejoin="round" d="
			M321.661,166.83c-0.041-0.03-0.08-0.05-0.11-0.07"/>
		
			<path fill-rule="evenodd" clip-rule="evenodd" fill="none" stroke="#000000" stroke-width="2" stroke-linecap="round" stroke-linejoin="round" d="
			M207.31,193c-2.9,0.09-5.4-0.49-7.97-1.85"/>
		
			<path fill-rule="evenodd" clip-rule="evenodd" fill="none" stroke="#000000" stroke-width="2" stroke-linecap="round" stroke-linejoin="round" d="
			M311.76,271.88c-2.82,1.82-5.54,2.561-8.9,2.43"/>
		
			<path fill-rule="evenodd" clip-rule="evenodd" fill="none" stroke="#000000" stroke-width="2" stroke-linecap="round" stroke-linejoin="round" d="
			M239.86,197.29c-3.23,0.17-5.94-0.46-8.76-2.04"/>
		
			<path fill-rule="evenodd" clip-rule="evenodd" fill="none" stroke="#000000" stroke-width="2" stroke-linecap="round" stroke-linejoin="round" d="
			M235.35,94.92c-1.65,0.78-3.27,1.15-5.1,1.17"/>
		
			<path fill-rule="evenodd" clip-rule="evenodd" fill="none" stroke="#000000" stroke-width="2" stroke-linecap="round" stroke-linejoin="round" d="
			M256.28,94.34c-0.38,0.02-0.76,0.02-1.14,0.01"/>
		
			<path fill-rule="evenodd" clip-rule="evenodd" fill="none" stroke="#000000" stroke-width="2" stroke-linecap="round" stroke-linejoin="round" d="
			M281.581,94.86c-0.33,0-0.661,0-0.99-0.02"/>
		
			<path fill-rule="evenodd" clip-rule="evenodd" fill="none" stroke="#000000" stroke-width="2" stroke-linecap="round" stroke-linejoin="round" d="
			M306.01,97.58c-1.729-0.07-3.271-0.46-4.83-1.21"/>
		
			<path fill-rule="evenodd" clip-rule="evenodd" fill="none" stroke="#000000" stroke-width="2" stroke-linecap="round" stroke-linejoin="round" d="
			M312.8,220.48c-2.71,1.56-5.34,2.21-8.47,2.09"/>
		
			<path fill-rule="evenodd" clip-rule="evenodd" fill="none" stroke="#000000" stroke-width="2" stroke-linecap="round" stroke-linejoin="round" d="
			M320.72,206.39c0.01,0.33,0.01,0.66,0,0.99"/>
		
			<path fill-rule="evenodd" clip-rule="evenodd" fill="none" stroke="#000000" stroke-width="2" stroke-linecap="round" stroke-linejoin="round" d="
			M273.3,225.4c-0.62,0.029-1.25,0.029-1.881-0.01"/>
		
			<path fill-rule="evenodd" clip-rule="evenodd" fill="none" stroke="#000000" stroke-width="2" stroke-linecap="round" stroke-linejoin="round" d="
			M240.23,224.57c-3.35,0.18-6.13-0.5-9.01-2.22"/>
		
			<path fill-rule="evenodd" clip-rule="evenodd" fill="none" stroke="#000000" stroke-width="2" stroke-linecap="round" stroke-linejoin="round" d="
			M208.06,220.15c-2.96,0.06-5.47-0.57-8.05-2.021"/>
		
			<path fill-rule="evenodd" clip-rule="evenodd" fill="none" stroke="#000000" stroke-width="2" stroke-linecap="round" stroke-linejoin="round" d="
			M390.11,113.69c-1.8-1.49-3.21-3.46-4.05-5.64c-0.84-2.23-1.09-4.68-0.72-7.02c0.37-2.35,1.35-4.61,2.81-6.48
			c1.47-1.89,3.42-3.39,5.61-4.33c2.189-0.95,4.619-1.33,6.99-1.09c2.35,0.24,4.64,1.09,6.56,2.45c1.92,1.36,3.479,3.23,4.479,5.36
			c0.99,2.14,1.421,4.54,1.23,6.89"/>
		
			<path fill-rule="evenodd" clip-rule="evenodd" fill="none" stroke="#000000" stroke-width="2" stroke-linecap="round" stroke-linejoin="round" d="
			M280.68,299.13c-3.11,2.25-6.08,3.091-9.899,2.811"/>
		
			<path fill-rule="evenodd" clip-rule="evenodd" fill="none" stroke="#000000" stroke-width="2" stroke-linecap="round" stroke-linejoin="round" d="
			M241.3,301.06c-3.7,0.23-6.6-0.6-9.62-2.75"/>
		
			<path fill-rule="evenodd" clip-rule="evenodd" fill="none" stroke="#000000" stroke-width="2" stroke-linecap="round" stroke-linejoin="round" d="
			M192.17,62.54c0.18-1.51,0.62-3,1.32-4.36c0.69-1.35,1.62-2.57,2.74-3.59s2.43-1.84,3.85-2.39c1.4-0.56,2.91-0.85,4.43-0.87
			s3.04,0.25,4.47,0.77c1.44,0.53,2.78,1.31,3.94,2.31c1.17,1.01,2.16,2.23,2.9,3.58c0.73,1.33,1.23,2.79,1.46,4.3"/>
		
			<path fill-rule="evenodd" clip-rule="evenodd" fill="none" stroke="#000000" stroke-width="2" stroke-linecap="round" stroke-linejoin="round" d="
			M391.28,121.03c-0.92-2.19-1.26-4.63-0.99-6.99c0.271-2.38,1.16-4.69,2.541-6.65c1.39-1.98,3.289-3.6,5.459-4.68
			c2.15-1.07,4.59-1.6,7-1.51c2.391,0.09,4.761,0.79,6.811,2.03c2.04,1.23,3.76,2.99,4.939,5.06c1.171,2.06,1.801,4.44,1.82,6.82
			c0.02,2.39-0.58,4.79-1.72,6.9"/>
		
			<path fill-rule="evenodd" clip-rule="evenodd" fill="none" stroke="#000000" stroke-width="2" stroke-linecap="round" stroke-linejoin="round" d="
			M169.02,67.08c0.33-1.61,0.96-3.15,1.86-4.52c0.9-1.36,2.06-2.55,3.41-3.48c1.34-0.92,2.86-1.57,4.45-1.92
			c1.6-0.35,3.27-0.39,4.88-0.11c1.62,0.27,3.18,0.86,4.59,1.72c1.41,0.87,2.65,2,3.64,3.33c0.99,1.31,1.72,2.81,2.16,4.39
			c0.44,1.59,0.57,3.27,0.39,4.91"/>
		
			<path fill-rule="evenodd" clip-rule="evenodd" fill="none" stroke="#000000" stroke-width="2" stroke-linecap="round" stroke-linejoin="round" d="
			M273.47,198.1c-0.61,0.03-1.22,0.02-1.82-0.01"/>
		
			<path fill-rule="evenodd" clip-rule="evenodd" fill="none" stroke="#000000" stroke-width="2" stroke-linecap="round" stroke-linejoin="round" d="
			M223.11,178.36c3.34-18.71,30.64-17.23,31.94,1.73"/>
		
			<path fill-rule="evenodd" clip-rule="evenodd" fill="none" stroke="#000000" stroke-width="2" stroke-linecap="round" stroke-linejoin="round" d="
			M113.42,158.25c-4.12-3.94-5.26-7.64-4.07-13.23"/>
		
			<path fill-rule="evenodd" clip-rule="evenodd" fill="none" stroke="#000000" stroke-width="2" stroke-linecap="round" stroke-linejoin="round" d="
			M292.86,150.72c-2.029-0.02-3.79-0.48-5.579-1.44"/>
		
			<path fill-rule="evenodd" clip-rule="evenodd" fill="none" stroke="#000000" stroke-width="2" stroke-linecap="round" stroke-linejoin="round" d="
			M411.629,191.11c-0.289,1.85-0.899,3.47-1.899,5.06"/>
		
			<path fill-rule="evenodd" clip-rule="evenodd" fill="none" stroke="#000000" stroke-width="2" stroke-linecap="round" stroke-linejoin="round" d="
			M318.71,258.86c0,0.04,0,0.08,0,0.13"/>
		
			<path fill-rule="evenodd" clip-rule="evenodd" fill="none" stroke="#000000" stroke-width="2" stroke-linecap="round" stroke-linejoin="round" d="
			M117.64,209.35c-1.41-1.91-2.19-3.85-2.51-6.2"/>
		
			<path fill-rule="evenodd" clip-rule="evenodd" fill="none" stroke="#000000" stroke-width="2" stroke-linecap="round" stroke-linejoin="round" d="
			M224.87,151.22c-1.66,0.92-3.32,1.38-5.22,1.47"/>
		
			<path fill-rule="evenodd" clip-rule="evenodd" fill="none" stroke="#000000" stroke-width="2" stroke-linecap="round" stroke-linejoin="round" d="
			M244.14,149.61c-0.32,0.02-0.65,0.03-0.97,0.02"/>
		
			<path fill-rule="evenodd" clip-rule="evenodd" fill="none" stroke="#000000" stroke-width="2" stroke-linecap="round" stroke-linejoin="round" d="
			M268.73,148.96c-0.38,0.01-0.76,0.01-1.14-0.01"/>
		
			<path fill-rule="evenodd" clip-rule="evenodd" fill="none" stroke="#000000" stroke-width="2" stroke-linecap="round" stroke-linejoin="round" d="
			M120.56,230.51c-4.33-3.659-5.59-7.22-4.52-12.779"/>
		
			<path fill-rule="evenodd" clip-rule="evenodd" fill="none" stroke="#000000" stroke-width="2" stroke-linecap="round" stroke-linejoin="round" d="
			M313.331,193.44c-2.65,1.42-5.221,2.02-8.23,1.91"/>
		
			<path fill-rule="evenodd" clip-rule="evenodd" fill="none" stroke="#000000" stroke-width="2" stroke-linecap="round" stroke-linejoin="round" d="
			M120.39,174.25c-0.94-0.54-1.82-1.19-2.62-1.92c-0.79-0.73-1.5-1.54-2.12-2.43c-1.24-1.77-2.07-3.82-2.43-5.95
			c-0.34-2.12-0.22-4.31,0.38-6.37s1.66-3.98,3.09-5.58"/>
		
			<path fill-rule="evenodd" clip-rule="evenodd" fill="none" stroke="#000000" stroke-width="2" stroke-linecap="round" stroke-linejoin="round" d="
			M230.41,73.11c-0.19,0.01-0.39,0.02-0.58,0.02"/>
		
			<path fill-rule="evenodd" clip-rule="evenodd" fill="none" stroke="#000000" stroke-width="2" stroke-linecap="round" stroke-linejoin="round" d="
			M210.48,296.31c-3.21,0.051-5.82-0.729-8.49-2.509"/>
		
			<path fill-rule="evenodd" clip-rule="evenodd" fill="none" stroke="#000000" stroke-width="2" stroke-linecap="round" stroke-linejoin="round" d="
			M131.25,162.54c-2.44-0.93-4.64-2.5-6.32-4.5c-1.68-2-2.84-4.43-3.32-6.99c-0.48-2.56-0.29-5.26,0.57-7.72
			c0.84-2.42,2.32-4.63,4.24-6.33c1.95-1.72,4.35-2.92,6.89-3.46c2.55-0.54,5.25-0.42,7.75,0.36c2.5,0.77,4.8,2.19,6.6,4.09
			c1.8,1.88,3.11,4.23,3.76,6.75"/>
		
			<path fill-rule="evenodd" clip-rule="evenodd" fill="none" stroke="#000000" stroke-width="2" stroke-linecap="round" stroke-linejoin="round" d="
			M124.93,168.74c-0.98-0.46-1.9-1.03-2.75-1.69c-0.86-0.65-1.64-1.4-2.33-2.22c-1.37-1.63-2.39-3.56-2.97-5.6
			c-0.57-2.06-0.7-4.23-0.36-6.33c0.34-2.11,1.14-4.13,2.33-5.9"/>
		
			<path fill-rule="evenodd" clip-rule="evenodd" fill="none" stroke="#000000" stroke-width="2" stroke-linecap="round" stroke-linejoin="round" d="
			M115.25,153.91c-0.72-0.51-1.4-1.09-2.02-1.71c-0.61-0.63-1.17-1.3-1.66-2.02c-0.98-1.43-1.7-3.03-2.12-4.71s-0.53-3.43-0.33-5.14
			c0.19-1.73,0.71-3.42,1.51-4.96"/>
		
			<path fill-rule="evenodd" clip-rule="evenodd" fill="none" stroke="#000000" stroke-width="2" stroke-linecap="round" stroke-linejoin="round" d="
			M240.95,276.41c-3.59,0.21-6.45-0.57-9.44-2.58"/>
		
			<path fill-rule="evenodd" clip-rule="evenodd" fill="none" stroke="#000000" stroke-width="2" stroke-linecap="round" stroke-linejoin="round" d="
			M209.65,271.76c-3.12,0.041-5.69-0.689-8.32-2.35"/>
		
			<path fill-rule="evenodd" clip-rule="evenodd" fill="none" stroke="#000000" stroke-width="2" stroke-linecap="round" stroke-linejoin="round" d="
			M374.29,110.44c-0.77-0.38-1.51-0.83-2.199-1.35c-0.69-0.52-1.32-1.1-1.891-1.75c-1.14-1.28-2.02-2.78-2.57-4.4
			c-0.569-1.65-0.81-3.41-0.699-5.15c0.109-1.74,0.57-3.46,1.34-5.03"/>
		
			<path fill-rule="evenodd" clip-rule="evenodd" fill="none" stroke="#000000" stroke-width="2" stroke-linecap="round" stroke-linejoin="round" d="
			M236.51,138.82c-1.75,0.92-3.47,1.36-5.45,1.38"/>
		
			<path fill-rule="evenodd" clip-rule="evenodd" fill="none" stroke="#000000" stroke-width="2" stroke-linecap="round" stroke-linejoin="round" d="
			M256.41,138.33c-0.38,0.03-0.75,0.03-1.13,0.01"/>
		
			<path fill-rule="evenodd" clip-rule="evenodd" fill="none" stroke="#000000" stroke-width="2" stroke-linecap="round" stroke-linejoin="round" d="
			M281.031,138.89c-0.331,0-0.661,0-1-0.02"/>
		
			<path fill-rule="evenodd" clip-rule="evenodd" fill="none" stroke="#000000" stroke-width="2" stroke-linecap="round" stroke-linejoin="round" d="
			M304.8,141.79c-1.881-0.08-3.53-0.54-5.19-1.43"/>
		
			<path fill-rule="evenodd" clip-rule="evenodd" fill="none" stroke="#000000" stroke-width="2" stroke-linecap="round" stroke-linejoin="round" d="
			M225.38,286.95c-3.43,0.15-6.2-0.63-9.06-2.55"/>
		
			<path fill-rule="evenodd" clip-rule="evenodd" fill="none" stroke="#000000" stroke-width="2" stroke-linecap="round" stroke-linejoin="round" d="
			M109.64,113.62c-0.69-2.27-0.8-4.7-0.31-7.02c0.5-2.31,1.59-4.49,3.16-6.26c1.56-1.77,3.58-3.13,5.81-3.91
			c2.24-0.78,4.69-0.99,7.03-0.59c2.36,0.39,4.61,1.39,6.49,2.87c1.89,1.48,3.4,3.43,4.35,5.64c0.93,2.17,1.32,4.59,1.08,6.95
			c-0.23,2.34-1.07,4.62-2.41,6.55"/>
		
			<path fill-rule="evenodd" clip-rule="evenodd" fill="none" stroke="#000000" stroke-width="2" stroke-linecap="round" stroke-linejoin="round" d="
			M296.29,286.07c-2.989,2.05-5.859,2.84-9.479,2.62"/>
		
			<path fill-rule="evenodd" clip-rule="evenodd" fill="none" stroke="#000000" stroke-width="2" stroke-linecap="round" stroke-linejoin="round" d="
			M110.91,132.66c-1.74-1.74-3.04-3.93-3.72-6.3c-0.68-2.37-0.74-4.92-0.17-7.31c0.57-2.36,1.76-4.58,3.41-6.36
			c1.67-1.78,3.8-3.13,6.13-3.87c2.35-0.75,4.88-0.89,7.3-0.4c2.42,0.48,4.72,1.59,6.61,3.18c1.89,1.59,3.38,3.67,4.26,5.97
			c0.88,2.29,1.18,4.8,0.82,7.22"/>
		
			<path fill-rule="evenodd" clip-rule="evenodd" fill="none" stroke="#000000" stroke-width="2" stroke-linecap="round" stroke-linejoin="round" d="
			M151.14,175.15c-2.72-0.58-5.29-1.9-7.34-3.78c-2.04-1.86-3.57-4.28-4.38-6.93c-0.82-2.64-0.91-5.51-0.25-8.19
			c0.65-2.67,2.04-5.16,3.96-7.13c1.94-1.97,4.41-3.4,7.08-4.11c2.69-0.72,5.56-0.7,8.24,0.05c2.67,0.75,5.13,2.21,7.06,4.21
			c1.93,1.99,3.32,4.51,3.96,7.2"/>
		
			<path fill-rule="evenodd" clip-rule="evenodd" fill="none" stroke="#000000" stroke-width="2" stroke-linecap="round" stroke-linejoin="round" d="
			M255.04,179.96c0.53-0.03,1.06-0.02,1.59,0"/>
		
			<path fill-rule="evenodd" clip-rule="evenodd" fill="none" stroke="#000000" stroke-width="2" stroke-linecap="round" stroke-linejoin="round" d="
			M256.75,211.91c-0.63,0.03-1.25,0.03-1.88,0"/>
		
			<path fill-rule="evenodd" clip-rule="evenodd" fill="none" stroke="#000000" stroke-width="2" stroke-linecap="round" stroke-linejoin="round" d="
			M206.98,193.82c-0.01-0.27-0.01-0.54,0-0.81"/>
		
			<path fill-rule="evenodd" clip-rule="evenodd" fill="none" stroke="#000000" stroke-width="2" stroke-linecap="round" stroke-linejoin="round" d="
			M223.52,209.3c-3.1,0.12-5.72-0.52-8.42-2.04"/>
		
			<path fill-rule="evenodd" clip-rule="evenodd" fill="none" stroke="#000000" stroke-width="2" stroke-linecap="round" stroke-linejoin="round" d="
			M328.379,204.48c-2.6,1.41-5.14,2-8.1,1.9"/>
		
			<path fill-rule="evenodd" clip-rule="evenodd" fill="none" stroke="#000000" stroke-width="2" stroke-linecap="round" stroke-linejoin="round" d="
			M297.07,208.81c-2.83,1.64-5.569,2.281-8.84,2.1"/>
		
			<path fill-rule="evenodd" clip-rule="evenodd" fill="none" stroke="#000000" stroke-width="2" stroke-linecap="round" stroke-linejoin="round" d="
			M141.43,182.41c-1.04-0.3-2.05-0.71-3-1.22c-0.95-0.51-1.85-1.12-2.68-1.81c-1.65-1.4-3.01-3.16-3.94-5.12
			c-0.94-1.95-1.44-4.11-1.48-6.28c-0.03-2.17,0.4-4.35,1.28-6.33"/>
		
			<path fill-rule="evenodd" clip-rule="evenodd" fill="none" stroke="#000000" stroke-width="2" stroke-linecap="round" stroke-linejoin="round" d="
			M371.85,142.91c-0.931-3.63-0.53-6.51,1.35-9.75"/>
		
			<path fill-rule="evenodd" clip-rule="evenodd" fill="none" stroke="#000000" stroke-width="2" stroke-linecap="round" stroke-linejoin="round" d="
			M413.99,166.76c-0.229,1.93-0.8,3.64-1.79,5.32"/>
		
			<path fill-rule="evenodd" clip-rule="evenodd" fill="none" stroke="#000000" stroke-width="2" stroke-linecap="round" stroke-linejoin="round" d="
			M319.7,233.06c0,0.19,0,0.37,0,0.561"/>
		
			<path fill-rule="evenodd" clip-rule="evenodd" fill="none" stroke="#000000" stroke-width="2" stroke-linecap="round" stroke-linejoin="round" d="
			M312.281,246.61c-2.771,1.69-5.45,2.39-8.69,2.26"/>
		
			<path fill-rule="evenodd" clip-rule="evenodd" fill="none" stroke="#000000" stroke-width="2" stroke-linecap="round" stroke-linejoin="round" d="
			M240.6,250.93c-3.48,0.2-6.3-0.539-9.24-2.409"/>
		
			<path fill-rule="evenodd" clip-rule="evenodd" fill="none" stroke="#000000" stroke-width="2" stroke-linecap="round" stroke-linejoin="round" d="
			M273.15,251.78c-0.649,0.04-1.29,0.029-1.95-0.01"/>
		
			<path fill-rule="evenodd" clip-rule="evenodd" fill="none" stroke="#000000" stroke-width="2" stroke-linecap="round" stroke-linejoin="round" d="
			M243.9,128.16c-0.32,0.02-0.64,0.03-0.96,0.02"/>
		
			<path fill-rule="evenodd" clip-rule="evenodd" fill="none" stroke="#000000" stroke-width="2" stroke-linecap="round" stroke-linejoin="round" d="
			M268.831,127.53c-0.381,0.02-0.761,0.01-1.141-0.01"/>
		
			<path fill-rule="evenodd" clip-rule="evenodd" fill="none" stroke="#000000" stroke-width="2" stroke-linecap="round" stroke-linejoin="round" d="
			M293.29,129.24c-0.229,0-0.459-0.01-0.689-0.02"/>
		
			<path fill-rule="evenodd" clip-rule="evenodd" fill="none" stroke="#000000" stroke-width="2" stroke-linecap="round" stroke-linejoin="round" d="
			M115.27,185.65c-1.4-2.01-2.15-4.05-2.38-6.49"/>
		
			<path fill-rule="evenodd" clip-rule="evenodd" fill="none" stroke="#000000" stroke-width="2" stroke-linecap="round" stroke-linejoin="round" d="
			M224.16,129.79c-1.62,0.85-3.23,1.28-5.06,1.37"/>
		
			<path fill-rule="evenodd" clip-rule="evenodd" fill="none" stroke="#000000" stroke-width="2" stroke-linecap="round" stroke-linejoin="round" d="
			M200.08,112.79c-1.28,0.66-2.58,1.07-4.01,1.26c0.21,1.08,0.27,2.14,0.18,3.24"/>
		
			<path fill-rule="evenodd" clip-rule="evenodd" fill="none" stroke="#000000" stroke-width="2" stroke-linecap="round" stroke-linejoin="round" d="
			M415.661,157.57c0.67,4.2-0.11,7.33-2.681,10.72c-0.39,0.5-0.8,0.97-1.24,1.42"/>
		
			<path fill-rule="evenodd" clip-rule="evenodd" fill="none" stroke="#000000" stroke-width="2" stroke-linecap="round" stroke-linejoin="round" d="
			M406.44,159.01c3.82,5.23,3.74,12.34-0.189,17.49c-1.49,1.96-3.2,3.36-5.41,4.42"/>
		
			<path fill-rule="evenodd" clip-rule="evenodd" fill="none" stroke="#000000" stroke-width="2" stroke-linecap="round" stroke-linejoin="round" d="
			M414.73,148.06c2.271,4.84,1.649,10.55-1.62,14.78c-0.899,1.18-1.92,2.16-3.13,3.02"/>
		
			<path fill-rule="evenodd" clip-rule="evenodd" fill="none" stroke="#000000" stroke-width="2" stroke-linecap="round" stroke-linejoin="round" d="
			M346.94,161.64c-0.89-2.58-0.939-4.87-0.17-7.49c-6.57-1.62-10.609-8.23-9.04-14.82c-1.351-0.25-2.569-0.69-3.76-1.35"/>
		
			<path fill-rule="evenodd" clip-rule="evenodd" fill="none" stroke="#000000" stroke-width="2" stroke-linecap="round" stroke-linejoin="round" d="
			M372.71,134.08c-6.15-2.96-8.94-10.18-6.38-16.51c-0.771-0.3-1.5-0.67-2.201-1.11c-0.689-0.44-1.329-0.95-1.93-1.51
			c-1.189-1.13-2.16-2.48-2.84-3.97c-0.68-1.48-1.07-3.09-1.16-4.72c-0.08-1.63,0.15-3.28,0.66-4.82
			c-0.779-0.25-1.529-0.57-2.25-0.96c-0.72-0.39-1.399-0.85-2.029-1.37c-1.271-1.04-2.33-2.33-3.11-3.78
			c-0.79-1.45-1.29-3.07-1.48-4.71c-0.18-1.65-0.05-3.34,0.39-4.94c-0.899-0.22-1.75-0.53-2.579-0.93"/>
		
			<path fill-rule="evenodd" clip-rule="evenodd" fill="none" stroke="#000000" stroke-width="2" stroke-linecap="round" stroke-linejoin="round" d="
			M201.14,134.95c-1.34,0.73-2.69,1.18-4.2,1.38c0.19,0.99,0.25,1.97,0.2,2.98"/>
		
			<path fill-rule="evenodd" clip-rule="evenodd" fill="none" stroke="#000000" stroke-width="2" stroke-linecap="round" stroke-linejoin="round" d="
			M364.44,149.16c-0.88-3.01-0.75-5.56,0.439-8.46c-6.35-2.49-9.59-9.54-7.369-15.98c-6.55-2.07-10.26-8.98-8.36-15.58
			c-1-0.25-1.93-0.6-2.84-1.08"/>
		
			<path fill-rule="evenodd" clip-rule="evenodd" fill="none" stroke="#000000" stroke-width="2" stroke-linecap="round" stroke-linejoin="round" d="
			M411.49,138.86c4.261,5.28,4.32,12.8,0.13,18.14c-1.17,1.5-2.5,2.68-4.14,3.65"/>
		
			<path fill-rule="evenodd" clip-rule="evenodd" fill="none" stroke="#000000" stroke-width="2" stroke-linecap="round" stroke-linejoin="round" d="
			M403.11,154.67c2.391,5.1,1.7,11.11-1.76,15.54c-1.79,2.3-3.82,3.81-6.53,4.87"/>
		
			<path fill-rule="evenodd" clip-rule="evenodd" fill="none" stroke="#000000" stroke-width="2" stroke-linecap="round" stroke-linejoin="round" d="
			M212.87,142.91c-1.51,0.83-3.03,1.29-4.75,1.44c0.07,0.51,0.11,1.01,0.11,1.53"/>
		
			<path fill-rule="evenodd" clip-rule="evenodd" fill="none" stroke="#000000" stroke-width="2" stroke-linecap="round" stroke-linejoin="round" d="
			M189.1,80.45c-1.53,1.08-3.11,1.75-4.95,2.1c0.37,1.62,0.44,3.17,0.19,4.81"/>
		
			<path fill-rule="evenodd" clip-rule="evenodd" fill="none" stroke="#000000" stroke-width="2" stroke-linecap="round" stroke-linejoin="round" d="
			M317.93,90.11c-0.011-0.62,0.03-1.23,0.109-1.85c-1.539-0.12-2.939-0.5-4.329-1.16"/>
		
			<path fill-rule="evenodd" clip-rule="evenodd" fill="none" stroke="#000000" stroke-width="2" stroke-linecap="round" stroke-linejoin="round" d="
			M418.05,132.13c0.79,4.5-0.05,7.8-2.89,11.38c-0.271,0.35-0.561,0.68-0.86,0.99"/>
		
			<path fill-rule="evenodd" clip-rule="evenodd" fill="none" stroke="#000000" stroke-width="2" stroke-linecap="round" stroke-linejoin="round" d="
			M317.15,112.66c0-0.54,0.04-1.08,0.12-1.62c-1.63-0.13-3.09-0.54-4.54-1.28"/>
		
			<path fill-rule="evenodd" clip-rule="evenodd" fill="none" stroke="#000000" stroke-width="2" stroke-linecap="round" stroke-linejoin="round" d="
			M381.85,138.48c0.48-2.21,1.47-4.31,2.86-6.1c1.39-1.78,3.189-3.25,5.209-4.26c2.03-1.02,4.291-1.58,6.561-1.62
			c2.25-0.04,4.521,0.43,6.57,1.37c2.04,0.94,3.869,2.34,5.3,4.09c1.42,1.72,2.439,3.78,2.95,5.96c0.52,2.19,0.52,4.51,0.03,6.71
			c-0.5,2.19-1.5,4.27-2.9,6.03c-1.46,1.84-3.12,3.18-5.22,4.21"/>
		
			<path fill-rule="evenodd" clip-rule="evenodd" fill="none" stroke="#000000" stroke-width="2" stroke-linecap="round" stroke-linejoin="round" d="
			M211.05,98.76c-1.4,0.69-2.81,1.08-4.37,1.21c0.09,0.66,0.13,1.32,0.12,1.99"/>
		
			<path fill-rule="evenodd" clip-rule="evenodd" fill="none" stroke="#000000" stroke-width="2" stroke-linecap="round" stroke-linejoin="round" d="
			M394.419,174.13c2.331,5.05,1.661,10.98-1.729,15.38c-2.1,2.74-4.479,4.38-7.79,5.35c1.67,5.31,1,9.15-2.36,13.58
			c-2.399,3.16-5.079,4.86-8.949,5.689c1.26,4.98,0.52,8.63-2.58,12.74c-2.67,3.53-5.6,5.26-9.98,5.88
			c0.9,4.66,0.1,8.12-2.75,11.921c-2.91,3.85-6.06,5.579-10.88,5.97c0.59,4.319-0.271,7.58-2.89,11.06
			c-3.12,4.12-6.44,5.84-11.6,5.99c0.289,3.97-0.61,7-3.011,10.17c-3.28,4.319-6.72,6.01-12.14,5.949"/>
		
			<path fill-rule="evenodd" clip-rule="evenodd" fill="none" stroke="#000000" stroke-width="2" stroke-linecap="round" stroke-linejoin="round" d="
			M210.1,75.77c-1.35,0.62-2.69,0.98-4.17,1.1c0.11,0.74,0.14,1.47,0.12,2.22"/>
		
			<path fill-rule="evenodd" clip-rule="evenodd" fill="none" stroke="#000000" stroke-width="2" stroke-linecap="round" stroke-linejoin="round" d="
			M202.17,156.53c-1.38,0.79-2.8,1.27-4.38,1.49c0.4,2.1,0.28,3.99-0.38,6.02"/>
		
			<path fill-rule="evenodd" clip-rule="evenodd" fill="none" stroke="#000000" stroke-width="2" stroke-linecap="round" stroke-linejoin="round" d="
			M192.68,148.1c-1.65,1.35-3.37,2.16-5.46,2.56c0.52,2.13,0.48,4.07-0.1,6.18"/>
		
			<path fill-rule="evenodd" clip-rule="evenodd" fill="none" stroke="#000000" stroke-width="2" stroke-linecap="round" stroke-linejoin="round" d="
			M355.53,150.54c0.09-1.09,0.301-2.13,0.67-3.17c-6.489-2.04-10.149-8.89-8.26-15.42c-6.65-1.64-10.74-8.33-9.16-15
			c-1.26-0.23-2.41-0.63-3.55-1.22"/>
		
			<path fill-rule="evenodd" clip-rule="evenodd" fill="none" stroke="#000000" stroke-width="2" stroke-linecap="round" stroke-linejoin="round" d="
			M316.4,134.61c0.011-0.46,0.04-0.93,0.11-1.39c-1.71-0.14-3.221-0.59-4.729-1.39"/>
		
			<path fill-rule="evenodd" clip-rule="evenodd" fill="none" stroke="#000000" stroke-width="2" stroke-linecap="round" stroke-linejoin="round" d="
			M386.6,167.23c2.04,5.1,1.2,10.9-2.221,15.2c-2.409,3.04-5.079,4.71-8.869,5.54c1.29,5.19,0.479,8.94-2.83,13.15
			c-2.69,3.42-5.641,5.13-9.95,5.76c0.931,4.86,0.07,8.42-2.99,12.31c-2.95,3.76-6.11,5.47-10.87,5.86
			c0.61,4.529-0.31,7.89-3.13,11.489c-3.159,4.02-6.5,5.71-11.62,5.87c0.32,4.17-0.64,7.32-3.229,10.61
			c-3.34,4.25-6.83,5.909-12.24,5.84"/>
		
			<path fill-rule="evenodd" clip-rule="evenodd" fill="none" stroke="#000000" stroke-width="2" stroke-linecap="round" stroke-linejoin="round" d="
			M148.3,286.421c-1.27,0.209-2.57,0.239-3.85,0.1c-1.26-0.15-2.5-0.461-3.67-0.931c-2.36-0.939-4.45-2.55-5.97-4.59
			c-1.51-2.02-2.45-4.46-2.69-6.97c-0.24-2.51,0.22-5.09,1.31-7.37c-7.5-3.31-10.5-12.38-6.45-19.51
			c-7.11-3.86-9.37-12.979-4.9-19.721c-6.06-4-7.95-12.039-4.3-18.33"/>
		
			<path fill-rule="evenodd" clip-rule="evenodd" fill="none" stroke="#000000" stroke-width="2" stroke-linecap="round" stroke-linejoin="round" d="
			M132.14,271.221c-9.11-2.311-13.18-12.95-7.93-20.75c-6.14-4-7.96-12.19-4.09-18.42"/>
		
			<path fill-rule="evenodd" clip-rule="evenodd" fill="none" stroke="#000000" stroke-width="2" stroke-linecap="round" stroke-linejoin="round" d="
			M367.72,149.97c0.59-2.21,1.68-4.28,3.159-6.02c1.48-1.74,3.351-3.15,5.431-4.1c2.08-0.95,4.38-1.43,6.67-1.39
			c2.28,0.03,4.56,0.58,6.601,1.58c2.039,1.01,3.85,2.47,5.25,4.26c1.399,1.78,2.399,3.89,2.88,6.11c0.489,2.22,0.47,4.55-0.05,6.77
			c-0.521,2.21-1.551,4.31-2.971,6.08c-2.1,2.62-4.45,4.21-7.66,5.18"/>
		
			<path fill-rule="evenodd" clip-rule="evenodd" fill="none" stroke="#000000" stroke-width="2" stroke-linecap="round" stroke-linejoin="round" d="
			M217.04,61.1c0.04,0,0.07,0,0.1,0c-0.09-1.61,0.12-3.23,0.63-4.76c0.5-1.51,1.29-2.93,2.32-4.15c1.02-1.22,2.28-2.24,3.68-2.98
			c1.4-0.75,2.95-1.23,4.53-1.39c1.58-0.17,3.19-0.03,4.72,0.41c1.54,0.44,2.98,1.18,4.25,2.15c1.26,0.98,2.34,2.21,3.15,3.58
			c0.82,1.39,1.37,2.93,1.62,4.51c0.35-0.01,0.69-0.01,1.03,0c0.04-1.6,0.38-3.19,1.01-4.66c0.62-1.47,1.53-2.82,2.66-3.96
			c1.11-1.13,2.45-2.04,3.91-2.67c1.45-0.62,3.03-0.97,4.61-1c1.58-0.04,3.17,0.23,4.65,0.79c1.49,0.56,2.86,1.41,4.03,2.49
			c1.17,1.07,2.13,2.36,2.82,3.79c0.7,1.45,1.13,3.04,1.25,4.65c0.409-0.02,0.81-0.02,1.22,0.01c0.181-1.59,0.66-3.14,1.399-4.55
			c0.75-1.42,1.771-2.7,2.99-3.74c1.211-1.03,2.62-1.83,4.131-2.34c1.5-0.51,3.1-0.72,4.68-0.63c1.58,0.09,3.15,0.5,4.58,1.18
			c1.439,0.69,2.74,1.65,3.82,2.82c1.089,1.19,1.95,2.59,2.52,4.09c0.55,1.49,0.83,3.07,0.811,4.66c0.239-0.01,0.479-0.01,0.719,0
			c0.301-1.51,0.881-2.97,1.701-4.27c0.81-1.32,1.869-2.48,3.1-3.42c1.21-0.93,2.601-1.64,4.07-2.08c1.47-0.43,3.02-0.6,4.539-0.48
			c1.53,0.12,3.021,0.52,4.4,1.18c1.38,0.67,2.63,1.58,3.68,2.7c1.05,1.11,1.891,2.41,2.471,3.82c0.6,1.43,0.93,2.98,0.97,4.53"/>
		
			<path fill-rule="evenodd" clip-rule="evenodd" fill="none" stroke="#000000" stroke-width="2" stroke-linecap="round" stroke-linejoin="round" d="
			M390.4,113.31c-3.42,4.37-3.91,10.36-1.26,15.23c0.01-2.34,0.61-4.67,1.7-6.73s2.67-3.86,4.57-5.2
			c1.92-1.36,4.149-2.25,6.469-2.59c2.311-0.34,4.701-0.13,6.9,0.62c2.2,0.75,4.221,2.04,5.82,3.72c1.6,1.67,2.79,3.75,3.42,5.98
			c0.63,2.21,0.72,4.59,0.26,6.85c-0.47,2.28-1.49,4.45-2.949,6.27c-0.841,1.05-1.78,1.95-2.87,2.74"/>
		
			<path fill-rule="evenodd" clip-rule="evenodd" fill="none" stroke="#000000" stroke-width="2" stroke-linecap="round" stroke-linejoin="round" d="
			M378.96,138.93c-1.74-4.22-1.561-7.51,0.64-11.51c-0.73-0.41-1.41-0.9-2.04-1.45s-1.21-1.16-1.72-1.82
			c-1.03-1.31-1.811-2.83-2.271-4.43c-0.47-1.62-0.62-3.33-0.45-5c0.17-1.69,0.67-3.35,1.45-4.85"/>
		
			<path fill-rule="evenodd" clip-rule="evenodd" fill="none" stroke="#000000" stroke-width="2" stroke-linecap="round" stroke-linejoin="round" d="
			M327.68,127.88c-0.051-0.99,0.01-1.94,0.189-2.92c-1.5-0.19-2.85-0.62-4.18-1.33"/>
		
			<path fill-rule="evenodd" clip-rule="evenodd" fill="none" stroke="#000000" stroke-width="2" stroke-linecap="round" stroke-linejoin="round" d="
			M299.081,307.171c-3.471,4.509-7.05,6.13-12.721,5.77c-0.359,2.76-1.31,5.02-3.02,7.22c-0.87,1.12-1.891,2.1-3.04,2.92
			c-1.131,0.82-2.381,1.471-3.69,1.94c-2.64,0.93-5.54,1.1-8.26,0.46c-2.75-0.63-5.3-2.08-7.27-4.101
			c-1.96-2.01-3.34-4.59-3.911-7.35c-0.73,0.061-1.45,0.05-2.17,0c-0.58,2.09-1.5,3.86-2.88,5.529c-0.94,1.141-2.05,2.131-3.28,2.94
			c-1.22,0.81-2.57,1.44-3.97,1.86c-2.82,0.819-5.88,0.78-8.66-0.11c-2.8-0.899-5.31-2.649-7.12-4.97
			c-1.81-2.31-2.91-5.18-3.12-8.109c-0.45,0.02-0.89,0.009-1.34-0.011c-0.62,1.431-1.42,2.69-2.45,3.87
			c-1,1.149-2.18,2.141-3.48,2.92c-1.31,0.79-2.74,1.38-4.22,1.729c-1.49,0.36-3.03,0.471-4.56,0.351
			c-1.5-0.109-2.99-0.46-4.39-1.03c-2.82-1.159-5.26-3.22-6.88-5.81c-1.6-2.57-2.38-5.66-2.19-8.681
			c-8.7-0.209-15.3-7.89-14.21-16.52c-8.77-0.64-15.02-8.77-13.38-17.4c-8.73-1.13-14.51-9.63-12.36-18.169
			c-8.59-1.69-13.81-10.48-11.17-18.82c-8.36-2.291-12.92-11.3-9.82-19.391c-1.02-0.369-2-0.859-2.91-1.439
			c-0.92-0.591-1.76-1.271-2.52-2.04c-1.52-1.53-2.69-3.4-3.41-5.43c-0.72-2.03-0.98-4.23-0.76-6.38c0.23-2.13,0.93-4.21,2.05-6.05"
			/>
		
			<path fill-rule="evenodd" clip-rule="evenodd" fill="none" stroke="#000000" stroke-width="2" stroke-linecap="round" stroke-linejoin="round" d="
			M193.21,232.171c-0.06-0.771-0.06-1.541-0.01-2.311c-9.16-0.25-16.1-8.36-14.95-17.45c-9.18-0.71-15.73-9.21-14.09-18.27
			c-9.18-1.27-15.23-10.23-12.96-19.22"/>
		
			<path fill-rule="evenodd" clip-rule="evenodd" fill="none" stroke="#000000" stroke-width="2" stroke-linecap="round" stroke-linejoin="round" d="
			M329.581,82.63c-0.11-1.16-0.061-2.28,0.149-3.43c-1.319-0.17-2.54-0.53-3.75-1.09"/>
		
			<path fill-rule="evenodd" clip-rule="evenodd" fill="none" stroke="#000000" stroke-width="2" stroke-linecap="round" stroke-linejoin="round" d="
			M170.11,298.051c-1.23,0.77-2.58,1.34-3.98,1.699c-1.41,0.36-2.86,0.521-4.31,0.45c-2.91-0.141-5.77-1.2-8.06-2.99
			c-2.29-1.78-4.01-4.28-4.85-7.06c-0.85-2.76-0.81-5.8,0.08-8.55c-8.19-2.19-12.64-11.041-9.5-18.91
			c-7.91-2.78-11.67-11.8-8.08-19.381c-7.55-3.359-10.59-12.489-6.55-19.709c-7.14-3.93-9.43-13.101-4.98-19.92
			c-6.01-4.03-7.94-11.99-4.45-18.33"/>
		
			<path fill-rule="evenodd" clip-rule="evenodd" fill="none" stroke="#000000" stroke-width="2" stroke-linecap="round" stroke-linejoin="round" d="
			M192.08,206.05c-0.09-0.93-0.11-1.85-0.04-2.78c-9.32-0.27-16.38-8.52-15.21-17.77c-2.97-0.24-5.87-1.35-8.25-3.13
			c-2.38-1.79-4.25-4.26-5.31-7.05c-1.05-2.74-1.31-5.79-0.74-8.67c0.58-2.91,2-5.64,4.04-7.79c2.04-2.14,4.7-3.69,7.57-4.41
			c2.88-0.72,5.97-0.61,8.79,0.3c2.82,0.92,5.38,2.64,7.28,4.92c1.91,2.28,3.16,5.1,3.55,8.04"/>
		
			<path fill-rule="evenodd" clip-rule="evenodd" fill="none" stroke="#000000" stroke-width="2" stroke-linecap="round" stroke-linejoin="round" d="
			M328.61,105.57c-0.07-1.08-0.02-2.12,0.18-3.18c-1.42-0.18-2.699-0.58-3.979-1.21"/>
		
			<path fill-rule="evenodd" clip-rule="evenodd" fill="none" stroke="#000000" stroke-width="2" stroke-linecap="round" stroke-linejoin="round" d="
			M157.35,105.11c0.35,0.69,0.65,1.42,0.88,2.17c0.22,0.73,0.38,1.49,0.48,2.26c0.18,1.52,0.1,3.08-0.25,4.58
			c-0.34,1.49-0.96,2.93-1.81,4.21c-0.84,1.28-1.92,2.42-3.16,3.33c-0.62,0.44-1.26,0.83-1.94,1.17"/>
		
			<path fill-rule="evenodd" clip-rule="evenodd" fill="none" stroke="#000000" stroke-width="2" stroke-linecap="round" stroke-linejoin="round" d="
			M407.03,237.84c-0.38,1.5-0.979,2.831-1.85,4.12c-0.08,0.12-0.17,0.24-0.25,0.36"/>
		
			<path fill-rule="evenodd" clip-rule="evenodd" fill="none" stroke="#000000" stroke-width="2" stroke-linecap="round" stroke-linejoin="round" d="
			M148.31,74.16c0.49-2.04,1.48-3.97,2.87-5.54c1.39-1.58,3.17-2.81,5.13-3.55c1.97-0.73,4.12-0.98,6.21-0.71
			c2.1,0.26,4.14,1.05,5.88,2.26c1.74,1.21,3.19,2.84,4.19,4.71c1.01,1.88,1.55,4,1.58,6.14c0.02,2.12-0.47,4.24-1.45,6.12
			c-0.95,1.86-2.37,3.48-4.08,4.67c-1.06,0.74-2.16,1.29-3.39,1.69c1.85,5.44-0.07,11.44-4.73,14.79c-0.84,0.6-1.72,1.08-2.67,1.47"
			/>
		
			<path fill-rule="evenodd" clip-rule="evenodd" fill="none" stroke="#000000" stroke-width="2" stroke-linecap="round" stroke-linejoin="round" d="
			M408.89,164.4c4.32,5.09,4.54,12.49,0.54,17.82c-1.21,1.62-2.6,2.86-4.34,3.88c2.71,4.9,2.34,10.93-0.971,15.45
			c-1.51,2.06-3.26,3.51-5.569,4.6"/>
		
			<path fill-rule="evenodd" clip-rule="evenodd" fill="none" stroke="#000000" stroke-width="2" stroke-linecap="round" stroke-linejoin="round" d="
			M117.24,96.85c0.1-2.3,0.79-4.59,2-6.55c1.21-1.95,2.92-3.58,4.93-4.69c2.01-1.12,4.31-1.7,6.62-1.7c2.33,0,4.66,0.6,6.7,1.72
			c2.06,1.14,3.84,2.8,5.1,4.78c1.23,1.94,1.98,4.19,2.14,6.49c0.16,2.29-0.26,4.62-1.24,6.71c-0.97,2.08-2.5,3.92-4.38,5.25
			c0.42,0.67,0.79,1.38,1.1,2.12c0.3,0.73,0.54,1.49,0.71,2.26c0.35,1.55,0.43,3.15,0.23,4.72c-0.19,1.55-0.66,3.06-1.36,4.46
			c-0.72,1.42-1.7,2.71-2.87,3.79"/>
		
			<path fill-rule="evenodd" clip-rule="evenodd" fill="none" stroke="#000000" stroke-width="2" stroke-linecap="round" stroke-linejoin="round" d="
			M195.39,281.87c-0.02-0.479-0.01-0.949,0.02-1.44c-8.85-0.209-15.57-8.039-14.45-16.819c-8.9-0.65-15.25-8.9-13.61-17.67
			c-8.84-1.17-14.71-9.77-12.57-18.431c-8.69-1.75-13.98-10.619-11.36-19.089c-0.99-0.28-1.95-0.66-2.87-1.14
			c-0.91-0.48-1.78-1.05-2.58-1.7c-1.59-1.3-2.91-2.93-3.85-4.76c-0.95-1.84-1.51-3.88-1.62-5.95c-0.12-2.06,0.19-4.15,0.92-6.08
			c-1.01-0.37-1.97-0.86-2.88-1.44c-0.9-0.58-1.75-1.26-2.51-2.02c-1.51-1.51-2.7-3.34-3.45-5.34c-0.75-1.99-1.06-4.15-0.91-6.27
			c0.16-2.13,0.78-4.23,1.82-6.1"/>
		
			<path fill-rule="evenodd" clip-rule="evenodd" fill="none" stroke="#000000" stroke-width="2" stroke-linecap="round" stroke-linejoin="round" d="
			M413.331,182.21c0.589,3.94-0.15,6.92-2.5,10.13c-0.48,0.66-1,1.26-1.591,1.82"/>
		
			<path fill-rule="evenodd" clip-rule="evenodd" fill="none" stroke="#000000" stroke-width="2" stroke-linecap="round" stroke-linejoin="round" d="
			M190.92,179.02c-0.28-2.17-0.11-4.4,0.51-6.5c0.62-2.12,1.68-4.11,3.1-5.8c1.41-1.68,3.18-3.07,5.14-4.05
			c1.97-0.97,4.15-1.53,6.34-1.64c2.2-0.1,4.41,0.25,6.46,1.03c2.06,0.78,3.96,1.99,5.53,3.53c1.59,1.55,2.84,3.44,3.67,5.49
			c0.81,2.02,1.2,4.21,1.15,6.38c0.15,0,0.31,0.01,0.47,0.01"/>
		
			<path fill-rule="evenodd" clip-rule="evenodd" fill="none" stroke="#000000" stroke-width="2" stroke-linecap="round" stroke-linejoin="round" d="
			M198.97,90.02c-1.21,0.59-2.45,0.96-3.79,1.14c0.22,1.17,0.27,2.31,0.16,3.5"/>
		
			<path fill-rule="evenodd" clip-rule="evenodd" fill="none" stroke="#000000" stroke-width="2" stroke-linecap="round" stroke-linejoin="round" d="
			M395.93,229.81c2.65,4.73,2.37,10.551-0.71,15c-1.79,2.591-3.9,4.211-6.851,5.301c2.05,5.08,1.641,8.85-1.45,13.37
			c-2.069,3.01-4.459,4.72-7.97,5.699c1.58,4.791,1.08,8.371-1.75,12.541c-2.32,3.399-4.97,5.159-9,5.97
			c1.17,4.489,0.59,7.869-2,11.71c-0.57,0.83-1.22,1.6-1.949,2.3c-0.73,0.7-1.551,1.33-2.41,1.859c-1.74,1.061-3.711,1.75-5.73,2
			c-2.029,0.25-4.109,0.061-6.05-0.539c-1.96-0.6-3.79-1.62-5.33-2.97"/>
		
			<path fill-rule="evenodd" clip-rule="evenodd" fill="none" stroke="#000000" stroke-width="2" stroke-linecap="round" stroke-linejoin="round" d="
			M411.07,206.09c0.511,3.7-0.19,6.55-2.34,9.61c-0.561,0.8-1.19,1.521-1.91,2.18"/>
		
			<path fill-rule="evenodd" clip-rule="evenodd" fill="none" stroke="#000000" stroke-width="2" stroke-linecap="round" stroke-linejoin="round" d="
			M407.49,220.57c2.36,4.45,2.061,9.851-0.79,14.01c-1.01,1.471-2.189,2.641-3.66,3.63c3.141,4.6,3.16,10.641,0.07,15.271
			c-1.26,1.89-2.76,3.26-4.74,4.359c2.61,4.5,2.471,10.09-0.39,14.45c-2.69,4.08-5.71,5.84-10.58,6.17"/>
		
			<path fill-rule="evenodd" clip-rule="evenodd" fill="none" stroke="#000000" stroke-width="2" stroke-linecap="round" stroke-linejoin="round" d="
			M346.84,161.56c0.49-2.33,1.51-4.54,2.96-6.41c1.45-1.88,3.329-3.42,5.45-4.48c2.119-1.05,4.489-1.63,6.869-1.65
			c2.37-0.03,4.74,0.48,6.891,1.49c2.13,1.01,4.04,2.51,5.52,4.35c1.48,1.84,2.53,4.03,3.04,6.34c0.511,2.29,0.49,4.7-0.05,6.98
			c-0.55,2.31-1.63,4.5-3.141,6.34c-2.719,3.3-5.659,4.97-9.89,5.6c0.95,5.08,0.011,8.76-3.27,12.76
			c-2.97,3.64-6.15,5.32-10.841,5.72c0.631,4.75-0.35,8.23-3.379,11.94c-3.211,3.91-6.57,5.57-11.621,5.74
			c0.07,0.95,0.061,1.88-0.039,2.82"/>
		
			<path fill-rule="evenodd" clip-rule="evenodd" fill="none" stroke="#000000" stroke-width="2" stroke-linecap="round" stroke-linejoin="round" d="
			M406.331,189.09c4.409,4.91,4.799,12.24,0.949,17.6c-1.24,1.72-2.68,3.02-4.51,4.069c2.69,4.75,2.399,10.62-0.74,15.081
			c-1.52,2.159-3.3,3.64-5.689,4.749"/>
		
			<path fill-rule="evenodd" clip-rule="evenodd" fill="none" stroke="#000000" stroke-width="2" stroke-linecap="round" stroke-linejoin="round" d="
			M398.331,205.7c2.479,4.82,2.049,10.62-1.11,15.01c-1.801,2.511-3.89,4.1-6.78,5.181c2.09,5.239,1.62,9.09-1.64,13.699
			c-2.08,2.931-4.48,4.62-7.94,5.601c1.62,4.95,1.08,8.61-1.92,12.869c-2.35,3.331-5.01,5.07-9.01,5.891
			c1.21,4.64,0.59,8.101-2.16,12.03c-2.601,3.69-5.5,5.46-9.97,6.07c0.84,4.31,0.149,7.579-2.37,11.18
			c-2.82,4-5.92,5.77-10.801,6.14c0.511,3.98-0.239,7.04-2.539,10.31c-0.711,1.021-1.551,1.931-2.5,2.73
			c-0.95,0.811-2.01,1.49-3.141,2.03c-2.25,1.069-4.78,1.54-7.27,1.369c-2.48-0.18-4.92-1-7.011-2.359c-2.1-1.37-3.839-3.279-5-5.49
			"/>
		
			<path fill-rule="evenodd" clip-rule="evenodd" fill="none" stroke="#000000" stroke-width="2" stroke-linecap="round" stroke-linejoin="round" d="
			M339.64,98.45c-0.2-1.53-0.12-2.98,0.22-4.49c-1.17-0.22-2.26-0.58-3.32-1.1"/>
		
			<path fill-rule="evenodd" clip-rule="evenodd" fill="none" stroke="#000000" stroke-width="2" stroke-linecap="round" stroke-linejoin="round" d="
			M405.129,243.141c2.48,4.38,2.301,9.789-0.479,13.989c-1.271,1.91-2.79,3.3-4.81,4.391"/>
		
			<path fill-rule="evenodd" clip-rule="evenodd" fill="none" stroke="#000000" stroke-width="2" stroke-linecap="round" stroke-linejoin="round" d="
			M304.21,163.31c0-0.09,0.01-0.18,0.02-0.27c-1.96-0.09-3.649-0.58-5.36-1.54"/>
		
			<path fill-rule="evenodd" clip-rule="evenodd" fill="none" stroke="#000000" stroke-width="2" stroke-linecap="round" stroke-linejoin="round" d="
			M409.86,197.21c2.301,4.56,1.88,10.01-1.07,14.16c-0.979,1.38-2.109,2.5-3.51,3.46c3.17,4.729,3.131,10.92-0.11,15.6
			c-1.25,1.811-2.72,3.15-4.64,4.23c2.65,4.62,2.44,10.34-0.55,14.75c-1.52,2.24-3.319,3.761-5.78,4.88
			c2.551,5.21,2.28,9.08-0.939,13.9c-1.78,2.66-3.891,4.31-6.9,5.39c2.02,4.94,1.65,8.63-1.29,13.08
			c-3.58,5.36-10.34,7.62-16.43,5.5"/>
		
			<path fill-rule="evenodd" clip-rule="evenodd" fill="none" stroke="#000000" stroke-width="2" stroke-linecap="round" stroke-linejoin="round" d="
			M190.35,103.61c-1.58,1.18-3.22,1.9-5.15,2.26c1.16,4.86-0.66,9.95-4.63,12.97c-1.38,1.05-2.83,1.74-4.51,2.17
			c1.47,4.98-0.27,10.35-4.38,13.53c-1.17,0.91-2.41,1.56-3.82,2.02c1.79,5.07,1.11,8.57-2.45,12.6"/>
		
			<path fill-rule="evenodd" clip-rule="evenodd" fill="none" stroke="#000000" stroke-width="2" stroke-linecap="round" stroke-linejoin="round" d="
			M412.27,173.05c2.27,4.68,1.75,10.24-1.34,14.42c-0.95,1.28-2.03,2.34-3.34,3.25"/>
		
			<path fill-rule="evenodd" clip-rule="evenodd" fill="none" stroke="#000000" stroke-width="2" stroke-linecap="round" stroke-linejoin="round" d="
			M191.54,126.15c-1.62,1.27-3.3,2.03-5.32,2.42c1.13,4.7-0.56,9.63-4.34,12.64c-1.42,1.13-2.91,1.87-4.67,2.32
			c1.21,4.09,0.72,7.14-1.7,10.64"/>
		
			<path fill-rule="evenodd" clip-rule="evenodd" fill="none" stroke="#000000" stroke-width="2" stroke-linecap="round" stroke-linejoin="round" d="
			M179.2,95.86c-1.33,0.95-2.72,1.6-4.31,2c1.48,5.15-0.39,10.68-4.7,13.87c-1.12,0.82-2.3,1.42-3.62,1.85
			c1.83,5.26,0.06,11.11-4.39,14.46c-0.91,0.69-1.86,1.22-2.91,1.64c2.17,5.23,0.66,11.26-3.7,14.86"/>
		
			<path fill-rule="evenodd" clip-rule="evenodd" fill="none" stroke="#000000" stroke-width="2" stroke-linecap="round" stroke-linejoin="round" d="
			M208.79,246.33c0,0.021,0,0.04,0,0.061c-3.01,0.039-5.53-0.65-8.12-2.19"/>
		
			<path fill-rule="evenodd" clip-rule="evenodd" fill="none" stroke="#000000" stroke-width="2" stroke-linecap="round" stroke-linejoin="round" d="
			M194.31,257.43c-0.03-0.62-0.03-1.239,0.01-1.87c-9-0.229-15.83-8.189-14.69-17.13c-9.04-0.67-15.49-9.05-13.84-17.959
			c-8.97-1.211-14.93-9.911-12.8-18.71c-1.08-0.23-2.13-0.57-3.14-1.02c-1-0.44-1.96-1-2.85-1.65c-1.78-1.31-3.27-3.01-4.34-4.94
			c-1.05-1.91-1.69-4.06-1.85-6.24c-0.16-2.19,0.17-4.42,0.95-6.47"/>
		
			<path fill-rule="evenodd" clip-rule="evenodd" fill="none" stroke="#000000" stroke-width="2" stroke-linecap="round" stroke-linejoin="round" d="
			M326.77,149.6c-0.03-0.9,0.03-1.78,0.2-2.66c-1.58-0.21-2.99-0.68-4.37-1.46"/>
		
			<path fill-rule="evenodd" clip-rule="evenodd" fill="none" stroke="#000000" stroke-width="2" stroke-linecap="round" stroke-linejoin="round" d="
			M315.669,155.98c0.011-0.39,0.041-0.77,0.101-1.16c-1.78-0.15-3.351-0.63-4.9-1.51"/>
		
			<path fill-rule="evenodd" clip-rule="evenodd" fill="none" stroke="#000000" stroke-width="2" stroke-linecap="round" stroke-linejoin="round" d="
			M320.25,172.43c0.16-2.49,0.91-4.94,2.18-7.09c1.28-2.17,3.09-4.04,5.22-5.39c2.13-1.34,4.58-2.17,7.09-2.41
			c2.5-0.23,5.061,0.15,7.4,1.08c2.33,0.94,4.44,2.44,6.08,4.34c1.64,1.89,2.819,4.17,3.409,6.6c0.601,2.44,0.601,5.02,0.021,7.47
			c-0.58,2.43-1.76,4.73-3.39,6.63c-3.23,3.79-6.61,5.41-11.591,5.59c0.091,1.11,0.07,2.2-0.079,3.3"/>
		
			<path fill-rule="evenodd" clip-rule="evenodd" fill="none" stroke="#000000" stroke-width="2" stroke-linecap="round" stroke-linejoin="round" d="
			M384.29,132.95c-1.84-4.61-1.52-8.1,1.141-12.3c-0.67-0.46-1.301-0.99-1.87-1.57c-0.58-0.58-1.1-1.21-1.56-1.88
			c-0.91-1.35-1.581-2.85-1.95-4.43c-0.381-1.59-0.46-3.24-0.25-4.86c0.21-1.63,0.72-3.23,1.5-4.68c-1.94-1.13-3.59-2.77-4.74-4.71
			c-1.149-1.95-1.79-4.21-1.85-6.49c-0.05-2.25,0.47-4.52,1.489-6.53c1.051-2.06,2.631-3.86,4.54-5.16
			c1.89-1.29,4.11-2.11,6.38-2.34c2.26-0.23,4.58,0.11,6.67,1c2.08,0.88,3.931,2.31,5.311,4.1s2.29,3.94,2.62,6.17"/>
		
			<path fill-rule="evenodd" clip-rule="evenodd" fill="none" stroke="#000000" stroke-width="2" stroke-linecap="round" stroke-linejoin="round" d="
			M130.75,83.91c0.43-2.13,1.38-4.15,2.77-5.81c1.38-1.67,3.18-2.98,5.18-3.79c2.02-0.82,4.23-1.12,6.4-0.9
			c2.17,0.23,4.29,1,6.11,2.22c1.83,1.22,3.36,2.88,4.42,4.81c1.06,1.91,1.64,4.08,1.69,6.26c0.04,2.18-0.46,4.38-1.45,6.32
			c-0.98,1.92-2.43,3.59-4.21,4.82c-0.53,0.37-1.08,0.7-1.66,0.98"/>
		
			<path fill-rule="evenodd" clip-rule="evenodd" fill="none" stroke="#000000" stroke-width="2" stroke-linecap="round" stroke-linejoin="round" d="
			M400.73,180.7c2.38,4.93,1.81,10.77-1.46,15.16c-1.8,2.4-3.87,3.96-6.68,5.03c2.109,5.43,1.59,9.37-1.87,14.06
			c-2.091,2.84-4.48,4.5-7.87,5.479c1.64,5.121,1.04,8.871-2.13,13.211c-2.37,3.25-5.051,4.979-8.99,5.8
			c1.23,4.8,0.56,8.36-2.351,12.369c-2.64,3.62-5.56,5.37-9.989,5.991c0.87,4.479,0.13,7.84-2.55,11.529
			c-2.87,3.94-5.99,5.69-10.851,6.07c0.55,4.14-0.25,7.29-2.7,10.67c-3.06,4.2-6.359,5.939-11.55,6.08
			c0.261,3.779-0.59,6.71-2.82,9.771c-3.22,4.399-6.64,6.1-12.089,6.039c0.01,3.4-0.87,6.091-2.891,8.82
			c-0.79,1.07-1.72,2.029-2.771,2.85c-1.04,0.82-2.199,1.49-3.419,2c-2.45,1.011-5.181,1.351-7.801,0.961
			c-2.619-0.4-5.14-1.521-7.189-3.2c-2.061-1.69-3.66-3.94-4.57-6.45"/>
		
			<path fill-rule="evenodd" clip-rule="evenodd" fill="none" stroke="#000000" stroke-width="2" stroke-linecap="round" stroke-linejoin="round" d="
			M129.33,219.23c-0.9-0.4-1.76-0.91-2.55-1.49c-0.8-0.59-1.54-1.25-2.2-1.98c-1.31-1.459-2.33-3.2-2.95-5.06
			c-0.62-1.85-0.86-3.84-0.68-5.79c0.17-1.96,0.76-3.88,1.71-5.6c-0.95-0.54-1.84-1.18-2.65-1.92c-0.8-0.74-1.53-1.57-2.14-2.47
			c-1.21-1.76-2.03-3.79-2.35-5.9c-0.33-2.13-0.17-4.33,0.48-6.38c0.63-2.05,1.74-3.95,3.21-5.51"/>
		
			<path fill-rule="evenodd" clip-rule="evenodd" fill="none" stroke="#000000" stroke-width="2" stroke-linecap="round" stroke-linejoin="round" d="
			M211.98,121.13c-1.46,0.76-2.93,1.19-4.57,1.33c0.08,0.58,0.12,1.16,0.12,1.75"/>
		
			<path fill-rule="evenodd" clip-rule="evenodd" fill="none" stroke="#000000" stroke-width="2" stroke-linecap="round" stroke-linejoin="round" d="
			M290.15,175.3c-0.43,0.67-0.92,1.28-1.47,1.85c-0.16,0.17-0.33,0.33-0.5,0.48"/>
		
			<path fill-rule="evenodd" clip-rule="evenodd" fill="none" stroke="#000000" stroke-width="2" stroke-linecap="round" stroke-linejoin="round" d="
			M408.87,229.24c0.44,3.51-0.209,6.23-2.2,9.15c-0.64,0.939-1.359,1.76-2.209,2.51"/>
		
			<path fill-rule="evenodd" clip-rule="evenodd" fill="none" stroke="#000000" stroke-width="2" stroke-linecap="round" stroke-linejoin="round" d="
			M149.82,98.44c0.35,0.71,0.65,1.45,0.87,2.21c0.23,0.77,0.39,1.54,0.48,2.33c0.18,1.58,0.08,3.18-0.29,4.72
			c-0.38,1.52-1.02,2.98-1.9,4.27c-0.88,1.3-1.98,2.43-3.25,3.34c-0.31,0.21-0.62,0.42-0.93,0.6c0.39,0.72,0.71,1.47,0.97,2.24
			c0.26,0.76,0.44,1.54,0.56,2.33c0.23,1.58,0.18,3.21-0.16,4.78c-0.34,1.56-0.96,3.07-1.84,4.42c-0.87,1.34-1.98,2.53-3.27,3.47
			c-0.08,0.06-0.15,0.11-0.22,0.16"/>
		
			<path fill-rule="evenodd" clip-rule="evenodd" fill="none" stroke="#000000" stroke-width="2" stroke-linecap="round" stroke-linejoin="round" d="
			M256.62,180.1c2.15-18.37,28.49-19.27,31.88-1.09c0.379-0.02,0.76-0.02,1.14-0.01c0.04-2.14,0.521-4.27,1.391-6.23
			c0.859-1.93,2.109-3.69,3.649-5.14c1.55-1.47,3.4-2.62,5.4-3.37c1.989-0.75,4.14-1.1,6.27-1.02c2.12,0.09,4.23,0.59,6.15,1.49
			c1.93,0.89,3.68,2.17,5.109,3.75c1.44,1.58,2.56,3.46,3.27,5.48c0.701,2,1.011,4.14,0.881,6.26"/>
		
			<path fill-rule="evenodd" clip-rule="evenodd" fill="none" stroke="#000000" stroke-width="2" stroke-linecap="round" stroke-linejoin="round" d="
			M196.43,305.53c-0.35,0.479-0.73,0.95-1.14,1.391c-1.06,1.149-2.31,2.13-3.69,2.889c-1.37,0.75-2.87,1.291-4.41,1.581
			c-1.52,0.28-3.09,0.31-4.62,0.109c-1.56-0.22-3.09-0.69-4.5-1.39c-1.4-0.7-2.68-1.63-3.78-2.73c-1.1-1.109-2.02-2.39-2.71-3.779
			c-0.68-1.4-1.15-2.9-1.36-4.45s-0.18-3.141,0.11-4.68c-8.6-1.11-14.3-9.5-12.15-17.911c-8.49-1.649-13.63-10.35-10.98-18.579
			c-8.28-2.24-12.78-11.171-9.66-19.15c-8.29-2.939-12.01-12.58-7.84-20.33"/>
	</g>
</g>
<g id="Viewport_x5F_FG">
	<rect x="1" y="1" fill-rule="evenodd" clip-rule="evenodd" fill="#0000B0" width="145.5" height="23"/>
	<text transform="matrix(1 0 0 1 7.48 18.9004)" fill="#FFFFFF" font-family="'Helvetica-Bold'" font-size="18">Rhino Viewport</text>
	
		<rect x="1" y="1" fill-rule="evenodd" clip-rule="evenodd" fill="none" stroke="#000000" stroke-width="2" stroke-linecap="round" width="519.28" height="415.41"/>
</g>
</svg>
