<?xml version="1.0" encoding="utf-8"?>
<!-- Generator: Adobe Illustrator 14.0.0, SVG Export Plug-In . SVG Version: 6.00 Build 43363)  -->
<!DOCTYPE svg PUBLIC "-//W3C//DTD SVG 1.0//EN" "http://www.w3.org/TR/2001/REC-SVG-20010904/DTD/svg10.dtd">
<svg version="1.0" id="Layer_1" xmlns="http://www.w3.org/2000/svg" xmlns:xlink="http://www.w3.org/1999/xlink" x="0px" y="0px"
	 width="297.112px" height="108.611px" viewBox="0 0 297.112 108.611" enable-background="new 0 0 297.112 108.611"
	 xml:space="preserve">
<path fill="#E6E7E8" d="M190.455,0.5h106.157v15.372H190.455V0.5z M84.299,0.5h106.157v15.372H84.299V0.5z M0.5,0.5h83.798v15.372
	H0.5V0.5z"/>
<line fill="none" stroke="#231F20" stroke-miterlimit="10" x1="0" y1="0.5" x2="84.298" y2="0.5"/>
<line fill="none" stroke="#231F20" stroke-miterlimit="10" x1="0.5" y1="15.873" x2="0.5" y2="1"/>
<line fill="none" stroke="#231F20" stroke-miterlimit="10" x1="84.298" y1="0.5" x2="190.456" y2="0.5"/>
<line fill="none" stroke="#231F20" stroke-miterlimit="10" x1="190.455" y1="0.5" x2="297.112" y2="0.5"/>
<line fill="none" stroke="#231F20" stroke-miterlimit="10" x1="296.611" y1="15.873" x2="296.611" y2="1"/>
<line fill="none" stroke="#231F20" stroke-miterlimit="10" x1="0.5" y1="31.246" x2="0.5" y2="15.873"/>
<line fill="none" stroke="#231F20" stroke-miterlimit="10" x1="296.611" y1="31.246" x2="296.611" y2="15.873"/>
<line fill="none" stroke="#231F20" stroke-miterlimit="10" x1="0.5" y1="46.619" x2="0.5" y2="31.246"/>
<line fill="none" stroke="#231F20" stroke-miterlimit="10" x1="296.611" y1="46.619" x2="296.611" y2="31.246"/>
<line fill="none" stroke="#231F20" stroke-miterlimit="10" x1="0.5" y1="61.992" x2="0.5" y2="46.619"/>
<line fill="none" stroke="#231F20" stroke-miterlimit="10" x1="296.611" y1="61.992" x2="296.611" y2="46.619"/>
<line fill="none" stroke="#231F20" stroke-miterlimit="10" x1="0.5" y1="77.365" x2="0.5" y2="61.992"/>
<line fill="none" stroke="#231F20" stroke-miterlimit="10" x1="296.611" y1="77.365" x2="296.611" y2="61.992"/>
<line fill="none" stroke="#231F20" stroke-miterlimit="10" x1="0.5" y1="92.738" x2="0.5" y2="77.365"/>
<line fill="none" stroke="#231F20" stroke-miterlimit="10" x1="296.611" y1="92.738" x2="296.611" y2="77.365"/>
<line fill="none" stroke="#231F20" stroke-miterlimit="10" x1="0.5" y1="107.611" x2="0.5" y2="92.738"/>
<line fill="none" stroke="#231F20" stroke-miterlimit="10" x1="296.611" y1="107.611" x2="296.611" y2="92.738"/>
<line fill="none" stroke="#231F20" stroke-miterlimit="10" x1="0" y1="108.111" x2="84.298" y2="108.111"/>
<line fill="none" stroke="#231F20" stroke-miterlimit="10" x1="84.298" y1="108.111" x2="190.456" y2="108.111"/>
<line fill="none" stroke="#231F20" stroke-miterlimit="10" x1="190.455" y1="108.111" x2="297.112" y2="108.111"/>
<line fill="none" stroke="#231F20" stroke-width="0.25" stroke-miterlimit="10" x1="1" y1="15.873" x2="84.298" y2="15.873"/>
<line fill="none" stroke="#231F20" stroke-width="0.25" stroke-miterlimit="10" x1="84.298" y1="15.748" x2="84.298" y2="1"/>
<line fill="none" stroke="#231F20" stroke-width="0.25" stroke-miterlimit="10" x1="190.455" y1="15.748" x2="190.455" y2="1"/>
<line fill="none" stroke="#231F20" stroke-width="0.25" stroke-miterlimit="10" x1="84.298" y1="31.121" x2="84.298" y2="15.998"/>
<line fill="none" stroke="#231F20" stroke-width="0.25" stroke-miterlimit="10" x1="190.455" y1="31.121" x2="190.455" y2="15.998"/>
<line fill="none" stroke="#231F20" stroke-width="0.25" stroke-miterlimit="10" x1="1" y1="31.246" x2="84.298" y2="31.246"/>
<line fill="none" stroke="#231F20" stroke-width="0.25" stroke-miterlimit="10" x1="84.298" y1="31.246" x2="190.456" y2="31.246"/>
<line fill="none" stroke="#231F20" stroke-width="0.25" stroke-miterlimit="10" x1="84.298" y1="46.494" x2="84.298" y2="31.371"/>
<line fill="none" stroke="#231F20" stroke-width="0.25" stroke-miterlimit="10" x1="190.455" y1="31.246" x2="296.112" y2="31.246"/>
<line fill="none" stroke="#231F20" stroke-width="0.25" stroke-miterlimit="10" x1="190.455" y1="46.494" x2="190.455" y2="31.371"/>
<line fill="none" stroke="#231F20" stroke-width="0.25" stroke-miterlimit="10" x1="1" y1="46.619" x2="84.298" y2="46.619"/>
<line fill="none" stroke="#231F20" stroke-width="0.25" stroke-miterlimit="10" x1="84.298" y1="46.619" x2="190.456" y2="46.619"/>
<line fill="none" stroke="#231F20" stroke-width="0.25" stroke-miterlimit="10" x1="84.298" y1="61.867" x2="84.298" y2="46.744"/>
<line fill="none" stroke="#231F20" stroke-width="0.25" stroke-miterlimit="10" x1="190.455" y1="46.619" x2="296.112" y2="46.619"/>
<line fill="none" stroke="#231F20" stroke-width="0.25" stroke-miterlimit="10" x1="190.455" y1="61.867" x2="190.455" y2="46.744"/>
<line fill="none" stroke="#231F20" stroke-width="0.25" stroke-miterlimit="10" x1="1" y1="61.992" x2="84.298" y2="61.992"/>
<line fill="none" stroke="#231F20" stroke-width="0.25" stroke-miterlimit="10" x1="84.298" y1="61.992" x2="190.456" y2="61.992"/>
<line fill="none" stroke="#231F20" stroke-width="0.25" stroke-miterlimit="10" x1="84.298" y1="77.24" x2="84.298" y2="62.117"/>
<line fill="none" stroke="#231F20" stroke-width="0.25" stroke-miterlimit="10" x1="190.455" y1="61.992" x2="296.112" y2="61.992"/>
<line fill="none" stroke="#231F20" stroke-width="0.25" stroke-miterlimit="10" x1="190.455" y1="77.24" x2="190.455" y2="62.117"/>
<line fill="none" stroke="#231F20" stroke-width="0.25" stroke-miterlimit="10" x1="1" y1="77.365" x2="84.298" y2="77.365"/>
<line fill="none" stroke="#231F20" stroke-width="0.25" stroke-miterlimit="10" x1="84.298" y1="77.365" x2="190.456" y2="77.365"/>
<line fill="none" stroke="#231F20" stroke-width="0.25" stroke-miterlimit="10" x1="84.298" y1="92.613" x2="84.298" y2="77.49"/>
<line fill="none" stroke="#231F20" stroke-width="0.25" stroke-miterlimit="10" x1="190.455" y1="77.365" x2="296.112" y2="77.365"/>
<line fill="none" stroke="#231F20" stroke-width="0.25" stroke-miterlimit="10" x1="190.455" y1="92.613" x2="190.455" y2="77.49"/>
<line fill="none" stroke="#231F20" stroke-width="0.25" stroke-miterlimit="10" x1="84.298" y1="107.611" x2="84.298" y2="92.863"/>
<line fill="none" stroke="#231F20" stroke-width="0.25" stroke-miterlimit="10" x1="190.455" y1="107.611" x2="190.455" y2="92.863"/>
<line fill="none" stroke="#231F20" stroke-width="0.25" stroke-miterlimit="10" x1="84.298" y1="15.873" x2="190.456" y2="15.873"/>
<line fill="none" stroke="#231F20" stroke-width="0.25" stroke-miterlimit="10" x1="190.455" y1="15.873" x2="296.112" y2="15.873"/>
<line fill="none" stroke="#231F20" stroke-width="0.25" stroke-miterlimit="10" x1="1" y1="92.738" x2="84.298" y2="92.738"/>
<line fill="none" stroke="#231F20" stroke-width="0.25" stroke-miterlimit="10" x1="84.298" y1="92.738" x2="190.456" y2="92.738"/>
<line fill="none" stroke="#231F20" stroke-width="0.25" stroke-miterlimit="10" x1="190.455" y1="92.738" x2="296.112" y2="92.738"/>
<text transform="matrix(1 0 0 1 27.5752 11.873)" fill="#231F20" font-family="'TrebuchetMS-Italic'" font-size="10">Colour</text>
<text transform="matrix(1 0 0 1 106.5752 11.873)" fill="#231F20" font-family="'TrebuchetMS-Italic'" font-size="10">RGB Channels</text>
<text transform="matrix(1 0 0 1 213.6953 11.873)" fill="#231F20" font-family="'TrebuchetMS-Italic'" font-size="10">Integer value</text>
<text transform="matrix(1 0 0 1 8.5049 27.2432)" fill="#231F20" font-family="'TrebuchetMS'" font-size="10">Black</text>
<text transform="matrix(1 0 0 1 32.3574 23.916)" fill="#231F20" font-family="'TrebuchetMS'" font-size="5.83">1</text>
<text transform="matrix(1 0 0 1 92.2983 27.2461)" fill="#231F20" font-family="'TrebuchetMS'" font-size="10">{0, 0, 0}</text>
<text transform="matrix(1 0 0 1 268.3682 27.2461)" fill="#231F20" font-family="'TrebuchetMS'" font-size="10">0</text>
<text transform="matrix(1 0 0 1 8.4985 42.6162)" fill="#231F20" font-family="'TrebuchetMS'" font-size="10">White</text>
<text transform="matrix(1 0 0 1 34.7549 39.2891)" fill="#231F20" font-family="'TrebuchetMS'" font-size="5.83">2</text>
<text transform="matrix(1 0 0 1 92.2983 42.6191)" fill="#231F20" font-family="'TrebuchetMS'" font-size="10">{255, 255, 255}</text>
<text transform="matrix(1 0 0 1 231.6592 42.6191)" fill="#231F20" font-family="'TrebuchetMS'" font-size="10">16777215</text>
<text transform="matrix(1 0 0 1 8.4985 57.9893)"><tspan x="0" y="0" fill="#231F20" font-family="'TrebuchetMS'" font-size="10">R</tspan><tspan x="5.41" y="0" fill="#231F20" font-family="'TrebuchetMS'" font-size="10">ed</tspan></text>
<text transform="matrix(1 0 0 1 92.2983 57.9893)" fill="#231F20" font-family="'TrebuchetMS'" font-size="10">{255, 0, 0}</text>
<text transform="matrix(1 0 0 1 257.8779 57.9893)" fill="#231F20" font-family="'TrebuchetMS'" font-size="10">255</text>
<text transform="matrix(1 0 0 1 8.4985 73.3594)" fill="#231F20" font-family="'TrebuchetMS'" font-size="10">Green</text>
<text transform="matrix(1 0 0 1 92.2983 73.3594)" fill="#231F20" font-family="'TrebuchetMS'" font-size="10">{0, 255, 0}</text>
<text transform="matrix(1 0 0 1 247.3887 73.3594)" fill="#231F20" font-family="'TrebuchetMS'" font-size="10">65280</text>
<text transform="matrix(1 0 0 1 8.4985 88.7295)" fill="#231F20" font-family="'TrebuchetMS'" font-size="10">Blue</text>
<text transform="matrix(1 0 0 1 92.2983 88.7295)" fill="#231F20" font-family="'TrebuchetMS'" font-size="10">{0, 0, 255}</text>
<text transform="matrix(1 0 0 1 231.6592 88.7295)" fill="#231F20" font-family="'TrebuchetMS'" font-size="10">16711680</text>
<text transform="matrix(1 0 0 1 8.4985 104.0986)" fill="#231F20" font-family="'TrebuchetMS'" font-size="10">Orange</text>
<text transform="matrix(1 0 0 1 92.2983 104.0986)" fill="#231F20" font-family="'TrebuchetMS'" font-size="10">{255, 155, 0}</text>
<text transform="matrix(1 0 0 1 247.3887 104.0986)" fill="#231F20" font-family="'TrebuchetMS'" font-size="10">39935</text>
</svg>
