<?xml version="1.0" encoding="utf-8"?>
<!-- Generator: Adobe Illustrator 14.0.0, SVG Export Plug-In . SVG Version: 6.00 Build 43363)  -->
<!DOCTYPE svg PUBLIC "-//W3C//DTD SVG 1.0//EN" "http://www.w3.org/TR/2001/REC-SVG-20010904/DTD/svg10.dtd">
<svg version="1.0" xmlns="http://www.w3.org/2000/svg" xmlns:xlink="http://www.w3.org/1999/xlink" x="0px" y="0px"
	 width="56.699px" height="56.695px" viewBox="0 0 56.699 56.695" enable-background="new 0 0 56.699 56.695" xml:space="preserve">
<g id="Grids">
	<g>
		
			<line fill-rule="evenodd" clip-rule="evenodd" fill="none" stroke="#D4D4D4" stroke-width="0.27" x1="4.939" y1="0" x2="4.939" y2="56.69"/>
		
			<line fill-rule="evenodd" clip-rule="evenodd" fill="none" stroke="#D4D4D4" stroke-width="0.27" x1="9.619" y1="0" x2="9.619" y2="56.69"/>
		
			<line fill-rule="evenodd" clip-rule="evenodd" fill="none" stroke="#D4D4D4" stroke-width="0.27" x1="18.979" y1="0" x2="18.979" y2="56.69"/>
		
			<line fill-rule="evenodd" clip-rule="evenodd" fill="none" stroke="#D4D4D4" stroke-width="0.27" x1="23.67" y1="0" x2="23.67" y2="56.69"/>
		
			<line fill-rule="evenodd" clip-rule="evenodd" fill="none" stroke="#D4D4D4" stroke-width="0.27" x1="33.029" y1="0" x2="33.029" y2="56.69"/>
		
			<line fill-rule="evenodd" clip-rule="evenodd" fill="none" stroke="#D4D4D4" stroke-width="0.27" x1="37.709" y1="0" x2="37.709" y2="56.69"/>
		
			<line fill-rule="evenodd" clip-rule="evenodd" fill="none" stroke="#D4D4D4" stroke-width="0.27" x1="47.08" y1="0" x2="47.08" y2="56.69"/>
		
			<line fill-rule="evenodd" clip-rule="evenodd" fill="none" stroke="#D4D4D4" stroke-width="0.27" x1="51.76" y1="0" x2="51.76" y2="56.69"/>
		
			<line fill-rule="evenodd" clip-rule="evenodd" fill="none" stroke="#D4D4D4" stroke-width="0.27" x1="56.699" y1="4.93" x2="0" y2="4.93"/>
		
			<line fill-rule="evenodd" clip-rule="evenodd" fill="none" stroke="#D4D4D4" stroke-width="0.27" x1="56.699" y1="9.62" x2="0" y2="9.62"/>
		
			<line fill-rule="evenodd" clip-rule="evenodd" fill="none" stroke="#D4D4D4" stroke-width="0.27" x1="56.699" y1="18.98" x2="0" y2="18.98"/>
		
			<line fill-rule="evenodd" clip-rule="evenodd" fill="none" stroke="#D4D4D4" stroke-width="0.27" x1="56.699" y1="23.66" x2="0" y2="23.66"/>
		
			<line fill-rule="evenodd" clip-rule="evenodd" fill="none" stroke="#D4D4D4" stroke-width="0.27" x1="56.699" y1="33.03" x2="0" y2="33.03"/>
		
			<line fill-rule="evenodd" clip-rule="evenodd" fill="none" stroke="#D4D4D4" stroke-width="0.27" x1="56.699" y1="37.71" x2="0" y2="37.71"/>
		
			<line fill-rule="evenodd" clip-rule="evenodd" fill="none" stroke="#D4D4D4" stroke-width="0.27" x1="56.699" y1="47.08" x2="0" y2="47.08"/>
		
			<line fill-rule="evenodd" clip-rule="evenodd" fill="none" stroke="#D4D4D4" stroke-width="0.27" x1="56.699" y1="51.76" x2="0" y2="51.76"/>
		
			<line fill-rule="evenodd" clip-rule="evenodd" fill="none" stroke="#8A8A8A" stroke-width="0.27" x1="14.299" y1="0" x2="14.299" y2="56.69"/>
		
			<line fill-rule="evenodd" clip-rule="evenodd" fill="none" stroke="#8A8A8A" stroke-width="0.27" x1="0.14" y1="0" x2="0.14" y2="56.69"/>
		
			<line fill-rule="evenodd" clip-rule="evenodd" fill="none" stroke="#8A8A8A" stroke-width="0.27" x1="28.35" y1="28.35" x2="28.35" y2="56.69"/>
		
			<line fill-rule="evenodd" clip-rule="evenodd" fill="none" stroke="#8A8A8A" stroke-width="0.27" x1="42.399" y1="0" x2="42.399" y2="56.69"/>
		
			<line fill-rule="evenodd" clip-rule="evenodd" fill="none" stroke="#8A8A8A" stroke-width="0.27" x1="56.56" y1="0" x2="56.56" y2="56.69"/>
		
			<line fill-rule="evenodd" clip-rule="evenodd" fill="none" stroke="#8A8A8A" stroke-width="0.27" x1="28.35" y1="28.35" x2="0" y2="28.35"/>
		
			<line fill-rule="evenodd" clip-rule="evenodd" fill="none" stroke="#8A8A8A" stroke-width="0.27" x1="56.699" y1="14.3" x2="0" y2="14.3"/>
		
			<line fill-rule="evenodd" clip-rule="evenodd" fill="none" stroke="#8A8A8A" stroke-width="0.27" x1="56.699" y1="0.14" x2="0" y2="0.14"/>
		
			<line fill-rule="evenodd" clip-rule="evenodd" fill="none" stroke="#8A8A8A" stroke-width="0.27" x1="56.699" y1="42.39" x2="0" y2="42.39"/>
		
			<line fill-rule="evenodd" clip-rule="evenodd" fill="none" stroke="#8A8A8A" stroke-width="0.27" x1="56.699" y1="56.561" x2="0" y2="56.561"/>
		<line fill-rule="evenodd" clip-rule="evenodd" fill="none" stroke="#A80000" x1="56.699" y1="28.35" x2="28.35" y2="28.35"/>
		<line fill-rule="evenodd" clip-rule="evenodd" fill="none" stroke="#12AB00" x1="28.35" y1="0" x2="28.35" y2="28.35"/>
	</g>
</g>
<g id="Text">
	<path fill-rule="evenodd" clip-rule="evenodd" d="M52.26,6.74l-0.33,1.12c0.35-0.42,0.67-0.711,0.949-0.87
		c0.271-0.171,0.561-0.25,0.851-0.25s0.53,0.109,0.74,0.34c0.2,0.23,0.31,0.53,0.31,0.9c0,0.71-0.29,1.439-0.88,2.18
		c-0.58,0.739-1.26,1.109-2.03,1.109c-0.17,0-0.31-0.01-0.43-0.05c-0.13-0.04-0.27-0.1-0.43-0.189l-0.351,1.26
		c-0.079,0.25-0.11,0.409-0.11,0.479s0.021,0.141,0.061,0.19c0.03,0.05,0.09,0.09,0.18,0.109c0.08,0.03,0.25,0.041,0.5,0.051
		L51.25,13.3h-2.301L49,13.12c0.299-0.021,0.5-0.07,0.609-0.16c0.1-0.09,0.221-0.34,0.33-0.761l1.24-4.279
		c0.07-0.271,0.109-0.43,0.109-0.5c0-0.09-0.02-0.15-0.069-0.2s-0.131-0.08-0.24-0.08c-0.09,0-0.22,0.01-0.391,0.04V6.99L52.26,6.74
		z M51.129,10.64c0.201,0.25,0.471,0.37,0.811,0.37c0.17,0,0.34-0.05,0.52-0.149c0.17-0.091,0.351-0.23,0.511-0.42
		c0.17-0.181,0.319-0.4,0.45-0.641c0.14-0.239,0.26-0.53,0.359-0.851c0.11-0.329,0.16-0.659,0.16-0.979c0-0.26-0.061-0.46-0.18-0.6
		c-0.11-0.14-0.25-0.21-0.41-0.21c-0.35,0-0.7,0.2-1.051,0.609c-0.34,0.4-0.59,0.87-0.75,1.41L51.129,10.64z"/>
	<path fill-rule="evenodd" clip-rule="evenodd" d="M53.129,4.399c0.23,0,0.431,0.081,0.591,0.24c0.159,0.16,0.239,0.351,0.239,0.58
		s-0.08,0.43-0.239,0.591c-0.171,0.159-0.36,0.239-0.591,0.239c-0.229,0-0.43-0.08-0.59-0.239c-0.16-0.161-0.24-0.361-0.24-0.591
		s0.08-0.42,0.24-0.58C52.699,4.48,52.899,4.399,53.129,4.399z"/>
	<path fill-rule="evenodd" clip-rule="evenodd" d="M3.47,40.311l1.689-0.271l-0.71,2.37c0.57-0.97,1.09-1.65,1.561-2.04
		c0.26-0.221,0.479-0.33,0.64-0.33c0.11,0,0.189,0.029,0.26,0.09C6.97,40.199,7,40.29,7,40.41c0,0.21-0.061,0.42-0.17,0.609
		C6.75,41.17,6.64,41.24,6.5,41.24c-0.08,0-0.141-0.021-0.201-0.07c-0.049-0.05-0.079-0.12-0.1-0.221c0-0.069-0.02-0.109-0.04-0.13
		c-0.03-0.02-0.06-0.029-0.09-0.029c-0.06,0-0.11,0.01-0.16,0.029C5.83,40.87,5.699,41,5.52,41.21c-0.27,0.31-0.561,0.73-0.87,1.239
		c-0.14,0.211-0.26,0.45-0.36,0.721c-0.13,0.37-0.209,0.6-0.229,0.67l-0.16,0.62h-0.74l0.9-3.04c0.1-0.351,0.16-0.601,0.16-0.75
		c0-0.06-0.03-0.101-0.08-0.14c-0.06-0.061-0.15-0.081-0.261-0.081c-0.06,0-0.189,0.011-0.369,0.041L3.47,40.311z"/>
	<path fill-rule="evenodd" clip-rule="evenodd" d="M5.35,37.55c0.239,0,0.43,0.08,0.6,0.24c0.16,0.159,0.24,0.35,0.24,0.58
		c0,0.229-0.09,0.43-0.25,0.59s-0.359,0.239-0.59,0.239S4.93,39.12,4.77,38.96s-0.24-0.36-0.24-0.59c0-0.23,0.08-0.421,0.24-0.58
		C4.93,37.63,5.119,37.55,5.35,37.55z"/>
	<path fill-rule="evenodd" clip-rule="evenodd" d="M18.77,26.84l1.41-0.3c0.1,0.24,0.18,0.479,0.24,0.74
		c0.09,0.359,0.16,0.8,0.22,1.3c0.02,0.26,0.06,0.79,0.1,1.619c0.41-0.449,0.65-0.729,0.73-0.839c0.43-0.58,0.68-0.92,0.739-1.03
		c0.11-0.17,0.19-0.32,0.23-0.45c0.03-0.1,0.05-0.189,0.05-0.28c0-0.08-0.069-0.18-0.229-0.289c-0.15-0.111-0.221-0.23-0.221-0.37
		c0-0.11,0.041-0.2,0.12-0.28c0.08-0.08,0.18-0.12,0.3-0.12c0.13,0,0.25,0.05,0.36,0.17c0.101,0.109,0.15,0.25,0.15,0.41
		c0,0.17-0.021,0.329-0.07,0.479c-0.09,0.25-0.25,0.55-0.479,0.91c-0.23,0.351-0.601,0.83-1.121,1.431
		c-0.06,0.079-0.42,0.449-1.079,1.129h-0.181c-0.08-2.06-0.24-3.339-0.49-3.85c-0.079-0.17-0.21-0.25-0.399-0.25
		c-0.08,0-0.2,0.011-0.351,0.04L18.77,26.84z"/>
	<polygon fill-rule="evenodd" clip-rule="evenodd" points="22.039,25.49 22.199,25.01 18.689,25.01 18.689,24.76 22.199,24.76 
		22.039,24.29 23.839,24.89 	"/>
</g>
<g id="Vectors">
	<polygon fill-rule="evenodd" clip-rule="evenodd" points="9.89,42.74 9.229,41.99 41.049,13.899 40.14,13.37 44.5,11.53 
		42.119,15.62 41.709,14.649 	"/>
</g>
<g id="Other">
	<path fill-rule="evenodd" clip-rule="evenodd" fill="#FFFFFF" stroke="#000000" d="M49.08,9.58c0,1.09-0.881,1.97-1.971,1.97
		c-1.08,0-1.97-0.88-1.97-1.97s0.89-1.97,1.97-1.97C48.199,7.61,49.08,8.49,49.08,9.58z"/>
	<path fill-rule="evenodd" clip-rule="evenodd" fill="#FFFFFF" stroke="#000000" d="M11.52,42.36c0,1.08-0.88,1.959-1.971,1.959
		c-1.079,0-1.969-0.879-1.969-1.959c0-1.091,0.89-1.971,1.969-1.971C10.64,40.39,11.52,41.27,11.52,42.36z"/>
</g>
</svg>
