<?xml version="1.0" encoding="utf-8"?>
<!-- Generator: Adobe Illustrator 14.0.0, SVG Export Plug-In . SVG Version: 6.00 Build 43363)  -->
<!DOCTYPE svg PUBLIC "-//W3C//DTD SVG 1.0//EN" "http://www.w3.org/TR/2001/REC-SVG-20010904/DTD/svg10.dtd">
<svg version="1.0" id="Layer_1" xmlns="http://www.w3.org/2000/svg" xmlns:xlink="http://www.w3.org/1999/xlink" x="0px" y="0px"
	 width="216.037px" height="89.55px" viewBox="0 0 216.037 89.55" enable-background="new 0 0 216.037 89.55" xml:space="preserve">
<g>
	<defs>
		<rect id="SVGID_1_" width="216.037" height="88.789"/>
	</defs>
	<clipPath id="SVGID_2_">
		<use xlink:href="#SVGID_1_"  overflow="visible"/>
	</clipPath>
	<path clip-path="url(#SVGID_2_)" fill-rule="evenodd" clip-rule="evenodd" fill="#BDBDBD" d="M46.505,84.957l-1.775-1.076
		c-7.649-5.173-12.679-13.926-12.679-23.845l0.203-3.246l0.467,0.283c4.077,2.211,8.743,3.47,13.703,3.47s9.625-1.259,13.703-3.47
		l0.203-0.133l0.213,3.349c0,9.919-5.031,18.673-12.679,23.845L46.505,84.957z"/>
	<path clip-path="url(#SVGID_2_)" fill-rule="evenodd" clip-rule="evenodd" fill="#BDBDBD" d="M32.244,56.8l-0.132-0.061
		c-7.019-4.048-12.181-10.964-13.855-19.151l-0.375-2.442l0.213-0.134c4.067-2.21,8.743-3.469,13.703-3.469
		c5.203,0,10.092,1.381,14.301,3.804l0.01,0.012L44.73,36.2c-6.127,4.137-10.569,10.558-12.101,18.044L32.244,56.8z"/>
	<path clip-path="url(#SVGID_2_)" fill-rule="evenodd" clip-rule="evenodd" fill="#BDBDBD" d="M60.33,56.921l-0.365-2.423
		c-1.542-7.487-5.984-13.907-12.101-18.044l-1.775-1.075l0.406-0.286c4.209-2.423,9.098-3.812,14.302-3.812
		c4.959,0,9.625,1.268,13.703,3.478l0.476,0.285l-0.385,2.545c-1.684,8.186-6.836,15.102-13.865,19.15L60.33,56.921z"/>
	<path clip-path="url(#SVGID_2_)" fill-rule="evenodd" clip-rule="evenodd" fill="#E0E0E0" d="M60.796,88.79
		c-4.96,0-9.626-1.257-13.703-3.469l-0.588-0.364l1.359-0.823c7.648-5.172,12.678-13.926,12.678-23.845
		c0-0.984-0.05-1.967-0.142-2.932l-0.071-0.437l0.396-0.182c7.029-4.049,12.182-10.965,13.865-19.15l0.386-2.545l1.896,1.156
		c7.648,5.163,12.679,13.915,12.679,23.836C89.551,75.91,76.67,88.79,60.796,88.79"/>
	<path clip-path="url(#SVGID_2_)" fill-rule="evenodd" clip-rule="evenodd" fill="#E0E0E0" d="M46.109,35.358l-0.01-0.012
		c-4.209-2.423-9.098-3.804-14.302-3.804c-4.959,0-9.635,1.259-13.703,3.469l-0.213,0.134l-0.061-0.416
		c-0.101-0.965-0.152-1.947-0.152-2.933c0-15.874,12.882-28.754,28.755-28.754c15.874,0,28.756,12.88,28.756,28.754l-0.213,3.247
		L74.5,34.759c-4.077-2.211-8.743-3.478-13.703-3.478c-4.96,0-9.626,1.267-13.703,3.478L46.109,35.358z"/>
	<path clip-path="url(#SVGID_2_)" fill-rule="evenodd" clip-rule="evenodd" fill="#E0E0E0" d="M31.798,89.043
		c-15.874,0-28.755-12.88-28.755-28.754c0-9.921,5.031-18.664,12.679-23.836l2.16-1.308l0.375,2.442
		c1.674,8.187,6.837,15.104,13.855,19.151l0.132,0.062l-0.05,0.304c-0.102,0.964-0.142,1.937-0.142,2.931
		c0,9.919,5.029,18.672,12.678,23.845l1.775,1.076l-1.014,0.618C41.424,87.786,36.748,89.043,31.798,89.043"/>
	<path clip-path="url(#SVGID_2_)" fill-rule="evenodd" clip-rule="evenodd" fill="#949494" d="M46.424,60.543
		c-4.96,0-9.626-1.259-13.703-3.47l-0.477-0.293l0.386-2.536c1.339-6.542,4.909-12.284,9.879-16.392l3.58-2.474l1.775,1.075
		c6.116,4.137,10.559,10.557,12.101,18.044l0.365,2.423l-4.027,1.876C53.22,59.934,49.893,60.543,46.424,60.543"/>
	<path clip-path="url(#SVGID_2_)" fill="none" stroke="#000000" stroke-width="1.014" d="M60.543,60.289
		c0,15.874-12.881,28.754-28.745,28.754c-15.874,0-28.755-12.88-28.755-28.754c0-15.863,12.881-28.746,28.755-28.746
		C47.662,31.543,60.543,44.426,60.543,60.289z"/>
	<path clip-path="url(#SVGID_2_)" fill="none" stroke="#000000" stroke-width="1.014" d="M89.552,60.036
		c0,15.874-12.881,28.754-28.755,28.754c-15.864,0-28.745-12.88-28.745-28.754c0-15.875,12.881-28.755,28.745-28.755
		C76.67,31.281,89.552,44.161,89.552,60.036z"/>
	<path clip-path="url(#SVGID_2_)" fill="none" stroke="#000000" stroke-width="1.014" d="M75.179,31.797
		c0,15.865-12.881,28.746-28.755,28.746S17.669,47.662,17.669,31.797c0-15.874,12.881-28.754,28.755-28.754
		S75.179,15.923,75.179,31.797z"/>
</g>
<text transform="matrix(1 0 0 1 43.645 11.8359)" font-family="'TrebuchetMS'" font-size="8.1143">A</text>
<text transform="matrix(1 0 0 1 10.9365 75.2822)" font-family="'TrebuchetMS'" font-size="8.1143">B</text>
<text transform="matrix(1 0 0 1 76.6621 75.1279)" font-family="'TrebuchetMS'" font-size="8.1143">C</text>
<text transform="matrix(1 0 0 1 39.8477 73.6104)"><tspan x="0" y="0" font-family="'TrebuchetMS'" font-size="8.1143">B</tspan><tspan x="3.87" y="0" font-family="'TrebuchetMS'" font-size="8.1143">+</tspan><tspan x="7.395" y="0" font-family="'TrebuchetMS'" font-size="8.1143">C</tspan></text>
<text transform="matrix(1 0 0 1 22.353 42.4189)"><tspan x="0" y="0" font-family="'TrebuchetMS'" font-size="8.1143">B</tspan><tspan x="3.87" y="0" font-family="'TrebuchetMS'" font-size="8.1143">+</tspan><tspan x="7.395" y="0" font-family="'TrebuchetMS'" font-size="8.1143">A</tspan></text>
<text transform="matrix(1 0 0 1 57.3418 41.8105)"><tspan x="0" y="0" font-family="'TrebuchetMS'" font-size="8.1143">A</tspan><tspan x="4.064" y="0" font-family="'TrebuchetMS'" font-size="8.1143">+</tspan><tspan x="7.589" y="0" font-family="'TrebuchetMS'" font-size="8.1143">C</tspan></text>
<text transform="matrix(1 0 0 1 36.0986 55.0449)"><tspan x="0" y="0" font-family="'TrebuchetMS'" font-size="8.1143">A</tspan><tspan x="4.064" y="0" font-family="'TrebuchetMS'" font-size="8.1143">+</tspan><tspan x="7.589" y="0" font-family="'TrebuchetMS'" font-size="8.1143">B</tspan><tspan x="11.459" y="0" font-family="'TrebuchetMS'" font-size="8.1143">+</tspan><tspan x="14.984" y="0" font-family="'TrebuchetMS'" font-size="8.1143">C</tspan></text>
<g>
	<defs>
		<rect id="SVGID_3_" width="216.037" height="88.789"/>
	</defs>
	<clipPath id="SVGID_4_">
		<use xlink:href="#SVGID_3_"  overflow="visible"/>
	</clipPath>
	<path clip-path="url(#SVGID_4_)" fill-rule="evenodd" clip-rule="evenodd" fill="#BDBDBD" d="M161.516,84.957l-1.785-1.076
		c-7.649-5.173-12.679-13.926-12.679-23.845l0.203-3.246l0.468,0.283c4.076,2.211,8.742,3.47,13.702,3.47s9.626-1.259,13.703-3.47
		l0.213-0.121l0.213,3.337c0,9.919-5.031,18.673-12.679,23.845L161.516,84.957z"/>
	<path clip-path="url(#SVGID_4_)" fill-rule="evenodd" clip-rule="evenodd" fill="#BDBDBD" d="M147.245,56.8l-0.122-0.061
		c-7.029-4.048-12.181-10.964-13.865-19.151l-0.375-2.442l0.213-0.134c4.077-2.21,8.743-3.469,13.703-3.469
		c5.202,0,10.092,1.381,14.311,3.804v0.012L159.73,36.2c-6.117,4.137-10.559,10.558-12.09,18.044L147.245,56.8z"/>
	<path clip-path="url(#SVGID_4_)" fill-rule="evenodd" clip-rule="evenodd" fill="#BDBDBD" d="M175.34,56.921l-0.375-2.423
		c-1.532-7.487-5.975-13.907-12.091-18.044l-1.775-1.075l0.396-0.286c4.219-2.423,9.097-3.803,14.312-3.803
		c4.959,0,9.625,1.259,13.703,3.469l0.476,0.294l-0.395,2.536c-1.675,8.186-6.837,15.102-13.855,19.15L175.34,56.921z"/>
	<path clip-path="url(#SVGID_4_)" fill-rule="evenodd" clip-rule="evenodd" fill="#E0E0E0" d="M175.807,88.79
		c-4.961,0-9.626-1.257-13.703-3.469l-0.588-0.364l1.359-0.823c7.648-5.172,12.678-13.926,12.678-23.845
		c0-0.984-0.051-1.967-0.152-2.932l-0.061-0.437l0.396-0.182c7.019-4.049,12.181-10.965,13.855-19.15l0.396-2.536l1.886,1.147
		c7.648,5.172,12.679,13.915,12.679,23.836C204.552,75.91,191.67,88.79,175.807,88.79"/>
	<path clip-path="url(#SVGID_4_)" fill-rule="evenodd" clip-rule="evenodd" fill="#E0E0E0" d="M161.11,35.358v-0.012
		c-4.219-2.423-9.109-3.804-14.312-3.804c-4.959,0-9.625,1.259-13.703,3.469l-0.213,0.134l-0.062-0.416
		c-0.091-0.965-0.141-1.938-0.141-2.933c0-15.874,12.882-28.754,28.745-28.754c15.874,0,28.756,12.88,28.756,28.754l-0.203,3.247
		l-0.467-0.285c-4.077-2.211-8.743-3.469-13.703-3.469c-4.961,0-9.626,1.258-13.703,3.469L161.11,35.358z"/>
	<path clip-path="url(#SVGID_4_)" fill-rule="evenodd" clip-rule="evenodd" fill="#E0E0E0" d="M146.798,89.043
		c-15.874,0-28.755-12.88-28.755-28.754c0-9.921,5.031-18.664,12.679-23.836l2.16-1.308l0.375,2.442
		c1.684,8.187,6.837,15.104,13.866,19.151l0.121,0.062l-0.04,0.304c-0.103,0.964-0.152,1.947-0.152,2.931
		c0,9.919,5.029,18.672,12.678,23.845l1.785,1.076l-1.014,0.618C156.424,87.786,151.758,89.043,146.798,89.043"/>
	<path clip-path="url(#SVGID_4_)" fill-rule="evenodd" clip-rule="evenodd" fill="#949494" d="M161.424,60.543
		c-4.96,0-9.626-1.259-13.702-3.47l-0.478-0.283l0.396-2.546c1.339-6.542,4.909-12.284,9.879-16.392l3.58-2.474l1.775,1.075
		c6.116,4.137,10.559,10.557,12.091,18.044l0.375,2.423l-4.027,1.876C168.229,59.934,164.903,60.543,161.424,60.543"/>
	<path clip-path="url(#SVGID_4_)" fill="none" stroke="#000000" stroke-width="1.014" d="M175.553,60.289
		c0,15.874-12.881,28.754-28.755,28.754s-28.755-12.88-28.755-28.754c0-15.863,12.881-28.746,28.755-28.746
		S175.553,44.426,175.553,60.289z"/>
	<path clip-path="url(#SVGID_4_)" fill="none" stroke="#000000" stroke-width="1.014" d="M204.552,60.036
		c0,15.874-12.881,28.754-28.745,28.754c-15.874,0-28.755-12.88-28.755-28.754c0-15.864,12.881-28.746,28.755-28.746
		C191.671,31.29,204.552,44.172,204.552,60.036z"/>
	<path clip-path="url(#SVGID_4_)" fill="none" stroke="#000000" stroke-width="1.014" d="M190.179,31.797
		c0,15.865-12.881,28.746-28.755,28.746c-15.864,0-28.745-12.881-28.745-28.746c0-15.874,12.881-28.754,28.745-28.754
		C177.298,3.043,190.179,15.923,190.179,31.797z"/>
</g>
<text transform="matrix(1 0 0 1 152.1128 14.3818)"><tspan x="0" y="0" font-family="'TrebuchetMS'" font-size="8.1143">N</tspan><tspan x="4.448" y="0" font-family="'TrebuchetMS'" font-size="8.1143">o</tspan><tspan x="8.08" y="0" font-family="'TrebuchetMS'" font-size="8.1143">t </tspan><tspan x="12.281" y="0" font-family="'TrebuchetMS'" font-size="8.1143">B</tspan></text>
<text transform="matrix(1 0 0 1 152.1128 20.873)"><tspan x="0" y="0" font-family="'TrebuchetMS'" font-size="8.1143">N</tspan><tspan x="4.448" y="0" font-family="'TrebuchetMS'" font-size="8.1143">o</tspan><tspan x="8.08" y="0" font-family="'TrebuchetMS'" font-size="8.1143">t </tspan><tspan x="12.281" y="0" font-family="'TrebuchetMS'" font-size="8.1143">C</tspan></text>
<text transform="matrix(1 0 0 1 125.6436 64.4395)"><tspan x="0" y="0" font-family="'TrebuchetMS'" font-size="8.1143">N</tspan><tspan x="4.448" y="0" font-family="'TrebuchetMS'" font-size="8.1143">o</tspan><tspan x="8.08" y="0" font-family="'TrebuchetMS'" font-size="8.1143">t</tspan><tspan x="10.567" y="0" font-family="'TrebuchetMS'" font-size="8.1143" letter-spacing="-1"> </tspan><tspan x="11.835" y="0" font-family="'TrebuchetMS'" font-size="8.1143">A</tspan></text>
<text transform="matrix(1 0 0 1 125.6436 70.9307)"><tspan x="0" y="0" font-family="'TrebuchetMS'" font-size="8.1143">N</tspan><tspan x="4.448" y="0" font-family="'TrebuchetMS'" font-size="8.1143">o</tspan><tspan x="8.08" y="0" font-family="'TrebuchetMS'" font-size="8.1143">t </tspan><tspan x="12.281" y="0" font-family="'TrebuchetMS'" font-size="8.1143">C</tspan></text>
<text transform="matrix(1 0 0 1 180.5371 64.4395)"><tspan x="0" y="0" font-family="'TrebuchetMS'" font-size="8.1143">N</tspan><tspan x="4.448" y="0" font-family="'TrebuchetMS'" font-size="8.1143">o</tspan><tspan x="8.08" y="0" font-family="'TrebuchetMS'" font-size="8.1143">t</tspan><tspan x="10.567" y="0" font-family="'TrebuchetMS'" font-size="8.1143" letter-spacing="-1"> </tspan><tspan x="11.835" y="0" font-family="'TrebuchetMS'" font-size="8.1143">A</tspan></text>
<text transform="matrix(1 0 0 1 180.5371 70.9307)"><tspan x="0" y="0" font-family="'TrebuchetMS'" font-size="8.1143">N</tspan><tspan x="4.448" y="0" font-family="'TrebuchetMS'" font-size="8.1143">o</tspan><tspan x="8.08" y="0" font-family="'TrebuchetMS'" font-size="8.1143">t </tspan><tspan x="12.281" y="0" font-family="'TrebuchetMS'" font-size="8.1143">B</tspan></text>
<text transform="matrix(1 0 0 1 152.6968 72.5049)"><tspan x="0" y="0" font-family="'TrebuchetMS'" font-size="8.1143">N</tspan><tspan x="4.448" y="0" font-family="'TrebuchetMS'" font-size="8.1143">o</tspan><tspan x="8.08" y="0" font-family="'TrebuchetMS'" font-size="8.1143">t</tspan><tspan x="10.567" y="0" font-family="'TrebuchetMS'" font-size="8.1143" letter-spacing="-1"> </tspan><tspan x="11.835" y="0" font-family="'TrebuchetMS'" font-size="8.1143">A</tspan></text>
<text transform="matrix(1 0 0 1 135.0483 41.0127)"><tspan x="0" y="0" font-family="'TrebuchetMS'" font-size="8.1143">N</tspan><tspan x="4.448" y="0" font-family="'TrebuchetMS'" font-size="8.1143">o</tspan><tspan x="8.08" y="0" font-family="'TrebuchetMS'" font-size="8.1143">t </tspan><tspan x="12.281" y="0" font-family="'TrebuchetMS'" font-size="8.1143">C</tspan></text>
<text transform="matrix(1 0 0 1 169.3394 41.0127)"><tspan x="0" y="0" font-family="'TrebuchetMS'" font-size="8.1143">N</tspan><tspan x="4.448" y="0" font-family="'TrebuchetMS'" font-size="8.1143">o</tspan><tspan x="8.08" y="0" font-family="'TrebuchetMS'" font-size="8.1143">t </tspan><tspan x="12.281" y="0" font-family="'TrebuchetMS'" font-size="8.1143">B</tspan></text>
<text transform="matrix(1 0 0 1 193.5684 19.8672)"><tspan x="0" y="0" font-family="'TrebuchetMS'" font-size="8.1143">N</tspan><tspan x="4.448" y="0" font-family="'TrebuchetMS'" font-size="8.1143">o</tspan><tspan x="8.08" y="0" font-family="'TrebuchetMS'" font-size="8.1143">t</tspan><tspan x="10.567" y="0" font-family="'TrebuchetMS'" font-size="8.1143" letter-spacing="-1"> </tspan><tspan x="11.835" y="0" font-family="'TrebuchetMS'" font-size="8.1143">A</tspan></text>
<text transform="matrix(1 0 0 1 193.5684 26.3584)"><tspan x="0" y="0" font-family="'TrebuchetMS'" font-size="8.1143">N</tspan><tspan x="4.448" y="0" font-family="'TrebuchetMS'" font-size="8.1143">o</tspan><tspan x="8.08" y="0" font-family="'TrebuchetMS'" font-size="8.1143">t </tspan><tspan x="12.281" y="0" font-family="'TrebuchetMS'" font-size="8.1143">B</tspan></text>
<text transform="matrix(1 0 0 1 193.5684 32.8506)"><tspan x="0" y="0" font-family="'TrebuchetMS'" font-size="8.1143">N</tspan><tspan x="4.448" y="0" font-family="'TrebuchetMS'" font-size="8.1143">o</tspan><tspan x="8.08" y="0" font-family="'TrebuchetMS'" font-size="8.1143">t </tspan><tspan x="12.281" y="0" font-family="'TrebuchetMS'" font-size="8.1143">C</tspan></text>
<text transform="matrix(1 0 0 1 99.3374 40.5908)" font-family="'TrebuchetMS'" font-size="8.1143">-or-</text>
</svg>
