<?xml version="1.0" encoding="utf-8"?>
<!-- Generator: Adobe Illustrator 14.0.0, SVG Export Plug-In . SVG Version: 6.00 Build 43363)  -->
<!DOCTYPE svg PUBLIC "-//W3C//DTD SVG 1.0//EN" "http://www.w3.org/TR/2001/REC-SVG-20010904/DTD/svg10.dtd">
<svg version="1.0" xmlns="http://www.w3.org/2000/svg" xmlns:xlink="http://www.w3.org/1999/xlink" x="0px" y="0px" width="56.7px"
	 height="56.69px" viewBox="0 0 56.7 56.69" enable-background="new 0 0 56.7 56.69" xml:space="preserve">
<g id="Grids">
	<g>
		
			<line fill-rule="evenodd" clip-rule="evenodd" fill="none" stroke="#D4D4D4" stroke-width="0.27" x1="4.94" y1="0" x2="4.94" y2="56.69"/>
		
			<line fill-rule="evenodd" clip-rule="evenodd" fill="none" stroke="#D4D4D4" stroke-width="0.27" x1="9.62" y1="0" x2="9.62" y2="56.69"/>
		
			<line fill-rule="evenodd" clip-rule="evenodd" fill="none" stroke="#D4D4D4" stroke-width="0.27" x1="18.98" y1="0" x2="18.98" y2="56.69"/>
		
			<line fill-rule="evenodd" clip-rule="evenodd" fill="none" stroke="#D4D4D4" stroke-width="0.27" x1="23.67" y1="0" x2="23.67" y2="56.69"/>
		
			<line fill-rule="evenodd" clip-rule="evenodd" fill="none" stroke="#D4D4D4" stroke-width="0.27" x1="33.03" y1="0" x2="33.03" y2="56.69"/>
		
			<line fill-rule="evenodd" clip-rule="evenodd" fill="none" stroke="#D4D4D4" stroke-width="0.27" x1="37.71" y1="0" x2="37.71" y2="56.69"/>
		
			<line fill-rule="evenodd" clip-rule="evenodd" fill="none" stroke="#D4D4D4" stroke-width="0.27" x1="47.08" y1="0" x2="47.08" y2="56.69"/>
		
			<line fill-rule="evenodd" clip-rule="evenodd" fill="none" stroke="#D4D4D4" stroke-width="0.27" x1="51.76" y1="0" x2="51.76" y2="56.69"/>
		
			<line fill-rule="evenodd" clip-rule="evenodd" fill="none" stroke="#D4D4D4" stroke-width="0.27" x1="56.7" y1="4.93" x2="0" y2="4.93"/>
		
			<line fill-rule="evenodd" clip-rule="evenodd" fill="none" stroke="#D4D4D4" stroke-width="0.27" x1="56.7" y1="9.61" x2="0" y2="9.61"/>
		
			<line fill-rule="evenodd" clip-rule="evenodd" fill="none" stroke="#D4D4D4" stroke-width="0.27" x1="56.7" y1="18.98" x2="0" y2="18.98"/>
		
			<line fill-rule="evenodd" clip-rule="evenodd" fill="none" stroke="#D4D4D4" stroke-width="0.27" x1="56.7" y1="23.66" x2="0" y2="23.66"/>
		
			<line fill-rule="evenodd" clip-rule="evenodd" fill="none" stroke="#D4D4D4" stroke-width="0.27" x1="56.7" y1="33.03" x2="0" y2="33.03"/>
		
			<line fill-rule="evenodd" clip-rule="evenodd" fill="none" stroke="#D4D4D4" stroke-width="0.27" x1="56.7" y1="37.71" x2="0" y2="37.71"/>
		
			<line fill-rule="evenodd" clip-rule="evenodd" fill="none" stroke="#D4D4D4" stroke-width="0.27" x1="56.7" y1="47.07" x2="0" y2="47.07"/>
		
			<line fill-rule="evenodd" clip-rule="evenodd" fill="none" stroke="#D4D4D4" stroke-width="0.27" x1="56.7" y1="51.76" x2="0" y2="51.76"/>
		
			<line fill-rule="evenodd" clip-rule="evenodd" fill="none" stroke="#8A8A8A" stroke-width="0.27" x1="14.3" y1="0" x2="14.3" y2="56.69"/>
		
			<line fill-rule="evenodd" clip-rule="evenodd" fill="none" stroke="#8A8A8A" stroke-width="0.27" x1="0.14" y1="0" x2="0.14" y2="56.69"/>
		
			<line fill-rule="evenodd" clip-rule="evenodd" fill="none" stroke="#8A8A8A" stroke-width="0.27" x1="28.35" y1="28.34" x2="28.35" y2="56.69"/>
		
			<line fill-rule="evenodd" clip-rule="evenodd" fill="none" stroke="#8A8A8A" stroke-width="0.27" x1="42.4" y1="0" x2="42.4" y2="56.69"/>
		
			<line fill-rule="evenodd" clip-rule="evenodd" fill="none" stroke="#8A8A8A" stroke-width="0.27" x1="56.56" y1="0" x2="56.56" y2="56.69"/>
		
			<line fill-rule="evenodd" clip-rule="evenodd" fill="none" stroke="#8A8A8A" stroke-width="0.27" x1="28.35" y1="28.34" x2="0" y2="28.34"/>
		
			<line fill-rule="evenodd" clip-rule="evenodd" fill="none" stroke="#8A8A8A" stroke-width="0.27" x1="56.7" y1="14.3" x2="0" y2="14.3"/>
		
			<line fill-rule="evenodd" clip-rule="evenodd" fill="none" stroke="#8A8A8A" stroke-width="0.27" x1="56.7" y1="0.14" x2="0" y2="0.14"/>
		
			<line fill-rule="evenodd" clip-rule="evenodd" fill="none" stroke="#8A8A8A" stroke-width="0.27" x1="56.7" y1="42.39" x2="0" y2="42.39"/>
		
			<line fill-rule="evenodd" clip-rule="evenodd" fill="none" stroke="#8A8A8A" stroke-width="0.27" x1="56.7" y1="56.55" x2="0" y2="56.55"/>
		<line fill-rule="evenodd" clip-rule="evenodd" fill="none" stroke="#A80000" x1="56.7" y1="28.34" x2="28.35" y2="28.34"/>
		<line fill-rule="evenodd" clip-rule="evenodd" fill="none" stroke="#12AB00" x1="28.35" y1="0" x2="28.35" y2="28.34"/>
	</g>
</g>
<g id="Text">
	<path fill-rule="evenodd" clip-rule="evenodd" d="M48.2,18.29l1.41-0.3c0.1,0.24,0.18,0.49,0.24,0.74c0.09,0.37,0.16,0.8,0.22,1.31
		c0.02,0.25,0.06,0.79,0.11,1.61c0.4-0.45,0.64-0.73,0.72-0.84c0.43-0.58,0.68-0.92,0.74-1.02c0.11-0.17,0.19-0.33,0.23-0.46
		c0.04-0.09,0.05-0.19,0.05-0.27c0-0.09-0.07-0.19-0.22-0.3c-0.16-0.11-0.23-0.23-0.23-0.37c0-0.1,0.04-0.2,0.12-0.28
		c0.09-0.08,0.19-0.12,0.3-0.12c0.14,0,0.26,0.06,0.36,0.17c0.1,0.11,0.16,0.25,0.16,0.42c0,0.16-0.03,0.32-0.08,0.48
		c-0.09,0.24-0.24,0.54-0.48,0.9c-0.23,0.36-0.6,0.84-1.11,1.43c-0.07,0.08-0.43,0.46-1.09,1.14h-0.18
		c-0.08-2.06-0.24-3.35-0.49-3.86c-0.08-0.17-0.21-0.25-0.4-0.25c-0.08,0-0.2,0.02-0.35,0.04L48.2,18.29z"/>
	<path fill-rule="evenodd" clip-rule="evenodd" d="M34.12,3.16l0.34,3.67c0.56-0.67,1.02-1.29,1.35-1.87c0.2-0.35,0.3-0.59,0.3-0.75
		c0-0.07-0.01-0.13-0.05-0.19C36.05,3.99,36,3.95,35.91,3.89c-0.09-0.05-0.15-0.11-0.19-0.17s-0.05-0.13-0.05-0.19
		c0-0.11,0.03-0.19,0.11-0.26c0.07-0.07,0.17-0.11,0.29-0.11c0.13,0,0.24,0.05,0.34,0.15c0.09,0.1,0.14,0.24,0.14,0.4
		c0,0.17-0.03,0.33-0.08,0.47c-0.09,0.28-0.29,0.65-0.57,1.09c-0.34,0.53-0.7,1.02-1.07,1.48C34.47,7.2,34.2,7.52,34.02,7.7h-0.18
		l-0.32-3.38L31.5,7.7h-0.21c-0.03-1.39-0.1-2.49-0.21-3.29c-0.05-0.34-0.13-0.56-0.25-0.66c-0.08-0.07-0.2-0.11-0.37-0.11
		c-0.09,0-0.21,0.01-0.36,0.03V3.49l1.4-0.33c0.2,0.55,0.32,1.38,0.38,2.51c0.02,0.43,0.04,0.69,0.05,0.8l2.01-3.31H34.12z"/>
	<path fill-rule="evenodd" clip-rule="evenodd" d="M39.31,32.48l-0.85,2.91c-0.13,0.43-0.19,0.7-0.19,0.82
		c0,0.06,0.01,0.1,0.03,0.13s0.05,0.04,0.09,0.04c0.05,0,0.11-0.03,0.18-0.08c0.07-0.05,0.23-0.25,0.5-0.6l0.15,0.11
		c-0.26,0.41-0.52,0.71-0.79,0.9c-0.18,0.13-0.35,0.19-0.52,0.19c-0.12,0-0.22-0.04-0.3-0.11c-0.07-0.07-0.1-0.16-0.1-0.28
		c0-0.11,0.02-0.26,0.06-0.44c0.05-0.24,0.2-0.76,0.44-1.57c-0.55,0.91-1.01,1.53-1.38,1.88c-0.38,0.34-0.72,0.52-1.04,0.52
		c-0.15,0-0.28-0.05-0.38-0.16c-0.11-0.1-0.16-0.24-0.16-0.39c0-0.25,0.07-0.62,0.22-1.13l0.42-1.51c0.11-0.36,0.16-0.58,0.16-0.67
		c0-0.04-0.02-0.07-0.04-0.1c-0.03-0.03-0.06-0.04-0.09-0.04c-0.07,0-0.14,0.02-0.21,0.07c-0.07,0.05-0.22,0.23-0.46,0.54l-0.16-0.1
		c0.25-0.38,0.51-0.66,0.78-0.84c0.21-0.14,0.4-0.21,0.58-0.21c0.12,0,0.22,0.04,0.29,0.12c0.08,0.07,0.12,0.17,0.12,0.29
		c0,0.18-0.07,0.49-0.2,0.94L36,35.29c-0.12,0.43-0.19,0.7-0.19,0.82c0,0.06,0.02,0.11,0.06,0.15c0.04,0.03,0.1,0.05,0.17,0.05
		c0.1,0,0.24-0.05,0.42-0.16c0.17-0.11,0.4-0.35,0.69-0.72c0.29-0.36,0.52-0.71,0.71-1.04c0.19-0.32,0.39-0.83,0.6-1.54l0.11-0.37
		H39.31z"/>
	<polygon fill-rule="evenodd" clip-rule="evenodd" points="35.8,2.23 35.96,1.75 29.63,1.75 29.63,1.5 35.96,1.5 35.8,1.03 
		37.6,1.63 	"/>
	<polygon fill-rule="evenodd" clip-rule="evenodd" points="51.48,17.08 51.64,16.6 48.12,16.6 48.12,16.35 51.64,16.35 51.48,15.88 
		53.28,16.48 	"/>
	<polygon fill-rule="evenodd" clip-rule="evenodd" points="38.65,31.63 38.81,31.15 35.3,31.15 35.3,30.9 38.81,30.9 38.65,30.43 
		40.45,31.03 	"/>
</g>
<g id="Other">
</g>
<g id="Vectors">
	<polygon fill-rule="evenodd" clip-rule="evenodd" points="28.97,28.36 28.04,27.99 35.76,8.42 34.71,8.36 37.75,4.73 37.5,9.46 
		36.69,8.78 	"/>
	<polygon fill-rule="evenodd" clip-rule="evenodd" points="28.73,28.62 28.29,27.73 43.19,20.26 42.45,19.51 47.14,18.84 
		43.79,22.19 43.64,21.15 	"/>
	<polygon fill-rule="evenodd" clip-rule="evenodd" points="37.72,42.42 34.02,39.46 35.04,39.2 28.09,28.45 28.93,27.9 35.88,38.66 
		36.53,37.83 	"/>
</g>
</svg>
