<?xml version="1.0" encoding="utf-8"?>
<!-- Generator: Adobe Illustrator 14.0.0, SVG Export Plug-In . SVG Version: 6.00 Build 43363)  -->
<!DOCTYPE svg PUBLIC "-//W3C//DTD SVG 1.0//EN" "http://www.w3.org/TR/2001/REC-SVG-20010904/DTD/svg10.dtd">
<svg version="1.0" xmlns="http://www.w3.org/2000/svg" xmlns:xlink="http://www.w3.org/1999/xlink" x="0px" y="0px"
	 width="508.11px" height="312.729px" viewBox="0 0 508.11 312.729" enable-background="new 0 0 508.11 312.729"
	 xml:space="preserve">
<g id="Grid">
	
		<line opacity="0.25" fill-rule="evenodd" clip-rule="evenodd" fill="none" stroke="#000000" stroke-linecap="round" stroke-linejoin="round" x1="75.06" y1="136.039" x2="467.24" y2="222.229"/>
	
		<line opacity="0.25" fill-rule="evenodd" clip-rule="evenodd" fill="none" stroke="#000000" stroke-linecap="round" stroke-linejoin="round" x1="85.81" y1="127.028" x2="470.98" y2="209.628"/>
	
		<line opacity="0.25" fill-rule="evenodd" clip-rule="evenodd" fill="none" stroke="#000000" stroke-linecap="round" stroke-linejoin="round" x1="96.15" y1="118.358" x2="474.55" y2="197.588"/>
	
		<line opacity="0.25" fill-rule="evenodd" clip-rule="evenodd" fill="none" stroke="#000000" stroke-linecap="round" stroke-linejoin="round" x1="106.1" y1="110.019" x2="477.97" y2="186.069"/>
	
		<line opacity="0.25" fill-rule="evenodd" clip-rule="evenodd" fill="none" stroke="#000000" stroke-linecap="round" stroke-linejoin="round" x1="124.94" y1="94.229" x2="484.37" y2="164.479"/>
	
		<line opacity="0.25" fill-rule="evenodd" clip-rule="evenodd" fill="none" stroke="#000000" stroke-linecap="round" stroke-linejoin="round" x1="133.86" y1="86.749" x2="487.379" y2="154.349"/>
	
		<line opacity="0.25" fill-rule="evenodd" clip-rule="evenodd" fill="none" stroke="#000000" stroke-linecap="round" stroke-linejoin="round" x1="142.47" y1="79.528" x2="490.26" y2="144.628"/>
	
		<line opacity="0.25" fill-rule="evenodd" clip-rule="evenodd" fill="none" stroke="#000000" stroke-linecap="round" stroke-linejoin="round" x1="150.79" y1="72.559" x2="493.04" y2="135.289"/>
	
		<line opacity="0.25" fill-rule="evenodd" clip-rule="evenodd" fill="none" stroke="#000000" stroke-linecap="round" stroke-linejoin="round" x1="14.29" y1="186.988" x2="445.581" y2="295.238"/>
	
		<line opacity="0.25" fill-rule="evenodd" clip-rule="evenodd" fill="none" stroke="#000000" stroke-linecap="round" stroke-linejoin="round" x1="27.48" y1="175.928" x2="450.36" y2="279.138"/>
	
		<line opacity="0.25" fill-rule="evenodd" clip-rule="evenodd" fill="none" stroke="#000000" stroke-linecap="round" stroke-linejoin="round" x1="40.12" y1="165.329" x2="454.9" y2="263.838"/>
	
		<line opacity="0.25" fill-rule="evenodd" clip-rule="evenodd" fill="none" stroke="#000000" stroke-linecap="round" stroke-linejoin="round" x1="52.25" y1="155.168" x2="459.22" y2="249.289"/>
	
		<line opacity="0.25" fill-rule="evenodd" clip-rule="evenodd" fill="none" stroke="#000000" stroke-linecap="round" stroke-linejoin="round" x1="63.89" y1="145.409" x2="463.331" y2="235.438"/>
	
		<line opacity="0.5" fill-rule="evenodd" clip-rule="evenodd" fill="none" stroke="#000000" stroke-linecap="round" stroke-linejoin="round" x1="0.5" y1="198.548" x2="440.54" y2="312.229"/>
	
		<line opacity="0.25" fill-rule="evenodd" clip-rule="evenodd" fill="none" stroke="#000000" stroke-linecap="round" stroke-linejoin="round" x1="181.41" y1="46.878" x2="503.11" y2="101.329"/>
	
		<line opacity="0.25" fill-rule="evenodd" clip-rule="evenodd" fill="none" stroke="#000000" stroke-linecap="round" stroke-linejoin="round" x1="188.47" y1="40.968" x2="505.4" y2="93.608"/>
	
		<line opacity="0.5" fill-rule="evenodd" clip-rule="evenodd" fill="none" stroke="#000000" stroke-linecap="round" stroke-linejoin="round" x1="195.3" y1="35.238" x2="507.61" y2="86.148"/>
	
		<line fill-rule="evenodd" clip-rule="evenodd" fill="none" stroke="#BD0000" stroke-width="2" stroke-linecap="round" stroke-linejoin="round" x1="284.22" y1="135.659" x2="481.24" y2="175.048"/>
	
		<line opacity="0.25" fill-rule="evenodd" clip-rule="evenodd" fill="none" stroke="#000000" stroke-linecap="round" stroke-linejoin="round" x1="174.13" y1="52.988" x2="500.73" y2="109.349"/>
	
		<line opacity="0.25" fill-rule="evenodd" clip-rule="evenodd" fill="none" stroke="#000000" stroke-linecap="round" stroke-linejoin="round" x1="166.61" y1="59.298" x2="498.26" y2="117.668"/>
	
		<line opacity="0.5" fill-rule="evenodd" clip-rule="evenodd" fill="none" stroke="#000000" stroke-linecap="round" stroke-linejoin="round" x1="115.69" y1="101.979" x2="284.22" y2="135.659"/>
	
		<line opacity="0.25" fill-rule="evenodd" clip-rule="evenodd" fill="none" stroke="#000000" stroke-linecap="round" stroke-linejoin="round" x1="158.83" y1="65.818" x2="495.7" y2="126.309"/>
	
		<line opacity="0.25" fill-rule="evenodd" clip-rule="evenodd" fill="none" stroke="#000000" stroke-linecap="round" stroke-linejoin="round" x1="421.65" y1="72.139" x2="313.7" y2="279.458"/>
	
		<line fill-rule="evenodd" clip-rule="evenodd" fill="none" stroke="#038A00" stroke-width="2" stroke-linecap="round" stroke-linejoin="round" x1="341.29" y1="59.039" x2="284.22" y2="135.659"/>
	
		<line opacity="0.25" fill-rule="evenodd" clip-rule="evenodd" fill="none" stroke="#000000" stroke-linecap="round" stroke-linejoin="round" x1="438.379" y1="74.858" x2="338.02" y2="285.738"/>
	
		<line opacity="0.25" fill-rule="evenodd" clip-rule="evenodd" fill="none" stroke="#000000" stroke-linecap="round" stroke-linejoin="round" x1="455.331" y1="77.628" x2="362.85" y2="292.159"/>
	
		<line opacity="0.5" fill-rule="evenodd" clip-rule="evenodd" fill="none" stroke="#000000" stroke-linecap="round" stroke-linejoin="round" x1="284.22" y1="135.659" x2="199.16" y2="249.869"/>
	
		<line opacity="0.5" fill-rule="evenodd" clip-rule="evenodd" fill="none" stroke="#000000" stroke-linecap="round" stroke-linejoin="round" x1="507.61" y1="86.148" x2="440.54" y2="312.229"/>
	
		<line opacity="0.25" fill-rule="evenodd" clip-rule="evenodd" fill="none" stroke="#000000" stroke-linecap="round" stroke-linejoin="round" x1="489.95" y1="83.269" x2="414.09" y2="305.388"/>
	
		<line opacity="0.25" fill-rule="evenodd" clip-rule="evenodd" fill="none" stroke="#000000" stroke-linecap="round" stroke-linejoin="round" x1="472.52" y1="80.428" x2="388.2" y2="298.708"/>
	
		<line opacity="0.5" fill-rule="evenodd" clip-rule="evenodd" fill="none" stroke="#000000" stroke-linecap="round" stroke-linejoin="round" x1="195.3" y1="35.238" x2="0.5" y2="198.548"/>
	
		<line opacity="0.25" fill-rule="evenodd" clip-rule="evenodd" fill="none" stroke="#000000" stroke-linecap="round" stroke-linejoin="round" x1="265.99" y1="46.758" x2="95.23" y2="223.018"/>
	
		<line opacity="0.25" fill-rule="evenodd" clip-rule="evenodd" fill="none" stroke="#000000" stroke-linecap="round" stroke-linejoin="round" x1="251.5" y1="44.398" x2="75.59" y2="217.949"/>
	
		<line opacity="0.25" fill-rule="evenodd" clip-rule="evenodd" fill="none" stroke="#000000" stroke-linecap="round" stroke-linejoin="round" x1="237.19" y1="42.068" x2="56.31" y2="212.968"/>
	
		<line opacity="0.25" fill-rule="evenodd" clip-rule="evenodd" fill="none" stroke="#000000" stroke-linecap="round" stroke-linejoin="round" x1="223.05" y1="39.758" x2="37.37" y2="208.069"/>
	
		<line opacity="0.25" fill-rule="evenodd" clip-rule="evenodd" fill="none" stroke="#000000" stroke-linecap="round" stroke-linejoin="round" x1="209.09" y1="37.488" x2="18.77" y2="203.268"/>
	
		<line opacity="0.25" fill-rule="evenodd" clip-rule="evenodd" fill="none" stroke="#000000" stroke-linecap="round" stroke-linejoin="round" x1="405.15" y1="69.448" x2="289.86" y2="273.298"/>
	
		<line opacity="0.25" fill-rule="evenodd" clip-rule="evenodd" fill="none" stroke="#000000" stroke-linecap="round" stroke-linejoin="round" x1="388.87" y1="66.789" x2="266.51" y2="267.268"/>
	
		<line opacity="0.25" fill-rule="evenodd" clip-rule="evenodd" fill="none" stroke="#000000" stroke-linecap="round" stroke-linejoin="round" x1="372.8" y1="64.168" x2="243.62" y2="261.349"/>
	
		<line opacity="0.25" fill-rule="evenodd" clip-rule="evenodd" fill="none" stroke="#000000" stroke-linecap="round" stroke-linejoin="round" x1="356.94" y1="61.588" x2="221.17" y2="255.558"/>
	
		<line opacity="0.25" fill-rule="evenodd" clip-rule="evenodd" fill="none" stroke="#000000" stroke-linecap="round" stroke-linejoin="round" x1="325.84" y1="56.519" x2="177.58" y2="244.289"/>
	
		<line opacity="0.25" fill-rule="evenodd" clip-rule="evenodd" fill="none" stroke="#000000" stroke-linecap="round" stroke-linejoin="round" x1="310.59" y1="54.028" x2="156.4" y2="238.819"/>
	
		<line opacity="0.25" fill-rule="evenodd" clip-rule="evenodd" fill="none" stroke="#000000" stroke-linecap="round" stroke-linejoin="round" x1="295.531" y1="51.579" x2="135.63" y2="233.458"/>
	
		<line opacity="0.25" fill-rule="evenodd" clip-rule="evenodd" fill="none" stroke="#000000" stroke-linecap="round" stroke-linejoin="round" x1="280.669" y1="49.148" x2="115.24" y2="228.188"/>
</g>
<g id="Details">
	
		<polyline fill-rule="evenodd" clip-rule="evenodd" fill="none" stroke="#000000" stroke-linecap="round" stroke-linejoin="bevel" stroke-dasharray="2,2" points="
		378.82,154.438 414.22,86.338 331.72,72.238 	"/>
	<path fill-rule="evenodd" clip-rule="evenodd" d="M379.51,153.108c0.729,0.39,1.02,1.29,0.64,2.03c-0.39,0.73-1.29,1.02-2.03,0.64
		c-0.729-0.39-1.02-1.29-0.64-2.03C377.87,153.019,378.77,152.729,379.51,153.108z"/>
	<path fill-rule="evenodd" clip-rule="evenodd" d="M333.19,72.499c-0.14,0.81-0.91,1.36-1.729,1.22
		c-0.811-0.14-1.36-0.91-1.221-1.73c0.14-0.81,0.91-1.36,1.73-1.22C332.78,70.909,333.331,71.678,333.19,72.499z"/>
	
		<line fill-rule="evenodd" clip-rule="evenodd" fill="none" stroke="#000000" stroke-width="0.5" stroke-linecap="round" stroke-linejoin="round" stroke-dasharray="0.99,0.99" x1="414.28" y1="86.298" x2="423.84" y2="3.369"/>
	
		<line fill-rule="evenodd" clip-rule="evenodd" fill="none" stroke="#000000" stroke-linecap="round" stroke-linejoin="round" x1="284.22" y1="135.659" x2="414.28" y2="86.298"/>
	<g>
		
			<line fill-rule="evenodd" clip-rule="evenodd" fill="none" stroke="#000000" stroke-width="1.89" stroke-linejoin="bevel" x1="425.84" y1="4.568" x2="421.94" y2="0.668"/>
		
			<line fill-rule="evenodd" clip-rule="evenodd" fill="none" stroke="#000000" stroke-width="1.89" stroke-linejoin="bevel" x1="425.84" y1="0.668" x2="421.94" y2="4.568"/>
	</g>
	<path fill-rule="evenodd" clip-rule="evenodd" fill="#FFFFFF" stroke="#000000" d="M412.4,86.249c0-0.99,0.811-1.8,1.8-1.8
		c0.99,0,1.801,0.81,1.801,1.8c0,1-0.811,1.8-1.801,1.8C413.21,88.048,412.4,87.249,412.4,86.249z"/>
	<path fill-rule="evenodd" clip-rule="evenodd" fill="#FFFFFF" stroke="#000000" d="M282.35,135.749c0-0.99,0.811-1.8,1.8-1.8
		c0.99,0,1.8,0.81,1.8,1.8c0,1-0.81,1.8-1.8,1.8C283.161,137.548,282.35,136.749,282.35,135.749z"/>
	<g>
		<g>
			<polygon fill-rule="evenodd" clip-rule="evenodd" points="377.44,151.918 375.831,149.878 374.379,151.918 372.65,151.918 
				375.06,148.708 372.84,145.648 374.52,145.648 375.85,147.568 377.32,145.648 378.99,145.648 376.59,148.708 379.22,151.918 			
				"/>
		</g>
	</g>
	<g>
		<g>
			<path fill-rule="evenodd" clip-rule="evenodd" d="M327.51,74.028c-0.15,0.42-0.49,0.77-1,1.04c-0.521,0.28-1.11,0.42-1.8,0.42
				v-1.3c1.13,0,1.7-0.28,1.7-0.85c0-0.37-0.16-0.95-0.471-1.72l-1.97-4.87h1.52l1.71,4.34l1.54-4.34h1.521L327.51,74.028z"/>
		</g>
	</g>
	<g>
		<g>
			<path fill-rule="evenodd" clip-rule="evenodd" d="M247.66,139.019c0-1.5,0.41-2.81,1.21-3.92c0.81-1.11,1.85-1.66,3.14-1.66
				c0.98,0,1.74,0.27,2.25,0.81c0.521,0.54,0.779,1.31,0.779,2.32c0,1.67-0.41,3.05-1.219,4.13c-0.82,1.08-1.94,1.62-3.38,1.62
				c-0.87,0-1.55-0.3-2.04-0.92C247.91,140.789,247.66,139.999,247.66,139.019z M248.91,138.858c0,0.74,0.15,1.33,0.44,1.76
				c0.3,0.43,0.72,0.65,1.27,0.65c0.98,0,1.75-0.45,2.32-1.36c0.57-0.9,0.86-1.97,0.86-3.21c0-1.48-0.63-2.21-1.9-2.21
				c-0.87,0-1.59,0.48-2.15,1.43C249.19,136.878,248.91,137.849,248.91,138.858z"/>
			<path fill-rule="evenodd" clip-rule="evenodd" d="M259.97,136.999c-0.23-0.19-0.5-0.28-0.82-0.28c-0.39,0-0.771,0.18-1.13,0.55
				c-0.359,0.36-0.58,0.8-0.67,1.31l-0.64,3.59h-1.11l1.1-6.27h1.12l-0.18,1c0.54-0.74,1.21-1.12,2.01-1.12
				c0.14,0,0.351,0.03,0.64,0.08L259.97,136.999z"/>
			<path fill-rule="evenodd" clip-rule="evenodd" d="M262.69,133.438c0.21,0,0.4,0.07,0.55,0.22c0.15,0.16,0.23,0.34,0.23,0.56
				c0,0.21-0.08,0.4-0.23,0.55c-0.149,0.15-0.34,0.22-0.55,0.22c-0.22,0-0.4-0.07-0.55-0.22c-0.16-0.15-0.229-0.34-0.229-0.55
				c0-0.22,0.069-0.4,0.229-0.56C262.29,133.508,262.47,133.438,262.69,133.438z M260.89,142.168l0.95-5.33h-0.83l0.2-0.92h1.919
				l-1.109,6.25H260.89z"/>
			<path fill-rule="evenodd" clip-rule="evenodd" d="M263.68,143.928l0.53-0.82c0.72,0.36,1.31,0.54,1.779,0.54
				c0.511,0,0.94-0.09,1.291-0.29c0.339-0.19,0.509-0.45,0.509-0.8c0-0.17-0.06-0.31-0.17-0.42c-0.119-0.11-0.31-0.19-0.589-0.24
				l-1.03-0.18c-0.42-0.1-0.631-0.31-0.631-0.63c0-0.26,0.341-0.52,1-0.78h-0.2c-0.449,0-0.85-0.17-1.199-0.51
				c-0.351-0.34-0.521-0.75-0.521-1.23c0-0.82,0.271-1.49,0.79-2.01c0.53-0.52,1.2-0.78,2.021-0.78c0.59,0,1.06,0.14,1.4,0.42
				l0.529-0.59l0.61,0.63l-0.58,0.6c0.11,0.16,0.17,0.42,0.17,0.76c0,0.67-0.17,1.25-0.511,1.73c-0.34,0.48-0.779,0.81-1.329,1.01
				c-0.55,0.19-0.83,0.37-0.83,0.54c0,0.14,0.08,0.21,0.229,0.21c0.051,0,0.131-0.01,0.24-0.03c0.11-0.02,0.189-0.03,0.24-0.03
				c0.98,0,1.47,0.44,1.47,1.33c0,0.69-0.31,1.24-0.92,1.65c-0.62,0.42-1.351,0.63-2.199,0.63
				C264.919,144.639,264.22,144.398,263.68,143.928z M267.18,136.678c-0.45,0-0.83,0.17-1.13,0.52c-0.311,0.35-0.46,0.76-0.46,1.24
				c0,0.85,0.32,1.27,0.96,1.27c0.439,0,0.829-0.21,1.16-0.64c0.34-0.43,0.51-0.88,0.51-1.36c0-0.32-0.101-0.57-0.28-0.75
				C267.75,136.769,267.5,136.678,267.18,136.678z"/>
			<path fill-rule="evenodd" clip-rule="evenodd" d="M272.39,133.438c0.22,0,0.399,0.07,0.55,0.22c0.15,0.16,0.229,0.34,0.229,0.56
				c0,0.21-0.079,0.4-0.229,0.55s-0.33,0.22-0.55,0.22c-0.21,0-0.4-0.07-0.55-0.22c-0.15-0.15-0.23-0.34-0.23-0.55
				c0-0.22,0.08-0.4,0.23-0.56C271.99,133.508,272.18,133.438,272.39,133.438z M270.59,142.168l0.949-5.33h-0.829l0.2-0.92h1.92
				l-1.11,6.25H270.59z"/>
			<path fill-rule="evenodd" clip-rule="evenodd" d="M277.73,142.168l0.66-3.65c0.05-0.32,0.08-0.59,0.08-0.8c0-0.67-0.341-1-1.03-1
				c-0.271,0-0.55,0.08-0.859,0.23c-0.3,0.16-0.541,0.35-0.721,0.56l-0.81,4.66h-1.131l0.841-4.75c0.021-0.11,0.029-0.24,0.029-0.39
				c0-0.4-0.039-0.74-0.12-1.04l1.081-0.21c0.1,0.57,0.16,0.88,0.149,0.93c0.479-0.62,1.17-0.93,2.061-0.93
				c1.14,0,1.7,0.58,1.7,1.74c0,0.23-0.021,0.49-0.07,0.77l-0.68,3.88H277.73z"/>
		</g>
	</g>
	<g>
		<g>
			<path fill-rule="evenodd" clip-rule="evenodd" d="M417.23,85.948l0.351-1.12c0.17,0.13,0.42,0.24,0.76,0.34
				c0.329,0.09,0.649,0.14,0.96,0.14c0.46,0,0.84-0.12,1.119-0.34c0.28-0.23,0.421-0.54,0.421-0.94c0-0.33-0.11-0.63-0.32-0.88
				s-0.58-0.57-1.09-0.94c-0.511-0.37-0.891-0.71-1.12-1.03c-0.24-0.32-0.35-0.73-0.35-1.21c0-0.77,0.239-1.38,0.729-1.81
				c0.49-0.44,1.13-0.66,1.9-0.66c0.88,0,1.47,0.07,1.76,0.22l-0.34,1.14c-0.11-0.09-0.29-0.17-0.55-0.25
				c-0.261-0.08-0.5-0.12-0.721-0.12c-0.5,0-0.89,0.12-1.18,0.34c-0.29,0.23-0.44,0.55-0.44,0.98c0,0.18,0.05,0.35,0.141,0.52
				c0.09,0.17,0.22,0.32,0.369,0.46c0.16,0.13,0.48,0.38,0.971,0.74c0.48,0.37,0.84,0.74,1.069,1.11
				c0.23,0.38,0.341,0.82,0.341,1.32c0,0.78-0.26,1.37-0.78,1.79c-0.52,0.41-1.21,0.62-2.069,0.62c-0.301,0-0.641-0.04-1.031-0.13
				C417.75,86.159,417.45,86.059,417.23,85.948z"/>
			<path fill-rule="evenodd" clip-rule="evenodd" d="M428.661,80.338l-0.771,3.65c-0.03,0.15-0.05,0.33-0.05,0.54
				c0,0.61,0.1,1.18,0.289,1.7h-1.14c-0.06-0.13-0.13-0.34-0.2-0.64c-0.18,0.23-0.449,0.41-0.819,0.55c-0.36,0.13-0.74,0.2-1.15,0.2
				c-0.62,0-1.1-0.18-1.45-0.54c-0.34-0.37-0.51-0.89-0.51-1.58c0-1.15,0.34-2.16,1.01-3.05c0.681-0.89,1.55-1.34,2.62-1.34
				C427.5,79.829,428.22,79.999,428.661,80.338z M427.43,80.988c-0.11-0.16-0.46-0.25-1.07-0.25c-0.62,0-1.16,0.33-1.63,0.99
				c-0.47,0.65-0.7,1.47-0.7,2.46c0,0.83,0.37,1.25,1.11,1.25c0.39,0,0.75-0.21,1.09-0.61c0.34-0.4,0.58-0.91,0.71-1.53
				L427.43,80.988z"/>
			<path fill-rule="evenodd" clip-rule="evenodd" d="M436.411,86.229l0.699-3.98c0.03-0.15,0.04-0.3,0.04-0.45
				c0-0.69-0.34-1.03-1.03-1.03c-0.26,0-0.51,0.08-0.77,0.24c-0.26,0.16-0.46,0.35-0.59,0.58l-0.82,4.64h-1.15l0.791-4.46
				c0.02-0.07,0.02-0.13,0.02-0.18c0-0.55-0.37-0.82-1.1-0.82c-0.23,0-0.48,0.09-0.75,0.26c-0.271,0.17-0.48,0.36-0.621,0.57
				l-0.819,4.63h-1.141l0.811-4.58c0.021-0.13,0.04-0.32,0.04-0.55c0-0.43-0.04-0.79-0.12-1.06l1.08-0.2
				c0.07,0.3,0.11,0.57,0.13,0.82c0.15-0.25,0.41-0.46,0.77-0.6c0.36-0.15,0.74-0.23,1.131-0.23c0.9,0,1.47,0.28,1.729,0.84
				c0.18-0.24,0.45-0.44,0.811-0.6c0.369-0.16,0.729-0.24,1.09-0.24c1.14,0,1.71,0.55,1.71,1.63c0,0.18-0.02,0.37-0.05,0.57
				l-0.75,4.2H436.411z"/>
			<path fill-rule="evenodd" clip-rule="evenodd" d="M440.28,85.909l-0.5,2.81h-1.11l1.23-6.89c0.061-0.3,0.08-0.6,0.08-0.89
				c0-0.3-0.03-0.58-0.08-0.87l1.11-0.21c0.02,0.05,0.06,0.32,0.109,0.81c0.181-0.23,0.45-0.42,0.791-0.58
				c0.34-0.15,0.67-0.23,0.959-0.23c0.78,0,1.37,0.2,1.76,0.58c0.391,0.39,0.581,0.97,0.581,1.75c0,1.19-0.331,2.18-0.99,2.98
				c-0.66,0.8-1.521,1.2-2.591,1.2c-0.229,0-0.5-0.04-0.789-0.13C440.54,86.148,440.35,86.039,440.28,85.909z M440.44,84.988
				c0.07,0.12,0.21,0.23,0.43,0.32c0.211,0.08,0.41,0.13,0.601,0.13c0.819,0,1.449-0.28,1.89-0.83c0.44-0.56,0.67-1.31,0.67-2.27
				c0-0.51-0.13-0.9-0.39-1.16c-0.261-0.25-0.65-0.38-1.17-0.38c-0.23,0-0.49,0.08-0.79,0.24c-0.301,0.16-0.511,0.32-0.641,0.49
				L440.44,84.988z"/>
			<path fill-rule="evenodd" clip-rule="evenodd" d="M448.31,85.519l-0.13,0.82c-1.25,0-1.88-0.46-1.88-1.39
				c0-0.28,0.1-0.91,0.29-1.88l1.13-5.69h1.159l-1.069,5.34c-0.229,1.11-0.34,1.81-0.34,2.09
				C447.47,85.278,447.75,85.519,448.31,85.519z"/>
			<path fill-rule="evenodd" clip-rule="evenodd" d="M451.11,83.258c-0.029,0.19-0.05,0.37-0.05,0.54c0,0.52,0.14,0.91,0.43,1.19
				c0.29,0.28,0.7,0.42,1.21,0.42c0.47,0,0.93-0.17,1.4-0.51l-0.12,1.13c-0.62,0.21-1.18,0.31-1.66,0.31
				c-1.609,0-2.42-0.9-2.42-2.72c0-1.06,0.34-1.96,1.02-2.69c0.681-0.73,1.53-1.1,2.561-1.1c0.63,0,1.12,0.14,1.49,0.4
				c0.37,0.27,0.56,0.65,0.56,1.14c0,0.68-0.29,1.22-0.869,1.62c-0.58,0.39-1.291,0.59-2.131,0.59
				C451.97,83.579,451.5,83.468,451.11,83.258z M451.3,82.448c0.3,0.14,0.649,0.2,1.05,0.2c0.61,0,1.11-0.1,1.5-0.29
				c0.38-0.2,0.58-0.49,0.58-0.87c0-0.48-0.33-0.72-1-0.72C452.419,80.769,451.71,81.329,451.3,82.448z"/>
		</g>
	</g>
	<g>
		<g>
			<polygon fill-rule="evenodd" clip-rule="evenodd" points="430.52,9.088 429.93,9.088 428.26,0.389 429.55,0.389 430.64,6.659 
				433.831,0.389 435.161,0.389 			"/>
			<path fill-rule="evenodd" clip-rule="evenodd" d="M435.29,6.008c-0.029,0.19-0.05,0.37-0.05,0.54c0,0.52,0.14,0.91,0.43,1.19
				c0.291,0.28,0.69,0.42,1.21,0.42c0.461,0,0.931-0.17,1.4-0.51l-0.119,1.13c-0.621,0.21-1.181,0.31-1.66,0.31
				c-1.61,0-2.42-0.9-2.42-2.72c0-1.06,0.339-1.96,1.02-2.69c0.68-0.73,1.529-1.1,2.561-1.1c0.619,0,1.119,0.14,1.489,0.4
				c0.37,0.27,0.561,0.65,0.561,1.14c0,0.68-0.291,1.22-0.87,1.62c-0.58,0.39-1.29,0.59-2.13,0.59
				C436.15,6.329,435.68,6.218,435.29,6.008z M435.48,5.198c0.3,0.14,0.649,0.2,1.05,0.2c0.61,0,1.11-0.1,1.5-0.29
				c0.381-0.2,0.58-0.49,0.58-0.87c0-0.48-0.34-0.72-1-0.72C436.6,3.519,435.89,4.079,435.48,5.198z"/>
			<path fill-rule="evenodd" clip-rule="evenodd" d="M444.81,3.798c-0.24-0.19-0.51-0.28-0.82-0.28c-0.399,0-0.779,0.18-1.14,0.55
				c-0.36,0.36-0.58,0.8-0.67,1.31l-0.641,3.6h-1.109l1.109-6.28h1.11l-0.18,1c0.54-0.74,1.21-1.12,2.01-1.12
				c0.14,0,0.351,0.03,0.64,0.09L444.81,3.798z"/>
			<path fill-rule="evenodd" clip-rule="evenodd" d="M446.79,3.579h-0.72l0.181-0.88h0.729l0.26-1.31l1.271-0.48l-0.42,1.79h1.729
				l-0.19,0.88H447.9l-0.649,3.12c-0.051,0.24-0.081,0.43-0.081,0.56c0,0.6,0.301,0.9,0.891,0.9c0.29,0,0.601-0.08,0.93-0.22
				l-0.04,0.98c-0.32,0.11-0.83,0.17-1.55,0.17c-0.439,0-0.79-0.13-1.04-0.41c-0.25-0.28-0.37-0.65-0.37-1.13
				c0-0.11,0.021-0.25,0.05-0.41L446.79,3.579z"/>
			<path fill-rule="evenodd" clip-rule="evenodd" d="M451.77,6.008c-0.03,0.19-0.05,0.37-0.05,0.54c0,0.52,0.14,0.91,0.43,1.19
				c0.29,0.28,0.7,0.42,1.22,0.42c0.461,0,0.92-0.17,1.391-0.51l-0.12,1.13c-0.62,0.21-1.17,0.31-1.66,0.31
				c-1.61,0-2.42-0.9-2.42-2.72c0-1.06,0.34-1.96,1.021-2.69c0.68-0.73,1.529-1.1,2.569-1.1c0.62,0,1.11,0.14,1.479,0.4
				c0.371,0.27,0.561,0.65,0.561,1.14c0,0.68-0.29,1.22-0.87,1.62c-0.58,0.39-1.28,0.59-2.12,0.59
				C452.629,6.329,452.161,6.218,451.77,6.008z M451.97,5.198c0.29,0.14,0.64,0.2,1.04,0.2c0.609,0,1.109-0.1,1.5-0.29
				c0.39-0.2,0.58-0.49,0.58-0.87c0-0.48-0.33-0.72-1-0.72C453.081,3.519,452.37,4.079,451.97,5.198z"/>
			<polygon fill-rule="evenodd" clip-rule="evenodd" points="460.5,8.979 459.4,6.769 457.669,8.979 456.31,8.979 458.9,5.708 
				457.31,2.698 458.629,2.698 459.661,4.878 461.26,2.698 462.72,2.698 460.22,5.809 461.95,8.979 			"/>
		</g>
	</g>
	<g>
		<g>
			<path fill-rule="evenodd" clip-rule="evenodd" d="M367.71,100.148v-0.89l3.14-7.69h1.09l2.86,7.69v0.89H367.71z M371.35,93.849
				l-1.931,5.01h3.75L371.35,93.849z"/>
		</g>
	</g>
	<path fill-rule="evenodd" clip-rule="evenodd" d="M344.95,149.278c-0.28,0.02-0.58-0.04-0.85-0.2c-0.721-0.41-0.96-1.33-0.55-2.04
		c0.31-0.54,0.899-0.82,1.479-0.74h0.04l0.341-0.7c4.079-9.04,0.289-17.85-8.991-24.91l-1.729-1.24l-0.561,0.82l-2.039-3.21
		l3.729,0.73l-0.56,0.83l1.76,1.27c9.5,7.24,13.63,16.53,9.311,26.1l-0.381,0.79l0.09,0.1c0.36,0.46,0.421,1.11,0.11,1.65
		C345.89,148.979,345.43,149.249,344.95,149.278z"/>
	<g>
		<g>
			<path fill-rule="evenodd" clip-rule="evenodd" d="M336.3,131.539c0-1.19,0.35-2.22,1.03-3.08c0.689-0.86,1.64-1.29,2.869-1.29
				c1.211,0,2.141,0.38,2.801,1.16c0.66,0.78,0.989,1.85,0.989,3.21c0,1.3-0.34,2.37-1.02,3.23c-0.67,0.85-1.64,1.28-2.89,1.28
				s-2.19-0.42-2.83-1.25C336.62,133.958,336.3,132.878,336.3,131.539z M337.84,131.539c0,1.04,0.199,1.83,0.59,2.37
				c0.39,0.54,0.949,0.81,1.689,0.81c0.771,0,1.351-0.28,1.74-0.85c0.391-0.57,0.59-1.35,0.58-2.33c0.01-2.04-0.75-3.06-2.271-3.06
				c-0.77,0-1.35,0.3-1.739,0.88C338.04,129.938,337.84,130.668,337.84,131.539z M341.77,132.168h-3.24v-1.31h3.24V132.168z"/>
		</g>
	</g>
</g>
</svg>
