<?xml version="1.0" encoding="utf-8"?>
<!-- Generator: Adobe Illustrator 14.0.0, SVG Export Plug-In . SVG Version: 6.00 Build 43363)  -->
<!DOCTYPE svg PUBLIC "-//W3C//DTD SVG 1.0//EN" "http://www.w3.org/TR/2001/REC-SVG-20010904/DTD/svg10.dtd">
<svg version="1.0" xmlns="http://www.w3.org/2000/svg" xmlns:xlink="http://www.w3.org/1999/xlink" x="0px" y="0px"
	 width="521.28px" height="372.5px" viewBox="0 0 521.28 372.5" enable-background="new 0 0 521.28 372.5" xml:space="preserve">
<g id="BackBuffer">
	<polygon fill-rule="evenodd" clip-rule="evenodd" fill="#E3E3E3" points="226.74,54 509.62,114.51 379.919,335.93 16.38,219 	"/>
</g>
<g id="Viewport_x5F_BG">
	<g>
		
			<line fill-rule="evenodd" clip-rule="evenodd" fill="none" stroke="#D4D4D4" stroke-linecap="round" stroke-linejoin="round" x1="65.88" y1="119.03" x2="520.28" y2="238.79"/>
		
			<line fill-rule="evenodd" clip-rule="evenodd" fill="none" stroke="#D4D4D4" stroke-linecap="round" stroke-linejoin="round" x1="397.56" y1="371.41" x2="520.28" y2="142.69"/>
		
			<line fill-rule="evenodd" clip-rule="evenodd" fill="none" stroke="#D4D4D4" stroke-linecap="round" stroke-linejoin="round" x1="163.75" y1="50.23" x2="520.28" y2="128.12"/>
		
			<line fill-rule="evenodd" clip-rule="evenodd" fill="none" stroke="#D4D4D4" stroke-linecap="round" stroke-linejoin="round" x1="152.94" y1="57.83" x2="520.28" y2="139.84"/>
		
			<line fill-rule="evenodd" clip-rule="evenodd" fill="none" stroke="#D4D4D4" stroke-linecap="round" stroke-linejoin="round" x1="141.76" y1="65.69" x2="520.28" y2="152.08"/>
		
			<line fill-rule="evenodd" clip-rule="evenodd" fill="none" stroke="#D4D4D4" stroke-linecap="round" stroke-linejoin="round" x1="130.2" y1="73.82" x2="520.28" y2="164.88"/>
		
			<line fill-rule="evenodd" clip-rule="evenodd" fill="none" stroke="#D4D4D4" stroke-linecap="round" stroke-linejoin="round" x1="435.93" y1="371.41" x2="520.28" y2="198.341"/>
		
			<line fill-rule="evenodd" clip-rule="evenodd" fill="none" stroke="#D4D4D4" stroke-linecap="round" stroke-linejoin="round" x1="105.84" y1="90.94" x2="520.28" y2="192.32"/>
		
			<line fill-rule="evenodd" clip-rule="evenodd" fill="none" stroke="#D4D4D4" stroke-linecap="round" stroke-linejoin="round" x1="93" y1="99.96" x2="520.28" y2="207.051"/>
		
			<line fill-rule="evenodd" clip-rule="evenodd" fill="none" stroke="#D4D4D4" stroke-linecap="round" stroke-linejoin="round" x1="79.69" y1="109.32" x2="520.28" y2="222.521"/>
		
			<line fill-rule="evenodd" clip-rule="evenodd" fill="none" stroke="#D4D4D4" stroke-linecap="round" stroke-linejoin="round" x1="205.69" y1="371.41" x2="421.44" y2="95.75"/>
		
			<line fill-rule="evenodd" clip-rule="evenodd" fill="none" stroke="#D4D4D4" stroke-linecap="round" stroke-linejoin="round" x1="1" y1="234.56" x2="413.081" y2="371.41"/>
		
			<line fill-rule="evenodd" clip-rule="evenodd" fill="none" stroke="#D4D4D4" stroke-linecap="round" stroke-linejoin="round" x1="1" y1="256.16" x2="336.78" y2="371.41"/>
		
			<line fill-rule="evenodd" clip-rule="evenodd" fill="none" stroke="#D4D4D4" stroke-linecap="round" stroke-linejoin="round" x1="359.19" y1="371.41" x2="509.61" y2="114.61"/>
		
			<line fill-rule="evenodd" clip-rule="evenodd" fill="none" stroke="#D4D4D4" stroke-linecap="round" stroke-linejoin="round" x1="320.81" y1="371.41" x2="486.959" y2="109.77"/>
		
			<line fill-rule="evenodd" clip-rule="evenodd" fill="none" stroke="#D4D4D4" stroke-linecap="round" stroke-linejoin="round" x1="1" y1="279.25" x2="260.48" y2="371.41"/>
		
			<line fill-rule="evenodd" clip-rule="evenodd" fill="none" stroke="#D4D4D4" stroke-linecap="round" stroke-linejoin="round" x1="244.07" y1="371.41" x2="442.879" y2="100.34"/>
		
			<line fill-rule="evenodd" clip-rule="evenodd" fill="none" stroke="#D4D4D4" stroke-linecap="round" stroke-linejoin="round" x1="1" y1="177.46" x2="493.93" y2="326.62"/>
		
			<line fill-rule="evenodd" clip-rule="evenodd" fill="none" stroke="#D4D4D4" stroke-linecap="round" stroke-linejoin="round" x1="1" y1="256.65" x2="244.58" y2="57.92"/>
		
			<line fill-rule="evenodd" clip-rule="evenodd" fill="none" stroke="#D4D4D4" stroke-linecap="round" stroke-linejoin="round" x1="1" y1="230.98" x2="226.55" y2="54.07"/>
		
			<line fill-rule="evenodd" clip-rule="evenodd" fill="none" stroke="#D4D4D4" stroke-linecap="round" stroke-linejoin="round" x1="1" y1="207.221" x2="208.82" y2="50.27"/>
		
			<line fill-rule="evenodd" clip-rule="evenodd" fill="none" stroke="#D4D4D4" stroke-linecap="round" stroke-linejoin="round" x1="1" y1="214.33" x2="476.169" y2="367.171"/>
		
			<line fill-rule="evenodd" clip-rule="evenodd" fill="none" stroke="#D4D4D4" stroke-linecap="round" stroke-linejoin="round" x1="1" y1="185.16" x2="191.38" y2="46.54"/>
		
			<line fill-rule="evenodd" clip-rule="evenodd" fill="none" stroke="#D4D4D4" stroke-linecap="round" stroke-linejoin="round" x1="60.61" y1="325.94" x2="319.79" y2="74.01"/>
		
			<line fill-rule="evenodd" clip-rule="evenodd" fill="none" stroke="#D4D4D4" stroke-linecap="round" stroke-linejoin="round" x1="34.74" y1="316.421" x2="300.51" y2="69.88"/>
		
			<line fill-rule="evenodd" clip-rule="evenodd" fill="none" stroke="#D4D4D4" stroke-linecap="round" stroke-linejoin="round" x1="9.53" y1="307.15" x2="281.55" y2="65.83"/>
		
			<line fill-rule="evenodd" clip-rule="evenodd" fill="none" stroke="#D4D4D4" stroke-linecap="round" stroke-linejoin="round" x1="87.17" y1="335.721" x2="339.419" y2="78.21"/>
		
			<line fill-rule="evenodd" clip-rule="evenodd" fill="none" stroke="#D4D4D4" stroke-linecap="round" stroke-linejoin="round" x1="142.47" y1="356.07" x2="379.7" y2="86.83"/>
		
			<line fill-rule="evenodd" clip-rule="evenodd" fill="none" stroke="#D4D4D4" stroke-linecap="round" stroke-linejoin="round" x1="171.27" y1="366.66" x2="400.39" y2="91.25"/>
		
			<line fill-rule="evenodd" clip-rule="evenodd" fill="none" stroke="#D4D4D4" stroke-linecap="round" stroke-linejoin="round" x1="21.15" y1="150.47" x2="509.93" y2="290.101"/>
		
			<line fill-rule="evenodd" clip-rule="evenodd" fill="none" stroke="#D4D4D4" stroke-linecap="round" stroke-linejoin="round" x1="5.03" y1="161.8" x2="502.129" y2="307.891"/>
		
			<line fill-rule="evenodd" clip-rule="evenodd" fill="none" stroke="#D4D4D4" stroke-linecap="round" stroke-linejoin="round" x1="36.64" y1="139.58" x2="517.35" y2="273.171"/>
	</g>
	<g>
		
			<line fill-rule="evenodd" clip-rule="evenodd" fill="none" stroke="#8A8A8A" stroke-linecap="round" stroke-linejoin="round" x1="174.22" y1="42.87" x2="520.28" y2="116.89"/>
		
			<line fill-rule="evenodd" clip-rule="evenodd" fill="none" stroke="#8A8A8A" stroke-linecap="round" stroke-linejoin="round" x1="118.23" y1="82.23" x2="520.28" y2="178.28"/>
		
			<line fill-rule="evenodd" clip-rule="evenodd" fill="none" stroke="#8A8A8A" stroke-linecap="round" stroke-linejoin="round" x1="474.31" y1="371.41" x2="520.28" y2="266.48"/>
		
			<line fill-rule="evenodd" clip-rule="evenodd" fill="none" stroke="#8A8A8A" stroke-linecap="round" stroke-linejoin="round" x1="282.44" y1="371.41" x2="464.72" y2="105.01"/>
		
			<line fill-rule="evenodd" clip-rule="evenodd" fill="none" stroke="#8A8A8A" stroke-linecap="round" stroke-linejoin="round" x1="1" y1="304.01" x2="184.18" y2="371.41"/>
		
			<line fill-rule="evenodd" clip-rule="evenodd" fill="none" stroke="#8A8A8A" stroke-linecap="round" stroke-linejoin="round" x1="1" y1="284.46" x2="262.911" y2="61.84"/>
		
			<line fill-rule="evenodd" clip-rule="evenodd" fill="none" stroke="#8A8A8A" stroke-linecap="round" stroke-linejoin="round" x1="1" y1="195.33" x2="485.29" y2="346.351"/>
		
			<line fill-rule="evenodd" clip-rule="evenodd" fill="none" stroke="#8A8A8A" stroke-linecap="round" stroke-linejoin="round" x1="1" y1="164.63" x2="174.22" y2="42.87"/>
		
			<line fill-rule="evenodd" clip-rule="evenodd" fill="none" stroke="#8A8A8A" stroke-linecap="round" stroke-linejoin="round" x1="262.82" y1="186.27" x2="51.54" y2="129.11"/>
		
			<line fill-rule="evenodd" clip-rule="evenodd" fill="none" stroke="#8A8A8A" stroke-linecap="round" stroke-linejoin="round" x1="262.82" y1="186.27" x2="114.45" y2="345.75"/>
	</g>
	
		<line fill-rule="evenodd" clip-rule="evenodd" fill="none" stroke="#12AB00" stroke-width="2" stroke-linecap="round" stroke-linejoin="round" x1="359.379" y1="82.48" x2="262.82" y2="186.27"/>
	
		<line fill-rule="evenodd" clip-rule="evenodd" fill="none" stroke="#A80000" stroke-width="2" stroke-linecap="round" stroke-linejoin="round" x1="520.28" y1="255.921" x2="262.82" y2="186.27"/>
</g>
<g id="Viewport_x5F_MG">
	
		<path fill-rule="evenodd" clip-rule="evenodd" fill="none" stroke="#000000" stroke-width="4" stroke-linecap="round" stroke-linejoin="round" d="
		M376.68,256.2c33.03-16.11,43.87-40.04,45.54-74.94c0.49-10.4,0.08-20.55-1.78-30.83c-1.34-7.43-3.7-16.46-8.529-22.74
		c-8.83-11.49-24.421-6.99-34.95-4.31c-16.07,4.09-26.311,7.04-43.271,6.23c-17.029-0.81-31.979-5.18-47.061-12.93
		C271.52,108.9,258.46,98.11,243.8,89.71c-11.66-6.69-26.17-13.23-39.81-4.42c-21.76,14.06-37.17,59.63-43.68,80.5
		c-2.76,8.87-5.92,19.14-6.48,28.61c-0.22,3.69-0.35,10.15,4.66,11.35c2.45,0.591,4.74,0.18,7.12-0.13
		c3.51-0.44,7.01-0.96,10.55-1.17c11.43-0.68,21.26,1.56,31.47,6.53c12.63,6.149,26.3,16.1,37.73,23.99
		c13.27,9.159,26.4,18.2,41.301,24.81C316.64,273.09,348.02,270.171,376.68,256.2z"/>
	
		<polygon fill-rule="evenodd" clip-rule="evenodd" fill="none" stroke="#000000" stroke-width="3" stroke-linecap="round" stroke-linejoin="round" points="
		226.87,53.99 509.74,114.5 380.04,335.921 16.51,218.99 	"/>
	<g>
		
			<line fill-rule="evenodd" clip-rule="evenodd" fill="none" stroke="#000000" stroke-width="2" stroke-linecap="round" stroke-linejoin="round" x1="258.81" y1="272.051" x2="258.77" y2="244.03"/>
		
			<line fill-rule="evenodd" clip-rule="evenodd" fill="none" stroke="#000000" stroke-width="2" stroke-linecap="round" stroke-linejoin="round" x1="250.31" y1="270.771" x2="250.07" y2="238.21"/>
		
			<line fill-rule="evenodd" clip-rule="evenodd" fill="none" stroke="#000000" stroke-width="2" stroke-linecap="round" stroke-linejoin="round" x1="241.87" y1="269.16" x2="241.39" y2="232.221"/>
		
			<line fill-rule="evenodd" clip-rule="evenodd" fill="none" stroke="#000000" stroke-width="2" stroke-linecap="round" stroke-linejoin="round" x1="233.44" y1="267.221" x2="232.67" y2="226.221"/>
		
			<line fill-rule="evenodd" clip-rule="evenodd" fill="none" stroke="#000000" stroke-width="2" stroke-linecap="round" stroke-linejoin="round" x1="225.01" y1="264.891" x2="223.92" y2="220.391"/>
		
			<line fill-rule="evenodd" clip-rule="evenodd" fill="none" stroke="#000000" stroke-width="2" stroke-linecap="round" stroke-linejoin="round" x1="216.58" y1="262.141" x2="215.15" y2="215.01"/>
		
			<line fill-rule="evenodd" clip-rule="evenodd" fill="none" stroke="#000000" stroke-width="2" stroke-linecap="round" stroke-linejoin="round" x1="208.28" y1="258.96" x2="206.53" y2="210.45"/>
		
			<line fill-rule="evenodd" clip-rule="evenodd" fill="none" stroke="#000000" stroke-width="2" stroke-linecap="round" stroke-linejoin="round" x1="200.35" y1="255.41" x2="198.37" y2="207.2"/>
		
			<line fill-rule="evenodd" clip-rule="evenodd" fill="none" stroke="#000000" stroke-width="2" stroke-linecap="round" stroke-linejoin="round" x1="193.12" y1="251.641" x2="190.99" y2="205.32"/>
		
			<line fill-rule="evenodd" clip-rule="evenodd" fill="none" stroke="#000000" stroke-width="2" stroke-linecap="round" stroke-linejoin="round" x1="186.69" y1="247.771" x2="184.51" y2="204.48"/>
		
			<line fill-rule="evenodd" clip-rule="evenodd" fill="none" stroke="#000000" stroke-width="2" stroke-linecap="round" stroke-linejoin="round" x1="181.02" y1="243.86" x2="178.88" y2="204.341"/>
		
			<line fill-rule="evenodd" clip-rule="evenodd" fill="none" stroke="#000000" stroke-width="2" stroke-linecap="round" stroke-linejoin="round" x1="176.01" y1="239.91" x2="173.99" y2="204.61"/>
		
			<line fill-rule="evenodd" clip-rule="evenodd" fill="none" stroke="#000000" stroke-width="2" stroke-linecap="round" stroke-linejoin="round" x1="171.6" y1="235.93" x2="169.74" y2="205.08"/>
		
			<line fill-rule="evenodd" clip-rule="evenodd" fill="none" stroke="#000000" stroke-width="2" stroke-linecap="round" stroke-linejoin="round" x1="167.7" y1="231.88" x2="166.06" y2="205.56"/>
		
			<line fill-rule="evenodd" clip-rule="evenodd" fill="none" stroke="#000000" stroke-width="2" stroke-linecap="round" stroke-linejoin="round" x1="169.78" y1="165.27" x2="168.43" y2="142.2"/>
		
			<line fill-rule="evenodd" clip-rule="evenodd" fill="none" stroke="#000000" stroke-width="2" stroke-linecap="round" stroke-linejoin="round" x1="173.12" y1="162.11" x2="171.56" y2="134.25"/>
		
			<line fill-rule="evenodd" clip-rule="evenodd" fill="none" stroke="#000000" stroke-width="2" stroke-linecap="round" stroke-linejoin="round" x1="176.7" y1="159.11" x2="174.93" y2="126.36"/>
		
			<line fill-rule="evenodd" clip-rule="evenodd" fill="none" stroke="#000000" stroke-width="2" stroke-linecap="round" stroke-linejoin="round" x1="180.52" y1="156.21" x2="178.59" y2="118.6"/>
		
			<line fill-rule="evenodd" clip-rule="evenodd" fill="none" stroke="#000000" stroke-width="2" stroke-linecap="round" stroke-linejoin="round" x1="184.64" y1="153.4" x2="182.58" y2="111.03"/>
		
			<line fill-rule="evenodd" clip-rule="evenodd" fill="none" stroke="#000000" stroke-width="2" stroke-linecap="round" stroke-linejoin="round" x1="189.12" y1="150.65" x2="186.98" y2="103.74"/>
		
			<line fill-rule="evenodd" clip-rule="evenodd" fill="none" stroke="#000000" stroke-width="2" stroke-linecap="round" stroke-linejoin="round" x1="194.04" y1="147.92" x2="191.87" y2="96.87"/>
		
			<line fill-rule="evenodd" clip-rule="evenodd" fill="none" stroke="#000000" stroke-width="2" stroke-linecap="round" stroke-linejoin="round" x1="199.5" y1="145.22" x2="197.38" y2="90.67"/>
		
			<line fill-rule="evenodd" clip-rule="evenodd" fill="none" stroke="#000000" stroke-width="2" stroke-linecap="round" stroke-linejoin="round" x1="205.6" y1="142.54" x2="203.6" y2="85.54"/>
		
			<line fill-rule="evenodd" clip-rule="evenodd" fill="none" stroke="#000000" stroke-width="2" stroke-linecap="round" stroke-linejoin="round" x1="212.29" y1="139.96" x2="210.52" y2="82.14"/>
		
			<line fill-rule="evenodd" clip-rule="evenodd" fill="none" stroke="#000000" stroke-width="2" stroke-linecap="round" stroke-linejoin="round" x1="219.25" y1="137.64" x2="217.77" y2="80.99"/>
		
			<line fill-rule="evenodd" clip-rule="evenodd" fill="none" stroke="#000000" stroke-width="2" stroke-linecap="round" stroke-linejoin="round" x1="226.09" y1="135.67" x2="224.91" y2="81.77"/>
		
			<line fill-rule="evenodd" clip-rule="evenodd" fill="none" stroke="#000000" stroke-width="2" stroke-linecap="round" stroke-linejoin="round" x1="232.67" y1="134.03" x2="231.78" y2="83.85"/>
		
			<line fill-rule="evenodd" clip-rule="evenodd" fill="none" stroke="#000000" stroke-width="2" stroke-linecap="round" stroke-linejoin="round" x1="239.02" y1="132.66" x2="238.39" y2="86.79"/>
		
			<line fill-rule="evenodd" clip-rule="evenodd" fill="none" stroke="#000000" stroke-width="2" stroke-linecap="round" stroke-linejoin="round" x1="245.2" y1="131.53" x2="244.8" y2="90.29"/>
		
			<line fill-rule="evenodd" clip-rule="evenodd" fill="none" stroke="#000000" stroke-width="2" stroke-linecap="round" stroke-linejoin="round" x1="251.3" y1="130.59" x2="251.08" y2="94.14"/>
		
			<line fill-rule="evenodd" clip-rule="evenodd" fill="none" stroke="#000000" stroke-width="2" stroke-linecap="round" stroke-linejoin="round" x1="257.38" y1="129.82" x2="257.31" y2="98.22"/>
		
			<line fill-rule="evenodd" clip-rule="evenodd" fill="none" stroke="#000000" stroke-width="2" stroke-linecap="round" stroke-linejoin="round" x1="263.51" y1="129.21" x2="263.55" y2="102.43"/>
		
			<line fill-rule="evenodd" clip-rule="evenodd" fill="none" stroke="#000000" stroke-width="2" stroke-linecap="round" stroke-linejoin="round" x1="269.76" y1="128.75" x2="269.879" y2="106.66"/>
		
			<line fill-rule="evenodd" clip-rule="evenodd" fill="none" stroke="#000000" stroke-width="2" stroke-linecap="round" stroke-linejoin="round" x1="374.68" y1="147.6" x2="376.419" y2="123.52"/>
		
			<line fill-rule="evenodd" clip-rule="evenodd" fill="none" stroke="#000000" stroke-width="2" stroke-linecap="round" stroke-linejoin="round" x1="379.93" y1="150.34" x2="382.07" y2="122.13"/>
		
			<line fill-rule="evenodd" clip-rule="evenodd" fill="none" stroke="#000000" stroke-width="2" stroke-linecap="round" stroke-linejoin="round" x1="385.01" y1="153.28" x2="387.57" y2="121.01"/>
		
			<line fill-rule="evenodd" clip-rule="evenodd" fill="none" stroke="#000000" stroke-width="2" stroke-linecap="round" stroke-linejoin="round" x1="389.93" y1="156.46" x2="392.911" y2="120.34"/>
		
			<line fill-rule="evenodd" clip-rule="evenodd" fill="none" stroke="#000000" stroke-width="2" stroke-linecap="round" stroke-linejoin="round" x1="394.7" y1="159.91" x2="398.09" y2="120.34"/>
		
			<line fill-rule="evenodd" clip-rule="evenodd" fill="none" stroke="#000000" stroke-width="2" stroke-linecap="round" stroke-linejoin="round" x1="399.3" y1="163.67" x2="403.07" y2="121.3"/>
		
			<line fill-rule="evenodd" clip-rule="evenodd" fill="none" stroke="#000000" stroke-width="2" stroke-linecap="round" stroke-linejoin="round" x1="403.661" y1="167.76" x2="407.72" y2="123.61"/>
		
			<line fill-rule="evenodd" clip-rule="evenodd" fill="none" stroke="#000000" stroke-width="2" stroke-linecap="round" stroke-linejoin="round" x1="407.629" y1="172.11" x2="411.84" y2="127.61"/>
		
			<line fill-rule="evenodd" clip-rule="evenodd" fill="none" stroke="#000000" stroke-width="2" stroke-linecap="round" stroke-linejoin="round" x1="411.03" y1="176.56" x2="415.24" y2="133.21"/>
		
			<line fill-rule="evenodd" clip-rule="evenodd" fill="none" stroke="#000000" stroke-width="2" stroke-linecap="round" stroke-linejoin="round" x1="413.81" y1="180.98" x2="417.89" y2="139.95"/>
		
			<line fill-rule="evenodd" clip-rule="evenodd" fill="none" stroke="#000000" stroke-width="2" stroke-linecap="round" stroke-linejoin="round" x1="416.02" y1="185.34" x2="419.85" y2="147.42"/>
		
			<line fill-rule="evenodd" clip-rule="evenodd" fill="none" stroke="#000000" stroke-width="2" stroke-linecap="round" stroke-linejoin="round" x1="417.7" y1="189.641" x2="421.21" y2="155.35"/>
		
			<line fill-rule="evenodd" clip-rule="evenodd" fill="none" stroke="#000000" stroke-width="2" stroke-linecap="round" stroke-linejoin="round" x1="418.9" y1="193.9" x2="422.04" y2="163.58"/>
		
			<line fill-rule="evenodd" clip-rule="evenodd" fill="none" stroke="#000000" stroke-width="2" stroke-linecap="round" stroke-linejoin="round" x1="419.65" y1="198.16" x2="422.379" y2="171.97"/>
	</g>
	<g>
		<path fill-rule="evenodd" clip-rule="evenodd" fill="#FFFFFF" stroke="#000000" stroke-width="6" d="M266.71,106.66
			c0-1.74,1.409-3.16,3.149-3.16c1.74-0.01,3.16,1.41,3.171,3.15c0,1.74-1.411,3.16-3.161,3.16
			C268.129,109.82,266.71,108.4,266.71,106.66z"/>
		<path fill-rule="evenodd" clip-rule="evenodd" fill="#FFFFFF" stroke="#000000" stroke-width="6" d="M260.39,102.44
			c0-1.75,1.41-3.17,3.16-3.17c1.739,0,3.16,1.41,3.16,3.15c0,1.75-1.41,3.16-3.15,3.17C261.81,105.59,260.4,104.18,260.39,102.44z"
			/>
		<path fill-rule="evenodd" clip-rule="evenodd" fill="#FFFFFF" stroke="#000000" stroke-width="6" d="M254.15,98.23
			c0-1.74,1.41-3.16,3.15-3.16c1.75-0.01,3.17,1.41,3.17,3.15c0,1.74-1.41,3.16-3.15,3.16C255.57,101.39,254.16,99.97,254.15,98.23z
			"/>
		<path fill-rule="evenodd" clip-rule="evenodd" fill="#FFFFFF" stroke="#000000" stroke-width="6" d="M247.93,94.15
			c-0.01-1.74,1.4-3.16,3.15-3.17c1.74,0,3.16,1.41,3.16,3.16c0,1.74-1.41,3.16-3.15,3.16C249.35,97.3,247.93,95.89,247.93,94.15z"
			/>
		<path fill-rule="evenodd" clip-rule="evenodd" fill="#FFFFFF" stroke="#000000" stroke-width="6" d="M241.64,90.29
			c0-1.74,1.41-3.16,3.15-3.16c1.75,0,3.16,1.41,3.17,3.15c0,1.74-1.41,3.16-3.15,3.17C243.06,93.45,241.64,92.04,241.64,90.29z"/>
		<path fill-rule="evenodd" clip-rule="evenodd" fill="#FFFFFF" stroke="#000000" stroke-width="6" d="M235.23,86.8
			c0-1.74,1.41-3.16,3.15-3.17c1.75,0,3.16,1.41,3.17,3.16c0,1.74-1.41,3.16-3.15,3.16C236.65,89.95,235.23,88.54,235.23,86.8z"/>
		<path fill-rule="evenodd" clip-rule="evenodd" fill="#FFFFFF" stroke="#000000" stroke-width="6" d="M228.62,83.86
			c0-1.74,1.41-3.16,3.15-3.17c1.75,0,3.16,1.41,3.17,3.16c0,1.74-1.41,3.16-3.15,3.16C230.04,87.01,228.62,85.6,228.62,83.86z"/>
		<path fill-rule="evenodd" clip-rule="evenodd" fill="#FFFFFF" stroke="#000000" stroke-width="6" d="M221.75,81.77
			c0-1.74,1.41-3.16,3.15-3.16c1.75,0,3.16,1.41,3.17,3.15c0,1.74-1.41,3.16-3.15,3.16C223.17,84.93,221.75,83.52,221.75,81.77z"/>
		<path fill-rule="evenodd" clip-rule="evenodd" fill="#FFFFFF" stroke="#000000" stroke-width="6" d="M214.61,81
			c0-1.75,1.41-3.16,3.15-3.17c1.74,0,3.16,1.41,3.17,3.15c0,1.75-1.41,3.17-3.16,3.17C216.03,84.15,214.61,82.74,214.61,81z"/>
		<path fill-rule="evenodd" clip-rule="evenodd" fill="#FFFFFF" stroke="#000000" stroke-width="6" d="M207.36,82.14
			c0-1.74,1.41-3.16,3.15-3.16c1.74-0.01,3.16,1.41,3.17,3.15c0,1.74-1.41,3.16-3.16,3.16C208.78,85.3,207.36,83.88,207.36,82.14z"
			/>
		<path fill-rule="evenodd" clip-rule="evenodd" fill="#FFFFFF" stroke="#000000" stroke-width="6" d="M200.44,85.55
			c0-1.74,1.41-3.16,3.16-3.16c1.74-0.01,3.16,1.4,3.16,3.15c0,1.74-1.41,3.16-3.15,3.16C201.87,88.7,200.45,87.29,200.44,85.55z"/>
		<path fill-rule="evenodd" clip-rule="evenodd" fill="#FFFFFF" stroke="#000000" stroke-width="6" d="M194.22,90.68
			c0-1.75,1.41-3.16,3.15-3.17c1.74,0,3.16,1.41,3.17,3.15c0,1.75-1.41,3.17-3.16,3.17C195.64,93.83,194.22,92.42,194.22,90.68z"/>
		<path fill-rule="evenodd" clip-rule="evenodd" fill="#FFFFFF" stroke="#000000" stroke-width="6" d="M188.71,96.88
			c0-1.74,1.41-3.16,3.16-3.16c1.74-0.01,3.16,1.41,3.16,3.15c0,1.74-1.41,3.16-3.15,3.16C190.13,100.04,188.72,98.62,188.71,96.88z
			"/>
		<path fill-rule="evenodd" clip-rule="evenodd" fill="#FFFFFF" stroke="#000000" stroke-width="6" d="M183.82,103.75
			c0-1.75,1.41-3.16,3.15-3.17c1.74,0,3.16,1.41,3.17,3.16c0,1.74-1.41,3.16-3.16,3.16C185.24,106.9,183.82,105.49,183.82,103.75z"
			/>
		<path fill-rule="evenodd" clip-rule="evenodd" fill="#FFFFFF" stroke="#000000" stroke-width="6" d="M179.42,111.04
			c0-1.74,1.41-3.16,3.15-3.16c1.75-0.01,3.17,1.4,3.17,3.15c0,1.74-1.41,3.16-3.15,3.16C180.84,114.19,179.43,112.78,179.42,111.04
			z"/>
		<path fill-rule="evenodd" clip-rule="evenodd" fill="#FFFFFF" stroke="#000000" stroke-width="6" d="M175.43,118.61
			c0-1.74,1.41-3.16,3.15-3.16c1.75-0.01,3.17,1.41,3.17,3.15c0,1.74-1.41,3.16-3.15,3.16
			C176.85,121.77,175.44,120.35,175.43,118.61z"/>
		<path fill-rule="evenodd" clip-rule="evenodd" fill="#FFFFFF" stroke="#000000" stroke-width="6" d="M171.77,126.37
			c0-1.74,1.41-3.16,3.16-3.16c1.74-0.01,3.16,1.41,3.16,3.15c0,1.74-1.41,3.16-3.15,3.16C173.2,129.53,171.78,128.11,171.77,126.37
			z"/>
		<path fill-rule="evenodd" clip-rule="evenodd" fill="#FFFFFF" stroke="#000000" stroke-width="6" d="M168.4,134.26
			c0-1.75,1.41-3.16,3.15-3.17c1.75,0,3.16,1.41,3.17,3.15c0,1.75-1.41,3.17-3.15,3.17C169.82,137.41,168.4,136,168.4,134.26z"/>
		<path fill-rule="evenodd" clip-rule="evenodd" fill="#FFFFFF" stroke="#000000" stroke-width="6" d="M165.27,142.21
			c0-1.75,1.41-3.16,3.15-3.17c1.75,0,3.16,1.41,3.17,3.15c0,1.75-1.41,3.17-3.15,3.17C166.69,145.36,165.27,143.95,165.27,142.21z"
			/>
		<path fill-rule="evenodd" clip-rule="evenodd" fill="#FFFFFF" stroke="#000000" stroke-width="6" d="M162.9,205.57
			c0-1.74,1.41-3.16,3.15-3.16c1.74-0.01,3.16,1.41,3.16,3.149c0.01,1.741-1.4,3.161-3.15,3.161
			C164.32,208.73,162.9,207.31,162.9,205.57z"/>
		<path fill-rule="evenodd" clip-rule="evenodd" fill="#FFFFFF" stroke="#000000" stroke-width="6" d="M166.58,205.08
			c0-1.739,1.41-3.159,3.16-3.159c1.74,0,3.16,1.409,3.16,3.149c0,1.739-1.41,3.16-3.15,3.16
			C168,208.24,166.59,206.83,166.58,205.08z"/>
		<path fill-rule="evenodd" clip-rule="evenodd" fill="#FFFFFF" stroke="#000000" stroke-width="6" d="M170.83,204.61
			c0-1.74,1.41-3.16,3.15-3.16c1.75,0,3.17,1.41,3.17,3.15c0,1.75-1.41,3.159-3.15,3.17C172.25,207.771,170.84,206.36,170.83,204.61
			z"/>
		<path fill-rule="evenodd" clip-rule="evenodd" fill="#FFFFFF" stroke="#000000" stroke-width="6" d="M175.72,204.351
			c0-1.75,1.41-3.171,3.16-3.171c1.74,0,3.16,1.411,3.16,3.15c0,1.75-1.41,3.16-3.15,3.17
			C177.14,207.5,175.73,206.091,175.72,204.351z"/>
		<path fill-rule="evenodd" clip-rule="evenodd" fill="#FFFFFF" stroke="#000000" stroke-width="6" d="M181.36,204.49
			c-0.01-1.74,1.41-3.16,3.15-3.16c1.74-0.01,3.16,1.4,3.16,3.15c0.01,1.74-1.41,3.16-3.15,3.16
			C182.78,207.641,181.36,206.23,181.36,204.49z"/>
		<path fill-rule="evenodd" clip-rule="evenodd" fill="#FFFFFF" stroke="#000000" stroke-width="6" d="M187.83,205.33
			c0-1.75,1.41-3.159,3.15-3.17c1.75,0,3.17,1.41,3.17,3.16c0,1.739-1.41,3.16-3.15,3.16C189.25,208.48,187.84,207.07,187.83,205.33
			z"/>
		<path fill-rule="evenodd" clip-rule="evenodd" fill="#FFFFFF" stroke="#000000" stroke-width="6" d="M195.21,207.21
			c0-1.75,1.41-3.159,3.15-3.17c1.74,0,3.16,1.41,3.17,3.16c0,1.74-1.41,3.16-3.16,3.16C196.63,210.36,195.21,208.95,195.21,207.21z
			"/>
		<path fill-rule="evenodd" clip-rule="evenodd" fill="#FFFFFF" stroke="#000000" stroke-width="6" d="M203.38,210.46
			c-0.01-1.739,1.41-3.159,3.15-3.159c1.74-0.011,3.16,1.409,3.16,3.149c0.01,1.74-1.41,3.16-3.15,3.16
			C204.8,213.62,203.38,212.2,203.38,210.46z"/>
		<path fill-rule="evenodd" clip-rule="evenodd" fill="#FFFFFF" stroke="#000000" stroke-width="6" d="M212,215.01
			c-0.01-1.739,1.41-3.159,3.15-3.159c1.74,0,3.16,1.409,3.16,3.149c0.01,1.74-1.41,3.16-3.15,3.171
			C213.42,218.171,212,216.76,212,215.01z"/>
		<path fill-rule="evenodd" clip-rule="evenodd" fill="#FFFFFF" stroke="#000000" stroke-width="6" d="M220.76,220.4
			c0-1.74,1.41-3.16,3.15-3.17c1.74,0,3.16,1.41,3.16,3.16c0.01,1.739-1.4,3.16-3.15,3.16
			C222.18,223.551,220.76,222.141,220.76,220.4z"/>
		<path fill-rule="evenodd" clip-rule="evenodd" fill="#FFFFFF" stroke="#000000" stroke-width="6" d="M229.51,226.23
			c0-1.75,1.41-3.16,3.16-3.171c1.74,0,3.16,1.411,3.16,3.15c0,1.75-1.41,3.17-3.15,3.17
			C230.93,229.38,229.52,227.971,229.51,226.23z"/>
		<path fill-rule="evenodd" clip-rule="evenodd" fill="#FFFFFF" stroke="#000000" stroke-width="6" d="M238.23,232.23
			c-0.01-1.75,1.41-3.16,3.15-3.171c1.74,0,3.16,1.411,3.16,3.15c0.01,1.75-1.41,3.17-3.15,3.17
			C239.65,235.38,238.23,233.971,238.23,232.23z"/>
		<path fill-rule="evenodd" clip-rule="evenodd" fill="#FFFFFF" stroke="#000000" stroke-width="6" d="M246.91,238.21
			c0-1.739,1.41-3.159,3.16-3.159c1.74,0,3.16,1.409,3.16,3.149s-1.41,3.16-3.15,3.16C248.33,241.37,246.92,239.96,246.91,238.21z"
			/>
		<path fill-rule="evenodd" clip-rule="evenodd" fill="#FFFFFF" stroke="#000000" stroke-width="6" d="M255.61,244.04
			c0-1.739,1.41-3.16,3.15-3.16c1.74-0.01,3.159,1.4,3.17,3.15c0,1.74-1.41,3.16-3.16,3.16
			C257.03,247.19,255.61,245.78,255.61,244.04z"/>
		<path fill-rule="evenodd" clip-rule="evenodd" fill="#FFFFFF" stroke="#000000" stroke-width="6" d="M373.26,123.52
			c0-1.74,1.409-3.16,3.15-3.16c1.739,0,3.159,1.41,3.17,3.15c0,1.74-1.411,3.16-3.161,3.16
			C374.68,126.68,373.26,125.27,373.26,123.52z"/>
		<path fill-rule="evenodd" clip-rule="evenodd" fill="#FFFFFF" stroke="#000000" stroke-width="6" d="M378.911,122.14
			c0-1.75,1.409-3.16,3.159-3.17c1.74,0,3.16,1.41,3.16,3.16c0,1.74-1.41,3.16-3.149,3.16
			C380.34,125.29,378.919,123.88,378.911,122.14z"/>
		<path fill-rule="evenodd" clip-rule="evenodd" fill="#FFFFFF" stroke="#000000" stroke-width="6" d="M384.411,121.02
			c-0.011-1.74,1.409-3.16,3.149-3.16c1.74-0.01,3.16,1.41,3.16,3.15c0.01,1.74-1.41,3.16-3.15,3.16
			C385.831,124.18,384.411,122.76,384.411,121.02z"/>
		<path fill-rule="evenodd" clip-rule="evenodd" fill="#FFFFFF" stroke="#000000" stroke-width="6" d="M389.75,120.35
			c0-1.75,1.41-3.16,3.149-3.17c1.75,0,3.16,1.41,3.17,3.16c0,1.74-1.409,3.16-3.15,3.16C391.169,123.5,389.75,122.09,389.75,120.35
			z"/>
		<path fill-rule="evenodd" clip-rule="evenodd" fill="#FFFFFF" stroke="#000000" stroke-width="6" d="M394.94,120.34
			c-0.01-1.74,1.41-3.16,3.15-3.16s3.16,1.41,3.16,3.15c0.01,1.74-1.41,3.16-3.15,3.17C396.36,123.5,394.94,122.09,394.94,120.34z"
			/>
		<path fill-rule="evenodd" clip-rule="evenodd" fill="#FFFFFF" stroke="#000000" stroke-width="6" d="M399.911,121.31
			c0-1.74,1.409-3.16,3.159-3.16c1.74-0.01,3.16,1.4,3.16,3.15c0,1.74-1.41,3.16-3.149,3.16
			C401.331,124.46,399.919,123.05,399.911,121.31z"/>
		<path fill-rule="evenodd" clip-rule="evenodd" fill="#FFFFFF" stroke="#000000" stroke-width="6" d="M404.56,123.62
			c0-1.75,1.41-3.17,3.16-3.17c1.74,0,3.159,1.41,3.159,3.15c0,1.75-1.409,3.16-3.149,3.17
			C405.99,126.77,404.57,125.36,404.56,123.62z"/>
		<path fill-rule="evenodd" clip-rule="evenodd" fill="#FFFFFF" stroke="#000000" stroke-width="6" d="M408.69,127.61
			c-0.01-1.74,1.4-3.16,3.15-3.16c1.74,0,3.16,1.41,3.16,3.15c0,1.74-1.41,3.16-3.15,3.16
			C410.11,130.77,408.69,129.36,408.69,127.61z"/>
		<path fill-rule="evenodd" clip-rule="evenodd" fill="#FFFFFF" stroke="#000000" stroke-width="6" d="M412.081,133.22
			c0-1.75,1.409-3.16,3.159-3.17c1.74,0,3.16,1.41,3.16,3.16c0,1.74-1.41,3.16-3.149,3.16
			C413.5,136.37,412.09,134.96,412.081,133.22z"/>
		<path fill-rule="evenodd" clip-rule="evenodd" fill="#FFFFFF" stroke="#000000" stroke-width="6" d="M414.73,139.95
			c0-1.74,1.41-3.16,3.149-3.16c1.74,0,3.16,1.41,3.171,3.15c0,1.75-1.41,3.16-3.16,3.17C416.15,143.11,414.73,141.7,414.73,139.95z
			"/>
		<path fill-rule="evenodd" clip-rule="evenodd" fill="#FFFFFF" stroke="#000000" stroke-width="6" d="M416.69,147.42
			c0-1.74,1.41-3.16,3.15-3.16c1.75,0,3.17,1.41,3.17,3.15c0,1.75-1.41,3.16-3.15,3.17C418.11,150.58,416.7,149.17,416.69,147.42z"
			/>
		<path fill-rule="evenodd" clip-rule="evenodd" fill="#FFFFFF" stroke="#000000" stroke-width="6" d="M418.06,155.36
			c-0.01-1.74,1.4-3.16,3.15-3.17c1.739,0,3.159,1.41,3.159,3.16c0,1.74-1.409,3.16-3.149,3.16S418.06,157.1,418.06,155.36z"/>
		<path fill-rule="evenodd" clip-rule="evenodd" fill="#FFFFFF" stroke="#000000" stroke-width="6" d="M418.879,163.58
			c0-1.74,1.41-3.16,3.16-3.16c1.74,0,3.16,1.41,3.16,3.15c0,1.74-1.41,3.16-3.149,3.16C420.3,166.74,418.89,165.33,418.879,163.58z
			"/>
		<path fill-rule="evenodd" clip-rule="evenodd" fill="#FFFFFF" stroke="#000000" stroke-width="6" d="M419.22,171.97
			c0-1.74,1.409-3.16,3.149-3.16c1.75,0,3.17,1.41,3.17,3.15c0,1.75-1.41,3.16-3.149,3.17
			C420.64,175.13,419.23,173.72,419.22,171.97z"/>
	</g>
	<g>
		<path fill-rule="evenodd" clip-rule="evenodd" fill="#FFFFFF" d="M266.71,106.66c0-1.74,1.409-3.16,3.149-3.16
			c1.74-0.01,3.16,1.41,3.171,3.15c0,1.74-1.411,3.16-3.161,3.16C268.129,109.82,266.71,108.4,266.71,106.66z"/>
		<path fill-rule="evenodd" clip-rule="evenodd" fill="#FFFFFF" d="M260.39,102.44c0-1.75,1.41-3.17,3.16-3.17
			c1.739,0,3.16,1.41,3.16,3.15c0,1.75-1.41,3.16-3.15,3.17C261.81,105.59,260.4,104.18,260.39,102.44z"/>
		<path fill-rule="evenodd" clip-rule="evenodd" fill="#FFFFFF" d="M254.15,98.23c0-1.74,1.41-3.16,3.15-3.16
			c1.75-0.01,3.17,1.41,3.17,3.15c0,1.74-1.41,3.16-3.15,3.16C255.57,101.39,254.16,99.97,254.15,98.23z"/>
		<path fill-rule="evenodd" clip-rule="evenodd" fill="#FFFFFF" d="M247.93,94.15c-0.01-1.74,1.4-3.16,3.15-3.17
			c1.74,0,3.16,1.41,3.16,3.16c0,1.74-1.41,3.16-3.15,3.16C249.35,97.3,247.93,95.89,247.93,94.15z"/>
		<path fill-rule="evenodd" clip-rule="evenodd" fill="#FFFFFF" d="M241.64,90.29c0-1.74,1.41-3.16,3.15-3.16
			c1.75,0,3.16,1.41,3.17,3.15c0,1.74-1.41,3.16-3.15,3.17C243.06,93.45,241.64,92.04,241.64,90.29z"/>
		<path fill-rule="evenodd" clip-rule="evenodd" fill="#FFFFFF" d="M235.23,86.8c0-1.74,1.41-3.16,3.15-3.17
			c1.75,0,3.16,1.41,3.17,3.16c0,1.74-1.41,3.16-3.15,3.16C236.65,89.95,235.23,88.54,235.23,86.8z"/>
		<path fill-rule="evenodd" clip-rule="evenodd" fill="#FFFFFF" d="M228.62,83.86c0-1.74,1.41-3.16,3.15-3.17
			c1.75,0,3.16,1.41,3.17,3.16c0,1.74-1.41,3.16-3.15,3.16C230.04,87.01,228.62,85.6,228.62,83.86z"/>
		<path fill-rule="evenodd" clip-rule="evenodd" fill="#FFFFFF" d="M221.75,81.77c0-1.74,1.41-3.16,3.15-3.16
			c1.75,0,3.16,1.41,3.17,3.15c0,1.74-1.41,3.16-3.15,3.16C223.17,84.93,221.75,83.52,221.75,81.77z"/>
		<path fill-rule="evenodd" clip-rule="evenodd" fill="#FFFFFF" d="M214.61,81c0-1.75,1.41-3.16,3.15-3.17
			c1.74,0,3.16,1.41,3.17,3.15c0,1.75-1.41,3.17-3.16,3.17C216.03,84.15,214.61,82.74,214.61,81z"/>
		<path fill-rule="evenodd" clip-rule="evenodd" fill="#FFFFFF" d="M207.36,82.14c0-1.74,1.41-3.16,3.15-3.16
			c1.74-0.01,3.16,1.41,3.17,3.15c0,1.74-1.41,3.16-3.16,3.16C208.78,85.3,207.36,83.88,207.36,82.14z"/>
		<path fill-rule="evenodd" clip-rule="evenodd" fill="#FFFFFF" d="M200.44,85.55c0-1.74,1.41-3.16,3.16-3.16
			c1.74-0.01,3.16,1.4,3.16,3.15c0,1.74-1.41,3.16-3.15,3.16C201.87,88.7,200.45,87.29,200.44,85.55z"/>
		<path fill-rule="evenodd" clip-rule="evenodd" fill="#FFFFFF" d="M194.22,90.68c0-1.75,1.41-3.16,3.15-3.17
			c1.74,0,3.16,1.41,3.17,3.15c0,1.75-1.41,3.17-3.16,3.17C195.64,93.83,194.22,92.42,194.22,90.68z"/>
		<path fill-rule="evenodd" clip-rule="evenodd" fill="#FFFFFF" d="M188.71,96.88c0-1.74,1.41-3.16,3.16-3.16
			c1.74-0.01,3.16,1.41,3.16,3.15c0,1.74-1.41,3.16-3.15,3.16C190.13,100.04,188.72,98.62,188.71,96.88z"/>
		<path fill-rule="evenodd" clip-rule="evenodd" fill="#FFFFFF" d="M183.82,103.75c0-1.75,1.41-3.16,3.15-3.17
			c1.74,0,3.16,1.41,3.17,3.16c0,1.74-1.41,3.16-3.16,3.16C185.24,106.9,183.82,105.49,183.82,103.75z"/>
		<path fill-rule="evenodd" clip-rule="evenodd" fill="#FFFFFF" d="M179.42,111.04c0-1.74,1.41-3.16,3.15-3.16
			c1.75-0.01,3.17,1.4,3.17,3.15c0,1.74-1.41,3.16-3.15,3.16C180.84,114.19,179.43,112.78,179.42,111.04z"/>
		<path fill-rule="evenodd" clip-rule="evenodd" fill="#FFFFFF" d="M175.43,118.61c0-1.74,1.41-3.16,3.15-3.16
			c1.75-0.01,3.17,1.41,3.17,3.15c0,1.74-1.41,3.16-3.15,3.16C176.85,121.77,175.44,120.35,175.43,118.61z"/>
		<path fill-rule="evenodd" clip-rule="evenodd" fill="#FFFFFF" d="M171.77,126.37c0-1.74,1.41-3.16,3.16-3.16
			c1.74-0.01,3.16,1.41,3.16,3.15c0,1.74-1.41,3.16-3.15,3.16C173.2,129.53,171.78,128.11,171.77,126.37z"/>
		<path fill-rule="evenodd" clip-rule="evenodd" fill="#FFFFFF" d="M168.4,134.26c0-1.75,1.41-3.16,3.15-3.17
			c1.75,0,3.16,1.41,3.17,3.15c0,1.75-1.41,3.17-3.15,3.17C169.82,137.41,168.4,136,168.4,134.26z"/>
		<path fill-rule="evenodd" clip-rule="evenodd" fill="#FFFFFF" d="M165.27,142.21c0-1.75,1.41-3.16,3.15-3.17
			c1.75,0,3.16,1.41,3.17,3.15c0,1.75-1.41,3.17-3.15,3.17C166.69,145.36,165.27,143.95,165.27,142.21z"/>
		<path fill-rule="evenodd" clip-rule="evenodd" fill="#FFFFFF" d="M162.9,205.57c0-1.74,1.41-3.16,3.15-3.16
			c1.74-0.01,3.16,1.41,3.16,3.149c0.01,1.741-1.4,3.161-3.15,3.161C164.32,208.73,162.9,207.31,162.9,205.57z"/>
		<path fill-rule="evenodd" clip-rule="evenodd" fill="#FFFFFF" d="M166.58,205.08c0-1.739,1.41-3.159,3.16-3.159
			c1.74,0,3.16,1.409,3.16,3.149c0,1.739-1.41,3.16-3.15,3.16C168,208.24,166.59,206.83,166.58,205.08z"/>
		<path fill-rule="evenodd" clip-rule="evenodd" fill="#FFFFFF" d="M170.83,204.61c0-1.74,1.41-3.16,3.15-3.16
			c1.75,0,3.17,1.41,3.17,3.15c0,1.75-1.41,3.159-3.15,3.17C172.25,207.771,170.84,206.36,170.83,204.61z"/>
		<path fill-rule="evenodd" clip-rule="evenodd" fill="#FFFFFF" d="M175.72,204.351c0-1.75,1.41-3.171,3.16-3.171
			c1.74,0,3.16,1.411,3.16,3.15c0,1.75-1.41,3.16-3.15,3.17C177.14,207.5,175.73,206.091,175.72,204.351z"/>
		<path fill-rule="evenodd" clip-rule="evenodd" fill="#FFFFFF" d="M181.36,204.49c-0.01-1.74,1.41-3.16,3.15-3.16
			c1.74-0.01,3.16,1.4,3.16,3.15c0.01,1.74-1.41,3.16-3.15,3.16C182.78,207.641,181.36,206.23,181.36,204.49z"/>
		<path fill-rule="evenodd" clip-rule="evenodd" fill="#FFFFFF" d="M187.83,205.33c0-1.75,1.41-3.159,3.15-3.17
			c1.75,0,3.17,1.41,3.17,3.16c0,1.739-1.41,3.16-3.15,3.16C189.25,208.48,187.84,207.07,187.83,205.33z"/>
		<path fill-rule="evenodd" clip-rule="evenodd" fill="#FFFFFF" d="M195.21,207.21c0-1.75,1.41-3.159,3.15-3.17
			c1.74,0,3.16,1.41,3.17,3.16c0,1.74-1.41,3.16-3.16,3.16C196.63,210.36,195.21,208.95,195.21,207.21z"/>
		<path fill-rule="evenodd" clip-rule="evenodd" fill="#FFFFFF" d="M203.38,210.46c-0.01-1.739,1.41-3.159,3.15-3.159
			c1.74-0.011,3.16,1.409,3.16,3.149c0.01,1.74-1.41,3.16-3.15,3.16C204.8,213.62,203.38,212.2,203.38,210.46z"/>
		<path fill-rule="evenodd" clip-rule="evenodd" fill="#FFFFFF" d="M212,215.01c-0.01-1.739,1.41-3.159,3.15-3.159
			c1.74,0,3.16,1.409,3.16,3.149c0.01,1.74-1.41,3.16-3.15,3.171C213.42,218.171,212,216.76,212,215.01z"/>
		<path fill-rule="evenodd" clip-rule="evenodd" fill="#FFFFFF" d="M220.76,220.4c0-1.74,1.41-3.16,3.15-3.17
			c1.74,0,3.16,1.41,3.16,3.16c0.01,1.739-1.4,3.16-3.15,3.16C222.18,223.551,220.76,222.141,220.76,220.4z"/>
		<path fill-rule="evenodd" clip-rule="evenodd" fill="#FFFFFF" d="M229.51,226.23c0-1.75,1.41-3.16,3.16-3.171
			c1.74,0,3.16,1.411,3.16,3.15c0,1.75-1.41,3.17-3.15,3.17C230.93,229.38,229.52,227.971,229.51,226.23z"/>
		<path fill-rule="evenodd" clip-rule="evenodd" fill="#FFFFFF" d="M238.23,232.23c-0.01-1.75,1.41-3.16,3.15-3.171
			c1.74,0,3.16,1.411,3.16,3.15c0.01,1.75-1.41,3.17-3.15,3.17C239.65,235.38,238.23,233.971,238.23,232.23z"/>
		<path fill-rule="evenodd" clip-rule="evenodd" fill="#FFFFFF" d="M246.91,238.21c0-1.739,1.41-3.159,3.16-3.159
			c1.74,0,3.16,1.409,3.16,3.149s-1.41,3.16-3.15,3.16C248.33,241.37,246.92,239.96,246.91,238.21z"/>
		<path fill-rule="evenodd" clip-rule="evenodd" fill="#FFFFFF" d="M255.61,244.04c0-1.739,1.41-3.16,3.15-3.16
			c1.74-0.01,3.159,1.4,3.17,3.15c0,1.74-1.41,3.16-3.16,3.16C257.03,247.19,255.61,245.78,255.61,244.04z"/>
		<path fill-rule="evenodd" clip-rule="evenodd" fill="#FFFFFF" d="M373.26,123.52c0-1.74,1.409-3.16,3.15-3.16
			c1.739,0,3.159,1.41,3.17,3.15c0,1.74-1.411,3.16-3.161,3.16C374.68,126.68,373.26,125.27,373.26,123.52z"/>
		<path fill-rule="evenodd" clip-rule="evenodd" fill="#FFFFFF" d="M378.911,122.14c0-1.75,1.409-3.16,3.159-3.17
			c1.74,0,3.16,1.41,3.16,3.16c0,1.74-1.41,3.16-3.149,3.16C380.34,125.29,378.919,123.88,378.911,122.14z"/>
		<path fill-rule="evenodd" clip-rule="evenodd" fill="#FFFFFF" d="M384.411,121.02c-0.011-1.74,1.409-3.16,3.149-3.16
			c1.74-0.01,3.16,1.41,3.16,3.15c0.01,1.74-1.41,3.16-3.15,3.16C385.831,124.18,384.411,122.76,384.411,121.02z"/>
		<path fill-rule="evenodd" clip-rule="evenodd" fill="#FFFFFF" d="M389.75,120.35c0-1.75,1.41-3.16,3.149-3.17
			c1.75,0,3.16,1.41,3.17,3.16c0,1.74-1.409,3.16-3.15,3.16C391.169,123.5,389.75,122.09,389.75,120.35z"/>
		<path fill-rule="evenodd" clip-rule="evenodd" fill="#FFFFFF" d="M394.94,120.34c-0.01-1.74,1.41-3.16,3.15-3.16
			s3.16,1.41,3.16,3.15c0.01,1.74-1.41,3.16-3.15,3.17C396.36,123.5,394.94,122.09,394.94,120.34z"/>
		<path fill-rule="evenodd" clip-rule="evenodd" fill="#FFFFFF" d="M399.911,121.31c0-1.74,1.409-3.16,3.159-3.16
			c1.74-0.01,3.16,1.4,3.16,3.15c0,1.74-1.41,3.16-3.149,3.16C401.331,124.46,399.919,123.05,399.911,121.31z"/>
		<path fill-rule="evenodd" clip-rule="evenodd" fill="#FFFFFF" d="M404.56,123.62c0-1.75,1.41-3.17,3.16-3.17
			c1.74,0,3.159,1.41,3.159,3.15c0,1.75-1.409,3.16-3.149,3.17C405.99,126.77,404.57,125.36,404.56,123.62z"/>
		<path fill-rule="evenodd" clip-rule="evenodd" fill="#FFFFFF" d="M408.69,127.61c-0.01-1.74,1.4-3.16,3.15-3.16
			c1.74,0,3.16,1.41,3.16,3.15c0,1.74-1.41,3.16-3.15,3.16C410.11,130.77,408.69,129.36,408.69,127.61z"/>
		<path fill-rule="evenodd" clip-rule="evenodd" fill="#FFFFFF" d="M412.081,133.22c0-1.75,1.409-3.16,3.159-3.17
			c1.74,0,3.16,1.41,3.16,3.16c0,1.74-1.41,3.16-3.149,3.16C413.5,136.37,412.09,134.96,412.081,133.22z"/>
		<path fill-rule="evenodd" clip-rule="evenodd" fill="#FFFFFF" d="M414.73,139.95c0-1.74,1.41-3.16,3.149-3.16
			c1.74,0,3.16,1.41,3.171,3.15c0,1.75-1.41,3.16-3.16,3.17C416.15,143.11,414.73,141.7,414.73,139.95z"/>
		<path fill-rule="evenodd" clip-rule="evenodd" fill="#FFFFFF" d="M416.69,147.42c0-1.74,1.41-3.16,3.15-3.16
			c1.75,0,3.17,1.41,3.17,3.15c0,1.75-1.41,3.16-3.15,3.17C418.11,150.58,416.7,149.17,416.69,147.42z"/>
		<path fill-rule="evenodd" clip-rule="evenodd" fill="#FFFFFF" d="M418.06,155.36c-0.01-1.74,1.4-3.16,3.15-3.17
			c1.739,0,3.159,1.41,3.159,3.16c0,1.74-1.409,3.16-3.149,3.16S418.06,157.1,418.06,155.36z"/>
		<path fill-rule="evenodd" clip-rule="evenodd" fill="#FFFFFF" d="M418.879,163.58c0-1.74,1.41-3.16,3.16-3.16
			c1.74,0,3.16,1.41,3.16,3.15c0,1.74-1.41,3.16-3.149,3.16C420.3,166.74,418.89,165.33,418.879,163.58z"/>
		<path fill-rule="evenodd" clip-rule="evenodd" fill="#FFFFFF" d="M419.22,171.97c0-1.74,1.409-3.16,3.149-3.16
			c1.75,0,3.17,1.41,3.17,3.15c0,1.75-1.41,3.16-3.149,3.17C420.64,175.13,419.23,173.72,419.22,171.97z"/>
	</g>
</g>
<g id="Viewport_x5F_FG">
	<rect x="1" y="1" fill-rule="evenodd" clip-rule="evenodd" fill="#0000B0" width="145.5" height="23"/>
	<text transform="matrix(1 0 0 1 7.48 18.9004)" fill="#FFFFFF" font-family="'Helvetica-Bold'" font-size="18">Rhino Viewport</text>
	
		<rect x="1" y="1" fill-rule="evenodd" clip-rule="evenodd" fill="none" stroke="#000000" stroke-width="2" stroke-linecap="round" width="519.28" height="370.5"/>
</g>
</svg>
