<?xml version="1.0" encoding="utf-8"?>
<!-- Generator: Adobe Illustrator 14.0.0, SVG Export Plug-In . SVG Version: 6.00 Build 43363)  -->
<!DOCTYPE svg PUBLIC "-//W3C//DTD SVG 1.0//EN" "http://www.w3.org/TR/2001/REC-SVG-20010904/DTD/svg10.dtd">
<svg version="1.0" id="Layer_1" xmlns="http://www.w3.org/2000/svg" xmlns:xlink="http://www.w3.org/1999/xlink" x="0px" y="0px"
	 width="119.569px" height="297.551px" viewBox="0 0 119.569 297.551" enable-background="new 0 0 119.569 297.551"
	 xml:space="preserve">
<g>
	<defs>
		<rect id="SVGID_1_" width="119.569" height="73.593"/>
	</defs>
	<clipPath id="SVGID_2_">
		<use xlink:href="#SVGID_1_"  overflow="visible"/>
	</clipPath>
	
		<path clip-path="url(#SVGID_2_)" fill="none" stroke="#C30000" stroke-width="1.031" stroke-linecap="round" stroke-linejoin="round" d="
		M3.518,70.697c7.993-47.985,64.029-70.398,102.915-41.165"/>
	<path clip-path="url(#SVGID_2_)" fill-rule="evenodd" clip-rule="evenodd" fill="#FFFFFF" d="M104.309,29.723
		c-0.106-1.17,0.76-2.206,1.933-2.312c1.17-0.106,2.207,0.76,2.312,1.931c0.106,1.172-0.76,2.209-1.93,2.314
		C105.451,31.762,104.415,30.896,104.309,29.723"/>
	<circle clip-path="url(#SVGID_2_)" fill="none" stroke="#000000" stroke-width="1.547" cx="106.432" cy="29.533" r="2.131"/>
	<path clip-path="url(#SVGID_2_)" fill-rule="evenodd" clip-rule="evenodd" d="M3.546,71.471c-0.052,0.003-0.103,0-0.157-0.01
		c-0.42-0.07-0.707-0.469-0.634-0.889L12.98,9.205L11.455,8.95l3.178-4.957l1.398,5.72l-1.526-0.252L4.278,70.827
		C4.219,71.193,3.904,71.458,3.546,71.471"/>
	<path clip-path="url(#SVGID_2_)" fill-rule="evenodd" clip-rule="evenodd" fill="#FFFFFF" d="M1.394,70.888
		c-0.106-1.17,0.76-2.209,1.933-2.312c1.17-0.106,2.207,0.761,2.312,1.931c0.106,1.172-0.76,2.209-1.93,2.314
		C2.536,72.927,1.5,72.061,1.394,70.888"/>
	<circle clip-path="url(#SVGID_2_)" fill="none" stroke="#000000" stroke-width="1.547" cx="3.517" cy="70.698" r="2.131"/>
	<g clip-path="url(#SVGID_2_)">
		<text transform="matrix(1 0 0 1 7.2891 73.0586)" font-family="'ArialMT'" font-size="6.1864">A</text>
	</g>
</g>
<text transform="matrix(1 0 0 1 104.7241 38.0024)" font-family="'ArialMT'" font-size="6.1864">B</text>
<text transform="matrix(1 0 0 1 17.3413 8.877)" font-family="'ArialMT'" font-size="6.1864">D</text>
<line fill="none" stroke="#000000" stroke-width="0.258" stroke-linecap="round" stroke-linejoin="round" stroke-dasharray="0.775,0.775" x1="59.786" y1="123.505" x2="48.18" y2="94.498"/>
<g>
	<defs>
		<rect id="SVGID_3_" x="4.716" y="74.483" width="110.137" height="72.284"/>
	</defs>
	<clipPath id="SVGID_4_">
		<use xlink:href="#SVGID_3_"  overflow="visible"/>
	</clipPath>
	
		<path clip-path="url(#SVGID_4_)" fill="none" stroke="#C30000" stroke-width="1.033" stroke-linecap="round" stroke-linejoin="round" d="
		M8.24,144.123c8.007-48.07,64.138-70.518,103.091-41.235"/>
	<path clip-path="url(#SVGID_4_)" fill-rule="evenodd" clip-rule="evenodd" d="M8.222,144.897c-0.302-0.005-0.584-0.188-0.702-0.485
		c-0.16-0.398,0.033-0.85,0.431-1.007l95.373-38.148l-0.576-1.438l5.895,0.145l-4.17,4.167l-0.576-1.435L8.524,144.843
		C8.426,144.881,8.323,144.9,8.222,144.897"/>
	<path clip-path="url(#SVGID_4_)" fill-rule="evenodd" clip-rule="evenodd" fill="#FFFFFF" d="M109.204,103.078
		c-0.106-1.175,0.762-2.213,1.937-2.316c1.172-0.106,2.21,0.762,2.315,1.934c0.107,1.175-0.761,2.213-1.933,2.319
		C110.348,105.118,109.31,104.253,109.204,103.078"/>
	<path clip-path="url(#SVGID_4_)" fill="none" stroke="#000000" stroke-width="1.549" d="M109.204,103.078
		c-0.106-1.175,0.762-2.213,1.937-2.316c1.172-0.106,2.21,0.762,2.315,1.934c0.107,1.175-0.761,2.213-1.933,2.319
		C110.348,105.118,109.31,104.253,109.204,103.078z"/>
	<path clip-path="url(#SVGID_4_)" fill-rule="evenodd" clip-rule="evenodd" d="M8.269,144.897c-0.052,0.003-0.103-0.003-0.158-0.01
		c-0.42-0.07-0.707-0.47-0.635-0.891l10.243-61.471l-1.528-0.256l3.183-4.965l1.4,5.73l-1.529-0.256L9.001,144.249
		C8.943,144.618,8.627,144.884,8.269,144.897"/>
	<path clip-path="url(#SVGID_4_)" fill-rule="evenodd" clip-rule="evenodd" fill="#FFFFFF" d="M6.113,144.313
		c-0.106-1.175,0.762-2.213,1.937-2.319c1.172-0.103,2.21,0.762,2.316,1.937c0.106,1.175-0.762,2.213-1.934,2.316
		C7.257,146.354,6.219,145.485,6.113,144.313"/>
	<circle clip-path="url(#SVGID_4_)" fill="none" stroke="#000000" stroke-width="1.549" cx="8.239" cy="144.123" r="2.135"/>
	<path clip-path="url(#SVGID_4_)" fill-rule="evenodd" clip-rule="evenodd" fill="#FFFFFF" d="M57.627,123.708
		c-0.106-1.172,0.762-2.213,1.934-2.316c1.175-0.106,2.213,0.762,2.319,1.934c0.106,1.175-0.762,2.213-1.937,2.319
		C58.771,125.751,57.73,124.884,57.627,123.708"/>
	<circle clip-path="url(#SVGID_4_)" fill="none" stroke="#000000" stroke-width="1.549" cx="59.754" cy="123.518" r="2.135"/>
	<path clip-path="url(#SVGID_4_)" fill-rule="evenodd" clip-rule="evenodd" fill="#FFFFFF" d="M45.964,94.685
		c-0.106-1.172,0.761-2.213,1.934-2.316c1.175-0.106,2.213,0.762,2.318,1.934c0.107,1.175-0.761,2.213-1.936,2.319
		C47.108,96.727,46.067,95.859,45.964,94.685"/>
	<circle clip-path="url(#SVGID_4_)" fill="none" stroke="#000000" stroke-width="1.549" cx="48.09" cy="94.494" r="2.135"/>
</g>
<text transform="matrix(1 0 0 1 57.7202 131.793)" font-family="'ArialMT'" font-size="6.1969">C</text>
<text transform="matrix(1 0 0 1 45.3262 90.4785)" font-family="'ArialMT'" font-size="6.1969">M</text>
<text transform="matrix(0.9295 -0.3687 0.3687 0.9295 68.2041 118.3999)" font-family="'ArialMT'" font-size="6.1969">Baseline</text>
<line fill="none" stroke="#000000" stroke-width="0.249" stroke-linecap="round" stroke-linejoin="round" stroke-dasharray="0.746,0.746" x1="63.823" y1="199.009" x2="52.64" y2="171.061"/>
<g>
	<defs>
		<rect id="SVGID_5_" x="2.688" y="146.767" width="114.193" height="75.501"/>
	</defs>
	<clipPath id="SVGID_6_">
		<use xlink:href="#SVGID_5_"  overflow="visible"/>
	</clipPath>
	
		<path clip-path="url(#SVGID_6_)" fill="none" stroke="#C30000" stroke-width="0.995" stroke-linecap="round" stroke-linejoin="round" d="
		M14.158,218.874c7.715-46.316,61.798-67.945,99.329-39.731"/>
	<path clip-path="url(#SVGID_6_)" fill-rule="evenodd" clip-rule="evenodd" d="M14.146,219.372
		c-0.194-0.002-0.376-0.119-0.453-0.311c-0.102-0.256,0.023-0.545,0.279-0.647l17.094-6.836l-0.371-0.926l3.789,0.092l-2.679,2.68
		l-0.371-0.923l-17.094,6.836C14.278,219.362,14.211,219.375,14.146,219.372"/>
	
		<line clip-path="url(#SVGID_6_)" fill="none" stroke="#000000" stroke-width="0.498" stroke-linecap="round" stroke-linejoin="round" stroke-dasharray="0.746,0.746" x1="14.156" y1="218.874" x2="64.955" y2="155.758"/>
	<path clip-path="url(#SVGID_6_)" fill-rule="evenodd" clip-rule="evenodd" fill="#FFFFFF" d="M111.438,179.328
		c-0.102-1.132,0.734-2.132,1.866-2.232c1.129-0.102,2.129,0.734,2.231,1.864c0.102,1.132-0.733,2.132-1.863,2.234
		C112.54,181.292,111.54,180.459,111.438,179.328"/>
	<circle clip-path="url(#SVGID_6_)" fill="none" stroke="#000000" stroke-width="1.493" cx="113.486" cy="179.144" r="2.057"/>
	<path clip-path="url(#SVGID_6_)" fill-rule="evenodd" clip-rule="evenodd" d="M14.176,219.372c-0.032,0-0.067-0.002-0.1-0.007
		c-0.271-0.045-0.455-0.301-0.41-0.573l3.025-18.158l-0.98-0.165l2.045-3.189l0.898,3.68l-0.98-0.165l-3.025,18.162
		C14.608,219.193,14.407,219.362,14.176,219.372"/>
	<path clip-path="url(#SVGID_6_)" fill-rule="evenodd" clip-rule="evenodd" fill="#FFFFFF" d="M12.108,219.058
		c-0.102-1.132,0.734-2.132,1.866-2.234c1.129-0.1,2.129,0.734,2.231,1.866c0.102,1.132-0.733,2.132-1.863,2.231
		C13.21,221.023,12.21,220.188,12.108,219.058"/>
	<circle clip-path="url(#SVGID_6_)" fill="none" stroke="#000000" stroke-width="1.493" cx="14.157" cy="218.874" r="2.057"/>
	<path clip-path="url(#SVGID_6_)" fill-rule="evenodd" clip-rule="evenodd" fill="#FFFFFF" d="M61.743,199.205
		c-0.102-1.129,0.734-2.132,1.863-2.231c1.133-0.102,2.132,0.734,2.234,1.863c0.102,1.132-0.733,2.132-1.865,2.234
		C62.845,201.173,61.843,200.337,61.743,199.205"/>
	<circle clip-path="url(#SVGID_6_)" fill="none" stroke="#000000" stroke-width="1.493" cx="63.792" cy="199.021" r="2.057"/>
	<path clip-path="url(#SVGID_6_)" fill-rule="evenodd" clip-rule="evenodd" d="M17.995,197.237
		c-0.194-0.005-0.376-0.122-0.453-0.313c-0.102-0.257,0.023-0.545,0.279-0.647l17.091-6.837l-0.368-0.923l3.787,0.092l-2.68,2.68
		l-0.368-0.926l-17.094,6.837C18.124,197.228,18.06,197.237,17.995,197.237"/>
	<path clip-path="url(#SVGID_6_)" fill-rule="evenodd" clip-rule="evenodd" d="M34.991,210.896c-0.035,0.002-0.067,0-0.102-0.008
		c-0.271-0.044-0.453-0.301-0.408-0.572l3.025-18.159l-0.98-0.164l2.042-3.189l0.901,3.679l-0.98-0.161l-3.028,18.158
		C35.424,210.717,35.222,210.888,34.991,210.896"/>
	<path clip-path="url(#SVGID_6_)" fill-rule="evenodd" clip-rule="evenodd" fill="#FFFFFF" d="M50.59,171.245
		c-0.1-1.132,0.734-2.132,1.866-2.234c1.132-0.102,2.132,0.734,2.231,1.866c0.102,1.129-0.733,2.129-1.863,2.231
		C51.692,173.209,50.692,172.375,50.59,171.245"/>
	<circle clip-path="url(#SVGID_6_)" fill="none" stroke="#000000" stroke-width="1.493" cx="52.638" cy="171.061" r="2.057"/>
</g>
<text transform="matrix(0.6199 -0.7847 0.7847 0.6199 53.9551 168.3638)" font-family="'ArialMT'" font-size="5.9708">Bisector</text>
<text transform="matrix(1 0 0 1 9.0425 201.4053)" font-family="'ArialMT'" font-size="5.9708">|</text>
<text transform="matrix(1 0 0 1 10.5938 201.4053)" font-family="'ArialMT'" font-size="4.4781">D</text>
<text transform="matrix(1 0 0 1 13.8276 201.4053)" font-family="'ArialMT'" font-size="5.9708">|</text>
<text transform="matrix(1 0 0 1 31.2207 218.1772)" font-family="'ArialMT'" font-size="5.9708">|</text>
<text transform="matrix(1 0 0 1 32.772 218.1772)" font-family="'ArialMT'" font-size="4.4781">Baseline</text>
<text transform="matrix(1 0 0 1 49.9497 218.1772)" font-family="'ArialMT'" font-size="5.9708">|</text>
<g>
	<defs>
		<rect id="SVGID_7_" x="4.716" y="236.874" width="110.137" height="60.412"/>
	</defs>
	<clipPath id="SVGID_8_">
		<use xlink:href="#SVGID_7_"  overflow="visible"/>
	</clipPath>
	<path clip-path="url(#SVGID_8_)" fill-rule="evenodd" clip-rule="evenodd" d="M41.002,286.451l-1.131-2.677
		c0.16-0.122,0.31-0.212,0.449-0.269c0.372-0.157,0.728-0.16,1.071-0.008c0.344,0.149,0.607,0.443,0.791,0.877
		c0.18,0.435,0.206,0.826,0.077,1.179c-0.132,0.351-0.377,0.604-0.736,0.756C41.389,286.363,41.216,286.412,41.002,286.451
		 M40.196,287.059l1.41-0.594c0.612-0.256,0.996-0.612,1.159-1.066c0.142-0.408,0.122-0.829-0.064-1.268
		c-0.137-0.328-0.333-0.584-0.589-0.771c-0.253-0.188-0.527-0.28-0.819-0.286c-0.289-0.003-0.668,0.096-1.141,0.295l-1.283,0.539
		l0.036,0.086l0.119-0.05c0.119-0.052,0.224-0.054,0.312-0.013c0.065,0.033,0.14,0.146,0.222,0.344l0.857,2.034
		c0.075,0.178,0.106,0.3,0.093,0.367c-0.018,0.108-0.095,0.19-0.229,0.245l-0.119,0.052L40.196,287.059z"/>
	<path clip-path="url(#SVGID_8_)" fill-rule="evenodd" clip-rule="evenodd" d="M35.538,287.205l1.035-0.436l-0.031-0.074
		l-0.069,0.027c-0.067,0.029-0.116,0.041-0.147,0.039c-0.031-0.003-0.055-0.014-0.073-0.029c-0.023-0.022-0.054-0.087-0.098-0.191
		l-0.56-1.328l-0.083,0.033l-0.589,0.578l0.073,0.057c0.064-0.064,0.119-0.105,0.162-0.124c0.026-0.013,0.052-0.015,0.073-0.013
		c0.02,0.006,0.038,0.013,0.051,0.028c0.013,0.013,0.037,0.058,0.065,0.13l0.354,0.834c0.041,0.101,0.064,0.17,0.062,0.209
		c0,0.021-0.008,0.041-0.024,0.06c-0.023,0.028-0.077,0.062-0.157,0.095l-0.078,0.031L35.538,287.205z"/>
	<path clip-path="url(#SVGID_8_)" fill-rule="evenodd" clip-rule="evenodd" d="M38.231,288.017l1.152-0.485l-0.104-0.543
		l-0.108,0.047c0,0.008-0.003,0.02-0.003,0.039c-0.005,0.067-0.02,0.111-0.041,0.137c-0.023,0.025-0.09,0.064-0.204,0.11
		l-0.351,0.149c0.191-0.377,0.299-0.647,0.323-0.811c0.025-0.164,0.018-0.294-0.021-0.387c-0.047-0.107-0.137-0.184-0.271-0.23
		c-0.137-0.045-0.287-0.033-0.447,0.034c-0.142,0.06-0.25,0.152-0.32,0.274c-0.07,0.121-0.098,0.271-0.083,0.445l0.109-0.006
		c0.023-0.162,0.103-0.27,0.235-0.324c0.08-0.033,0.157-0.035,0.232-0.004c0.075,0.03,0.129,0.084,0.163,0.164
		c0.041,0.102,0.054,0.219,0.041,0.364c-0.015,0.142-0.121,0.468-0.32,0.981L38.231,288.017z"/>
	<polygon clip-path="url(#SVGID_8_)" fill-rule="evenodd" clip-rule="evenodd" points="36.55,288.758 36.87,288.623 37.694,284.326 
		37.379,284.459 	"/>
	
		<line clip-path="url(#SVGID_8_)" fill="none" stroke="#000000" stroke-width="1.033" stroke-linecap="round" stroke-linejoin="round" x1="59.786" y1="274.024" x2="48.18" y2="245.017"/>
	
		<path clip-path="url(#SVGID_8_)" fill="none" stroke="#C30000" stroke-width="1.033" stroke-linecap="round" stroke-linejoin="round" d="
		M8.24,294.643c8.007-48.07,64.138-70.519,103.091-41.235"/>
	
		<line clip-path="url(#SVGID_8_)" fill="none" stroke="#000000" stroke-width="1.033" stroke-linecap="round" stroke-linejoin="round" x1="8.238" y1="294.643" x2="58.461" y2="274.555"/>
	
		<line clip-path="url(#SVGID_8_)" fill="none" stroke="#000000" stroke-width="1.033" stroke-linecap="round" stroke-linejoin="round" x1="8.238" y1="294.645" x2="48.177" y2="245.018"/>
	<path clip-path="url(#SVGID_8_)" fill-rule="evenodd" clip-rule="evenodd" fill="#FFFFFF" d="M109.204,253.598
		c-0.106-1.175,0.762-2.213,1.937-2.316c1.172-0.105,2.21,0.763,2.316,1.935c0.105,1.175-0.762,2.213-1.934,2.319
		C110.348,255.638,109.31,254.772,109.204,253.598"/>
	<path clip-path="url(#SVGID_8_)" fill="none" stroke="#000000" stroke-width="1.549" d="M109.204,253.598
		c-0.106-1.175,0.762-2.213,1.937-2.316c1.172-0.105,2.21,0.763,2.316,1.935c0.105,1.175-0.762,2.213-1.934,2.319
		C110.348,255.638,109.31,254.772,109.204,253.598z"/>
	<path clip-path="url(#SVGID_8_)" fill-rule="evenodd" clip-rule="evenodd" fill="#FFFFFF" d="M6.113,294.833
		c-0.106-1.175,0.762-2.213,1.937-2.319c1.172-0.103,2.21,0.762,2.316,1.938c0.106,1.175-0.762,2.213-1.934,2.316
		C7.257,296.873,6.219,296.005,6.113,294.833"/>
	<path clip-path="url(#SVGID_8_)" fill="none" stroke="#000000" stroke-width="1.549" d="M6.113,294.833
		c-0.106-1.175,0.762-2.213,1.937-2.319c1.172-0.103,2.21,0.762,2.316,1.938c0.106,1.175-0.762,2.213-1.934,2.316
		C7.257,296.873,6.219,296.005,6.113,294.833z"/>
	<path clip-path="url(#SVGID_8_)" fill-rule="evenodd" clip-rule="evenodd" fill="#FFFFFF" d="M57.627,274.229
		c-0.106-1.172,0.762-2.213,1.934-2.316c1.175-0.105,2.213,0.762,2.319,1.934c0.105,1.176-0.762,2.213-1.937,2.319
		C58.771,276.27,57.73,275.403,57.627,274.229"/>
	<circle clip-path="url(#SVGID_8_)" fill="none" stroke="#000000" stroke-width="1.549" cx="59.754" cy="274.037" r="2.135"/>
	<path clip-path="url(#SVGID_8_)" fill-rule="evenodd" clip-rule="evenodd" fill="#FFFFFF" d="M46.052,245.208
		c-0.106-1.172,0.762-2.21,1.934-2.316c1.175-0.106,2.213,0.762,2.319,1.934c0.106,1.175-0.762,2.212-1.937,2.319
		C47.196,247.25,46.155,246.384,46.052,245.208"/>
	<circle clip-path="url(#SVGID_8_)" fill="none" stroke="#000000" stroke-width="1.549" cx="48.178" cy="245.018" r="2.135"/>
	<path clip-path="url(#SVGID_8_)" fill="none" stroke="#000000" stroke-width="0.516" d="M16.183,284.908
		c1.645,1.27,2.982,2.984,3.811,5.053"/>
	<path clip-path="url(#SVGID_8_)" fill-rule="evenodd" clip-rule="evenodd" d="M23.436,286.482c0,0.052-0.015,0.119-0.049,0.199
		c-0.033,0.08-0.082,0.158-0.144,0.232c-0.062,0.075-0.137,0.139-0.225,0.193c-0.088,0.054-0.189,0.08-0.302,0.08
		c-0.145,0-0.261-0.033-0.349-0.1c-0.088-0.068-0.157-0.148-0.206-0.242c-0.049-0.092-0.083-0.185-0.104-0.277
		c-0.02-0.094-0.033-0.166-0.038-0.217c-0.047,0.093-0.111,0.188-0.194,0.283s-0.183,0.181-0.299,0.259
		c-0.117,0.077-0.246,0.139-0.388,0.186c-0.142,0.046-0.292,0.07-0.452,0.07c-0.046,0-0.118-0.006-0.217-0.013
		c-0.098-0.008-0.209-0.029-0.33-0.065c-0.121-0.036-0.245-0.093-0.374-0.168c-0.13-0.075-0.248-0.179-0.354-0.312
		c-0.106-0.135-0.194-0.306-0.264-0.512c-0.069-0.207-0.103-0.457-0.103-0.752c0-0.31,0.052-0.588,0.158-0.836
		s0.245-0.46,0.415-0.636c0.171-0.175,0.362-0.31,0.574-0.405c0.211-0.095,0.426-0.145,0.643-0.145c0.139,0,0.276,0.016,0.413,0.047
		c0.137,0.031,0.263,0.105,0.379,0.222c0.116,0.116,0.222,0.289,0.315,0.519c0.093,0.23,0.163,0.545,0.209,0.949
		c0.042-0.279,0.075-0.518,0.099-0.717c0.023-0.197,0.036-0.408,0.041-0.624c0-0.088,0.031-0.176,0.09-0.266
		c0.06-0.091,0.155-0.138,0.289-0.138c0.124,0,0.222,0.016,0.292,0.047c0.07,0.031,0.122,0.066,0.155,0.108
		c0.034,0.041,0.054,0.085,0.062,0.13c0.008,0.043,0.01,0.074,0.01,0.094c0,0.136-0.025,0.309-0.08,0.518
		c-0.056,0.209-0.124,0.423-0.206,0.645c-0.083,0.223-0.171,0.438-0.261,0.642c-0.09,0.204-0.173,0.364-0.25,0.481
		c0.01,0.063,0.02,0.111,0.03,0.148l0.008,0.023c0.016,0.051,0.036,0.107,0.062,0.168c0.026,0.059,0.054,0.113,0.088,0.162
		c0.034,0.049,0.075,0.088,0.124,0.119c0.049,0.03,0.108,0.047,0.176,0.047c0.113,0,0.191-0.021,0.229-0.065
		c0.039-0.044,0.088-0.106,0.15-0.183c0.016-0.012,0.036-0.017,0.062-0.017c0.041,0,0.072,0.013,0.09,0.039
		C23.427,286.432,23.436,286.457,23.436,286.482 M21.917,285.762c-0.015-0.217-0.039-0.453-0.067-0.709
		c-0.029-0.254-0.075-0.491-0.14-0.709c-0.064-0.215-0.154-0.396-0.271-0.543c-0.116-0.148-0.266-0.223-0.452-0.223
		c-0.191,0-0.353,0.057-0.488,0.17c-0.134,0.114-0.245,0.262-0.33,0.439s-0.147,0.377-0.186,0.599s-0.057,0.438-0.057,0.651
		c0,0.129,0.005,0.25,0.018,0.365c0.013,0.117,0.034,0.226,0.06,0.324c0.031,0.118,0.072,0.219,0.126,0.305
		c0.054,0.084,0.116,0.156,0.184,0.214c0.067,0.057,0.134,0.098,0.204,0.127c0.069,0.028,0.134,0.043,0.191,0.043
		c0.18,0,0.338-0.038,0.472-0.116c0.134-0.077,0.251-0.173,0.349-0.283c0.098-0.111,0.178-0.225,0.24-0.344
		S21.881,285.85,21.917,285.762"/>
	<polyline clip-path="url(#SVGID_8_)" fill="none" stroke="#000000" stroke-width="0.516" points="57.142,270.293 54.258,271.457 
		55.422,274.34 	"/>
	<path clip-path="url(#SVGID_8_)" fill-rule="evenodd" clip-rule="evenodd" fill="#FFFFFF" d="M31.703,269.709
		c-0.046,0-0.096-0.002-0.145-0.012c-0.108-0.019-0.209-0.06-0.297-0.125c-0.041-0.025-0.077-0.057-0.108-0.09
		c-0.036-0.033-0.067-0.072-0.096-0.113c-0.059-0.088-0.1-0.188-0.121-0.295c-0.008-0.047-0.013-0.096-0.013-0.142
		c0-0.06,0.008-0.119,0.021-0.178c0.021-0.097,0.059-0.185,0.113-0.265c0.029-0.041,0.06-0.08,0.096-0.112
		c0.034-0.034,0.07-0.065,0.111-0.093c0.021-0.017,0.044-0.029,0.067-0.043l0.031-0.015l-0.139-0.149
		c0.015-0.315,0.057-0.592,0.126-0.826c0.067-0.23,0.202-0.527,0.385-0.881c0.139-0.26,0.217-0.439,0.248-0.543
		c0.031-0.105,0.046-0.213,0.046-0.322c0-0.227-0.059-0.364-0.137-0.451c-0.087-0.1-0.18-0.137-0.296-0.137
		c-0.148,0-0.212,0.033-0.238,0.057c-0.008,0.005-0.015,0.012-0.021,0.018l-0.01,0.011l0.005,0.021
		c0.008,0.023,0.023,0.055,0.047,0.098c0.059,0.106,0.113,0.22,0.137,0.334c0.01,0.041,0.018,0.09,0.018,0.146v0.01
		c-0.003,0.174-0.062,0.336-0.186,0.469c-0.127,0.131-0.292,0.205-0.481,0.205c-0.152,0-0.289-0.049-0.405-0.131
		c-0.062-0.043-0.116-0.099-0.163-0.154c-0.157-0.189-0.211-0.424-0.211-0.654c0-0.393,0.175-0.73,0.472-0.994
		c0.318-0.285,0.728-0.408,1.188-0.408c0.558,0,1.046,0.166,1.368,0.568c0.222,0.271,0.341,0.586,0.341,0.932
		c0,0.23-0.051,0.457-0.144,0.68c-0.099,0.238-0.277,0.486-0.501,0.746c-0.37,0.416-0.524,0.639-0.568,0.73
		c-0.047,0.096-0.088,0.264-0.104,0.521l-0.105,0.099l0.121,0.069c0.039,0.029,0.072,0.058,0.103,0.089
		c0.034,0.032,0.065,0.069,0.093,0.11c0.057,0.082,0.096,0.174,0.116,0.271c0.013,0.059,0.018,0.115,0.018,0.173
		c0,0.039-0.002,0.08-0.007,0.121c-0.018,0.116-0.062,0.226-0.129,0.319c-0.029,0.043-0.06,0.078-0.096,0.111
		c-0.039,0.039-0.083,0.075-0.132,0.106c-0.08,0.052-0.168,0.088-0.263,0.106C31.806,269.707,31.755,269.709,31.703,269.709"/>
	<path clip-path="url(#SVGID_8_)" fill-rule="evenodd" clip-rule="evenodd" d="M31.752,268.099h-0.145
		c0.019-0.298,0.055-0.542,0.111-0.736c0.06-0.192,0.179-0.465,0.359-0.812c0.142-0.266,0.233-0.469,0.277-0.611
		c0.041-0.143,0.062-0.286,0.062-0.434c0-0.297-0.078-0.534-0.238-0.713c-0.157-0.176-0.354-0.263-0.583-0.263
		c-0.204,0-0.367,0.046-0.483,0.144c-0.119,0.097-0.178,0.203-0.178,0.315c0,0.085,0.036,0.194,0.105,0.32
		c0.073,0.127,0.106,0.225,0.106,0.29c0,0.085-0.026,0.154-0.08,0.214c-0.054,0.058-0.121,0.085-0.199,0.085
		c-0.098,0-0.188-0.049-0.268-0.145c-0.083-0.099-0.124-0.234-0.124-0.407c0-0.267,0.116-0.505,0.343-0.708
		c0.23-0.204,0.537-0.307,0.93-0.307c0.483,0,0.842,0.142,1.069,0.422c0.17,0.207,0.253,0.438,0.253,0.69
		c0,0.17-0.036,0.349-0.114,0.529c-0.077,0.181-0.222,0.396-0.436,0.638c-0.341,0.387-0.55,0.661-0.628,0.821
		C31.817,267.596,31.771,267.817,31.752,268.099 M31.703,268.537c0.111,0,0.204,0.036,0.281,0.114
		c0.078,0.077,0.114,0.17,0.114,0.281c0,0.108-0.039,0.198-0.116,0.276c-0.078,0.078-0.171,0.113-0.279,0.113
		c-0.108,0-0.199-0.035-0.276-0.113c-0.078-0.078-0.116-0.168-0.116-0.276c0-0.111,0.038-0.204,0.116-0.281
		C31.504,268.573,31.595,268.537,31.703,268.537"/>
</g>
</svg>
