<?xml version="1.0" encoding="utf-8"?>
<!-- Generator: Adobe Illustrator 14.0.0, SVG Export Plug-In . SVG Version: 6.00 Build 43363)  -->
<!DOCTYPE svg PUBLIC "-//W3C//DTD SVG 1.1//EN" "http://www.w3.org/Graphics/SVG/1.1/DTD/svg11.dtd">
<svg version="1.1" xmlns="http://www.w3.org/2000/svg" xmlns:xlink="http://www.w3.org/1999/xlink" x="0px" y="0px"
	 width="563.375px" height="104.17px" viewBox="0 0 563.375 104.17" enable-background="new 0 0 563.375 104.17"
	 xml:space="preserve">
<g id="Layer_1">
	<rect x="52.135" y="26.51" fill-rule="evenodd" clip-rule="evenodd" fill="#CCCCCC" width="56.7" height="56.689"/>
	<polygon fill-rule="evenodd" clip-rule="evenodd" fill="#FFFFFF" points="108.835,26.51 105.995,29.35 54.975,29.35 54.975,80.37 
		52.135,83.2 52.135,26.51 	"/>
	<polygon fill-rule="evenodd" clip-rule="evenodd" fill="#B0B0B0" points="52.135,83.2 54.975,80.37 105.995,80.37 105.995,29.35 
		108.825,26.51 108.825,83.2 	"/>
	<rect x="108.825" y="26.51" fill-rule="evenodd" clip-rule="evenodd" fill="#CCCCCC" width="56.7" height="56.689"/>
	<polygon fill-rule="evenodd" clip-rule="evenodd" fill="#FFFFFF" points="165.525,26.51 162.685,29.35 111.665,29.35 
		111.665,80.37 108.825,83.2 108.825,26.51 	"/>
	<polygon fill-rule="evenodd" clip-rule="evenodd" fill="#B0B0B0" points="108.825,83.2 111.665,80.37 162.685,80.37 162.685,29.35 
		165.525,26.51 165.525,83.2 	"/>
	<rect x="165.515" y="26.51" fill-rule="evenodd" clip-rule="evenodd" fill="#CCCCCC" width="56.7" height="56.689"/>
	<polygon fill-rule="evenodd" clip-rule="evenodd" fill="#FFFFFF" points="222.215,26.51 219.375,29.35 168.355,29.35 
		168.355,80.37 165.525,83.2 165.525,26.51 	"/>
	<polygon fill-rule="evenodd" clip-rule="evenodd" fill="#B0B0B0" points="165.525,83.2 168.355,80.37 219.385,80.37 219.385,29.35 
		222.215,26.51 222.215,83.2 	"/>
	<rect x="222.215" y="26.51" fill-rule="evenodd" clip-rule="evenodd" fill="#CCCCCC" width="56.69" height="56.689"/>
	<polygon fill-rule="evenodd" clip-rule="evenodd" fill="#FFFFFF" points="278.905,26.51 276.075,29.35 225.045,29.35 
		225.045,80.37 222.215,83.2 222.215,26.51 	"/>
	<polygon fill-rule="evenodd" clip-rule="evenodd" fill="#B0B0B0" points="222.215,83.2 225.055,80.37 276.075,80.37 276.075,29.35 
		278.905,26.51 278.905,83.2 	"/>
	<rect x="278.905" y="26.51" fill-rule="evenodd" clip-rule="evenodd" fill="#CCCCCC" width="56.7" height="56.689"/>
	<polygon fill-rule="evenodd" clip-rule="evenodd" fill="#FFFFFF" points="335.605,26.51 332.764,29.35 281.745,29.35 
		281.745,80.37 278.905,83.2 278.905,26.51 	"/>
	<polygon fill-rule="evenodd" clip-rule="evenodd" fill="#B0B0B0" points="278.905,83.2 281.745,80.37 332.764,80.37 332.764,29.35 
		335.605,26.51 335.605,83.2 	"/>
	<rect x="335.595" y="26.51" fill-rule="evenodd" clip-rule="evenodd" fill="#CCCCCC" width="56.699" height="56.689"/>
	<polygon fill-rule="evenodd" clip-rule="evenodd" fill="#FFFFFF" points="392.294,26.51 389.455,29.35 338.435,29.35 
		338.435,80.37 335.595,83.2 335.595,26.51 	"/>
	<polygon fill-rule="evenodd" clip-rule="evenodd" fill="#B0B0B0" points="335.595,83.2 338.435,80.37 389.455,80.37 389.455,29.35 
		392.285,26.51 392.285,83.2 	"/>
	<rect x="392.294" y="26.51" fill-rule="evenodd" clip-rule="evenodd" fill="#CCCCCC" width="56.69" height="56.689"/>
	<polygon fill-rule="evenodd" clip-rule="evenodd" fill="#FFFFFF" points="448.985,26.51 446.155,29.35 395.125,29.35 
		395.125,80.37 392.294,83.2 392.294,26.51 	"/>
	<polygon fill-rule="evenodd" clip-rule="evenodd" fill="#B0B0B0" points="392.294,83.2 395.125,80.37 446.155,80.37 446.155,29.35 
		448.985,26.51 448.985,83.2 	"/>
	<rect x="448.974" y="26.51" fill-rule="evenodd" clip-rule="evenodd" fill="#CCCCCC" width="56.701" height="56.689"/>
	<polygon fill-rule="evenodd" clip-rule="evenodd" fill="#FFFFFF" points="505.675,26.51 502.834,29.35 451.815,29.35 
		451.815,80.37 448.985,83.2 448.985,26.51 	"/>
	<polygon fill-rule="evenodd" clip-rule="evenodd" fill="#B0B0B0" points="448.985,83.2 451.815,80.37 502.845,80.37 502.845,29.35 
		505.675,26.51 505.675,83.2 	"/>
	<rect x="505.675" y="26.51" fill-rule="evenodd" clip-rule="evenodd" fill="#CCCCCC" width="56.699" height="56.689"/>
	<polygon fill-rule="evenodd" clip-rule="evenodd" fill="#FFFFFF" points="562.375,26.51 559.535,29.35 508.514,29.35 
		508.514,80.37 505.675,83.2 505.675,26.51 	"/>
	<polygon fill-rule="evenodd" clip-rule="evenodd" fill="#B0B0B0" points="505.675,83.2 508.514,80.37 559.535,80.37 559.535,29.35 
		562.375,26.51 562.375,83.2 	"/>
	<g>
		<rect x="52.135" y="1" fill-rule="evenodd" clip-rule="evenodd" fill="#CCCCCC" width="56.7" height="25.51"/>
		<polygon fill-rule="evenodd" clip-rule="evenodd" fill="#FFFFFF" points="108.835,1 105.995,3.82 54.975,3.82 54.975,23.69 
			52.135,26.51 52.135,1 		"/>
		<polygon fill-rule="evenodd" clip-rule="evenodd" fill="#B0B0B0" points="52.135,26.51 54.975,23.69 105.995,23.69 105.995,3.82 
			108.835,1 108.825,26.51 		"/>
		<rect x="108.825" y="1" fill-rule="evenodd" clip-rule="evenodd" fill="#CCCCCC" width="56.7" height="25.51"/>
		<polygon fill-rule="evenodd" clip-rule="evenodd" fill="#FFFFFF" points="165.525,1 162.685,3.82 111.665,3.82 111.665,23.69 
			108.825,26.51 108.825,1 		"/>
		<polygon fill-rule="evenodd" clip-rule="evenodd" fill="#B0B0B0" points="108.825,26.51 111.665,23.69 162.685,23.69 
			162.685,3.82 165.525,1 165.525,26.51 		"/>
		<polygon fill-rule="evenodd" clip-rule="evenodd" fill="#CCCCCC" points="165.525,1 165.515,26.51 222.215,26.51 222.215,1 		"/>
		<polygon fill-rule="evenodd" clip-rule="evenodd" fill="#FFFFFF" points="222.215,1 219.385,3.82 168.355,3.82 168.355,23.69 
			165.525,26.51 165.525,1 		"/>
		<polygon fill-rule="evenodd" clip-rule="evenodd" fill="#B0B0B0" points="165.525,26.51 168.355,23.69 219.385,23.69 
			219.385,3.82 222.215,1 222.215,26.51 		"/>
		<polygon fill-rule="evenodd" clip-rule="evenodd" fill="#CCCCCC" points="222.215,1 222.215,26.51 278.905,26.51 278.915,1 		"/>
		<polygon fill-rule="evenodd" clip-rule="evenodd" fill="#FFFFFF" points="278.915,1 276.075,3.82 225.055,3.82 225.045,23.69 
			222.215,26.51 222.215,1 		"/>
		<polygon fill-rule="evenodd" clip-rule="evenodd" fill="#B0B0B0" points="222.215,26.51 225.055,23.69 276.075,23.69 
			276.075,3.82 278.905,1 278.905,26.51 		"/>
		<rect x="278.905" y="1" fill-rule="evenodd" clip-rule="evenodd" fill="#CCCCCC" width="56.7" height="25.51"/>
		<polygon fill-rule="evenodd" clip-rule="evenodd" fill="#FFFFFF" points="335.605,1 332.764,3.82 281.745,3.82 281.745,23.69 
			278.905,26.51 278.905,1 		"/>
		<polygon fill-rule="evenodd" clip-rule="evenodd" fill="#B0B0B0" points="278.905,26.51 281.745,23.69 332.764,23.69 
			332.764,3.82 335.605,1 335.605,26.51 		"/>
		<rect x="335.595" y="1" fill-rule="evenodd" clip-rule="evenodd" fill="#CCCCCC" width="56.699" height="25.51"/>
		<polygon fill-rule="evenodd" clip-rule="evenodd" fill="#FFFFFF" points="392.294,1 389.455,3.82 338.435,3.82 338.435,23.69 
			335.595,26.51 335.595,1 		"/>
		<polygon fill-rule="evenodd" clip-rule="evenodd" fill="#B0B0B0" points="335.595,26.51 338.435,23.69 389.455,23.69 
			389.455,3.82 392.294,1 392.285,26.51 		"/>
		<rect x="392.294" y="1" fill-rule="evenodd" clip-rule="evenodd" fill="#CCCCCC" width="56.69" height="25.51"/>
		<polygon fill-rule="evenodd" clip-rule="evenodd" fill="#FFFFFF" points="448.985,1 446.155,3.82 395.125,3.82 395.125,23.69 
			392.294,26.51 392.294,1 		"/>
		<polygon fill-rule="evenodd" clip-rule="evenodd" fill="#B0B0B0" points="392.294,26.51 395.125,23.69 446.155,23.69 
			446.155,3.82 448.985,1 448.985,26.51 		"/>
		<polygon fill-rule="evenodd" clip-rule="evenodd" fill="#CCCCCC" points="448.985,1 448.974,26.51 505.675,26.51 505.675,1 		"/>
		<polygon fill-rule="evenodd" clip-rule="evenodd" fill="#FFFFFF" points="505.675,1 502.845,3.82 451.815,3.82 451.815,23.69 
			448.985,26.51 448.985,1 		"/>
		<polygon fill-rule="evenodd" clip-rule="evenodd" fill="#B0B0B0" points="448.985,26.51 451.815,23.69 502.845,23.69 
			502.845,3.82 505.675,1 505.675,26.51 		"/>
		<rect x="505.675" y="1" fill-rule="evenodd" clip-rule="evenodd" fill="#CCCCCC" width="56.699" height="25.51"/>
		<polygon fill-rule="evenodd" clip-rule="evenodd" fill="#FFFFFF" points="562.375,1 559.535,3.82 508.514,3.82 508.514,23.69 
			505.675,26.51 505.685,1 		"/>
		<polygon fill-rule="evenodd" clip-rule="evenodd" fill="#B0B0B0" points="505.675,26.51 508.514,23.69 559.535,23.69 
			559.535,3.82 562.375,1 562.375,26.51 		"/>
	</g>
</g>
<g id="Content">
	<g>
		<path d="M88.97,69.13l-2.508-6.961H74.696l-2.391,6.961h-6.773L79.22,34.326h2.672L95.696,69.13H88.97z M80.556,44.826
			l-4.125,12.68h8.25L80.556,44.826z"/>
	</g>
	<g>
		<path d="M202.421,39.107c-1.281-0.422-2.266-0.633-2.953-0.633c-1.11,0-2.051,0.477-2.824,1.43s-1.16,2.125-1.16,3.516
			c0,0.203,0.008,0.406,0.023,0.609h5.203v4.828h-5.109V69.13h-5.859V48.857h-3.656v-4.828h3.68c0.125-3.078,1.035-5.563,2.73-7.453
			c1.695-1.891,3.887-2.836,6.574-2.836c1.391,0,3.085,0.305,5.086,0.914L202.421,39.107z"/>
	</g>
	<g>
		<path d="M262.585,58.373h-17.93c0.109,2,0.797,3.555,2.063,4.664s2.968,1.664,5.109,1.664c2.672,0,4.703-0.695,6.094-2.086
			l2.273,4.477c-2.063,1.672-5.141,2.508-9.234,2.508c-3.829,0-6.855-1.121-9.082-3.363s-3.34-5.371-3.34-9.387
			c0-3.953,1.222-7.156,3.668-9.609c2.445-2.453,5.379-3.68,8.801-3.68c3.641,0,6.563,1.086,8.766,3.258s3.305,4.938,3.305,8.297
			C263.077,55.833,262.913,56.919,262.585,58.373z M244.866,53.966h12.328c-0.407-3.672-2.438-5.508-6.094-5.508
			C247.757,48.458,245.678,50.294,244.866,53.966z"/>
	</g>
	<g>
		<path d="M304.487,34.677l5.859-1.406V61.49c0,3.094,0.922,4.938,2.766,5.531c-0.906,1.719-2.453,2.578-4.641,2.578
			c-2.656,0-3.984-1.844-3.984-5.531V34.677z"/>
	</g>
	<g>
		<path d="M365.373,58.724h-4.477c-0.031-0.109-0.176-0.508-0.434-1.195s-0.387-1.289-0.387-1.805c0-0.984,0.137-1.93,0.41-2.836
			s0.676-1.754,1.207-2.543s1.582-2.051,3.152-3.785s2.355-3.164,2.355-4.289c0-2.188-1.43-3.281-4.289-3.281
			c-1.391,0-2.844,0.695-4.359,2.086l-2.414-4.523c2.016-1.578,4.664-2.367,7.945-2.367c2.531,0,4.645,0.703,6.34,2.109
			s2.543,3.273,2.543,5.602c0,1.594-0.309,2.941-0.926,4.043s-1.703,2.395-3.258,3.879s-2.566,2.719-3.035,3.703
			s-0.703,2.063-0.703,3.234C365.044,57.005,365.154,57.662,365.373,58.724z M363.38,61.912c1.063,0,1.965,0.375,2.707,1.125
			s1.113,1.656,1.113,2.719s-0.371,1.969-1.113,2.719s-1.645,1.125-2.707,1.125s-1.969-0.375-2.719-1.125s-1.125-1.656-1.125-2.719
			s0.375-1.969,1.125-2.719S362.318,61.912,363.38,61.912z"/>
	</g>
	<g>
		<path d="M490.73,47.802h-5.039l-1.969,7.5h3.609v4.242h-4.734l-2.813,10.055h-4.57l2.766-10.055h-5.391l-2.766,10.055h-4.57
			l2.766-10.055h-3.281v-4.242h4.43l1.945-7.5h-3.68V43.56h4.805l2.531-9.281h4.523l-2.461,9.281h5.367l2.531-9.281h4.523
			l-2.438,9.281h3.914V47.802z M481.238,47.802h-5.555l-1.969,7.5h5.508L481.238,47.802z"/>
	</g>
	<g>
		<path d="M531.31,69.13V44.38l-6.984,4.195v-5.859c4.484-2.172,8.031-4.859,10.641-8.063h2.438V69.13H531.31z"/>
	</g>
	<g>
		<path d="M131.87,68.498v10.477h-5.859V44.029h5.859v1.688c1.469-1.438,3.273-2.156,5.414-2.156c8,0,12,4.406,12,13.219
			c0,4.109-1.105,7.273-3.316,9.492s-5.23,3.328-9.059,3.328C135.065,69.599,133.385,69.232,131.87,68.498z M131.87,50.169v13.195
			c1.063,0.859,2.305,1.289,3.727,1.289c2.703,0,4.645-0.645,5.824-1.934s1.77-3.324,1.77-6.105c0-2.969-0.586-5.059-1.758-6.27
			s-3.109-1.816-5.813-1.816C134.213,48.529,132.963,49.076,131.87,50.169z"/>
	</g>
	<g>
		<path d="M77.924,11.374c-0.252-0.014-0.575,0.014-0.925,0.07c-1.947,0.308-2.956,1.709-3.166,3.222h0.028
			c0.435-0.588,1.205-1.064,2.213-1.064c1.611,0,2.746,1.177,2.746,2.941c0,1.681-1.135,3.222-3.04,3.222
			c-1.933,0-3.208-1.513-3.208-3.88c0-1.793,0.63-3.208,1.541-4.104c0.756-0.743,1.765-1.205,2.914-1.345
			c0.364-0.056,0.672-0.07,0.896-0.07V11.374z M77.574,16.627c0-1.303-0.743-2.087-1.877-2.087c-0.742,0-1.442,0.448-1.779,1.121
			c-0.07,0.14-0.126,0.308-0.126,0.532c0.014,1.499,0.714,2.62,2.017,2.62C76.859,18.812,77.574,17.929,77.574,16.627z"/>
		<path d="M85.344,11.542H81.87l-0.35,2.339c0.21-0.028,0.406-0.042,0.742-0.042c0.714,0,1.401,0.14,1.961,0.49
			c0.714,0.392,1.303,1.19,1.303,2.325c0,1.779-1.415,3.11-3.39,3.11c-0.995,0-1.821-0.28-2.269-0.561l0.308-0.938
			c0.378,0.224,1.121,0.504,1.961,0.504c1.149,0,2.157-0.756,2.143-1.975c0-1.177-0.798-2.003-2.605-2.003
			c-0.533,0-0.939,0.042-1.275,0.084l0.588-4.371h4.356V11.542z"/>
	</g>
	<g>
		<path d="M128.351,11.654h-0.028l-1.583,0.854l-0.238-0.938l1.989-1.064h1.05v9.105h-1.19V11.654z"/>
		<path d="M135.533,11.654h-0.028l-1.583,0.854l-0.238-0.938l1.989-1.064h1.051v9.105h-1.191V11.654z"/>
		<path d="M140.039,19.61v-0.756l0.967-0.938c2.325-2.213,3.39-3.39,3.39-4.763c0-0.924-0.434-1.779-1.793-1.779
			c-0.827,0-1.513,0.42-1.933,0.771l-0.392-0.869c0.616-0.519,1.527-0.924,2.563-0.924c1.961,0,2.787,1.345,2.787,2.647
			c0,1.681-1.218,3.04-3.138,4.889l-0.714,0.672v0.028h4.076v1.022H140.039z"/>
	</g>
	<g>
		<path d="M184.891,11.654h-0.028l-1.583,0.854l-0.238-0.938l1.989-1.064h1.05v9.105h-1.19V11.654z"/>
		<path d="M195.462,14.96c0,3.096-1.163,4.805-3.166,4.805c-1.779,0-2.998-1.667-3.025-4.679c0-3.068,1.331-4.734,3.18-4.734
			C194.356,10.352,195.462,12.06,195.462,14.96z M190.518,15.1c0,2.367,0.729,3.712,1.849,3.712c1.247,0,1.849-1.471,1.849-3.796
			c0-2.241-0.56-3.712-1.849-3.712C191.302,11.304,190.518,12.621,190.518,15.1z"/>
		<path d="M196.579,19.61v-0.756l0.967-0.938c2.325-2.213,3.39-3.39,3.39-4.763c0-0.924-0.434-1.779-1.793-1.779
			c-0.827,0-1.513,0.42-1.933,0.771l-0.392-0.869c0.616-0.519,1.527-0.924,2.563-0.924c1.961,0,2.787,1.345,2.787,2.647
			c0,1.681-1.218,3.04-3.138,4.889l-0.714,0.672v0.028h4.076v1.022H196.579z"/>
	</g>
	<g>
		<path d="M241.431,11.654h-0.028l-1.583,0.854l-0.238-0.938l1.989-1.064h1.05v9.105h-1.19V11.654z"/>
		<path d="M252.002,14.96c0,3.096-1.163,4.805-3.166,4.805c-1.779,0-2.998-1.667-3.025-4.679c0-3.068,1.331-4.734,3.18-4.734
			C250.896,10.352,252.002,12.06,252.002,14.96z M247.058,15.1c0,2.367,0.729,3.712,1.849,3.712c1.247,0,1.849-1.471,1.849-3.796
			c0-2.241-0.56-3.712-1.849-3.712C247.842,11.304,247.058,12.621,247.058,15.1z"/>
		<path d="M255.794,11.654h-0.028l-1.583,0.854l-0.238-0.938l1.989-1.064h1.051v9.105h-1.191V11.654z"/>
	</g>
	<g>
		<path d="M297.971,11.654h-0.028l-1.583,0.854l-0.237-0.938l1.988-1.064h1.051v9.105h-1.19V11.654z"/>
		<path d="M308.542,14.96c0,3.096-1.162,4.805-3.165,4.805c-1.779,0-2.998-1.667-3.026-4.679c0-3.068,1.331-4.734,3.18-4.734
			C307.436,10.352,308.542,12.06,308.542,14.96z M303.598,15.1c0,2.367,0.729,3.712,1.849,3.712c1.247,0,1.85-1.471,1.85-3.796
			c0-2.241-0.561-3.712-1.85-3.712C304.382,11.304,303.598,12.621,303.598,15.1z"/>
		<path d="M311.34,14.82c-1.022-0.477-1.457-1.261-1.457-2.045c0-1.443,1.219-2.423,2.829-2.423c1.766,0,2.662,1.092,2.662,2.241
			c0,0.77-0.393,1.611-1.513,2.129v0.042c1.135,0.448,1.835,1.261,1.835,2.354c0,1.597-1.359,2.647-3.096,2.647
			c-1.905,0-3.054-1.121-3.054-2.452c0-1.148,0.687-1.975,1.807-2.451L311.34,14.82z M314.45,17.243
			c0-1.093-0.771-1.639-2.003-1.989c-1.064,0.308-1.639,1.022-1.639,1.891c-0.042,0.911,0.658,1.723,1.82,1.723
			C313.736,18.868,314.45,18.182,314.45,17.243z M311.06,12.69c-0.014,0.911,0.687,1.401,1.737,1.681
			c0.784-0.266,1.387-0.827,1.387-1.653c0-0.729-0.435-1.485-1.541-1.485C311.621,11.234,311.06,11.906,311.06,12.69z"/>
	</g>
	<g>
		<path d="M360.624,11.374c-0.252-0.014-0.574,0.014-0.925,0.07c-1.947,0.308-2.955,1.709-3.166,3.222h0.028
			c0.435-0.588,1.205-1.064,2.213-1.064c1.611,0,2.746,1.177,2.746,2.941c0,1.681-1.135,3.222-3.04,3.222
			c-1.933,0-3.207-1.513-3.207-3.88c0-1.793,0.63-3.208,1.54-4.104c0.757-0.743,1.766-1.205,2.914-1.345
			c0.364-0.056,0.672-0.07,0.896-0.07V11.374z M360.273,16.627c0-1.303-0.742-2.087-1.877-2.087c-0.742,0-1.442,0.448-1.778,1.121
			c-0.07,0.14-0.127,0.308-0.127,0.532c0.015,1.499,0.715,2.62,2.018,2.62C359.559,18.812,360.273,17.929,360.273,16.627z"/>
		<path d="M362.903,18.209c0.35,0.21,1.148,0.561,2.017,0.561c1.569,0,2.073-0.995,2.06-1.765c-0.015-1.274-1.163-1.821-2.354-1.821
			h-0.687v-0.925h0.687c0.896,0,2.031-0.462,2.031-1.541c0-0.729-0.463-1.373-1.597-1.373c-0.729,0-1.429,0.322-1.821,0.603
			l-0.336-0.896c0.49-0.35,1.414-0.7,2.395-0.7c1.793,0,2.605,1.064,2.605,2.171c0,0.953-0.574,1.751-1.681,2.157v0.028
			c1.121,0.21,2.018,1.051,2.031,2.325c0,1.457-1.148,2.732-3.319,2.732c-1.023,0-1.92-0.322-2.368-0.617L362.903,18.209z"/>
	</g>
	<g>
		<path d="M412.261,18.209c0.35,0.21,1.148,0.561,2.017,0.561c1.569,0,2.073-0.995,2.06-1.765c-0.015-1.274-1.163-1.821-2.354-1.821
			h-0.687v-0.925h0.687c0.896,0,2.031-0.462,2.031-1.541c0-0.729-0.463-1.373-1.598-1.373c-0.728,0-1.429,0.322-1.82,0.603
			l-0.336-0.896c0.49-0.35,1.414-0.7,2.395-0.7c1.793,0,2.605,1.064,2.605,2.171c0,0.953-0.574,1.751-1.681,2.157v0.028
			c1.12,0.21,2.017,1.051,2.031,2.325c0,1.457-1.148,2.732-3.32,2.732c-1.022,0-1.919-0.322-2.367-0.617L412.261,18.209z"/>
		<path d="M419.148,19.61v-0.756l0.967-0.938c2.325-2.213,3.39-3.39,3.39-4.763c0-0.924-0.434-1.779-1.793-1.779
			c-0.826,0-1.513,0.42-1.933,0.771l-0.393-0.869c0.616-0.519,1.527-0.924,2.563-0.924c1.961,0,2.788,1.345,2.788,2.647
			c0,1.681-1.219,3.04-3.138,4.889l-0.715,0.672v0.028h4.076v1.022H419.148z"/>
	</g>
	<g>
		<path d="M468.801,18.209c0.35,0.21,1.148,0.561,2.017,0.561c1.569,0,2.073-0.995,2.06-1.765c-0.015-1.274-1.163-1.821-2.354-1.821
			h-0.687v-0.925h0.687c0.896,0,2.031-0.462,2.031-1.541c0-0.729-0.463-1.373-1.598-1.373c-0.728,0-1.429,0.322-1.82,0.603
			l-0.336-0.896c0.49-0.35,1.414-0.7,2.395-0.7c1.793,0,2.605,1.064,2.605,2.171c0,0.953-0.574,1.751-1.681,2.157v0.028
			c1.121,0.21,2.018,1.051,2.031,2.325c0,1.457-1.148,2.732-3.32,2.732c-1.022,0-1.919-0.322-2.367-0.617L468.801,18.209z"/>
		<path d="M481.124,11.542h-3.474l-0.351,2.339c0.21-0.028,0.406-0.042,0.742-0.042c0.715,0,1.401,0.14,1.961,0.49
			c0.715,0.392,1.303,1.19,1.303,2.325c0,1.779-1.414,3.11-3.39,3.11c-0.994,0-1.821-0.28-2.27-0.561l0.309-0.938
			c0.378,0.224,1.121,0.504,1.961,0.504c1.148,0,2.157-0.756,2.144-1.975c0-1.177-0.799-2.003-2.605-2.003
			c-0.532,0-0.938,0.042-1.274,0.084l0.588-4.371h4.356V11.542z"/>
	</g>
	<g>
		<path d="M528.857,19.61v-2.493h-4.23v-0.799l4.063-5.813h1.33v5.659h1.275v0.953h-1.275v2.493H528.857z M528.857,16.165v-3.04
			c0-0.477,0.014-0.953,0.042-1.429h-0.042c-0.28,0.532-0.505,0.924-0.757,1.345l-2.227,3.095v0.028H528.857z"/>
		<path d="M532.943,18.742c0.267,0.028,0.574,0,0.994-0.042c0.715-0.098,1.387-0.378,1.905-0.882
			c0.603-0.546,1.037-1.345,1.205-2.409h-0.042c-0.505,0.616-1.233,0.966-2.157,0.966c-1.625,0-2.676-1.232-2.676-2.788
			c0-1.723,1.247-3.235,3.109-3.235c1.863,0,3.012,1.499,3.012,3.852c0,1.989-0.672,3.39-1.568,4.258
			c-0.7,0.686-1.667,1.106-2.647,1.218c-0.448,0.07-0.841,0.084-1.135,0.07V18.742z M533.391,13.517
			c0,1.135,0.687,1.933,1.751,1.933c0.826,0,1.471-0.406,1.793-0.953c0.07-0.126,0.112-0.252,0.112-0.462
			c0-1.555-0.574-2.745-1.877-2.745C534.133,11.29,533.391,12.214,533.391,13.517z"/>
	</g>
	<g>
		<path d="M79.454,92.714h-0.028l-1.583,0.854l-0.238-0.938l1.989-1.064h1.051v9.104h-1.191V92.714z"/>
	</g>
	<g>
		<path d="M133.318,100.67v-0.757l0.966-0.938c2.325-2.213,3.39-3.39,3.39-4.762c0-0.925-0.435-1.779-1.793-1.779
			c-0.827,0-1.513,0.42-1.933,0.771l-0.393-0.869c0.617-0.518,1.527-0.924,2.563-0.924c1.961,0,2.788,1.345,2.788,2.647
			c0,1.681-1.219,3.039-3.138,4.889l-0.714,0.672v0.028h4.076v1.022H133.318z"/>
	</g>
	<g>
		<path d="M190.152,99.27c0.35,0.21,1.149,0.56,2.017,0.56c1.569,0,2.073-0.994,2.059-1.765c-0.014-1.274-1.163-1.821-2.353-1.821
			h-0.687V95.32h0.687c0.896,0,2.031-0.463,2.031-1.541c0-0.729-0.462-1.373-1.597-1.373c-0.729,0-1.429,0.322-1.821,0.603
			l-0.336-0.896c0.49-0.351,1.415-0.7,2.396-0.7c1.793,0,2.605,1.064,2.605,2.171c0,0.952-0.575,1.751-1.681,2.157v0.028
			c1.121,0.21,2.017,1.05,2.031,2.325c0,1.456-1.149,2.731-3.32,2.731c-1.022,0-1.919-0.322-2.367-0.616L190.152,99.27z"/>
	</g>
	<g>
		<path d="M250.208,100.67v-2.493h-4.23v-0.799l4.063-5.813h1.331v5.658h1.274v0.953h-1.274v2.493H250.208z M250.208,97.224v-3.039
			c0-0.477,0.014-0.953,0.042-1.429h-0.042c-0.28,0.532-0.504,0.924-0.756,1.345l-2.228,3.096v0.027H250.208z"/>
	</g>
	<g>
		<path d="M308.374,92.602H304.9l-0.351,2.339c0.21-0.027,0.406-0.042,0.742-0.042c0.715,0,1.401,0.141,1.961,0.49
			c0.715,0.393,1.303,1.191,1.303,2.325c0,1.779-1.414,3.11-3.39,3.11c-0.994,0-1.821-0.28-2.27-0.561l0.309-0.938
			c0.378,0.224,1.12,0.504,1.961,0.504c1.148,0,2.157-0.756,2.144-1.975c0-1.177-0.799-2.003-2.605-2.003
			c-0.532,0-0.938,0.042-1.275,0.084l0.589-4.37h4.356V92.602z"/>
	</g>
	<g>
		<path d="M364.675,92.434c-0.252-0.014-0.574,0.014-0.925,0.07c-1.947,0.308-2.955,1.709-3.165,3.222h0.027
			c0.435-0.589,1.205-1.064,2.214-1.064c1.61,0,2.745,1.176,2.745,2.941c0,1.681-1.135,3.222-3.04,3.222
			c-1.933,0-3.207-1.513-3.207-3.88c0-1.793,0.63-3.208,1.54-4.104c0.757-0.742,1.766-1.205,2.914-1.345
			c0.364-0.057,0.672-0.07,0.896-0.07V92.434z M364.325,97.687c0-1.303-0.742-2.087-1.877-2.087c-0.742,0-1.442,0.448-1.778,1.12
			c-0.07,0.14-0.126,0.309-0.126,0.532c0.014,1.499,0.714,2.619,2.017,2.619C363.611,99.872,364.325,98.99,364.325,97.687z"/>
	</g>
	<g>
		<path d="M421.929,91.566v0.812l-3.964,8.293h-1.274l3.95-8.055v-0.027h-4.454v-1.022H421.929z"/>
	</g>
	<g>
		<path d="M474.24,95.879c-1.022-0.476-1.457-1.26-1.457-2.045c0-1.442,1.219-2.423,2.829-2.423c1.766,0,2.662,1.093,2.662,2.241
			c0,0.771-0.393,1.61-1.513,2.129v0.042c1.134,0.448,1.835,1.261,1.835,2.354c0,1.597-1.359,2.647-3.096,2.647
			c-1.905,0-3.054-1.121-3.054-2.451c0-1.149,0.686-1.976,1.807-2.452L474.24,95.879z M477.349,98.303
			c0-1.093-0.771-1.639-2.003-1.989c-1.064,0.309-1.639,1.022-1.639,1.892c-0.042,0.91,0.658,1.723,1.82,1.723
			C476.634,99.928,477.349,99.242,477.349,98.303z M473.959,93.75c-0.015,0.911,0.687,1.401,1.736,1.681
			c0.785-0.266,1.387-0.826,1.387-1.652c0-0.729-0.434-1.485-1.54-1.485C474.52,92.293,473.959,92.966,473.959,93.75z"/>
	</g>
	<g>
		<path d="M529.813,99.802c0.266,0.027,0.574,0,0.994-0.042c0.715-0.099,1.387-0.379,1.905-0.883
			c0.603-0.546,1.037-1.345,1.205-2.409h-0.042c-0.505,0.616-1.233,0.967-2.157,0.967c-1.625,0-2.676-1.233-2.676-2.788
			c0-1.723,1.247-3.235,3.109-3.235c1.863,0,3.012,1.499,3.012,3.852c0,1.989-0.672,3.39-1.568,4.259
			c-0.7,0.687-1.667,1.106-2.647,1.219c-0.448,0.069-0.841,0.084-1.135,0.069V99.802z M530.261,94.577
			c0,1.135,0.687,1.934,1.751,1.934c0.826,0,1.471-0.406,1.793-0.952c0.07-0.127,0.112-0.253,0.112-0.463
			c0-1.555-0.574-2.745-1.877-2.745C531.003,92.35,530.261,93.274,530.261,94.577z"/>
	</g>
	<g>
		<path d="M5.457,17.53c-0.31,0.16-0.959,0.32-1.779,0.32c-1.899,0-3.318-1.199-3.318-3.418c0-2.119,1.429-3.538,3.518-3.538
			c0.83,0,1.369,0.18,1.599,0.3l-0.22,0.709c-0.32-0.16-0.79-0.28-1.349-0.28c-1.579,0-2.629,1.009-2.629,2.778
			c0,1.659,0.95,2.708,2.579,2.708c0.54,0,1.08-0.11,1.429-0.28L5.457,17.53z"/>
		<path d="M6.53,10.644h0.879v3.028h0.02c0.14-0.25,0.36-0.479,0.629-0.629c0.26-0.15,0.57-0.24,0.9-0.24
			c0.649,0,1.689,0.4,1.689,2.059v2.878H9.768v-2.778c0-0.78-0.29-1.429-1.12-1.429c-0.57,0-1.009,0.399-1.179,0.869
			c-0.05,0.13-0.06,0.26-0.06,0.42v2.918H6.53V10.644z"/>
		<path d="M15.478,16.581c0,0.419,0.02,0.83,0.07,1.159h-0.79l-0.07-0.61h-0.03c-0.27,0.38-0.79,0.72-1.479,0.72
			c-0.979,0-1.479-0.689-1.479-1.389c0-1.169,1.04-1.809,2.909-1.799v-0.1c0-0.39-0.11-1.12-1.1-1.109c-0.46,0-0.93,0.13-1.27,0.36
			l-0.2-0.59c0.4-0.25,0.989-0.42,1.599-0.42c1.479,0,1.839,1.01,1.839,1.969V16.581z M14.628,15.271
			c-0.96-0.02-2.049,0.15-2.049,1.089c0,0.58,0.38,0.84,0.82,0.84c0.64,0,1.049-0.4,1.189-0.81c0.03-0.1,0.04-0.2,0.04-0.28V15.271z
			"/>
		<path d="M16.899,14.412c0-0.57-0.01-1.06-0.04-1.509h0.77l0.04,0.959h0.03c0.22-0.649,0.759-1.06,1.349-1.06
			c0.09,0,0.16,0.01,0.24,0.02v0.83c-0.09-0.02-0.18-0.02-0.3-0.02c-0.62,0-1.059,0.46-1.179,1.12c-0.02,0.12-0.03,0.27-0.03,0.41
			v2.579h-0.879V14.412z"/>
		<path d="M25.737,17.57c-0.229,0.11-0.739,0.28-1.389,0.28c-1.459,0-2.409-0.989-2.409-2.469c0-1.489,1.02-2.579,2.599-2.579
			c0.52,0,0.979,0.13,1.219,0.26l-0.2,0.669c-0.21-0.11-0.54-0.23-1.02-0.23c-1.109,0-1.709,0.83-1.709,1.829
			c0,1.12,0.72,1.809,1.679,1.809c0.5,0,0.83-0.12,1.079-0.23L25.737,17.57z"/>
		<path d="M31.087,15.282c0,1.789-1.249,2.568-2.409,2.568c-1.299,0-2.319-0.959-2.319-2.489c0-1.609,1.07-2.559,2.399-2.559
			C30.147,12.803,31.087,13.813,31.087,15.282z M27.259,15.332c0,1.06,0.6,1.859,1.459,1.859c0.839,0,1.469-0.79,1.469-1.879
			c0-0.819-0.41-1.849-1.449-1.849C27.709,13.462,27.259,14.422,27.259,15.332z"/>
		<path d="M36.367,10.644v5.847c0,0.43,0.02,0.92,0.04,1.25h-0.78l-0.04-0.839h-0.03c-0.26,0.54-0.84,0.949-1.629,0.949
			c-1.169,0-2.079-0.989-2.079-2.458c-0.01-1.609,1-2.589,2.169-2.589c0.75,0,1.239,0.35,1.459,0.73h0.02v-2.889H36.367z
			 M35.498,14.872c0-0.11-0.01-0.26-0.04-0.37c-0.13-0.55-0.609-1.009-1.269-1.009c-0.91,0-1.449,0.799-1.449,1.859
			c0,0.979,0.49,1.789,1.429,1.789c0.589,0,1.129-0.4,1.289-1.049c0.03-0.12,0.04-0.24,0.04-0.38V14.872z"/>
		<path d="M38.329,15.481c0.02,1.189,0.77,1.679,1.659,1.679c0.629,0,1.019-0.11,1.339-0.25l0.16,0.63
			c-0.31,0.14-0.85,0.31-1.619,0.31c-1.489,0-2.378-0.989-2.378-2.449c0-1.459,0.859-2.599,2.269-2.599
			c1.589,0,1.999,1.379,1.999,2.269c0,0.18-0.01,0.31-0.03,0.41H38.329z M40.908,14.852c0.01-0.55-0.23-1.419-1.219-1.419
			c-0.9,0-1.279,0.81-1.35,1.419H40.908z"/>
	</g>
	<g>
		<path d="M27.677,57.66c-0.31,0.16-0.959,0.32-1.779,0.32c-1.899,0-3.318-1.2-3.318-3.419c0-2.118,1.429-3.538,3.518-3.538
			c0.83,0,1.37,0.18,1.599,0.3l-0.22,0.709c-0.32-0.16-0.79-0.28-1.349-0.28c-1.579,0-2.628,1.009-2.628,2.779
			c0,1.659,0.949,2.708,2.578,2.708c0.54,0,1.08-0.109,1.429-0.279L27.677,57.66z"/>
		<path d="M28.75,50.773h0.879v3.029h0.02c0.14-0.25,0.36-0.48,0.63-0.63c0.26-0.15,0.569-0.24,0.899-0.24
			c0.649,0,1.689,0.4,1.689,2.059v2.879h-0.879v-2.778c0-0.779-0.29-1.43-1.12-1.43c-0.57,0-1.009,0.4-1.179,0.87
			c-0.05,0.13-0.06,0.26-0.06,0.42v2.918H28.75V50.773z"/>
		<path d="M37.697,56.71c0,0.42,0.02,0.829,0.07,1.159h-0.79l-0.07-0.609h-0.03c-0.27,0.38-0.79,0.72-1.479,0.72
			c-0.979,0-1.479-0.69-1.479-1.39c0-1.169,1.04-1.809,2.909-1.799v-0.101c0-0.39-0.11-1.119-1.1-1.109
			c-0.459,0-0.929,0.13-1.269,0.36l-0.2-0.59c0.4-0.25,0.99-0.42,1.599-0.42c1.479,0,1.839,1.01,1.839,1.969V56.71z M36.848,55.401
			c-0.959-0.02-2.049,0.15-2.049,1.09c0,0.579,0.379,0.839,0.819,0.839c0.64,0,1.049-0.399,1.189-0.81
			c0.03-0.1,0.04-0.199,0.04-0.279V55.401z"/>
		<path d="M39.119,54.542c0-0.569-0.01-1.06-0.04-1.509h0.77l0.04,0.959h0.03c0.22-0.649,0.759-1.06,1.349-1.06
			c0.09,0,0.16,0.01,0.24,0.021v0.829c-0.09-0.02-0.18-0.02-0.3-0.02c-0.62,0-1.059,0.459-1.179,1.119
			c-0.02,0.12-0.03,0.27-0.03,0.41v2.578h-0.88V54.542z"/>
	</g>
	<g>
		<path d="M19.867,97.43c-0.31,0.16-0.959,0.32-1.779,0.32c-1.899,0-3.318-1.2-3.318-3.419c0-2.118,1.429-3.538,3.518-3.538
			c0.83,0,1.37,0.181,1.599,0.3l-0.22,0.71c-0.32-0.16-0.79-0.279-1.349-0.279c-1.579,0-2.628,1.009-2.628,2.778
			c0,1.659,0.949,2.708,2.578,2.708c0.54,0,1.08-0.109,1.429-0.279L19.867,97.43z"/>
		<path d="M20.94,90.544h0.879v3.028h0.02c0.14-0.25,0.36-0.48,0.63-0.63c0.26-0.15,0.569-0.24,0.899-0.24
			c0.649,0,1.689,0.4,1.689,2.06v2.878h-0.879v-2.778c0-0.779-0.29-1.43-1.12-1.43c-0.57,0-1.009,0.4-1.179,0.87
			c-0.05,0.13-0.06,0.26-0.06,0.42v2.918H20.94V90.544z"/>
		<path d="M29.888,96.481c0,0.42,0.02,0.829,0.07,1.159h-0.79l-0.07-0.609h-0.03c-0.27,0.38-0.79,0.72-1.479,0.72
			c-0.979,0-1.479-0.69-1.479-1.39c0-1.169,1.04-1.809,2.909-1.799v-0.101c0-0.39-0.11-1.119-1.1-1.109
			c-0.459,0-0.929,0.131-1.269,0.36l-0.2-0.59c0.4-0.25,0.99-0.42,1.599-0.42c1.479,0,1.839,1.01,1.839,1.969V96.481z
			 M29.039,95.171c-0.959-0.02-2.049,0.15-2.049,1.09c0,0.579,0.379,0.839,0.819,0.839c0.64,0,1.049-0.399,1.189-0.81
			c0.03-0.1,0.04-0.199,0.04-0.279V95.171z"/>
		<path d="M31.31,94.312c0-0.569-0.01-1.06-0.04-1.509h0.77l0.04,0.959h0.03c0.22-0.649,0.759-1.06,1.349-1.06
			c0.09,0,0.16,0.01,0.24,0.021v0.829c-0.09-0.02-0.18-0.02-0.3-0.02c-0.62,0-1.059,0.459-1.179,1.119
			c-0.02,0.12-0.03,0.27-0.03,0.41v2.578h-0.88V94.312z"/>
		<path d="M36.91,97.64l0.26-1.959h-0.83v-0.59h0.919l0.19-1.449h-0.87v-0.59h0.95l0.26-1.908h0.59l-0.26,1.908h1.05l0.25-1.908
			h0.59l-0.25,1.908h0.82v0.59h-0.91l-0.18,1.449h0.859v0.59h-0.95l-0.26,1.959h-0.6l0.26-1.959h-1.04l-0.25,1.959H36.91z
			 M38.888,95.091l0.19-1.449h-1.039l-0.19,1.449H38.888z"/>
	</g>
</g>
<g id="Edges">
	
		<line fill-rule="evenodd" clip-rule="evenodd" fill="none" stroke="#000000" stroke-width="2" x1="222.215" y1="1" x2="222.215" y2="83.2"/>
	
		<line fill-rule="evenodd" clip-rule="evenodd" fill="none" stroke="#000000" stroke-width="2" x1="108.825" y1="1" x2="108.825" y2="83.2"/>
	
		<line fill-rule="evenodd" clip-rule="evenodd" fill="none" stroke="#000000" stroke-width="2" x1="165.515" y1="1" x2="165.515" y2="83.2"/>
	
		<rect x="52.135" y="1" fill-rule="evenodd" clip-rule="evenodd" fill="none" stroke="#000000" stroke-width="2" width="510.24" height="82.2"/>
	
		<line fill-rule="evenodd" clip-rule="evenodd" fill="none" stroke="#000000" stroke-width="2" x1="278.905" y1="1" x2="278.905" y2="83.2"/>
	
		<line fill-rule="evenodd" clip-rule="evenodd" fill="none" stroke="#000000" stroke-width="2" x1="335.595" y1="1" x2="335.595" y2="83.2"/>
	
		<line fill-rule="evenodd" clip-rule="evenodd" fill="none" stroke="#000000" stroke-width="2" x1="392.294" y1="1" x2="392.294" y2="83.2"/>
	
		<line fill-rule="evenodd" clip-rule="evenodd" fill="none" stroke="#000000" stroke-width="2" x1="448.985" y1="1" x2="448.985" y2="83.2"/>
	
		<line fill-rule="evenodd" clip-rule="evenodd" fill="none" stroke="#000000" stroke-width="2" x1="505.675" y1="1" x2="505.675" y2="83.2"/>
	
		<line fill-rule="evenodd" clip-rule="evenodd" fill="none" stroke="#000000" stroke-width="2" x1="562.375" y1="26.51" x2="52.135" y2="26.51"/>
</g>
</svg>
