<?xml version="1.0" encoding="utf-8"?>
<!-- Generator: Adobe Illustrator 14.0.0, SVG Export Plug-In . SVG Version: 6.00 Build 43363)  -->
<!DOCTYPE svg PUBLIC "-//W3C//DTD SVG 1.0//EN" "http://www.w3.org/TR/2001/REC-SVG-20010904/DTD/svg10.dtd">
<svg version="1.0" xmlns="http://www.w3.org/2000/svg" xmlns:xlink="http://www.w3.org/1999/xlink" x="0px" y="0px"
	 width="56.695px" height="56.69px" viewBox="0 0 56.695 56.69" enable-background="new 0 0 56.695 56.69" xml:space="preserve">
<g id="Grids">
	<g>
		
			<line fill-rule="evenodd" clip-rule="evenodd" fill="none" stroke="#D4D4D4" stroke-width="0.27" x1="4.93" y1="0" x2="4.93" y2="56.69"/>
		
			<line fill-rule="evenodd" clip-rule="evenodd" fill="none" stroke="#D4D4D4" stroke-width="0.27" x1="9.62" y1="0" x2="9.62" y2="56.69"/>
		
			<line fill-rule="evenodd" clip-rule="evenodd" fill="none" stroke="#D4D4D4" stroke-width="0.27" x1="18.98" y1="0" x2="18.98" y2="56.69"/>
		
			<line fill-rule="evenodd" clip-rule="evenodd" fill="none" stroke="#D4D4D4" stroke-width="0.27" x1="23.66" y1="0" x2="23.66" y2="56.69"/>
		
			<line fill-rule="evenodd" clip-rule="evenodd" fill="none" stroke="#D4D4D4" stroke-width="0.27" x1="33.03" y1="0" x2="33.03" y2="56.69"/>
		
			<line fill-rule="evenodd" clip-rule="evenodd" fill="none" stroke="#D4D4D4" stroke-width="0.27" x1="37.71" y1="0" x2="37.71" y2="56.69"/>
		
			<line fill-rule="evenodd" clip-rule="evenodd" fill="none" stroke="#D4D4D4" stroke-width="0.27" x1="47.08" y1="0" x2="47.08" y2="56.69"/>
		
			<line fill-rule="evenodd" clip-rule="evenodd" fill="none" stroke="#D4D4D4" stroke-width="0.27" x1="51.76" y1="0" x2="51.76" y2="56.69"/>
		
			<line fill-rule="evenodd" clip-rule="evenodd" fill="none" stroke="#D4D4D4" stroke-width="0.27" x1="56.69" y1="4.93" x2="0" y2="4.93"/>
		
			<line fill-rule="evenodd" clip-rule="evenodd" fill="none" stroke="#D4D4D4" stroke-width="0.27" x1="56.69" y1="9.61" x2="0" y2="9.61"/>
		
			<line fill-rule="evenodd" clip-rule="evenodd" fill="none" stroke="#D4D4D4" stroke-width="0.27" x1="56.69" y1="18.98" x2="0" y2="18.98"/>
		
			<line fill-rule="evenodd" clip-rule="evenodd" fill="none" stroke="#D4D4D4" stroke-width="0.27" x1="56.69" y1="23.66" x2="0" y2="23.66"/>
		
			<line fill-rule="evenodd" clip-rule="evenodd" fill="none" stroke="#D4D4D4" stroke-width="0.27" x1="56.69" y1="33.03" x2="0" y2="33.03"/>
		
			<line fill-rule="evenodd" clip-rule="evenodd" fill="none" stroke="#D4D4D4" stroke-width="0.27" x1="56.69" y1="37.71" x2="0" y2="37.71"/>
		
			<line fill-rule="evenodd" clip-rule="evenodd" fill="none" stroke="#D4D4D4" stroke-width="0.27" x1="56.69" y1="47.08" x2="0" y2="47.08"/>
		
			<line fill-rule="evenodd" clip-rule="evenodd" fill="none" stroke="#D4D4D4" stroke-width="0.27" x1="56.69" y1="51.76" x2="0" y2="51.76"/>
		
			<line fill-rule="evenodd" clip-rule="evenodd" fill="none" stroke="#8A8A8A" stroke-width="0.27" x1="14.3" y1="0" x2="14.3" y2="56.69"/>
		
			<line fill-rule="evenodd" clip-rule="evenodd" fill="none" stroke="#8A8A8A" stroke-width="0.27" x1="0.14" y1="0" x2="0.14" y2="56.69"/>
		
			<line fill-rule="evenodd" clip-rule="evenodd" fill="none" stroke="#8A8A8A" stroke-width="0.27" x1="28.35" y1="28.34" x2="28.35" y2="56.69"/>
		
			<line fill-rule="evenodd" clip-rule="evenodd" fill="none" stroke="#8A8A8A" stroke-width="0.27" x1="42.39" y1="0" x2="42.39" y2="56.69"/>
		
			<line fill-rule="evenodd" clip-rule="evenodd" fill="none" stroke="#8A8A8A" stroke-width="0.27" x1="56.56" y1="0" x2="56.56" y2="56.69"/>
		
			<line fill-rule="evenodd" clip-rule="evenodd" fill="none" stroke="#8A8A8A" stroke-width="0.27" x1="28.35" y1="28.35" x2="0" y2="28.35"/>
		
			<line fill-rule="evenodd" clip-rule="evenodd" fill="none" stroke="#8A8A8A" stroke-width="0.27" x1="56.69" y1="14.3" x2="0" y2="14.3"/>
		
			<line fill-rule="evenodd" clip-rule="evenodd" fill="none" stroke="#8A8A8A" stroke-width="0.27" x1="56.69" y1="0.14" x2="0" y2="0.14"/>
		
			<line fill-rule="evenodd" clip-rule="evenodd" fill="none" stroke="#8A8A8A" stroke-width="0.27" x1="56.69" y1="42.39" x2="0" y2="42.39"/>
		
			<line fill-rule="evenodd" clip-rule="evenodd" fill="none" stroke="#8A8A8A" stroke-width="0.27" x1="56.69" y1="56.55" x2="0" y2="56.55"/>
		<line fill-rule="evenodd" clip-rule="evenodd" fill="none" stroke="#A80000" x1="56.69" y1="28.35" x2="28.35" y2="28.35"/>
		<line fill-rule="evenodd" clip-rule="evenodd" fill="none" stroke="#12AB00" x1="28.35" y1="0" x2="28.35" y2="28.35"/>
	</g>
</g>
<g id="Text">
	<path fill-rule="evenodd" clip-rule="evenodd" d="M8.7,40.71H8.1l0.15-0.729h0.61l0.21-1.101l1.06-0.399l-0.34,1.5h1.43
		l-0.16,0.729H9.63l-0.55,2.601c-0.04,0.199-0.06,0.35-0.06,0.47c0,0.489,0.25,0.739,0.74,0.739c0.24,0,0.5-0.06,0.78-0.18
		l-0.04,0.82c-0.26,0.09-0.7,0.14-1.29,0.14c-0.37,0-0.66-0.109-0.87-0.34c-0.2-0.229-0.31-0.54-0.31-0.95
		c0-0.09,0.02-0.199,0.05-0.33L8.7,40.71z"/>
	<path fill-rule="evenodd" clip-rule="evenodd" d="M31.13,46.26h-0.61l0.16-0.729h0.6l0.22-1.101l1.06-0.399l-0.35,1.5h1.44
		l-0.16,0.729h-1.44l-0.54,2.601c-0.05,0.2-0.07,0.35-0.07,0.47c0,0.489,0.25,0.739,0.75,0.739c0.24,0,0.5-0.06,0.77-0.18
		l-0.03,0.82c-0.27,0.09-0.7,0.14-1.3,0.14c-0.37,0-0.66-0.109-0.86-0.34c-0.21-0.229-0.31-0.54-0.31-0.949
		c0-0.091,0.01-0.2,0.04-0.33L31.13,46.26z"/>
	<path fill-rule="evenodd" clip-rule="evenodd" d="M46.95,39.96h-0.6l0.15-0.729h0.61l0.21-1.101l1.06-0.399l-0.34,1.5h1.43
		l-0.16,0.729h-1.43l-0.55,2.601c-0.04,0.199-0.06,0.35-0.06,0.47c0,0.489,0.25,0.739,0.74,0.739c0.24,0,0.5-0.06,0.78-0.18
		l-0.04,0.82c-0.26,0.09-0.7,0.14-1.29,0.14c-0.37,0-0.66-0.109-0.87-0.34c-0.2-0.229-0.31-0.54-0.31-0.95
		c0-0.09,0.02-0.199,0.05-0.33L46.95,39.96z"/>
</g>
<g id="Other">
	<circle fill-rule="evenodd" clip-rule="evenodd" fill="#FF7D00" cx="37.59" cy="46.96" r="8.64"/>
	<circle fill-rule="evenodd" clip-rule="evenodd" fill="#FF7D00" cx="43.14" cy="41.86" r="8.64"/>
	<circle fill-rule="evenodd" clip-rule="evenodd" fill="#FF7D00" cx="14.64" cy="42.46" r="8.64"/>
	<path fill-rule="evenodd" clip-rule="evenodd" fill="#FFFFFF" stroke="#000000" d="M16.35,42.5c0,1.09-0.88,1.97-1.96,1.97
		c-1.09,0-1.97-0.88-1.97-1.97c0-1.08,0.88-1.96,1.97-1.96C15.47,40.54,16.35,41.42,16.35,42.5z"/>
	<circle fill-rule="evenodd" clip-rule="evenodd" fill="#FFFFFF" stroke="#000000" cx="37.81" cy="47.34" r="1.97"/>
	<circle fill-rule="evenodd" clip-rule="evenodd" fill="#FFFFFF" stroke="#000000" cx="42.46" cy="42.39" r="1.97"/>
</g>
<g id="Vectors">
</g>
</svg>
