<?xml version="1.0" encoding="utf-8"?>
<!-- Generator: Adobe Illustrator 14.0.0, SVG Export Plug-In . SVG Version: 6.00 Build 43363)  -->
<!DOCTYPE svg PUBLIC "-//W3C//DTD SVG 1.0//EN" "http://www.w3.org/TR/2001/REC-SVG-20010904/DTD/svg10.dtd">
<svg version="1.0" xmlns="http://www.w3.org/2000/svg" xmlns:xlink="http://www.w3.org/1999/xlink" x="0px" y="0px"
	 width="56.695px" height="56.695px" viewBox="0 0 56.695 56.695" enable-background="new 0 0 56.695 56.695" xml:space="preserve">
<g id="Grids">
	<g>
		
			<line fill-rule="evenodd" clip-rule="evenodd" fill="none" stroke="#D4D4D4" stroke-width="0.27" x1="4.935" y1="0.005" x2="4.935" y2="56.695"/>
		
			<line fill-rule="evenodd" clip-rule="evenodd" fill="none" stroke="#D4D4D4" stroke-width="0.27" x1="9.615" y1="0.005" x2="9.615" y2="56.695"/>
		
			<line fill-rule="evenodd" clip-rule="evenodd" fill="none" stroke="#D4D4D4" stroke-width="0.27" x1="18.985" y1="0.005" x2="18.985" y2="56.695"/>
		
			<line fill-rule="evenodd" clip-rule="evenodd" fill="none" stroke="#D4D4D4" stroke-width="0.27" x1="23.665" y1="0.005" x2="23.665" y2="56.695"/>
		
			<line fill-rule="evenodd" clip-rule="evenodd" fill="none" stroke="#D4D4D4" stroke-width="0.27" x1="33.035" y1="0.005" x2="33.035" y2="56.695"/>
		
			<line fill-rule="evenodd" clip-rule="evenodd" fill="none" stroke="#D4D4D4" stroke-width="0.27" x1="37.715" y1="0.005" x2="37.715" y2="56.695"/>
		
			<line fill-rule="evenodd" clip-rule="evenodd" fill="none" stroke="#D4D4D4" stroke-width="0.27" x1="47.075" y1="0.005" x2="47.075" y2="56.695"/>
		
			<line fill-rule="evenodd" clip-rule="evenodd" fill="none" stroke="#D4D4D4" stroke-width="0.27" x1="51.765" y1="0.005" x2="51.765" y2="56.695"/>
		
			<line fill-rule="evenodd" clip-rule="evenodd" fill="none" stroke="#D4D4D4" stroke-width="0.27" x1="56.695" y1="4.935" x2="0.005" y2="4.935"/>
		
			<line fill-rule="evenodd" clip-rule="evenodd" fill="none" stroke="#D4D4D4" stroke-width="0.27" x1="56.695" y1="9.615" x2="0.005" y2="9.615"/>
		
			<line fill-rule="evenodd" clip-rule="evenodd" fill="none" stroke="#D4D4D4" stroke-width="0.27" x1="56.695" y1="18.985" x2="0.005" y2="18.985"/>
		
			<line fill-rule="evenodd" clip-rule="evenodd" fill="none" stroke="#D4D4D4" stroke-width="0.27" x1="56.695" y1="23.665" x2="0.005" y2="23.665"/>
		
			<line fill-rule="evenodd" clip-rule="evenodd" fill="none" stroke="#D4D4D4" stroke-width="0.27" x1="56.695" y1="33.035" x2="0.005" y2="33.035"/>
		
			<line fill-rule="evenodd" clip-rule="evenodd" fill="none" stroke="#D4D4D4" stroke-width="0.27" x1="56.695" y1="37.715" x2="0.005" y2="37.715"/>
		
			<line fill-rule="evenodd" clip-rule="evenodd" fill="none" stroke="#D4D4D4" stroke-width="0.27" x1="56.695" y1="47.075" x2="0.005" y2="47.075"/>
		
			<line fill-rule="evenodd" clip-rule="evenodd" fill="none" stroke="#D4D4D4" stroke-width="0.27" x1="56.695" y1="51.765" x2="0.005" y2="51.765"/>
		
			<line fill-rule="evenodd" clip-rule="evenodd" fill="none" stroke="#8A8A8A" stroke-width="0.27" x1="0.135" y1="0.005" x2="0.135" y2="56.695"/>
		
			<line fill-rule="evenodd" clip-rule="evenodd" fill="none" stroke="#8A8A8A" stroke-width="0.27" x1="28.345" y1="28.345" x2="28.345" y2="56.695"/>
		
			<line fill-rule="evenodd" clip-rule="evenodd" fill="none" stroke="#8A8A8A" stroke-width="0.27" x1="42.395" y1="0.005" x2="42.395" y2="56.695"/>
		
			<line fill-rule="evenodd" clip-rule="evenodd" fill="none" stroke="#8A8A8A" stroke-width="0.27" x1="56.555" y1="0.005" x2="56.555" y2="56.695"/>
		
			<line fill-rule="evenodd" clip-rule="evenodd" fill="none" stroke="#8A8A8A" stroke-width="0.27" x1="28.345" y1="28.345" x2="0.005" y2="28.345"/>
		
			<line fill-rule="evenodd" clip-rule="evenodd" fill="none" stroke="#8A8A8A" stroke-width="0.27" x1="56.695" y1="14.295" x2="0.005" y2="14.295"/>
		
			<line fill-rule="evenodd" clip-rule="evenodd" fill="none" stroke="#8A8A8A" stroke-width="0.27" x1="56.695" y1="0.135" x2="0.005" y2="0.135"/>
		
			<line fill-rule="evenodd" clip-rule="evenodd" fill="none" stroke="#8A8A8A" stroke-width="0.27" x1="56.695" y1="56.555" x2="0.005" y2="56.555"/>
		
			<line fill-rule="evenodd" clip-rule="evenodd" fill="none" stroke="#8A8A8A" stroke-width="0.27" x1="56.695" y1="28.345" x2="28.345" y2="28.345"/>
		
			<line fill-rule="evenodd" clip-rule="evenodd" fill="none" stroke="#8A8A8A" stroke-width="0.27" x1="28.345" y1="0.005" x2="28.345" y2="28.345"/>
		
			<line fill-rule="evenodd" clip-rule="evenodd" fill="none" stroke="#8A8A8A" stroke-width="0.27" x1="14.295" y1="56.695" x2="14.295" y2="42.485"/>
		
			<line fill-rule="evenodd" clip-rule="evenodd" fill="none" stroke="#8A8A8A" stroke-width="0.27" x1="0.005" y1="42.395" x2="14.055" y2="42.395"/>
		<line fill-rule="evenodd" clip-rule="evenodd" fill="none" stroke="#12AB00" x1="14.295" y1="0.005" x2="14.295" y2="42.485"/>
		<line fill-rule="evenodd" clip-rule="evenodd" fill="none" stroke="#A80000" x1="56.695" y1="42.395" x2="14.055" y2="42.395"/>
	</g>
</g>
<g id="Text">
	<path fill-rule="evenodd" clip-rule="evenodd" d="M43.605,3.555l1.41-0.3c0.1,0.24,0.18,0.48,0.24,0.73
		c0.09,0.37,0.16,0.81,0.22,1.31c0.02,0.25,0.06,0.79,0.11,1.61c0.4-0.45,0.64-0.73,0.72-0.83c0.43-0.59,0.68-0.93,0.74-1.03
		c0.11-0.17,0.19-0.32,0.23-0.45c0.04-0.1,0.05-0.19,0.05-0.28c0-0.09-0.07-0.18-0.22-0.29c-0.16-0.11-0.23-0.24-0.23-0.37
		c0-0.11,0.04-0.2,0.12-0.28c0.09-0.08,0.19-0.12,0.3-0.12c0.14,0,0.26,0.05,0.36,0.16c0.1,0.12,0.16,0.26,0.16,0.42
		c0,0.17-0.03,0.33-0.08,0.48c-0.09,0.25-0.24,0.55-0.48,0.91c-0.23,0.35-0.6,0.83-1.11,1.43c-0.07,0.07-0.43,0.45-1.09,1.13h-0.18
		c-0.08-2.06-0.24-3.35-0.49-3.86c-0.08-0.16-0.21-0.25-0.4-0.25c-0.08,0-0.2,0.02-0.35,0.05L43.605,3.555z"/>
	<path fill-rule="evenodd" clip-rule="evenodd" d="M28.135,36.275l0.34,3.66c0.56-0.67,1.01-1.29,1.35-1.87
		c0.2-0.34,0.3-0.59,0.3-0.75c0-0.07-0.02-0.13-0.05-0.19c-0.01-0.02-0.06-0.07-0.15-0.12c-0.09-0.06-0.15-0.12-0.19-0.18
		s-0.05-0.13-0.05-0.19c0-0.1,0.03-0.19,0.11-0.26c0.07-0.07,0.17-0.1,0.29-0.1c0.13,0,0.24,0.04,0.34,0.14
		c0.09,0.1,0.14,0.24,0.14,0.4c0,0.17-0.03,0.33-0.08,0.48c-0.1,0.28-0.29,0.64-0.57,1.08c-0.34,0.53-0.7,1.02-1.07,1.48
		c-0.36,0.45-0.64,0.77-0.81,0.95h-0.18l-0.32-3.38l-2.02,3.38h-0.21c-0.03-1.39-0.1-2.49-0.21-3.29c-0.05-0.33-0.13-0.55-0.25-0.66
		c-0.08-0.07-0.2-0.11-0.37-0.11c-0.09,0-0.21,0.01-0.36,0.03v-0.18l1.4-0.32c0.2,0.54,0.32,1.37,0.38,2.5
		c0.02,0.43,0.04,0.7,0.05,0.81l2.01-3.31H28.135z"/>
	<path fill-rule="evenodd" clip-rule="evenodd" d="M4.945,54.935v0.21c-0.65-0.09-1.18-0.36-1.59-0.8
		c-0.41-0.44-0.61-0.92-0.61-1.46c0-0.28,0.04-0.61,0.13-0.98c0.09-0.37,0.14-0.66,0.14-0.87c0-0.28-0.12-0.55-0.36-0.79
		c-0.23-0.24-0.56-0.39-0.98-0.45v-0.24c0.42-0.05,0.75-0.2,0.98-0.44c0.24-0.25,0.36-0.51,0.36-0.79c0-0.21-0.05-0.5-0.14-0.87
		c-0.09-0.37-0.13-0.7-0.13-0.99c0-0.53,0.2-1.01,0.61-1.45c0.41-0.45,0.94-0.71,1.59-0.8v0.21c-0.46,0.11-0.79,0.29-1,0.54
		c-0.22,0.24-0.32,0.52-0.32,0.81c0,0.23,0.04,0.54,0.13,0.91c0.09,0.38,0.13,0.7,0.13,0.97c0,0.39-0.14,0.78-0.43,1.15
		c-0.29,0.37-0.72,0.65-1.3,0.86c0.56,0.2,0.99,0.5,1.29,0.88c0.29,0.38,0.44,0.76,0.44,1.16c0,0.26-0.04,0.58-0.13,0.96
		c-0.09,0.38-0.13,0.68-0.13,0.91c0,0.3,0.1,0.57,0.32,0.82C4.155,54.645,4.485,54.825,4.945,54.935z"/>
	<path fill-rule="evenodd" clip-rule="evenodd" d="M11.405,47.245l-1.14,3.98l-0.13,0.53c-0.01,0.05-0.02,0.09-0.02,0.13
		c0,0.06,0.02,0.12,0.06,0.16c0.03,0.04,0.07,0.05,0.12,0.05c0.05,0,0.12-0.03,0.2-0.09c0.15-0.11,0.35-0.35,0.61-0.7l0.2,0.14
		c-0.27,0.4-0.55,0.71-0.83,0.93c-0.29,0.21-0.55,0.32-0.79,0.32c-0.17,0-0.3-0.05-0.38-0.13c-0.09-0.08-0.13-0.21-0.13-0.37
		c0-0.19,0.04-0.44,0.13-0.75l0.12-0.44c-0.51,0.67-0.98,1.13-1.41,1.4c-0.31,0.19-0.61,0.29-0.91,0.29c-0.28,0-0.53-0.12-0.74-0.36
		c-0.2-0.23-0.31-0.56-0.31-0.97c0-0.62,0.19-1.28,0.56-1.97c0.38-0.69,0.85-1.24,1.42-1.65c0.45-0.33,0.88-0.5,1.28-0.5
		c0.23,0,0.43,0.07,0.59,0.19c0.16,0.13,0.28,0.33,0.36,0.62l0.21-0.67L11.405,47.245z M9.325,47.555c-0.25,0-0.52,0.12-0.8,0.35
		c-0.4,0.33-0.75,0.82-1.06,1.48c-0.31,0.65-0.47,1.24-0.47,1.77c0,0.26,0.07,0.47,0.2,0.63c0.13,0.15,0.29,0.23,0.46,0.23
		c0.42,0,0.89-0.32,1.39-0.95c0.66-0.83,1-1.69,1-2.57c0-0.33-0.07-0.57-0.19-0.72C9.725,47.625,9.545,47.555,9.325,47.555z"/>
	<path fill-rule="evenodd" clip-rule="evenodd" d="M12.655,48.675h4.74v0.36h-4.74V48.675z M12.655,50.104h4.74v0.36h-4.74V50.104z"
		/>
	<path fill-rule="evenodd" clip-rule="evenodd" d="M22.235,46.595l-1.14,3.92h0.71l-0.16,0.54h-0.72l-0.46,1.6h-0.65l0.47-1.6h-2.15
		l0.18-0.61l3.58-3.85H22.235z M21.255,47.725l-2.56,2.79h1.76L21.255,47.725z"/>
	<path fill-rule="evenodd" clip-rule="evenodd" d="M23.095,51.765c0.13,0,0.24,0.04,0.32,0.13c0.09,0.09,0.13,0.19,0.13,0.31
		c0,0.13-0.04,0.23-0.13,0.32c-0.09,0.08-0.19,0.13-0.32,0.13c-0.12,0-0.22-0.05-0.31-0.13c-0.09-0.09-0.13-0.19-0.13-0.32
		c0-0.12,0.04-0.22,0.13-0.31C22.875,51.805,22.975,51.765,23.095,51.765z"/>
	<path fill-rule="evenodd" clip-rule="evenodd" d="M27.715,46.465c0.37,0,0.69,0.16,0.94,0.47c0.26,0.32,0.39,0.81,0.39,1.49
		c0,0.58-0.1,1.17-0.29,1.77c-0.19,0.61-0.46,1.13-0.8,1.57c-0.28,0.35-0.56,0.6-0.87,0.76c-0.17,0.09-0.38,0.13-0.61,0.13
		c-0.38,0-0.7-0.16-0.95-0.47c-0.26-0.31-0.39-0.81-0.39-1.49c0-0.67,0.13-1.34,0.39-2.02c0.3-0.79,0.69-1.39,1.15-1.8
		C26.985,46.604,27.335,46.465,27.715,46.465z M27.715,46.695c-0.17,0-0.34,0.07-0.51,0.2c-0.18,0.14-0.36,0.41-0.55,0.84
		c-0.18,0.42-0.36,0.96-0.53,1.63c-0.22,0.87-0.33,1.61-0.33,2.22c0,0.3,0.07,0.53,0.2,0.68c0.13,0.15,0.29,0.23,0.48,0.23
		c0.18,0,0.33-0.06,0.46-0.18c0.33-0.31,0.62-0.85,0.86-1.62c0.39-1.25,0.59-2.27,0.59-3.05c0-0.32-0.07-0.56-0.2-0.72
		C28.055,46.775,27.895,46.695,27.715,46.695z"/>
	<path fill-rule="evenodd" clip-rule="evenodd" d="M29.875,46.455v-0.15c0.49,0.06,0.89,0.26,1.2,0.59c0.3,0.33,0.46,0.69,0.46,1.1
		c0,0.21-0.04,0.45-0.1,0.73c-0.07,0.28-0.11,0.5-0.11,0.65c0,0.21,0.09,0.41,0.27,0.59c0.18,0.19,0.42,0.3,0.74,0.34v0.18
		c-0.32,0.04-0.56,0.15-0.74,0.34c-0.18,0.18-0.27,0.38-0.27,0.59c0,0.15,0.04,0.37,0.11,0.65c0.06,0.28,0.1,0.53,0.1,0.74
		c0,0.39-0.16,0.76-0.46,1.09c-0.31,0.33-0.71,0.53-1.2,0.6v-0.16c0.35-0.08,0.6-0.22,0.76-0.4c0.16-0.18,0.24-0.39,0.24-0.62
		c0-0.17-0.04-0.4-0.1-0.68c-0.07-0.28-0.11-0.52-0.11-0.72c0-0.3,0.11-0.58,0.33-0.86c0.22-0.28,0.54-0.5,0.98-0.65
		c-0.43-0.15-0.75-0.37-0.97-0.66c-0.22-0.28-0.34-0.57-0.34-0.87c0-0.2,0.04-0.44,0.11-0.72c0.06-0.28,0.1-0.51,0.1-0.68
		c0-0.23-0.08-0.43-0.24-0.62C30.475,46.675,30.225,46.535,29.875,46.455z"/>
	<polygon fill-rule="evenodd" clip-rule="evenodd" points="30.555,35.084 30.715,34.604 24.385,34.604 24.385,34.354 30.715,34.354 
		30.555,33.885 32.355,34.485 	"/>
	<polygon fill-rule="evenodd" clip-rule="evenodd" points="46.755,1.935 46.915,1.455 43.405,1.455 43.405,1.205 46.915,1.205 
		46.755,0.735 48.555,1.334 	"/>
</g>
<g id="Other">
</g>
<g id="Vectors">
	<polygon fill-rule="evenodd" clip-rule="evenodd" fill="#FF7D00" points="22.255,35.015 21.545,34.315 48.305,7.365 47.365,6.905 
		51.595,4.765 49.495,9.015 49.015,8.075 	"/>
	<polygon fill-rule="evenodd" clip-rule="evenodd" points="14.655,42.665 13.945,41.965 20.555,35.315 19.615,34.845 23.845,32.715 
		21.735,36.955 21.265,36.015 	"/>
</g>
</svg>
