<?xml version="1.0" encoding="utf-8"?>
<!-- Generator: Adobe Illustrator 14.0.0, SVG Export Plug-In . SVG Version: 6.00 Build 43363)  -->
<!DOCTYPE svg PUBLIC "-//W3C//DTD SVG 1.1//EN" "http://www.w3.org/Graphics/SVG/1.1/DTD/svg11.dtd">
<svg version="1.1" xmlns="http://www.w3.org/2000/svg" xmlns:xlink="http://www.w3.org/1999/xlink" x="0px" y="0px"
	 width="521.28px" height="417.41px" viewBox="0 0 521.28 417.41" enable-background="new 0 0 521.28 417.41" xml:space="preserve">
<g id="BackBuffer">
</g>
<g id="Viewport_x5F_BG">
	<g>
		
			<line fill-rule="evenodd" clip-rule="evenodd" fill="none" stroke="#D4D4D4" stroke-linecap="round" stroke-linejoin="round" x1="65.88" y1="164.03" x2="520.28" y2="283.79"/>
		
			<line fill-rule="evenodd" clip-rule="evenodd" fill="none" stroke="#D4D4D4" stroke-linecap="round" stroke-linejoin="round" x1="397.56" y1="416.41" x2="520.28" y2="187.69"/>
		
			<line fill-rule="evenodd" clip-rule="evenodd" fill="none" stroke="#D4D4D4" stroke-linecap="round" stroke-linejoin="round" x1="163.75" y1="95.23" x2="520.28" y2="173.12"/>
		
			<line fill-rule="evenodd" clip-rule="evenodd" fill="none" stroke="#D4D4D4" stroke-linecap="round" stroke-linejoin="round" x1="152.94" y1="102.83" x2="520.28" y2="184.84"/>
		
			<line fill-rule="evenodd" clip-rule="evenodd" fill="none" stroke="#D4D4D4" stroke-linecap="round" stroke-linejoin="round" x1="141.76" y1="110.69" x2="520.28" y2="197.08"/>
		
			<line fill-rule="evenodd" clip-rule="evenodd" fill="none" stroke="#D4D4D4" stroke-linecap="round" stroke-linejoin="round" x1="130.2" y1="118.82" x2="520.28" y2="209.88"/>
		
			<line fill-rule="evenodd" clip-rule="evenodd" fill="none" stroke="#D4D4D4" stroke-linecap="round" stroke-linejoin="round" x1="435.93" y1="416.41" x2="520.28" y2="243.34"/>
		
			<line fill-rule="evenodd" clip-rule="evenodd" fill="none" stroke="#D4D4D4" stroke-linecap="round" stroke-linejoin="round" x1="105.84" y1="135.94" x2="520.28" y2="237.32"/>
		
			<line fill-rule="evenodd" clip-rule="evenodd" fill="none" stroke="#D4D4D4" stroke-linecap="round" stroke-linejoin="round" x1="93" y1="144.96" x2="520.28" y2="252.051"/>
		
			<line fill-rule="evenodd" clip-rule="evenodd" fill="none" stroke="#D4D4D4" stroke-linecap="round" stroke-linejoin="round" x1="79.69" y1="154.32" x2="520.28" y2="267.521"/>
		
			<line fill-rule="evenodd" clip-rule="evenodd" fill="none" stroke="#D4D4D4" stroke-linecap="round" stroke-linejoin="round" x1="205.69" y1="416.41" x2="421.44" y2="140.75"/>
		
			<line fill-rule="evenodd" clip-rule="evenodd" fill="none" stroke="#D4D4D4" stroke-linecap="round" stroke-linejoin="round" x1="1" y1="279.56" x2="413.081" y2="416.41"/>
		
			<line fill-rule="evenodd" clip-rule="evenodd" fill="none" stroke="#D4D4D4" stroke-linecap="round" stroke-linejoin="round" x1="1" y1="301.16" x2="336.78" y2="416.41"/>
		
			<line fill-rule="evenodd" clip-rule="evenodd" fill="none" stroke="#D4D4D4" stroke-linecap="round" stroke-linejoin="round" x1="359.19" y1="416.41" x2="509.61" y2="159.61"/>
		
			<line fill-rule="evenodd" clip-rule="evenodd" fill="none" stroke="#D4D4D4" stroke-linecap="round" stroke-linejoin="round" x1="320.81" y1="416.41" x2="486.959" y2="154.77"/>
		
			<line fill-rule="evenodd" clip-rule="evenodd" fill="none" stroke="#D4D4D4" stroke-linecap="round" stroke-linejoin="round" x1="1" y1="324.25" x2="260.48" y2="416.41"/>
		
			<line fill-rule="evenodd" clip-rule="evenodd" fill="none" stroke="#D4D4D4" stroke-linecap="round" stroke-linejoin="round" x1="244.07" y1="416.41" x2="442.879" y2="145.34"/>
		
			<line fill-rule="evenodd" clip-rule="evenodd" fill="none" stroke="#D4D4D4" stroke-linecap="round" stroke-linejoin="round" x1="1" y1="222.46" x2="493.93" y2="371.62"/>
		
			<line fill-rule="evenodd" clip-rule="evenodd" fill="none" stroke="#D4D4D4" stroke-linecap="round" stroke-linejoin="round" x1="1" y1="301.65" x2="244.58" y2="102.92"/>
		
			<line fill-rule="evenodd" clip-rule="evenodd" fill="none" stroke="#D4D4D4" stroke-linecap="round" stroke-linejoin="round" x1="1" y1="275.98" x2="226.55" y2="99.07"/>
		
			<line fill-rule="evenodd" clip-rule="evenodd" fill="none" stroke="#D4D4D4" stroke-linecap="round" stroke-linejoin="round" x1="1" y1="252.221" x2="208.82" y2="95.27"/>
		
			<line fill-rule="evenodd" clip-rule="evenodd" fill="none" stroke="#D4D4D4" stroke-linecap="round" stroke-linejoin="round" x1="1" y1="259.33" x2="476.169" y2="412.171"/>
		
			<line fill-rule="evenodd" clip-rule="evenodd" fill="none" stroke="#D4D4D4" stroke-linecap="round" stroke-linejoin="round" x1="1" y1="230.16" x2="191.38" y2="91.54"/>
		
			<line fill-rule="evenodd" clip-rule="evenodd" fill="none" stroke="#D4D4D4" stroke-linecap="round" stroke-linejoin="round" x1="60.61" y1="370.94" x2="319.79" y2="119.01"/>
		
			<line fill-rule="evenodd" clip-rule="evenodd" fill="none" stroke="#D4D4D4" stroke-linecap="round" stroke-linejoin="round" x1="34.74" y1="361.421" x2="300.51" y2="114.88"/>
		
			<line fill-rule="evenodd" clip-rule="evenodd" fill="none" stroke="#D4D4D4" stroke-linecap="round" stroke-linejoin="round" x1="9.53" y1="352.15" x2="281.55" y2="110.83"/>
		
			<line fill-rule="evenodd" clip-rule="evenodd" fill="none" stroke="#D4D4D4" stroke-linecap="round" stroke-linejoin="round" x1="87.17" y1="380.721" x2="339.419" y2="123.21"/>
		
			<line fill-rule="evenodd" clip-rule="evenodd" fill="none" stroke="#D4D4D4" stroke-linecap="round" stroke-linejoin="round" x1="142.47" y1="401.07" x2="379.7" y2="131.83"/>
		
			<line fill-rule="evenodd" clip-rule="evenodd" fill="none" stroke="#D4D4D4" stroke-linecap="round" stroke-linejoin="round" x1="171.27" y1="411.66" x2="400.39" y2="136.25"/>
		
			<line fill-rule="evenodd" clip-rule="evenodd" fill="none" stroke="#D4D4D4" stroke-linecap="round" stroke-linejoin="round" x1="21.15" y1="195.47" x2="509.93" y2="335.101"/>
		
			<line fill-rule="evenodd" clip-rule="evenodd" fill="none" stroke="#D4D4D4" stroke-linecap="round" stroke-linejoin="round" x1="5.03" y1="206.8" x2="502.129" y2="352.891"/>
		
			<line fill-rule="evenodd" clip-rule="evenodd" fill="none" stroke="#D4D4D4" stroke-linecap="round" stroke-linejoin="round" x1="36.64" y1="184.58" x2="517.35" y2="318.171"/>
	</g>
	<g>
		
			<line fill-rule="evenodd" clip-rule="evenodd" fill="none" stroke="#8A8A8A" stroke-linecap="round" stroke-linejoin="round" x1="174.22" y1="87.87" x2="520.28" y2="161.89"/>
		
			<line fill-rule="evenodd" clip-rule="evenodd" fill="none" stroke="#8A8A8A" stroke-linecap="round" stroke-linejoin="round" x1="118.23" y1="127.23" x2="520.28" y2="223.28"/>
		
			<line fill-rule="evenodd" clip-rule="evenodd" fill="none" stroke="#8A8A8A" stroke-linecap="round" stroke-linejoin="round" x1="474.31" y1="416.41" x2="520.28" y2="311.48"/>
		
			<line fill-rule="evenodd" clip-rule="evenodd" fill="none" stroke="#8A8A8A" stroke-linecap="round" stroke-linejoin="round" x1="282.44" y1="416.41" x2="464.72" y2="150.01"/>
		
			<line fill-rule="evenodd" clip-rule="evenodd" fill="none" stroke="#8A8A8A" stroke-linecap="round" stroke-linejoin="round" x1="1" y1="349.01" x2="184.18" y2="416.41"/>
		
			<line fill-rule="evenodd" clip-rule="evenodd" fill="none" stroke="#8A8A8A" stroke-linecap="round" stroke-linejoin="round" x1="1" y1="329.46" x2="262.911" y2="106.84"/>
		
			<line fill-rule="evenodd" clip-rule="evenodd" fill="none" stroke="#8A8A8A" stroke-linecap="round" stroke-linejoin="round" x1="1" y1="240.33" x2="485.29" y2="391.351"/>
		
			<line fill-rule="evenodd" clip-rule="evenodd" fill="none" stroke="#8A8A8A" stroke-linecap="round" stroke-linejoin="round" x1="1" y1="209.63" x2="174.22" y2="87.87"/>
		
			<line fill-rule="evenodd" clip-rule="evenodd" fill="none" stroke="#8A8A8A" stroke-linecap="round" stroke-linejoin="round" x1="262.82" y1="231.271" x2="51.54" y2="174.11"/>
		
			<line fill-rule="evenodd" clip-rule="evenodd" fill="none" stroke="#8A8A8A" stroke-linecap="round" stroke-linejoin="round" x1="262.82" y1="231.271" x2="114.45" y2="390.75"/>
	</g>
	
		<line fill-rule="evenodd" clip-rule="evenodd" fill="none" stroke="#12AB00" stroke-width="2" stroke-linecap="round" stroke-linejoin="round" x1="359.379" y1="127.48" x2="262.82" y2="231.271"/>
	
		<line fill-rule="evenodd" clip-rule="evenodd" fill="none" stroke="#A80000" stroke-width="2" stroke-linecap="round" stroke-linejoin="round" x1="520.28" y1="300.921" x2="262.82" y2="231.271"/>
</g>
<g id="Viewport_x5F_MG">
	<path fill-rule="evenodd" clip-rule="evenodd" d="M176.24,148.87l-2.9-2.63l4.04-1.63c12.51-5.43,24.57-11.76,36.42-18.54
		c-0.02,0.02-0.07,0.04,0.06-0.03c0.1-0.06,0.19-0.11,0.29-0.17c0.12-0.07,0.23-0.13,0.35-0.2c0.31-0.18,0.62-0.36,0.92-0.54
		c1.44-0.86,2.87-1.75,4.27-2.68c3.65-2.42,7.12-5.08,10.43-8.13c1.46-1.34,2.86-2.81,4.17-4.28c2.24-2.51,4.21-5.24,5.73-8.14
		c1.82-3.45,3.21-7.15,3.48-11.37c0.2-3.07-0.21-6.04-1.17-8.62c-0.82-2.21-1.96-4.28-3.53-6.11c-0.37-0.45-0.78-0.89-1.19-1.32
		c-2.16-2.27-4.74-3.89-7.41-5.17c-0.63-0.3-1.27-0.58-1.93-0.83c-0.74-0.27-1.49-0.54-2.24-0.77c-3.86-1.18-8.11-1.69-12.57-1.56
		c-5.38,0.16-10.36,1.19-15.07,2.7c-0.98,0.31-1.95,0.67-2.92,1.01c-1.98,0.71-3.9,1.58-5.8,2.46c-3.99,1.85-7.76,4.13-11.44,6.6
		c-0.28,0.18-0.65,0.11-0.83-0.17c-0.19-0.27-0.11-0.64,0.16-0.83c3.01-2,6.06-3.88,9.24-5.53c5.38-2.77,10.98-4.94,17.06-6.32
		c1.95-0.45,3.98-0.81,6.05-1c1.73-0.16,3.5-0.3,5.32-0.28c4.13,0.04,7.95,0.56,11.55,1.65c1.58,0.48,3.16,1.06,4.62,1.79
		c1.46,0.74,2.93,1.52,4.25,2.53c1.04,0.78,2.1,1.59,3.03,2.55c0.76,0.79,1.5,1.59,2.14,2.44c2.67,3.56,4.26,7.62,4.5,12.4
		c0.04,0.84,0.03,1.69-0.01,2.53c-0.16,3.19-0.93,6.17-2.04,8.9c-2.51,6.22-6.65,11.67-11.78,16.57c-1.11,1.05-2.24,2.06-3.39,3.04
		c-2.7,2.31-5.54,4.36-8.45,6.31c-1.11,0.75-2.23,1.46-3.37,2.16c-0.38,0.23-0.78,0.44-1.14,0.69c-0.56,0.37-1.17,0.7-1.76,1.04
		c-0.73,0.44-1.47,0.88-2.21,1.31c-2.89,1.69-5.8,3.35-8.72,4.99c-7.66,4.29-15.47,8.3-23.43,11.98L176.24,148.87z"/>
	<path fill-rule="evenodd" clip-rule="evenodd" d="M133.71,156.89c1.56-0.06,3.09-0.19,4.57-0.37c4.01-0.47,7.87-1.26,11.63-2.22
		c4.77-1.21,9.42-2.68,13.99-4.32l1.13-0.45l3.09,2.68l-4.43,1.88c-4.16,1.56-8.39,2.98-12.73,4.16c-3.57,0.97-7.2,1.82-10.97,2.4
		c-2.84,0.44-5.78,0.74-8.83,0.76c-4.49,0.03-8.77-0.5-12.41-2.2c-1.43-0.67-2.8-1.5-3.99-2.64c-1.12-1.06-2.02-2.26-2.58-3.6
		c-0.45-1.07-0.77-2.17-0.87-3.41c-0.08-0.98-0.04-2.03,0.13-2.94c0.5-2.61,1.62-4.8,3.23-6.86c1.75-2.23,4.07-4.05,6.43-5.37
		c4.4-2.46,9.44-3.73,15.06-3.73c1.09,0,2.15,0.04,3.19,0.13c3.91,0.36,7.54,1.21,11.01,2.42c3.85,1.35,7.52,3.14,10.98,5.27
		c1.98,1.22,3.92,2.52,5.81,3.92l5.21,4.21l2.9,2.63l1.44,1.33c7.89,7.63,14.25,16.17,20.08,24.93c1.63,2.46,3.15,4.98,4.68,7.5
		c0.86,1.41,0.4,3.26-1.02,4.11c-0.35,0.22-0.73,0.35-1.12,0.4c-1.16,0.17-2.35-0.35-2.99-1.42c-2.83-4.65-5.75-9.27-8.96-13.75
		c-4.34-6.08-9.06-11.85-14.52-17.34c-0.8-0.81-1.65-1.6-2.47-2.38l-1.04-0.9l-3.08-2.68l-0.6-0.52c-3.38-2.71-6.91-5.19-10.67-7.15
		c-1.54-0.8-3.08-1.57-4.69-2.22c-2.14-0.86-4.31-1.63-6.6-2.15c-1.45-0.33-2.91-0.61-4.43-0.77c-1.12-0.12-2.28-0.19-3.46-0.2
		c-1.81-0.02-3.55,0.16-5.21,0.45c-3.07,0.55-5.9,1.64-8.42,3.28c-1.38,0.9-2.76,2.08-3.79,3.41c-0.74,0.95-1.32,1.95-1.74,3.04
		c-0.29,0.74-0.46,1.55-0.48,2.41c-0.04,2.05,0.85,3.59,2.31,4.88c0.33,0.3,0.7,0.54,1.06,0.78c1.49,1,3.28,1.56,5.08,1.97
		c1.4,0.33,2.9,0.51,4.42,0.61C130.59,156.95,132.16,156.96,133.71,156.89z"/>
	
		<polyline fill-rule="evenodd" clip-rule="evenodd" fill="none" stroke="#80003B" stroke-width="2" stroke-linejoin="bevel" points="
		262.82,231.271 194.98,212.91 139.41,264.34 139.41,339.07 	"/>
	
		<polyline fill-rule="evenodd" clip-rule="evenodd" fill="none" stroke="#080096" stroke-width="2" stroke-linejoin="bevel" points="
		262.82,231.271 335.331,250.78 355.21,225.38 355.4,175.2 	"/>
	<g>
		
			<line fill-rule="evenodd" clip-rule="evenodd" fill="none" stroke="#080096" stroke-width="4" stroke-linejoin="bevel" x1="262.82" y1="231.271" x2="343.12" y2="182.64"/>
		<polygon fill="#080096" points="345.268,190.695 352.956,176.713 337.003,177.047 		"/>
	</g>
	<g>
		
			<line fill-rule="evenodd" clip-rule="evenodd" fill="none" stroke="#80003B" stroke-width="4" stroke-linejoin="bevel" x1="262.82" y1="231.271" x2="150.66" y2="329.25"/>
		<polygon fill="#80003B" points="147.154,321.687 141.996,336.785 157.65,333.703 		"/>
	</g>
	<path fill-rule="evenodd" clip-rule="evenodd" fill="#FFFFFF" d="M258.37,231.271c0-2.461,2-4.45,4.45-4.45
		c2.461,0,4.45,1.989,4.45,4.45c0,2.45-1.989,4.45-4.45,4.45C260.37,235.721,258.37,233.721,258.37,231.271z"/>
	<path fill-rule="evenodd" clip-rule="evenodd" fill="#80003B" d="M264.59,236.43c-2.851,0.971-5.95-0.55-6.93-3.399
		c-0.97-2.84,0.55-5.94,3.4-6.92l0.64,1.89c-1.8,0.62-2.76,2.59-2.14,4.391c0.609,1.8,2.58,2.76,4.38,2.14L264.59,236.43z"/>
	<path fill-rule="evenodd" clip-rule="evenodd" fill="#080096" d="M264.59,236.43c2.84-0.979,4.359-4.079,3.39-6.93
		c-0.979-2.84-4.08-4.359-6.92-3.39l0.64,1.89c1.801-0.609,3.771,0.351,4.391,2.15c0.609,1.8-0.351,3.771-2.15,4.38L264.59,236.43z"
		/>
	<path fill-rule="evenodd" clip-rule="evenodd" fill="#FFFFFF" stroke="#080096" stroke-width="2" d="M350.95,175.2
		c0-2.45,1.99-4.45,4.45-4.45c2.45,0,4.45,2,4.45,4.45c0,2.46-2,4.45-4.45,4.45C352.94,179.65,350.95,177.66,350.95,175.2z"/>
	<path fill-rule="evenodd" clip-rule="evenodd" fill="#FFFFFF" stroke="#80003B" stroke-width="2" d="M134.96,339.07
		c0-2.46,1.99-4.45,4.45-4.45c2.45,0,4.45,1.99,4.45,4.45s-2,4.45-4.45,4.45C136.95,343.521,134.96,341.53,134.96,339.07z"/>
	<path fill-rule="evenodd" clip-rule="evenodd" fill="#80003B" d="M137.43,264.34c0-1.09,0.89-1.97,1.98-1.97s1.97,0.88,1.97,1.97
		s-0.88,1.98-1.97,1.98S137.43,265.43,137.43,264.34z"/>
	<path fill-rule="evenodd" clip-rule="evenodd" fill="#80003B" d="M193,212.91c0-1.09,0.89-1.97,1.98-1.97
		c1.09,0,1.97,0.88,1.97,1.97s-0.88,1.98-1.97,1.98C193.89,214.891,193,214,193,212.91z"/>
	<path fill-rule="evenodd" clip-rule="evenodd" fill="#080096" d="M333.61,250.96c0-1.09,0.891-1.979,1.98-1.979
		s1.979,0.89,1.979,1.979c0,1.091-0.89,1.97-1.979,1.97S333.61,252.051,333.61,250.96z"/>
	<path fill-rule="evenodd" clip-rule="evenodd" fill="#080096" d="M353.2,225.43c0-1.089,0.881-1.979,1.97-1.979
		c1.091,0,1.98,0.891,1.98,1.979c0,1.091-0.89,1.971-1.98,1.971C354.081,227.4,353.2,226.521,353.2,225.43z"/>
	
		<polyline fill-rule="evenodd" clip-rule="evenodd" fill="none" stroke="#FF5900" stroke-width="2" stroke-linejoin="bevel" points="
		214.67,127.32 272.79,140.59 291.62,123.13 291.62,80.86 	"/>
	<g>
		
			<line fill-rule="evenodd" clip-rule="evenodd" fill="none" stroke="#FF5900" stroke-width="4" stroke-linejoin="bevel" x1="214.68" y1="127.32" x2="277.69" y2="88.92"/>
		<polygon fill="#FF5900" points="279.861,96.969 287.508,82.966 271.557,83.345 		"/>
	</g>
	<path fill-rule="evenodd" clip-rule="evenodd" fill="#FFFFFF" stroke="#000000" stroke-width="2" d="M210.23,127.14
		c0-2.45,1.99-4.45,4.45-4.45c2.45,0,4.45,2,4.45,4.45c0,2.46-2,4.45-4.45,4.45C212.22,131.59,210.23,129.6,210.23,127.14z"/>
	<path fill-rule="evenodd" clip-rule="evenodd" fill="#FFFFFF" stroke="#FF5900" stroke-width="2" d="M286.71,80.15
		c0-2.46,2-4.45,4.459-4.45c2.45,0,4.45,1.99,4.45,4.45c0,2.45-2,4.45-4.45,4.45C288.71,84.6,286.71,82.6,286.71,80.15z"/>
	<path fill-rule="evenodd" clip-rule="evenodd" fill="#FF5900" d="M270.97,140.69c0-1.09,0.88-1.98,1.97-1.98
		c1.091,0,1.979,0.89,1.979,1.98c0,1.09-0.889,1.97-1.979,1.97C271.85,142.66,270.97,141.78,270.97,140.69z"/>
	<path fill-rule="evenodd" clip-rule="evenodd" fill="#FF5900" d="M289.59,123.03c0-1.09,0.89-1.98,1.979-1.98
		c1.091,0,1.97,0.89,1.97,1.98s-0.879,1.97-1.97,1.97C290.48,125,289.59,124.12,289.59,123.03z"/>
	<g>
		<path fill="#080096" d="M288.789,253.681l0.563-0.902c0.383,0.422,0.867,0.633,1.453,0.633c1.086,0,1.629-0.531,1.629-1.594
			c0-0.484-0.158-0.878-0.475-1.181s-0.736-0.454-1.26-0.454h-0.094v-0.949h0.053c0.992,0,1.488-0.438,1.488-1.313
			c0-0.914-0.467-1.371-1.4-1.371c-0.508,0-0.912,0.17-1.213,0.51l-0.521-0.797c0.363-0.473,0.971-0.709,1.822-0.709
			c0.75,0,1.361,0.2,1.834,0.601s0.709,0.913,0.709,1.538c0,0.477-0.132,0.898-0.396,1.266s-0.573,0.613-0.929,0.738
			c0.492,0.16,0.884,0.433,1.175,0.817s0.437,0.851,0.437,1.397c0,0.797-0.252,1.412-0.756,1.846s-1.211,0.65-2.121,0.65
			c-0.383,0-0.758-0.071-1.125-0.214S289.003,253.88,288.789,253.681z"/>
		<path fill="#080096" d="M296.517,252.644c0.242,0,0.449,0.086,0.621,0.258s0.258,0.379,0.258,0.621s-0.086,0.45-0.258,0.624
			s-0.379,0.261-0.621,0.261s-0.449-0.087-0.621-0.261s-0.258-0.382-0.258-0.624s0.086-0.449,0.258-0.621
			S296.275,252.644,296.517,252.644z"/>
		<path fill="#080096" d="M299.224,249.737c0-1.234,0.25-2.24,0.75-3.018s1.203-1.166,2.109-1.166c0.898,0,1.573,0.324,2.024,0.973
			s0.677,1.781,0.677,3.398c0,1.391-0.236,2.485-0.709,3.284s-1.164,1.198-2.074,1.198s-1.601-0.322-2.071-0.967
			S299.224,251.562,299.224,249.737z M300.396,249.843c0,2.379,0.508,3.568,1.523,3.568c0.582,0,1.01-0.264,1.283-0.791
			s0.41-1.451,0.41-2.771c0-0.91-0.053-1.578-0.158-2.004s-0.275-0.748-0.51-0.967s-0.531-0.328-0.891-0.328
			C300.949,246.55,300.396,247.647,300.396,249.843z"/>
	</g>
	<g>
		<path fill="#080096" d="M347.584,247.391v-0.234l2.689-4.119c0.563-0.863,0.844-1.596,0.844-2.197
			c0-0.793-0.447-1.189-1.342-1.189c-0.316,0-0.613,0.083-0.891,0.249s-0.479,0.376-0.604,0.63l-0.756-0.621
			c0.133-0.383,0.394-0.688,0.782-0.914s0.858-0.34,1.409-0.34c0.824,0,1.469,0.19,1.934,0.571s0.697,0.919,0.697,1.614
			c0,0.645-0.309,1.457-0.926,2.438l-1.928,3.059h3.363v1.055H347.584z"/>
		<path fill="#080096" d="M355.547,245.744c0.242,0,0.449,0.086,0.621,0.258s0.258,0.379,0.258,0.621s-0.086,0.45-0.258,0.624
			s-0.379,0.261-0.621,0.261s-0.449-0.087-0.621-0.261s-0.258-0.382-0.258-0.624s0.086-0.449,0.258-0.621
			S355.305,245.744,355.547,245.744z"/>
		<path fill="#080096" d="M358.254,242.838c0-1.234,0.25-2.24,0.75-3.018s1.203-1.166,2.109-1.166c0.898,0,1.573,0.324,2.024,0.973
			s0.677,1.781,0.677,3.398c0,1.391-0.236,2.485-0.709,3.284s-1.164,1.198-2.074,1.198s-1.601-0.322-2.071-0.967
			S358.254,244.662,358.254,242.838z M359.426,242.943c0,2.379,0.508,3.568,1.523,3.568c0.582,0,1.01-0.264,1.283-0.791
			s0.41-1.451,0.41-2.771c0-0.91-0.053-1.578-0.158-2.004s-0.275-0.748-0.51-0.967s-0.531-0.328-0.891-0.328
			C359.979,239.65,359.426,240.748,359.426,242.943z"/>
	</g>
	<g>
		<path fill="#080096" d="M358.604,206.81v-0.234l2.689-4.119c0.563-0.863,0.844-1.596,0.844-2.197c0-0.793-0.447-1.189-1.342-1.189
			c-0.316,0-0.613,0.083-0.891,0.249s-0.479,0.376-0.604,0.63l-0.756-0.621c0.133-0.383,0.394-0.688,0.782-0.914
			s0.858-0.34,1.409-0.34c0.824,0,1.469,0.19,1.934,0.571s0.697,0.919,0.697,1.614c0,0.645-0.309,1.457-0.926,2.438l-1.928,3.059
			h3.363v1.055H358.604z"/>
		<path fill="#080096" d="M366.567,205.164c0.242,0,0.449,0.086,0.621,0.258s0.258,0.379,0.258,0.621s-0.086,0.45-0.258,0.624
			s-0.379,0.261-0.621,0.261s-0.449-0.087-0.621-0.261s-0.258-0.382-0.258-0.624s0.086-0.449,0.258-0.621
			S366.325,205.164,366.567,205.164z"/>
		<path fill="#080096" d="M370.258,202.621l-0.398-0.275v-4.154h4.271v0.996h-3.158v2.086c0.289-0.215,0.656-0.322,1.102-0.322
			c0.797,0,1.405,0.238,1.825,0.715s0.63,1.154,0.63,2.033c0,2.152-0.959,3.229-2.877,3.229c-0.801,0-1.465-0.223-1.992-0.668
			l0.451-0.979c0.531,0.434,1.043,0.65,1.535,0.65c1.102,0,1.652-0.688,1.652-2.063c0-1.281-0.543-1.922-1.629-1.922
			C371.147,201.947,370.676,202.171,370.258,202.621z"/>
	</g>
	<g>
		<path fill="#080096" d="M366.021,168.778v0.486c-0.773,1.117-1.16,2.748-1.16,4.893c0,2.547,0.387,4.266,1.16,5.156v0.615
			c-0.789-0.551-1.401-1.341-1.837-2.37s-0.653-2.167-0.653-3.413c0-1.063,0.248-2.136,0.744-3.22S365.353,169.125,366.021,168.778z
			"/>
		<path fill="#080096" d="M367.445,176.811l0.563-0.902c0.383,0.422,0.867,0.633,1.453,0.633c1.086,0,1.629-0.531,1.629-1.594
			c0-0.484-0.158-0.878-0.475-1.181s-0.736-0.454-1.26-0.454h-0.094v-0.949h0.053c0.992,0,1.488-0.438,1.488-1.313
			c0-0.914-0.467-1.371-1.4-1.371c-0.508,0-0.912,0.17-1.213,0.51l-0.521-0.797c0.363-0.473,0.971-0.709,1.822-0.709
			c0.75,0,1.361,0.2,1.834,0.601s0.709,0.913,0.709,1.538c0,0.477-0.132,0.898-0.396,1.266s-0.573,0.613-0.929,0.738
			c0.492,0.16,0.884,0.433,1.175,0.817s0.437,0.851,0.437,1.397c0,0.797-0.252,1.412-0.756,1.846s-1.211,0.65-2.121,0.65
			c-0.383,0-0.758-0.071-1.125-0.214S367.66,177.01,367.445,176.811z"/>
		<path fill="#080096" d="M375.173,175.774c0.242,0,0.449,0.086,0.621,0.258s0.258,0.379,0.258,0.621s-0.086,0.45-0.258,0.624
			s-0.379,0.261-0.621,0.261s-0.449-0.087-0.621-0.261s-0.258-0.382-0.258-0.624s0.086-0.449,0.258-0.621
			S374.931,175.774,375.173,175.774z"/>
		<path fill="#080096" d="M377.88,172.868c0-1.234,0.25-2.24,0.75-3.018s1.203-1.166,2.109-1.166c0.898,0,1.573,0.324,2.024,0.973
			s0.677,1.781,0.677,3.398c0,1.391-0.236,2.485-0.709,3.284s-1.164,1.198-2.074,1.198s-1.601-0.322-2.071-0.967
			S377.88,174.692,377.88,172.868z M379.052,172.973c0,2.379,0.508,3.568,1.523,3.568c0.582,0,1.01-0.264,1.283-0.791
			s0.41-1.451,0.41-2.771c0-0.91-0.053-1.578-0.158-2.004s-0.275-0.748-0.51-0.967s-0.531-0.328-0.891-0.328
			C379.605,169.68,379.052,170.778,379.052,172.973z"/>
		<path fill="#080096" d="M385.111,179.547l-0.299-0.422c0.672-0.551,1.008-1.02,1.008-1.406c0-0.172-0.059-0.344-0.176-0.516
			c-0.336-0.16-0.504-0.391-0.504-0.691c0-0.207,0.08-0.378,0.24-0.513s0.361-0.202,0.604-0.202c0.215,0,0.407,0.094,0.577,0.281
			s0.255,0.406,0.255,0.656c0,0.52-0.108,0.987-0.325,1.403S385.814,179.024,385.111,179.547z"/>
		<path fill="#080096" d="M392.224,177.42v-0.234l2.689-4.119c0.563-0.863,0.844-1.596,0.844-2.197c0-0.793-0.447-1.189-1.342-1.189
			c-0.316,0-0.613,0.083-0.891,0.249s-0.479,0.376-0.604,0.63l-0.756-0.621c0.133-0.383,0.394-0.688,0.782-0.914
			s0.858-0.34,1.409-0.34c0.824,0,1.469,0.19,1.934,0.571s0.697,0.919,0.697,1.614c0,0.645-0.309,1.457-0.926,2.438l-1.928,3.059
			h3.363v1.055H392.224z"/>
		<path fill="#080096" d="M400.187,175.774c0.242,0,0.449,0.086,0.621,0.258s0.258,0.379,0.258,0.621s-0.086,0.45-0.258,0.624
			s-0.379,0.261-0.621,0.261s-0.449-0.087-0.621-0.261s-0.258-0.382-0.258-0.624s0.086-0.449,0.258-0.621
			S399.945,175.774,400.187,175.774z"/>
		<path fill="#080096" d="M402.894,172.868c0-1.234,0.25-2.24,0.75-3.018s1.203-1.166,2.109-1.166c0.898,0,1.573,0.324,2.024,0.973
			s0.677,1.781,0.677,3.398c0,1.391-0.236,2.485-0.709,3.284s-1.164,1.198-2.074,1.198s-1.601-0.322-2.071-0.967
			S402.894,174.692,402.894,172.868z M404.066,172.973c0,2.379,0.508,3.568,1.523,3.568c0.582,0,1.01-0.264,1.283-0.791
			s0.41-1.451,0.41-2.771c0-0.91-0.053-1.578-0.158-2.004s-0.275-0.748-0.51-0.967s-0.531-0.328-0.891-0.328
			C404.619,169.68,404.066,170.778,404.066,172.973z"/>
		<path fill="#080096" d="M410.125,179.547l-0.299-0.422c0.672-0.551,1.008-1.02,1.008-1.406c0-0.172-0.059-0.344-0.176-0.516
			c-0.336-0.16-0.504-0.391-0.504-0.691c0-0.207,0.08-0.378,0.24-0.513s0.361-0.202,0.604-0.202c0.215,0,0.407,0.094,0.577,0.281
			s0.255,0.406,0.255,0.656c0,0.52-0.108,0.987-0.325,1.403S410.828,179.024,410.125,179.547z"/>
		<path fill="#080096" d="M417.238,177.42v-0.234l2.689-4.119c0.563-0.863,0.844-1.596,0.844-2.197c0-0.793-0.447-1.189-1.342-1.189
			c-0.316,0-0.613,0.083-0.891,0.249s-0.479,0.376-0.604,0.63l-0.756-0.621c0.133-0.383,0.394-0.688,0.782-0.914
			s0.858-0.34,1.409-0.34c0.824,0,1.469,0.19,1.934,0.571s0.697,0.919,0.697,1.614c0,0.645-0.309,1.457-0.926,2.438l-1.928,3.059
			h3.363v1.055H417.238z"/>
		<path fill="#080096" d="M425.201,175.774c0.242,0,0.449,0.086,0.621,0.258s0.258,0.379,0.258,0.621s-0.086,0.45-0.258,0.624
			s-0.379,0.261-0.621,0.261s-0.449-0.087-0.621-0.261s-0.258-0.382-0.258-0.624s0.086-0.449,0.258-0.621
			S424.958,175.774,425.201,175.774z"/>
		<path fill="#080096" d="M428.892,173.231l-0.398-0.275v-4.154h4.271v0.996h-3.158v2.086c0.289-0.215,0.656-0.322,1.102-0.322
			c0.797,0,1.405,0.238,1.825,0.715s0.63,1.154,0.63,2.033c0,2.152-0.959,3.229-2.877,3.229c-0.801,0-1.465-0.223-1.992-0.668
			l0.451-0.979c0.531,0.434,1.043,0.65,1.535,0.65c1.102,0,1.652-0.688,1.652-2.063c0-1.281-0.543-1.922-1.629-1.922
			C429.781,172.557,429.31,172.782,428.892,173.231z"/>
		<path fill="#080096" d="M434.957,179.928v-0.615c0.773-0.891,1.16-2.609,1.16-5.156c0-2.145-0.387-3.775-1.16-4.893v-0.486
			c0.668,0.348,1.25,1.063,1.746,2.147s0.744,2.157,0.744,3.22c0,1.246-0.218,2.384-0.653,3.413S435.746,179.377,434.957,179.928z"
			/>
	</g>
	<g>
		<path fill="#FF5900" d="M301.141,74.278v0.486c-0.773,1.117-1.16,2.748-1.16,4.893c0,2.547,0.387,4.266,1.16,5.156v0.615
			c-0.789-0.551-1.401-1.341-1.837-2.37s-0.653-2.167-0.653-3.413c0-1.063,0.248-2.136,0.744-3.22S300.473,74.625,301.141,74.278z"
			/>
		<path fill="#FF5900" d="M302.565,82.311l0.563-0.902c0.383,0.422,0.867,0.633,1.453,0.633c1.086,0,1.629-0.531,1.629-1.594
			c0-0.484-0.158-0.878-0.475-1.181s-0.736-0.454-1.26-0.454h-0.094v-0.949h0.053c0.992,0,1.488-0.438,1.488-1.313
			c0-0.914-0.467-1.371-1.4-1.371c-0.508,0-0.912,0.17-1.213,0.51l-0.521-0.797c0.363-0.473,0.971-0.709,1.822-0.709
			c0.75,0,1.361,0.2,1.834,0.601s0.709,0.913,0.709,1.538c0,0.477-0.132,0.898-0.396,1.266s-0.573,0.613-0.929,0.738
			c0.492,0.16,0.884,0.433,1.175,0.817s0.437,0.851,0.437,1.397c0,0.797-0.252,1.412-0.756,1.846s-1.211,0.65-2.121,0.65
			c-0.383,0-0.758-0.071-1.125-0.214S302.78,82.51,302.565,82.311z"/>
		<path fill="#FF5900" d="M310.293,81.274c0.242,0,0.449,0.086,0.621,0.258s0.258,0.379,0.258,0.621s-0.086,0.45-0.258,0.624
			s-0.379,0.261-0.621,0.261s-0.449-0.087-0.621-0.261s-0.258-0.382-0.258-0.624s0.086-0.449,0.258-0.621
			S310.051,81.274,310.293,81.274z"/>
		<path fill="#FF5900" d="M313,78.368c0-1.234,0.25-2.24,0.75-3.018s1.203-1.166,2.109-1.166c0.898,0,1.573,0.324,2.024,0.973
			s0.677,1.781,0.677,3.398c0,1.391-0.236,2.485-0.709,3.284s-1.164,1.198-2.074,1.198s-1.601-0.322-2.071-0.967
			S313,80.192,313,78.368z M314.172,78.473c0,2.379,0.508,3.568,1.523,3.568c0.582,0,1.01-0.264,1.283-0.791s0.41-1.451,0.41-2.771
			c0-0.91-0.053-1.578-0.158-2.004s-0.275-0.748-0.51-0.967s-0.531-0.328-0.891-0.328C314.725,75.18,314.172,76.278,314.172,78.473z
			"/>
		<path fill="#FF5900" d="M320.231,85.047l-0.299-0.422c0.672-0.551,1.008-1.02,1.008-1.406c0-0.172-0.059-0.344-0.176-0.516
			c-0.336-0.16-0.504-0.391-0.504-0.691c0-0.207,0.08-0.378,0.24-0.513s0.361-0.202,0.604-0.202c0.215,0,0.407,0.094,0.577,0.281
			s0.255,0.406,0.255,0.656c0,0.52-0.108,0.987-0.325,1.403S320.934,84.524,320.231,85.047z"/>
		<path fill="#FF5900" d="M327.344,82.92v-0.234l2.689-4.119c0.563-0.863,0.844-1.596,0.844-2.197c0-0.793-0.447-1.189-1.342-1.189
			c-0.316,0-0.613,0.083-0.891,0.249s-0.479,0.376-0.604,0.63l-0.756-0.621c0.133-0.383,0.394-0.688,0.782-0.914
			s0.858-0.34,1.409-0.34c0.824,0,1.469,0.19,1.934,0.571s0.697,0.919,0.697,1.614c0,0.645-0.309,1.457-0.926,2.438l-1.928,3.059
			h3.363v1.055H327.344z"/>
		<path fill="#FF5900" d="M335.307,81.274c0.242,0,0.449,0.086,0.621,0.258s0.258,0.379,0.258,0.621s-0.086,0.45-0.258,0.624
			s-0.379,0.261-0.621,0.261s-0.449-0.087-0.621-0.261s-0.258-0.382-0.258-0.624s0.086-0.449,0.258-0.621
			S335.065,81.274,335.307,81.274z"/>
		<path fill="#FF5900" d="M338.014,78.368c0-1.234,0.25-2.24,0.75-3.018s1.203-1.166,2.109-1.166c0.898,0,1.573,0.324,2.024,0.973
			s0.677,1.781,0.677,3.398c0,1.391-0.236,2.485-0.709,3.284s-1.164,1.198-2.074,1.198s-1.601-0.322-2.071-0.967
			S338.014,80.192,338.014,78.368z M339.186,78.473c0,2.379,0.508,3.568,1.523,3.568c0.582,0,1.01-0.264,1.283-0.791
			s0.41-1.451,0.41-2.771c0-0.91-0.053-1.578-0.158-2.004s-0.275-0.748-0.51-0.967s-0.531-0.328-0.891-0.328
			C339.739,75.18,339.186,76.278,339.186,78.473z"/>
		<path fill="#FF5900" d="M345.245,85.047l-0.299-0.422c0.672-0.551,1.008-1.02,1.008-1.406c0-0.172-0.059-0.344-0.176-0.516
			c-0.336-0.16-0.504-0.391-0.504-0.691c0-0.207,0.08-0.378,0.24-0.513s0.361-0.202,0.604-0.202c0.215,0,0.407,0.094,0.577,0.281
			s0.255,0.406,0.255,0.656c0,0.52-0.108,0.987-0.325,1.403S345.948,84.524,345.245,85.047z"/>
		<path fill="#FF5900" d="M352.358,82.92v-0.234l2.689-4.119c0.563-0.863,0.844-1.596,0.844-2.197c0-0.793-0.447-1.189-1.342-1.189
			c-0.316,0-0.613,0.083-0.891,0.249s-0.479,0.376-0.604,0.63l-0.756-0.621c0.133-0.383,0.394-0.688,0.782-0.914
			s0.858-0.34,1.409-0.34c0.824,0,1.469,0.19,1.934,0.571s0.697,0.919,0.697,1.614c0,0.645-0.309,1.457-0.926,2.438l-1.928,3.059
			h3.363v1.055H352.358z"/>
		<path fill="#FF5900" d="M360.321,81.274c0.242,0,0.449,0.086,0.621,0.258s0.258,0.379,0.258,0.621s-0.086,0.45-0.258,0.624
			s-0.379,0.261-0.621,0.261s-0.449-0.087-0.621-0.261s-0.258-0.382-0.258-0.624s0.086-0.449,0.258-0.621
			S360.079,81.274,360.321,81.274z"/>
		<path fill="#FF5900" d="M364.012,78.731l-0.398-0.275v-4.154h4.271v0.996h-3.158v2.086c0.289-0.215,0.656-0.322,1.102-0.322
			c0.797,0,1.405,0.238,1.825,0.715s0.63,1.154,0.63,2.033c0,2.152-0.959,3.229-2.877,3.229c-0.801,0-1.465-0.223-1.992-0.668
			l0.451-0.979c0.531,0.434,1.043,0.65,1.535,0.65c1.102,0,1.652-0.688,1.652-2.063c0-1.281-0.543-1.922-1.629-1.922
			C364.901,78.057,364.43,78.282,364.012,78.731z"/>
		<path fill="#FF5900" d="M370.077,85.428v-0.615c0.773-0.891,1.16-2.609,1.16-5.156c0-2.145-0.387-3.775-1.16-4.893v-0.486
			c0.668,0.348,1.25,1.063,1.746,2.147s0.744,2.157,0.744,3.22c0,1.246-0.218,2.384-0.653,3.413S370.866,84.877,370.077,85.428z"/>
	</g>
	<g>
		<path fill="#FF5900" d="M294.854,104.81v-0.234l2.689-4.119c0.563-0.863,0.844-1.596,0.844-2.197c0-0.793-0.447-1.189-1.342-1.189
			c-0.316,0-0.613,0.083-0.891,0.249s-0.479,0.376-0.604,0.63l-0.756-0.621c0.133-0.383,0.394-0.688,0.782-0.914
			s0.858-0.34,1.409-0.34c0.824,0,1.469,0.19,1.934,0.571s0.697,0.919,0.697,1.614c0,0.645-0.309,1.457-0.926,2.438l-1.928,3.059
			h3.363v1.055H294.854z"/>
		<path fill="#FF5900" d="M302.817,103.164c0.242,0,0.449,0.086,0.621,0.258s0.258,0.379,0.258,0.621s-0.086,0.45-0.258,0.624
			s-0.379,0.261-0.621,0.261s-0.449-0.087-0.621-0.261s-0.258-0.382-0.258-0.624s0.086-0.449,0.258-0.621
			S302.575,103.164,302.817,103.164z"/>
		<path fill="#FF5900" d="M306.508,100.621l-0.398-0.275v-4.154h4.271v0.996h-3.158v2.086c0.289-0.215,0.656-0.322,1.102-0.322
			c0.797,0,1.405,0.238,1.825,0.715s0.63,1.154,0.63,2.033c0,2.152-0.959,3.229-2.877,3.229c-0.801,0-1.465-0.223-1.992-0.668
			l0.451-0.979c0.531,0.434,1.043,0.65,1.535,0.65c1.102,0,1.652-0.688,1.652-2.063c0-1.281-0.543-1.922-1.629-1.922
			C307.397,99.947,306.926,100.171,306.508,100.621z"/>
	</g>
	<g>
		<path fill="#FF5900" d="M284.955,142.01v-0.234l2.689-4.119c0.563-0.863,0.844-1.596,0.844-2.197c0-0.793-0.447-1.189-1.342-1.189
			c-0.316,0-0.613,0.083-0.891,0.249s-0.479,0.376-0.604,0.63l-0.756-0.621c0.133-0.383,0.394-0.688,0.782-0.914
			s0.858-0.34,1.409-0.34c0.824,0,1.469,0.19,1.934,0.571s0.697,0.919,0.697,1.614c0,0.645-0.309,1.457-0.926,2.438l-1.928,3.059
			h3.363v1.055H284.955z"/>
		<path fill="#FF5900" d="M292.917,140.364c0.242,0,0.449,0.086,0.621,0.258s0.258,0.379,0.258,0.621s-0.086,0.45-0.258,0.624
			s-0.379,0.261-0.621,0.261s-0.449-0.087-0.621-0.261s-0.258-0.382-0.258-0.624s0.086-0.449,0.258-0.621
			S292.675,140.364,292.917,140.364z"/>
		<path fill="#FF5900" d="M295.625,137.458c0-1.234,0.25-2.24,0.75-3.018s1.203-1.166,2.109-1.166c0.898,0,1.573,0.324,2.024,0.973
			s0.677,1.781,0.677,3.398c0,1.391-0.236,2.485-0.709,3.284s-1.164,1.198-2.074,1.198s-1.601-0.322-2.071-0.967
			S295.625,139.282,295.625,137.458z M296.796,137.563c0,2.379,0.508,3.568,1.523,3.568c0.582,0,1.01-0.264,1.283-0.791
			s0.41-1.451,0.41-2.771c0-0.91-0.053-1.578-0.158-2.004s-0.275-0.748-0.51-0.967s-0.531-0.328-0.891-0.328
			C297.349,134.27,296.796,135.368,296.796,137.563z"/>
	</g>
	<g>
		<path fill="#FF5900" d="M233.289,145.301l0.563-0.902c0.383,0.422,0.867,0.633,1.453,0.633c1.086,0,1.629-0.531,1.629-1.594
			c0-0.484-0.158-0.878-0.475-1.181s-0.736-0.454-1.26-0.454h-0.094v-0.949h0.053c0.992,0,1.488-0.438,1.488-1.313
			c0-0.914-0.467-1.371-1.4-1.371c-0.508,0-0.912,0.17-1.213,0.51l-0.521-0.797c0.363-0.473,0.971-0.709,1.822-0.709
			c0.75,0,1.361,0.2,1.834,0.601s0.709,0.913,0.709,1.538c0,0.477-0.132,0.898-0.396,1.266s-0.573,0.613-0.929,0.738
			c0.492,0.16,0.884,0.433,1.175,0.817s0.437,0.851,0.437,1.397c0,0.797-0.252,1.412-0.756,1.846s-1.211,0.65-2.121,0.65
			c-0.383,0-0.758-0.071-1.125-0.214S233.503,145.5,233.289,145.301z"/>
		<path fill="#FF5900" d="M241.017,144.264c0.242,0,0.449,0.086,0.621,0.258s0.258,0.379,0.258,0.621s-0.086,0.45-0.258,0.624
			s-0.379,0.261-0.621,0.261s-0.449-0.087-0.621-0.261s-0.258-0.382-0.258-0.624s0.086-0.449,0.258-0.621
			S240.775,144.264,241.017,144.264z"/>
		<path fill="#FF5900" d="M243.724,141.357c0-1.234,0.25-2.24,0.75-3.018s1.203-1.166,2.109-1.166c0.898,0,1.573,0.324,2.024,0.973
			s0.677,1.781,0.677,3.398c0,1.391-0.236,2.485-0.709,3.284s-1.164,1.198-2.074,1.198s-1.601-0.322-2.071-0.967
			S243.724,143.182,243.724,141.357z M244.896,141.463c0,2.379,0.508,3.568,1.523,3.568c0.582,0,1.01-0.264,1.283-0.791
			s0.41-1.451,0.41-2.771c0-0.91-0.053-1.578-0.158-2.004s-0.275-0.748-0.51-0.967s-0.531-0.328-0.891-0.328
			C245.449,138.17,244.896,139.268,244.896,141.463z"/>
	</g>
	<g>
		<path fill="#80003B" d="M219.712,214.945v-1.025h2.508v1.025H219.712z"/>
		<path fill="#80003B" d="M223.825,217.301l0.563-0.902c0.383,0.422,0.867,0.633,1.453,0.633c1.086,0,1.629-0.531,1.629-1.594
			c0-0.484-0.158-0.878-0.475-1.181s-0.736-0.454-1.26-0.454h-0.094v-0.949h0.053c0.992,0,1.488-0.438,1.488-1.313
			c0-0.914-0.467-1.371-1.4-1.371c-0.508,0-0.912,0.17-1.213,0.51l-0.521-0.797c0.363-0.473,0.971-0.709,1.822-0.709
			c0.75,0,1.361,0.2,1.834,0.601s0.709,0.913,0.709,1.538c0,0.477-0.132,0.898-0.396,1.266s-0.573,0.613-0.929,0.738
			c0.492,0.16,0.884,0.433,1.175,0.817s0.437,0.851,0.437,1.397c0,0.797-0.252,1.412-0.756,1.846s-1.211,0.65-2.121,0.65
			c-0.383,0-0.758-0.071-1.125-0.214S224.04,217.5,223.825,217.301z"/>
		<path fill="#80003B" d="M231.554,216.264c0.242,0,0.449,0.086,0.621,0.258s0.258,0.379,0.258,0.621s-0.086,0.45-0.258,0.624
			s-0.379,0.261-0.621,0.261s-0.449-0.087-0.621-0.261s-0.258-0.382-0.258-0.624s0.086-0.449,0.258-0.621
			S231.312,216.264,231.554,216.264z"/>
		<path fill="#80003B" d="M234.261,213.357c0-1.234,0.25-2.24,0.75-3.018s1.203-1.166,2.109-1.166c0.898,0,1.573,0.324,2.024,0.973
			s0.677,1.781,0.677,3.398c0,1.391-0.236,2.485-0.709,3.284s-1.164,1.198-2.074,1.198s-1.601-0.322-2.071-0.967
			S234.261,215.182,234.261,213.357z M235.433,213.463c0,2.379,0.508,3.568,1.523,3.568c0.582,0,1.01-0.264,1.283-0.791
			s0.41-1.451,0.41-2.771c0-0.91-0.053-1.578-0.158-2.004s-0.275-0.748-0.51-0.967s-0.531-0.328-0.891-0.328
			C235.985,210.17,235.433,211.268,235.433,213.463z"/>
	</g>
	<g>
		<path fill="#80003B" d="M143.212,235.575v-1.025h2.508v1.025H143.212z"/>
		<path fill="#80003B" d="M151.854,236.202v2.338h-1.113v-2.338h-3.908v-0.668l4.611-5.613h0.41v5.379h0.867v0.902H151.854z
			 M150.741,232.259l-2.52,3.041h2.52V232.259z"/>
		<path fill="#80003B" d="M155.054,236.894c0.242,0,0.449,0.086,0.621,0.258s0.258,0.379,0.258,0.621s-0.086,0.45-0.258,0.624
			s-0.379,0.261-0.621,0.261s-0.449-0.087-0.621-0.261s-0.258-0.382-0.258-0.624s0.086-0.449,0.258-0.621
			S154.812,236.894,155.054,236.894z"/>
		<path fill="#80003B" d="M157.761,233.987c0-1.234,0.25-2.24,0.75-3.018s1.203-1.166,2.109-1.166c0.898,0,1.573,0.324,2.024,0.973
			s0.677,1.781,0.677,3.398c0,1.391-0.236,2.485-0.709,3.284s-1.164,1.198-2.074,1.198s-1.601-0.322-2.071-0.967
			S157.761,235.812,157.761,233.987z M158.933,234.093c0,2.379,0.508,3.568,1.523,3.568c0.582,0,1.01-0.264,1.283-0.791
			s0.41-1.451,0.41-2.771c0-0.91-0.053-1.578-0.158-2.004s-0.275-0.748-0.51-0.967s-0.531-0.328-0.891-0.328
			C159.485,230.8,158.933,231.897,158.933,234.093z"/>
	</g>
	<g>
		<path fill="#80003B" d="M114.712,300.825V299.8h2.508v1.025H114.712z"/>
		<path fill="#80003B" d="M118.825,303.181l0.563-0.902c0.383,0.422,0.867,0.633,1.453,0.633c1.086,0,1.629-0.531,1.629-1.594
			c0-0.484-0.158-0.878-0.475-1.181s-0.736-0.454-1.26-0.454h-0.094v-0.949h0.053c0.992,0,1.488-0.438,1.488-1.313
			c0-0.914-0.467-1.371-1.4-1.371c-0.508,0-0.912,0.17-1.213,0.51l-0.521-0.797c0.363-0.473,0.971-0.709,1.822-0.709
			c0.75,0,1.361,0.2,1.834,0.601s0.709,0.913,0.709,1.538c0,0.477-0.132,0.898-0.396,1.266s-0.573,0.613-0.929,0.738
			c0.492,0.16,0.884,0.433,1.175,0.817s0.437,0.851,0.437,1.397c0,0.797-0.252,1.412-0.756,1.846s-1.211,0.65-2.121,0.65
			c-0.383,0-0.758-0.071-1.125-0.214S119.04,303.38,118.825,303.181z"/>
		<path fill="#80003B" d="M126.554,302.144c0.242,0,0.449,0.086,0.621,0.258s0.258,0.379,0.258,0.621s-0.086,0.45-0.258,0.624
			s-0.379,0.261-0.621,0.261s-0.449-0.087-0.621-0.261s-0.258-0.382-0.258-0.624s0.086-0.449,0.258-0.621
			S126.312,302.144,126.554,302.144z"/>
		<path fill="#80003B" d="M130.245,299.601l-0.398-0.275v-4.154h4.271v0.996h-3.158v2.086c0.289-0.215,0.656-0.322,1.102-0.322
			c0.797,0,1.405,0.238,1.825,0.715s0.63,1.154,0.63,2.033c0,2.152-0.959,3.229-2.877,3.229c-0.801,0-1.465-0.223-1.992-0.668
			l0.451-0.979c0.531,0.434,1.043,0.65,1.535,0.65c1.102,0,1.652-0.688,1.652-2.063c0-1.281-0.543-1.922-1.629-1.922
			C131.134,298.927,130.663,299.151,130.245,299.601z"/>
	</g>
	<g>
		<path fill="#80003B" d="M49.521,334.527v0.486c-0.773,1.117-1.16,2.748-1.16,4.893c0,2.547,0.387,4.266,1.16,5.156v0.615
			c-0.789-0.551-1.401-1.341-1.837-2.37s-0.653-2.167-0.653-3.413c0-1.063,0.248-2.136,0.744-3.22S48.853,334.875,49.521,334.527z"
			/>
		<path fill="#80003B" d="M51.238,340.205v-1.025h2.508v1.025H51.238z"/>
		<path fill="#80003B" d="M55.351,342.561l0.563-0.902c0.383,0.422,0.867,0.633,1.453,0.633c1.086,0,1.629-0.531,1.629-1.594
			c0-0.484-0.158-0.878-0.475-1.181s-0.736-0.454-1.26-0.454h-0.094v-0.949h0.053c0.992,0,1.488-0.438,1.488-1.313
			c0-0.914-0.467-1.371-1.4-1.371c-0.508,0-0.912,0.17-1.213,0.51l-0.521-0.797c0.363-0.473,0.971-0.709,1.822-0.709
			c0.75,0,1.361,0.2,1.834,0.601s0.709,0.913,0.709,1.538c0,0.477-0.132,0.898-0.396,1.266s-0.573,0.613-0.929,0.738
			c0.492,0.16,0.884,0.433,1.175,0.817s0.437,0.851,0.437,1.397c0,0.797-0.252,1.412-0.756,1.846s-1.211,0.65-2.121,0.65
			c-0.383,0-0.758-0.071-1.125-0.214S55.566,342.76,55.351,342.561z"/>
		<path fill="#80003B" d="M63.08,341.523c0.242,0,0.449,0.086,0.621,0.258s0.258,0.379,0.258,0.621s-0.086,0.45-0.258,0.624
			s-0.379,0.261-0.621,0.261s-0.449-0.087-0.621-0.261s-0.258-0.382-0.258-0.624s0.086-0.449,0.258-0.621
			S62.837,341.523,63.08,341.523z"/>
		<path fill="#80003B" d="M65.787,338.617c0-1.234,0.25-2.24,0.75-3.018s1.203-1.166,2.109-1.166c0.898,0,1.573,0.324,2.024,0.973
			s0.677,1.781,0.677,3.398c0,1.391-0.236,2.485-0.709,3.284s-1.164,1.198-2.074,1.198s-1.601-0.322-2.071-0.967
			S65.787,340.441,65.787,338.617z M66.958,338.723c0,2.379,0.508,3.568,1.523,3.568c0.582,0,1.01-0.264,1.283-0.791
			s0.41-1.451,0.41-2.771c0-0.91-0.053-1.578-0.158-2.004s-0.275-0.748-0.51-0.967s-0.531-0.328-0.891-0.328
			C67.511,335.43,66.958,336.527,66.958,338.723z"/>
		<path fill="#80003B" d="M73.017,345.297l-0.299-0.422c0.672-0.551,1.008-1.02,1.008-1.406c0-0.172-0.059-0.344-0.176-0.516
			c-0.336-0.16-0.504-0.391-0.504-0.691c0-0.207,0.08-0.378,0.24-0.513s0.361-0.202,0.604-0.202c0.215,0,0.407,0.094,0.577,0.281
			s0.255,0.406,0.255,0.656c0,0.52-0.108,0.987-0.325,1.403S73.72,344.773,73.017,345.297z"/>
		<path fill="#80003B" d="M80.658,340.205v-1.025h2.508v1.025H80.658z"/>
		<path fill="#80003B" d="M89.3,340.832v2.338h-1.113v-2.338h-3.908v-0.668l4.611-5.613h0.41v5.379h0.867v0.902H89.3z
			 M88.187,336.889l-2.52,3.041h2.52V336.889z"/>
		<path fill="#80003B" d="M92.5,341.523c0.242,0,0.449,0.086,0.621,0.258s0.258,0.379,0.258,0.621s-0.086,0.45-0.258,0.624
			s-0.379,0.261-0.621,0.261s-0.449-0.087-0.621-0.261s-0.258-0.382-0.258-0.624s0.086-0.449,0.258-0.621
			S92.257,341.523,92.5,341.523z"/>
		<path fill="#80003B" d="M95.207,338.617c0-1.234,0.25-2.24,0.75-3.018s1.203-1.166,2.109-1.166c0.898,0,1.573,0.324,2.024,0.973
			s0.677,1.781,0.677,3.398c0,1.391-0.236,2.485-0.709,3.284s-1.164,1.198-2.074,1.198s-1.601-0.322-2.071-0.967
			S95.207,340.441,95.207,338.617z M96.378,338.723c0,2.379,0.508,3.568,1.523,3.568c0.582,0,1.01-0.264,1.283-0.791
			s0.41-1.451,0.41-2.771c0-0.91-0.053-1.578-0.158-2.004s-0.275-0.748-0.51-0.967s-0.531-0.328-0.891-0.328
			C96.931,335.43,96.378,336.527,96.378,338.723z"/>
		<path fill="#80003B" d="M102.437,345.297l-0.299-0.422c0.672-0.551,1.008-1.02,1.008-1.406c0-0.172-0.059-0.344-0.176-0.516
			c-0.336-0.16-0.504-0.391-0.504-0.691c0-0.207,0.08-0.378,0.24-0.513s0.361-0.202,0.604-0.202c0.215,0,0.407,0.094,0.577,0.281
			s0.255,0.406,0.255,0.656c0,0.52-0.108,0.987-0.325,1.403S103.14,344.773,102.437,345.297z"/>
		<path fill="#80003B" d="M106.462,340.205v-1.025h2.508v1.025H106.462z"/>
		<path fill="#80003B" d="M110.576,342.561l0.563-0.902c0.383,0.422,0.867,0.633,1.453,0.633c1.086,0,1.629-0.531,1.629-1.594
			c0-0.484-0.158-0.878-0.475-1.181s-0.736-0.454-1.26-0.454h-0.094v-0.949h0.053c0.992,0,1.488-0.438,1.488-1.313
			c0-0.914-0.467-1.371-1.4-1.371c-0.508,0-0.912,0.17-1.213,0.51l-0.521-0.797c0.363-0.473,0.971-0.709,1.822-0.709
			c0.75,0,1.361,0.2,1.834,0.601s0.709,0.913,0.709,1.538c0,0.477-0.132,0.898-0.396,1.266s-0.573,0.613-0.929,0.738
			c0.492,0.16,0.884,0.433,1.175,0.817s0.437,0.851,0.437,1.397c0,0.797-0.252,1.412-0.756,1.846s-1.211,0.65-2.121,0.65
			c-0.383,0-0.758-0.071-1.125-0.214S110.791,342.76,110.576,342.561z"/>
		<path fill="#80003B" d="M118.304,341.523c0.242,0,0.449,0.086,0.621,0.258s0.258,0.379,0.258,0.621s-0.086,0.45-0.258,0.624
			s-0.379,0.261-0.621,0.261s-0.449-0.087-0.621-0.261s-0.258-0.382-0.258-0.624s0.086-0.449,0.258-0.621
			S118.062,341.523,118.304,341.523z"/>
		<path fill="#80003B" d="M121.996,338.98l-0.398-0.275v-4.154h4.271v0.996h-3.158v2.086c0.289-0.215,0.656-0.322,1.102-0.322
			c0.797,0,1.405,0.238,1.825,0.715s0.63,1.154,0.63,2.033c0,2.152-0.959,3.229-2.877,3.229c-0.801,0-1.465-0.223-1.992-0.668
			l0.451-0.979c0.531,0.434,1.043,0.65,1.535,0.65c1.102,0,1.652-0.688,1.652-2.063c0-1.281-0.543-1.922-1.629-1.922
			C122.884,338.307,122.414,338.531,121.996,338.98z"/>
		<path fill="#80003B" d="M128.06,345.678v-0.615c0.773-0.891,1.16-2.609,1.16-5.156c0-2.145-0.387-3.775-1.16-4.893v-0.486
			c0.668,0.348,1.25,1.063,1.746,2.147s0.744,2.157,0.744,3.22c0,1.246-0.218,2.384-0.653,3.413S128.849,345.127,128.06,345.678z"/>
	</g>
	<g>
		<path d="M207.221,118.534h-0.727l0.188-0.879h0.727l0.258-1.313l1.271-0.48l-0.416,1.793h1.723l-0.188,0.879h-1.723l-0.656,3.117
			c-0.051,0.242-0.076,0.43-0.076,0.563c0,0.598,0.297,0.896,0.891,0.896c0.289,0,0.6-0.072,0.932-0.217l-0.041,0.979
			c-0.32,0.117-0.838,0.176-1.553,0.176c-0.445,0-0.792-0.138-1.04-0.413s-0.372-0.653-0.372-1.134c0-0.109,0.018-0.244,0.053-0.404
			L207.221,118.534z"/>
	</g>
</g>
<g id="Viewport_x5F_FG">
	<rect x="1" y="1" fill-rule="evenodd" clip-rule="evenodd" fill="#0000B0" width="145.5" height="23"/>
	<g>
		<path fill="#FFFFFF" d="M8.848,6.927c0.792-0.144,1.945-0.252,3.007-0.252c1.674,0,2.772,0.324,3.511,0.99
			c0.594,0.54,0.955,1.368,0.955,2.323c0,1.584-1.008,2.647-2.269,3.079v0.054c0.918,0.324,1.477,1.188,1.765,2.449
			c0.396,1.692,0.684,2.863,0.937,3.331h-1.621c-0.198-0.36-0.468-1.386-0.792-2.899c-0.36-1.674-1.026-2.305-2.449-2.359h-1.476
			V18.9H8.848V6.927z M10.415,12.455h1.602c1.675,0,2.737-0.918,2.737-2.305c0-1.566-1.135-2.251-2.791-2.251
			c-0.756,0-1.278,0.054-1.548,0.126V12.455z"/>
		<path fill="#FFFFFF" d="M18.64,6.117h1.584v5.456h0.036c0.252-0.45,0.648-0.864,1.134-1.134c0.468-0.27,1.026-0.432,1.62-0.432
			c1.17,0,3.043,0.72,3.043,3.709V18.9h-1.584v-5.005c0-1.405-0.522-2.575-2.017-2.575c-1.026,0-1.818,0.72-2.125,1.566
			c-0.09,0.234-0.108,0.468-0.108,0.756V18.9H18.64V6.117z"/>
		<path fill="#FFFFFF" d="M30.395,7.737c0,0.54-0.378,0.972-1.008,0.972c-0.576,0-0.955-0.432-0.955-0.972
			c0-0.541,0.396-0.991,0.991-0.991C29.999,6.747,30.395,7.179,30.395,7.737z M28.63,18.9v-8.715h1.584V18.9H28.63z"/>
		<path fill="#FFFFFF" d="M32.842,12.544c0-0.918-0.018-1.638-0.072-2.359h1.404l0.09,1.44H34.3c0.432-0.81,1.44-1.62,2.881-1.62
			c1.206,0,3.079,0.72,3.079,3.709V18.9h-1.585v-5.023c0-1.404-0.522-2.575-2.017-2.575c-1.026,0-1.836,0.738-2.125,1.621
			c-0.072,0.198-0.108,0.468-0.108,0.738v5.24h-1.584V12.544z"/>
		<path fill="#FFFFFF" d="M50.718,14.471c0,3.223-2.251,4.627-4.339,4.627c-2.341,0-4.177-1.729-4.177-4.483
			c0-2.899,1.926-4.609,4.321-4.609C49.025,10.006,50.718,11.824,50.718,14.471z M43.822,14.561c0,1.909,1.081,3.349,2.629,3.349
			c1.513,0,2.647-1.422,2.647-3.385c0-1.476-0.738-3.331-2.611-3.331C44.632,11.194,43.822,12.923,43.822,14.561z"/>
		<path fill="#FFFFFF" d="M58.6,18.9L54.621,6.765h1.71l1.891,5.978c0.504,1.638,0.954,3.115,1.296,4.537h0.036
			c0.342-1.404,0.828-2.935,1.386-4.519l2.053-5.996h1.674L60.329,18.9H58.6z"/>
		<path fill="#FFFFFF" d="M67.402,7.737c0,0.54-0.378,0.972-1.008,0.972c-0.576,0-0.955-0.432-0.955-0.972
			c0-0.541,0.396-0.991,0.99-0.991C67.006,6.747,67.402,7.179,67.402,7.737z M65.638,18.9v-8.715h1.584V18.9H65.638z"/>
		<path fill="#FFFFFF" d="M70.732,14.831c0.036,2.143,1.386,3.025,2.989,3.025c1.134,0,1.836-0.198,2.413-0.45l0.288,1.134
			c-0.558,0.252-1.53,0.559-2.917,0.559c-2.683,0-4.285-1.783-4.285-4.412c0-2.628,1.548-4.681,4.087-4.681
			c2.863,0,3.601,2.484,3.601,4.087c0,0.324-0.018,0.559-0.054,0.738H70.732z M75.377,13.697c0.018-0.99-0.414-2.557-2.196-2.557
			c-1.621,0-2.305,1.458-2.431,2.557H75.377z"/>
		<path fill="#FFFFFF" d="M79.498,10.186l1.17,4.43c0.234,0.972,0.468,1.873,0.63,2.772h0.054c0.198-0.882,0.486-1.818,0.774-2.754
			l1.422-4.448h1.333l1.35,4.357c0.324,1.044,0.576,1.963,0.774,2.845h0.054c0.144-0.882,0.378-1.8,0.666-2.827l1.242-4.375h1.566
			L87.726,18.9h-1.44l-1.333-4.159c-0.306-0.972-0.558-1.836-0.774-2.863h-0.036c-0.216,1.044-0.486,1.944-0.792,2.881L81.946,18.9
			h-1.44l-2.629-8.715H79.498z"/>
		<path fill="#FFFFFF" d="M92.115,13.031c0-1.117-0.036-2.017-0.072-2.845h1.404l0.09,1.495h0.036
			c0.63-1.062,1.674-1.674,3.097-1.674c2.125,0,3.709,1.782,3.709,4.411c0,3.133-1.927,4.682-3.979,4.682
			c-1.152,0-2.161-0.504-2.683-1.369h-0.036v4.735h-1.566V13.031z M93.682,15.354c0,0.234,0.018,0.45,0.072,0.648
			c0.288,1.098,1.242,1.854,2.376,1.854c1.675,0,2.647-1.368,2.647-3.367c0-1.729-0.918-3.223-2.593-3.223
			c-1.081,0-2.107,0.756-2.395,1.945c-0.054,0.198-0.108,0.432-0.108,0.63V15.354z"/>
		<path fill="#FFFFFF" d="M110.243,14.471c0,3.223-2.25,4.627-4.339,4.627c-2.34,0-4.177-1.729-4.177-4.483
			c0-2.899,1.927-4.609,4.321-4.609C108.551,10.006,110.243,11.824,110.243,14.471z M103.347,14.561
			c0,1.909,1.081,3.349,2.629,3.349c1.512,0,2.647-1.422,2.647-3.385c0-1.476-0.738-3.331-2.611-3.331
			C104.158,11.194,103.347,12.923,103.347,14.561z"/>
		<path fill="#FFFFFF" d="M112.239,12.905c0-1.026-0.018-1.909-0.072-2.719h1.386l0.072,1.729h0.054
			c0.396-1.17,1.369-1.908,2.431-1.908c0.162,0,0.288,0.018,0.432,0.036v1.494c-0.162-0.036-0.324-0.036-0.54-0.036
			c-1.116,0-1.909,0.829-2.125,2.017c-0.036,0.216-0.054,0.486-0.054,0.738V18.9h-1.584V12.905z"/>
		<path fill="#FFFFFF" d="M120.465,8.097v2.088h2.269v1.207h-2.269v4.7c0,1.08,0.306,1.692,1.188,1.692
			c0.432,0,0.685-0.036,0.918-0.108l0.072,1.207c-0.306,0.108-0.792,0.216-1.405,0.216c-0.738,0-1.333-0.252-1.71-0.667
			c-0.432-0.486-0.612-1.26-0.612-2.287v-4.753h-1.35v-1.207h1.35v-1.62L120.465,8.097z"/>
	</g>
	
		<rect x="1" y="1" fill-rule="evenodd" clip-rule="evenodd" fill="none" stroke="#000000" stroke-width="2" stroke-linecap="round" width="519.28" height="415.41"/>
</g>
</svg>
