<?xml version="1.0" encoding="utf-8"?>
<!-- Generator: Adobe Illustrator 14.0.0, SVG Export Plug-In . SVG Version: 6.00 Build 43363)  -->
<!DOCTYPE svg PUBLIC "-//W3C//DTD SVG 1.0//EN" "http://www.w3.org/TR/2001/REC-SVG-20010904/DTD/svg10.dtd">
<svg version="1.0" id="Layer_1" xmlns="http://www.w3.org/2000/svg" xmlns:xlink="http://www.w3.org/1999/xlink" x="0px" y="0px"
	 width="2.579px" height="4.278px" viewBox="0 0 2.579 4.278" enable-background="new 0 0 2.579 4.278" xml:space="preserve">
<g>
	<defs>
		<rect id="SVGID_1_" x="10.226" y="-109.244" width="284.932" height="227.044"/>
	</defs>
	<clipPath id="SVGID_2_">
		<use xlink:href="#SVGID_1_"  overflow="visible"/>
	</clipPath>
	<path clip-path="url(#SVGID_2_)" fill="#D0D2D3" d="M20.394-107.494c0,0-8,0-8,8V108.05c0,0,0,8,8,8h259.615c0,0,8,0,8-8V-99.494
		c0,0,0-8-8-8H20.394z"/>
	<path clip-path="url(#SVGID_2_)" fill="#FFFFFF" d="M168.751,91.292h119.426v14.128H168.751V91.292z M105.31,91.292h63.441v14.128
		H105.31V91.292z M12.226,91.292h93.084v14.128H12.226V91.292z M168.751,77.165h119.426v14.128H168.751V77.165z M105.31,77.165
		h63.441v14.128H105.31V77.165z M12.226,77.165h93.084v14.128H12.226V77.165z M168.751,63.037h119.426v14.128H168.751V63.037z
		 M105.31,63.037h63.441v14.128H105.31V63.037z M12.226,63.037h93.084v14.128H12.226V63.037z M168.751,48.909h119.426v14.128
		H168.751V48.909z M105.31,48.909h63.441v14.128H105.31V48.909z M12.226,48.909h93.084v14.128H12.226V48.909z M168.751,34.781
		h119.426v14.128H168.751V34.781z M105.31,34.781h63.441v14.128H105.31V34.781z M12.226,34.781h93.084v14.128H12.226V34.781z
		 M168.751,20.652h119.426v14.129H168.751V20.652z M105.31,20.652h63.441v14.129H105.31V20.652z M12.226,20.652h93.084v14.129
		H12.226V20.652z M168.751,6.524h119.426v14.128H168.751V6.524z M105.31,6.524h63.441v14.128H105.31V6.524z M12.226,6.524h93.084
		v14.128H12.226V6.524z M168.751-7.604h119.426V6.524H168.751V-7.604z M105.31-7.604h63.441V6.524H105.31V-7.604z M12.226-7.604
		h93.084V6.524H12.226V-7.604z M168.751-21.732h119.426v14.128H168.751V-21.732z M105.31-21.732h63.441v14.128H105.31V-21.732z
		 M12.226-21.732h93.084v14.128H12.226V-21.732z M168.751-35.86h119.426v14.128H168.751V-35.86z M105.31-35.86h63.441v14.128H105.31
		V-35.86z M12.226-35.86h93.084v14.128H12.226V-35.86z M168.751-49.988h119.426v14.128H168.751V-49.988z M105.31-49.988h63.441
		v14.128H105.31V-49.988z M12.226-49.988h93.084v14.128H12.226V-49.988z M168.751-64.115h119.426v14.128H168.751V-64.115z
		 M105.31-64.115h63.441v14.128H105.31V-64.115z M12.226-64.115h93.084v14.128H12.226V-64.115z M168.751-78.243h119.426v14.128
		H168.751V-78.243z M105.31-78.243h63.441v14.128H105.31V-78.243z M12.226-78.243h93.084v14.128H12.226V-78.243z M168.751-92.371
		h119.426v14.128H168.751V-92.371z M105.31-92.371h63.441v14.128H105.31V-92.371z M12.226-92.371h93.084v14.128H12.226V-92.371z"/>
	
		<line clip-path="url(#SVGID_2_)" fill="none" stroke="#231F20" stroke-miterlimit="10" x1="12.226" y1="-92.371" x2="105.31" y2="-92.371"/>
	
		<line clip-path="url(#SVGID_2_)" fill="none" stroke="#231F20" stroke-miterlimit="10" x1="105.31" y1="-92.371" x2="168.751" y2="-92.371"/>
	
		<line clip-path="url(#SVGID_2_)" fill="none" stroke="#231F20" stroke-miterlimit="10" x1="168.752" y1="-92.371" x2="288.177" y2="-92.371"/>
	
		<line clip-path="url(#SVGID_2_)" fill="none" stroke="#231F20" stroke-width="0.25" stroke-miterlimit="10" x1="12.226" y1="-78.243" x2="105.31" y2="-78.243"/>
	
		<line clip-path="url(#SVGID_2_)" fill="none" stroke="#231F20" stroke-width="0.25" stroke-miterlimit="10" x1="105.31" y1="-78.243" x2="168.751" y2="-78.243"/>
	
		<line clip-path="url(#SVGID_2_)" fill="none" stroke="#231F20" stroke-width="0.25" stroke-miterlimit="10" x1="168.752" y1="-78.243" x2="288.177" y2="-78.243"/>
	
		<line clip-path="url(#SVGID_2_)" fill="none" stroke="#231F20" stroke-width="0.25" stroke-miterlimit="10" x1="12.226" y1="-64.115" x2="105.31" y2="-64.115"/>
	
		<line clip-path="url(#SVGID_2_)" fill="none" stroke="#231F20" stroke-width="0.25" stroke-miterlimit="10" x1="105.31" y1="-64.115" x2="168.751" y2="-64.115"/>
	
		<line clip-path="url(#SVGID_2_)" fill="none" stroke="#231F20" stroke-width="0.25" stroke-miterlimit="10" x1="168.752" y1="-64.115" x2="288.177" y2="-64.115"/>
	
		<line clip-path="url(#SVGID_2_)" fill="none" stroke="#231F20" stroke-width="0.25" stroke-miterlimit="10" x1="12.226" y1="-49.987" x2="105.31" y2="-49.987"/>
	
		<line clip-path="url(#SVGID_2_)" fill="none" stroke="#231F20" stroke-width="0.25" stroke-miterlimit="10" x1="105.31" y1="-49.987" x2="168.751" y2="-49.987"/>
	
		<line clip-path="url(#SVGID_2_)" fill="none" stroke="#231F20" stroke-width="0.25" stroke-miterlimit="10" x1="168.752" y1="-49.987" x2="288.177" y2="-49.987"/>
	
		<line clip-path="url(#SVGID_2_)" fill="none" stroke="#231F20" stroke-width="0.25" stroke-miterlimit="10" x1="12.226" y1="-35.859" x2="105.31" y2="-35.859"/>
	
		<line clip-path="url(#SVGID_2_)" fill="none" stroke="#231F20" stroke-width="0.25" stroke-miterlimit="10" x1="105.31" y1="-35.859" x2="168.751" y2="-35.859"/>
	
		<line clip-path="url(#SVGID_2_)" fill="none" stroke="#231F20" stroke-width="0.25" stroke-miterlimit="10" x1="168.752" y1="-35.859" x2="288.177" y2="-35.859"/>
	
		<line clip-path="url(#SVGID_2_)" fill="none" stroke="#231F20" stroke-width="0.25" stroke-miterlimit="10" x1="12.226" y1="-21.731" x2="105.31" y2="-21.731"/>
	
		<line clip-path="url(#SVGID_2_)" fill="none" stroke="#231F20" stroke-width="0.25" stroke-miterlimit="10" x1="105.31" y1="-21.731" x2="168.751" y2="-21.731"/>
	
		<line clip-path="url(#SVGID_2_)" fill="none" stroke="#231F20" stroke-width="0.25" stroke-miterlimit="10" x1="168.752" y1="-21.731" x2="288.177" y2="-21.731"/>
	
		<line clip-path="url(#SVGID_2_)" fill="none" stroke="#231F20" stroke-width="0.25" stroke-miterlimit="10" x1="12.226" y1="-7.603" x2="105.31" y2="-7.603"/>
	
		<line clip-path="url(#SVGID_2_)" fill="none" stroke="#231F20" stroke-width="0.25" stroke-miterlimit="10" x1="105.31" y1="-7.603" x2="168.751" y2="-7.603"/>
	
		<line clip-path="url(#SVGID_2_)" fill="none" stroke="#231F20" stroke-width="0.25" stroke-miterlimit="10" x1="168.752" y1="-7.603" x2="288.177" y2="-7.603"/>
	
		<line clip-path="url(#SVGID_2_)" fill="none" stroke="#231F20" stroke-width="0.25" stroke-miterlimit="10" x1="12.226" y1="6.525" x2="105.31" y2="6.525"/>
	
		<line clip-path="url(#SVGID_2_)" fill="none" stroke="#231F20" stroke-width="0.25" stroke-miterlimit="10" x1="105.31" y1="6.525" x2="168.751" y2="6.525"/>
	
		<line clip-path="url(#SVGID_2_)" fill="none" stroke="#231F20" stroke-width="0.25" stroke-miterlimit="10" x1="168.752" y1="6.525" x2="288.177" y2="6.525"/>
	
		<line clip-path="url(#SVGID_2_)" fill="none" stroke="#231F20" stroke-width="0.25" stroke-miterlimit="10" x1="12.226" y1="20.653" x2="105.31" y2="20.653"/>
	
		<line clip-path="url(#SVGID_2_)" fill="none" stroke="#231F20" stroke-width="0.25" stroke-miterlimit="10" x1="105.31" y1="20.653" x2="168.751" y2="20.653"/>
	
		<line clip-path="url(#SVGID_2_)" fill="none" stroke="#231F20" stroke-width="0.25" stroke-miterlimit="10" x1="168.752" y1="20.653" x2="288.177" y2="20.653"/>
	
		<line clip-path="url(#SVGID_2_)" fill="none" stroke="#231F20" stroke-width="0.25" stroke-miterlimit="10" x1="12.226" y1="34.781" x2="105.31" y2="34.781"/>
	
		<line clip-path="url(#SVGID_2_)" fill="none" stroke="#231F20" stroke-width="0.25" stroke-miterlimit="10" x1="105.31" y1="34.781" x2="168.751" y2="34.781"/>
	
		<line clip-path="url(#SVGID_2_)" fill="none" stroke="#231F20" stroke-width="0.25" stroke-miterlimit="10" x1="168.752" y1="34.781" x2="288.177" y2="34.781"/>
	
		<line clip-path="url(#SVGID_2_)" fill="none" stroke="#231F20" stroke-width="0.25" stroke-miterlimit="10" x1="12.226" y1="48.909" x2="105.31" y2="48.909"/>
	
		<line clip-path="url(#SVGID_2_)" fill="none" stroke="#231F20" stroke-width="0.25" stroke-miterlimit="10" x1="105.31" y1="48.909" x2="168.751" y2="48.909"/>
	
		<line clip-path="url(#SVGID_2_)" fill="none" stroke="#231F20" stroke-width="0.25" stroke-miterlimit="10" x1="168.752" y1="48.909" x2="288.177" y2="48.909"/>
	
		<line clip-path="url(#SVGID_2_)" fill="none" stroke="#231F20" stroke-width="0.25" stroke-miterlimit="10" x1="12.226" y1="63.037" x2="105.31" y2="63.037"/>
	
		<line clip-path="url(#SVGID_2_)" fill="none" stroke="#231F20" stroke-width="0.25" stroke-miterlimit="10" x1="105.31" y1="63.037" x2="168.751" y2="63.037"/>
	
		<line clip-path="url(#SVGID_2_)" fill="none" stroke="#231F20" stroke-width="0.25" stroke-miterlimit="10" x1="168.752" y1="63.037" x2="288.177" y2="63.037"/>
	
		<line clip-path="url(#SVGID_2_)" fill="none" stroke="#231F20" stroke-width="0.25" stroke-miterlimit="10" x1="12.226" y1="77.165" x2="105.31" y2="77.165"/>
	
		<line clip-path="url(#SVGID_2_)" fill="none" stroke="#231F20" stroke-width="0.25" stroke-miterlimit="10" x1="105.31" y1="77.165" x2="168.751" y2="77.165"/>
	
		<line clip-path="url(#SVGID_2_)" fill="none" stroke="#231F20" stroke-width="0.25" stroke-miterlimit="10" x1="168.752" y1="77.165" x2="288.177" y2="77.165"/>
	
		<line clip-path="url(#SVGID_2_)" fill="none" stroke="#231F20" stroke-width="0.25" stroke-miterlimit="10" x1="12.226" y1="91.292" x2="105.31" y2="91.292"/>
	
		<line clip-path="url(#SVGID_2_)" fill="none" stroke="#231F20" stroke-width="0.25" stroke-miterlimit="10" x1="105.31" y1="91.292" x2="168.751" y2="91.292"/>
	
		<line clip-path="url(#SVGID_2_)" fill="none" stroke="#231F20" stroke-width="0.25" stroke-miterlimit="10" x1="168.752" y1="91.292" x2="288.177" y2="91.292"/>
	
		<line clip-path="url(#SVGID_2_)" fill="none" stroke="#231F20" stroke-miterlimit="10" x1="12.226" y1="105.42" x2="105.31" y2="105.42"/>
	
		<line clip-path="url(#SVGID_2_)" fill="none" stroke="#231F20" stroke-miterlimit="10" x1="105.31" y1="105.42" x2="168.751" y2="105.42"/>
	
		<line clip-path="url(#SVGID_2_)" fill="none" stroke="#231F20" stroke-miterlimit="10" x1="168.752" y1="105.42" x2="288.177" y2="105.42"/>
</g>
<text transform="matrix(1 0 0 1 20.2256 -96.3706)"><tspan x="0" y="0" fill="#231F20" font-family="'TrebuchetMS-Italic'" font-size="10">V</tspan><tspan x="5.204" y="0" fill="#231F20" font-family="'TrebuchetMS-Italic'" font-size="10">ariable type</tspan></text>
<path fill="#231F20" d="M112.05-99.007c-0.342,0-0.667-0.039-0.977-0.117l-0.488,2.754h-1.016l1.304-7.153
	c0.605-0.065,1.084-0.098,1.436-0.098c1.797,0,2.695,0.693,2.695,2.08c0,0.797-0.277,1.419-0.83,1.865
	C113.62-99.231,112.912-99.007,112.05-99.007L112.05-99.007z M112.548-102.757c-0.267,0-0.552,0.037-0.854,0.112l-0.464,2.642
	c0.179,0.088,0.442,0.132,0.791,0.132c0.579,0,1.048-0.137,1.406-0.408c0.358-0.271,0.537-0.66,0.537-1.164
	C113.964-102.32,113.492-102.757,112.548-102.757L112.548-102.757z M118.813-100.682c-0.195-0.156-0.423-0.234-0.684-0.234
	c-0.329,0-0.643,0.151-0.942,0.456c-0.299,0.305-0.486,0.668-0.562,1.092l-0.532,2.998h-0.928l0.923-5.229h0.928l-0.146,0.835
	c0.449-0.622,1.008-0.933,1.675-0.933c0.114,0,0.292,0.022,0.532,0.068L118.813-100.682z M121.611-98.578
	c-0.469,0-0.864-0.088-1.187-0.264c-0.029,0.156-0.044,0.306-0.044,0.449c0,0.43,0.12,0.76,0.361,0.991
	c0.241,0.23,0.578,0.347,1.011,0.347c0.384,0,0.771-0.142,1.162-0.425l-0.098,0.947c-0.521,0.172-0.981,0.259-1.382,0.259
	c-1.348,0-2.021-0.756-2.021-2.266c0-0.889,0.283-1.638,0.85-2.246c0.566-0.609,1.279-0.913,2.139-0.913
	c0.518,0,0.931,0.11,1.24,0.332c0.309,0.221,0.464,0.537,0.464,0.947c0,0.569-0.241,1.019-0.723,1.348
	C122.901-98.743,122.311-98.578,121.611-98.578L121.611-98.578z M122.358-100.917c-0.843,0-1.434,0.467-1.772,1.401
	c0.247,0.11,0.539,0.166,0.874,0.166c0.508,0,0.923-0.083,1.245-0.247s0.483-0.404,0.483-0.72
	C123.188-100.716,122.911-100.917,122.358-100.917L122.358-100.917z M128.353-96.371l0.796-4.59h-2.28l-0.825,4.932
	c-0.078,0.462-0.29,0.837-0.635,1.125c-0.345,0.288-0.764,0.463-1.255,0.525l-0.083-0.571c0.195-0.039,0.396-0.171,0.601-0.396
	s0.329-0.453,0.371-0.684l0.864-4.932h-0.737l0.107-0.64h0.718c0.286-1.43,1.004-2.144,2.153-2.144c0.273,0,0.504,0.049,0.693,0.146
	l-0.176,0.723c-0.248-0.092-0.439-0.137-0.576-0.137c-0.586,0-0.962,0.47-1.128,1.411h3.232l-0.898,5.229H128.353z M129.852-103.651
	c0.179,0,0.332,0.063,0.459,0.188s0.19,0.279,0.19,0.462c0,0.179-0.063,0.331-0.19,0.456s-0.28,0.188-0.459,0.188
	c-0.179,0-0.332-0.063-0.459-0.188s-0.19-0.277-0.19-0.456c0-0.183,0.063-0.337,0.19-0.462S129.673-103.651,129.852-103.651z
	 M134.059-96.371l-0.918-1.836l-1.44,1.836h-1.133l2.153-2.72l-1.318-2.51h1.094l0.864,1.816l1.328-1.816h1.221l-2.085,2.588
	l1.44,2.642H134.059z"/>
<text transform="matrix(1 0 0 1 172.7456 -96.3706)" fill="#231F20" font-family="'TrebuchetMS-Italic'" font-size="10">Example</text>
<text transform="matrix(1 0 0 1.1111 16.2256 -82.2427)" fill="#231F20" font-family="'CourierNewPS-ItalicMT'" font-size="9">Boolean</text>
<text transform="matrix(1 0 0 1.1111 109.3125 -82.2427)" fill="#231F20" font-family="'CourierNewPS-ItalicMT'" font-size="9">bln</text>
<text transform="matrix(1 0 0 1.1111 172.7534 -82.2427)" fill="#231F20" font-family="'CourierNewPS-ItalicMT'" font-size="9">blnSuccess</text>
<text transform="matrix(1 0 0 1.1111 16.2256 -68.1128)" fill="#231F20" font-family="'CourierNewPS-ItalicMT'" font-size="9">Byte</text>
<text transform="matrix(1 0 0 1.1111 109.3125 -68.1128)" fill="#231F20" font-family="'CourierNewPS-ItalicMT'" font-size="9">byt</text>
<text transform="matrix(1 0 0 1.1111 172.7534 -68.1128)" fill="#231F20" font-family="'CourierNewPS-ItalicMT'" font-size="9">bytNumber</text>
<text transform="matrix(1 0 0 1.1111 16.2256 -53.9829)" fill="#231F20" font-family="'CourierNewPS-ItalicMT'" font-size="9">Integer</text>
<text transform="matrix(1 0 0 1.1111 109.3125 -53.9829)" fill="#231F20" font-family="'CourierNewPS-ItalicMT'" font-size="9">int</text>
<text transform="matrix(1 0 0 1.1111 172.7534 -53.9829)" fill="#231F20" font-family="'CourierNewPS-ItalicMT'" font-size="9">intAmount</text>
<text transform="matrix(1 0 0 1.1111 16.2256 -39.853)" fill="#231F20" font-family="'CourierNewPS-ItalicMT'" font-size="9">Long</text>
<text transform="matrix(1 0 0 1.1111 109.3125 -39.853)" fill="#231F20" font-family="'CourierNewPS-ItalicMT'" font-size="9">lng</text>
<text transform="matrix(1 0 0 1.1111 172.7534 -39.853)" fill="#231F20" font-family="'CourierNewPS-ItalicMT'" font-size="9">lngIterations</text>
<text transform="matrix(1 0 0 1.1111 16.2256 -25.7231)" fill="#231F20" font-family="'CourierNewPS-ItalicMT'" font-size="9">Single</text>
<text transform="matrix(1 0 0 1.1111 109.3125 -25.7231)" fill="#231F20" font-family="'CourierNewPS-ItalicMT'" font-size="9">sng</text>
<text transform="matrix(1 0 0 1.1111 172.7534 -25.7231)" fill="#231F20" font-family="'CourierNewPS-ItalicMT'" font-size="9">sngFactor</text>
<text transform="matrix(1 0 0 1.1111 16.2256 -11.5933)" fill="#231F20" font-family="'CourierNewPS-ItalicMT'" font-size="9">Double</text>
<text transform="matrix(1 0 0 1.1111 109.3125 -11.5933)" fill="#231F20" font-family="'CourierNewPS-ItalicMT'" font-size="9">dbl</text>
<text transform="matrix(1 0 0 1.1111 172.7534 -11.5933)" fill="#231F20" font-family="'CourierNewPS-ItalicMT'" font-size="9">dblValue</text>
<text transform="matrix(1 0 0 1.1111 16.2256 2.5366)" fill="#231F20" font-family="'CourierNewPS-ItalicMT'" font-size="9">Decimal</text>
<text transform="matrix(1 0 0 1.1111 109.3125 2.5366)" fill="#231F20" font-family="'CourierNewPS-ItalicMT'" font-size="9">dec</text>
<text transform="matrix(1 0 0 1.1111 172.7534 2.5366)" fill="#231F20" font-family="'CourierNewPS-ItalicMT'" font-size="9">decInput</text>
<text transform="matrix(1 0 0 1.1111 16.2256 16.6665)" fill="#231F20" font-family="'CourierNewPS-ItalicMT'" font-size="9">Currency</text>
<text transform="matrix(1 0 0 1.1111 109.3125 16.6665)" fill="#231F20" font-family="'CourierNewPS-ItalicMT'" font-size="9">cur</text>
<text transform="matrix(1 0 0 1.1111 172.7534 16.6665)" fill="#231F20" font-family="'CourierNewPS-ItalicMT'" font-size="9">curSalary</text>
<text transform="matrix(1 0 0 1.1111 16.2256 30.7974)" fill="#231F20" font-family="'CourierNewPS-ItalicMT'" font-size="9">Date</text>
<text transform="matrix(1 0 0 1.1111 109.3125 30.7974)" fill="#231F20" font-family="'CourierNewPS-ItalicMT'" font-size="9">dtm</text>
<text transform="matrix(1 0 0 1.1111 172.7534 30.7974)" fill="#231F20" font-family="'CourierNewPS-ItalicMT'" font-size="9">dtmToday</text>
<text transform="matrix(1 0 0 1.1111 16.2256 44.9272)" fill="#231F20" font-family="'CourierNewPS-ItalicMT'" font-size="9">String</text>
<text transform="matrix(1 0 0 1.1111 109.3125 44.9272)" fill="#231F20" font-family="'CourierNewPS-ItalicMT'" font-size="9">str</text>
<text transform="matrix(1 0 0 1.1111 172.7534 44.9272)" fill="#231F20" font-family="'CourierNewPS-ItalicMT'" font-size="9">strMessage</text>
<text transform="matrix(1 0 0 1.1111 16.2256 59.0571)" fill="#231F20" font-family="'CourierNewPS-ItalicMT'" font-size="9">Error</text>
<text transform="matrix(1 0 0 1.1111 109.3125 59.0571)" fill="#231F20" font-family="'CourierNewPS-ItalicMT'" font-size="9">err</text>
<text transform="matrix(1 0 0 1.1111 172.7534 59.0571)" fill="#231F20" font-family="'CourierNewPS-ItalicMT'" font-size="9">errProjection</text>
<text transform="matrix(1 0 0 1.1111 16.2256 73.187)" fill="#231F20" font-family="'CourierNewPS-ItalicMT'" font-size="9">Variant</text>
<text transform="matrix(1 0 0 1.1111 109.3125 73.187)" fill="#231F20" font-family="'CourierNewPS-ItalicMT'" font-size="9">var</text>
<text transform="matrix(1 0 0 1.1111 172.7534 73.187)" fill="#231F20" font-family="'CourierNewPS-ItalicMT'" font-size="9">varData</text>
<text transform="matrix(1 0 0 1.1111 16.2256 87.3169)" fill="#231F20" font-family="'CourierNewPS-ItalicMT'" font-size="9">Array</text>
<text transform="matrix(1 0 0 1.1111 109.3125 87.3169)" fill="#231F20" font-family="'CourierNewPS-ItalicMT'" font-size="9">arr</text>
<text transform="matrix(1 0 0 1.1111 172.7534 87.3169)" fill="#231F20" font-family="'CourierNewPS-ItalicMT'" font-size="9">arrNames</text>
<text transform="matrix(1 0 0 1.1111 16.2256 101.4468)" fill="#231F20" font-family="'CourierNewPS-ItalicMT'" font-size="9">Object</text>
<text transform="matrix(1 0 0 1.1111 109.3125 101.4468)" fill="#231F20" font-family="'CourierNewPS-ItalicMT'" font-size="9">obj</text>
<text transform="matrix(1 0 0 1.1111 172.7534 101.4468)" fill="#231F20" font-family="'CourierNewPS-ItalicMT'" font-size="9">objExplorer</text>
<g>
	<defs>
		<rect id="SVGID_3_" x="10.226" y="-109.244" width="284.932" height="227.044"/>
	</defs>
	<clipPath id="SVGID_4_">
		<use xlink:href="#SVGID_3_"  overflow="visible"/>
	</clipPath>
	<path clip-path="url(#SVGID_4_)" fill="none" stroke="#231F20" stroke-width="1.5" d="M20.394-107.494c0,0-8,0-8,8V108.05
		c0,0,0,8,8,8h259.615c0,0,8,0,8-8V-99.494c0,0,0-8-8-8H20.394z"/>
</g>
</svg>
