<?xml version="1.0" encoding="utf-8"?>
<!-- Generator: Adobe Illustrator 14.0.0, SVG Export Plug-In . SVG Version: 6.00 Build 43363)  -->
<!DOCTYPE svg PUBLIC "-//W3C//DTD SVG 1.0//EN" "http://www.w3.org/TR/2001/REC-SVG-20010904/DTD/svg10.dtd">
<svg version="1.0" id="Layer_1" xmlns="http://www.w3.org/2000/svg" xmlns:xlink="http://www.w3.org/1999/xlink" x="0px" y="0px"
	 width="498.809px" height="189.061px" viewBox="0 0 498.809 189.061" enable-background="new 0 0 498.809 189.061"
	 xml:space="preserve">
<g>
	<defs>
		<polygon id="SVGID_1_" points="8.229,111.107 225.046,167.389 296.494,73.716 125.254,43.934 		"/>
	</defs>
	<clipPath id="SVGID_2_">
		<use xlink:href="#SVGID_1_"  overflow="visible"/>
	</clipPath>
	
		<linearGradient id="SVGID_3_" gradientUnits="userSpaceOnUse" x1="-149.6055" y1="394.3804" x2="-148.6055" y2="394.3804" gradientTransform="matrix(145.3334 -9.7307 -9.7307 -145.3334 25722.3105 55967.2031)">
		<stop  offset="0" style="stop-color:#FFFFFF"/>
		<stop  offset="1" style="stop-color:#EAEAEA"/>
	</linearGradient>
	<polygon clip-path="url(#SVGID_2_)" fill="url(#SVGID_3_)" points="0,44.485 295.208,24.719 304.723,166.838 9.515,186.603 	"/>
</g>
<g>
	<defs>
		<rect id="SVGID_4_" x="3.049" y="16.06" width="298.258" height="157.105"/>
	</defs>
	<clipPath id="SVGID_5_">
		<use xlink:href="#SVGID_4_"  overflow="visible"/>
	</clipPath>
	
		<path clip-path="url(#SVGID_5_)" fill="none" stroke="#000000" stroke-width="0.785" stroke-linecap="round" stroke-linejoin="round" d="
		M71.541,127.544c35.198-24.861,70.396-49.726,105.589-74.587"/>
	
		<path clip-path="url(#SVGID_5_)" fill="none" stroke="#000000" stroke-width="0.785" stroke-linecap="round" stroke-linejoin="round" d="
		M143.225,146.148c30.244-27.77,60.493-55.538,90.742-83.309"/>
	
		<path clip-path="url(#SVGID_5_)" fill="none" stroke="#000000" stroke-width="0.785" stroke-linecap="round" stroke-linejoin="round" d="
		M225.046,167.388c23.814-31.222,47.634-62.449,71.448-93.672"/>
	
		<path clip-path="url(#SVGID_5_)" fill="none" stroke="#000000" stroke-width="0.785" stroke-linecap="round" stroke-linejoin="round" d="
		M125.254,43.933C86.242,66.324,47.235,88.715,8.229,111.107"/>
	
		<path clip-path="url(#SVGID_5_)" fill="none" stroke="#000000" stroke-width="0.785" stroke-linecap="round" stroke-linejoin="round" d="
		M55.161,84.169c66.478,14.821,132.961,29.646,199.444,44.468"/>
	
		<path clip-path="url(#SVGID_5_)" fill="none" stroke="#000000" stroke-width="0.785" stroke-linecap="round" stroke-linejoin="round" d="
		M93.436,62.197c61.455,12.007,122.911,24.018,184.366,36.025"/>
	
		<path clip-path="url(#SVGID_5_)" fill="none" stroke="#000000" stroke-width="0.785" stroke-linecap="round" stroke-linejoin="round" d="
		M125.254,43.928c57.082,9.93,114.158,19.858,171.245,29.789"/>
	
		<path clip-path="url(#SVGID_5_)" fill="none" stroke="#000000" stroke-width="0.785" stroke-linecap="round" stroke-linejoin="round" d="
		M8.229,111.107c72.274,18.76,144.543,37.521,216.818,56.281"/>
	<path clip-path="url(#SVGID_5_)" fill-rule="evenodd" clip-rule="evenodd" fill="#FFFFFF" d="M3.965,111.007
		c0-2.543,2.061-4.604,4.609-4.604c2.543,0,4.604,2.061,4.604,4.604s-2.061,4.609-4.604,4.609
		C6.026,115.617,3.965,113.55,3.965,111.007"/>
	<path clip-path="url(#SVGID_5_)" fill="none" stroke="#000000" stroke-width="0.785" stroke-linejoin="bevel" d="M3.965,111.007
		c0-2.543,2.061-4.604,4.609-4.604c2.543,0,4.604,2.061,4.604,4.604s-2.061,4.609-4.604,4.609
		C6.026,115.617,3.965,113.55,3.965,111.007z"/>
	<path clip-path="url(#SVGID_5_)" fill-rule="evenodd" clip-rule="evenodd" d="M11.393,113.178h-1.229l-0.492-1.271H7.428
		l-0.466,1.271H5.759l2.187-5.613h1.198L11.393,113.178z M9.306,110.96l-0.774-2.087l-0.759,2.087H9.306z"/>
	<path clip-path="url(#SVGID_5_)" fill-rule="evenodd" clip-rule="evenodd" fill="#FFFFFF" d="M67.372,128.272
		c0-2.543,2.061-4.604,4.609-4.604c2.543,0,4.604,2.062,4.604,4.604s-2.061,4.608-4.604,4.608
		C69.433,132.88,67.372,130.815,67.372,128.272"/>
	<path clip-path="url(#SVGID_5_)" fill="none" stroke="#000000" stroke-width="0.785" stroke-linejoin="bevel" d="M67.372,128.272
		c0-2.543,2.061-4.604,4.609-4.604c2.543,0,4.604,2.062,4.604,4.604s-2.061,4.608-4.604,4.608
		C69.433,132.88,67.372,130.815,67.372,128.272z"/>
	<path clip-path="url(#SVGID_5_)" fill-rule="evenodd" clip-rule="evenodd" d="M69.925,125.442h2.244
		c0.445,0,0.78,0.015,0.994,0.057c0.22,0.037,0.413,0.11,0.586,0.23c0.173,0.115,0.319,0.271,0.434,0.471
		c0.115,0.194,0.173,0.414,0.173,0.654c0,0.262-0.073,0.508-0.215,0.727c-0.141,0.22-0.334,0.382-0.575,0.492
		c0.34,0.1,0.607,0.271,0.79,0.508c0.183,0.24,0.272,0.523,0.272,0.847c0,0.257-0.058,0.509-0.178,0.748
		c-0.115,0.241-0.277,0.435-0.486,0.576c-0.205,0.146-0.456,0.235-0.759,0.268c-0.188,0.02-0.644,0.035-1.366,0.041h-1.914V125.442z
		 M71.06,126.377v1.298h0.743c0.439,0,0.717-0.006,0.821-0.021c0.199-0.021,0.351-0.089,0.461-0.199
		c0.109-0.11,0.167-0.257,0.167-0.44c0-0.172-0.047-0.313-0.146-0.423c-0.095-0.109-0.236-0.173-0.424-0.198
		c-0.115-0.012-0.44-0.017-0.973-0.017H71.06z M71.06,128.612v1.501h1.052c0.408,0,0.664-0.01,0.774-0.036
		c0.167-0.032,0.308-0.105,0.413-0.225c0.105-0.115,0.157-0.277,0.157-0.477c0-0.168-0.037-0.309-0.12-0.429
		c-0.084-0.115-0.199-0.204-0.356-0.257c-0.152-0.053-0.487-0.078-1.004-0.078H71.06z"/>
	<path clip-path="url(#SVGID_5_)" fill-rule="evenodd" clip-rule="evenodd" fill="#FFFFFF" d="M138.626,146.792
		c0-2.543,2.061-4.604,4.609-4.604c2.543,0,4.604,2.062,4.604,4.604s-2.061,4.609-4.604,4.609
		C140.687,151.401,138.626,149.334,138.626,146.792"/>
	<path clip-path="url(#SVGID_5_)" fill="none" stroke="#000000" stroke-width="0.785" stroke-linejoin="bevel" d="M138.626,146.792
		c0-2.543,2.061-4.604,4.609-4.604c2.543,0,4.604,2.062,4.604,4.604s-2.061,4.609-4.604,4.609
		C140.687,151.401,138.626,149.334,138.626,146.792z"/>
	<path clip-path="url(#SVGID_5_)" fill-rule="evenodd" clip-rule="evenodd" d="M144.338,147.44l1.099,0.345
		c-0.168,0.618-0.445,1.073-0.837,1.366c-0.393,0.298-0.89,0.45-1.497,0.45c-0.743,0-1.355-0.257-1.836-0.764
		c-0.481-0.514-0.722-1.209-0.722-2.094c0-0.936,0.241-1.657,0.727-2.176c0.482-0.518,1.115-0.779,1.905-0.779
		c0.685,0,1.245,0.203,1.674,0.611c0.251,0.241,0.444,0.586,0.57,1.036l-1.12,0.267c-0.068-0.293-0.204-0.522-0.418-0.689
		c-0.209-0.168-0.466-0.252-0.764-0.252c-0.418,0-0.759,0.146-1.015,0.445c-0.261,0.304-0.387,0.784-0.387,1.453
		c0,0.713,0.126,1.215,0.382,1.519c0.256,0.303,0.586,0.455,0.994,0.455c0.303,0,0.56-0.101,0.779-0.288
		C144.087,148.152,144.245,147.848,144.338,147.44"/>
	<path clip-path="url(#SVGID_5_)" fill-rule="evenodd" clip-rule="evenodd" fill="#FFFFFF" d="M220.866,168.136
		c0-2.543,2.061-4.604,4.609-4.604c2.543,0,4.604,2.062,4.604,4.604s-2.061,4.609-4.604,4.609
		C222.927,172.746,220.866,170.679,220.866,168.136"/>
	<path clip-path="url(#SVGID_5_)" fill="none" stroke="#000000" stroke-width="0.785" stroke-linejoin="bevel" d="M220.866,168.136
		c0-2.543,2.061-4.604,4.609-4.604c2.543,0,4.604,2.062,4.604,4.604s-2.061,4.609-4.604,4.609
		C222.927,172.746,220.866,170.679,220.866,168.136z"/>
	<path clip-path="url(#SVGID_5_)" fill-rule="evenodd" clip-rule="evenodd" d="M223.472,165.426h2.077
		c0.465,0,0.821,0.036,1.067,0.11c0.33,0.094,0.612,0.267,0.847,0.518c0.236,0.246,0.414,0.549,0.534,0.91
		c0.126,0.356,0.183,0.8,0.183,1.324c0,0.465-0.057,0.863-0.172,1.198c-0.137,0.407-0.341,0.736-0.602,0.993
		c-0.194,0.188-0.46,0.341-0.795,0.444c-0.251,0.079-0.586,0.121-1.005,0.121h-2.134V165.426z M224.607,166.378v3.72h0.848
		c0.313,0,0.544-0.016,0.685-0.053c0.183-0.047,0.335-0.125,0.46-0.235c0.121-0.109,0.22-0.288,0.293-0.539
		c0.079-0.256,0.115-0.596,0.115-1.03s-0.036-0.77-0.115-0.999c-0.073-0.235-0.183-0.413-0.319-0.544
		c-0.141-0.132-0.314-0.221-0.528-0.268c-0.157-0.036-0.466-0.052-0.932-0.052H224.607z"/>
	<path clip-path="url(#SVGID_5_)" fill-rule="evenodd" clip-rule="evenodd" fill="#FFFFFF" d="M49.793,84.327
		c0-2.543,2.061-4.604,4.609-4.604c2.543,0,4.604,2.062,4.604,4.604s-2.061,4.608-4.604,4.608
		C51.854,88.935,49.793,86.87,49.793,84.327"/>
	<path clip-path="url(#SVGID_5_)" fill="none" stroke="#000000" stroke-width="0.785" stroke-linejoin="bevel" d="M49.793,84.327
		c0-2.543,2.061-4.604,4.609-4.604c2.543,0,4.604,2.062,4.604,4.604s-2.061,4.608-4.604,4.608
		C51.854,88.935,49.793,86.87,49.793,84.327z"/>
	<polygon clip-path="url(#SVGID_5_)" fill-rule="evenodd" clip-rule="evenodd" points="52.315,87.125 52.315,81.512 56.479,81.512 
		56.479,82.458 53.45,82.458 53.45,83.705 56.27,83.705 56.27,84.65 53.45,84.65 53.45,86.178 56.589,86.178 56.589,87.125 	"/>
	<path clip-path="url(#SVGID_5_)" fill-rule="evenodd" clip-rule="evenodd" fill="#FFFFFF" d="M109.434,97.196
		c0-2.543,2.061-4.604,4.609-4.604c2.543,0,4.604,2.061,4.604,4.604s-2.061,4.609-4.604,4.609
		C111.495,101.805,109.434,99.739,109.434,97.196"/>
	<path clip-path="url(#SVGID_5_)" fill="none" stroke="#000000" stroke-width="0.785" stroke-linejoin="bevel" d="M109.434,97.196
		c0-2.543,2.061-4.604,4.609-4.604c2.543,0,4.604,2.061,4.604,4.604s-2.061,4.609-4.604,4.609
		C111.495,101.805,109.434,99.739,109.434,97.196z"/>
	<polygon clip-path="url(#SVGID_5_)" fill-rule="evenodd" clip-rule="evenodd" points="112.279,99.995 112.279,94.382 
		116.129,94.382 116.129,95.328 113.41,95.328 113.41,96.657 115.758,96.657 115.758,97.609 113.41,97.609 113.41,99.995 	"/>
	<path clip-path="url(#SVGID_5_)" fill-rule="evenodd" clip-rule="evenodd" fill="#FFFFFF" d="M175.979,112.577
		c0-2.543,2.061-4.604,4.609-4.604c2.543,0,4.604,2.061,4.604,4.604s-2.061,4.609-4.604,4.609
		C178.04,117.186,175.979,115.12,175.979,112.577"/>
	<path clip-path="url(#SVGID_5_)" fill="none" stroke="#000000" stroke-width="0.785" stroke-linejoin="bevel" d="M175.979,112.577
		c0-2.543,2.061-4.604,4.609-4.604c2.543,0,4.604,2.061,4.604,4.604s-2.061,4.609-4.604,4.609
		C178.04,117.186,175.979,115.12,175.979,112.577z"/>
	<path clip-path="url(#SVGID_5_)" fill-rule="evenodd" clip-rule="evenodd" d="M180.567,113.236v-0.947h2.443v2.234
		c-0.241,0.23-0.581,0.434-1.03,0.612c-0.456,0.173-0.911,0.262-1.371,0.262c-0.591,0-1.104-0.126-1.538-0.372
		c-0.44-0.246-0.764-0.596-0.984-1.057c-0.219-0.46-0.329-0.957-0.329-1.496c0-0.586,0.12-1.104,0.366-1.56
		c0.246-0.454,0.607-0.805,1.078-1.046c0.361-0.188,0.805-0.282,1.344-0.282c0.696,0,1.24,0.146,1.632,0.439
		c0.393,0.293,0.644,0.696,0.759,1.214l-1.125,0.209c-0.078-0.271-0.23-0.492-0.45-0.653c-0.214-0.157-0.492-0.236-0.816-0.236
		c-0.497,0-0.889,0.157-1.182,0.471c-0.293,0.314-0.44,0.78-0.44,1.397c0,0.67,0.147,1.167,0.445,1.502
		c0.298,0.334,0.685,0.497,1.167,0.497c0.235,0,0.476-0.048,0.711-0.137c0.241-0.095,0.445-0.21,0.617-0.341v-0.711H180.567z"/>
	<path clip-path="url(#SVGID_5_)" fill-rule="evenodd" clip-rule="evenodd" fill="#FFFFFF" d="M250.059,129.213
		c0-2.543,2.061-4.604,4.608-4.604c2.543,0,4.604,2.062,4.604,4.604s-2.062,4.609-4.604,4.609
		C252.12,133.823,250.059,131.756,250.059,129.213"/>
	<path clip-path="url(#SVGID_5_)" fill="none" stroke="#000000" stroke-width="0.785" stroke-linejoin="bevel" d="M250.059,129.213
		c0-2.543,2.061-4.604,4.608-4.604c2.543,0,4.604,2.062,4.604,4.604s-2.062,4.609-4.604,4.609
		C252.12,133.823,250.059,131.756,250.059,129.213z"/>
	<polygon clip-path="url(#SVGID_5_)" fill-rule="evenodd" clip-rule="evenodd" points="252.329,131.975 252.329,126.357 
		253.463,126.357 253.463,128.57 255.688,128.57 255.688,126.357 256.818,126.357 256.818,131.975 255.688,131.975 255.688,129.516 
		253.463,129.516 253.463,131.975 	"/>
	<path clip-path="url(#SVGID_5_)" fill-rule="evenodd" clip-rule="evenodd" fill="#FFFFFF" d="M89.03,62.353
		c0-2.543,2.061-4.604,4.609-4.604c2.543,0,4.604,2.061,4.604,4.604s-2.061,4.609-4.604,4.609
		C91.091,66.962,89.03,64.896,89.03,62.353"/>
	<path clip-path="url(#SVGID_5_)" fill="none" stroke="#000000" stroke-width="0.785" stroke-linejoin="bevel" d="M89.03,62.353
		c0-2.543,2.061-4.604,4.609-4.604c2.543,0,4.604,2.061,4.604,4.604s-2.061,4.609-4.604,4.609
		C91.091,66.962,89.03,64.896,89.03,62.353z"/>
	<rect x="92.933" y="59.539" clip-path="url(#SVGID_5_)" fill-rule="evenodd" clip-rule="evenodd" width="1.13" height="5.613"/>
	<path clip-path="url(#SVGID_5_)" fill-rule="evenodd" clip-rule="evenodd" fill="#FFFFFF" d="M143.962,73.34
		c0-2.544,2.061-4.604,4.609-4.604c2.543,0,4.604,2.061,4.604,4.604c0,2.543-2.061,4.608-4.604,4.608
		C146.023,77.949,143.962,75.883,143.962,73.34"/>
	<path clip-path="url(#SVGID_5_)" fill="none" stroke="#000000" stroke-width="0.785" stroke-linejoin="bevel" d="M143.962,73.34
		c0-2.544,2.061-4.604,4.609-4.604c2.543,0,4.604,2.061,4.604,4.604c0,2.543-2.061,4.608-4.604,4.608
		C146.023,77.949,143.962,75.883,143.962,73.34z"/>
	<path clip-path="url(#SVGID_5_)" fill-rule="evenodd" clip-rule="evenodd" d="M149.063,70.604h1.13v3.552
		c0,0.466-0.042,0.827-0.126,1.073c-0.109,0.329-0.308,0.591-0.596,0.79c-0.288,0.198-0.67,0.298-1.14,0.298
		c-0.555,0-0.984-0.157-1.282-0.466c-0.298-0.314-0.45-0.77-0.45-1.365l1.067-0.126c0.011,0.325,0.058,0.55,0.141,0.687
		c0.126,0.197,0.309,0.298,0.56,0.298s0.434-0.068,0.539-0.215s0.157-0.444,0.157-0.9V70.604z"/>
	<path clip-path="url(#SVGID_5_)" fill-rule="evenodd" clip-rule="evenodd" fill="#FFFFFF" d="M205.485,85.268
		c0-2.543,2.061-4.604,4.609-4.604c2.543,0,4.604,2.062,4.604,4.604s-2.061,4.608-4.604,4.608
		C207.546,89.876,205.485,87.811,205.485,85.268"/>
	<path clip-path="url(#SVGID_5_)" fill="none" stroke="#000000" stroke-width="0.785" stroke-linejoin="bevel" d="M205.485,85.268
		c0-2.543,2.061-4.604,4.609-4.604c2.543,0,4.604,2.062,4.604,4.604s-2.061,4.608-4.604,4.608
		C207.546,89.876,205.485,87.811,205.485,85.268z"/>
	<polygon clip-path="url(#SVGID_5_)" fill-rule="evenodd" clip-rule="evenodd" points="207.63,87.989 207.63,82.375 208.765,82.375 
		208.765,84.866 211.057,82.375 212.58,82.375 210.466,84.561 212.694,87.989 211.229,87.989 209.687,85.351 208.765,86.293 
		208.765,87.989 	"/>
	<path clip-path="url(#SVGID_5_)" fill-rule="evenodd" clip-rule="evenodd" fill="#FFFFFF" d="M272.973,99.08
		c0-2.543,2.061-4.604,4.608-4.604c2.543,0,4.604,2.062,4.604,4.604s-2.062,4.608-4.604,4.608
		C275.034,103.688,272.973,101.623,272.973,99.08"/>
	<path clip-path="url(#SVGID_5_)" fill="none" stroke="#000000" stroke-width="0.785" stroke-linejoin="bevel" d="M272.973,99.08
		c0-2.543,2.061-4.604,4.608-4.604c2.543,0,4.604,2.062,4.604,4.604s-2.062,4.608-4.604,4.608
		C275.034,103.688,272.973,101.623,272.973,99.08z"/>
	<polygon clip-path="url(#SVGID_5_)" fill-rule="evenodd" clip-rule="evenodd" points="275.908,101.79 275.908,96.223 
		277.042,96.223 277.042,100.847 279.863,100.847 279.863,101.79 	"/>
	<path clip-path="url(#SVGID_5_)" fill-rule="evenodd" clip-rule="evenodd" fill="#FFFFFF" d="M291.178,73.968
		c0-2.543,2.062-4.604,4.609-4.604c2.543,0,4.604,2.062,4.604,4.604s-2.061,4.608-4.604,4.608
		C293.24,78.577,291.178,76.511,291.178,73.968"/>
	<path clip-path="url(#SVGID_5_)" fill="none" stroke="#000000" stroke-width="0.785" stroke-linejoin="bevel" d="M291.178,73.968
		c0-2.543,2.062-4.604,4.609-4.604c2.543,0,4.604,2.062,4.604,4.604s-2.061,4.608-4.604,4.608
		C293.24,78.577,291.178,76.511,291.178,73.968z"/>
	<path clip-path="url(#SVGID_5_)" fill-rule="evenodd" clip-rule="evenodd" d="M294.083,76.83V71.21h1.82
		c0.69,0,1.141,0.026,1.35,0.084c0.318,0.084,0.591,0.267,0.807,0.55c0.219,0.281,0.328,0.648,0.328,1.093
		c0,0.346-0.062,0.638-0.188,0.874c-0.127,0.229-0.283,0.418-0.477,0.549c-0.193,0.136-0.392,0.225-0.591,0.267
		c-0.272,0.059-0.659,0.084-1.177,0.084h-0.738v2.119H294.083z M295.217,72.163v1.591h0.623c0.444,0,0.742-0.026,0.895-0.09
		c0.151-0.057,0.267-0.146,0.355-0.271c0.084-0.125,0.125-0.272,0.125-0.439c0-0.204-0.057-0.372-0.177-0.502
		c-0.121-0.136-0.272-0.22-0.456-0.251c-0.137-0.026-0.408-0.037-0.816-0.037H295.217z"/>
	<path clip-path="url(#SVGID_5_)" fill-rule="evenodd" clip-rule="evenodd" fill="#FFFFFF" d="M229.341,63.295
		c0-2.543,2.061-4.604,4.609-4.604c2.543,0,4.604,2.062,4.604,4.604s-2.061,4.608-4.604,4.608
		C231.402,67.904,229.341,65.838,229.341,63.295"/>
	<path clip-path="url(#SVGID_5_)" fill="none" stroke="#000000" stroke-width="0.785" stroke-linejoin="bevel" d="M229.341,63.295
		c0-2.543,2.061-4.604,4.609-4.604c2.543,0,4.604,2.062,4.604,4.604s-2.061,4.608-4.604,4.608
		C231.402,67.904,229.341,65.838,229.341,63.295z"/>
	<path clip-path="url(#SVGID_5_)" fill-rule="evenodd" clip-rule="evenodd" d="M231.24,63.244c0-0.571,0.089-1.053,0.256-1.439
		c0.131-0.287,0.304-0.544,0.524-0.769c0.219-0.23,0.465-0.398,0.727-0.509c0.35-0.146,0.753-0.225,1.208-0.225
		c0.832,0,1.491,0.258,1.988,0.775c0.497,0.512,0.748,1.224,0.748,2.139c0,0.906-0.245,1.617-0.742,2.13
		c-0.492,0.513-1.151,0.769-1.978,0.769c-0.832,0-1.496-0.256-1.988-0.764C231.486,64.838,231.24,64.137,231.24,63.244
		 M232.413,63.207c0,0.633,0.146,1.12,0.439,1.443c0.293,0.33,0.665,0.492,1.12,0.492c0.45,0,0.821-0.162,1.109-0.486
		c0.293-0.324,0.44-0.816,0.44-1.465c0-0.644-0.142-1.125-0.424-1.438c-0.283-0.319-0.659-0.476-1.125-0.476
		c-0.471,0-0.848,0.156-1.13,0.48C232.553,62.077,232.413,62.558,232.413,63.207"/>
	<path clip-path="url(#SVGID_5_)" fill-rule="evenodd" clip-rule="evenodd" fill="#FFFFFF" d="M172.84,52.937
		c0-2.543,2.061-4.604,4.609-4.604c2.543,0,4.604,2.061,4.604,4.604s-2.061,4.609-4.604,4.609
		C174.901,57.546,172.84,55.48,172.84,52.937"/>
	<path clip-path="url(#SVGID_5_)" fill="none" stroke="#000000" stroke-width="0.785" stroke-linejoin="bevel" d="M172.84,52.937
		c0-2.543,2.061-4.604,4.609-4.604c2.543,0,4.604,2.061,4.604,4.604s-2.061,4.609-4.604,4.609
		C174.901,57.546,172.84,55.48,172.84,52.937z"/>
	<polygon clip-path="url(#SVGID_5_)" fill-rule="evenodd" clip-rule="evenodd" points="175.137,55.736 175.137,50.122 
		176.241,50.122 178.543,53.874 178.543,50.122 179.594,50.122 179.594,55.736 178.459,55.736 176.194,52.074 176.194,55.736 	"/>
	<path clip-path="url(#SVGID_5_)" fill-rule="evenodd" clip-rule="evenodd" fill="#FFFFFF" d="M121.989,44.148
		c0-2.543,2.061-4.604,4.609-4.604c2.543,0,4.604,2.061,4.604,4.604s-2.061,4.609-4.604,4.609
		C124.05,48.757,121.989,46.691,121.989,44.148"/>
	<path clip-path="url(#SVGID_5_)" fill="none" stroke="#000000" stroke-width="0.785" stroke-linejoin="bevel" d="M121.989,44.148
		c0-2.543,2.061-4.604,4.609-4.604c2.543,0,4.604,2.061,4.604,4.604s-2.061,4.609-4.604,4.609
		C124.05,48.757,121.989,46.691,121.989,44.148z"/>
	<polygon clip-path="url(#SVGID_5_)" fill-rule="evenodd" clip-rule="evenodd" points="123.868,46.869 123.868,41.254 
		125.567,41.254 126.583,45.083 127.592,41.254 129.292,41.254 129.292,46.869 128.242,46.869 128.242,42.447 127.126,46.869 
		126.034,46.869 124.924,42.447 124.924,46.869 	"/>
	
		<line clip-path="url(#SVGID_5_)" fill="none" stroke="#FFFFFF" stroke-width="2.354" stroke-linecap="round" stroke-linejoin="round" x1="138.903" y1="21.259" x2="140.169" y2="100.665"/>
	<path clip-path="url(#SVGID_5_)" fill-rule="evenodd" clip-rule="evenodd" d="M140.279,107.465l-3.255-7.277l2.747-0.042
		l-0.01-0.443c0-0.215,0.172-0.394,0.387-0.398c0.214,0,0.397,0.173,0.397,0.387l0.011,0.445l2.746-0.047L140.279,107.465z
		 M140.137,98.519c-0.219,0.006-0.397-0.167-0.403-0.382l-0.02-1.568c-0.006-0.221,0.167-0.398,0.381-0.403
		c0.22,0,0.398,0.173,0.403,0.387l0.021,1.57C140.524,98.341,140.353,98.519,140.137,98.519 M140.085,95.385
		c-0.215,0-0.392-0.172-0.398-0.387l-0.026-1.569c-0.005-0.215,0.173-0.397,0.387-0.397c0.215-0.005,0.393,0.168,0.398,0.387
		l0.026,1.565C140.478,95.203,140.299,95.38,140.085,95.385 M140.039,92.248c-0.22,0.005-0.398-0.173-0.403-0.388l-0.021-1.569
		c-0.005-0.215,0.168-0.393,0.382-0.398c0.22-0.005,0.398,0.168,0.403,0.388l0.021,1.569
		C140.425,92.063,140.252,92.242,140.039,92.248 M139.986,89.109c-0.215,0.005-0.398-0.168-0.398-0.389l-0.026-1.568
		c-0.005-0.216,0.167-0.393,0.387-0.398c0.214,0,0.392,0.173,0.398,0.387l0.026,1.57C140.374,88.924,140.2,89.102,139.986,89.109
		 M139.934,85.969c-0.214,0.005-0.392-0.168-0.397-0.382l-0.027-1.57c0-0.219,0.173-0.396,0.388-0.396
		c0.219-0.006,0.397,0.167,0.397,0.382l0.026,1.569C140.326,85.792,140.153,85.969,139.934,85.969 M139.886,82.835
		c-0.22,0-0.397-0.173-0.397-0.387l-0.027-1.57c-0.005-0.214,0.168-0.392,0.388-0.397c0.214-0.005,0.392,0.167,0.397,0.388
		l0.026,1.568C140.273,82.653,140.102,82.831,139.886,82.835 M139.834,79.697c-0.215,0.005-0.393-0.167-0.398-0.388l-0.026-1.569
		c0-0.214,0.173-0.393,0.387-0.397c0.215-0.005,0.398,0.172,0.398,0.387l0.026,1.569C140.227,79.513,140.054,79.691,139.834,79.697
		 M139.788,76.557c-0.22,0.005-0.398-0.167-0.398-0.387l-0.026-1.564c-0.005-0.22,0.167-0.397,0.387-0.402
		c0.215,0,0.392,0.172,0.398,0.387l0.021,1.569C140.174,76.375,140.001,76.557,139.788,76.557 M139.734,73.423
		c-0.214,0-0.392-0.172-0.397-0.387l-0.026-1.569c0-0.22,0.172-0.397,0.387-0.397c0.214-0.006,0.392,0.168,0.397,0.382l0.027,1.568
		C140.127,73.241,139.955,73.418,139.734,73.423 M139.688,70.285c-0.219,0-0.397-0.172-0.402-0.387l-0.021-1.569
		c-0.006-0.216,0.167-0.394,0.381-0.398c0.22-0.005,0.398,0.169,0.403,0.388l0.021,1.569
		C140.075,70.101,139.902,70.279,139.688,70.285 M139.635,67.146c-0.214,0.006-0.398-0.168-0.398-0.388l-0.026-1.569
		c-0.005-0.215,0.168-0.393,0.387-0.397c0.215,0,0.393,0.173,0.398,0.387l0.026,1.57C140.022,66.962,139.851,67.14,139.635,67.146
		 M139.583,64.006c-0.215,0.006-0.393-0.167-0.398-0.381l-0.026-1.57c0-0.22,0.173-0.397,0.387-0.397
		c0.22-0.006,0.398,0.168,0.398,0.382l0.026,1.569C139.976,63.83,139.802,64.006,139.583,64.006 M139.536,60.874
		c-0.22,0-0.398-0.173-0.398-0.388l-0.026-1.569c-0.005-0.214,0.167-0.397,0.387-0.397c0.215-0.006,0.392,0.168,0.398,0.387
		l0.026,1.564C139.923,60.691,139.75,60.868,139.536,60.874 M139.483,57.734c-0.214,0.006-0.392-0.168-0.397-0.387l-0.026-1.57
		c0-0.213,0.172-0.392,0.387-0.396c0.219-0.006,0.397,0.167,0.397,0.387l0.026,1.569C139.876,57.551,139.704,57.73,139.483,57.734
		 M139.437,54.595c-0.219,0.006-0.397-0.168-0.397-0.387l-0.027-1.564c-0.005-0.22,0.168-0.397,0.388-0.402
		c0.214,0,0.392,0.172,0.397,0.387l0.026,1.568C139.823,54.413,139.651,54.595,139.437,54.595 M139.384,51.457
		c-0.215,0.005-0.392-0.168-0.398-0.383l-0.026-1.568c0-0.22,0.173-0.398,0.387-0.398c0.215-0.004,0.398,0.168,0.398,0.383
		l0.026,1.568C139.776,51.279,139.604,51.457,139.384,51.457 M139.337,48.322c-0.22,0-0.398-0.172-0.403-0.387l-0.021-1.568
		c-0.005-0.215,0.167-0.393,0.382-0.398c0.22-0.005,0.398,0.167,0.403,0.387l0.021,1.57
		C139.724,48.139,139.551,48.318,139.337,48.322 M139.285,45.183c-0.215,0.006-0.393-0.166-0.398-0.387l-0.026-1.568
		c-0.005-0.216,0.167-0.394,0.387-0.398c0.214,0,0.392,0.173,0.397,0.387l0.027,1.57C139.672,45,139.5,45.178,139.285,45.183
		 M139.232,42.044c-0.214,0.005-0.392-0.167-0.397-0.382l-0.021-1.569c-0.006-0.22,0.167-0.398,0.382-0.402
		c0.219,0,0.397,0.172,0.397,0.387l0.026,1.57C139.625,41.867,139.452,42.044,139.232,42.044 M139.186,38.912
		c-0.214,0-0.397-0.174-0.397-0.389l-0.027-1.568c-0.005-0.215,0.168-0.398,0.388-0.398c0.214-0.005,0.392,0.168,0.397,0.387
		l0.026,1.565C139.572,38.728,139.4,38.906,139.186,38.912 M139.133,35.773c-0.215,0.004-0.393-0.174-0.398-0.389l-0.026-1.568
		c0-0.215,0.173-0.393,0.387-0.398c0.22-0.005,0.398,0.168,0.398,0.387l0.026,1.57C139.525,35.588,139.354,35.767,139.133,35.773
		 M139.086,32.633c-0.22,0.005-0.398-0.168-0.398-0.388l-0.026-1.569c-0.005-0.214,0.167-0.392,0.387-0.397
		c0.215,0,0.392,0.173,0.398,0.388l0.026,1.569C139.473,32.451,139.3,32.627,139.086,32.633 M139.033,29.495
		c-0.214,0.005-0.392-0.168-0.397-0.382l-0.026-1.57c0-0.219,0.172-0.396,0.387-0.396c0.214-0.006,0.397,0.166,0.397,0.381
		l0.027,1.569C139.426,29.316,139.253,29.495,139.033,29.495 M138.986,26.361c-0.219,0-0.397-0.174-0.403-0.387l-0.02-1.57
		c-0.006-0.215,0.167-0.397,0.381-0.397c0.22-0.005,0.398,0.167,0.403,0.388l0.021,1.563
		C139.374,26.177,139.201,26.355,138.986,26.361 M138.935,23.221c-0.215,0.005-0.392-0.167-0.398-0.387l-0.026-1.569
		c-0.005-0.215,0.173-0.393,0.387-0.397c0.215-0.005,0.393,0.172,0.398,0.387l0.026,1.569
		C139.326,23.039,139.149,23.216,138.935,23.221"/>
	
		<line clip-path="url(#SVGID_5_)" fill="none" stroke="#000000" stroke-width="2.354" stroke-linejoin="bevel" x1="136.408" y1="17.759" x2="141.472" y2="22.824"/>
	
		<line clip-path="url(#SVGID_5_)" fill="none" stroke="#000000" stroke-width="2.354" stroke-linejoin="bevel" x1="136.408" y1="22.824" x2="141.472" y2="17.759"/>
	
		<line clip-path="url(#SVGID_5_)" fill="none" stroke="#000000" stroke-width="2.354" stroke-linejoin="bevel" x1="137.768" y1="107.319" x2="142.832" y2="112.378"/>
	
		<line clip-path="url(#SVGID_5_)" fill="none" stroke="#000000" stroke-width="2.354" stroke-linejoin="bevel" x1="137.768" y1="112.378" x2="142.832" y2="107.319"/>
	<path clip-path="url(#SVGID_5_)" fill-rule="evenodd" clip-rule="evenodd" d="M129.12,21.322l1.104-0.104
		c0.068,0.372,0.199,0.644,0.403,0.815c0.204,0.174,0.476,0.263,0.821,0.263c0.366,0,0.644-0.078,0.827-0.235
		c0.183-0.152,0.277-0.335,0.277-0.539c0-0.136-0.037-0.246-0.115-0.34c-0.079-0.094-0.215-0.173-0.408-0.246
		c-0.136-0.042-0.434-0.126-0.911-0.24c-0.606-0.151-1.035-0.34-1.276-0.561c-0.345-0.309-0.518-0.686-0.518-1.13
		c0-0.282,0.079-0.554,0.241-0.8c0.162-0.252,0.397-0.439,0.701-0.57c0.308-0.131,0.675-0.193,1.109-0.193
		c0.701,0,1.234,0.151,1.59,0.461c0.356,0.308,0.544,0.721,0.56,1.238l-1.135,0.049c-0.047-0.289-0.152-0.492-0.309-0.623
		c-0.162-0.127-0.403-0.188-0.722-0.188c-0.329,0-0.586,0.067-0.774,0.204c-0.12,0.089-0.178,0.203-0.178,0.35
		c0,0.131,0.058,0.246,0.167,0.34c0.147,0.121,0.492,0.246,1.041,0.377c0.555,0.125,0.963,0.262,1.225,0.403
		c0.266,0.136,0.476,0.329,0.622,0.569c0.152,0.242,0.225,0.539,0.225,0.896c0,0.319-0.089,0.622-0.267,0.905
		c-0.183,0.281-0.434,0.486-0.758,0.627c-0.33,0.136-0.738,0.204-1.224,0.204c-0.712,0-1.256-0.167-1.638-0.491
		C129.423,22.431,129.193,21.951,129.12,21.322"/>
	<path clip-path="url(#SVGID_5_)" fill-rule="evenodd" clip-rule="evenodd" d="M137.883,119.415l1.104-0.105
		c0.063,0.372,0.199,0.645,0.403,0.817c0.204,0.172,0.476,0.261,0.821,0.261c0.366,0,0.644-0.078,0.827-0.234
		c0.183-0.152,0.277-0.335,0.277-0.539c0-0.137-0.037-0.246-0.115-0.34c-0.079-0.095-0.215-0.174-0.408-0.246
		c-0.136-0.042-0.44-0.126-0.911-0.241c-0.606-0.151-1.035-0.34-1.281-0.561c-0.34-0.308-0.513-0.685-0.513-1.13
		c0-0.281,0.079-0.554,0.241-0.8c0.162-0.251,0.397-0.438,0.701-0.57c0.308-0.131,0.675-0.193,1.104-0.193
		c0.706,0,1.239,0.151,1.595,0.461c0.356,0.308,0.544,0.722,0.56,1.239l-1.135,0.048c-0.047-0.288-0.152-0.492-0.309-0.623
		c-0.162-0.126-0.403-0.188-0.722-0.188c-0.329,0-0.586,0.068-0.774,0.204c-0.12,0.089-0.178,0.204-0.178,0.351
		c0,0.131,0.058,0.245,0.167,0.34c0.142,0.121,0.492,0.246,1.041,0.377c0.555,0.125,0.963,0.261,1.225,0.402
		c0.266,0.137,0.471,0.329,0.622,0.57c0.152,0.241,0.225,0.539,0.225,0.896c0,0.318-0.089,0.622-0.267,0.904
		c-0.183,0.282-0.434,0.486-0.758,0.627c-0.33,0.137-0.738,0.204-1.224,0.204c-0.712,0-1.256-0.167-1.638-0.491
		C138.181,120.524,137.956,120.042,137.883,119.415"/>
	<path clip-path="url(#SVGID_5_)" fill-rule="evenodd" clip-rule="evenodd" d="M143.371,115.643h1.072v0.769
		c0,0.314-0.026,0.56-0.078,0.738c-0.052,0.183-0.157,0.34-0.303,0.485c-0.152,0.142-0.34,0.258-0.571,0.335l-0.209-0.444
		c0.215-0.068,0.372-0.167,0.46-0.293c0.095-0.125,0.142-0.298,0.147-0.513h-0.518V115.643z"/>
</g>
<g>
	<defs>
		<polygon id="SVGID_6_" points="317.453,52.841 450.074,87.267 493.776,29.97 389.034,11.753 		"/>
	</defs>
	<clipPath id="SVGID_7_">
		<use xlink:href="#SVGID_6_"  overflow="visible"/>
	</clipPath>
	
		<linearGradient id="SVGID_8_" gradientUnits="userSpaceOnUse" x1="-148.9746" y1="394.4409" x2="-147.9746" y2="394.4409" gradientTransform="matrix(88.896 -5.952 -5.952 -88.896 15990.2461 34227.4805)">
		<stop  offset="0" style="stop-color:#FFFFFF"/>
		<stop  offset="1" style="stop-color:#EAEAEA"/>
	</linearGradient>
	<polygon clip-path="url(#SVGID_7_)" fill="url(#SVGID_8_)" points="312.419,12.089 492.989,0 498.809,86.93 318.24,99.02 	"/>
</g>
<line fill="none" stroke="#CE0000" stroke-width="0.358" stroke-linecap="round" stroke-linejoin="round" x1="398.157" y1="52.074" x2="346.161" y2="36.365"/>
<line fill="none" stroke="#CE0000" stroke-width="0.358" stroke-linecap="round" stroke-linejoin="round" x1="398.157" y1="52.074" x2="455.53" y2="23.318"/>
<line fill="none" stroke="#CE0000" stroke-width="0.358" stroke-linecap="round" stroke-linejoin="round" x1="398.157" y1="52.074" x2="369.571" y2="22.924"/>
<line fill="none" stroke="#CE0000" stroke-width="0.24" stroke-linecap="round" stroke-linejoin="round" x1="398.157" y1="52.074" x2="493.776" y2="29.971"/>
<line fill="none" stroke="#CE0000" stroke-width="0.24" stroke-linecap="round" stroke-linejoin="round" x1="398.157" y1="52.074" x2="389.034" y2="11.753"/>
<line fill="none" stroke="#CE0000" stroke-width="0.358" stroke-linecap="round" stroke-linejoin="round" x1="398.157" y1="52.074" x2="420.765" y2="17.273"/>
<line fill="none" stroke="#CE0000" stroke-width="0.358" stroke-linecap="round" stroke-linejoin="round" x1="398.157" y1="52.074" x2="482.343" y2="44.959"/>
<line fill="none" stroke="#CE0000" stroke-width="1.44" stroke-linecap="round" stroke-linejoin="round" x1="398.157" y1="52.074" x2="400.026" y2="74.275"/>
<line fill="none" stroke="#CE0000" stroke-width="0.358" stroke-linecap="round" stroke-linejoin="round" x1="398.157" y1="52.074" x2="317.454" y2="52.841"/>
<line fill="none" stroke="#CE0000" stroke-width="0.358" stroke-linecap="round" stroke-linejoin="round" x1="398.157" y1="52.074" x2="450.074" y2="87.267"/>
<line fill="none" stroke="#CE0000" stroke-width="0.72" stroke-linecap="round" stroke-linejoin="round" x1="398.157" y1="52.074" x2="403.405" y2="29.535"/>
<line fill="none" stroke="#CE0000" stroke-width="0.358" stroke-linecap="round" stroke-linejoin="round" x1="398.157" y1="52.074" x2="468.154" y2="63.564"/>
<line fill="none" stroke="#CE0000" stroke-width="1.92" stroke-linecap="round" stroke-linejoin="round" x1="398.157" y1="52.074" x2="422.727" y2="53.437"/>
<line fill="none" stroke="#CE0000" stroke-width="1.2" stroke-linecap="round" stroke-linejoin="round" x1="398.157" y1="52.074" x2="356.179" y2="62.896"/>
<line fill="none" stroke="#CE0000" stroke-width="1.68" stroke-linecap="round" stroke-linejoin="round" x1="398.157" y1="52.074" x2="382.323" y2="44.428"/>
<line fill="none" stroke="#CE0000" stroke-width="0.72" stroke-linecap="round" stroke-linejoin="round" x1="398.157" y1="52.074" x2="440.797" y2="36.841"/>
<g>
	<defs>
		<rect id="SVGID_9_" x="315.971" y="10.332" width="179.318" height="78.52"/>
	</defs>
	<clipPath id="SVGID_10_">
		<use xlink:href="#SVGID_9_"  overflow="visible"/>
	</clipPath>
	
		<path clip-path="url(#SVGID_10_)" fill="none" stroke="#000000" stroke-width="0.24" stroke-linecap="round" stroke-linejoin="round" stroke-dasharray="0.96,0.96" d="
		M356.179,62.896c21.53-15.206,43.06-30.416,64.586-45.622"/>
	
		<path clip-path="url(#SVGID_10_)" fill="none" stroke="#000000" stroke-width="0.24" stroke-linecap="round" stroke-linejoin="round" stroke-dasharray="0.96,0.96" d="
		M400.026,74.275c18.499-16.986,37.002-33.971,55.504-50.957"/>
	
		<path clip-path="url(#SVGID_10_)" fill="none" stroke="#000000" stroke-width="0.24" stroke-linecap="round" stroke-linejoin="round" stroke-dasharray="0.96,0.96" d="
		M450.074,87.267c14.566-19.098,29.136-38.198,43.702-57.297"/>
	
		<path clip-path="url(#SVGID_10_)" fill="none" stroke="#000000" stroke-width="0.24" stroke-linecap="round" stroke-linejoin="round" stroke-dasharray="0.96,0.96" d="
		M389.034,11.753c-23.861,13.695-47.722,27.393-71.581,41.088"/>
	
		<path clip-path="url(#SVGID_10_)" fill="none" stroke="#000000" stroke-width="0.24" stroke-linecap="round" stroke-linejoin="round" stroke-dasharray="0.96,0.96" d="
		M346.161,36.365c40.662,9.066,81.327,18.134,121.993,27.199"/>
	
		<path clip-path="url(#SVGID_10_)" fill="none" stroke="#000000" stroke-width="0.24" stroke-linecap="round" stroke-linejoin="round" stroke-dasharray="0.96,0.96" d="
		M369.571,22.925c37.591,7.344,75.182,14.69,112.771,22.034"/>
	
		<path clip-path="url(#SVGID_10_)" fill="none" stroke="#000000" stroke-width="0.24" stroke-linecap="round" stroke-linejoin="round" stroke-dasharray="0.96,0.96" d="
		M389.034,11.75c34.915,6.074,69.827,12.147,104.746,18.222"/>
	
		<path clip-path="url(#SVGID_10_)" fill="none" stroke="#000000" stroke-width="0.24" stroke-linecap="round" stroke-linejoin="round" stroke-dasharray="0.96,0.96" d="
		M317.454,52.841c44.207,11.475,88.412,22.95,132.62,34.426"/>
</g>
<line fill="none" stroke="#000000" stroke-width="1.44" stroke-linejoin="bevel" x1="396.688" y1="50.525" x2="399.787" y2="53.619"/>
<line fill="none" stroke="#000000" stroke-width="1.44" stroke-linejoin="bevel" x1="396.688" y1="53.619" x2="399.787" y2="50.525"/>
<g>
	<defs>
		<rect id="SVGID_11_" x="315.971" y="10.332" width="179.318" height="78.52"/>
	</defs>
	<clipPath id="SVGID_12_">
		<use xlink:href="#SVGID_11_"  overflow="visible"/>
	</clipPath>
	<path clip-path="url(#SVGID_12_)" fill-rule="evenodd" clip-rule="evenodd" d="M315.971,52.761c0-0.845,0.688-1.533,1.533-1.533
		c0.841,0,1.529,0.688,1.529,1.533c0,0.846-0.688,1.53-1.529,1.53C316.659,54.292,315.971,53.607,315.971,52.761"/>
	<path clip-path="url(#SVGID_12_)" fill-rule="evenodd" clip-rule="evenodd" d="M354.563,62.937c0-0.845,0.688-1.533,1.533-1.533
		c0.842,0,1.529,0.688,1.529,1.533c0,0.846-0.688,1.53-1.529,1.53C355.251,64.467,354.563,63.783,354.563,62.937"/>
	<path clip-path="url(#SVGID_12_)" fill-rule="evenodd" clip-rule="evenodd" d="M398.339,74.458c0-0.845,0.688-1.533,1.533-1.533
		c0.841,0,1.528,0.688,1.528,1.533s-0.688,1.53-1.528,1.53C399.028,75.988,398.339,75.302,398.339,74.458"/>
	<path clip-path="url(#SVGID_12_)" fill-rule="evenodd" clip-rule="evenodd" d="M448.259,87.322c0-0.846,0.688-1.533,1.533-1.533
		c0.841,0,1.529,0.688,1.529,1.533c0,0.845-0.688,1.529-1.529,1.529C448.948,88.851,448.259,88.167,448.259,87.322"/>
	<path clip-path="url(#SVGID_12_)" fill-rule="evenodd" clip-rule="evenodd" d="M466.5,63.322c0-0.846,0.688-1.533,1.533-1.533
		c0.841,0,1.528,0.688,1.528,1.533c0,0.845-0.688,1.529-1.528,1.529C467.187,64.851,466.5,64.167,466.5,63.322"/>
	<path clip-path="url(#SVGID_12_)" fill-rule="evenodd" clip-rule="evenodd" d="M480.708,45.082c0-0.846,0.688-1.533,1.533-1.533
		c0.841,0,1.528,0.688,1.528,1.533c0,0.845-0.688,1.529-1.528,1.529C481.395,46.611,480.708,45.926,480.708,45.082"/>
	<path clip-path="url(#SVGID_12_)" fill-rule="evenodd" clip-rule="evenodd" d="M439.62,36.633c0-0.845,0.688-1.532,1.533-1.532
		c0.841,0,1.528,0.688,1.528,1.532s-0.688,1.53-1.528,1.53C440.307,38.164,439.62,37.478,439.62,36.633"/>
	<path clip-path="url(#SVGID_12_)" fill-rule="evenodd" clip-rule="evenodd" d="M421.572,53.337c0-0.846,0.688-1.533,1.532-1.533
		c0.842,0,1.529,0.688,1.529,1.533c0,0.845-0.688,1.529-1.529,1.529C422.259,54.867,421.572,54.182,421.572,53.337"/>
	<path clip-path="url(#SVGID_12_)" fill-rule="evenodd" clip-rule="evenodd" d="M381.059,44.121c0-0.844,0.688-1.532,1.533-1.532
		c0.842,0,1.529,0.688,1.529,1.532c0,0.846-0.688,1.531-1.529,1.531C381.748,45.652,381.059,44.966,381.059,44.121"/>
	<path clip-path="url(#SVGID_12_)" fill-rule="evenodd" clip-rule="evenodd" d="M344.772,36.25c0-0.846,0.688-1.533,1.532-1.533
		c0.841,0,1.529,0.688,1.529,1.533c0,0.845-0.688,1.529-1.529,1.529C345.459,37.779,344.772,37.094,344.772,36.25"/>
	<path clip-path="url(#SVGID_12_)" fill-rule="evenodd" clip-rule="evenodd" d="M368.196,22.809c0-0.845,0.688-1.532,1.533-1.532
		c0.84,0,1.528,0.688,1.528,1.532s-0.688,1.53-1.528,1.53C368.883,24.339,368.196,23.654,368.196,22.809"/>
	<path clip-path="url(#SVGID_12_)" fill-rule="evenodd" clip-rule="evenodd" d="M387.395,11.865c0-0.844,0.688-1.532,1.533-1.532
		c0.842,0,1.529,0.688,1.529,1.532c0,0.846-0.688,1.531-1.529,1.531C388.083,13.396,387.395,12.71,387.395,11.865"/>
	<path clip-path="url(#SVGID_12_)" fill-rule="evenodd" clip-rule="evenodd" d="M419.459,17.049c0-0.845,0.688-1.533,1.533-1.533
		c0.841,0,1.528,0.688,1.528,1.533s-0.688,1.53-1.528,1.53C420.147,18.58,419.459,17.894,419.459,17.049"/>
	<path clip-path="url(#SVGID_12_)" fill-rule="evenodd" clip-rule="evenodd" d="M401.795,29.337c0-0.846,0.688-1.533,1.533-1.533
		c0.841,0,1.528,0.688,1.528,1.533c0,0.845-0.688,1.529-1.528,1.529C402.483,30.867,401.795,30.182,401.795,29.337"/>
	<path clip-path="url(#SVGID_12_)" fill-rule="evenodd" clip-rule="evenodd" d="M454.211,23.001c0-0.846,0.688-1.533,1.533-1.533
		c0.841,0,1.528,0.688,1.528,1.533c0,0.845-0.688,1.529-1.528,1.529C454.899,24.531,454.211,23.846,454.211,23.001"/>
	<path clip-path="url(#SVGID_12_)" fill-rule="evenodd" clip-rule="evenodd" d="M492.227,29.914c0-0.846,0.688-1.533,1.533-1.533
		c0.841,0,1.529,0.688,1.529,1.533c0,0.845-0.688,1.529-1.529,1.529C492.916,31.443,492.227,30.758,492.227,29.914"/>
</g>
<g>
	<defs>
		<polygon id="SVGID_13_" points="317.453,142.883 450.074,177.308 493.776,120.013 389.034,101.794 		"/>
	</defs>
	<clipPath id="SVGID_14_">
		<use xlink:href="#SVGID_13_"  overflow="visible"/>
	</clipPath>
	
		<linearGradient id="SVGID_15_" gradientUnits="userSpaceOnUse" x1="-148.9746" y1="394.4409" x2="-147.9746" y2="394.4409" gradientTransform="matrix(88.896 -5.952 -5.952 -88.896 15990.2422 34317.4805)">
		<stop  offset="0" style="stop-color:#FFFFFF"/>
		<stop  offset="1" style="stop-color:#EAEAEA"/>
	</linearGradient>
	<polygon clip-path="url(#SVGID_14_)" fill="url(#SVGID_15_)" points="312.419,102.132 492.989,90.042 498.809,176.971 
		318.24,189.061 	"/>
</g>
<g>
	<defs>
		<rect id="SVGID_16_" x="315.971" y="98.85" width="179.318" height="80.042"/>
	</defs>
	<clipPath id="SVGID_17_">
		<use xlink:href="#SVGID_16_"  overflow="visible"/>
	</clipPath>
	
		<path clip-path="url(#SVGID_17_)" fill="none" stroke="#000000" stroke-width="0.24" stroke-linecap="round" stroke-linejoin="round" stroke-dasharray="0.96,0.96" d="
		M356.179,152.937c21.53-15.21,43.06-30.416,64.586-45.622"/>
	
		<path clip-path="url(#SVGID_17_)" fill="none" stroke="#000000" stroke-width="0.24" stroke-linecap="round" stroke-linejoin="round" stroke-dasharray="0.96,0.96" d="
		M400.026,164.317c18.499-16.986,37.002-33.972,55.504-50.957"/>
	
		<path clip-path="url(#SVGID_17_)" fill="none" stroke="#000000" stroke-width="0.24" stroke-linecap="round" stroke-linejoin="round" stroke-dasharray="0.96,0.96" d="
		M450.074,177.308c14.566-19.098,29.136-38.197,43.702-57.296"/>
	
		<path clip-path="url(#SVGID_17_)" fill="none" stroke="#000000" stroke-width="0.24" stroke-linecap="round" stroke-linejoin="round" stroke-dasharray="0.96,0.96" d="
		M389.034,101.794c-23.861,13.696-47.722,27.393-71.581,41.089"/>
	
		<path clip-path="url(#SVGID_17_)" fill="none" stroke="#000000" stroke-width="0.24" stroke-linecap="round" stroke-linejoin="round" stroke-dasharray="0.96,0.96" d="
		M346.161,126.406c40.662,9.066,81.327,18.131,121.993,27.2"/>
	
		<path clip-path="url(#SVGID_17_)" fill="none" stroke="#000000" stroke-width="0.24" stroke-linecap="round" stroke-linejoin="round" stroke-dasharray="0.96,0.96" d="
		M369.571,112.966c37.591,7.344,75.182,14.69,112.771,22.035"/>
	
		<path clip-path="url(#SVGID_17_)" fill="none" stroke="#000000" stroke-width="0.24" stroke-linecap="round" stroke-linejoin="round" stroke-dasharray="0.96,0.96" d="
		M389.034,101.792c34.915,6.074,69.827,12.147,104.746,18.218"/>
	
		<path clip-path="url(#SVGID_17_)" fill="none" stroke="#000000" stroke-width="0.24" stroke-linecap="round" stroke-linejoin="round" stroke-dasharray="0.96,0.96" d="
		M317.454,142.883c44.207,11.475,88.412,22.949,132.62,34.426"/>
	<g opacity="0.25" clip-path="url(#SVGID_17_)">
		<g>
			<defs>
				<rect id="SVGID_18_" x="317.274" y="101.595" width="176.622" height="75.813"/>
			</defs>
			<clipPath id="SVGID_19_">
				<use xlink:href="#SVGID_18_"  overflow="visible"/>
			</clipPath>
			
				<line clip-path="url(#SVGID_19_)" fill="none" stroke="#CE0000" stroke-width="0.358" stroke-linecap="round" stroke-linejoin="round" x1="398.157" y1="142.035" x2="346.161" y2="126.326"/>
			
				<line clip-path="url(#SVGID_19_)" fill="none" stroke="#CE0000" stroke-width="0.358" stroke-linecap="round" stroke-linejoin="round" x1="398.157" y1="142.035" x2="455.53" y2="113.28"/>
			
				<line clip-path="url(#SVGID_19_)" fill="none" stroke="#CE0000" stroke-width="0.358" stroke-linecap="round" stroke-linejoin="round" x1="398.157" y1="142.035" x2="369.571" y2="112.886"/>
			<g clip-path="url(#SVGID_19_)">
				<defs>
					<rect id="SVGID_20_" x="317.274" y="101.595" width="176.622" height="75.813"/>
				</defs>
				<clipPath id="SVGID_21_">
					<use xlink:href="#SVGID_20_"  overflow="visible"/>
				</clipPath>
				
					<line clip-path="url(#SVGID_21_)" fill="none" stroke="#CE0000" stroke-width="0.24" stroke-linecap="round" stroke-linejoin="round" x1="398.157" y1="142.035" x2="493.776" y2="119.933"/>
			</g>
			
				<line clip-path="url(#SVGID_19_)" fill="none" stroke="#CE0000" stroke-width="0.24" stroke-linecap="round" stroke-linejoin="round" x1="398.157" y1="142.035" x2="389.034" y2="101.715"/>
			
				<line clip-path="url(#SVGID_19_)" fill="none" stroke="#CE0000" stroke-width="0.358" stroke-linecap="round" stroke-linejoin="round" x1="398.157" y1="142.035" x2="420.765" y2="107.235"/>
			
				<line clip-path="url(#SVGID_19_)" fill="none" stroke="#CE0000" stroke-width="0.358" stroke-linecap="round" stroke-linejoin="round" x1="398.157" y1="142.035" x2="482.343" y2="134.921"/>
			
				<line clip-path="url(#SVGID_19_)" fill="none" stroke="#CE0000" stroke-width="1.44" stroke-linecap="round" stroke-linejoin="round" x1="398.157" y1="142.035" x2="400.026" y2="164.237"/>
			<g clip-path="url(#SVGID_19_)">
				<defs>
					<rect id="SVGID_22_" x="317.274" y="101.595" width="176.622" height="75.813"/>
				</defs>
				<clipPath id="SVGID_23_">
					<use xlink:href="#SVGID_22_"  overflow="visible"/>
				</clipPath>
				
					<line clip-path="url(#SVGID_23_)" fill="none" stroke="#CE0000" stroke-width="0.358" stroke-linecap="round" stroke-linejoin="round" x1="398.157" y1="142.035" x2="317.454" y2="142.803"/>
				
					<line clip-path="url(#SVGID_23_)" fill="none" stroke="#CE0000" stroke-width="0.358" stroke-linecap="round" stroke-linejoin="round" x1="398.157" y1="142.035" x2="450.074" y2="177.229"/>
			</g>
			
				<line clip-path="url(#SVGID_19_)" fill="none" stroke="#CE0000" stroke-width="0.72" stroke-linecap="round" stroke-linejoin="round" x1="398.157" y1="142.035" x2="403.405" y2="119.497"/>
			
				<line clip-path="url(#SVGID_19_)" fill="none" stroke="#CE0000" stroke-width="0.358" stroke-linecap="round" stroke-linejoin="round" x1="398.157" y1="142.035" x2="468.154" y2="153.526"/>
			
				<line clip-path="url(#SVGID_19_)" fill="none" stroke="#CE0000" stroke-width="1.92" stroke-linecap="round" stroke-linejoin="round" x1="398.157" y1="142.035" x2="422.727" y2="143.398"/>
			
				<line clip-path="url(#SVGID_19_)" fill="none" stroke="#CE0000" stroke-width="1.2" stroke-linecap="round" stroke-linejoin="round" x1="398.157" y1="142.035" x2="356.179" y2="152.857"/>
			
				<line clip-path="url(#SVGID_19_)" fill="none" stroke="#CE0000" stroke-width="1.68" stroke-linecap="round" stroke-linejoin="round" x1="398.157" y1="142.035" x2="382.323" y2="134.39"/>
			
				<line clip-path="url(#SVGID_19_)" fill="none" stroke="#CE0000" stroke-width="0.72" stroke-linecap="round" stroke-linejoin="round" x1="398.157" y1="142.035" x2="440.797" y2="126.803"/>
		</g>
	</g>
	<path clip-path="url(#SVGID_17_)" fill-rule="evenodd" clip-rule="evenodd" fill="#CE0000" d="M449.792,177.545
		c-0.1,0-0.183-0.08-0.183-0.179v-6.353h-0.358l0.541-1.261l0.538,1.261h-0.359v6.353
		C449.971,177.465,449.891,177.545,449.792,177.545 M399.873,165.126c-0.4,0-0.721-0.324-0.721-0.72v-13.703h-1.439l2.16-5.04
		l2.159,5.04h-1.439v13.703C400.592,164.802,400.269,165.126,399.873,165.126 M468.128,153.45c-0.1,0-0.183-0.08-0.183-0.179v-7.024
		h-0.358l0.541-1.261l0.538,1.261h-0.359v7.024C468.307,153.37,468.227,153.45,468.128,153.45 M356.155,153.426
		c-0.33,0-0.6-0.268-0.6-0.601v-14.017h-1.2l1.8-4.198l1.801,4.198h-1.2v14.017C356.755,153.159,356.487,153.426,356.155,153.426
		 M423.066,144.294c-0.527,0-0.96-0.429-0.96-0.96v-22.416h-1.92l2.88-6.72l2.88,6.72h-1.92v22.416
		C424.026,143.866,423.597,144.294,423.066,144.294 M317.552,143.034c-0.099,0-0.183-0.08-0.183-0.179v-6.017h-0.358l0.541-1.261
		l0.538,1.261h-0.359v6.017C317.731,142.954,317.651,143.034,317.552,143.034 M482.24,135.257c-0.099,0-0.182-0.08-0.182-0.179
		v-6.112h-0.359l0.541-1.261l0.538,1.261h-0.358v6.112C482.419,135.177,482.339,135.257,482.24,135.257 M382.579,134.899
		c-0.463,0-0.84-0.377-0.84-0.842v-15.431h-1.681l2.521-5.878l2.52,5.878h-1.68v15.431
		C383.418,134.522,383.043,134.899,382.579,134.899 M441.104,126.896c-0.198,0-0.361-0.163-0.361-0.361v-9.78h-0.721l1.082-2.521
		l1.078,2.521h-0.72v9.78C441.462,126.733,441.302,126.896,441.104,126.896 M346.352,126.473c-0.099,0-0.182-0.08-0.182-0.179
		v-6.928h-0.359l0.541-1.261l0.538,1.261h-0.358v6.928C346.532,126.393,346.452,126.473,346.352,126.473 M493.76,120.029
		c-0.067,0-0.122-0.052-0.122-0.118v-1.981h-0.24l0.362-0.839l0.358,0.839h-0.24v1.981
		C493.878,119.977,493.824,120.029,493.76,120.029 M403.329,119.644c-0.198,0-0.362-0.159-0.362-0.357v-9.061h-0.72l1.082-2.521
		l1.077,2.521h-0.72v9.061C403.686,119.485,403.526,119.644,403.329,119.644 M455.745,113.274c-0.1,0-0.183-0.08-0.183-0.18v-4.672
		h-0.358l0.541-1.261l0.537,1.261h-0.358v4.672C455.923,113.194,455.843,113.274,455.745,113.274 M369.776,113.082
		c-0.099,0-0.182-0.08-0.182-0.179v-4.672h-0.359l0.541-1.262l0.538,1.262h-0.358v4.672
		C369.956,113.001,369.875,113.082,369.776,113.082 M421.088,107.129c-0.1,0-0.183-0.08-0.183-0.179v-4.096h-0.358l0.541-1.262
		l0.538,1.262h-0.359v4.096C421.267,107.049,421.187,107.129,421.088,107.129 M388.928,101.789c-0.066,0-0.122-0.051-0.122-0.118
		v-1.98h-0.24l0.362-0.84l0.357,0.84h-0.239v1.98C389.046,101.738,388.993,101.789,388.928,101.789"/>
	<path clip-path="url(#SVGID_17_)" fill-rule="evenodd" clip-rule="evenodd" d="M315.971,142.799c0-0.842,0.688-1.529,1.533-1.529
		c0.841,0,1.529,0.688,1.529,1.529c0,0.846-0.688,1.533-1.529,1.533C316.659,144.333,315.971,143.645,315.971,142.799"/>
	<path clip-path="url(#SVGID_17_)" fill-rule="evenodd" clip-rule="evenodd" d="M354.563,152.976c0-0.843,0.688-1.53,1.533-1.53
		c0.842,0,1.529,0.688,1.529,1.53c0,0.845-0.688,1.532-1.529,1.532C355.251,154.508,354.563,153.821,354.563,152.976"/>
	<path clip-path="url(#SVGID_17_)" fill-rule="evenodd" clip-rule="evenodd" d="M398.339,164.496c0-0.842,0.688-1.53,1.533-1.53
		c0.841,0,1.528,0.688,1.528,1.53c0,0.845-0.688,1.533-1.528,1.533C399.028,166.029,398.339,165.34,398.339,164.496"/>
	<path clip-path="url(#SVGID_17_)" fill-rule="evenodd" clip-rule="evenodd" d="M448.259,177.36c0-0.842,0.688-1.53,1.533-1.53
		c0.841,0,1.529,0.688,1.529,1.53c0,0.845-0.688,1.533-1.529,1.533C448.948,178.893,448.259,178.205,448.259,177.36"/>
	<path clip-path="url(#SVGID_17_)" fill-rule="evenodd" clip-rule="evenodd" d="M466.5,153.36c0-0.842,0.688-1.53,1.533-1.53
		c0.841,0,1.528,0.688,1.528,1.53c0,0.845-0.688,1.533-1.528,1.533C467.187,154.893,466.5,154.205,466.5,153.36"/>
	<path clip-path="url(#SVGID_17_)" fill-rule="evenodd" clip-rule="evenodd" d="M480.708,135.12c0-0.842,0.688-1.53,1.533-1.53
		c0.841,0,1.528,0.688,1.528,1.53c0,0.845-0.688,1.533-1.528,1.533C481.395,136.653,480.708,135.964,480.708,135.12"/>
	<path clip-path="url(#SVGID_17_)" fill-rule="evenodd" clip-rule="evenodd" d="M439.62,126.671c0-0.842,0.688-1.529,1.533-1.529
		c0.841,0,1.528,0.688,1.528,1.529c0,0.846-0.688,1.533-1.528,1.533C440.307,128.205,439.62,127.517,439.62,126.671"/>
	<path clip-path="url(#SVGID_17_)" fill-rule="evenodd" clip-rule="evenodd" d="M421.572,143.375c0-0.842,0.688-1.53,1.532-1.53
		c0.842,0,1.529,0.688,1.529,1.53c0,0.845-0.688,1.533-1.529,1.533C422.259,144.909,421.572,144.22,421.572,143.375"/>
	<path clip-path="url(#SVGID_17_)" fill-rule="evenodd" clip-rule="evenodd" d="M381.059,134.16c0-0.842,0.688-1.53,1.533-1.53
		c0.842,0,1.529,0.688,1.529,1.53c0,0.845-0.688,1.533-1.529,1.533C381.748,135.693,381.059,135.004,381.059,134.16"/>
	<path clip-path="url(#SVGID_17_)" fill-rule="evenodd" clip-rule="evenodd" d="M344.772,126.288c0-0.842,0.688-1.53,1.532-1.53
		c0.841,0,1.529,0.688,1.529,1.53c0,0.845-0.688,1.533-1.529,1.533C345.459,127.821,344.772,127.132,344.772,126.288"/>
	<path clip-path="url(#SVGID_17_)" fill-rule="evenodd" clip-rule="evenodd" d="M368.196,112.848c0-0.843,0.688-1.53,1.533-1.53
		c0.84,0,1.528,0.688,1.528,1.53c0,0.845-0.688,1.532-1.528,1.532C368.883,114.38,368.196,113.693,368.196,112.848"/>
	<path clip-path="url(#SVGID_17_)" fill-rule="evenodd" clip-rule="evenodd" d="M387.395,101.904c0-0.842,0.688-1.53,1.533-1.53
		c0.842,0,1.529,0.688,1.529,1.53c0,0.845-0.688,1.533-1.529,1.533C388.083,103.437,387.395,102.749,387.395,101.904"/>
	<path clip-path="url(#SVGID_17_)" fill-rule="evenodd" clip-rule="evenodd" d="M419.459,107.087c0-0.842,0.688-1.529,1.533-1.529
		c0.841,0,1.528,0.688,1.528,1.529c0,0.846-0.688,1.533-1.528,1.533C420.147,108.621,419.459,107.933,419.459,107.087"/>
	<path clip-path="url(#SVGID_17_)" fill-rule="evenodd" clip-rule="evenodd" d="M401.795,119.375c0-0.842,0.688-1.53,1.533-1.53
		c0.841,0,1.528,0.688,1.528,1.53c0,0.845-0.688,1.533-1.528,1.533C402.483,120.909,401.795,120.22,401.795,119.375"/>
	<path clip-path="url(#SVGID_17_)" fill-rule="evenodd" clip-rule="evenodd" d="M454.211,113.04c0-0.842,0.688-1.53,1.533-1.53
		c0.841,0,1.528,0.688,1.528,1.53c0,0.845-0.688,1.533-1.528,1.533C454.899,114.573,454.211,113.884,454.211,113.04"/>
	<path clip-path="url(#SVGID_17_)" fill-rule="evenodd" clip-rule="evenodd" d="M492.227,119.952c0-0.842,0.688-1.53,1.533-1.53
		c0.841,0,1.529,0.688,1.529,1.53c0,0.845-0.688,1.533-1.529,1.533C492.916,121.485,492.227,120.796,492.227,119.952"/>
	
		<line clip-path="url(#SVGID_17_)" fill="none" stroke="#000000" stroke-width="1.44" stroke-linejoin="bevel" x1="396.688" y1="140.563" x2="399.787" y2="143.661"/>
	
		<line clip-path="url(#SVGID_17_)" fill="none" stroke="#000000" stroke-width="1.44" stroke-linejoin="bevel" x1="396.688" y1="143.661" x2="399.787" y2="140.567"/>
</g>
</svg>
