<?xml version="1.0" encoding="utf-8"?>
<!-- Generator: Adobe Illustrator 14.0.0, SVG Export Plug-In . SVG Version: 6.00 Build 43363)  -->
<!DOCTYPE svg PUBLIC "-//W3C//DTD SVG 1.0//EN" "http://www.w3.org/TR/2001/REC-SVG-20010904/DTD/svg10.dtd">
<svg version="1.0" xmlns="http://www.w3.org/2000/svg" xmlns:xlink="http://www.w3.org/1999/xlink" x="0px" y="0px"
	 width="56.725px" height="56.7px" viewBox="0 0 56.725 56.7" enable-background="new 0 0 56.725 56.7" xml:space="preserve">
<g id="Grids">
	<g>
		
			<line fill-rule="evenodd" clip-rule="evenodd" fill="none" stroke="#8A8A8A" stroke-width="0.27" x1="0.17" y1="0" x2="0.17" y2="56.7"/>
		
			<line fill-rule="evenodd" clip-rule="evenodd" fill="none" stroke="#8A8A8A" stroke-width="0.27" x1="28.38" y1="28.35" x2="28.38" y2="56.7"/>
		
			<line fill-rule="evenodd" clip-rule="evenodd" fill="none" stroke="#8A8A8A" stroke-width="0.27" x1="42.42" y1="0" x2="42.42" y2="56.7"/>
		
			<line fill-rule="evenodd" clip-rule="evenodd" fill="none" stroke="#8A8A8A" stroke-width="0.27" x1="56.59" y1="0" x2="56.59" y2="56.7"/>
		
			<line fill-rule="evenodd" clip-rule="evenodd" fill="none" stroke="#8A8A8A" stroke-width="0.27" x1="28.38" y1="28.35" x2="0.03" y2="28.35"/>
		
			<line fill-rule="evenodd" clip-rule="evenodd" fill="none" stroke="#8A8A8A" stroke-width="0.27" x1="56.72" y1="14.3" x2="0.03" y2="14.3"/>
		
			<line fill-rule="evenodd" clip-rule="evenodd" fill="none" stroke="#8A8A8A" stroke-width="0.27" x1="56.72" y1="0.14" x2="0.03" y2="0.14"/>
		
			<line fill-rule="evenodd" clip-rule="evenodd" fill="none" stroke="#8A8A8A" stroke-width="0.27" x1="56.72" y1="56.56" x2="0.03" y2="56.56"/>
		
			<line fill-rule="evenodd" clip-rule="evenodd" fill="none" stroke="#8A8A8A" stroke-width="0.27" x1="56.72" y1="28.35" x2="28.38" y2="28.35"/>
		
			<line fill-rule="evenodd" clip-rule="evenodd" fill="none" stroke="#8A8A8A" stroke-width="0.27" x1="28.38" y1="0" x2="28.38" y2="28.35"/>
		
			<line fill-rule="evenodd" clip-rule="evenodd" fill="none" stroke="#8A8A8A" stroke-width="0.27" x1="14.33" y1="56.7" x2="14.33" y2="42.48"/>
		
			<line fill-rule="evenodd" clip-rule="evenodd" fill="none" stroke="#8A8A8A" stroke-width="0.27" x1="0.03" y1="42.4" x2="14.08" y2="42.4"/>
		<line fill-rule="evenodd" clip-rule="evenodd" fill="none" stroke="#12AB00" x1="14.33" y1="0" x2="14.33" y2="42.48"/>
		<line fill-rule="evenodd" clip-rule="evenodd" fill="none" stroke="#A80000" x1="56.72" y1="42.4" x2="14.08" y2="42.4"/>
	</g>
</g>
<g id="Text">
	<path fill-rule="evenodd" clip-rule="evenodd" d="M48.43,9.56l1.41-0.31c0.1,0.24,0.19,0.49,0.25,0.74
		c0.08,0.37,0.16,0.8,0.21,1.31c0.03,0.25,0.06,0.79,0.11,1.61c0.41-0.45,0.65-0.73,0.73-0.83c0.43-0.59,0.67-0.93,0.74-1.03
		c0.11-0.17,0.18-0.32,0.22-0.45c0.04-0.1,0.06-0.19,0.06-0.28c0-0.09-0.08-0.18-0.23-0.3c-0.15-0.11-0.23-0.23-0.23-0.37
		c0-0.1,0.04-0.19,0.13-0.27c0.08-0.09,0.18-0.13,0.29-0.13c0.14,0,0.26,0.06,0.36,0.17c0.11,0.11,0.16,0.25,0.16,0.42
		c0,0.17-0.03,0.32-0.08,0.48c-0.08,0.24-0.24,0.55-0.47,0.9c-0.23,0.36-0.6,0.84-1.12,1.44c-0.06,0.07-0.43,0.45-1.08,1.13h-0.18
		c-0.08-2.06-0.24-3.35-0.49-3.86C49.14,9.77,49,9.68,48.81,9.68c-0.08,0-0.19,0.02-0.34,0.05L48.43,9.56z"/>
	<path fill-rule="evenodd" clip-rule="evenodd" d="M19.46,32.22l0.34,3.67c0.57-0.67,1.02-1.29,1.36-1.87
		c0.2-0.35,0.29-0.59,0.29-0.75c0-0.07-0.01-0.13-0.04-0.19c-0.02-0.03-0.07-0.07-0.16-0.13c-0.09-0.05-0.15-0.11-0.19-0.17
		c-0.03-0.06-0.05-0.13-0.05-0.2c0-0.1,0.04-0.18,0.11-0.25c0.08-0.07,0.17-0.11,0.29-0.11c0.13,0,0.25,0.05,0.34,0.15
		c0.09,0.1,0.14,0.23,0.14,0.4s-0.03,0.33-0.07,0.47c-0.1,0.28-0.29,0.64-0.58,1.09c-0.34,0.53-0.7,1.02-1.06,1.47
		c-0.37,0.46-0.64,0.78-0.82,0.96h-0.18l-0.32-3.38l-2.01,3.38h-0.22c-0.02-1.39-0.09-2.49-0.21-3.29
		c-0.05-0.34-0.13-0.56-0.24-0.66c-0.09-0.08-0.21-0.11-0.37-0.11c-0.1,0-0.22,0.01-0.37,0.03v-0.18l1.41-0.33
		c0.19,0.55,0.32,1.38,0.38,2.51c0.02,0.42,0.03,0.69,0.04,0.8l2.01-3.31H19.46z"/>
	<polygon fill-rule="evenodd" clip-rule="evenodd" points="21.27,31.03 21.43,30.55 15.1,30.55 15.1,30.3 21.43,30.3 21.27,29.83 
		23.07,30.43 	"/>
	<polygon fill-rule="evenodd" clip-rule="evenodd" points="52.02,8.53 52.18,8.05 48.67,8.05 48.67,7.8 52.18,7.8 52.02,7.33 
		53.82,7.93 	"/>
</g>
<g id="Other">
	<path fill-rule="evenodd" clip-rule="evenodd" fill="#BDFF00" d="M0,42.39c0-7.83,6.36-14.18,14.18-14.18
		c7.82,0,14.17,6.35,14.17,14.18c0,7.82-6.35,14.17-14.17,14.17C6.36,56.56,0,50.21,0,42.39z"/>
</g>
<g id="Vectors">
	<polygon fill-rule="evenodd" clip-rule="evenodd" fill="#FF7D00" points="25.92,34.32 25.32,33.52 48.35,16.37 47.49,15.77 
		51.99,14.29 49.28,18.17 48.95,17.17 	"/>
	<polygon fill-rule="evenodd" clip-rule="evenodd" points="14.63,42.72 14.03,41.92 22.03,35.97 21.16,35.37 25.66,33.88 
		22.95,37.77 22.62,36.77 	"/>
</g>
</svg>
