<?xml version="1.0" encoding="utf-8"?>
<!-- Generator: Adobe Illustrator 14.0.0, SVG Export Plug-In . SVG Version: 6.00 Build 43363)  -->
<!DOCTYPE svg PUBLIC "-//W3C//DTD SVG 1.1//EN" "http://www.w3.org/Graphics/SVG/1.1/DTD/svg11.dtd">
<svg version="1.1" xmlns="http://www.w3.org/2000/svg" xmlns:xlink="http://www.w3.org/1999/xlink" x="0px" y="0px"
	 width="593.828px" height="394.72px" viewBox="0 0 593.828 394.72" enable-background="new 0 0 593.828 394.72"
	 xml:space="preserve">
<g id="Shapes">
	<path fill-rule="evenodd" clip-rule="evenodd" fill="#DE0000" d="M350.15,314.4c7.801-1.721,13.63-8.68,13.63-17
		c0-4.88-2-9.29-5.239-12.45c-4.03-3.939-6.25-9.37-6.141-15.01c0.02-1.2,0.01-2.399-0.02-3.6c-0.23-7.841,4.039-15.12,11-18.75
		c13.079-6.8,20.24-21.011,18.47-35.19c-0.61-4.89,0.229-8.851,2.76-13.07c1.78-2.96,3.33-6.05,4.65-9.229
		c3.72-8.97,13.22-14.09,22.75-12.27c2.04,0.39,4.1,0.57,6.18,0.51c2.44-0.06,4.88-0.44,7.31-1.17
		c19.561-5.87,27.371-30.93,20.341-54.38c-7.07-23.6-27.48-40.02-46.91-34.18c-0.761,0.23-1.49,0.48-2.2,0.76
		c-6.35,2.5-13.529,1.67-19.14-2.21c-21.11-14.6-47.89-20.19-73.851-14.13c-2.729,0.64-5.33,0.72-8.1,0.25
		c-1.38-0.24-2.77-0.39-4.17-0.46c-1.11,0-2.23,0-3.34,0c-5.95,0.29-11.8,2.09-16.92,5.31c-4.45,2.79-9.81,3.77-14.96,2.73
		c-7.19-1.46-14.62-2.23-22.22-2.23c-7.61,0-15.05,0.77-22.23,2.22c-5.15,1.05-10.5,0.07-14.94-2.72c-1.72-1.08-3.52-2-5.38-2.75
		c-5.35-2.18-9.53-6.52-11.51-11.95c-4.95-13.62-22.62-20.17-39.65-16.54c-17.15,3.66-30.51,16.73-29.46,31.24
		c0.44,6-1.78,11.89-6.08,16.1c-3.65,3.58-6.97,7.57-9.87,11.95c-2.54,3.83-5.54,6.22-9.84,7.84c-7.58,2.86-12.97,10.18-12.97,18.75
		c0,4.58,1.53,8.79,4.11,12.17c5.02,6.55,5.61,15.48,1.49,22.63c-1.19,2.07-1.87,4.46-1.87,7.01c0,6.65,4.62,12.22,10.83,13.68
		c6.85,1.62,12.39,6.64,14.67,13.3c4.48,13.09,16.58,22.79,31.23,23.53c19.2,0.979,35.59-13.83,36.55-33.041
		c0.17-3.29,0.33-6.59,0.5-9.88c0.58-11.39-4.45-22.22-13.26-29.15c-0.77-0.52-1.53-1.04-2.3-1.56c-0.36-0.38-0.72-0.76-1.08-1.14
		c-0.94-1.39-1.14-3.24-0.41-4.85c0.73-1.61,2.26-2.68,3.92-2.88c0.35,0.01,0.7,0.02,1.04,0.03c1.6,0.55,3.19,1.09,4.78,1.63
		c10.87,3.66,22.84,1.76,32.03-5.11c1.61-1.2,3.22-2.41,4.83-3.61c9.62-7.2,14.46-18.44,13.93-29.61c-0.03-0.25-0.07-0.5-0.11-0.75
		c1-0.26,1.99-0.52,2.98-0.78c5.83-1.22,11.87-1.86,18.07-1.86c6.3,0,12.44,0.66,18.37,1.93c0.88,0.23,1.76,0.47,2.63,0.71
		c-0.02,0.25-0.04,0.5-0.07,0.75c-0.53,11.17,4.31,22.41,13.93,29.61c2.39,1.78,4.78,3.57,7.17,5.35
		c10.96,8.21,25.72,9.22,37.71,2.6c1.06-0.59,2.13-1.17,3.2-1.76c0.34-0.13,0.689-0.26,1.04-0.39c11.159-3.42,23.34,2.1,27.97,13.08
		c4.21,9.97,12.521,16.96,22.141,19.83c0.35,0.08,0.689,0.16,1.039,0.24c-0.619,2.06-1.24,4.12-1.85,6.18
		c-1.01,1.94-2.03,3.87-3.04,5.81c-1.3-0.68-2.59-1.36-3.89-2.04c-8.26-3.36-17.801-3.57-26.66,0.17
		c-1.42,0.41-2.84,0.82-4.261,1.24c-0.75,0.04-1.5,0.08-2.25,0.12c-14.119,0.71-26.409,9.88-31.109,23.219
		c-0.64,1.82-1.29,3.65-1.93,5.48c-0.75,1.9-1.67,3.9-2.75,5.9c-1.13,1.88-2.26,3.75-3.38,5.63c-0.92,1.22-1.83,2.439-2.74,3.66
		c-7.59,10.14-9.07,23.609-3.87,35.17c0.39,0.87,0.78,1.729,1.17,2.6c0.05,0.26,0.09,0.521,0.14,0.78c0.04,1.46-0.57,2.88-1.68,3.87
		c-1.03,0.909-2.27,1.32-3.61,1.24c-0.66-0.051-1.3-0.211-1.87-0.47c-0.31-0.241-0.63-0.48-0.94-0.721
		c-0.63-0.91-1.26-1.81-1.89-2.72c-6.86-9.87-18.35-15.51-30.37-14.9c-0.11,0.01-0.23,0.01-0.35,0.021
		c-17.18,0.87-31.17,14.17-32.9,31.3c-0.19,1.93-0.39,3.859-0.59,5.79c-0.23,0.8-0.47,1.61-0.71,2.41
		c-2.96,7.47-10.29,12.74-18.76,12.74c-7.21,0-13.6-3.781-17.21-9.65c-10.06-16.39-31.54-21.52-47.92-11.45
		c-2.81,1.73-5.29,3.79-7.42,6.1c-2.82,3.07-5.89,4.92-9.93,5.97c-10.39,2.69-18.06,12.131-18.06,23.361
		c0,9.859,5.92,18.35,14.4,22.089c5.19,2.3,9.2,6.65,11.06,12.011c2.06,5.939,7.71,10.21,14.36,10.21c1.45,0,2.85-0.21,4.18-0.59
		c5.04-1.44,10.45-0.9,15.1,1.52c8.06,4.21,16.85,7.22,26.12,8.82c5.41,0.93,10.22,3.99,13.34,8.49
		c4.57,6.569,12.17,10.88,20.77,10.88c12.58,0,23.02-9.21,24.95-21.25c0.86-5.421,3.86-10.25,8.32-13.44
		c4.58-3.26,8.84-6.939,12.72-10.98c4.33-4.509,10.49-6.789,16.71-6.189c0.88,0.08,1.75,0.15,2.63,0.2
		c9.64,0.6,19.43-0.681,28.761-3.87c5.029-1.71,10.529-1.41,15.329,0.859c2.25,1.051,4.771,1.65,7.43,1.65
		c9.591,0,17.381-7.76,17.421-17.35C342.15,319.57,345.48,315.44,350.15,314.4z"/>
	<g>
		<path fill-rule="evenodd" clip-rule="evenodd" fill="#FFBD00" d="M388.06,140.42c-5.57-18.6,1.02-37.04,14.72-41.15
			c13.7-4.12,29.351,7.64,34.93,26.24c5.581,18.6-1.009,37.03-14.72,41.15C409.291,170.77,393.64,159.02,388.06,140.42z"/>
		<path fill-rule="evenodd" clip-rule="evenodd" fill="#FFBD00" d="M78.99,132.84c0-6.83,5.54-12.37,12.37-12.37
			c6.83,0,12.38,5.54,12.38,12.37s-5.55,12.38-12.38,12.38C84.53,145.22,78.99,139.67,78.99,132.84z"/>
		<path fill-rule="evenodd" clip-rule="evenodd" fill="#FFBD00" d="M118.97,79.26c-2.33-10.93,7.68-22.33,22.34-25.46
			s28.45,3.2,30.78,14.12c2.33,10.93-7.67,22.34-22.33,25.46C135.1,96.51,121.3,90.19,118.97,79.26z"/>
		<path fill-rule="evenodd" clip-rule="evenodd" fill="#FFBD00" d="M336.61,298.209c0-5.58,4.54-10.119,10.13-10.119
			c5.58,0,10.12,4.539,10.12,10.119c0,5.59-4.54,10.131-10.12,10.131C341.15,308.34,336.61,303.799,336.61,298.209z"/>
		<path fill-rule="evenodd" clip-rule="evenodd" fill="#FFBD00" d="M191.11,370.59c0-9.11,7.39-16.5,16.5-16.5
			c9.11,0,16.5,7.39,16.5,16.5c0,9.109-7.39,16.5-16.5,16.5C198.5,387.09,191.11,379.7,191.11,370.59z"/>
		<path fill-rule="evenodd" clip-rule="evenodd" fill="#FFBD00" d="M314.86,325.21c0-5.581,4.54-10.12,10.13-10.12
			s10.12,4.539,10.12,10.12c0,5.589-4.53,10.13-10.12,10.13S314.86,330.799,314.86,325.21z"/>
		<path fill-rule="evenodd" clip-rule="evenodd" fill="#FFBD00" d="M96.61,322.22c0-8.49,6.89-15.38,15.38-15.38
			c8.48,0,15.37,6.89,15.37,15.38c0,8.479-6.89,15.37-15.37,15.37C103.5,337.59,96.61,330.7,96.61,322.22z"/>
		<circle fill-rule="evenodd" clip-rule="evenodd" fill="#FFBD00" cx="89.11" cy="174.84" r="6.75"/>
		<path fill-rule="evenodd" clip-rule="evenodd" fill="#FFBD00" d="M119.86,351.47c0-4.351,3.53-7.88,7.88-7.88
			c4.34,0,7.87,3.529,7.87,7.88c0,4.34-3.53,7.87-7.87,7.87C123.39,359.34,119.86,355.81,119.86,351.47z"/>
	</g>
	<g>
		<radialGradient id="SVGID_1_" cx="257.4897" cy="250.2192" r="55.409" gradientUnits="userSpaceOnUse">
			<stop  offset="0" style="stop-color:#E3E3E3"/>
			<stop  offset="0.1738" style="stop-color:#DFDFDF"/>
			<stop  offset="0.354" style="stop-color:#D2D2D2"/>
			<stop  offset="0.537" style="stop-color:#BEBEBE"/>
			<stop  offset="0.7221" style="stop-color:#A1A1A1"/>
			<stop  offset="0.907" style="stop-color:#7C7C7C"/>
			<stop  offset="1" style="stop-color:#666666"/>
		</radialGradient>
		<path fill-rule="evenodd" clip-rule="evenodd" fill="url(#SVGID_1_)" stroke="#000000" stroke-width="10" d="M307.791,242.73
			c14.629,16.54,13.08,41.83-3.461,56.46c-16.54,14.63-41.839,13.08-56.469-3.46c-4.25-4.801-7.13-10.34-8.68-16.15
			c-3.79-14.18,47.5-53.52,62.35-42.58C303.77,238.65,305.871,240.56,307.791,242.73z"/>
		<radialGradient id="SVGID_2_" cx="137.6807" cy="133.4897" r="61.1926" gradientUnits="userSpaceOnUse">
			<stop  offset="0" style="stop-color:#E3E3E3"/>
			<stop  offset="0.193" style="stop-color:#DFDFDF"/>
			<stop  offset="0.3929" style="stop-color:#D2D2D2"/>
			<stop  offset="0.5961" style="stop-color:#BEBEBE"/>
			<stop  offset="0.8002" style="stop-color:#A1A1A1"/>
			<stop  offset="1" style="stop-color:#7D7D7D"/>
		</radialGradient>
		<path fill-rule="evenodd" clip-rule="evenodd" fill="url(#SVGID_2_)" stroke="#000000" stroke-width="10" d="M140.07,184.09
			c-20.1-9.13-29-32.86-19.87-52.97c9.13-20.1,32.86-29.01,52.96-19.88c5.84,2.66,10.73,6.54,14.51,11.2
			c9.25,11.41-21.52,68.25-39.55,64.32C145.41,186.17,142.71,185.28,140.07,184.09z"/>
		<radialGradient id="SVGID_3_" cx="186.6499" cy="143.8306" r="156.3078" gradientUnits="userSpaceOnUse">
			<stop  offset="0" style="stop-color:#FFFFFF"/>
			<stop  offset="0.2201" style="stop-color:#FBFBFB"/>
			<stop  offset="0.4481" style="stop-color:#EEEEEE"/>
			<stop  offset="0.6798" style="stop-color:#DADADA"/>
			<stop  offset="0.9126" style="stop-color:#BDBDBD"/>
			<stop  offset="1" style="stop-color:#B0B0B0"/>
		</radialGradient>
		<path fill-rule="evenodd" clip-rule="evenodd" fill="url(#SVGID_3_)" stroke="#000000" stroke-width="10" d="M233.9,90.47
			c55.29,0,100.16,44.87,100.16,100.16c0,55.291-44.87,100.161-100.16,100.161c-55.29,0-100.16-44.87-100.16-100.161
			C133.74,135.34,178.61,90.47,233.9,90.47z"/>
		<radialGradient id="SVGID_4_" cx="287.2603" cy="139.6001" r="99.4533" gradientUnits="userSpaceOnUse">
			<stop  offset="0" style="stop-color:#E3E3E3"/>
			<stop  offset="0.193" style="stop-color:#DFDFDF"/>
			<stop  offset="0.3929" style="stop-color:#D2D2D2"/>
			<stop  offset="0.5961" style="stop-color:#BEBEBE"/>
			<stop  offset="0.8002" style="stop-color:#A1A1A1"/>
			<stop  offset="1" style="stop-color:#7D7D7D"/>
		</radialGradient>
		<path fill-rule="evenodd" clip-rule="evenodd" fill="url(#SVGID_4_)" stroke="#000000" stroke-width="10" d="M302.43,110.01
			c29.57-12.48,63.7,1.39,76.18,30.96c12.48,29.57-1.39,63.701-30.97,76.18c-8.58,3.63-17.55,5.029-26.27,4.47
			c-21.291-1.37-51.701-90.27-29.74-105.65C294.95,113.65,298.55,111.64,302.43,110.01z"/>
		<radialGradient id="SVGID_5_" cx="162.9302" cy="266.5005" r="80.7628" gradientUnits="userSpaceOnUse">
			<stop  offset="0" style="stop-color:#B0B0B0"/>
			<stop  offset="0.193" style="stop-color:#ACACAC"/>
			<stop  offset="0.3929" style="stop-color:#9F9F9F"/>
			<stop  offset="0.5961" style="stop-color:#8B8B8B"/>
			<stop  offset="0.8002" style="stop-color:#6E6E6E"/>
			<stop  offset="1" style="stop-color:#4A4A4A"/>
		</radialGradient>
		<path fill-rule="evenodd" clip-rule="evenodd" fill="url(#SVGID_5_)" stroke="#000000" stroke-width="10" d="M243.99,287.57
			c0,30.5-24.75,55.25-55.25,55.25s-55.25-24.75-55.25-55.25c0-16.63,7.49-31.47,19-41.68C170.75,229.7,243.99,257.08,243.99,287.57
			z"/>
	</g>
	<g id="XMLID_1_">
		<g>
			<linearGradient id="SVGID_6_" gradientUnits="userSpaceOnUse" x1="403.1733" y1="77.4053" x2="412.8784" y2="114.6059">
				<stop  offset="0" style="stop-color:#3F8F22"/>
				<stop  offset="0.2456" style="stop-color:#2C6518"/>
				<stop  offset="0.5957" style="stop-color:#152F0B"/>
				<stop  offset="0.8578" style="stop-color:#060D03"/>
				<stop  offset="1" style="stop-color:#000000"/>
			</linearGradient>
			<path fill="url(#SVGID_6_)" d="M425.22,114.61l-22.13,8.04c-2.9-4.78-2.061-10.78,1.68-14.6l0.16-0.16l-0.04-0.11
				c-3.79-10.82-4.11-21.83-3.73-31.85l8,0.3c-0.359,9.33-0.029,18.73,2.891,27.75l0.17,0.51l0.56-0.04
				c4.25-0.2,8.48,1.87,10.841,5.77C424.46,111.61,424.99,113.1,425.22,114.61z"/>
		</g>
		<g>
		</g>
	</g>
	<linearGradient id="SVGID_7_" gradientUnits="userSpaceOnUse" x1="536.3384" y1="91.9097" x2="429.5883" y2="91.9097">
		<stop  offset="0" style="stop-color:#FFFFFF"/>
		<stop  offset="0.5562" style="stop-color:#61BA40"/>
		<stop  offset="1" style="stop-color:#000000"/>
	</linearGradient>
	<path fill-rule="evenodd" clip-rule="evenodd" fill="url(#SVGID_7_)" d="M410.69,122.04l-1.6-3.68
		c86.02-35.98,59.35-100.82,126.47-105.32v157.5C481.94,175.79,482.51,92.73,410.69,122.04z"/>
	
		<circle fill-rule="evenodd" clip-rule="evenodd" fill="#6EFF36" stroke="#177000" stroke-width="2.02" cx="500.03" cy="87.54" r="2.178"/>
	<path fill-rule="evenodd" clip-rule="evenodd" fill="#6EFF36" stroke="#177000" stroke-width="2.02" d="M522.43,74.95
		c2.85-2.85,7.489-2.85,10.34,0c2.86,2.86,2.86,7.49,0,10.34c-2.851,2.86-7.49,2.86-10.34,0C519.57,82.44,519.57,77.81,522.43,74.95
		z"/>
	<path fill-rule="evenodd" clip-rule="evenodd" fill="#6EFF36" stroke="#177000" stroke-width="2.02" d="M515.621,89.82
		c1.89-1.89,4.959-1.89,6.839,0c1.891,1.89,1.891,4.96,0,6.85c-1.88,1.89-4.949,1.89-6.839,0
		C513.73,94.78,513.73,91.71,515.621,89.82z"/>
	
		<circle fill-rule="evenodd" clip-rule="evenodd" fill="#6EFF36" stroke="#177000" stroke-width="2.02" cx="522.275" cy="107.885" r="6.173"/>
	<path fill-rule="evenodd" clip-rule="evenodd" fill="#6EFF36" stroke="#177000" stroke-width="2.02" d="M512.621,121.05
		c1.449-1.44,3.789-1.44,5.239,0c1.44,1.45,1.44,3.79,0,5.23c-1.45,1.45-3.79,1.45-5.239,0
		C511.18,124.84,511.18,122.5,512.621,121.05z"/>
	<path fill-rule="evenodd" clip-rule="evenodd" fill="#6EFF36" stroke="#177000" stroke-width="2.02" d="M502.69,94.76
		c1.89-1.89,4.95-1.89,6.84,0s1.89,4.96,0,6.85s-4.95,1.89-6.84,0S500.8,96.65,502.69,94.76z"/>
	<path fill-rule="evenodd" clip-rule="evenodd" fill="#6EFF36" stroke="#177000" stroke-width="2.02" d="M505.69,76.08
		c2.33-2.33,6.12-2.33,8.45,0c2.34,2.34,2.34,6.13,0,8.46c-2.33,2.34-6.12,2.34-8.45,0C503.35,82.21,503.35,78.42,505.69,76.08z"/>
	<path fill-rule="evenodd" clip-rule="evenodd" fill="#6EFF36" stroke="#177000" stroke-width="2.02" d="M526.48,118.94
		c1.67-1.67,4.37-1.67,6.04,0s1.67,4.37,0,6.04c-1.67,1.66-4.37,1.66-6.04,0C524.81,123.31,524.81,120.61,526.48,118.94z"/>
	<path fill-rule="evenodd" clip-rule="evenodd" fill="#6EFF36" stroke="#177000" stroke-width="2.02" d="M507.701,134.76
		c2.479-2.48,6.509-2.48,8.989,0c2.49,2.49,2.49,6.52,0,9c-2.48,2.48-6.51,2.48-8.989,0
		C505.209,141.28,505.209,137.25,507.701,134.76z"/>
	
		<circle fill-rule="evenodd" clip-rule="evenodd" fill="#6EFF36" stroke="#177000" stroke-width="2.02" cx="506.871" cy="112.26" r="4.836"/>
	<path fill-rule="evenodd" clip-rule="evenodd" fill="#6EFF36" stroke="#177000" stroke-width="2.02" d="M497.74,123.29
		c1.891-1.89,4.961-1.89,6.851,0c1.89,1.89,1.89,4.95,0,6.84s-4.96,1.89-6.851,0C495.85,128.24,495.85,125.18,497.74,123.29z"/>
	<path fill-rule="evenodd" clip-rule="evenodd" fill="#6EFF36" stroke="#177000" stroke-width="2.02" d="M523.919,134.25
		c1.301-1.29,3.4-1.29,4.701,0c1.289,1.3,1.289,3.4,0,4.7c-1.301,1.29-3.4,1.29-4.701,0C522.63,137.65,522.63,135.55,523.919,134.25
		z"/>
	<path fill-rule="evenodd" clip-rule="evenodd" fill="none" stroke="#000000" stroke-width="4" stroke-linejoin="bevel" d="
		M264.99,248.72C295.36,190.66,344.371,148.41,409.91,120.2"/>
	<path fill-rule="evenodd" clip-rule="evenodd" d="M267.77,243.4c2.93,1.529,4.07,5.16,2.53,8.1c-1.53,2.93-5.16,4.07-8.09,2.53
		c-2.94-1.53-4.08-5.16-2.54-8.09C261.2,243,264.83,241.86,267.77,243.4z"/>
	<path fill-rule="evenodd" clip-rule="evenodd" fill="none" stroke="#000000" stroke-width="4" stroke-linejoin="bevel" d="
		M163.61,90.53c13.24-0.85,26.59-4.03,39.33-7.74c52.87-15.38,60.18,8.39,119.82,11.29c54,2.63,56.8,38.21,87.149,26.12"/>
	<path fill-rule="evenodd" clip-rule="evenodd" fill="none" stroke="#000000" stroke-width="4" stroke-linejoin="bevel" d="
		M133.76,135.63c88.5,56.25,210.61,12.78,276.149-15.43"/>
	<path fill-rule="evenodd" clip-rule="evenodd" d="M138.82,138.85c-1.78,2.8-5.49,3.63-8.28,1.85c-2.8-1.78-3.63-5.49-1.85-8.28
		c1.78-2.8,5.49-3.63,8.28-1.85C139.77,132.35,140.6,136.06,138.82,138.85z"/>
	<path fill-rule="evenodd" clip-rule="evenodd" fill="none" stroke="#000000" stroke-width="4" stroke-linejoin="bevel" d="
		M182.49,295.97c30-89.25,109.5-122.25,227.419-175.771"/>
	<path fill-rule="evenodd" clip-rule="evenodd" d="M184.4,290.28c3.14,1.05,4.83,4.46,3.77,7.6c-1.05,3.141-4.46,4.83-7.6,3.771
		c-3.14-1.05-4.83-4.46-3.77-7.601C177.85,290.91,181.26,289.22,184.4,290.28z"/>
	<path fill-rule="evenodd" clip-rule="evenodd" fill="none" stroke="#000000" stroke-width="4" stroke-linejoin="bevel" d="
		M349.74,196.97c-15-22.5-5.369-48.56,60.17-76.77"/>
	<path fill-rule="evenodd" clip-rule="evenodd" d="M346.41,191.97c2.75-1.83,6.48-1.09,8.32,1.67c1.84,2.75,1.09,6.48-1.67,8.321
		c-2.75,1.839-6.48,1.089-8.32-1.67C342.91,197.54,343.65,193.81,346.41,191.97z"/>
	<path fill-rule="evenodd" clip-rule="evenodd" fill="#6EFF36" stroke="#177000" stroke-width="2.02" d="M561.8,55.08
		c2.859-2.86,7.49-2.86,10.35,0c2.85,2.85,2.85,7.49,0,10.34c-2.859,2.85-7.49,2.85-10.35,0
		C558.951,62.57,558.951,57.93,561.8,55.08z"/>
	<path fill-rule="evenodd" clip-rule="evenodd" fill="#6EFF36" stroke="#177000" stroke-width="2.02" d="M533.68,46.45
		c2.85-2.85,7.489-2.85,10.34,0c2.86,2.86,2.86,7.49,0,10.34c-2.851,2.86-7.49,2.86-10.34,0C530.82,53.94,530.82,49.31,533.68,46.45
		z"/>
	<path fill-rule="evenodd" clip-rule="evenodd" fill="#6EFF36" stroke="#177000" stroke-width="2.02" d="M558.8,130.08
		c2.859-2.86,7.49-2.86,10.35,0c2.85,2.85,2.85,7.49,0,10.34c-2.859,2.85-7.49,2.85-10.35,0
		C555.951,137.57,555.951,132.93,558.8,130.08z"/>
	<path fill-rule="evenodd" clip-rule="evenodd" fill="#6EFF36" stroke="#177000" stroke-width="2.02" d="M544.55,107.2
		c2.859-2.85,7.49-2.85,10.35,0c2.85,2.86,2.85,7.49,0,10.34c-2.859,2.86-7.49,2.86-10.35,0
		C541.701,114.69,541.701,110.06,544.55,107.2z"/>
	<path fill-rule="evenodd" clip-rule="evenodd" fill="#6EFF36" stroke="#177000" stroke-width="2.02" d="M542.98,126.81
		c1.67-1.66,4.37-1.66,6.04,0c1.67,1.67,1.67,4.38,0,6.04c-1.67,1.67-4.37,1.67-6.04,0C541.31,131.19,541.31,128.48,542.98,126.81z"
		/>
	<path fill-rule="evenodd" clip-rule="evenodd" fill="#6EFF36" stroke="#177000" stroke-width="2.02" d="M565.11,105.06
		c1.66-1.66,4.37-1.66,6.03,0c1.67,1.67,1.67,4.38,0,6.04c-1.66,1.67-4.37,1.67-6.03,0C563.44,109.44,563.44,106.73,565.11,105.06z"
		/>
	<path fill-rule="evenodd" clip-rule="evenodd" fill="#6EFF36" stroke="#177000" stroke-width="2.02" d="M549.36,76.56
		c1.66-1.66,4.37-1.66,6.03,0c1.67,1.67,1.67,4.38,0,6.04c-1.66,1.67-4.37,1.67-6.03,0C547.69,80.94,547.69,78.23,549.36,76.56z"/>
	<path fill-rule="evenodd" clip-rule="evenodd" fill="#6EFF36" stroke="#177000" stroke-width="2.02" d="M556.48,33.81
		c1.67-1.66,4.37-1.66,6.04,0c1.67,1.67,1.67,4.38,0,6.04c-1.67,1.67-4.37,1.67-6.04,0C554.81,38.19,554.81,35.48,556.48,33.81z"/>
	<path fill-rule="evenodd" clip-rule="evenodd" fill="#6EFF36" stroke="#177000" stroke-width="2.02" d="M574.11,21.06
		c1.66-1.66,4.37-1.66,6.03,0c1.67,1.67,1.67,4.38,0,6.04c-1.66,1.67-4.37,1.67-6.03,0C572.44,25.44,572.44,22.73,574.11,21.06z"/>
	<path fill-rule="evenodd" clip-rule="evenodd" fill="#6EFF36" stroke="#177000" stroke-width="2.02" d="M530.23,21.81
		c1.67-1.66,4.37-1.66,6.04,0c1.67,1.67,1.67,4.38,0,6.04c-1.67,1.67-4.37,1.67-6.04,0C528.56,26.19,528.56,23.48,530.23,21.81z"/>
	<path fill-rule="evenodd" clip-rule="evenodd" fill="#6EFF36" stroke="#177000" stroke-width="2.02" d="M507.73,38.31
		c1.67-1.66,4.37-1.66,6.04,0c1.67,1.67,1.67,4.38,0,6.04c-1.67,1.67-4.37,1.67-6.04,0C506.06,42.69,506.06,39.98,507.73,38.31z"/>
	
		<circle fill-rule="evenodd" clip-rule="evenodd" fill="#6EFF36" stroke="#177000" stroke-width="2.02" cx="540.9" cy="67.66" r="2.178"/>
	
		<circle fill-rule="evenodd" clip-rule="evenodd" fill="#6EFF36" stroke="#177000" stroke-width="2.02" cx="555.15" cy="47.41" r="2.178"/>
	
		<circle fill-rule="evenodd" clip-rule="evenodd" fill="#6EFF36" stroke="#177000" stroke-width="2.02" cx="534.9" cy="33.69" r="2.178"/>
	
		<circle fill-rule="evenodd" clip-rule="evenodd" fill="#6EFF36" stroke="#177000" stroke-width="2.02" cx="554.4" cy="18.91" r="2.178"/>
	
		<circle fill-rule="evenodd" clip-rule="evenodd" fill="#6EFF36" stroke="#177000" stroke-width="2.02" cx="567.9" cy="30.54" r="2.178"/>
	
		<circle fill-rule="evenodd" clip-rule="evenodd" fill="#6EFF36" stroke="#177000" stroke-width="2.02" cx="577.28" cy="52.66" r="2.178"/>
	
		<circle fill-rule="evenodd" clip-rule="evenodd" fill="#6EFF36" stroke="#177000" stroke-width="2.02" cx="536.03" cy="111.54" r="2.178"/>
	
		<circle fill-rule="evenodd" clip-rule="evenodd" fill="#6EFF36" stroke="#177000" stroke-width="2.02" cx="537.9" cy="139.66" r="2.178"/>
	
		<circle fill-rule="evenodd" clip-rule="evenodd" fill="#6EFF36" stroke="#177000" stroke-width="2.02" cx="559.65" cy="156.16" r="2.178"/>
	
		<circle fill-rule="evenodd" clip-rule="evenodd" fill="#6EFF36" stroke="#177000" stroke-width="2.02" cx="588.15" cy="128.04" r="2.178"/>
	
		<circle fill-rule="evenodd" clip-rule="evenodd" fill="#6EFF36" stroke="#177000" stroke-width="2.02" cx="579.53" cy="99.91" r="2.178"/>
	<path fill-rule="evenodd" clip-rule="evenodd" fill="#6EFF36" stroke="#177000" stroke-width="2.02" d="M571.871,76.05
		c1.449-1.44,3.789-1.44,5.239,0c1.44,1.45,1.44,3.79,0,5.23c-1.45,1.45-3.79,1.45-5.239,0C570.43,79.84,570.43,77.5,571.871,76.05z
		"/>
	<path fill-rule="evenodd" clip-rule="evenodd" fill="#6EFF36" stroke="#177000" stroke-width="2.02" d="M552.371,64.8
		c1.449-1.44,3.789-1.44,5.239,0c1.44,1.45,1.44,3.79,0,5.23c-1.45,1.45-3.79,1.45-5.239,0C550.93,68.59,550.93,66.25,552.371,64.8z
		"/>
	<path fill-rule="evenodd" clip-rule="evenodd" fill="#6EFF36" stroke="#177000" stroke-width="2.02" d="M523.871,53.93
		c1.449-1.45,3.789-1.45,5.239,0c1.44,1.44,1.44,3.78,0,5.23c-1.45,1.44-3.79,1.44-5.239,0C522.43,57.71,522.43,55.37,523.871,53.93
		z"/>
	<path fill-rule="evenodd" clip-rule="evenodd" fill="#6EFF36" stroke="#177000" stroke-width="2.02" d="M525,35.55
		c1.44-1.44,3.791-1.44,5.23,0c1.45,1.45,1.45,3.79,0,5.23c-1.439,1.45-3.79,1.45-5.23,0C523.55,39.34,523.55,37,525,35.55z"/>
	<path fill-rule="evenodd" clip-rule="evenodd" fill="#6EFF36" stroke="#177000" stroke-width="2.02" d="M540.371,34.8
		c1.449-1.44,3.789-1.44,5.239,0c1.44,1.45,1.44,3.79,0,5.23c-1.45,1.45-3.79,1.45-5.239,0C538.93,38.59,538.93,36.25,540.371,34.8z
		"/>
	<path fill-rule="evenodd" clip-rule="evenodd" fill="#6EFF36" stroke="#177000" stroke-width="2.02" d="M546,25.43
		c1.44-1.45,3.791-1.45,5.23,0c1.45,1.44,1.45,3.78,0,5.23c-1.439,1.44-3.79,1.44-5.23,0C544.55,29.21,544.55,26.87,546,25.43z"/>
	<path fill-rule="evenodd" clip-rule="evenodd" fill="#6EFF36" stroke="#177000" stroke-width="2.02" d="M571.871,40.43
		c1.449-1.45,3.789-1.45,5.239,0c1.44,1.44,1.44,3.78,0,5.23c-1.45,1.44-3.79,1.44-5.239,0C570.43,44.21,570.43,41.87,571.871,40.43
		z"/>
	<path fill-rule="evenodd" clip-rule="evenodd" fill="#6EFF36" stroke="#177000" stroke-width="2.02" d="M562.121,80.18
		c1.449-1.45,3.789-1.45,5.239,0c1.44,1.44,1.44,3.78,0,5.23c-1.45,1.44-3.79,1.44-5.239,0C560.68,83.96,560.68,81.62,562.121,80.18
		z"/>
	<path fill-rule="evenodd" clip-rule="evenodd" fill="#6EFF36" stroke="#177000" stroke-width="2.02" d="M561.75,116.18
		c1.44-1.45,3.791-1.45,5.23,0c1.45,1.44,1.45,3.78,0,5.23c-1.439,1.44-3.79,1.44-5.23,0C560.3,119.96,560.3,117.62,561.75,116.18z"
		/>
	<path fill-rule="evenodd" clip-rule="evenodd" fill="#6EFF36" stroke="#177000" stroke-width="2.02" d="M575.621,117.68
		c1.449-1.45,3.789-1.45,5.239,0c1.44,1.44,1.44,3.78,0,5.23c-1.45,1.44-3.79,1.44-5.239,0
		C574.18,121.46,574.18,119.12,575.621,117.68z"/>
	<path fill-rule="evenodd" clip-rule="evenodd" fill="#6EFF36" stroke="#177000" stroke-width="2.02" d="M586.5,84.68
		c1.44-1.45,3.791-1.45,5.23,0c1.45,1.44,1.45,3.78,0,5.23c-1.439,1.44-3.79,1.44-5.23,0C585.05,88.46,585.05,86.12,586.5,84.68z"/>
	<path fill-rule="evenodd" clip-rule="evenodd" fill="#6EFF36" stroke="#177000" stroke-width="2.02" d="M538.121,74.55
		c1.449-1.44,3.789-1.44,5.239,0c1.44,1.45,1.44,3.79,0,5.23c-1.45,1.45-3.79,1.45-5.239,0C536.68,78.34,536.68,76,538.121,74.55z"
		/>
	<path fill-rule="evenodd" clip-rule="evenodd" fill="#6EFF36" stroke="#177000" stroke-width="2.02" d="M510.371,58.05
		c1.449-1.44,3.789-1.44,5.239,0c1.44,1.45,1.44,3.79,0,5.23c-1.45,1.45-3.79,1.45-5.239,0C508.93,61.84,508.93,59.5,510.371,58.05z
		"/>
	<path fill-rule="evenodd" clip-rule="evenodd" fill="#6EFF36" stroke="#177000" stroke-width="2.02" d="M523.5,149.55
		c1.44-1.44,3.791-1.44,5.23,0c1.45,1.45,1.45,3.79,0,5.23c-1.439,1.45-3.79,1.45-5.23,0C522.05,153.34,522.05,151,523.5,149.55z"/>
	<path fill-rule="evenodd" clip-rule="evenodd" fill="#6EFF36" stroke="#177000" stroke-width="2.02" d="M576,147.68
		c1.44-1.45,3.791-1.45,5.23,0c1.45,1.44,1.45,3.78,0,5.23c-1.439,1.44-3.79,1.44-5.23,0C574.55,151.46,574.55,149.12,576,147.68z"
		/>
	<path fill-rule="evenodd" clip-rule="evenodd" fill="#6EFF36" stroke="#177000" stroke-width="2.02" d="M519.75,64.05
		c1.44-1.44,3.791-1.44,5.23,0c1.45,1.45,1.45,3.79,0,5.23c-1.439,1.45-3.79,1.45-5.23,0C518.3,67.84,518.3,65.5,519.75,64.05z"/>
	
		<circle fill-rule="evenodd" clip-rule="evenodd" fill="#6EFF36" stroke="#177000" stroke-width="2.02" cx="551.25" cy="54.39" r="2.178"/>
	
		<circle fill-rule="evenodd" clip-rule="evenodd" fill="#6EFF36" stroke="#177000" stroke-width="2.02" cx="533.7" cy="64.74" r="2.178"/>
	
		<circle fill-rule="evenodd" clip-rule="evenodd" fill="#6EFF36" stroke="#177000" stroke-width="2.02" cx="564" cy="46.29" r="2.178"/>
	
		<circle fill-rule="evenodd" clip-rule="evenodd" fill="#6EFF36" stroke="#177000" stroke-width="2.02" cx="539.55" cy="103.44" r="2.178"/>
	
		<circle fill-rule="evenodd" clip-rule="evenodd" fill="#6EFF36" stroke="#177000" stroke-width="2.02" cx="559.05" cy="104.49" r="2.178"/>
	<path fill-rule="evenodd" clip-rule="evenodd" fill="#3F8F22" d="M330.27,0c22.5,0,40.76,10.98,40.76,24.5
		s-18.26,24.49-40.76,24.49c-22.51,0-40.77-10.97-40.77-24.49S307.76,0,330.27,0z"/>
	<path fill-rule="evenodd" clip-rule="evenodd" fill="#6EFF36" stroke="#0D4200" stroke-width="2.02" d="M463.03,100.26
		c1.671-1.66,4.37-1.66,6.04,0c1.67,1.67,1.67,4.38,0,6.04c-1.67,1.67-4.369,1.67-6.04,0C461.36,104.64,461.36,101.93,463.03,100.26
		z"/>
	<path fill-rule="evenodd" clip-rule="evenodd" fill="none" stroke="#3B33BD" stroke-width="8" stroke-linejoin="bevel" d="
		M172.98,220.46c-33.65,19.839-67.06,32.149-95.67,34.499"/>
	
		<path opacity="0.5" fill-rule="evenodd" clip-rule="evenodd" fill="none" stroke="#3B33BD" stroke-width="8" stroke-linejoin="bevel" d="
		M172.98,220.46c-33.65,19.839-67.06,32.149-95.67,34.499"/>
	<path fill-rule="evenodd" clip-rule="evenodd" fill="#3B33BD" d="M162.64,226.549c-3.36-5.699-1.46-13.06,4.24-16.43
		c5.71-3.359,13.07-1.46,16.43,4.24c3.37,5.71,1.47,13.069-4.24,16.431C173.37,234.16,166.01,232.26,162.64,226.549z"/>
	<path fill-rule="evenodd" clip-rule="evenodd" fill="#3D36BD" d="M40.77,227.959c22.5,0,40.76,12,40.76,26.79
		c0,14.791-18.26,26.791-40.76,26.791c-22.51,0-40.77-12-40.77-26.791C0,239.959,18.26,227.959,40.77,227.959z"/>
	<circle fill-rule="evenodd" clip-rule="evenodd" fill="#DEBA00" cx="155.02" cy="91.05" r="7.75"/>
	<circle fill-rule="evenodd" clip-rule="evenodd" fill="none" stroke="#000000" stroke-width="4" cx="155.02" cy="91.05" r="7.75"/>
	<path fill-rule="evenodd" clip-rule="evenodd" fill="none" stroke="#3F8F22" stroke-width="8" stroke-linejoin="bevel" d="
		M369.621,24.29c63.97,0,18.989,51.27,43.739,92.14"/>
</g>
<g id="Text">
	<g>
		<path d="M242.896,331.674v-8.59h3.65c0.918,0,1.585,0.077,2.001,0.231s0.749,0.429,0.999,0.823s0.375,0.846,0.375,1.354
			c0,0.645-0.189,1.177-0.568,1.597s-0.945,0.685-1.699,0.794c0.375,0.219,0.685,0.459,0.929,0.721s0.573,0.727,0.987,1.395
			l1.049,1.676h-2.074l-1.254-1.869c-0.445-0.668-0.75-1.089-0.914-1.263s-0.338-0.293-0.521-0.357s-0.475-0.097-0.873-0.097h-0.352
			v3.586H242.896z M244.63,326.717h1.283c0.832,0,1.352-0.035,1.559-0.105s0.369-0.191,0.486-0.363s0.176-0.387,0.176-0.645
			c0-0.289-0.077-0.522-0.231-0.7s-0.372-0.29-0.653-0.337c-0.141-0.02-0.563-0.029-1.266-0.029h-1.354V326.717z"/>
		<path d="M253.185,323.084v3.158c0.531-0.621,1.166-0.932,1.904-0.932c0.379,0,0.721,0.07,1.025,0.211s0.534,0.32,0.688,0.539
			s0.26,0.461,0.316,0.727s0.085,0.678,0.085,1.236v3.65h-1.646v-3.287c0-0.652-0.031-1.066-0.094-1.242s-0.173-0.315-0.331-0.419
			s-0.356-0.155-0.595-0.155c-0.273,0-0.518,0.066-0.732,0.199s-0.372,0.333-0.472,0.601s-0.149,0.663-0.149,1.187v3.117h-1.646
			v-8.59H253.185z"/>
		<path d="M258.874,324.608v-1.523h1.646v1.523H258.874z M258.874,331.674v-6.223h1.646v6.223H258.874z"/>
		<path d="M267.868,331.674h-1.646v-3.176c0-0.672-0.035-1.106-0.105-1.304s-0.185-0.351-0.343-0.46s-0.349-0.164-0.571-0.164
			c-0.285,0-0.541,0.078-0.768,0.234s-0.382,0.363-0.466,0.621s-0.126,0.734-0.126,1.43v2.818h-1.646v-6.223h1.529v0.914
			c0.543-0.703,1.227-1.055,2.051-1.055c0.363,0,0.695,0.065,0.996,0.196s0.528,0.298,0.683,0.501s0.262,0.434,0.322,0.691
			s0.091,0.627,0.091,1.107V331.674z"/>
		<path d="M269.157,328.475c0-0.547,0.135-1.076,0.404-1.588s0.651-0.902,1.146-1.172s1.046-0.404,1.655-0.404
			c0.941,0,1.713,0.306,2.314,0.917s0.902,1.384,0.902,2.317c0,0.941-0.304,1.722-0.911,2.341s-1.372,0.929-2.294,0.929
			c-0.57,0-1.114-0.129-1.632-0.387s-0.911-0.636-1.181-1.134S269.157,329.19,269.157,328.475z M270.845,328.563
			c0,0.617,0.146,1.09,0.439,1.418s0.654,0.492,1.084,0.492s0.79-0.164,1.081-0.492s0.437-0.805,0.437-1.43
			c0-0.609-0.146-1.078-0.437-1.406s-0.651-0.492-1.081-0.492s-0.791,0.164-1.084,0.492S270.845,327.946,270.845,328.563z"/>
		<path d="M282.294,327.292l-1.623,0.293c-0.055-0.324-0.179-0.568-0.372-0.732s-0.444-0.246-0.753-0.246
			c-0.41,0-0.737,0.142-0.981,0.425s-0.366,0.757-0.366,1.421c0,0.738,0.124,1.26,0.372,1.564s0.581,0.457,0.999,0.457
			c0.313,0,0.568-0.089,0.768-0.267s0.34-0.483,0.422-0.917l1.617,0.275c-0.168,0.742-0.49,1.303-0.967,1.682
			s-1.115,0.568-1.916,0.568c-0.91,0-1.636-0.287-2.177-0.861s-0.812-1.369-0.812-2.385c0-1.027,0.271-1.827,0.814-2.399
			s1.277-0.858,2.203-0.858c0.758,0,1.36,0.163,1.808,0.489S282.099,326.624,282.294,327.292z"/>
		<path d="M287.146,329.694l1.641,0.275c-0.211,0.602-0.544,1.06-0.999,1.374s-1.024,0.472-1.708,0.472
			c-1.082,0-1.883-0.354-2.402-1.061c-0.41-0.566-0.615-1.281-0.615-2.145c0-1.031,0.27-1.839,0.809-2.423s1.221-0.876,2.045-0.876
			c0.926,0,1.656,0.306,2.191,0.917s0.791,1.548,0.768,2.81h-4.125c0.012,0.488,0.145,0.868,0.398,1.14s0.57,0.407,0.949,0.407
			c0.258,0,0.475-0.07,0.65-0.211S287.056,330.006,287.146,329.694z M287.239,328.03c-0.012-0.477-0.135-0.839-0.369-1.087
			s-0.52-0.372-0.855-0.372c-0.359,0-0.656,0.131-0.891,0.393s-0.35,0.617-0.346,1.066H287.239z"/>
		<path d="M291.792,331.674h-1.646v-6.223h1.529v0.885c0.262-0.418,0.497-0.693,0.706-0.826s0.446-0.199,0.712-0.199
			c0.375,0,0.736,0.104,1.084,0.311l-0.51,1.436c-0.277-0.18-0.535-0.27-0.773-0.27c-0.23,0-0.426,0.063-0.586,0.19
			s-0.286,0.356-0.378,0.688s-0.138,1.027-0.138,2.086V331.674z"/>
		<path d="M294.505,328.475c0-0.547,0.135-1.076,0.404-1.588s0.651-0.902,1.146-1.172s1.046-0.404,1.656-0.404
			c0.94,0,1.712,0.306,2.314,0.917c0.601,0.611,0.902,1.384,0.902,2.317c0,0.941-0.305,1.722-0.912,2.341s-1.372,0.929-2.293,0.929
			c-0.571,0-1.115-0.129-1.632-0.387s-0.911-0.636-1.181-1.134S294.505,329.19,294.505,328.475z M296.192,328.563
			c0,0.617,0.146,1.09,0.439,1.418c0.293,0.328,0.654,0.492,1.084,0.492c0.429,0,0.789-0.164,1.08-0.492s0.438-0.805,0.438-1.43
			c0-0.609-0.146-1.078-0.438-1.406s-0.651-0.492-1.08-0.492c-0.431,0-0.791,0.164-1.084,0.492
			C296.339,327.473,296.192,327.946,296.192,328.563z"/>
		<path d="M301.636,329.899l1.652-0.252c0.07,0.32,0.212,0.563,0.428,0.729c0.214,0.166,0.516,0.249,0.902,0.249
			c0.425,0,0.745-0.078,0.961-0.234c0.144-0.109,0.217-0.256,0.217-0.439c0-0.125-0.04-0.229-0.117-0.311
			c-0.082-0.078-0.267-0.15-0.551-0.217c-1.329-0.293-2.171-0.561-2.525-0.803c-0.492-0.336-0.738-0.803-0.738-1.4
			c0-0.539,0.212-0.992,0.639-1.359c0.425-0.367,1.085-0.551,1.98-0.551c0.851,0,1.483,0.139,1.898,0.416
			c0.413,0.277,0.698,0.688,0.855,1.23l-1.553,0.287c-0.067-0.242-0.193-0.428-0.379-0.557s-0.45-0.193-0.793-0.193
			c-0.434,0-0.744,0.061-0.932,0.182c-0.126,0.086-0.188,0.197-0.188,0.334c0,0.117,0.054,0.217,0.164,0.299
			c0.147,0.109,0.66,0.264,1.537,0.463s1.489,0.443,1.838,0.732c0.343,0.293,0.516,0.701,0.516,1.225
			c0,0.57-0.239,1.061-0.715,1.471c-0.478,0.41-1.183,0.615-2.115,0.615c-0.849,0-1.52-0.172-2.014-0.516
			S301.789,330.489,301.636,329.899z"/>
	</g>
	<g>
		<path d="M11.233,250.969v-8.59h6.369v1.453h-4.635v1.904h4.313v1.447h-4.313v2.338h4.799v1.447H11.233z"/>
		<path d="M18.434,250.969l2.244-3.205l-2.15-3.018h2.01l1.102,1.711l1.16-1.711h1.934l-2.109,2.947l2.303,3.275h-2.021
			l-1.266-1.928l-1.277,1.928H18.434z"/>
		<path d="M28.752,244.747v1.313h-1.125v2.508c0,0.508,0.011,0.804,0.032,0.888s0.07,0.153,0.146,0.208s0.169,0.082,0.278,0.082
			c0.152,0,0.373-0.053,0.662-0.158l0.141,1.277c-0.383,0.164-0.816,0.246-1.301,0.246c-0.297,0-0.564-0.05-0.803-0.149
			s-0.413-0.229-0.524-0.387s-0.188-0.372-0.231-0.642c-0.035-0.191-0.053-0.578-0.053-1.16v-2.713h-0.756v-1.313h0.756v-1.236
			l1.652-0.961v2.197H28.752z"/>
		<path d="M33.499,248.989l1.641,0.275c-0.211,0.602-0.544,1.06-0.999,1.374s-1.024,0.472-1.708,0.472
			c-1.082,0-1.883-0.354-2.402-1.061c-0.41-0.566-0.615-1.281-0.615-2.145c0-1.031,0.27-1.839,0.809-2.423s1.221-0.876,2.045-0.876
			c0.926,0,1.656,0.306,2.191,0.917s0.791,1.548,0.768,2.81h-4.125c0.012,0.488,0.145,0.868,0.398,1.14s0.57,0.407,0.949,0.407
			c0.258,0,0.475-0.07,0.65-0.211S33.409,249.301,33.499,248.989z M33.592,247.325c-0.012-0.477-0.135-0.839-0.369-1.087
			s-0.52-0.372-0.855-0.372c-0.359,0-0.656,0.131-0.891,0.393s-0.35,0.617-0.346,1.066H33.592z"/>
		<path d="M38.145,250.969h-1.646v-6.223h1.529v0.885c0.262-0.418,0.497-0.693,0.706-0.826s0.446-0.199,0.712-0.199
			c0.375,0,0.736,0.104,1.084,0.311l-0.51,1.436c-0.277-0.18-0.535-0.27-0.773-0.27c-0.23,0-0.426,0.063-0.586,0.19
			s-0.286,0.356-0.378,0.688s-0.138,1.027-0.138,2.086V250.969z"/>
		<path d="M46.899,250.969h-1.646v-3.176c0-0.672-0.035-1.106-0.105-1.304s-0.185-0.351-0.343-0.46s-0.349-0.164-0.571-0.164
			c-0.285,0-0.541,0.078-0.768,0.234s-0.382,0.363-0.466,0.621s-0.126,0.734-0.126,1.43v2.818h-1.646v-6.223h1.529v0.914
			c0.543-0.703,1.227-1.055,2.051-1.055c0.363,0,0.695,0.065,0.996,0.196s0.528,0.298,0.683,0.501s0.262,0.434,0.322,0.691
			s0.091,0.627,0.091,1.107V250.969z"/>
		<path d="M49.799,246.645l-1.494-0.27c0.168-0.602,0.457-1.047,0.867-1.336s1.02-0.434,1.828-0.434
			c0.734,0,1.281,0.087,1.641,0.261s0.612,0.395,0.759,0.662s0.22,0.759,0.22,1.474l-0.018,1.922c0,0.547,0.026,0.95,0.079,1.21
			s0.151,0.538,0.296,0.835h-1.629c-0.043-0.109-0.096-0.271-0.158-0.486c-0.027-0.098-0.047-0.162-0.059-0.193
			c-0.281,0.273-0.582,0.479-0.902,0.615s-0.662,0.205-1.025,0.205c-0.641,0-1.146-0.174-1.515-0.521s-0.554-0.787-0.554-1.318
			c0-0.352,0.084-0.665,0.252-0.94s0.403-0.486,0.706-0.633s0.739-0.274,1.31-0.384c0.77-0.145,1.303-0.279,1.6-0.404v-0.164
			c0-0.316-0.078-0.542-0.234-0.677s-0.451-0.202-0.885-0.202c-0.293,0-0.521,0.058-0.686,0.173S49.901,246.356,49.799,246.645z
			 M52.002,247.981c-0.211,0.07-0.545,0.154-1.002,0.252s-0.756,0.193-0.896,0.287c-0.215,0.152-0.322,0.346-0.322,0.58
			c0,0.23,0.086,0.43,0.258,0.598s0.391,0.252,0.656,0.252c0.297,0,0.58-0.098,0.85-0.293c0.199-0.148,0.33-0.33,0.393-0.545
			c0.043-0.141,0.064-0.408,0.064-0.803V247.981z"/>
		<path d="M55.243,250.969v-8.59h1.646v8.59H55.243z"/>
		<path d="M18.979,262.969h-1.887l-0.75-1.951h-3.434l-0.709,1.951h-1.84l3.346-8.59h1.834L18.979,262.969z M15.786,259.571
			l-1.184-3.188l-1.16,3.188H15.786z"/>
		<path d="M19.84,256.747h1.535v0.914c0.199-0.313,0.469-0.566,0.809-0.762s0.717-0.293,1.131-0.293c0.723,0,1.336,0.283,1.84,0.85
			s0.756,1.355,0.756,2.367c0,1.039-0.254,1.847-0.762,2.423s-1.123,0.864-1.846,0.864c-0.344,0-0.655-0.068-0.935-0.205
			s-0.573-0.371-0.882-0.703v3.135H19.84V256.747z M21.469,259.752c0,0.699,0.139,1.216,0.416,1.55s0.615,0.501,1.014,0.501
			c0.383,0,0.701-0.153,0.955-0.46s0.381-0.81,0.381-1.509c0-0.652-0.131-1.137-0.393-1.453s-0.586-0.475-0.973-0.475
			c-0.402,0-0.736,0.155-1.002,0.466S21.469,259.143,21.469,259.752z"/>
		<path d="M27.17,256.747h1.535v0.914c0.199-0.313,0.469-0.566,0.809-0.762s0.717-0.293,1.131-0.293c0.723,0,1.336,0.283,1.84,0.85
			s0.756,1.355,0.756,2.367c0,1.039-0.254,1.847-0.762,2.423s-1.123,0.864-1.846,0.864c-0.344,0-0.655-0.068-0.935-0.205
			s-0.573-0.371-0.882-0.703v3.135H27.17V256.747z M28.799,259.752c0,0.699,0.139,1.216,0.416,1.55s0.615,0.501,1.014,0.501
			c0.383,0,0.701-0.153,0.955-0.46s0.381-0.81,0.381-1.509c0-0.652-0.131-1.137-0.393-1.453s-0.586-0.475-0.973-0.475
			c-0.402,0-0.736,0.155-1.002,0.466S28.799,259.143,28.799,259.752z"/>
		<path d="M34.547,262.969v-8.59h1.646v8.59H34.547z"/>
		<path d="M37.881,255.903v-1.523h1.646v1.523H37.881z M37.881,262.969v-6.223h1.646v6.223H37.881z"/>
		<path d="M46.641,258.586l-1.623,0.293c-0.055-0.324-0.179-0.568-0.372-0.732s-0.444-0.246-0.753-0.246
			c-0.41,0-0.737,0.142-0.981,0.425s-0.366,0.757-0.366,1.421c0,0.738,0.124,1.26,0.372,1.564s0.581,0.457,0.999,0.457
			c0.313,0,0.568-0.089,0.768-0.267s0.34-0.483,0.422-0.917l1.617,0.275c-0.168,0.742-0.49,1.303-0.967,1.682
			s-1.115,0.568-1.916,0.568c-0.91,0-1.636-0.287-2.177-0.861s-0.812-1.369-0.812-2.385c0-1.027,0.271-1.827,0.814-2.399
			s1.277-0.858,2.203-0.858c0.758,0,1.36,0.163,1.808,0.489S46.446,257.918,46.641,258.586z"/>
		<path d="M49.12,258.645l-1.494-0.27c0.168-0.602,0.457-1.047,0.867-1.336s1.02-0.434,1.828-0.434c0.734,0,1.281,0.087,1.641,0.261
			s0.612,0.395,0.759,0.662s0.22,0.759,0.22,1.474l-0.018,1.922c0,0.547,0.026,0.95,0.079,1.21s0.151,0.538,0.296,0.835h-1.629
			c-0.043-0.109-0.096-0.271-0.158-0.486c-0.027-0.098-0.047-0.162-0.059-0.193c-0.281,0.273-0.582,0.479-0.902,0.615
			s-0.662,0.205-1.025,0.205c-0.641,0-1.146-0.174-1.515-0.521s-0.554-0.787-0.554-1.318c0-0.352,0.084-0.665,0.252-0.94
			s0.403-0.486,0.706-0.633s0.739-0.274,1.31-0.384c0.77-0.145,1.303-0.279,1.6-0.404v-0.164c0-0.316-0.078-0.542-0.234-0.677
			s-0.451-0.202-0.885-0.202c-0.293,0-0.521,0.058-0.686,0.173S49.221,258.356,49.12,258.645z M51.323,259.981
			c-0.211,0.07-0.545,0.154-1.002,0.252s-0.756,0.193-0.896,0.287c-0.215,0.152-0.322,0.346-0.322,0.58
			c0,0.23,0.086,0.43,0.258,0.598s0.391,0.252,0.656,0.252c0.297,0,0.58-0.098,0.85-0.293c0.199-0.148,0.33-0.33,0.393-0.545
			c0.043-0.141,0.064-0.408,0.064-0.803V259.981z"/>
		<path d="M57.417,256.747v1.313h-1.125v2.508c0,0.508,0.011,0.804,0.032,0.888s0.07,0.153,0.146,0.208s0.169,0.082,0.278,0.082
			c0.152,0,0.373-0.053,0.662-0.158l0.141,1.277c-0.383,0.164-0.816,0.246-1.301,0.246c-0.297,0-0.564-0.05-0.803-0.149
			s-0.413-0.229-0.524-0.387s-0.188-0.372-0.231-0.642c-0.035-0.191-0.053-0.578-0.053-1.16v-2.713h-0.756v-1.313h0.756v-1.236
			l1.652-0.961v2.197H57.417z"/>
		<path d="M58.559,255.903v-1.523h1.646v1.523H58.559z M58.559,262.969v-6.223h1.646v6.223H58.559z"/>
		<path d="M61.512,259.77c0-0.547,0.135-1.076,0.404-1.588s0.651-0.902,1.146-1.172s1.046-0.404,1.655-0.404
			c0.941,0,1.713,0.306,2.314,0.917s0.902,1.384,0.902,2.317c0,0.941-0.304,1.722-0.911,2.341s-1.372,0.929-2.294,0.929
			c-0.57,0-1.114-0.129-1.632-0.387s-0.911-0.636-1.181-1.134S61.512,260.485,61.512,259.77z M63.2,259.858
			c0,0.617,0.146,1.09,0.439,1.418s0.654,0.492,1.084,0.492s0.79-0.164,1.081-0.492s0.437-0.805,0.437-1.43
			c0-0.609-0.146-1.078-0.437-1.406s-0.651-0.492-1.081-0.492s-0.791,0.164-1.084,0.492S63.2,259.241,63.2,259.858z"/>
		<path d="M74.883,262.969h-1.646v-3.176c0-0.672-0.035-1.106-0.105-1.304s-0.185-0.351-0.343-0.46s-0.349-0.164-0.571-0.164
			c-0.285,0-0.541,0.078-0.768,0.234s-0.382,0.363-0.466,0.621s-0.126,0.734-0.126,1.43v2.818h-1.646v-6.223h1.529v0.914
			c0.543-0.703,1.227-1.055,2.051-1.055c0.363,0,0.695,0.065,0.996,0.196s0.528,0.298,0.683,0.501s0.262,0.434,0.322,0.691
			s0.091,0.627,0.091,1.107V262.969z"/>
	</g>
	<g>
		<path d="M127.805,77.72l-3.07-8.59h1.881l2.174,6.357l2.104-6.357h1.84l-3.076,8.59H127.805z"/>
		<path d="M133.623,69.13h3.434c0.68,0,1.187,0.028,1.521,0.085s0.633,0.175,0.896,0.354s0.483,0.419,0.659,0.718
			s0.264,0.634,0.264,1.005c0,0.402-0.108,0.771-0.325,1.107s-0.511,0.588-0.882,0.756c0.523,0.152,0.926,0.412,1.207,0.779
			s0.422,0.799,0.422,1.295c0,0.391-0.091,0.771-0.272,1.14s-0.43,0.664-0.744,0.885s-0.702,0.356-1.163,0.407
			c-0.289,0.031-0.986,0.051-2.092,0.059h-2.924V69.13z M135.357,70.56v1.986h1.137c0.676,0,1.096-0.01,1.26-0.029
			c0.297-0.035,0.53-0.138,0.7-0.308s0.255-0.394,0.255-0.671c0-0.266-0.073-0.481-0.22-0.647s-0.364-0.267-0.653-0.302
			c-0.172-0.02-0.666-0.029-1.482-0.029H135.357z M135.357,73.976v2.297h1.605c0.625,0,1.021-0.018,1.189-0.053
			c0.258-0.047,0.468-0.161,0.63-0.343s0.243-0.425,0.243-0.729c0-0.258-0.063-0.477-0.188-0.656s-0.306-0.311-0.542-0.393
			s-0.749-0.123-1.538-0.123H135.357z"/>
		<path d="M142.271,77.72v-1.646h1.646v1.646H142.271z"/>
		<path d="M145.635,77.72v-8.59h1.688l3.516,5.736V69.13h1.611v8.59h-1.74l-3.463-5.602v5.602H145.635z"/>
		<path d="M154.283,77.72v-8.59h6.369v1.453h-4.635v1.904h4.313v1.447h-4.313v2.338h4.799v1.447H154.283z"/>
		<path d="M164.221,77.72v-7.137h-2.549V69.13h6.826v1.453h-2.543v7.137H164.221z"/>
	</g>
	<g>
		<path d="M532.043,94.795l1.688-0.164c0.102,0.566,0.308,0.982,0.618,1.248s0.729,0.398,1.257,0.398
			c0.559,0,0.979-0.118,1.263-0.354s0.425-0.513,0.425-0.829c0-0.203-0.06-0.376-0.179-0.519s-0.327-0.267-0.624-0.372
			c-0.203-0.07-0.666-0.195-1.389-0.375c-0.93-0.23-1.582-0.514-1.957-0.85c-0.527-0.473-0.791-1.049-0.791-1.729
			c0-0.438,0.124-0.847,0.372-1.228s0.605-0.671,1.072-0.87s1.03-0.299,1.69-0.299c1.078,0,1.89,0.236,2.435,0.709
			s0.831,1.104,0.858,1.893l-1.734,0.076c-0.074-0.441-0.233-0.759-0.478-0.952s-0.61-0.29-1.099-0.29
			c-0.504,0-0.898,0.104-1.184,0.311c-0.184,0.133-0.275,0.311-0.275,0.533c0,0.203,0.086,0.377,0.258,0.521
			c0.219,0.184,0.75,0.375,1.594,0.574s1.468,0.405,1.872,0.618s0.721,0.504,0.949,0.873s0.343,0.825,0.343,1.368
			c0,0.492-0.137,0.953-0.41,1.383s-0.66,0.749-1.16,0.958s-1.123,0.313-1.869,0.313c-1.086,0-1.92-0.251-2.502-0.753
			S532.157,95.756,532.043,94.795z"/>
		<path d="M545.901,93.207l-1.623,0.293c-0.055-0.324-0.179-0.568-0.372-0.732s-0.444-0.246-0.753-0.246
			c-0.41,0-0.737,0.142-0.981,0.425s-0.366,0.757-0.366,1.421c0,0.738,0.124,1.26,0.372,1.564s0.581,0.457,0.999,0.457
			c0.313,0,0.568-0.089,0.768-0.267s0.34-0.483,0.422-0.917l1.617,0.275c-0.168,0.742-0.49,1.303-0.967,1.682
			s-1.115,0.568-1.916,0.568c-0.91,0-1.636-0.287-2.177-0.861s-0.812-1.369-0.812-2.385c0-1.027,0.271-1.827,0.814-2.399
			s1.277-0.858,2.203-0.858c0.758,0,1.36,0.163,1.808,0.489S545.706,92.539,545.901,93.207z"/>
		<path d="M548.725,97.59h-1.646v-6.223h1.529v0.885c0.262-0.418,0.497-0.693,0.706-0.826s0.446-0.199,0.712-0.199
			c0.375,0,0.736,0.104,1.084,0.311l-0.51,1.436c-0.277-0.18-0.535-0.27-0.773-0.27c-0.23,0-0.426,0.063-0.586,0.19
			s-0.286,0.356-0.378,0.688s-0.138,1.027-0.138,2.086V97.59z"/>
		<path d="M551.819,90.523V89h1.646v1.523H551.819z M551.819,97.59v-6.223h1.646v6.223H551.819z"/>
		<path d="M555.106,91.367h1.535v0.914c0.199-0.313,0.469-0.566,0.809-0.762s0.717-0.293,1.131-0.293c0.723,0,1.336,0.283,1.84,0.85
			s0.756,1.355,0.756,2.367c0,1.039-0.254,1.847-0.762,2.423s-1.123,0.864-1.846,0.864c-0.344,0-0.655-0.068-0.935-0.205
			s-0.573-0.371-0.882-0.703v3.135h-1.646V91.367z M556.735,94.373c0,0.699,0.139,1.216,0.416,1.55s0.615,0.501,1.014,0.501
			c0.383,0,0.701-0.153,0.955-0.46s0.381-0.81,0.381-1.509c0-0.652-0.131-1.137-0.393-1.453s-0.586-0.475-0.973-0.475
			c-0.402,0-0.736,0.155-1.002,0.466S556.735,93.764,556.735,94.373z"/>
		<path d="M565.336,91.367v1.313h-1.125v2.508c0,0.508,0.011,0.804,0.032,0.888s0.07,0.153,0.146,0.208s0.169,0.082,0.278,0.082
			c0.152,0,0.373-0.053,0.662-0.158l0.141,1.277c-0.383,0.164-0.816,0.246-1.301,0.246c-0.297,0-0.564-0.05-0.803-0.149
			s-0.413-0.229-0.524-0.387s-0.188-0.372-0.231-0.642c-0.035-0.191-0.053-0.578-0.053-1.16V92.68h-0.756v-1.313h0.756v-1.236
			l1.652-0.961v2.197H565.336z"/>
		<path d="M565.899,95.814l1.652-0.252c0.07,0.32,0.213,0.563,0.428,0.729s0.516,0.249,0.902,0.249c0.426,0,0.746-0.078,0.961-0.234
			c0.145-0.109,0.217-0.256,0.217-0.439c0-0.125-0.039-0.229-0.117-0.311c-0.082-0.078-0.266-0.15-0.551-0.217
			c-1.328-0.293-2.17-0.561-2.525-0.803c-0.492-0.336-0.738-0.803-0.738-1.4c0-0.539,0.213-0.992,0.639-1.359
			s1.086-0.551,1.98-0.551c0.852,0,1.484,0.139,1.898,0.416s0.699,0.688,0.855,1.23l-1.553,0.287
			c-0.066-0.242-0.192-0.428-0.378-0.557s-0.45-0.193-0.794-0.193c-0.434,0-0.744,0.061-0.932,0.182
			c-0.125,0.086-0.188,0.197-0.188,0.334c0,0.117,0.055,0.217,0.164,0.299c0.148,0.109,0.661,0.264,1.538,0.463
			s1.489,0.443,1.837,0.732c0.344,0.293,0.516,0.701,0.516,1.225c0,0.57-0.238,1.061-0.715,1.471s-1.182,0.615-2.115,0.615
			c-0.848,0-1.519-0.172-2.013-0.516S566.051,96.404,565.899,95.814z"/>
	</g>
	<g>
		<path d="M399.009,141.84v-8.59h3.65c0.918,0,1.585,0.077,2.001,0.231s0.749,0.429,0.999,0.823s0.375,0.846,0.375,1.354
			c0,0.645-0.189,1.177-0.568,1.597s-0.945,0.685-1.699,0.794c0.375,0.219,0.685,0.459,0.929,0.721s0.573,0.727,0.987,1.395
			l1.049,1.676h-2.074l-1.254-1.869c-0.445-0.668-0.75-1.089-0.914-1.263s-0.338-0.293-0.521-0.357s-0.475-0.097-0.873-0.097h-0.352
			v3.586H399.009z M400.744,136.883h1.283c0.832,0,1.352-0.035,1.559-0.105s0.369-0.191,0.486-0.363s0.176-0.387,0.176-0.645
			c0-0.289-0.077-0.522-0.231-0.7s-0.372-0.29-0.653-0.337c-0.141-0.02-0.563-0.029-1.266-0.029h-1.354V136.883z"/>
		<path d="M409.298,133.25v3.158c0.531-0.621,1.166-0.932,1.904-0.932c0.379,0,0.721,0.07,1.025,0.211s0.534,0.32,0.688,0.539
			s0.26,0.461,0.316,0.727s0.085,0.678,0.085,1.236v3.65h-1.646v-3.287c0-0.652-0.031-1.066-0.094-1.242s-0.173-0.315-0.331-0.419
			s-0.356-0.155-0.595-0.155c-0.273,0-0.518,0.066-0.732,0.199s-0.372,0.333-0.472,0.601s-0.149,0.663-0.149,1.187v3.117h-1.646
			v-8.59H409.298z"/>
		<path d="M414.988,134.773v-1.523h1.646v1.523H414.988z M414.988,141.84v-6.223h1.646v6.223H414.988z"/>
		<path d="M423.982,141.84h-1.646v-3.176c0-0.672-0.035-1.106-0.105-1.304s-0.185-0.351-0.343-0.46s-0.349-0.164-0.571-0.164
			c-0.285,0-0.541,0.078-0.768,0.234s-0.382,0.363-0.466,0.621s-0.126,0.734-0.126,1.43v2.818h-1.646v-6.223h1.529v0.914
			c0.543-0.703,1.227-1.055,2.051-1.055c0.363,0,0.695,0.065,0.996,0.196s0.528,0.298,0.683,0.501s0.262,0.434,0.322,0.691
			s0.091,0.627,0.091,1.107V141.84z"/>
		<path d="M425.271,138.641c0-0.547,0.135-1.076,0.404-1.588s0.651-0.902,1.146-1.172s1.046-0.404,1.655-0.404
			c0.941,0,1.713,0.306,2.314,0.917s0.902,1.384,0.902,2.317c0,0.941-0.304,1.722-0.911,2.341s-1.372,0.929-2.294,0.929
			c-0.57,0-1.114-0.129-1.632-0.387s-0.911-0.636-1.181-1.134S425.271,139.355,425.271,138.641z M426.958,138.729
			c0,0.617,0.146,1.09,0.439,1.418s0.654,0.492,1.084,0.492s0.79-0.164,1.081-0.492s0.437-0.805,0.437-1.43
			c0-0.609-0.146-1.078-0.437-1.406s-0.651-0.492-1.081-0.492s-0.791,0.164-1.084,0.492S426.958,138.111,426.958,138.729z"/>
		<path d="M398.564,151.045l1.688-0.164c0.102,0.566,0.308,0.982,0.618,1.248s0.729,0.398,1.257,0.398
			c0.559,0,0.979-0.118,1.263-0.354s0.425-0.513,0.425-0.829c0-0.203-0.06-0.376-0.179-0.519s-0.327-0.267-0.624-0.372
			c-0.203-0.07-0.666-0.195-1.389-0.375c-0.93-0.23-1.582-0.514-1.957-0.85c-0.527-0.473-0.791-1.049-0.791-1.729
			c0-0.438,0.124-0.847,0.372-1.228s0.605-0.671,1.072-0.87s1.03-0.299,1.69-0.299c1.078,0,1.89,0.236,2.435,0.709
			s0.831,1.104,0.858,1.893l-1.734,0.076c-0.074-0.441-0.233-0.759-0.478-0.952s-0.61-0.29-1.099-0.29
			c-0.504,0-0.898,0.104-1.184,0.311c-0.184,0.133-0.275,0.311-0.275,0.533c0,0.203,0.086,0.377,0.258,0.521
			c0.219,0.184,0.75,0.375,1.594,0.574s1.468,0.405,1.872,0.618s0.721,0.504,0.949,0.873s0.343,0.825,0.343,1.368
			c0,0.492-0.137,0.953-0.41,1.383s-0.66,0.749-1.16,0.958s-1.123,0.313-1.869,0.313c-1.086,0-1.92-0.251-2.502-0.753
			S398.677,152.006,398.564,151.045z"/>
		<path d="M412.421,149.457l-1.623,0.293c-0.055-0.324-0.179-0.568-0.372-0.732s-0.444-0.246-0.753-0.246
			c-0.41,0-0.737,0.142-0.981,0.425s-0.366,0.757-0.366,1.421c0,0.738,0.124,1.26,0.372,1.564s0.581,0.457,0.999,0.457
			c0.313,0,0.568-0.089,0.768-0.267s0.34-0.483,0.422-0.917l1.617,0.275c-0.168,0.742-0.49,1.303-0.967,1.682
			s-1.115,0.568-1.916,0.568c-0.91,0-1.636-0.287-2.177-0.861s-0.812-1.369-0.812-2.385c0-1.027,0.271-1.827,0.814-2.399
			s1.277-0.858,2.203-0.858c0.758,0,1.36,0.163,1.808,0.489S412.226,148.789,412.421,149.457z"/>
		<path d="M415.246,153.84h-1.646v-6.223h1.529v0.885c0.262-0.418,0.497-0.693,0.706-0.826s0.446-0.199,0.712-0.199
			c0.375,0,0.736,0.104,1.084,0.311l-0.51,1.436c-0.277-0.18-0.535-0.27-0.773-0.27c-0.23,0-0.426,0.063-0.586,0.19
			s-0.286,0.356-0.378,0.688s-0.138,1.027-0.138,2.086V153.84z"/>
		<path d="M418.339,146.773v-1.523h1.646v1.523H418.339z M418.339,153.84v-6.223h1.646v6.223H418.339z"/>
		<path d="M421.626,147.617h1.535v0.914c0.199-0.313,0.469-0.566,0.809-0.762s0.717-0.293,1.131-0.293
			c0.723,0,1.336,0.283,1.84,0.85s0.756,1.355,0.756,2.367c0,1.039-0.254,1.847-0.762,2.423s-1.123,0.864-1.846,0.864
			c-0.344,0-0.655-0.068-0.935-0.205s-0.573-0.371-0.882-0.703v3.135h-1.646V147.617z M423.255,150.623
			c0,0.699,0.139,1.216,0.416,1.55s0.615,0.501,1.014,0.501c0.383,0,0.701-0.153,0.955-0.46s0.381-0.81,0.381-1.509
			c0-0.652-0.131-1.137-0.393-1.453s-0.586-0.475-0.973-0.475c-0.402,0-0.736,0.155-1.002,0.466S423.255,150.014,423.255,150.623z"
			/>
		<path d="M431.857,147.617v1.313h-1.125v2.508c0,0.508,0.011,0.804,0.032,0.888s0.07,0.153,0.146,0.208s0.169,0.082,0.278,0.082
			c0.152,0,0.373-0.053,0.662-0.158l0.141,1.277c-0.383,0.164-0.816,0.246-1.301,0.246c-0.297,0-0.564-0.05-0.803-0.149
			s-0.413-0.229-0.524-0.387s-0.188-0.372-0.231-0.642c-0.035-0.191-0.053-0.578-0.053-1.16v-2.713h-0.756v-1.313h0.756v-1.236
			l1.652-0.961v2.197H431.857z"/>
	</g>
	<g>
		<path d="M202.729,371.932l1.682,0.533c-0.258,0.938-0.687,1.634-1.286,2.089s-1.36,0.683-2.282,0.683
			c-1.141,0-2.078-0.39-2.813-1.169s-1.102-1.845-1.102-3.196c0-1.43,0.369-2.54,1.107-3.331s1.709-1.187,2.912-1.187
			c1.051,0,1.904,0.311,2.561,0.932c0.391,0.367,0.684,0.895,0.879,1.582l-1.717,0.41c-0.102-0.445-0.313-0.797-0.636-1.055
			s-0.714-0.387-1.175-0.387c-0.637,0-1.153,0.229-1.55,0.686s-0.595,1.197-0.595,2.221c0,1.086,0.195,1.859,0.586,2.32
			s0.898,0.691,1.523,0.691c0.461,0,0.857-0.146,1.189-0.439S202.585,372.561,202.729,371.932z"/>
		<path d="M207.774,373.854v-2.232h-2.25v-1.541h2.25v-2.232h1.5v2.232h2.256v1.541h-2.256v2.232H207.774z"/>
		<path d="M214.782,373.854v-2.232h-2.25v-1.541h2.25v-2.232h1.5v2.232h2.256v1.541h-2.256v2.232H214.782z"/>
	</g>
	<g>
		<path d="M109.729,323.551l1.682,0.533c-0.258,0.938-0.687,1.634-1.286,2.089s-1.36,0.683-2.282,0.683
			c-1.141,0-2.078-0.39-2.813-1.169s-1.102-1.845-1.102-3.196c0-1.43,0.369-2.54,1.107-3.331s1.709-1.187,2.912-1.187
			c1.051,0,1.904,0.311,2.561,0.932c0.391,0.367,0.684,0.895,0.879,1.582l-1.717,0.41c-0.102-0.445-0.313-0.797-0.636-1.055
			s-0.714-0.387-1.175-0.387c-0.637,0-1.153,0.229-1.55,0.686s-0.595,1.197-0.595,2.221c0,1.086,0.195,1.859,0.586,2.32
			s0.898,0.691,1.523,0.691c0.461,0,0.857-0.146,1.189-0.439S109.585,324.18,109.729,323.551z"/>
		<path d="M112.929,324.571h-0.797v-1.289h1.055l0.352-1.729h-1.406v-1.295h1.67l0.463-2.285h1.313l-0.463,2.285h1.295l0.451-2.285
			h1.359l-0.469,2.285h0.809v1.295h-1.072l-0.352,1.729h1.424v1.289h-1.688l-0.463,2.285h-1.307l0.451-2.285h-1.301l-0.463,2.285
			h-1.324L112.929,324.571z M114.856,321.553l-0.346,1.729h1.301l0.34-1.729H114.856z"/>
	</g>
	<g>
		<path d="M183.504,128.146c0-0.547,0.135-1.076,0.404-1.588s0.651-0.902,1.146-1.172s1.046-0.404,1.655-0.404
			c0.941,0,1.713,0.306,2.314,0.917s0.902,1.384,0.902,2.317c0,0.941-0.304,1.722-0.911,2.341s-1.372,0.929-2.294,0.929
			c-0.57,0-1.114-0.129-1.632-0.387s-0.911-0.636-1.181-1.134S183.504,128.861,183.504,128.146z M185.191,128.234
			c0,0.617,0.146,1.09,0.439,1.418s0.654,0.492,1.084,0.492s0.79-0.164,1.081-0.492s0.437-0.805,0.437-1.43
			c0-0.609-0.146-1.078-0.437-1.406s-0.651-0.492-1.081-0.492s-0.791,0.164-1.084,0.492S185.191,127.617,185.191,128.234z"/>
		<path d="M191.168,125.123h1.535v0.914c0.199-0.313,0.469-0.566,0.809-0.762s0.717-0.293,1.131-0.293
			c0.723,0,1.336,0.283,1.84,0.85s0.756,1.355,0.756,2.367c0,1.039-0.254,1.847-0.762,2.423s-1.123,0.864-1.846,0.864
			c-0.344,0-0.655-0.068-0.935-0.205s-0.573-0.371-0.882-0.703v3.135h-1.646V125.123z M192.797,128.129
			c0,0.699,0.139,1.216,0.416,1.55s0.615,0.501,1.014,0.501c0.383,0,0.701-0.153,0.955-0.46s0.381-0.81,0.381-1.509
			c0-0.652-0.131-1.137-0.393-1.453s-0.586-0.475-0.973-0.475c-0.402,0-0.736,0.155-1.002,0.466S192.797,127.52,192.797,128.129z"/>
		<path d="M202.148,129.365l1.641,0.275c-0.211,0.602-0.544,1.06-0.999,1.374s-1.024,0.472-1.708,0.472
			c-1.082,0-1.883-0.354-2.402-1.061c-0.41-0.566-0.615-1.281-0.615-2.145c0-1.031,0.27-1.839,0.809-2.423s1.221-0.876,2.045-0.876
			c0.926,0,1.656,0.306,2.191,0.917s0.791,1.548,0.768,2.81h-4.125c0.012,0.488,0.145,0.868,0.398,1.14s0.57,0.407,0.949,0.407
			c0.258,0,0.475-0.07,0.65-0.211S202.059,129.678,202.148,129.365z M202.242,127.701c-0.012-0.477-0.135-0.839-0.369-1.087
			s-0.52-0.372-0.855-0.372c-0.359,0-0.656,0.131-0.891,0.393s-0.35,0.617-0.346,1.066H202.242z"/>
		<path d="M210.879,131.346h-1.646v-3.176c0-0.672-0.035-1.106-0.105-1.304s-0.185-0.351-0.343-0.46s-0.349-0.164-0.571-0.164
			c-0.285,0-0.541,0.078-0.768,0.234s-0.382,0.363-0.466,0.621s-0.126,0.734-0.126,1.43v2.818h-1.646v-6.223h1.529v0.914
			c0.543-0.703,1.227-1.055,2.051-1.055c0.363,0,0.695,0.065,0.996,0.196s0.528,0.298,0.683,0.501s0.262,0.434,0.322,0.691
			s0.091,0.627,0.091,1.107V131.346z"/>
		<path d="M212.578,131.346v-8.59h1.688l3.516,5.736v-5.736h1.611v8.59h-1.74l-3.463-5.602v5.602H212.578z"/>
		<path d="M221.215,122.756h1.734v4.652c0,0.738,0.021,1.217,0.064,1.436c0.074,0.352,0.251,0.634,0.53,0.847
			s0.661,0.319,1.146,0.319c0.492,0,0.863-0.101,1.113-0.302s0.4-0.448,0.451-0.741s0.076-0.779,0.076-1.459v-4.752h1.734v4.512
			c0,1.031-0.047,1.76-0.141,2.186s-0.267,0.785-0.519,1.078s-0.589,0.526-1.011,0.7s-0.973,0.261-1.652,0.261
			c-0.82,0-1.442-0.095-1.866-0.284s-0.759-0.436-1.005-0.738s-0.408-0.62-0.486-0.952c-0.113-0.492-0.17-1.219-0.17-2.18V122.756z"
			/>
		<path d="M229.898,131.346v-8.59h3.65c0.918,0,1.585,0.077,2.001,0.231s0.749,0.429,0.999,0.823s0.375,0.846,0.375,1.354
			c0,0.645-0.189,1.177-0.568,1.597s-0.945,0.685-1.699,0.794c0.375,0.219,0.685,0.459,0.929,0.721s0.573,0.727,0.987,1.395
			l1.049,1.676h-2.074l-1.254-1.869c-0.445-0.668-0.75-1.089-0.914-1.263s-0.338-0.293-0.521-0.357s-0.475-0.097-0.873-0.097h-0.352
			v3.586H229.898z M231.633,126.389h1.283c0.832,0,1.352-0.035,1.559-0.105s0.369-0.191,0.486-0.363s0.176-0.387,0.176-0.645
			c0-0.289-0.077-0.522-0.231-0.7s-0.372-0.29-0.653-0.337c-0.141-0.02-0.563-0.029-1.266-0.029h-1.354V126.389z"/>
		<path d="M238.564,122.756h3.434c0.68,0,1.187,0.028,1.521,0.085s0.633,0.175,0.896,0.354s0.483,0.419,0.659,0.718
			s0.264,0.634,0.264,1.005c0,0.402-0.108,0.771-0.325,1.107s-0.511,0.588-0.882,0.756c0.523,0.152,0.926,0.412,1.207,0.779
			s0.422,0.799,0.422,1.295c0,0.391-0.091,0.771-0.272,1.14s-0.43,0.664-0.744,0.885s-0.702,0.356-1.163,0.407
			c-0.289,0.031-0.986,0.051-2.092,0.059h-2.924V122.756z M240.299,124.186v1.986h1.137c0.676,0,1.096-0.01,1.26-0.029
			c0.297-0.035,0.53-0.138,0.7-0.308s0.255-0.394,0.255-0.671c0-0.266-0.073-0.481-0.22-0.647s-0.364-0.267-0.653-0.302
			c-0.172-0.02-0.666-0.029-1.482-0.029H240.299z M240.299,127.602v2.297h1.605c0.625,0,1.021-0.018,1.189-0.053
			c0.258-0.047,0.468-0.161,0.63-0.343s0.243-0.425,0.243-0.729c0-0.258-0.063-0.477-0.188-0.656s-0.306-0.311-0.542-0.393
			s-0.749-0.123-1.538-0.123H240.299z"/>
		<path d="M246.785,128.551l1.688-0.164c0.102,0.566,0.308,0.982,0.618,1.248s0.729,0.398,1.257,0.398
			c0.559,0,0.979-0.118,1.263-0.354s0.425-0.513,0.425-0.829c0-0.203-0.06-0.376-0.179-0.519s-0.327-0.267-0.624-0.372
			c-0.203-0.07-0.666-0.195-1.389-0.375c-0.93-0.23-1.582-0.514-1.957-0.85c-0.527-0.473-0.791-1.049-0.791-1.729
			c0-0.438,0.124-0.847,0.372-1.228s0.605-0.671,1.072-0.87s1.03-0.299,1.69-0.299c1.078,0,1.89,0.236,2.435,0.709
			s0.831,1.104,0.858,1.893l-1.734,0.076c-0.074-0.441-0.233-0.759-0.478-0.952s-0.61-0.29-1.099-0.29
			c-0.504,0-0.898,0.104-1.184,0.311c-0.184,0.133-0.275,0.311-0.275,0.533c0,0.203,0.086,0.377,0.258,0.521
			c0.219,0.184,0.75,0.375,1.594,0.574s1.468,0.405,1.872,0.618s0.721,0.504,0.949,0.873s0.343,0.825,0.343,1.368
			c0,0.492-0.137,0.953-0.41,1.383s-0.66,0.749-1.16,0.958s-1.123,0.313-1.869,0.313c-1.086,0-1.92-0.251-2.502-0.753
			S246.898,129.512,246.785,128.551z"/>
		<path d="M257.104,127.555v-3.967h-1.482v-0.832h3.896v0.832h-1.441v3.967H257.104z M260.098,127.555v-4.799h1.518l0.873,3.305
			l0.879-3.305h1.518v4.799h-0.926v-3.826l-1.037,3.826h-0.879l-1.031-3.826v3.826H260.098z"/>
	</g>
	<g>
		<path d="M163.917,319.29v-7.137h-2.549V310.7h6.826v1.453h-2.543v7.137H163.917z"/>
		<path d="M170.216,319.29h-1.646v-6.223h1.529v0.885c0.262-0.418,0.497-0.693,0.706-0.826s0.446-0.199,0.712-0.199
			c0.375,0,0.736,0.104,1.084,0.311l-0.51,1.436c-0.277-0.18-0.535-0.27-0.773-0.27c-0.23,0-0.426,0.063-0.586,0.19
			s-0.286,0.356-0.378,0.688s-0.138,1.027-0.138,2.086V319.29z"/>
		<path d="M172.929,316.09c0-0.547,0.135-1.076,0.404-1.588s0.651-0.902,1.146-1.172s1.046-0.404,1.655-0.404
			c0.941,0,1.713,0.306,2.314,0.917s0.902,1.384,0.902,2.317c0,0.941-0.304,1.722-0.911,2.341s-1.372,0.929-2.294,0.929
			c-0.57,0-1.114-0.129-1.632-0.387s-0.911-0.636-1.181-1.134S172.929,316.805,172.929,316.09z M174.616,316.178
			c0,0.617,0.146,1.09,0.439,1.418s0.654,0.492,1.084,0.492s0.79-0.164,1.081-0.492s0.437-0.805,0.437-1.43
			c0-0.609-0.146-1.078-0.437-1.406s-0.651-0.492-1.081-0.492s-0.791,0.164-1.084,0.492S174.616,315.561,174.616,316.178z"/>
		<path d="M184.735,319.29v-0.932c-0.227,0.332-0.524,0.594-0.894,0.785s-0.759,0.287-1.169,0.287c-0.418,0-0.793-0.092-1.125-0.275
			s-0.572-0.441-0.721-0.773s-0.223-0.791-0.223-1.377v-3.938h1.646v2.859c0,0.875,0.03,1.411,0.091,1.608s0.171,0.354,0.331,0.469
			s0.363,0.173,0.609,0.173c0.281,0,0.533-0.077,0.756-0.231s0.375-0.346,0.457-0.574s0.123-0.788,0.123-1.679v-2.625h1.646v6.223
			H184.735z"/>
		<path d="M190.823,313.067v1.313h-1.125v2.508c0,0.508,0.011,0.804,0.032,0.888s0.07,0.153,0.146,0.208s0.169,0.082,0.278,0.082
			c0.152,0,0.373-0.053,0.662-0.158l0.141,1.277c-0.383,0.164-0.816,0.246-1.301,0.246c-0.297,0-0.564-0.05-0.803-0.149
			s-0.413-0.229-0.524-0.387s-0.188-0.372-0.231-0.642c-0.035-0.191-0.053-0.578-0.053-1.16v-2.713h-0.756v-1.313h0.756v-1.236
			l1.652-0.961v2.197H190.823z"/>
		<path d="M192.024,319.29v-8.52h1.734v7.072h4.313v1.447H192.024z"/>
		<path d="M200.526,314.965l-1.494-0.27c0.168-0.602,0.457-1.047,0.867-1.336s1.02-0.434,1.828-0.434
			c0.734,0,1.281,0.087,1.641,0.261s0.612,0.395,0.759,0.662s0.22,0.759,0.22,1.474l-0.018,1.922c0,0.547,0.026,0.95,0.079,1.21
			s0.151,0.538,0.296,0.835h-1.629c-0.043-0.109-0.096-0.271-0.158-0.486c-0.027-0.098-0.047-0.162-0.059-0.193
			c-0.281,0.273-0.582,0.479-0.902,0.615s-0.662,0.205-1.025,0.205c-0.641,0-1.146-0.174-1.515-0.521s-0.554-0.787-0.554-1.318
			c0-0.352,0.084-0.665,0.252-0.94s0.403-0.486,0.706-0.633s0.739-0.274,1.31-0.384c0.77-0.145,1.303-0.279,1.6-0.404v-0.164
			c0-0.316-0.078-0.542-0.234-0.677s-0.451-0.202-0.885-0.202c-0.293,0-0.521,0.058-0.686,0.173S200.628,314.676,200.526,314.965z
			 M202.729,316.301c-0.211,0.07-0.545,0.154-1.002,0.252s-0.756,0.193-0.896,0.287c-0.215,0.152-0.322,0.346-0.322,0.58
			c0,0.23,0.086,0.43,0.258,0.598s0.391,0.252,0.656,0.252c0.297,0,0.58-0.098,0.85-0.293c0.199-0.148,0.33-0.33,0.393-0.545
			c0.043-0.141,0.064-0.408,0.064-0.803V316.301z"/>
		<path d="M205.911,319.29v-8.59h1.646v4.559l1.928-2.191h2.027l-2.127,2.273l2.279,3.949h-1.775l-1.564-2.795l-0.768,0.803v1.992
			H205.911z"/>
		<path d="M216.247,317.309l1.641,0.275c-0.211,0.602-0.544,1.06-0.999,1.374s-1.024,0.472-1.708,0.472
			c-1.082,0-1.883-0.354-2.402-1.061c-0.41-0.566-0.615-1.281-0.615-2.145c0-1.031,0.27-1.839,0.809-2.423s1.221-0.876,2.045-0.876
			c0.926,0,1.656,0.306,2.191,0.917s0.791,1.548,0.768,2.81h-4.125c0.012,0.488,0.145,0.868,0.398,1.14s0.57,0.407,0.949,0.407
			c0.258,0,0.475-0.07,0.65-0.211S216.157,317.622,216.247,317.309z M216.341,315.645c-0.012-0.477-0.135-0.839-0.369-1.087
			s-0.52-0.372-0.855-0.372c-0.359,0-0.656,0.131-0.891,0.393s-0.35,0.617-0.346,1.066H216.341z"/>
	</g>
	<g>
		<path d="M297.833,143.811l-1.653-6.965l2.959-0.703c0.744-0.176,1.301-0.242,1.667-0.197c0.367,0.045,0.69,0.204,0.969,0.476
			c0.278,0.271,0.467,0.613,0.564,1.025c0.124,0.522,0.072,0.99-0.153,1.404c-0.227,0.414-0.635,0.737-1.226,0.971
			c0.347,0.105,0.644,0.24,0.892,0.406c0.249,0.165,0.604,0.479,1.069,0.94l1.173,1.157l-1.682,0.399l-1.377-1.274
			c-0.489-0.456-0.817-0.738-0.983-0.848c-0.167-0.109-0.331-0.173-0.492-0.189c-0.161-0.017-0.403,0.013-0.727,0.089l-0.285,0.068
			l0.69,2.907L297.833,143.811z M298.286,139.458l1.041-0.247c0.674-0.16,1.089-0.289,1.243-0.385s0.263-0.226,0.324-0.388
			c0.063-0.162,0.068-0.347,0.019-0.556c-0.056-0.234-0.163-0.409-0.322-0.523s-0.357-0.164-0.595-0.147
			c-0.117,0.011-0.462,0.084-1.031,0.22l-1.098,0.26L298.286,139.458z"/>
		<path d="M304.836,142.149l-1.653-6.965l2.105-0.5l2.391,4.451l0.122-5.047l2.109-0.5l1.652,6.965l-1.306,0.31l-1.302-5.482
			l-0.081,5.811l-1.354,0.321l-2.679-5.156l1.302,5.483L304.836,142.149z"/>
		<path d="M319.241,138.731l-1.529,0.363l-0.983-1.438l-2.784,0.66l-0.2,1.719l-1.491,0.354l1.06-7.609l1.487-0.353L319.241,138.731
			z M315.998,136.59l-1.572-2.357l-0.328,2.808L315.998,136.59z"/>
		<path d="M319.968,138.559l-1.653-6.965l2.104-0.499l2.392,4.451l0.122-5.047l2.109-0.5l1.652,6.965l-1.307,0.31l-1.301-5.482
			l-0.081,5.811l-1.354,0.321l-2.679-5.156l1.301,5.483L319.968,138.559z"/>
		<path d="M328.101,136.629l-1.652-6.965l4.774-1.133l0.28,1.178l-3.369,0.799l0.392,1.648l2.907-0.69l0.28,1.178l-2.908,0.69
			l0.702,2.96L328.101,136.629z"/>
		<path d="M337.884,131.603l1.466,0.109c-0.028,0.81-0.242,1.457-0.641,1.941s-0.972,0.815-1.72,0.992
			c-0.925,0.22-1.76,0.084-2.505-0.406c-0.745-0.491-1.248-1.284-1.508-2.38c-0.275-1.159-0.189-2.13,0.257-2.914
			c0.446-0.783,1.157-1.291,2.133-1.522c0.852-0.202,1.604-0.114,2.255,0.263c0.388,0.222,0.727,0.594,1.018,1.113l-1.313,0.663
			c-0.168-0.342-0.407-0.586-0.718-0.733c-0.312-0.147-0.653-0.176-1.027-0.087c-0.517,0.123-0.892,0.407-1.125,0.854
			s-0.252,1.085-0.055,1.915c0.209,0.88,0.516,1.47,0.922,1.769c0.405,0.298,0.861,0.388,1.368,0.268
			c0.373-0.089,0.667-0.284,0.88-0.585C337.784,132.56,337.888,132.141,337.884,131.603z"/>
		<path d="M339.4,126.591l1.406-0.333l0.895,3.772c0.143,0.599,0.252,0.982,0.329,1.151c0.128,0.271,0.325,0.466,0.593,0.584
			c0.268,0.119,0.598,0.132,0.99,0.039c0.399-0.095,0.681-0.248,0.845-0.459c0.164-0.211,0.238-0.44,0.223-0.688
			c-0.015-0.248-0.088-0.646-0.219-1.198l-0.914-3.853l1.406-0.333l0.868,3.658c0.198,0.836,0.301,1.436,0.307,1.799
			s-0.065,0.688-0.213,0.974c-0.148,0.286-0.377,0.54-0.686,0.762s-0.738,0.398-1.289,0.529c-0.665,0.158-1.188,0.201-1.568,0.128
			c-0.38-0.072-0.699-0.207-0.957-0.405c-0.257-0.198-0.45-0.424-0.577-0.678c-0.187-0.377-0.372-0.956-0.557-1.735L339.4,126.591z"
			/>
		<path d="M348.045,131.896l-1.652-6.965l1.406-0.333l1.652,6.965L348.045,131.896z"/>
	</g>
	<g>
		<path d="M322.611,16.432l1.682,0.533c-0.258,0.938-0.687,1.634-1.286,2.089s-1.36,0.683-2.282,0.683
			c-1.141,0-2.078-0.39-2.813-1.169s-1.102-1.845-1.102-3.196c0-1.43,0.369-2.54,1.107-3.331s1.709-1.187,2.912-1.187
			c1.051,0,1.904,0.311,2.561,0.932c0.391,0.367,0.684,0.895,0.879,1.582l-1.717,0.41c-0.102-0.445-0.313-0.797-0.636-1.055
			s-0.714-0.387-1.175-0.387c-0.637,0-1.153,0.229-1.55,0.686s-0.595,1.197-0.595,2.221c0,1.086,0.195,1.859,0.586,2.32
			s0.898,0.691,1.523,0.691c0.461,0,0.857-0.146,1.189-0.439S322.466,17.061,322.611,16.432z"/>
		<path d="M325.429,15.348c0-0.875,0.131-1.609,0.393-2.203c0.195-0.438,0.462-0.83,0.8-1.178s0.708-0.605,1.11-0.773
			c0.535-0.227,1.152-0.34,1.852-0.34c1.266,0,2.278,0.393,3.038,1.178s1.14,1.877,1.14,3.275c0,1.387-0.377,2.472-1.131,3.255
			s-1.762,1.175-3.023,1.175c-1.277,0-2.293-0.39-3.047-1.169S325.429,16.715,325.429,15.348z M327.216,15.289
			c0,0.973,0.225,1.71,0.674,2.212s1.02,0.753,1.711,0.753s1.259-0.249,1.702-0.747s0.665-1.245,0.665-2.241
			c0-0.984-0.216-1.719-0.647-2.203s-1.005-0.727-1.72-0.727s-1.291,0.245-1.729,0.735S327.216,14.301,327.216,15.289z"/>
		<path d="M335.091,19.59V11h2.596l1.559,5.859L340.787,11h2.602v8.59h-1.611v-6.762l-1.705,6.762h-1.67l-1.699-6.762v6.762H335.091
			z"/>
		<path d="M306.193,31.59h-1.887l-0.75-1.951h-3.434l-0.709,1.951h-1.84l3.346-8.59h1.834L306.193,31.59z M303,28.191l-1.184-3.188
			l-1.16,3.188H303z"/>
		<path d="M307.054,25.367h1.535v0.914c0.199-0.313,0.469-0.566,0.809-0.762s0.717-0.293,1.131-0.293c0.723,0,1.336,0.283,1.84,0.85
			s0.756,1.355,0.756,2.367c0,1.039-0.254,1.847-0.762,2.423s-1.123,0.864-1.846,0.864c-0.344,0-0.655-0.068-0.935-0.205
			s-0.573-0.371-0.882-0.703v3.135h-1.646V25.367z M308.683,28.373c0,0.699,0.139,1.216,0.416,1.55s0.615,0.501,1.014,0.501
			c0.383,0,0.701-0.153,0.955-0.46s0.381-0.81,0.381-1.509c0-0.652-0.131-1.137-0.393-1.453s-0.586-0.475-0.973-0.475
			c-0.402,0-0.736,0.155-1.002,0.466S308.683,27.764,308.683,28.373z"/>
		<path d="M314.384,25.367h1.535v0.914c0.199-0.313,0.469-0.566,0.809-0.762s0.717-0.293,1.131-0.293c0.723,0,1.336,0.283,1.84,0.85
			s0.756,1.355,0.756,2.367c0,1.039-0.254,1.847-0.762,2.423s-1.123,0.864-1.846,0.864c-0.344,0-0.655-0.068-0.935-0.205
			s-0.573-0.371-0.882-0.703v3.135h-1.646V25.367z M316.013,28.373c0,0.699,0.139,1.216,0.416,1.55s0.615,0.501,1.014,0.501
			c0.383,0,0.701-0.153,0.955-0.46s0.381-0.81,0.381-1.509c0-0.652-0.131-1.137-0.393-1.453s-0.586-0.475-0.973-0.475
			c-0.402,0-0.736,0.155-1.002,0.466S316.013,27.764,316.013,28.373z"/>
		<path d="M321.761,31.59V23h1.646v8.59H321.761z"/>
		<path d="M325.095,24.523V23h1.646v1.523H325.095z M325.095,31.59v-6.223h1.646v6.223H325.095z"/>
		<path d="M333.855,27.207l-1.623,0.293c-0.055-0.324-0.179-0.568-0.372-0.732s-0.444-0.246-0.753-0.246
			c-0.41,0-0.737,0.142-0.981,0.425s-0.366,0.757-0.366,1.421c0,0.738,0.124,1.26,0.372,1.564s0.581,0.457,0.999,0.457
			c0.313,0,0.568-0.089,0.768-0.267s0.34-0.483,0.422-0.917l1.617,0.275c-0.168,0.742-0.49,1.303-0.967,1.682
			s-1.115,0.568-1.916,0.568c-0.91,0-1.636-0.287-2.177-0.861s-0.812-1.369-0.812-2.385c0-1.027,0.271-1.827,0.814-2.399
			s1.277-0.858,2.203-0.858c0.758,0,1.36,0.163,1.808,0.489S333.66,26.539,333.855,27.207z"/>
		<path d="M336.333,27.266l-1.494-0.27c0.168-0.602,0.457-1.047,0.867-1.336s1.02-0.434,1.828-0.434
			c0.734,0,1.281,0.087,1.641,0.261s0.612,0.395,0.759,0.662s0.22,0.759,0.22,1.474l-0.018,1.922c0,0.547,0.026,0.95,0.079,1.21
			s0.151,0.538,0.296,0.835h-1.629c-0.043-0.109-0.096-0.271-0.158-0.486c-0.027-0.098-0.047-0.162-0.059-0.193
			c-0.281,0.273-0.582,0.479-0.902,0.615s-0.662,0.205-1.025,0.205c-0.641,0-1.146-0.174-1.515-0.521s-0.554-0.787-0.554-1.318
			c0-0.352,0.084-0.665,0.252-0.94s0.403-0.486,0.706-0.633s0.739-0.274,1.31-0.384c0.77-0.145,1.303-0.279,1.6-0.404v-0.164
			c0-0.316-0.078-0.542-0.234-0.677s-0.451-0.202-0.885-0.202c-0.293,0-0.521,0.058-0.686,0.173S336.435,26.977,336.333,27.266z
			 M338.537,28.602c-0.211,0.07-0.545,0.154-1.002,0.252s-0.756,0.193-0.896,0.287c-0.215,0.152-0.322,0.346-0.322,0.58
			c0,0.23,0.086,0.43,0.258,0.598s0.391,0.252,0.656,0.252c0.297,0,0.58-0.098,0.85-0.293c0.199-0.148,0.33-0.33,0.393-0.545
			c0.043-0.141,0.064-0.408,0.064-0.803V28.602z"/>
		<path d="M344.63,25.367v1.313h-1.125v2.508c0,0.508,0.011,0.804,0.032,0.888s0.07,0.153,0.146,0.208s0.169,0.082,0.278,0.082
			c0.152,0,0.373-0.053,0.662-0.158l0.141,1.277c-0.383,0.164-0.816,0.246-1.301,0.246c-0.297,0-0.564-0.05-0.803-0.149
			s-0.413-0.229-0.524-0.387s-0.188-0.372-0.231-0.642c-0.035-0.191-0.053-0.578-0.053-1.16V26.68h-0.756v-1.313h0.756v-1.236
			l1.652-0.961v2.197H344.63z"/>
		<path d="M345.773,24.523V23h1.646v1.523H345.773z M345.773,31.59v-6.223h1.646v6.223H345.773z"/>
		<path d="M348.726,28.391c0-0.547,0.135-1.076,0.404-1.588s0.651-0.902,1.146-1.172s1.046-0.404,1.655-0.404
			c0.941,0,1.713,0.306,2.314,0.917s0.902,1.384,0.902,2.317c0,0.941-0.304,1.722-0.911,2.341s-1.372,0.929-2.294,0.929
			c-0.57,0-1.114-0.129-1.632-0.387s-0.911-0.636-1.181-1.134S348.726,29.105,348.726,28.391z M350.414,28.479
			c0,0.617,0.146,1.09,0.439,1.418s0.654,0.492,1.084,0.492s0.79-0.164,1.081-0.492s0.437-0.805,0.437-1.43
			c0-0.609-0.146-1.078-0.437-1.406s-0.651-0.492-1.081-0.492s-0.791,0.164-1.084,0.492S350.414,27.861,350.414,28.479z"/>
		<path d="M362.097,31.59h-1.646v-3.176c0-0.672-0.035-1.106-0.105-1.304s-0.185-0.351-0.343-0.46s-0.349-0.164-0.571-0.164
			c-0.285,0-0.541,0.078-0.768,0.234s-0.382,0.363-0.466,0.621s-0.126,0.734-0.126,1.43v2.818h-1.646v-6.223h1.529v0.914
			c0.543-0.703,1.227-1.055,2.051-1.055c0.363,0,0.695,0.065,0.996,0.196s0.528,0.298,0.683,0.501s0.262,0.434,0.322,0.691
			s0.091,0.627,0.091,1.107V31.59z"/>
	</g>
</g>
</svg>
