<?xml version="1.0" encoding="utf-8"?>
<!-- Generator: Adobe Illustrator 14.0.0, SVG Export Plug-In . SVG Version: 6.00 Build 43363)  -->
<!DOCTYPE svg PUBLIC "-//W3C//DTD SVG 1.0//EN" "http://www.w3.org/TR/2001/REC-SVG-20010904/DTD/svg10.dtd">
<svg version="1.0" xmlns="http://www.w3.org/2000/svg" xmlns:xlink="http://www.w3.org/1999/xlink" x="0px" y="0px" width="56.7px"
	 height="56.7px" viewBox="0 0 56.7 56.7" enable-background="new 0 0 56.7 56.7" xml:space="preserve">
<g id="Grids">
	<g>
		
			<line fill-rule="evenodd" clip-rule="evenodd" fill="none" stroke="#D4D4D4" stroke-width="0.27" x1="4.94" y1="0" x2="4.94" y2="56.7"/>
		
			<line fill-rule="evenodd" clip-rule="evenodd" fill="none" stroke="#D4D4D4" stroke-width="0.27" x1="9.62" y1="0" x2="9.62" y2="56.7"/>
		
			<line fill-rule="evenodd" clip-rule="evenodd" fill="none" stroke="#D4D4D4" stroke-width="0.27" x1="18.98" y1="0" x2="18.98" y2="56.7"/>
		
			<line fill-rule="evenodd" clip-rule="evenodd" fill="none" stroke="#D4D4D4" stroke-width="0.27" x1="23.67" y1="0" x2="23.67" y2="56.7"/>
		
			<line fill-rule="evenodd" clip-rule="evenodd" fill="none" stroke="#D4D4D4" stroke-width="0.27" x1="33.03" y1="0" x2="33.03" y2="56.7"/>
		
			<line fill-rule="evenodd" clip-rule="evenodd" fill="none" stroke="#D4D4D4" stroke-width="0.27" x1="37.71" y1="0" x2="37.71" y2="56.7"/>
		
			<line fill-rule="evenodd" clip-rule="evenodd" fill="none" stroke="#D4D4D4" stroke-width="0.27" x1="47.08" y1="0" x2="47.08" y2="56.7"/>
		
			<line fill-rule="evenodd" clip-rule="evenodd" fill="none" stroke="#D4D4D4" stroke-width="0.27" x1="51.76" y1="0" x2="51.76" y2="56.7"/>
		
			<line fill-rule="evenodd" clip-rule="evenodd" fill="none" stroke="#D4D4D4" stroke-width="0.27" x1="56.7" y1="4.94" x2="0" y2="4.94"/>
		
			<line fill-rule="evenodd" clip-rule="evenodd" fill="none" stroke="#D4D4D4" stroke-width="0.27" x1="56.7" y1="9.62" x2="0" y2="9.62"/>
		
			<line fill-rule="evenodd" clip-rule="evenodd" fill="none" stroke="#D4D4D4" stroke-width="0.27" x1="56.7" y1="18.98" x2="0" y2="18.98"/>
		
			<line fill-rule="evenodd" clip-rule="evenodd" fill="none" stroke="#D4D4D4" stroke-width="0.27" x1="56.7" y1="23.67" x2="0" y2="23.67"/>
		
			<line fill-rule="evenodd" clip-rule="evenodd" fill="none" stroke="#D4D4D4" stroke-width="0.27" x1="56.7" y1="33.03" x2="0" y2="33.03"/>
		
			<line fill-rule="evenodd" clip-rule="evenodd" fill="none" stroke="#D4D4D4" stroke-width="0.27" x1="56.7" y1="37.71" x2="0" y2="37.71"/>
		
			<line fill-rule="evenodd" clip-rule="evenodd" fill="none" stroke="#D4D4D4" stroke-width="0.27" x1="56.7" y1="47.08" x2="0" y2="47.08"/>
		
			<line fill-rule="evenodd" clip-rule="evenodd" fill="none" stroke="#D4D4D4" stroke-width="0.27" x1="56.7" y1="51.76" x2="0" y2="51.76"/>
		
			<line fill-rule="evenodd" clip-rule="evenodd" fill="none" stroke="#8A8A8A" stroke-width="0.27" x1="0.14" y1="0" x2="0.14" y2="56.7"/>
		
			<line fill-rule="evenodd" clip-rule="evenodd" fill="none" stroke="#8A8A8A" stroke-width="0.27" x1="28.35" y1="28.35" x2="28.35" y2="56.7"/>
		
			<line fill-rule="evenodd" clip-rule="evenodd" fill="none" stroke="#8A8A8A" stroke-width="0.27" x1="42.4" y1="0" x2="42.4" y2="56.7"/>
		
			<line fill-rule="evenodd" clip-rule="evenodd" fill="none" stroke="#8A8A8A" stroke-width="0.27" x1="56.56" y1="0" x2="56.56" y2="56.7"/>
		
			<line fill-rule="evenodd" clip-rule="evenodd" fill="none" stroke="#8A8A8A" stroke-width="0.27" x1="28.35" y1="28.35" x2="0" y2="28.35"/>
		
			<line fill-rule="evenodd" clip-rule="evenodd" fill="none" stroke="#8A8A8A" stroke-width="0.27" x1="56.7" y1="14.3" x2="0" y2="14.3"/>
		
			<line fill-rule="evenodd" clip-rule="evenodd" fill="none" stroke="#8A8A8A" stroke-width="0.27" x1="56.7" y1="0.14" x2="0" y2="0.14"/>
		
			<line fill-rule="evenodd" clip-rule="evenodd" fill="none" stroke="#8A8A8A" stroke-width="0.27" x1="56.7" y1="56.56" x2="0" y2="56.56"/>
		
			<line fill-rule="evenodd" clip-rule="evenodd" fill="none" stroke="#8A8A8A" stroke-width="0.27" x1="56.7" y1="28.35" x2="28.35" y2="28.35"/>
		
			<line fill-rule="evenodd" clip-rule="evenodd" fill="none" stroke="#8A8A8A" stroke-width="0.27" x1="28.35" y1="0" x2="28.35" y2="28.35"/>
		
			<line fill-rule="evenodd" clip-rule="evenodd" fill="none" stroke="#8A8A8A" stroke-width="0.27" x1="14.3" y1="56.7" x2="14.3" y2="42.48"/>
		
			<line fill-rule="evenodd" clip-rule="evenodd" fill="none" stroke="#8A8A8A" stroke-width="0.27" x1="0" y1="42.4" x2="14.06" y2="42.4"/>
		<line fill-rule="evenodd" clip-rule="evenodd" fill="none" stroke="#12AB00" x1="14.3" y1="0" x2="14.3" y2="42.48"/>
		<line fill-rule="evenodd" clip-rule="evenodd" fill="none" stroke="#A80000" x1="56.7" y1="42.4" x2="14.06" y2="42.4"/>
	</g>
</g>
<g id="Text">
	<path fill-rule="evenodd" clip-rule="evenodd" d="M47.8,8.8l1.42-0.3c0.1,0.24,0.18,0.49,0.24,0.74c0.09,0.37,0.16,0.8,0.21,1.31
		c0.03,0.25,0.07,0.79,0.11,1.61c0.41-0.45,0.65-0.73,0.73-0.84c0.43-0.58,0.68-0.92,0.74-1.02c0.11-0.17,0.18-0.32,0.23-0.46
		c0.03-0.09,0.05-0.19,0.05-0.27c0-0.09-0.08-0.19-0.23-0.3s-0.22-0.23-0.22-0.37c0-0.1,0.04-0.19,0.12-0.28
		c0.08-0.08,0.18-0.12,0.3-0.12c0.13,0,0.25,0.06,0.36,0.17c0.1,0.11,0.15,0.25,0.15,0.42c0,0.16-0.02,0.32-0.07,0.48
		c-0.09,0.24-0.25,0.55-0.48,0.9c-0.23,0.36-0.6,0.84-1.12,1.44c-0.06,0.07-0.42,0.45-1.08,1.13h-0.18
		c-0.08-2.06-0.24-3.35-0.49-3.86c-0.08-0.17-0.22-0.25-0.4-0.25c-0.09,0-0.2,0.02-0.35,0.05L47.8,8.8z"/>
	<path fill-rule="evenodd" clip-rule="evenodd" d="M27.78,11.97l-1.67,5.81c-0.08,0.29-0.12,0.47-0.12,0.53
		c0,0.05,0.02,0.09,0.05,0.12c0.03,0.04,0.07,0.05,0.11,0.05c0.06,0,0.13-0.03,0.2-0.08c0.17-0.14,0.35-0.34,0.53-0.62l0.15,0.15
		c-0.31,0.44-0.59,0.74-0.85,0.91c-0.2,0.13-0.38,0.19-0.55,0.19c-0.12,0-0.23-0.04-0.31-0.13c-0.08-0.08-0.13-0.18-0.13-0.29
		c0-0.12,0.06-0.36,0.16-0.72l1.32-4.58c0.11-0.38,0.17-0.59,0.17-0.65c0-0.08-0.04-0.14-0.1-0.19c-0.06-0.05-0.16-0.08-0.29-0.08
		c-0.07,0-0.18,0.01-0.34,0.04v-0.18L27.78,11.97z"/>
	<polygon fill-rule="evenodd" clip-rule="evenodd" points="50.95,7.48 51.11,7 47.6,7 47.6,6.75 51.11,6.75 50.95,6.28 52.75,6.88 	
		"/>
</g>
<g id="Other">
	
		<line fill-rule="evenodd" clip-rule="evenodd" fill="none" stroke="#000000" stroke-width="0.5" stroke-linejoin="bevel" x1="9.65" y1="37.66" x2="42.01" y2="5.08"/>
	
		<line fill-rule="evenodd" clip-rule="evenodd" fill="none" stroke="#000000" stroke-width="0.5" stroke-linejoin="bevel" x1="14.24" y1="42.39" x2="8.2" y2="36.4"/>
	
		<line fill-rule="evenodd" clip-rule="evenodd" fill="none" stroke="#000000" stroke-width="0.5" stroke-linejoin="bevel" x1="46.95" y1="9.69" x2="40.68" y2="3.47"/>
</g>
<g id="Vectors">
	<polygon fill-rule="evenodd" clip-rule="evenodd" points="14.66,42.67 13.95,41.97 43.54,12.17 42.6,11.7 46.83,9.57 44.72,13.81 
		44.25,12.88 	"/>
</g>
</svg>
