<?xml version="1.0" encoding="utf-8"?>
<!-- Generator: Adobe Illustrator 14.0.0, SVG Export Plug-In . SVG Version: 6.00 Build 43363)  -->
<!DOCTYPE svg PUBLIC "-//W3C//DTD SVG 1.0//EN" "http://www.w3.org/TR/2001/REC-SVG-20010904/DTD/svg10.dtd">
<svg version="1.0" xmlns="http://www.w3.org/2000/svg" xmlns:xlink="http://www.w3.org/1999/xlink" x="0px" y="0px"
	 width="521.28px" height="417.41px" viewBox="0 0 521.28 417.41" enable-background="new 0 0 521.28 417.41" xml:space="preserve">
<g id="BackBuffer">
</g>
<g id="Viewport_x5F_BG">
	<g>
		
			<line fill-rule="evenodd" clip-rule="evenodd" fill="none" stroke="#D4D4D4" stroke-linecap="round" stroke-linejoin="round" x1="65.88" y1="164.03" x2="520.28" y2="283.79"/>
		
			<line fill-rule="evenodd" clip-rule="evenodd" fill="none" stroke="#D4D4D4" stroke-linecap="round" stroke-linejoin="round" x1="397.56" y1="416.41" x2="520.28" y2="187.69"/>
		
			<line fill-rule="evenodd" clip-rule="evenodd" fill="none" stroke="#D4D4D4" stroke-linecap="round" stroke-linejoin="round" x1="163.75" y1="95.23" x2="520.28" y2="173.12"/>
		
			<line fill-rule="evenodd" clip-rule="evenodd" fill="none" stroke="#D4D4D4" stroke-linecap="round" stroke-linejoin="round" x1="152.94" y1="102.83" x2="520.28" y2="184.84"/>
		
			<line fill-rule="evenodd" clip-rule="evenodd" fill="none" stroke="#D4D4D4" stroke-linecap="round" stroke-linejoin="round" x1="141.76" y1="110.69" x2="520.28" y2="197.08"/>
		
			<line fill-rule="evenodd" clip-rule="evenodd" fill="none" stroke="#D4D4D4" stroke-linecap="round" stroke-linejoin="round" x1="130.2" y1="118.82" x2="520.28" y2="209.88"/>
		
			<line fill-rule="evenodd" clip-rule="evenodd" fill="none" stroke="#D4D4D4" stroke-linecap="round" stroke-linejoin="round" x1="435.93" y1="416.41" x2="520.28" y2="243.34"/>
		
			<line fill-rule="evenodd" clip-rule="evenodd" fill="none" stroke="#D4D4D4" stroke-linecap="round" stroke-linejoin="round" x1="105.84" y1="135.94" x2="520.28" y2="237.32"/>
		
			<line fill-rule="evenodd" clip-rule="evenodd" fill="none" stroke="#D4D4D4" stroke-linecap="round" stroke-linejoin="round" x1="93" y1="144.96" x2="520.28" y2="252.051"/>
		
			<line fill-rule="evenodd" clip-rule="evenodd" fill="none" stroke="#D4D4D4" stroke-linecap="round" stroke-linejoin="round" x1="79.69" y1="154.32" x2="520.28" y2="267.521"/>
		
			<line fill-rule="evenodd" clip-rule="evenodd" fill="none" stroke="#D4D4D4" stroke-linecap="round" stroke-linejoin="round" x1="205.69" y1="416.41" x2="421.44" y2="140.75"/>
		
			<line fill-rule="evenodd" clip-rule="evenodd" fill="none" stroke="#D4D4D4" stroke-linecap="round" stroke-linejoin="round" x1="1" y1="279.56" x2="413.081" y2="416.41"/>
		
			<line fill-rule="evenodd" clip-rule="evenodd" fill="none" stroke="#D4D4D4" stroke-linecap="round" stroke-linejoin="round" x1="1" y1="301.16" x2="336.78" y2="416.41"/>
		
			<line fill-rule="evenodd" clip-rule="evenodd" fill="none" stroke="#D4D4D4" stroke-linecap="round" stroke-linejoin="round" x1="359.19" y1="416.41" x2="509.61" y2="159.61"/>
		
			<line fill-rule="evenodd" clip-rule="evenodd" fill="none" stroke="#D4D4D4" stroke-linecap="round" stroke-linejoin="round" x1="320.81" y1="416.41" x2="486.959" y2="154.77"/>
		
			<line fill-rule="evenodd" clip-rule="evenodd" fill="none" stroke="#D4D4D4" stroke-linecap="round" stroke-linejoin="round" x1="1" y1="324.25" x2="260.48" y2="416.41"/>
		
			<line fill-rule="evenodd" clip-rule="evenodd" fill="none" stroke="#D4D4D4" stroke-linecap="round" stroke-linejoin="round" x1="244.07" y1="416.41" x2="442.879" y2="145.34"/>
		
			<line fill-rule="evenodd" clip-rule="evenodd" fill="none" stroke="#D4D4D4" stroke-linecap="round" stroke-linejoin="round" x1="1" y1="222.46" x2="493.93" y2="371.62"/>
		
			<line fill-rule="evenodd" clip-rule="evenodd" fill="none" stroke="#D4D4D4" stroke-linecap="round" stroke-linejoin="round" x1="1" y1="301.65" x2="244.58" y2="102.92"/>
		
			<line fill-rule="evenodd" clip-rule="evenodd" fill="none" stroke="#D4D4D4" stroke-linecap="round" stroke-linejoin="round" x1="1" y1="275.98" x2="226.55" y2="99.07"/>
		
			<line fill-rule="evenodd" clip-rule="evenodd" fill="none" stroke="#D4D4D4" stroke-linecap="round" stroke-linejoin="round" x1="1" y1="252.221" x2="208.82" y2="95.27"/>
		
			<line fill-rule="evenodd" clip-rule="evenodd" fill="none" stroke="#D4D4D4" stroke-linecap="round" stroke-linejoin="round" x1="1" y1="259.33" x2="476.169" y2="412.171"/>
		
			<line fill-rule="evenodd" clip-rule="evenodd" fill="none" stroke="#D4D4D4" stroke-linecap="round" stroke-linejoin="round" x1="1" y1="230.16" x2="191.38" y2="91.54"/>
		
			<line fill-rule="evenodd" clip-rule="evenodd" fill="none" stroke="#D4D4D4" stroke-linecap="round" stroke-linejoin="round" x1="60.61" y1="370.94" x2="319.79" y2="119.01"/>
		
			<line fill-rule="evenodd" clip-rule="evenodd" fill="none" stroke="#D4D4D4" stroke-linecap="round" stroke-linejoin="round" x1="34.74" y1="361.421" x2="300.51" y2="114.88"/>
		
			<line fill-rule="evenodd" clip-rule="evenodd" fill="none" stroke="#D4D4D4" stroke-linecap="round" stroke-linejoin="round" x1="9.53" y1="352.15" x2="281.55" y2="110.83"/>
		
			<line fill-rule="evenodd" clip-rule="evenodd" fill="none" stroke="#D4D4D4" stroke-linecap="round" stroke-linejoin="round" x1="87.17" y1="380.721" x2="339.419" y2="123.21"/>
		
			<line fill-rule="evenodd" clip-rule="evenodd" fill="none" stroke="#D4D4D4" stroke-linecap="round" stroke-linejoin="round" x1="142.47" y1="401.07" x2="379.7" y2="131.83"/>
		
			<line fill-rule="evenodd" clip-rule="evenodd" fill="none" stroke="#D4D4D4" stroke-linecap="round" stroke-linejoin="round" x1="171.27" y1="411.66" x2="400.39" y2="136.25"/>
		
			<line fill-rule="evenodd" clip-rule="evenodd" fill="none" stroke="#D4D4D4" stroke-linecap="round" stroke-linejoin="round" x1="21.15" y1="195.47" x2="509.93" y2="335.101"/>
		
			<line fill-rule="evenodd" clip-rule="evenodd" fill="none" stroke="#D4D4D4" stroke-linecap="round" stroke-linejoin="round" x1="5.03" y1="206.8" x2="502.129" y2="352.891"/>
		
			<line fill-rule="evenodd" clip-rule="evenodd" fill="none" stroke="#D4D4D4" stroke-linecap="round" stroke-linejoin="round" x1="36.64" y1="184.58" x2="517.35" y2="318.171"/>
	</g>
	<g>
		
			<line fill-rule="evenodd" clip-rule="evenodd" fill="none" stroke="#8A8A8A" stroke-linecap="round" stroke-linejoin="round" x1="174.22" y1="87.87" x2="520.28" y2="161.89"/>
		
			<line fill-rule="evenodd" clip-rule="evenodd" fill="none" stroke="#8A8A8A" stroke-linecap="round" stroke-linejoin="round" x1="118.23" y1="127.23" x2="520.28" y2="223.28"/>
		
			<line fill-rule="evenodd" clip-rule="evenodd" fill="none" stroke="#8A8A8A" stroke-linecap="round" stroke-linejoin="round" x1="474.31" y1="416.41" x2="520.28" y2="311.48"/>
		
			<line fill-rule="evenodd" clip-rule="evenodd" fill="none" stroke="#8A8A8A" stroke-linecap="round" stroke-linejoin="round" x1="282.44" y1="416.41" x2="464.72" y2="150.01"/>
		
			<line fill-rule="evenodd" clip-rule="evenodd" fill="none" stroke="#8A8A8A" stroke-linecap="round" stroke-linejoin="round" x1="1" y1="349.01" x2="184.18" y2="416.41"/>
		
			<line fill-rule="evenodd" clip-rule="evenodd" fill="none" stroke="#8A8A8A" stroke-linecap="round" stroke-linejoin="round" x1="1" y1="329.46" x2="262.911" y2="106.84"/>
		
			<line fill-rule="evenodd" clip-rule="evenodd" fill="none" stroke="#8A8A8A" stroke-linecap="round" stroke-linejoin="round" x1="1" y1="240.33" x2="485.29" y2="391.351"/>
		
			<line fill-rule="evenodd" clip-rule="evenodd" fill="none" stroke="#8A8A8A" stroke-linecap="round" stroke-linejoin="round" x1="1" y1="209.63" x2="174.22" y2="87.87"/>
		
			<line fill-rule="evenodd" clip-rule="evenodd" fill="none" stroke="#8A8A8A" stroke-linecap="round" stroke-linejoin="round" x1="262.82" y1="231.271" x2="51.54" y2="174.11"/>
		
			<line fill-rule="evenodd" clip-rule="evenodd" fill="none" stroke="#8A8A8A" stroke-linecap="round" stroke-linejoin="round" x1="262.82" y1="231.271" x2="114.45" y2="390.75"/>
	</g>
	
		<line fill-rule="evenodd" clip-rule="evenodd" fill="none" stroke="#12AB00" stroke-width="2" stroke-linecap="round" stroke-linejoin="round" x1="359.379" y1="127.48" x2="262.82" y2="231.271"/>
	
		<line fill-rule="evenodd" clip-rule="evenodd" fill="none" stroke="#A80000" stroke-width="2" stroke-linecap="round" stroke-linejoin="round" x1="520.28" y1="300.921" x2="262.82" y2="231.271"/>
</g>
<g id="Viewport_x5F_MG">
	<path fill-rule="evenodd" clip-rule="evenodd" d="M176.24,148.87l-2.9-2.63l4.04-1.63c12.51-5.43,24.57-11.76,36.42-18.54
		c-0.02,0.02-0.07,0.04,0.06-0.03c0.1-0.06,0.19-0.11,0.29-0.17c0.12-0.07,0.23-0.13,0.35-0.2c0.31-0.18,0.62-0.36,0.92-0.54
		c1.44-0.86,2.87-1.75,4.27-2.68c3.65-2.42,7.12-5.08,10.43-8.13c1.46-1.34,2.86-2.81,4.17-4.28c2.24-2.51,4.21-5.24,5.73-8.14
		c1.82-3.45,3.21-7.15,3.48-11.37c0.2-3.07-0.21-6.04-1.17-8.62c-0.82-2.21-1.96-4.28-3.53-6.11c-0.37-0.45-0.78-0.89-1.19-1.32
		c-2.16-2.27-4.74-3.89-7.41-5.17c-0.63-0.3-1.27-0.58-1.93-0.83c-0.74-0.27-1.49-0.54-2.24-0.77c-3.86-1.18-8.11-1.69-12.57-1.56
		c-5.38,0.16-10.36,1.19-15.07,2.7c-0.98,0.31-1.95,0.67-2.92,1.01c-1.98,0.71-3.9,1.58-5.8,2.46c-3.99,1.85-7.76,4.13-11.44,6.6
		c-0.28,0.18-0.65,0.11-0.83-0.17c-0.19-0.27-0.11-0.64,0.16-0.83c3.01-2,6.06-3.88,9.24-5.53c5.38-2.77,10.98-4.94,17.06-6.32
		c1.95-0.45,3.98-0.81,6.05-1c1.73-0.16,3.5-0.3,5.32-0.28c4.13,0.04,7.95,0.56,11.55,1.65c1.58,0.48,3.16,1.06,4.62,1.79
		c1.46,0.74,2.93,1.52,4.25,2.53c1.04,0.78,2.1,1.59,3.03,2.55c0.76,0.79,1.5,1.59,2.14,2.44c2.67,3.56,4.26,7.62,4.5,12.4
		c0.04,0.84,0.03,1.69-0.01,2.53c-0.16,3.19-0.93,6.17-2.04,8.9c-2.51,6.22-6.65,11.67-11.78,16.57c-1.11,1.05-2.24,2.06-3.39,3.04
		c-2.7,2.31-5.54,4.36-8.45,6.31c-1.11,0.75-2.23,1.46-3.37,2.16c-0.38,0.23-0.78,0.44-1.14,0.69c-0.56,0.37-1.17,0.7-1.76,1.04
		c-0.73,0.44-1.47,0.88-2.21,1.31c-2.89,1.69-5.8,3.35-8.72,4.99c-7.66,4.29-15.47,8.3-23.43,11.98L176.24,148.87z"/>
	<path fill-rule="evenodd" clip-rule="evenodd" d="M133.71,156.89c1.56-0.06,3.09-0.19,4.57-0.37c4.01-0.47,7.87-1.26,11.63-2.22
		c4.77-1.21,9.42-2.68,13.99-4.32l1.13-0.45l3.09,2.68l-4.43,1.88c-4.16,1.56-8.39,2.98-12.73,4.16c-3.57,0.97-7.2,1.82-10.97,2.4
		c-2.84,0.44-5.78,0.74-8.83,0.76c-4.49,0.03-8.77-0.5-12.41-2.2c-1.43-0.67-2.8-1.5-3.99-2.64c-1.12-1.06-2.02-2.26-2.58-3.6
		c-0.45-1.07-0.77-2.17-0.87-3.41c-0.08-0.98-0.04-2.03,0.13-2.94c0.5-2.61,1.62-4.8,3.23-6.86c1.75-2.23,4.07-4.05,6.43-5.37
		c4.4-2.46,9.44-3.73,15.06-3.73c1.09,0,2.15,0.04,3.19,0.13c3.91,0.36,7.54,1.21,11.01,2.42c3.85,1.35,7.52,3.14,10.98,5.27
		c1.98,1.22,3.92,2.52,5.81,3.92l5.21,4.21l2.9,2.63l1.44,1.33c7.89,7.63,14.25,16.17,20.08,24.93c1.63,2.46,3.15,4.98,4.68,7.5
		c0.86,1.41,0.4,3.26-1.02,4.11c-0.35,0.22-0.73,0.35-1.12,0.4c-1.16,0.17-2.35-0.35-2.99-1.42c-2.83-4.65-5.75-9.27-8.96-13.75
		c-4.34-6.08-9.06-11.85-14.52-17.34c-0.8-0.81-1.65-1.6-2.47-2.38l-1.04-0.9l-3.08-2.68l-0.6-0.52c-3.38-2.71-6.91-5.19-10.67-7.15
		c-1.54-0.8-3.08-1.57-4.69-2.22c-2.14-0.86-4.31-1.63-6.6-2.15c-1.45-0.33-2.91-0.61-4.43-0.77c-1.12-0.12-2.28-0.19-3.46-0.2
		c-1.81-0.02-3.55,0.16-5.21,0.45c-3.07,0.55-5.9,1.64-8.42,3.28c-1.38,0.9-2.76,2.08-3.79,3.41c-0.74,0.95-1.32,1.95-1.74,3.04
		c-0.29,0.74-0.46,1.55-0.48,2.41c-0.04,2.05,0.85,3.59,2.31,4.88c0.33,0.3,0.7,0.54,1.06,0.78c1.49,1,3.28,1.56,5.08,1.97
		c1.4,0.33,2.9,0.51,4.42,0.61C130.59,156.95,132.16,156.96,133.71,156.89z"/>
	
		<polyline fill-rule="evenodd" clip-rule="evenodd" fill="none" stroke="#80003B" stroke-width="2" stroke-linejoin="bevel" points="
		262.82,231.271 194.98,212.91 139.41,264.34 139.41,339.07 	"/>
	
		<polyline fill-rule="evenodd" clip-rule="evenodd" fill="none" stroke="#080096" stroke-width="2" stroke-linejoin="bevel" points="
		262.82,231.271 335.331,250.78 355.21,225.38 355.4,175.2 	"/>
	<g>
		
			<line fill-rule="evenodd" clip-rule="evenodd" fill="none" stroke="#080096" stroke-width="4" stroke-linejoin="bevel" x1="262.82" y1="231.271" x2="343.12" y2="182.64"/>
		<polygon fill="#080096" points="345.268,190.695 352.956,176.713 337.003,177.047 		"/>
	</g>
	<g>
		
			<line fill-rule="evenodd" clip-rule="evenodd" fill="none" stroke="#80003B" stroke-width="4" stroke-linejoin="bevel" x1="262.82" y1="231.271" x2="150.66" y2="329.25"/>
		<polygon fill="#80003B" points="147.154,321.687 141.996,336.785 157.65,333.703 		"/>
	</g>
	<path fill-rule="evenodd" clip-rule="evenodd" fill="#FFFFFF" d="M258.37,231.271c0-2.461,2-4.45,4.45-4.45
		c2.461,0,4.45,1.989,4.45,4.45c0,2.45-1.989,4.45-4.45,4.45C260.37,235.721,258.37,233.721,258.37,231.271z"/>
	<path fill-rule="evenodd" clip-rule="evenodd" fill="#80003B" d="M264.59,236.43c-2.851,0.971-5.95-0.55-6.93-3.399
		c-0.97-2.84,0.55-5.94,3.4-6.92l0.64,1.89c-1.8,0.62-2.76,2.59-2.14,4.391c0.609,1.8,2.58,2.76,4.38,2.14L264.59,236.43z"/>
	<path fill-rule="evenodd" clip-rule="evenodd" fill="#080096" d="M264.59,236.43c2.84-0.979,4.359-4.079,3.39-6.93
		c-0.979-2.84-4.08-4.359-6.92-3.39l0.64,1.89c1.801-0.609,3.771,0.351,4.391,2.15c0.609,1.8-0.351,3.771-2.15,4.38L264.59,236.43z"
		/>
	<path fill-rule="evenodd" clip-rule="evenodd" fill="#FFFFFF" stroke="#080096" stroke-width="2" d="M350.95,175.2
		c0-2.45,1.99-4.45,4.45-4.45c2.45,0,4.45,2,4.45,4.45c0,2.46-2,4.45-4.45,4.45C352.94,179.65,350.95,177.66,350.95,175.2z"/>
	<path fill-rule="evenodd" clip-rule="evenodd" fill="#FFFFFF" stroke="#80003B" stroke-width="2" d="M134.96,339.07
		c0-2.46,1.99-4.45,4.45-4.45c2.45,0,4.45,1.99,4.45,4.45s-2,4.45-4.45,4.45C136.95,343.521,134.96,341.53,134.96,339.07z"/>
	<path fill-rule="evenodd" clip-rule="evenodd" fill="#80003B" d="M137.43,264.34c0-1.09,0.89-1.97,1.98-1.97s1.97,0.88,1.97,1.97
		s-0.88,1.98-1.97,1.98S137.43,265.43,137.43,264.34z"/>
	<path fill-rule="evenodd" clip-rule="evenodd" fill="#80003B" d="M193,212.91c0-1.09,0.89-1.97,1.98-1.97
		c1.09,0,1.97,0.88,1.97,1.97s-0.88,1.98-1.97,1.98C193.89,214.891,193,214,193,212.91z"/>
	<path fill-rule="evenodd" clip-rule="evenodd" fill="#080096" d="M333.61,250.96c0-1.09,0.891-1.979,1.98-1.979
		s1.979,0.89,1.979,1.979c0,1.091-0.89,1.97-1.979,1.97S333.61,252.051,333.61,250.96z"/>
	<path fill-rule="evenodd" clip-rule="evenodd" fill="#080096" d="M353.2,225.43c0-1.089,0.881-1.979,1.97-1.979
		c1.091,0,1.98,0.891,1.98,1.979c0,1.091-0.89,1.971-1.98,1.971C354.081,227.4,353.2,226.521,353.2,225.43z"/>
	
		<polyline fill-rule="evenodd" clip-rule="evenodd" fill="none" stroke="#FF5900" stroke-width="2" stroke-linejoin="bevel" points="
		214.67,127.32 272.79,140.59 291.62,123.13 291.62,80.86 	"/>
	<g>
		
			<line fill-rule="evenodd" clip-rule="evenodd" fill="none" stroke="#FF5900" stroke-width="4" stroke-linejoin="bevel" x1="214.68" y1="127.32" x2="277.69" y2="88.92"/>
		<polygon fill="#FF5900" points="279.861,96.969 287.508,82.966 271.557,83.345 		"/>
	</g>
	<path fill-rule="evenodd" clip-rule="evenodd" fill="#FFFFFF" stroke="#000000" stroke-width="2" d="M210.23,127.14
		c0-2.45,1.99-4.45,4.45-4.45c2.45,0,4.45,2,4.45,4.45c0,2.46-2,4.45-4.45,4.45C212.22,131.59,210.23,129.6,210.23,127.14z"/>
	<path fill-rule="evenodd" clip-rule="evenodd" fill="#FFFFFF" stroke="#FF5900" stroke-width="2" d="M286.71,80.15
		c0-2.46,2-4.45,4.459-4.45c2.45,0,4.45,1.99,4.45,4.45c0,2.45-2,4.45-4.45,4.45C288.71,84.6,286.71,82.6,286.71,80.15z"/>
	<path fill-rule="evenodd" clip-rule="evenodd" fill="#FF5900" d="M270.97,140.69c0-1.09,0.88-1.98,1.97-1.98
		c1.091,0,1.979,0.89,1.979,1.98c0,1.09-0.889,1.97-1.979,1.97C271.85,142.66,270.97,141.78,270.97,140.69z"/>
	<path fill-rule="evenodd" clip-rule="evenodd" fill="#FF5900" d="M289.59,123.03c0-1.09,0.89-1.98,1.979-1.98
		c1.091,0,1.97,0.89,1.97,1.98s-0.879,1.97-1.97,1.97C290.48,125,289.59,124.12,289.59,123.03z"/>
	<text transform="matrix(1 0 0 1 288.1499 254.29)" fill="#080096" font-family="'TrebuchetMS'" font-size="12">3.0</text>
	<text transform="matrix(1 0 0 1 347.1802 247.3906)" fill="#080096" font-family="'TrebuchetMS'" font-size="12">2.0</text>
	<text transform="matrix(1 0 0 1 358.1997 206.8101)" fill="#080096" font-family="'TrebuchetMS'" font-size="12">2.5</text>
	<text transform="matrix(1 0 0 1 362.3999 177.4204)" fill="#080096" font-family="'TrebuchetMS'" font-size="12">(3.0, 2.0, 2.5)</text>
	<text transform="matrix(1 0 0 1 297.52 82.9204)" fill="#FF5900" font-family="'TrebuchetMS'" font-size="12">(3.0, 2.0, 2.5)</text>
	<text transform="matrix(1 0 0 1 294.4497 104.8101)" fill="#FF5900" font-family="'TrebuchetMS'" font-size="12">2.5</text>
	<text transform="matrix(1 0 0 1 284.5503 142.0103)" fill="#FF5900" font-family="'TrebuchetMS'" font-size="12">2.0</text>
	<text transform="matrix(1 0 0 1 232.6499 145.9102)" fill="#FF5900" font-family="'TrebuchetMS'" font-size="12">3.0</text>
	<text transform="matrix(1 0 0 1 218.7803 217.9102)" fill="#80003B" font-family="'TrebuchetMS'" font-size="12">-3.0</text>
	<text transform="matrix(1 0 0 1 142.2803 238.54)" fill="#80003B" font-family="'TrebuchetMS'" font-size="12">-4.0</text>
	<text transform="matrix(1 0 0 1 113.7803 303.79)" fill="#80003B" font-family="'TrebuchetMS'" font-size="12">-3.5</text>
	<text transform="matrix(1 0 0 1 45.8999 343.1699)" fill="#80003B" font-family="'TrebuchetMS'" font-size="12">(-3.0, -4.0,-3.5)</text>
	<text transform="matrix(1 0 0 1 205.3403 123.9302)" font-family="'TrebuchetMS-Italic'" font-size="12">t</text>
</g>
<g id="Viewport_x5F_FG">
	<rect x="1" y="1" fill-rule="evenodd" clip-rule="evenodd" fill="#0000B0" width="145.5" height="23"/>
	<text transform="matrix(1 0 0 1 7.48 18.9004)" fill="#FFFFFF" font-family="'Helvetica-Bold'" font-size="18">Rhino Viewport</text>
	
		<rect x="1" y="1" fill-rule="evenodd" clip-rule="evenodd" fill="none" stroke="#000000" stroke-width="2" stroke-linecap="round" width="519.28" height="415.41"/>
</g>
</svg>
