<?xml version="1.0" encoding="utf-8"?>
<!-- Generator: Adobe Illustrator 14.0.0, SVG Export Plug-In . SVG Version: 6.00 Build 43363)  -->
<!DOCTYPE svg PUBLIC "-//W3C//DTD SVG 1.1//EN" "http://www.w3.org/Graphics/SVG/1.1/DTD/svg11.dtd">
<svg version="1.1" id="Layer_1" xmlns="http://www.w3.org/2000/svg" xmlns:xlink="http://www.w3.org/1999/xlink" x="0px" y="0px"
	 width="413.422px" height="109.507px" viewBox="0 0 413.422 109.507" enable-background="new 0 0 413.422 109.507"
	 xml:space="preserve">
<g>
	<g>
		<defs>
			<rect id="SVGID_1_" y="7.949" width="115.514" height="98.677"/>
		</defs>
		<clipPath id="SVGID_2_">
			<use xlink:href="#SVGID_1_"  overflow="visible"/>
		</clipPath>
		<path clip-path="url(#SVGID_2_)" fill="#D0D2D3" d="M10.296,9.699c0,0-8,0-8,8v79.177c0,0,0,8,8,8h89.941c0,0,8,0,8-8V17.699
			c0,0,0-8-8-8H10.296z"/>
	</g>
	<g>
		<defs>
			<rect id="SVGID_3_" y="7.949" width="115.514" height="98.677"/>
		</defs>
		<clipPath id="SVGID_4_">
			<use xlink:href="#SVGID_3_"  overflow="visible"/>
		</clipPath>
		<path clip-path="url(#SVGID_4_)" fill="#FFFFFF" d="M2,81.333h106.534V95.46H2V81.333z M2,67.207h106.534v14.127H2V67.207z
			 M2,53.078h106.534v14.128H2V53.078z M2,38.95h106.534v14.128H2V38.95z M2,24.822h106.534V38.95H2V24.822z"/>
	</g>
	<g>
		<defs>
			<rect id="SVGID_5_" y="7.949" width="115.514" height="98.677"/>
		</defs>
		<clipPath id="SVGID_6_">
			<use xlink:href="#SVGID_5_"  overflow="visible"/>
		</clipPath>
		
			<line clip-path="url(#SVGID_6_)" fill="none" stroke="#231F20" stroke-miterlimit="10" x1="2" y1="24.822" x2="108.534" y2="24.822"/>
	</g>
	<g>
		<defs>
			<rect id="SVGID_7_" y="7.949" width="115.514" height="98.677"/>
		</defs>
		<clipPath id="SVGID_8_">
			<use xlink:href="#SVGID_7_"  overflow="visible"/>
		</clipPath>
		
			<line clip-path="url(#SVGID_8_)" fill="none" stroke="#231F20" stroke-width="0.25" stroke-miterlimit="10" x1="2" y1="38.95" x2="108.534" y2="38.95"/>
	</g>
	<g>
		<defs>
			<rect id="SVGID_9_" y="7.949" width="115.514" height="98.677"/>
		</defs>
		<clipPath id="SVGID_10_">
			<use xlink:href="#SVGID_9_"  overflow="visible"/>
		</clipPath>
		
			<line clip-path="url(#SVGID_10_)" fill="none" stroke="#231F20" stroke-width="0.25" stroke-miterlimit="10" x1="2" y1="53.078" x2="108.534" y2="53.078"/>
	</g>
	<g>
		<defs>
			<rect id="SVGID_11_" y="7.949" width="115.514" height="98.677"/>
		</defs>
		<clipPath id="SVGID_12_">
			<use xlink:href="#SVGID_11_"  overflow="visible"/>
		</clipPath>
		
			<line clip-path="url(#SVGID_12_)" fill="none" stroke="#231F20" stroke-width="0.25" stroke-miterlimit="10" x1="2" y1="67.207" x2="108.534" y2="67.207"/>
	</g>
	<g>
		<defs>
			<rect id="SVGID_13_" y="7.949" width="115.514" height="98.677"/>
		</defs>
		<clipPath id="SVGID_14_">
			<use xlink:href="#SVGID_13_"  overflow="visible"/>
		</clipPath>
		
			<line clip-path="url(#SVGID_14_)" fill="none" stroke="#231F20" stroke-width="0.25" stroke-miterlimit="10" x1="2" y1="81.333" x2="108.534" y2="81.333"/>
	</g>
	<g>
		<defs>
			<rect id="SVGID_15_" y="7.949" width="115.514" height="98.677"/>
		</defs>
		<clipPath id="SVGID_16_">
			<use xlink:href="#SVGID_15_"  overflow="visible"/>
		</clipPath>
		
			<line clip-path="url(#SVGID_16_)" fill="none" stroke="#231F20" stroke-miterlimit="10" x1="2" y1="95.46" x2="108.534" y2="95.46"/>
	</g>
</g>
<g enable-background="new    ">
	<path fill="#231F20" d="M37.423,20.822l1.265-7.153h0.996l-1.265,7.153H37.423z"/>
	<path fill="#231F20" d="M43.395,20.822l0.547-3.042c0.049-0.271,0.073-0.495,0.073-0.674c0-0.554-0.288-0.83-0.864-0.83
		c-0.221,0-0.458,0.065-0.71,0.195s-0.453,0.285-0.603,0.464l-0.679,3.887h-0.938l0.703-3.965c0.016-0.091,0.024-0.198,0.024-0.322
		c0-0.332-0.034-0.62-0.103-0.864l0.898-0.176c0.088,0.476,0.13,0.734,0.127,0.776c0.397-0.518,0.97-0.776,1.719-0.776
		c0.944,0,1.416,0.481,1.416,1.445c0,0.192-0.021,0.407-0.063,0.645l-0.562,3.237H43.395z"/>
	<path fill="#231F20" d="M46.871,16.325h-0.605l0.156-0.732h0.605l0.215-1.094l1.06-0.4l-0.347,1.494h1.436l-0.156,0.732h-1.436
		l-0.547,2.598c-0.042,0.202-0.063,0.358-0.063,0.469c0,0.498,0.248,0.747,0.742,0.747c0.241,0,0.5-0.061,0.776-0.181l-0.034,0.815
		c-0.267,0.098-0.698,0.146-1.294,0.146c-0.371,0-0.66-0.115-0.867-0.344c-0.207-0.23-0.31-0.545-0.31-0.945
		c0-0.091,0.015-0.203,0.044-0.337L46.871,16.325z"/>
	<path fill="#231F20" d="M51.021,18.351c-0.029,0.156-0.044,0.306-0.044,0.449c0,0.43,0.121,0.76,0.361,0.991
		s0.578,0.347,1.011,0.347c0.384,0,0.771-0.142,1.162-0.425l-0.098,0.947c-0.521,0.173-0.981,0.259-1.382,0.259
		c-1.348,0-2.021-0.755-2.021-2.266c0-0.889,0.283-1.638,0.85-2.246s1.279-0.913,2.139-0.913c0.518,0,0.931,0.11,1.24,0.332
		s0.464,0.537,0.464,0.947c0,0.569-0.241,1.019-0.723,1.348s-1.073,0.493-1.772,0.493C51.739,18.615,51.344,18.527,51.021,18.351z
		 M51.183,17.677c0.248,0.11,0.539,0.166,0.874,0.166c0.508,0,0.923-0.082,1.245-0.246c0.322-0.165,0.483-0.405,0.483-0.721
		c0-0.4-0.277-0.601-0.83-0.601C52.112,16.276,51.521,16.743,51.183,17.677z"/>
	<path fill="#231F20" d="M54.811,22.287l0.439-0.684c0.596,0.3,1.089,0.449,1.479,0.449c0.43,0,0.788-0.08,1.074-0.239
		s0.43-0.383,0.43-0.669c0-0.144-0.048-0.262-0.144-0.354c-0.096-0.094-0.26-0.159-0.491-0.198l-0.859-0.146
		c-0.348-0.088-0.522-0.266-0.522-0.532c0-0.215,0.278-0.432,0.835-0.649l-0.166,0.005c-0.381,0-0.715-0.143-1.003-0.428
		c-0.288-0.284-0.432-0.627-0.432-1.027c0-0.684,0.22-1.241,0.659-1.672c0.439-0.432,1.001-0.647,1.685-0.647
		c0.492,0,0.879,0.117,1.162,0.352l0.439-0.498l0.513,0.527l-0.483,0.503c0.094,0.134,0.142,0.344,0.142,0.63
		c0,0.56-0.142,1.04-0.425,1.44s-0.653,0.682-1.111,0.842c-0.458,0.162-0.686,0.313-0.686,0.452c0,0.114,0.062,0.171,0.186,0.171
		c0.045,0,0.113-0.008,0.203-0.021c0.089-0.016,0.157-0.022,0.203-0.022c0.814,0,1.221,0.368,1.221,1.104
		c0,0.576-0.256,1.037-0.769,1.382s-1.122,0.518-1.829,0.518C55.842,22.873,55.26,22.677,54.811,22.287z M57.726,16.242
		c-0.375,0-0.689,0.146-0.945,0.438c-0.255,0.291-0.383,0.634-0.383,1.027c0,0.71,0.269,1.064,0.806,1.064
		c0.365,0,0.687-0.178,0.967-0.535c0.28-0.355,0.42-0.734,0.42-1.135c0-0.264-0.078-0.473-0.234-0.627
		C58.199,16.319,57.989,16.242,57.726,16.242z"/>
	<path fill="#231F20" d="M61.412,18.351c-0.029,0.156-0.044,0.306-0.044,0.449c0,0.43,0.121,0.76,0.361,0.991
		s0.578,0.347,1.011,0.347c0.384,0,0.771-0.142,1.162-0.425l-0.098,0.947c-0.521,0.173-0.981,0.259-1.382,0.259
		c-1.348,0-2.021-0.755-2.021-2.266c0-0.889,0.283-1.638,0.85-2.246s1.279-0.913,2.139-0.913c0.518,0,0.931,0.11,1.24,0.332
		s0.464,0.537,0.464,0.947c0,0.569-0.241,1.019-0.723,1.348s-1.073,0.493-1.772,0.493C62.13,18.615,61.734,18.527,61.412,18.351z
		 M61.573,17.677c0.248,0.11,0.539,0.166,0.874,0.166c0.508,0,0.923-0.082,1.245-0.246c0.322-0.165,0.483-0.405,0.483-0.721
		c0-0.4-0.277-0.601-0.83-0.601C62.502,16.276,61.912,16.743,61.573,17.677z"/>
	<path fill="#231F20" d="M69.342,16.51c-0.195-0.156-0.423-0.234-0.684-0.234c-0.329,0-0.643,0.152-0.942,0.456
		c-0.299,0.305-0.487,0.669-0.562,1.092l-0.532,2.998h-0.928l0.923-5.229h0.928l-0.146,0.835c0.449-0.622,1.007-0.933,1.675-0.933
		c0.114,0,0.292,0.022,0.532,0.068L69.342,16.51z"/>
	<path fill="#231F20" d="M69.474,20.509l0.483-0.879c0.127,0.127,0.309,0.243,0.547,0.35c0.238,0.105,0.441,0.158,0.61,0.158
		c0.29,0,0.529-0.078,0.718-0.234s0.283-0.368,0.283-0.635c0-0.137-0.05-0.259-0.149-0.366s-0.271-0.231-0.515-0.371l-0.688-0.381
		c-0.211-0.12-0.37-0.272-0.476-0.456c-0.106-0.185-0.159-0.381-0.159-0.589c0-0.485,0.189-0.875,0.566-1.169
		c0.377-0.295,0.841-0.442,1.392-0.442c0.381,0,0.84,0.12,1.377,0.361l-0.415,0.859c-0.319-0.293-0.663-0.439-1.03-0.439
		c-0.244,0-0.455,0.063-0.632,0.188c-0.177,0.125-0.266,0.29-0.266,0.495c0,0.149,0.05,0.278,0.151,0.386s0.275,0.228,0.522,0.361
		l0.684,0.371c0.211,0.114,0.37,0.261,0.474,0.439s0.156,0.374,0.156,0.586c0,0.56-0.203,1.003-0.608,1.328s-0.92,0.488-1.545,0.488
		C70.403,20.919,69.91,20.783,69.474,20.509z"/>
</g>
<g enable-background="new    ">
	<path fill="#231F20" d="M11.08,31.379l-0.198,1.016c-0.167,0.885-0.488,1.583-0.962,2.095c-0.375,0.404-0.784,0.605-1.226,0.605
		c-0.293,0-0.539-0.078-0.736-0.234c-0.198-0.156-0.332-0.36-0.402-0.61c-0.1-0.358-0.149-0.697-0.149-1.016
		c0-0.248,0.029-0.527,0.088-0.84l0.198-1.016c0.167-0.889,0.489-1.588,0.967-2.1c0.372-0.403,0.779-0.605,1.222-0.605
		c0.296,0,0.542,0.078,0.738,0.234s0.33,0.363,0.4,0.62c0.1,0.358,0.149,0.695,0.149,1.011
		C11.168,30.784,11.139,31.064,11.08,31.379z M10.698,31.433c0.047-0.25,0.07-0.481,0.07-0.693c0-0.446-0.041-0.783-0.123-1.011
		c-0.082-0.228-0.19-0.391-0.325-0.491c-0.135-0.099-0.302-0.149-0.501-0.149c-0.416,0-0.785,0.236-1.107,0.708
		c-0.322,0.472-0.542,1.018-0.659,1.636l-0.176,0.903c-0.047,0.254-0.07,0.485-0.07,0.693c0,0.443,0.041,0.779,0.123,1.008
		s0.19,0.395,0.325,0.496s0.302,0.151,0.501,0.151c0.416,0,0.785-0.237,1.107-0.71s0.542-1.02,0.659-1.638L10.698,31.433z"/>
</g>
<g enable-background="new    ">
	<path fill="#231F20" d="M10.069,42.868l-1.107,5.801h1.266c0.082,0,0.138,0.014,0.167,0.042s0.044,0.067,0.044,0.12
		c0,0.068-0.024,0.127-0.072,0.176c-0.049,0.049-0.121,0.073-0.218,0.073h-2.9c-0.082,0-0.138-0.015-0.167-0.044
		s-0.044-0.07-0.044-0.122c0-0.065,0.024-0.122,0.072-0.171c0.049-0.049,0.121-0.073,0.218-0.073h1.266l0.998-5.234l-1.283,0.42
		c-0.062,0.02-0.107,0.029-0.136,0.029c-0.035,0-0.066-0.015-0.092-0.046c-0.026-0.031-0.04-0.069-0.04-0.115
		c0-0.055,0.016-0.105,0.048-0.151c0.032-0.045,0.094-0.083,0.185-0.112L10.069,42.868z"/>
</g>
<g enable-background="new    ">
	<path fill="#231F20" d="M11.181,60.088l-0.114,0.586H7.301l0.114-0.586H11.181z"/>
	<path fill="#231F20" d="M15.47,56.998l-1.107,5.801h1.266c0.082,0,0.138,0.014,0.167,0.041c0.029,0.028,0.044,0.068,0.044,0.12
		c0,0.068-0.024,0.127-0.073,0.176c-0.048,0.049-0.121,0.073-0.217,0.073h-2.9c-0.082,0-0.138-0.015-0.167-0.044
		s-0.044-0.069-0.044-0.122c0-0.064,0.024-0.122,0.073-0.171c0.048-0.049,0.121-0.073,0.217-0.073h1.266l0.998-5.234l-1.283,0.42
		c-0.062,0.02-0.107,0.029-0.136,0.029c-0.035,0-0.066-0.016-0.092-0.047c-0.026-0.03-0.04-0.068-0.04-0.114
		c0-0.056,0.016-0.105,0.048-0.151c0.032-0.045,0.094-0.083,0.185-0.112L15.47,56.998z"/>
</g>
<g enable-background="new    ">
	<path fill="#231F20" d="M10.1,74.004c0.258,0.144,0.45,0.331,0.576,0.562c0.126,0.231,0.189,0.478,0.189,0.737
		c0,0.313-0.1,0.647-0.299,1.004s-0.483,0.642-0.85,0.856c-0.368,0.215-0.742,0.322-1.123,0.322c-0.448,0-0.875-0.142-1.279-0.425
		c-0.217-0.152-0.325-0.279-0.325-0.381c0-0.062,0.022-0.117,0.066-0.166s0.092-0.073,0.145-0.073c0.05,0,0.1,0.024,0.149,0.073
		c0.381,0.375,0.823,0.562,1.327,0.562c0.486,0,0.91-0.182,1.27-0.544c0.36-0.363,0.541-0.743,0.541-1.141
		c0-0.211-0.054-0.411-0.163-0.601c-0.108-0.188-0.275-0.341-0.501-0.456s-0.458-0.174-0.699-0.174
		c-0.091,0-0.148-0.011-0.171-0.034C8.918,74.094,8.9,74.052,8.9,74c0-0.068,0.023-0.127,0.07-0.176s0.11-0.073,0.189-0.073
		l0.33,0.005c0.372,0,0.693-0.14,0.962-0.42c0.27-0.276,0.404-0.577,0.404-0.903c0-0.267-0.09-0.493-0.27-0.679
		c-0.181-0.186-0.43-0.278-0.75-0.278c-0.252,0-0.495,0.049-0.729,0.145s-0.432,0.23-0.593,0.402
		c-0.088,0.095-0.161,0.142-0.22,0.142c-0.047,0-0.083-0.015-0.11-0.044s-0.04-0.066-0.04-0.112c0-0.055,0.028-0.115,0.083-0.181
		c0.185-0.218,0.434-0.399,0.747-0.544s0.63-0.218,0.949-0.218c0.404,0,0.724,0.122,0.958,0.366s0.352,0.546,0.352,0.903
		c0,0.329-0.098,0.646-0.294,0.952C10.743,73.593,10.463,73.833,10.1,74.004z"/>
	<path fill="#231F20" d="M16.402,71.812l0.035-0.186h-2.641l-0.07,0.361c-0.021,0.098-0.052,0.168-0.095,0.21
		c-0.042,0.043-0.091,0.063-0.147,0.063c-0.041,0-0.076-0.015-0.103-0.044c-0.028-0.029-0.042-0.064-0.042-0.107
		c0-0.029,0.004-0.069,0.013-0.122l0.149-0.776h3.388l-0.127,0.654l-2.492,5.273c-0.041,0.085-0.08,0.141-0.116,0.169
		c-0.037,0.027-0.077,0.041-0.121,0.041s-0.079-0.015-0.105-0.044s-0.04-0.068-0.04-0.117c0-0.035,0.019-0.093,0.057-0.171
		L16.402,71.812z"/>
	<path fill="#231F20" d="M20.862,74.161c0.226,0.137,0.395,0.305,0.508,0.503c0.112,0.199,0.169,0.43,0.169,0.693
		c0,0.319-0.091,0.649-0.272,0.991s-0.443,0.617-0.784,0.825c-0.342,0.209-0.684,0.313-1.026,0.313
		c-0.393,0-0.718-0.138-0.976-0.415c-0.258-0.276-0.387-0.615-0.387-1.016c0-0.374,0.108-0.733,0.325-1.076
		c0.217-0.344,0.529-0.616,0.936-0.818c-0.208-0.152-0.36-0.314-0.455-0.485c-0.096-0.171-0.143-0.379-0.143-0.623
		c0-0.24,0.056-0.482,0.167-0.725s0.254-0.454,0.428-0.635s0.378-0.33,0.611-0.449c0.232-0.119,0.484-0.179,0.753-0.179
		c0.375,0,0.683,0.132,0.925,0.394c0.241,0.262,0.362,0.587,0.362,0.974c0,0.329-0.091,0.643-0.272,0.94
		S21.261,73.933,20.862,74.161z M19.548,77.076c0.457,0,0.839-0.177,1.147-0.532c0.308-0.354,0.461-0.719,0.461-1.094
		c0-0.306-0.098-0.563-0.294-0.773s-0.458-0.315-0.787-0.315c-0.434,0-0.81,0.167-1.127,0.501c-0.318,0.333-0.477,0.699-0.477,1.096
		c0,0.319,0.099,0.585,0.297,0.799C18.966,76.969,19.226,77.076,19.548,77.076z M20.146,73.956c0.398,0,0.743-0.147,1.035-0.444
		c0.292-0.296,0.438-0.628,0.438-0.996c0-0.296-0.092-0.542-0.277-0.739s-0.422-0.296-0.712-0.296c-0.398,0-0.748,0.158-1.048,0.474
		c-0.3,0.316-0.45,0.664-0.45,1.045c0,0.258,0.094,0.481,0.281,0.672S19.844,73.956,20.146,73.956z"/>
	<path fill="#231F20" d="M24.98,71.626l-0.387,2.007c0.237-0.101,0.46-0.176,0.67-0.227c0.209-0.051,0.405-0.076,0.586-0.076
		c0.39,0,0.703,0.133,0.94,0.398s0.356,0.617,0.356,1.057s-0.108,0.882-0.325,1.326s-0.506,0.784-0.868,1.021
		c-0.362,0.235-0.734,0.354-1.118,0.354c-0.296,0-0.576-0.063-0.839-0.19s-0.491-0.308-0.681-0.542
		c-0.064-0.081-0.097-0.146-0.097-0.195c0-0.068,0.022-0.128,0.068-0.181c0.045-0.052,0.096-0.078,0.151-0.078
		c0.05,0,0.098,0.029,0.145,0.088c0.352,0.459,0.79,0.688,1.314,0.688c0.319,0,0.623-0.096,0.91-0.288
		c0.287-0.191,0.519-0.471,0.694-0.837s0.264-0.724,0.264-1.072c0-0.345-0.092-0.62-0.277-0.827s-0.437-0.311-0.756-0.311
		c-0.384,0-0.79,0.112-1.217,0.337c-0.103,0.053-0.174,0.078-0.215,0.078s-0.075-0.014-0.101-0.041s-0.04-0.064-0.04-0.11
		c0-0.022,0.003-0.047,0.009-0.073l0.519-2.72h2.575c0.067,0,0.112,0.006,0.134,0.018c0.022,0.012,0.041,0.03,0.058,0.056
		c0.016,0.026,0.024,0.058,0.024,0.093c0,0.065-0.025,0.123-0.075,0.174s-0.123,0.075-0.22,0.075H24.98z"/>
</g>
<g enable-background="new    ">
	<path fill="#231F20" d="M11.181,88.348l-0.114,0.586H7.301l0.114-0.586H11.181z"/>
	<path fill="#231F20" d="M12.592,91.058h2.834c0.038-0.199,0.073-0.316,0.105-0.352c0.047-0.056,0.103-0.083,0.167-0.083
		c0.041,0,0.075,0.015,0.103,0.044s0.042,0.063,0.042,0.103c0,0.032-0.004,0.074-0.013,0.127l-0.11,0.571h-3.568l0.119-0.605
		c0.949-0.801,1.852-1.587,2.707-2.358c0.404-0.371,0.685-0.649,0.841-0.835s0.265-0.354,0.325-0.506s0.09-0.303,0.09-0.456
		c0-0.306-0.101-0.565-0.301-0.779c-0.201-0.213-0.455-0.319-0.762-0.319c-0.322,0-0.628,0.101-0.918,0.303
		s-0.502,0.457-0.637,0.767c-0.059,0.134-0.135,0.2-0.229,0.2c-0.041,0-0.076-0.015-0.103-0.044
		c-0.028-0.029-0.042-0.065-0.042-0.107c0-0.11,0.076-0.278,0.229-0.503c0.226-0.329,0.497-0.583,0.815-0.762
		c0.317-0.179,0.642-0.269,0.973-0.269c0.384,0,0.706,0.141,0.964,0.422c0.26,0.282,0.389,0.621,0.389,1.019
		c0,0.188-0.036,0.383-0.108,0.581s-0.192,0.4-0.36,0.605s-0.452,0.49-0.85,0.854c-1.093,0.999-1.992,1.783-2.698,2.354
		L12.592,91.058z"/>
	<path fill="#231F20" d="M21.882,87.899l-0.198,1.016c-0.167,0.885-0.488,1.583-0.962,2.095c-0.375,0.403-0.784,0.605-1.226,0.605
		c-0.293,0-0.539-0.078-0.736-0.234c-0.198-0.156-0.332-0.36-0.402-0.61c-0.1-0.358-0.149-0.697-0.149-1.016
		c0-0.248,0.029-0.527,0.088-0.84l0.198-1.016c0.167-0.889,0.489-1.589,0.967-2.1c0.372-0.403,0.779-0.605,1.222-0.605
		c0.296,0,0.542,0.078,0.738,0.234s0.33,0.363,0.4,0.62c0.1,0.358,0.149,0.695,0.149,1.011C21.97,87.303,21.94,87.583,21.882,87.899
		z M21.5,87.953c0.047-0.251,0.07-0.481,0.07-0.693c0-0.446-0.041-0.783-0.123-1.011s-0.19-0.392-0.325-0.491
		c-0.135-0.099-0.302-0.148-0.501-0.148c-0.416,0-0.785,0.236-1.107,0.708s-0.542,1.018-0.659,1.636l-0.176,0.903
		c-0.047,0.254-0.07,0.484-0.07,0.693c0,0.442,0.041,0.778,0.123,1.008s0.19,0.395,0.325,0.496c0.135,0.101,0.302,0.151,0.501,0.151
		c0.416,0,0.785-0.237,1.107-0.711s0.542-1.02,0.659-1.638L21.5,87.953z"/>
	<path fill="#231F20" d="M27.283,87.899l-0.198,1.016c-0.167,0.885-0.488,1.583-0.962,2.095c-0.375,0.403-0.784,0.605-1.226,0.605
		c-0.293,0-0.538-0.078-0.736-0.234c-0.197-0.156-0.332-0.36-0.402-0.61c-0.1-0.358-0.149-0.697-0.149-1.016
		c0-0.248,0.029-0.527,0.088-0.84l0.198-1.016c0.167-0.889,0.489-1.589,0.967-2.1c0.372-0.403,0.779-0.605,1.222-0.605
		c0.296,0,0.542,0.078,0.738,0.234s0.33,0.363,0.4,0.62c0.1,0.358,0.149,0.695,0.149,1.011
		C27.371,87.303,27.341,87.583,27.283,87.899z M26.9,87.953c0.047-0.251,0.07-0.481,0.07-0.693c0-0.446-0.041-0.783-0.123-1.011
		s-0.19-0.392-0.325-0.491c-0.135-0.099-0.302-0.148-0.501-0.148c-0.416,0-0.785,0.236-1.107,0.708s-0.542,1.018-0.659,1.636
		l-0.176,0.903c-0.047,0.254-0.07,0.484-0.07,0.693c0,0.442,0.041,0.778,0.123,1.008s0.19,0.395,0.325,0.496
		c0.135,0.101,0.302,0.151,0.501,0.151c0.416,0,0.785-0.237,1.107-0.711s0.542-1.02,0.659-1.638L26.9,87.953z"/>
	<path fill="#231F20" d="M32.684,87.899l-0.198,1.016c-0.167,0.885-0.488,1.583-0.962,2.095c-0.375,0.403-0.784,0.605-1.226,0.605
		c-0.293,0-0.539-0.078-0.736-0.234c-0.198-0.156-0.332-0.36-0.402-0.61c-0.1-0.358-0.149-0.697-0.149-1.016
		c0-0.248,0.029-0.527,0.088-0.84l0.198-1.016c0.167-0.889,0.489-1.589,0.967-2.1c0.372-0.403,0.779-0.605,1.222-0.605
		c0.296,0,0.542,0.078,0.738,0.234s0.33,0.363,0.4,0.62c0.1,0.358,0.149,0.695,0.149,1.011
		C32.771,87.303,32.742,87.583,32.684,87.899z M32.301,87.953c0.047-0.251,0.07-0.481,0.07-0.693c0-0.446-0.041-0.783-0.123-1.011
		s-0.19-0.392-0.325-0.491c-0.135-0.099-0.302-0.148-0.501-0.148c-0.416,0-0.785,0.236-1.107,0.708s-0.542,1.018-0.659,1.636
		l-0.176,0.903c-0.047,0.254-0.07,0.484-0.07,0.693c0,0.442,0.041,0.778,0.123,1.008s0.19,0.395,0.325,0.496
		c0.135,0.101,0.302,0.151,0.501,0.151c0.416,0,0.785-0.237,1.107-0.711s0.542-1.02,0.659-1.638L32.301,87.953z"/>
	<path fill="#231F20" d="M38.084,87.899l-0.198,1.016c-0.167,0.885-0.488,1.583-0.962,2.095c-0.375,0.403-0.784,0.605-1.226,0.605
		c-0.293,0-0.538-0.078-0.736-0.234c-0.197-0.156-0.332-0.36-0.402-0.61c-0.1-0.358-0.149-0.697-0.149-1.016
		c0-0.248,0.029-0.527,0.088-0.84l0.198-1.016c0.167-0.889,0.489-1.589,0.967-2.1c0.372-0.403,0.779-0.605,1.222-0.605
		c0.296,0,0.542,0.078,0.738,0.234s0.33,0.363,0.4,0.62c0.1,0.358,0.149,0.695,0.149,1.011
		C38.172,87.303,38.143,87.583,38.084,87.899z M37.702,87.953c0.047-0.251,0.07-0.481,0.07-0.693c0-0.446-0.041-0.783-0.123-1.011
		s-0.19-0.392-0.325-0.491c-0.135-0.099-0.302-0.148-0.501-0.148c-0.416,0-0.785,0.236-1.107,0.708s-0.542,1.018-0.659,1.636
		l-0.176,0.903c-0.047,0.254-0.07,0.484-0.07,0.693c0,0.442,0.041,0.778,0.123,1.008s0.19,0.395,0.325,0.496
		c0.135,0.101,0.302,0.151,0.501,0.151c0.416,0,0.785-0.237,1.107-0.711s0.542-1.02,0.659-1.638L37.702,87.953z"/>
	<path fill="#231F20" d="M43.485,87.899l-0.198,1.016c-0.167,0.885-0.488,1.583-0.962,2.095c-0.375,0.403-0.784,0.605-1.226,0.605
		c-0.293,0-0.539-0.078-0.736-0.234c-0.198-0.156-0.332-0.36-0.402-0.61c-0.1-0.358-0.149-0.697-0.149-1.016
		c0-0.248,0.029-0.527,0.088-0.84l0.198-1.016c0.167-0.889,0.489-1.589,0.967-2.1c0.372-0.403,0.779-0.605,1.222-0.605
		c0.296,0,0.542,0.078,0.738,0.234s0.33,0.363,0.4,0.62c0.1,0.358,0.149,0.695,0.149,1.011
		C43.573,87.303,43.544,87.583,43.485,87.899z M43.103,87.953c0.047-0.251,0.07-0.481,0.07-0.693c0-0.446-0.041-0.783-0.123-1.011
		s-0.19-0.392-0.325-0.491c-0.135-0.099-0.302-0.148-0.501-0.148c-0.416,0-0.785,0.236-1.107,0.708s-0.542,1.018-0.659,1.636
		l-0.176,0.903c-0.047,0.254-0.07,0.484-0.07,0.693c0,0.442,0.041,0.778,0.123,1.008s0.19,0.395,0.325,0.496
		c0.135,0.101,0.302,0.151,0.501,0.151c0.416,0,0.785-0.237,1.107-0.711s0.542-1.02,0.659-1.638L43.103,87.953z"/>
	<path fill="#231F20" d="M48.886,87.899l-0.198,1.016c-0.167,0.885-0.488,1.583-0.962,2.095c-0.375,0.403-0.784,0.605-1.226,0.605
		c-0.293,0-0.538-0.078-0.736-0.234c-0.197-0.156-0.332-0.36-0.402-0.61c-0.1-0.358-0.149-0.697-0.149-1.016
		c0-0.248,0.029-0.527,0.088-0.84l0.198-1.016c0.167-0.889,0.489-1.589,0.967-2.1c0.372-0.403,0.779-0.605,1.222-0.605
		c0.296,0,0.542,0.078,0.738,0.234s0.33,0.363,0.4,0.62c0.1,0.358,0.149,0.695,0.149,1.011
		C48.974,87.303,48.945,87.583,48.886,87.899z M48.504,87.953c0.047-0.251,0.07-0.481,0.07-0.693c0-0.446-0.041-0.783-0.123-1.011
		s-0.19-0.392-0.325-0.491c-0.135-0.099-0.302-0.148-0.501-0.148c-0.416,0-0.785,0.236-1.107,0.708s-0.542,1.018-0.659,1.636
		l-0.176,0.903c-0.047,0.254-0.07,0.484-0.07,0.693c0,0.442,0.041,0.778,0.123,1.008s0.19,0.395,0.325,0.496
		c0.135,0.101,0.302,0.151,0.501,0.151c0.416,0,0.785-0.237,1.107-0.711s0.542-1.02,0.659-1.638L48.504,87.953z"/>
	<path fill="#231F20" d="M54.287,87.899l-0.198,1.016c-0.167,0.885-0.488,1.583-0.962,2.095c-0.375,0.403-0.784,0.605-1.226,0.605
		c-0.293,0-0.539-0.078-0.736-0.234c-0.198-0.156-0.332-0.36-0.402-0.61c-0.1-0.358-0.149-0.697-0.149-1.016
		c0-0.248,0.029-0.527,0.088-0.84l0.198-1.016c0.167-0.889,0.489-1.589,0.967-2.1c0.372-0.403,0.779-0.605,1.222-0.605
		c0.296,0,0.542,0.078,0.738,0.234s0.33,0.363,0.4,0.62c0.1,0.358,0.149,0.695,0.149,1.011
		C54.375,87.303,54.346,87.583,54.287,87.899z M53.905,87.953c0.047-0.251,0.07-0.481,0.07-0.693c0-0.446-0.041-0.783-0.123-1.011
		s-0.19-0.392-0.325-0.491c-0.135-0.099-0.302-0.148-0.501-0.148c-0.416,0-0.785,0.236-1.107,0.708s-0.542,1.018-0.659,1.636
		l-0.176,0.903c-0.047,0.254-0.07,0.484-0.07,0.693c0,0.442,0.041,0.778,0.123,1.008s0.19,0.395,0.325,0.496
		c0.135,0.101,0.302,0.151,0.501,0.151c0.416,0,0.785-0.237,1.107-0.711s0.542-1.02,0.659-1.638L53.905,87.953z"/>
	<path fill="#231F20" d="M59.688,87.899l-0.198,1.016c-0.167,0.885-0.488,1.583-0.962,2.095c-0.375,0.403-0.784,0.605-1.226,0.605
		c-0.293,0-0.538-0.078-0.736-0.234c-0.197-0.156-0.332-0.36-0.402-0.61c-0.1-0.358-0.149-0.697-0.149-1.016
		c0-0.248,0.029-0.527,0.088-0.84l0.198-1.016c0.167-0.889,0.489-1.589,0.967-2.1c0.372-0.403,0.779-0.605,1.222-0.605
		c0.296,0,0.542,0.078,0.738,0.234s0.33,0.363,0.4,0.62c0.1,0.358,0.149,0.695,0.149,1.011
		C59.776,87.303,59.747,87.583,59.688,87.899z M59.306,87.953c0.047-0.251,0.07-0.481,0.07-0.693c0-0.446-0.041-0.783-0.123-1.011
		s-0.19-0.392-0.325-0.491c-0.135-0.099-0.302-0.148-0.501-0.148c-0.416,0-0.785,0.236-1.107,0.708s-0.542,1.018-0.659,1.636
		l-0.176,0.903c-0.047,0.254-0.07,0.484-0.07,0.693c0,0.442,0.041,0.778,0.123,1.008s0.19,0.395,0.325,0.496
		c0.135,0.101,0.302,0.151,0.501,0.151c0.416,0,0.785-0.237,1.107-0.711s0.542-1.02,0.659-1.638L59.306,87.953z"/>
	<path fill="#231F20" d="M65.089,87.899l-0.198,1.016c-0.167,0.885-0.488,1.583-0.962,2.095c-0.375,0.403-0.784,0.605-1.226,0.605
		c-0.293,0-0.539-0.078-0.736-0.234c-0.198-0.156-0.332-0.36-0.402-0.61c-0.1-0.358-0.149-0.697-0.149-1.016
		c0-0.248,0.029-0.527,0.088-0.84l0.198-1.016c0.167-0.889,0.489-1.589,0.967-2.1c0.372-0.403,0.779-0.605,1.222-0.605
		c0.296,0,0.542,0.078,0.738,0.234s0.33,0.363,0.4,0.62c0.1,0.358,0.149,0.695,0.149,1.011
		C65.177,87.303,65.147,87.583,65.089,87.899z M64.707,87.953c0.047-0.251,0.07-0.481,0.07-0.693c0-0.446-0.041-0.783-0.123-1.011
		s-0.19-0.392-0.325-0.491c-0.135-0.099-0.302-0.148-0.501-0.148c-0.416,0-0.785,0.236-1.107,0.708s-0.542,1.018-0.659,1.636
		l-0.176,0.903c-0.047,0.254-0.07,0.484-0.07,0.693c0,0.442,0.041,0.778,0.123,1.008s0.19,0.395,0.325,0.496
		c0.135,0.101,0.302,0.151,0.501,0.151c0.416,0,0.785-0.237,1.107-0.711s0.542-1.02,0.659-1.638L64.707,87.953z"/>
</g>
<g>
	<g>
		<defs>
			<rect id="SVGID_17_" y="7.949" width="115.514" height="98.677"/>
		</defs>
		<clipPath id="SVGID_18_">
			<use xlink:href="#SVGID_17_"  overflow="visible"/>
		</clipPath>
		<path clip-path="url(#SVGID_18_)" fill="none" stroke="#231F20" stroke-width="1.5" d="M10.296,9.699c0,0-8,0-8,8v79.177
			c0,0,0,8,8,8h89.941c0,0,8,0,8-8V17.699c0,0,0-8-8-8H10.296z"/>
	</g>
</g>
<g>
	<g>
		<defs>
			<rect id="SVGID_19_" x="119.028" y="8.199" width="133.855" height="98.177"/>
		</defs>
		<clipPath id="SVGID_20_">
			<use xlink:href="#SVGID_19_"  overflow="visible"/>
		</clipPath>
		<path clip-path="url(#SVGID_20_)" fill="#D0D2D3" d="M129.091,9.949c0,0-8,0-8,8v78.677c0,0,0,8,8,8h108.75c0,0,8,0,8-8V17.949
			c0,0,0-8-8-8H129.091z"/>
	</g>
	<g>
		<defs>
			<rect id="SVGID_21_" x="119.028" y="8.199" width="133.855" height="98.177"/>
		</defs>
		<clipPath id="SVGID_22_">
			<use xlink:href="#SVGID_21_"  overflow="visible"/>
		</clipPath>
		<path clip-path="url(#SVGID_22_)" fill="#FFFFFF" d="M121.028,81.583h124.875V95.71H121.028V81.583z M121.028,67.457h124.875
			v14.127H121.028V67.457z M121.028,53.328h124.875v14.128H121.028V53.328z M121.028,39.2h124.875v14.128H121.028V39.2z
			 M121.028,25.072h124.875V39.2H121.028V25.072z"/>
	</g>
	<g>
		<defs>
			<rect id="SVGID_23_" x="119.028" y="8.199" width="133.855" height="98.177"/>
		</defs>
		<clipPath id="SVGID_24_">
			<use xlink:href="#SVGID_23_"  overflow="visible"/>
		</clipPath>
		
			<line clip-path="url(#SVGID_24_)" fill="none" stroke="#231F20" stroke-miterlimit="10" x1="121.028" y1="25.072" x2="245.902" y2="25.072"/>
	</g>
	<g>
		<defs>
			<rect id="SVGID_25_" x="119.028" y="8.199" width="133.855" height="98.177"/>
		</defs>
		<clipPath id="SVGID_26_">
			<use xlink:href="#SVGID_25_"  overflow="visible"/>
		</clipPath>
		
			<line clip-path="url(#SVGID_26_)" fill="none" stroke="#231F20" stroke-width="0.25" stroke-miterlimit="10" x1="121.028" y1="39.2" x2="245.902" y2="39.2"/>
	</g>
	<g>
		<defs>
			<rect id="SVGID_27_" x="119.028" y="8.199" width="133.855" height="98.177"/>
		</defs>
		<clipPath id="SVGID_28_">
			<use xlink:href="#SVGID_27_"  overflow="visible"/>
		</clipPath>
		
			<line clip-path="url(#SVGID_28_)" fill="none" stroke="#231F20" stroke-width="0.25" stroke-miterlimit="10" x1="121.028" y1="53.328" x2="245.902" y2="53.328"/>
	</g>
	<g>
		<defs>
			<rect id="SVGID_29_" x="119.028" y="8.199" width="133.855" height="98.177"/>
		</defs>
		<clipPath id="SVGID_30_">
			<use xlink:href="#SVGID_29_"  overflow="visible"/>
		</clipPath>
		
			<line clip-path="url(#SVGID_30_)" fill="none" stroke="#231F20" stroke-width="0.25" stroke-miterlimit="10" x1="121.028" y1="67.457" x2="245.902" y2="67.457"/>
	</g>
	<g>
		<defs>
			<rect id="SVGID_31_" x="119.028" y="8.199" width="133.855" height="98.177"/>
		</defs>
		<clipPath id="SVGID_32_">
			<use xlink:href="#SVGID_31_"  overflow="visible"/>
		</clipPath>
		
			<line clip-path="url(#SVGID_32_)" fill="none" stroke="#231F20" stroke-width="0.25" stroke-miterlimit="10" x1="121.028" y1="81.583" x2="245.902" y2="81.583"/>
	</g>
	<g>
		<defs>
			<rect id="SVGID_33_" x="119.028" y="8.199" width="133.855" height="98.177"/>
		</defs>
		<clipPath id="SVGID_34_">
			<use xlink:href="#SVGID_33_"  overflow="visible"/>
		</clipPath>
		
			<line clip-path="url(#SVGID_34_)" fill="none" stroke="#231F20" stroke-miterlimit="10" x1="121.028" y1="95.71" x2="245.902" y2="95.71"/>
	</g>
</g>
<g enable-background="new    ">
	<path fill="#231F20" d="M167.726,21.072h-1.563l1.26-7.153c0.4-0.075,0.806-0.112,1.216-0.112c1.039,0,1.846,0.242,2.422,0.728
		s0.864,1.203,0.864,2.153c0,1.387-0.397,2.464-1.191,3.232S168.937,21.072,167.726,21.072z M168.239,14.758l-0.908,5.391
		c0.189,0.026,0.373,0.039,0.552,0.039c0.902,0,1.626-0.334,2.173-1.001s0.82-1.519,0.82-2.554c0-0.593-0.196-1.066-0.588-1.421
		s-0.876-0.532-1.453-0.532C168.626,14.68,168.428,14.707,168.239,14.758z"/>
	<path fill="#231F20" d="M172.326,19.148c0-0.935,0.273-1.735,0.82-2.402s1.242-1.001,2.085-1.001c0.635,0,1.12,0.172,1.455,0.515
		c0.335,0.344,0.503,0.831,0.503,1.463c0,0.501-0.1,1.022-0.3,1.563s-0.527,0.989-0.981,1.348s-0.999,0.537-1.633,0.537
		c-0.628,0-1.11-0.177-1.445-0.529C172.493,20.287,172.326,19.79,172.326,19.148z M173.302,19.089c0,0.882,0.37,1.323,1.108,1.323
		c0.55,0,0.987-0.267,1.311-0.801s0.486-1.15,0.486-1.851c0-0.84-0.37-1.26-1.108-1.26c-0.375,0-0.704,0.134-0.989,0.4
		s-0.491,0.608-0.618,1.025S173.302,18.731,173.302,19.089z"/>
	<path fill="#231F20" d="M179.44,15.842l-0.61,3.335c-0.026,0.144-0.039,0.275-0.039,0.396c0,0.544,0.283,0.815,0.85,0.815
		c0.348,0,0.683-0.13,1.003-0.391s0.514-0.571,0.579-0.933l0.596-3.223h0.977l-0.957,5.229h-0.977l0.137-0.737
		c-0.365,0.557-0.996,0.835-1.895,0.835c-0.407,0-0.724-0.12-0.952-0.361s-0.342-0.583-0.342-1.025c0-0.156,0.016-0.325,0.049-0.508
		l0.605-3.433H179.44z"/>
	<path fill="#231F20" d="M184.137,20.569l-0.493,0.601h-0.61c0.211-0.608,0.391-1.316,0.537-2.124l0.938-5.347h0.898l-0.435,2.695
		c0.244-0.433,0.679-0.649,1.304-0.649c0.56,0,1.023,0.208,1.389,0.622c0.366,0.416,0.549,0.973,0.549,1.673
		c0,0.823-0.285,1.551-0.854,2.183s-1.274,0.947-2.114,0.947C184.715,21.169,184.346,20.969,184.137,20.569z M184.84,17.244
		l-0.488,2.544c-0.006,0.036,0.029,0.109,0.107,0.22s0.188,0.205,0.33,0.283s0.284,0.117,0.427,0.117
		c0.553,0,1.024-0.244,1.411-0.732s0.581-1.008,0.581-1.558c0-1.062-0.469-1.592-1.406-1.592
		C185.431,16.526,185.11,16.765,184.84,17.244z"/>
	<path fill="#231F20" d="M190.861,20.486l-0.107,0.684c-1.045,0-1.567-0.388-1.567-1.162c0-0.234,0.082-0.757,0.244-1.567
		l0.938-4.741h0.967l-0.894,4.453c-0.186,0.925-0.278,1.504-0.278,1.738C190.163,20.288,190.396,20.486,190.861,20.486z"/>
	<path fill="#231F20" d="M193.195,18.601c-0.029,0.156-0.044,0.306-0.044,0.449c0,0.43,0.121,0.76,0.361,0.991
		s0.578,0.347,1.011,0.347c0.384,0,0.771-0.142,1.162-0.425l-0.098,0.947c-0.521,0.173-0.981,0.259-1.382,0.259
		c-1.348,0-2.021-0.755-2.021-2.266c0-0.889,0.283-1.638,0.85-2.246s1.279-0.913,2.139-0.913c0.518,0,0.931,0.11,1.24,0.332
		s0.464,0.537,0.464,0.947c0,0.569-0.241,1.019-0.723,1.348s-1.073,0.493-1.772,0.493C193.913,18.865,193.517,18.777,193.195,18.601
		z M193.356,17.927c0.248,0.11,0.539,0.166,0.874,0.166c0.508,0,0.923-0.082,1.245-0.246c0.322-0.165,0.483-0.405,0.483-0.721
		c0-0.4-0.277-0.601-0.83-0.601C194.285,16.526,193.694,16.993,193.356,17.927z"/>
	<path fill="#231F20" d="M197.091,20.759l0.483-0.879c0.127,0.127,0.309,0.243,0.547,0.35c0.238,0.105,0.441,0.158,0.61,0.158
		c0.29,0,0.529-0.078,0.718-0.234s0.283-0.368,0.283-0.635c0-0.137-0.05-0.259-0.149-0.366s-0.271-0.231-0.515-0.371l-0.688-0.381
		c-0.211-0.12-0.37-0.272-0.476-0.456c-0.106-0.185-0.159-0.381-0.159-0.589c0-0.485,0.189-0.875,0.566-1.169
		c0.377-0.295,0.841-0.442,1.392-0.442c0.381,0,0.84,0.12,1.377,0.361l-0.415,0.859c-0.319-0.293-0.663-0.439-1.03-0.439
		c-0.244,0-0.455,0.063-0.632,0.188c-0.177,0.125-0.266,0.29-0.266,0.495c0,0.149,0.05,0.278,0.151,0.386s0.275,0.228,0.522,0.361
		l0.684,0.371c0.211,0.114,0.37,0.261,0.474,0.439s0.156,0.374,0.156,0.586c0,0.56-0.203,1.003-0.608,1.328s-0.92,0.488-1.545,0.488
		C198.021,21.169,197.527,21.033,197.091,20.759z"/>
</g>
<g enable-background="new    ">
	<path fill="#231F20" d="M130.108,31.629l-0.198,1.016c-0.167,0.885-0.488,1.583-0.962,2.095c-0.375,0.404-0.784,0.605-1.226,0.605
		c-0.293,0-0.539-0.078-0.736-0.234c-0.198-0.156-0.332-0.36-0.402-0.61c-0.1-0.358-0.149-0.697-0.149-1.016
		c0-0.248,0.029-0.527,0.088-0.84l0.198-1.016c0.167-0.889,0.489-1.588,0.967-2.1c0.372-0.403,0.779-0.605,1.222-0.605
		c0.296,0,0.542,0.078,0.738,0.234s0.33,0.363,0.4,0.62c0.1,0.358,0.149,0.695,0.149,1.011
		C130.196,31.034,130.167,31.314,130.108,31.629z M129.726,31.683c0.047-0.25,0.07-0.481,0.07-0.693
		c0-0.446-0.041-0.783-0.123-1.011c-0.082-0.228-0.19-0.391-0.325-0.491c-0.135-0.099-0.302-0.149-0.501-0.149
		c-0.416,0-0.785,0.236-1.107,0.708c-0.322,0.472-0.542,1.018-0.659,1.636l-0.176,0.903c-0.047,0.254-0.07,0.485-0.07,0.693
		c0,0.443,0.041,0.779,0.123,1.008s0.19,0.395,0.325,0.496s0.302,0.151,0.501,0.151c0.416,0,0.785-0.237,1.107-0.71
		s0.542-1.02,0.659-1.638L129.726,31.683z"/>
	<path fill="#231F20" d="M133.277,34.022h0.158c0.141,0,0.256,0.049,0.347,0.146s0.136,0.223,0.136,0.376
		c0,0.208-0.075,0.394-0.224,0.557s-0.321,0.244-0.514,0.244h-0.158c-0.144,0-0.26-0.05-0.349-0.149
		c-0.09-0.099-0.134-0.226-0.134-0.378c0-0.208,0.075-0.393,0.224-0.554S133.083,34.022,133.277,34.022z"/>
	<path fill="#231F20" d="M140.91,31.629l-0.198,1.016c-0.167,0.885-0.488,1.583-0.962,2.095c-0.375,0.404-0.784,0.605-1.226,0.605
		c-0.293,0-0.539-0.078-0.736-0.234c-0.198-0.156-0.332-0.36-0.402-0.61c-0.1-0.358-0.149-0.697-0.149-1.016
		c0-0.248,0.029-0.527,0.088-0.84l0.198-1.016c0.167-0.889,0.489-1.588,0.967-2.1c0.372-0.403,0.779-0.605,1.222-0.605
		c0.296,0,0.542,0.078,0.738,0.234s0.33,0.363,0.4,0.62c0.1,0.358,0.149,0.695,0.149,1.011
		C140.998,31.034,140.969,31.314,140.91,31.629z M140.528,31.683c0.047-0.25,0.07-0.481,0.07-0.693c0-0.446-0.041-0.783-0.123-1.011
		c-0.082-0.228-0.19-0.391-0.325-0.491c-0.135-0.099-0.302-0.149-0.501-0.149c-0.416,0-0.785,0.236-1.107,0.708
		c-0.322,0.472-0.542,1.018-0.659,1.636l-0.176,0.903c-0.047,0.254-0.07,0.485-0.07,0.693c0,0.443,0.041,0.779,0.123,1.008
		s0.19,0.395,0.325,0.496s0.302,0.151,0.501,0.151c0.416,0,0.785-0.237,1.107-0.71s0.542-1.02,0.659-1.638L140.528,31.683z"/>
	<path fill="#231F20" d="M146.311,31.629l-0.198,1.016c-0.167,0.885-0.488,1.583-0.962,2.095c-0.375,0.404-0.784,0.605-1.226,0.605
		c-0.293,0-0.538-0.078-0.736-0.234c-0.197-0.156-0.332-0.36-0.402-0.61c-0.1-0.358-0.149-0.697-0.149-1.016
		c0-0.248,0.029-0.527,0.088-0.84l0.198-1.016c0.167-0.889,0.489-1.588,0.967-2.1c0.372-0.403,0.779-0.605,1.222-0.605
		c0.296,0,0.542,0.078,0.738,0.234s0.33,0.363,0.4,0.62c0.1,0.358,0.149,0.695,0.149,1.011
		C146.399,31.034,146.37,31.314,146.311,31.629z M145.929,31.683c0.047-0.25,0.07-0.481,0.07-0.693c0-0.446-0.041-0.783-0.123-1.011
		c-0.082-0.228-0.19-0.391-0.325-0.491c-0.135-0.099-0.302-0.149-0.501-0.149c-0.416,0-0.785,0.236-1.107,0.708
		c-0.322,0.472-0.542,1.018-0.659,1.636l-0.176,0.903c-0.047,0.254-0.07,0.485-0.07,0.693c0,0.443,0.041,0.779,0.123,1.008
		s0.19,0.395,0.325,0.496s0.302,0.151,0.501,0.151c0.416,0,0.785-0.237,1.107-0.71s0.542-1.02,0.659-1.638L145.929,31.683z"/>
</g>
<g enable-background="new    ">
	<path fill="#231F20" d="M129.098,43.118l-1.107,5.801h1.266c0.082,0,0.138,0.014,0.167,0.042s0.044,0.067,0.044,0.12
		c0,0.068-0.024,0.127-0.072,0.176c-0.049,0.049-0.121,0.073-0.218,0.073h-2.9c-0.082,0-0.138-0.015-0.167-0.044
		s-0.044-0.07-0.044-0.122c0-0.065,0.024-0.122,0.072-0.171c0.049-0.049,0.121-0.073,0.218-0.073h1.266l0.998-5.234l-1.283,0.42
		c-0.062,0.02-0.107,0.029-0.136,0.029c-0.035,0-0.066-0.015-0.092-0.046c-0.026-0.031-0.04-0.069-0.04-0.115
		c0-0.055,0.016-0.105,0.048-0.151c0.032-0.045,0.094-0.083,0.185-0.112L129.098,43.118z"/>
	<path fill="#231F20" d="M133.277,48.152h0.158c0.141,0,0.256,0.049,0.347,0.146s0.136,0.223,0.136,0.376
		c0,0.208-0.075,0.394-0.224,0.557s-0.321,0.244-0.514,0.244h-0.158c-0.144,0-0.26-0.05-0.349-0.149
		c-0.09-0.099-0.134-0.226-0.134-0.378c0-0.208,0.075-0.393,0.224-0.554S133.083,48.152,133.277,48.152z"/>
	<path fill="#231F20" d="M138.607,43.616l-0.387,2.007c0.237-0.101,0.46-0.176,0.67-0.227c0.209-0.05,0.405-0.076,0.587-0.076
		c0.39,0,0.703,0.133,0.94,0.398c0.237,0.266,0.356,0.618,0.356,1.057s-0.108,0.881-0.325,1.326s-0.506,0.785-0.868,1.021
		c-0.362,0.236-0.735,0.354-1.119,0.354c-0.296,0-0.576-0.063-0.839-0.19s-0.491-0.308-0.681-0.542
		c-0.064-0.082-0.097-0.146-0.097-0.195c0-0.068,0.022-0.128,0.068-0.181s0.096-0.078,0.152-0.078c0.05,0,0.098,0.029,0.145,0.088
		c0.352,0.459,0.79,0.688,1.314,0.688c0.319,0,0.623-0.096,0.91-0.288s0.519-0.471,0.694-0.837s0.264-0.724,0.264-1.072
		c0-0.345-0.092-0.621-0.277-0.828c-0.185-0.207-0.437-0.31-0.756-0.31c-0.384,0-0.79,0.112-1.217,0.337
		c-0.103,0.052-0.174,0.078-0.215,0.078s-0.075-0.014-0.101-0.042c-0.026-0.027-0.04-0.064-0.04-0.11
		c0-0.022,0.003-0.047,0.009-0.073l0.519-2.72h2.575c0.067,0,0.112,0.006,0.134,0.017c0.021,0.012,0.041,0.03,0.057,0.056
		c0.016,0.026,0.024,0.057,0.024,0.093c0,0.065-0.025,0.123-0.075,0.173c-0.05,0.051-0.123,0.076-0.22,0.076H138.607z"/>
</g>
<g enable-background="new    ">
	<path fill="#231F20" d="M130.209,60.338l-0.114,0.586h-3.766l0.114-0.586H130.209z"/>
	<path fill="#231F20" d="M134.529,60.124c0.258,0.144,0.45,0.331,0.576,0.562c0.126,0.231,0.189,0.478,0.189,0.737
		c0,0.313-0.1,0.647-0.299,1.004s-0.483,0.642-0.851,0.856s-0.742,0.322-1.123,0.322c-0.448,0-0.875-0.142-1.279-0.425
		c-0.217-0.152-0.325-0.279-0.325-0.381c0-0.062,0.022-0.117,0.066-0.166s0.092-0.073,0.145-0.073c0.05,0,0.1,0.024,0.149,0.073
		c0.381,0.375,0.823,0.562,1.327,0.562c0.486,0,0.91-0.182,1.27-0.544c0.36-0.363,0.541-0.743,0.541-1.141
		c0-0.211-0.054-0.411-0.163-0.601c-0.108-0.188-0.275-0.341-0.501-0.456s-0.458-0.174-0.699-0.174
		c-0.091,0-0.148-0.011-0.171-0.034c-0.035-0.032-0.053-0.074-0.053-0.127c0-0.068,0.023-0.127,0.07-0.176s0.11-0.073,0.189-0.073
		l0.33,0.005c0.372,0,0.693-0.14,0.962-0.42c0.27-0.276,0.404-0.577,0.404-0.903c0-0.267-0.09-0.493-0.271-0.679
		c-0.18-0.186-0.43-0.278-0.749-0.278c-0.252,0-0.495,0.049-0.729,0.145s-0.432,0.23-0.593,0.402
		c-0.088,0.095-0.161,0.142-0.22,0.142c-0.047,0-0.083-0.015-0.11-0.044s-0.04-0.066-0.04-0.112c0-0.055,0.028-0.115,0.083-0.181
		c0.185-0.218,0.434-0.399,0.747-0.544s0.63-0.218,0.949-0.218c0.404,0,0.724,0.122,0.958,0.366s0.352,0.546,0.352,0.903
		c0,0.329-0.098,0.646-0.294,0.952C135.172,59.712,134.893,59.952,134.529,60.124z"/>
	<path fill="#231F20" d="M139.548,61.745H137.1l0.092-0.474l2.804-3.94h0.769L140,61.334h0.308c0.082,0,0.136,0.012,0.163,0.034
		c0.032,0.033,0.048,0.075,0.048,0.127c0,0.068-0.024,0.127-0.073,0.176c-0.048,0.049-0.121,0.073-0.217,0.073h-0.308l-0.25,1.304
		h0.312c0.082,0,0.138,0.014,0.167,0.042c0.029,0.027,0.044,0.067,0.044,0.119c0,0.068-0.024,0.127-0.073,0.176
		c-0.048,0.049-0.121,0.073-0.217,0.073h-1.375c-0.082,0-0.138-0.015-0.167-0.044s-0.044-0.069-0.044-0.122
		c0-0.064,0.024-0.122,0.072-0.171c0.049-0.049,0.121-0.073,0.218-0.073h0.694L139.548,61.745z M139.627,61.334l0.686-3.589h-0.193
		l-2.553,3.589H139.627z"/>
	<path fill="#231F20" d="M144.079,62.282h0.158c0.141,0,0.256,0.049,0.347,0.146s0.136,0.224,0.136,0.376
		c0,0.209-0.075,0.395-0.224,0.557c-0.149,0.163-0.321,0.244-0.514,0.244h-0.158c-0.144,0-0.26-0.05-0.349-0.148
		c-0.09-0.1-0.134-0.226-0.134-0.379c0-0.208,0.075-0.393,0.224-0.554S143.885,62.282,144.079,62.282z"/>
	<path fill="#231F20" d="M151.514,59.992c-0.267,0.375-0.549,0.656-0.846,0.845c-0.297,0.189-0.589,0.283-0.876,0.283
		c-0.331,0-0.609-0.133-0.835-0.4c-0.226-0.267-0.338-0.63-0.338-1.089c0-0.55,0.189-1.095,0.567-1.636
		c0.378-0.54,0.847-0.811,1.406-0.811c0.39,0,0.71,0.162,0.962,0.486s0.378,0.824,0.378,1.501c0,0.605-0.078,1.193-0.233,1.763
		c-0.1,0.361-0.23,0.68-0.391,0.955c-0.161,0.274-0.388,0.55-0.681,0.825c-0.293,0.274-0.62,0.492-0.98,0.651
		c-0.36,0.16-0.716,0.239-1.068,0.239c-0.237,0-0.429-0.049-0.576-0.146c-0.073-0.049-0.11-0.104-0.11-0.166
		c0-0.064,0.022-0.122,0.066-0.171s0.095-0.073,0.154-0.073c0.038,0,0.086,0.019,0.145,0.054c0.103,0.063,0.229,0.093,0.378,0.093
		c0.29,0,0.577-0.06,0.861-0.178c0.284-0.119,0.546-0.279,0.787-0.481c0.24-0.201,0.441-0.416,0.602-0.642
		c0.161-0.227,0.287-0.473,0.378-0.74C151.354,60.887,151.438,60.5,151.514,59.992z M151.571,59.308
		c-0.029-0.657-0.136-1.106-0.318-1.348c-0.184-0.24-0.429-0.361-0.736-0.361c-0.369,0-0.715,0.195-1.037,0.586
		s-0.483,0.847-0.483,1.367c0,0.349,0.087,0.629,0.262,0.84c0.174,0.212,0.387,0.317,0.639,0.317c0.27,0,0.551-0.123,0.844-0.371
		C150.958,60.153,151.234,59.81,151.571,59.308z"/>
	<path fill="#231F20" d="M156.133,60.124c0.258,0.144,0.45,0.331,0.576,0.562c0.126,0.231,0.189,0.478,0.189,0.737
		c0,0.313-0.1,0.647-0.299,1.004s-0.483,0.642-0.851,0.856s-0.742,0.322-1.123,0.322c-0.448,0-0.875-0.142-1.279-0.425
		c-0.217-0.152-0.325-0.279-0.325-0.381c0-0.062,0.022-0.117,0.066-0.166s0.092-0.073,0.145-0.073c0.05,0,0.1,0.024,0.149,0.073
		c0.381,0.375,0.823,0.562,1.327,0.562c0.486,0,0.91-0.182,1.27-0.544c0.36-0.363,0.541-0.743,0.541-1.141
		c0-0.211-0.054-0.411-0.163-0.601c-0.108-0.188-0.275-0.341-0.501-0.456s-0.458-0.174-0.699-0.174
		c-0.091,0-0.148-0.011-0.171-0.034c-0.035-0.032-0.053-0.074-0.053-0.127c0-0.068,0.023-0.127,0.07-0.176s0.11-0.073,0.189-0.073
		l0.33,0.005c0.372,0,0.693-0.14,0.962-0.42c0.27-0.276,0.404-0.577,0.404-0.903c0-0.267-0.09-0.493-0.271-0.679
		c-0.18-0.186-0.43-0.278-0.749-0.278c-0.252,0-0.495,0.049-0.729,0.145s-0.432,0.23-0.593,0.402
		c-0.088,0.095-0.161,0.142-0.22,0.142c-0.047,0-0.083-0.015-0.11-0.044s-0.04-0.066-0.04-0.112c0-0.055,0.028-0.115,0.083-0.181
		c0.185-0.218,0.434-0.399,0.747-0.544s0.63-0.218,0.949-0.218c0.404,0,0.724,0.122,0.958,0.366s0.352,0.546,0.352,0.903
		c0,0.329-0.098,0.646-0.294,0.952C156.776,59.712,156.496,59.952,156.133,60.124z"/>
	<path fill="#231F20" d="M162.435,57.931l0.035-0.186h-2.641l-0.07,0.361c-0.021,0.098-0.052,0.168-0.094,0.21
		c-0.043,0.043-0.092,0.063-0.147,0.063c-0.041,0-0.076-0.015-0.104-0.044s-0.042-0.064-0.042-0.107
		c0-0.029,0.004-0.069,0.013-0.122l0.149-0.776h3.388l-0.127,0.654l-2.492,5.273c-0.041,0.085-0.08,0.141-0.117,0.169
		c-0.037,0.027-0.077,0.041-0.121,0.041s-0.079-0.015-0.105-0.044s-0.04-0.068-0.04-0.117c0-0.035,0.019-0.093,0.057-0.171
		L162.435,57.931z"/>
	<path fill="#231F20" d="M164.025,63.048h2.834c0.038-0.198,0.073-0.315,0.105-0.352c0.047-0.055,0.103-0.083,0.167-0.083
		c0.041,0,0.075,0.015,0.103,0.044s0.042,0.063,0.042,0.103c0,0.033-0.004,0.075-0.013,0.127l-0.11,0.571h-3.568l0.119-0.605
		c0.949-0.801,1.852-1.587,2.707-2.358c0.404-0.371,0.685-0.649,0.841-0.835s0.265-0.354,0.325-0.505s0.09-0.304,0.09-0.457
		c0-0.306-0.101-0.565-0.301-0.778s-0.455-0.32-0.762-0.32c-0.322,0-0.628,0.102-0.918,0.303c-0.29,0.202-0.502,0.458-0.637,0.767
		c-0.059,0.134-0.135,0.2-0.229,0.2c-0.041,0-0.076-0.015-0.103-0.044c-0.028-0.029-0.042-0.064-0.042-0.107
		c0-0.11,0.076-0.278,0.229-0.503c0.226-0.328,0.497-0.582,0.815-0.762c0.317-0.179,0.642-0.269,0.973-0.269
		c0.384,0,0.706,0.142,0.964,0.423c0.26,0.281,0.389,0.621,0.389,1.018c0,0.189-0.036,0.383-0.108,0.581
		c-0.072,0.199-0.192,0.4-0.36,0.605s-0.452,0.49-0.85,0.854c-1.093,1-1.992,1.784-2.698,2.354L164.025,63.048z"/>
</g>
<g enable-background="new    ">
	<path fill="#231F20" d="M126.219,77.179h2.834c0.038-0.198,0.073-0.315,0.105-0.352c0.047-0.055,0.103-0.083,0.167-0.083
		c0.041,0,0.075,0.015,0.104,0.044c0.027,0.029,0.042,0.063,0.042,0.103c0,0.033-0.004,0.075-0.013,0.127l-0.11,0.571h-3.568
		l0.119-0.605c0.949-0.801,1.852-1.587,2.707-2.358c0.404-0.371,0.685-0.649,0.842-0.835c0.156-0.186,0.265-0.354,0.325-0.505
		c0.06-0.151,0.09-0.304,0.09-0.457c0-0.306-0.101-0.565-0.301-0.778c-0.201-0.213-0.455-0.32-0.763-0.32
		c-0.322,0-0.628,0.102-0.918,0.303c-0.29,0.202-0.502,0.458-0.637,0.767c-0.059,0.134-0.135,0.2-0.229,0.2
		c-0.041,0-0.076-0.015-0.104-0.044s-0.042-0.064-0.042-0.107c0-0.11,0.076-0.278,0.229-0.503c0.226-0.328,0.497-0.582,0.815-0.762
		c0.318-0.179,0.643-0.269,0.974-0.269c0.384,0,0.705,0.142,0.965,0.423c0.259,0.281,0.389,0.621,0.389,1.018
		c0,0.189-0.036,0.383-0.107,0.581c-0.072,0.199-0.192,0.4-0.36,0.605c-0.169,0.205-0.452,0.49-0.851,0.854
		c-1.093,1-1.992,1.784-2.698,2.354L126.219,77.179z"/>
	<path fill="#231F20" d="M133.277,76.413h0.158c0.141,0,0.256,0.049,0.347,0.146s0.136,0.224,0.136,0.376
		c0,0.209-0.075,0.395-0.224,0.557c-0.149,0.163-0.321,0.244-0.514,0.244h-0.158c-0.144,0-0.26-0.05-0.349-0.148
		c-0.09-0.1-0.134-0.226-0.134-0.379c0-0.208,0.075-0.393,0.224-0.554S133.083,76.413,133.277,76.413z"/>
	<path fill="#231F20" d="M140.831,72.062l0.035-0.186h-2.641l-0.07,0.361c-0.021,0.098-0.052,0.168-0.094,0.21
		c-0.043,0.043-0.092,0.063-0.147,0.063c-0.041,0-0.076-0.015-0.104-0.044s-0.042-0.064-0.042-0.107
		c0-0.029,0.004-0.069,0.013-0.122l0.149-0.776h3.388l-0.127,0.654l-2.492,5.273c-0.041,0.085-0.08,0.141-0.117,0.169
		c-0.037,0.027-0.077,0.041-0.121,0.041s-0.079-0.015-0.105-0.044s-0.04-0.068-0.04-0.117c0-0.035,0.019-0.093,0.057-0.171
		L140.831,72.062z"/>
	<path fill="#231F20" d="M146.32,75.573h-3.762c-0.009,0.102-0.013,0.178-0.013,0.229c0,0.446,0.136,0.814,0.409,1.104
		c0.272,0.29,0.642,0.435,1.107,0.435c0.272,0,0.568-0.05,0.888-0.148c0.319-0.1,0.593-0.233,0.822-0.403
		c0.067-0.049,0.122-0.073,0.163-0.073c0.038,0,0.07,0.016,0.097,0.047c0.026,0.03,0.04,0.07,0.04,0.119
		c0,0.059-0.023,0.114-0.07,0.166c-0.135,0.16-0.404,0.316-0.809,0.472c-0.404,0.154-0.814,0.231-1.23,0.231
		c-0.539,0-0.972-0.177-1.299-0.532c-0.327-0.354-0.49-0.806-0.49-1.353c0-0.361,0.07-0.702,0.211-1.022s0.326-0.598,0.556-0.83
		c0.229-0.232,0.495-0.424,0.795-0.574c0.3-0.149,0.628-0.225,0.982-0.225c0.504,0,0.909,0.165,1.215,0.493
		c0.306,0.329,0.459,0.749,0.459,1.26C146.39,75.137,146.367,75.338,146.32,75.573z M146.021,75.158
		c0.015-0.449-0.105-0.816-0.36-1.104c-0.258-0.283-0.604-0.425-1.037-0.425c-0.422,0-0.816,0.139-1.182,0.415
		c-0.366,0.277-0.634,0.648-0.804,1.113H146.021z"/>
	<path fill="#231F20" d="M150.35,75.875h-2.448l0.092-0.474l2.804-3.94h0.769l-0.765,4.004h0.308c0.082,0,0.136,0.012,0.163,0.034
		c0.032,0.033,0.048,0.075,0.048,0.127c0,0.068-0.024,0.127-0.073,0.176c-0.048,0.049-0.121,0.073-0.217,0.073h-0.308l-0.25,1.304
		h0.312c0.082,0,0.138,0.014,0.167,0.042c0.029,0.027,0.044,0.067,0.044,0.119c0,0.068-0.024,0.127-0.073,0.176
		c-0.048,0.049-0.121,0.073-0.217,0.073h-1.375c-0.082,0-0.138-0.015-0.167-0.044s-0.044-0.069-0.044-0.122
		c0-0.064,0.024-0.122,0.072-0.171c0.049-0.049,0.121-0.073,0.218-0.073h0.694L150.35,75.875z M150.429,75.465l0.686-3.589h-0.193
		l-2.553,3.589H150.429z"/>
	<path fill="#231F20" d="M157.113,74.02l-0.198,1.016c-0.167,0.886-0.488,1.584-0.962,2.095c-0.375,0.404-0.784,0.605-1.226,0.605
		c-0.293,0-0.538-0.078-0.736-0.234c-0.197-0.156-0.332-0.359-0.402-0.61c-0.1-0.357-0.149-0.696-0.149-1.016
		c0-0.247,0.029-0.527,0.088-0.84l0.198-1.016c0.167-0.889,0.489-1.588,0.967-2.1c0.372-0.403,0.779-0.605,1.222-0.605
		c0.296,0,0.542,0.078,0.738,0.234s0.33,0.363,0.4,0.62c0.1,0.358,0.149,0.695,0.149,1.011
		C157.201,73.424,157.171,73.705,157.113,74.02z M156.73,74.074c0.047-0.25,0.07-0.481,0.07-0.693c0-0.445-0.041-0.782-0.123-1.011
		c-0.082-0.228-0.19-0.391-0.325-0.49s-0.302-0.149-0.501-0.149c-0.416,0-0.785,0.236-1.107,0.708
		c-0.322,0.473-0.542,1.018-0.659,1.636l-0.176,0.903c-0.047,0.254-0.07,0.485-0.07,0.693c0,0.443,0.041,0.779,0.123,1.009
		s0.19,0.395,0.325,0.495c0.135,0.102,0.302,0.151,0.501,0.151c0.416,0,0.785-0.236,1.107-0.71s0.542-1.02,0.659-1.639
		L156.73,74.074z"/>
	<path fill="#231F20" d="M189.566,71.461c0.044,0,0.081,0.016,0.11,0.047s0.044,0.069,0.044,0.114c0,0.046-0.018,0.095-0.053,0.146
		c-0.598,0.869-1.024,1.669-1.279,2.397c-0.255,0.729-0.382,1.459-0.382,2.188c0,0.654,0.117,1.374,0.352,2.158
		c0.015,0.053,0.022,0.087,0.022,0.103c0,0.063-0.023,0.117-0.068,0.166s-0.099,0.073-0.16,0.073c-0.038,0-0.07-0.015-0.097-0.044
		c-0.091-0.104-0.212-0.444-0.362-1.021c-0.151-0.576-0.227-1.079-0.227-1.509c0-0.582,0.073-1.124,0.22-1.626
		c0.146-0.501,0.33-0.955,0.552-1.362c0.221-0.406,0.479-0.82,0.775-1.24c0.223-0.309,0.369-0.491,0.439-0.547
		C189.49,71.476,189.528,71.461,189.566,71.461z"/>
	<path fill="#231F20" d="M191.03,77.179h2.834c0.038-0.198,0.073-0.315,0.105-0.352c0.047-0.055,0.103-0.083,0.167-0.083
		c0.041,0,0.075,0.015,0.104,0.044c0.027,0.029,0.042,0.063,0.042,0.103c0,0.033-0.004,0.075-0.013,0.127l-0.11,0.571h-3.568
		l0.119-0.605c0.949-0.801,1.852-1.587,2.707-2.358c0.404-0.371,0.685-0.649,0.842-0.835c0.156-0.186,0.265-0.354,0.325-0.505
		c0.06-0.151,0.09-0.304,0.09-0.457c0-0.306-0.101-0.565-0.301-0.778c-0.201-0.213-0.455-0.32-0.763-0.32
		c-0.322,0-0.628,0.102-0.918,0.303c-0.29,0.202-0.502,0.458-0.637,0.767c-0.059,0.134-0.135,0.2-0.229,0.2
		c-0.041,0-0.076-0.015-0.104-0.044s-0.042-0.064-0.042-0.107c0-0.11,0.076-0.278,0.229-0.503c0.226-0.328,0.497-0.582,0.815-0.762
		c0.318-0.179,0.643-0.269,0.974-0.269c0.384,0,0.705,0.142,0.965,0.423c0.259,0.281,0.389,0.621,0.389,1.018
		c0,0.189-0.036,0.383-0.107,0.581c-0.072,0.199-0.192,0.4-0.36,0.605c-0.169,0.205-0.452,0.49-0.851,0.854
		c-1.093,1-1.992,1.784-2.698,2.354L191.03,77.179z"/>
	<path fill="#231F20" d="M198.087,76.413h0.158c0.141,0,0.256,0.049,0.347,0.146s0.136,0.224,0.136,0.376
		c0,0.209-0.075,0.395-0.224,0.557c-0.149,0.163-0.321,0.244-0.514,0.244h-0.158c-0.144,0-0.26-0.05-0.349-0.148
		c-0.09-0.1-0.134-0.226-0.134-0.379c0-0.208,0.075-0.393,0.224-0.554S197.894,76.413,198.087,76.413z"/>
	<path fill="#231F20" d="M205.642,72.062l0.035-0.186h-2.641l-0.07,0.361c-0.021,0.098-0.052,0.168-0.094,0.21
		c-0.043,0.043-0.092,0.063-0.147,0.063c-0.041,0-0.076-0.015-0.104-0.044s-0.042-0.064-0.042-0.107
		c0-0.029,0.004-0.069,0.013-0.122l0.149-0.776h3.388l-0.127,0.654l-2.492,5.273c-0.041,0.085-0.08,0.141-0.117,0.169
		c-0.037,0.027-0.077,0.041-0.121,0.041s-0.079-0.015-0.105-0.044s-0.04-0.068-0.04-0.117c0-0.035,0.019-0.093,0.057-0.171
		L205.642,72.062z"/>
</g>
<g enable-background="new    ">
	<path fill="#231F20" d="M209.539,75.026l-1.238,1.284c-0.076,0.082-0.151,0.122-0.225,0.122c-0.05,0-0.091-0.018-0.123-0.054
		c-0.032-0.035-0.049-0.078-0.049-0.127c0-0.071,0.035-0.138,0.105-0.2l0.035-0.034l1.244-1.284l-0.914-1.284
		c-0.041-0.062-0.062-0.117-0.062-0.166c0-0.055,0.022-0.106,0.065-0.153c0.045-0.047,0.092-0.071,0.141-0.071
		c0.016,0,0.029,0.005,0.045,0.015c0.02,0.014,0.047,0.043,0.078,0.088l0.91,1.284l1.234-1.279c0.074-0.074,0.154-0.112,0.242-0.112
		c0.047,0,0.084,0.017,0.112,0.049c0.027,0.033,0.042,0.072,0.042,0.117c0,0.078-0.034,0.146-0.102,0.205l-0.035,0.034l-1.234,1.274
		l0.909,1.284c0.047,0.065,0.07,0.124,0.07,0.176c0,0.059-0.02,0.11-0.06,0.154c-0.039,0.044-0.086,0.065-0.139,0.065
		c-0.025,0-0.05-0.007-0.072-0.021c-0.021-0.015-0.047-0.042-0.076-0.081L209.539,75.026z"/>
</g>
<g enable-background="new    ">
	<path fill="#231F20" d="M215.507,71.378l-1.107,5.801h1.266c0.082,0,0.138,0.014,0.167,0.042c0.029,0.027,0.044,0.067,0.044,0.119
		c0,0.068-0.024,0.127-0.072,0.176c-0.049,0.049-0.121,0.073-0.218,0.073h-2.9c-0.082,0-0.138-0.015-0.167-0.044
		s-0.044-0.069-0.044-0.122c0-0.064,0.024-0.122,0.072-0.171c0.049-0.049,0.121-0.073,0.218-0.073h1.266l0.997-5.234l-1.283,0.42
		c-0.061,0.02-0.106,0.029-0.136,0.029c-0.035,0-0.065-0.015-0.093-0.046c-0.025-0.031-0.039-0.069-0.039-0.115
		c0-0.055,0.016-0.105,0.049-0.151c0.031-0.045,0.094-0.083,0.184-0.112L215.507,71.378z"/>
	<path fill="#231F20" d="M221.918,74.02l-0.197,1.016c-0.167,0.886-0.488,1.584-0.963,2.095c-0.375,0.404-0.783,0.605-1.226,0.605
		c-0.293,0-0.538-0.078-0.736-0.234c-0.197-0.156-0.331-0.359-0.401-0.61c-0.1-0.357-0.15-0.696-0.15-1.016
		c0-0.247,0.029-0.527,0.088-0.84l0.198-1.016c0.167-0.889,0.489-1.588,0.967-2.1c0.372-0.403,0.779-0.605,1.222-0.605
		c0.296,0,0.542,0.078,0.738,0.234s0.33,0.363,0.4,0.62c0.1,0.358,0.148,0.695,0.148,1.011
		C222.006,73.424,221.977,73.705,221.918,74.02z M221.536,74.074c0.047-0.25,0.07-0.481,0.07-0.693c0-0.445-0.041-0.782-0.123-1.011
		c-0.082-0.228-0.19-0.391-0.325-0.49s-0.302-0.149-0.501-0.149c-0.416,0-0.785,0.236-1.107,0.708
		c-0.322,0.473-0.542,1.018-0.659,1.636l-0.176,0.903c-0.047,0.254-0.07,0.485-0.07,0.693c0,0.443,0.041,0.779,0.123,1.009
		s0.19,0.395,0.325,0.495c0.135,0.102,0.302,0.151,0.501,0.151c0.416,0,0.785-0.236,1.107-0.71s0.542-1.02,0.659-1.639
		L221.536,74.074z"/>
</g>
<g enable-background="new    ">
	<path fill="#231F20" d="M224.412,73.253h-1.428l0.055-0.276l1.634-2.298h0.448l-0.445,2.335h0.18c0.047,0,0.078,0.007,0.094,0.02
		c0.02,0.02,0.029,0.044,0.029,0.074c0,0.04-0.015,0.074-0.043,0.103s-0.07,0.043-0.127,0.043h-0.18l-0.146,0.76h0.182
		c0.048,0,0.081,0.008,0.098,0.024c0.017,0.016,0.025,0.039,0.025,0.069c0,0.04-0.015,0.074-0.042,0.103
		c-0.028,0.028-0.07,0.043-0.127,0.043h-0.802c-0.048,0-0.081-0.009-0.098-0.025c-0.017-0.018-0.025-0.041-0.025-0.071
		c0-0.038,0.015-0.071,0.042-0.1c0.028-0.029,0.07-0.043,0.127-0.043h0.404L224.412,73.253z M224.457,73.014l0.4-2.093h-0.113
		l-1.488,2.093H224.457z"/>
	<path fill="#231F20" d="M228.355,72.171l-0.116,0.592c-0.097,0.517-0.284,0.924-0.562,1.222c-0.218,0.235-0.456,0.353-0.715,0.353
		c-0.17,0-0.313-0.045-0.428-0.137c-0.116-0.091-0.194-0.209-0.235-0.355c-0.058-0.209-0.087-0.406-0.087-0.592
		c0-0.145,0.018-0.308,0.051-0.49l0.115-0.592c0.098-0.519,0.285-0.926,0.564-1.225c0.217-0.234,0.454-0.353,0.712-0.353
		c0.173,0,0.315,0.046,0.431,0.137c0.114,0.091,0.191,0.212,0.232,0.361c0.059,0.209,0.088,0.405,0.088,0.59
		C228.406,71.824,228.389,71.987,228.355,72.171z M228.132,72.203c0.027-0.146,0.041-0.281,0.041-0.404
		c0-0.26-0.024-0.456-0.071-0.589c-0.049-0.133-0.111-0.229-0.189-0.286c-0.079-0.059-0.177-0.087-0.293-0.087
		c-0.242,0-0.457,0.138-0.646,0.412c-0.188,0.275-0.315,0.594-0.384,0.954l-0.104,0.526c-0.027,0.148-0.04,0.283-0.04,0.404
		c0,0.258,0.023,0.454,0.071,0.588s0.111,0.23,0.189,0.289c0.079,0.059,0.176,0.088,0.293,0.088c0.242,0,0.457-0.138,0.645-0.414
		c0.188-0.276,0.316-0.595,0.385-0.955L228.132,72.203z"/>
</g>
<g enable-background="new    ">
	<path fill="#231F20" d="M229.807,78.852c-0.043,0-0.08-0.016-0.109-0.047c-0.029-0.03-0.044-0.069-0.044-0.114
		c0-0.049,0.018-0.1,0.053-0.151c0.595-0.863,1.021-1.659,1.276-2.388c0.256-0.729,0.385-1.46,0.385-2.192
		c0-0.654-0.119-1.375-0.355-2.163c-0.016-0.049-0.022-0.081-0.022-0.098c0-0.062,0.023-0.118,0.07-0.169
		c0.047-0.05,0.101-0.075,0.163-0.075c0.037,0,0.07,0.015,0.096,0.044c0.092,0.104,0.212,0.445,0.363,1.022
		c0.15,0.578,0.227,1.08,0.227,1.507c0,0.582-0.073,1.122-0.218,1.618c-0.146,0.497-0.326,0.946-0.543,1.351
		c-0.217,0.403-0.478,0.82-0.782,1.25c-0.223,0.315-0.371,0.501-0.443,0.557C229.883,78.835,229.846,78.852,229.807,78.852z"/>
</g>
<g enable-background="new    ">
	<path fill="#231F20" d="M130.214,88.592l-0.114,0.586h-3.766l0.114-0.586H130.214z"/>
	<path fill="#231F20" d="M132.53,89.12c0.311-0.388,0.604-0.667,0.881-0.84c0.276-0.173,0.563-0.259,0.859-0.259
		c0.325,0,0.601,0.134,0.829,0.402c0.227,0.269,0.34,0.623,0.34,1.063c0,0.309-0.065,0.62-0.196,0.933s-0.288,0.571-0.472,0.776
		s-0.387,0.367-0.606,0.485c-0.22,0.119-0.458,0.179-0.716,0.179c-0.393,0-0.713-0.158-0.962-0.474
		c-0.249-0.316-0.374-0.815-0.374-1.499c0-0.908,0.17-1.707,0.512-2.396s0.837-1.229,1.488-1.623c0.475-0.286,0.943-0.43,1.406-0.43
		c0.22,0,0.404,0.049,0.554,0.146c0.064,0.046,0.097,0.101,0.097,0.166c0,0.068-0.021,0.127-0.064,0.176S136.013,86,135.958,86
		c-0.041,0-0.085-0.017-0.132-0.049c-0.105-0.065-0.248-0.098-0.426-0.098c-0.328,0-0.672,0.101-1.033,0.303
		s-0.683,0.474-0.969,0.815c-0.285,0.342-0.5,0.71-0.644,1.104C132.657,88.338,132.583,88.686,132.53,89.12z M132.486,89.798
		c0,0.596,0.094,1.02,0.284,1.271c0.188,0.253,0.447,0.379,0.775,0.379c0.381,0,0.728-0.19,1.042-0.571s0.47-0.822,0.47-1.323
		c0-0.336-0.086-0.606-0.259-0.813c-0.173-0.206-0.381-0.31-0.624-0.31c-0.287,0-0.584,0.13-0.892,0.391
		C133.064,89.003,132.799,89.33,132.486,89.798z"/>
	<path fill="#231F20" d="M138.682,90.536h0.158c0.141,0,0.256,0.049,0.347,0.146s0.136,0.223,0.136,0.376
		c0,0.208-0.075,0.394-0.224,0.557c-0.149,0.162-0.321,0.244-0.514,0.244h-0.158c-0.144,0-0.26-0.05-0.349-0.149
		c-0.09-0.099-0.134-0.226-0.134-0.378c0-0.209,0.075-0.394,0.224-0.555S138.489,90.536,138.682,90.536z"/>
	<path fill="#231F20" d="M142.426,91.302h2.834c0.038-0.199,0.073-0.316,0.105-0.352c0.047-0.056,0.103-0.083,0.167-0.083
		c0.041,0,0.075,0.015,0.104,0.044c0.027,0.029,0.042,0.063,0.042,0.103c0,0.032-0.004,0.074-0.013,0.127l-0.11,0.571h-3.568
		l0.119-0.605c0.949-0.801,1.852-1.587,2.707-2.358c0.404-0.371,0.685-0.649,0.842-0.835c0.156-0.186,0.265-0.354,0.325-0.506
		c0.06-0.151,0.09-0.303,0.09-0.456c0-0.306-0.101-0.565-0.301-0.779c-0.201-0.213-0.455-0.319-0.763-0.319
		c-0.322,0-0.628,0.101-0.918,0.303s-0.502,0.457-0.637,0.767c-0.059,0.134-0.135,0.2-0.229,0.2c-0.041,0-0.076-0.015-0.104-0.044
		s-0.042-0.065-0.042-0.107c0-0.11,0.076-0.278,0.229-0.503c0.226-0.329,0.497-0.583,0.815-0.762s0.643-0.269,0.974-0.269
		c0.384,0,0.705,0.141,0.965,0.422c0.259,0.282,0.389,0.621,0.389,1.019c0,0.188-0.036,0.383-0.107,0.581
		c-0.072,0.198-0.192,0.4-0.36,0.605c-0.169,0.205-0.452,0.49-0.851,0.854c-1.093,0.999-1.992,1.783-2.698,2.354L142.426,91.302z"/>
	<path fill="#231F20" d="M151.725,89.696h-3.762c-0.009,0.101-0.013,0.177-0.013,0.229c0,0.445,0.136,0.813,0.409,1.104
		c0.272,0.289,0.642,0.435,1.107,0.435c0.272,0,0.568-0.05,0.888-0.149c0.319-0.099,0.593-0.233,0.822-0.402
		c0.067-0.049,0.122-0.073,0.163-0.073c0.038,0,0.07,0.016,0.097,0.046c0.026,0.031,0.04,0.071,0.04,0.12
		c0,0.059-0.023,0.113-0.07,0.166c-0.135,0.159-0.404,0.316-0.809,0.471c-0.404,0.155-0.814,0.232-1.23,0.232
		c-0.539,0-0.972-0.178-1.299-0.532c-0.327-0.355-0.49-0.806-0.49-1.353c0-0.361,0.07-0.702,0.211-1.023
		c0.141-0.32,0.326-0.597,0.556-0.83c0.229-0.232,0.495-0.424,0.795-0.573s0.628-0.225,0.982-0.225c0.504,0,0.909,0.164,1.215,0.493
		s0.459,0.749,0.459,1.26C151.795,89.259,151.772,89.461,151.725,89.696z M151.426,89.281c0.015-0.449-0.105-0.817-0.36-1.104
		c-0.258-0.283-0.604-0.425-1.037-0.425c-0.422,0-0.816,0.139-1.182,0.415s-0.634,0.647-0.804,1.113H151.426z"/>
	<path fill="#231F20" d="M157.218,88.592l-0.114,0.586h-3.766l0.114-0.586H157.218z"/>
	<path fill="#231F20" d="M161.507,85.501l-1.107,5.801h1.266c0.082,0,0.138,0.014,0.167,0.041c0.029,0.028,0.044,0.067,0.044,0.12
		c0,0.068-0.024,0.127-0.073,0.176c-0.048,0.049-0.121,0.073-0.217,0.073h-2.9c-0.082,0-0.138-0.015-0.167-0.044
		s-0.044-0.07-0.044-0.122c0-0.065,0.024-0.122,0.073-0.171c0.048-0.049,0.121-0.073,0.217-0.073h1.266l0.998-5.234l-1.283,0.42
		c-0.062,0.02-0.107,0.029-0.136,0.029c-0.035,0-0.066-0.016-0.092-0.047c-0.026-0.03-0.04-0.068-0.04-0.114
		c0-0.056,0.016-0.105,0.048-0.151s0.094-0.083,0.185-0.112L161.507,85.501z"/>
	<path fill="#231F20" d="M164.03,91.302h2.834c0.038-0.199,0.073-0.316,0.105-0.352c0.047-0.056,0.103-0.083,0.167-0.083
		c0.041,0,0.075,0.015,0.104,0.044c0.027,0.029,0.042,0.063,0.042,0.103c0,0.032-0.004,0.074-0.013,0.127l-0.11,0.571h-3.568
		l0.119-0.605c0.949-0.801,1.852-1.587,2.707-2.358c0.404-0.371,0.685-0.649,0.842-0.835c0.156-0.186,0.265-0.354,0.325-0.506
		c0.06-0.151,0.09-0.303,0.09-0.456c0-0.306-0.101-0.565-0.301-0.779c-0.201-0.213-0.455-0.319-0.763-0.319
		c-0.322,0-0.628,0.101-0.918,0.303s-0.502,0.457-0.637,0.767c-0.059,0.134-0.135,0.2-0.229,0.2c-0.041,0-0.076-0.015-0.104-0.044
		s-0.042-0.065-0.042-0.107c0-0.11,0.076-0.278,0.229-0.503c0.226-0.329,0.497-0.583,0.815-0.762s0.643-0.269,0.974-0.269
		c0.384,0,0.705,0.141,0.965,0.422c0.259,0.282,0.389,0.621,0.389,1.019c0,0.188-0.036,0.383-0.107,0.581
		c-0.072,0.198-0.192,0.4-0.36,0.605c-0.169,0.205-0.452,0.49-0.851,0.854c-1.093,0.999-1.992,1.783-2.698,2.354L164.03,91.302z"/>
</g>
<g enable-background="new    ">
</g>
<g enable-background="new    ">
</g>
<g enable-background="new    ">
	<path fill="#231F20" d="M188.986,85.584c0.044,0,0.081,0.016,0.11,0.046c0.029,0.031,0.044,0.069,0.044,0.115
		s-0.018,0.095-0.053,0.146c-0.598,0.869-1.024,1.668-1.279,2.397c-0.255,0.729-0.382,1.458-0.382,2.188
		c0,0.654,0.117,1.373,0.352,2.158c0.015,0.052,0.022,0.086,0.022,0.103c0,0.062-0.023,0.117-0.068,0.166s-0.099,0.073-0.16,0.073
		c-0.038,0-0.07-0.015-0.097-0.044c-0.091-0.104-0.212-0.444-0.362-1.021c-0.151-0.576-0.227-1.079-0.227-1.509
		c0-0.583,0.073-1.125,0.22-1.626s0.33-0.955,0.552-1.362c0.221-0.407,0.479-0.82,0.775-1.24c0.223-0.31,0.369-0.491,0.439-0.547
		C188.91,85.599,188.948,85.584,188.986,85.584z"/>
	<path fill="#231F20" d="M194.44,88.592l-0.114,0.586h-3.766l0.114-0.586H194.44z"/>
	<path fill="#231F20" d="M196.756,89.12c0.311-0.388,0.604-0.667,0.881-0.84c0.277-0.173,0.563-0.259,0.859-0.259
		c0.325,0,0.601,0.134,0.828,0.402s0.341,0.623,0.341,1.063c0,0.309-0.065,0.62-0.195,0.933c-0.131,0.313-0.288,0.571-0.473,0.776
		s-0.387,0.367-0.606,0.485c-0.22,0.119-0.458,0.179-0.716,0.179c-0.393,0-0.713-0.158-0.962-0.474
		c-0.249-0.316-0.374-0.815-0.374-1.499c0-0.908,0.17-1.707,0.512-2.396c0.341-0.688,0.837-1.229,1.487-1.623
		c0.475-0.286,0.943-0.43,1.406-0.43c0.22,0,0.404,0.049,0.554,0.146c0.064,0.046,0.097,0.101,0.097,0.166
		c0,0.068-0.021,0.127-0.063,0.176c-0.043,0.049-0.092,0.073-0.147,0.073c-0.041,0-0.085-0.017-0.132-0.049
		c-0.105-0.065-0.248-0.098-0.426-0.098c-0.328,0-0.672,0.101-1.033,0.303s-0.684,0.474-0.969,0.815
		c-0.286,0.342-0.5,0.71-0.644,1.104C196.883,88.338,196.809,88.686,196.756,89.12z M196.712,89.798c0,0.596,0.095,1.02,0.283,1.271
		c0.189,0.253,0.448,0.379,0.776,0.379c0.381,0,0.728-0.19,1.042-0.571s0.47-0.822,0.47-1.323c0-0.336-0.086-0.606-0.259-0.813
		c-0.173-0.206-0.381-0.31-0.624-0.31c-0.287,0-0.584,0.13-0.892,0.391C197.291,89.003,197.025,89.33,196.712,89.798z"/>
	<path fill="#231F20" d="M202.908,90.536h0.158c0.141,0,0.256,0.049,0.347,0.146s0.136,0.223,0.136,0.376
		c0,0.208-0.075,0.394-0.224,0.557c-0.149,0.162-0.321,0.244-0.514,0.244h-0.158c-0.144,0-0.26-0.05-0.35-0.149
		c-0.089-0.099-0.134-0.226-0.134-0.378c0-0.209,0.075-0.394,0.224-0.555S202.715,90.536,202.908,90.536z"/>
	<path fill="#231F20" d="M206.652,91.302h2.834c0.039-0.199,0.074-0.316,0.105-0.352c0.047-0.056,0.104-0.083,0.168-0.083
		c0.041,0,0.074,0.015,0.103,0.044s0.042,0.063,0.042,0.103c0,0.032-0.004,0.074-0.014,0.127l-0.109,0.571h-3.568l0.119-0.605
		c0.95-0.801,1.852-1.587,2.708-2.358c0.404-0.371,0.684-0.649,0.841-0.835s0.265-0.354,0.325-0.506s0.09-0.303,0.09-0.456
		c0-0.306-0.1-0.565-0.301-0.779c-0.201-0.213-0.455-0.319-0.762-0.319c-0.322,0-0.629,0.101-0.919,0.303s-0.503,0.457-0.638,0.767
		c-0.059,0.134-0.135,0.2-0.229,0.2c-0.041,0-0.075-0.015-0.103-0.044c-0.028-0.029-0.042-0.065-0.042-0.107
		c0-0.11,0.076-0.278,0.229-0.503c0.226-0.329,0.497-0.583,0.815-0.762c0.317-0.179,0.642-0.269,0.974-0.269
		c0.383,0,0.705,0.141,0.964,0.422c0.26,0.282,0.39,0.621,0.39,1.019c0,0.188-0.037,0.383-0.108,0.581s-0.192,0.4-0.36,0.605
		s-0.451,0.49-0.85,0.854c-1.094,0.999-1.992,1.783-2.699,2.354L206.652,91.302z"/>
</g>
<g enable-background="new    ">
	<path fill="#231F20" d="M214.352,89.149l-1.24,1.284c-0.076,0.081-0.15,0.122-0.224,0.122c-0.05,0-0.091-0.019-0.123-0.054
		c-0.032-0.036-0.048-0.078-0.048-0.127c0-0.072,0.035-0.139,0.105-0.2l0.035-0.034l1.243-1.284l-0.914-1.284
		c-0.041-0.062-0.062-0.117-0.062-0.166c0-0.056,0.021-0.106,0.066-0.154c0.043-0.047,0.09-0.07,0.141-0.07
		c0.014,0,0.029,0.005,0.043,0.015c0.021,0.013,0.047,0.042,0.08,0.088l0.909,1.284l1.235-1.279
		c0.072-0.075,0.153-0.112,0.241-0.112c0.047,0,0.084,0.017,0.112,0.049c0.027,0.032,0.041,0.071,0.041,0.117
		c0,0.078-0.033,0.146-0.101,0.205l-0.035,0.034l-1.235,1.274l0.91,1.284c0.047,0.064,0.07,0.123,0.07,0.176
		c0,0.059-0.02,0.109-0.06,0.153c-0.039,0.044-0.085,0.066-0.138,0.066c-0.027,0-0.051-0.008-0.073-0.022
		c-0.021-0.015-0.048-0.041-0.077-0.08L214.352,89.149z"/>
</g>
<g enable-background="new    ">
	<path fill="#231F20" d="M220.318,85.501l-1.107,5.801h1.266c0.082,0,0.137,0.014,0.166,0.041c0.029,0.028,0.045,0.067,0.045,0.12
		c0,0.068-0.024,0.127-0.073,0.176c-0.048,0.049-0.12,0.073-0.218,0.073h-2.9c-0.082,0-0.137-0.015-0.166-0.044
		s-0.045-0.07-0.045-0.122c0-0.065,0.024-0.122,0.073-0.171c0.048-0.049,0.12-0.073,0.218-0.073h1.266l0.997-5.234l-1.283,0.42
		c-0.062,0.02-0.106,0.029-0.136,0.029c-0.035,0-0.066-0.016-0.093-0.047c-0.026-0.03-0.04-0.068-0.04-0.114
		c0-0.056,0.017-0.105,0.049-0.151s0.094-0.083,0.185-0.112L220.318,85.501z"/>
	<path fill="#231F20" d="M226.729,88.143l-0.198,1.016c-0.166,0.885-0.487,1.583-0.962,2.095c-0.375,0.403-0.784,0.605-1.226,0.605
		c-0.293,0-0.539-0.078-0.736-0.234c-0.198-0.156-0.332-0.36-0.402-0.61c-0.1-0.358-0.149-0.697-0.149-1.016
		c0-0.248,0.029-0.527,0.088-0.84l0.198-1.016c0.166-0.889,0.488-1.589,0.967-2.1c0.371-0.403,0.779-0.605,1.221-0.605
		c0.297,0,0.543,0.078,0.738,0.234c0.197,0.156,0.33,0.363,0.4,0.62c0.1,0.358,0.149,0.695,0.149,1.011
		C226.817,87.547,226.788,87.828,226.729,88.143z M226.348,88.197c0.047-0.251,0.07-0.481,0.07-0.693
		c0-0.446-0.041-0.783-0.123-1.011s-0.191-0.392-0.326-0.491c-0.135-0.099-0.301-0.148-0.5-0.148c-0.416,0-0.785,0.236-1.107,0.708
		s-0.543,1.018-0.66,1.636l-0.176,0.903c-0.047,0.254-0.07,0.484-0.07,0.693c0,0.442,0.041,0.778,0.123,1.008
		s0.191,0.395,0.326,0.496c0.135,0.101,0.301,0.151,0.5,0.151c0.416,0,0.785-0.237,1.107-0.711s0.543-1.02,0.66-1.638
		L226.348,88.197z"/>
</g>
<g enable-background="new    ">
	<path fill="#231F20" d="M230.077,86.562l-0.066,0.341h-2.196l0.067-0.341H230.077z"/>
	<path fill="#231F20" d="M232.578,84.759l-0.646,3.382h0.738c0.049,0,0.08,0.009,0.098,0.024c0.018,0.017,0.025,0.04,0.025,0.07
		c0,0.039-0.014,0.073-0.042,0.103c-0.028,0.028-0.07,0.042-0.127,0.042h-1.69c-0.049,0-0.08-0.008-0.098-0.025
		c-0.018-0.017-0.025-0.041-0.025-0.071c0-0.038,0.014-0.071,0.042-0.1s0.07-0.043,0.127-0.043h0.737l0.582-3.051l-0.748,0.244
		c-0.036,0.012-0.063,0.018-0.08,0.018c-0.02,0-0.038-0.009-0.053-0.027c-0.016-0.018-0.023-0.04-0.023-0.066
		c0-0.032,0.01-0.063,0.027-0.089c0.02-0.026,0.055-0.048,0.108-0.065L232.578,84.759z"/>
	<path fill="#231F20" d="M234.049,88.141h1.652c0.021-0.115,0.043-0.184,0.061-0.204c0.027-0.033,0.061-0.049,0.098-0.049
		c0.024,0,0.045,0.009,0.061,0.025c0.016,0.018,0.024,0.037,0.024,0.06c0,0.02-0.003,0.044-0.008,0.074l-0.063,0.333h-2.081
		l0.069-0.353c0.553-0.467,1.08-0.926,1.578-1.375c0.236-0.217,0.399-0.379,0.49-0.487c0.092-0.107,0.154-0.206,0.189-0.294
		c0.035-0.089,0.053-0.177,0.053-0.267c0-0.178-0.059-0.329-0.176-0.454c-0.116-0.124-0.265-0.187-0.443-0.187
		c-0.188,0-0.367,0.06-0.536,0.177c-0.169,0.118-0.293,0.267-0.372,0.447c-0.033,0.077-0.078,0.116-0.133,0.116
		c-0.023,0-0.043-0.009-0.061-0.025c-0.016-0.018-0.023-0.038-0.023-0.063c0-0.064,0.044-0.162,0.133-0.293
		c0.132-0.192,0.29-0.34,0.476-0.444c0.185-0.104,0.374-0.156,0.567-0.156c0.224,0,0.411,0.082,0.563,0.246
		c0.15,0.164,0.227,0.361,0.227,0.593c0,0.11-0.021,0.224-0.063,0.339c-0.042,0.116-0.112,0.233-0.211,0.354
		c-0.098,0.119-0.263,0.285-0.495,0.498c-0.638,0.582-1.161,1.04-1.573,1.372L234.049,88.141z"/>
</g>
<g enable-background="new    ">
	<path fill="#231F20" d="M237.769,92.98c-0.044,0-0.081-0.016-0.11-0.046c-0.029-0.031-0.043-0.069-0.043-0.115
		c0-0.049,0.018-0.099,0.053-0.151c0.594-0.862,1.02-1.658,1.276-2.388c0.256-0.729,0.384-1.46,0.384-2.192
		c0-0.654-0.118-1.375-0.355-2.163c-0.015-0.049-0.021-0.081-0.021-0.098c0-0.062,0.023-0.117,0.07-0.168s0.101-0.076,0.162-0.076
		c0.038,0,0.07,0.015,0.097,0.044c0.091,0.104,0.212,0.445,0.362,1.023s0.227,1.08,0.227,1.506c0,0.583-0.072,1.122-0.218,1.619
		c-0.145,0.496-0.325,0.946-0.542,1.35c-0.217,0.404-0.479,0.82-0.783,1.25c-0.223,0.316-0.37,0.502-0.443,0.557
		C237.845,92.964,237.807,92.98,237.769,92.98z"/>
</g>
<g>
	<g>
		<defs>
			<rect id="SVGID_35_" x="119.028" y="8.199" width="133.855" height="98.177"/>
		</defs>
		<clipPath id="SVGID_36_">
			<use xlink:href="#SVGID_35_"  overflow="visible"/>
		</clipPath>
		<path clip-path="url(#SVGID_36_)" fill="none" stroke="#231F20" stroke-width="1.5" d="M129.091,9.949c0,0-8,0-8,8v78.677
			c0,0,0,8,8,8h108.75c0,0,8,0,8-8V17.949c0,0,0-8-8-8H129.091z"/>
	</g>
</g>
<g enable-background="new    ">
	<path d="M254.072,75.03l1.606,2.207h-0.863l-1.583-2.207l1.583-2.207h0.851L254.072,75.03z M256.039,75.03l1.595,2.207h-0.852
		l-1.583-2.207l1.583-2.207h0.852L256.039,75.03z"/>
	<path d="M262.675,75.509l-0.839,2.543h-1.08l2.758-8.084h1.248l2.758,8.084h-1.115l-0.863-2.543H262.675z M265.338,74.694
		l-0.805-2.326c-0.18-0.528-0.299-1.008-0.419-1.476h-0.024c-0.119,0.468-0.24,0.972-0.408,1.463l-0.791,2.339H265.338z"/>
	<path d="M271.627,72.248l1.14,3.25c0.192,0.54,0.348,1.02,0.468,1.499h0.035c0.133-0.479,0.301-0.959,0.492-1.499l1.127-3.25h1.104
		l-2.278,5.805h-1.007l-2.207-5.805H271.627z"/>
	<path d="M277.459,75.341c0.023,1.428,0.924,2.016,1.99,2.016c0.756,0,1.224-0.132,1.607-0.3l0.191,0.755
		c-0.371,0.168-1.019,0.372-1.942,0.372c-1.787,0-2.854-1.188-2.854-2.938s1.031-3.118,2.723-3.118c1.906,0,2.398,1.655,2.398,2.723
		c0,0.216-0.012,0.372-0.035,0.491H277.459z M280.553,74.586c0.012-0.66-0.275-1.703-1.463-1.703c-1.08,0-1.535,0.972-1.619,1.703
		H280.553z"/>
	<path d="M282.883,74.058c0-0.684-0.012-1.271-0.047-1.811h0.923l0.048,1.151h0.036c0.264-0.779,0.911-1.271,1.619-1.271
		c0.108,0,0.192,0.012,0.288,0.024v0.995c-0.108-0.024-0.217-0.024-0.359-0.024c-0.744,0-1.271,0.552-1.416,1.344
		c-0.023,0.144-0.035,0.324-0.035,0.491v3.095h-1.057V74.058z"/>
	<path d="M287.49,72.248l1.26,3.43c0.145,0.384,0.288,0.84,0.384,1.188h0.024c0.107-0.348,0.228-0.791,0.371-1.211l1.152-3.406
		h1.115l-1.584,4.138c-0.756,1.991-1.271,2.998-1.99,3.634c-0.527,0.444-1.031,0.624-1.295,0.672l-0.265-0.876
		c0.265-0.084,0.612-0.252,0.924-0.516c0.288-0.228,0.636-0.636,0.888-1.175c0.047-0.108,0.084-0.192,0.084-0.252
		c0-0.061-0.024-0.145-0.084-0.276l-2.135-5.349H287.49z"/>
	<path d="M295.303,69.537h1.043v3.646h0.024c0.372-0.647,1.044-1.056,1.979-1.056c1.451,0,2.458,1.199,2.458,2.95
		c0,2.075-1.319,3.106-2.614,3.106c-0.84,0-1.512-0.323-1.955-1.079h-0.023l-0.061,0.947h-0.899
		c0.024-0.396,0.048-0.983,0.048-1.499V69.537z M296.346,75.725c0,0.133,0.013,0.265,0.049,0.384
		c0.191,0.732,0.814,1.235,1.582,1.235c1.116,0,1.764-0.899,1.764-2.23c0-1.163-0.6-2.159-1.738-2.159
		c-0.709,0-1.38,0.504-1.596,1.296c-0.036,0.132-0.061,0.275-0.061,0.443V75.725z"/>
	<path d="M303.307,70.617c0,0.359-0.252,0.647-0.672,0.647c-0.384,0-0.636-0.288-0.636-0.647c0-0.36,0.264-0.66,0.659-0.66
		C303.043,69.957,303.307,70.245,303.307,70.617z M302.131,78.052v-5.805h1.056v5.805H302.131z"/>
	<path d="M309.904,77.201c0,1.344-0.276,2.146-0.828,2.662c-0.576,0.517-1.391,0.696-2.123,0.696c-0.695,0-1.463-0.168-1.931-0.479
		l0.264-0.816c0.384,0.252,0.983,0.468,1.703,0.468c1.079,0,1.871-0.563,1.871-2.038v-0.636h-0.024
		c-0.312,0.539-0.947,0.971-1.847,0.971c-1.438,0-2.471-1.223-2.471-2.83c0-1.967,1.284-3.07,2.627-3.07
		c1.007,0,1.547,0.516,1.812,0.995h0.023l0.035-0.875h0.936c-0.035,0.407-0.047,0.888-0.047,1.583V77.201z M308.848,74.539
		c0-0.181-0.012-0.336-0.059-0.468c-0.192-0.624-0.696-1.128-1.477-1.128c-1.007,0-1.727,0.852-1.727,2.195
		c0,1.139,0.588,2.087,1.715,2.087c0.66,0,1.248-0.408,1.463-1.08c0.061-0.18,0.084-0.384,0.084-0.563V74.539z"/>
	<path d="M314.19,74.142c0-0.743-0.024-1.343-0.048-1.895h0.936l0.061,0.995h0.023c0.42-0.707,1.115-1.115,2.063-1.115
		c1.416,0,2.471,1.188,2.471,2.938c0,2.087-1.283,3.118-2.65,3.118c-0.768,0-1.439-0.336-1.787-0.911h-0.023v3.154h-1.044V74.142z
		 M315.234,75.69c0,0.155,0.012,0.3,0.047,0.432c0.192,0.731,0.828,1.235,1.584,1.235c1.115,0,1.763-0.912,1.763-2.243
		c0-1.151-0.612-2.146-1.728-2.146c-0.719,0-1.402,0.504-1.595,1.295c-0.036,0.132-0.071,0.288-0.071,0.42V75.69z"/>
	<path d="M326.271,75.102c0,2.146-1.5,3.082-2.891,3.082c-1.559,0-2.783-1.151-2.783-2.986c0-1.931,1.284-3.07,2.879-3.07
		C325.145,72.127,326.271,73.338,326.271,75.102z M321.678,75.162c0,1.271,0.72,2.231,1.751,2.231c1.007,0,1.763-0.948,1.763-2.255
		c0-0.983-0.491-2.219-1.738-2.219C322.217,72.919,321.678,74.071,321.678,75.162z"/>
	<path d="M327.463,76.985c0.324,0.191,0.875,0.408,1.402,0.408c0.756,0,1.115-0.372,1.115-0.864c0-0.504-0.299-0.768-1.066-1.055
		c-1.056-0.384-1.547-0.948-1.547-1.644c0-0.936,0.768-1.703,2.002-1.703c0.588,0,1.104,0.156,1.416,0.36l-0.252,0.768
		c-0.229-0.145-0.648-0.349-1.188-0.349c-0.624,0-0.959,0.36-0.959,0.792c0,0.479,0.335,0.695,1.091,0.995
		c0.995,0.372,1.522,0.876,1.522,1.739c0,1.031-0.803,1.751-2.158,1.751c-0.636,0-1.223-0.168-1.631-0.407L327.463,76.985z"/>
	<path d="M333.533,70.617c0,0.359-0.252,0.647-0.671,0.647c-0.384,0-0.636-0.288-0.636-0.647c0-0.36,0.264-0.66,0.66-0.66
		C333.27,69.957,333.533,70.245,333.533,70.617z M332.358,78.052v-5.805h1.056v5.805H332.358z"/>
	<path d="M336.438,70.856v1.392h1.512v0.804h-1.512v3.13c0,0.72,0.203,1.128,0.791,1.128c0.288,0,0.456-0.024,0.611-0.072
		l0.049,0.804c-0.204,0.071-0.527,0.144-0.936,0.144c-0.492,0-0.888-0.168-1.14-0.443c-0.288-0.324-0.407-0.84-0.407-1.523v-3.166
		h-0.9v-0.804h0.9v-1.079L336.438,70.856z"/>
	<path d="M340.313,70.617c0,0.359-0.252,0.647-0.671,0.647c-0.385,0-0.637-0.288-0.637-0.647c0-0.36,0.264-0.66,0.66-0.66
		C340.05,69.957,340.313,70.245,340.313,70.617z M339.139,78.052v-5.805h1.055v5.805H339.139z"/>
	<path d="M342.354,72.248l1.14,3.25c0.192,0.54,0.348,1.02,0.468,1.499h0.035c0.133-0.479,0.301-0.959,0.492-1.499l1.127-3.25h1.104
		l-2.278,5.805h-1.007l-2.207-5.805H342.354z"/>
	<path d="M348.186,75.341c0.023,1.428,0.924,2.016,1.99,2.016c0.756,0,1.224-0.132,1.607-0.3l0.191,0.755
		c-0.371,0.168-1.019,0.372-1.942,0.372c-1.787,0-2.854-1.188-2.854-2.938s1.031-3.118,2.723-3.118c1.906,0,2.398,1.655,2.398,2.723
		c0,0.216-0.012,0.372-0.035,0.491H348.186z M351.279,74.586c0.012-0.66-0.275-1.703-1.463-1.703c-1.08,0-1.535,0.972-1.619,1.703
		H351.279z"/>
	<path d="M356.154,73.819c0-0.612-0.012-1.092-0.049-1.571h0.936l0.061,0.959h0.023c0.288-0.539,0.96-1.079,1.92-1.079
		c0.803,0,2.051,0.479,2.051,2.471v3.454h-1.057v-3.346c0-0.936-0.348-1.716-1.343-1.716c-0.684,0-1.224,0.492-1.415,1.08
		c-0.048,0.132-0.072,0.312-0.072,0.491v3.49h-1.055V73.819z"/>
	<path d="M367.671,76.458c0,0.611,0.012,1.139,0.048,1.595h-0.936l-0.061-0.947h-0.023c-0.264,0.468-0.887,1.079-1.919,1.079
		c-0.911,0-2.003-0.516-2.003-2.543v-3.394h1.056v3.202c0,1.104,0.348,1.859,1.296,1.859c0.707,0,1.199-0.492,1.391-0.972
		c0.061-0.145,0.096-0.336,0.096-0.54v-3.55h1.056V76.458z"/>
	<path d="M369.426,73.819c0-0.612-0.024-1.092-0.049-1.571h0.924l0.048,0.947h0.036c0.324-0.552,0.863-1.067,1.835-1.067
		c0.78,0,1.38,0.479,1.632,1.163h0.023c0.18-0.336,0.42-0.575,0.66-0.755c0.348-0.265,0.719-0.408,1.271-0.408
		c0.78,0,1.919,0.504,1.919,2.519v3.406h-1.031v-3.274c0-1.127-0.42-1.787-1.26-1.787c-0.611,0-1.066,0.444-1.259,0.948
		c-0.048,0.155-0.084,0.335-0.084,0.527v3.586h-1.032v-3.479c0-0.923-0.407-1.583-1.211-1.583c-0.647,0-1.139,0.528-1.307,1.056
		c-0.061,0.144-0.084,0.336-0.084,0.516v3.49h-1.031V73.819z"/>
	<path d="M379.434,69.537h1.043v3.646h0.024c0.372-0.647,1.044-1.056,1.979-1.056c1.451,0,2.458,1.199,2.458,2.95
		c0,2.075-1.319,3.106-2.614,3.106c-0.84,0-1.512-0.323-1.955-1.079h-0.023l-0.061,0.947h-0.899
		c0.024-0.396,0.048-0.983,0.048-1.499V69.537z M380.477,75.725c0,0.133,0.013,0.265,0.049,0.384
		c0.191,0.732,0.814,1.235,1.582,1.235c1.116,0,1.764-0.899,1.764-2.23c0-1.163-0.6-2.159-1.738-2.159
		c-0.709,0-1.38,0.504-1.596,1.296c-0.036,0.132-0.061,0.275-0.061,0.443V75.725z"/>
	<path d="M386.85,75.341c0.023,1.428,0.923,2.016,1.99,2.016c0.756,0,1.223-0.132,1.607-0.3l0.191,0.755
		c-0.371,0.168-1.02,0.372-1.943,0.372c-1.787,0-2.854-1.188-2.854-2.938s1.031-3.118,2.723-3.118c1.906,0,2.398,1.655,2.398,2.723
		c0,0.216-0.012,0.372-0.036,0.491H386.85z M389.943,74.586c0.012-0.66-0.275-1.703-1.463-1.703c-1.08,0-1.535,0.972-1.619,1.703
		H389.943z"/>
	<path d="M392.273,74.058c0-0.684-0.012-1.271-0.048-1.811h0.923l0.049,1.151h0.035c0.264-0.779,0.912-1.271,1.619-1.271
		c0.108,0,0.192,0.012,0.289,0.024v0.995c-0.109-0.024-0.217-0.024-0.36-0.024c-0.743,0-1.271,0.552-1.415,1.344
		c-0.024,0.144-0.036,0.324-0.036,0.491v3.095h-1.056V74.058z"/>
</g>
<g enable-background="new    ">
	<path d="M253.682,88.981l1.607,2.207h-0.863l-1.584-2.207l1.584-2.207h0.852L253.682,88.981z M255.648,88.981l1.596,2.207h-0.852
		l-1.583-2.207l1.583-2.207h0.852L255.648,88.981z"/>
	<path d="M262.285,89.46l-0.84,2.543h-1.079l2.759-8.084h1.247l2.759,8.084h-1.115l-0.863-2.543H262.285z M264.947,88.645
		l-0.803-2.326c-0.18-0.528-0.301-1.008-0.42-1.476H263.7c-0.12,0.468-0.239,0.972-0.407,1.463l-0.792,2.339H264.947z"/>
	<path d="M271.237,86.199l1.14,3.25c0.191,0.54,0.348,1.02,0.468,1.499h0.036c0.131-0.479,0.299-0.959,0.491-1.499l1.128-3.25h1.104
		l-2.279,5.805h-1.008l-2.207-5.805H271.237z"/>
	<path d="M277.069,89.292c0.024,1.428,0.923,2.016,1.991,2.016c0.755,0,1.223-0.132,1.606-0.3l0.192,0.755
		c-0.372,0.168-1.02,0.372-1.943,0.372c-1.787,0-2.854-1.188-2.854-2.938s1.032-3.118,2.723-3.118c1.907,0,2.399,1.655,2.399,2.723
		c0,0.216-0.013,0.372-0.037,0.491H277.069z M280.164,88.538c0.012-0.66-0.276-1.703-1.464-1.703c-1.079,0-1.535,0.972-1.619,1.703
		H280.164z"/>
	<path d="M282.494,88.009c0-0.684-0.012-1.271-0.049-1.811h0.924l0.048,1.151h0.036c0.264-0.779,0.912-1.271,1.619-1.271
		c0.107,0,0.191,0.012,0.287,0.024v0.995c-0.107-0.024-0.215-0.024-0.359-0.024c-0.743,0-1.271,0.552-1.415,1.344
		c-0.024,0.144-0.036,0.324-0.036,0.491v3.095h-1.055V88.009z"/>
	<path d="M287.102,86.199l1.259,3.43c0.144,0.384,0.288,0.84,0.384,1.188h0.023c0.108-0.348,0.229-0.791,0.373-1.211l1.15-3.406
		h1.115l-1.582,4.138c-0.756,1.991-1.271,2.998-1.992,3.634c-0.527,0.444-1.031,0.624-1.295,0.672l-0.264-0.876
		c0.264-0.084,0.611-0.252,0.924-0.516c0.287-0.228,0.635-0.636,0.887-1.175c0.049-0.108,0.084-0.192,0.084-0.252
		c0-0.061-0.023-0.145-0.084-0.276l-2.135-5.349H287.102z"/>
	<path d="M294.77,90.936c0.324,0.191,0.875,0.408,1.402,0.408c0.756,0,1.115-0.372,1.115-0.864c0-0.504-0.299-0.768-1.066-1.055
		c-1.056-0.384-1.547-0.948-1.547-1.644c0-0.936,0.768-1.703,2.002-1.703c0.588,0,1.104,0.156,1.416,0.36l-0.252,0.768
		c-0.229-0.145-0.648-0.349-1.188-0.349c-0.624,0-0.959,0.36-0.959,0.792c0,0.479,0.335,0.695,1.091,0.995
		c0.995,0.372,1.522,0.876,1.522,1.739c0,1.031-0.803,1.751-2.158,1.751c-0.636,0-1.223-0.168-1.631-0.407L294.77,90.936z"/>
	<path d="M299.665,87.77c0-0.612-0.024-1.092-0.048-1.571h0.924l0.047,0.947h0.037c0.323-0.552,0.863-1.067,1.834-1.067
		c0.78,0,1.38,0.479,1.632,1.163h0.024c0.18-0.336,0.419-0.575,0.659-0.755c0.348-0.265,0.72-0.408,1.271-0.408
		c0.78,0,1.92,0.504,1.92,2.519v3.406h-1.031v-3.274c0-1.127-0.42-1.787-1.26-1.787c-0.611,0-1.067,0.444-1.26,0.948
		c-0.047,0.155-0.084,0.335-0.084,0.527v3.586h-1.031v-3.479c0-0.923-0.408-1.583-1.211-1.583c-0.648,0-1.14,0.528-1.308,1.056
		c-0.06,0.144-0.084,0.336-0.084,0.516v3.49h-1.031V87.77z"/>
	<path d="M313.751,90.612c0,0.504,0.024,0.996,0.084,1.392h-0.947l-0.084-0.731h-0.036c-0.324,0.456-0.947,0.863-1.775,0.863
		c-1.175,0-1.774-0.827-1.774-1.667c0-1.403,1.247-2.171,3.489-2.159V88.19c0-0.468-0.131-1.344-1.318-1.332
		c-0.552,0-1.115,0.156-1.523,0.432l-0.24-0.707c0.48-0.3,1.188-0.504,1.92-0.504c1.774,0,2.206,1.211,2.206,2.362V90.612z
		 M312.732,89.042c-1.152-0.024-2.459,0.18-2.459,1.307c0,0.696,0.455,1.008,0.982,1.008c0.768,0,1.26-0.479,1.428-0.972
		c0.036-0.12,0.049-0.24,0.049-0.336V89.042z"/>
	<path d="M315.457,83.488h1.056v8.516h-1.056V83.488z"/>
	<path d="M318.289,83.488h1.056v8.516h-1.056V83.488z"/>
	<path d="M323.665,87.77c0-0.612-0.013-1.092-0.048-1.571h0.936l0.061,0.959h0.023c0.287-0.539,0.959-1.079,1.919-1.079
		c0.804,0,2.051,0.479,2.051,2.471v3.454h-1.056v-3.346c0-0.936-0.348-1.716-1.344-1.716c-0.684,0-1.223,0.492-1.414,1.08
		c-0.049,0.132-0.072,0.312-0.072,0.491v3.49h-1.056V87.77z"/>
	<path d="M330.912,89.292c0.024,1.428,0.924,2.016,1.991,2.016c0.755,0,1.224-0.132,1.606-0.3l0.192,0.755
		c-0.372,0.168-1.019,0.372-1.942,0.372c-1.787,0-2.855-1.188-2.855-2.938s1.032-3.118,2.723-3.118c1.908,0,2.399,1.655,2.399,2.723
		c0,0.216-0.013,0.372-0.036,0.491H330.912z M334.007,88.538c0.012-0.66-0.276-1.703-1.464-1.703c-1.078,0-1.535,0.972-1.619,1.703
		H334.007z"/>
	<path d="M341.303,91.152c0,1.344-0.276,2.146-0.828,2.662c-0.576,0.517-1.391,0.696-2.123,0.696c-0.695,0-1.463-0.168-1.931-0.479
		l0.264-0.816c0.384,0.252,0.983,0.468,1.703,0.468c1.079,0,1.871-0.563,1.871-2.038v-0.636h-0.024
		c-0.312,0.539-0.947,0.971-1.847,0.971c-1.438,0-2.471-1.223-2.471-2.83c0-1.967,1.284-3.07,2.627-3.07
		c1.007,0,1.547,0.516,1.812,0.995h0.023l0.035-0.875h0.936c-0.035,0.407-0.047,0.888-0.047,1.583V91.152z M340.246,88.49
		c0-0.181-0.012-0.336-0.059-0.468c-0.192-0.624-0.696-1.128-1.477-1.128c-1.007,0-1.727,0.852-1.727,2.195
		c0,1.139,0.588,2.087,1.715,2.087c0.66,0,1.248-0.408,1.463-1.08c0.061-0.18,0.084-0.384,0.084-0.563V88.49z"/>
	<path d="M347.122,90.612c0,0.504,0.024,0.996,0.084,1.392h-0.947l-0.084-0.731h-0.036c-0.324,0.456-0.947,0.863-1.775,0.863
		c-1.175,0-1.774-0.827-1.774-1.667c0-1.403,1.247-2.171,3.489-2.159V88.19c0-0.468-0.131-1.344-1.318-1.332
		c-0.552,0-1.115,0.156-1.523,0.432l-0.24-0.707c0.48-0.3,1.188-0.504,1.92-0.504c1.774,0,2.206,1.211,2.206,2.362V90.612z
		 M346.104,89.042c-1.152-0.024-2.459,0.18-2.459,1.307c0,0.696,0.455,1.008,0.982,1.008c0.768,0,1.26-0.479,1.428-0.972
		c0.036-0.12,0.049-0.24,0.049-0.336V89.042z"/>
	<path d="M350.052,84.807v1.392h1.511v0.804h-1.511v3.13c0,0.72,0.204,1.128,0.792,1.128c0.287,0,0.455-0.024,0.611-0.072
		l0.048,0.804c-0.204,0.071-0.528,0.144-0.936,0.144c-0.491,0-0.888-0.168-1.14-0.443c-0.287-0.324-0.408-0.84-0.408-1.523v-3.166
		h-0.898v-0.804h0.898V85.12L350.052,84.807z"/>
	<path d="M353.928,84.568c0,0.359-0.252,0.647-0.672,0.647c-0.383,0-0.635-0.288-0.635-0.647c0-0.36,0.264-0.66,0.659-0.66
		C353.664,83.908,353.928,84.196,353.928,84.568z M352.752,92.003v-5.805h1.057v5.805H352.752z"/>
	<path d="M355.969,86.199l1.139,3.25c0.192,0.54,0.348,1.02,0.469,1.499h0.035c0.132-0.479,0.3-0.959,0.492-1.499l1.127-3.25h1.104
		l-2.279,5.805h-1.007l-2.207-5.805H355.969z"/>
	<path d="M361.801,89.292c0.023,1.428,0.923,2.016,1.99,2.016c0.756,0,1.223-0.132,1.607-0.3l0.191,0.755
		c-0.371,0.168-1.02,0.372-1.943,0.372c-1.787,0-2.854-1.188-2.854-2.938s1.031-3.118,2.723-3.118c1.906,0,2.398,1.655,2.398,2.723
		c0,0.216-0.012,0.372-0.036,0.491H361.801z M364.895,88.538c0.012-0.66-0.275-1.703-1.463-1.703c-1.08,0-1.535,0.972-1.619,1.703
		H364.895z"/>
	<path d="M369.768,87.77c0-0.612-0.012-1.092-0.047-1.571h0.936l0.059,0.959h0.025c0.287-0.539,0.959-1.079,1.918-1.079
		c0.804,0,2.051,0.479,2.051,2.471v3.454h-1.055v-3.346c0-0.936-0.348-1.716-1.344-1.716c-0.684,0-1.223,0.492-1.415,1.08
		c-0.048,0.132-0.071,0.312-0.071,0.491v3.49h-1.057V87.77z"/>
	<path d="M381.285,90.409c0,0.611,0.012,1.139,0.048,1.595h-0.936l-0.06-0.947h-0.024c-0.264,0.468-0.888,1.079-1.919,1.079
		c-0.911,0-2.003-0.516-2.003-2.543v-3.394h1.056v3.202c0,1.104,0.348,1.859,1.295,1.859c0.708,0,1.199-0.492,1.392-0.972
		c0.06-0.145,0.096-0.336,0.096-0.54v-3.55h1.056V90.409z"/>
	<path d="M383.04,87.77c0-0.612-0.024-1.092-0.048-1.571h0.924l0.047,0.947H384c0.323-0.552,0.863-1.067,1.834-1.067
		c0.78,0,1.38,0.479,1.632,1.163h0.024c0.18-0.336,0.419-0.575,0.659-0.755c0.348-0.265,0.72-0.408,1.271-0.408
		c0.78,0,1.92,0.504,1.92,2.519v3.406h-1.031v-3.274c0-1.127-0.42-1.787-1.26-1.787c-0.611,0-1.067,0.444-1.26,0.948
		c-0.047,0.155-0.084,0.335-0.084,0.527v3.586h-1.031v-3.479c0-0.923-0.408-1.583-1.211-1.583c-0.648,0-1.14,0.528-1.308,1.056
		c-0.06,0.144-0.084,0.336-0.084,0.516v3.49h-1.031V87.77z"/>
	<path d="M393.048,83.488h1.044v3.646h0.023c0.372-0.647,1.043-1.056,1.979-1.056c1.451,0,2.459,1.199,2.459,2.95
		c0,2.075-1.319,3.106-2.614,3.106c-0.84,0-1.511-0.323-1.955-1.079h-0.024l-0.06,0.947H393c0.023-0.396,0.048-0.983,0.048-1.499
		V83.488z M394.092,89.676c0,0.133,0.012,0.265,0.047,0.384c0.192,0.732,0.816,1.235,1.584,1.235c1.115,0,1.763-0.899,1.763-2.23
		c0-1.163-0.6-2.159-1.739-2.159c-0.707,0-1.379,0.504-1.595,1.296c-0.036,0.132-0.06,0.275-0.06,0.443V89.676z"/>
	<path d="M400.464,89.292c0.024,1.428,0.923,2.016,1.991,2.016c0.755,0,1.223-0.132,1.606-0.3l0.192,0.755
		c-0.372,0.168-1.02,0.372-1.943,0.372c-1.787,0-2.854-1.188-2.854-2.938s1.032-3.118,2.723-3.118c1.907,0,2.399,1.655,2.399,2.723
		c0,0.216-0.013,0.372-0.037,0.491H400.464z M403.559,88.538c0.012-0.66-0.276-1.703-1.464-1.703c-1.079,0-1.535,0.972-1.619,1.703
		H403.559z"/>
	<path d="M405.888,88.009c0-0.684-0.013-1.271-0.048-1.811h0.924l0.047,1.151h0.037c0.264-0.779,0.911-1.271,1.619-1.271
		c0.107,0,0.191,0.012,0.287,0.024v0.995c-0.107-0.024-0.216-0.024-0.359-0.024c-0.744,0-1.271,0.552-1.416,1.344
		c-0.023,0.144-0.035,0.324-0.035,0.491v3.095h-1.056V88.009z"/>
</g>
</svg>
