<?xml version="1.0" encoding="utf-8"?>
<!-- Generator: Adobe Illustrator 14.0.0, SVG Export Plug-In . SVG Version: 6.00 Build 43363)  -->
<!DOCTYPE svg PUBLIC "-//W3C//DTD SVG 1.0//EN" "http://www.w3.org/TR/2001/REC-SVG-20010904/DTD/svg10.dtd">
<svg version="1.0" id="Layer_1" xmlns="http://www.w3.org/2000/svg" xmlns:xlink="http://www.w3.org/1999/xlink" x="0px" y="0px"
	 width="675.221px" height="184.931px" viewBox="0 0 675.221 184.931" enable-background="new 0 0 675.221 184.931"
	 xml:space="preserve">
<path fill-rule="evenodd" clip-rule="evenodd" fill="#D90000" d="M258.69,167.021l-1.92-0.54c33.27-117.9-81.65-139.81-111.8-90.54
	l-2.41,4.54l1.79,0.81l-5.62,5.14l0.16-7.62l1.85,0.84l2.55-4.82C174.88,22.91,292.35,47.771,258.69,167.021z M262.77,164.751
	l5.21-5.551l0.79,1.801l8.12-4.101c87.39-50.02,139.6-258.45,254.48-25.649l-1.791,0.889C415.7-98.64,368.46,107.26,278.02,158.601
	l-8.45,4.239l0.81,1.851L262.77,164.751z M222.85,159.83l-1.85-0.77c2.61-6.33,3.86-10.95,4.2-14.2c0.34-3.3-0.3-4.89-1.06-5.54
	c-1.45-1.25-4.94-0.1-8.44,3.3l-0.35,0.351l1.45,1.369l-6.98,3.041l2.61-7.16l1.48,1.39l1.07-1.05c3.49-3.12,7.8-5.06,10.47-2.76
	c1.54,1.33,2.09,3.81,1.74,7.27C226.82,148.58,225.49,153.41,222.85,159.83z M234.78,158.59l-7.56-0.959l5.91-4.811l0.54,1.9
	l3.07-1.03c16.19-6.39,9.95-19.181-1.91-25.96c-13.31-7.62-33.98-8.03-43.64,14.409l-1.83-0.789
	c10.29-23.91,32.52-23.341,46.47-15.36c13.64,7.801,19.32,22.52,1.75,29.52l-3.36,1.141L234.78,158.59z M187.56,135.73l-5.49-5.28
	l1.86-0.78l-1-2.609c-5.31-15.56-2.82-33.86-5.38-43.57c-1.31-4.98-3.83-7.61-9.53-6.87c-6.06,0.78-15.66,5.36-30.86,15.58
	l-1.11-1.65c15.17-10.22,25.13-15.06,31.72-15.91c6.95-0.9,10.21,2.64,11.71,8.34c2.71,10.27,0.11,28.07,5.32,43.359l0.97,2.55
	l1.82-0.77L187.56,135.73z"/>
<path fill-rule="evenodd" clip-rule="evenodd" fill="none" stroke="#000000" stroke-width="3" stroke-linecap="round" stroke-linejoin="round" d="
	M3.23,43.21c84.57-2.59,119.24,34.23,147.38,62.379c28.14,28.141,49.74,47.62,78.32,56.62c28.58,9.011,64.12,7.55,90.32-3.169
	c26.2-10.73,43.05-30.721,69.47-42.44c26.42-11.71,62.42-15.13,92.65-6.681c30.229,8.45,54.699,28.78,79.939,35.461
	c25.24,6.68,51.25-0.291,69.39-9.19s28.421-19.74,34.94-32.57c6.529-12.83,9.29-27.66,7.59-41.99c-1.7-14.32-7.88-28.14-17.62-38.78
	c-9.73-10.63-23.021-18.08-37.239-20.49c-14.211-2.4-29.341,0.24-41.681,7.69c-12.34,7.44-21.88,19.69-25.53,33.63
	c-3.649,13.94-1.41,29.55,6.66,41.47c8.06,11.91,21.94,20.12,36.35,20.32c14.41,0.199,29.36-7.601,35.451-20.67
	c6.09-13.07,3.329-31.4-8.631-38.75c-11.96-7.34-33.119-3.69-31.64,13.77"/>
<g>
	
		<path fill-rule="evenodd" clip-rule="evenodd" fill="#FFFFFF" stroke="#000000" stroke-linecap="round" stroke-linejoin="round" d="
		M591.871,59.82c0-1.4-1.131-2.53-2.521-2.53s-2.521,1.13-2.521,2.53c0,1.39,1.131,2.52,2.521,2.52S591.871,61.21,591.871,59.82z"/>
	
		<path fill-rule="evenodd" clip-rule="evenodd" fill="#FFFFFF" stroke="#000000" stroke-linecap="round" stroke-linejoin="round" d="
		M5.75,43.21c0-1.39-1.13-2.52-2.52-2.52s-2.52,1.13-2.52,2.52c0,1.4,1.13,2.52,2.52,2.52S5.75,44.61,5.75,43.21z"/>
	
		<path fill-rule="evenodd" clip-rule="evenodd" fill="#FFFFFF" stroke="#000000" stroke-linecap="round" stroke-linejoin="round" d="
		M139.22,91.87c0-1.4-1.13-2.53-2.53-2.53c-1.39,0-2.52,1.13-2.52,2.53c0,1.39,1.13,2.521,2.52,2.521
		C138.09,94.391,139.22,93.26,139.22,91.87z"/>
	
		<path fill-rule="evenodd" clip-rule="evenodd" fill="#FFFFFF" stroke="#000000" stroke-linecap="round" stroke-linejoin="round" d="
		M192.86,141.631c0-1.391-1.13-2.521-2.52-2.521c-1.39,0-2.52,1.13-2.52,2.521c0,1.399,1.13,2.529,2.52,2.529
		C191.73,144.16,192.86,143.03,192.86,141.631z"/>
	
		<path fill-rule="evenodd" clip-rule="evenodd" fill="#FFFFFF" stroke="#000000" stroke-linecap="round" stroke-linejoin="round" d="
		M208.07,151.811c0-1.4-1.13-2.52-2.52-2.52c-1.4,0-2.53,1.119-2.53,2.52c0,1.39,1.13,2.52,2.53,2.52
		C206.94,154.33,208.07,153.2,208.07,151.811z"/>
	
		<path fill-rule="evenodd" clip-rule="evenodd" fill="#FFFFFF" stroke="#000000" stroke-linecap="round" stroke-linejoin="round" d="
		M224.53,159.78c0-1.399-1.13-2.521-2.52-2.521c-1.39,0-2.52,1.121-2.52,2.521c0,1.39,1.13,2.521,2.52,2.521
		C223.4,162.301,224.53,161.17,224.53,159.78z"/>
	
		<path fill-rule="evenodd" clip-rule="evenodd" fill="#FFFFFF" stroke="#000000" stroke-linecap="round" stroke-linejoin="round" d="
		M260.16,167.66c0-1.39-1.13-2.521-2.53-2.521c-1.39,0-2.52,1.131-2.52,2.521c0,1.391,1.13,2.521,2.52,2.521
		C259.03,170.181,260.16,169.051,260.16,167.66z"/>
	
		<path fill-rule="evenodd" clip-rule="evenodd" fill="#FFFFFF" stroke="#000000" stroke-linecap="round" stroke-linejoin="round" d="
		M532.95,132.16c0-1.4-1.13-2.529-2.52-2.529c-1.4,0-2.521,1.129-2.521,2.529c0,1.391,1.12,2.521,2.521,2.521
		C531.82,134.681,532.95,133.551,532.95,132.16z"/>
</g>
<g>
	<g>
		<path fill-rule="evenodd" clip-rule="evenodd" d="M2.75,36.85l-0.22,1.08c-0.32,0.09-0.62,0.13-0.92,0.13
			c-0.53,0-0.95-0.13-1.26-0.39C0.12,37.47,0,37.21,0,36.87c0-0.17,0.06-0.56,0.19-1.18l0.94-4.52H0.09l0.21-1.02h1.05l0.4-1.91
			l1.51-0.92l-0.59,2.83h1.31l-0.22,1.02h-1.3l-0.9,4.3c-0.11,0.55-0.17,0.88-0.17,0.98c0,0.16,0.04,0.28,0.14,0.36
			c0.09,0.09,0.23,0.13,0.439,0.13C2.26,36.94,2.52,36.91,2.75,36.85z"/>
		<path fill-rule="evenodd" clip-rule="evenodd" d="M3.82,39.43v-3.89h0.59v0.54c0.12-0.19,0.28-0.34,0.49-0.46
			c0.2-0.11,0.43-0.17,0.689-0.17c0.291,0,0.52,0.06,0.71,0.18c0.18,0.12,0.31,0.29,0.39,0.5c0.3-0.45,0.7-0.68,1.2-0.68
			c0.38,0,0.68,0.11,0.89,0.32c0.2,0.21,0.31,0.54,0.31,0.99v2.67H8.43v-2.45c0-0.27-0.02-0.46-0.06-0.57
			c-0.04-0.12-0.12-0.21-0.23-0.28c-0.12-0.07-0.25-0.11-0.4-0.11c-0.27,0-0.5,0.09-0.68,0.27c-0.18,0.19-0.27,0.48-0.27,0.88v2.26
			H6.13V36.9c0-0.29-0.05-0.51-0.161-0.66c-0.11-0.15-0.29-0.22-0.53-0.22c-0.18,0-0.36,0.05-0.51,0.15
			c-0.16,0.1-0.28,0.24-0.35,0.43c-0.07,0.18-0.1,0.46-0.1,0.81v2.02H3.82z"/>
		<path fill-rule="evenodd" clip-rule="evenodd" d="M10.07,34.82v-0.76h0.66v0.76H10.07z M10.07,39.43v-3.89h0.66v3.89H10.07z"/>
		<path fill-rule="evenodd" clip-rule="evenodd" d="M11.73,39.43v-3.89h0.6v0.55c0.28-0.43,0.69-0.64,1.23-0.64
			c0.24,0,0.45,0.04,0.65,0.13c0.2,0.08,0.34,0.19,0.44,0.33c0.1,0.13,0.169,0.3,0.209,0.48c0.021,0.13,0.03,0.34,0.03,0.65v2.39
			h-0.66v-2.37c0-0.27-0.02-0.47-0.07-0.6c-0.05-0.13-0.15-0.24-0.28-0.32c-0.13-0.08-0.28-0.12-0.46-0.12
			c-0.28,0-0.52,0.09-0.72,0.27c-0.21,0.18-0.31,0.51-0.31,1.01v2.13H11.73z"/>
	</g>
</g>
<g>
	<g>
		<path fill-rule="evenodd" clip-rule="evenodd" d="M592.25,75.1l-0.22,1.08c-0.319,0.09-0.62,0.13-0.92,0.13
			c-0.53,0-0.95-0.13-1.26-0.39c-0.229-0.2-0.351-0.46-0.351-0.8c0-0.17,0.061-0.56,0.19-1.18l0.939-4.52h-1.04l0.211-1.02h1.05
			l0.399-1.91l1.511-0.92l-0.591,2.83h1.311l-0.22,1.02h-1.3l-0.9,4.3c-0.11,0.55-0.17,0.88-0.17,0.98c0,0.16,0.04,0.28,0.14,0.36
			c0.091,0.09,0.23,0.13,0.44,0.13C591.76,75.19,592.02,75.16,592.25,75.1z"/>
		<path fill-rule="evenodd" clip-rule="evenodd" d="M593.32,77.68v-3.89h0.59v0.54c0.12-0.19,0.28-0.34,0.49-0.46
			c0.2-0.11,0.43-0.17,0.689-0.17c0.29,0,0.521,0.06,0.711,0.18c0.18,0.12,0.31,0.29,0.39,0.5c0.3-0.45,0.7-0.68,1.2-0.68
			c0.38,0,0.68,0.11,0.89,0.32c0.2,0.21,0.31,0.54,0.31,0.99v2.67h-0.659v-2.45c0-0.27-0.021-0.46-0.06-0.57
			c-0.041-0.12-0.121-0.21-0.23-0.28c-0.12-0.07-0.25-0.11-0.4-0.11c-0.27,0-0.5,0.09-0.68,0.27c-0.181,0.19-0.27,0.48-0.27,0.88
			v2.26h-0.661v-2.53c0-0.29-0.05-0.51-0.159-0.66c-0.11-0.15-0.29-0.22-0.53-0.22c-0.18,0-0.36,0.05-0.51,0.15
			c-0.16,0.1-0.28,0.24-0.351,0.43c-0.069,0.18-0.1,0.46-0.1,0.81v2.02H593.32z"/>
		<path fill-rule="evenodd" clip-rule="evenodd" d="M602.1,77.2c-0.24,0.2-0.471,0.35-0.7,0.44c-0.23,0.08-0.47,0.12-0.73,0.12
			c-0.42,0-0.75-0.1-0.979-0.31s-0.351-0.47-0.351-0.8c0-0.19,0.051-0.36,0.131-0.52c0.09-0.16,0.199-0.28,0.34-0.38
			c0.14-0.09,0.3-0.17,0.48-0.22c0.129-0.03,0.319-0.06,0.58-0.09c0.539-0.07,0.93-0.14,1.18-0.23c0-0.09,0-0.15,0-0.17
			c0-0.27-0.061-0.46-0.18-0.57c-0.171-0.15-0.421-0.22-0.75-0.22c-0.311,0-0.541,0.05-0.69,0.16c-0.15,0.11-0.261,0.3-0.33,0.58
			l-0.64-0.09c0.06-0.28,0.149-0.5,0.289-0.67c0.13-0.17,0.32-0.3,0.58-0.39c0.25-0.09,0.55-0.14,0.881-0.14
			c0.33,0,0.6,0.04,0.81,0.12s0.359,0.17,0.46,0.29c0.1,0.12,0.16,0.27,0.2,0.45c0.02,0.11,0.04,0.32,0.04,0.61v0.88
			c0,0.61,0.01,1,0.04,1.16c0.03,0.16,0.079,0.32,0.159,0.47h-0.68C602.169,77.541,602.121,77.38,602.1,77.2z M602.05,75.73
			c-0.24,0.09-0.601,0.18-1.08,0.24c-0.271,0.04-0.46,0.09-0.57,0.14c-0.109,0.04-0.2,0.12-0.26,0.21
			c-0.061,0.09-0.09,0.2-0.09,0.31c0,0.18,0.06,0.33,0.199,0.44c0.13,0.12,0.32,0.18,0.58,0.18c0.25,0,0.48-0.06,0.681-0.17
			c0.2-0.11,0.34-0.26,0.43-0.45c0.07-0.15,0.11-0.37,0.11-0.66V75.73z"/>
		<path fill-rule="evenodd" clip-rule="evenodd" d="M603.3,77.68l1.42-2.02l-1.32-1.87h0.83l0.6,0.91c0.11,0.17,0.2,0.32,0.271,0.44
			c0.1-0.17,0.2-0.31,0.29-0.43l0.66-0.92h0.789l-1.35,1.83l1.45,2.06h-0.811l-0.8-1.21l-0.209-0.33l-1.021,1.54H603.3z"/>
	</g>
</g>
<g>
	<g>
		<path fill-rule="evenodd" clip-rule="evenodd" d="M531.56,148.931H529.5v-7.761c-0.75,0.7-1.64,1.22-2.66,1.561v-1.87
			c0.54-0.17,1.121-0.51,1.75-1c0.631-0.49,1.061-1.06,1.301-1.71h1.67V148.931z"/>
	</g>
</g>
<g>
	<g>
		<path fill-rule="evenodd" clip-rule="evenodd" d="M260.99,183.01v1.921h-7.21c0.08-0.73,0.31-1.41,0.7-2.061
			c0.39-0.649,1.16-1.5,2.32-2.569c0.92-0.87,1.49-1.45,1.7-1.76c0.29-0.431,0.43-0.851,0.43-1.261c0-0.46-0.12-0.81-0.37-1.06
			s-0.59-0.37-1.02-0.37s-0.77,0.13-1.03,0.39c-0.25,0.261-0.4,0.69-0.44,1.29l-2.05-0.21c0.12-1.13,0.51-1.939,1.15-2.439
			c0.65-0.491,1.45-0.73,2.42-0.73c1.06,0,1.89,0.28,2.5,0.851c0.6,0.569,0.9,1.279,0.9,2.13c0,0.489-0.08,0.949-0.26,1.379
			c-0.17,0.44-0.44,0.9-0.82,1.38c-0.25,0.311-0.7,0.771-1.35,1.37c-0.65,0.591-1.06,0.991-1.23,1.181
			c-0.18,0.199-0.32,0.39-0.42,0.569H260.99z"/>
	</g>
</g>
<g>
	<g>
		<path fill-rule="evenodd" clip-rule="evenodd" d="M128.72,105.58l1.99-0.24c0.07,0.5,0.24,0.891,0.51,1.161
			c0.28,0.27,0.62,0.399,1.02,0.399c0.42,0,0.78-0.16,1.07-0.48c0.29-0.319,0.43-0.76,0.43-1.3c0-0.52-0.13-0.93-0.41-1.229
			c-0.28-0.311-0.62-0.46-1.02-0.46c-0.26,0-0.58,0.05-0.95,0.149l0.23-1.67c0.56,0.01,0.98-0.109,1.28-0.359
			c0.29-0.26,0.43-0.601,0.43-1.03c0-0.36-0.1-0.65-0.32-0.86c-0.21-0.22-0.5-0.32-0.85-0.32c-0.36,0-0.66,0.12-0.91,0.36
			c-0.24,0.25-0.4,0.601-0.45,1.07l-1.9-0.32c0.14-0.649,0.33-1.17,0.6-1.56c0.27-0.381,0.64-0.69,1.11-0.91
			c0.48-0.221,1.01-0.33,1.6-0.33c1.01,0,1.83,0.32,2.44,0.96c0.5,0.53,0.75,1.12,0.75,1.79c0,0.939-0.51,1.689-1.55,2.25
			c0.62,0.141,1.11,0.43,1.48,0.891c0.37,0.46,0.55,1.01,0.55,1.659c0,0.95-0.34,1.75-1.03,2.41c-0.69,0.67-1.54,1-2.57,1
			c-0.97,0-1.78-0.28-2.42-0.84C129.19,107.21,128.82,106.48,128.72,105.58z"/>
	</g>
</g>
<g>
	<g>
		<path fill-rule="evenodd" clip-rule="evenodd" d="M187.58,160.181v-2.16h-4.4v-1.811l4.66-6.81h1.73v6.81h1.33v1.811h-1.33v2.16
			H187.58z M187.58,156.21v-3.669l-2.47,3.669H187.58z"/>
	</g>
</g>
<g>
	<g>
		<path fill-rule="evenodd" clip-rule="evenodd" d="M217.32,175.41l2.05-0.21c0.06,0.47,0.24,0.83,0.52,1.101
			c0.29,0.279,0.62,0.409,1,0.409c0.43,0,0.79-0.169,1.09-0.52c0.3-0.351,0.45-0.88,0.45-1.58c0-0.66-0.15-1.15-0.45-1.479
			c-0.29-0.33-0.68-0.5-1.15-0.5c-0.59,0-1.12,0.259-1.59,0.789l-1.67-0.25l1.06-5.58h5.44v1.92h-3.88l-0.33,1.83
			c0.46-0.229,0.93-0.35,1.41-0.35c0.91,0,1.69,0.33,2.32,1c0.64,0.66,0.95,1.52,0.95,2.58c0,0.89-0.25,1.681-0.77,2.37
			c-0.69,0.949-1.66,1.42-2.9,1.42c-0.99,0-1.8-0.271-2.43-0.8C217.82,177.03,217.44,176.311,217.32,175.41z"/>
	</g>
</g>
<g>
	<g>
		<path fill-rule="evenodd" clip-rule="evenodd" d="M207.77,161.82l-2,0.221c-0.05-0.41-0.17-0.711-0.38-0.91
			c-0.2-0.2-0.47-0.291-0.8-0.291c-0.43,0-0.8,0.19-1.1,0.58c-0.3,0.391-0.49,1.211-0.57,2.44c0.52-0.601,1.15-0.91,1.92-0.91
			c0.86,0,1.59,0.33,2.2,0.98c0.62,0.659,0.92,1.5,0.92,2.54c0,1.1-0.32,1.979-0.96,2.64c-0.65,0.67-1.48,1-2.49,1
			c-1.08,0-1.97-0.42-2.67-1.26c-0.7-0.85-1.05-2.23-1.05-4.15c0-1.96,0.37-3.38,1.09-4.25c0.73-0.87,1.68-1.3,2.84-1.3
			c0.81,0,1.49,0.22,2.02,0.68C207.28,160.291,207.62,160.95,207.77,161.82z M203.1,166.311c0,0.67,0.15,1.18,0.46,1.55
			c0.31,0.36,0.66,0.54,1.06,0.54c0.38,0,0.69-0.149,0.95-0.44c0.25-0.3,0.38-0.79,0.38-1.47c0-0.699-0.14-1.21-0.41-1.53
			c-0.27-0.329-0.62-0.489-1.03-0.489c-0.39,0-0.73,0.149-1,0.46C203.24,165.24,203.1,165.7,203.1,166.311z"/>
	</g>
</g>
<path fill-rule="evenodd" clip-rule="evenodd" fill="#D1FF47" stroke="#000000" d="M197.77,153.51
	c-0.29,0.011-0.58-0.069-0.84-0.239c-0.7-0.45-0.89-1.381-0.44-2.07l4.56-7.03c0.45-0.699,1.38-0.899,2.08-0.449
	c0.69,0.46,0.89,1.39,0.44,2.08L199,152.83C198.72,153.271,198.25,153.51,197.77,153.51z"/>
</svg>
