<?xml version="1.0" encoding="utf-8"?>
<!-- Generator: Adobe Illustrator 14.0.0, SVG Export Plug-In . SVG Version: 6.00 Build 43363)  -->
<!DOCTYPE svg PUBLIC "-//W3C//DTD SVG 1.0//EN" "http://www.w3.org/TR/2001/REC-SVG-20010904/DTD/svg10.dtd">
<svg version="1.0" xmlns="http://www.w3.org/2000/svg" xmlns:xlink="http://www.w3.org/1999/xlink" x="0px" y="0px"
	 width="521.28px" height="417.41px" viewBox="0 0 521.28 417.41" enable-background="new 0 0 521.28 417.41" xml:space="preserve">
<g id="Viewport_x5F_Backbuffer">
</g>
<g id="Viewport_x5F_BG">
	<g>
		
			<line fill-rule="evenodd" clip-rule="evenodd" fill="none" stroke="#D4D4D4" stroke-linecap="round" stroke-linejoin="round" x1="65.88" y1="164.03" x2="520.28" y2="283.79"/>
		
			<line fill-rule="evenodd" clip-rule="evenodd" fill="none" stroke="#D4D4D4" stroke-linecap="round" stroke-linejoin="round" x1="397.56" y1="416.41" x2="520.28" y2="187.69"/>
		
			<line fill-rule="evenodd" clip-rule="evenodd" fill="none" stroke="#D4D4D4" stroke-linecap="round" stroke-linejoin="round" x1="163.75" y1="95.23" x2="520.28" y2="173.12"/>
		
			<line fill-rule="evenodd" clip-rule="evenodd" fill="none" stroke="#D4D4D4" stroke-linecap="round" stroke-linejoin="round" x1="152.94" y1="102.83" x2="520.28" y2="184.84"/>
		
			<line fill-rule="evenodd" clip-rule="evenodd" fill="none" stroke="#D4D4D4" stroke-linecap="round" stroke-linejoin="round" x1="141.76" y1="110.69" x2="520.28" y2="197.08"/>
		
			<line fill-rule="evenodd" clip-rule="evenodd" fill="none" stroke="#D4D4D4" stroke-linecap="round" stroke-linejoin="round" x1="130.2" y1="118.82" x2="520.28" y2="209.88"/>
		
			<line fill-rule="evenodd" clip-rule="evenodd" fill="none" stroke="#D4D4D4" stroke-linecap="round" stroke-linejoin="round" x1="435.93" y1="416.41" x2="520.28" y2="243.34"/>
		
			<line fill-rule="evenodd" clip-rule="evenodd" fill="none" stroke="#D4D4D4" stroke-linecap="round" stroke-linejoin="round" x1="105.84" y1="135.94" x2="520.28" y2="237.32"/>
		
			<line fill-rule="evenodd" clip-rule="evenodd" fill="none" stroke="#D4D4D4" stroke-linecap="round" stroke-linejoin="round" x1="93" y1="144.96" x2="520.28" y2="252.051"/>
		
			<line fill-rule="evenodd" clip-rule="evenodd" fill="none" stroke="#D4D4D4" stroke-linecap="round" stroke-linejoin="round" x1="79.69" y1="154.32" x2="520.28" y2="267.521"/>
		
			<line fill-rule="evenodd" clip-rule="evenodd" fill="none" stroke="#D4D4D4" stroke-linecap="round" stroke-linejoin="round" x1="205.69" y1="416.41" x2="421.44" y2="140.75"/>
		
			<line fill-rule="evenodd" clip-rule="evenodd" fill="none" stroke="#D4D4D4" stroke-linecap="round" stroke-linejoin="round" x1="1" y1="279.56" x2="413.081" y2="416.41"/>
		
			<line fill-rule="evenodd" clip-rule="evenodd" fill="none" stroke="#D4D4D4" stroke-linecap="round" stroke-linejoin="round" x1="1" y1="301.16" x2="336.78" y2="416.41"/>
		
			<line fill-rule="evenodd" clip-rule="evenodd" fill="none" stroke="#D4D4D4" stroke-linecap="round" stroke-linejoin="round" x1="359.19" y1="416.41" x2="509.61" y2="159.61"/>
		
			<line fill-rule="evenodd" clip-rule="evenodd" fill="none" stroke="#D4D4D4" stroke-linecap="round" stroke-linejoin="round" x1="320.81" y1="416.41" x2="486.959" y2="154.77"/>
		
			<line fill-rule="evenodd" clip-rule="evenodd" fill="none" stroke="#D4D4D4" stroke-linecap="round" stroke-linejoin="round" x1="1" y1="324.25" x2="260.48" y2="416.41"/>
		
			<line fill-rule="evenodd" clip-rule="evenodd" fill="none" stroke="#D4D4D4" stroke-linecap="round" stroke-linejoin="round" x1="244.07" y1="416.41" x2="442.879" y2="145.34"/>
		
			<line fill-rule="evenodd" clip-rule="evenodd" fill="none" stroke="#D4D4D4" stroke-linecap="round" stroke-linejoin="round" x1="1" y1="222.46" x2="493.93" y2="371.62"/>
		
			<line fill-rule="evenodd" clip-rule="evenodd" fill="none" stroke="#D4D4D4" stroke-linecap="round" stroke-linejoin="round" x1="1" y1="301.65" x2="244.58" y2="102.92"/>
		
			<line fill-rule="evenodd" clip-rule="evenodd" fill="none" stroke="#D4D4D4" stroke-linecap="round" stroke-linejoin="round" x1="1" y1="275.98" x2="226.55" y2="99.07"/>
		
			<line fill-rule="evenodd" clip-rule="evenodd" fill="none" stroke="#D4D4D4" stroke-linecap="round" stroke-linejoin="round" x1="1" y1="252.221" x2="208.82" y2="95.27"/>
		
			<line fill-rule="evenodd" clip-rule="evenodd" fill="none" stroke="#D4D4D4" stroke-linecap="round" stroke-linejoin="round" x1="1" y1="259.33" x2="476.169" y2="412.171"/>
		
			<line fill-rule="evenodd" clip-rule="evenodd" fill="none" stroke="#D4D4D4" stroke-linecap="round" stroke-linejoin="round" x1="1" y1="230.16" x2="191.38" y2="91.54"/>
		
			<line fill-rule="evenodd" clip-rule="evenodd" fill="none" stroke="#D4D4D4" stroke-linecap="round" stroke-linejoin="round" x1="60.61" y1="370.94" x2="319.79" y2="119.01"/>
		
			<line fill-rule="evenodd" clip-rule="evenodd" fill="none" stroke="#D4D4D4" stroke-linecap="round" stroke-linejoin="round" x1="34.74" y1="361.421" x2="300.51" y2="114.88"/>
		
			<line fill-rule="evenodd" clip-rule="evenodd" fill="none" stroke="#D4D4D4" stroke-linecap="round" stroke-linejoin="round" x1="9.53" y1="352.15" x2="281.55" y2="110.83"/>
		
			<line fill-rule="evenodd" clip-rule="evenodd" fill="none" stroke="#D4D4D4" stroke-linecap="round" stroke-linejoin="round" x1="87.17" y1="380.721" x2="339.419" y2="123.21"/>
		
			<line fill-rule="evenodd" clip-rule="evenodd" fill="none" stroke="#D4D4D4" stroke-linecap="round" stroke-linejoin="round" x1="142.47" y1="401.07" x2="379.7" y2="131.83"/>
		
			<line fill-rule="evenodd" clip-rule="evenodd" fill="none" stroke="#D4D4D4" stroke-linecap="round" stroke-linejoin="round" x1="171.27" y1="411.66" x2="400.39" y2="136.25"/>
		
			<line fill-rule="evenodd" clip-rule="evenodd" fill="none" stroke="#D4D4D4" stroke-linecap="round" stroke-linejoin="round" x1="21.15" y1="195.47" x2="509.93" y2="335.101"/>
		
			<line fill-rule="evenodd" clip-rule="evenodd" fill="none" stroke="#D4D4D4" stroke-linecap="round" stroke-linejoin="round" x1="5.03" y1="206.8" x2="502.129" y2="352.891"/>
		
			<line fill-rule="evenodd" clip-rule="evenodd" fill="none" stroke="#D4D4D4" stroke-linecap="round" stroke-linejoin="round" x1="36.64" y1="184.58" x2="517.35" y2="318.171"/>
	</g>
	<g>
		
			<line fill-rule="evenodd" clip-rule="evenodd" fill="none" stroke="#8A8A8A" stroke-linecap="round" stroke-linejoin="round" x1="174.22" y1="87.87" x2="520.28" y2="161.89"/>
		
			<line fill-rule="evenodd" clip-rule="evenodd" fill="none" stroke="#8A8A8A" stroke-linecap="round" stroke-linejoin="round" x1="118.23" y1="127.23" x2="520.28" y2="223.28"/>
		
			<line fill-rule="evenodd" clip-rule="evenodd" fill="none" stroke="#8A8A8A" stroke-linecap="round" stroke-linejoin="round" x1="474.31" y1="416.41" x2="520.28" y2="311.48"/>
		
			<line fill-rule="evenodd" clip-rule="evenodd" fill="none" stroke="#8A8A8A" stroke-linecap="round" stroke-linejoin="round" x1="282.44" y1="416.41" x2="464.72" y2="150.01"/>
		
			<line fill-rule="evenodd" clip-rule="evenodd" fill="none" stroke="#8A8A8A" stroke-linecap="round" stroke-linejoin="round" x1="1" y1="349.01" x2="184.18" y2="416.41"/>
		
			<line fill-rule="evenodd" clip-rule="evenodd" fill="none" stroke="#8A8A8A" stroke-linecap="round" stroke-linejoin="round" x1="1" y1="329.46" x2="262.911" y2="106.84"/>
		
			<line fill-rule="evenodd" clip-rule="evenodd" fill="none" stroke="#8A8A8A" stroke-linecap="round" stroke-linejoin="round" x1="1" y1="240.33" x2="485.29" y2="391.351"/>
		
			<line fill-rule="evenodd" clip-rule="evenodd" fill="none" stroke="#8A8A8A" stroke-linecap="round" stroke-linejoin="round" x1="1" y1="209.63" x2="174.22" y2="87.87"/>
		
			<line fill-rule="evenodd" clip-rule="evenodd" fill="none" stroke="#8A8A8A" stroke-linecap="round" stroke-linejoin="round" x1="262.82" y1="231.271" x2="51.54" y2="174.11"/>
		
			<line fill-rule="evenodd" clip-rule="evenodd" fill="none" stroke="#8A8A8A" stroke-linecap="round" stroke-linejoin="round" x1="262.82" y1="231.271" x2="114.45" y2="390.75"/>
	</g>
	
		<line fill-rule="evenodd" clip-rule="evenodd" fill="none" stroke="#12AB00" stroke-width="2" stroke-linecap="round" stroke-linejoin="round" x1="359.379" y1="127.48" x2="262.82" y2="231.271"/>
	
		<line fill-rule="evenodd" clip-rule="evenodd" fill="none" stroke="#A80000" stroke-width="2" stroke-linecap="round" stroke-linejoin="round" x1="520.28" y1="300.921" x2="262.82" y2="231.271"/>
</g>
<g id="Viewport_x5F_MG">
	<g>
		
			<path fill-rule="evenodd" clip-rule="evenodd" fill="none" stroke="#7D7D7D" stroke-width="0.5" stroke-linecap="round" stroke-linejoin="round" d="
			M32.91,244.56c0.18,10.87,8.4,20.87,25.36,26.391c12.68,4.15,28.37,5.12,44.22,3.28l2.59-0.45l0.05,0.81
			c2.97,20.761,20.67,41.11,54.59,52.581l3.61,1.039l-2.71,5.631c-4.96,14.279,2.04,29.25,20.95,36.02
			c12.54,4.5,27.77,4.319,41.57,0.38c13.82-3.91,26.12-11.52,33.51-21.311c3.72-4.89,5.89-9.85,6.72-14.629l0.141-3.86l9.409-2.22
			C291.3,323.25,308.169,316,322.19,307.21l3.99-2.75l0.18,2.641c3.23,15.57,18.141,30.97,42.68,38.649
			c19.561,6.16,41.16,5.921,58.871,0.551c17.779-5.33,31.55-15.671,37.3-28.65c5.779-13.01,2.81-26.061-5.5-36.76
			c-8.37-10.72-22.021-19.181-39.16-23.7c-17.171-4.5-34.811-4.351-50.47-0.47l-6.391,2.06l1.55-6.26
			c2.82-17.04-3.36-32.29-15.27-44.47c-11.98-12.2-29.67-21.42-51.95-26.82l-4.76-1.02l5.79-1.52c6.8-2.2,12.5-5.4,16.13-9.29
			c9.59-10.44,1.449-21.45-16.511-25.44c-18.02-3.96-40.189,0.02-51.199,9.63c-8.17,7.21-7.33,15.86,1.9,21.84l1.21,0.62l0.43,0.26
			c-0.31,0-0.61,0-0.92,0.01c-27.05,0.59-54.59,6.21-79.34,16.85l-4.76,2.23l-10.22-3.62c-15.27-4.04-33.36-3.93-51.31-0.49
			c-17.93,3.48-35.82,10.31-49.98,20.47C40.36,221.91,32.71,233.65,32.91,244.56z"/>
		
			<path fill-rule="evenodd" clip-rule="evenodd" fill="none" stroke="#7D7D7D" stroke-width="0.5" stroke-linecap="round" stroke-linejoin="round" d="
			M61.73,241.82c0.16,9.54,7.38,18.32,22.27,23.18c11.14,3.641,24.92,4.49,38.85,2.87l2.27-0.39l0.05,0.71
			c2.6,18.23,18.16,36.11,47.95,46.189l3.17,0.91l-2.38,4.95c-4.36,12.54,1.8,25.689,18.4,31.64c11.02,3.95,24.4,3.791,36.52,0.33
			c12.14-3.439,22.94-10.119,29.44-18.71c3.261-4.3,5.17-8.659,5.899-12.859l0.131-3.391l8.26-1.949
			c16.14-4.371,30.971-10.73,43.28-18.461l3.5-2.41l0.16,2.32c2.83,13.671,15.93,27.2,37.489,33.95
			c17.18,5.41,36.16,5.2,51.721,0.479c15.62-4.68,27.709-13.77,32.76-25.17c5.069-11.42,2.47-22.89-4.83-32.279
			c-7.351-9.421-19.351-16.851-34.4-20.83c-15.079-3.95-30.579-3.82-44.329-0.41l-5.621,1.811l1.371-5.491
			c2.479-14.97-2.961-28.369-13.421-39.069c-10.529-10.71-26.06-18.81-45.64-23.55l-4.17-0.91l5.08-1.33
			c5.979-1.94,10.979-4.75,14.17-8.16c8.42-9.17,1.28-18.85-14.5-22.35c-15.84-3.48-35.31,0.02-44.97,8.46
			c-7.19,6.34-6.45,13.93,1.66,19.18l1.11,0.57l0.27,0.21c-0.27,0-0.54,0-0.81,0.01c-23.74,0.53-47.9,5.47-69.63,14.8l-4.18,1.96
			l-8.98-3.18c-13.41-3.55-29.3-3.45-45.07-0.43c-15.75,3.05-31.46,9.05-43.91,17.98C68.27,221.921,61.56,232.23,61.73,241.82z"/>
		
			<path fill-rule="evenodd" clip-rule="evenodd" fill="none" stroke="#7D7D7D" stroke-width="0.5" stroke-linecap="round" stroke-linejoin="round" d="
			M83.26,239.76c0.14,8.561,6.61,16.431,19.97,20.791c9.98,3.259,22.34,4.02,34.83,2.569l2.04-0.34l0.04,0.63
			c2.33,16.35,16.28,32.37,42.99,41.41l2.85,0.82l-2.14,4.439c-3.91,11.24,1.61,23.03,16.5,28.36c9.87,3.55,21.87,3.41,32.74,0.31
			c10.88-3.09,20.57-9.079,26.4-16.79c2.92-3.85,4.63-7.76,5.28-11.52l0.119-3.04l7.41-1.75c14.471-3.92,27.761-9.62,38.801-16.55
			l3.149-2.16l0.14,2.08c2.54,12.25,14.281,24.39,33.61,30.439c15.41,4.85,32.421,4.66,46.37,0.431
			c14.01-4.2,24.851-12.351,29.37-22.57c4.56-10.24,2.22-20.52-4.33-28.95c-6.58-8.44-17.34-15.1-30.84-18.67
			c-13.521-3.54-27.42-3.42-39.75-0.37l-5.03,1.62l1.221-4.92c2.229-13.42-2.65-25.43-12.03-35.03
			c-9.44-9.6-23.37-16.87-40.92-21.12l-3.74-0.81l4.56-1.19c5.36-1.74,9.851-4.26,12.7-7.32c7.55-8.22,1.15-16.89-13-20.04
			c-14.2-3.11-31.659,0.02-40.32,7.59c-6.44,5.68-5.78,12.49,1.49,17.2l1.03,0.53l0.14,0.17c-0.24,0-0.48,0-0.72,0
			c-21.26,0.48-42.91,4.91-62.37,13.27l-3.75,1.76l-8.05-2.85c-12.02-3.18-26.27-3.09-40.41-0.38
			c-14.12,2.73-28.21,8.11-39.37,16.111C89.12,221.921,83.1,231.171,83.26,239.76z"/>
		
			<path fill-rule="evenodd" clip-rule="evenodd" fill="none" stroke="#7D7D7D" stroke-width="0.5" stroke-linecap="round" stroke-linejoin="round" d="
			M99.95,238.171c0.13,7.8,6.02,14.959,18.18,18.93c9.1,2.97,20.35,3.659,31.72,2.34l1.86-0.311l0.03,0.57
			c2.13,14.89,14.83,29.479,39.15,37.71l2.59,0.75l-1.94,4.04c-3.56,10.24,1.46,20.979,15.02,25.83c9,3.229,19.92,3.1,29.82,0.271
			c9.91-2.801,18.73-8.261,24.031-15.28c2.67-3.511,4.219-7.07,4.819-10.49l0.101-2.771l6.75-1.589
			c13.18-3.57,25.279-8.771,35.339-15.07l2.861-1.971l0.119,1.891c2.32,11.159,13.011,22.21,30.62,27.72
			c14.02,4.42,29.51,4.25,42.22,0.39c12.75-3.82,22.62-11.239,26.75-20.55c4.14-9.32,2.011-18.68-3.95-26.359
			c-6-7.69-15.789-13.75-28.079-17c-12.32-3.23-24.971-3.12-36.2-0.341l-4.58,1.48l1.109-4.48c2.03-12.22-2.41-23.159-10.949-31.899
			c-8.601-8.75-21.28-15.36-37.26-19.23l-3.411-0.74l4.15-1.08c4.88-1.58,8.97-3.88,11.57-6.67c6.87-7.48,1.04-15.38-11.84-18.24
			c-12.931-2.84-28.83,0.01-36.72,6.9c-5.86,5.18-5.26,11.38,1.36,15.67l0.97,0.49l0.05,0.14c-0.22,0-0.44,0-0.66,0.01
			c-19.35,0.44-39.04,4.47-56.74,12.08l-3.42,1.6l-7.33-2.6c-10.95-2.89-23.92-2.81-36.8-0.34c-12.86,2.48-25.69,7.38-35.84,14.67
			C105.29,221.921,99.81,230.34,99.95,238.171z"/>
		
			<path fill-rule="evenodd" clip-rule="evenodd" fill="none" stroke="#7D7D7D" stroke-width="0.5" stroke-linecap="round" stroke-linejoin="round" d="
			M113.27,236.9c0.12,7.18,5.55,13.79,16.76,17.439c8.38,2.74,18.75,3.381,29.23,2.17l1.71-0.3l0.04,0.54
			c1.96,13.721,13.66,27.171,36.08,34.75l2.39,0.69l-1.8,3.72c-3.28,9.44,1.35,19.33,13.85,23.811c8.29,2.97,18.36,2.85,27.48,0.25
			c9.13-2.591,17.26-7.62,22.15-14.08c2.449-3.24,3.89-6.521,4.439-9.681l0.09-2.55l6.221-1.46c12.149-3.29,23.3-8.08,32.569-13.891
			l2.64-1.819l0.11,1.75c2.14,10.28,11.99,20.46,28.22,25.54c12.92,4.08,27.2,3.92,38.91,0.36c11.75-3.521,20.851-10.36,24.65-18.94
			c3.82-8.59,1.859-17.22-3.631-24.29c-5.529-7.09-14.56-12.68-25.89-15.67c-11.34-2.97-23.01-2.87-33.35-0.311l-4.229,1.36
			l1.029-4.13c1.86-11.26-2.229-21.34-10.1-29.4c-7.921-8.06-19.61-14.149-34.34-17.72l-3.141-0.68l3.82-1
			c4.5-1.46,8.27-3.57,10.67-6.14c6.33-6.9,0.96-14.18-10.91-16.82c-11.92-2.62-26.57,0.01-33.85,6.36
			c-5.4,4.77-4.85,10.49,1.26,14.44l0.91,0.47l-0.02,0.12c-0.2,0-0.4,0-0.6,0c-17.82,0.42-35.95,4.13-52.26,11.14l-3.15,1.47
			l-6.75-2.39c-10.09-2.67-22.05-2.6-33.92-0.32c-11.85,2.29-23.67,6.81-33.04,13.53C118.19,221.921,113.14,229.69,113.27,236.9z"/>
		
			<path fill-rule="evenodd" clip-rule="evenodd" fill="none" stroke="#7D7D7D" stroke-width="0.5" stroke-linecap="round" stroke-linejoin="round" d="
			M124.15,235.86c0.11,6.69,5.16,12.83,15.59,16.229c7.8,2.551,17.45,3.15,27.21,2.021l1.59-0.28l0.03,0.5
			c1.82,12.771,12.71,25.28,33.58,32.341l2.22,0.639l-1.67,3.471c-3.05,8.779,1.26,17.99,12.88,22.149
			c7.72,2.771,17.09,2.661,25.57,0.241c8.51-2.411,16.07-7.091,20.62-13.111c2.28-3.009,3.62-6.06,4.13-9l0.09-2.38l5.791-1.359
			c11.3-3.061,21.68-7.52,30.3-12.93l2.459-1.681l0.11,1.62c1.979,9.57,11.15,19.05,26.25,23.771c12.03,3.79,25.32,3.64,36.21,0.34
			c10.94-3.28,19.41-9.64,22.94-17.631c3.56-7.989,1.729-16.02-3.381-22.6c-5.149-6.6-13.55-11.8-24.089-14.58
			c-10.561-2.77-21.411-2.68-31.041-0.29l-3.93,1.261l0.95-3.841c1.74-10.489-2.07-19.859-9.391-27.359
			c-7.369-7.5-18.25-13.17-31.959-16.49l-2.921-0.63l3.561-0.94c4.181-1.35,7.689-3.32,9.92-5.71c5.899-6.42,0.891-13.2-10.15-15.65
			c-11.089-2.44-24.729,0.01-31.5,5.92c-5.02,4.44-4.51,9.76,1.17,13.44l0.88,0.45l-0.08,0.09c-0.19,0-0.38,0-0.57,0.01
			c-16.57,0.39-33.43,3.84-48.59,10.36l-2.93,1.37l-6.28-2.23c-9.39-2.48-20.52-2.41-31.57-0.3c-11.02,2.14-22.03,6.34-30.74,12.589
			C128.73,221.93,124.03,229.15,124.15,235.86z"/>
		
			<path fill-rule="evenodd" clip-rule="evenodd" fill="none" stroke="#7D7D7D" stroke-width="0.5" stroke-linecap="round" stroke-linejoin="round" d="
			M133.2,235c0.1,6.271,4.84,12.03,14.63,15.221c7.31,2.399,16.36,2.95,25.51,1.89l1.49-0.25l0.03,0.46
			c1.71,11.98,11.93,23.72,31.49,30.34l2.09,0.6l-1.57,3.24c-2.86,8.24,1.18,16.88,12.09,20.78c7.23,2.6,16.02,2.5,23.98,0.22
			c7.98-2.26,15.07-6.64,19.341-12.29c2.139-2.819,3.389-5.689,3.869-8.439l0.09-2.23l5.421-1.28
			c10.609-2.869,20.34-7.05,28.43-12.119l2.3-1.581l0.1,1.521c1.86,8.979,10.471,17.86,24.63,22.3
			c11.28,3.55,23.74,3.41,33.961,0.311c10.26-3.08,18.199-9.04,21.52-16.53c3.33-7.5,1.62-15.03-3.17-21.2
			c-4.83-6.189-12.71-11.069-22.6-13.68c-9.9-2.601-20.08-2.51-29.11-0.271l-3.69,1.19l0.9-3.61c1.62-9.83-1.95-18.63-8.811-25.66
			C309.2,206.89,299,201.57,286.14,198.46l-2.74-0.59l3.34-0.88c3.921-1.27,7.21-3.11,9.3-5.36c5.53-6.02,0.84-12.37-9.52-14.67
			c-10.4-2.29-23.189,0.01-29.54,5.55c-4.71,4.16-4.23,9.15,1.1,12.6l0.84,0.43l-0.13,0.08c-0.18,0-0.35,0.01-0.53,0.01
			c-15.53,0.37-31.33,3.61-45.54,9.72l-2.75,1.28l-5.89-2.09c-8.81-2.33-19.25-2.26-29.61-0.27c-10.34,2-20.66,5.94-28.83,11.8
			C137.49,221.93,133.08,228.7,133.2,235z"/>
		
			<path fill-rule="evenodd" clip-rule="evenodd" fill="none" stroke="#7D7D7D" stroke-width="0.5" stroke-linecap="round" stroke-linejoin="round" d="
			M140.85,234.271c0.09,5.92,4.57,11.359,13.8,14.37c6.91,2.26,15.46,2.789,24.09,1.78l1.41-0.241l0.03,0.44
			c1.61,11.31,11.26,22.39,29.73,28.64l1.97,0.57l-1.48,3.07c-2.7,7.771,1.11,15.93,11.41,19.609c6.83,2.45,15.13,2.351,22.64,0.211
			c7.53-2.131,14.23-6.28,18.26-11.601c2.02-2.67,3.2-5.37,3.649-7.979l0.08-2.101l5.13-1.21c10.011-2.71,19.2-6.65,26.83-11.439
			l2.181-1.5l0.089,1.439c1.761,8.479,9.881,16.87,23.25,21.05c10.65,3.36,22.421,3.23,32.07,0.3
			c9.68-2.899,17.18-8.539,20.311-15.609c3.149-7.08,1.53-14.19-3-20.011c-4.55-5.85-11.99-10.449-21.33-12.919
			c-9.351-2.45-18.96-2.37-27.48-0.25L321,242.01l0.85-3.409c1.54-9.28-1.83-17.58-8.319-24.221
			c-6.521-6.64-16.161-11.669-28.291-14.61l-2.59-0.55l3.15-0.83c3.7-1.2,6.81-2.94,8.78-5.06c5.229-5.69,0.799-11.69-8.99-13.86
			c-9.82-2.15-21.891,0.01-27.88,5.25c-4.46,3.93-4,8.63,1.03,11.89l0.81,0.42l-0.17,0.06c-0.17,0.01-0.33,0.01-0.5,0.01
			c-14.65,0.35-29.55,3.42-42.96,9.18l-2.6,1.21l-5.56-1.97c-8.31-2.2-18.17-2.14-27.95-0.27c-9.76,1.89-19.51,5.62-27.22,11.15
			C144.9,221.93,140.74,228.33,140.85,234.271z"/>
		
			<path fill-rule="evenodd" clip-rule="evenodd" fill="none" stroke="#7D7D7D" stroke-width="0.5" stroke-linecap="round" stroke-linejoin="round" d="
			M147.39,233.641c0.09,5.619,4.34,10.789,13.11,13.649c6.56,2.14,14.67,2.64,22.87,1.69l1.33-0.23l0.03,0.421
			c1.53,10.729,10.69,21.25,28.22,27.189l1.87,0.53l-1.4,2.91c-2.57,7.39,1.06,15.129,10.83,18.629c6.48,2.32,14.36,2.23,21.49,0.19
			c7.15-2.02,13.51-5.949,17.33-11.01c1.92-2.53,3.05-5.101,3.47-7.57l0.08-2l4.87-1.14c9.5-2.58,18.221-6.32,25.471-10.87
			l2.06-1.42l0.09,1.37c1.671,8.05,9.38,16.01,22.07,19.979c10.109,3.19,21.28,3.061,30.439,0.29
			c9.2-2.76,16.311-8.109,19.291-14.82c2.979-6.72,1.449-13.47-2.851-19c-4.32-5.55-11.38-9.92-20.25-12.259
			c-8.87-2.331-17.99-2.25-26.09-0.241l-3.31,1.061l0.81-3.23c1.46-8.81-1.74-16.7-7.9-23c-6.19-6.299-15.34-11.069-26.859-13.859
			l-2.46-0.53l3-0.78c3.51-1.15,6.46-2.8,8.33-4.81c4.959-5.4,0.76-11.09-8.53-13.15c-9.32-2.05-20.78,0.01-26.47,4.98
			c-4.23,3.73-3.8,8.19,0.98,11.29l0.79,0.4l-0.21,0.06c-0.16,0-0.32,0-0.47,0c-13.9,0.34-28.04,3.25-40.76,8.71l-2.46,1.15
			l-5.29-1.87c-7.89-2.09-17.25-2.03-26.53-0.25c-9.27,1.8-18.52,5.33-25.84,10.58C151.24,221.93,147.29,228,147.39,233.641z"/>
		
			<path fill-rule="evenodd" clip-rule="evenodd" fill="none" stroke="#7D7D7D" stroke-width="0.5" stroke-linecap="round" stroke-linejoin="round" d="
			M153.06,233.101c0.09,5.359,4.14,10.29,12.5,13.02c6.25,2.04,13.99,2.521,21.81,1.61l1.28-0.221l0.02,0.4
			c1.46,10.24,10.19,20.27,26.92,25.93l1.78,0.511l-1.33,2.779c-2.45,7.041,1,14.421,10.32,17.761c6.19,2.22,13.7,2.13,20.5,0.189
			c6.82-1.93,12.88-5.689,16.53-10.51c1.83-2.41,2.899-4.86,3.31-7.22l0.07-1.9l4.641-1.09c9.069-2.46,17.39-6.03,24.3-10.36
			l1.97-1.359l0.09,1.3c1.59,7.68,8.94,15.27,21.04,19.06c9.65,3.04,20.3,2.921,29.03,0.271c8.77-2.63,15.56-7.73,18.399-14.13
			c2.851-6.41,1.38-12.851-2.72-18.12c-4.12-5.29-10.859-9.461-19.31-11.69c-8.46-2.22-17.16-2.15-24.88-0.229l-3.161,1.01
			l0.771-3.08c1.391-8.41-1.66-15.92-7.529-21.93c-5.91-6.021-14.63-10.57-25.621-13.23l-2.34-0.5l2.851-0.75
			c3.35-1.09,6.16-2.67,7.95-4.58c4.729-5.15,0.72-10.58-8.141-12.55c-8.89-1.95-19.82,0.01-25.24,4.75
			c-4.04,3.56-3.62,7.82,0.93,10.77l0.77,0.4l-0.239,0.04c-0.15,0-0.3,0-0.451,0c-13.25,0.33-26.73,3.1-38.85,8.31l-2.35,1.1
			l-5.04-1.79c-7.52-1.99-16.45-1.93-25.3-0.24c-8.84,1.72-17.66,5.08-24.65,10.1C156.73,221.93,152.96,227.721,153.06,233.101z"/>
		
			<path fill-rule="evenodd" clip-rule="evenodd" fill="none" stroke="#7D7D7D" stroke-width="0.5" stroke-linecap="round" stroke-linejoin="round" d="
			M158.02,232.63c0.08,5.13,3.96,9.851,11.97,12.46c5.99,1.961,13.39,2.42,20.88,1.551l1.22-0.211l0.03,0.38
			c1.4,9.801,9.76,19.411,25.77,24.831l1.71,0.489l-1.28,2.66c-2.34,6.74,0.97,13.811,9.89,17.011c5.92,2.12,13.12,2.039,19.63,0.18
			c6.53-1.851,12.34-5.44,15.829-10.06c1.75-2.311,2.78-4.661,3.171-6.921l0.07-1.82l4.439-1.039
			c8.681-2.351,16.65-5.78,23.27-9.931l1.881-1.289l0.09,1.239c1.52,7.35,8.56,14.63,20.149,18.25c9.24,2.91,19.44,2.8,27.8,0.261
			c8.4-2.521,14.9-7.4,17.61-13.53c2.729-6.141,1.33-12.301-2.59-17.351c-3.95-5.069-10.399-9.06-18.5-11.2
			c-8.1-2.119-16.431-2.05-23.83-0.22l-3.02,0.97l0.739-2.949c1.33-8.051-1.59-15.25-7.21-21c-5.659-5.76-14.02-10.121-24.54-12.67
			l-2.239-0.48l2.729-0.72c3.21-1.04,5.9-2.55,7.62-4.38c4.521-4.93,0.68-10.13-7.8-12.02c-8.51-1.87-18.979,0.01-24.18,4.55
			c-3.86,3.41-3.46,7.49,0.9,10.31l0.75,0.39l-0.27,0.03c-0.141,0-0.28,0-0.43,0.01c-12.681,0.31-25.571,2.97-37.171,7.95
			l-2.25,1.05l-4.83-1.71c-7.21-1.9-15.75-1.85-24.23-0.22c-8.47,1.63-16.91,4.86-23.6,9.66
			C161.53,221.93,157.92,227.48,158.02,232.63z"/>
		
			<path fill-rule="evenodd" clip-rule="evenodd" fill="none" stroke="#7D7D7D" stroke-width="0.5" stroke-linecap="round" stroke-linejoin="round" d="
			M162.38,232.21c0.08,4.94,3.81,9.47,11.51,11.98c5.75,1.88,12.87,2.319,20.07,1.48l1.17-0.2l0.03,0.369
			c1.34,9.42,9.38,18.65,24.77,23.86l1.64,0.471l-1.23,2.56c-2.26,6.479,0.92,13.27,9.5,16.34c5.69,2.04,12.61,1.96,18.87,0.18
			c6.27-1.779,11.85-5.24,15.209-9.67c1.681-2.22,2.661-4.479,3.041-6.65l0.07-1.75l4.27-1c8.34-2.259,15.989-5.55,22.36-9.539
			l1.81-1.24l0.08,1.189c1.46,7.07,8.23,14.061,19.369,17.54c8.87,2.8,18.671,2.69,26.71,0.25c8.07-2.42,14.32-7.109,16.921-13
			c2.63-5.899,1.28-11.829-2.49-16.68c-3.8-4.87-9.99-8.7-17.771-10.76c-7.789-2.04-15.8-1.97-22.899-0.21l-2.9,0.93l0.7-2.83
			c1.28-7.74-1.529-14.659-6.93-20.189c-5.44-5.53-13.46-9.72-23.58-12.17l-2.149-0.46l2.619-0.69c3.09-1,5.681-2.45,7.32-4.21
			c4.35-4.74,0.659-9.74-7.49-11.55c-8.18-1.8-18.24,0.01-23.23,4.37c-3.71,3.27-3.33,7.2,0.86,9.91l0.73,0.38l-0.29,0.02
			c-0.14,0-0.27,0.01-0.41,0.01c-12.18,0.3-24.56,2.85-35.71,7.64l-2.16,1.01l-4.63-1.64c-6.93-1.83-15.14-1.78-23.29-0.22
			c-8.13,1.58-16.25,4.681-22.68,9.29C165.76,221.93,162.29,227.26,162.38,232.21z"/>
		
			<path fill-rule="evenodd" clip-rule="evenodd" fill="none" stroke="#7D7D7D" stroke-width="0.5" stroke-linecap="round" stroke-linejoin="round" d="
			M166.27,231.84c0.07,4.761,3.67,9.131,11.09,11.551c5.54,1.81,12.4,2.229,19.34,1.43l1.13-0.2l0.02,0.36
			c1.3,9.079,9.05,17.979,23.88,23l1.58,0.449l-1.18,2.471c-2.17,6.24,0.89,12.79,9.16,15.75c5.48,1.97,12.15,1.89,18.18,0.17
			c6.05-1.72,11.43-5.04,14.659-9.32c1.631-2.14,2.581-4.31,2.94-6.41l0.06-1.68l4.121-0.97c8.039-2.181,15.419-5.351,21.55-9.19
			l1.739-1.21l0.08,1.16c1.411,6.81,7.94,13.54,18.67,16.91c8.561,2.69,18.011,2.58,25.75,0.229c7.78-2.33,13.801-6.85,16.32-12.53
			c2.53-5.689,1.23-11.399-2.41-16.079c-3.66-4.69-9.63-8.391-17.13-10.37c-7.51-1.96-15.22-1.9-22.069-0.2l-2.801,0.899l0.68-2.729
			c1.24-7.46-1.469-14.13-6.68-19.46c-5.239-5.33-12.979-9.37-22.729-11.73l-2.07-0.45l2.53-0.66c2.97-0.96,5.47-2.36,7.05-4.06
			c4.2-4.57,0.64-9.39-7.22-11.13c-7.881-1.74-17.58,0.01-22.391,4.21c-3.58,3.16-3.209,6.94,0.83,9.55l0.72,0.37l-0.319,0.02
			c-0.13,0-0.26,0-0.4,0.01c-11.729,0.29-23.66,2.75-34.39,7.36l-2.09,0.98l-4.46-1.591c-6.68-1.76-14.6-1.71-22.45-0.21
			c-7.84,1.52-15.67,4.511-21.86,8.95C169.52,221.93,166.18,227.07,166.27,231.84z"/>
		
			<path fill-rule="evenodd" clip-rule="evenodd" fill="none" stroke="#7D7D7D" stroke-width="0.5" stroke-linecap="round" stroke-linejoin="round" d="
			M169.74,231.51c0.07,4.601,3.54,8.82,10.72,11.161c5.36,1.75,11.99,2.159,18.69,1.38l1.1-0.181l0.02,0.34
			c1.25,8.771,8.74,17.38,23.08,22.23l1.52,0.439l-1.14,2.38c-2.1,6.03,0.86,12.36,8.85,15.221c5.3,1.91,11.75,1.829,17.58,0.17
			c5.84-1.66,11.04-4.88,14.17-9.01c1.569-2.07,2.479-4.17,2.83-6.19l0.069-1.63l3.98-0.94c7.76-2.1,14.899-5.17,20.829-8.88
			l1.681-1.16l0.08,1.11c1.36,6.58,7.67,13.09,18.04,16.34c8.27,2.61,17.399,2.511,24.89,0.23c7.521-2.25,13.34-6.62,15.771-12.11
			c2.439-5.5,1.189-11.02-2.331-15.54c-3.529-4.53-9.31-8.11-16.55-10.02c-7.26-1.9-14.72-1.841-21.339-0.2l-2.7,0.87l0.659-2.641
			c1.19-7.209-1.43-13.649-6.459-18.8c-5.07-5.159-12.551-9.06-21.971-11.34l-2-0.44l2.44-0.64c2.879-0.93,5.289-2.28,6.819-3.93
			c4.05-4.41,0.62-9.07-6.979-10.75c-7.62-1.68-16.99,0.01-21.641,4.07c-3.459,3.05-3.109,6.7,0.801,9.23l0.699,0.37l-0.33,0.01
			c-0.13,0-0.25,0-0.38,0c-11.34,0.29-22.86,2.67-33.229,7.12l-2.01,0.95l-4.32-1.53c-6.46-1.71-14.11-1.66-21.7-0.21
			c-7.58,1.47-15.14,4.36-21.13,8.65C172.88,221.93,169.65,226.9,169.74,231.51z"/>
		
			<path fill-rule="evenodd" clip-rule="evenodd" fill="none" stroke="#7D7D7D" stroke-width="0.5" stroke-linecap="round" stroke-linejoin="round" d="
			M172.86,231.21c0.07,4.461,3.44,8.55,10.38,10.811c5.2,1.7,11.62,2.1,18.12,1.34l1.06-0.181l0.02,0.33
			c1.21,8.511,8.46,16.841,22.36,21.541l1.48,0.43l-1.11,2.3c-2.04,5.85,0.83,11.979,8.58,14.76c5.13,1.84,11.37,1.77,17.02,0.15
			c5.67-1.601,10.7-4.72,13.73-8.72c1.52-2.011,2.41-4.041,2.75-6l0.06-1.58l3.859-0.91c7.521-2.04,14.44-5,20.181-8.61l1.63-1.12
			l0.07,1.08c1.329,6.38,7.43,12.68,17.489,15.83c8.011,2.53,16.86,2.43,24.11,0.23c7.29-2.19,12.92-6.42,15.28-11.74
			c2.359-5.33,1.15-10.67-2.25-15.061c-3.43-4.39-9.03-7.85-16.051-9.71c-7.029-1.84-14.25-1.779-20.669-0.189l-2.62,0.85l0.64-2.56
			c1.16-6.99-1.38-13.23-6.25-18.221c-4.91-5-12.16-8.779-21.29-10.99l-1.939-0.42l2.369-0.62c2.791-0.9,5.12-2.21,6.601-3.8
			c3.93-4.28,0.6-8.79-6.76-10.42c-7.38-1.63-16.46,0.01-20.971,3.94c-3.35,2.96-3,6.5,0.78,8.95l0.69,0.35l-0.351,0.01
			c-0.12,0-0.24,0-0.37,0.01c-10.97,0.28-22.13,2.58-32.169,6.89l-1.96,0.92l-4.18-1.49c-6.25-1.65-13.66-1.6-21.02-0.2
			c-7.34,1.43-14.67,4.22-20.47,8.39C175.91,221.94,172.78,226.75,172.86,231.21z"/>
	</g>
	<g>
		<text transform="matrix(1 0 0 1 433.2095 256.0801)" font-family="'Helvetica'" font-size="12">I</text>
		<text transform="matrix(1 0 0 1 436.0786 256.0801)" font-family="'Helvetica'" font-size="12">n</text>
		<text transform="matrix(1 0 0 1 442.7378 256.0801)" font-family="'Helvetica'" font-size="12">p</text>
		<text transform="matrix(1 0 0 1 449.5649 256.0801)" font-family="'Helvetica'" font-size="12">u</text>
		<text transform="matrix(1 0 0 1 456.1782 256.0801)" font-family="'Helvetica'" font-size="12">t</text>
		<text transform="matrix(1 0 0 1 462.6938 256.0801)" font-family="'Helvetica'" font-size="12">c</text>
		<text transform="matrix(1 0 0 1 468.0688 256.0801)" font-family="'Helvetica'" font-size="12">u</text>
		<text transform="matrix(1 0 0 1 474.6812 256.0801)" font-family="'Helvetica'" font-size="12">r</text>
		<text transform="matrix(1 0 0 1 478.606 256.0801)" font-family="'Helvetica'" font-size="12">v</text>
		<text transform="matrix(1 0 0 1 484.3774 256.0801)" font-family="'Helvetica'" font-size="12">e</text>
	</g>
	<g>
		<text transform="matrix(1 0 0 1 181.79 235.3516)" font-family="'Helvetica'" font-size="12">R</text>
		<text transform="matrix(1 0 0 1 188.2461 235.3516)" font-family="'Helvetica'" font-size="12">e</text>
		<text transform="matrix(1 0 0 1 194.2578 235.3516)" font-family="'Helvetica'" font-size="12">s</text>
		<text transform="matrix(1 0 0 1 199.0098 235.3516)" font-family="'Helvetica'" font-size="12">u</text>
		<text transform="matrix(1 0 0 1 205.6216 235.3516)" font-family="'Helvetica'" font-size="12">l</text>
		<text transform="matrix(1 0 0 1 208.4536 235.3516)" font-family="'Helvetica'" font-size="12">t</text>
		<text transform="matrix(1 0 0 1 214.9692 235.3516)" font-family="'Helvetica'" font-size="12">c</text>
		<text transform="matrix(1 0 0 1 220.3452 235.3516)" font-family="'Helvetica'" font-size="12">u</text>
		<text transform="matrix(1 0 0 1 226.9575 235.3516)" font-family="'Helvetica'" font-size="12">r</text>
		<text transform="matrix(1 0 0 1 230.8813 235.3516)" font-family="'Helvetica'" font-size="12">v</text>
		<text transform="matrix(1 0 0 1 236.6533 235.3516)" font-family="'Helvetica'" font-size="12">e</text>
	</g>
	<path fill-rule="evenodd" clip-rule="evenodd" fill="none" stroke="#000000" stroke-width="2" d="M1.3,225.24
		c4.11-5.26,9.58-10.399,16.29-15.23c16.59-11.899,37.55-19.899,58.54-23.959c21.03-4.03,42.22-4.17,60.1,0.56l11.96,4.24l5.58-2.61
		c29.02-12.47,61.31-19.05,93.01-19.74h1.08l-2.01-1.04c-10.82-7-11.8-17.12-2.22-25.57c12.89-11.26,38.85-15.92,59.96-11.28
		c21.039,4.67,30.56,17.57,19.329,29.79c-4.25,4.56-10.919,8.3-18.889,10.89l-6.771,1.77l5.56,1.2
		c26.1,6.32,46.81,17.12,60.85,31.41c13.94,14.27,21.19,32.13,17.891,52.089l-1.83,7.32l7.49-2.409c18.34-4.551,39-4.721,59.11,0.55
		c20.069,5.3,36.069,15.2,45.859,27.76c9.729,12.529,13.21,27.82,6.439,43.05c-6.729,15.2-22.85,27.311-43.68,33.55
		c-20.739,6.3-46.039,6.58-68.949-0.63c-28.74-9-46.211-27.04-49.99-45.271l-0.2-3.089l-4.681,3.21
		c-16.409,10.3-36.18,18.779-57.699,24.609l-11.02,2.6l-0.171,4.521c-0.97,5.6-3.51,11.41-7.86,17.141
		c-8.67,11.459-23.07,20.369-39.26,24.959c-16.15,4.61-34,4.82-48.68-0.45c-22.14-7.93-30.35-25.47-24.53-42.18l3.17-6.6
		l-4.23-1.221c-39.72-13.439-60.46-37.27-63.93-61.579l-0.06-0.94l-3.03,0.52c-18.57,2.15-36.95,1.021-51.8-3.84
		c-9.2-3-16.2-7.119-21.089-11.939"/>
	<path fill-rule="evenodd" clip-rule="evenodd" fill="none" stroke="#000000" stroke-width="2" d="M234.8,280.771
		c-7.52-2.69-10.3-8.641-8.33-14.32l1.08-2.24l-1.44-0.409c-13.49-4.57-20.53-12.66-21.71-20.91l-0.02-0.32l-1.03,0.17
		c-6.3,0.73-12.54,0.35-17.59-1.3c-6.74-2.2-10.01-6.17-10.08-10.5c-0.08-4.33,2.96-9,8.58-13.04c5.63-4.04,12.74-6.76,19.87-8.14
		c7.14-1.37,14.34-1.41,20.41,0.19l4.06,1.44l1.9-0.881c9.85-4.24,20.82-6.479,31.581-6.709h0.369l-0.68-0.35
		c-3.68-2.38-4.01-5.82-0.76-8.69c4.38-3.82,13.189-5.4,20.359-3.83c7.15,1.59,10.381,5.97,6.57,10.12
		c-1.45,1.55-3.71,2.82-6.42,3.7l-2.3,0.6l1.89,0.41c8.86,2.14,15.9,5.81,20.66,10.661c4.74,4.85,7.2,10.909,6.08,17.689l-0.62,2.49
		l2.54-0.82c6.23-1.55,13.24-1.609,20.07,0.18c6.82,1.8,12.25,5.17,15.579,9.431c3.301,4.26,4.48,9.449,2.181,14.619
		c-2.28,5.161-7.76,9.271-14.83,11.391c-7.04,2.14-15.641,2.24-23.41-0.21c-9.76-3.061-15.69-9.181-16.98-15.37l-0.069-1.05
		l-1.58,1.09c-5.58,3.49-12.29,6.38-19.601,8.36l-3.739,0.88l-0.06,1.529c-0.33,1.9-1.19,3.88-2.67,5.82
		c-2.94,3.89-7.831,6.92-13.331,8.479C245.85,282.49,239.79,282.56,234.8,280.771z"/>
	<g>
		
			<rect x="258.33" y="226.82" fill-rule="evenodd" clip-rule="evenodd" fill="#FFFFFF" stroke="#000000" stroke-width="2" width="8.97" height="8.97"/>
		
			<line fill-rule="evenodd" clip-rule="evenodd" fill="none" stroke="#000000" stroke-width="2" stroke-linejoin="bevel" x1="262.81" y1="222.33" x2="262.81" y2="240.271"/>
		
			<line fill-rule="evenodd" clip-rule="evenodd" fill="none" stroke="#000000" stroke-width="2" stroke-linejoin="bevel" x1="253.85" y1="231.301" x2="271.781" y2="231.301"/>
	</g>
</g>
<g id="Viewport_x5F_FG">
	<rect x="1" y="1" fill-rule="evenodd" clip-rule="evenodd" fill="#0000B0" width="145.5" height="23"/>
	<g>
		<text transform="matrix(1 0 0 1 7.48 18.9004)" fill="#FFFFFF" font-family="'Helvetica-Bold'" font-size="18">R</text>
		<text transform="matrix(1 0 0 1 17.1641 18.9004)" fill="#FFFFFF" font-family="'Helvetica-Bold'" font-size="18">h</text>
		<text transform="matrix(1 0 0 1 27.1538 18.9004)" fill="#FFFFFF" font-family="'Helvetica-Bold'" font-size="18">i</text>
		<text transform="matrix(1 0 0 1 31.3657 18.9004)" fill="#FFFFFF" font-family="'Helvetica-Bold'" font-size="18">n</text>
		<text transform="matrix(1 0 0 1 41.3555 18.9004)" fill="#FFFFFF" font-family="'Helvetica-Bold'" font-size="18">o</text>
		<text transform="matrix(1 0 0 1 55.0532 18.9004)" fill="#FFFFFF" font-family="'Helvetica-Bold'" font-size="18">V</text>
		<text transform="matrix(1 0 0 1 65.0972 18.9004)" fill="#FFFFFF" font-family="'Helvetica-Bold'" font-size="18">i</text>
		<text transform="matrix(1 0 0 1 69.3091 18.9004)" fill="#FFFFFF" font-family="'Helvetica-Bold'" font-size="18">e</text>
		<text transform="matrix(1 0 0 1 78.3271 18.9004)" fill="#FFFFFF" font-family="'Helvetica-Bold'" font-size="18">w</text>
		<text transform="matrix(1 0 0 1 91.5747 18.9004)" fill="#FFFFFF" font-family="'Helvetica-Bold'" font-size="18">p</text>
		<text transform="matrix(1 0 0 1 101.8164 18.9004)" fill="#FFFFFF" font-family="'Helvetica-Bold'" font-size="18">o</text>
		<text transform="matrix(1 0 0 1 111.6982 18.9004)" fill="#FFFFFF" font-family="'Helvetica-Bold'" font-size="18">r</text>
		<text transform="matrix(1 0 0 1 117.5845 18.9004)" fill="#FFFFFF" font-family="'Helvetica-Bold'" font-size="18">t</text>
	</g>
	
		<rect x="1" y="1" fill-rule="evenodd" clip-rule="evenodd" fill="none" stroke="#000000" stroke-width="2" stroke-linecap="round" width="519.28" height="415.41"/>
</g>
</svg>
