<?xml version="1.0" encoding="utf-8"?>
<!-- Generator: Adobe Illustrator 14.0.0, SVG Export Plug-In . SVG Version: 6.00 Build 43363)  -->
<!DOCTYPE svg PUBLIC "-//W3C//DTD SVG 1.0//EN" "http://www.w3.org/TR/2001/REC-SVG-20010904/DTD/svg10.dtd">
<svg version="1.0" xmlns="http://www.w3.org/2000/svg" xmlns:xlink="http://www.w3.org/1999/xlink" x="0px" y="0px"
	 width="56.699px" height="56.69px" viewBox="0 0 56.699 56.69" enable-background="new 0 0 56.699 56.69" xml:space="preserve">
<g id="Grids">
	<g>
		
			<line fill-rule="evenodd" clip-rule="evenodd" fill="none" stroke="#D4D4D4" stroke-width="0.27" x1="4.93" y1="0" x2="4.93" y2="56.69"/>
		
			<line fill-rule="evenodd" clip-rule="evenodd" fill="none" stroke="#D4D4D4" stroke-width="0.27" x1="9.619" y1="0" x2="9.619" y2="56.69"/>
		
			<line fill-rule="evenodd" clip-rule="evenodd" fill="none" stroke="#D4D4D4" stroke-width="0.27" x1="18.979" y1="0" x2="18.979" y2="56.69"/>
		
			<line fill-rule="evenodd" clip-rule="evenodd" fill="none" stroke="#D4D4D4" stroke-width="0.27" x1="23.669" y1="0" x2="23.669" y2="56.69"/>
		
			<line fill-rule="evenodd" clip-rule="evenodd" fill="none" stroke="#D4D4D4" stroke-width="0.27" x1="33.029" y1="0" x2="33.029" y2="56.69"/>
		
			<line fill-rule="evenodd" clip-rule="evenodd" fill="none" stroke="#D4D4D4" stroke-width="0.27" x1="37.71" y1="0" x2="37.71" y2="56.69"/>
		
			<line fill-rule="evenodd" clip-rule="evenodd" fill="none" stroke="#D4D4D4" stroke-width="0.27" x1="47.08" y1="0" x2="47.08" y2="56.69"/>
		
			<line fill-rule="evenodd" clip-rule="evenodd" fill="none" stroke="#D4D4D4" stroke-width="0.27" x1="51.76" y1="0" x2="51.76" y2="56.69"/>
		
			<line fill-rule="evenodd" clip-rule="evenodd" fill="none" stroke="#D4D4D4" stroke-width="0.27" x1="56.689" y1="4.93" x2="0" y2="4.93"/>
		
			<line fill-rule="evenodd" clip-rule="evenodd" fill="none" stroke="#D4D4D4" stroke-width="0.27" x1="56.689" y1="9.61" x2="0" y2="9.61"/>
		
			<line fill-rule="evenodd" clip-rule="evenodd" fill="none" stroke="#D4D4D4" stroke-width="0.27" x1="56.689" y1="18.98" x2="0" y2="18.98"/>
		
			<line fill-rule="evenodd" clip-rule="evenodd" fill="none" stroke="#D4D4D4" stroke-width="0.27" x1="56.689" y1="23.66" x2="0" y2="23.66"/>
		
			<line fill-rule="evenodd" clip-rule="evenodd" fill="none" stroke="#D4D4D4" stroke-width="0.27" x1="56.689" y1="33.03" x2="0" y2="33.03"/>
		
			<line fill-rule="evenodd" clip-rule="evenodd" fill="none" stroke="#D4D4D4" stroke-width="0.27" x1="56.689" y1="37.71" x2="0" y2="37.71"/>
		
			<line fill-rule="evenodd" clip-rule="evenodd" fill="none" stroke="#D4D4D4" stroke-width="0.27" x1="56.689" y1="47.07" x2="0" y2="47.07"/>
		
			<line fill-rule="evenodd" clip-rule="evenodd" fill="none" stroke="#D4D4D4" stroke-width="0.27" x1="56.689" y1="51.76" x2="0" y2="51.76"/>
		
			<line fill-rule="evenodd" clip-rule="evenodd" fill="none" stroke="#8A8A8A" stroke-width="0.27" x1="0.14" y1="0" x2="0.14" y2="56.69"/>
		
			<line fill-rule="evenodd" clip-rule="evenodd" fill="none" stroke="#8A8A8A" stroke-width="0.27" x1="28.35" y1="28.34" x2="28.35" y2="56.69"/>
		
			<line fill-rule="evenodd" clip-rule="evenodd" fill="none" stroke="#8A8A8A" stroke-width="0.27" x1="42.399" y1="0" x2="42.399" y2="56.69"/>
		
			<line fill-rule="evenodd" clip-rule="evenodd" fill="none" stroke="#8A8A8A" stroke-width="0.27" x1="56.56" y1="0" x2="56.56" y2="56.69"/>
		
			<line fill-rule="evenodd" clip-rule="evenodd" fill="none" stroke="#8A8A8A" stroke-width="0.27" x1="28.35" y1="28.34" x2="0" y2="28.34"/>
		
			<line fill-rule="evenodd" clip-rule="evenodd" fill="none" stroke="#8A8A8A" stroke-width="0.27" x1="56.689" y1="14.3" x2="0" y2="14.3"/>
		
			<line fill-rule="evenodd" clip-rule="evenodd" fill="none" stroke="#8A8A8A" stroke-width="0.27" x1="56.699" y1="0.14" x2="0" y2="0.14"/>
		
			<line fill-rule="evenodd" clip-rule="evenodd" fill="none" stroke="#8A8A8A" stroke-width="0.27" x1="56.689" y1="56.55" x2="0" y2="56.55"/>
		
			<line fill-rule="evenodd" clip-rule="evenodd" fill="none" stroke="#8A8A8A" stroke-width="0.27" x1="56.689" y1="28.34" x2="28.35" y2="28.34"/>
		
			<line fill-rule="evenodd" clip-rule="evenodd" fill="none" stroke="#8A8A8A" stroke-width="0.27" x1="28.35" y1="0" x2="28.35" y2="28.34"/>
		
			<line fill-rule="evenodd" clip-rule="evenodd" fill="none" stroke="#8A8A8A" stroke-width="0.27" x1="14.3" y1="56.69" x2="14.3" y2="42.48"/>
		
			<line fill-rule="evenodd" clip-rule="evenodd" fill="none" stroke="#8A8A8A" stroke-width="0.27" x1="0" y1="42.39" x2="14.05" y2="42.39"/>
		<line fill-rule="evenodd" clip-rule="evenodd" fill="none" stroke="#12AB00" x1="14.3" y1="0" x2="14.3" y2="42.48"/>
		<line fill-rule="evenodd" clip-rule="evenodd" fill="none" stroke="#A80000" x1="56.689" y1="42.39" x2="14.05" y2="42.39"/>
	</g>
</g>
<g id="Text">
	<path fill-rule="evenodd" clip-rule="evenodd" d="M19.689,17.65l1.41-0.3c0.1,0.24,0.18,0.48,0.24,0.73
		c0.09,0.37,0.16,0.81,0.22,1.31c0.021,0.26,0.06,0.79,0.101,1.61c0.409-0.45,0.649-0.72,0.729-0.83c0.43-0.58,0.68-0.93,0.739-1.03
		c0.11-0.17,0.19-0.32,0.23-0.45c0.03-0.1,0.051-0.19,0.051-0.28c0-0.08-0.07-0.18-0.23-0.29c-0.15-0.11-0.22-0.24-0.22-0.37
		c0-0.11,0.04-0.2,0.12-0.28s0.18-0.12,0.299-0.12c0.131,0,0.25,0.05,0.36,0.16c0.101,0.12,0.15,0.26,0.15,0.42
		c0,0.17-0.021,0.33-0.07,0.48c-0.09,0.25-0.25,0.55-0.479,0.91c-0.23,0.35-0.601,0.83-1.12,1.43c-0.06,0.07-0.42,0.45-1.08,1.13
		h-0.18c-0.081-2.06-0.24-3.34-0.49-3.86c-0.08-0.16-0.21-0.24-0.4-0.24c-0.08,0-0.2,0.01-0.35,0.04L19.689,17.65z"/>
	<path fill-rule="evenodd" clip-rule="evenodd" d="M52.97,36.94l0.33,3.66c0.569-0.66,1.02-1.28,1.36-1.87
		c0.199-0.34,0.3-0.59,0.3-0.74c0-0.07-0.021-0.13-0.05-0.19c-0.011-0.03-0.061-0.07-0.15-0.13c-0.091-0.06-0.16-0.11-0.19-0.17
		c-0.04-0.06-0.06-0.13-0.06-0.2c0-0.1,0.04-0.18,0.119-0.25c0.07-0.07,0.171-0.11,0.281-0.11c0.14,0,0.25,0.05,0.34,0.15
		c0.1,0.1,0.14,0.23,0.14,0.4s-0.021,0.33-0.07,0.47c-0.1,0.28-0.29,0.64-0.569,1.09c-0.351,0.53-0.7,1.02-1.07,1.47
		c-0.36,0.46-0.641,0.77-0.82,0.96h-0.18l-0.311-3.38l-2.02,3.38h-0.221c-0.02-1.39-0.09-2.49-0.21-3.29
		c-0.04-0.34-0.13-0.56-0.239-0.66c-0.08-0.08-0.2-0.12-0.37-0.12c-0.1,0-0.22,0.01-0.36,0.03v-0.17l1.4-0.33
		c0.189,0.54,0.319,1.38,0.38,2.51c0.021,0.42,0.04,0.69,0.05,0.8l2.01-3.31H52.97z"/>
	<path fill-rule="evenodd" clip-rule="evenodd" d="M22.029,35.29h0.71l-1.39,2.52c-0.02,0.13,0,0.3,0.08,0.52
		c0.09,0.25,0.199,0.37,0.33,0.37c0.08,0,0.18-0.08,0.31-0.24c0.03-0.04,0.07-0.06,0.12-0.06c0.08,0,0.12,0.03,0.12,0.11
		c0,0.05-0.021,0.11-0.06,0.18c-0.211,0.41-0.42,0.61-0.641,0.61c-0.14,0-0.27-0.14-0.38-0.42c-0.03-0.07-0.09-0.28-0.18-0.64
		c-0.4,0.71-0.95,1.07-1.66,1.07c-0.43,0-0.75-0.14-0.971-0.43c-0.199-0.26-0.3-0.6-0.3-1.02c0-0.17,0.01-0.35,0.05-0.53
		c0.11-0.56,0.341-1.04,0.69-1.46c0.4-0.48,0.86-0.71,1.391-0.71c0.33,0,0.59,0.13,0.789,0.41c0.171,0.24,0.261,0.53,0.261,0.86
		c0,0.08-0.011,0.16-0.021,0.24L22.029,35.29z M20.96,37.35c0.029-0.1,0.05-0.23,0.05-0.37c0-0.35-0.07-0.64-0.19-0.89
		c-0.15-0.3-0.37-0.45-0.65-0.45c-0.35,0-0.649,0.19-0.909,0.57c-0.21,0.29-0.35,0.64-0.43,1.03c-0.041,0.19-0.061,0.37-0.061,0.54
		c0,0.66,0.26,1.02,0.79,1.07c0.25,0.03,0.55-0.16,0.87-0.56C20.72,37.94,20.899,37.63,20.96,37.35z"/>
	<polygon fill-rule="evenodd" clip-rule="evenodd" points="54.8,35.9 54.96,35.43 48.629,35.43 48.629,35.18 54.96,35.18 54.8,34.7 
		56.6,35.3 	"/>
	<polygon fill-rule="evenodd" clip-rule="evenodd" points="23.22,16.18 23.379,15.7 19.869,15.7 19.869,15.45 23.379,15.45 
		23.22,14.98 25.02,15.58 	"/>
</g>
<g id="Vectors">
	<polygon fill-rule="evenodd" clip-rule="evenodd" points="34.319,37.76 34.08,36.79 47.539,33.39 46.97,32.5 51.689,32.85 
		47.699,35.41 47.779,34.36 	"/>
	<polygon fill-rule="evenodd" clip-rule="evenodd" points="14.75,42.53 13.859,42.09 25.869,17.94 24.83,17.8 28.169,14.44 
		27.51,19.13 26.76,18.39 	"/>
	<polygon fill-rule="evenodd" clip-rule="evenodd" fill="#FF7D00" points="14.43,42.8 14.18,41.83 34.08,36.79 34.319,37.76 	"/>
</g>
<g id="Other">
	<path fill-rule="evenodd" clip-rule="evenodd" fill="none" stroke="#000000" stroke-width="0.5" d="M19.39,31.96
		c1.56,0.78,2.979,1.92,4.1,3.41c0.94,1.25,1.591,2.62,1.971,4.04"/>
	
		<line fill-rule="evenodd" clip-rule="evenodd" fill="none" stroke="#000000" stroke-width="0.5" stroke-linejoin="bevel" stroke-dasharray="0.99,0.99" x1="34.109" y1="37" x2="28.34" y2="14.19"/>
	<path fill-rule="evenodd" clip-rule="evenodd" fill="#FF7D00" stroke="#000000" stroke-width="0.5" d="M33.279,37.35
		c-0.029-0.5,0.36-0.94,0.86-0.97c0.51-0.03,0.95,0.36,0.979,0.86c0.03,0.51-0.359,0.95-0.869,0.98
		C33.75,38.25,33.31,37.86,33.279,37.35z"/>
</g>
</svg>
