<?xml version="1.0" encoding="utf-8"?>
<!-- Generator: Adobe Illustrator 14.0.0, SVG Export Plug-In . SVG Version: 6.00 Build 43363)  -->
<!DOCTYPE svg PUBLIC "-//W3C//DTD SVG 1.0//EN" "http://www.w3.org/TR/2001/REC-SVG-20010904/DTD/svg10.dtd">
<svg version="1.0" id="Layer_1" xmlns="http://www.w3.org/2000/svg" xmlns:xlink="http://www.w3.org/1999/xlink" x="0px" y="0px"
	 width="428.211px" height="269.771px" viewBox="0 0 428.211 269.771" enable-background="new 0 0 428.211 269.771"
	 xml:space="preserve">
<path fill-rule="evenodd" clip-rule="evenodd" fill="none" stroke="#000000" stroke-width="2.25" stroke-linecap="round" stroke-linejoin="round" d="
	M1.125,32.885c28.88-11.4,28.12,11.02,35.84,17.29c7.73,6.27,23.94-3.61,28.75,2.09c4.81,5.7-1.77,26.98,11.02,29.89
	c12.79,2.91,44.96-12.54,49.14-2.28c4.18,10.26-19.63,46.23,3.55,45.09c23.17-1.14,93.34-39.39,113.979-30.02
	c20.641,9.37-8.229,66.37-2.029,107.399c6.21,41.041,47.5,66.111,99.68,66.301c52.18,0.19,115.25-24.5,71.18-168.13"/>
<path fill-rule="evenodd" clip-rule="evenodd" fill="#FFFFFF" stroke="#000000" stroke-width="0.75" stroke-linecap="round" stroke-linejoin="round" d="
	M72.795,80.275c3.68,3.04,9.12,2.52,12.16-1.16c3.03-3.68,2.51-9.12-1.16-12.16c-3.68-3.04-9.13-2.52-12.16,1.16
	C68.595,71.795,69.115,77.235,72.795,80.275z"/>
<path fill-rule="evenodd" clip-rule="evenodd" d="M408.164,244.714c-0.09,0.011-0.189-0.02-0.27-0.089l-39.529-35.12l-1.75,1.959
	l-3.24-6.89l7.229,2.4l-1.75,1.96l39.54,35.13c0.15,0.141,0.17,0.37,0.03,0.529C408.354,244.675,408.265,244.714,408.164,244.714z"
	/>
<path fill-rule="evenodd" clip-rule="evenodd" fill="#FFFFFF" stroke="#000000" stroke-width="0.75" stroke-linejoin="bevel" d="
	M360.365,203.214c-0.041-0.789,0.569-1.459,1.35-1.5c0.79-0.039,1.46,0.561,1.5,1.351c0.04,0.779-0.561,1.46-1.35,1.5
	C361.085,204.605,360.404,203.995,360.365,203.214z"/>
<path fill-rule="evenodd" clip-rule="evenodd" d="M246.654,220.775c-0.089-0.04-0.17-0.1-0.209-0.2
	c-0.091-0.189-0.011-0.41,0.18-0.5l51.24-23.739l-1.11-2.391l7.62-0.22l-5.09,5.67l-1.11-2.38l-51.24,23.74
	C246.845,220.805,246.745,220.805,246.654,220.775z"/>
<path fill-rule="evenodd" clip-rule="evenodd" d="M72.825,80.645c-0.09,0.01-0.19-0.02-0.27-0.08c-0.16-0.13-0.18-0.37-0.05-0.53
	l2.75-3.33l-0.58-0.48l2.54-1.31l-0.8,2.74l-0.58-0.48l-2.75,3.34C73.015,80.595,72.925,80.635,72.825,80.645z"/>
<path fill-rule="evenodd" clip-rule="evenodd" fill="none" stroke="#000000" stroke-width="0.75" stroke-linecap="round" stroke-linejoin="round" stroke-dasharray="1.5,2" d="
	M0.655,108.855c13.87,7.18,28.41,12.57,43.32,16.14"/>
<path fill-rule="evenodd" clip-rule="evenodd" fill="none" stroke="#000000" stroke-width="0.75" stroke-linecap="round" stroke-linejoin="round" d="
	M43.975,124.995c33.41,7.99,68.62,6.84,101.97-3.76c31.8-10.11,60.02-28.23,82.219-52.28"/>
<path fill-rule="evenodd" clip-rule="evenodd" fill="none" stroke="#000000" stroke-width="0.75" stroke-linecap="round" stroke-linejoin="round" stroke-dasharray="1.5,2" d="
	M228.164,68.955c11.44-12.4,21.281-26.37,29.19-41.64"/>
<line fill-rule="evenodd" clip-rule="evenodd" fill="none" stroke="#000000" stroke-width="0.75" stroke-linecap="round" stroke-linejoin="round" x1="145.945" y1="121.235" x2="124.235" y2="52.945"/>
<path fill-rule="evenodd" clip-rule="evenodd" d="M124.195,53.325c-0.15-0.01-0.28-0.11-0.32-0.26l-0.46-1.43
	c-0.06-0.2,0.05-0.41,0.25-0.47c0.19-0.06,0.4,0.05,0.47,0.24l0.45,1.43c0.06,0.2-0.05,0.41-0.24,0.47
	C124.295,53.325,124.245,53.325,124.195,53.325z M123.285,50.465c-0.15-0.01-0.28-0.11-0.32-0.26l-0.46-1.43
	c-0.06-0.2,0.05-0.41,0.25-0.47c0.19-0.06,0.41,0.05,0.47,0.24l0.45,1.43c0.07,0.2-0.04,0.41-0.24,0.47
	C123.385,50.465,123.335,50.475,123.285,50.465z M122.375,47.605c-0.14-0.01-0.27-0.11-0.32-0.26l-0.46-1.43
	c-0.06-0.2,0.05-0.41,0.25-0.47s0.41,0.05,0.47,0.24l0.45,1.43c0.07,0.2-0.04,0.41-0.24,0.48
	C122.475,47.605,122.425,47.615,122.375,47.605z M121.465,44.745c-0.14-0.01-0.27-0.11-0.32-0.26l-0.46-1.43
	c-0.06-0.19,0.05-0.4,0.25-0.47c0.2-0.06,0.41,0.05,0.47,0.25l0.45,1.43c0.07,0.19-0.04,0.4-0.24,0.47
	C121.565,44.745,121.515,44.755,121.465,44.745z M120.555,41.885c-0.14-0.01-0.27-0.11-0.32-0.26l-0.45-1.43
	c-0.07-0.19,0.04-0.4,0.24-0.47c0.2-0.06,0.41,0.05,0.47,0.25l0.46,1.43c0.06,0.19-0.05,0.4-0.25,0.47
	C120.655,41.885,120.605,41.895,120.555,41.885z M119.645,39.035c-0.14-0.02-0.27-0.12-0.32-0.27l-0.45-1.42
	c-0.07-0.2,0.04-0.41,0.24-0.48c0.2-0.06,0.41,0.05,0.47,0.25l0.46,1.43c0.06,0.19-0.05,0.41-0.25,0.47
	C119.745,39.025,119.695,39.035,119.645,39.035z M118.745,36.175c-0.15-0.02-0.28-0.12-0.33-0.26l-0.45-1.43
	c-0.06-0.2,0.04-0.41,0.24-0.47c0.2-0.07,0.41,0.04,0.47,0.24l0.46,1.43c0.06,0.2-0.05,0.41-0.25,0.47
	C118.835,36.175,118.785,36.175,118.745,36.175z M117.835,33.315c-0.15-0.02-0.28-0.11-0.33-0.26l-0.45-1.43
	c-0.06-0.2,0.05-0.41,0.24-0.47c0.2-0.07,0.41,0.04,0.47,0.24l0.46,1.43c0.06,0.2-0.05,0.41-0.25,0.47
	C117.925,33.315,117.875,33.315,117.835,33.315z M116.925,30.455c-0.15-0.02-0.28-0.11-0.33-0.26l-0.45-1.43
	c-0.06-0.2,0.05-0.41,0.24-0.47c0.2-0.07,0.41,0.04,0.47,0.24l0.46,1.43c0.06,0.2-0.05,0.41-0.24,0.47
	C117.025,30.455,116.975,30.455,116.925,30.455z M116.015,27.595c-0.15-0.01-0.28-0.11-0.32-0.26l-0.46-1.43
	c-0.06-0.2,0.05-0.41,0.24-0.47c0.2-0.06,0.41,0.05,0.48,0.24l0.45,1.43c0.06,0.2-0.05,0.41-0.24,0.47
	C116.115,27.595,116.065,27.595,116.015,27.595z M115.105,24.735c-0.15-0.01-0.28-0.11-0.32-0.26l-0.46-1.43
	c-0.06-0.2,0.05-0.41,0.25-0.47c0.19-0.06,0.4,0.05,0.47,0.24l0.45,1.43c0.06,0.2-0.05,0.41-0.24,0.47
	C115.205,24.735,115.155,24.735,115.105,24.735z M114.195,21.875c-0.15-0.01-0.28-0.11-0.32-0.26l-0.46-1.43
	c-0.06-0.2,0.05-0.41,0.25-0.47c0.19-0.06,0.4,0.05,0.47,0.24l0.45,1.43c0.06,0.2-0.04,0.41-0.24,0.47
	C114.295,21.875,114.245,21.885,114.195,21.875z M113.285,19.015c-0.15-0.01-0.28-0.11-0.32-0.26l-0.46-1.43
	c-0.06-0.19,0.05-0.41,0.25-0.47c0.19-0.06,0.41,0.05,0.47,0.25l0.45,1.42c0.07,0.2-0.04,0.41-0.24,0.48
	C113.385,19.015,113.335,19.025,113.285,19.015z M112.375,16.155c-0.14-0.01-0.27-0.11-0.32-0.26l-0.46-1.43
	c-0.06-0.19,0.05-0.4,0.25-0.47c0.2-0.06,0.41,0.05,0.47,0.25l0.45,1.43c0.07,0.19-0.04,0.4-0.24,0.47
	C112.475,16.155,112.425,16.165,112.375,16.155z M111.465,13.295c-0.14-0.01-0.27-0.11-0.32-0.26l-0.32-1.01l-2.5,0.8l0.73-7.58
	l4.98,5.76l-2.5,0.8l0.32,1.01c0.07,0.19-0.04,0.41-0.24,0.47C111.565,13.295,111.515,13.305,111.465,13.295z"/>
<path fill-rule="evenodd" clip-rule="evenodd" fill="#FFFFFF" stroke="#000000" stroke-width="0.75" stroke-linejoin="bevel" d="
	M71.165,80.715c-0.04-0.79,0.56-1.46,1.35-1.5s1.46,0.56,1.5,1.35s-0.56,1.46-1.35,1.5C71.875,82.105,71.205,81.505,71.165,80.715z"
	/>
<path fill-rule="evenodd" clip-rule="evenodd" fill="#FFFFFF" stroke="#000000" stroke-width="0.75" stroke-linejoin="bevel" d="
	M76.865,73.735c-0.04-0.78,0.56-1.45,1.35-1.5c0.79-0.04,1.46,0.57,1.5,1.35c0.04,0.79-0.56,1.46-1.35,1.5
	C77.575,75.135,76.905,74.525,76.865,73.735z"/>
<path fill-rule="evenodd" clip-rule="evenodd" fill="none" stroke="#000000" stroke-width="0.75" stroke-linecap="round" stroke-linejoin="round" d="
	M345.734,143.555c-11.239,3.039-21.75,9.28-30.06,18.63c-7.75,8.72-12.59,19.029-14.57,29.729"/>
<path fill-rule="evenodd" clip-rule="evenodd" fill="none" stroke="#000000" stroke-width="0.75" stroke-linecap="round" stroke-linejoin="round" d="
	M300.095,201.094c-0.61,17.771,6.4,35.671,20.74,48.411c1.71,1.51,3.479,2.92,5.3,4.22"/>
<path fill-rule="evenodd" clip-rule="evenodd" fill="none" stroke="#000000" stroke-width="0.75" stroke-linecap="round" stroke-linejoin="round" d="
	M329.515,255.964c25.08,15.461,58.39,11.161,78.63-11.62c22.69-25.539,20.38-64.63-5.16-87.319
	c-14.739-13.1-34.01-17.86-52.02-14.64"/>
<path fill-rule="evenodd" clip-rule="evenodd" fill="none" stroke="#000000" stroke-width="0.75" stroke-linecap="round" stroke-linejoin="round" d="
	M370.515,205.344c2.55-13.06,1.149-27.02-4.88-40.02c-15.21-32.82-54.15-47.09-86.971-31.88
	c-32.819,15.21-47.09,54.149-31.879,86.97c15.21,32.82,54.149,47.101,86.97,31.88c17.6-8.149,29.87-23.14,35.11-40.339"/>
<path fill-rule="evenodd" clip-rule="evenodd" fill="#FFFFFF" stroke="#000000" stroke-width="0.75" stroke-linejoin="bevel" d="
	M144.665,121.215c-0.04-0.79,0.56-1.46,1.35-1.5s1.46,0.56,1.5,1.35s-0.56,1.46-1.35,1.5
	C145.375,122.605,144.705,122.005,144.665,121.215z"/>
<path fill-rule="evenodd" clip-rule="evenodd" fill="#FFFFFF" stroke="#000000" stroke-width="0.75" stroke-linejoin="bevel" d="
	M245.445,220.475c-0.041-0.79,0.569-1.46,1.35-1.5c0.79-0.04,1.46,0.56,1.5,1.35c0.04,0.78-0.561,1.46-1.35,1.5
	C246.164,221.865,245.484,221.255,245.445,220.475z"/>
<path fill-rule="evenodd" clip-rule="evenodd" fill="#FFFFFF" stroke="#000000" stroke-width="0.75" stroke-linejoin="bevel" d="
	M406.755,244.365c-0.04-0.79,0.56-1.46,1.35-1.5c0.78-0.04,1.46,0.561,1.5,1.35c0.04,0.791-0.569,1.461-1.35,1.5
	C407.465,245.755,406.795,245.155,406.755,244.365z"/>
<path fill-rule="evenodd" clip-rule="evenodd" fill="#FFFFFF" stroke="#000000" stroke-width="0.75" stroke-linejoin="bevel" d="
	M304.795,192.925c-0.04-0.78,0.57-1.45,1.35-1.5c0.79-0.04,1.46,0.569,1.5,1.35c0.04,0.79-0.56,1.46-1.35,1.5
	C305.515,194.325,304.835,193.714,304.795,192.925z"/>
<g>
	<g>
		<path fill-rule="evenodd" clip-rule="evenodd" d="M72.255,93.935l-0.74-2.26h-3.99l-0.79,2.26h-1.64l4.36-10.88h0.39l4.04,10.88
			H72.255z M69.575,85.875l-1.66,4.72h3.19L69.575,85.875z"/>
	</g>
</g>
<g>
	<g>
		<path fill-rule="evenodd" clip-rule="evenodd" d="M149.195,117.095h-3.06v-10.73c1.3-0.07,2.24-0.1,2.82-0.1
			c1.06,0,1.88,0.23,2.46,0.69c0.58,0.45,0.87,1.11,0.87,1.96c0,0.5-0.18,0.95-0.56,1.36c-0.37,0.41-0.78,0.67-1.23,0.77
			c0.85,0.2,1.47,0.54,1.86,1.02c0.39,0.47,0.58,1.11,0.58,1.93c0,0.94-0.34,1.69-1.03,2.26
			C151.215,116.815,150.305,117.095,149.195,117.095z M147.595,107.535v3.08c0.31,0.03,0.69,0.05,1.15,0.05
			c1.38,0,2.08-0.57,2.08-1.69c0-1-0.64-1.49-1.92-1.49C148.425,107.485,147.985,107.505,147.595,107.535z M147.595,111.755v4.09
			c0.51,0.05,0.89,0.08,1.16,0.08c0.92,0,1.59-0.18,2.01-0.52c0.42-0.34,0.63-0.89,0.63-1.64c0-0.7-0.2-1.22-0.6-1.55
			c-0.4-0.33-1.08-0.5-2.02-0.5L147.595,111.755z"/>
	</g>
</g>
<g>
	<g>
		<path fill-rule="evenodd" clip-rule="evenodd" d="M238.015,230.815h-2.16v-10.729c1.37-0.051,2.25-0.08,2.641-0.08
			c1.5,0,2.689,0.459,3.56,1.37c0.87,0.909,1.311,2.119,1.311,3.64C243.365,228.875,241.585,230.815,238.015,230.815z
			 M237.315,221.395v8.02c0.329,0.05,0.729,0.08,1.22,0.08c1.02,0,1.83-0.39,2.41-1.159c0.59-0.761,0.879-1.83,0.879-3.2
			c0-2.541-1.14-3.811-3.42-3.811C238.274,221.325,237.904,221.355,237.315,221.395z"/>
	</g>
</g>
<g>
	<g>
		<polygon fill-rule="evenodd" clip-rule="evenodd" points="412.154,248.115 412.154,251.094 415.704,251.094 415.704,252.344 
			412.154,252.344 412.154,256.214 417.024,256.214 417.024,257.525 410.695,257.525 410.695,246.794 417.104,246.794 
			417.104,248.115 		"/>
	</g>
</g>
<g>
	<g>
		<path fill-rule="evenodd" clip-rule="evenodd" d="M174.075,116.035l-0.49,1.26c-0.47-0.34-1.21-0.52-2.21-0.52
			c-0.95,0-1.7,0.41-2.27,1.22c-0.57,0.81-0.85,1.86-0.85,3.13c0,1.23,0.29,2.22,0.87,2.97c0.58,0.76,1.34,1.14,2.26,1.14
			c1.01,0,1.78-0.35,2.32-1.07l0.81,1.13c-0.85,0.84-1.95,1.26-3.28,1.26c-1.4,0-2.51-0.5-3.31-1.51c-0.81-1.01-1.21-2.35-1.21-4
			c0-1.6,0.43-2.93,1.29-3.99c0.86-1.06,1.97-1.59,3.33-1.59C172.505,115.465,173.415,115.655,174.075,116.035z"/>
	</g>
</g>
<line fill-rule="evenodd" clip-rule="evenodd" fill="none" stroke="#000000" stroke-width="0.75" stroke-linecap="round" stroke-linejoin="round" stroke-dasharray="6,3,3,3" x1="222.145" y1="269.285" x2="139.645" y2="0.375"/>
<path fill-rule="evenodd" clip-rule="evenodd" fill="#FFFFFF" stroke="#000000" stroke-width="0.75" stroke-linejoin="bevel" d="
	M172.225,111.085c-0.04-0.78,0.57-1.45,1.35-1.5c0.79-0.04,1.46,0.57,1.5,1.35c0.04,0.79-0.56,1.46-1.35,1.5
	C172.945,112.485,172.265,111.875,172.225,111.085z"/>
</svg>
