<?xml version="1.0" encoding="utf-8"?>
<!-- Generator: Adobe Illustrator 14.0.0, SVG Export Plug-In . SVG Version: 6.00 Build 43363)  -->
<!DOCTYPE svg PUBLIC "-//W3C//DTD SVG 1.0//EN" "http://www.w3.org/TR/2001/REC-SVG-20010904/DTD/svg10.dtd">
<svg version="1.0" id="Layer_1" xmlns="http://www.w3.org/2000/svg" xmlns:xlink="http://www.w3.org/1999/xlink" x="0px" y="0px"
	 width="348.67px" height="103.965px" viewBox="0 0 348.67 103.965" enable-background="new 0 0 348.67 103.965"
	 xml:space="preserve">
<line fill-rule="evenodd" clip-rule="evenodd" fill="none" stroke="#19AD00" stroke-linecap="round" stroke-linejoin="bevel" x1="284.331" y1="62.141" x2="267.55" y2="58.75"/>
<path fill-rule="evenodd" clip-rule="evenodd" fill="#19AD00" d="M267.791,58.8l0.25-1.229c0.029-0.18-0.261-0.38-0.44-0.341
	l-3.189,0.631c-0.12,0.02-0.271,0.08-0.291,0.189c-0.029,0.12,0.09,0.23,0.19,0.3L267,60.17
	C267.161,60.271,267.51,60.2,267.791,58.8z"/>
<path fill-rule="evenodd" clip-rule="evenodd" fill="none" stroke="#19AD00" stroke-linecap="round" stroke-linejoin="bevel" d="
	M174.47,94.11c-8.32-7.65-11.2-16.19-5.5-23.99"/>
<path fill-rule="evenodd" clip-rule="evenodd" fill="#19AD00" d="M168.83,70.33l1,0.73c0.15,0.109,0.46-0.07,0.5-0.25l0.76-3.16
	c0.03-0.12,0.04-0.28-0.05-0.351c-0.1-0.07-0.25-0.01-0.35,0.05l-2.78,1.69C167.75,69.13,167.67,69.479,168.83,70.33z"/>
<line fill-rule="evenodd" clip-rule="evenodd" fill="none" stroke="#19AD00" stroke-linecap="round" stroke-linejoin="bevel" x1="64.2" y1="62.591" x2="80.36" y2="58.62"/>
<path fill-rule="evenodd" clip-rule="evenodd" fill="#19AD00" d="M80.12,58.68l0.3,1.221c0.04,0.18,0.39,0.229,0.54,0.12l2.62-1.93
	c0.09-0.07,0.21-0.181,0.18-0.301c-0.03-0.11-0.19-0.16-0.3-0.18l-3.21-0.5C80.06,57.08,79.77,57.29,80.12,58.68z"/>
<polyline fill-rule="evenodd" clip-rule="evenodd" fill="none" stroke="#19AD00" stroke-width="2" stroke-linecap="round" stroke-linejoin="bevel" points="
	4.25,18.78 89.25,56.44 174.26,62.591 258.65,56.44 344.411,18.78 "/>
<g>
	<path fill-rule="evenodd" clip-rule="evenodd" fill="#DEDEDE" d="M4.25,18.78v85.04h340.161V18.78
		C229.3,119.091,115.91,119.37,4.25,18.78z"/>
	<path fill-rule="evenodd" clip-rule="evenodd" fill="none" stroke="#999999" stroke-width="2" stroke-linejoin="bevel" d="
		M344.411,18.78c-115.11,100.311-228.5,100.59-340.161,0"/>
</g>
<polyline fill-rule="evenodd" clip-rule="evenodd" fill="none" stroke="#E30000" stroke-width="2" stroke-linecap="round" stroke-linejoin="bevel" points="
	4.25,18.78 62.8,62.19 174.47,94.11 284.42,62.08 344.411,18.78 "/>
<line fill-rule="evenodd" clip-rule="evenodd" fill="none" stroke="#E30000" stroke-linecap="round" stroke-linejoin="bevel" x1="89.29" y1="18.78" x2="68.81" y2="54.63"/>
<path fill-rule="evenodd" clip-rule="evenodd" fill="#E30000" d="M68.93,54.42l-1.09-0.62c-0.16-0.1-0.44,0.12-0.46,0.31l-0.4,3.22
	c-0.02,0.12-0.01,0.28,0.09,0.34s0.25-0.02,0.34-0.09l2.57-1.98C70.13,55.479,70.18,55.13,68.93,54.42z"/>
<line fill-rule="evenodd" clip-rule="evenodd" fill="none" stroke="#E30000" stroke-linecap="round" stroke-linejoin="bevel" x1="174.1" y1="18.78" x2="174.331" y2="84.17"/>
<path fill-rule="evenodd" clip-rule="evenodd" fill="#E30000" d="M174.331,83.92h-1.25c-0.18,0-0.32,0.33-0.25,0.5l1.26,3
	c0.05,0.11,0.14,0.25,0.25,0.25c0.119,0,0.21-0.149,0.25-0.25l1.24-3.01C175.9,84.24,175.77,83.91,174.331,83.92z"/>
<line fill-rule="evenodd" clip-rule="evenodd" fill="none" stroke="#E30000" stroke-linecap="round" stroke-linejoin="bevel" x1="259.45" y1="18.78" x2="279.62" y2="54.08"/>
<path fill-rule="evenodd" clip-rule="evenodd" fill="#E30000" d="M279.5,53.87l-1.079,0.62c-0.171,0.09-0.12,0.439,0.029,0.55
	l2.57,1.99c0.09,0.069,0.24,0.149,0.34,0.09s0.11-0.22,0.09-0.34l-0.399-3.23C281.03,53.37,280.75,53.15,279.5,53.87z"/>
<line fill-rule="evenodd" clip-rule="evenodd" fill="none" stroke="#000000" stroke-width="4" stroke-linecap="round" stroke-linejoin="bevel" x1="4.25" y1="18.78" x2="344.411" y2="18.78"/>
<g>
	<path d="M10.781,93.499v7.23H9.258v-7.23h-2.73v-1.354h7.107v1.354H10.781z"/>
	<path d="M18.604,100.729v-3.867c0-0.387-0.121-0.697-0.363-0.932s-0.559-0.352-0.949-0.352c-0.242,0-0.486,0.065-0.732,0.196
		s-0.422,0.28-0.527,0.448v4.506h-1.488v-8.613l1.488-0.352v3.088c0.379-0.344,0.9-0.516,1.564-0.516
		c0.785,0,1.395,0.218,1.828,0.653s0.65,1.06,0.65,1.872v3.867H18.604z"/>
	<path d="M27.381,97.226c0,0.18-0.041,0.451-0.123,0.814h-4.482c0.027,0.5,0.199,0.889,0.516,1.166s0.742,0.416,1.277,0.416
		c0.668,0,1.176-0.174,1.523-0.521l0.568,1.119c-0.516,0.418-1.285,0.627-2.309,0.627c-0.957,0-1.714-0.28-2.271-0.841
		s-0.835-1.343-0.835-2.347c0-0.988,0.306-1.789,0.917-2.402s1.345-0.92,2.2-0.92c0.91,0,1.641,0.271,2.191,0.814
		S27.381,96.386,27.381,97.226L27.381,97.226z M24.387,95.562c-0.836,0-1.355,0.459-1.559,1.377h3.082
		C25.809,96.021,25.301,95.562,24.387,95.562L24.387,95.562z"/>
	<path d="M31.781,100.325l0.521-1.166c0.438,0.348,0.932,0.521,1.482,0.521c0.57,0,0.855-0.203,0.855-0.609
		c0-0.238-0.086-0.434-0.258-0.586s-0.506-0.332-1.002-0.539c-1.082-0.449-1.623-1.078-1.623-1.887c0-0.543,0.207-0.966,0.621-1.269
		s0.943-0.454,1.588-0.454c0.652,0,1.266,0.146,1.84,0.439l-0.422,1.137c-0.32-0.273-0.766-0.41-1.336-0.41
		c-0.512,0-0.768,0.203-0.768,0.609c0,0.16,0.084,0.305,0.252,0.434s0.527,0.302,1.078,0.519s0.947,0.479,1.189,0.788
		s0.363,0.682,0.363,1.119c0,0.582-0.216,1.04-0.647,1.374s-1.019,0.501-1.761,0.501c-0.418,0-0.753-0.034-1.005-0.103
		S32.176,100.536,31.781,100.325z"/>
	<path d="M41.379,100.735v-0.527c-0.207,0.176-0.492,0.326-0.855,0.451s-0.697,0.188-1.002,0.188c-1.457,0-2.186-0.773-2.186-2.32
		v-4.072h1.465v3.961c0,0.805,0.361,1.207,1.084,1.207c0.332,0,0.641-0.086,0.926-0.258s0.475-0.371,0.568-0.598v-4.313h1.465v6.281
		H41.379z"/>
	<path d="M48.053,95.819c-0.262-0.172-0.549-0.258-0.861-0.258c-0.34,0-0.642,0.154-0.905,0.463s-0.396,0.686-0.396,1.131v3.574
		h-1.465v-6.275h1.465v0.574c0.41-0.461,0.955-0.691,1.635-0.691c0.5,0,0.883,0.076,1.148,0.229L48.053,95.819z"/>
	<path d="M53.051,93.224c-0.32-0.105-0.566-0.158-0.738-0.158c-0.277,0-0.513,0.119-0.706,0.357s-0.29,0.531-0.29,0.879
		c0,0.051,0.002,0.102,0.006,0.152h1.301v1.207h-1.277v5.068h-1.465v-5.068h-0.914v-1.207h0.92c0.031-0.77,0.259-1.391,0.683-1.863
		s0.972-0.709,1.644-0.709c0.348,0,0.771,0.076,1.271,0.229L53.051,93.224z"/>
	<path d="M57.48,100.103c-0.133,0.219-0.364,0.397-0.694,0.536s-0.675,0.208-1.034,0.208c-0.676,0-1.207-0.169-1.594-0.507
		s-0.58-0.817-0.58-1.438c0-0.727,0.272-1.295,0.817-1.705s1.319-0.615,2.323-0.615c0.172,0,0.375,0.029,0.609,0.088
		c0-0.738-0.467-1.107-1.4-1.107c-0.551,0-1.012,0.092-1.383,0.275L54.229,94.7c0.504-0.242,1.104-0.363,1.799-0.363
		c0.957,0,1.658,0.218,2.104,0.653s0.668,1.261,0.668,2.476v1.342c0,0.836,0.168,1.361,0.504,1.576
		c-0.121,0.211-0.256,0.341-0.404,0.39s-0.318,0.073-0.51,0.073c-0.211,0-0.4-0.078-0.568-0.234S57.539,100.286,57.48,100.103z
		 M57.34,97.776c-0.25-0.051-0.438-0.076-0.563-0.076c-1.156,0-1.734,0.379-1.734,1.137c0,0.563,0.326,0.844,0.979,0.844
		c0.879,0,1.318-0.439,1.318-1.318V97.776z"/>
	<path d="M63.398,94.337c0.73,0,1.365,0.205,1.904,0.615l-0.627,1.096c-0.344-0.324-0.805-0.486-1.383-0.486
		c-0.555,0-0.993,0.185-1.315,0.554s-0.483,0.88-0.483,1.532c0,1.316,0.627,1.975,1.881,1.975c0.543,0,1.021-0.18,1.436-0.539
		l0.539,1.154c-0.426,0.266-0.798,0.434-1.116,0.504s-0.694,0.105-1.128,0.105c-0.969,0-1.733-0.282-2.294-0.847
		s-0.841-1.349-0.841-2.353c0-0.988,0.307-1.787,0.92-2.396S62.34,94.337,63.398,94.337L63.398,94.337z"/>
	<path d="M72.246,97.226c0,0.18-0.041,0.451-0.123,0.814h-4.482c0.027,0.5,0.199,0.889,0.516,1.166s0.742,0.416,1.277,0.416
		c0.668,0,1.176-0.174,1.523-0.521l0.568,1.119c-0.516,0.418-1.285,0.627-2.309,0.627c-0.957,0-1.714-0.28-2.271-0.841
		s-0.835-1.343-0.835-2.347c0-0.988,0.306-1.789,0.917-2.402s1.345-0.92,2.2-0.92c0.91,0,1.641,0.271,2.191,0.814
		S72.246,96.386,72.246,97.226L72.246,97.226z M69.252,95.562c-0.836,0-1.355,0.459-1.559,1.377h3.082
		C70.674,96.021,70.166,95.562,69.252,95.562L69.252,95.562z"/>
</g>
<path fill-rule="evenodd" clip-rule="evenodd" d="M0,18.78c0-2.35,1.91-4.25,4.26-4.25c2.34,0,4.25,1.9,4.25,4.25
	c0,2.34-1.91,4.25-4.25,4.25C1.91,23.03,0,21.12,0,18.78z"/>
<path fill-rule="evenodd" clip-rule="evenodd" fill="#FFFFFF" stroke="#000000" stroke-width="2" stroke-linecap="round" d="
	M85.04,18.78c0-2.35,1.91-4.25,4.26-4.25c2.34,0,4.25,1.9,4.25,4.25c0,2.34-1.91,4.25-4.25,4.25
	C86.95,23.03,85.04,21.12,85.04,18.78z"/>
<path fill-rule="evenodd" clip-rule="evenodd" fill="#FFFFFF" stroke="#000000" stroke-width="2" stroke-linecap="round" d="
	M170.08,18.78c0-2.35,1.91-4.25,4.26-4.25c2.34,0,4.25,1.9,4.25,4.25c0,2.34-1.91,4.25-4.25,4.25
	C171.99,23.03,170.08,21.12,170.08,18.78z"/>
<path fill-rule="evenodd" clip-rule="evenodd" fill="#FFFFFF" stroke="#000000" stroke-width="2" stroke-linecap="round" d="
	M255.12,18.78c0-2.35,1.91-4.25,4.25-4.25c2.351,0,4.261,1.9,4.261,4.25c0,2.34-1.91,4.25-4.261,4.25
	C257.03,23.03,255.12,21.12,255.12,18.78z"/>
<path fill-rule="evenodd" clip-rule="evenodd" d="M340.161,18.78c0-2.35,1.909-4.25,4.25-4.25c2.35,0,4.26,1.9,4.26,4.25
	c0,2.34-1.91,4.25-4.26,4.25C342.07,23.03,340.161,21.12,340.161,18.78z"/>
<g>
	<path d="M4.691,3.06v7.23H3.168V3.06h-2.73V1.706h7.107V3.06H4.691z"/>
	<path d="M12.514,10.29V6.423c0-0.387-0.121-0.697-0.363-0.932S11.592,5.14,11.201,5.14c-0.242,0-0.486,0.065-0.732,0.196
		s-0.422,0.28-0.527,0.448v4.506H8.453V1.677l1.488-0.352v3.088c0.379-0.344,0.9-0.516,1.564-0.516c0.785,0,1.395,0.218,1.828,0.653
		s0.65,1.06,0.65,1.872v3.867H12.514z"/>
	<path d="M21.168,7.601h-4.482c0.027,0.5,0.199,0.889,0.516,1.166s0.742,0.416,1.277,0.416c0.668,0,1.176-0.174,1.523-0.521
		L20.57,9.78c-0.516,0.418-1.285,0.627-2.309,0.627c-0.957,0-1.714-0.28-2.271-0.841s-0.835-1.343-0.835-2.347
		c0-0.988,0.306-1.789,0.917-2.402s1.345-0.92,2.2-0.92c0.91,0,1.641,0.271,2.191,0.814s0.826,1.234,0.826,2.074
		C21.291,6.966,21.25,7.237,21.168,7.601z M16.738,6.499h3.082c-0.102-0.918-0.609-1.377-1.523-1.377
		C17.461,5.122,16.941,5.581,16.738,6.499z"/>
	<path d="M25.668,7.138c0-0.957,0.276-1.736,0.829-2.338s1.282-0.902,2.188-0.902c0.953,0,1.693,0.289,2.221,0.867
		s0.791,1.369,0.791,2.373c0,1-0.269,1.795-0.806,2.385s-1.272,0.885-2.206,0.885c-0.953,0-1.694-0.298-2.224-0.894
		S25.668,8.126,25.668,7.138z M27.191,7.138c0,1.383,0.498,2.074,1.494,2.074c0.457,0,0.819-0.18,1.087-0.539
		s0.401-0.871,0.401-1.535c0-1.363-0.496-2.045-1.488-2.045c-0.457,0-0.82,0.18-1.09,0.539S27.191,6.493,27.191,7.138z"/>
	<path d="M36.496,5.38c-0.262-0.172-0.549-0.258-0.861-0.258c-0.34,0-0.642,0.154-0.905,0.463s-0.396,0.686-0.396,1.131v3.574
		h-1.465V4.015h1.465v0.574c0.41-0.461,0.955-0.691,1.635-0.691c0.5,0,0.883,0.076,1.148,0.229L36.496,5.38z"/>
	<path d="M38.389,10.29V5.216h-0.803V4.015h2.285v6.275H38.389z M39.145,1.583c0.234,0,0.435,0.083,0.601,0.249
		s0.249,0.366,0.249,0.601s-0.083,0.435-0.249,0.601s-0.366,0.249-0.601,0.249s-0.435-0.083-0.601-0.249s-0.249-0.366-0.249-0.601
		s0.083-0.435,0.249-0.601S38.91,1.583,39.145,1.583z"/>
	<path d="M41.107,11.901l0.926-1.143c0.512,0.469,1.082,0.703,1.711,0.703c0.422,0,0.77-0.063,1.043-0.188s0.41-0.297,0.41-0.516
		c0-0.371-0.303-0.557-0.908-0.557c-0.164,0-0.408,0.02-0.732,0.059s-0.568,0.059-0.732,0.059c-1.008,0-1.512-0.361-1.512-1.084
		c0-0.207,0.084-0.41,0.252-0.609s0.363-0.346,0.586-0.439c-0.715-0.465-1.072-1.123-1.072-1.975c0-0.672,0.246-1.228,0.738-1.667
		s1.098-0.659,1.816-0.659c0.563,0,1.033,0.105,1.412,0.316l0.574-0.668l1.014,0.92l-0.697,0.51
		c0.242,0.367,0.363,0.801,0.363,1.301c0,0.715-0.218,1.286-0.653,1.714S44.66,8.62,43.996,8.62c-0.105,0-0.246-0.01-0.422-0.029
		l-0.24-0.035c-0.027,0-0.132,0.042-0.313,0.126s-0.272,0.171-0.272,0.261c0,0.156,0.135,0.234,0.404,0.234
		c0.121,0,0.324-0.029,0.609-0.088s0.529-0.088,0.732-0.088c1.426,0,2.139,0.572,2.139,1.717c0,0.633-0.285,1.13-0.855,1.491
		s-1.258,0.542-2.063,0.542C42.754,12.751,41.885,12.468,41.107,11.901z M42.572,6.218c0,0.371,0.103,0.669,0.308,0.894
		s0.481,0.337,0.829,0.337s0.615-0.109,0.803-0.328s0.281-0.52,0.281-0.902c0-0.316-0.101-0.584-0.302-0.803
		s-0.462-0.328-0.782-0.328c-0.336,0-0.609,0.105-0.82,0.316S42.572,5.886,42.572,6.218z"/>
	<path d="M47.992,10.29V5.216h-0.803V4.015h2.285v6.275H47.992z M48.748,1.583c0.234,0,0.435,0.083,0.601,0.249
		s0.249,0.366,0.249,0.601s-0.083,0.435-0.249,0.601s-0.366,0.249-0.601,0.249s-0.435-0.083-0.601-0.249s-0.249-0.366-0.249-0.601
		s0.083-0.435,0.249-0.601S48.514,1.583,48.748,1.583z"/>
	<path d="M55.217,10.29V6.663c0-0.535-0.103-0.926-0.308-1.172s-0.54-0.369-1.005-0.369c-0.215,0-0.444,0.061-0.688,0.182
		s-0.435,0.271-0.571,0.451v4.535H51.18V4.015h1.055l0.27,0.586c0.398-0.469,0.986-0.703,1.764-0.703
		c0.746,0,1.335,0.224,1.767,0.671s0.647,1.071,0.647,1.872v3.85H55.217z"/>
	<path d="M61.756,9.663c-0.133,0.219-0.364,0.397-0.694,0.536s-0.675,0.208-1.034,0.208c-0.676,0-1.207-0.169-1.594-0.507
		s-0.58-0.817-0.58-1.438c0-0.727,0.272-1.295,0.817-1.705s1.319-0.615,2.323-0.615c0.172,0,0.375,0.029,0.609,0.088
		c0-0.738-0.467-1.107-1.4-1.107c-0.551,0-1.012,0.092-1.383,0.275l-0.316-1.137c0.504-0.242,1.104-0.363,1.799-0.363
		c0.957,0,1.658,0.218,2.104,0.653s0.668,1.261,0.668,2.476v1.342c0,0.836,0.168,1.361,0.504,1.576
		c-0.121,0.211-0.256,0.341-0.404,0.39s-0.318,0.073-0.51,0.073c-0.211,0-0.4-0.078-0.568-0.234S61.814,9.847,61.756,9.663z
		 M61.615,7.337c-0.25-0.051-0.438-0.076-0.563-0.076c-1.156,0-1.734,0.379-1.734,1.137c0,0.563,0.326,0.844,0.979,0.844
		c0.879,0,1.318-0.439,1.318-1.318V7.337z"/>
	<path d="M64.908,1.677l1.465-0.352V8.38c0,0.773,0.23,1.234,0.691,1.383c-0.227,0.43-0.613,0.645-1.16,0.645
		c-0.664,0-0.996-0.461-0.996-1.383V1.677z"/>
	<path d="M73.158,10.132v2.619h-1.465V4.015h1.465v0.422c0.367-0.359,0.818-0.539,1.354-0.539c2,0,3,1.102,3,3.305
		c0,1.027-0.276,1.818-0.829,2.373s-1.308,0.832-2.265,0.832C73.957,10.407,73.537,10.315,73.158,10.132z M73.158,5.55v3.299
		c0.266,0.215,0.576,0.322,0.932,0.322c0.676,0,1.161-0.161,1.456-0.483s0.442-0.831,0.442-1.526c0-0.742-0.146-1.265-0.439-1.567
		S74.771,5.14,74.096,5.14C73.744,5.14,73.432,5.276,73.158,5.55z"/>
	<path d="M78.391,7.138c0-0.957,0.276-1.736,0.829-2.338s1.282-0.902,2.188-0.902c0.953,0,1.693,0.289,2.221,0.867
		s0.791,1.369,0.791,2.373c0,1-0.269,1.795-0.806,2.385s-1.272,0.885-2.206,0.885c-0.953,0-1.694-0.298-2.224-0.894
		S78.391,8.126,78.391,7.138z M79.914,7.138c0,1.383,0.498,2.074,1.494,2.074c0.457,0,0.819-0.18,1.087-0.539
		s0.401-0.871,0.401-1.535c0-1.363-0.496-2.045-1.488-2.045c-0.457,0-0.82,0.18-1.09,0.539S79.914,6.493,79.914,7.138z"/>
	<path d="M85.844,1.677l1.465-0.352V8.38c0,0.773,0.23,1.234,0.691,1.383c-0.227,0.43-0.613,0.645-1.16,0.645
		c-0.664,0-0.996-0.461-0.996-1.383V1.677z"/>
	<path d="M91.908,11.298c-0.156,0.418-0.491,0.765-1.005,1.04s-1.112,0.413-1.796,0.413v-1.295c1.129,0,1.693-0.283,1.693-0.85
		c0-0.375-0.156-0.949-0.469-1.723l-1.963-4.869h1.518l1.711,4.336l1.541-4.336h1.518L91.908,11.298z"/>
	<path d="M95.787,1.677l1.465-0.352V8.38c0,0.773,0.23,1.234,0.691,1.383c-0.227,0.43-0.613,0.645-1.16,0.645
		c-0.664,0-0.996-0.461-0.996-1.383V1.677z"/>
	<path d="M99.467,10.29V5.216h-0.803V4.015h2.285v6.275H99.467z M100.223,1.583c0.234,0,0.435,0.083,0.601,0.249
		s0.249,0.366,0.249,0.601s-0.083,0.435-0.249,0.601s-0.366,0.249-0.601,0.249s-0.435-0.083-0.601-0.249s-0.249-0.366-0.249-0.601
		s0.083-0.435,0.249-0.601S99.988,1.583,100.223,1.583z"/>
	<path d="M106.691,10.29V6.663c0-0.535-0.103-0.926-0.308-1.172s-0.54-0.369-1.005-0.369c-0.215,0-0.444,0.061-0.688,0.182
		s-0.435,0.271-0.571,0.451v4.535h-1.465V4.015h1.055l0.27,0.586c0.398-0.469,0.986-0.703,1.764-0.703
		c0.746,0,1.335,0.224,1.767,0.671s0.647,1.071,0.647,1.872v3.85H106.691z"/>
	<path d="M115.34,7.601h-4.482c0.027,0.5,0.199,0.889,0.516,1.166s0.742,0.416,1.277,0.416c0.668,0,1.176-0.174,1.523-0.521
		l0.568,1.119c-0.516,0.418-1.285,0.627-2.309,0.627c-0.957,0-1.714-0.28-2.271-0.841s-0.835-1.343-0.835-2.347
		c0-0.988,0.306-1.789,0.917-2.402s1.345-0.92,2.2-0.92c0.91,0,1.641,0.271,2.191,0.814s0.826,1.234,0.826,2.074
		C115.463,6.966,115.422,7.237,115.34,7.601z M110.91,6.499h3.082c-0.102-0.918-0.609-1.377-1.523-1.377
		C111.633,5.122,111.113,5.581,110.91,6.499z"/>
</g>
<path fill-rule="evenodd" clip-rule="evenodd" fill="#FFFFFF" stroke="#E30000" stroke-width="2" stroke-linecap="round" d="
	M59.94,62.591c0-2.341,1.91-4.25,4.26-4.25c2.34,0,4.25,1.909,4.25,4.25c0,2.35-1.91,4.25-4.25,4.25
	C61.85,66.841,59.94,64.94,59.94,62.591z"/>
<path fill-rule="evenodd" clip-rule="evenodd" fill="#FFFFFF" stroke="#E30000" stroke-width="2" stroke-linecap="round" d="
	M169.85,94.11c0-2.34,1.9-4.25,4.25-4.25c2.35,0,4.25,1.91,4.25,4.25c0,2.35-1.9,4.25-4.25,4.25
	C171.75,98.36,169.85,96.46,169.85,94.11z"/>
<path fill-rule="evenodd" clip-rule="evenodd" fill="#FFFFFF" stroke="#E30000" stroke-width="2" stroke-linecap="round" d="
	M280.17,62.08c0-2.34,1.91-4.25,4.25-4.25c2.35,0,4.25,1.91,4.25,4.25c0,2.35-1.9,4.261-4.25,4.261
	C282.081,66.341,280.17,64.43,280.17,62.08z"/>
<path fill-rule="evenodd" clip-rule="evenodd" fill="#FFFFFF" stroke="#19AD00" stroke-width="2" stroke-linecap="round" d="
	M170.01,62.591c0-2.341,1.91-4.25,4.25-4.25c2.351,0,4.25,1.909,4.25,4.25c0,2.35-1.899,4.259-4.25,4.259
	C171.92,66.85,170.01,64.94,170.01,62.591z"/>
<path fill-rule="evenodd" clip-rule="evenodd" fill="#FFFFFF" stroke="#19AD00" stroke-width="2" stroke-linecap="round" d="
	M84.99,56.44c0-2.34,1.91-4.25,4.26-4.25c2.34,0,4.25,1.91,4.25,4.25c0,2.35-1.91,4.25-4.25,4.25
	C86.9,60.69,84.99,58.79,84.99,56.44z"/>
<path fill-rule="evenodd" clip-rule="evenodd" fill="#FFFFFF" stroke="#19AD00" stroke-width="2" stroke-linecap="round" d="
	M262.9,56.44c0-2.34-1.9-4.25-4.25-4.25s-4.25,1.91-4.25,4.25c0,2.35,1.9,4.25,4.25,4.25S262.9,58.79,262.9,56.44z"/>
</svg>
