<?xml version="1.0" encoding="utf-8"?>
<!-- Generator: Adobe Illustrator 14.0.0, SVG Export Plug-In . SVG Version: 6.00 Build 43363)  -->
<!DOCTYPE svg PUBLIC "-//W3C//DTD SVG 1.0//EN" "http://www.w3.org/TR/2001/REC-SVG-20010904/DTD/svg10.dtd">
<svg version="1.0" id="Layer_1" xmlns="http://www.w3.org/2000/svg" xmlns:xlink="http://www.w3.org/1999/xlink" x="0px" y="0px"
	 width="502.901px" height="102.977px" viewBox="0 0 502.901 102.977" enable-background="new 0 0 502.901 102.977"
	 xml:space="preserve">
<g>
	<defs>
		<path id="SVGID_1_" d="M103.407,13.742c-3.651,1.71-6.255,5.857-7.822,9.183c-1.726,3.654-2.897,7.746-3.592,11.707v0.001
			c9.082-3.192,15.875-6.399,25.906-6.667c0.307-4.043-0.379-8.282-3.344-11.454c-1.387-1.481-3.209-2.627-5.16-3.197
			c-0.835-0.245-1.665-0.369-2.487-0.369C105.721,12.946,104.551,13.206,103.407,13.742"/>
	</defs>
	<clipPath id="SVGID_2_">
		<use xlink:href="#SVGID_1_"  overflow="visible"/>
	</clipPath>
	
		<linearGradient id="SVGID_3_" gradientUnits="userSpaceOnUse" x1="-158.3667" y1="352.8633" x2="-157.367" y2="352.8633" gradientTransform="matrix(-15.6632 -13.379 -13.379 15.6632 2355.0928 -7613.8179)">
		<stop  offset="0" style="stop-color:#F9F9F9"/>
		<stop  offset="1" style="stop-color:#939393"/>
	</linearGradient>
	<polygon clip-path="url(#SVGID_2_)" fill="url(#SVGID_3_)" points="107.148,47.578 81.283,25.484 103.05,0 128.916,22.094 	"/>
</g>
<g>
	<defs>
		<path id="SVGID_4_" d="M85.652,18.823c-5.602,2.14-13.89,5.563-19.376,7.998c-2.434,1.083-4.849,2.216-7.274,3.322
			c-2.049,0.933-5.218,2.349-7.482,2.78c-1.269,0.241-2.451,0.072-3.681-0.157c-0.639-0.118-1.273-0.251-1.906-0.398
			c-1.26-0.29-2.506-0.633-3.745-0.989c-4.847-1.387-9.647-2.9-14.616-3.86c-2.503-0.479-4.898-0.441-7.365,0.261
			c-3.085,0.878-5.692,2.67-7.891,4.914c-2.604,2.663-4.653,5.968-6.171,9.326c-1.755,3.877-2.829,7.845-3.537,12.019
			C1.76,59.04,1.439,64.659,1.496,69.719c0.058,5.285,0.57,10.458,1.634,15.642c0.01,0.041,0.016,0.082,0.026,0.125
			c0.004,0.014-0.012,0.036,0.01,0.036c0.004,0,0.007,0.003,0.014,0.003h0.019h0.039c0.029,0.004,0.059,0.004,0.085,0.006
			c0.056,0,0.111,0.004,0.166,0.008c0.111,0.006,0.219,0.01,0.33,0.016c0.222,0.01,0.441,0.023,0.662,0.033
			c0.869,0.043,1.74,0.088,2.607,0.137c1.681,0.091,3.365,0.189,5.046,0.291c6.871,0.414,13.741,0.88,20.613,1.259
			c6.416,0.353,13.594,0.584,19.983,1.384c2.282,0.287,4.552,0.633,6.824,0.973c2.682,0.398,5.368,0.777,8.063,1.093
			c3.413,0.401,6.83,0.737,10.253,1.054c2,0.184,4,0.359,6.001,0.535c1.074,0.092,2.147,0.186,3.22,0.277
			c0.558,0.05,1.113,0.096,1.671,0.144c0.284,0.026,0.565,0.05,0.848,0.075c0.144,0.01,0.285,0.023,0.428,0.036
			c0.072,0.004,0.144,0.01,0.216,0.017c0.019,0.004,0.036,0.004,0.055,0.006h0.013h0.007c0.019,0.004,0.003-0.019,0.003-0.028
			c0-0.023,0.003-0.046,0.003-0.069c0.01-0.176,0.02-0.359,0.03-0.535c0.042-0.717,0.081-1.433,0.12-2.148
			c0.375-6.766,0.718-13.527,0.799-20.305c0.04-3.384-0.002-6.768-0.084-10.151c-0.085-3.384-0.189-6.765-0.203-10.149
			c-0.019-4.431,0.098-8.821,0.738-13.223c0.561-3.866,1.475-7.567,2.927-11.208c1.103-2.764,2.575-5.594,4.523-7.897
			c1.406-1.664,3.155-3.162,5.318-3.837C97.997,14.505,91.807,16.47,85.652,18.823"/>
	</defs>
	<clipPath id="SVGID_5_">
		<use xlink:href="#SVGID_4_"  overflow="visible"/>
	</clipPath>
	
		<linearGradient id="SVGID_6_" gradientUnits="userSpaceOnUse" x1="-150.3701" y1="349.2432" x2="-149.3701" y2="349.2432" gradientTransform="matrix(1.3053 -72.1158 -72.1158 -1.3053 25434.6406 -10300.6953)">
		<stop  offset="0" style="stop-color:#F6F6F6"/>
		<stop  offset="1" style="stop-color:#BCBCBC"/>
	</linearGradient>
	<polygon clip-path="url(#SVGID_5_)" fill="url(#SVGID_6_)" points="0,92.844 1.474,11.45 105.942,13.341 104.469,94.734 	"/>
</g>
<g>
	<defs>
		<rect id="SVGID_7_" x="0.625" y="12.113" width="118.397" height="81.369"/>
	</defs>
	<clipPath id="SVGID_8_">
		<use xlink:href="#SVGID_7_"  overflow="visible"/>
	</clipPath>
	
		<path clip-path="url(#SVGID_8_)" fill="none" stroke="#000000" stroke-width="0.979" stroke-linecap="round" stroke-linejoin="round" d="
		M106.749,12.945c0.875-0.016,1.756,0.108,2.646,0.369c1.952,0.571,3.773,1.716,5.159,3.198c2.967,3.171,3.652,7.41,3.345,11.453
		c-10.031,0.268-16.825,3.476-25.906,6.667"/>
	
		<path clip-path="url(#SVGID_8_)" fill="none" stroke="#000000" stroke-width="0.979" stroke-linecap="round" stroke-linejoin="round" d="
		M104.52,13.308c0.734-0.228,1.478-0.346,2.229-0.362"/>
	
		<path clip-path="url(#SVGID_8_)" fill="none" stroke="#000000" stroke-width="0.979" stroke-linecap="round" stroke-linejoin="round" d="
		M104.503,13.314c-6.507,1.191-12.697,3.155-18.851,5.508c-5.603,2.141-13.892,5.564-19.377,7.998
		c-2.434,1.084-4.849,2.216-7.274,3.322c-2.049,0.933-5.217,2.35-7.482,2.78c-1.269,0.242-2.451,0.072-3.681-0.156
		c-0.639-0.118-1.272-0.252-1.906-0.398c-1.259-0.291-2.506-0.633-3.746-0.989c-4.845-1.387-9.646-2.901-14.615-3.86
		c-2.503-0.48-4.898-0.441-7.365,0.261c-3.084,0.877-5.691,2.669-7.891,4.914c-2.604,2.663-4.653,5.968-6.17,9.326
		c-1.756,3.877-2.829,7.845-3.538,12.018c-0.848,5.003-1.168,10.622-1.112,15.68C1.553,75.004,2.066,80.177,3.13,85.36
		c0.009,0.041,0.016,0.082,0.026,0.125c0.003,0.013-0.013,0.035,0.009,0.035c0.004,0,0.007,0.004,0.014,0.004h0.019h0.039
		c0.03,0.004,0.059,0.004,0.085,0.007c0.056,0,0.111,0.003,0.167,0.007c0.11,0.006,0.218,0.009,0.329,0.016
		c0.222,0.01,0.441,0.023,0.663,0.033c0.868,0.042,1.739,0.088,2.607,0.137c1.68,0.092,3.364,0.189,5.045,0.291
		c6.872,0.414,13.741,0.881,20.613,1.26c6.415,0.352,13.594,0.584,19.984,1.383c2.281,0.287,4.552,0.633,6.823,0.973
		c2.682,0.398,5.368,0.776,8.063,1.094c3.413,0.4,6.83,0.736,10.253,1.053c2,0.184,4.001,0.359,6.001,0.535
		c1.074,0.092,2.147,0.187,3.221,0.277c0.558,0.049,1.113,0.096,1.671,0.145c0.283,0.025,0.564,0.049,0.848,0.074
		c0.143,0.01,0.284,0.023,0.427,0.037c0.072,0.002,0.144,0.01,0.216,0.016c0.019,0.003,0.036,0.003,0.055,0.007h0.013h0.007
		c0.019,0.003,0.003-0.021,0.003-0.03c0-0.023,0.003-0.045,0.003-0.068c0.01-0.176,0.02-0.358,0.03-0.535
		c0.042-0.717,0.081-1.432,0.12-2.147c0.376-6.767,0.718-13.528,0.8-20.306c0.039-3.385-0.003-6.768-0.085-10.152
		c-0.085-3.384-0.189-6.764-0.202-10.148c-0.02-4.432,0.098-8.821,0.737-13.223"/>
	<path clip-path="url(#SVGID_8_)" d="M91.249,36.186c0.388-2.571,0.917-5.058,1.645-7.456c0.522-1.713,1.139-3.388,1.866-4.993
		c0.395-0.865,0.809-1.716,1.279-2.545c0.79-1.4,1.681-2.754,2.767-4.004c0.846-0.969,1.821-1.896,2.859-2.581
		c0.578-0.382,1.178-0.712,1.814-0.973c0.31-0.127,0.63-0.225,0.95-0.329c0.13-0.043,0.271,0.029,0.31,0.156
		c0.042,0.131-0.026,0.271-0.157,0.314c-0.695,0.225-1.344,0.554-1.958,0.943c-0.737,0.47-1.439,1.041-2.085,1.696
		c-0.378,0.382-0.724,0.777-1.067,1.178l0.007-0.006c-1.23,1.504-2.232,3.126-3.077,4.829C96.11,23,95.836,23.59,95.576,24.19
		c-0.127,0.287-0.248,0.574-0.366,0.864c-0.022,0.062-0.048,0.121-0.071,0.18c-0.004,0.01-0.007,0.019-0.01,0.026
		c-0.007,0.01-0.01,0.016-0.013,0.026c-0.003,0.01-0.007,0.016-0.01,0.026c-0.016,0.046-0.01,0.026-0.006,0.02
		c-0.47,1.204-0.908,2.424-1.28,3.677c-0.701,2.36-1.233,4.797-1.602,7.323c-0.042,0.267-0.29,0.45-0.558,0.411
		C91.393,36.702,91.209,36.454,91.249,36.186"/>
	
		<path clip-path="url(#SVGID_8_)" fill="none" stroke="#000000" stroke-width="0.653" stroke-linecap="round" stroke-linejoin="round" stroke-dasharray="1.305,1.305" d="
		M36.378,37.628c0.62-4.112-1.113-7.11-4.781-8.925c-1.073-0.528-2.238-0.933-3.449-1.201"/>
	
		<path clip-path="url(#SVGID_8_)" fill="none" stroke="#000000" stroke-width="0.653" stroke-linecap="round" stroke-linejoin="round" stroke-dasharray="1.305,1.305" d="
		M92.028,34.6c-4.621,1.625-9.28,3.09-14.139,4.056c-6.993,1.39-13.748,1.632-20.819,0.663c-3.459-0.477-6.866-1.237-10.305-1.805
		c-3.521-0.581-6.853-0.737-10.387,0.114"/>
	<g clip-path="url(#SVGID_8_)">
		<defs>
			<rect id="SVGID_9_" x="1.557" y="13.04" width="114.541" height="78.724"/>
		</defs>
		<clipPath id="SVGID_10_">
			<use xlink:href="#SVGID_9_"  overflow="visible"/>
		</clipPath>
		<g clip-path="url(#SVGID_10_)">
			<defs>
				<rect id="SVGID_11_" x="1.558" y="13.04" width="114.54" height="78.724"/>
			</defs>
			<clipPath id="SVGID_12_">
				<use xlink:href="#SVGID_11_"  overflow="visible"/>
			</clipPath>
			
				<path clip-path="url(#SVGID_12_)" fill="none" stroke="#000000" stroke-width="0.163" stroke-linecap="round" stroke-linejoin="round" stroke-dasharray="0.649,0.649" d="
				M98.303,14.708c2.32-0.61,4.653-1.136,7.009-1.586"/>
			
				<path clip-path="url(#SVGID_12_)" fill="none" stroke="#000000" stroke-width="0.163" stroke-linecap="round" stroke-linejoin="round" stroke-dasharray="0.649,0.649" d="
				M99.129,17.331c2.239,1.188,4.02,3.012,5.208,5.237c1.191,2.232,1.723,4.716,1.837,7.205"/>
			
				<path clip-path="url(#SVGID_12_)" fill="none" stroke="#000000" stroke-width="0.163" stroke-linecap="round" stroke-linejoin="round" stroke-dasharray="0.649,0.649" d="
				M91.385,64.575c-7.825-1.357-14.482-1.71-22.405-1.158c-3.743,0.262-7.476,0.639-11.212,0.975
				c-3.736,0.34-7.469,0.604-11.219,0.719c-6.895,0.209-15.611,0.059-22.499-0.241c-1.873-0.085-3.746-0.183-5.62-0.297
				c-1.873-0.118-3.742-0.245-5.619-0.291c-3.788-0.095-7.459,0.173-11.173,1.024"/>
			
				<path clip-path="url(#SVGID_12_)" fill="none" stroke="#000000" stroke-width="0.163" stroke-linecap="round" stroke-linejoin="round" stroke-dasharray="0.649,0.649" d="
				M27.61,86.97c0.16-6.06-0.179-10.484-0.522-16.521c-0.323-5.717-0.411-10.779,0.571-16.476c0.884-5.141,2.8-10.972,5.848-15.337
				c1.589-2.274,3.511-4.232,6.173-5.316c2.627-1.067,5.43-1.063,8.132-0.574"/>
			
				<path clip-path="url(#SVGID_12_)" fill="none" stroke="#000000" stroke-width="0.163" stroke-linecap="round" stroke-linejoin="round" stroke-dasharray="0.649,0.649" d="
				M11.833,85.987c0.163-6.604-0.532-11.286-1.025-17.836c-0.456-6.014-0.411-11.849,0.813-17.811
				c1.171-5.727,3.573-11.522,7.489-16.019c4.448-5.106,9.424-6.8,16.035-5.028"/>
			
				<path clip-path="url(#SVGID_12_)" fill="none" stroke="#000000" stroke-width="0.163" stroke-linecap="round" stroke-linejoin="round" stroke-dasharray="0.649,0.649" d="
				M76.962,91.683c-0.561-6.627-0.62-13.227-0.388-19.863c0.186-5.475,0.721-14.364,1.285-19.82
				c0.689-6.631,1.789-13.086,3.786-19.472c0.962-3.083,2.196-6.34,3.759-9.185c0.913-1.665,1.915-3.198,3.283-4.546
				c1.024-1.008,2.212-1.847,3.602-2.307"/>
			
				<path clip-path="url(#SVGID_12_)" fill="none" stroke="#000000" stroke-width="0.163" stroke-linecap="round" stroke-linejoin="round" stroke-dasharray="0.649,0.649" d="
				M66.223,90.544c-0.529-6.201-0.542-12.361-0.222-18.568c0.258-5.021,0.959-13.502,1.596-18.495
				c0.786-6.184,1.987-12.188,3.974-18.117c0.96-2.859,2.17-5.887,3.668-8.52c0.868-1.524,1.818-2.931,3.077-4.174
				c1.002-0.985,2.059-1.746,3.381-2.258"/>
			
				<path clip-path="url(#SVGID_12_)" fill="none" stroke="#000000" stroke-width="0.163" stroke-linecap="round" stroke-linejoin="round" stroke-dasharray="0.649,0.649" d="
				M91.098,50.429c-7.962-0.225-14.394,0.503-22.196,1.938c-7.6,1.399-14.27,2.918-22.01,3.567
				c-7.238,0.604-15.066,0.488-22.284-0.229c-1.863-0.183-3.72-0.412-5.57-0.689c-1.828-0.273-3.649-0.59-5.489-0.803
				c-3.808-0.439-7.329-0.346-11.026,0.938"/>
			
				<path clip-path="url(#SVGID_12_)" fill="none" stroke="#000000" stroke-width="0.163" stroke-linecap="round" stroke-linejoin="round" stroke-dasharray="0.649,0.649" d="
				M91.141,78.652c-7.776-1.448-14.332-2.128-22.232-2.428c-3.726-0.144-7.453-0.259-11.179-0.378
				c-3.724-0.125-7.45-0.225-11.177-0.301c-11.055-0.226-11.32-0.209-22.372-0.58c-8.165-0.278-14.175-0.607-22.349,0.408"/>
			
				<path clip-path="url(#SVGID_12_)" fill="none" stroke="#000000" stroke-width="0.163" stroke-linecap="round" stroke-linejoin="round" stroke-dasharray="0.649,0.649" d="
				M94.623,25.388c-7.505,1.57-14.048,3.717-21.292,6.141c-3.505,1.172-7.013,2.34-10.521,3.515
				c-1.781,0.597-3.563,1.197-5.341,1.801c-1.723,0.581-3.443,1.178-5.172,1.749c-3.433,1.136-7.108,2.232-10.756,2.571
				c-3.801,0.353-7.335-0.228-10.977-1.142c-1.788-0.447-3.557-0.966-5.322-1.488c-1.776-0.528-3.544-1.064-5.355-1.462
				c-3.75-0.822-7.225-0.926-10.984,0.053"/>
			
				<path clip-path="url(#SVGID_12_)" fill="none" stroke="#000000" stroke-width="0.163" stroke-linecap="round" stroke-linejoin="round" stroke-dasharray="0.649,0.649" d="
				M110.498,13.663c-3.534,0.757-7.029,1.641-10.488,2.676"/>
			
				<path clip-path="url(#SVGID_12_)" fill="none" stroke="#000000" stroke-width="0.163" stroke-linecap="round" stroke-linejoin="round" stroke-dasharray="0.649,0.649" d="
				M43.169,87.818c-0.199-4.999-0.271-9.995-0.225-14.997c0.036-3.926,0.192-11.068,0.457-14.988
				c0.342-5.051,1.073-9.883,2.835-14.684c0.846-2.301,1.958-4.663,3.384-6.677c1.475-2.082,3.244-3.756,5.694-4.705"/>
			
				<path clip-path="url(#SVGID_12_)" fill="none" stroke="#000000" stroke-width="0.163" stroke-linecap="round" stroke-linejoin="round" stroke-dasharray="0.649,0.649" d="
				M19.834,86.49c0.441-6.409-0.17-11.124-0.76-17.454c-0.271-2.908-0.451-5.806-0.369-8.732c0.085-2.928,0.398-5.799,0.998-8.67
				c1.126-5.397,3.518-11.473,7.082-15.833c1.873-2.294,4.065-4.138,7.054-4.905c2.836-0.727,5.926-0.31,8.632,0.487"/>
			
				<path clip-path="url(#SVGID_12_)" fill="none" stroke="#000000" stroke-width="0.163" stroke-linecap="round" stroke-linejoin="round" stroke-dasharray="0.649,0.649" d="
				M35.38,87.407c-0.131-5.107-0.29-10.214-0.346-15.324c-0.055-4.854-0.023-10.478,0.483-15.324
				c0.522-5.021,1.645-10.15,3.945-14.732c1.116-2.222,2.601-4.477,4.533-6.125c2.007-1.713,4.356-2.646,6.967-2.884"/>
			
				<path clip-path="url(#SVGID_12_)" fill="none" stroke="#000000" stroke-width="0.163" stroke-linecap="round" stroke-linejoin="round" stroke-dasharray="0.649,0.649" d="
				M91.738,36.907c-7.646,1.247-14.139,2.934-21.589,4.976c-6.693,1.834-14.665,4.083-21.511,5.345
				c-8.001,1.475-14.015,1.557-22.039,0.118c-1.821-0.326-3.626-0.711-5.42-1.145c-1.798-0.431-3.583-0.911-5.398-1.26
				c-3.788-0.731-7.205-0.809-10.931,0.555"/>
			
				<path clip-path="url(#SVGID_12_)" fill="none" stroke="#000000" stroke-width="0.163" stroke-linecap="round" stroke-linejoin="round" stroke-dasharray="0.649,0.649" d="
				M99.194,17.252c-7.623,1.305-14.077,3.57-21.259,6.259c-3.463,1.292-6.925,2.594-10.364,3.948
				c-3.923,1.547-6.377,2.585-10.237,4.278c-3.25,1.426-6.895,3.015-10.416,3.766c-3.935,0.835-7.172,0.421-10.961-0.617
				c-3.57-0.979-7.012-2.343-10.628-3.195c-3.678-0.871-7.247-1.129-11.016-0.734"/>
			
				<path clip-path="url(#SVGID_12_)" fill="none" stroke="#000000" stroke-width="0.163" stroke-linecap="round" stroke-linejoin="round" stroke-dasharray="0.649,0.649" d="
				M94.515,25.672c1.25,2.248,1.788,4.865,1.974,7.375"/>
			
				<path clip-path="url(#SVGID_12_)" fill="none" stroke="#000000" stroke-width="0.163" stroke-linecap="round" stroke-linejoin="round" stroke-dasharray="0.649,0.649" d="
				M57.909,89.368c-0.362-5.746-0.349-11.467-0.091-17.216c0.189-4.187,0.76-13.011,1.204-17.181
				c0.61-5.756,1.661-11.323,3.537-16.828c0.904-2.65,2.059-5.44,3.488-7.864c1.439-2.435,3.26-4.761,6.034-5.93"/>
			
				<path clip-path="url(#SVGID_12_)" fill="none" stroke="#000000" stroke-width="0.163" stroke-linecap="round" stroke-linejoin="round" stroke-dasharray="0.649,0.649" d="
				M92.456,16.434c0.055-0.016,0.114-0.033,0.17-0.049"/>
			
				<path clip-path="url(#SVGID_12_)" fill="none" stroke="#000000" stroke-width="0.163" stroke-linecap="round" stroke-linejoin="round" stroke-dasharray="0.649,0.649" d="
				M116.016,18.293c-6.993,1.416-13.878,3.129-20.666,5.352"/>
			
				<path clip-path="url(#SVGID_12_)" fill="none" stroke="#000000" stroke-width="0.163" stroke-linecap="round" stroke-linejoin="round" stroke-dasharray="0.649,0.649" d="
				M50.665,88.409c-0.232-5.303-0.258-10.592-0.131-15.898c0.085-3.645,0.389-12.229,0.663-15.869
				c0.398-5.334,1.224-10.47,2.947-15.567c0.854-2.529,1.866-4.941,3.256-7.235c1.371-2.258,3.064-4.327,5.58-5.492"/>
			
				<path clip-path="url(#SVGID_12_)" fill="none" stroke="#000000" stroke-width="0.163" stroke-linecap="round" stroke-linejoin="round" stroke-dasharray="0.649,0.649" d="
				M52.006,32.841c-2.77,0.636-5.166,0.682-7.962,0.228c-2.666-0.427-5.198-1.236-7.753-2.042c-5.473-1.727-9.871-2.94-15.654-3.339
				"/>
		</g>
	</g>
</g>
<g>
	<defs>
		<path id="SVGID_13_" d="M227.976,13.742c-3.651,1.71-6.256,5.857-7.822,9.183c-1.726,3.654-2.898,7.746-3.592,11.708
			c9.082-3.192,15.875-6.399,25.906-6.667c0.307-4.043-0.379-8.282-3.345-11.454c-1.386-1.481-3.208-2.627-5.159-3.197
			c-0.835-0.245-1.666-0.369-2.487-0.369C230.289,12.946,229.12,13.206,227.976,13.742"/>
	</defs>
	<clipPath id="SVGID_14_">
		<use xlink:href="#SVGID_13_"  overflow="visible"/>
	</clipPath>
	
		<linearGradient id="SVGID_15_" gradientUnits="userSpaceOnUse" x1="-158.3672" y1="352.8643" x2="-157.3672" y2="352.8643" gradientTransform="matrix(-15.6632 -13.379 -13.379 15.6632 2479.6709 -7613.8179)">
		<stop  offset="0" style="stop-color:#F9F9F9"/>
		<stop  offset="1" style="stop-color:#939393"/>
	</linearGradient>
	<polygon clip-path="url(#SVGID_14_)" fill="url(#SVGID_15_)" points="231.717,47.578 205.852,25.484 227.619,0 253.485,22.094 	"/>
</g>
<g>
	<defs>
		<path id="SVGID_16_" d="M210.221,18.823c-5.602,2.14-13.891,5.563-19.376,7.998c-2.435,1.083-4.849,2.216-7.274,3.322
			c-2.049,0.933-5.218,2.349-7.482,2.78c-1.269,0.241-2.451,0.072-3.681-0.157c-0.639-0.118-1.273-0.251-1.906-0.398
			c-1.26-0.29-2.506-0.633-3.746-0.989c-4.846-1.387-9.646-2.9-14.615-3.86c-2.503-0.479-4.898-0.441-7.365,0.261
			c-3.085,0.878-5.692,2.67-7.891,4.914c-2.604,2.663-4.653,5.968-6.171,9.326c-1.755,3.877-2.829,7.845-3.537,12.019
			c-0.849,5.002-1.168,10.621-1.112,15.681c0.058,5.285,0.57,10.458,1.634,15.642c0.01,0.041,0.016,0.082,0.026,0.125
			c0.004,0.014-0.012,0.036,0.01,0.036c0.004,0,0.007,0.003,0.013,0.003h0.02h0.039c0.029,0.004,0.059,0.004,0.085,0.006
			c0.056,0,0.111,0.004,0.166,0.008c0.111,0.006,0.219,0.01,0.33,0.016c0.222,0.01,0.441,0.023,0.662,0.033
			c0.869,0.043,1.74,0.088,2.607,0.137c1.681,0.091,3.365,0.189,5.045,0.291c6.872,0.414,13.741,0.88,20.613,1.259
			c6.416,0.353,13.595,0.584,19.984,1.384c2.282,0.287,4.552,0.633,6.824,0.973c2.682,0.398,5.367,0.777,8.063,1.093
			c3.413,0.401,6.83,0.737,10.253,1.054c2,0.184,4,0.359,6.001,0.535c1.074,0.092,2.147,0.186,3.22,0.277
			c0.558,0.05,1.113,0.096,1.671,0.144c0.284,0.026,0.565,0.05,0.848,0.075c0.144,0.01,0.285,0.023,0.428,0.036
			c0.072,0.004,0.144,0.01,0.216,0.017c0.019,0.004,0.035,0.004,0.055,0.006h0.013h0.006c0.02,0.004,0.004-0.019,0.004-0.028
			c0-0.023,0.003-0.046,0.003-0.069c0.01-0.176,0.02-0.359,0.03-0.535c0.042-0.717,0.081-1.433,0.12-2.148
			c0.375-6.766,0.718-13.527,0.799-20.305c0.04-3.384-0.002-6.768-0.084-10.151c-0.085-3.384-0.189-6.765-0.203-10.149
			c-0.019-4.431,0.098-8.821,0.738-13.223c0.561-3.866,1.474-7.567,2.927-11.208c1.102-2.764,2.575-5.594,4.522-7.897
			c1.407-1.664,3.156-3.162,5.319-3.837C222.564,14.505,216.375,16.47,210.221,18.823"/>
	</defs>
	<clipPath id="SVGID_17_">
		<use xlink:href="#SVGID_16_"  overflow="visible"/>
	</clipPath>
	
		<linearGradient id="SVGID_18_" gradientUnits="userSpaceOnUse" x1="-150.3701" y1="349.2432" x2="-149.3701" y2="349.2432" gradientTransform="matrix(1.3053 -72.1158 -72.1158 -1.3053 25559.2031 -10300.6953)">
		<stop  offset="0" style="stop-color:#F6F6F6"/>
		<stop  offset="1" style="stop-color:#BCBCBC"/>
	</linearGradient>
	<polygon clip-path="url(#SVGID_17_)" fill="url(#SVGID_18_)" points="124.569,92.844 126.042,11.45 230.511,13.341 229.038,94.734 
			"/>
</g>
<g>
	<defs>
		<rect id="SVGID_19_" x="125.193" y="12.113" width="118.398" height="81.369"/>
	</defs>
	<clipPath id="SVGID_20_">
		<use xlink:href="#SVGID_19_"  overflow="visible"/>
	</clipPath>
	
		<path clip-path="url(#SVGID_20_)" fill="none" stroke="#000000" stroke-width="0.979" stroke-linecap="round" stroke-linejoin="round" d="
		M231.317,12.945c0.875-0.016,1.756,0.108,2.646,0.369c1.952,0.571,3.773,1.716,5.159,3.198c2.967,3.171,3.652,7.41,3.345,11.453
		c-10.031,0.268-16.825,3.476-25.906,6.667"/>
	
		<path clip-path="url(#SVGID_20_)" fill="none" stroke="#000000" stroke-width="0.979" stroke-linecap="round" stroke-linejoin="round" d="
		M229.089,13.308c0.734-0.228,1.478-0.346,2.229-0.362"/>
	
		<path clip-path="url(#SVGID_20_)" fill="none" stroke="#000000" stroke-width="0.979" stroke-linecap="round" stroke-linejoin="round" d="
		M229.072,13.314c-6.507,1.191-12.697,3.155-18.851,5.508c-5.603,2.141-13.892,5.564-19.377,7.998
		c-2.434,1.084-4.849,2.216-7.274,3.322c-2.049,0.933-5.217,2.35-7.482,2.78c-1.269,0.242-2.451,0.072-3.681-0.156
		c-0.639-0.118-1.272-0.252-1.906-0.398c-1.259-0.291-2.506-0.633-3.746-0.989c-4.845-1.387-9.646-2.901-14.615-3.86
		c-2.503-0.48-4.898-0.441-7.365,0.261c-3.084,0.877-5.691,2.669-7.891,4.914c-2.604,2.663-4.653,5.968-6.17,9.326
		c-1.756,3.877-2.829,7.845-3.538,12.018c-0.848,5.003-1.168,10.622-1.112,15.68c0.058,5.286,0.571,10.459,1.635,15.643
		c0.009,0.041,0.016,0.082,0.026,0.125c0.003,0.013-0.013,0.035,0.009,0.035c0.004,0,0.007,0.004,0.014,0.004h0.019h0.039
		c0.03,0.004,0.059,0.004,0.085,0.007c0.056,0,0.111,0.003,0.167,0.007c0.11,0.006,0.218,0.009,0.329,0.016
		c0.222,0.01,0.441,0.023,0.663,0.033c0.868,0.042,1.739,0.088,2.607,0.137c1.68,0.092,3.364,0.189,5.045,0.291
		c6.872,0.414,13.741,0.881,20.613,1.26c6.415,0.352,13.594,0.584,19.984,1.383c2.281,0.287,4.552,0.633,6.823,0.973
		c2.682,0.398,5.368,0.776,8.063,1.094c3.413,0.4,6.83,0.736,10.253,1.053c2,0.184,4.001,0.359,6.001,0.535
		c1.074,0.092,2.147,0.187,3.221,0.277c0.558,0.049,1.113,0.096,1.67,0.145c0.284,0.025,0.565,0.049,0.849,0.074
		c0.144,0.01,0.284,0.023,0.427,0.037c0.072,0.002,0.144,0.01,0.216,0.016c0.019,0.003,0.036,0.003,0.055,0.007h0.013h0.007
		c0.019,0.003,0.003-0.021,0.003-0.03c0-0.023,0.003-0.045,0.003-0.068c0.01-0.176,0.02-0.358,0.03-0.535
		c0.042-0.717,0.081-1.432,0.12-2.147c0.376-6.767,0.718-13.528,0.8-20.306c0.039-3.385-0.003-6.768-0.085-10.152
		c-0.085-3.384-0.189-6.764-0.202-10.148c-0.02-4.432,0.098-8.821,0.737-13.223"/>
	<path clip-path="url(#SVGID_20_)" d="M215.817,36.186c0.388-2.571,0.917-5.058,1.648-7.456c0.519-1.717,1.135-3.388,1.863-4.993
		c0.395-0.865,0.809-1.716,1.279-2.545c0.389-0.692,0.8-1.364,1.25-2.023c0.548-0.803,1.146-1.57,1.814-2.311
		c0.771-0.855,1.639-1.635,2.552-2.245c0.591-0.391,1.204-0.724,1.854-0.992c0.3-0.121,0.61-0.215,0.92-0.316
		c0.13-0.043,0.271,0.029,0.313,0.156c0.039,0.131-0.029,0.271-0.16,0.314c-0.695,0.225-1.344,0.554-1.958,0.943
		c-0.737,0.47-1.439,1.041-2.085,1.696c-0.378,0.382-0.727,0.774-1.067,1.178c0-0.003,0.003-0.003,0.007-0.006
		c-1.244,1.488-2.236,3.133-3.077,4.829c-0.291,0.585-0.565,1.175-0.826,1.776c-0.127,0.287-0.248,0.574-0.366,0.864
		c-0.022,0.062-0.048,0.121-0.071,0.18c-0.004,0.01-0.007,0.019-0.01,0.026c-0.003,0.01-0.007,0.016-0.01,0.026
		c-0.006,0.01-0.01,0.016-0.013,0.026c-0.02,0.049-0.01,0.026-0.006,0.02c-0.47,1.204-0.908,2.428-1.28,3.677
		c-0.701,2.36-1.233,4.797-1.602,7.323c-0.042,0.267-0.29,0.45-0.558,0.411C215.961,36.702,215.778,36.454,215.817,36.186"/>
	
		<path clip-path="url(#SVGID_20_)" fill="none" stroke="#000000" stroke-width="0.653" stroke-linecap="round" stroke-linejoin="round" d="
		M193.788,90.899c-0.578-6.321-0.617-12.6-0.32-18.931c0.248-5.27,0.927-13.653,1.589-18.887c0.797-6.304,2.004-12.436,3.991-18.492
		c0.96-2.927,2.167-6.024,3.671-8.732c0.872-1.567,1.821-3.022,3.094-4.314c0.998-1.015,2.056-1.802,3.393-2.337"/>
	
		<path clip-path="url(#SVGID_20_)" fill="none" stroke="#000000" stroke-width="0.653" stroke-linecap="round" stroke-linejoin="round" d="
		M181.182,89.183c-0.333-5.671-0.326-11.32-0.088-16.995c0.17-4.065,0.698-12.905,1.109-16.958
		c0.575-5.685,1.586-11.177,3.436-16.613c0.917-2.699,1.984-5.286,3.443-7.753c1.423-2.408,3.221-4.699,5.955-5.874"/>
	
		<path clip-path="url(#SVGID_20_)" fill="none" stroke="#000000" stroke-width="0.653" stroke-linecap="round" stroke-linejoin="round" d="
		M155.847,87.183c-0.013-6.061-0.228-9.895-0.424-15.947c-0.176-5.335-0.216-10.615,0.528-15.934
		c0.712-5.075,2.259-10.597,4.98-15.05c3.064-5.012,7.065-7.717,13.177-7.254"/>
	
		<path clip-path="url(#SVGID_20_)" fill="none" stroke="#000000" stroke-width="0.653" stroke-linecap="round" stroke-linejoin="round" d="
		M136.996,86.024c0.219-6.589-0.48-11.308-0.995-17.834c-0.477-6.008-0.447-11.839,0.773-17.804
		c1.172-5.707,3.58-11.529,7.483-16.016c4.473-5.139,9.446-6.718,16.045-4.901"/>
	
		<path clip-path="url(#SVGID_20_)" fill="none" stroke="#000000" stroke-width="0.653" stroke-linecap="round" stroke-linejoin="round" d="
		M225.163,15.673c2.656,0.959,4.908,2.901,6.36,5.296c1.488,2.451,2.095,5.244,2.157,8.054"/>
	
		<path clip-path="url(#SVGID_20_)" fill="none" stroke="#000000" stroke-width="0.653" stroke-linecap="round" stroke-linejoin="round" d="
		M183.587,89.542c-0.385-5.818-0.372-11.607-0.095-17.426c0.203-4.304,0.813-13.089,1.289-17.373
		c0.643-5.819,1.72-11.444,3.616-17.011c0.91-2.683,2.072-5.508,3.514-7.966c1.443-2.46,3.277-4.839,6.083-6.027"/>
	
		<path clip-path="url(#SVGID_20_)" fill="none" stroke="#000000" stroke-width="0.653" stroke-linecap="round" stroke-linejoin="round" d="
		M167.007,87.772c-0.196-4.988-0.277-9.979-0.235-14.975c0.033-3.991,0.18-10.986,0.457-14.971
		c0.349-5.038,1.087-9.858,2.871-14.642c0.855-2.287,1.988-4.64,3.433-6.631c1.505-2.068,3.306-3.697,5.77-4.604"/>
	
		<path clip-path="url(#SVGID_20_)" fill="none" stroke="#000000" stroke-width="0.653" stroke-linecap="round" stroke-linejoin="round" d="
		M145.346,86.55c0.424-6.373-0.157-11.07-0.731-17.371c-0.264-2.897-0.44-5.785-0.356-8.703c0.082-2.914,0.395-5.771,0.989-8.627
		c1.116-5.352,3.479-11.438,6.99-15.783c1.857-2.294,4.03-4.132,7.009-4.898c2.823-0.728,5.9-0.32,8.595,0.46"/>
	
		<path clip-path="url(#SVGID_20_)" fill="none" stroke="#000000" stroke-width="0.653" stroke-linecap="round" stroke-linejoin="round" d="
		M204.925,91.992c-0.45-6.751-0.46-13.483-0.258-20.237c0.157-5.186,0.594-15.044,1.018-20.22
		c0.558-6.771,1.524-13.366,3.521-19.902c0.96-3.149,2.209-6.461,3.825-9.352c0.94-1.687,1.977-3.237,3.393-4.591
		c1.064-1.012,2.294-1.837,3.727-2.258"/>
	
		<path clip-path="url(#SVGID_20_)" fill="none" stroke="#000000" stroke-width="0.653" stroke-linecap="round" stroke-linejoin="round" d="
		M220.366,22.483c2.353,2.646,3.257,6.135,3.498,9.493"/>
	
		<path clip-path="url(#SVGID_20_)" fill="none" stroke="#000000" stroke-width="0.653" stroke-linecap="round" stroke-linejoin="round" d="
		M178.245,88.771c-0.277-5.492-0.284-10.974-0.104-16.47c0.127-3.83,0.545-12.631,0.877-16.452
		c0.487-5.525,1.417-10.85,3.215-16.127c0.89-2.617,1.931-5.12,3.364-7.502c1.406-2.336,3.162-4.506,5.808-5.655"/>
</g>
<g>
	<defs>
		<path id="SVGID_21_" d="M352.821,13.745c-3.652,1.71-6.255,5.854-7.822,9.18c-1.726,3.657-2.896,7.749-3.592,11.711
			c9.082-3.195,15.875-6.402,25.906-6.669c0.307-4.044-0.379-8.283-3.345-11.455c-1.388-1.481-3.208-2.627-5.159-3.197
			c-0.835-0.244-1.664-0.369-2.486-0.369C355.137,12.946,353.966,13.207,352.821,13.745"/>
	</defs>
	<clipPath id="SVGID_22_">
		<use xlink:href="#SVGID_21_"  overflow="visible"/>
	</clipPath>
	
		<linearGradient id="SVGID_23_" gradientUnits="userSpaceOnUse" x1="-158.3667" y1="352.8643" x2="-157.3667" y2="352.8643" gradientTransform="matrix(-15.6636 -13.3794 -13.3794 15.6636 2604.5706 -7614.0073)">
		<stop  offset="0" style="stop-color:#F9F9F9"/>
		<stop  offset="1" style="stop-color:#939393"/>
	</linearGradient>
	<polygon clip-path="url(#SVGID_22_)" fill="url(#SVGID_23_)" points="356.563,47.582 330.694,25.486 352.465,0 378.332,22.095 	"/>
</g>
<g>
	<defs>
		<path id="SVGID_24_" d="M335.065,18.823c-5.602,2.141-13.891,5.567-19.377,8.001c-2.434,1.081-4.849,2.213-7.273,3.319
			c-2.049,0.933-5.217,2.352-7.482,2.78c-1.27,0.242-2.451,0.072-3.682-0.153c-0.639-0.118-1.272-0.255-1.904-0.402
			c-1.26-0.29-2.507-0.63-3.747-0.989c-4.846-1.387-9.646-2.9-14.616-3.856c-2.503-0.483-4.898-0.444-7.365,0.257
			c-3.084,0.878-5.69,2.67-7.891,4.918c-2.604,2.659-4.652,5.965-6.17,9.323c-1.756,3.877-2.83,7.845-3.537,12.02
			c-0.849,5.005-1.169,10.621-1.114,15.683c0.059,5.287,0.572,10.455,1.635,15.64c0.011,0.043,0.017,0.082,0.027,0.125
			c0.002,0.014-0.015,0.035,0.01,0.035c0.002,0,0.006,0.004,0.012,0.004h0.02c0.014,0,0.026,0,0.039,0.004
			c0.029,0,0.059,0,0.086,0.002c0.055,0.004,0.11,0.004,0.166,0.008c0.11,0.007,0.219,0.009,0.329,0.016
			c0.222,0.014,0.44,0.023,0.663,0.033c0.867,0.045,1.738,0.091,2.607,0.137c1.68,0.091,3.363,0.189,5.043,0.291
			c6.873,0.414,13.742,0.881,20.615,1.26c6.416,0.353,13.595,0.584,19.983,1.387c2.282,0.283,4.554,0.633,6.824,0.969
			c2.682,0.398,5.368,0.777,8.063,1.093c3.414,0.405,6.83,0.737,10.254,1.054c2,0.188,4,0.362,6,0.536
			c1.074,0.095,2.147,0.185,3.221,0.277c0.558,0.049,1.113,0.097,1.672,0.144c0.283,0.025,0.564,0.049,0.848,0.075
			c0.145,0.011,0.284,0.022,0.428,0.036c0.071,0.006,0.144,0.012,0.215,0.02c0.021,0,0.037,0,0.056,0.002h0.013
			c0.004,0,0.004,0.004,0.008,0.004c0.02,0,0.002-0.023,0.002-0.032c0-0.023,0.004-0.046,0.004-0.065
			c0.01-0.18,0.02-0.359,0.029-0.537c0.043-0.717,0.082-1.434,0.12-2.148c0.376-6.766,0.72-13.53,0.8-20.309
			c0.039-3.384-0.002-6.768-0.084-10.15c-0.086-3.385-0.189-6.766-0.203-10.149c-0.019-4.428,0.099-8.821,0.737-13.219
			c0.562-3.871,1.476-7.571,2.927-11.213c1.104-2.764,2.575-5.593,4.524-7.897c1.405-1.664,3.155-3.159,5.319-3.837h-0.002
			C347.411,14.505,341.221,16.474,335.065,18.823"/>
	</defs>
	<clipPath id="SVGID_25_">
		<use xlink:href="#SVGID_24_"  overflow="visible"/>
	</clipPath>
	
		<linearGradient id="SVGID_26_" gradientUnits="userSpaceOnUse" x1="-150.3701" y1="349.2432" x2="-149.3701" y2="349.2432" gradientTransform="matrix(1.3053 -72.1177 -72.1177 -1.3053 25684.7266 -10300.9736)">
		<stop  offset="0" style="stop-color:#F6F6F6"/>
		<stop  offset="1" style="stop-color:#BCBCBC"/>
	</linearGradient>
	<polygon clip-path="url(#SVGID_25_)" fill="url(#SVGID_26_)" points="249.412,92.847 250.885,11.45 355.358,13.341 353.885,94.737 
			"/>
</g>
<g>
	<defs>
		<rect id="SVGID_27_" x="249.483" y="12.114" width="118.952" height="81.368"/>
	</defs>
	<clipPath id="SVGID_28_">
		<use xlink:href="#SVGID_27_"  overflow="visible"/>
	</clipPath>
	
		<path clip-path="url(#SVGID_28_)" fill="none" stroke="#000000" stroke-width="0.979" stroke-linecap="round" stroke-linejoin="round" d="
		M356.163,12.945c0.875-0.016,1.756,0.108,2.646,0.369c1.951,0.571,3.772,1.716,5.16,3.198c2.965,3.172,3.65,7.411,3.345,11.454
		c-10.032,0.267-16.826,3.475-25.907,6.67"/>
	
		<path clip-path="url(#SVGID_28_)" fill="none" stroke="#000000" stroke-width="0.979" stroke-linecap="round" stroke-linejoin="round" d="
		M353.935,13.311c0.734-0.228,1.479-0.349,2.229-0.365"/>
	
		<path clip-path="url(#SVGID_28_)" fill="none" stroke="#000000" stroke-width="0.979" stroke-linecap="round" stroke-linejoin="round" d="
		M353.918,13.314c-6.507,1.191-12.696,3.159-18.853,5.508c-5.603,2.141-13.891,5.567-19.377,8.002
		c-2.434,1.08-4.848,2.212-7.273,3.319c-2.049,0.933-5.218,2.352-7.482,2.78c-1.27,0.241-2.451,0.072-3.681-0.154
		c-0.64-0.117-1.272-0.254-1.905-0.401c-1.261-0.29-2.506-0.63-3.746-0.989c-4.847-1.387-9.646-2.901-14.616-3.857
		c-2.503-0.483-4.898-0.444-7.365,0.258c-3.084,0.878-5.692,2.669-7.892,4.918c-2.604,2.659-4.652,5.965-6.17,9.323
		c-1.756,3.876-2.83,7.845-3.538,12.018c-0.849,5.006-1.168,10.622-1.113,15.683c0.059,5.287,0.571,10.457,1.635,15.642
		c0.01,0.043,0.016,0.082,0.026,0.124c0.003,0.013-0.013,0.035,0.01,0.035c0.003,0,0.006,0.004,0.013,0.004h0.021
		c0.013,0,0.026,0,0.039,0.004c0.028,0,0.058,0,0.084,0.003c0.056,0.003,0.11,0.003,0.167,0.006c0.111,0.007,0.219,0.01,0.328,0.017
		c0.223,0.014,0.441,0.023,0.664,0.032c0.867,0.046,1.738,0.093,2.606,0.138c1.681,0.092,3.365,0.189,5.045,0.291
		c6.873,0.414,13.742,0.881,20.614,1.258c6.416,0.354,13.595,0.586,19.984,1.388c2.281,0.284,4.553,0.633,6.824,0.97
		c2.682,0.398,5.367,0.776,8.063,1.094c3.414,0.403,6.83,0.736,10.253,1.054c2.001,0.186,4.001,0.362,6.001,0.534
		c1.074,0.096,2.148,0.187,3.221,0.277c0.559,0.049,1.113,0.098,1.672,0.145c0.283,0.025,0.564,0.049,0.849,0.074
		c0.143,0.011,0.282,0.023,0.427,0.037c0.072,0.006,0.145,0.012,0.215,0.019c0.02,0,0.036,0,0.057,0.004h0.013
		c0.003,0,0.003,0.003,0.006,0.003c0.021,0,0.004-0.023,0.004-0.033c0-0.021,0.003-0.045,0.003-0.064
		c0.01-0.18,0.02-0.359,0.029-0.539c0.043-0.715,0.082-1.432,0.121-2.147c0.375-6.764,0.718-13.528,0.8-20.307
		c0.039-3.384-0.004-6.769-0.085-10.152c-0.085-3.384-0.189-6.764-0.203-10.148c-0.02-4.429,0.098-8.821,0.738-13.22"/>
	<path clip-path="url(#SVGID_28_)" d="M340.663,36.186c0.388-2.571,0.917-5.058,1.648-7.457c0.516-1.706,1.129-3.37,1.853-4.966
		c0.392-0.865,0.806-1.717,1.272-2.546c1.07-1.892,2.314-3.687,3.975-5.27c0.33-0.316,0.683-0.61,1.037-0.884
		c0.213-0.166,0.429-0.317,0.647-0.467c0.574-0.385,1.185-0.711,1.817-0.969c0.304-0.124,0.617-0.218,0.93-0.323
		c0.131-0.042,0.271,0.029,0.314,0.16c0.039,0.131-0.03,0.271-0.16,0.313c-0.467,0.15-0.914,0.346-1.338,0.578
		c-0.977,0.535-1.881,1.22-2.707,2.062c-0.377,0.382-0.727,0.774-1.066,1.175c0.004,0,0.004-0.003,0.007-0.006
		c-1.233,1.501-2.231,3.129-3.077,4.829c-0.291,0.584-0.564,1.175-0.826,1.775c-0.094,0.212-0.183,0.425-0.271,0.637
		c-0.052,0.127-0.104,0.257-0.155,0.385c-0.005,0.006-0.008,0.016-0.011,0.026c-0.003,0.006-0.007,0.016-0.01,0.023
		c-0.003,0.009-0.007,0.019-0.011,0.026c-0.006,0.01-0.01,0.019-0.012,0.026c-0.023,0.062-0.011,0.023-0.007,0.019
		c-0.474,1.205-0.907,2.428-1.28,3.678c-0.701,2.359-1.229,4.797-1.602,7.323c-0.042,0.267-0.29,0.45-0.559,0.411
		C340.807,36.705,340.624,36.454,340.663,36.186"/>
	<g clip-path="url(#SVGID_28_)">
		<defs>
			<rect id="SVGID_29_" x="260.732" y="15.204" width="98.025" height="39.299"/>
		</defs>
		<clipPath id="SVGID_30_">
			<use xlink:href="#SVGID_29_"  overflow="visible"/>
		</clipPath>
		<g clip-path="url(#SVGID_30_)">
			<defs>
				<rect id="SVGID_31_" x="260.732" y="15.204" width="98.025" height="39.299"/>
			</defs>
			<clipPath id="SVGID_32_">
				<use xlink:href="#SVGID_31_"  overflow="visible"/>
			</clipPath>
			
				<path clip-path="url(#SVGID_32_)" fill="none" stroke="#000000" stroke-width="0.489" stroke-linecap="round" stroke-linejoin="round" stroke-dasharray="0.976,0.976" d="
				M307.384,52.196c0.68-5.16,1.785-10.12,3.604-15.012c0.9-2.431,1.932-4.761,3.328-6.964c1.363-2.153,3.09-4.157,5.554-5.214"/>
			
				<path clip-path="url(#SVGID_32_)" fill="none" stroke="#000000" stroke-width="0.489" stroke-linecap="round" stroke-linejoin="round" stroke-dasharray="0.976,0.976" d="
				M304.219,52.382c0.617-4.921,1.671-9.636,3.437-14.29c0.875-2.31,1.879-4.516,3.236-6.598c1.338-2.049,2.999-3.896,5.346-4.911"
				/>
			
				<path clip-path="url(#SVGID_32_)" fill="none" stroke="#000000" stroke-width="0.489" stroke-linecap="round" stroke-linejoin="round" stroke-dasharray="0.976,0.976" d="
				M281.007,53.856c0.807-4.784,2.441-10.07,5.149-14.211c3.074-4.7,7.023-7.069,12.783-6.631"/>
			
				<path clip-path="url(#SVGID_32_)" fill="none" stroke="#000000" stroke-width="0.489" stroke-linecap="round" stroke-linejoin="round" stroke-dasharray="0.976,0.976" d="
				M292.507,53.259c0.549-4.16,1.563-8.337,3.299-12.19c0.881-1.949,1.891-3.757,3.271-5.411c1.38-1.661,3.002-2.937,5.058-3.691"/>
			
				<path clip-path="url(#SVGID_32_)" fill="none" stroke="#000000" stroke-width="0.489" stroke-linecap="round" stroke-linejoin="round" stroke-dasharray="0.976,0.976" d="
				M269.675,54.079c0.92-5.826,3.155-12.268,6.709-17.109c1.817-2.474,4.069-4.673,7.152-5.636c2.982-0.927,6.27-0.522,9.137,0.31"
				/>
			
				<path clip-path="url(#SVGID_32_)" fill="none" stroke="#000000" stroke-width="0.489" stroke-linecap="round" stroke-linejoin="round" stroke-dasharray="0.976,0.976" d="
				M260.978,54.258c0.408-3.306,1.1-6.487,2.242-9.63c1.115-3.064,2.686-6.102,4.643-8.723c1.922-2.564,4.426-5.028,7.529-6.255
				c3.201-1.263,6.557-1.041,9.741-0.163"/>
			
				<path clip-path="url(#SVGID_32_)" fill="none" stroke="#000000" stroke-width="0.489" stroke-linecap="round" stroke-linejoin="round" stroke-dasharray="0.976,0.976" d="
				M330.599,50.603c0.584-6.611,1.586-13.04,3.58-19.407c0.949-3.041,2.217-6.324,3.801-9.11c1.506-2.644,3.761-5.682,7.004-6.638"
				/>
			
				<path clip-path="url(#SVGID_32_)" fill="none" stroke="#000000" stroke-width="0.489" stroke-linecap="round" stroke-linejoin="round" stroke-dasharray="0.976,0.976" d="
				M320.11,51.426c0.836-6.014,2.072-11.859,4.037-17.625c0.943-2.76,2.15-5.746,3.609-8.292c1.424-2.483,3.403-5.139,6.282-6.285"
				/>
			
				<path clip-path="url(#SVGID_32_)" fill="none" stroke="#000000" stroke-width="0.489" stroke-linecap="round" stroke-linejoin="round" stroke-dasharray="0.976,0.976" d="
				M309.946,52.056c0.724-5.353,1.873-10.508,3.735-15.595c0.927-2.529,1.981-4.957,3.411-7.258
				c1.387-2.235,3.171-4.366,5.732-5.446"/>
			
				<path clip-path="url(#SVGID_32_)" fill="none" stroke="#000000" stroke-width="0.489" stroke-linecap="round" stroke-linejoin="round" stroke-dasharray="0.976,0.976" d="
				M349.995,15.687c2.656,0.959,4.908,2.904,6.361,5.296c1.484,2.454,2.094,5.248,2.156,8.057"/>
			
				<path clip-path="url(#SVGID_32_)" fill="none" stroke="#000000" stroke-width="0.489" stroke-linecap="round" stroke-linejoin="round" stroke-dasharray="0.976,0.976" d="
				M345.198,22.5c2.354,2.647,3.258,6.132,3.496,9.49"/>
		</g>
	</g>
	
		<path clip-path="url(#SVGID_28_)" fill="none" stroke="#000000" stroke-width="0.653" stroke-linecap="round" stroke-linejoin="round" d="
		M329.757,92.011c-0.463-6.912-0.46-13.801-0.242-20.715c0.108-3.453,0.262-6.905,0.426-10.354
		c0.166-3.452,0.354-6.899,0.658-10.338"/>
	
		<path clip-path="url(#SVGID_28_)" fill="none" stroke="#000000" stroke-width="0.653" stroke-linecap="round" stroke-linejoin="round" d="
		M318.62,90.914c-0.604-6.603-0.621-13.164-0.277-19.774c0.287-5.584,0.998-14.17,1.768-19.714"/>
	
		<path clip-path="url(#SVGID_28_)" fill="none" stroke="#000000" stroke-width="0.653" stroke-linecap="round" stroke-linejoin="round" d="
		M306.014,89.2c-0.365-6.184-0.317-12.342-0.022-18.524c0.149-3.087,0.34-6.168,0.545-9.252s0.446-6.161,0.849-9.228"/>
	
		<path clip-path="url(#SVGID_28_)" fill="none" stroke="#000000" stroke-width="0.653" stroke-linecap="round" stroke-linejoin="round" d="
		M303.077,88.79c-0.311-6.079-0.277-12.143-0.039-18.219c0.117-3.039,0.267-6.074,0.431-9.111c0.166-3.031,0.372-6.061,0.75-9.078"
		/>
	
		<path clip-path="url(#SVGID_28_)" fill="none" stroke="#000000" stroke-width="0.653" stroke-linecap="round" stroke-linejoin="round" d="
		M280.678,87.2c-0.013-6.549-0.251-10.148-0.45-16.688c-0.166-5.59-0.156-11.096,0.78-16.656"/>
	
		<path clip-path="url(#SVGID_28_)" fill="none" stroke="#000000" stroke-width="0.653" stroke-linecap="round" stroke-linejoin="round" d="
		M291.838,87.791c-0.228-5.76-0.294-11.513-0.209-17.276c0.043-2.881,0.108-5.762,0.22-8.641c0.11-2.881,0.279-5.75,0.658-8.615"/>
	
		<path clip-path="url(#SVGID_28_)" fill="none" stroke="#000000" stroke-width="0.653" stroke-linecap="round" stroke-linejoin="round" d="
		M270.177,86.563c0.388-5.854-0.075-10.451-0.627-16.247c-0.545-5.763-0.789-10.455,0.124-16.238"/>
	
		<path clip-path="url(#SVGID_28_)" fill="none" stroke="#000000" stroke-width="0.653" stroke-linecap="round" stroke-linejoin="round" d="
		M261.826,86.039c0.385-11.617-2.304-20.03-0.849-31.781"/>
	
		<path clip-path="url(#SVGID_28_)" fill="none" stroke="#000000" stroke-width="0.653" stroke-linecap="round" stroke-linejoin="round" d="
		M308.419,89.557c-0.418-6.272-0.362-12.509-0.029-18.776c0.169-3.13,0.391-6.253,0.626-9.375c0.235-3.127,0.507-6.244,0.931-9.35"
		/>
	<path clip-path="url(#SVGID_28_)" fill-rule="evenodd" clip-rule="evenodd" fill="#FFFFFF" d="M259.943,54.209
		c0-0.538,0.437-0.979,0.979-0.979c0.538,0,0.979,0.441,0.979,0.979c0,0.542-0.441,0.979-0.979,0.979
		C260.38,55.188,259.943,54.751,259.943,54.209"/>
	<path clip-path="url(#SVGID_28_)" fill="none" stroke="#000000" stroke-width="0.489" d="M259.943,54.209
		c0-0.538,0.437-0.979,0.979-0.979c0.538,0,0.979,0.441,0.979,0.979c0,0.542-0.441,0.979-0.979,0.979
		C260.38,55.188,259.943,54.751,259.943,54.209z"/>
	<path clip-path="url(#SVGID_28_)" fill-rule="evenodd" clip-rule="evenodd" fill="#FFFFFF" d="M250.79,54.845
		c0-0.537,0.437-0.979,0.979-0.979c0.538,0,0.979,0.441,0.979,0.979c0,0.543-0.44,0.979-0.979,0.979
		C251.227,55.824,250.79,55.388,250.79,54.845"/>
	<path clip-path="url(#SVGID_28_)" fill="none" stroke="#000000" stroke-width="0.489" d="M250.79,54.845
		c0-0.537,0.437-0.979,0.979-0.979c0.538,0,0.979,0.441,0.979,0.979c0,0.543-0.44,0.979-0.979,0.979
		C251.227,55.824,250.79,55.388,250.79,54.845z"/>
	<path clip-path="url(#SVGID_28_)" fill-rule="evenodd" clip-rule="evenodd" fill="#FFFFFF" d="M268.656,54.013
		c0-0.537,0.437-0.979,0.979-0.979c0.538,0,0.979,0.441,0.979,0.979c0,0.543-0.441,0.979-0.979,0.979
		C269.093,54.992,268.656,54.556,268.656,54.013"/>
	<path clip-path="url(#SVGID_28_)" fill="none" stroke="#000000" stroke-width="0.489" d="M268.656,54.013
		c0-0.537,0.437-0.979,0.979-0.979c0.538,0,0.979,0.441,0.979,0.979c0,0.543-0.441,0.979-0.979,0.979
		C269.093,54.992,268.656,54.556,268.656,54.013z"/>
	<path clip-path="url(#SVGID_28_)" fill-rule="evenodd" clip-rule="evenodd" fill="#FFFFFF" d="M280.11,53.866
		c0-0.537,0.437-0.979,0.979-0.979c0.538,0,0.979,0.441,0.979,0.979c0,0.543-0.44,0.979-0.979,0.979
		C280.547,54.846,280.11,54.409,280.11,53.866"/>
	<path clip-path="url(#SVGID_28_)" fill="none" stroke="#000000" stroke-width="0.489" d="M280.11,53.866
		c0-0.537,0.437-0.979,0.979-0.979c0.538,0,0.979,0.441,0.979,0.979c0,0.543-0.44,0.979-0.979,0.979
		C280.547,54.846,280.11,54.409,280.11,53.866z"/>
	<path clip-path="url(#SVGID_28_)" fill-rule="evenodd" clip-rule="evenodd" fill="#FFFFFF" d="M291.563,53.229
		c0-0.537,0.438-0.979,0.979-0.979c0.538,0,0.979,0.441,0.979,0.979c0,0.543-0.441,0.979-0.979,0.979
		C292.001,54.209,291.563,53.772,291.563,53.229"/>
	<path clip-path="url(#SVGID_28_)" fill="none" stroke="#000000" stroke-width="0.489" d="M291.563,53.229
		c0-0.537,0.438-0.979,0.979-0.979c0.538,0,0.979,0.441,0.979,0.979c0,0.543-0.441,0.979-0.979,0.979
		C292.001,54.209,291.563,53.772,291.563,53.229z"/>
	<path clip-path="url(#SVGID_28_)" fill-rule="evenodd" clip-rule="evenodd" fill="#FFFFFF" d="M303.214,52.349
		c0-0.537,0.438-0.979,0.979-0.979c0.539,0,0.979,0.441,0.979,0.979c0,0.543-0.44,0.979-0.979,0.979
		C303.651,53.328,303.214,52.892,303.214,52.349"/>
	<path clip-path="url(#SVGID_28_)" fill="none" stroke="#000000" stroke-width="0.489" d="M303.214,52.349
		c0-0.537,0.438-0.979,0.979-0.979c0.539,0,0.979,0.441,0.979,0.979c0,0.543-0.44,0.979-0.979,0.979
		C303.651,53.328,303.214,52.892,303.214,52.349z"/>
	<path clip-path="url(#SVGID_28_)" fill-rule="evenodd" clip-rule="evenodd" fill="#FFFFFF" d="M306.444,52.153
		c0-0.538,0.438-0.979,0.979-0.979c0.539,0,0.979,0.441,0.979,0.979c0,0.542-0.44,0.979-0.979,0.979
		C306.882,53.132,306.444,52.695,306.444,52.153"/>
	<circle clip-path="url(#SVGID_28_)" fill="none" stroke="#000000" stroke-width="0.489" cx="307.423" cy="52.153" r="0.979"/>
	<path clip-path="url(#SVGID_28_)" fill-rule="evenodd" clip-rule="evenodd" fill="#FFFFFF" d="M308.989,51.958
		c0-0.539,0.438-0.979,0.979-0.979c0.538,0,0.979,0.441,0.979,0.979c0,0.541-0.441,0.979-0.979,0.979
		C309.427,52.937,308.989,52.499,308.989,51.958"/>
	<path clip-path="url(#SVGID_28_)" fill="none" stroke="#000000" stroke-width="0.489" d="M308.989,51.958
		c0-0.539,0.438-0.979,0.979-0.979c0.538,0,0.979,0.441,0.979,0.979c0,0.541-0.441,0.979-0.979,0.979
		C309.427,52.937,308.989,52.499,308.989,51.958z"/>
	<path clip-path="url(#SVGID_28_)" fill-rule="evenodd" clip-rule="evenodd" fill="#FFFFFF" d="M319.269,51.566
		c0-0.538,0.438-0.979,0.979-0.979c0.538,0,0.979,0.441,0.979,0.979c0,0.542-0.441,0.979-0.979,0.979
		C319.706,52.545,319.269,52.108,319.269,51.566"/>
	<path clip-path="url(#SVGID_28_)" fill="none" stroke="#000000" stroke-width="0.489" d="M319.269,51.566
		c0-0.538,0.438-0.979,0.979-0.979c0.538,0,0.979,0.441,0.979,0.979c0,0.542-0.441,0.979-0.979,0.979
		C319.706,52.545,319.269,52.108,319.269,51.566z"/>
	<path clip-path="url(#SVGID_28_)" fill-rule="evenodd" clip-rule="evenodd" fill="#FFFFFF" d="M329.694,50.636
		c0-0.538,0.438-0.979,0.979-0.979c0.538,0,0.979,0.441,0.979,0.979c0,0.542-0.441,0.979-0.979,0.979
		C330.132,51.615,329.694,51.178,329.694,50.636"/>
	<path clip-path="url(#SVGID_28_)" fill="none" stroke="#000000" stroke-width="0.489" d="M329.694,50.636
		c0-0.538,0.438-0.979,0.979-0.979c0.538,0,0.979,0.441,0.979,0.979c0,0.542-0.441,0.979-0.979,0.979
		C330.132,51.615,329.694,51.178,329.694,50.636z"/>
	<path clip-path="url(#SVGID_28_)" fill-rule="evenodd" clip-rule="evenodd" fill="#FFFFFF" d="M339.485,49.901
		c0-0.538,0.437-0.979,0.979-0.979c0.538,0,0.979,0.441,0.979,0.979c0,0.542-0.44,0.979-0.979,0.979
		C339.922,50.88,339.485,50.443,339.485,49.901"/>
	<path clip-path="url(#SVGID_28_)" fill="none" stroke="#000000" stroke-width="0.489" d="M339.485,49.901
		c0-0.538,0.437-0.979,0.979-0.979c0.538,0,0.979,0.441,0.979,0.979c0,0.542-0.44,0.979-0.979,0.979
		C339.922,50.88,339.485,50.443,339.485,49.901z"/>
</g>
<g>
	<defs>
		<path id="SVGID_33_" d="M477.394,13.745c-3.651,1.71-6.256,5.854-7.825,9.18c-1.723,3.657-2.895,7.75-3.589,11.711
			c9.082-3.195,15.875-6.402,25.903-6.669c0.307-4.044-0.379-8.283-3.341-11.455c-1.388-1.481-3.208-2.627-5.163-3.197
			c-0.833-0.244-1.662-0.369-2.483-0.369C479.709,12.946,478.538,13.207,477.394,13.745"/>
	</defs>
	<clipPath id="SVGID_34_">
		<use xlink:href="#SVGID_33_"  overflow="visible"/>
	</clipPath>
	
		<linearGradient id="SVGID_35_" gradientUnits="userSpaceOnUse" x1="-158.3667" y1="352.8643" x2="-157.3667" y2="352.8643" gradientTransform="matrix(-15.6636 -13.3794 -13.3794 15.6636 2729.1487 -7614.0073)">
		<stop  offset="0" style="stop-color:#F9F9F9"/>
		<stop  offset="1" style="stop-color:#939393"/>
	</linearGradient>
	<polygon clip-path="url(#SVGID_34_)" fill="url(#SVGID_35_)" points="481.134,47.58 455.268,25.486 477.036,0.002 502.901,22.095 	
		"/>
</g>
<g>
	<defs>
		<path id="SVGID_36_" d="M459.639,18.823c-5.603,2.141-13.892,5.567-19.377,8.001c-2.435,1.081-4.849,2.213-7.274,3.319
			c-2.049,0.933-5.218,2.352-7.481,2.78c-1.271,0.242-2.451,0.072-3.682-0.153c-0.64-0.118-1.276-0.255-1.908-0.402
			c-1.261-0.29-2.503-0.63-3.747-0.989c-4.842-1.387-9.644-2.9-14.612-3.856c-2.503-0.483-4.899-0.444-7.366,0.257
			c-3.083,0.878-5.691,2.67-7.89,4.918c-2.604,2.659-4.653,5.965-6.171,9.323c-1.756,3.877-2.829,7.845-3.538,12.02
			c-0.849,5.005-1.168,10.621-1.112,15.683c0.059,5.287,0.571,10.455,1.635,15.64c0.008,0.043,0.017,0.082,0.025,0.125
			c0,0.014-0.012,0.035,0.01,0.035c0.004,0,0.008,0.004,0.01,0.004h0.023c0.014,0,0.025,0,0.039,0.004c0.029,0,0.057,0,0.085,0.002
			c0.056,0.004,0.112,0.004,0.166,0.008c0.11,0.007,0.219,0.009,0.33,0.016c0.222,0.014,0.44,0.023,0.662,0.033
			c0.868,0.045,1.735,0.091,2.608,0.137c1.681,0.091,3.364,0.189,5.045,0.291c6.868,0.414,13.74,0.881,20.613,1.26
			c6.416,0.353,13.596,0.584,19.984,1.387c2.281,0.283,4.552,0.633,6.824,0.969c2.682,0.398,5.366,0.777,8.063,1.093
			c3.414,0.405,6.83,0.737,10.253,1.054c2,0.188,4.001,0.362,5.998,0.536c1.077,0.095,2.15,0.185,3.224,0.277
			c0.555,0.049,1.113,0.097,1.671,0.144c0.28,0.025,0.565,0.049,0.849,0.075c0.144,0.011,0.285,0.022,0.428,0.036
			c0.072,0.006,0.145,0.012,0.215,0.02c0.017,0,0.036,0,0.057,0.002h0.012c0,0,0.004,0.004,0.007,0.004
			c0.021,0,0.003-0.023,0.003-0.032c0-0.023,0.004-0.046,0.004-0.065c0.011-0.18,0.021-0.359,0.029-0.537
			c0.043-0.717,0.081-1.434,0.121-2.148c0.372-6.766,0.717-13.53,0.796-20.309c0.043-3.384,0-6.768-0.085-10.15
			c-0.081-3.385-0.185-6.766-0.203-10.149c-0.018-4.428,0.1-8.821,0.738-13.219c0.561-3.871,1.476-7.571,2.931-11.213
			c1.103-2.764,2.575-5.593,4.522-7.897c1.406-1.664,3.156-3.159,5.318-3.837C471.982,14.505,465.793,16.474,459.639,18.823"/>
	</defs>
	<clipPath id="SVGID_37_">
		<use xlink:href="#SVGID_36_"  overflow="visible"/>
	</clipPath>
	
		<linearGradient id="SVGID_38_" gradientUnits="userSpaceOnUse" x1="-150.3701" y1="349.2432" x2="-149.3701" y2="349.2432" gradientTransform="matrix(1.3053 -72.1177 -72.1177 -1.3053 25809.2891 -10300.9736)">
		<stop  offset="0" style="stop-color:#F6F6F6"/>
		<stop  offset="1" style="stop-color:#BCBCBC"/>
	</linearGradient>
	<polygon clip-path="url(#SVGID_37_)" fill="url(#SVGID_38_)" points="373.984,92.847 375.458,11.45 479.929,13.341 478.456,94.737 
			"/>
</g>
<g>
	<defs>
		<rect id="SVGID_39_" x="374.053" y="12.114" width="118.952" height="81.368"/>
	</defs>
	<clipPath id="SVGID_40_">
		<use xlink:href="#SVGID_39_"  overflow="visible"/>
	</clipPath>
	
		<path clip-path="url(#SVGID_40_)" fill="none" stroke="#000000" stroke-width="0.979" stroke-linecap="round" stroke-linejoin="round" d="
		M480.735,12.945c0.871-0.016,1.756,0.108,2.644,0.369c1.955,0.571,3.775,1.716,5.163,3.198c2.963,3.172,3.647,7.411,3.341,11.454
		c-10.028,0.267-16.822,3.475-25.903,6.67"/>
	
		<path clip-path="url(#SVGID_40_)" fill="none" stroke="#000000" stroke-width="0.979" stroke-linecap="round" stroke-linejoin="round" d="
		M478.507,13.311c0.733-0.228,1.478-0.349,2.229-0.365"/>
	
		<path clip-path="url(#SVGID_40_)" fill="none" stroke="#000000" stroke-width="0.979" stroke-linecap="round" stroke-linejoin="round" d="
		M478.49,13.314c-6.507,1.191-12.697,3.159-18.852,5.508c-5.604,2.141-13.892,5.567-19.377,8.002
		c-2.435,1.08-4.85,2.212-7.274,3.319c-2.049,0.933-5.218,2.352-7.482,2.78c-1.27,0.241-2.45,0.072-3.681-0.154
		c-0.64-0.117-1.276-0.254-1.909-0.401c-1.26-0.29-2.503-0.63-3.747-0.989c-4.842-1.387-9.642-2.901-14.611-3.857
		c-2.503-0.483-4.898-0.444-7.365,0.258c-3.084,0.878-5.692,2.669-7.892,4.918c-2.604,2.659-4.652,5.965-6.17,9.323
		c-1.756,3.876-2.83,7.845-3.537,12.018c-0.85,5.006-1.168,10.622-1.113,15.683c0.059,5.287,0.57,10.457,1.635,15.642
		c0.006,0.043,0.016,0.082,0.025,0.124c0,0.013-0.012,0.035,0.011,0.035c0.003,0,0.006,0.004,0.01,0.004h0.022
		c0.014,0,0.027,0,0.039,0.004c0.029,0,0.056,0,0.084,0.003c0.057,0.003,0.111,0.003,0.168,0.006c0.111,0.007,0.219,0.01,0.33,0.017
		c0.221,0.014,0.439,0.023,0.662,0.032c0.867,0.046,1.735,0.093,2.606,0.138c1.681,0.092,3.365,0.189,5.045,0.291
		c6.869,0.414,13.742,0.881,20.614,1.258c6.416,0.354,13.595,0.586,19.984,1.388c2.28,0.284,4.553,0.633,6.823,0.97
		c2.683,0.398,5.368,0.776,8.063,1.094c3.414,0.403,6.83,0.736,10.253,1.054c2.001,0.186,4.001,0.362,5.998,0.534
		c1.077,0.096,2.15,0.187,3.224,0.277c0.556,0.049,1.113,0.098,1.671,0.145c0.281,0.025,0.565,0.049,0.85,0.074
		c0.143,0.011,0.282,0.023,0.427,0.037c0.072,0.006,0.144,0.012,0.215,0.019c0.018,0,0.036,0,0.056,0.004h0.014
		c0,0,0.003,0.003,0.006,0.003c0.02,0,0.004-0.023,0.004-0.033c0-0.021,0.003-0.045,0.003-0.064c0.01-0.18,0.021-0.359,0.029-0.539
		c0.043-0.715,0.082-1.432,0.121-2.147c0.372-6.764,0.718-13.528,0.796-20.307c0.043-3.384,0-6.769-0.085-10.152
		c-0.081-3.384-0.187-6.764-0.202-10.148c-0.02-4.429,0.098-8.821,0.738-13.22"/>
	<path clip-path="url(#SVGID_40_)" d="M465.235,36.186c0.385-2.571,0.917-5.058,1.645-7.457c0.52-1.706,1.132-3.37,1.854-4.966
		c0.392-0.865,0.809-1.717,1.275-2.546c1.07-1.892,2.314-3.687,3.976-5.27c0.329-0.316,0.682-0.61,1.033-0.884
		c0.213-0.166,0.432-0.317,0.65-0.467c0.571-0.385,1.181-0.711,1.817-0.969c0.304-0.124,0.613-0.218,0.93-0.323
		c0.127-0.042,0.268,0.029,0.31,0.16c0.043,0.131-0.028,0.271-0.155,0.313c-0.468,0.15-0.914,0.346-1.343,0.578
		c-0.972,0.535-1.876,1.22-2.704,2.062c-0.375,0.382-0.725,0.774-1.064,1.175c0,0,0.004-0.003,0.004-0.006
		c-1.23,1.501-2.229,3.129-3.074,4.829c-0.294,0.584-0.567,1.175-0.829,1.775c-0.092,0.212-0.183,0.425-0.268,0.637
		c-0.055,0.127-0.104,0.257-0.156,0.385c-0.004,0.006-0.007,0.016-0.01,0.026c-0.003,0.006-0.01,0.016-0.013,0.023
		c-0.004,0.009-0.007,0.019-0.011,0.026c-0.003,0.01-0.007,0.019-0.01,0.026c-0.025,0.062-0.01,0.023-0.006,0.019
		c-0.474,1.205-0.908,2.428-1.28,3.678c-0.7,2.359-1.229,4.797-1.602,7.323c-0.042,0.267-0.29,0.45-0.558,0.411
		S465.196,36.454,465.235,36.186"/>
	<g clip-path="url(#SVGID_40_)">
		<defs>
			<rect id="SVGID_41_" x="384.868" y="50.359" width="70.548" height="41.897"/>
		</defs>
		<clipPath id="SVGID_42_">
			<use xlink:href="#SVGID_41_"  overflow="visible"/>
		</clipPath>
		<g clip-path="url(#SVGID_42_)">
			<defs>
				<rect id="SVGID_43_" x="384.868" y="50.359" width="70.548" height="41.897"/>
			</defs>
			<clipPath id="SVGID_44_">
				<use xlink:href="#SVGID_43_"  overflow="visible"/>
			</clipPath>
			
				<path clip-path="url(#SVGID_44_)" fill="none" stroke="#000000" stroke-width="0.489" stroke-linecap="round" stroke-linejoin="round" stroke-dasharray="0.976,0.976" d="
				M454.326,92.011c-0.46-6.912-0.457-13.801-0.242-20.715c0.111-3.453,0.265-6.905,0.428-10.354
				c0.163-3.452,0.356-6.899,0.659-10.338"/>
			
				<path clip-path="url(#SVGID_44_)" fill="none" stroke="#000000" stroke-width="0.489" stroke-linecap="round" stroke-linejoin="round" stroke-dasharray="0.976,0.976" d="
				M443.191,90.914c-0.604-6.603-0.619-13.164-0.28-19.774c0.291-5.584,0.999-14.17,1.769-19.714"/>
			
				<path clip-path="url(#SVGID_44_)" fill="none" stroke="#000000" stroke-width="0.489" stroke-linecap="round" stroke-linejoin="round" stroke-dasharray="0.976,0.976" d="
				M430.586,89.2c-0.365-6.184-0.32-12.342-0.023-18.524c0.15-3.087,0.341-6.168,0.546-9.252c0.201-3.084,0.446-6.161,0.849-9.228"
				/>
			
				<path clip-path="url(#SVGID_44_)" fill="none" stroke="#000000" stroke-width="0.489" stroke-linecap="round" stroke-linejoin="round" stroke-dasharray="0.976,0.976" d="
				M427.646,88.79c-0.307-6.079-0.273-12.143-0.039-18.219c0.121-3.039,0.268-6.074,0.435-9.111c0.163-3.031,0.372-6.061,0.75-9.078
				"/>
			
				<path clip-path="url(#SVGID_44_)" fill="none" stroke="#000000" stroke-width="0.489" stroke-linecap="round" stroke-linejoin="round" stroke-dasharray="0.976,0.976" d="
				M405.25,87.2c-0.013-6.549-0.251-10.148-0.45-16.688c-0.17-5.59-0.157-11.096,0.78-16.656"/>
			
				<path clip-path="url(#SVGID_44_)" fill="none" stroke="#000000" stroke-width="0.489" stroke-linecap="round" stroke-linejoin="round" stroke-dasharray="0.976,0.976" d="
				M416.407,87.791c-0.225-5.76-0.294-11.513-0.209-17.276c0.043-2.881,0.111-5.762,0.222-8.641c0.111-2.881,0.281-5.75,0.659-8.615
				"/>
			
				<path clip-path="url(#SVGID_44_)" fill="none" stroke="#000000" stroke-width="0.489" stroke-linecap="round" stroke-linejoin="round" stroke-dasharray="0.976,0.976" d="
				M394.749,86.563c0.388-5.854-0.075-10.451-0.627-16.247c-0.548-5.763-0.789-10.455,0.124-16.238"/>
			
				<path clip-path="url(#SVGID_44_)" fill="none" stroke="#000000" stroke-width="0.489" stroke-linecap="round" stroke-linejoin="round" stroke-dasharray="0.976,0.976" d="
				M386.396,86.039c0.388-11.617-2.301-20.03-0.849-31.781"/>
			
				<path clip-path="url(#SVGID_44_)" fill="none" stroke="#000000" stroke-width="0.489" stroke-linecap="round" stroke-linejoin="round" stroke-dasharray="0.976,0.976" d="
				M432.991,89.557c-0.418-6.272-0.365-12.509-0.029-18.776c0.169-3.13,0.388-6.253,0.623-9.375c0.235-3.127,0.509-6.244,0.93-9.35"
				/>
		</g>
	</g>
	
		<path clip-path="url(#SVGID_40_)" fill="none" stroke="#E50000" stroke-width="0.979" stroke-linecap="round" stroke-linejoin="round" d="
		M376.465,54.767c3.685-0.297,7.372-0.473,11.065-0.564c3.694-0.088,7.389-0.133,11.079-0.195
		c9.477-0.162,12.697-0.281,22.145-1.031c3.681-0.291,7.362-0.564,11.049-0.771c3.691-0.208,7.385-0.397,11.072-0.652
		c3.685-0.252,7.362-0.562,11.043-0.852c3.684-0.294,7.372-0.574,11.059-0.829"/>
	<path clip-path="url(#SVGID_40_)" fill-rule="evenodd" clip-rule="evenodd" fill="#FFFFFF" d="M384.513,54.209
		c0-0.538,0.44-0.979,0.979-0.979c0.542,0,0.979,0.441,0.979,0.979c0,0.542-0.437,0.979-0.979,0.979
		C384.953,55.188,384.513,54.751,384.513,54.209"/>
	<path clip-path="url(#SVGID_40_)" fill="none" stroke="#000000" stroke-width="0.489" d="M384.513,54.209
		c0-0.538,0.44-0.979,0.979-0.979c0.542,0,0.979,0.441,0.979,0.979c0,0.542-0.437,0.979-0.979,0.979
		C384.953,55.188,384.513,54.751,384.513,54.209z"/>
	<path clip-path="url(#SVGID_40_)" fill-rule="evenodd" clip-rule="evenodd" fill="#FFFFFF" d="M375.358,54.845
		c0-0.537,0.441-0.979,0.979-0.979c0.542,0,0.979,0.441,0.979,0.979c0,0.543-0.438,0.979-0.979,0.979
		C375.8,55.824,375.358,55.388,375.358,54.845"/>
	<path clip-path="url(#SVGID_40_)" fill="none" stroke="#000000" stroke-width="0.489" d="M375.358,54.845
		c0-0.537,0.441-0.979,0.979-0.979c0.542,0,0.979,0.441,0.979,0.979c0,0.543-0.438,0.979-0.979,0.979
		C375.8,55.824,375.358,55.388,375.358,54.845z"/>
	<path clip-path="url(#SVGID_40_)" fill-rule="evenodd" clip-rule="evenodd" fill="#FFFFFF" d="M393.225,54.013
		c0-0.537,0.441-0.979,0.979-0.979c0.542,0,0.979,0.441,0.979,0.979c0,0.543-0.437,0.979-0.979,0.979
		C393.666,54.992,393.225,54.556,393.225,54.013"/>
	<path clip-path="url(#SVGID_40_)" fill="none" stroke="#000000" stroke-width="0.489" d="M393.225,54.013
		c0-0.537,0.441-0.979,0.979-0.979c0.542,0,0.979,0.441,0.979,0.979c0,0.543-0.437,0.979-0.979,0.979
		C393.666,54.992,393.225,54.556,393.225,54.013z"/>
	<path clip-path="url(#SVGID_40_)" fill-rule="evenodd" clip-rule="evenodd" fill="#FFFFFF" d="M404.679,53.866
		c0-0.537,0.44-0.979,0.979-0.979c0.542,0,0.979,0.441,0.979,0.979c0,0.543-0.437,0.979-0.979,0.979
		C405.119,54.846,404.679,54.409,404.679,53.866"/>
	<path clip-path="url(#SVGID_40_)" fill="none" stroke="#000000" stroke-width="0.489" d="M404.679,53.866
		c0-0.537,0.44-0.979,0.979-0.979c0.542,0,0.979,0.441,0.979,0.979c0,0.543-0.437,0.979-0.979,0.979
		C405.119,54.846,404.679,54.409,404.679,53.866z"/>
	<path clip-path="url(#SVGID_40_)" fill-rule="evenodd" clip-rule="evenodd" fill="#FFFFFF" d="M416.133,53.229
		c0-0.537,0.441-0.979,0.979-0.979c0.542,0,0.979,0.441,0.979,0.979c0,0.543-0.437,0.979-0.979,0.979
		C416.574,54.209,416.133,53.772,416.133,53.229"/>
	<path clip-path="url(#SVGID_40_)" fill="none" stroke="#000000" stroke-width="0.489" d="M416.133,53.229
		c0-0.537,0.441-0.979,0.979-0.979c0.542,0,0.979,0.441,0.979,0.979c0,0.543-0.437,0.979-0.979,0.979
		C416.574,54.209,416.133,53.772,416.133,53.229z"/>
	<path clip-path="url(#SVGID_40_)" fill-rule="evenodd" clip-rule="evenodd" fill="#FFFFFF" d="M427.783,52.349
		c0-0.537,0.44-0.979,0.979-0.979c0.542,0,0.979,0.441,0.979,0.979c0,0.543-0.438,0.979-0.979,0.979
		C428.224,53.328,427.783,52.892,427.783,52.349"/>
	<path clip-path="url(#SVGID_40_)" fill="none" stroke="#000000" stroke-width="0.489" d="M427.783,52.349
		c0-0.537,0.44-0.979,0.979-0.979c0.542,0,0.979,0.441,0.979,0.979c0,0.543-0.438,0.979-0.979,0.979
		C428.224,53.328,427.783,52.892,427.783,52.349z"/>
	<path clip-path="url(#SVGID_40_)" fill-rule="evenodd" clip-rule="evenodd" fill="#FFFFFF" d="M431.014,52.153
		c0-0.538,0.44-0.979,0.979-0.979c0.542,0,0.979,0.441,0.979,0.979c0,0.542-0.438,0.979-0.979,0.979
		C431.454,53.132,431.014,52.695,431.014,52.153"/>
	<circle clip-path="url(#SVGID_40_)" fill="none" stroke="#000000" stroke-width="0.489" cx="431.993" cy="52.153" r="0.979"/>
	<path clip-path="url(#SVGID_40_)" fill-rule="evenodd" clip-rule="evenodd" fill="#FFFFFF" d="M433.559,51.958
		c0-0.539,0.441-0.979,0.979-0.979c0.542,0,0.979,0.441,0.979,0.979c0,0.541-0.437,0.979-0.979,0.979
		C434,52.937,433.559,52.499,433.559,51.958"/>
	<circle clip-path="url(#SVGID_40_)" fill="none" stroke="#000000" stroke-width="0.489" cx="434.538" cy="51.958" r="0.979"/>
	<path clip-path="url(#SVGID_40_)" fill-rule="evenodd" clip-rule="evenodd" fill="#FFFFFF" d="M443.838,51.566
		c0-0.538,0.441-0.979,0.979-0.979c0.542,0,0.979,0.441,0.979,0.979c0,0.542-0.437,0.979-0.979,0.979
		C444.279,52.545,443.838,52.108,443.838,51.566"/>
	<circle clip-path="url(#SVGID_40_)" fill="none" stroke="#000000" stroke-width="0.489" cx="444.817" cy="51.566" r="0.979"/>
	<path clip-path="url(#SVGID_40_)" fill-rule="evenodd" clip-rule="evenodd" fill="#FFFFFF" d="M454.264,50.636
		c0-0.538,0.441-0.979,0.979-0.979c0.542,0,0.979,0.441,0.979,0.979c0,0.542-0.437,0.979-0.979,0.979
		C454.705,51.615,454.264,51.178,454.264,50.636"/>
	<circle clip-path="url(#SVGID_40_)" fill="none" stroke="#000000" stroke-width="0.489" cx="455.243" cy="50.636" r="0.979"/>
	<path clip-path="url(#SVGID_40_)" fill-rule="evenodd" clip-rule="evenodd" fill="#FFFFFF" d="M464.054,49.901
		c0-0.538,0.441-0.979,0.979-0.979c0.543,0,0.979,0.441,0.979,0.979c0,0.542-0.437,0.979-0.979,0.979
		C464.495,50.88,464.054,50.443,464.054,49.901"/>
	<path clip-path="url(#SVGID_40_)" fill="none" stroke="#000000" stroke-width="0.489" d="M464.054,49.901
		c0-0.538,0.441-0.979,0.979-0.979c0.543,0,0.979,0.441,0.979,0.979c0,0.542-0.437,0.979-0.979,0.979
		C464.495,50.88,464.054,50.443,464.054,49.901z"/>
</g>
<path fill="#231F20" d="M61.524,102.854l-0.225-1.509h-2.563l-0.845,1.509h-1.094l4.185-7.251h0.259l1.416,7.251H61.524z
	 M60.758,97.571l-1.636,3.057h2.075L60.758,97.571z"/>
<path fill="#231F20" d="M181.989,102.854l1.265-7.153c0.485-0.071,0.933-0.107,1.343-0.107c1.683,0,2.524,0.562,2.524,1.685
	c0,0.371-0.133,0.714-0.398,1.027c-0.265,0.314-0.579,0.494-0.94,0.54c0.794,0.146,1.191,0.693,1.191,1.641
	c0,0.808-0.282,1.413-0.847,1.819c-0.565,0.404-1.464,0.607-2.698,0.607C183.084,102.913,182.604,102.894,181.989,102.854z
	 M183.634,99.28l-0.488,2.744c0.179,0.033,0.376,0.049,0.591,0.049c0.648,0,1.181-0.129,1.599-0.389
	c0.418-0.258,0.627-0.622,0.627-1.091c0-0.898-0.571-1.348-1.714-1.348C184.061,99.246,183.855,99.257,183.634,99.28z
	 M184.123,96.482l-0.322,1.982c0.283,0.022,0.513,0.034,0.688,0.034c1.09,0,1.636-0.418,1.636-1.255c0-0.537-0.423-0.806-1.27-0.806
	C184.695,96.438,184.451,96.453,184.123,96.482z"/>
<path fill="#231F20" d="M311.853,95.809l-0.268,0.952c-0.273-0.209-0.66-0.313-1.158-0.313c-0.768,0-1.414,0.383-1.94,1.15
	c-0.526,0.766-0.788,1.594-0.788,2.482c0,1.344,0.558,2.017,1.674,2.017c0.576,0,1.137-0.235,1.68-0.708l-0.078,1.035
	c-0.4,0.367-1.02,0.552-1.859,0.552c-0.781,0-1.386-0.241-1.813-0.723c-0.426-0.481-0.639-1.146-0.639-1.992
	c0-1.309,0.355-2.416,1.066-3.323c0.711-0.906,1.63-1.359,2.756-1.359C311.052,95.579,311.508,95.655,311.853,95.809z"/>
<path fill="#231F20" d="M432.354,102.854h-1.563l1.26-7.153c0.4-0.075,0.806-0.112,1.216-0.112c1.038,0,1.846,0.242,2.422,0.728
	s0.864,1.202,0.864,2.153c0,1.387-0.397,2.465-1.191,3.232S433.564,102.854,432.354,102.854z M432.866,96.541l-0.908,5.391
	c0.188,0.026,0.373,0.039,0.552,0.039c0.901,0,1.626-0.333,2.173-1.001s0.82-1.519,0.82-2.554c0-0.593-0.196-1.065-0.588-1.421
	c-0.393-0.355-0.877-0.532-1.453-0.532C433.254,96.463,433.055,96.489,432.866,96.541z"/>
</svg>
