<?xml version="1.0" encoding="utf-8"?>
<!-- Generator: Adobe Illustrator 14.0.0, SVG Export Plug-In . SVG Version: 6.00 Build 43363)  -->
<!DOCTYPE svg PUBLIC "-//W3C//DTD SVG 1.1//EN" "http://www.w3.org/Graphics/SVG/1.1/DTD/svg11.dtd">
<svg version="1.1" xmlns="http://www.w3.org/2000/svg" xmlns:xlink="http://www.w3.org/1999/xlink" x="0px" y="0px"
	 width="521.64px" height="352.41px" viewBox="0 0 521.64 352.41" enable-background="new 0 0 521.64 352.41" xml:space="preserve">
<g id="BackBuffer" display="none">
</g>
<g id="Viewport_x5F_BG">
	<g>
		
			<line fill-rule="evenodd" clip-rule="evenodd" fill="none" stroke="#D4D4D4" stroke-linecap="round" stroke-linejoin="round" x1="65.88" y1="99.53" x2="520.28" y2="219.29"/>
		
			<line fill-rule="evenodd" clip-rule="evenodd" fill="none" stroke="#D4D4D4" stroke-linecap="round" stroke-linejoin="round" x1="397.56" y1="351.91" x2="520.28" y2="123.19"/>
		
			<line fill-rule="evenodd" clip-rule="evenodd" fill="none" stroke="#D4D4D4" stroke-linecap="round" stroke-linejoin="round" x1="163.75" y1="30.73" x2="520.28" y2="108.62"/>
		
			<line fill-rule="evenodd" clip-rule="evenodd" fill="none" stroke="#D4D4D4" stroke-linecap="round" stroke-linejoin="round" x1="152.94" y1="38.33" x2="520.28" y2="120.34"/>
		
			<line fill-rule="evenodd" clip-rule="evenodd" fill="none" stroke="#D4D4D4" stroke-linecap="round" stroke-linejoin="round" x1="141.76" y1="46.19" x2="520.28" y2="132.58"/>
		
			<line fill-rule="evenodd" clip-rule="evenodd" fill="none" stroke="#D4D4D4" stroke-linecap="round" stroke-linejoin="round" x1="130.2" y1="54.32" x2="520.28" y2="145.38"/>
		
			<line fill-rule="evenodd" clip-rule="evenodd" fill="none" stroke="#D4D4D4" stroke-linecap="round" stroke-linejoin="round" x1="435.93" y1="351.91" x2="520.28" y2="178.84"/>
		
			<line fill-rule="evenodd" clip-rule="evenodd" fill="none" stroke="#D4D4D4" stroke-linecap="round" stroke-linejoin="round" x1="105.84" y1="71.44" x2="520.28" y2="172.82"/>
		
			<line fill-rule="evenodd" clip-rule="evenodd" fill="none" stroke="#D4D4D4" stroke-linecap="round" stroke-linejoin="round" x1="93" y1="80.46" x2="520.28" y2="187.551"/>
		
			<line fill-rule="evenodd" clip-rule="evenodd" fill="none" stroke="#D4D4D4" stroke-linecap="round" stroke-linejoin="round" x1="79.69" y1="89.82" x2="520.28" y2="203.021"/>
		
			<line fill-rule="evenodd" clip-rule="evenodd" fill="none" stroke="#D4D4D4" stroke-linecap="round" stroke-linejoin="round" x1="205.69" y1="351.91" x2="421.44" y2="76.25"/>
		
			<line fill-rule="evenodd" clip-rule="evenodd" fill="none" stroke="#D4D4D4" stroke-linecap="round" stroke-linejoin="round" x1="1" y1="215.06" x2="413.081" y2="351.91"/>
		
			<line fill-rule="evenodd" clip-rule="evenodd" fill="none" stroke="#D4D4D4" stroke-linecap="round" stroke-linejoin="round" x1="1" y1="236.66" x2="336.78" y2="351.91"/>
		
			<line fill-rule="evenodd" clip-rule="evenodd" fill="none" stroke="#D4D4D4" stroke-linecap="round" stroke-linejoin="round" x1="359.19" y1="351.91" x2="509.61" y2="95.11"/>
		
			<line fill-rule="evenodd" clip-rule="evenodd" fill="none" stroke="#D4D4D4" stroke-linecap="round" stroke-linejoin="round" x1="320.81" y1="351.91" x2="486.959" y2="90.27"/>
		
			<line fill-rule="evenodd" clip-rule="evenodd" fill="none" stroke="#D4D4D4" stroke-linecap="round" stroke-linejoin="round" x1="1" y1="259.75" x2="260.48" y2="351.91"/>
		
			<line fill-rule="evenodd" clip-rule="evenodd" fill="none" stroke="#D4D4D4" stroke-linecap="round" stroke-linejoin="round" x1="244.07" y1="351.91" x2="442.879" y2="80.84"/>
		
			<line fill-rule="evenodd" clip-rule="evenodd" fill="none" stroke="#D4D4D4" stroke-linecap="round" stroke-linejoin="round" x1="1" y1="157.96" x2="493.93" y2="307.12"/>
		
			<line fill-rule="evenodd" clip-rule="evenodd" fill="none" stroke="#D4D4D4" stroke-linecap="round" stroke-linejoin="round" x1="1" y1="237.15" x2="244.58" y2="38.42"/>
		
			<line fill-rule="evenodd" clip-rule="evenodd" fill="none" stroke="#D4D4D4" stroke-linecap="round" stroke-linejoin="round" x1="1" y1="211.48" x2="226.55" y2="34.57"/>
		
			<line fill-rule="evenodd" clip-rule="evenodd" fill="none" stroke="#D4D4D4" stroke-linecap="round" stroke-linejoin="round" x1="1" y1="187.721" x2="208.82" y2="30.77"/>
		
			<line fill-rule="evenodd" clip-rule="evenodd" fill="none" stroke="#D4D4D4" stroke-linecap="round" stroke-linejoin="round" x1="1" y1="194.83" x2="476.169" y2="347.671"/>
		
			<line fill-rule="evenodd" clip-rule="evenodd" fill="none" stroke="#D4D4D4" stroke-linecap="round" stroke-linejoin="round" x1="1" y1="165.66" x2="191.38" y2="27.04"/>
		
			<line fill-rule="evenodd" clip-rule="evenodd" fill="none" stroke="#D4D4D4" stroke-linecap="round" stroke-linejoin="round" x1="60.61" y1="306.44" x2="319.79" y2="54.51"/>
		
			<line fill-rule="evenodd" clip-rule="evenodd" fill="none" stroke="#D4D4D4" stroke-linecap="round" stroke-linejoin="round" x1="34.74" y1="296.921" x2="300.51" y2="50.38"/>
		
			<line fill-rule="evenodd" clip-rule="evenodd" fill="none" stroke="#D4D4D4" stroke-linecap="round" stroke-linejoin="round" x1="9.53" y1="287.65" x2="281.55" y2="46.33"/>
		
			<line fill-rule="evenodd" clip-rule="evenodd" fill="none" stroke="#D4D4D4" stroke-linecap="round" stroke-linejoin="round" x1="87.17" y1="316.221" x2="339.419" y2="58.71"/>
		
			<line fill-rule="evenodd" clip-rule="evenodd" fill="none" stroke="#D4D4D4" stroke-linecap="round" stroke-linejoin="round" x1="142.47" y1="336.57" x2="379.7" y2="67.33"/>
		
			<line fill-rule="evenodd" clip-rule="evenodd" fill="none" stroke="#D4D4D4" stroke-linecap="round" stroke-linejoin="round" x1="171.27" y1="347.16" x2="400.39" y2="71.75"/>
		
			<line fill-rule="evenodd" clip-rule="evenodd" fill="none" stroke="#D4D4D4" stroke-linecap="round" stroke-linejoin="round" x1="21.15" y1="130.97" x2="509.93" y2="270.601"/>
		
			<line fill-rule="evenodd" clip-rule="evenodd" fill="none" stroke="#D4D4D4" stroke-linecap="round" stroke-linejoin="round" x1="5.03" y1="142.3" x2="502.129" y2="288.391"/>
		
			<line fill-rule="evenodd" clip-rule="evenodd" fill="none" stroke="#D4D4D4" stroke-linecap="round" stroke-linejoin="round" x1="36.64" y1="120.08" x2="517.35" y2="253.671"/>
	</g>
	<g>
		
			<line fill-rule="evenodd" clip-rule="evenodd" fill="none" stroke="#8A8A8A" stroke-linecap="round" stroke-linejoin="round" x1="174.22" y1="23.37" x2="520.28" y2="97.39"/>
		
			<line fill-rule="evenodd" clip-rule="evenodd" fill="none" stroke="#8A8A8A" stroke-linecap="round" stroke-linejoin="round" x1="118.23" y1="62.73" x2="520.28" y2="158.78"/>
		
			<line fill-rule="evenodd" clip-rule="evenodd" fill="none" stroke="#8A8A8A" stroke-linecap="round" stroke-linejoin="round" x1="474.31" y1="351.91" x2="520.28" y2="246.98"/>
		
			<line fill-rule="evenodd" clip-rule="evenodd" fill="none" stroke="#8A8A8A" stroke-linecap="round" stroke-linejoin="round" x1="282.44" y1="351.91" x2="464.72" y2="85.51"/>
		
			<line fill-rule="evenodd" clip-rule="evenodd" fill="none" stroke="#8A8A8A" stroke-linecap="round" stroke-linejoin="round" x1="1" y1="284.51" x2="184.18" y2="351.91"/>
		
			<line fill-rule="evenodd" clip-rule="evenodd" fill="none" stroke="#8A8A8A" stroke-linecap="round" stroke-linejoin="round" x1="1" y1="264.96" x2="262.911" y2="42.34"/>
		
			<line fill-rule="evenodd" clip-rule="evenodd" fill="none" stroke="#8A8A8A" stroke-linecap="round" stroke-linejoin="round" x1="1" y1="175.83" x2="485.29" y2="326.851"/>
		
			<line fill-rule="evenodd" clip-rule="evenodd" fill="none" stroke="#8A8A8A" stroke-linecap="round" stroke-linejoin="round" x1="1" y1="145.13" x2="174.22" y2="23.37"/>
		
			<line fill-rule="evenodd" clip-rule="evenodd" fill="none" stroke="#8A8A8A" stroke-linecap="round" stroke-linejoin="round" x1="262.82" y1="166.77" x2="51.54" y2="109.61"/>
		
			<line fill-rule="evenodd" clip-rule="evenodd" fill="none" stroke="#8A8A8A" stroke-linecap="round" stroke-linejoin="round" x1="262.82" y1="166.77" x2="114.45" y2="326.25"/>
	</g>
	
		<line fill-rule="evenodd" clip-rule="evenodd" fill="none" stroke="#12AB00" stroke-width="2" stroke-linecap="round" stroke-linejoin="round" x1="359.379" y1="62.98" x2="262.82" y2="166.77"/>
	
		<line fill-rule="evenodd" clip-rule="evenodd" fill="none" stroke="#A80000" stroke-width="2" stroke-linecap="round" stroke-linejoin="round" x1="520.28" y1="236.421" x2="262.82" y2="166.77"/>
</g>
<g id="Viewport_x5F_MG">
	<path fill-rule="evenodd" clip-rule="evenodd" d="M108.5,352.36c-0.06,0-0.13,0-0.2-0.03l-12.88-4.3l-1.1,3.32l-7.59-6.75
		l3.45-0.291l-20.37-9.05l-1.42,3.2l-4.09-4.4l-19.04-11l-1.75,3.031l-6.08-8.131l10.09,1.2l-1.76,3.04l16.23,9.37l-0.51-0.55
		l10.15,0.13l-1.42,3.2l22.05,9.79l4.59-0.381l-0.71,2.141l0.2,0.22c0.05,0.12,0.05,0.25,0,0.38c-0.09,0.19-0.28,0.301-0.49,0.301
		l-0.11,0.279l12.88,4.3c0.26,0.091,0.4,0.38,0.32,0.641C108.87,352.21,108.7,352.341,108.5,352.36z M469.05,352.18
		c-0.16,0-0.32-0.079-0.41-0.229c-0.15-0.229-0.09-0.54,0.14-0.69l7.19-4.75c0.229-0.159,0.54-0.089,0.69,0.141
		c0.149,0.229,0.09,0.54-0.141,0.69l-7.189,4.76C469.24,352.15,469.15,352.18,469.05,352.18z M387.78,352.13
		c-0.189,0-0.38-0.12-0.449-0.32c-0.101-0.25,0.029-0.539,0.279-0.639l12.33-4.841c0.26-0.1,0.55,0.03,0.65,0.29
		c0.1,0.25-0.03,0.54-0.28,0.64l-12.33,4.841C387.911,352.12,387.85,352.13,387.78,352.13z M296.45,352.021
		c-0.229,0-0.43-0.17-0.47-0.41c-0.05-0.27,0.13-0.53,0.399-0.58l27.561-4.851c0.271-0.05,0.53,0.13,0.58,0.411
		c0.05,0.27-0.141,0.529-0.41,0.58l-27.55,4.85C296.52,352.021,296.49,352.021,296.45,352.021z M419.03,350.74
		c-0.189,0.02-0.39-0.069-0.49-0.25c-0.14-0.24-0.05-0.55,0.181-0.689l24.34-13.9c0.24-0.141,0.55-0.06,0.69,0.18
		c0.129,0.24,0.05,0.55-0.19,0.68l-24.34,13.911C419.161,350.71,419.1,350.73,419.03,350.74z M214.58,349.9l-9.26-4.18l9.41-3.82
		l-0.06,3.5l33.29,0.65c0.28,0,0.5,0.229,0.49,0.509c0,0.271-0.23,0.491-0.51,0.491l-33.29-0.65L214.58,349.9z M340.25,349.221
		l-10.101-1l7.69-6.63l1.06,3.339l29.19-9.199c0.26-0.08,0.539,0.06,0.62,0.329c0.09,0.261-0.061,0.541-0.32,0.62l-29.19,9.211
		L340.25,349.221z M458.911,347.57l4.739-8.99l2.2,2.721l19.189-15.551c0.211-0.17,0.521-0.14,0.7,0.08
		c0.171,0.21,0.14,0.53-0.079,0.7l-19.181,15.55l2.2,2.721L458.911,347.57z M171.9,346.921c-0.04,0-0.07,0-0.1-0.011l-30.83-6.71
		l-0.74,3.42l-8.27-5.899l9.62-1.851l-26.89-8.529l-1.06,3.339l-7.69-6.64l3.69-0.36L89.67,315l-1.39,3.21l-3.98-4.22l-18.54-10.75
		l-1.76,3.03l-6.06-8.15l10.08,1.23l-1.76,3.02l15.64,9.07l-0.59-0.62l10.16,0.05l-1.4,3.21l21.6,9.4l4.38-0.43l-0.66,2.06
		l0.26,0.26c0.04,0.12,0.05,0.25-0.01,0.38c-0.08,0.19-0.27,0.301-0.46,0.301l-0.08-0.021l-0.11,0.36l28.32,8.979
		c0.26,0.08,0.41,0.36,0.32,0.62c-0.06,0.2-0.24,0.33-0.43,0.351c-0.06,0.01-0.13,0-0.2-0.021l-1.1-0.35l-0.71,3.25l30.82,6.709
		c0.27,0.061,0.44,0.33,0.38,0.601C172.34,346.771,172.13,346.93,171.9,346.921z M261.04,343.36l-9.689-3.04l8.89-4.92l0.35,3.479
		l32.55-3.289c0.271-0.031,0.521,0.169,0.54,0.449c0.03,0.27-0.17,0.52-0.44,0.54l-32.55,3.3L261.04,343.36z M377.71,342.31
		l6.649-7.669l1.53,3.149l25.16-12.22c0.25-0.12,0.55-0.011,0.67,0.23c0.12,0.25,0.02,0.55-0.23,0.67l-25.159,12.22l1.52,3.15
		L377.71,342.31z M307.87,336.99l-10-1.74l8.15-6.05l0.811,3.41l30.27-7.189c0.27-0.07,0.54,0.1,0.6,0.369
		c0.061,0.27-0.1,0.54-0.369,0.601l-30.271,7.189L307.87,336.99z M185.55,336.68l-8.88-4.92l9.69-3.039L186,332.21l32.21,3.261
		c0.27,0.029,0.47,0.27,0.45,0.55c-0.03,0.239-0.22,0.42-0.45,0.439c-0.03,0.011-0.07,0.011-0.1,0l-32.21-3.26L185.55,336.68z
		 M425.01,336.03l5.31-8.66l2.021,2.86l20.539-14.53c0.221-0.16,0.54-0.109,0.701,0.12c0.159,0.22,0.1,0.54-0.12,0.7l-20.541,14.53
		l2.021,2.859L425.01,336.03z M230.81,330.471l-9.41-3.8l9.24-4.19l0.08,3.5l32.449-0.69c0.271-0.01,0.5,0.21,0.511,0.49
		c0,0.271-0.21,0.5-0.49,0.51l-32.45,0.681L230.81,330.471z M355,330.36l-10.15-0.23l7.17-7.189l1.3,3.25l26.57-10.66
		c0.26-0.109,0.55,0.021,0.649,0.271c0.11,0.259-0.02,0.55-0.27,0.659l-26.58,10.66L355,330.36z M471.661,329.28l3.67-9.479
		l2.5,2.449l15.049-15.399l-8.529,4.99l2.34-9.881l2.811,2.08l7.569-10.23l0.64-8.85l3.11,1.61l7.841-15.17l-0.291-2.67l3.34,1.029
		l5.16-16.81c0.08-0.26,0.36-0.41,0.631-0.33c0.26,0.08,0.41,0.36,0.33,0.62l-5.161,16.811l3.351,1.029l-6.57,7.74l-0.6-5.61
		l-7.141,13.82l0.53,0.271l0.22,0.06l0.051,0.08l2.31,1.189l-6.85,5.641l-7.67,10.359l2.76,2.041l0.56-0.57
		c0.19-0.2,0.51-0.2,0.711-0.011c0.189,0.19,0.199,0.511,0.01,0.711L478.54,322.95l2.511,2.45L471.661,329.28z M189.17,326.171
		c-0.03,0-0.06,0-0.1-0.011l-30.4-5.88l-0.67,3.44l-8.4-5.7l9.92-2.16l-0.66,3.44l30.4,5.879c0.27,0.051,0.45,0.311,0.4,0.58
		C189.61,326,189.41,326.171,189.17,326.171z M41.29,325.93c-0.13,0.011-0.26-0.02-0.37-0.1l-19.29-14.39l-2.09,2.8l-5.09-8.79
		l9.87,2.38l-2.09,2.811l19.29,14.39c0.22,0.17,0.26,0.479,0.1,0.7C41.54,325.841,41.42,325.91,41.29,325.93z M276.56,324.71
		l-9.85-2.51l8.6-5.399l0.55,3.459l31.08-4.88c0.271-0.039,0.53,0.15,0.57,0.421c0.04,0.27-0.15,0.529-0.42,0.569l-31.08,4.88
		L276.56,324.71z M391.911,324.61l5.879-8.28l1.83,2.99l21.95-13.41c0.24-0.14,0.55-0.07,0.69,0.17c0.14,0.229,0.07,0.54-0.17,0.68
		l-21.95,13.411l1.82,2.989L391.911,324.61z M322.97,318.88l-10.11-1l7.7-6.63l1.05,3.341l27.95-8.841
		c0.26-0.09,0.54,0.06,0.63,0.32c0.08,0.27-0.07,0.55-0.33,0.63l-27.949,8.84L322.97,318.88z M438.56,318.521l4.25-9.22l2.351,2.6
		l17.02-15.341c0.21-0.189,0.52-0.169,0.71,0.03c0.18,0.211,0.16,0.521-0.04,0.711l-17.02,15.35l2.339,2.6L438.56,318.521z
		 M202.04,317.65l-9.05-4.61l9.58-3.38l-0.23,3.5l31.66,2.1c0.28,0.021,0.49,0.261,0.47,0.53c-0.02,0.28-0.26,0.49-0.53,0.47
		l-31.67-2.109L202.04,317.65z M161,316.141c-0.06,0.01-0.13,0-0.19-0.021l-27.89-8.36l-1,3.351l-7.79-6.51l4-0.46l-19.58-8.391
		l-1.38,3.221L103.39,295l-18.07-10.63l-1.77,3.01l-6.02-8.18l10.07,1.29l-1.77,3.02l15.04,8.851l-0.71-0.74h10.16l-1.38,3.21
		l21.19,9.08l4.09-0.46l-0.56,1.96c0.27,0.13,0.38,0.42,0.27,0.67c-0.08,0.19-0.26,0.311-0.46,0.311l-0.13-0.03l-0.13,0.44
		l27.88,8.37c0.27,0.079,0.42,0.35,0.34,0.619C161.37,315.99,161.2,316.12,161,316.141z M14.99,315.921
		c-0.13,0-0.26-0.051-0.36-0.141L0.9,302.471c-0.2-0.19-0.2-0.511-0.01-0.7c0.19-0.2,0.51-0.211,0.71-0.021l13.73,13.31
		c0.19,0.19,0.2,0.511,0.01,0.7C15.24,315.86,15.11,315.91,14.99,315.921z M359.57,313.221l6.45-7.841l1.609,3.11l23.451-12.12
		c0.25-0.12,0.549-0.03,0.68,0.22c0.119,0.24,0.029,0.551-0.221,0.67l-23.449,12.12l1.609,3.11L359.57,313.221z M246.45,312.33
		l-9.59-3.33l9.03-4.649l0.24,3.489l31.44-2.229c0.28-0.021,0.521,0.19,0.54,0.47c0.02,0.271-0.19,0.51-0.46,0.53l-31.45,2.22
		L246.45,312.33z M406.19,307.91l4.85-8.93l2.171,2.75l18.34-14.471c0.21-0.17,0.53-0.14,0.7,0.08c0.169,0.22,0.129,0.53-0.081,0.7
		l-18.339,14.48l2.17,2.739L406.19,307.91z M291.831,307.28l-9.99-1.82l8.199-5.979l0.78,3.41l29.2-6.67
		c0.27-0.061,0.53,0.109,0.6,0.38c0.061,0.27-0.109,0.529-0.38,0.6l-29.189,6.67L291.831,307.28z M205.55,306.5
		c-0.03,0-0.07,0-0.1-0.01l-30.04-4.98l-0.57,3.45l-8.56-5.47l9.87-2.42l-0.57,3.45l30.03,4.979c0.28,0.051,0.46,0.31,0.41,0.58
		C205.98,306.32,205.78,306.49,205.55,306.5z M61.51,306.271c-0.13,0.02-0.26-0.021-0.37-0.1L42.75,292.09l-2.13,2.771l-4.98-8.851
		l9.84,2.5l-2.13,2.78l18.4,14.09c0.21,0.16,0.26,0.48,0.09,0.7C61.75,306.19,61.63,306.25,61.51,306.271z M452.14,301.851
		l2.89-9.73l2.69,2.24l8.18-9.83l1.04-8.8l3.04,1.75l8.7-15.09l-0.18-2.331l3.31,1.131l5.58-16.45c0.09-0.26,0.38-0.4,0.64-0.311
		c0.26,0.091,0.4,0.371,0.311,0.63l-5.58,16.45l3.31,1.12l-6.78,7.561l-0.47-6.04l-7.979,13.83l0.479,0.26
		c0.15-0.04,0.28,0,0.391,0.09l0.109,0.221l2.06,1.18l-7.119,5.329L458.49,295l2.69,2.24L452.14,301.851z M338.1,301.81l-10.16-0.05
		l7.04-7.319l1.37,3.22l25.029-10.58c0.25-0.1,0.54,0.021,0.65,0.271s-0.01,0.55-0.26,0.649l-25.03,10.59L338.1,301.81z
		 M217.79,299.84l-9.24-4.229l9.43-3.771l-0.08,3.5l31.08,0.761c0.28,0.01,0.49,0.239,0.49,0.51c-0.01,0.28-0.24,0.5-0.51,0.49
		l-31.09-0.761L217.79,299.84z M374.5,297.351l5.46-8.57l1.97,2.899L401.7,278.2c0.22-0.16,0.53-0.1,0.69,0.13s0.1,0.54-0.13,0.69
		L382.49,292.5l1.98,2.891L374.5,297.351z M177.89,296.99c-0.06,0.01-0.13,0-0.2-0.02l-27.49-7.761l-0.95,3.37l-7.89-6.39l4.41-0.58
		l-19.25-8.17l-1.37,3.22l-3.45-3.601l-17.63-10.709l-1.82,2.989l-5.9-8.26l10.05,1.42l-1.82,3l14.44,8.76l-0.9-0.93l10.16-0.04
		l-1.37,3.23l20.82,8.84l3.7-0.48l-0.52,1.83l0.12,0.05c0.26,0.11,0.38,0.411,0.27,0.661c-0.08,0.189-0.27,0.31-0.46,0.3
		c-0.07,0-0.14-0.011-0.2-0.041l-0.17,0.57l27.49,7.76c0.27,0.07,0.43,0.351,0.35,0.62C178.25,296.83,178.08,296.96,177.89,296.99z
		 M35.61,296.771c-0.13,0-0.25-0.05-0.35-0.15l-14.83-15.09l-2.49,2.45l-3.69-9.46l9.4,3.85l-2.5,2.46l14.82,15.091
		c0.2,0.199,0.19,0.509,0,0.709C35.87,296.721,35.74,296.771,35.61,296.771z M261.72,295.45l-9.78-2.729l8.721-5.2l0.459,3.47
		l30.12-4.05c0.271-0.03,0.521,0.16,0.561,0.43c0.04,0.271-0.15,0.53-0.431,0.56l-30.109,4.051L261.72,295.45z M420.64,292.03
		l3.47-9.55l2.551,2.399l8.81-9.409l1.449-8.74l2.95,1.88l9.641-15.07l-0.1-1.899l3.279,1.199l5.93-16.109
		c0.091-0.26,0.381-0.391,0.641-0.301c0.26,0.101,0.39,0.391,0.3,0.65l-5.931,16.11l3.29,1.21l-6.979,7.38l-0.34-6.521l-8.89,13.891
		l0.5,0.32l0.159-0.07c0.131-0.01,0.26,0.04,0.36,0.13s0.149,0.22,0.149,0.35l1.781,1.16l-7.341,4.99l-8.93,9.529l2.55,2.391
		L420.64,292.03z M307.169,290.98l-10.109-0.91l7.63-6.69l1.091,3.33l26.649-8.68c0.26-0.09,0.54,0.06,0.63,0.32
		c0.08,0.26-0.06,0.55-0.32,0.63l-26.649,8.68L307.169,290.98z M221.1,287.83c-0.04,0-0.07,0-0.11,0l-29.71-3.96l-0.46,3.46
		l-8.73-5.2l9.78-2.729l-0.46,3.47l29.72,3.97c0.27,0.03,0.46,0.28,0.43,0.561C221.52,287.641,221.33,287.81,221.1,287.83z
		 M80.69,287.62c-0.13,0.01-0.26-0.03-0.37-0.11l-17.34-13.869l-2.19,2.729l-4.78-8.949l9.78,2.699l-2.18,2.74l17.34,13.87
		c0.21,0.17,0.25,0.479,0.07,0.699C80.94,287.54,80.82,287.601,80.69,287.62z M10.37,287.51c-0.13-0.02-0.24-0.089-0.32-0.209
		l-9.08-12.58c-0.16-0.221-0.11-0.53,0.11-0.7c0.23-0.16,0.54-0.11,0.7,0.12l9.08,12.58c0.16,0.22,0.11,0.539-0.12,0.7
		C10.63,287.5,10.5,287.53,10.37,287.51z M343.4,286.76l6.09-8.13l1.75,3.03l21.351-12.3c0.24-0.14,0.55-0.06,0.689,0.18
		c0.131,0.24,0.051,0.55-0.189,0.69l-21.351,12.3l1.75,3.029L343.4,286.76z M232.97,283.29l-9.45-3.72l9.22-4.27l0.1,3.5l30.359-0.9
		c0.271-0.01,0.5,0.21,0.511,0.49c0.01,0.27-0.21,0.5-0.48,0.51l-30.36,0.89L232.97,283.29z M389.79,282.32l4.061-9.311l2.4,2.55
		l9.5-8.959l1.859-8.671l2.851,2.021l10.68-15.11l-0.04-1.39l3.26,1.271l6.16-15.811c0.1-0.25,0.391-0.38,0.641-0.28
		c0.259,0.101,0.39,0.391,0.289,0.65l-6.16,15.8l3.261,1.271l-7.11,7.25l-0.24-7.11l-9.92,14.04l0.551,0.38l0.299-0.12
		c0.131,0.011,0.261,0.061,0.351,0.16c0.101,0.101,0.14,0.229,0.14,0.359l-0.06,0.12l1.58,1.121l-7.54,4.629l-9.67,9.11l2.4,2.54
		L389.79,282.32z M277,279.83l-9.98-1.9l8.261-5.92l0.75,3.42l28.18-6.229c0.27-0.06,0.54,0.109,0.6,0.38s-0.11,0.54-0.38,0.6
		l-28.18,6.23L277,279.83z M193.93,278.79c-0.07,0.011-0.13,0.011-0.2-0.01l-27.14-7.14l-0.89,3.38l-8.01-6.24l4.96-0.74
		l-18.97-8.08l-1.37,3.22l-2.85-2.97l-17.32-11.12l-1.89,2.95l-5.69-8.41l10.02,1.68l-1.9,2.94l13.84,8.88l-1.23-1.29l10.16-0.02
		l-1.38,3.22l20.48,8.72l3.18-0.479l-0.43,1.649l0.23,0.101c0.26,0.11,0.38,0.399,0.27,0.649c-0.08,0.2-0.27,0.311-0.46,0.311
		c-0.07,0-0.14-0.01-0.2-0.04l-0.1-0.04l-0.2,0.761l27.15,7.139c0.26,0.07,0.42,0.351,0.35,0.611
		C194.29,278.63,194.12,278.76,193.93,278.79z M55.19,278.59c-0.13-0.01-0.25-0.06-0.34-0.16l-13.57-14.89l-2.59,2.36l-3.33-9.591
		l9.24,4.2l-2.59,2.36l13.58,14.88c0.18,0.21,0.17,0.521-0.04,0.71C55.45,278.551,55.32,278.59,55.19,278.59z M312.82,275.96
		l6.761-7.569l1.489,3.169l23.15-10.819c0.25-0.11,0.54-0.01,0.659,0.24c0.121,0.25,0.011,0.55-0.239,0.67l-23.15,10.81l1.48,3.181
		L312.82,275.96z M359.5,272.66l4.669-9.01l2.221,2.71l10.29-8.45l2.27-8.59l2.761,2.15l11.68-14.971l0.2-0.109l-0.021-0.881
		l3.25,1.3l6.25-15.529c0.1-0.26,0.391-0.38,0.65-0.28c0.25,0.101,0.38,0.4,0.27,0.65l-6.239,15.54l3.25,1.3l-7.2,7.17l-0.181-7.83
		L382.5,252.09l0.649,0.511l0.101-0.08c0.21-0.181,0.529-0.15,0.699,0.069c0.09,0.101,0.131,0.24,0.12,0.36l-0.14,0.26l1.33,1.03
		l-7.69,4.23l-10.54,8.659l2.221,2.7L359.5,272.66z M206.02,270.86l-8.92-4.84l9.66-3.13l-0.32,3.489l29.42,2.71
		c0.28,0.03,0.48,0.271,0.46,0.551c-0.03,0.27-0.27,0.47-0.55,0.449l-29.42-2.72L206.02,270.86z M98.91,269.891
		c-0.13,0.01-0.26-0.03-0.36-0.12L82.48,256.01l-2.28,2.65l-4.48-9.109l9.69,3.039l-2.28,2.66l16.07,13.76
		c0.21,0.181,0.23,0.49,0.05,0.7C99.16,269.82,99.04,269.88,98.91,269.891z M30.37,269.78c-0.14-0.01-0.28-0.09-0.36-0.221
		l-9.99-15.529l-2.95,1.891L15.39,245.9l8.41,5.689l-2.94,1.891l9.99,15.54c0.15,0.229,0.08,0.539-0.15,0.689
		c-0.06,0.03-0.12,0.061-0.18,0.07C30.47,269.79,30.42,269.79,30.37,269.78z M247.91,268.101l-9.69-3.021l8.87-4.939l0.36,3.479
		l29.25-3.02c0.28-0.03,0.521,0.17,0.551,0.439c0.03,0.28-0.17,0.52-0.44,0.55l-29.26,3.03L247.91,268.101z M292.87,265.38
		l-10.14-0.689l7.49-6.86l1.159,3.311l25.16-8.811c0.261-0.09,0.551,0.05,0.641,0.311c0.09,0.26-0.051,0.55-0.311,0.64l-25.159,8.8
		L292.87,265.38z M329.629,262.94l5.36-8.631l2,2.87l11.19-7.819l2.71-8.49l2.64,2.29l12.551-14.48
		c0.18-0.209,0.489-0.229,0.699-0.05l0.131,0.261l-0.021-1.061l3.25,1.3l6.11-15.3c0.1-0.26,0.39-0.38,0.649-0.279
		c0.25,0.1,0.38,0.39,0.28,0.649l-6.11,15.3l3.25,1.301l-7.18,7.189l-0.221-8.92l-0.089,0.26l-12.541,14.49l0.811,0.7l0.319-0.22
		c0.221-0.15,0.541-0.101,0.69,0.129c0.16,0.221,0.11,0.541-0.12,0.69l-0.11,0.08l1.051,0.91l-7.71,3.75L337.56,258l2.01,2.87
		L329.629,262.94z M209.08,261.5c-0.03,0-0.06-0.01-0.1-0.02l-26.86-6.471l-0.82,3.4l-8.14-6.07l5.73-0.979l-18.74-8.13l-1.39,3.21
		l-1.65-1.74l-17.35-12.21l-2.01,2.86l-5.33-8.641l9.94,2.1l-2.02,2.861l13.33,9.389l-1.88-2l10.15,0.041l-1.39,3.22l20.15,8.73
		l2.47-0.421l-0.32,1.36l0.39,0.16c0.25,0.109,0.37,0.409,0.26,0.659c-0.09,0.19-0.27,0.311-0.47,0.301c-0.06,0-0.13-0.01-0.19-0.04
		l-0.23-0.1l-0.26,1.069l26.87,6.47c0.27,0.07,0.43,0.341,0.37,0.601C209.53,261.351,209.32,261.51,209.08,261.5z M73.8,261.301
		c-0.12-0.021-0.25-0.08-0.33-0.181l-12.05-14.76l-2.71,2.22l-2.8-9.76l9,4.7l-2.71,2.21l12.04,14.75
		c0.18,0.22,0.14,0.529-0.07,0.71C74.06,261.271,73.93,261.31,73.8,261.301z M6.26,261.2c-0.2,0-0.38-0.11-0.459-0.3l-5.18-12.25
		c-0.1-0.26,0.01-0.55,0.27-0.66c0.25-0.11,0.55,0.01,0.65,0.27l5.18,12.25c0.11,0.25-0.01,0.541-0.27,0.65
		C6.39,261.19,6.32,261.2,6.26,261.2z M220.61,255.66l-9.19-4.34l9.48-3.66l-0.13,3.5l29.11,1.05c0.28,0.011,0.49,0.24,0.48,0.521
		c-0.01,0.27-0.24,0.49-0.52,0.479l-29.1-1.05L220.61,255.66z M492.53,254.76l-2.89-9.739l3.479,0.409l1.91-16.3
		c0.03-0.279,0.28-0.47,0.561-0.439c0.27,0.03,0.47,0.28,0.43,0.55l-1.91,16.3l3.48,0.41L492.53,254.76z M263.281,254.4l-9.971-1.94
		l8.28-5.88l0.74,3.42l27.22-5.87c0.27-0.06,0.53,0.11,0.59,0.38c0.06,0.271-0.109,0.541-0.38,0.601l-27.221,5.87L263.281,254.4z
		 M116.24,253.021c-0.12,0-0.25-0.05-0.35-0.141l-14.47-13.77l-2.41,2.53L95,232.31l9.52,3.541l-2.41,2.529l14.47,13.771
		c0.2,0.2,0.2,0.51,0.01,0.71C116.5,252.96,116.37,253.01,116.24,253.021z M49.49,252.921c-0.19,0.02-0.39-0.081-0.49-0.261
		l-8.32-15.33L37.6,239l-0.93-10.109l7.97,6.289l-3.08,1.671l8.32,15.329c0.14,0.241,0.05,0.551-0.2,0.681
		C49.62,252.891,49.56,252.91,49.49,252.921z M299.99,252.9l6.14-8.091l1.73,3.051l12.23-6.939l3.229-8.391l2.511,2.44l13.569-13.94
		c0.19-0.2,0.511-0.2,0.7-0.01c0.2,0.189,0.21,0.51,0.01,0.71l-13.57,13.94l1.041,1l0.68-0.381c0.24-0.14,0.54-0.06,0.68,0.181
		c0.141,0.239,0.05,0.55-0.189,0.68l-0.431,0.25l0.73,0.71l-7.41,3.08l-13.29,7.54l1.73,3.04L299.99,252.9z M464.37,246.84
		l-2.89-9.729l3.47,0.399l1.881-16.02c0.029-0.27,0.279-0.47,0.549-0.431c0.271,0.031,0.471,0.281,0.44,0.551l-1.87,16.02l3.47,0.4
		L464.37,246.84z M223.61,245.03c-0.03,0-0.07-0.01-0.1-0.01l-26.7-5.681l-0.73,3.42l-8.3-5.85l6.85-1.351l-18.55-8.439l-1.45,3.189
		l-1.24-1.359l-0.03,0.101c-0.09,0.109-0.21,0.17-0.34,0.18s-0.26-0.021-0.36-0.11l-15.38-12.71l-2.23,2.7l-4.64-9.03l9.74,2.86
		l-2.23,2.7l13.56,11.21l-3.69-4.041l10.16,0.221l-1.45,3.18l19.81,9.011l1.44-0.28l-0.19,0.85l0.64,0.29
		c0.25,0.12,0.36,0.41,0.25,0.66c-0.09,0.189-0.28,0.3-0.47,0.3c-0.06-0.01-0.13-0.02-0.19-0.05l-0.44-0.2l-0.33,1.57l26.7,5.68
		c0.27,0.05,0.44,0.32,0.38,0.59C224.05,244.87,223.84,245.03,223.61,245.03z M91.51,244.83c-0.13-0.021-0.24-0.1-0.32-0.21
		l-10.14-14.69l-2.88,1.98l-2.01-9.95l8.6,5.41l-2.89,1.99l10.14,14.69c0.16,0.229,0.1,0.539-0.13,0.699
		C91.77,244.83,91.64,244.851,91.51,244.83z M25.58,244.74c-0.2-0.02-0.37-0.15-0.44-0.34l-5-15.61l-3.33,1.07l0.95-10.11
		l6.661,7.671l-3.33,1.069l5.01,15.6c0.08,0.261-0.06,0.54-0.33,0.631C25.71,244.74,25.64,244.75,25.58,244.74z M280.47,242.141
		l-10.15-0.12l7.091-7.271l1.34,3.23l13.359-5.53l3.93-8.29l2.311,2.63l14.99-13.239c0.21-0.181,0.529-0.16,0.71,0.05
		c0.18,0.2,0.16,0.52-0.05,0.7l-14.98,13.229l1.32,1.51l1.41-0.59c0.26-0.1,0.55,0.021,0.649,0.271c0.11,0.26-0.01,0.55-0.271,0.659
		l-1.09,0.45l0.291,0.33l-5.33,1.761l-16.871,6.989L280.47,242.141z M234.97,242.08l-9.53-3.521l9.12-4.47l0.18,3.5l28.47-1.46
		c0.279-0.02,0.52,0.2,0.529,0.471c0.011,0.279-0.2,0.51-0.47,0.529l-28.48,1.45L234.97,242.08z M505.161,239.421l-4.841-8.931
		l3.49-0.319l-1.47-15.94c-0.03-0.271,0.18-0.521,0.449-0.54c0.28-0.03,0.521,0.17,0.541,0.45l1.47,15.939l3.489-0.32
		L505.161,239.421z M437.19,239.141l-3.021-9.69l3.48,0.359l1.62-15.759c0.03-0.28,0.27-0.48,0.55-0.45
		c0.271,0.029,0.47,0.27,0.44,0.55l-1.62,15.76l3.489,0.36L437.19,239.141z M132.74,236.94c-0.13,0-0.26-0.061-0.35-0.16
		l-12.34-13.91l-2.62,2.33l-3.21-9.641l9.19,4.331l-2.62,2.319l12.35,13.9c0.18,0.21,0.16,0.52-0.04,0.71
		C132.99,236.91,132.86,236.95,132.74,236.94z M67.55,236.851c-0.19,0-0.38-0.11-0.45-0.311l-6.3-15.16l-3.23,1.351l0.12-10.16
		l7.27,7.09L61.73,221l6.29,15.16c0.1,0.261-0.02,0.55-0.27,0.649C67.68,236.84,67.62,236.851,67.55,236.851z M2.38,236.76
		c-0.25,0.011-0.48-0.18-0.51-0.43l-1.25-9.279c-0.03-0.28,0.16-0.53,0.43-0.561c0.28-0.04,0.53,0.15,0.56,0.42l1.25,9.28
		c0.04,0.28-0.15,0.53-0.43,0.569C2.41,236.76,2.4,236.76,2.38,236.76z M478.09,231.82l-5.061-8.811l3.48-0.399l-1.82-15.66
		c-0.029-0.271,0.17-0.521,0.439-0.55c0.271-0.03,0.521,0.159,0.551,0.44l1.82,15.649l3.479-0.399L478.09,231.82z M411.129,231.65
		l-3.35-9.591l3.49,0.241l1.07-15.521c0.02-0.28,0.25-0.49,0.529-0.471c0.271,0.021,0.48,0.261,0.461,0.541l-1.061,15.52l3.49,0.24
		L411.129,231.65z M250.61,230.86l-9.97-1.939l8.28-5.881l0.74,3.42l13.49-2.909l5.25-8.241l1.97,2.891l17.53-11.97
		c0.229-0.15,0.54-0.101,0.7,0.13c0.15,0.23,0.09,0.54-0.14,0.699l-17.521,11.961l1.689,2.489l3.261-0.709
		c0.271-0.061,0.54,0.109,0.6,0.379c0.061,0.271-0.11,0.541-0.38,0.601l-26.24,5.66L250.61,230.86z M341.69,230.62l-0.521-10.14
		l3.28,1.21l5.58-15.131c0.1-0.259,0.39-0.399,0.64-0.3c0.261,0.091,0.4,0.381,0.301,0.641l-5.58,15.14l3.279,1.21L341.69,230.62z
		 M237.47,229.32c-0.04,0.01-0.07,0-0.1,0l-26.73-4.54l-0.58,3.45l-8.54-5.51l8.56-2.061l-18.24-9.239l-1.58,3.119l-6.52-7.78
		l10.13,0.65l-1.58,3.12l20.2,10.229c0.24,0.12,0.34,0.42,0.22,0.67c-0.1,0.181-0.29,0.28-0.48,0.271c-0.07,0-0.13-0.021-0.2-0.05
		l-0.79-0.4l-0.43,2.54l26.72,4.54c0.28,0.05,0.46,0.311,0.41,0.58C237.9,229.15,237.7,229.32,237.47,229.32z M108.56,229.141
		c-0.2,0.02-0.39-0.081-0.49-0.261l-7.69-14.689l-3.1,1.619l-0.79-10.119l7.88,6.41l-3.11,1.63l7.7,14.68
		c0.13,0.25,0.03,0.55-0.21,0.68C108.69,229.12,108.62,229.141,108.56,229.141z M44.07,229.06c-0.23-0.009-0.44-0.169-0.48-0.409
		l-2.99-15.31L37.17,214l1.58-7.34l-0.07-0.05c-0.08-0.101-0.12-0.23-0.1-0.37l2.02-14.83l-3.47-0.48l5.23-8.709l2.7,9.789
		l-3.47-0.47l-1.8,13.24l5.23,7.69l-3.44,0.67l2.99,15.319c0.05,0.271-0.13,0.53-0.4,0.591C44.14,229.051,44.11,229.06,44.07,229.06
		z M452.081,224.36l-5.42-8.59l3.449-0.55l-2.449-15.37c-0.041-0.271,0.149-0.53,0.42-0.57c0.27-0.05,0.529,0.141,0.569,0.41
		l2.45,15.369l3.46-0.55L452.081,224.36z M386.44,224.32l-3.97-9.34l3.5,0.01l0.04-15.3c0-0.28,0.229-0.5,0.5-0.5
		c0.279,0,0.5,0.23,0.5,0.5l-0.04,15.3l3.5,0.01L386.44,224.32z M516.911,224.23l-6.451-7.851l3.36-0.97l-4.479-15.42
		c-0.08-0.26,0.079-0.54,0.34-0.62c0.27-0.069,0.54,0.08,0.62,0.34l4.479,15.42l3.36-0.979L516.911,224.23z M318.129,223.65
		l-1.329-10.07l3.369,0.95l4.23-15.06c0.07-0.261,0.351-0.42,0.62-0.341c0.26,0.07,0.42,0.351,0.34,0.61l-4.23,15.061l3.371,0.939
		L318.129,223.65z M148.48,221.61c-0.14-0.01-0.27-0.09-0.36-0.22l-9.39-14.141l-2.91,1.93l-1.83-9.979l8.49,5.56l-2.91,1.94
		l9.38,14.141c0.16,0.229,0.09,0.539-0.14,0.689c-0.05,0.04-0.12,0.061-0.18,0.08C148.58,221.62,148.53,221.62,148.48,221.61z
		 M84.85,221.53c-0.23,0.01-0.44-0.15-0.5-0.38l-3.8-14.979l-3.39,0.859l1.16-7.33l-0.2-0.12c-0.08-0.109-0.12-0.239-0.1-0.37
		l2.2-14.569l-3.46-0.521l5.34-8.64l2.57,9.829l-3.46-0.52l-1.94,12.881l5.65,7.389l-3.4,0.861l3.8,14.979
		c0.06,0.271-0.1,0.54-0.37,0.609C84.92,221.521,84.89,221.521,84.85,221.53z M21.15,221.44c-0.28,0-0.5-0.22-0.51-0.5l-0.17-15.27
		l-3.5,0.039l3.89-9.38l4.11,9.28l-3.5,0.05l0.17,15.27C21.65,221.21,21.43,221.43,21.15,221.44z M363.61,217.051l-5.06-8.811
		l3.479-0.41l-1.76-15.05c-0.01-0.13,0.03-0.26,0.109-0.359l0.29-0.171l-7.029-3.64l2.71-2.22l-10.88-13.26
		c-0.181-0.22-0.15-0.53,0.069-0.71c0.211-0.17,0.53-0.14,0.7,0.07l10.88,13.26l2.711-2.22l2.83,9.75l-1.48-0.76l0.09,0.15
		l1.75,15.05l3.48-0.411L363.61,217.051z M298.9,216.99l-3.64-9.48l3.5,0.141l0.57-15.021c0.01-0.279,0.239-0.489,0.52-0.479
		c0.27,0.01,0.49,0.24,0.48,0.51l-0.57,15.03l3.5,0.13L298.9,216.99z M427.28,216.971l-5.99-8.2l3.41-0.78l-3.46-15.069
		c-0.06-0.271,0.11-0.541,0.38-0.601c0.271-0.061,0.53,0.109,0.601,0.38l3.46,15.06l3.41-0.779L427.28,216.971z M490.72,216.83
		l-6.761-7.58l3.32-1.109l-5.05-15.09c-0.09-0.271,0.05-0.551,0.31-0.641c0.271-0.08,0.551,0.061,0.641,0.32l5.05,15.09l3.32-1.11
		L490.72,216.83z M223.23,215.521l-8.96-4.78l9.64-3.189l-0.29,3.489l27.07,2.301c0.28,0.029,0.48,0.27,0.46,0.539
		c-0.02,0.28-0.27,0.48-0.54,0.461l-27.08-2.311L223.23,215.521z M187.62,214.25c-0.13,0-0.26-0.06-0.35-0.159l-11.82-13.36
		l-2.62,2.32l-3.2-9.641l9.19,4.33l-2.62,2.33l11.82,13.351c0.19,0.209,0.17,0.529-0.04,0.709
		C187.88,214.221,187.74,214.26,187.62,214.25z M124.62,214.171c-0.2-0.021-0.38-0.15-0.44-0.351l-4.51-14.67l-3.34,1.029
		l0.76-7.279c-0.03,0.01-0.06,0-0.1-0.01c-0.27-0.05-0.44-0.32-0.39-0.59l2.96-14.28l-3.43-0.71l5.81-8.33l2.03,9.949l-3.43-0.709
		l-2.59,12.5l6.03,7.109l-3.35,1.03l4.51,14.66c0.08,0.27-0.07,0.55-0.33,0.63c-0.04,0.01-0.07,0.01-0.1,0.021
		C124.68,214.171,124.65,214.171,124.62,214.171z M61.71,214.08c-0.27,0.011-0.51-0.2-0.52-0.479l-0.59-14.98l-3.5,0.13l3.63-9.479
		l4.36,9.17l-3.49,0.14l0.59,14.979C62.2,213.841,61.99,214.07,61.71,214.08z M239.55,209.74l-10.04-1.561l8.05-6.189l0.87,3.39
		l24.71-6.34c0.271-0.069,0.54,0.09,0.61,0.36c0.069,0.271-0.09,0.54-0.36,0.609l-24.71,6.341L239.55,209.74z M403.919,209.53
		l-6.8-7.54l3.311-1.13l-5.02-14.7c-0.051-0.13-0.031-0.27,0.02-0.39l0.109-0.091l-7.27-3.529l2.641-2.29l-11.281-13.03
		c-0.18-0.21-0.159-0.53,0.051-0.71c0.21-0.18,0.52-0.16,0.699,0.05l11.29,13.03l2.65-2.29l3.08,9.681l-0.95-0.471l4.93,14.42
		l3.311-1.13L403.919,209.53z M465.581,209.471l-7.19-7.17l3.25-1.301l-5.92-14.74c-0.101-0.26,0.02-0.55,0.28-0.649
		c0.25-0.101,0.539,0.02,0.649,0.28l5.92,14.739l3.25-1.31L465.581,209.471z M343.56,209.38l-6.79-7.56l3.32-1.12l-4.971-14.62
		c-0.09-0.26,0.05-0.55,0.32-0.64c0.26-0.09,0.54,0.05,0.63,0.319l4.96,14.62l3.32-1.13L343.56,209.38z M225.98,207.051
		c-0.13,0.029-0.26,0-0.38-0.08l-16.94-11.38l-1.95,2.899l-5.51-8.53l9.98,1.891l-1.96,2.909l16.94,11.391
		c0.23,0.15,0.29,0.46,0.14,0.69C226.22,206.95,226.1,207.03,225.98,207.051z M163.57,206.98c-0.2-0.021-0.38-0.14-0.45-0.34
		l-5.07-14.381l-3.3,1.161l0.49-7.491l-0.11,0.15c-0.08,0.061-0.17,0.091-0.27,0.1c-0.06,0-0.13-0.009-0.19-0.029
		c-0.26-0.091-0.4-0.37-0.31-0.63l4.87-13.93l-3.31-1.16l6.86-7.49l0.7,10.13l-3.31-1.15l-4.19,11.98l6.32,6.859l-3.31,1.17
		l5.08,14.38c0.09,0.261-0.05,0.551-0.31,0.641C163.7,206.971,163.63,206.98,163.57,206.98z M101.3,206.891
		c-0.25-0.011-0.46-0.211-0.47-0.47l-0.73-14.73l-3.5,0.17l3.54-9.52l4.45,9.13l-3.49,0.17l0.73,14.729
		c0.01,0.271-0.2,0.51-0.48,0.521C101.33,206.891,101.32,206.891,101.3,206.891z M294.39,205.671l-9.351-3.961l2.521-2.42
		l-12.59-13.11c-0.2-0.199-0.189-0.509,0.01-0.699c0.2-0.19,0.521-0.19,0.71,0.01l12.591,13.101l2.52-2.42L294.39,205.671z
		 M502.12,202.091l-7.959-6.311l3.079-1.66l-7.78-14.399c-0.14-0.24-0.049-0.55,0.201-0.681c0.239-0.13,0.539-0.04,0.67,0.21
		l7.789,14.391l3.08-1.67L502.12,202.091z M441.59,202.08l-7.76-6.55l3.13-1.57l-7.171-14.33c-0.06-0.12-0.069-0.26-0.029-0.38
		l0.05-0.05l-7.54-3.38l2.58-2.37l-11.77-12.79c-0.19-0.2-0.181-0.52,0.029-0.7c0.2-0.19,0.52-0.18,0.7,0.02l11.771,12.79l2.58-2.37
		l3.379,9.58l-0.59-0.27l6.91,13.799l3.13-1.56L441.59,202.08z M382.29,201.79l-7.859-6.43l3.109-1.62l-7.39-14.181
		c-0.12-0.239-0.03-0.55,0.22-0.669c0.24-0.131,0.541-0.04,0.67,0.21l7.38,14.18l3.11-1.62L382.29,201.79z M327.57,199.971
		l-8.96-4.78l2.73-2.19l-10.76-13.43c-0.17-0.22-0.141-0.53,0.08-0.71c0.209-0.17,0.529-0.14,0.699,0.08l10.76,13.43l2.73-2.19
		L327.57,199.971z M201.64,199.94c-0.19,0-0.37-0.131-0.44-0.32l-5.25-14.16l-3.28,1.22l0.42-8.569l-0.92,1.28
		c-0.08,0.109-0.2,0.18-0.33,0.199c-0.13,0.021-0.26,0-0.37-0.09c-0.23-0.16-0.28-0.47-0.11-0.69l9.41-13.06l-2.84-2.04l8.71-5.24
		l-1.61,7.18l16.77-9.93l-1.25-2.11l-2.81,0.86c-0.03,0.01-0.07,0.02-0.1,0.02c-0.23,0.02-0.46-0.12-0.53-0.35
		c-0.08-0.27,0.07-0.55,0.34-0.63l2.57-0.79l0.12-0.03l18.9-5.77l-1.02-3.35l10.1,1.11l-7.77,6.55l-1.02-3.35l-13.2,4.03l3.96-0.52
		l-5.99,8.2l-1.79-3.01l-17.11,10.13c-0.06,0.03-0.12,0.06-0.18,0.07l-0.23-0.04l-0.37,1.65l-2.84-2.05l-7.81,10.83l6.4,6.73
		l-3.28,1.21l5.25,14.16c0.09,0.26-0.04,0.55-0.3,0.64C201.78,199.94,201.71,199.95,201.64,199.94z M140.1,199.86
		c-0.28,0.01-0.51-0.21-0.52-0.49l-0.35-14.49l-3.5,0.08l3.78-9.43l4.22,9.24l-3.5,0.09l0.35,14.49
		C140.59,199.63,140.37,199.86,140.1,199.86z M16.93,199.7c-0.03-0.01-0.07-0.01-0.1-0.021c-0.26-0.079-0.42-0.35-0.34-0.62
		l4.18-14.6l-3.37-0.96l6.42-7.87l1.27,10.07l-3.36-0.96l-4.18,14.601C17.38,199.57,17.16,199.71,16.93,199.7z M477.59,194.83
		l-8.351-5.779l2.971-1.86l-8.771-13.97c-0.07-0.11-0.09-0.25-0.05-0.37l-7.771-3.24l2.5-2.45l-12.279-12.54
		c-0.19-0.19-0.19-0.51,0.01-0.7c0.189-0.2,0.51-0.19,0.7,0l12.28,12.55l2.5-2.45l3.68,9.46l-0.311-0.12l8.351,13.3l2.97-1.859
		L477.59,194.83z M418.84,194.521l-8.43-5.67l2.939-1.9l-8.92-13.79c-0.15-0.24-0.08-0.55,0.15-0.7
		c0.229-0.15,0.539-0.08,0.689,0.15l8.92,13.8l2.939-1.9L418.84,194.521z M519.94,193.771c-0.2,0.01-0.39-0.1-0.48-0.28l-3.409-7.12
		c-0.12-0.25-0.021-0.55,0.229-0.67s0.551-0.01,0.67,0.229l3.41,7.121c0.12,0.25,0.02,0.55-0.23,0.67
		C520.07,193.75,520,193.771,519.94,193.771z M238.9,193.07c-0.24-0.011-0.44-0.17-0.49-0.41l-2.74-14.17l-3.44,0.66l1.92-8.83
		l-6.04,2.79c-0.06,0.03-0.12,0.05-0.19,0.05c-0.19,0-0.38-0.1-0.47-0.29c-0.11-0.25-0.01-0.55,0.25-0.67l19.47-9l-1.46-3.18
		l10.15-0.28l-6.8,7.55l-1.47-3.18l-12.7,5.87l5.2,7.649l-3.44,0.671l2.74,14.17c0.05,0.27-0.12,0.529-0.39,0.589
		C238.96,193.06,238.93,193.07,238.9,193.07z M178,192.99c-0.02,0-0.04,0-0.05-0.01c-0.28-0.021-0.48-0.26-0.46-0.54l1.22-14.27
		l-3.48-0.301l4.78-8.96l3.19,9.641l-3.49-0.301l-1.22,14.28C178.47,192.79,178.25,192.98,178,192.99z M56.26,192.82
		c-0.06,0.01-0.13,0-0.19-0.02c-0.27-0.08-0.41-0.36-0.33-0.621l4.49-14.31l-3.34-1.05l6.62-7.7l1.02,10.101l-3.34-1.05l-4.5,14.3
		C56.63,192.671,56.46,192.801,56.26,192.82z M512.36,187.79l-8.76-5.14l2.819-2.08l-10.04-13.63c-0.079-0.11-0.109-0.24-0.079-0.37
		l-8-3.04l2.42-2.52l-12.79-12.3c-0.19-0.19-0.2-0.51-0.011-0.71c0.19-0.2,0.511-0.21,0.71-0.01l12.79,12.3l2.421-2.53l3.96,9.36
		l-0.07-0.03l9.49,12.89l2.819-2.08L512.36,187.79z M454.06,187.5l-8.8-5.079l2.8-2.091l-10.07-13.46
		c-0.17-0.22-0.12-0.53,0.101-0.7c0.22-0.16,0.529-0.12,0.699,0.1l10.07,13.46l2.801-2.101L454.06,187.5z M314.93,186.32
		l-10.141-0.46l1.521-3.15l-19.66-9.53c-0.239-0.12-0.35-0.42-0.23-0.66c0.12-0.25,0.421-0.36,0.671-0.24l19.66,9.529l1.52-3.149
		L314.93,186.32z M215.04,186.26c-0.07-0.01-0.13-0.02-0.19-0.05c-0.25-0.13-0.35-0.43-0.23-0.67l6.82-13.65l-3.13-1.57l7.76-6.56
		l-0.6,10.14l-3.13-1.56l-6.82,13.64C215.43,186.171,215.23,186.271,215.04,186.26z M94.63,186.101c-0.07,0-0.14-0.01-0.2-0.03
		c-0.26-0.1-0.39-0.391-0.29-0.649l5.37-13.971l-3.27-1.25l7.08-7.28l0.39,10.15l-3.27-1.26l-5.36,13.97
		C95,185.971,94.82,186.101,94.63,186.101z M34.39,186.021c-0.07,0-0.13-0.011-0.19-0.04c-0.26-0.12-0.37-0.41-0.25-0.66l6.34-14
		l-3.19-1.44l7.5-6.85l-0.21,10.15l-3.19-1.44l-6.34,13.99C34.77,185.921,34.58,186.03,34.39,186.021z M344.87,183.36l-9.89-2.26
		l2.06-2.83l-10.289-7.5l0.84,0.82l-10.15,0.38l1.26-3.26l-19.47-7.5l-0.811,0.23l0.07-0.51l-0.739-0.28
		c-0.25-0.1-0.381-0.39-0.28-0.65c0.1-0.26,0.39-0.39,0.64-0.29l0.52,0.2l0.281-1.94l-24.261-3.41c-0.271-0.04-0.46-0.3-0.42-0.57
		s0.29-0.46,0.56-0.42l24.261,3.41l0.48-3.47l8.689,5.27l-7.36,1.99l18.2,7l1.26-3.26l1.53,1.49l0.08,0.02l15.699,11.44l2.061-2.83
		L344.87,183.36z M488.25,180.68l-9.061-4.58l2.68-2.25l-11.029-13.13c-0.18-0.21-0.15-0.53,0.06-0.71s0.53-0.15,0.71,0.06
		l11.02,13.14l2.681-2.25L488.25,180.68z M251.32,179.68c-0.23-0.02-0.42-0.199-0.46-0.439c-0.04-0.27,0.16-0.52,0.43-0.561
		l25.089-3.459l-0.469-3.47l9.789,2.68L277,179.671l-0.48-3.46l-25.09,3.46C251.39,179.68,251.36,179.68,251.32,179.68z
		 M132.14,179.521c-0.07,0-0.13-0.021-0.19-0.06c-0.25-0.131-0.34-0.431-0.21-0.671l7.18-13.51l-3.09-1.65l7.91-6.36l-0.85,10.12
		l-3.09-1.64l-7.18,13.51C132.52,179.44,132.33,179.54,132.14,179.521z M72.57,179.45c-0.06-0.01-0.13-0.029-0.19-0.06
		c-0.24-0.131-0.34-0.43-0.21-0.68l7.19-13.621l-3.09-1.63l7.89-6.39l-0.82,10.12l-3.09-1.63l-7.19,13.62
		C72.96,179.36,72.76,179.461,72.57,179.45z M13,179.37c-0.06-0.01-0.13-0.03-0.19-0.069c-0.24-0.13-0.32-0.44-0.18-0.681
		l7.85-13.67l-3.03-1.74l8.11-6.1l-1.18,10.08l-3.03-1.74l-7.85,13.67C13.39,179.301,13.2,179.391,13,179.37z M377.22,178.03
		l-9.74-2.86l2.22-2.7l-14.34-11.83c-0.21-0.18-0.24-0.49-0.06-0.71c0.17-0.21,0.489-0.24,0.7-0.06l14.34,11.83l2.229-2.7
		L377.22,178.03z M521.57,174.04l-9.27-4.14l2.569-2.38l-11.85-12.84c-0.189-0.2-0.18-0.52,0.02-0.7
		c0.211-0.19,0.521-0.18,0.711,0.02l11.85,12.84l2.569-2.37L521.57,174.04z M168.99,173.08c-0.13,0.01-0.26-0.03-0.36-0.12
		c-0.21-0.17-0.24-0.49-0.06-0.7l10.73-12.61l-2.67-2.27l9.1-4.52l-1.73,5.59l14.27-9.28l-0.9-1.39l-1.73,0.68
		c-0.07,0.03-0.13,0.04-0.2,0.04c-0.19,0-0.38-0.12-0.45-0.32c-0.1-0.25,0.02-0.54,0.28-0.64l1.54-0.62l-0.44-0.69l3.85-0.66
		l14.84-5.9l-1.29-3.25l10.15,0.27l-7.2,7.16l-1.29-3.25l-10.41,4.14l1.35-0.24l-5.64,8.44l-1.91-2.93l-15.28,9.93l-0.81,2.62
		l-2.67-2.27l-10.73,12.62C169.24,173.01,169.12,173.07,168.99,173.08z M110.06,173.01c-0.05,0-0.09,0-0.14-0.01
		c-0.07-0.01-0.13-0.04-0.18-0.08c-0.23-0.15-0.29-0.46-0.14-0.69l8.79-13.11l-2.9-1.95l8.52-5.53l-1.88,9.98l-2.9-1.95l-8.8,13.12
		C110.34,172.92,110.21,172.99,110.06,173.01z M51.15,172.93c-0.05,0.01-0.1,0-0.15,0c-0.06-0.02-0.12-0.04-0.18-0.08
		c-0.23-0.15-0.3-0.46-0.15-0.69l8.63-13.27l-2.93-1.91l8.44-5.64l-1.74,10.01l-2.93-1.91l-8.63,13.27
		C51.42,172.84,51.29,172.91,51.15,172.93z M288.23,172.3l0.271-3.49l-25.25-1.96c-0.28-0.02-0.48-0.26-0.461-0.54
		c0.021-0.27,0.261-0.48,0.541-0.46l25.25,1.97l0.27-3.49l9,4.71L288.23,172.3z M410,172.15l-9.69-3.03l2.271-2.66L388.7,154.58
		c-0.21-0.18-0.229-0.49-0.05-0.7c0.17-0.21,0.49-0.24,0.7-0.06l13.88,11.88l2.28-2.66L410,172.15z M357.919,168.62l-10.109-1.04
		l1.71-3.06l-11.03-6.13l-9.97,0.77l1.12-3.32l-18.55-6.31l-2.58,0.63l0.229-1.42l-0.36-0.13c-0.26-0.09-0.399-0.37-0.31-0.63
		c0.091-0.26,0.37-0.4,0.63-0.31l0.211,0.07l0.18-1.03l-23.48-3.95c-0.27-0.04-0.449-0.3-0.41-0.57
		c0.051-0.28,0.311-0.46,0.581-0.42l23.47,3.95l0.58-3.45l8.539,5.49l-5.47,1.33l17.07,5.81l1.12-3.32l4.51,4.06l14.4,8.01
		l1.699-3.06L357.919,168.62z M146.64,166.71c-0.13,0-0.26-0.05-0.36-0.14c-0.2-0.19-0.21-0.51-0.02-0.71l11.59-12.25l-2.54-2.4
		l9.32-4.04l-1.64,4.45l12.78-8.62l-0.64-0.94l-1.16,0.53c-0.06,0.03-0.13,0.04-0.19,0.04c-0.2,0.01-0.39-0.1-0.47-0.29
		c-0.12-0.25-0.01-0.55,0.25-0.66l1-0.46l-0.75-1.12l5.5-1.05l12.84-5.86l-1.45-3.18l-4.03,1.28c-0.06,0.02-0.13,0.03-0.19,0.02
		c-0.2-0.02-0.37-0.15-0.43-0.34c-0.09-0.27,0.06-0.55,0.32-0.63l20.53-6.52l-1.06-3.34l10.11,0.99l-7.68,6.64l-1.06-3.34
		L190.73,130l10.12-0.24l-6.83,7.52l-1.45-3.19l-9.12,4.17l0.33-0.06l-5.5,8.53l-1.96-2.9l-13.92,9.39l-1.28,3.48l-2.54-2.4
		l-11.59,12.25C146.9,166.65,146.77,166.7,146.64,166.71z M88.38,166.63c-0.13,0.01-0.26-0.02-0.37-0.1
		c-0.22-0.18-0.25-0.49-0.08-0.71l10-12.74l-2.75-2.16l8.91-4.87l-2.62,9.81l-2.75-2.16l-10.01,12.74
		C88.63,166.55,88.51,166.61,88.38,166.63z M30.09,166.55c-0.12,0.02-0.26-0.01-0.37-0.09c-0.22-0.17-0.26-0.48-0.09-0.7l9.79-12.93
		l-2.79-2.11l8.83-5.02l-2.45,9.85l-2.79-2.11l-9.8,12.92C30.34,166.47,30.22,166.54,30.09,166.55z M442.59,166.13l-9.69-3.02
		l2.27-2.66l-13.81-11.79c-0.21-0.18-0.23-0.5-0.05-0.71c0.18-0.21,0.49-0.23,0.7-0.05l13.81,11.79l2.271-2.66L442.59,166.13z
		 M389.29,163.9l-10.01-1.73l1.9-2.93l-16.34-10.61c-0.23-0.15-0.301-0.46-0.15-0.69c0.15-0.24,0.46-0.3,0.689-0.15l16.351,10.61
		l1.899-2.94L389.29,163.9z M240.18,160.61c-0.23-0.01-0.44-0.19-0.47-0.42c-0.05-0.28,0.14-0.53,0.41-0.58l24.041-3.83l-0.551-3.46
		l9.851,2.48l-8.591,5.42l-0.55-3.45l-24.04,3.83C240.24,160.61,240.21,160.61,240.18,160.61z M124.77,160.46
		c-0.13,0-0.26-0.05-0.35-0.15c-0.2-0.2-0.19-0.51,0-0.7l12.24-11.94l-2.45-2.5l9.48-3.66l-1.49,3.58l11.78-8.03l-0.44-0.63
		l-0.81,0.4c-0.06,0.03-0.12,0.05-0.19,0.05c-0.19,0.01-0.38-0.09-0.48-0.28c-0.12-0.24-0.02-0.54,0.23-0.67l0.69-0.33l-0.97-1.43
		l6.38-1.25l11.71-5.79l-1.24-2.51l-3.13,1.14c-0.06,0.02-0.13,0.03-0.19,0.03c-0.2-0.01-0.38-0.13-0.45-0.33
		c-0.09-0.26,0.04-0.54,0.3-0.64l19.56-7.15l-1.21-3.29l10.14,0.55l-7.39,6.97l-1.2-3.29l-14.37,5.25l7.77-0.42l-6.6,7.72
		l-1.55-3.13l-8.61,4.26l-5.42,8.49l-1.97-2.89l-13.04,8.89l-1.7,4.11l-2.45-2.5l-12.23,11.93
		C125.02,160.42,124.89,160.46,124.77,160.46z M67.11,160.39c-0.13,0.01-0.26-0.03-0.36-0.13c-0.21-0.18-0.23-0.49-0.04-0.7
		l10.95-12.4l-2.62-2.31l9.18-4.35l-3.18,9.64l-2.63-2.31l-10.95,12.39C67.36,160.32,67.24,160.38,67.11,160.39z M9.44,160.32
		c-0.13,0.01-0.26-0.03-0.36-0.12c-0.21-0.18-0.24-0.5-0.06-0.71l10.76-12.59l-2.66-2.28l9.11-4.49l-3.02,9.69l-2.67-2.27
		L9.78,160.14C9.69,160.25,9.57,160.31,9.44,160.32z M474.77,160.12l-9.73-2.92l2.25-2.69l-13.92-11.66
		c-0.209-0.17-0.24-0.49-0.06-0.7c0.17-0.21,0.49-0.24,0.7-0.06l13.92,11.66l2.25-2.69L474.77,160.12z M420.93,158.57l-9.95-2.05
		l2-2.87l-15.59-10.84c-0.221-0.15-0.28-0.46-0.12-0.69s0.47-0.28,0.69-0.13l15.59,10.84l2-2.87L420.93,158.57z M369.081,155.16
		l-10.15-0.33l1.489-3.17l-11.939-5.59l-9.68,0.99l1.04-3.34l-17.7-5.54l-3.78,0.86l0.351-1.94l-0.13-0.04
		c-0.271-0.08-0.411-0.36-0.33-0.63c0.08-0.26,0.359-0.41,0.64-0.33l0.1-0.51l-22.85-4.15c-0.271-0.05-0.45-0.31-0.4-0.59
		c0.05-0.27,0.311-0.45,0.58-0.4l1.1,0.2l0.221-3.03l-23.5-1.7c-0.271-0.02-0.479-0.26-0.46-0.54c0.02-0.27,0.26-0.48,0.54-0.46
		l23.49,1.7l0.25-3.49l9.02,4.67l-8.72,3.01l20.909,3.8l0.62-3.44l8.471,5.6l-4.19,0.96l16.07,5.03l1.05-3.34l5.479,4.7l14.171,6.63
		l1.479-3.17L369.081,155.16z M103.35,154.35c-0.13-0.01-0.25-0.06-0.35-0.16c-0.18-0.21-0.17-0.52,0.04-0.71l12.75-11.64
		l-2.36-2.59l9.59-3.34l-1.32,2.91l11.07-7.52l-0.27-0.41l-0.58,0.3c-0.07,0.04-0.13,0.05-0.19,0.06c-0.2,0.01-0.39-0.09-0.49-0.27
		c-0.12-0.25-0.03-0.55,0.22-0.68l0.47-0.24l-1.12-1.66l6.92-1.34l11.01-5.7l-1.04-2.02l-2.5,1c-0.06,0.03-0.13,0.04-0.19,0.04
		c-0.2-0.01-0.38-0.13-0.46-0.32c-0.1-0.26,0.02-0.55,0.28-0.65l2.4-0.96l-0.1-0.2l0.74-0.06l15.77-6.31l-1.3-3.25l10.16,0.24
		l-7.18,7.19l-1.3-3.25l-12.86,5.14l6.1-0.44l-6.45,7.84l-1.61-3.11l-8.56,4.44l-5.34,8.34l-1.96-2.89l-12.43,8.44l-2.08,4.59
		l-2.36-2.58l-12.76,11.64C103.61,154.31,103.48,154.35,103.35,154.35z M46.29,154.28c-0.13,0-0.25-0.05-0.35-0.14
		c-0.2-0.19-0.21-0.51-0.01-0.71l11.73-12.07l-2.51-2.44l9.37-3.91l-2.33,6.1l12.96-10.62l-2.21-2.71l9.75-2.82l-1,1.94l10.16-6.71
		l-0.06-0.09l-0.29,0.15c-0.06,0.04-0.13,0.05-0.19,0.06c-0.2,0.02-0.39-0.08-0.49-0.26c-0.13-0.24-0.04-0.55,0.2-0.68l0.22-0.11
		l-1.32-1.99l7.55-1.37l10.25-5.52l-0.71-1.32l-1.7,0.75c-0.07,0.03-0.13,0.05-0.2,0.05c-0.19,0-0.38-0.11-0.46-0.3
		c-0.11-0.25,0-0.55,0.25-0.66l1.63-0.72l-0.47-0.88l3.08-0.27l13.61-6.02l-1.05-2.38l-3.1,1.13c-0.06,0.03-0.13,0.04-0.19,0.03
		c-0.2-0.01-0.38-0.13-0.45-0.33c-0.09-0.26,0.04-0.54,0.3-0.64L136.97,92l-1.19-3.24l-4.37,1.32c-0.03,0.01-0.07,0.01-0.1,0.02
		c-0.23,0.02-0.45-0.13-0.52-0.36c-0.08-0.26,0.07-0.54,0.33-0.62l19.3-5.82l-1.01-3.35l10.09,1.13l-7.78,6.53l-1.01-3.35
		l-14.8,4.46l10,0.55l-7.4,6.96l-1.2-3.29l-13.27,4.84l7.45-0.09l-6.92,7.44l-1.42-3.2l-10.92,4.82l3.95-0.35l-6.33,7.95l-1.66-3.08
		l-8.54,4.59l-5.32,8.08l-1.93-2.92l-11.67,7.71L78,133.97l-2.21-2.71L62.2,142.38c-0.11,0.09-0.24,0.13-0.37,0.11l-0.15-0.08
		l-0.79,2.08l-2.51-2.44l-11.74,12.08C46.55,154.23,46.42,154.28,46.29,154.28z M506.44,154.17l-9.771-2.79l2.21-2.71l-14.14-11.5
		c-0.21-0.17-0.25-0.49-0.07-0.7c0.171-0.22,0.491-0.25,0.7-0.08l14.141,11.5l2.21-2.72L506.44,154.17z M452.44,153.02l-9.92-2.17
		l2.03-2.85l-15.24-10.88c-0.229-0.16-0.28-0.47-0.12-0.7c0.16-0.22,0.471-0.27,0.7-0.11l15.239,10.88l2.031-2.85L452.44,153.02z
		 M520.05,152.4c-0.131,0.01-0.261-0.04-0.36-0.13l-10.311-9.36c-0.199-0.19-0.219-0.5-0.029-0.71c0.18-0.2,0.5-0.22,0.7-0.03
		l10.31,9.36c0.21,0.19,0.221,0.5,0.04,0.71C520.31,152.34,520.18,152.39,520.05,152.4z M276.669,151.23l-0.119-3.49l-24.54,0.83
		c-0.28,0.01-0.51-0.21-0.52-0.48c-0.01-0.28,0.21-0.51,0.48-0.52l24.55-0.83l-0.12-3.5l9.46,3.68L276.669,151.23z M399.879,150.73
		l-10.109-0.97l1.68-3.07l-17.539-9.6c-0.241-0.13-0.33-0.44-0.19-0.68c0.13-0.24,0.43-0.33,0.68-0.2l17.53,9.6l1.68-3.07
		L399.879,150.73z M82.38,148.36c-0.13-0.01-0.25-0.07-0.34-0.17c-0.18-0.21-0.16-0.53,0.05-0.71l13.2-11.37L93,133.46l9.69-3.06
		l-1.16,2.37l10.55-7.09l-0.16-0.23l-0.41,0.22c-0.06,0.03-0.13,0.05-0.19,0.05c-0.2,0.02-0.39-0.08-0.49-0.26
		c-0.13-0.24-0.03-0.55,0.21-0.68l0.32-0.17l-1.23-1.84l7.28-1.37l10.56-5.61l-0.87-1.63l-2.04,0.86c-0.06,0.03-0.13,0.04-0.19,0.04
		c-0.2,0.01-0.38-0.11-0.46-0.3c-0.11-0.25,0.01-0.55,0.26-0.66l1.96-0.83l-0.3-0.57l2.06-0.18l14.54-6.18l-1.19-2.8l-3.63,1.24
		c-0.07,0.02-0.13,0.03-0.2,0.03c-0.19-0.02-0.37-0.15-0.44-0.34c-0.09-0.26,0.05-0.55,0.31-0.64L157,97.26l-1.13-3.31l10.12,0.77
		l-7.53,6.8l-1.14-3.31l-14.38,4.92l8.78,0.02l-7.03,7.34l-1.37-3.23l-11.74,5l4.87-0.41l-6.37,7.91l-1.64-3.09l-8.54,4.54
		l-5.31,8.2l-1.95-2.9l-11.99,8.05l-2.42,4.96l-2.29-2.65l-13.2,11.37C82.64,148.33,82.51,148.37,82.38,148.36z M25.9,148.29
		c-0.12,0-0.25-0.05-0.34-0.15c-0.19-0.2-0.19-0.52,0.01-0.71l12.39-11.77l-2.41-2.54l9.52-3.53l-2.23,5.19l12.55-9.8l-2.15-2.76
		l9.82-2.59l-0.87,1.58l9.66-6.26L71.68,115c-0.19,0.02-0.38-0.08-0.48-0.26c-0.13-0.24-0.04-0.55,0.2-0.68l0.12-0.06l-1.37-2.12
		l7.75-1.33l10.04-5.43l-0.58-1.07l-1.43,0.65c-0.06,0.03-0.13,0.05-0.2,0.05c-0.19,0-0.38-0.11-0.46-0.3
		c-0.12-0.25-0.01-0.54,0.25-0.66l1.36-0.62l-0.6-1.13l3.87-0.35l12.9-5.85l-0.92-2.02l-2.67,1.02c-0.06,0.02-0.13,0.03-0.19,0.03
		c-0.2,0-0.38-0.13-0.45-0.32c-0.1-0.26,0.03-0.55,0.29-0.65l2.61-0.99l-0.12-0.26l0.83-0.01l14.97-5.72l-1.08-2.82l-3.82,1.23
		c-0.06,0.03-0.13,0.03-0.19,0.03c-0.2-0.02-0.37-0.15-0.44-0.35c-0.08-0.26,0.06-0.54,0.33-0.63l18.84-6.07l-1.07-3.33l10.11,0.95
		l-7.66,6.66l-1.07-3.33l-13.79,4.45l8.74,0.35l-7.29,7.06l-1.25-3.27l-12.36,4.72l6.36-0.13l-6.85,7.5l-1.45-3.19l-10.28,4.67
		l3.21-0.3l-6.31,7.96L88.42,106l-8.57,4.63l-5.35,7.96l-1.9-2.93l-11.43,7.4l-3.01,5.46l-2.15-2.76l-13.95,10.89l-1,2.27
		l-2.41-2.54l-12.39,11.78C26.16,148.25,26.03,148.3,25.9,148.29z M483.61,147.41l-9.92-2.18l2.04-2.85l-15.13-10.83
		c-0.23-0.16-0.28-0.48-0.12-0.7c0.16-0.23,0.47-0.28,0.7-0.12l15.13,10.84l2.04-2.85L483.61,147.41z M430.72,145.77l-10.07-1.33
		l1.79-3.01l-16.71-9.93c-0.229-0.14-0.311-0.44-0.17-0.68c0.14-0.24,0.45-0.32,0.68-0.18l16.71,9.93l1.79-3.01L430.72,145.77z
		 M369.04,142.76l1.34-3.24L358,134.4l-9.48,1.14l0.98-3.36l-16.95-4.99l-4.62,1.03l0.42-2.27l-0.28-0.23
		c-0.06-0.11-0.08-0.25-0.04-0.38s0.12-0.24,0.24-0.3l0.26-0.02l0.051-0.24l-20.931-3.96l-0.521,0.16l0.031-0.26l-0.9-0.17
		c-0.271-0.05-0.45-0.31-0.4-0.58c0.051-0.27,0.31-0.45,0.59-0.4l0.811,0.15l0.22-2.22l-22.899-2.25
		c-0.271-0.03-0.471-0.28-0.451-0.55c0.031-0.28,0.281-0.48,0.551-0.45l22.89,2.25l0.35-3.48l8.891,4.89l-7.149,2.27l19.1,3.61
		l0.65-3.44l8.43,5.67l-3.271,0.73l15.21,4.47l0.99-3.36l5.98,4.94l14.01,5.8l1.34-3.24l7.09,7.26L369.04,142.76z M229.7,142.7
		c-0.23-0.01-0.43-0.18-0.47-0.42c-0.05-0.27,0.14-0.53,0.41-0.57l23.29-3.73l-0.56-3.45l9.85,2.47l-8.58,5.43l-0.56-3.46
		l-23.28,3.72C229.77,142.7,229.73,142.7,229.7,142.7z M5.94,142.43c-0.13-0.01-0.26-0.06-0.35-0.17c-0.18-0.2-0.16-0.52,0.04-0.7
		l12.96-11.5l-2.331-2.62l9.64-3.2l-2.09,4.45L36,119.57l-2.09-2.81l9.87-2.38l-0.74,1.28l9.29-5.89l-0.17-0.03
		c-0.09-0.04-0.16-0.11-0.21-0.21c-0.13-0.24-0.04-0.54,0.2-0.67l0.06-0.03l-1.41-2.23l7.89-1.27l9.91-5.34l-0.47-0.86l-1.22,0.56
		c-0.06,0.03-0.13,0.04-0.19,0.04c-0.2,0.01-0.38-0.1-0.47-0.29c-0.12-0.25-0.01-0.54,0.24-0.66l1.17-0.54l-0.72-1.33l4.5-0.41
		l12.35-5.69L83,89.09l-2.33,0.92c-0.06,0.02-0.13,0.04-0.19,0.03c-0.2,0-0.38-0.12-0.46-0.31c-0.1-0.26,0.03-0.55,0.29-0.65
		l2.27-0.9l-0.25-0.55l1.75-0.04l14.19-5.6l-0.96-2.45l-3.37,1.14c-0.07,0.02-0.14,0.03-0.2,0.02c-0.19-0.01-0.37-0.14-0.44-0.34
		c-0.09-0.26,0.06-0.54,0.32-0.63l18.46-6.25l-1.03-3.06l-4.32,1.25c-0.03,0.01-0.06,0.02-0.1,0.02c-0.23,0.02-0.45-0.12-0.52-0.36
		c-0.07-0.26,0.08-0.54,0.34-0.62l18.81-5.45l-0.97-3.37l10.08,1.24l-7.85,6.45l-0.98-3.36l-13.82,4.01l9.37,0.74l-7.56,6.78
		l-1.13-3.32l-12.94,4.38l7.68,0.22l-7.21,7.15l-1.29-3.26l-11.63,4.59l5.47-0.15l-6.81,7.54l-1.46-3.18l-9.8,4.52L77.05,96
		l-6.32,7.95l-1.66-3.08l-8.61,4.64l-5.38,7.85l-1.87-2.96l-11.25,7.13l-3.26,5.64l-2.1-2.8l-13.7,10.24l-1.33,2.82l-2.32-2.62
		L6.3,142.3C6.19,142.4,6.06,142.44,5.94,142.43z M514.34,141.81l-9.93-2.13l2.029-2.86l-15.17-10.74c-0.22-0.16-0.28-0.47-0.12-0.7
		c0.16-0.22,0.479-0.27,0.7-0.11l15.16,10.74l2.029-2.86L514.34,141.81z M287.281,141.3l0.109-3.5l-24.101-0.78
		c-0.27-0.01-0.489-0.24-0.479-0.52c0.01-0.28,0.24-0.49,0.51-0.48l24.11,0.78l0.109-3.5l9.2,4.31L287.281,141.3z M461.379,140.58
		l-10.039-1.51l1.84-2.98l-16.25-10.06c-0.23-0.14-0.301-0.45-0.16-0.68c0.149-0.24,0.46-0.31,0.69-0.17l16.25,10.06l1.84-2.97
		L461.379,140.58z M409.49,138.36l-10.14-0.44l1.51-3.15l-16.34-7.86l4.07,3.9l-10.141,0.46l1.23-3.28l-12.57-4.72l-9.33,1.25
		l0.94-3.37l-16.29-4.56l-5.25,1.15l0.489-2.53l-0.199-0.15c-0.06-0.12-0.08-0.25-0.04-0.38c0.03-0.14,0.12-0.24,0.23-0.31
		l0.17-0.02l0.01-0.05l-19.561-3.77l-1.72,0.51l0.101-0.82l-0.66-0.13c-0.28-0.05-0.45-0.32-0.4-0.59
		c0.05-0.27,0.311-0.45,0.58-0.39l0.59,0.11l0.2-1.66l-22.341-2.58c-0.279-0.03-0.469-0.28-0.439-0.55
		c0.03-0.28,0.28-0.48,0.55-0.44l1.221,0.14l0.149-3.09l-22.449-1.07c-0.271-0.02-0.491-0.25-0.471-0.53
		c0.01-0.27,0.25-0.49,0.521-0.47l22.45,1.07l0.159-3.5l9.141,4.44l-8.69,3.24l20.311,2.35l0.399-3.48l8.82,5.05l-5.95,1.77
		l17.68,3.41l0.66-3.44l8.41,5.7l-2.58,0.56l14.47,4.04l0.94-3.37l6.29,5.06l13.81,5.19l1.23-3.28l1.4,1.33
		c0.14-0.08,0.279-0.08,0.399-0.02l18.24,8.78l1.51-3.16L409.49,138.36z M207.93,136.95c-0.24,0.01-0.45-0.14-0.51-0.38
		c-0.07-0.27,0.09-0.54,0.36-0.6l21.8-5.48l-0.85-3.4l10.02,1.61l-8.07,6.15l-0.86-3.39l-21.79,5.47
		C207.99,136.94,207.96,136.95,207.93,136.95z M491.709,135.31l-10.029-1.59l1.87-2.96l-16.011-10.09
		c-0.239-0.14-0.31-0.45-0.16-0.69c0.15-0.23,0.451-0.3,0.69-0.15l16.011,10.08l1.869-2.96L491.709,135.31z M520,135.04
		c-0.09-0.01-0.19-0.05-0.271-0.11l-4.24-3.33c-0.22-0.17-0.26-0.49-0.09-0.7c0.181-0.22,0.49-0.26,0.71-0.09l4.24,3.33
		c0.21,0.17,0.25,0.49,0.08,0.7C520.331,134.98,520.161,135.05,520,135.04z M439.68,133.67l-10.13-0.8l1.63-3.1l-17.44-9.14
		c-0.239-0.13-0.34-0.43-0.21-0.68c0.131-0.24,0.431-0.33,0.681-0.21l17.43,9.15l1.63-3.1L439.68,133.67z M265.26,133.12l-0.26-3.49
		l-23.59,1.75c-0.02,0-0.04,0-0.06,0c-0.25-0.01-0.46-0.21-0.48-0.46c-0.02-0.28,0.19-0.52,0.46-0.54l23.6-1.74l-0.261-3.49
		l9.601,3.3L265.26,133.12z M521.64,130.02l-10.03-1.6l1.87-2.96l-15.93-10.04c-0.23-0.15-0.3-0.46-0.15-0.69
		c0.14-0.24,0.45-0.31,0.681-0.16l15.93,10.05l1.869-2.96L521.64,130.02z M469.62,128.76l-10.109-0.99l1.689-3.07l-16.939-9.33
		c-0.24-0.13-0.33-0.44-0.19-0.68c0.13-0.24,0.431-0.33,0.67-0.2l16.94,9.33l1.689-3.06L469.62,128.76z M418.411,126.66l-10.16-0.04
		l1.39-3.21l-15.25-6.61l3.06,2.79l-10.13,0.71l1.15-3.3l-12.61-4.38l-9.22,1.33l0.899-3.38l-15.689-4.2l-5.73,1.24l0.521-2.72
		l-0.12-0.1c-0.06-0.11-0.08-0.24-0.05-0.38l0.199-0.26l-18.319-3.55l-2.66,0.75l0.16-1.24l-0.48-0.1
		c-0.279-0.05-0.45-0.31-0.399-0.58c0.05-0.27,0.319-0.45,0.59-0.4l0.41,0.09l0.159-1.24l-20.77-2.65l-1.06-0.14
		c-0.27-0.03-0.46-0.28-0.431-0.55c0.041-0.28,0.291-0.47,0.561-0.44l0.989,0.13l0.171-2.48l-21.961-1.49
		c-0.27-0.01-0.479-0.25-0.46-0.53c0.011-0.27,0.25-0.48,0.53-0.46l21.961,1.49l0.229-3.5l9.05,4.63L307.5,94.5l18.76,2.39
		l0.439-3.47l8.75,5.15l-4.979,1.42l16.5,3.2l0.67-3.43l8.399,5.71l-2.05,0.44l13.811,3.69l0.91-3.38l6.489,5.11l13.59,4.72
		l1.15-3.3l2.17,1.97l17.93,7.77l1.391-3.21L418.411,126.66z M219.84,125.85c-0.23-0.01-0.43-0.18-0.47-0.42
		c-0.04-0.27,0.14-0.53,0.42-0.57l22.61-3.56l-0.54-3.45l9.84,2.5l-8.6,5.4l-0.55-3.46l-22.61,3.56
		C219.91,125.85,219.87,125.86,219.84,125.85z M499.23,123.77l-10.101-1.11l1.721-3.04l-16.641-9.41
		c-0.239-0.13-0.33-0.44-0.189-0.68c0.13-0.24,0.439-0.32,0.68-0.19l16.641,9.41l1.729-3.05L499.23,123.77z M275.99,123.58
		l-0.06-3.5l-23.36,0.42c-0.27,0-0.5-0.21-0.51-0.49c0-0.28,0.22-0.5,0.49-0.51l23.36-0.42l-0.061-3.5l9.4,3.83L275.99,123.58z
		 M448,122.17l-10.15-0.37l1.49-3.16l-17.9-8.47c-0.25-0.12-0.359-0.42-0.24-0.67c0.12-0.25,0.42-0.35,0.67-0.24l17.9,8.47l1.5-3.16
		L448,122.17z M198.79,120.44c-0.23,0-0.44-0.16-0.5-0.39c-0.05-0.27,0.12-0.54,0.38-0.6l21.57-4.8l-0.76-3.41l9.98,1.88l-8.24,5.93
		l-0.76-3.42l-21.57,4.8C198.86,120.43,198.82,120.44,198.79,120.44z M477.3,117.51l-10.14-0.59l1.56-3.13l-17.41-8.68
		c-0.25-0.13-0.35-0.43-0.229-0.67c0.13-0.25,0.43-0.35,0.67-0.23l17.419,8.69l1.561-3.14L477.3,117.51z M254.5,116.56l-0.32-3.49
		l-22.77,2.11c-0.27,0.03-0.52-0.17-0.54-0.45c-0.03-0.27,0.17-0.52,0.45-0.54l22.76-2.11l-0.32-3.49l9.659,3.12L254.5,116.56z
		 M416.62,115.81l1.291-3.25l-14.4-5.72l2.35,2.05l-10.12,0.92l1.08-3.33l-12.54-4.08l-9.14,1.4l0.87-3.39l-15.141-3.9l-6.13,1.33
		l0.561-2.88l-0.061-0.05c-0.07-0.11-0.09-0.24-0.06-0.38l0.12-0.15L337.94,91l-3.43,0.95l0.22-1.57l-0.34-0.07
		c-0.271-0.05-0.45-0.31-0.39-0.58c0.05-0.27,0.31-0.45,0.58-0.4l0.279,0.06l0.13-0.91l-19.479-2.65l-1.07,0.36l0.04-0.5
		l-0.851-0.12c-0.27-0.03-0.469-0.29-0.43-0.56c0.04-0.27,0.29-0.47,0.561-0.43l0.8,0.11l0.17-1.99l-21.49-1.78
		c-0.27-0.03-0.479-0.27-0.459-0.54c0.029-0.28,0.27-0.48,0.539-0.46l1.23,0.1l0.1-2.93l-21.43-0.75c-0.28-0.01-0.49-0.24-0.48-0.51
		c0.011-0.28,0.24-0.5,0.521-0.49l21.43,0.75l0.12-3.5l9.19,4.32l-8.261,3.21l19.07,1.58l0.29-3.49l8.97,4.76l-6.409,2.14
		l17.459,2.38l0.471-3.47l8.71,5.22l-4.2,1.17l15.5,3.01l0.67-3.44l8.399,5.71l-1.619,0.35l13.21,3.4l0.88-3.39l6.649,5.14
		l13.34,4.34l1.091-3.33l3.04,2.67l17.02,6.76l1.29-3.25l7.2,7.16L416.62,115.81z M178.14,115.12c-0.23,0.02-0.45-0.13-0.51-0.36
		c-0.08-0.27,0.08-0.54,0.35-0.62l20.63-5.63l-0.92-3.37l10.06,1.4l-7.95,6.32l-0.92-3.38l-20.64,5.63
		C178.21,115.12,178.17,115.12,178.14,115.12z M519.2,114.02c-0.06-0.01-0.119-0.03-0.18-0.07l-15.43-8.8
		c-0.24-0.13-0.33-0.44-0.19-0.68c0.14-0.24,0.44-0.32,0.681-0.19l15.43,8.8c0.24,0.14,0.32,0.45,0.189,0.69
		C519.59,113.95,519.4,114.04,519.2,114.02z M286.18,114l0.07-3.5l-22.931-0.46c-0.28-0.01-0.5-0.24-0.489-0.51
		c0-0.28,0.229-0.5,0.51-0.49l22.93,0.46l0.07-3.5l9.25,4.19L286.18,114z M506.25,112.76l-10.131-0.71l1.601-3.12l-17.101-8.79
		c-0.24-0.12-0.34-0.43-0.209-0.67c0.119-0.25,0.43-0.34,0.67-0.22l17.1,8.79l1.6-3.11L506.25,112.76z M455.8,111.23l-10.15-0.04
		l1.39-3.21l-16.85-7.3l4.49,4.26l-10.141,0.52l1.211-3.28l-13.681-5.05l1.81,1.53l-10.1,1.08l1.03-3.35l-12.44-3.82l-9.06,1.47
		l0.84-3.39L369.5,87l-6.42,1.4l0.56-2.99c-0.08-0.13-0.101-0.26-0.07-0.4l0.06-0.07l-16.529-3.2l-4.05,1.09l0.26-1.82l-0.22-0.05
		c-0.271-0.05-0.45-0.31-0.391-0.58c0.051-0.27,0.311-0.45,0.58-0.4l0.17,0.03l0.09-0.64l-18.379-2.62l-1.94,0.62l0.09-0.88
		l-0.69-0.1c-0.27-0.04-0.459-0.29-0.43-0.56c0.04-0.28,0.3-0.47,0.57-0.43l0.64,0.09l0.15-1.6L303.7,72.01l-0.1,0.04l-1.09-0.15
		c-0.271-0.03-0.471-0.27-0.45-0.55c0.03-0.27,0.271-0.47,0.55-0.45l1.04,0.1l0.12-2.44l-21.01-1.07
		c-0.28-0.02-0.49-0.25-0.471-0.53c0.011-0.27,0.241-0.49,0.521-0.47l1.38,0.07l0.03-3.18l-20.87-0.23c-0.27,0-0.5-0.23-0.49-0.51
		c0-0.27,0.23-0.49,0.5-0.49l20.87,0.23l0.04-3.5l9.29,4.11l-8.681,3.6l18.94,0.97l0.181-3.5l9.119,4.47l-7.26,2.68l17.79,1.68
		l0.33-3.48l8.91,4.86l-5.55,1.78l16.34,2.32l0.5-3.46l8.68,5.27l-3.57,0.97l14.641,2.83l0.67-3.44l8.4,5.7l-1.28,0.28l12.67,3.16
		l0.85-3.4l6.771,5.13l13.09,4.03l1.029-3.35l3.711,3.15l16.26,6l1.21-3.29l1.42,1.35l0.13-0.12c0.12-0.05,0.26-0.05,0.38,0
		l18.2,7.88l1.391-3.21L455.8,111.23z M233.17,110.05l-0.53-3.46l-21.99,3.38c-0.03,0.01-0.07,0.01-0.1,0.01
		c-0.23-0.02-0.43-0.19-0.47-0.43c-0.04-0.27,0.15-0.53,0.42-0.57l21.99-3.38l-0.53-3.46l9.83,2.54L233.17,110.05z M157.79,109.91
		c-0.2-0.01-0.37-0.15-0.43-0.35c-0.08-0.26,0.06-0.54,0.33-0.62l19.85-6.19l-1.04-3.34l10.1,1.04l-7.72,6.59l-1.04-3.34
		l-19.86,6.19C157.92,109.91,157.85,109.92,157.79,109.91z M265.2,107.37l-0.16-3.49l-22.589,1.04c-0.27,0.02-0.51-0.2-0.52-0.47
		c-0.01-0.28,0.2-0.51,0.47-0.53l22.59-1.04l-0.159-3.5l9.51,3.57L265.2,107.37z M484.51,106.76l-10.15-0.24l1.45-3.19l-17.72-8.11
		c-0.25-0.11-0.36-0.41-0.25-0.66c0.12-0.25,0.42-0.36,0.67-0.24l17.72,8.1l1.46-3.18L484.51,106.76z M190.18,104.87
		c-0.23-0.01-0.44-0.17-0.49-0.41c-0.05-0.27,0.12-0.53,0.39-0.58l21.2-4.31l-0.7-3.44l9.95,2.07l-8.35,5.78l-0.7-3.44l-21.2,4.31
		C190.25,104.86,190.21,104.87,190.18,104.87z M512.86,102.22l-10.15-0.38l1.5-3.16L486.8,90.44c-0.25-0.12-0.351-0.41-0.23-0.66
		c0.11-0.25,0.41-0.36,0.66-0.24l17.399,8.24l1.5-3.17L512.86,102.22z M244.37,101.13l-0.36-3.48l-22.03,2.26c-0.04,0-0.07,0-0.11,0
		c-0.23-0.03-0.42-0.21-0.44-0.45c-0.03-0.28,0.17-0.52,0.44-0.55l22.04-2.26l-0.36-3.48l9.69,3.03L244.37,101.13z M453.03,101.01
		l1.301-3.25L438.48,91.4l3.73,3.4l-10.13,0.72l1.149-3.3l-13.061-4.52l1.391,1.15l-10.08,1.22l0.98-3.36l-12.291-3.59l-9,1.53
		l0.82-3.41L377.8,77.83l-6.681,1.45l0.601-3.11l-0.051-0.34l-15.8-3.04L351.31,74l0.29-2.03l-0.12-0.02
		c-0.27-0.06-0.45-0.32-0.399-0.59c0.06-0.27,0.319-0.45,0.589-0.4l0.081,0.02l0.06-0.44l-17.431-2.56l-2.659,0.83l0.12-1.2
		l-0.551-0.08c-0.27-0.04-0.459-0.29-0.42-0.56c0.041-0.28,0.3-0.47,0.57-0.43l0.51,0.08l0.131-1.29l-18.74-1.94l-0.99,0.35
		l0.029-0.45l-0.919-0.09c-0.28-0.03-0.48-0.28-0.45-0.55c0.029-0.28,0.279-0.48,0.55-0.45l0.88,0.09l0.13-2.04l-20.6-1.31
		c-0.28-0.02-0.49-0.26-0.47-0.53c0.02-0.28,0.26-0.49,0.53-0.47l1.209,0.08l0.07-2.72l-20.5-0.55c-0.271-0.01-0.49-0.24-0.479-0.51
		c0.01-0.28,0.239-0.5,0.51-0.49l1.479,0.04l-0.03-3.29l-20.299,0.13c-0.28,0-0.5-0.22-0.51-0.49c0-0.28,0.22-0.51,0.5-0.51
		l20.31-0.13l-0.02-3.5l9.359,3.94l-8.859,3.86l18.57,0.5l0.09-3.49l9.22,4.25l-7.73,3.06l17.721,1.13l0.22-3.49l9.06,4.58
		l-6.39,2.27l16.65,1.73l0.359-3.49l8.88,4.94l-4.839,1.51l15.38,2.25l0.51-3.47l8.649,5.31l-3.029,0.81l13.88,2.66l0.659-3.43
		l8.41,5.69l-1,0.22l12.181,2.93l0.819-3.4l6.871,5.13l12.829,3.75l0.98-3.36l4.24,3.49l15.59,5.39l1.149-3.31l1.66,1.51l18.34,7.36
		l1.311-3.25l7.17,7.19L453.03,101.01z M519.911,100.71c-0.07,0-0.131-0.02-0.19-0.05l-10.32-5.39c-0.25-0.13-0.34-0.43-0.21-0.67
		c0.12-0.25,0.43-0.34,0.67-0.22l10.32,5.39c0.239,0.13,0.34,0.43,0.21,0.68C520.3,100.63,520.1,100.73,519.911,100.71z
		 M170.19,99.85c-0.23,0.01-0.45-0.15-0.5-0.38c-0.07-0.27,0.1-0.54,0.36-0.61l20.48-4.98l-0.83-3.4l10.02,1.68l-8.13,6.09
		l-0.83-3.4l-20.47,4.99C170.26,99.84,170.22,99.85,170.19,99.85z M275.379,98.28l-0.039-3.5l-22.25,0.26
		c-0.28,0.01-0.51-0.22-0.51-0.49c0-0.28,0.22-0.5,0.49-0.51l22.26-0.26l-0.041-3.5l9.38,3.89L275.379,98.28z M481.169,96.52
		l1.37-3.22l-17.42-7.39l5.07,4.86l-10.15,0.46l1.23-3.27l-14.99-5.63l3.12,2.74l-10.12,0.91l1.09-3.33l-12.5-4.08l1.061,0.85
		l-10.07,1.34l0.94-3.37l-12.11-3.38l-8.95,1.58l0.8-3.41l-13.76-3.21l-6.89,1.51l0.62-3.26l-0.03-0.19l-15.2-2.89l-4.99,1.31
		l0.301-2.2c-0.28-0.06-0.461-0.32-0.41-0.59c0.05-0.27,0.32-0.45,0.59-0.4l0.04-0.27l-16.6-2.48l-3.271,0.99l0.16-1.45l-0.431-0.07
		c-0.27-0.04-0.459-0.29-0.419-0.57c0.039-0.27,0.289-0.46,0.569-0.42l0.391,0.06l0.109-1.03l-17.76-1.95l-1.74,0.59l0.06-0.78
		l-0.779-0.09c-0.27-0.03-0.471-0.27-0.439-0.55c0.029-0.27,0.279-0.47,0.55-0.44l0.739,0.08l0.131-1.71l-18.75-1.38l-0.391,0.15
		l0.01-0.18l-1.08-0.08c-0.279-0.02-0.479-0.26-0.459-0.54c0.02-0.27,0.259-0.48,0.529-0.46l1.05,0.08l0.091-2.32l-20.12-0.81
		c-0.28-0.01-0.49-0.24-0.48-0.52c0.01-0.27,0.24-0.49,0.521-0.48l1.31,0.05l0.03-2.85l-19.971-0.18c-0.279,0-0.5-0.23-0.5-0.5
		c0-0.28,0.23-0.5,0.51-0.5l1.54,0.02l-0.069-3.32l-19.76,0.39c-0.28,0-0.51-0.22-0.51-0.49c-0.01-0.28,0.21-0.51,0.49-0.51
		l19.76-0.39l-0.07-3.5l9.409,3.82l-8.85,4l18.021,0.16l0.039-3.5l9.29,4.09l-7.949,3.32l17.399,0.7l0.141-3.5l9.17,4.37
		l-6.899,2.64l16.619,1.23l0.261-3.5l9.009,4.68l-5.64,1.94l15.65,1.73l0.39-3.48l8.841,5l-4.221,1.28L359.96,61l0.51-3.47
		l8.649,5.34l-2.59,0.68l13.2,2.51l0.66-3.44l8.42,5.68l-0.771,0.17l11.721,2.74l0.8-3.41l6.95,5.12l12.56,3.51l0.94-3.37l4.65,3.74
		l15.02,4.9l1.09-3.33l2.38,2.1l17.47,6.55l1.23-3.28l1.51,1.44v-0.13c0.11-0.26,0.4-0.38,0.65-0.27l17.92,7.6l1.37-3.22l7.03,7.32
		L481.169,96.52z M223.8,95.23l-0.52-3.46l-21.4,3.21c-0.04,0.01-0.07,0.01-0.1,0.01c-0.24-0.02-0.44-0.19-0.47-0.43
		c-0.04-0.27,0.15-0.53,0.42-0.57l21.4-3.21l-0.51-3.46l9.8,2.57l-0.06-0.15c-0.02-0.27,0.19-0.51,0.46-0.53l21.87-1.38l-0.22-3.5
		l9.569,3.4l-9.069,4.59l-0.22-3.5l-21.86,1.39c-0.02,0-0.04,0-0.06,0c-0.12,0-0.24-0.06-0.32-0.14l-0.08-0.17L223.8,95.23z
		 M150.57,94.93c-0.23,0.01-0.45-0.14-0.51-0.37c-0.08-0.26,0.08-0.54,0.35-0.61l19.83-5.47l-0.93-3.38l10.07,1.38l-7.94,6.33
		l-0.93-3.37l-19.84,5.47C150.64,94.92,150.6,94.93,150.57,94.93z M182.05,90.16c-0.24-0.01-0.44-0.17-0.49-0.41
		c-0.05-0.27,0.13-0.53,0.4-0.59l20.78-3.93l-0.65-3.44l9.91,2.19l-8.42,5.67l-0.65-3.44l-20.78,3.94
		C182.11,90.15,182.08,90.16,182.05,90.16z M285.14,89.34l0.05-3.5l-21.85-0.32c-0.28,0-0.5-0.23-0.5-0.51
		c0.01-0.27,0.229-0.49,0.51-0.49l21.85,0.32l0.061-3.5l9.271,4.13L285.14,89.34z M234.81,86.64l-0.38-3.48l-21.38,2.3
		c-0.03,0.01-0.06,0.01-0.1,0.01c-0.23-0.03-0.42-0.21-0.45-0.45c-0.03-0.27,0.17-0.52,0.45-0.55l21.37-2.31l-0.37-3.48l9.71,2.98
		L234.81,86.64z M162.68,85.41c-0.23,0.01-0.45-0.15-0.5-0.39c-0.06-0.27,0.11-0.54,0.38-0.6l20.19-4.49l-0.76-3.41l9.98,1.88
		l-8.24,5.93l-0.76-3.42l-20.19,4.49C162.74,85.41,162.71,85.41,162.68,85.41z M265.1,83.65l-0.11-3.49l-21.58,0.7
		c-0.28,0.01-0.51-0.2-0.52-0.48c-0.01-0.28,0.21-0.51,0.48-0.52l21.59-0.7l-0.12-3.5l9.46,3.69L265.1,83.65z M214.94,81.22
		l-0.51-3.46l-20.85,3.04c-0.03,0.01-0.07,0.01-0.1,0.01c-0.23-0.01-0.43-0.19-0.47-0.43c-0.04-0.27,0.15-0.52,0.43-0.56l20.85-3.05
		l-0.51-3.46l9.52,2.53c-0.02-0.29,0.19-0.53,0.46-0.55l21.2-1.57l-0.25-3.5l9.6,3.3l-9.01,4.68l-0.26-3.49l-21.2,1.58
		c-0.02,0-0.04,0-0.06,0c-0.12,0-0.24-0.05-0.33-0.14l-0.05-0.11L214.94,81.22z M143.66,80.76c-0.23,0.01-0.45-0.15-0.51-0.38
		c-0.06-0.27,0.1-0.54,0.37-0.61l19.66-4.91l-0.84-3.39l10.02,1.62l-8.09,6.14l-0.84-3.4l-19.67,4.91
		C143.73,80.75,143.69,80.75,143.66,80.76z M174.35,76.24c-0.23-0.01-0.43-0.18-0.47-0.42c-0.05-0.27,0.13-0.53,0.4-0.58l20.34-3.63
		L194,68.17l9.89,2.3l-8.48,5.57l-0.62-3.44l-20.33,3.63C174.42,76.24,174.39,76.24,174.35,76.24z M124.98,76.18
		c-0.23,0.02-0.45-0.13-0.51-0.36c-0.08-0.27,0.08-0.55,0.35-0.62l19.2-5.22l-0.91-3.38l10.05,1.41l-7.95,6.31l-0.92-3.38
		l-19.21,5.23C125.05,76.18,125.01,76.18,124.98,76.18z M274.82,75.17l-0.03-3.5l-21.229,0.18c-0.28,0-0.51-0.22-0.51-0.5
		c0-0.27,0.22-0.5,0.5-0.5l21.239-0.18l-0.029-3.5l9.359,3.92L274.82,75.17z M225.77,72.97l-0.39-3.47l-20.77,2.29
		c-0.03,0.01-0.07,0.01-0.1,0.01c-0.23-0.02-0.43-0.21-0.45-0.45c-0.03-0.27,0.17-0.52,0.44-0.55l20.77-2.3l-0.38-3.48l9.72,2.95
		L225.77,72.97z M155.57,71.75c-0.23,0-0.44-0.17-0.49-0.4c-0.06-0.27,0.12-0.54,0.39-0.59l19.85-4.1l-0.71-3.42l9.95,2.03
		l-8.33,5.8l-0.71-3.43l-19.85,4.1C155.64,71.74,155.6,71.75,155.57,71.75z M255.35,69.94l-0.17-3.49l-20.94,0.99
		c-0.28,0.01-0.51-0.2-0.53-0.48c-0.01-0.28,0.2-0.51,0.48-0.52l20.95-0.99l-0.17-3.5l9.51,3.56L255.35,69.94z M206.55,67.95
		l-0.5-3.46l-20.33,2.89c-0.03,0.01-0.06,0.01-0.1,0c-0.23-0.01-0.43-0.19-0.46-0.42c-0.04-0.28,0.15-0.53,0.42-0.57l20.33-2.89
		l-0.49-3.47l9.33,2.52l0.08-0.27c0.09-0.1,0.21-0.17,0.35-0.18l20.59-1.68l-0.28-3.49l9.62,3.23l-8.97,4.75l-0.29-3.49l-20.59,1.68
		c-0.02,0-0.04,0-0.06,0c-0.12,0-0.24-0.05-0.33-0.13l-0.02-0.06L206.55,67.95z M137.11,67.33c-0.23,0.01-0.44-0.15-0.49-0.38
		c-0.07-0.27,0.1-0.54,0.37-0.6l19.41-4.46l-0.78-3.41l9.99,1.81l-8.2,5.99l-0.79-3.41l-19.41,4.45
		C137.18,67.33,137.15,67.33,137.11,67.33z M187.65,63.12l-0.59-3.45l-19.89,3.37c-0.04,0.01-0.07,0.01-0.1,0.01
		c-0.24-0.01-0.44-0.18-0.48-0.42c-0.05-0.27,0.14-0.53,0.41-0.57l19.89-3.38l-0.58-3.45l9.87,2.38L187.65,63.12z M118.98,63
		c-0.23,0.01-0.45-0.14-0.5-0.38c-0.07-0.27,0.09-0.54,0.36-0.61l19.01-4.73l-0.84-3.4l10.02,1.63l-8.09,6.14l-0.84-3.4l-19.02,4.74
		C119.05,62.99,119.01,63,118.98,63z M265.01,61.88l-0.091-3.5l-20.639,0.51c-0.27,0.01-0.5-0.21-0.51-0.49
		c-0.01-0.27,0.21-0.5,0.49-0.51l20.64-0.51l-0.09-3.5l9.43,3.76L265.01,61.88z M217.21,60.05l-0.39-3.48l-20.22,2.27
		c-0.03,0-0.07,0-0.1,0c-0.23-0.02-0.42-0.21-0.45-0.45c-0.03-0.27,0.17-0.52,0.44-0.55l20.22-2.26l-0.39-3.48l9.72,2.94
		L217.21,60.05z M148.83,58.79c-0.23,0-0.44-0.17-0.48-0.41c-0.06-0.27,0.12-0.53,0.39-0.58l19.49-3.76l-0.67-3.44l9.93,2.16
		l-8.41,5.69l-0.67-3.43l-19.48,3.76C148.9,58.79,148.86,58.79,148.83,58.79z M246.09,57.03l-0.2-3.49l-20.35,1.16
		c-0.02,0-0.04,0-0.05,0c-0.25-0.01-0.46-0.21-0.48-0.47c-0.01-0.28,0.2-0.51,0.47-0.53l20.35-1.16l-0.2-3.5l9.55,3.46L246.09,57.03
		z M198.58,55.37l-0.48-3.47l-19.83,2.75c-0.03,0-0.07,0-0.1,0c-0.23-0.01-0.43-0.19-0.46-0.43c-0.04-0.27,0.15-0.53,0.42-0.56
		l19.84-2.75l-0.49-3.47l9.15,2.5l0.06-0.18c0.08-0.1,0.2-0.16,0.34-0.17l20.03-1.73l-0.3-3.49l9.64,3.18l-8.96,4.79l-0.3-3.48
		l-20.02,1.72c-0.02,0-0.04,0-0.06,0l-0.33-0.13L198.58,55.37z M130.91,54.6c-0.23,0.01-0.44-0.15-0.49-0.39
		c-0.06-0.27,0.11-0.54,0.38-0.59l19.11-4.08l-0.73-3.42l9.96,1.96l-8.3,5.86l-0.73-3.42l-19.1,4.07
		C130.98,54.6,130.94,54.6,130.91,54.6z M180.27,50.83l-0.56-3.45l-19.46,3.15c-0.03,0.01-0.07,0.01-0.1,0.01
		c-0.23-0.01-0.43-0.18-0.47-0.42c-0.05-0.28,0.14-0.53,0.41-0.58l19.46-3.15l-0.56-3.45l9.85,2.45L180.27,50.83z M255.67,49.34
		l-0.13-3.5l-20.06,0.74c-0.28,0.01-0.51-0.2-0.52-0.48c-0.01-0.27,0.2-0.5,0.48-0.51l20.07-0.74l-0.13-3.5l9.48,3.65L255.67,49.34z
		 M209.09,47.8l-0.39-3.47l-19.7,2.2c-0.03,0.01-0.07,0.01-0.1,0.01c-0.23-0.02-0.42-0.21-0.45-0.45c-0.03-0.27,0.17-0.52,0.44-0.55
		l19.69-2.21l-0.39-3.48l8.84,2.67l-0.13-0.06c-0.09-0.08-0.15-0.19-0.15-0.32c-0.02-0.28,0.19-0.52,0.46-0.53l19.8-1.28l-0.23-3.49
		l9.57,3.39l-9.05,4.59l-0.23-3.49L217.3,42.6l0.62,0.19L209.09,47.8z M142.43,46.49c-0.23,0-0.43-0.17-0.48-0.41
		c-0.05-0.27,0.13-0.53,0.41-0.58l19.1-3.48l-0.63-3.45l9.9,2.26l-8.46,5.61L161.64,43l-19.1,3.48
		C142.5,46.49,142.47,46.49,142.43,46.49z M191.02,43.41l-0.47-3.47l-19.36,2.61c-0.03,0.01-0.06,0.01-0.1,0.01
		c-0.23-0.02-0.43-0.19-0.46-0.43c-0.04-0.28,0.16-0.53,0.43-0.57l19.36-2.61l-0.47-3.47l8.97,2.49l0.03-0.1
		c0.08-0.1,0.2-0.16,0.34-0.18l19.5-1.74l-0.31-3.49l9.65,3.16l-8.94,4.81l-0.31-3.48l-19.5,1.74c-0.02,0-0.03,0-0.05,0l-0.26-0.1
		L191.02,43.41z M173.25,39.14l-0.54-3.45l-19.03,2.95c-0.03,0.01-0.07,0.01-0.1,0.01c-0.23-0.01-0.43-0.19-0.47-0.43
		c-0.04-0.27,0.14-0.52,0.42-0.57l19.03-2.95l-0.54-3.46l9.84,2.52l-0.14,0.08l19.15-2.14l-0.39-3.48l8.48,2.57l-0.07-0.15
		c-0.02-0.28,0.18-0.52,0.46-0.54l19.27-1.34l-0.24-3.49l9.59,3.34l-9.03,4.64l-0.25-3.49l-18.8,1.31l0.31,0.09l-8.83,5.01
		l-0.39-3.47l-19.2,2.14c-0.04,0-0.07,0.01-0.1,0c-0.24-0.02-0.43-0.2-0.45-0.44l0.08-0.3L173.25,39.14z M246.8,37.49l-0.16-3.5
		l-19.53,0.9c-0.28,0.01-0.51-0.2-0.53-0.48c-0.01-0.27,0.2-0.51,0.48-0.52l19.53-0.9l-0.16-3.49l9.51,3.57L246.8,37.49z
		 M183.83,32.04l-0.46-3.47l-18.91,2.48c-0.03,0.01-0.07,0.01-0.1,0.01c-0.23-0.02-0.43-0.2-0.46-0.44
		c-0.03-0.27,0.16-0.52,0.43-0.56l18.91-2.49l-0.46-3.47l8.81,2.48c0.08-0.12,0.2-0.19,0.34-0.2l19-1.73l-0.31-3.49l9.66,3.13
		l-8.94,4.84l-0.31-3.49l-19.01,1.74c-0.02,0-0.03,0-0.05,0l-0.18-0.07L183.83,32.04z M194.02,25.11l-0.38-3.48l-18.74,2.08
		c-0.03,0.01-0.07,0.01-0.1,0c-0.23-0.02-0.42-0.2-0.45-0.44c-0.03-0.27,0.17-0.52,0.44-0.55l18.74-2.08l-0.39-3.48l9.72,2.95
		L194.02,25.11z"/>
</g>
<g id="Viewport_x5F_FG">
	<rect x="1" y="1" fill-rule="evenodd" clip-rule="evenodd" fill="#0000B0" width="145.5" height="23"/>
	<g>
		<path fill="#FFFFFF" d="M17.204,18.9h-3.098l-2.366-4.969h-0.783V18.9H8.302V6.135h3.566c2.216,0,4.631,0.709,4.631,3.891
			c0,2.253-1.173,3.185-2.438,3.491L17.204,18.9z M12.03,12.162c1.125,0,1.751-0.625,1.751-2.076c0-1.433-0.528-2.142-1.858-2.142
			h-0.973v4.218H12.03z"/>
		<path fill="#FFFFFF" d="M23.836,18.9v-5.627c0-0.783-0.049-1.421-0.279-1.788c-0.173-0.261-0.439-0.424-0.871-0.424
			c-0.342,0-0.708,0.108-1.027,0.291c-0.344,0.2-0.758,0.526-1.102,0.903V18.9h-2.521V5.811h2.521v4.542h0.065
			c0.46-0.341,0.933-0.655,1.427-0.879c0.467-0.22,1.025-0.368,1.598-0.368c0.901,0,1.607,0.261,2.051,0.794
			c0.427,0.525,0.659,1.338,0.659,2.529V18.9H23.836z"/>
		<path fill="#FFFFFF" d="M28,7.398V5.685h2.521v1.713H28z M30.521,18.9H28V9.322h2.521V18.9z"/>
		<path fill="#FFFFFF" d="M38.038,18.9v-5.632c0-0.784-0.049-1.406-0.279-1.772c-0.173-0.261-0.435-0.435-0.882-0.435
			c-0.342,0-0.698,0.113-1.017,0.291c-0.344,0.2-0.757,0.526-1.102,0.903V18.9h-2.521V9.322h2.521l-0.026,1.036h0.088
			c0.46-0.341,0.937-0.655,1.43-0.884c0.467-0.22,1.025-0.368,1.598-0.368c0.901,0,1.607,0.261,2.051,0.794
			c0.427,0.525,0.659,1.338,0.659,2.529V18.9H38.038z"/>
		<path fill="#FFFFFF" d="M50.727,14.132c0,3.121-1.461,4.984-4.427,4.984c-3.089,0-4.43-1.906-4.43-5.002
			c0-3.663,1.88-5.009,4.43-5.009c2.547,0,4.427,1.346,4.427,5.009V14.132z M46.317,17.522c1.044,0,1.827-1.084,1.827-3.404
			c0-2.508-0.885-3.418-1.845-3.418c-0.963,0-1.848,0.939-1.848,3.418c0,2.47,0.815,3.404,1.848,3.404H46.317z"/>
		<path fill="#FFFFFF" d="M60.157,17.173c0.265-1.634,0.527-2.904,0.802-4.2l1.26-6.838h2.742L61.775,18.9h-3.361l-3.19-12.766
			h2.742l1.258,6.859c0.269,1.285,0.543,2.544,0.808,4.179H60.157z"/>
		<path fill="#FFFFFF" d="M65.943,7.398V5.685h2.521v1.713H65.943z M68.464,18.9h-2.521V9.322h2.521V18.9z"/>
		<path fill="#FFFFFF" d="M72.365,14.608c0.1,2.282,0.704,3.029,1.545,3.029c0.68,0,1.104-0.49,1.367-1.367l2.597,0.091
			c-0.2,0.645-0.587,1.323-1.249,1.878c-0.653,0.535-1.531,0.877-2.747,0.877c-1.098,0-2.174-0.283-2.938-1.114
			c-0.726-0.785-1.16-2.029-1.16-3.948c0-1.628,0.378-2.997,1.206-3.858c0.677-0.698,1.617-1.091,2.868-1.091
			c1.092,0,2.04,0.334,2.767,1.119c0.902,1.038,1.249,2.508,1.249,4.383H72.365z M75.279,13.331
			c-0.137-1.89-0.699-2.746-1.433-2.746c-0.71,0-1.373,0.582-1.484,2.746H75.279z"/>
		<path fill="#FFFFFF" d="M84.912,11.31c-0.185,1.538-0.363,2.551-0.563,3.808l-0.67,3.783h-3.014l-2.236-9.579h2.369l0.688,3.827
			c0.206,1.092,0.417,2.395,0.615,3.891h0.095c0.208-1.486,0.393-2.7,0.603-3.894l0.668-3.824h2.978l0.664,3.833
			c0.203,1.197,0.407,2.456,0.597,3.885h0.094c0.209-1.517,0.412-2.729,0.623-3.947l0.692-3.771h2.367L89.248,18.9h-3.017
			l-0.659-3.831c-0.202-1.285-0.376-2.275-0.566-3.76H84.912z"/>
		<path fill="#FFFFFF" d="M92.513,9.322h2.521l-0.023,0.752h0.051c0.278-0.225,0.599-0.494,1.036-0.688
			c0.413-0.164,0.874-0.281,1.455-0.281c1.023,0,1.91,0.327,2.606,1.117c0.653,0.776,1.104,2.004,1.104,3.876
			c0,1.772-0.406,3.077-1.035,3.846c-0.63,0.751-1.534,1.172-2.724,1.172c-0.402,0-0.841-0.043-1.333-0.23
			c-0.37-0.141-0.739-0.357-1.103-0.652h-0.035v5.131h-2.521V9.322z M95.034,16.324c0.238,0.324,0.53,0.572,0.862,0.743
			c0.306,0.167,0.654,0.259,1.022,0.259c0.496,0,0.964-0.209,1.292-0.67c0.268-0.405,0.47-1.144,0.47-2.512
			c0-1.202-0.17-2.01-0.481-2.54c-0.3-0.462-0.749-0.707-1.293-0.707c-0.288,0-0.621,0.06-0.974,0.231
			c-0.308,0.155-0.616,0.419-0.898,0.785V16.324z"/>
		<path fill="#FFFFFF" d="M111.188,14.132c0,3.121-1.461,4.984-4.428,4.984c-3.089,0-4.43-1.906-4.43-5.002
			c0-3.663,1.88-5.009,4.43-5.009c2.547,0,4.428,1.346,4.428,5.009V14.132z M106.778,17.522c1.044,0,1.827-1.084,1.827-3.404
			c0-2.508-0.885-3.418-1.845-3.418c-0.963,0-1.848,0.939-1.848,3.418c0,2.47,0.816,3.404,1.848,3.404H106.778z"/>
		<path fill="#FFFFFF" d="M114.917,10.166c0.201-0.276,0.424-0.543,0.704-0.747c0.264-0.184,0.569-0.313,0.941-0.313
			c0.195,0,0.376,0.024,0.538,0.072c0.148,0.044,0.28,0.102,0.409,0.184l-0.201,2.09c-0.091-0.097-0.202-0.173-0.329-0.242
			c-0.164-0.075-0.319-0.112-0.498-0.112c-0.256,0-0.502,0.098-0.826,0.379c-0.26,0.229-0.512,0.551-0.769,0.964v6.46h-2.521V9.322
			h2.521l-0.024,0.844H114.917z"/>
		<path fill="#FFFFFF" d="M118.759,7.196h2.521v2.125h1.542v1.62h-1.542v4.361c0,1.409,0.266,2.112,0.89,2.112
			c0.389,0,0.715-0.21,0.925-0.377l0.376,1.621c-0.529,0.239-1.112,0.458-1.903,0.458c-1.814,0-2.809-0.917-2.809-3.248v-4.927
			h-0.937v-1.62h0.937V7.196z"/>
	</g>
	
		<rect x="1" y="1" fill-rule="evenodd" clip-rule="evenodd" fill="none" stroke="#000000" stroke-width="2" stroke-linecap="round" width="519.28" height="350.26"/>
</g>
</svg>
