<?xml version="1.0" encoding="utf-8"?>
<!-- Generator: Adobe Illustrator 14.0.0, SVG Export Plug-In . SVG Version: 6.00 Build 43363)  -->
<!DOCTYPE svg PUBLIC "-//W3C//DTD SVG 1.0//EN" "http://www.w3.org/TR/2001/REC-SVG-20010904/DTD/svg10.dtd">
<svg version="1.0" xmlns="http://www.w3.org/2000/svg" xmlns:xlink="http://www.w3.org/1999/xlink" x="0px" y="0px"
	 width="661.324px" height="328.871px" viewBox="0 0 661.324 328.871" enable-background="new 0 0 661.324 328.871"
	 xml:space="preserve">
<g id="Outline" display="none">
</g>
<g id="Lines">
	<g>
		<polygon fill="#E80000" points="633.743,62.098 640.403,61.757 647.052,61.317 653.672,60.717 660.263,59.888 660.382,60.677 
			653.823,61.748 647.292,63.038 640.792,64.498 634.312,66.047 		"/>
		<polygon fill="#E80000" points="632.943,55.337 639.772,52.967 646.573,50.507 653.302,47.897 659.943,45.078 660.263,45.808 
			653.722,48.848 647.283,52.098 640.903,55.498 634.562,58.987 		"/>
		<polygon fill="#E80000" points="629.972,49.607 636.292,45.388 642.552,41.087 648.712,36.658 654.732,32.047 655.232,32.677 
			649.363,37.478 643.632,42.447 638.013,47.567 632.453,52.748 		"/>
		<polygon fill="#E80000" points="625.013,45.507 630.163,39.808 635.252,34.058 640.193,28.197 644.962,22.197 645.592,22.688 
			641.022,28.828 636.623,35.118 632.363,41.498 628.183,47.947 		"/>
		<polygon fill="#E80000" points="618.502,43.518 621.943,36.897 625.292,30.237 628.482,23.507 631.462,16.697 632.193,17.007 
			629.443,23.908 626.892,30.908 624.493,37.967 622.193,45.058 		"/>
		<polygon fill="#E80000" points="611.092,43.927 612.422,37.038 613.663,30.138 614.732,23.217 615.573,16.277 616.373,16.357 
			615.763,23.328 615.392,30.317 615.183,37.328 615.073,44.348 		"/>
		<polygon fill="#E80000" points="603.592,46.788 602.653,40.317 601.623,33.877 600.422,27.467 599.013,21.118 599.792,20.927 
			601.443,27.228 603.312,33.467 605.342,39.667 607.472,45.848 		"/>
		<polygon fill="#E80000" points="596.873,51.777 593.732,46.388 590.522,41.058 587.163,35.817 583.623,30.717 584.272,30.248 
			588.013,35.208 591.922,40.038 595.982,44.768 600.113,49.438 		"/>
		<polygon fill="#E80000" points="591.653,58.277 586.632,54.518 581.562,50.837 576.403,47.308 571.123,43.978 571.533,43.288 
			576.933,46.417 582.462,49.357 588.062,52.147 593.722,54.857 		"/>
		<polygon fill="#E80000" points="588.363,65.527 582.002,63.777 575.632,62.127 569.232,60.638 562.792,59.377 562.933,58.587 
			569.413,59.618 575.933,60.417 582.493,61.047 589.062,61.587 		"/>
		<polygon fill="#E80000" points="587.222,72.837 580.232,73.228 573.252,73.717 566.312,74.368 559.392,75.237 559.283,74.447 
			566.163,73.337 573.013,71.998 579.833,70.487 586.653,68.888 		"/>
		<polygon fill="#E80000" points="583.833,102.158 590.672,101.717 597.502,101.188 604.312,100.478 611.083,99.558 
			611.203,100.348 604.472,101.507 597.772,102.897 591.103,104.458 584.443,106.107 		"/>
		<polygon fill="#E80000" points="582.783,108.828 588.882,110.357 594.993,111.788 601.132,113.038 607.302,114.078 
			607.193,114.868 600.982,114.067 594.743,113.498 588.472,113.098 582.193,112.788 		"/>
		<polygon fill="#E80000" points="579.752,115.368 584.533,118.638 589.363,121.828 594.272,124.868 599.283,127.708 
			598.903,128.408 593.772,125.777 588.542,123.357 583.222,121.078 577.863,118.888 		"/>
		<polygon fill="#E80000" points="575.013,121.217 578.042,125.868 581.153,130.458 584.392,134.947 587.812,139.277 
			587.193,139.788 583.592,135.607 579.812,131.567 575.903,127.638 571.922,123.757 		"/>
		<polygon fill="#E80000" points="568.882,125.837 569.933,131.397 571.083,136.938 572.382,142.417 573.913,147.837 
			573.142,148.067 571.392,142.717 569.422,137.438 567.283,132.208 565.062,126.998 		"/>
		<polygon fill="#E80000" points="561.913,128.677 560.922,134.647 560.013,140.627 559.283,146.618 558.772,152.618 
			557.982,152.567 558.243,146.547 558.283,140.518 558.153,134.467 557.922,128.417 		"/>
		<polygon fill="#E80000" points="554.833,129.408 551.853,135.277 548.972,141.167 546.243,147.138 543.722,153.177 
			542.982,152.888 545.272,146.757 547.353,140.538 549.272,134.257 551.113,127.938 		"/>
		<polygon fill="#E80000" points="548.363,127.978 543.623,133.197 538.962,138.478 534.443,143.857 530.103,149.377 
			529.462,148.897 533.613,143.237 537.583,137.427 541.413,131.518 545.172,125.558 		"/>
		<polygon fill="#E80000" points="543.153,124.547 537.033,128.607 530.972,132.737 525.013,137.007 519.203,141.458 
			518.703,140.828 524.373,136.197 529.892,131.377 535.312,126.438 540.672,121.417 		"/>
		<polygon fill="#E80000" points="539.703,119.478 532.732,121.917 525.792,124.438 518.922,127.127 512.153,130.018 
			511.833,129.288 518.502,126.177 525.092,122.857 531.603,119.377 538.083,115.828 		"/>
		<polygon fill="#E80000" points="538.353,113.237 531.183,113.728 524.022,114.317 516.892,115.067 509.792,116.047 
			509.672,115.257 516.732,114.038 523.763,112.598 530.752,110.987 537.743,109.288 		"/>
		<polygon fill="#E80000" points="540.982,76.127 542.413,78.538 543.903,80.877 545.522,83.107 547.312,85.167 546.732,85.717 
			544.763,83.817 542.642,82.067 540.392,80.438 538.073,78.868 		"/>
		<polygon fill="#E80000" points="540.993,72.888 542.623,75.047 544.302,77.127 546.103,79.078 548.052,80.848 547.542,81.458 
			545.443,79.877 543.193,78.458 540.842,77.177 538.433,75.967 		"/>
		<polygon fill="#E80000" points="540.842,69.547 542.642,71.397 544.493,73.167 546.433,74.788 548.493,76.217 548.073,76.897 
			545.882,75.667 543.573,74.638 541.172,73.748 538.722,72.938 		"/>
		<polygon fill="#E80000" points="540.522,66.138 542.472,67.647 544.462,69.078 546.522,70.348 548.672,71.397 548.353,72.138 
			546.113,71.297 543.772,70.667 541.373,70.197 538.933,69.808 		"/>
		<polygon fill="#E80000" points="540.033,62.697 542.132,63.857 544.243,64.917 546.403,65.817 548.623,66.487 548.433,67.268 
			546.153,66.828 543.833,66.598 541.462,66.547 539.073,66.578 		"/>
		<polygon fill="#E80000" points="539.392,59.268 541.623,60.047 543.863,60.737 546.113,61.257 548.373,61.547 548.323,62.337 
			546.033,62.288 543.732,62.467 541.422,62.817 539.103,63.257 		"/>
		<polygon fill="#E80000" points="538.623,55.888 540.982,56.268 543.333,56.567 545.663,56.697 547.972,56.587 548.052,57.388 
			545.763,57.728 543.493,58.297 541.243,59.027 539.002,59.857 		"/>
		<polygon fill="#E80000" points="537.732,52.558 540.203,52.538 542.653,52.427 545.052,52.147 547.392,51.658 547.592,52.427 
			545.312,53.158 543.092,54.107 540.913,55.217 538.763,56.417 		"/>
		<polygon fill="#E80000" points="536.752,49.297 539.302,48.857 541.823,48.337 544.263,47.647 546.623,46.757 546.943,47.487 
			544.683,48.607 542.513,49.927 540.413,51.408 538.342,52.967 		"/>
		<polygon fill="#E80000" points="535.683,46.127 538.283,45.268 540.833,44.317 543.302,43.228 545.642,41.938 546.062,42.618 
			543.842,44.118 541.743,45.797 539.722,47.638 537.763,49.547 		"/>
		<polygon fill="#E80000" points="534.533,43.058 537.142,41.768 539.703,40.408 542.142,38.917 544.462,37.248 544.953,37.877 
			542.792,39.737 540.772,41.777 538.863,43.947 537.002,46.188 		"/>
		<polygon fill="#E80000" points="534.533,43.058 537.142,41.768 539.703,40.408 542.142,38.917 544.462,37.248 544.953,37.877 
			542.792,39.737 540.772,41.777 538.863,43.947 537.002,46.188 		"/>
		<polygon fill="#E80000" points="533.272,40.067 535.873,38.377 538.392,36.627 540.802,34.748 543.052,32.708 543.613,33.277 
			541.533,35.487 539.613,37.868 537.812,40.357 536.073,42.917 		"/>
		<polygon fill="#E80000" points="531.943,37.197 534.482,35.127 536.953,33.007 539.292,30.768 541.462,28.388 542.073,28.897 
			540.083,31.438 538.272,34.127 536.603,36.917 534.993,39.768 		"/>
		<polygon fill="#E80000" points="530.502,34.467 532.972,32.047 535.373,29.578 537.623,26.998 539.693,24.297 540.342,24.757 
			538.472,27.607 536.783,30.578 535.232,33.647 533.763,36.777 		"/>
		<polygon fill="#E80000" points="528.993,31.888 531.363,29.147 533.663,26.348 535.823,23.467 537.772,20.458 538.462,20.877 
			536.712,23.998 535.153,27.248 533.743,30.578 532.413,33.958 		"/>
		<polygon fill="#E80000" points="527.382,29.498 529.653,26.447 531.842,23.348 533.882,20.177 535.712,16.897 536.422,17.268 
			534.802,20.658 533.382,24.147 532.113,27.728 530.933,31.337 		"/>
		<polygon fill="#E80000" points="525.703,27.297 527.853,23.967 529.913,20.598 531.823,17.158 533.522,13.627 534.252,13.947 
			532.772,17.578 531.502,21.297 530.382,25.098 529.353,28.927 		"/>
		<polygon fill="#E80000" points="523.943,25.317 525.953,21.728 527.882,18.118 529.642,14.438 531.203,10.677 531.953,10.958 
			530.623,14.808 529.502,18.728 528.542,22.717 527.672,26.728 		"/>
		<polygon fill="#E80000" points="522.113,23.547 523.982,19.748 525.763,15.917 527.373,12.038 528.772,8.087 529.533,8.328 
			528.363,12.357 527.413,16.447 526.623,20.598 525.922,24.768 		"/>
		<polygon fill="#E80000" points="520.232,22.018 521.943,18.038 523.552,14.027 525.002,9.978 526.243,5.857 527.013,6.067 
			526.013,10.248 525.232,14.478 524.613,18.757 524.092,23.058 		"/>
		<polygon fill="#E80000" points="518.302,20.737 519.842,16.598 521.292,12.447 522.573,8.268 523.632,4.027 524.413,4.197 
			523.583,8.487 522.982,12.828 522.542,17.197 522.203,21.598 		"/>
		<polygon fill="#E80000" points="514.243,18.888 515.422,14.567 516.522,10.228 517.443,5.877 518.132,1.487 518.933,1.587 
			518.472,6.007 518.243,10.458 518.172,14.927 518.203,19.408 		"/>
		<polygon fill="#E80000" points="510.113,18.107 510.933,13.728 511.672,9.337 512.232,4.938 512.573,0.518 513.363,0.558 
			513.272,4.987 513.403,9.417 513.703,13.857 514.103,18.308 		"/>
		<polygon fill="#E80000" points="505.993,18.417 506.472,14.067 506.853,9.717 507.073,5.377 507.062,1.047 507.853,1.018 
			508.113,5.348 508.592,9.667 509.243,13.987 509.993,18.297 		"/>
		<polygon fill="#E80000" points="501.982,19.768 502.123,15.547 502.172,11.337 502.062,7.147 501.722,2.978 502.513,2.897 
			503.092,7.038 503.903,11.147 504.882,15.248 505.953,19.328 		"/>
		<polygon fill="#E80000" points="498.153,22.118 497.982,18.118 497.722,14.138 497.302,10.188 496.653,6.277 497.443,6.127 
			498.323,9.987 499.433,13.797 500.703,17.587 502.073,21.348 		"/>
		<polygon fill="#E80000" points="494.583,25.397 494.132,21.708 493.603,18.038 492.903,14.417 491.982,10.857 492.752,10.638 
			493.892,14.127 495.263,17.547 496.792,20.927 498.413,24.268 		"/>
		<polygon fill="#E80000" points="491.333,29.507 490.642,26.188 489.873,22.897 488.943,19.677 487.802,16.538 488.542,16.237 
			489.903,19.288 491.482,22.248 493.212,25.147 495.033,28.007 		"/>
		<polygon fill="#E80000" points="488.453,34.337 487.562,31.427 486.603,28.567 485.482,25.777 484.163,23.107 484.863,22.717 
			486.392,25.288 488.123,27.737 490.002,30.107 491.962,32.427 		"/>
		<polygon fill="#E80000" points="486.013,39.797 484.953,37.308 483.812,34.877 482.542,32.547 481.083,30.357 481.722,29.888 
			483.382,31.938 485.212,33.857 487.183,35.667 489.232,37.438 		"/>
		<polygon fill="#E80000" points="484.042,45.737 482.823,43.688 481.533,41.697 480.132,39.837 478.573,38.127 479.132,37.558 
			480.863,39.098 482.752,40.458 484.763,41.708 486.842,42.888 		"/>
		<polygon fill="#E80000" points="482.603,52.038 481.232,50.417 479.802,48.877 478.283,47.487 476.642,46.288 477.073,45.618 
			478.842,46.618 480.743,47.427 482.732,48.087 484.772,48.677 		"/>
		<polygon fill="#E80000" points="481.743,58.527 480.203,57.377 478.632,56.317 477.013,55.417 475.323,54.737 475.573,53.978 
			477.342,54.427 479.172,54.667 481.062,54.737 482.993,54.728 		"/>
		<polygon fill="#E80000" points="481.453,65.007 479.752,64.377 478.052,63.848 476.342,63.478 474.632,63.337 474.642,62.538 
			476.353,62.438 478.062,62.107 479.783,61.607 481.502,61.018 		"/>
		<polygon fill="#E80000" points="481.632,71.297 479.802,71.257 477.993,71.297 476.243,71.507 474.562,71.927 474.323,71.167 
			475.922,70.518 477.453,69.647 478.933,68.618 480.382,67.498 		"/>
		<polygon fill="#E80000" points="482.113,77.288 480.232,77.888 478.403,78.558 476.672,79.368 475.073,80.368 474.613,79.717 
			476.062,78.527 477.392,77.147 478.613,75.627 479.783,74.038 		"/>
		<polygon fill="#E80000" points="482.802,82.947 480.962,84.208 479.203,85.527 477.562,86.958 476.103,88.538 475.493,88.027 
			476.763,86.297 477.863,84.427 478.833,82.438 479.722,80.397 		"/>
		<polygon fill="#E80000" points="483.693,88.237 481.982,90.158 480.353,92.127 478.882,94.177 477.613,96.337 476.903,95.967 
			477.962,93.697 478.823,91.328 479.533,88.868 480.153,86.368 		"/>
		<polygon fill="#E80000" points="484.772,93.047 483.263,95.627 481.853,98.228 480.592,100.888 479.562,103.618 478.802,103.368 
			479.613,100.558 480.203,97.677 480.632,94.748 480.982,91.788 		"/>
		<polygon fill="#E80000" points="486.022,97.268 484.783,100.447 483.642,103.647 482.663,106.877 481.903,110.147 
			481.123,109.998 481.642,106.677 481.933,103.317 482.062,99.927 482.103,96.507 		"/>
		<polygon fill="#E80000" points="487.413,100.757 486.493,104.458 485.672,108.158 485.022,111.888 484.592,115.627 
			483.792,115.558 483.982,111.797 483.943,108.018 483.732,104.228 483.433,100.427 		"/>
		<polygon fill="#E80000" points="488.812,103.317 488.243,107.397 487.772,111.478 487.472,115.558 487.392,119.638 
			486.592,119.638 486.433,115.567 486.042,111.498 485.472,107.427 484.823,103.357 		"/>
		<polygon fill="#E80000" points="490.222,104.998 490.013,109.337 489.913,113.667 489.972,117.987 490.263,122.288 
			489.462,122.357 488.933,118.087 488.183,113.837 487.252,109.598 486.243,105.368 		"/>
		<polygon fill="#E80000" points="491.533,105.737 491.703,110.217 491.972,114.697 492.403,119.138 493.062,123.538 
			492.272,123.677 491.382,119.317 490.263,114.998 488.972,110.708 487.603,106.427 		"/>
		<polygon fill="#E80000" points="492.693,105.487 493.222,110.018 493.853,114.518 494.653,118.978 495.663,123.377 
			494.892,123.578 493.642,119.237 492.172,114.958 490.542,110.708 488.823,106.487 		"/>
		<polygon fill="#E80000" points="493.592,104.248 494.472,108.697 495.453,113.118 496.583,117.487 497.933,121.777 
			497.183,122.038 495.603,117.828 493.812,113.688 491.853,109.607 489.812,105.547 		"/>
		<polygon fill="#E80000" points="494.163,102.018 495.363,106.277 496.642,110.487 498.083,114.638 499.732,118.697 
			499.002,119.018 497.132,115.058 495.052,111.188 492.823,107.388 490.502,103.627 		"/>
		<polygon fill="#E80000" points="494.323,98.837 495.792,102.777 497.342,106.667 499.042,110.478 500.943,114.188 
			500.243,114.567 498.132,110.987 495.823,107.507 493.363,104.118 490.823,100.768 		"/>
		<polygon fill="#E80000" points="494.013,94.777 495.693,98.288 497.453,101.748 499.353,105.107 501.443,108.337 500.792,108.788 
			498.502,105.697 496.022,102.737 493.413,99.868 490.722,97.058 		"/>
		<polygon fill="#E80000" points="493.153,89.938 494.993,92.917 496.903,95.848 498.943,98.647 501.153,101.308 500.552,101.837 
			498.163,99.337 495.613,96.998 492.922,94.768 490.172,92.598 		"/>
		<polygon fill="#E80000" points="491.712,84.438 493.642,86.808 495.632,89.107 497.732,91.288 499.972,93.277 499.472,93.897 
			497.073,92.087 494.533,90.458 491.882,88.958 489.172,87.527 		"/>
		<polygon fill="#E80000" points="489.562,78.337 491.542,80.038 493.552,81.647 495.653,83.107 497.853,84.368 497.482,85.078 
			495.172,84.038 492.772,83.188 490.283,82.507 487.752,81.897 		"/>
		<polygon fill="#E80000" points="486.683,71.967 488.672,72.938 490.683,73.817 492.722,74.518 494.802,75.007 494.663,75.788 
			492.542,75.547 490.392,75.527 488.203,75.667 486.002,75.908 		"/>
		<polygon fill="#E80000" points="483.083,65.688 485.092,65.857 487.073,65.927 489.013,65.837 490.913,65.527 491.092,66.308 
			489.252,66.857 487.462,67.618 485.712,68.558 483.982,69.578 		"/>
		<polygon fill="#E80000" points="479.073,59.828 481.002,59.098 482.892,58.308 484.663,57.377 486.302,56.257 486.792,56.897 
			485.302,58.197 483.953,59.677 482.703,61.297 481.513,62.987 		"/>
		<polygon fill="#E80000" points="474.982,54.388 476.712,52.777 478.353,51.118 479.853,49.368 481.163,47.487 481.842,47.917 
			480.743,49.917 479.833,52.027 479.062,54.237 478.382,56.498 		"/>
		<polygon fill="#E80000" points="470.903,49.337 472.283,46.938 473.573,44.518 474.703,42.047 475.623,39.498 476.382,39.737 
			475.703,42.348 475.232,45.027 474.933,47.757 474.722,50.518 		"/>
		<polygon fill="#E80000" points="466.792,44.777 467.763,41.748 468.653,38.697 469.373,35.627 469.863,32.527 470.653,32.618 
			470.403,35.748 470.373,38.897 470.522,42.067 470.752,45.257 		"/>
		<polygon fill="#E80000" points="462.672,40.868 463.232,37.337 463.703,33.797 464.002,30.268 464.062,26.737 464.863,26.728 
			465.042,30.248 465.433,33.777 466.013,37.297 466.672,40.817 		"/>
		<polygon fill="#E80000" points="458.632,37.737 458.783,33.837 458.842,29.938 458.732,26.067 458.392,22.217 459.193,22.118 
			459.763,25.938 460.562,29.737 461.542,33.507 462.603,37.268 		"/>
		<polygon fill="#E80000" points="454.763,35.478 454.522,31.328 454.193,27.188 453.703,23.078 452.982,19.018 453.772,18.857 
			454.722,22.868 455.892,26.837 457.243,30.768 458.672,34.667 		"/>
		<polygon fill="#E80000" points="451.033,34.118 450.433,29.828 449.743,25.547 448.892,21.328 447.833,17.167 448.592,16.947 
			449.892,21.038 451.413,25.078 453.092,29.058 454.873,33.018 		"/>
		<polygon fill="#E80000" points="447.642,33.757 446.732,29.438 445.732,25.147 444.573,20.908 443.203,16.748 443.953,16.478 
			445.552,20.558 447.363,24.558 449.342,28.498 451.403,32.408 		"/>
		<polygon fill="#E80000" points="444.672,34.397 443.502,30.147 442.243,25.927 440.833,21.788 439.203,17.728 439.943,17.408 
			441.783,21.377 443.833,25.248 446.042,29.047 448.342,32.808 		"/>
		<polygon fill="#E80000" points="442.183,35.987 440.802,31.897 439.342,27.848 437.722,23.868 435.903,19.998 436.623,19.638 
			438.653,23.408 440.892,27.067 443.272,30.647 445.752,34.188 		"/>
		<polygon fill="#E80000" points="440.203,38.487 438.672,34.618 437.062,30.808 435.302,27.078 433.342,23.458 434.042,23.058 
			436.203,26.547 438.562,29.938 441.073,33.237 443.663,36.487 		"/>
		<polygon fill="#E80000" points="438.763,41.808 437.142,38.237 435.433,34.708 433.583,31.277 431.552,27.967 432.222,27.527 
			434.453,30.708 436.882,33.757 439.453,36.708 442.103,39.607 		"/>
		<polygon fill="#E80000" points="437.882,45.877 436.212,42.638 434.472,39.458 432.592,36.377 430.533,33.438 431.172,32.958 
			433.422,35.757 435.863,38.417 438.433,40.978 441.083,43.478 		"/>
		<polygon fill="#E80000" points="437.562,50.607 435.903,47.748 434.183,44.947 432.323,42.268 430.292,39.728 430.903,39.208 
			433.113,41.587 435.493,43.817 438.002,45.938 440.592,47.998 		"/>
		<polygon fill="#E80000" points="437.792,55.888 436.203,53.447 434.542,51.067 432.763,48.817 430.823,46.728 431.382,46.158 
			433.493,48.078 435.763,49.837 438.153,51.478 440.603,53.047 		"/>
		<polygon fill="#E80000" points="438.562,61.618 437.083,59.618 435.542,57.697 433.892,55.908 432.103,54.288 432.603,53.667 
			434.552,55.098 436.632,56.348 438.833,57.467 441.083,58.518 		"/>
		<polygon fill="#E80000" points="439.823,67.538 438.482,65.987 437.092,64.518 435.623,63.197 434.022,62.058 434.443,61.388 
			436.172,62.308 438.013,63.047 439.943,63.627 441.922,64.138 		"/>
		<polygon fill="#E80000" points="441.603,73.677 440.422,72.587 439.203,71.578 437.922,70.728 436.562,70.087 436.842,69.337 
			438.283,69.748 439.802,69.947 441.392,69.987 443.002,69.938 		"/>
		<polygon fill="#E80000" points="444.052,79.868 442.953,79.248 441.863,78.717 440.763,78.357 439.663,78.228 439.672,77.427 
			440.772,77.317 441.873,76.987 442.982,76.478 444.083,75.877 		"/>
		<polygon fill="#E80000" points="447.193,85.567 446.103,85.567 445.052,85.638 444.113,85.857 443.283,86.268 442.842,85.598 
			443.533,84.998 444.092,84.197 444.552,83.268 444.962,82.248 		"/>
		<polygon fill="#E80000" points="450.153,90.507 449.203,91.308 448.342,92.147 447.653,93.038 447.163,94.007 446.413,93.737 
			446.672,92.677 446.712,91.547 446.603,90.357 446.392,89.127 		"/>
		<polygon fill="#E80000" points="452.552,95.438 451.982,96.947 451.513,98.458 451.203,99.967 451.132,101.467 450.333,101.487 
			450.163,99.998 449.772,98.507 449.212,97.027 448.552,95.547 		"/>
		<polygon fill="#E80000" points="454.772,100.357 454.663,102.447 454.632,104.518 454.772,106.538 455.132,108.518 
			454.363,108.708 453.763,106.788 452.953,104.927 451.962,103.107 450.892,101.308 		"/>
		<polygon fill="#E80000" points="456.882,105.007 457.222,107.587 457.663,110.127 458.252,112.607 459.052,114.998 
			458.312,115.288 457.283,112.978 456.042,110.757 454.642,108.587 453.153,106.458 		"/>
		<polygon fill="#E80000" points="458.783,109.228 459.583,112.217 460.472,115.158 461.513,118.027 462.752,120.788 
			462.042,121.147 460.583,118.487 458.922,115.927 457.103,113.447 455.203,111.007 		"/>
		<polygon fill="#E80000" points="460.392,112.888 461.632,116.208 462.943,119.487 464.413,122.667 466.073,125.737 
			465.382,126.138 463.513,123.197 461.453,120.357 459.232,117.618 456.943,114.908 		"/>
		<polygon fill="#E80000" points="460.392,112.888 461.632,116.208 462.943,119.487 464.413,122.667 466.073,125.737 
			465.382,126.138 463.513,123.197 461.453,120.357 459.232,117.618 456.943,114.908 		"/>
		<polygon fill="#E80000" points="461.603,115.877 463.222,119.447 464.922,122.967 466.772,126.388 468.802,129.677 
			468.132,130.118 465.903,126.958 463.482,123.917 460.913,120.978 458.272,118.087 		"/>
		<polygon fill="#E80000" points="462.333,118.177 464.292,121.908 466.333,125.578 468.502,129.158 470.863,132.598 
			470.222,133.067 467.663,129.768 464.933,126.607 462.052,123.538 459.103,120.527 		"/>
		<polygon fill="#E80000" points="462.513,119.737 464.743,123.547 467.052,127.297 469.502,130.947 472.123,134.447 
			471.502,134.947 468.683,131.587 465.693,128.377 462.573,125.268 459.382,122.217 		"/>
		<polygon fill="#E80000" points="462.062,120.538 464.502,124.337 467.013,128.087 469.653,131.717 472.462,135.208 
			471.853,135.728 468.863,132.397 465.693,129.208 462.392,126.138 459.022,123.127 		"/>
		<polygon fill="#E80000" points="460.943,120.558 463.493,124.277 466.103,127.927 468.853,131.467 471.763,134.848 
			471.172,135.388 468.083,132.167 464.823,129.098 461.433,126.138 457.982,123.248 		"/>
		<polygon fill="#E80000" points="460.943,120.558 463.493,124.277 466.103,127.927 468.853,131.467 471.763,134.848 
			471.172,135.388 468.083,132.167 464.823,129.098 461.433,126.138 457.982,123.248 		"/>
		<polygon fill="#E80000" points="459.103,119.837 461.663,123.368 464.283,126.828 467.033,130.177 469.943,133.368 
			469.363,133.917 466.283,130.897 463.033,128.038 459.663,125.288 456.232,122.607 		"/>
		<polygon fill="#E80000" points="456.552,118.388 459.013,121.647 461.533,124.837 464.183,127.917 466.982,130.817 
			466.422,131.388 463.453,128.658 460.323,126.078 457.073,123.627 453.763,121.237 		"/>
		<polygon fill="#E80000" points="453.302,116.268 455.562,119.188 457.892,122.038 460.333,124.768 462.933,127.328 
			462.392,127.917 459.632,125.527 456.712,123.317 453.683,121.228 450.592,119.208 		"/>
		<polygon fill="#E80000" points="449.392,113.558 451.363,116.078 453.403,118.527 455.552,120.848 457.853,122.998 
			457.333,123.598 454.873,121.627 452.263,119.837 449.552,118.167 446.772,116.578 		"/>
		<polygon fill="#E80000" points="444.873,110.337 446.472,112.408 448.142,114.408 449.903,116.268 451.812,117.958 
			451.312,118.587 449.252,117.087 447.052,115.757 444.743,114.567 442.373,113.447 		"/>
		<polygon fill="#E80000" points="444.873,110.337 446.472,112.408 448.142,114.408 449.903,116.268 451.812,117.958 
			451.312,118.587 449.252,117.087 447.052,115.757 444.743,114.567 442.373,113.447 		"/>
		<polygon fill="#E80000" points="439.703,106.607 440.842,108.188 442.042,109.688 443.333,111.058 444.763,112.237 
			444.302,112.888 442.722,111.897 441.022,111.098 439.222,110.427 437.363,109.848 		"/>
		<polygon fill="#E80000" points="434.042,102.538 434.693,103.627 435.382,104.627 436.163,105.487 437.062,106.147 
			436.663,106.837 435.642,106.388 434.513,106.127 433.292,106.018 432.033,105.987 		"/>
		<polygon fill="#E80000" points="427.472,98.158 427.792,98.808 428.123,99.357 428.462,99.737 428.833,99.888 428.752,100.688 
			428.363,100.777 427.953,101.087 427.533,101.567 427.092,102.138 		"/>
		<polygon fill="#E80000" points="419.603,96.837 419.943,96.118 420.203,95.438 420.302,94.828 420.203,94.308 420.933,93.978 
			421.252,94.397 421.783,94.717 422.462,94.967 423.232,95.177 		"/>
		<polygon fill="#E80000" points="414.083,93.268 413.743,91.938 413.342,90.667 412.813,89.507 412.103,88.487 412.712,87.967 
			413.603,88.828 414.663,89.538 415.853,90.138 417.123,90.677 		"/>
		<polygon fill="#E80000" points="414.083,93.268 413.743,91.938 413.342,90.667 412.813,89.507 412.103,88.487 412.712,87.967 
			413.603,88.828 414.663,89.538 415.853,90.138 417.123,90.677 		"/>
		<polygon fill="#E80000" points="408.573,89.578 407.642,87.788 406.642,86.058 405.522,84.447 404.252,82.998 404.813,82.438 
			406.263,83.717 407.873,84.828 409.603,85.828 411.392,86.757 		"/>
		<polygon fill="#E80000" points="403.363,86.177 401.892,83.987 400.353,81.868 398.703,79.877 396.892,78.058 397.433,77.467 
			399.403,79.118 401.522,80.598 403.763,81.947 406.073,83.237 		"/>
		<polygon fill="#E80000" points="398.623,83.188 396.663,80.677 394.653,78.228 392.522,75.917 390.243,73.777 390.772,73.177 
			393.203,75.138 395.792,76.927 398.482,78.578 401.243,80.167 		"/>
		<polygon fill="#E80000" points="394.472,80.697 392.103,77.927 389.683,75.228 387.142,72.658 384.462,70.257 384.972,69.647 
			387.813,71.857 390.792,73.888 393.882,75.797 397.033,77.627 		"/>
		<polygon fill="#E80000" points="391.013,78.768 388.313,75.808 385.552,72.908 382.683,70.147 379.672,67.567 380.183,66.947 
			383.342,69.337 386.642,71.558 390.052,73.647 393.522,75.658 		"/>
		<polygon fill="#E80000" points="391.013,78.768 388.313,75.808 385.552,72.908 382.683,70.147 379.672,67.567 380.183,66.947 
			383.342,69.337 386.642,71.558 390.052,73.647 393.522,75.658 		"/>
		<polygon fill="#E80000" points="388.363,77.478 385.403,74.377 382.392,71.348 379.272,68.447 376.013,65.737 376.513,65.107 
			379.913,67.638 383.462,69.978 387.123,72.197 390.833,74.337 		"/>
		<polygon fill="#E80000" points="386.522,76.797 383.382,73.618 380.203,70.518 376.913,67.547 373.482,64.757 373.962,64.118 
			377.542,66.717 381.263,69.138 385.073,71.427 388.953,73.627 		"/>
		<polygon fill="#E80000" points="385.513,76.757 382.292,73.558 379.022,70.438 375.642,67.447 372.132,64.638 372.613,63.998 
			376.272,66.618 380.063,69.047 383.962,71.348 387.922,73.567 		"/>
		<polygon fill="#E80000" points="385.353,77.348 382.142,74.188 378.882,71.098 375.513,68.147 372.013,65.388 372.482,64.748 
			376.132,67.317 379.922,69.708 383.802,71.967 387.743,74.138 		"/>
		<polygon fill="#E80000" points="386.033,78.538 382.933,75.478 379.772,72.498 376.522,69.647 373.132,66.978 373.603,66.337 
			377.142,68.808 380.813,71.098 384.583,73.257 388.413,75.328 		"/>
		<polygon fill="#E80000" points="386.033,78.538 382.933,75.478 379.772,72.498 376.522,69.647 373.132,66.978 373.603,66.337 
			377.142,68.808 380.813,71.098 384.583,73.257 388.413,75.328 		"/>
		<polygon fill="#E80000" points="387.493,80.317 384.613,77.408 381.672,74.578 378.623,71.877 375.443,69.368 375.922,68.728 
			379.243,71.047 382.703,73.177 386.263,75.177 389.882,77.107 		"/>
		<polygon fill="#E80000" points="389.693,82.618 387.103,79.908 384.462,77.277 381.712,74.777 378.833,72.458 379.313,71.817 
			382.342,73.947 385.502,75.888 388.772,77.697 392.092,79.427 		"/>
		<polygon fill="#E80000" points="392.552,85.408 390.333,82.927 388.063,80.527 385.683,78.257 383.172,76.167 383.663,75.538 
			386.323,77.438 389.123,79.147 392.022,80.737 394.982,82.237 		"/>
		<polygon fill="#E80000" points="395.962,88.618 394.193,86.408 392.363,84.268 390.433,82.268 388.363,80.438 388.863,79.817 
			391.083,81.458 393.453,82.917 395.933,84.248 398.462,85.498 		"/>
		<polygon fill="#E80000" points="399.802,92.167 398.563,90.257 397.252,88.427 395.833,86.717 394.263,85.177 394.792,84.578 
			396.522,85.938 398.392,87.118 400.382,88.177 402.443,89.158 		"/>
		<polygon fill="#E80000" points="399.802,92.167 398.563,90.257 397.252,88.427 395.833,86.717 394.263,85.177 394.792,84.578 
			396.522,85.938 398.392,87.118 400.382,88.177 402.443,89.158 		"/>
		<polygon fill="#E80000" points="403.853,95.877 403.193,94.308 402.462,92.808 401.603,91.417 400.583,90.188 401.163,89.638 
			402.353,90.697 403.712,91.598 405.183,92.388 406.732,93.107 		"/>
		<polygon fill="#E80000" points="408.002,99.627 407.982,98.458 407.892,97.348 407.653,96.317 407.222,95.417 407.892,94.987 
			408.533,95.757 409.353,96.417 410.323,96.978 411.373,97.487 		"/>
		<polygon fill="#E80000" points="412.193,102.587 412.853,102.118 413.422,101.638 413.823,101.147 414.002,100.618 
			414.792,100.697 414.863,101.248 415.153,101.817 415.613,102.397 416.172,102.987 		"/>
		<polygon fill="#E80000" points="417.972,105.257 418.823,105.598 419.632,105.857 420.392,105.958 421.083,105.837 
			421.342,106.598 420.743,106.938 420.222,107.498 419.752,108.217 419.312,109.018 		"/>
		<polygon fill="#E80000" points="423.073,109.538 424.252,110.217 425.453,110.797 426.653,111.217 427.873,111.408 
			427.823,112.197 426.592,112.257 425.353,112.538 424.103,112.987 422.842,113.527 		"/>
		<polygon fill="#E80000" points="427.382,113.958 429.052,114.917 430.732,115.777 432.443,116.478 434.212,116.958 
			434.052,117.737 432.243,117.498 430.392,117.478 428.502,117.627 426.603,117.877 		"/>
		<polygon fill="#E80000" points="431.163,118.308 433.312,119.538 435.482,120.677 437.703,121.647 439.993,122.408 
			439.772,123.177 437.433,122.658 435.022,122.348 432.573,122.208 430.092,122.158 		"/>
		<polygon fill="#E80000" points="434.373,122.527 436.972,124.018 439.613,125.417 442.302,126.658 445.062,127.677 
			444.812,128.438 441.972,127.647 439.073,127.067 436.123,126.658 433.132,126.328 		"/>
		<polygon fill="#E80000" points="436.933,126.567 439.943,128.308 442.972,129.947 446.073,131.438 449.243,132.708 
			448.972,133.467 445.712,132.417 442.382,131.587 438.993,130.908 435.573,130.328 		"/>
		<polygon fill="#E80000" points="438.772,130.377 442.092,132.337 445.453,134.208 448.863,135.917 452.363,137.417 
			452.073,138.167 448.482,136.888 444.812,135.828 441.083,134.917 437.312,134.107 		"/>
		<polygon fill="#E80000" points="439.413,132.217 442.853,134.277 446.323,136.248 449.873,138.067 453.493,139.667 
			453.193,140.408 449.472,139.027 445.672,137.857 441.802,136.848 437.903,135.927 		"/>
		<polygon fill="#E80000" points="439.823,133.987 443.363,136.138 446.933,138.197 450.573,140.107 454.302,141.797 
			453.993,142.538 450.172,141.067 446.263,139.797 442.292,138.688 438.283,137.667 		"/>
		<polygon fill="#E80000" points="440.022,135.667 443.623,137.897 447.272,140.047 450.982,142.038 454.783,143.817 
			454.462,144.547 450.562,142.987 446.583,141.638 442.522,140.438 438.433,139.328 		"/>
		<polygon fill="#E80000" points="439.993,137.257 443.632,139.567 447.323,141.777 451.073,143.848 454.922,145.697 
			454.592,146.427 450.653,144.797 446.613,143.368 442.502,142.098 438.353,140.908 		"/>
		<polygon fill="#E80000" points="439.732,138.757 443.382,141.127 447.073,143.408 450.842,145.538 454.703,147.447 
			454.373,148.177 450.403,146.478 446.353,144.978 442.222,143.647 438.052,142.388 		"/>
		<polygon fill="#E80000" points="439.232,140.167 442.863,142.587 446.533,144.917 450.283,147.087 454.132,149.058 
			453.783,149.777 449.833,148.027 445.792,146.478 441.672,145.087 437.513,143.777 		"/>
		<polygon fill="#E80000" points="438.502,141.478 442.083,143.927 445.703,146.297 449.403,148.507 453.193,150.518 
			452.842,151.237 448.943,149.438 444.933,147.848 440.853,146.417 436.732,145.058 		"/>
		<polygon fill="#E80000" points="437.542,142.688 441.042,145.158 444.583,147.558 448.203,149.797 451.922,151.828 
			451.552,152.538 447.722,150.717 443.792,149.098 439.772,147.627 435.722,146.237 		"/>
		<polygon fill="#E80000" points="436.353,143.788 439.743,146.277 443.183,148.688 446.693,150.938 450.312,152.998 
			449.943,153.708 446.203,151.857 442.363,150.217 438.443,148.728 434.482,147.317 		"/>
		<polygon fill="#E80000" points="434.943,144.788 438.203,147.277 441.513,149.697 444.903,151.958 448.403,154.027 
			448.013,154.728 444.403,152.868 440.672,151.217 436.863,149.708 433.013,148.288 		"/>
		<polygon fill="#E80000" points="433.263,145.708 436.373,148.197 439.522,150.607 442.763,152.877 446.123,154.938 
			445.722,155.638 442.243,153.777 438.663,152.118 434.993,150.598 431.272,149.167 		"/>
		<polygon fill="#E80000" points="431.373,146.507 434.302,148.998 437.283,151.397 440.342,153.658 443.533,155.717 
			443.123,156.397 439.812,154.547 436.382,152.888 432.863,151.368 429.302,149.927 		"/>
		<polygon fill="#E80000" points="429.263,147.197 431.993,149.667 434.783,152.058 437.653,154.297 440.653,156.348 
			440.222,157.027 437.092,155.177 433.842,153.518 430.502,152.007 427.113,150.578 		"/>
		<polygon fill="#E80000" points="426.953,147.788 429.472,150.228 432.033,152.587 434.703,154.808 437.493,156.837 
			437.042,157.498 434.123,155.667 431.062,154.027 427.913,152.527 424.712,151.098 		"/>
		<polygon fill="#E80000" points="424.462,148.257 426.732,150.667 429.073,152.987 431.502,155.177 434.062,157.188 
			433.603,157.828 430.892,156.027 428.052,154.397 425.113,152.908 422.123,151.498 		"/>
		<polygon fill="#E80000" points="421.802,148.627 423.812,150.987 425.892,153.268 428.073,155.417 430.392,157.388 
			429.903,158.018 427.433,156.237 424.823,154.638 422.103,153.167 419.333,151.777 		"/>
		<polygon fill="#E80000" points="418.982,148.897 420.722,151.197 422.522,153.427 424.433,155.527 426.493,157.458 
			425.972,158.058 423.752,156.317 421.392,154.748 418.913,153.297 416.373,151.927 		"/>
		<polygon fill="#E80000" points="416.022,149.067 417.472,151.297 418.982,153.467 420.603,155.507 422.392,157.388 
			421.833,157.958 419.882,156.257 417.783,154.717 415.552,153.297 413.263,151.947 		"/>
		<polygon fill="#E80000" points="412.953,149.158 414.083,151.308 415.283,153.388 416.613,155.368 418.103,157.188 
			417.513,157.717 415.842,156.067 414.002,154.558 412.033,153.167 410.002,151.848 		"/>
		<polygon fill="#E80000" points="409.792,149.167 410.592,151.217 411.462,153.217 412.472,155.107 413.663,156.857 
			413.022,157.337 411.642,155.737 410.083,154.268 408.382,152.897 406.613,151.598 		"/>
		<polygon fill="#E80000" points="403.232,149.058 403.323,150.837 403.502,152.587 403.842,154.268 404.392,155.857 
			403.663,156.167 402.882,154.677 401.913,153.268 400.772,151.927 399.552,150.618 		"/>
		<polygon fill="#E80000" points="396.382,148.917 395.772,150.297 395.252,151.677 394.903,153.058 394.792,154.438 
			393.993,154.438 393.863,153.058 393.522,151.677 393.002,150.297 392.392,148.917 		"/>
		<polygon fill="#E80000" points="389.103,148.638 387.892,149.527 386.772,150.467 385.792,151.487 385.022,152.618 
			384.323,152.228 384.892,150.978 385.263,149.618 385.472,148.167 385.613,146.677 		"/>
		<polygon fill="#E80000" points="381.663,147.717 379.962,148.208 378.323,148.768 376.783,149.467 375.373,150.357 
			374.892,149.708 376.163,148.627 377.292,147.368 378.323,145.967 379.302,144.487 		"/>
		<polygon fill="#E80000" points="374.663,146.188 372.462,146.368 370.292,146.627 368.193,147.058 366.163,147.697 
			365.882,146.947 367.823,146.087 369.683,145.007 371.482,143.768 373.243,142.447 		"/>
		<polygon fill="#E80000" points="368.313,144.317 365.613,144.217 362.933,144.217 360.283,144.388 357.672,144.777 
			357.522,143.987 360.083,143.368 362.592,142.518 365.083,141.498 367.542,140.397 		"/>
		<polygon fill="#E80000" points="362.732,142.277 359.563,141.917 356.392,141.647 353.232,141.558 350.103,141.688 
			350.042,140.888 353.153,140.518 356.252,139.917 359.342,139.147 362.413,138.288 		"/>
		<polygon fill="#E80000" points="358.033,140.167 354.433,139.547 350.842,139.018 347.252,138.658 343.653,138.527 
			343.653,137.728 347.252,137.618 350.842,137.277 354.443,136.777 358.042,136.167 		"/>
		<polygon fill="#E80000" points="354.283,138.078 350.353,137.197 346.422,136.397 342.482,135.777 338.522,135.377 
			338.573,134.587 342.552,134.737 346.542,134.667 350.542,134.427 354.552,134.087 		"/>
		<polygon fill="#E80000" points="351.563,136.078 347.413,134.938 343.252,133.888 339.073,133.007 334.863,132.348 
			334.962,131.558 339.203,131.978 343.472,132.167 347.763,132.188 352.063,132.107 		"/>
		<polygon fill="#E80000" points="349.962,134.297 345.712,132.917 341.453,131.627 337.153,130.518 332.823,129.618 
			332.962,128.837 337.333,129.487 341.752,129.927 346.193,130.188 350.663,130.357 		"/>
		<polygon fill="#E80000" points="349.373,132.708 345.142,131.118 340.882,129.607 336.583,128.277 332.243,127.158 
			332.422,126.377 336.813,127.257 341.272,127.917 345.752,128.408 350.263,128.808 		"/>
		<polygon fill="#E80000" points="349.802,131.368 345.683,129.578 341.533,127.877 337.342,126.348 333.092,125.027 
			333.313,124.257 337.623,125.337 342.002,126.208 346.422,126.908 350.873,127.527 		"/>
		<polygon fill="#E80000" points="351.183,130.328 347.292,128.368 343.373,126.487 339.392,124.777 335.342,123.277 
			335.603,122.527 339.722,123.788 343.922,124.848 348.183,125.737 352.462,126.538 		"/>
		<polygon fill="#E80000" points="353.482,129.598 349.922,127.498 346.333,125.487 342.683,123.627 338.943,121.987 
			339.243,121.248 343.073,122.667 346.982,123.877 350.962,124.927 354.982,125.897 		"/>
		<polygon fill="#E80000" points="356.592,129.228 353.482,127.027 350.323,124.908 347.103,122.947 343.772,121.188 
			344.123,120.467 347.552,122.007 351.092,123.348 354.693,124.538 358.342,125.638 		"/>
		<polygon fill="#E80000" points="360.413,129.217 357.833,126.958 355.203,124.777 352.493,122.737 349.653,120.908 
			350.063,120.217 353.022,121.848 356.092,123.288 359.252,124.578 362.462,125.788 		"/>
		<polygon fill="#E80000" points="364.813,129.558 362.833,127.288 360.802,125.087 358.663,123.027 356.392,121.147 
			356.873,120.507 359.292,122.197 361.853,123.708 364.513,125.078 367.232,126.377 		"/>
		<polygon fill="#E80000" points="369.672,130.248 368.353,128.018 366.962,125.848 365.453,123.797 363.783,121.908 
			364.353,121.357 366.203,123.078 368.212,124.638 370.342,126.078 372.533,127.458 		"/>
		<polygon fill="#E80000" points="374.853,131.217 374.243,129.098 373.542,127.027 372.703,125.058 371.672,123.197 
			372.342,122.777 373.583,124.498 375.002,126.107 376.583,127.618 378.232,129.078 		"/>
		<polygon fill="#E80000" points="380.232,132.388 380.323,130.478 380.333,128.587 380.172,126.757 379.792,124.987 
			380.563,124.768 381.172,126.478 382.002,128.118 382.993,129.717 384.083,131.288 		"/>
		<polygon fill="#E80000" points="385.863,133.737 386.613,132.138 387.283,130.527 387.772,128.897 388.042,127.248 
			388.842,127.317 388.813,128.987 389.013,130.677 389.382,132.388 389.842,134.098 		"/>
		<polygon fill="#E80000" points="391.703,135.467 393.033,134.197 394.283,132.888 395.373,131.507 396.263,130.018 
			396.982,130.377 396.302,131.978 395.823,133.677 395.502,135.458 395.263,137.277 		"/>
		<polygon fill="#E80000" points="397.513,137.768 399.342,136.797 401.113,135.768 402.763,134.618 404.252,133.308 
			404.813,133.877 403.493,135.357 402.342,136.998 401.302,138.768 400.333,140.598 		"/>
		<polygon fill="#E80000" points="402.993,140.607 405.292,139.917 407.552,139.147 409.722,138.217 411.763,137.107 
			412.183,137.788 410.263,139.107 408.462,140.618 406.743,142.277 405.083,144.018 		"/>
		<polygon fill="#E80000" points="402.993,140.607 405.292,139.917 407.552,139.147 409.722,138.217 411.763,137.107 
			412.183,137.788 410.263,139.107 408.462,140.618 406.743,142.277 405.083,144.018 		"/>
		<polygon fill="#E80000" points="407.962,143.888 410.712,143.447 413.413,142.927 416.063,142.248 418.623,141.357 
			418.922,142.098 416.443,143.217 414.063,144.538 411.732,146.027 409.443,147.598 		"/>
		<polygon fill="#E80000" points="412.313,147.478 415.453,147.308 418.563,147.047 421.642,146.618 424.653,145.967 
			424.853,146.748 421.892,147.627 418.993,148.728 416.142,149.998 413.302,151.348 		"/>
		<polygon fill="#E80000" points="415.962,151.308 419.433,151.417 422.892,151.427 426.333,151.268 429.732,150.888 
			429.842,151.677 426.482,152.297 423.142,153.138 419.842,154.158 416.542,155.268 		"/>
		<polygon fill="#E80000" points="418.823,155.317 422.552,155.708 426.292,155.998 430.013,156.127 433.722,156.018 
			433.772,156.817 430.073,157.167 426.392,157.728 422.722,158.478 419.062,159.308 		"/>
		<polygon fill="#E80000" points="420.833,159.427 424.743,160.107 428.653,160.697 432.573,161.118 436.493,161.308 
			436.472,162.098 432.552,162.158 428.623,162.427 424.693,162.877 420.763,163.417 		"/>
		<polygon fill="#E80000" points="421.513,161.538 425.472,162.368 429.433,163.107 433.403,163.667 437.392,164.007 
			437.353,164.808 433.353,164.708 429.342,164.837 425.312,165.138 421.292,165.527 		"/>
		<polygon fill="#E80000" points="421.953,163.647 425.933,164.627 429.922,165.507 433.922,166.228 437.953,166.717 
			437.873,167.507 433.833,167.267 429.763,167.237 425.683,167.388 421.592,167.627 		"/>
		<polygon fill="#E80000" points="422.163,165.757 426.142,166.877 430.123,167.908 434.132,168.767 438.172,169.408 
			438.073,170.198 434.002,169.807 429.903,169.627 425.792,169.627 421.663,169.717 		"/>
		<polygon fill="#E80000" points="422.132,167.848 426.083,169.107 430.052,170.288 434.042,171.288 438.073,172.078 
			437.943,172.857 433.873,172.318 429.772,171.998 425.632,171.848 421.482,171.788 		"/>
		<polygon fill="#E80000" points="421.853,169.908 425.763,171.318 429.693,172.638 433.653,173.788 437.663,174.717 
			437.513,175.498 433.453,174.807 429.353,174.337 425.222,174.038 421.062,173.828 		"/>
		<polygon fill="#E80000" points="421.342,171.937 425.193,173.498 429.062,174.958 432.982,176.248 436.953,177.318 
			436.763,178.098 432.743,177.257 428.663,176.638 424.542,176.187 420.413,175.828 		"/>
		<polygon fill="#E80000" points="420.583,173.937 424.363,175.627 428.163,177.228 432.002,178.667 435.913,179.877 
			435.703,180.648 431.722,179.667 427.693,178.898 423.613,178.297 419.513,177.788 		"/>
		<polygon fill="#E80000" points="419.592,175.877 423.272,177.708 426.972,179.448 430.732,181.028 434.552,182.387 
			434.312,183.148 430.413,182.018 426.443,181.098 422.422,180.348 418.373,179.687 		"/>
		<polygon fill="#E80000" points="418.373,177.768 421.922,179.728 425.502,181.607 429.142,183.318 432.863,184.818 
			432.592,185.568 428.783,184.297 424.903,183.237 420.962,182.337 416.993,181.518 		"/>
		<polygon fill="#E80000" points="416.933,179.587 420.323,181.677 423.763,183.687 427.252,185.528 430.842,187.167 
			430.533,187.908 426.853,186.487 423.083,185.288 419.252,184.237 415.382,183.278 		"/>
		<polygon fill="#E80000" points="415.263,181.348 418.482,183.557 421.732,185.687 425.073,187.658 428.502,189.417 
			428.153,190.137 424.623,188.598 420.993,187.248 417.283,186.057 413.542,184.958 		"/>
		<polygon fill="#E80000" points="413.382,183.018 416.392,185.337 419.453,187.578 422.592,189.667 425.842,191.557 
			425.462,192.268 422.103,190.587 418.632,189.107 415.083,187.778 411.482,186.538 		"/>
		<polygon fill="#E80000" points="411.302,184.607 414.092,187.028 416.933,189.377 419.853,191.578 422.903,193.587 
			422.482,194.268 419.312,192.467 416.022,190.857 412.642,189.398 409.212,188.007 		"/>
		<polygon fill="#E80000" points="409.033,186.098 411.573,188.618 414.163,191.068 416.853,193.368 419.672,195.478 
			419.212,196.137 416.263,194.217 413.172,192.487 409.982,190.898 406.743,189.377 		"/>
		<polygon fill="#E80000" points="406.592,187.498 408.853,190.098 411.183,192.627 413.613,195.028 416.183,197.237 
			415.683,197.868 412.962,195.837 410.092,193.978 407.123,192.257 404.092,190.618 		"/>
		<polygon fill="#E80000" points="403.982,188.788 405.953,191.458 407.982,194.068 410.132,196.538 412.443,198.848 
			411.892,199.437 409.422,197.307 406.802,195.337 404.063,193.487 401.263,191.717 		"/>
		<polygon fill="#E80000" points="401.232,189.987 402.882,192.708 404.603,195.357 406.443,197.908 408.453,200.297 
			407.863,200.828 405.672,198.607 403.313,196.528 400.833,194.568 398.283,192.677 		"/>
		<polygon fill="#E80000" points="398.353,191.068 399.653,193.818 401.033,196.518 402.552,199.098 404.252,201.557 
			403.613,202.038 401.722,199.728 399.653,197.557 397.443,195.487 395.163,193.478 		"/>
		<polygon fill="#E80000" points="395.342,192.047 396.292,194.807 397.323,197.507 398.493,200.127 399.863,202.618 
			399.183,203.038 397.603,200.658 395.833,198.408 393.922,196.237 391.922,194.118 		"/>
		<polygon fill="#E80000" points="392.232,192.927 392.813,195.658 393.472,198.348 394.292,200.967 395.313,203.498 
			394.592,203.828 393.342,201.398 391.892,199.068 390.292,196.807 388.603,194.587 		"/>
		<polygon fill="#E80000" points="388.603,194.587 388.703,193.318 388.712,192.098 388.563,190.937 388.222,189.877 
			388.943,189.547 389.513,190.507 390.292,191.377 391.222,192.167 392.243,192.927 		"/>
		<polygon fill="#E80000" points="380.903,196.408 380.833,195.107 380.693,193.848 380.403,192.677 379.922,191.618 
			380.613,191.217 381.302,192.148 382.183,192.958 383.222,193.687 384.333,194.368 		"/>
		<polygon fill="#E80000" points="373.353,198.568 373.123,197.237 372.823,195.958 372.382,194.788 371.772,193.748 
			372.413,193.278 373.222,194.167 374.222,194.927 375.353,195.587 376.563,196.187 		"/>
		<polygon fill="#E80000" points="366.002,201.068 365.603,199.717 365.142,198.437 364.552,197.268 363.792,196.257 
			364.392,195.717 365.323,196.568 366.433,197.268 367.663,197.857 368.962,198.377 		"/>
		<polygon fill="#E80000" points="358.873,203.887 358.313,202.547 357.683,201.268 356.943,200.118 356.042,199.137 
			356.583,198.547 357.642,199.348 358.853,199.987 360.183,200.498 361.573,200.937 		"/>
		<polygon fill="#E80000" points="352.002,207.038 351.272,205.698 350.482,204.437 349.592,203.318 348.552,202.377 
			349.042,201.737 350.222,202.498 351.542,203.068 352.962,203.498 354.443,203.868 		"/>
		<polygon fill="#E80000" points="345.623,210.398 344.722,209.087 343.772,207.857 342.722,206.768 341.563,205.868 
			341.993,205.198 343.292,205.898 344.712,206.398 346.222,206.757 347.792,207.038 		"/>
		<polygon fill="#E80000" points="339.552,214.047 338.482,212.778 337.382,211.578 336.193,210.538 334.892,209.687 
			335.272,208.987 336.683,209.627 338.212,210.057 339.813,210.337 341.462,210.538 		"/>
		<polygon fill="#E80000" points="333.842,217.987 332.613,216.757 331.353,215.607 330.013,214.618 328.583,213.828 
			328.913,213.107 330.443,213.667 332.073,214.028 333.763,214.228 335.502,214.348 		"/>
		<polygon fill="#E80000" points="328.522,222.187 327.142,221.018 325.722,219.927 324.243,218.998 322.693,218.278 
			322.972,217.528 324.613,218.018 326.333,218.297 328.123,218.417 329.933,218.448 		"/>
		<polygon fill="#E80000" points="323.653,226.648 322.113,225.538 320.542,224.517 318.933,223.658 317.252,223.018 
			317.482,222.257 319.232,222.667 321.052,222.857 322.922,222.887 324.813,222.828 		"/>
		<polygon fill="#E80000" points="315.693,235.818 313.882,234.868 312.052,233.998 310.193,233.307 308.283,232.837 
			308.433,232.047 310.373,232.288 312.363,232.297 314.373,232.137 316.413,231.887 		"/>
		<polygon fill="#E80000" points="309.783,245.698 307.722,244.937 305.653,244.267 303.573,243.778 301.473,243.498 
			301.533,242.708 303.643,242.737 305.772,242.538 307.922,242.177 310.073,241.717 		"/>
		<polygon fill="#E80000" points="306.193,256.107 303.923,255.568 301.653,255.127 299.393,254.848 297.133,254.807 
			297.103,254.007 299.353,253.807 301.593,253.387 303.833,252.797 306.063,252.107 		"/>
		<polygon fill="#E80000" points="305.193,266.778 302.752,266.498 300.333,266.307 297.933,266.288 295.563,266.498 
			295.453,265.708 297.792,265.257 300.093,264.587 302.373,263.748 304.642,262.818 		"/>
		<polygon fill="#E80000" points="306.993,277.417 304.453,277.427 301.933,277.517 299.462,277.788 297.042,278.267 
			296.853,277.487 299.212,276.778 301.513,275.837 303.783,274.737 306.022,273.547 		"/>
		<polygon fill="#E80000" points="306.993,277.417 304.453,277.427 301.933,277.517 299.462,277.788 297.042,278.267 
			296.853,277.487 299.212,276.778 301.513,275.837 303.783,274.737 306.022,273.547 		"/>
		<polygon fill="#E80000" points="311.363,287.098 308.792,287.387 306.252,287.757 303.772,288.297 301.373,289.047 
			301.103,288.297 303.413,287.318 305.653,286.127 307.842,284.778 309.982,283.337 		"/>
		<polygon fill="#E80000" points="318.363,296.137 315.833,296.717 313.342,297.387 310.933,298.208 308.623,299.237 
			308.272,298.517 310.472,297.278 312.573,295.837 314.592,294.248 316.573,292.568 		"/>
		<polygon fill="#E80000" points="327.962,304.208 325.542,305.098 323.183,306.057 320.913,307.158 318.772,308.458 
			318.333,307.788 320.333,306.297 322.212,304.618 324.002,302.788 325.732,300.887 		"/>
		<polygon fill="#E80000" points="339.982,310.967 337.763,312.158 335.613,313.408 333.573,314.778 331.683,316.328 
			331.153,315.737 332.873,314.007 334.453,312.118 335.903,310.098 337.302,308.007 		"/>
		<polygon fill="#E80000" points="354.153,316.107 352.212,317.568 350.353,319.087 348.623,320.717 347.073,322.478 
			346.453,321.987 347.813,320.068 348.993,318.007 350.042,315.848 351.013,313.627 		"/>
		<polygon fill="#E80000" points="368.972,319.167 367.373,320.877 365.863,322.618 364.493,324.448 363.333,326.387 
			362.623,326.007 363.573,323.967 364.323,321.807 364.922,319.578 365.443,317.297 		"/>
		<polygon fill="#E80000" points="384.853,320.377 383.663,322.297 382.563,324.237 381.632,326.237 380.913,328.288 
			380.142,328.068 380.632,325.948 380.892,323.757 381.002,321.528 381.013,319.268 		"/>
		<polygon fill="#E80000" points="401.272,319.627 400.563,321.717 399.933,323.828 399.482,325.937 399.252,328.057 
			398.462,328.018 398.443,325.887 398.203,323.737 397.792,321.587 397.283,319.427 		"/>
		<polygon fill="#E80000" points="417.672,316.917 417.482,319.137 417.382,321.337 417.462,323.507 417.752,325.637 
			416.972,325.788 416.433,323.708 415.683,321.677 414.763,319.667 413.743,317.687 		"/>
		<polygon fill="#E80000" points="433.472,312.348 433.853,314.618 434.312,316.848 434.933,318.998 435.763,321.057 
			435.042,321.398 433.993,319.437 432.743,317.578 431.342,315.788 429.853,314.038 		"/>
		<polygon fill="#E80000" points="447.193,306.587 448.103,308.818 449.092,310.987 450.212,313.057 451.522,314.987 
			450.882,315.467 449.382,313.677 447.703,312.028 445.892,310.478 444.002,308.987 		"/>
		<polygon fill="#E80000" points="459.573,299.528 460.993,301.637 462.482,303.687 464.073,305.598 465.833,307.348 
			465.292,307.948 463.382,306.377 461.312,304.967 459.132,303.698 456.892,302.487 		"/>
		<polygon fill="#E80000" points="470.283,291.377 472.163,293.307 474.103,295.167 476.123,296.868 478.272,298.387 
			477.842,299.057 475.562,297.748 473.163,296.627 470.672,295.648 468.132,294.748 		"/>
		<polygon fill="#E80000" points="479.022,282.377 481.302,284.068 483.623,285.667 486.013,287.107 488.502,288.348 
			488.172,289.078 485.592,288.057 482.922,287.248 480.172,286.598 477.392,286.028 		"/>
		<polygon fill="#E80000" points="485.583,272.757 488.183,274.158 490.812,275.467 493.493,276.618 496.232,277.547 
			496.002,278.318 493.193,277.618 490.323,277.137 487.403,276.818 484.462,276.587 		"/>
		<polygon fill="#E80000" points="489.583,263.538 492.403,264.648 495.232,265.667 498.103,266.517 501.013,267.137 
			500.873,267.927 497.922,267.538 494.943,267.377 491.922,267.387 488.903,267.478 		"/>
		<polygon fill="#E80000" points="491.513,254.248 494.482,255.047 497.453,255.757 500.433,256.297 503.433,256.607 
			503.382,257.398 500.373,257.337 497.342,257.487 494.302,257.818 491.263,258.237 		"/>
		<polygon fill="#E80000" points="491.382,245.087 494.422,245.578 497.453,245.967 500.482,246.187 503.502,246.187 
			503.533,246.978 500.522,247.228 497.522,247.708 494.533,248.348 491.552,249.087 		"/>
		<polygon fill="#E80000" points="489.222,236.278 492.252,236.448 495.283,236.528 498.272,236.427 501.243,236.107 
			501.363,236.898 498.433,237.458 495.533,238.237 492.663,239.187 489.812,240.237 		"/>
		<polygon fill="#E80000" points="485.123,228.007 488.083,227.857 491.022,227.627 493.913,227.228 496.752,226.607 
			496.953,227.387 494.172,228.237 491.462,229.307 488.783,230.547 486.132,231.868 		"/>
		<polygon fill="#E80000" points="479.743,221.018 482.573,220.598 485.373,220.098 488.113,219.427 490.763,218.547 
			491.042,219.297 488.472,220.398 485.982,221.717 483.552,223.198 481.163,224.757 		"/>
		<polygon fill="#E80000" points="472.953,214.778 475.603,214.087 478.203,213.318 480.732,212.398 483.153,211.278 
			483.522,211.987 481.212,213.328 479.002,214.857 476.882,216.547 474.792,218.328 		"/>
		<polygon fill="#E80000" points="464.903,209.387 467.312,208.448 469.683,207.427 471.943,206.268 474.073,204.927 
			474.533,205.578 472.533,207.127 470.672,208.848 468.903,210.717 467.193,212.667 		"/>
		<polygon fill="#E80000" points="455.763,204.967 457.892,203.778 459.962,202.528 461.913,201.148 463.703,199.607 
			464.252,200.187 462.623,201.908 461.153,203.788 459.802,205.788 458.522,207.857 		"/>
		<polygon fill="#E80000" points="445.732,201.618 447.522,200.198 449.243,198.728 450.833,197.148 452.232,195.437 
			452.873,195.908 451.672,197.757 450.642,199.748 449.763,201.837 448.953,203.978 		"/>
		<polygon fill="#E80000" points="435.993,199.578 437.433,197.948 438.783,196.278 439.993,194.538 440.993,192.698 
			441.712,193.038 440.933,194.978 440.353,197.018 439.943,199.127 439.603,201.278 		"/>
		<polygon fill="#E80000" points="425.903,198.538 426.943,196.717 427.882,194.868 428.663,192.978 429.212,191.047 
			429.993,191.217 429.672,193.208 429.573,195.248 429.642,197.318 429.802,199.408 		"/>
		<polygon fill="#E80000" points="415.712,198.528 416.272,196.528 416.743,194.518 417.042,192.507 417.113,190.507 
			417.913,190.498 418.083,192.487 418.472,194.467 419.042,196.458 419.703,198.437 		"/>
		<polygon fill="#E80000" points="405.632,199.507 405.653,197.357 405.583,195.228 405.353,193.148 404.903,191.127 
			405.663,190.908 406.353,192.868 407.252,194.748 408.323,196.598 409.482,198.408 		"/>
		<polygon fill="#E80000" points="395.892,201.417 395.302,199.187 394.642,196.998 393.823,194.898 392.813,192.917 
			393.513,192.518 394.722,194.377 396.142,196.127 397.703,197.797 399.353,199.408 		"/>
		<polygon fill="#E80000" points="395.892,201.417 395.302,199.187 394.642,196.998 393.823,194.898 392.813,192.917 
			393.513,192.518 394.722,194.377 396.142,196.127 397.703,197.797 399.353,199.408 		"/>
		<polygon fill="#E80000" points="387.513,203.877 386.353,201.658 385.113,199.487 383.743,197.437 382.212,195.538 
			382.813,194.998 384.522,196.748 386.403,198.328 388.413,199.807 390.502,201.217 		"/>
		<polygon fill="#E80000" points="379.722,207.018 377.953,204.868 376.123,202.788 374.193,200.848 372.123,199.087 
			372.613,198.458 374.833,200.028 377.193,201.417 379.653,202.677 382.172,203.857 		"/>
		<polygon fill="#E80000" points="372.672,210.788 370.302,208.797 367.892,206.887 365.392,205.127 362.783,203.557 
			363.163,202.857 365.892,204.208 368.722,205.357 371.632,206.368 374.592,207.288 		"/>
		<polygon fill="#E80000" points="366.563,215.148 363.613,213.387 360.623,211.717 357.573,210.208 354.443,208.908 
			354.722,208.158 357.933,209.228 361.232,210.087 364.583,210.788 367.962,211.408 		"/>
		<polygon fill="#E80000" points="361.592,220.018 358.083,218.568 354.563,217.217 351.002,216.028 347.382,215.057 
			347.563,214.278 351.232,215.018 354.953,215.528 358.712,215.868 362.502,216.118 		"/>
		<polygon fill="#E80000" points="358.272,224.717 354.323,223.618 350.363,222.607 346.382,221.778 342.373,221.167 
			342.472,220.368 346.502,220.737 350.573,220.887 354.653,220.868 358.752,220.748 		"/>
		<polygon fill="#E80000" points="356.163,229.637 351.823,228.948 347.493,228.348 343.153,227.927 338.813,227.728 
			338.823,226.927 343.172,226.887 347.522,226.618 351.873,226.177 356.232,225.637 		"/>
		<polygon fill="#E80000" points="355.382,234.658 350.743,234.437 346.123,234.307 341.502,234.348 336.913,234.618 
			336.842,233.818 341.413,233.307 345.972,232.578 350.513,231.667 355.042,230.677 		"/>
		<polygon fill="#E80000" points="356.042,239.627 351.212,239.927 346.392,240.318 341.613,240.877 336.873,241.667 
			336.722,240.877 341.422,239.857 346.073,238.618 350.693,237.208 355.292,235.708 		"/>
		<polygon fill="#E80000" points="358.203,244.387 353.313,245.257 348.453,246.217 343.632,247.337 338.892,248.667 
			338.653,247.908 343.333,246.337 347.943,244.557 352.493,242.607 357.033,240.568 		"/>
		<polygon fill="#E80000" points="361.382,248.267 356.573,249.667 351.792,251.148 347.083,252.788 342.472,254.627 
			342.153,253.898 346.672,251.828 351.113,249.547 355.482,247.118 359.813,244.598 		"/>
		<polygon fill="#E80000" points="365.743,251.687 361.142,253.637 356.592,255.658 352.132,257.828 347.783,260.187 
			347.382,259.498 351.613,256.927 355.732,254.148 359.763,251.228 363.752,248.228 		"/>
		<polygon fill="#E80000" points="371.212,254.517 366.982,257.007 362.823,259.568 358.763,262.267 354.842,265.137 
			354.363,264.507 358.132,261.437 361.763,258.198 365.292,254.807 368.763,251.357 		"/>
		<polygon fill="#E80000" points="377.672,256.598 374.013,259.607 370.403,262.687 366.933,265.887 363.623,269.237 
			363.042,268.687 366.172,265.177 369.142,261.498 371.982,257.708 374.763,253.857 		"/>
		<polygon fill="#E80000" points="384.972,257.778 382.042,261.288 379.193,264.837 376.482,268.487 373.962,272.257 
			373.292,271.837 375.603,267.937 377.722,263.917 379.703,259.807 381.592,255.648 		"/>
		<polygon fill="#E80000" points="391.802,257.967 389.663,261.868 387.613,265.797 385.722,269.788 384.042,273.857 
			383.292,273.568 384.743,269.417 385.993,265.177 387.073,260.877 388.073,256.547 		"/>
		<polygon fill="#E80000" points="398.873,257.337 397.672,261.568 396.573,265.797 395.632,270.057 394.922,274.348 
			394.132,274.237 394.603,269.917 394.853,265.568 394.922,261.187 394.913,256.797 		"/>
		<polygon fill="#E80000" points="405.943,255.877 405.842,260.337 405.833,264.788 405.982,269.217 406.373,273.618 
			405.573,273.708 404.953,269.337 404.103,264.987 403.083,260.648 401.972,256.328 		"/>
		<polygon fill="#E80000" points="412.792,253.627 413.913,258.187 415.113,262.717 416.482,267.187 418.052,271.578 
			417.313,271.857 415.513,267.568 413.493,263.348 411.323,259.198 409.063,255.068 		"/>
		<polygon fill="#E80000" points="419.203,250.667 421.632,255.167 424.142,259.607 426.792,263.958 429.623,268.177 
			428.972,268.637 425.943,264.557 422.722,260.618 419.363,256.767 415.933,252.967 		"/>
		<polygon fill="#E80000" points="419.203,250.667 421.632,255.167 424.142,259.607 426.792,263.958 429.623,268.177 
			428.972,268.637 425.943,264.557 422.722,260.618 419.363,256.767 415.933,252.967 		"/>
		<polygon fill="#E80000" points="424.153,247.658 427.743,251.958 431.392,256.187 435.163,260.297 439.083,264.237 
			438.533,264.818 434.433,261.047 430.193,257.437 425.823,253.948 421.382,250.538 		"/>
		<polygon fill="#E80000" points="428.542,244.228 433.272,248.187 438.052,252.057 442.933,255.797 447.943,259.337 
			447.502,259.998 442.353,256.658 437.083,253.498 431.712,250.478 426.292,247.538 		"/>
		<polygon fill="#E80000" points="432.222,240.448 438.052,243.908 443.922,247.267 449.863,250.487 455.892,253.487 
			455.552,254.217 449.413,251.427 443.172,248.837 436.863,246.408 430.502,244.057 		"/>
		<polygon fill="#E80000" points="435.083,236.377 441.903,239.177 448.752,241.887 455.653,244.437 462.623,246.767 
			462.382,247.528 455.342,245.427 448.232,243.538 441.062,241.818 433.873,240.187 		"/>
		<polygon fill="#E80000" points="436.993,232.087 444.672,234.098 452.363,236.007 460.092,237.757 467.853,239.278 
			467.712,240.068 459.903,238.778 452.062,237.717 444.183,236.828 436.292,236.017 		"/>
		<polygon fill="#E80000" points="437.792,228.467 446.042,229.717 454.312,230.868 462.583,231.848 470.873,232.607 
			470.812,233.408 462.502,232.887 454.172,232.598 445.833,232.478 437.493,232.448 		"/>
		<polygon fill="#E80000" points="437.833,224.837 446.502,225.237 455.172,225.538 463.833,225.667 472.493,225.578 
			472.513,226.368 463.863,226.708 455.212,227.267 446.573,228.007 437.933,228.837 		"/>
		<polygon fill="#E80000" points="437.073,221.288 445.943,220.748 454.802,220.118 463.642,219.307 472.453,218.288 
			472.552,219.078 463.772,220.348 455.022,221.837 446.302,223.498 437.583,225.248 		"/>
		<polygon fill="#E80000" points="435.502,217.898 444.312,216.348 453.103,214.717 461.863,212.917 470.552,210.898 
			470.743,211.667 462.103,213.927 453.522,216.398 444.982,219.038 436.453,221.778 		"/>
		<polygon fill="#E80000" points="433.123,214.757 441.592,212.148 450.022,209.458 458.392,206.598 466.693,203.528 
			466.972,204.278 458.772,207.568 450.653,211.078 442.583,214.737 434.562,218.487 		"/>
		<polygon fill="#E80000" points="430.672,212.528 438.623,209.028 446.533,205.448 454.363,201.708 462.083,197.778 
			462.453,198.478 454.842,202.627 447.342,206.978 439.913,211.487 432.533,216.068 		"/>
		<polygon fill="#E80000" points="427.752,210.607 434.892,206.198 441.982,201.708 448.962,197.078 455.812,192.268 
			456.283,192.908 449.573,197.917 442.993,203.107 436.522,208.437 430.103,213.848 		"/>
		<polygon fill="#E80000" points="424.413,209.068 430.373,203.757 436.272,198.387 442.042,192.898 447.642,187.248 
			448.222,187.807 442.792,193.618 437.522,199.587 432.373,205.687 427.292,211.837 		"/>
		<polygon fill="#E80000" points="420.743,208.007 425.103,201.848 429.373,195.648 433.502,189.357 437.433,182.948 
			438.123,183.357 434.403,189.887 430.863,196.528 427.482,203.257 424.183,210.038 		"/>
		<polygon fill="#E80000" points="416.892,207.547 419.123,200.578 421.252,193.587 423.222,186.568 424.972,179.487 
			425.752,179.667 424.243,186.797 422.953,193.978 421.823,201.198 420.792,208.437 		"/>
		<polygon fill="#E80000" points="414.042,207.618 414.183,200.098 414.222,192.578 414.092,185.068 413.743,177.578 
			414.533,177.528 415.132,185.007 415.953,192.467 416.943,199.917 418.033,207.368 		"/>
		<polygon fill="#E80000" points="411.392,207.998 408.892,200.118 406.313,192.268 403.563,184.487 400.613,176.788 
			401.353,176.487 404.533,184.098 407.922,191.627 411.462,199.087 415.103,206.507 		"/>
		<polygon fill="#E80000" points="409.022,208.557 403.283,200.698 397.482,192.887 391.542,185.198 385.433,177.648 
			386.042,177.138 392.342,184.528 398.813,191.778 405.422,198.927 412.092,206.007 		"/>
		<polygon fill="#E80000" points="406.953,209.228 397.283,201.898 387.563,194.637 377.743,187.528 367.792,180.598 
			368.243,179.937 378.323,186.667 388.533,193.208 398.842,199.598 409.203,205.917 		"/>
		<polygon fill="#E80000" points="405.232,209.967 390.653,203.857 376.033,197.828 361.353,191.967 346.603,186.307 
			346.882,185.557 361.722,190.987 376.642,196.208 391.623,201.257 406.632,206.228 		"/>
	</g>
</g>
<g id="Graph">
	<g>
		<path fill-rule="evenodd" clip-rule="evenodd" fill="none" stroke="#EB0000" stroke-linecap="round" stroke-linejoin="round" d="
			M346.743,185.937c19.36-6.109,40.95-10.549,61.63-8.979c16.75,1.271,38.641,6.8,51.78,19.061
			c13.35,12.439,16.689,29.02,6.869,44.939c-12.229,19.83-37.659,29.62-58.729,32.42c-12.779,1.7-26.51,1.14-39.01-2.44
			c-9.59-2.75-19.48-7.529-26.11-15.58c-12.22-14.819-6.04-31.55,6.78-43.06c14.14-12.69,34.65-19,52.71-21.01
			c19.851-2.2,41.359,0.17,59.95,8.03c43.659,18.46,55.909,60.489,20.76,94.63c-28.03,27.21-73.439,37.5-110.43,33.64
			c-21.87-2.27-46.01-9.77-62.301-26.351c-12.169-12.38-17.949-28.289-13.81-45.699c4.31-18.08,18.05-32.49,32.431-42.42
			c17.5-12.09,38.649-19.681,59.319-23.4"/>
		<path fill-rule="evenodd" clip-rule="evenodd" fill="none" stroke="#EB0000" stroke-linecap="round" stroke-linejoin="round" d="
			M559.333,74.848c1.64-26.84,24.66-50.74,49.76-57.2c12.79-3.3,27.38-2.3,38.36,6.39c11.2,8.87,14.819,22.81,12.87,36.24"/>
		<path fill-rule="evenodd" clip-rule="evenodd" fill="none" stroke="#EB0000" stroke-linecap="round" stroke-linejoin="round" d="
			M509.732,115.647c-0.239,12.95,5.471,24.74,16.721,31.67c10.93,6.72,24.38,7.33,36.311,4.36c23.39-5.8,45.68-26.57,48.379-51.73"
			/>
		<path fill-rule="evenodd" clip-rule="evenodd" fill="none" stroke="#EB0000" stroke-linecap="round" stroke-linejoin="round" d="
			M394.953,203.658c11.77-1.86,25.21-6.19,34.35-14.76c6.65-6.221,10.45-14.711,8.18-24.041c-2.489-10.19-11.479-18.21-19.359-23.58
			c-11.141-7.6-22.97-12.29-35.83-15.84c-11.45-3.16-25.4-5.66-37.479-4.69c-3.25,0.26-7.521,0.76-10.4,2.79
			c-2.04,1.43-2.66,3.35-1.55,5.63c1.6,3.3,5.39,5.74,8.229,7.47c5.46,3.34,11.221,5.78,17.171,8
			c15.729,5.87,31.64,9.58,48.259,11.71c7.341,0.94,14.661,1.52,22.07,1.39c5.591-0.1,10.98-0.47,16.4-2.14
			c7.479-2.3,11.93-6.63,8.7-14.75c-1.82-4.57-4.711-8.15-7.86-11.77c-4.19-4.8-8.78-9.14-13.521-13.37
			c-10.739-9.58-22.069-18.39-33.34-27.3c-5.039-3.99-10.069-7.98-15.01-12.09c-3.279-2.74-6.56-5.46-9.56-8.54
			c-0.75-0.77-1.5-1.5-2.03-2.46c-0.22-0.4-0.53-0.88,0.1-1.03c0.891-0.21,1.521,0.21,2.25,0.49c1.5,0.56,2.92,1.28,4.341,2.02
			c4.919,2.57,9.62,5.49,14.29,8.48c6.71,4.3,13.27,8.82,19.76,13.46c13.89,9.92,27.359,20.33,40.5,31.23
			c4.57,3.79,9.08,7.67,13.57,11.56c1.189,1.03,2.369,2.06,3.589,3.05c0.181,0.14,1.04,1.14,1.391,0.91
			c0.25-0.17-0.601-1.17-0.681-1.3c-0.789-1.16-1.609-2.3-2.409-3.44c-2.96-4.19-5.83-8.42-8.591-12.74
			c-8.369-13.13-15.579-26.61-21.21-41.18c-4.81-12.47-9.609-28.36-8.55-42.28c0.5-6.52,2.681-15.48,10.51-17.56
			c4-1.06,7.221-0.18,10.811,1.35c5.01,2.14,9.061,5.26,12.99,8.9c18.72,17.32,34.51,51.23,36,76.61
			c0.27,4.6,0.279,19.72-7.18,19.89c-3.16,0.08-5.75-2.66-7.391-4.77c-3.279-4.22-5.14-8.85-6.77-13.82
			c-8.421-25.79-7.021-60.91,6.39-85.25c4.33-7.86,11.021-16.18,20.55-18.69c9.18-2.41,17.48,1.6,23.551,8.04
			c8.379,8.87,13.5,22.49,15.869,33.95c2.44,11.8,3.67,30.19,0.97,42.25"/>
	</g>
</g>
<g id="Base">
	<path d="M406.752,253.437c4.36-1.14,8.59-2.569,12.46-4.659c2.96-1.601,5.73-3.49,8.36-5.771c-0.011,0.01-0.021,0.021-0.021,0.021
		c3.28-2.9,6.101-6.311,7.5-10.23c0.36-0.99,0.62-1.99,0.83-3.061c0.1-0.509,0.15-1.029,0.19-1.569c0.02-0.28,0.03-0.561,0.04-0.85
		c0-0.021-0.01,0.05,0,0.08c-0.021-0.771-0.051-1.5-0.131-2.23c-0.119-1.17-0.42-2.33-0.829-3.36
		c-0.841-2.109-2.021-4.039-3.64-5.75c-0.761-0.8-1.561-1.539-2.391-2.2c-0.42-0.339-0.859-0.659-1.3-0.97
		c-0.16-0.1-0.32-0.21-0.48-0.319c-0.05-0.03-0.11-0.07-0.17-0.11c-0.01-0.01-0.02-0.021-0.03-0.021c-0.05-0.029-0.01-0.01,0.011,0
		c-0.841-0.5-1.66-0.989-2.521-1.409c-2.35-1.16-4.83-1.98-7.479-2.55c-2.39-0.511-5.09-0.69-7.681-0.44
		c-1.17,0.11-2.27,0.39-3.35,0.69c-0.34,0.1-0.71-0.091-0.81-0.44c-0.11-0.34,0.09-0.71,0.43-0.81c0.91-0.291,1.84-0.551,2.82-0.7
		c1.819-0.26,3.79-0.36,5.72-0.24c2.6,0.149,5.02,0.67,7.38,1.29c1.33,0.35,2.64,0.82,3.88,1.35c2.02,0.86,3.92,1.88,5.71,3.21
		c0.681,0.5,1.34,1.04,1.979,1.62c3.261,2.96,5.421,6.58,6.181,10.83c0.14,0.79,0.26,1.641,0.26,2.49c0,1.22-0.03,2.42-0.21,3.56
		c-0.52,3.24-1.75,6.091-3.44,8.73c-2.04,3.21-4.96,6.09-7.979,8.48c-3.68,2.909-7.76,5.089-12.07,6.739
		c-2.649,1.02-5.42,1.79-8.229,2.48c-1.07,0.27-2.16-0.37-2.43-1.44C405.042,254.807,405.683,253.717,406.752,253.437z"/>
	<path d="M407.712,257.328c-2.649,0.65-5.37,1.2-8.19,1.55c-4.479,0.55-9.449,0.67-14.05,0.229c-3.039-0.3-5.99-0.819-8.81-1.56
		c-4.95-1.3-9.521-3.27-13.641-6.26c-0.81-0.601-1.6-1.26-2.369-1.96c-1.09-0.99-2.08-2.091-2.95-3.2
		c-1.8-2.279-3.12-4.83-3.83-7.66c-0.53-2.06-0.7-4.51-0.41-6.77c0.471-3.511,1.75-6.54,3.49-9.4c1.87-3.061,4.5-5.89,7.34-8.319
		c1.57-1.341,3.229-2.521,4.93-3.63c1.2-0.771,2.42-1.491,3.66-2.181c3.32-1.85,6.84-3.37,10.45-4.64
		c6.7-2.37,13.75-3.94,21.181-4.891c0.359-0.039,0.689,0.211,0.739,0.561c0.04,0.359-0.21,0.689-0.569,0.739
		c-2.15,0.331-4.291,0.62-6.381,1.05c-7.34,1.521-14.289,3.73-20.71,7.081c-3.09,1.619-6.079,3.47-8.87,5.689
		c-0.34,0.28-0.689,0.55-1.029,0.841c-0.11,0.089-0.221,0.189-0.34,0.289c-0.09,0.08-0.19,0.16-0.29,0.24
		c-0.081,0.08-0.041,0.04-0.021,0.021c0.01-0.011,0.09-0.08-0.04,0.039c-0.03,0.021-0.05,0.05-0.08,0.07
		c-0.06,0.05-0.109,0.1-0.17,0.15c-0.12,0.11-0.25,0.22-0.38,0.34c-1.83,1.66-3.5,3.51-4.891,5.43c-0.539,0.75-1.06,1.51-1.51,2.301
		c-1.68,2.979-2.97,6.1-3.01,9.89c0,0.649,0.04,1.27,0.11,1.869c0.09,0.771,0.229,1.511,0.44,2.221
		c0.489,1.68,1.209,3.26,2.199,4.69c0.26,0.39,0.53,0.76,0.82,1.14c0.16,0.199,0.32,0.399,0.489,0.6
		c0.011,0.021-0.02-0.02-0.04-0.039c2.201,2.609,4.86,4.579,7.681,6.109c3.2,1.74,6.69,2.95,10.359,3.8c-0.02,0-0.029,0-0.04-0.01
		c2.961,0.7,6.061,1.13,9.261,1.33c6.43,0.409,12.82-0.25,18.54-1.641c1.07-0.26,2.15,0.4,2.41,1.471
		C409.453,255.987,408.792,257.068,407.712,257.328z"/>
	<path d="M418.172,314.237c3.65-0.8,7.25-1.75,10.761-2.819c6.779-2.08,13.31-4.64,19.52-7.85c2.4-1.25,4.74-2.581,7.069-3.98
		c1.15-0.7,2.29-1.439,3.421-2.18c0.399-0.271,0.789-0.53,1.189-0.801c0.14-0.1,0.29-0.199,0.44-0.3c0.02-0.01,0.04-0.029,0.06-0.04
		c0.12-0.08,0.051-0.039,0.03-0.03c2.43-1.699,4.81-3.47,7.12-5.419c4.42-3.74,8.65-8.11,11.949-12.7
		c1.301-1.811,2.49-3.66,3.58-5.57c0.541-0.94,1.03-1.899,1.5-2.88c0.17-0.34,0.33-0.681,0.49-1.03c0.061-0.13,0.12-0.26,0.18-0.39
		c0.011-0.011,0.021-0.03,0.031-0.05c0.049-0.11,0-0.03,0,0c0.81-1.9,1.529-3.811,2.149-5.82c1.08-3.521,1.67-7.29,1.7-11.33
		c0.01-1.1-0.021-2.19-0.12-3.24c-0.11-1.32-0.271-2.609-0.5-3.88c-0.521-2.8-1.33-5.47-2.37-7.99c-0.41-1-0.851-1.97-1.351-2.93
		c-0.259-0.49-0.52-0.979-0.79-1.47c-0.09-0.16-0.18-0.32-0.27-0.48c-0.04-0.06-0.07-0.12-0.1-0.18
		c-0.01-0.01-0.01-0.021-0.021-0.029c-0.03-0.051-0.01,0,0,0.009c-0.51-0.84-1-1.689-1.56-2.489c-1.03-1.46-2.07-2.881-3.23-4.28
		c-1.539-1.83-3.28-3.63-5.1-5.23c-3.681-3.259-7.57-6-11.71-8.319c-2.41-1.351-4.89-2.57-7.42-3.67
		c-1.301-0.561-2.61-1.08-3.931-1.58c-0.42-0.15-0.83-0.301-1.239-0.45c-0.15-0.05-0.3-0.101-0.46-0.16
		c-0.021,0-0.04-0.01-0.061-0.02c-0.02-0.01-0.05-0.021-0.07-0.021c-0.02-0.01-0.04-0.02-0.06-0.03c-0.021,0-0.05-0.009-0.069-0.02
		c-0.021-0.01-0.041-0.01-0.061-0.02c-0.141-0.05-0.07-0.021-0.05-0.021c-1.38-0.449-2.75-0.91-4.16-1.319
		c-2.61-0.741-5.271-1.41-7.99-1.95c-4.61-0.9-9.35-1.51-14.27-1.771c-2.21-0.12-4.47-0.189-6.74-0.14
		c-1.26,0.03-2.53,0.069-3.771,0.119c-2.439,0.111-4.829,0.37-7.199,0.611c-0.44,0.05-0.851-0.271-0.9-0.721
		c-0.05-0.44,0.271-0.85,0.71-0.899c3.761-0.46,7.601-0.801,11.561-0.851c10.26-0.149,19.88,0.971,28.939,3.3
		c9.011,2.32,17.41,5.82,25.101,10.801c2.35,1.529,4.609,3.229,6.779,5.1c1.771,1.529,3.551,3.22,5.1,4.99
		c1.301,1.479,2.561,2.97,3.66,4.55c1.25,1.8,2.42,3.61,3.41,5.53c1.061,2.08,1.961,4.18,2.74,6.409
		c0.79,2.261,1.38,4.66,1.729,7.11c0.46,3.28,0.641,6.939,0.29,10.36c-0.859,8.459-3.77,15.92-8.09,22.67
		c-2.229,3.47-4.789,6.789-7.709,9.909c-2.801,2.991-5.83,5.7-8.91,8.211c-1.851,1.52-3.801,2.939-5.75,4.26
		c-2.69,1.82-5.42,3.55-8.23,5.14c-5.65,3.181-11.53,5.851-17.66,8.061c-5.87,2.109-11.949,3.75-18.199,5.09
		c-1.351,0.3-2.69-0.55-2.991-1.9C415.972,315.877,416.823,314.538,418.172,314.237z"/>
	<path d="M419.243,319.127c-5.46,1.221-11.08,2.12-16.84,2.71c-5.57,0.57-11.36,0.83-17.22,0.71c-2.301-0.05-4.561-0.149-6.801-0.3
		c-9.63-0.66-18.75-2.37-27.36-5.05c-4.29-1.341-8.47-2.95-12.479-4.86c-5.55-2.64-10.8-5.75-15.72-9.67
		c-2.38-1.88-4.72-4.02-6.841-6.319c-5.219-5.65-9.06-11.9-11.319-19.041c-1.05-3.32-1.72-6.88-1.89-10.62
		c-0.25-5.539,0.55-10.729,2.041-15.47c1.45-4.63,3.529-8.95,6.12-13.03c1.06-1.659,2.199-3.33,3.43-4.899
		c1.42-1.79,2.869-3.57,4.45-5.28c1.819-1.97,3.79-3.87,5.77-5.67c2.13-1.93,4.351-3.7,6.62-5.38c4.47-3.31,9.15-6.18,13.99-8.771
		c7.22-3.859,14.84-7,22.71-9.569c7.22-2.36,14.66-4.261,22.369-5.66c0.44-0.09,0.87,0.2,0.95,0.649
		c0.08,0.44-0.209,0.871-0.649,0.95c-2.17,0.44-4.31,0.851-6.44,1.351c-2,0.479-3.99,0.979-5.97,1.5
		c-2.84,0.74-5.641,1.6-8.391,2.52c-5.589,1.88-11.029,4.021-16.29,6.54c-5.819,2.801-11.469,5.98-16.779,9.78
		c-2.689,1.92-5.3,3.97-7.85,6.18c-2.34,2.03-4.61,4.31-6.711,6.61c-1.09,1.199-2.12,2.44-3.12,3.69
		c-0.509,0.64-1.009,1.3-1.489,1.949c-0.09,0.13-0.19,0.26-0.28,0.38c-0.01,0.021-0.021,0.041-0.04,0.061
		c-0.01,0.01-0.02,0.03-0.04,0.05c-0.01,0.02-0.02,0.04-0.04,0.05c-0.01,0.02-0.02,0.04-0.04,0.061
		c-0.07,0.09-0.029,0.05-0.02,0.029c-4.69,6.49-8.22,13.69-9.551,21.86c-0.659,4.061-0.699,8.74,0,12.78
		c0.631,3.67,1.7,7.08,3.221,10.3c2.75,5.82,6.81,11.15,11.92,15.7c0.97,0.87,1.97,1.7,2.97,2.5c1.74,1.39,3.551,2.65,5.4,3.85
		c0.93,0.61,1.9,1.189,2.859,1.75c0.371,0.22,0.75,0.42,1.121,0.63c0.02,0.021,0.039,0.03,0.06,0.04
		c0.02,0.011,0.05,0.03,0.069,0.04c0.021,0.01,0.041,0.021,0.061,0.04c0.029,0.01,0.05,0.021,0.069,0.03
		c0.12,0.07,0.061,0.04,0.03,0.021c6.24,3.439,12.87,6.109,19.851,8.06c6.689,1.88,13.689,3.199,20.979,3.85
		c2.4,0.21,4.82,0.38,7.28,0.479c3.979,0.161,8.101,0.12,12.04-0.069c7.88-0.38,15.46-1.37,22.74-2.931
		c1.35-0.289,2.68,0.57,2.97,1.921C421.453,317.507,420.583,318.837,419.243,319.127z"/>
	
		<path fill-rule="evenodd" clip-rule="evenodd" fill="none" stroke="#000000" stroke-width="1.4" stroke-linecap="round" stroke-linejoin="round" d="
		M390.422,193.757c13.07-2.409,33.65-11.029,31.32-28.37c-1.011-7.52-6.229-13.8-11.55-18.4c-7.18-6.22-15.08-10.32-23.851-13.66"/>
	<path d="M402.482,151.958c-4.5-0.4-8.899-0.95-13.189-1.73c-7.71-1.39-15.15-3.4-22.24-6.03c-3.92-1.45-7.789-3.08-11.359-5.22
		c-1.561-0.93-3.101-1.88-4.51-3.13c-0.44-0.38-0.87-0.83-1.25-1.27c-0.291-0.33-0.541-0.68-0.771-1.04
		c-0.641-0.96-1.11-2.17-0.891-3.47c0.041-0.22,0.12-0.44,0.21-0.63c0.121-0.28,0.271-0.53,0.471-0.77c0.29-0.35,0.65-0.66,1.01-0.9
		c2.84-1.85,6.93-1.72,10.62-1.49c3.431,0.22,6.71,0.8,9.91,1.51c5.56,1.22,10.92,2.94,16.08,4.93c0.34,0.13,0.51,0.5,0.38,0.84
		c-0.12,0.34-0.5,0.51-0.84,0.38c-1.54-0.52-3.08-1.09-4.641-1.6c-3.569-1.17-7.27-2.1-11.069-2.75c-3.66-0.63-7.421-1-11.41-0.96
		c0,0,0.01,0,0.021,0c-0.871,0.04-1.73,0.06-2.58,0.14c-0.83,0.09-1.631,0.23-2.411,0.41c-0.72,0.16-1.35,0.46-2,0.79
		c0.03-0.01,0.051-0.02,0.07-0.03c0.011-0.01-0.09,0.05-0.11,0.07c-0.069,0.03-0.119,0.07-0.18,0.11
		c-0.119,0.09-0.239,0.18-0.34,0.28c-0.06,0.05-0.16,0.15-0.16,0.23c0,0.24,0.19,0.55,0.311,0.76c0.06,0.11-0.01-0.01-0.021-0.04
		c0.54,0.94,1.48,1.75,2.37,2.38c0.98,0.68,2,1.28,3.051,1.83h-0.011c3.79,2.05,7.84,3.62,11.979,5.01c-0.01,0-0.02-0.01-0.029-0.01
		c5.54,1.85,11.22,3.49,17.08,4.72c1.93,0.41,3.87,0.79,5.83,1.14c3.619,0.66,7.3,1.14,11.029,1.56c1.101,0.12,1.9,1.1,1.791,2.2
		C404.573,151.268,403.583,152.067,402.482,151.958z"/>
	<path d="M402.882,147.978c2.811,0.25,5.71,0.43,8.66,0.46c4.92,0.06,9.74-0.14,14.189-1.1c1.23-0.26,2.421-0.59,3.61-0.96
		c-0.02,0.01-0.06,0.02-0.04,0.02c0.101-0.04,0.22-0.08,0.33-0.11c0.21-0.07,0.42-0.15,0.62-0.22c0.42-0.16,0.82-0.33,1.229-0.5
		c1.431-0.62,2.841-1.45,3.961-2.65c1.05-1.13,1.699-2.4,1.939-3.94c0.061-0.44,0.1-0.87,0.1-1.34c0-0.2-0.01-0.39-0.01-0.59
		c-0.01-0.03-0.02-0.26-0.01-0.19c0,0.02,0,0.04,0.01,0.05c-0.08-0.72-0.16-1.45-0.31-2.13c-0.54-2.57-1.601-4.87-2.81-7.1
		c-0.831-1.54-1.791-3.04-2.82-4.49c-0.78-1.11-1.58-2.22-2.44-3.29c-0.32-0.41-0.64-0.83-0.97-1.24
		c-0.109-0.14-0.22-0.27-0.33-0.41c-0.04-0.05-0.08-0.1-0.12-0.14c0-0.01-0.14-0.17-0.12-0.17c-1.59-1.89-3.17-3.81-4.869-5.65
		c-0.881-0.95-1.771-1.91-2.67-2.84c-0.741-0.76-1.5-1.51-2.23-2.28c-0.25-0.25-0.25-0.67,0-0.92c0.26-0.26,0.67-0.26,0.93,0
		c3.7,3.59,7.36,7.3,10.74,11.08c3.93,4.4,7.83,8.89,10.01,14.16c0.37,0.9,0.68,1.8,0.95,2.75c0.22,0.75,0.39,1.56,0.47,2.36
		c0.07,0.71,0.131,1.48,0.09,2.23c-0.16,3.44-1.779,6.24-4.41,8.34c-1.72,1.37-3.68,2.33-5.72,3.06c-3.46,1.23-7.21,1.93-11.13,2.23
		c-5.699,0.44-11.699,0.14-17.21-0.5c-1.1-0.1-1.91-1.08-1.8-2.18C400.802,148.677,401.783,147.877,402.882,147.978z"/>
	<path d="M424.982,100.978c-2.819-1.95-5.629-3.89-8.449-5.81c-1.03-0.7-2.061-1.41-3.09-2.11c-0.33-0.22-0.65-0.44-0.98-0.66
		c-0.05-0.04-0.109-0.08-0.16-0.11c-0.06-0.04-0.109-0.08-0.16-0.11c-0.779-0.53-0.18-0.11-0.149-0.11
		c-3.15-2.1-6.28-4.21-9.44-6.26c-0.699-0.45-1.399-0.9-2.1-1.36c-0.42-0.27-0.85-0.53-1.27-0.8c-0.17-0.11-0.341-0.22-0.511-0.33
		c-0.27-0.17-0.08-0.04-0.069-0.04c-1.91-1.19-3.801-2.43-5.761-3.53c-0.82-0.46-1.63-0.93-2.46-1.36c-0.3-0.15-0.59-0.3-0.88-0.46
		c-0.01,0,0.011,0.01,0.02,0.02c0.021,0,0.03,0.01,0.041,0.01c-0.13-0.03-0.261-0.13-0.391-0.19c-0.51-0.23-1.05-0.5-1.59-0.69
		c-0.18-0.06-0.36-0.13-0.55-0.16h0.01c-0.01,0,0.03,0,0.04,0c0.04-0.01,0.08-0.01,0.11-0.02c0.16-0.05,0.3-0.1,0.439-0.19
		c0.311-0.2,0.57-0.53,0.62-0.89c0.011-0.1,0.05-0.36-0.021-0.43l0,0c0,0.01,0.021,0.06,0.031,0.07c0.06,0.12,0.119,0.24,0.199,0.35
		c0.48,0.72,1.101,1.35,1.65,1.99c2.4,2.79,4.99,5.49,7.659,8.13c2.53,2.51,5.101,4.92,7.65,7.39c4.42,4.28,8.91,8.55,13.28,12.92
		c0.26,0.25,0.26,0.67,0.01,0.93c-0.25,0.25-0.66,0.26-0.92,0.01c-0.87-0.82-1.74-1.67-2.6-2.49c-2.9-2.76-5.88-5.42-8.86-8.03l0,0
		c-3.899-3.36-7.84-6.63-11.71-10.02c-1.391-1.21-2.77-2.46-4.12-3.75c-0.64-0.62-1.29-1.24-1.92-1.88
		c-0.2-0.21-0.399-0.41-0.601-0.61c-0.09-0.1-0.18-0.19-0.27-0.28c-0.02-0.02-0.04-0.04-0.05-0.06c-0.021-0.02-0.04-0.04-0.06-0.06
		c-0.021-0.01-0.04-0.03-0.051-0.05c-0.09-0.09-0.06-0.06-0.05-0.05c0.03,0.03-0.08-0.08-0.1-0.1c-0.11-0.1-0.23-0.22-0.33-0.33
		c-0.22-0.21-0.41-0.41-0.62-0.63c-0.689-0.74-1.35-1.55-1.63-2.49c-0.08-0.25-0.13-0.55-0.12-0.85c0.02-0.3,0.08-0.57,0.18-0.82
		c0.08-0.21,0.19-0.39,0.33-0.56c0.5-0.61,1.19-0.81,1.99-0.81c0.35,0,0.67,0.08,0.99,0.15c1.42,0.31,2.689,0.97,3.96,1.55
		c3.02,1.4,5.939,3.13,8.78,4.87c5.209,3.18,10.33,6.54,15.39,10.04c3.68,2.55,7.319,5.16,10.97,7.79c0.9,0.64,1.11,1.89,0.479,2.79
		C427.132,101.397,425.882,101.607,424.982,100.978z"/>
	<path d="M427.292,97.717c5.6,3.9,11.189,7.87,16.75,11.87l0,0c3.641,2.64,7.29,5.3,11.01,7.77c-0.01,0-0.02,0-0.02-0.01
		c1.12,0.75,2.27,1.51,3.48,2.11c-0.011,0-0.021,0-0.021-0.01c0.51,0.28,0.979,0.57,1.58,0.62c-0.03,0-0.21,0-0.11,0
		c-0.3,0.04-0.56,0.21-0.74,0.46c-0.05,0.07-0.16,0.22-0.14,0.31c0-0.01,0.01-0.08,0.01-0.1c0.011-0.07-0.01-0.15-0.01-0.22
		c-0.03-0.19-0.061-0.37-0.101-0.56c-0.02-0.08-0.039-0.16-0.06-0.24c-0.01-0.03-0.02-0.07-0.03-0.11c0-0.01-0.01-0.05-0.01-0.05
		c0,0.02,0.01,0.03,0.01,0.04c-0.189-0.7-0.39-1.39-0.609-2.08c-0.44-1.32-0.971-2.6-1.5-3.88c-1.13-2.73-2.25-5.4-3.34-8.14
		c-2.32-5.81-4.601-11.59-6.69-17.5c-1.25-3.54-2.5-7.1-3.58-10.72c-0.11-0.35,0.08-0.71,0.431-0.82
		c0.34-0.11,0.709,0.08,0.819,0.42c0.9,2.71,1.82,5.38,2.83,8.03c2.22,5.83,4.79,11.5,7.49,17.07c1.29,2.65,2.55,5.29,3.87,7.93l0,0
		c1.359,2.79,2.779,5.53,3.74,8.51c0.14,0.46,0.26,0.94,0.369,1.43c0.131,0.62,0.15,1.39-0.02,1.99c-0.13,0.43-0.33,0.82-0.641,1.15
		c-0.75,0.82-1.85,1-2.989,0.81c-0.71-0.12-1.341-0.38-1.96-0.68c-0.301-0.14-0.6-0.28-0.891-0.43c-1.149-0.57-2.26-1.25-3.359-1.93
		c-3.85-2.36-7.6-5.05-11.29-7.73l0,0c-5.56-3.99-11.08-8.02-16.601-12.06c-0.899-0.64-1.1-1.89-0.459-2.79
		C425.153,97.277,426.403,97.078,427.292,97.717z"/>
	<path d="M480.812,66.647c-0.689-1.27-1.359-2.54-2.06-3.81c-1.71-3.05-3.569-6.05-5.62-8.92c-1.88-2.64-3.86-5.24-6.09-7.7
		c-1.26-1.38-2.6-2.75-3.98-4.04c-0.649-0.61-1.33-1.19-2.01-1.75c-0.24-0.19-0.47-0.38-0.71-0.57c-0.09-0.07-0.18-0.14-0.26-0.21
		c-0.021-0.01-0.03-0.02-0.04-0.03c-0.08-0.06-0.021-0.01,0,0c-0.49-0.36-0.97-0.73-1.48-1.08c-1.899-1.33-3.899-2.48-6.119-3.16
		c-0.801-0.25-1.641-0.43-2.54-0.48c-1.25-0.06-2.4,0.13-3.41,0.6c-0.351,0.16-0.67,0.35-0.99,0.56c-0.54,0.35-1.06,0.86-1.48,1.36
		c-1.1,1.29-1.81,2.76-2.35,4.32c-1.79,5.15-1.7,11.66-1.069,17.44c0.289,2.73,0.729,5.38,1.289,7.98c0.7,3.33,1.59,6.53,2.53,9.73
		c0.11,0.34-0.09,0.71-0.43,0.81c-0.351,0.11-0.71-0.09-0.82-0.43c-1.239-3.77-2.27-7.64-3.19-11.57
		c-1.09-4.66-1.899-9.48-2.079-14.56c-0.131-3.6,0.119-7.14,0.97-10.3c0.38-1.42,0.93-2.82,1.67-4.06c0.35-0.6,0.721-1.17,1.17-1.72
		c2.17-2.63,5.15-4.01,8.78-3.82c1.89,0.1,3.62,0.57,5.239,1.22c1.65,0.67,3.181,1.51,4.681,2.46c0.71,0.44,1.399,0.91,2.06,1.42
		c1.291,1,2.57,2.02,3.811,3.15c2.55,2.3,4.87,4.87,6.949,7.48c2.99,3.75,5.65,7.72,7.951,11.83c1.109,1.99,2.149,4,3.189,6.03
		c0.5,0.98,0.109,2.19-0.87,2.69C482.513,68.018,481.312,67.627,480.812,66.647z"/>
	<path d="M484.382,64.848c2.39,4.79,4.61,9.64,6.32,14.76c2.01,6.02,3.65,12.18,3.85,19.08c0.07,2.57-0.039,5.18-1.119,7.19
		c-0.33,0.62-0.82,1.19-1.411,1.59c-0.369,0.25-0.79,0.43-1.239,0.52c-2.34,0.47-4.07-1.28-5.16-3.05c-0.37-0.6-0.68-1.21-0.99-1.84
		c-0.47-0.96-0.84-1.98-1.21-2.99c-0.409-1.13-0.75-2.3-1.069-3.47c-0.141-0.54-0.311-1.1-0.42-1.65
		c-0.041-0.23-0.11-0.46-0.161-0.69c-0.02-0.09-0.04-0.18-0.06-0.27c0-0.02-0.029-0.12-0.02-0.11c-0.33-1.53-0.58-3.07-0.811-4.65
		c-1.18-7.93-1.08-16.94-0.24-25.05c0.2-2.02,0.461-4.04,0.801-6.01c0.05-0.36,0.38-0.6,0.74-0.55c0.35,0.05,0.6,0.39,0.549,0.74
		c-0.319,2.32-0.6,4.64-0.76,7.04c-0.31,4.41-0.279,9.11,0.101,13.46c0.28,3.28,0.739,6.46,1.37,9.56
		c0.199,1.01,0.43,2.01,0.68,3.01c0.18,0.71,0.41,1.42,0.57,2.1c0.05,0.25,0.14,0.5,0.22,0.74c0.21,0.62,0.39,1.23,0.609,1.85
		c0.551,1.59,1.15,3.16,1.9,4.67c0.44,0.89,0.92,1.74,1.53,2.54c0.23,0.31,0.48,0.55,0.77,0.79c0.07,0.06,0.2,0.13,0.28,0.13
		c-0.12,0,0,0.01-0.12,0.01c0,0,0.03-0.04,0.03-0.05c0.021-0.03,0.04-0.06,0.06-0.09c0.07-0.13,0.12-0.26,0.17-0.4
		c0.2-0.56,0.28-1.2,0.33-1.83c0.2-2.3-0.08-4.62-0.34-6.8c-0.13-1.03-0.3-2.06-0.47-3.07c-0.07-0.36-0.141-0.72-0.2-1.07
		c-0.029-0.14-0.06-0.27-0.09-0.4c0-0.03-0.05-0.21-0.02-0.13c-0.831-3.52-1.761-6.97-2.94-10.31c-0.82-2.36-1.7-4.66-2.641-6.95
		c-0.919-2.22-1.949-4.41-2.979-6.58c-0.48-0.99-0.08-2.19,0.91-2.68C482.693,63.458,483.892,63.857,484.382,64.848z"/>
	<path d="M538.033,77.388c0.08-1.62,0.18-3.27,0.189-4.94c0.03-4.52-0.279-8.85-0.819-13.09c-0.271-2.15-0.64-4.27-1.07-6.35
		c-1.101-5.34-2.649-10.4-4.811-15.21c-1.009-2.24-2.169-4.46-3.56-6.51c-0.609-0.91-1.23-1.84-1.93-2.71
		c-0.511-0.64-1.03-1.29-1.59-1.91c-0.2-0.21-0.381-0.42-0.58-0.63c-0.091-0.08-0.17-0.17-0.26-0.26
		c-0.041-0.04-0.07-0.08-0.11-0.12c-0.04-0.04-0.11-0.12-0.08-0.08c0.01,0,0.01,0.01,0.021,0.02c-0.86-0.84-1.721-1.65-2.641-2.37
		c-1.55-1.23-3.24-2.24-5.061-2.92c-0.81-0.3-1.64-0.55-2.52-0.72c-0.67-0.13-1.37-0.22-2.09-0.25
		c-1.851-0.09-3.561,0.21-5.141,0.67c-1.71,0.5-3.319,1.31-4.799,2.28c-2.411,1.58-4.681,3.71-6.57,6.01
		c-0.67,0.81-1.301,1.66-1.891,2.51c-0.17,0.24-0.33,0.48-0.49,0.72c-0.029,0.05-0.06,0.1-0.09,0.15c-0.01,0.01-0.02,0.02-0.02,0.02
		c-0.01,0.01-0.02,0.02-0.02,0.03c-0.041,0.06-0.021,0.03-0.021,0.02c-0.62,0.99-1.22,1.96-1.78,2.97
		c-2.859,5.17-4.93,10.77-6.33,16.65c-0.55,2.29-1,4.64-1.399,7.01c-0.051,0.27-0.301,0.45-0.57,0.41
		c-0.26-0.04-0.45-0.3-0.399-0.56c1.359-8.7,3.64-16.87,7.479-24.31c0.63-1.22,1.32-2.41,2.04-3.57
		c3.04-4.88,7.51-9.71,12.811-11.96c2.439-1.03,5.069-1.62,8.049-1.47c0.471,0.02,0.961,0.07,1.421,0.15
		c2.119,0.34,4,0.99,5.819,1.91c2.24,1.14,4.381,2.73,6.23,4.58c2.99,2.99,5.311,6.23,7.27,9.74c2.09,3.76,3.711,7.82,4.95,12.01
		c2.38,8.02,3.681,16.67,3.63,25.92c-0.01,0.98-0.03,1.95-0.07,2.92c-0.039,1.17-0.14,2.32-0.21,3.46
		c-0.06,0.82-0.779,1.45-1.6,1.39C538.592,78.938,537.972,78.217,538.033,77.388z"/>
	
		<path fill-rule="evenodd" clip-rule="evenodd" fill="none" stroke="#000000" stroke-width="3" stroke-linecap="round" stroke-linejoin="round" d="
		M539.522,77.498c-0.489,11.26-0.979,22.51-1.479,33.77"/>
	
		<path fill-rule="evenodd" clip-rule="evenodd" fill="none" stroke="#000000" stroke-width="3" stroke-linecap="round" stroke-linejoin="round" d="
		M538.042,111.268c-0.6,13.7,11.891,19.85,24.07,16.83c10.74-2.67,21.05-12.34,22.029-23.97"/>
	
		<path fill-rule="evenodd" clip-rule="evenodd" fill="none" stroke="#000000" stroke-width="3" stroke-linecap="round" stroke-linejoin="round" d="
		M584.142,104.127c0.931-11.09,1.86-22.18,2.791-33.26"/>
	
		<path fill-rule="evenodd" clip-rule="evenodd" fill="none" stroke="#000000" stroke-width="3" stroke-linecap="round" stroke-linejoin="round" d="
		M586.933,70.868c1.029-12.29,11.6-23.17,23.149-26.14c13.649-3.51,25.75,4.71,23.939,19.35"/>
	
		<path fill-rule="evenodd" clip-rule="evenodd" fill="none" stroke="#000000" stroke-width="3" stroke-linecap="round" stroke-linejoin="round" d="
		M634.022,64.078c-1.64,13.31-3.29,26.63-4.93,39.95"/>
</g>
<g id="Decorations">
	<text transform="matrix(1 0 0 1 634.0327 88.2275)" font-family="'Arial-BoldMT'" font-size="15">A</text>
	<text transform="matrix(1 0 0 1 609.7319 60.7148)" font-family="'Arial-BoldMT'" font-size="15">B</text>
	<text transform="matrix(1 0 0 1 588.1323 90.9272)" font-family="'Arial-BoldMT'" font-size="15">C</text>
	<text transform="matrix(1 0 0 1 554.77 123.2397)" font-family="'Arial-BoldMT'" font-size="15">D</text>
	<text transform="matrix(1 0 0 1 441.3628 58.8975)" font-family="'Arial-BoldMT'" font-size="15">F</text>
	<text transform="matrix(1 0 0 1 309.8755 268.8979)" font-family="'Arial-BoldMT'" font-size="15">G</text>
	<text transform="matrix(1 0 0 1 540.9624 101.4272)" font-family="'Arial-BoldMT'" font-size="15">E</text>
	<path fill-rule="evenodd" clip-rule="evenodd" fill="#FFFFFF" stroke="#000000" d="M631.953,63.938c0-1.11,0.91-2.02,2.029-2.02
		c1.11,0,2.021,0.91,2.021,2.02c0,1.12-0.91,2.03-2.021,2.03C632.863,65.967,631.953,65.058,631.953,63.938z"/>
	<circle fill-rule="evenodd" clip-rule="evenodd" fill="#FFFFFF" stroke="#000000" cx="586.953" cy="70.917" r="2.23"/>
	<path fill-rule="evenodd" clip-rule="evenodd" fill="#FFFFFF" stroke="#000000" d="M581.802,103.987c0-1.22,1-2.22,2.23-2.22
		c1.22,0,2.22,1,2.22,2.22c0,1.23-1,2.23-2.22,2.23C582.802,106.217,581.802,105.217,581.802,103.987z"/>
	<circle fill-rule="evenodd" clip-rule="evenodd" fill="#FFFFFF" stroke="#000000" cx="537.982" cy="112.167" r="2.43"/>
	<circle fill-rule="evenodd" clip-rule="evenodd" fill="#FFFFFF" stroke="#000000" cx="539.402" cy="77.627" r="2.43"/>
	<path fill-rule="evenodd" clip-rule="evenodd" fill="#FFFFFF" stroke="#000000" d="M388.002,193.618c0-1.23,1-2.23,2.229-2.23
		c1.221,0,2.221,1,2.221,2.23s-1,2.23-2.221,2.23C389.002,195.848,388.002,194.848,388.002,193.618z"/>
	<path fill-rule="evenodd" clip-rule="evenodd" fill="#FFFFFF" stroke="#000000" d="M403.172,208.087c0-1.34,1.091-2.42,2.431-2.42
		s2.43,1.08,2.43,2.42c0,1.35-1.09,2.431-2.43,2.431S403.172,209.437,403.172,208.087z"/>
	<path fill-rule="evenodd" clip-rule="evenodd" fill="#FFFFFF" stroke="#000000" d="M627.083,104.518c0-1.12,0.899-2.03,2.021-2.03
		c1.119,0,2.029,0.91,2.029,2.03s-0.91,2.02-2.029,2.02C627.982,106.538,627.083,105.638,627.083,104.518z"/>
	<path fill-rule="evenodd" clip-rule="evenodd" fill="#FFFFFF" stroke="#000000" d="M613.418,43.825c0-1.11,0.91-2.02,2.029-2.02
		c1.11,0,2.021,0.91,2.021,2.02c0,1.12-0.91,2.03-2.021,2.03C614.329,45.854,613.418,44.945,613.418,43.825z"/>
	<path fill-rule="evenodd" clip-rule="evenodd" fill="#FFFFFF" stroke="#000000" d="M556.866,128.785c0-1.11,0.91-2.02,2.029-2.02
		c1.11,0,2.021,0.91,2.021,2.02c0,1.12-0.91,2.03-2.021,2.03C557.776,130.814,556.866,129.905,556.866,128.785z"/>
</g>
<g id="Spans">
	<g>
		
			<path fill-rule="evenodd" clip-rule="evenodd" fill="none" stroke="#00CC1F" stroke-width="5" stroke-linecap="round" stroke-linejoin="round" d="
			M50.857,204.882c11.99-5.601,24.25-9.31,37.23-11.7"/>
		
			<path fill-rule="evenodd" clip-rule="evenodd" fill="none" stroke="#00CC1F" stroke-width="5" stroke-linecap="round" stroke-linejoin="round" d="
			M4.118,274.962c-5.66-19.681,4.32-37.99,17.73-50.78"/>
		
			<path fill-rule="evenodd" clip-rule="evenodd" fill="none" stroke="#00CC1F" stroke-width="5" stroke-linecap="round" stroke-linejoin="round" d="
			M129.348,312.703c-24.78,8-53.88,9.289-79.12,1.67"/>
		
			<path fill-rule="evenodd" clip-rule="evenodd" fill="none" stroke="#00CC1F" stroke-width="5" stroke-linecap="round" stroke-linejoin="round" d="
			M183.357,229.382c8.72,14.479,7.61,30.59-0.61,44.771"/>
		
			<path fill-rule="evenodd" clip-rule="evenodd" fill="none" stroke="#00CC1F" stroke-width="5" stroke-linecap="round" stroke-linejoin="round" d="
			M95.288,199.842c16.19-3.21,33.94-2.431,49.76,2.39"/>
		
			<path fill-rule="evenodd" clip-rule="evenodd" fill="none" stroke="#00CC1F" stroke-width="5" stroke-linecap="round" stroke-linejoin="round" d="
			M55.257,241.932c-5.04-8.67-1.65-17.729,4.43-24.42"/>
		
			<path fill-rule="evenodd" clip-rule="evenodd" fill="none" stroke="#00CC1F" stroke-width="5" stroke-linecap="round" stroke-linejoin="round" d="
			M115.248,251.282c-10.44,4.741-22.96,6.491-34.3,4.891"/>
		
			<path fill-rule="evenodd" clip-rule="evenodd" fill="none" stroke="#00CC1F" stroke-width="5" stroke-linecap="round" stroke-linejoin="round" d="
			M131.538,216.062c4.18,5.08,5.15,11.311,2.8,17.44"/>
		
			<path fill-rule="evenodd" clip-rule="evenodd" fill="none" stroke="#00CC1F" stroke-width="5" stroke-linecap="round" stroke-linejoin="round" d="
			M103.607,207.532c4.47-1.47,8.5-1.1,12.92-0.109"/>
		
			<path fill-rule="evenodd" clip-rule="evenodd" fill="none" stroke="#00CC1F" stroke-width="5" stroke-linecap="round" stroke-linejoin="round" d="
			M237.018,60.592c0.59,5.43,0.71,10.8,0.28,16.25"/>
		
			<path fill-rule="evenodd" clip-rule="evenodd" fill="none" stroke="#00CC1F" stroke-width="5" stroke-linecap="round" stroke-linejoin="round" d="
			M226.917,29.732c2.94,4.45,4.99,9.16,6.61,14.21"/>
		
			<path fill-rule="evenodd" clip-rule="evenodd" fill="none" stroke="#00CC1F" stroke-width="5" stroke-linecap="round" stroke-linejoin="round" d="
			M197.848,21.042c6.38-4.53,13.53-4.86,20.16-0.58"/>
		
			<path fill-rule="evenodd" clip-rule="evenodd" fill="none" stroke="#00CC1F" stroke-width="5" stroke-linecap="round" stroke-linejoin="round" d="
			M178.678,75.002c-0.24-10.84,1.04-21.03,4.5-31.37"/>
		
			<path fill-rule="evenodd" clip-rule="evenodd" fill="none" stroke="#00CC1F" stroke-width="5" stroke-linecap="round" stroke-linejoin="round" d="
			M189.438,104.262c-1.05,2.08-2.56,1.38-3.85-0.12c-1.09-1.27-1.79-2.69-2.44-4.19"/>
		
			<path fill-rule="evenodd" clip-rule="evenodd" fill="none" stroke="#00CC1F" stroke-width="5" stroke-linecap="round" stroke-linejoin="round" d="
			M174.408,54.772c6.24,9.58,10.8,19.48,13.77,30.56"/>
		
			<path fill-rule="evenodd" clip-rule="evenodd" fill="none" stroke="#00CC1F" stroke-width="5" stroke-linecap="round" stroke-linejoin="round" d="
			M139.627,36.802c3.61-5.76,9.57-5.11,14.8-2.41"/>
		
			<path fill-rule="evenodd" clip-rule="evenodd" fill="none" stroke="#00CC1F" stroke-width="5" stroke-linecap="round" stroke-linejoin="round" d="
			M145.978,89.172c-3.76-9.71-6.91-19.4-8.45-29.78"/>
		
			<path fill-rule="evenodd" clip-rule="evenodd" fill="none" stroke="#00CC1F" stroke-width="5" stroke-linecap="round" stroke-linejoin="round" d="
			M157.178,121.282c2.39,0.51,1.46-2.04,0.96-3.56s-1.12-2.99-1.75-4.45"/>
		
			<path fill-rule="evenodd" clip-rule="evenodd" fill="none" stroke="#00CC1F" stroke-width="5" stroke-linecap="round" stroke-linejoin="round" d="
			M113.277,91.322c9.47,6.49,18.73,13.25,28.05,19.93"/>
		
			<path fill-rule="evenodd" clip-rule="evenodd" fill="none" stroke="#00CC1F" stroke-width="5" stroke-linecap="round" stroke-linejoin="round" d="
			M84.887,76.272c-0.2-0.27-0.39-0.54-0.54-0.85c-0.16-0.32-0.47-0.65,0.01-0.9c0.43-0.24,1.59,0.19,1.94,0.33
			c1.26,0.47,2.45,1.08,3.64,1.71"/>
		
			<path fill-rule="evenodd" clip-rule="evenodd" fill="none" stroke="#00CC1F" stroke-width="5" stroke-linecap="round" stroke-linejoin="round" d="
			M120.647,110.892c-6.97-7.3-14.43-14.06-21.85-20.88"/>
		
			<path fill-rule="evenodd" clip-rule="evenodd" fill="none" stroke="#00CC1F" stroke-width="5" stroke-linecap="round" stroke-linejoin="round" d="
			M136.587,139.962c0.85-3.05,0.22-5.55-0.84-8.34"/>
		
			<path fill-rule="evenodd" clip-rule="evenodd" fill="none" stroke="#00CC1F" stroke-width="5" stroke-linecap="round" stroke-linejoin="round" d="
			M120.978,149.272c3.79-0.55,7.32-1.32,10.7-3.35"/>
		
			<path fill-rule="evenodd" clip-rule="evenodd" fill="none" stroke="#00CC1F" stroke-width="5" stroke-linecap="round" stroke-linejoin="round" d="
			M71.607,143.702c11.26,3.37,22.51,5.47,34.27,6.07"/>
		
			<path fill-rule="evenodd" clip-rule="evenodd" fill="none" stroke="#00CC1F" stroke-width="5" stroke-linecap="round" stroke-linejoin="round" d="
			M51.868,127.123c-4.47,0.8-6,3.04-2.42,6.35"/>
		
			<path fill-rule="evenodd" clip-rule="evenodd" fill="none" stroke="#00CC1F" stroke-width="5" stroke-linecap="round" stroke-linejoin="round" d="
			M101.718,141.702c-8.59-5.74-17.61-9.51-27.52-12.17"/>
		
			<path fill-rule="evenodd" clip-rule="evenodd" fill="none" stroke="#00CC1F" stroke-width="5" stroke-linecap="round" stroke-linejoin="round" d="
			M119.147,171.273c0.84-3.67,0.55-6.92-0.67-10.451"/>
		
			<path fill-rule="evenodd" clip-rule="evenodd" fill="none" stroke="#00CC1F" stroke-width="5" stroke-linecap="round" stroke-linejoin="round" d="
			M103.018,188.472c4.09-1.949,7.68-4.27,10.82-7.619"/>
		
			<path fill-rule="evenodd" clip-rule="evenodd" fill="none" stroke="#00CC1F" stroke-width="5" stroke-linecap="round" stroke-linejoin="round" d="
			M235.808,110.632c-0.55,12.61,10.3,19.16,21.9,17.29"/>
		
			<path fill-rule="evenodd" clip-rule="evenodd" fill="none" stroke="#00CC1F" stroke-width="5" stroke-linecap="round" stroke-linejoin="round" d="
			M310.897,43.452c12.791-1.74,22.57,6.87,20.96,19.95"/>
		
			<line fill-rule="evenodd" clip-rule="evenodd" fill="none" stroke="#00CC1F" stroke-width="5" stroke-linecap="round" stroke-linejoin="round" x1="281.938" y1="103.492" x2="284.737" y2="70.202"/>
		
			<path fill-rule="evenodd" clip-rule="evenodd" fill="none" stroke="#FF4200" stroke-width="5" stroke-linecap="round" stroke-linejoin="round" d="
			M21.848,224.182c8.66-8.26,18.26-14.271,29.01-19.3"/>
		
			<path fill-rule="evenodd" clip-rule="evenodd" fill="none" stroke="#FF4200" stroke-width="5" stroke-linecap="round" stroke-linejoin="round" d="
			M50.228,314.373c-18.85-5.69-40.01-18.18-46.11-39.41"/>
		
			<path fill-rule="evenodd" clip-rule="evenodd" fill="none" stroke="#FF4200" stroke-width="5" stroke-linecap="round" stroke-linejoin="round" d="
			M182.748,274.153c-11.26,19.439-33.33,32.069-53.4,38.55"/>
		
			<path fill-rule="evenodd" clip-rule="evenodd" fill="none" stroke="#FF4200" stroke-width="5" stroke-linecap="round" stroke-linejoin="round" d="
			M145.047,202.232c14.75,4.48,29.92,13.221,38.31,27.15"/>
		
			<path fill-rule="evenodd" clip-rule="evenodd" fill="none" stroke="#FF4200" stroke-width="5" stroke-linecap="round" stroke-linejoin="round" d="
			M59.688,217.512c8.89-9.78,23.37-15.25,35.6-17.67"/>
		
			<path fill-rule="evenodd" clip-rule="evenodd" fill="none" stroke="#FF4200" stroke-width="5" stroke-linecap="round" stroke-linejoin="round" d="
			M80.948,256.172c-9.12-1.28-20.51-5.33-25.69-14.24"/>
		
			<path fill-rule="evenodd" clip-rule="evenodd" fill="none" stroke="#FF4200" stroke-width="5" stroke-linecap="round" stroke-linejoin="round" d="
			M134.337,233.502c-3.21,8.39-11.54,14.351-19.09,17.779"/>
		
			<path fill-rule="evenodd" clip-rule="evenodd" fill="none" stroke="#FF4200" stroke-width="5" stroke-linecap="round" stroke-linejoin="round" d="
			M116.527,207.422c5.58,1.25,11.25,4.08,15.01,8.64"/>
		
			<path fill-rule="evenodd" clip-rule="evenodd" fill="none" stroke="#FF4200" stroke-width="5" stroke-linecap="round" stroke-linejoin="round" d="
			M233.527,43.942c1.76,5.46,2.87,10.96,3.49,16.65"/>
		
			<path fill-rule="evenodd" clip-rule="evenodd" fill="none" stroke="#FF4200" stroke-width="5" stroke-linecap="round" stroke-linejoin="round" d="
			M218.007,20.462c3.79,2.45,6.48,5.57,8.91,9.27"/>
		
			<path fill-rule="evenodd" clip-rule="evenodd" fill="none" stroke="#FF4200" stroke-width="5" stroke-linecap="round" stroke-linejoin="round" d="
			M183.178,43.632c2.66-7.97,7.35-17.4,14.67-22.59"/>
		
			<path fill-rule="evenodd" clip-rule="evenodd" fill="none" stroke="#FF4200" stroke-width="5" stroke-linecap="round" stroke-linejoin="round" d="
			M183.147,99.952c-3.12-7.22-4.31-17.3-4.47-24.95"/>
		
			<path fill-rule="evenodd" clip-rule="evenodd" fill="none" stroke="#FF4200" stroke-width="5" stroke-linecap="round" stroke-linejoin="round" d="
			M188.178,85.333c1.05,3.9,3.47,14.55,1.26,18.93"/>
		
			<path fill-rule="evenodd" clip-rule="evenodd" fill="none" stroke="#FF4200" stroke-width="5" stroke-linecap="round" stroke-linejoin="round" d="
			M154.428,34.392c8.03,4.13,15.32,13.22,19.98,20.38"/>
		
			<path fill-rule="evenodd" clip-rule="evenodd" fill="none" stroke="#FF4200" stroke-width="5" stroke-linecap="round" stroke-linejoin="round" d="
			M137.527,59.392c-0.94-6.25-1.72-16.5,2.1-22.59"/>
		
			<path fill-rule="evenodd" clip-rule="evenodd" fill="none" stroke="#FF4200" stroke-width="5" stroke-linecap="round" stroke-linejoin="round" d="
			M156.388,113.272c-3.47-8.04-7.24-15.93-10.41-24.1"/>
		
			<path fill-rule="evenodd" clip-rule="evenodd" fill="none" stroke="#FF4200" stroke-width="5" stroke-linecap="round" stroke-linejoin="round" d="
			M141.328,111.252c2.29,1.65,12.76,9.36,15.85,10.03"/>
		
			<path fill-rule="evenodd" clip-rule="evenodd" fill="none" stroke="#FF4200" stroke-width="5" stroke-linecap="round" stroke-linejoin="round" d="
			M89.938,76.563c8.19,4.33,15.74,9.55,23.34,14.76"/>
		
			<path fill-rule="evenodd" clip-rule="evenodd" fill="none" stroke="#FF4200" stroke-width="5" stroke-linecap="round" stroke-linejoin="round" d="
			M98.798,90.012c-2.84-2.6-11.6-10.54-13.911-13.74"/>
		
			<path fill-rule="evenodd" clip-rule="evenodd" fill="none" stroke="#FF4200" stroke-width="5" stroke-linecap="round" stroke-linejoin="round" d="
			M135.748,131.623c-2.78-7.24-10.01-15.38-15.1-20.73"/>
		
			<path fill-rule="evenodd" clip-rule="evenodd" fill="none" stroke="#FF4200" stroke-width="5" stroke-linecap="round" stroke-linejoin="round" d="
			M131.678,145.922c2.45-1.47,4.11-3.07,4.91-5.96"/>
		
			<path fill-rule="evenodd" clip-rule="evenodd" fill="none" stroke="#FF4200" stroke-width="5" stroke-linecap="round" stroke-linejoin="round" d="
			M105.877,149.772c5.07,0.26,10.06,0.23,15.1-0.5"/>
		
			<path fill-rule="evenodd" clip-rule="evenodd" fill="none" stroke="#FF4200" stroke-width="5" stroke-linecap="round" stroke-linejoin="round" d="
			M49.448,133.472c4.939,4.57,16.149,8.44,22.16,10.23"/>
		
			<path fill-rule="evenodd" clip-rule="evenodd" fill="none" stroke="#FF4200" stroke-width="5" stroke-linecap="round" stroke-linejoin="round" d="
			M74.198,129.532c-6.04-1.63-15.85-3.56-22.33-2.41"/>
		
			<path fill-rule="evenodd" clip-rule="evenodd" fill="none" stroke="#FF4200" stroke-width="5" stroke-linecap="round" stroke-linejoin="round" d="
			M118.478,160.822c-2.78-8.11-10.12-14.67-16.76-19.12"/>
		
			<path fill-rule="evenodd" clip-rule="evenodd" fill="none" stroke="#FF4200" stroke-width="5" stroke-linecap="round" stroke-linejoin="round" d="
			M113.837,180.853c2.64-2.821,4.43-5.75,5.31-9.58"/>
		
			<path fill-rule="evenodd" clip-rule="evenodd" fill="none" stroke="#FF4200" stroke-width="5" stroke-linecap="round" stroke-linejoin="round" d="
			M88.087,193.182c5.21-0.96,10.13-2.409,14.93-4.71"/>
		
			<path fill-rule="evenodd" clip-rule="evenodd" fill="none" stroke="#FF4200" stroke-width="5" stroke-linecap="round" stroke-linejoin="round" d="
			M257.708,127.922c11.66-1.88,23.19-12.08,24.23-24.43"/>
		
			<path fill-rule="evenodd" clip-rule="evenodd" fill="none" stroke="#FF4200" stroke-width="5" stroke-linecap="round" stroke-linejoin="round" d="
			M284.737,70.202c1.11-13.22,13.3-24.99,26.16-26.75"/>
		
			<line fill-rule="evenodd" clip-rule="evenodd" fill="none" stroke="#FF4200" stroke-width="5" stroke-linecap="round" stroke-linejoin="round" x1="237.297" y1="76.842" x2="235.808" y2="110.632"/>
		
			<line fill-rule="evenodd" clip-rule="evenodd" fill="none" stroke="#FF4200" stroke-width="5" stroke-linecap="round" stroke-linejoin="round" x1="331.857" y1="63.402" x2="326.927" y2="103.392"/>
	</g>
</g>
</svg>
