<?xml version="1.0" encoding="utf-8"?>
<!-- Generator: Adobe Illustrator 14.0.0, SVG Export Plug-In . SVG Version: 6.00 Build 43363)  -->
<!DOCTYPE svg PUBLIC "-//W3C//DTD SVG 1.0//EN" "http://www.w3.org/TR/2001/REC-SVG-20010904/DTD/svg10.dtd">
<svg version="1.0" xmlns="http://www.w3.org/2000/svg" xmlns:xlink="http://www.w3.org/1999/xlink" x="0px" y="0px"
	 width="521.28px" height="333.341px" viewBox="0 0 521.28 333.341" enable-background="new 0 0 521.28 333.341"
	 xml:space="preserve">
<g id="Viewport_x5F_BG">
	<g>
		
			<line fill-rule="evenodd" clip-rule="evenodd" fill="none" stroke="#D4D4D4" stroke-linecap="round" stroke-linejoin="round" x1="520.28" y1="241.78" x2="65.88" y2="122.02"/>
		
			<line fill-rule="evenodd" clip-rule="evenodd" fill="none" stroke="#D4D4D4" stroke-linecap="round" stroke-linejoin="round" x1="420.129" y1="332.341" x2="520.28" y2="145.68"/>
		
			<line fill-rule="evenodd" clip-rule="evenodd" fill="none" stroke="#D4D4D4" stroke-linecap="round" stroke-linejoin="round" x1="520.28" y1="131.11" x2="163.75" y2="53.22"/>
		
			<line fill-rule="evenodd" clip-rule="evenodd" fill="none" stroke="#D4D4D4" stroke-linecap="round" stroke-linejoin="round" x1="520.28" y1="142.83" x2="152.94" y2="60.82"/>
		
			<line fill-rule="evenodd" clip-rule="evenodd" fill="none" stroke="#D4D4D4" stroke-linecap="round" stroke-linejoin="round" x1="520.28" y1="155.07" x2="141.76" y2="68.68"/>
		
			<line fill-rule="evenodd" clip-rule="evenodd" fill="none" stroke="#D4D4D4" stroke-linecap="round" stroke-linejoin="round" x1="520.28" y1="167.87" x2="130.2" y2="76.8"/>
		
			<line fill-rule="evenodd" clip-rule="evenodd" fill="none" stroke="#D4D4D4" stroke-linecap="round" stroke-linejoin="round" x1="456.43" y1="332.341" x2="520.28" y2="201.32"/>
		
			<line fill-rule="evenodd" clip-rule="evenodd" fill="none" stroke="#D4D4D4" stroke-linecap="round" stroke-linejoin="round" x1="520.28" y1="195.31" x2="105.84" y2="93.93"/>
		
			<line fill-rule="evenodd" clip-rule="evenodd" fill="none" stroke="#D4D4D4" stroke-linecap="round" stroke-linejoin="round" x1="520.28" y1="210.04" x2="93" y2="102.95"/>
		
			<line fill-rule="evenodd" clip-rule="evenodd" fill="none" stroke="#D4D4D4" stroke-linecap="round" stroke-linejoin="round" x1="520.28" y1="225.51" x2="79.69" y2="112.31"/>
		
			<line fill-rule="evenodd" clip-rule="evenodd" fill="none" stroke="#D4D4D4" stroke-linecap="round" stroke-linejoin="round" x1="238.61" y1="332.341" x2="421.44" y2="98.74"/>
		
			<line fill-rule="evenodd" clip-rule="evenodd" fill="none" stroke="#D4D4D4" stroke-linecap="round" stroke-linejoin="round" x1="286.43" y1="332.341" x2="1" y2="237.551"/>
		
			<line fill-rule="evenodd" clip-rule="evenodd" fill="none" stroke="#D4D4D4" stroke-linecap="round" stroke-linejoin="round" x1="214.25" y1="332.341" x2="1" y2="259.15"/>
		
			<line fill-rule="evenodd" clip-rule="evenodd" fill="none" stroke="#D4D4D4" stroke-linecap="round" stroke-linejoin="round" x1="383.82" y1="332.341" x2="509.61" y2="117.6"/>
		
			<line fill-rule="evenodd" clip-rule="evenodd" fill="none" stroke="#D4D4D4" stroke-linecap="round" stroke-linejoin="round" x1="347.52" y1="332.341" x2="486.959" y2="112.76"/>
		
			<line fill-rule="evenodd" clip-rule="evenodd" fill="none" stroke="#D4D4D4" stroke-linecap="round" stroke-linejoin="round" x1="142.06" y1="332.341" x2="1" y2="282.24"/>
		
			<line fill-rule="evenodd" clip-rule="evenodd" fill="none" stroke="#D4D4D4" stroke-linecap="round" stroke-linejoin="round" x1="274.919" y1="332.341" x2="442.879" y2="103.33"/>
		
			<line fill-rule="evenodd" clip-rule="evenodd" fill="none" stroke="#D4D4D4" stroke-linecap="round" stroke-linejoin="round" x1="493.93" y1="329.61" x2="1" y2="180.45"/>
		
			<line fill-rule="evenodd" clip-rule="evenodd" fill="none" stroke="#D4D4D4" stroke-linecap="round" stroke-linejoin="round" x1="1" y1="259.641" x2="244.58" y2="60.91"/>
		
			<line fill-rule="evenodd" clip-rule="evenodd" fill="none" stroke="#D4D4D4" stroke-linecap="round" stroke-linejoin="round" x1="1" y1="233.971" x2="226.55" y2="57.05"/>
		
			<line fill-rule="evenodd" clip-rule="evenodd" fill="none" stroke="#D4D4D4" stroke-linecap="round" stroke-linejoin="round" x1="1" y1="210.21" x2="208.82" y2="53.26"/>
		
			<line fill-rule="evenodd" clip-rule="evenodd" fill="none" stroke="#D4D4D4" stroke-linecap="round" stroke-linejoin="round" x1="358.61" y1="332.341" x2="1" y2="217.32"/>
		
			<line fill-rule="evenodd" clip-rule="evenodd" fill="none" stroke="#D4D4D4" stroke-linecap="round" stroke-linejoin="round" x1="1" y1="188.15" x2="191.38" y2="49.53"/>
		
			<line fill-rule="evenodd" clip-rule="evenodd" fill="none" stroke="#D4D4D4" stroke-linecap="round" stroke-linejoin="round" x1="60.61" y1="328.93" x2="319.79" y2="77"/>
		
			<line fill-rule="evenodd" clip-rule="evenodd" fill="none" stroke="#D4D4D4" stroke-linecap="round" stroke-linejoin="round" x1="34.74" y1="319.41" x2="300.51" y2="72.87"/>
		
			<line fill-rule="evenodd" clip-rule="evenodd" fill="none" stroke="#D4D4D4" stroke-linecap="round" stroke-linejoin="round" x1="9.53" y1="310.13" x2="281.55" y2="68.82"/>
		
			<line fill-rule="evenodd" clip-rule="evenodd" fill="none" stroke="#D4D4D4" stroke-linecap="round" stroke-linejoin="round" x1="93.4" y1="332.341" x2="339.419" y2="81.2"/>
		
			<line fill-rule="evenodd" clip-rule="evenodd" fill="none" stroke="#D4D4D4" stroke-linecap="round" stroke-linejoin="round" x1="166.01" y1="332.341" x2="379.7" y2="89.81"/>
		
			<line fill-rule="evenodd" clip-rule="evenodd" fill="none" stroke="#D4D4D4" stroke-linecap="round" stroke-linejoin="round" x1="202.31" y1="332.341" x2="400.39" y2="94.24"/>
		
			<line fill-rule="evenodd" clip-rule="evenodd" fill="none" stroke="#D4D4D4" stroke-linecap="round" stroke-linejoin="round" x1="509.93" y1="293.09" x2="21.15" y2="153.46"/>
		
			<line fill-rule="evenodd" clip-rule="evenodd" fill="none" stroke="#D4D4D4" stroke-linecap="round" stroke-linejoin="round" x1="502.129" y1="310.88" x2="5.03" y2="164.79"/>
		
			<line fill-rule="evenodd" clip-rule="evenodd" fill="none" stroke="#D4D4D4" stroke-linecap="round" stroke-linejoin="round" x1="517.35" y1="276.16" x2="36.64" y2="142.57"/>
	</g>
	<g>
		
			<line fill-rule="evenodd" clip-rule="evenodd" fill="none" stroke="#8A8A8A" stroke-linecap="round" stroke-linejoin="round" x1="520.28" y1="119.88" x2="174.22" y2="45.86"/>
		
			<line fill-rule="evenodd" clip-rule="evenodd" fill="none" stroke="#8A8A8A" stroke-linecap="round" stroke-linejoin="round" x1="520.28" y1="181.271" x2="118.23" y2="85.22"/>
		
			<line fill-rule="evenodd" clip-rule="evenodd" fill="none" stroke="#8A8A8A" stroke-linecap="round" stroke-linejoin="round" x1="492.73" y1="332.341" x2="520.28" y2="269.471"/>
		
			<line fill-rule="evenodd" clip-rule="evenodd" fill="none" stroke="#8A8A8A" stroke-linecap="round" stroke-linejoin="round" x1="311.22" y1="332.341" x2="464.72" y2="108"/>
		
			<line fill-rule="evenodd" clip-rule="evenodd" fill="none" stroke="#8A8A8A" stroke-linecap="round" stroke-linejoin="round" x1="69.88" y1="332.341" x2="1" y2="307"/>
		
			<line fill-rule="evenodd" clip-rule="evenodd" fill="none" stroke="#8A8A8A" stroke-linecap="round" stroke-linejoin="round" x1="1" y1="287.45" x2="262.911" y2="64.83"/>
		
			<line fill-rule="evenodd" clip-rule="evenodd" fill="none" stroke="#8A8A8A" stroke-linecap="round" stroke-linejoin="round" x1="430.79" y1="332.341" x2="1" y2="198.32"/>
		
			<line fill-rule="evenodd" clip-rule="evenodd" fill="none" stroke="#8A8A8A" stroke-linecap="round" stroke-linejoin="round" x1="1" y1="167.62" x2="174.22" y2="45.86"/>
		
			<line fill-rule="evenodd" clip-rule="evenodd" fill="none" stroke="#8A8A8A" stroke-linecap="round" stroke-linejoin="round" x1="262.82" y1="189.26" x2="51.54" y2="132.1"/>
		
			<line fill-rule="evenodd" clip-rule="evenodd" fill="none" stroke="#8A8A8A" stroke-linecap="round" stroke-linejoin="round" x1="129.7" y1="332.341" x2="262.82" y2="189.26"/>
	</g>
	
		<line fill-rule="evenodd" clip-rule="evenodd" fill="none" stroke="#12AB00" stroke-width="2" stroke-linecap="round" stroke-linejoin="round" x1="359.379" y1="85.47" x2="262.82" y2="189.26"/>
	
		<line fill-rule="evenodd" clip-rule="evenodd" fill="none" stroke="#A80000" stroke-width="2" stroke-linecap="round" stroke-linejoin="round" x1="520.28" y1="258.91" x2="262.82" y2="189.26"/>
</g>
<g id="Viewport_x5F_MG">
	<g>
		<polygon fill-rule="evenodd" clip-rule="evenodd" points="100.52,294.891 98.71,291.32 167.91,255.66 236.6,219 304.9,181.57 
			372.99,143.72 382.01,161.56 311.161,193.95 240.52,226.75 170.26,260.32 		"/>
		<path fill-rule="evenodd" clip-rule="evenodd" fill="#FFFFFF" stroke="#000000" stroke-width="4" d="M91.97,293.12
			c0-4.34,3.52-7.86,7.86-7.86s7.86,3.521,7.86,7.86s-3.52,7.87-7.86,7.87S91.97,297.46,91.97,293.12z"/>
		
			<line fill-rule="evenodd" clip-rule="evenodd" fill="none" stroke="#000000" stroke-width="10" stroke-linejoin="bevel" x1="377.5" y1="152.64" x2="362.39" y2="160.28"/>
		<polygon fill-rule="evenodd" clip-rule="evenodd" points="432.973,127.087 388.416,184.825 360.11,123.944 		"/>
	</g>
	<g>
		<path d="M51.984,277.135v4.678h-1.855v-14.561h1.855v0.859c0.703-0.703,1.553-1.055,2.549-1.055c1.484,0,2.64,0.462,3.467,1.387
			s1.24,2.278,1.24,4.063c0,1.589-0.417,2.886-1.25,3.892s-2.038,1.509-3.613,1.509c-0.443,0-0.917-0.078-1.421-0.234
			S52.127,277.337,51.984,277.135z M51.984,269.508v6.094c0.117,0.176,0.365,0.344,0.742,0.503s0.746,0.239,1.104,0.239
			c2.305,0,3.457-1.302,3.457-3.906c0-1.321-0.273-2.288-0.82-2.9s-1.422-0.918-2.627-0.918c-0.26,0-0.58,0.091-0.957,0.273
			S52.205,269.28,51.984,269.508z"/>
		<path d="M61.935,268.717h-1.211v-1.465h1.211v-2.188l1.855-0.713v2.9h2.871v1.465h-2.871v5.195c0,0.879,0.148,1.504,0.444,1.875
			s0.773,0.557,1.431,0.557c0.475,0,0.967-0.12,1.475-0.361l0.273,1.631c-0.768,0.195-1.611,0.293-2.529,0.293
			c-0.827,0-1.525-0.308-2.095-0.923s-0.854-1.392-0.854-2.329V268.717z"/>
		<path d="M73.429,277.711h-4.082v-14.307c1.738-0.085,2.992-0.127,3.76-0.127c1.413,0,2.506,0.305,3.281,0.913
			s1.162,1.479,1.162,2.612c0,0.664-0.248,1.27-0.742,1.816s-1.042,0.889-1.641,1.025c1.133,0.273,1.958,0.726,2.476,1.357
			s0.776,1.491,0.776,2.578c0,1.257-0.46,2.259-1.382,3.008S74.914,277.711,73.429,277.711z M71.3,264.967v4.111
			c0.41,0.039,0.918,0.059,1.523,0.059c1.849,0,2.773-0.752,2.773-2.256c0-1.321-0.85-1.982-2.549-1.982
			C72.397,264.898,71.814,264.921,71.3,264.967z M71.3,270.592v5.459c0.67,0.065,1.185,0.098,1.543,0.098
			c1.224,0,2.118-0.229,2.681-0.688s0.845-1.189,0.845-2.192c0-0.931-0.269-1.618-0.806-2.061s-1.434-0.664-2.69-0.664L71.3,270.592
			z"/>
		<path d="M86.427,276.51c-0.742,0.931-1.878,1.396-3.408,1.396c-0.82,0-1.532-0.298-2.134-0.894s-0.903-1.336-0.903-2.222
			c0-1.062,0.464-1.958,1.392-2.69s2.111-1.099,3.55-1.099c0.391,0,0.833,0.085,1.328,0.254c0-1.692-0.755-2.539-2.266-2.539
			c-1.159,0-2.051,0.313-2.676,0.938l-0.781-1.553c0.352-0.286,0.838-0.532,1.46-0.737s1.216-0.308,1.782-0.308
			c1.517,0,2.619,0.345,3.306,1.035s1.03,1.787,1.03,3.291v3.75c0,0.918,0.273,1.53,0.82,1.836v0.928
			c-0.755,0-1.32-0.107-1.694-0.322S86.59,277.005,86.427,276.51z M86.251,272.574c-0.586-0.13-0.996-0.195-1.23-0.195
			c-0.938,0-1.703,0.241-2.295,0.723s-0.889,1.052-0.889,1.709c0,1.087,0.641,1.631,1.924,1.631c0.938,0,1.768-0.446,2.49-1.338
			V272.574z"/>
		<path d="M90.343,277.086l0.654-1.758c1.035,0.677,1.869,1.016,2.5,1.016c1.146,0,1.719-0.481,1.719-1.445
			c0-0.69-0.553-1.282-1.66-1.777c-0.853-0.391-1.427-0.687-1.724-0.889s-0.553-0.432-0.771-0.688s-0.381-0.53-0.488-0.82
			s-0.161-0.601-0.161-0.933c0-0.859,0.313-1.53,0.938-2.012s1.442-0.723,2.451-0.723c0.762,0,1.722,0.241,2.881,0.723l-0.527,1.719
			c-0.736-0.586-1.475-0.879-2.217-0.879c-0.443,0-0.815,0.104-1.118,0.313s-0.454,0.472-0.454,0.791
			c0,0.671,0.381,1.179,1.143,1.523l1.328,0.605c0.814,0.371,1.406,0.794,1.777,1.27s0.557,1.071,0.557,1.787
			c0,0.938-0.329,1.672-0.986,2.202s-1.569,0.796-2.734,0.796C92.349,277.906,91.313,277.633,90.343,277.086z"/>
		<path d="M107.931,272.662h-7.539c0,1.224,0.335,2.165,1.006,2.822c0.592,0.573,1.354,0.859,2.285,0.859
			c1.061,0,1.947-0.31,2.656-0.928l0.781,1.338c-0.287,0.286-0.726,0.534-1.318,0.742c-0.742,0.273-1.569,0.41-2.48,0.41
			c-1.315,0-2.432-0.446-3.35-1.338c-1.022-0.983-1.533-2.305-1.533-3.965c0-1.726,0.524-3.108,1.572-4.15
			c0.938-0.931,2.047-1.396,3.33-1.396c1.491,0,2.66,0.42,3.506,1.26c0.82,0.808,1.23,1.878,1.23,3.213
			C108.078,271.939,108.029,272.317,107.931,272.662z M103.429,268.619c-0.827,0-1.52,0.267-2.08,0.801
			c-0.534,0.508-0.836,1.14-0.908,1.895h5.791c0-0.749-0.234-1.374-0.703-1.875C105.015,268.893,104.314,268.619,103.429,268.619z"
			/>
	</g>
	<g>
		<path d="M172.398,226.156h-0.488l-4.482-10.684h2.031l2.764,7.324l2.822-7.324h1.943L172.398,226.156z"/>
		<path d="M187.232,220.912h-7.539c0,1.224,0.335,2.165,1.006,2.822c0.592,0.573,1.354,0.859,2.285,0.859
			c1.061,0,1.947-0.31,2.656-0.928l0.781,1.338c-0.287,0.286-0.726,0.534-1.318,0.742c-0.742,0.273-1.569,0.41-2.48,0.41
			c-1.315,0-2.432-0.446-3.35-1.338c-1.022-0.983-1.533-2.305-1.533-3.965c0-1.726,0.524-3.108,1.572-4.15
			c0.938-0.931,2.047-1.396,3.33-1.396c1.491,0,2.66,0.42,3.506,1.26c0.82,0.808,1.23,1.878,1.23,3.213
			C187.378,220.189,187.33,220.567,187.232,220.912z M182.73,216.869c-0.827,0-1.52,0.267-2.08,0.801
			c-0.534,0.508-0.836,1.14-0.908,1.895h5.791c0-0.749-0.234-1.374-0.703-1.875C184.315,217.143,183.615,216.869,182.73,216.869z"/>
		<path d="M197.222,216.352l-0.918,1.309c-0.189-0.188-0.522-0.368-1.001-0.537s-0.949-0.254-1.411-0.254
			c-1.009,0-1.81,0.354-2.402,1.06s-0.889,1.675-0.889,2.905c0,1.224,0.303,2.156,0.908,2.798s1.445,0.962,2.52,0.962
			c0.833,0,1.673-0.322,2.52-0.967l0.732,1.563c-0.996,0.645-2.23,0.967-3.701,0.967c-1.426,0-2.604-0.479-3.535-1.436
			s-1.396-2.253-1.396-3.887c0-1.667,0.483-3.005,1.45-4.014s2.29-1.514,3.97-1.514c0.541,0,1.126,0.114,1.758,0.342
			S196.923,216.11,197.222,216.352z"/>
		<path d="M202.261,225.961h-2.881v-14.307c1.836-0.065,3.011-0.098,3.525-0.098c1.999,0,3.581,0.607,4.746,1.821
			s1.748,2.83,1.748,4.849C209.4,223.383,207.021,225.961,202.261,225.961z M201.333,213.412v10.693
			c0.436,0.065,0.977,0.098,1.621,0.098c1.367,0,2.441-0.513,3.223-1.538s1.172-2.449,1.172-4.272c0-3.386-1.52-5.078-4.561-5.078
			C202.606,213.314,202.121,213.347,201.333,213.412z"/>
		<path d="M212.398,225.961v-8.896h-1.436v-1.563h3.291v10.459H212.398z M213.414,211.547c0.319,0,0.591,0.112,0.815,0.337
			s0.337,0.493,0.337,0.806c0,0.319-0.112,0.591-0.337,0.815s-0.497,0.337-0.815,0.337c-0.313,0-0.581-0.112-0.806-0.337
			s-0.337-0.496-0.337-0.815s0.111-0.589,0.332-0.811S213.095,211.547,213.414,211.547z"/>
		<path d="M222.886,217.289c-0.404-0.28-0.811-0.42-1.221-0.42c-0.658,0-1.232,0.303-1.724,0.908s-0.737,1.335-0.737,2.188v5.996
			h-1.855v-10.459h1.855v1.67c0.677-1.243,1.683-1.865,3.018-1.865c0.332,0,0.811,0.059,1.436,0.176L222.886,217.289z"/>
	</g>
</g>
<g id="Viewport_x5F_FG">
	<rect x="1" y="1" fill-rule="evenodd" clip-rule="evenodd" fill="#0000B0" width="145.5" height="23"/>
	<g>
		<path fill="#FFFFFF" d="M8.848,6.927c0.792-0.144,1.945-0.252,3.007-0.252c1.674,0,2.772,0.324,3.511,0.99
			c0.594,0.54,0.955,1.368,0.955,2.323c0,1.584-1.008,2.647-2.269,3.079v0.054c0.918,0.324,1.477,1.188,1.765,2.449
			c0.396,1.692,0.684,2.863,0.937,3.331h-1.621c-0.198-0.36-0.468-1.386-0.792-2.899c-0.36-1.674-1.026-2.305-2.449-2.359h-1.476
			V18.9H8.848V6.927z M10.415,12.455h1.602c1.675,0,2.737-0.918,2.737-2.305c0-1.566-1.135-2.251-2.791-2.251
			c-0.756,0-1.278,0.054-1.548,0.126V12.455z"/>
		<path fill="#FFFFFF" d="M18.64,6.117h1.584v5.456h0.036c0.252-0.45,0.648-0.864,1.134-1.134c0.468-0.27,1.026-0.432,1.62-0.432
			c1.17,0,3.043,0.72,3.043,3.709V18.9h-1.584v-5.005c0-1.405-0.522-2.575-2.017-2.575c-1.026,0-1.818,0.72-2.125,1.566
			c-0.09,0.234-0.108,0.468-0.108,0.756V18.9H18.64V6.117z"/>
		<path fill="#FFFFFF" d="M30.395,7.737c0,0.54-0.378,0.972-1.008,0.972c-0.576,0-0.955-0.432-0.955-0.972
			c0-0.541,0.396-0.991,0.991-0.991C29.999,6.747,30.395,7.179,30.395,7.737z M28.63,18.9v-8.715h1.584V18.9H28.63z"/>
		<path fill="#FFFFFF" d="M32.842,12.544c0-0.918-0.018-1.638-0.072-2.359h1.404l0.09,1.44H34.3c0.432-0.81,1.44-1.62,2.881-1.62
			c1.206,0,3.079,0.72,3.079,3.709V18.9h-1.585v-5.023c0-1.404-0.522-2.575-2.017-2.575c-1.026,0-1.836,0.738-2.125,1.621
			c-0.072,0.198-0.108,0.468-0.108,0.738v5.24h-1.584V12.544z"/>
		<path fill="#FFFFFF" d="M50.718,14.471c0,3.223-2.251,4.627-4.339,4.627c-2.341,0-4.177-1.729-4.177-4.483
			c0-2.899,1.926-4.609,4.321-4.609C49.025,10.006,50.718,11.824,50.718,14.471z M43.822,14.561c0,1.909,1.081,3.349,2.629,3.349
			c1.513,0,2.647-1.422,2.647-3.385c0-1.476-0.738-3.331-2.611-3.331C44.632,11.194,43.822,12.923,43.822,14.561z"/>
		<path fill="#FFFFFF" d="M58.6,18.9L54.621,6.765h1.71l1.891,5.978c0.504,1.638,0.954,3.115,1.296,4.537h0.036
			c0.342-1.404,0.828-2.935,1.386-4.519l2.053-5.996h1.674L60.329,18.9H58.6z"/>
		<path fill="#FFFFFF" d="M67.402,7.737c0,0.54-0.378,0.972-1.008,0.972c-0.576,0-0.955-0.432-0.955-0.972
			c0-0.541,0.396-0.991,0.99-0.991C67.006,6.747,67.402,7.179,67.402,7.737z M65.638,18.9v-8.715h1.584V18.9H65.638z"/>
		<path fill="#FFFFFF" d="M70.732,14.831c0.036,2.143,1.386,3.025,2.989,3.025c1.134,0,1.836-0.198,2.413-0.45l0.288,1.134
			c-0.558,0.252-1.53,0.559-2.917,0.559c-2.683,0-4.285-1.783-4.285-4.412c0-2.628,1.548-4.681,4.087-4.681
			c2.863,0,3.601,2.484,3.601,4.087c0,0.324-0.018,0.559-0.054,0.738H70.732z M75.377,13.697c0.018-0.99-0.414-2.557-2.196-2.557
			c-1.621,0-2.305,1.458-2.431,2.557H75.377z"/>
		<path fill="#FFFFFF" d="M79.498,10.186l1.17,4.43c0.234,0.972,0.468,1.873,0.63,2.772h0.054c0.198-0.882,0.486-1.818,0.774-2.754
			l1.422-4.448h1.333l1.35,4.357c0.324,1.044,0.576,1.963,0.774,2.845h0.054c0.144-0.882,0.378-1.8,0.666-2.827l1.242-4.375h1.566
			L87.726,18.9h-1.44l-1.333-4.159c-0.306-0.972-0.558-1.836-0.774-2.863h-0.036c-0.216,1.044-0.486,1.944-0.792,2.881L81.946,18.9
			h-1.44l-2.629-8.715H79.498z"/>
		<path fill="#FFFFFF" d="M92.115,13.031c0-1.117-0.036-2.017-0.072-2.845h1.404l0.09,1.495h0.036
			c0.63-1.062,1.674-1.674,3.097-1.674c2.125,0,3.709,1.782,3.709,4.411c0,3.133-1.927,4.682-3.979,4.682
			c-1.152,0-2.161-0.504-2.683-1.369h-0.036v4.735h-1.566V13.031z M93.682,15.354c0,0.234,0.018,0.45,0.072,0.648
			c0.288,1.098,1.242,1.854,2.376,1.854c1.675,0,2.647-1.368,2.647-3.367c0-1.729-0.918-3.223-2.593-3.223
			c-1.081,0-2.107,0.756-2.395,1.945c-0.054,0.198-0.108,0.432-0.108,0.63V15.354z"/>
		<path fill="#FFFFFF" d="M110.243,14.471c0,3.223-2.25,4.627-4.339,4.627c-2.34,0-4.177-1.729-4.177-4.483
			c0-2.899,1.927-4.609,4.321-4.609C108.551,10.006,110.243,11.824,110.243,14.471z M103.347,14.561
			c0,1.909,1.081,3.349,2.629,3.349c1.512,0,2.647-1.422,2.647-3.385c0-1.476-0.738-3.331-2.611-3.331
			C104.158,11.194,103.347,12.923,103.347,14.561z"/>
		<path fill="#FFFFFF" d="M112.239,12.905c0-1.026-0.018-1.909-0.072-2.719h1.386l0.072,1.729h0.054
			c0.396-1.17,1.369-1.908,2.431-1.908c0.162,0,0.288,0.018,0.432,0.036v1.494c-0.162-0.036-0.324-0.036-0.54-0.036
			c-1.116,0-1.909,0.829-2.125,2.017c-0.036,0.216-0.054,0.486-0.054,0.738V18.9h-1.584V12.905z"/>
		<path fill="#FFFFFF" d="M120.465,8.097v2.088h2.269v1.207h-2.269v4.7c0,1.08,0.306,1.692,1.188,1.692
			c0.432,0,0.685-0.036,0.918-0.108l0.072,1.207c-0.306,0.108-0.792,0.216-1.405,0.216c-0.738,0-1.333-0.252-1.71-0.667
			c-0.432-0.486-0.612-1.26-0.612-2.287v-4.753h-1.35v-1.207h1.35v-1.62L120.465,8.097z"/>
	</g>
	
		<rect x="1" y="1" fill-rule="evenodd" clip-rule="evenodd" fill="none" stroke="#000000" stroke-width="2" stroke-linecap="round" width="519.28" height="331.341"/>
</g>
</svg>
