<?xml version="1.0" encoding="utf-8"?>
<!-- Generator: Adobe Illustrator 14.0.0, SVG Export Plug-In . SVG Version: 6.00 Build 43363)  -->
<!DOCTYPE svg PUBLIC "-//W3C//DTD SVG 1.0//EN" "http://www.w3.org/TR/2001/REC-SVG-20010904/DTD/svg10.dtd">
<svg version="1.0" xmlns="http://www.w3.org/2000/svg" xmlns:xlink="http://www.w3.org/1999/xlink" x="0px" y="0px"
	 width="57.235px" height="56.7px" viewBox="0 0 57.235 56.7" enable-background="new 0 0 57.235 56.7" xml:space="preserve">
<g id="Grids">
	<g>
		
			<line fill-rule="evenodd" clip-rule="evenodd" fill="none" stroke="#D4D4D4" stroke-width="0.27" x1="4.935" y1="0" x2="4.935" y2="56.7"/>
		
			<line fill-rule="evenodd" clip-rule="evenodd" fill="none" stroke="#D4D4D4" stroke-width="0.27" x1="9.615" y1="0" x2="9.615" y2="56.7"/>
		
			<line fill-rule="evenodd" clip-rule="evenodd" fill="none" stroke="#D4D4D4" stroke-width="0.27" x1="18.985" y1="0" x2="18.985" y2="56.7"/>
		
			<line fill-rule="evenodd" clip-rule="evenodd" fill="none" stroke="#D4D4D4" stroke-width="0.27" x1="23.665" y1="0" x2="23.665" y2="56.7"/>
		
			<line fill-rule="evenodd" clip-rule="evenodd" fill="none" stroke="#D4D4D4" stroke-width="0.27" x1="33.035" y1="0" x2="33.035" y2="56.7"/>
		
			<line fill-rule="evenodd" clip-rule="evenodd" fill="none" stroke="#D4D4D4" stroke-width="0.27" x1="37.715" y1="0" x2="37.715" y2="56.7"/>
		
			<line fill-rule="evenodd" clip-rule="evenodd" fill="none" stroke="#D4D4D4" stroke-width="0.27" x1="47.075" y1="0" x2="47.075" y2="56.7"/>
		
			<line fill-rule="evenodd" clip-rule="evenodd" fill="none" stroke="#D4D4D4" stroke-width="0.27" x1="51.765" y1="0" x2="51.765" y2="56.7"/>
		
			<line fill-rule="evenodd" clip-rule="evenodd" fill="none" stroke="#D4D4D4" stroke-width="0.27" x1="56.695" y1="4.94" x2="0.005" y2="4.94"/>
		
			<line fill-rule="evenodd" clip-rule="evenodd" fill="none" stroke="#D4D4D4" stroke-width="0.27" x1="56.695" y1="9.62" x2="0.005" y2="9.62"/>
		
			<line fill-rule="evenodd" clip-rule="evenodd" fill="none" stroke="#D4D4D4" stroke-width="0.27" x1="56.695" y1="18.98" x2="0.005" y2="18.98"/>
		
			<line fill-rule="evenodd" clip-rule="evenodd" fill="none" stroke="#D4D4D4" stroke-width="0.27" x1="56.695" y1="23.67" x2="0.005" y2="23.67"/>
		
			<line fill-rule="evenodd" clip-rule="evenodd" fill="none" stroke="#D4D4D4" stroke-width="0.27" x1="56.695" y1="33.03" x2="0.005" y2="33.03"/>
		
			<line fill-rule="evenodd" clip-rule="evenodd" fill="none" stroke="#D4D4D4" stroke-width="0.27" x1="56.695" y1="37.72" x2="0.005" y2="37.72"/>
		
			<line fill-rule="evenodd" clip-rule="evenodd" fill="none" stroke="#D4D4D4" stroke-width="0.27" x1="56.695" y1="47.08" x2="0.005" y2="47.08"/>
		
			<line fill-rule="evenodd" clip-rule="evenodd" fill="none" stroke="#D4D4D4" stroke-width="0.27" x1="56.695" y1="51.76" x2="0.005" y2="51.76"/>
		
			<line fill-rule="evenodd" clip-rule="evenodd" fill="none" stroke="#8A8A8A" stroke-width="0.27" x1="14.295" y1="0" x2="14.295" y2="56.7"/>
		
			<line fill-rule="evenodd" clip-rule="evenodd" fill="none" stroke="#8A8A8A" stroke-width="0.27" x1="0.135" y1="0" x2="0.135" y2="56.7"/>
		
			<line fill-rule="evenodd" clip-rule="evenodd" fill="none" stroke="#8A8A8A" stroke-width="0.27" x1="28.345" y1="28.35" x2="28.345" y2="56.7"/>
		
			<line fill-rule="evenodd" clip-rule="evenodd" fill="none" stroke="#8A8A8A" stroke-width="0.27" x1="42.395" y1="0" x2="42.395" y2="56.7"/>
		
			<line fill-rule="evenodd" clip-rule="evenodd" fill="none" stroke="#8A8A8A" stroke-width="0.27" x1="56.555" y1="0" x2="56.555" y2="56.7"/>
		
			<line fill-rule="evenodd" clip-rule="evenodd" fill="none" stroke="#8A8A8A" stroke-width="0.27" x1="28.345" y1="28.35" x2="0.005" y2="28.35"/>
		
			<line fill-rule="evenodd" clip-rule="evenodd" fill="none" stroke="#8A8A8A" stroke-width="0.27" x1="56.695" y1="14.3" x2="0.005" y2="14.3"/>
		
			<line fill-rule="evenodd" clip-rule="evenodd" fill="none" stroke="#8A8A8A" stroke-width="0.27" x1="56.695" y1="0.14" x2="0.005" y2="0.14"/>
		
			<line fill-rule="evenodd" clip-rule="evenodd" fill="none" stroke="#8A8A8A" stroke-width="0.27" x1="56.695" y1="42.4" x2="0.005" y2="42.4"/>
		
			<line fill-rule="evenodd" clip-rule="evenodd" fill="none" stroke="#8A8A8A" stroke-width="0.27" x1="56.695" y1="56.56" x2="0.005" y2="56.56"/>
		<line fill-rule="evenodd" clip-rule="evenodd" fill="none" stroke="#A80000" x1="56.695" y1="28.35" x2="28.345" y2="28.35"/>
		<line fill-rule="evenodd" clip-rule="evenodd" fill="none" stroke="#12AB00" x1="28.345" y1="0" x2="28.345" y2="28.35"/>
	</g>
</g>
<g id="Text">
	<path fill-rule="evenodd" clip-rule="evenodd" d="M22.495,17.97l-1.68,5.76c-0.09,0.31-0.14,0.52-0.14,0.62
		c0,0.03,0.01,0.06,0.04,0.09c0.03,0.03,0.06,0.04,0.09,0.04c0.04,0,0.09-0.02,0.15-0.06c0.11-0.08,0.3-0.27,0.56-0.59l0.16,0.11
		c-0.23,0.32-0.47,0.58-0.71,0.79c-0.24,0.2-0.46,0.3-0.67,0.3c-0.11,0-0.2-0.04-0.27-0.12c-0.08-0.08-0.11-0.19-0.11-0.33
		c0-0.19,0.05-0.43,0.15-0.75l0.19-0.6c-0.48,0.73-0.91,1.23-1.29,1.51c-0.27,0.19-0.53,0.29-0.77,0.29c-0.25,0-0.46-0.11-0.65-0.33
		c-0.18-0.22-0.27-0.52-0.27-0.9c0-0.48,0.15-1,0.46-1.55s0.72-1,1.23-1.34c0.4-0.28,0.76-0.42,1.1-0.42c0.18,0,0.33,0.04,0.45,0.11
		c0.13,0.07,0.26,0.19,0.38,0.36l0.48-1.7c0.03-0.12,0.06-0.22,0.09-0.29c0.04-0.13,0.06-0.24,0.06-0.32c0-0.07-0.03-0.13-0.08-0.17
		c-0.07-0.06-0.15-0.09-0.26-0.09c-0.08,0-0.2,0.01-0.37,0.04v-0.18L22.495,17.97z M20.685,21.44c0-0.21-0.06-0.38-0.19-0.51
		c-0.12-0.12-0.27-0.19-0.45-0.19c-0.41,0-0.84,0.34-1.29,1.02c-0.44,0.67-0.66,1.32-0.66,1.94c0,0.25,0.05,0.43,0.16,0.56
		c0.11,0.13,0.23,0.19,0.38,0.19c0.34,0,0.77-0.36,1.28-1.1C20.425,22.62,20.685,21.98,20.685,21.44z"/>
	<path fill-rule="evenodd" clip-rule="evenodd" d="M8.975,47.53l-0.33,1.12c0.35-0.42,0.67-0.71,0.95-0.87
		c0.28-0.17,0.56-0.25,0.85-0.25s0.54,0.11,0.74,0.34c0.21,0.23,0.31,0.53,0.31,0.9c0,0.71-0.29,1.44-0.87,2.18
		c-0.59,0.74-1.27,1.11-2.04,1.11c-0.16,0-0.31-0.01-0.43-0.05c-0.13-0.04-0.27-0.1-0.43-0.19l-0.35,1.26
		c-0.07,0.25-0.11,0.41-0.11,0.48s0.02,0.14,0.06,0.19c0.03,0.05,0.1,0.09,0.18,0.11c0.08,0.03,0.25,0.04,0.5,0.05l-0.04,0.18h-2.3
		l0.05-0.18c0.3-0.02,0.51-0.07,0.61-0.16c0.11-0.09,0.22-0.34,0.34-0.76l1.23-4.28c0.08-0.27,0.11-0.43,0.11-0.5
		c0-0.09-0.02-0.15-0.07-0.2c-0.05-0.05-0.13-0.08-0.23-0.08c-0.1,0-0.23,0.01-0.4,0.04v-0.19L8.975,47.53z M7.845,51.43
		c0.2,0.25,0.47,0.37,0.81,0.37c0.17,0,0.34-0.05,0.52-0.15c0.18-0.09,0.35-0.23,0.52-0.42c0.16-0.18,0.31-0.4,0.45-0.64
		c0.13-0.24,0.25-0.53,0.36-0.85c0.1-0.33,0.15-0.66,0.15-0.98c0-0.26-0.05-0.46-0.17-0.6c-0.12-0.14-0.26-0.21-0.42-0.21
		c-0.35,0-0.7,0.2-1.04,0.61c-0.35,0.4-0.6,0.87-0.76,1.41L7.845,51.43z"/>
	<path fill-rule="evenodd" clip-rule="evenodd" d="M9.845,45.19c0.23,0,0.43,0.08,0.59,0.24c0.16,0.16,0.24,0.35,0.24,0.58
		c0,0.23-0.08,0.43-0.24,0.59c-0.17,0.16-0.36,0.24-0.59,0.24s-0.42-0.08-0.58-0.24c-0.17-0.16-0.25-0.36-0.25-0.59
		c0-0.23,0.08-0.42,0.25-0.58C9.425,45.27,9.615,45.19,9.845,45.19z"/>
	<path fill-rule="evenodd" clip-rule="evenodd" d="M41.035,21.78l1.69-0.28l-0.7,2.38c0.57-0.98,1.08-1.66,1.55-2.04
		c0.26-0.23,0.48-0.34,0.64-0.34c0.11,0,0.2,0.03,0.26,0.1c0.06,0.06,0.09,0.15,0.09,0.27c0,0.22-0.06,0.42-0.17,0.62
		c-0.07,0.15-0.19,0.22-0.33,0.22c-0.08,0-0.14-0.03-0.2-0.07c-0.05-0.05-0.08-0.13-0.1-0.23c0-0.06-0.02-0.1-0.04-0.12
		c-0.03-0.03-0.06-0.04-0.09-0.04c-0.06,0-0.11,0.01-0.16,0.04c-0.08,0.04-0.21,0.17-0.38,0.38c-0.28,0.32-0.57,0.73-0.88,1.24
		c-0.14,0.22-0.26,0.46-0.36,0.73c-0.13,0.37-0.21,0.59-0.23,0.67l-0.16,0.61h-0.74l0.9-3.03c0.1-0.35,0.16-0.6,0.16-0.75
		c0-0.06-0.03-0.11-0.08-0.15c-0.06-0.05-0.15-0.08-0.26-0.08c-0.06,0-0.19,0.02-0.37,0.05L41.035,21.78z"/>
	<path fill-rule="evenodd" clip-rule="evenodd" d="M42.915,19.01c0.24,0,0.44,0.08,0.6,0.24c0.16,0.16,0.24,0.36,0.24,0.59
		s-0.08,0.42-0.25,0.58c-0.16,0.16-0.36,0.24-0.59,0.24s-0.42-0.08-0.58-0.24c-0.16-0.16-0.24-0.35-0.24-0.58s0.08-0.43,0.24-0.59
		C42.495,19.09,42.685,19.01,42.915,19.01z"/>
</g>
<g id="Other">
	<g>
		<g>
			
				<line fill-rule="evenodd" clip-rule="evenodd" fill="none" stroke="#000000" stroke-width="0.5" stroke-linejoin="bevel" x1="9.665" y1="41.89" x2="4.805" y2="34.9"/>
			
				<line fill-rule="evenodd" clip-rule="evenodd" fill="none" stroke="#000000" stroke-width="0.5" stroke-linejoin="bevel" x1="37.075" y1="22.89" x2="32.035" y2="15.65"/>
			
				<line fill-rule="evenodd" clip-rule="evenodd" fill="none" stroke="#000000" stroke-width="0.5" stroke-linejoin="bevel" x1="5.965" y1="36.43" x2="33.105" y2="17.45"/>
		</g>
		<path fill-rule="evenodd" clip-rule="evenodd" fill="#FFFFFF" stroke="#000000" d="M11.575,41.97c0,1.09-0.88,1.97-1.96,1.97
			c-1.09,0-1.97-0.88-1.97-1.97c0-1.08,0.88-1.97,1.97-1.97C10.695,40,11.575,40.89,11.575,41.97z"/>
		<path fill-rule="evenodd" clip-rule="evenodd" fill="#FFFFFF" stroke="#000000" d="M39.625,23.75c0,1.08-0.88,1.97-1.96,1.97
			c-1.09,0-1.97-0.89-1.97-1.97c0-1.09,0.88-1.97,1.97-1.97C38.745,21.78,39.625,22.66,39.625,23.75z"/>
	</g>
</g>
<g id="Vectors">
</g>
</svg>
