<?xml version="1.0" encoding="utf-8"?>
<!-- Generator: Adobe Illustrator 14.0.0, SVG Export Plug-In . SVG Version: 6.00 Build 43363)  -->
<!DOCTYPE svg PUBLIC "-//W3C//DTD SVG 1.0//EN" "http://www.w3.org/TR/2001/REC-SVG-20010904/DTD/svg10.dtd">
<svg version="1.0" xmlns="http://www.w3.org/2000/svg" xmlns:xlink="http://www.w3.org/1999/xlink" x="0px" y="0px"
	 width="305.19px" height="414.507px" viewBox="0 0 305.19 414.507" enable-background="new 0 0 305.19 414.507"
	 xml:space="preserve">
<g id="Paper">
	
		<line fill-rule="evenodd" clip-rule="evenodd" fill="none" stroke="#000000" stroke-width="2" stroke-linecap="round" stroke-linejoin="round" x1="15.54" y1="2.676" x2="15.54" y2="412.216"/>
	
		<line opacity="0.5" fill-rule="evenodd" clip-rule="evenodd" fill="none" stroke="#000000" stroke-width="0.5" stroke-linecap="round" stroke-linejoin="round" x1="138.4" y1="2.676" x2="138.4" y2="412.216"/>
	
		<line opacity="0.5" fill-rule="evenodd" clip-rule="evenodd" fill="none" stroke="#000000" stroke-width="0.5" stroke-linecap="round" stroke-linejoin="round" x1="179.351" y1="2.676" x2="179.351" y2="412.216"/>
	
		<line opacity="0.5" fill-rule="evenodd" clip-rule="evenodd" fill="none" stroke="#000000" stroke-width="0.5" stroke-linecap="round" stroke-linejoin="round" x1="220.31" y1="2.676" x2="220.31" y2="412.216"/>
	
		<line opacity="0.5" fill-rule="evenodd" clip-rule="evenodd" fill="none" stroke="#000000" stroke-width="0.5" stroke-linecap="round" stroke-linejoin="round" x1="261.26" y1="2.676" x2="261.26" y2="412.216"/>
	
		<line opacity="0.5" fill-rule="evenodd" clip-rule="evenodd" fill="none" stroke="#000000" stroke-width="0.5" stroke-linecap="round" stroke-linejoin="round" x1="56.5" y1="2.676" x2="56.5" y2="412.216"/>
	
		<line opacity="0.5" fill-rule="evenodd" clip-rule="evenodd" fill="none" stroke="#000000" stroke-width="0.5" stroke-linecap="round" stroke-linejoin="round" x1="97.45" y1="2.676" x2="97.45" y2="412.216"/>
	
		<line opacity="0.5" fill-rule="evenodd" clip-rule="evenodd" fill="none" stroke="#000000" stroke-width="0.5" stroke-linecap="round" stroke-linejoin="round" x1="302.21" y1="2.676" x2="302.21" y2="412.216"/>
	
		<line opacity="0.5" fill-rule="evenodd" clip-rule="evenodd" fill="none" stroke="#000000" stroke-width="0.5" stroke-linecap="round" stroke-linejoin="round" x1="15.54" y1="330.306" x2="302.21" y2="330.306"/>
	
		<line opacity="0.5" fill-rule="evenodd" clip-rule="evenodd" fill="none" stroke="#000000" stroke-width="0.5" stroke-linecap="round" stroke-linejoin="round" x1="15.54" y1="248.396" x2="302.21" y2="248.396"/>
	
		<line opacity="0.5" fill-rule="evenodd" clip-rule="evenodd" fill="none" stroke="#000000" stroke-width="0.5" stroke-linecap="round" stroke-linejoin="round" x1="15.54" y1="207.446" x2="302.21" y2="207.446"/>
	
		<line opacity="0.5" fill-rule="evenodd" clip-rule="evenodd" fill="none" stroke="#000000" stroke-width="0.5" stroke-linecap="round" stroke-linejoin="round" x1="15.54" y1="125.536" x2="302.21" y2="125.536"/>
	
		<line opacity="0.5" fill-rule="evenodd" clip-rule="evenodd" fill="none" stroke="#000000" stroke-width="0.5" stroke-linecap="round" stroke-linejoin="round" x1="15.54" y1="84.586" x2="302.21" y2="84.586"/>
	
		<line opacity="0.5" fill-rule="evenodd" clip-rule="evenodd" fill="none" stroke="#000000" stroke-width="0.5" stroke-linecap="round" stroke-linejoin="round" x1="15.54" y1="412.216" x2="302.21" y2="412.216"/>
	
		<line opacity="0.5" fill-rule="evenodd" clip-rule="evenodd" fill="none" stroke="#000000" stroke-width="0.5" stroke-linecap="round" stroke-linejoin="round" x1="15.54" y1="166.496" x2="302.21" y2="166.496"/>
	
		<line opacity="0.5" fill-rule="evenodd" clip-rule="evenodd" fill="none" stroke="#000000" stroke-width="0.5" stroke-linecap="round" stroke-linejoin="round" x1="15.54" y1="2.676" x2="302.21" y2="2.676"/>
	
		<line opacity="0.5" fill-rule="evenodd" clip-rule="evenodd" fill="none" stroke="#000000" stroke-width="0.5" stroke-linecap="round" stroke-linejoin="round" x1="15.54" y1="43.636" x2="302.21" y2="43.636"/>
	
		<line opacity="0.5" fill-rule="evenodd" clip-rule="evenodd" fill="none" stroke="#000000" stroke-width="0.5" stroke-linecap="round" stroke-linejoin="round" x1="15.54" y1="371.255" x2="302.21" y2="371.255"/>
	<rect x="52.05" y="289.076" fill-rule="evenodd" clip-rule="evenodd" fill="#FFFFFF" width="253.141" height="14.37"/>
	
		<line fill-rule="evenodd" clip-rule="evenodd" fill="none" stroke="#000000" stroke-width="2" stroke-linecap="round" stroke-linejoin="round" x1="15.54" y1="289.356" x2="302.21" y2="289.356"/>
	<g>
		<path d="M9.443,288.405c0,2.65-0.996,4.113-2.71,4.113c-1.523,0-2.567-1.427-2.591-4.006c0-2.626,1.14-4.054,2.723-4.054
			C8.495,284.458,9.443,285.921,9.443,288.405z M5.209,288.524c0,2.027,0.624,3.179,1.583,3.179c1.067,0,1.583-1.26,1.583-3.25
			c0-1.919-0.48-3.179-1.583-3.179C5.881,285.274,5.209,286.402,5.209,288.524z"/>
	</g>
	<g>
		<path d="M7.9,244.963H7.876l-1.355,0.731l-0.204-0.803l1.703-0.912h0.9v7.796H7.9V244.963z"/>
	</g>
	<g>
		<path d="M4.26,211.157v-0.647l0.828-0.804c1.991-1.895,2.902-2.902,2.902-4.078c0-0.792-0.372-1.523-1.535-1.523
			c-0.708,0-1.295,0.36-1.655,0.66l-0.336-0.744c0.528-0.444,1.307-0.792,2.195-0.792c1.679,0,2.387,1.151,2.387,2.267
			c0,1.439-1.043,2.603-2.687,4.186l-0.612,0.576v0.023h3.49v0.876H4.26z"/>
	</g>
	<g>
		<path d="M4.421,169.197c0.3,0.18,0.983,0.479,1.727,0.479c1.343,0,1.775-0.852,1.763-1.511c-0.012-1.091-0.996-1.559-2.015-1.559
			H5.309v-0.792h0.587c0.768,0,1.739-0.396,1.739-1.319c0-0.624-0.396-1.175-1.367-1.175c-0.624,0-1.224,0.276-1.559,0.516
			l-0.288-0.768c0.42-0.3,1.211-0.6,2.051-0.6c1.535,0,2.231,0.912,2.231,1.859c0,0.816-0.492,1.5-1.439,1.847v0.024
			c0.959,0.18,1.727,0.899,1.739,1.991c0,1.248-0.983,2.339-2.842,2.339c-0.875,0-1.643-0.276-2.027-0.528L4.421,169.197z"/>
	</g>
	<g>
		<path d="M7.192,129.786v-2.135H3.57v-0.684l3.479-4.978h1.139v4.846h1.091v0.815H8.188v2.135H7.192z M7.192,126.836v-2.603
			c0-0.408,0.012-0.816,0.036-1.224H7.192c-0.24,0.456-0.432,0.792-0.647,1.151l-1.907,2.651v0.024H7.192z"/>
	</g>
	<g>
		<path d="M8.673,82.118H5.699l-0.3,2.003c0.18-0.024,0.348-0.036,0.636-0.036c0.612,0,1.199,0.12,1.679,0.42
			c0.611,0.336,1.115,1.02,1.115,1.991c0,1.523-1.211,2.663-2.902,2.663c-0.852,0-1.559-0.24-1.943-0.479l0.264-0.804
			c0.324,0.192,0.959,0.432,1.679,0.432c0.983,0,1.847-0.647,1.835-1.691c0-1.007-0.684-1.715-2.231-1.715
			c-0.456,0-0.803,0.036-1.091,0.072l0.504-3.742h3.73V82.118z"/>
	</g>
	<g>
		<path d="M8.529,41.364c-0.216-0.012-0.492,0.012-0.792,0.06c-1.667,0.264-2.531,1.463-2.71,2.758h0.024
			c0.372-0.503,1.031-0.911,1.895-0.911c1.379,0,2.351,1.007,2.351,2.519c0,1.439-0.972,2.758-2.603,2.758
			c-1.655,0-2.747-1.295-2.747-3.322c0-1.535,0.54-2.746,1.319-3.514c0.647-0.636,1.511-1.032,2.495-1.151
			c0.312-0.048,0.576-0.06,0.768-0.06V41.364z M8.229,45.861c0-1.115-0.636-1.787-1.607-1.787c-0.636,0-1.235,0.384-1.523,0.959
			c-0.06,0.12-0.108,0.264-0.108,0.456c0.012,1.283,0.612,2.243,1.727,2.243C7.618,47.732,8.229,46.977,8.229,45.861z"/>
	</g>
	<g>
		<path d="M9.251,0v0.696l-3.395,7.1H4.765L8.147,0.9V0.875H4.333V0H9.251z"/>
	</g>
	<g>
		<path d="M4.392,329.524v0.768H1.43v-0.768H4.392z"/>
		<path d="M7.584,326.333H7.56l-1.355,0.731l-0.204-0.803l1.703-0.912h0.899v7.796h-1.02V326.333z"/>
	</g>
	<g>
		<path d="M3.042,370.134v0.768H0.08v-0.768H3.042z"/>
		<path d="M3.944,373.756v-0.647l0.828-0.804c1.991-1.895,2.902-2.902,2.902-4.078c0-0.791-0.372-1.522-1.535-1.522
			c-0.708,0-1.295,0.359-1.655,0.659l-0.336-0.743c0.528-0.444,1.308-0.792,2.195-0.792c1.679,0,2.387,1.151,2.387,2.267
			c0,1.439-1.043,2.603-2.687,4.186l-0.611,0.576v0.023h3.49v0.876H3.944z"/>
	</g>
	<g>
		<path d="M2.962,410.753v0.768H0v-0.768H2.962z"/>
		<path d="M4.116,413.176c0.3,0.18,0.983,0.479,1.727,0.479c1.343,0,1.775-0.852,1.763-1.511c-0.012-1.092-0.995-1.56-2.015-1.56
			H5.003v-0.791h0.588c0.768,0,1.739-0.396,1.739-1.319c0-0.624-0.396-1.176-1.368-1.176c-0.624,0-1.223,0.276-1.559,0.516
			l-0.288-0.768c0.419-0.3,1.211-0.6,2.051-0.6c1.535,0,2.231,0.911,2.231,1.859c0,0.815-0.492,1.499-1.439,1.847v0.024
			c0.959,0.18,1.727,0.899,1.739,1.99c0,1.248-0.983,2.339-2.843,2.339c-0.875,0-1.643-0.275-2.027-0.527L4.116,413.176z"/>
	</g>
	<g>
		<path d="M55.291,294.643h-0.024l-1.355,0.731l-0.204-0.803l1.703-0.912h0.9v7.796h-1.02V294.643z"/>
	</g>
	<g>
		<path d="M94.58,301.456v-0.647l0.828-0.804c1.991-1.895,2.902-2.902,2.902-4.078c0-0.791-0.372-1.522-1.535-1.522
			c-0.708,0-1.295,0.359-1.655,0.659l-0.336-0.743c0.528-0.444,1.307-0.792,2.195-0.792c1.679,0,2.387,1.151,2.387,2.267
			c0,1.439-1.043,2.603-2.687,4.186l-0.612,0.576v0.023h3.49v0.876H94.58z"/>
	</g>
	<g>
		<path d="M135.361,300.187c0.3,0.18,0.983,0.479,1.727,0.479c1.343,0,1.775-0.852,1.763-1.511c-0.012-1.092-0.996-1.56-2.015-1.56
			h-0.587v-0.791h0.587c0.768,0,1.739-0.396,1.739-1.319c0-0.624-0.396-1.176-1.367-1.176c-0.624,0-1.224,0.276-1.559,0.516
			l-0.288-0.768c0.42-0.3,1.211-0.6,2.051-0.6c1.535,0,2.231,0.911,2.231,1.859c0,0.815-0.492,1.499-1.439,1.847v0.024
			c0.959,0.18,1.727,0.899,1.739,1.99c0,1.247-0.983,2.339-2.842,2.339c-0.875,0-1.643-0.275-2.027-0.527L135.361,300.187z"/>
	</g>
	<g>
		<path d="M179.212,301.456v-2.135h-3.622v-0.684l3.479-4.978h1.14v4.846h1.091v0.815h-1.091v2.135H179.212z M179.212,298.505
			v-2.603c0-0.408,0.012-0.815,0.036-1.224h-0.036c-0.239,0.456-0.432,0.792-0.647,1.151l-1.907,2.65v0.024H179.212z"/>
	</g>
	<g>
		<path d="M221.374,294.398h-2.975l-0.3,2.003c0.18-0.024,0.348-0.036,0.636-0.036c0.611,0,1.199,0.12,1.679,0.42
			c0.612,0.336,1.115,1.02,1.115,1.991c0,1.522-1.211,2.662-2.902,2.662c-0.852,0-1.559-0.24-1.942-0.479l0.264-0.804
			c0.324,0.191,0.959,0.432,1.679,0.432c0.983,0,1.848-0.647,1.835-1.691c0-1.007-0.684-1.715-2.23-1.715
			c-0.456,0-0.804,0.036-1.092,0.072l0.504-3.742h3.73V294.398z"/>
	</g>
	<g>
		<path d="M261.879,293.964c-0.216-0.013-0.492,0.012-0.792,0.06c-1.667,0.264-2.53,1.463-2.71,2.759h0.023
			c0.372-0.504,1.032-0.912,1.896-0.912c1.379,0,2.351,1.008,2.351,2.519c0,1.439-0.972,2.759-2.603,2.759
			c-1.655,0-2.746-1.295-2.746-3.322c0-1.535,0.539-2.746,1.318-3.514c0.648-0.636,1.512-1.031,2.495-1.151
			c0.312-0.048,0.575-0.061,0.768-0.061V293.964z M261.579,298.461c0-1.115-0.636-1.787-1.607-1.787
			c-0.636,0-1.235,0.384-1.522,0.96c-0.061,0.12-0.108,0.264-0.108,0.455c0.012,1.283,0.611,2.243,1.728,2.243
			C260.968,300.333,261.579,299.577,261.579,298.461z"/>
	</g>
	<g>
		<path d="M304.451,293.59v0.695l-3.394,7.101h-1.092l3.382-6.896v-0.023h-3.813v-0.876H304.451z"/>
	</g>
</g>
<g id="Graph">
	
		<line fill-rule="evenodd" clip-rule="evenodd" fill="none" stroke="#FF0000" stroke-width="4" stroke-linecap="round" stroke-linejoin="round" x1="17.04" y1="287.856" x2="299.96" y2="4.926"/>
	
		<path fill-rule="evenodd" clip-rule="evenodd" fill="none" stroke="#03BD00" stroke-width="4" stroke-linecap="round" stroke-linejoin="round" d="
		M302.21,209.667c-1.359,0.189-2.73,0.39-4.09,0.589c-1.37,0.19-2.73,0.391-4.1,0.591c-1.36,0.2-2.73,0.409-4.091,0.609
		c-1.37,0.2-2.729,0.411-4.1,0.62c-1.36,0.2-2.729,0.41-4.09,0.62c-1.37,0.21-2.73,0.421-4.101,0.641
		c-1.359,0.21-2.729,0.43-4.09,0.64c-1.37,0.22-2.73,0.44-4.1,0.66c-1.36,0.22-2.73,0.439-4.091,0.66
		c-1.369,0.229-2.729,0.45-4.1,0.68s-2.729,0.46-4.1,0.69c-1.36,0.229-2.72,0.459-4.091,0.7c-1.369,0.229-2.729,0.47-4.1,0.709
		c-1.36,0.24-2.729,0.48-4.09,0.73c-1.37,0.24-2.729,0.49-4.1,0.73c-1.36,0.25-2.73,0.5-4.09,0.75c-1.371,0.26-2.73,0.51-4.101,0.77
		c-1.36,0.26-2.73,0.52-4.09,0.78c-1.37,0.26-2.729,0.53-4.1,0.8c-1.36,0.26-2.73,0.53-4.091,0.81
		c-1.369,0.271-2.729,0.551-4.1,0.82c-1.359,0.28-2.73,0.56-4.09,0.851c-1.37,0.279-2.73,0.569-4.1,0.859
		c-1.36,0.29-2.73,0.58-4.091,0.88c-1.37,0.3-2.739,0.6-4.1,0.899c-1.359,0.311-2.729,0.611-4.09,0.921
		c-1.37,0.31-2.74,0.63-4.101,0.94c-1.369,0.319-2.729,0.639-4.09,0.97c-1.37,0.319-2.74,0.649-4.1,0.989
		c-1.37,0.33-2.729,0.671-4.1,1.011c-1.36,0.34-2.73,0.68-4.091,1.03c-1.37,0.35-2.729,0.709-4.1,1.069
		c-1.36,0.36-2.73,0.72-4.091,1.09c-1.369,0.37-2.729,0.74-4.099,1.12c-1.361,0.38-2.73,0.771-4.091,1.16
		c-1.37,0.39-2.729,0.78-4.1,1.18c-1.36,0.41-2.73,0.811-4.09,1.23c-1.37,0.409-2.73,0.83-4.1,1.26c-1.36,0.42-2.73,0.86-4.09,1.3
		c-1.37,0.44-2.73,0.891-4.1,1.341c-1.36,0.459-2.73,0.919-4.09,1.389c-1.37,0.471-2.73,0.95-4.1,1.44
		c-1.36,0.49-2.73,0.98-4.1,1.49c-1.36,0.5-2.73,1.02-4.09,1.55c-1.37,0.52-2.73,1.061-4.1,1.601c-1.36,0.55-2.73,1.109-4.09,1.68
		c-1.37,0.56-2.73,1.14-4.1,1.739c-1.36,0.591-2.73,1.2-4.09,1.82c-1.37,0.62-2.73,1.261-4.1,1.91c-1.36,0.65-2.73,1.311-4.09,2
		c-1.37,0.681-2.73,1.381-4.1,2.101c-1.36,0.72-2.73,1.46-4.09,2.22c-1.37,0.75-2.73,1.54-4.1,2.34c-1.36,0.8-2.73,1.63-4.09,2.49
		c-1.37,0.85-2.73,1.73-4.1,2.64c-1.36,0.91-2.73,1.85-4.09,2.83c-1.37,0.98-2.74,1.99-4.1,3.04c-1.36,1.05-2.73,2.15-4.09,3.29
		c-1.37,1.14-2.74,2.33-4.1,3.569c-1.37,1.241-2.73,2.541-4.09,3.911c-1.37,1.38-2.74,2.81-4.1,4.339
		c-1.37,1.521-2.73,3.131-4.1,4.841c-1.36,1.72-2.73,3.54-4.09,5.5c-1.37,1.97-2.73,4.07-4.1,6.37c-1.36,2.3-2.73,4.78-4.09,7.55
		c-1.37,2.771-2.73,5.81-4.1,9.3c-1.36,3.49-2.73,7.42-4.43,13.53c-1.71,6.109-3.76,14.42-7.85,42.8"/>
</g>
</svg>
