<?xml version="1.0" encoding="utf-8"?>
<!-- Generator: Adobe Illustrator 14.0.0, SVG Export Plug-In . SVG Version: 6.00 Build 43363)  -->
<!DOCTYPE svg PUBLIC "-//W3C//DTD SVG 1.0//EN" "http://www.w3.org/TR/2001/REC-SVG-20010904/DTD/svg10.dtd">
<svg version="1.0" xmlns="http://www.w3.org/2000/svg" xmlns:xlink="http://www.w3.org/1999/xlink" x="0px" y="0px" width="56.85px"
	 height="56.83px" viewBox="0 0 56.85 56.83" enable-background="new 0 0 56.85 56.83" xml:space="preserve">
<g id="Grids">
	<g>
		<g>
			<g>
				
					<line fill-rule="evenodd" clip-rule="evenodd" fill="none" stroke="#D4D4D4" stroke-width="0.27" stroke-linecap="round" stroke-linejoin="round" x1="7.165" y1="29.345" x2="56.415" y2="42.325"/>
				
					<line fill-rule="evenodd" clip-rule="evenodd" fill="none" stroke="#D4D4D4" stroke-width="0.27" stroke-linecap="round" stroke-linejoin="round" x1="43.104" y1="56.695" x2="56.415" y2="31.905"/>
				
					<line fill-rule="evenodd" clip-rule="evenodd" fill="none" stroke="#D4D4D4" stroke-width="0.27" stroke-linecap="round" stroke-linejoin="round" x1="17.774" y1="21.885" x2="56.415" y2="30.325"/>
				
					<line fill-rule="evenodd" clip-rule="evenodd" fill="none" stroke="#D4D4D4" stroke-width="0.27" stroke-linecap="round" stroke-linejoin="round" x1="16.595" y1="22.705" x2="56.415" y2="31.595"/>
				
					<line fill-rule="evenodd" clip-rule="evenodd" fill="none" stroke="#D4D4D4" stroke-width="0.27" stroke-linecap="round" stroke-linejoin="round" x1="15.385" y1="23.565" x2="56.415" y2="32.925"/>
				
					<line fill-rule="evenodd" clip-rule="evenodd" fill="none" stroke="#D4D4D4" stroke-width="0.27" stroke-linecap="round" stroke-linejoin="round" x1="14.135" y1="24.445" x2="56.415" y2="34.315"/>
				
					<line fill-rule="evenodd" clip-rule="evenodd" fill="none" stroke="#D4D4D4" stroke-width="0.27" stroke-linecap="round" stroke-linejoin="round" x1="47.265" y1="56.695" x2="56.415" y2="37.935"/>
				
					<line fill-rule="evenodd" clip-rule="evenodd" fill="none" stroke="#D4D4D4" stroke-width="0.27" stroke-linecap="round" stroke-linejoin="round" x1="11.495" y1="26.295" x2="56.415" y2="37.285"/>
				
					<line fill-rule="evenodd" clip-rule="evenodd" fill="none" stroke="#D4D4D4" stroke-width="0.27" stroke-linecap="round" stroke-linejoin="round" x1="10.104" y1="27.275" x2="56.415" y2="38.885"/>
				
					<line fill-rule="evenodd" clip-rule="evenodd" fill="none" stroke="#D4D4D4" stroke-width="0.27" stroke-linecap="round" stroke-linejoin="round" x1="8.654" y1="28.285" x2="56.415" y2="40.555"/>
				
					<line fill-rule="evenodd" clip-rule="evenodd" fill="none" stroke="#D4D4D4" stroke-width="0.27" stroke-linecap="round" stroke-linejoin="round" x1="22.314" y1="56.695" x2="45.694" y2="26.815"/>
				
					<line fill-rule="evenodd" clip-rule="evenodd" fill="none" stroke="#D4D4D4" stroke-width="0.27" stroke-linecap="round" stroke-linejoin="round" x1="0.135" y1="41.865" x2="44.795" y2="56.695"/>
				
					<line fill-rule="evenodd" clip-rule="evenodd" fill="none" stroke="#D4D4D4" stroke-width="0.27" stroke-linecap="round" stroke-linejoin="round" x1="0.135" y1="44.205" x2="36.524" y2="56.695"/>
				
					<line fill-rule="evenodd" clip-rule="evenodd" fill="none" stroke="#D4D4D4" stroke-width="0.27" stroke-linecap="round" stroke-linejoin="round" x1="38.954" y1="56.695" x2="55.254" y2="28.865"/>
				
					<line fill-rule="evenodd" clip-rule="evenodd" fill="none" stroke="#D4D4D4" stroke-width="0.27" stroke-linecap="round" stroke-linejoin="round" x1="34.795" y1="56.695" x2="52.795" y2="28.335"/>
				
					<line fill-rule="evenodd" clip-rule="evenodd" fill="none" stroke="#D4D4D4" stroke-width="0.27" stroke-linecap="round" stroke-linejoin="round" x1="0.135" y1="46.705" x2="28.254" y2="56.695"/>
				
					<line fill-rule="evenodd" clip-rule="evenodd" fill="none" stroke="#D4D4D4" stroke-width="0.27" stroke-linecap="round" stroke-linejoin="round" x1="26.475" y1="56.695" x2="48.024" y2="27.315"/>
				
					<line fill-rule="evenodd" clip-rule="evenodd" fill="none" stroke="#D4D4D4" stroke-width="0.27" stroke-linecap="round" stroke-linejoin="round" x1="0.135" y1="35.675" x2="53.555" y2="51.845"/>
				
					<line fill-rule="evenodd" clip-rule="evenodd" fill="none" stroke="#D4D4D4" stroke-width="0.27" stroke-linecap="round" stroke-linejoin="round" x1="0.135" y1="44.255" x2="26.524" y2="22.715"/>
				
					<line fill-rule="evenodd" clip-rule="evenodd" fill="none" stroke="#D4D4D4" stroke-width="0.27" stroke-linecap="round" stroke-linejoin="round" x1="0.135" y1="41.475" x2="24.574" y2="22.305"/>
				
					<line fill-rule="evenodd" clip-rule="evenodd" fill="none" stroke="#D4D4D4" stroke-width="0.27" stroke-linecap="round" stroke-linejoin="round" x1="0.135" y1="38.895" x2="22.654" y2="21.885"/>
				
					<line fill-rule="evenodd" clip-rule="evenodd" fill="none" stroke="#D4D4D4" stroke-width="0.27" stroke-linecap="round" stroke-linejoin="round" x1="0.135" y1="39.675" x2="51.635" y2="56.235"/>
				
					<line fill-rule="evenodd" clip-rule="evenodd" fill="none" stroke="#D4D4D4" stroke-width="0.27" stroke-linecap="round" stroke-linejoin="round" x1="0.135" y1="36.505" x2="20.765" y2="21.485"/>
				
					<line fill-rule="evenodd" clip-rule="evenodd" fill="none" stroke="#D4D4D4" stroke-width="0.27" stroke-linecap="round" stroke-linejoin="round" x1="6.595" y1="51.765" x2="34.685" y2="24.465"/>
				
					<line fill-rule="evenodd" clip-rule="evenodd" fill="none" stroke="#D4D4D4" stroke-width="0.27" stroke-linecap="round" stroke-linejoin="round" x1="3.784" y1="50.735" x2="32.595" y2="24.015"/>
				
					<line fill-rule="evenodd" clip-rule="evenodd" fill="none" stroke="#D4D4D4" stroke-width="0.27" stroke-linecap="round" stroke-linejoin="round" x1="1.055" y1="49.725" x2="30.534" y2="23.575"/>
				
					<line fill-rule="evenodd" clip-rule="evenodd" fill="none" stroke="#D4D4D4" stroke-width="0.27" stroke-linecap="round" stroke-linejoin="round" x1="9.464" y1="52.825" x2="36.805" y2="24.915"/>
				
					<line fill-rule="evenodd" clip-rule="evenodd" fill="none" stroke="#D4D4D4" stroke-width="0.27" stroke-linecap="round" stroke-linejoin="round" x1="15.464" y1="55.035" x2="41.175" y2="25.855"/>
				
					<line fill-rule="evenodd" clip-rule="evenodd" fill="none" stroke="#D4D4D4" stroke-width="0.27" stroke-linecap="round" stroke-linejoin="round" x1="18.585" y1="56.185" x2="43.415" y2="26.325"/>
				
					<line fill-rule="evenodd" clip-rule="evenodd" fill="none" stroke="#D4D4D4" stroke-width="0.27" stroke-linecap="round" stroke-linejoin="round" x1="2.314" y1="32.745" x2="55.284" y2="47.885"/>
				
					<line fill-rule="evenodd" clip-rule="evenodd" fill="none" stroke="#D4D4D4" stroke-width="0.27" stroke-linecap="round" stroke-linejoin="round" x1="0.564" y1="33.975" x2="54.444" y2="49.815"/>
				
					<line fill-rule="evenodd" clip-rule="evenodd" fill="none" stroke="#D4D4D4" stroke-width="0.27" stroke-linecap="round" stroke-linejoin="round" x1="3.995" y1="31.565" x2="56.095" y2="46.045"/>
			</g>
			<g>
				
					<line fill-rule="evenodd" clip-rule="evenodd" fill="none" stroke="#8A8A8A" stroke-width="0.27" stroke-linecap="round" stroke-linejoin="round" x1="18.904" y1="21.085" x2="56.415" y2="29.105"/>
				
					<line fill-rule="evenodd" clip-rule="evenodd" fill="none" stroke="#8A8A8A" stroke-width="0.27" stroke-linecap="round" stroke-linejoin="round" x1="12.835" y1="25.355" x2="56.415" y2="35.765"/>
				
					<line fill-rule="evenodd" clip-rule="evenodd" fill="none" stroke="#8A8A8A" stroke-width="0.27" stroke-linecap="round" stroke-linejoin="round" x1="51.425" y1="56.695" x2="56.415" y2="45.325"/>
				
					<line fill-rule="evenodd" clip-rule="evenodd" fill="none" stroke="#8A8A8A" stroke-width="0.27" stroke-linecap="round" stroke-linejoin="round" x1="30.635" y1="56.695" x2="50.385" y2="27.825"/>
				
					<line fill-rule="evenodd" clip-rule="evenodd" fill="none" stroke="#8A8A8A" stroke-width="0.27" stroke-linecap="round" stroke-linejoin="round" x1="0.135" y1="49.385" x2="19.984" y2="56.695"/>
				
					<line fill-rule="evenodd" clip-rule="evenodd" fill="none" stroke="#8A8A8A" stroke-width="0.27" stroke-linecap="round" stroke-linejoin="round" x1="0.135" y1="47.275" x2="28.515" y2="23.145"/>
				
					<line fill-rule="evenodd" clip-rule="evenodd" fill="none" stroke="#8A8A8A" stroke-width="0.27" stroke-linecap="round" stroke-linejoin="round" x1="0.135" y1="37.615" x2="52.614" y2="53.975"/>
				
					<line fill-rule="evenodd" clip-rule="evenodd" fill="none" stroke="#8A8A8A" stroke-width="0.27" stroke-linecap="round" stroke-linejoin="round" x1="0.135" y1="34.285" x2="18.904" y2="21.085"/>
				
					<line fill-rule="evenodd" clip-rule="evenodd" fill="none" stroke="#8A8A8A" stroke-width="0.27" stroke-linecap="round" stroke-linejoin="round" x1="28.504" y1="36.625" x2="5.604" y2="30.435"/>
				
					<line fill-rule="evenodd" clip-rule="evenodd" fill="none" stroke="#8A8A8A" stroke-width="0.27" stroke-linecap="round" stroke-linejoin="round" x1="28.504" y1="36.625" x2="12.425" y2="53.915"/>
			</g>
			
				<line fill-rule="evenodd" clip-rule="evenodd" fill="none" stroke="#12AB00" stroke-width="0.55" stroke-linecap="round" stroke-linejoin="round" x1="38.975" y1="25.385" x2="28.504" y2="36.625"/>
			
				<line fill-rule="evenodd" clip-rule="evenodd" fill="none" stroke="#A80000" stroke-width="0.55" stroke-linecap="round" stroke-linejoin="round" x1="56.415" y1="44.175" x2="28.504" y2="36.625"/>
		</g>
		
			<rect x="0.254" y="0.125" fill-rule="evenodd" clip-rule="evenodd" fill="none" stroke="#000000" stroke-width="0.25" width="56.471" height="56.43"/>
	</g>
</g>
<g id="Text">
	<path fill-rule="evenodd" clip-rule="evenodd" d="M42.324,28.155l1.41-0.3c0.101,0.24,0.181,0.48,0.24,0.73
		c0.09,0.37,0.16,0.81,0.22,1.31c0.02,0.26,0.06,0.79,0.101,1.61c0.409-0.45,0.649-0.72,0.729-0.83c0.43-0.58,0.68-0.93,0.74-1.03
		c0.109-0.17,0.189-0.32,0.23-0.45c0.029-0.1,0.05-0.19,0.05-0.28c0-0.08-0.07-0.18-0.221-0.29c-0.159-0.11-0.229-0.24-0.229-0.37
		c0-0.11,0.04-0.2,0.119-0.28c0.091-0.08,0.181-0.12,0.301-0.12c0.13,0,0.26,0.05,0.359,0.16c0.101,0.12,0.16,0.26,0.16,0.42
		c0,0.17-0.03,0.33-0.08,0.48c-0.09,0.25-0.24,0.55-0.479,0.91c-0.229,0.35-0.601,0.83-1.11,1.43c-0.069,0.07-0.43,0.45-1.09,1.13
		h-0.18c-0.08-2.06-0.24-3.34-0.49-3.86c-0.08-0.16-0.21-0.24-0.4-0.24c-0.08,0-0.2,0.01-0.35,0.04L42.324,28.155z"/>
	<path fill-rule="evenodd" clip-rule="evenodd" d="M4.944,14.595l-0.649,2.22c0.6-0.91,1.069-1.51,1.39-1.79
		c0.33-0.29,0.64-0.43,0.939-0.43c0.16,0,0.301,0.05,0.4,0.16c0.11,0.1,0.16,0.24,0.16,0.42c0,0.19-0.05,0.45-0.14,0.78l-0.601,2.05
		c-0.06,0.24-0.1,0.39-0.1,0.44c0,0.04,0.01,0.08,0.04,0.11s0.05,0.05,0.079,0.05c0.04,0,0.091-0.02,0.141-0.06
		c0.18-0.14,0.37-0.35,0.57-0.63l0.149,0.09c-0.3,0.44-0.59,0.75-0.86,0.93c-0.189,0.13-0.35,0.19-0.5,0.19
		c-0.119,0-0.219-0.03-0.289-0.11c-0.07-0.07-0.11-0.17-0.11-0.29c0-0.16,0.06-0.43,0.17-0.81l0.561-1.96
		c0.069-0.25,0.109-0.44,0.109-0.57c0-0.07-0.02-0.12-0.06-0.16c-0.05-0.04-0.1-0.06-0.16-0.06c-0.09,0-0.2,0.04-0.33,0.11
		c-0.24,0.15-0.49,0.39-0.75,0.73c-0.26,0.34-0.53,0.77-0.82,1.29c-0.16,0.28-0.28,0.58-0.39,0.91l-0.24,0.8H2.925l0.89-3.05
		c0.101-0.37,0.149-0.59,0.149-0.67c0-0.07-0.029-0.13-0.079-0.18c-0.061-0.06-0.131-0.08-0.21-0.08c-0.04,0-0.11,0-0.211,0.02
		l-0.189,0.02l-0.021-0.17L4.944,14.595z"/>
	<polygon fill-rule="evenodd" clip-rule="evenodd" points="7.055,13.635 7.214,13.155 3.704,13.155 3.704,12.905 7.214,12.905 
		7.055,12.435 8.854,13.035 	"/>
	<polygon fill-rule="evenodd" clip-rule="evenodd" points="45.604,26.835 45.765,26.355 42.254,26.355 42.254,26.105 45.765,26.105 
		45.604,25.635 47.404,26.235 	"/>
	<g>
		<path d="M30.793,47.178l0.65,2.458c0.13,0.54,0.26,1.04,0.35,1.54h0.029c0.11-0.49,0.271-1.01,0.431-1.529l0.789-2.469h0.739
			l0.75,2.419c0.18,0.58,0.319,1.089,0.43,1.579h0.03c0.08-0.49,0.21-1,0.369-1.569l0.69-2.429h0.869l-1.56,4.837h-0.799
			l-0.74-2.309c-0.17-0.54-0.31-1.02-0.43-1.589h-0.02c-0.12,0.58-0.271,1.08-0.44,1.599l-0.779,2.299h-0.8l-1.459-4.837H30.793z"/>
	</g>
	<polygon fill-rule="evenodd" clip-rule="evenodd" points="35.864,47.005 36.015,46.535 29.685,46.535 29.685,46.285 36.015,46.285 
		35.864,45.805 37.654,46.405 	"/>
</g>
<g id="Vectors">
	<polygon fill-rule="evenodd" clip-rule="evenodd" points="28.864,37.135 28.415,36.245 38.614,30.975 37.864,30.245 42.534,29.515 
		39.234,32.905 39.074,31.865 	"/>
	<polygon fill-rule="evenodd" clip-rule="evenodd" points="28.225,36.885 5.624,22.445 5.364,23.465 2.385,19.785 6.975,20.945 
		6.154,21.605 28.754,36.045 	"/>
	<polygon fill-rule="evenodd" clip-rule="evenodd" points="28.495,55.495 26.995,51.005 27.995,51.335 27.995,36.615 28.984,36.615 
		28.984,51.335 29.984,51.005 	"/>
	<polygon fill-rule="evenodd" clip-rule="evenodd" points="32.665,35.105 28.284,31.885 23.854,33.755 23.464,32.825 28.425,30.745 
		33.254,34.295 	"/>
	<polygon fill-rule="evenodd" clip-rule="evenodd" points="27.995,42.205 23.185,38.815 23.185,33.485 24.185,33.485 24.185,38.295 
		28.574,41.385 	"/>
</g>
<g id="Other">
</g>
</svg>
