<?xml version="1.0" encoding="utf-8"?>
<!-- Generator: Adobe Illustrator 14.0.0, SVG Export Plug-In . SVG Version: 6.00 Build 43363)  -->
<!DOCTYPE svg PUBLIC "-//W3C//DTD SVG 1.0//EN" "http://www.w3.org/TR/2001/REC-SVG-20010904/DTD/svg10.dtd">
<svg version="1.0" id="Layer_1" xmlns="http://www.w3.org/2000/svg" xmlns:xlink="http://www.w3.org/1999/xlink" x="0px" y="0px"
	 width="469.984px" height="158.96px" viewBox="0 0 469.984 158.96" enable-background="new 0 0 469.984 158.96"
	 xml:space="preserve">
<path fill-rule="evenodd" clip-rule="evenodd" fill="none" stroke="#FF0000" stroke-width="3" stroke-linecap="round" stroke-linejoin="round" d="
	M59.481,22.88c-52.49,78-18.7,95.97,7.98,88.8"/>
<path fill-rule="evenodd" clip-rule="evenodd" fill="none" stroke="#FFB800" stroke-width="3" stroke-linecap="round" stroke-linejoin="round" d="
	M67.461,111.68c26.68-7.16,46.26-39.47,64.6-56.42"/>
<path fill-rule="evenodd" clip-rule="evenodd" fill="none" stroke="#75FF00" stroke-width="3" stroke-linecap="round" stroke-linejoin="round" d="
	M132.062,55.26c18.35-16.94,35.47-18.53,47.29-15.87"/>
<path fill-rule="evenodd" clip-rule="evenodd" fill="none" stroke="#00FF80" stroke-width="3" stroke-linecap="round" stroke-linejoin="round" d="
	M179.352,39.39c11.83,2.66,18.36,9.57,7.94,27.37"/>
<path fill-rule="evenodd" clip-rule="evenodd" fill="none" stroke="#00C7CC" stroke-width="3" stroke-linecap="round" stroke-linejoin="round" d="
	M187.292,66.76c-10.42,17.791-37.79,46.47-27.78,46.64"/>
<path fill-rule="evenodd" clip-rule="evenodd" fill="none" stroke="#001FFF" stroke-width="3" stroke-linecap="round" stroke-linejoin="round" d="
	M159.511,113.4c10.02,0.17,57.42-28.17,94.01-17.13"/>
<path fill-rule="evenodd" clip-rule="evenodd" fill="none" stroke="#B200FF" stroke-width="3" stroke-linecap="round" stroke-linejoin="round" d="
	M253.521,96.27c36.58,11.04,62.34,61.449,194.98-13.189"/>
<path fill-rule="evenodd" clip-rule="evenodd" fill="#FFFFFF" stroke="#000000" stroke-linecap="round" stroke-linejoin="round" d="
	M255.051,95.39c-0.49-0.851-1.569-1.14-2.41-0.65c-0.85,0.49-1.14,1.57-0.65,2.41c0.48,0.851,1.561,1.14,2.411,0.65
	C255.251,97.32,255.542,96.24,255.051,95.39z"/>
<path fill-rule="evenodd" clip-rule="evenodd" fill="#FFFFFF" stroke="#000000" stroke-linecap="round" stroke-linejoin="round" d="
	M161.051,112.52c-0.49-0.851-1.57-1.14-2.42-0.65c-0.85,0.48-1.14,1.561-0.65,2.41c0.49,0.851,1.57,1.14,2.41,0.65
	C161.241,114.45,161.531,113.36,161.051,112.52z"/>
<path fill-rule="evenodd" clip-rule="evenodd" fill="#FFFFFF" stroke="#000000" stroke-linecap="round" stroke-linejoin="round" d="
	M188.821,65.87c-0.48-0.84-1.57-1.13-2.41-0.65c-0.85,0.49-1.14,1.57-0.65,2.42c0.49,0.84,1.57,1.14,2.41,0.65
	C189.021,67.8,189.312,66.72,188.821,65.87z"/>
<path fill-rule="evenodd" clip-rule="evenodd" fill="#FFFFFF" stroke="#000000" stroke-linecap="round" stroke-linejoin="round" d="
	M180.892,38.51c-0.49-0.85-1.57-1.14-2.42-0.65c-0.84,0.49-1.14,1.57-0.65,2.41c0.49,0.85,1.57,1.14,2.42,0.65
	C181.082,40.44,181.372,39.36,180.892,38.51z"/>
<path fill-rule="evenodd" clip-rule="evenodd" fill="#FFFFFF" stroke="#000000" stroke-linecap="round" stroke-linejoin="round" d="
	M133.602,54.38c-0.49-0.84-1.57-1.13-2.42-0.65c-0.84,0.49-1.14,1.57-0.65,2.42c0.49,0.84,1.57,1.13,2.41,0.65
	C133.792,56.31,134.082,55.23,133.602,54.38z"/>
<path fill-rule="evenodd" clip-rule="evenodd" fill="#FFFFFF" stroke="#000000" stroke-linecap="round" stroke-linejoin="round" d="
	M68.991,110.8c-0.48-0.851-1.57-1.141-2.41-0.65c-0.85,0.49-1.14,1.569-0.65,2.42c0.48,0.84,1.57,1.13,2.41,0.649
	C69.191,112.73,69.481,111.65,68.991,110.8z"/>
<polyline fill-rule="evenodd" clip-rule="evenodd" fill="none" stroke="#000000" stroke-width="0.5" stroke-linecap="round" stroke-linejoin="round" stroke-dasharray="0.99,0.99" points="
	59.481,22.88 6.992,100.88 74.571,136.82 133.292,39.91 184.651,35.14 204.241,55.87 122.122,141.91 264.341,56.9 315.861,157.719 
	448.501,83.081 "/>
<path fill-rule="evenodd" clip-rule="evenodd" d="M132.181,39.94c0-0.58,0.47-1.05,1.05-1.05c0.57,0,1.05,0.47,1.05,1.05
	s-0.48,1.05-1.05,1.05C132.651,40.99,132.181,40.52,132.181,39.94z"/>
<path fill-rule="evenodd" clip-rule="evenodd" d="M183.551,35.21c0-0.57,0.47-1.05,1.05-1.05c0.58,0,1.05,0.48,1.05,1.05
	c0,0.58-0.47,1.05-1.05,1.05C184.021,36.26,183.551,35.79,183.551,35.21z"/>
<path fill-rule="evenodd" clip-rule="evenodd" d="M203.431,55.76c0-0.57,0.47-1.05,1.05-1.05c0.57,0,1.05,0.48,1.05,1.05
	c0,0.58-0.48,1.05-1.05,1.05C203.901,56.81,203.431,56.34,203.431,55.76z"/>
<path fill-rule="evenodd" clip-rule="evenodd" d="M121.151,142.01c0-0.57,0.47-1.05,1.05-1.05c0.58,0,1.05,0.479,1.05,1.05
	c0,0.579-0.47,1.05-1.05,1.05C121.622,143.06,121.151,142.589,121.151,142.01z"/>
<path fill-rule="evenodd" clip-rule="evenodd" d="M263.282,56.81c0-0.57,0.47-1.05,1.05-1.05c0.57,0,1.05,0.48,1.05,1.05
	c0,0.58-0.479,1.05-1.05,1.05C263.751,57.86,263.282,57.39,263.282,56.81z"/>
<path fill-rule="evenodd" clip-rule="evenodd" d="M314.732,157.91c0-0.57,0.469-1.05,1.05-1.05c0.569,0,1.05,0.479,1.05,1.05
	c0,0.58-0.48,1.051-1.05,1.051C315.201,158.96,314.732,158.49,314.732,157.91z"/>
<path fill-rule="evenodd" clip-rule="evenodd" d="M73.451,136.91c0-0.57,0.47-1.05,1.05-1.05s1.05,0.479,1.05,1.05
	c0,0.58-0.47,1.051-1.05,1.051S73.451,137.49,73.451,136.91z"/>
<path fill-rule="evenodd" clip-rule="evenodd" d="M5.951,100.91c0-0.57,0.47-1.05,1.05-1.05c0.58,0,1.05,0.479,1.05,1.05
	c0,0.58-0.47,1.051-1.05,1.051C6.421,101.96,5.951,101.49,5.951,100.91z"/>
<path fill-rule="evenodd" clip-rule="evenodd" fill="#FFFFFF" stroke="#000000" stroke-linecap="round" stroke-linejoin="round" d="
	M61.912,20.46c-0.49-0.84-1.57-1.13-2.42-0.65c-0.84,0.49-1.14,1.57-0.65,2.42c0.49,0.84,1.57,1.13,2.42,0.65
	C62.102,22.39,62.392,21.31,61.912,20.46z"/>
<path fill-rule="evenodd" clip-rule="evenodd" fill="#FFFFFF" stroke="#000000" stroke-linecap="round" stroke-linejoin="round" d="
	M58.771,22.09c-0.49-0.84-1.57-1.13-2.41-0.65c-0.85,0.49-1.14,1.57-0.65,2.42c0.48,0.84,1.57,1.14,2.41,0.65
	C58.971,24.02,59.261,22.94,58.771,22.09z"/>
<path fill-rule="evenodd" clip-rule="evenodd" fill="#FFFFFF" stroke="#000000" stroke-linecap="round" stroke-linejoin="round" d="
	M61.872,24.01c-0.49-0.85-1.57-1.14-2.42-0.65c-0.84,0.48-1.13,1.57-0.65,2.41c0.49,0.85,1.57,1.14,2.42,0.65
	C62.062,25.94,62.352,24.85,61.872,24.01z"/>
<path fill-rule="evenodd" clip-rule="evenodd" fill="#FFFFFF" stroke="#000000" stroke-linecap="round" stroke-linejoin="round" d="
	M451.631,81.4c-0.49-0.85-1.57-1.14-2.42-0.65c-0.851,0.49-1.14,1.57-0.65,2.419c0.49,0.841,1.57,1.131,2.421,0.65
	C451.822,83.331,452.111,82.25,451.631,81.4z"/>
<path fill-rule="evenodd" clip-rule="evenodd" fill="#FFFFFF" stroke="#000000" stroke-linecap="round" stroke-linejoin="round" d="
	M448.101,81.16c-0.49-0.85-1.57-1.14-2.41-0.65c-0.85,0.48-1.14,1.56-0.649,2.41c0.479,0.851,1.56,1.141,2.409,0.65
	C448.301,83.081,448.591,82,448.101,81.16z"/>
<path fill-rule="evenodd" clip-rule="evenodd" fill="#FFFFFF" stroke="#000000" stroke-linecap="round" stroke-linejoin="round" d="
	M449.751,84.4c-0.49-0.85-1.57-1.14-2.41-0.649c-0.851,0.489-1.141,1.569-0.65,2.419c0.48,0.841,1.561,1.131,2.41,0.65
	C449.951,86.331,450.241,85.25,449.751,84.4z"/>
<text transform="matrix(1 0 0 1 47.0815 13.1597)" font-family="'Arial-BoldMT'" font-size="10">0</text>
<text transform="matrix(1 0 0 1 63.4712 8.5801)" font-family="'Arial-BoldMT'" font-size="10">1</text>
<text transform="matrix(1 0 0 1 73.5913 25.46)" font-family="'Arial-BoldMT'" font-size="10">2</text>
<text transform="matrix(1 0 0 1 60.8413 98.1997)" font-family="'Arial-BoldMT'" font-size="10">3</text>
<text transform="matrix(1 0 0 1 138.4712 68.8101)" font-family="'Arial-BoldMT'" font-size="10">4</text>
<text transform="matrix(1 0 0 1 165.4712 57.1797)" font-family="'Arial-BoldMT'" font-size="10">5</text>
<text transform="matrix(1 0 0 1 168.7612 71.3501)" font-family="'Arial-BoldMT'" font-size="10">6</text>
<text transform="matrix(1 0 0 1 170.3413 103.7495)" font-family="'Arial-BoldMT'" font-size="10">7</text>
<text transform="matrix(1 0 0 1 246.3218 115.7495)" font-family="'Arial-BoldMT'" font-size="10">8</text>
<text transform="matrix(1 0 0 1 455.3013 97.4194)" font-family="'Arial-BoldMT'" font-size="10">11</text>
<text transform="matrix(1 0 0 1 458.8608 78.8599)" font-family="'Arial-BoldMT'" font-size="10">10</text>
<text transform="matrix(1 0 0 1 443.1909 70.6797)" font-family="'Arial-BoldMT'" font-size="10">9</text>
<line fill-rule="evenodd" clip-rule="evenodd" fill="none" stroke="#000000" stroke-width="0.5" stroke-linejoin="bevel" x1="51.701" y1="13.69" x2="55.231" y2="19.39"/>
<path fill-rule="evenodd" clip-rule="evenodd" d="M55.801,18.89l-1.28,0.79C54.521,19.68,56.082,20.77,55.801,18.89z"/>
<line fill-rule="evenodd" clip-rule="evenodd" fill="none" stroke="#000000" stroke-width="0.5" stroke-linejoin="bevel" x1="65.651" y1="10.24" x2="62.051" y2="17.29"/>
<path fill-rule="evenodd" clip-rule="evenodd" d="M62.771,17.52l-1.33-0.68C61.441,16.84,61.312,18.74,62.771,17.52z"/>
<line fill-rule="evenodd" clip-rule="evenodd" fill="none" stroke="#000000" stroke-width="0.5" stroke-linejoin="bevel" x1="72.401" y1="23.14" x2="64.832" y2="24.26"/>
<path fill-rule="evenodd" clip-rule="evenodd" d="M65.062,24.99l-0.22-1.48C64.841,23.51,63.221,24.5,65.062,24.99z"/>
<line fill-rule="evenodd" clip-rule="evenodd" fill="none" stroke="#000000" stroke-width="0.5" stroke-linejoin="bevel" x1="64.832" y1="99.41" x2="66.332" y2="107.36"/>
<path fill-rule="evenodd" clip-rule="evenodd" d="M67.042,107.1l-1.47,0.28C65.571,107.38,66.631,108.96,67.042,107.1z"/>
<line fill-rule="evenodd" clip-rule="evenodd" fill="none" stroke="#000000" stroke-width="0.5" stroke-linejoin="bevel" x1="138.781" y1="62.66" x2="134.801" y2="58.16"/>
<path fill-rule="evenodd" clip-rule="evenodd" d="M134.321,58.75l1.12-0.99C135.441,57.76,133.731,56.95,134.321,58.75z"/>
<line fill-rule="evenodd" clip-rule="evenodd" fill="none" stroke="#000000" stroke-width="0.5" stroke-linejoin="bevel" x1="170.951" y1="49.39" x2="176.651" y2="42.71"/>
<path fill-rule="evenodd" clip-rule="evenodd" d="M176.001,42.32l1.14,0.98C177.142,43.3,177.711,41.48,176.001,42.32z"/>
<line fill-rule="evenodd" clip-rule="evenodd" fill="none" stroke="#000000" stroke-width="0.5" stroke-linejoin="bevel" x1="174.931" y1="67.46" x2="183.102" y2="66.71"/>
<path fill-rule="evenodd" clip-rule="evenodd" d="M182.912,65.98l0.13,1.49C183.042,67.47,184.721,66.57,182.912,65.98z"/>
<line fill-rule="evenodd" clip-rule="evenodd" fill="none" stroke="#000000" stroke-width="0.5" stroke-linejoin="bevel" x1="170.201" y1="102.41" x2="162.931" y2="109.39"/>
<path fill-rule="evenodd" clip-rule="evenodd" d="M163.531,109.839l-1.03-1.079C162.501,108.76,161.751,110.51,163.531,109.839z"/>
<line fill-rule="evenodd" clip-rule="evenodd" fill="none" stroke="#000000" stroke-width="0.5" stroke-linejoin="bevel" x1="249.931" y1="107.66" x2="252.102" y2="100.54"/>
<path fill-rule="evenodd" clip-rule="evenodd" d="M251.352,100.44l1.43,0.44C252.782,100.88,252.572,98.99,251.352,100.44z"/>
<line fill-rule="evenodd" clip-rule="evenodd" fill="none" stroke="#000000" stroke-width="0.5" stroke-linejoin="bevel" x1="446.131" y1="72.11" x2="446.201" y2="77.44"/>
<path fill-rule="evenodd" clip-rule="evenodd" d="M446.951,77.3l-1.5,0.03C445.451,77.33,446.221,79.06,446.951,77.3z"/>
<line fill-rule="evenodd" clip-rule="evenodd" fill="none" stroke="#000000" stroke-width="0.5" stroke-linejoin="bevel" x1="459.701" y1="77.36" x2="454.001" y2="80.36"/>
<path fill-rule="evenodd" clip-rule="evenodd" d="M454.461,80.97l-0.7-1.33C453.761,79.64,452.561,81.12,454.461,80.97z"/>
<line fill-rule="evenodd" clip-rule="evenodd" fill="none" stroke="#000000" stroke-width="0.5" stroke-linejoin="bevel" x1="456.332" y1="90.69" x2="451.681" y2="87.56"/>
<path fill-rule="evenodd" clip-rule="evenodd" d="M451.361,88.26l0.84-1.25C452.201,87.01,450.332,86.66,451.361,88.26z"/>
<text transform="matrix(1 0 0 1 0 106.0581)" font-family="'TimesNewRomanPSMT'" font-size="10">A</text>
<text transform="matrix(1 0 0 1 72.2856 146.0269)" font-family="'TimesNewRomanPSMT'" font-size="10">B</text>
<text transform="matrix(1 0 0 1 127.02 37.4556)" font-family="'TimesNewRomanPSMT'" font-size="10">C</text>
<text transform="matrix(1 0 0 1 182.561 32.6802)" font-family="'TimesNewRomanPSMT'" font-size="10">D</text>
</svg>
