<?xml version="1.0" encoding="utf-8"?>
<!-- Generator: Adobe Illustrator 14.0.0, SVG Export Plug-In . SVG Version: 6.00 Build 43363)  -->
<!DOCTYPE svg PUBLIC "-//W3C//DTD SVG 1.1//EN" "http://www.w3.org/Graphics/SVG/1.1/DTD/svg11.dtd">
<svg version="1.1" id="Layer_1" xmlns="http://www.w3.org/2000/svg" xmlns:xlink="http://www.w3.org/1999/xlink" x="0px" y="0px"
	 width="203.359px" height="63.291px" viewBox="0 0 203.359 63.291" enable-background="new 0 0 203.359 63.291"
	 xml:space="preserve">
<g>
	<defs>
		<rect id="SVGID_1_" x="3.34" y="0.001" width="200.02" height="60.94"/>
	</defs>
	<clipPath id="SVGID_2_">
		<use xlink:href="#SVGID_1_"  overflow="visible"/>
	</clipPath>
	<g clip-path="url(#SVGID_2_)">
		<path fill="#231F20" d="M77.56,11.119V5.396h0.781v5.723H77.56z"/>
		<path fill="#231F20" d="M84.435,11.119V8.471c0-0.659-0.285-0.988-0.855-0.988c-0.18,0-0.348,0.056-0.504,0.166
			s-0.263,0.236-0.32,0.377v3.094h-0.742V8.146c0-0.206-0.078-0.368-0.232-0.486s-0.36-0.178-0.615-0.178
			c-0.148,0-0.307,0.058-0.475,0.172s-0.287,0.241-0.357,0.379v3.086h-0.742V6.936h0.484l0.246,0.484
			c0.287-0.375,0.645-0.563,1.074-0.563c0.599,0,1.018,0.187,1.258,0.559c0.083-0.159,0.238-0.292,0.465-0.398
			s0.459-0.16,0.699-0.16c0.432,0,0.767,0.128,1.004,0.385s0.355,0.616,0.355,1.08v2.797H84.435z"/>
		<path fill="#231F20" d="M86.974,10.889v1.871h-0.742V6.936h0.742v0.344c0.281-0.281,0.621-0.422,1.02-0.422
			c0.594,0,1.056,0.185,1.387,0.555s0.496,0.911,0.496,1.625c0,0.636-0.167,1.154-0.5,1.557s-0.815,0.604-1.445,0.604
			c-0.177,0-0.367-0.031-0.568-0.094S87.031,10.97,86.974,10.889z M86.974,7.838v2.438c0.047,0.07,0.146,0.138,0.297,0.201
			s0.298,0.096,0.441,0.096c0.922,0,1.383-0.521,1.383-1.563c0-0.528-0.109-0.915-0.328-1.16s-0.569-0.367-1.051-0.367
			c-0.104,0-0.232,0.036-0.383,0.109S87.063,7.747,86.974,7.838z"/>
		<path fill="#231F20" d="M90.416,9.018c0-0.646,0.174-1.167,0.521-1.564s0.805-0.596,1.373-0.596c0.599,0,1.064,0.19,1.395,0.572
			s0.496,0.911,0.496,1.588c0,0.675-0.169,1.206-0.508,1.596s-0.799,0.584-1.383,0.584c-0.596,0-1.061-0.196-1.395-0.59
			S90.416,9.685,90.416,9.018z M91.197,9.018c0,1.05,0.371,1.574,1.113,1.574c0.346,0,0.618-0.141,0.814-0.422
			s0.295-0.665,0.295-1.152c0-1.036-0.37-1.555-1.109-1.555c-0.338,0-0.609,0.138-0.811,0.414S91.197,8.533,91.197,9.018z"/>
		<path fill="#231F20" d="M97.255,7.65c-0.162-0.112-0.324-0.168-0.488-0.168c-0.263,0-0.493,0.121-0.689,0.363
			s-0.295,0.534-0.295,0.875v2.398h-0.742V6.936h0.742v0.668c0.271-0.497,0.673-0.746,1.207-0.746c0.133,0,0.324,0.023,0.574,0.07
			L97.255,7.65z"/>
		<path fill="#231F20" d="M98.357,7.521h-0.484V6.936h0.484V6.061l0.742-0.285v1.16h1.148v0.586h-1.148V9.6
			c0,0.352,0.059,0.602,0.178,0.75s0.309,0.223,0.572,0.223c0.19,0,0.387-0.048,0.59-0.145l0.109,0.652
			c-0.307,0.078-0.645,0.117-1.012,0.117c-0.331,0-0.61-0.123-0.838-0.369s-0.342-0.557-0.342-0.932V7.521z"/>
		<path fill="#231F20" d="M103.475,10.857l0.285-0.719c0.146,0.106,0.327,0.196,0.545,0.268c0.217,0.071,0.412,0.107,0.584,0.107
			c0.305,0,0.549-0.083,0.734-0.25c0.185-0.167,0.277-0.379,0.277-0.637c0-0.192-0.052-0.372-0.154-0.537
			c-0.104-0.165-0.361-0.346-0.775-0.541l-0.461-0.215c-0.391-0.183-0.664-0.398-0.818-0.648c-0.155-0.25-0.232-0.551-0.232-0.902
			c0-0.427,0.15-0.781,0.453-1.063c0.302-0.281,0.689-0.422,1.164-0.422c0.633,0,1.072,0.103,1.32,0.309l-0.23,0.68
			c-0.104-0.075-0.264-0.148-0.477-0.219c-0.214-0.07-0.412-0.105-0.594-0.105c-0.266,0-0.475,0.075-0.627,0.227
			s-0.229,0.345-0.229,0.582c0,0.146,0.027,0.278,0.082,0.398s0.131,0.22,0.229,0.301s0.297,0.194,0.6,0.34l0.469,0.223
			c0.391,0.185,0.664,0.405,0.822,0.662c0.157,0.257,0.236,0.583,0.236,0.979c0,0.43-0.173,0.794-0.518,1.094
			c-0.346,0.3-0.807,0.449-1.385,0.449C104.268,11.217,103.834,11.097,103.475,10.857z"/>
		<path fill="#231F20" d="M107.787,7.521h-0.484V6.936h0.484V6.061l0.742-0.285v1.16h1.148v0.586h-1.148V9.6
			c0,0.352,0.059,0.602,0.178,0.75c0.118,0.148,0.309,0.223,0.572,0.223c0.189,0,0.387-0.048,0.59-0.145l0.109,0.652
			c-0.308,0.078-0.645,0.117-1.012,0.117c-0.331,0-0.61-0.123-0.838-0.369c-0.229-0.246-0.342-0.557-0.342-0.932V7.521z"/>
		<path fill="#231F20" d="M113.057,10.639c-0.297,0.372-0.752,0.559-1.363,0.559c-0.328,0-0.613-0.119-0.854-0.357
			c-0.241-0.238-0.361-0.534-0.361-0.889c0-0.425,0.186-0.783,0.557-1.076s0.844-0.439,1.42-0.439c0.156,0,0.333,0.034,0.531,0.102
			c0-0.677-0.303-1.016-0.906-1.016c-0.464,0-0.82,0.125-1.07,0.375l-0.313-0.621c0.141-0.114,0.335-0.213,0.584-0.295
			c0.248-0.082,0.486-0.123,0.713-0.123c0.606,0,1.047,0.138,1.322,0.414c0.274,0.276,0.412,0.715,0.412,1.316v1.5
			c0,0.367,0.109,0.612,0.328,0.734v0.371c-0.303,0-0.528-0.043-0.678-0.129C113.229,10.979,113.121,10.837,113.057,10.639z
			 M112.986,9.064c-0.234-0.052-0.398-0.078-0.492-0.078c-0.375,0-0.682,0.097-0.918,0.289c-0.237,0.192-0.355,0.421-0.355,0.684
			c0,0.435,0.256,0.652,0.77,0.652c0.375,0,0.707-0.179,0.996-0.535V9.064z"/>
		<path fill="#231F20" d="M115.162,7.521h-0.484V6.936h0.484V6.061l0.742-0.285v1.16h1.148v0.586h-1.148V9.6
			c0,0.352,0.059,0.602,0.178,0.75c0.118,0.148,0.309,0.223,0.572,0.223c0.189,0,0.387-0.048,0.59-0.145l0.109,0.652
			c-0.308,0.078-0.645,0.117-1.012,0.117c-0.331,0-0.61-0.123-0.838-0.369c-0.229-0.246-0.342-0.557-0.342-0.932V7.521z"/>
		<path fill="#231F20" d="M121.592,9.1h-3.016c0,0.489,0.134,0.866,0.402,1.129c0.236,0.229,0.541,0.344,0.914,0.344
			c0.424,0,0.778-0.124,1.063-0.371l0.313,0.535c-0.115,0.114-0.291,0.214-0.527,0.297c-0.297,0.109-0.628,0.164-0.992,0.164
			c-0.526,0-0.973-0.179-1.34-0.535c-0.409-0.394-0.613-0.922-0.613-1.586c0-0.69,0.209-1.243,0.629-1.66
			c0.375-0.372,0.818-0.559,1.332-0.559c0.596,0,1.063,0.168,1.402,0.504c0.328,0.323,0.492,0.751,0.492,1.285
			C121.65,8.811,121.631,8.962,121.592,9.1z M119.791,7.482c-0.331,0-0.608,0.106-0.832,0.32c-0.214,0.203-0.335,0.456-0.363,0.758
			h2.316c0-0.3-0.094-0.55-0.281-0.75C120.425,7.592,120.145,7.482,119.791,7.482z"/>
		<path fill="#231F20" d="M127.275,11.119V8.471c0-0.659-0.285-0.988-0.855-0.988c-0.18,0-0.348,0.056-0.504,0.166
			s-0.264,0.236-0.32,0.377v3.094h-0.742V8.146c0-0.206-0.078-0.368-0.232-0.486c-0.155-0.118-0.36-0.178-0.615-0.178
			c-0.148,0-0.307,0.058-0.475,0.172s-0.287,0.241-0.357,0.379v3.086h-0.742V6.936h0.484l0.246,0.484
			c0.286-0.375,0.645-0.563,1.074-0.563c0.599,0,1.018,0.187,1.258,0.559c0.083-0.159,0.238-0.292,0.465-0.398
			s0.459-0.16,0.699-0.16c0.432,0,0.767,0.128,1.004,0.385c0.236,0.257,0.355,0.616,0.355,1.08v2.797H127.275z"/>
		<path fill="#231F20" d="M132.596,9.1h-3.016c0,0.489,0.134,0.866,0.402,1.129c0.236,0.229,0.541,0.344,0.914,0.344
			c0.424,0,0.778-0.124,1.063-0.371l0.313,0.535c-0.115,0.114-0.291,0.214-0.527,0.297c-0.297,0.109-0.628,0.164-0.992,0.164
			c-0.526,0-0.973-0.179-1.34-0.535c-0.409-0.394-0.613-0.922-0.613-1.586c0-0.69,0.209-1.243,0.629-1.66
			c0.375-0.372,0.818-0.559,1.332-0.559c0.596,0,1.063,0.168,1.402,0.504c0.328,0.323,0.492,0.751,0.492,1.285
			C132.654,8.811,132.635,8.962,132.596,9.1z M130.795,7.482c-0.331,0-0.608,0.106-0.832,0.32c-0.214,0.203-0.335,0.456-0.363,0.758
			h2.316c0-0.3-0.094-0.55-0.281-0.75C131.429,7.592,131.148,7.482,130.795,7.482z"/>
		<path fill="#231F20" d="M136.01,11.119V8.686c0-0.445-0.067-0.757-0.201-0.936c-0.135-0.179-0.359-0.268-0.674-0.268
			c-0.17,0-0.347,0.051-0.531,0.152c-0.186,0.102-0.327,0.227-0.426,0.375v3.109h-0.742V6.936h0.508l0.234,0.539
			c0.244-0.411,0.645-0.617,1.199-0.617c0.916,0,1.375,0.558,1.375,1.672v2.59H136.01z"/>
		<path fill="#231F20" d="M138.072,7.521h-0.484V6.936h0.484V6.061l0.742-0.285v1.16h1.148v0.586h-1.148V9.6
			c0,0.352,0.059,0.602,0.178,0.75c0.118,0.148,0.309,0.223,0.572,0.223c0.189,0,0.387-0.048,0.59-0.145l0.109,0.652
			c-0.308,0.078-0.645,0.117-1.012,0.117c-0.331,0-0.61-0.123-0.838-0.369c-0.229-0.246-0.342-0.557-0.342-0.932V7.521z"/>
		<path fill="#231F20" d="M140.705,10.869l0.262-0.703c0.414,0.271,0.747,0.406,1,0.406c0.458,0,0.688-0.192,0.688-0.578
			c0-0.276-0.222-0.513-0.664-0.711c-0.342-0.156-0.571-0.274-0.689-0.355c-0.119-0.081-0.222-0.173-0.309-0.275
			c-0.088-0.103-0.152-0.212-0.195-0.328s-0.064-0.24-0.064-0.373c0-0.344,0.125-0.612,0.375-0.805s0.576-0.289,0.98-0.289
			c0.305,0,0.688,0.097,1.152,0.289l-0.211,0.688c-0.295-0.234-0.59-0.352-0.887-0.352c-0.178,0-0.326,0.042-0.447,0.125
			s-0.182,0.188-0.182,0.316c0,0.269,0.152,0.472,0.457,0.609l0.531,0.242c0.325,0.148,0.563,0.317,0.711,0.508
			s0.223,0.429,0.223,0.715c0,0.375-0.132,0.669-0.395,0.881c-0.264,0.212-0.628,0.318-1.094,0.318
			C141.507,11.197,141.093,11.088,140.705,10.869z"/>
	</g>
	<g clip-path="url(#SVGID_2_)">
		<path fill="#231F20" d="M81.412,18.291l-0.324,0.645c-0.393-0.292-0.779-0.438-1.156-0.438c-0.599,0-1.072,0.211-1.418,0.633
			s-0.52,0.98-0.52,1.676c0,0.661,0.17,1.194,0.51,1.598s0.803,0.605,1.389,0.605c0.417,0,0.754-0.125,1.012-0.375v-1.34h-0.793
			v-0.664h1.574v2.492c-0.208,0.177-0.499,0.319-0.871,0.428s-0.734,0.162-1.086,0.162c-0.789,0-1.412-0.268-1.869-0.803
			s-0.686-1.247-0.686-2.135c0-0.886,0.25-1.604,0.752-2.154s1.178-0.826,2.029-0.826C80.551,17.795,81.037,17.96,81.412,18.291z"/>
		<path fill="#231F20" d="M82.857,22.432v-4.715H83.6v4.59c0,0.224,0.064,0.4,0.193,0.529s0.297,0.193,0.506,0.193v0.664
			C83.338,23.693,82.857,23.272,82.857,22.432z"/>
		<path fill="#231F20" d="M84.885,21.514c0-0.646,0.174-1.167,0.521-1.564s0.805-0.596,1.373-0.596c0.599,0,1.064,0.19,1.395,0.572
			s0.496,0.911,0.496,1.588c0,0.675-0.169,1.206-0.508,1.596s-0.799,0.584-1.383,0.584c-0.596,0-1.061-0.196-1.395-0.59
			S84.885,22.181,84.885,21.514z M85.666,21.514c0,1.05,0.371,1.574,1.113,1.574c0.346,0,0.618-0.141,0.814-0.422
			s0.295-0.665,0.295-1.152c0-1.036-0.37-1.555-1.109-1.555c-0.338,0-0.609,0.138-0.811,0.414S85.666,21.029,85.666,21.514z"/>
		<path fill="#231F20" d="M90.084,23.314l-0.262,0.379h-0.371v-5.977h0.742v2.023c0.07-0.097,0.203-0.185,0.396-0.266
			s0.385-0.121,0.572-0.121c0.573,0,1.037,0.198,1.393,0.594s0.533,0.896,0.533,1.5c0,0.698-0.178,1.247-0.535,1.646
			s-0.84,0.6-1.449,0.6c-0.198,0-0.393-0.037-0.584-0.111S90.183,23.419,90.084,23.314z M90.193,20.307v2.414
			c0,0.042,0.092,0.11,0.277,0.205s0.326,0.143,0.422,0.143c0.505,0,0.867-0.121,1.086-0.363s0.328-0.648,0.328-1.219
			c0-0.474-0.127-0.844-0.383-1.109s-0.599-0.398-1.031-0.398c-0.091,0-0.218,0.039-0.381,0.117S90.243,20.244,90.193,20.307z"/>
		<path fill="#231F20" d="M96.271,23.135c-0.297,0.372-0.751,0.559-1.363,0.559c-0.328,0-0.613-0.119-0.854-0.357
			s-0.361-0.534-0.361-0.889c0-0.425,0.186-0.783,0.557-1.076s0.844-0.439,1.42-0.439c0.156,0,0.333,0.034,0.531,0.102
			c0-0.677-0.302-1.016-0.906-1.016c-0.463,0-0.82,0.125-1.07,0.375l-0.313-0.621c0.141-0.114,0.335-0.213,0.584-0.295
			s0.486-0.123,0.713-0.123c0.607,0,1.047,0.138,1.322,0.414s0.412,0.715,0.412,1.316v1.5c0,0.367,0.109,0.612,0.328,0.734v0.371
			c-0.302,0-0.528-0.043-0.678-0.129S96.336,23.333,96.271,23.135z M96.201,21.561c-0.234-0.052-0.398-0.078-0.492-0.078
			c-0.375,0-0.681,0.097-0.918,0.289s-0.355,0.421-0.355,0.684c0,0.435,0.256,0.652,0.77,0.652c0.375,0,0.707-0.179,0.996-0.535
			V21.561z"/>
		<path fill="#231F20" d="M98.17,22.432v-4.715h0.742v4.59c0,0.224,0.064,0.4,0.193,0.529s0.297,0.193,0.506,0.193v0.664
			C98.65,23.693,98.17,23.272,98.17,22.432z"/>
		<path fill="#231F20" d="M104.932,23.693h-0.395l-2.133-5.801h0.867l1.473,4.215l1.418-4.215h0.84L104.932,23.693z"/>
		<path fill="#231F20" d="M109.319,23.135c-0.297,0.372-0.751,0.559-1.363,0.559c-0.328,0-0.612-0.119-0.854-0.357
			s-0.361-0.534-0.361-0.889c0-0.425,0.186-0.783,0.557-1.076s0.845-0.439,1.42-0.439c0.156,0,0.333,0.034,0.531,0.102
			c0-0.677-0.302-1.016-0.906-1.016c-0.464,0-0.82,0.125-1.07,0.375l-0.313-0.621c0.141-0.114,0.335-0.213,0.584-0.295
			s0.486-0.123,0.713-0.123c0.606,0,1.048,0.138,1.322,0.414s0.412,0.715,0.412,1.316v1.5c0,0.367,0.109,0.612,0.328,0.734v0.371
			c-0.302,0-0.528-0.043-0.678-0.129S109.385,23.333,109.319,23.135z M109.249,21.561c-0.234-0.052-0.398-0.078-0.492-0.078
			c-0.375,0-0.681,0.097-0.918,0.289s-0.355,0.421-0.355,0.684c0,0.435,0.257,0.652,0.77,0.652c0.375,0,0.707-0.179,0.996-0.535
			V21.561z"/>
		<path fill="#231F20" d="M113.433,20.146c-0.161-0.112-0.324-0.168-0.488-0.168c-0.263,0-0.493,0.121-0.689,0.363
			s-0.295,0.534-0.295,0.875v2.398h-0.742v-4.184h0.742V20.1c0.271-0.497,0.673-0.746,1.207-0.746c0.133,0,0.324,0.023,0.574,0.07
			L113.433,20.146z"/>
		<path fill="#231F20" d="M114.628,23.615v-3.559h-0.574v-0.625h1.316v4.184H114.628z M115.034,17.85
			c0.128,0,0.236,0.045,0.326,0.135s0.135,0.197,0.135,0.322c0,0.128-0.045,0.236-0.135,0.326s-0.198,0.135-0.326,0.135
			c-0.125,0-0.232-0.045-0.322-0.135s-0.135-0.198-0.135-0.326s0.044-0.235,0.133-0.324S114.906,17.85,115.034,17.85z"/>
		<path fill="#231F20" d="M118.913,23.135c-0.297,0.372-0.751,0.559-1.363,0.559c-0.328,0-0.612-0.119-0.854-0.357
			s-0.361-0.534-0.361-0.889c0-0.425,0.186-0.783,0.557-1.076s0.845-0.439,1.42-0.439c0.156,0,0.333,0.034,0.531,0.102
			c0-0.677-0.302-1.016-0.906-1.016c-0.464,0-0.82,0.125-1.07,0.375l-0.313-0.621c0.141-0.114,0.335-0.213,0.584-0.295
			s0.486-0.123,0.713-0.123c0.606,0,1.048,0.138,1.322,0.414s0.412,0.715,0.412,1.316v1.5c0,0.367,0.109,0.612,0.328,0.734v0.371
			c-0.302,0-0.528-0.043-0.678-0.129S118.979,23.333,118.913,23.135z M118.843,21.561c-0.234-0.052-0.398-0.078-0.492-0.078
			c-0.375,0-0.681,0.097-0.918,0.289s-0.355,0.421-0.355,0.684c0,0.435,0.257,0.652,0.77,0.652c0.375,0,0.707-0.179,0.996-0.535
			V21.561z"/>
		<path fill="#231F20" d="M121.386,23.314l-0.262,0.379h-0.371v-5.977h0.742v2.023c0.07-0.097,0.202-0.185,0.396-0.266
			s0.385-0.121,0.572-0.121c0.573,0,1.037,0.198,1.393,0.594s0.533,0.896,0.533,1.5c0,0.698-0.179,1.247-0.535,1.646
			s-0.84,0.6-1.449,0.6c-0.198,0-0.393-0.037-0.584-0.111S121.484,23.419,121.386,23.314z M121.495,20.307v2.414
			c0,0.042,0.093,0.11,0.277,0.205s0.325,0.143,0.422,0.143c0.505,0,0.867-0.121,1.086-0.363s0.328-0.648,0.328-1.219
			c0-0.474-0.128-0.844-0.383-1.109s-0.599-0.398-1.031-0.398c-0.091,0-0.218,0.039-0.381,0.117S121.545,20.244,121.495,20.307z"/>
		<path fill="#231F20" d="M125.269,22.432v-4.715h0.742v4.59c0,0.224,0.064,0.4,0.193,0.529s0.298,0.193,0.506,0.193v0.664
			C125.749,23.693,125.269,23.272,125.269,22.432z"/>
		<path fill="#231F20" d="M131.093,21.596h-3.016c0,0.489,0.134,0.866,0.402,1.129c0.237,0.229,0.542,0.344,0.914,0.344
			c0.425,0,0.778-0.124,1.063-0.371l0.313,0.535c-0.114,0.114-0.29,0.214-0.527,0.297c-0.297,0.109-0.628,0.164-0.992,0.164
			c-0.526,0-0.973-0.179-1.34-0.535c-0.409-0.394-0.613-0.922-0.613-1.586c0-0.69,0.21-1.243,0.629-1.66
			c0.375-0.372,0.819-0.559,1.332-0.559c0.597,0,1.063,0.168,1.402,0.504c0.328,0.323,0.492,0.751,0.492,1.285
			C131.151,21.307,131.132,21.458,131.093,21.596z M129.292,19.979c-0.331,0-0.608,0.106-0.832,0.32
			c-0.214,0.203-0.335,0.456-0.363,0.758h2.316c0-0.3-0.094-0.55-0.281-0.75C129.926,20.088,129.646,19.979,129.292,19.979z"/>
		<path fill="#231F20" d="M131.659,23.365l0.262-0.703c0.414,0.271,0.747,0.406,1,0.406c0.458,0,0.688-0.192,0.688-0.578
			c0-0.276-0.222-0.513-0.664-0.711c-0.341-0.156-0.571-0.274-0.689-0.355s-0.222-0.173-0.309-0.275s-0.152-0.212-0.195-0.328
			s-0.064-0.24-0.064-0.373c0-0.344,0.125-0.612,0.375-0.805s0.577-0.289,0.98-0.289c0.305,0,0.688,0.097,1.152,0.289l-0.211,0.688
			c-0.294-0.234-0.59-0.352-0.887-0.352c-0.177,0-0.326,0.042-0.447,0.125s-0.182,0.188-0.182,0.316
			c0,0.269,0.152,0.472,0.457,0.609l0.531,0.242c0.325,0.148,0.563,0.317,0.711,0.508s0.223,0.429,0.223,0.715
			c0,0.375-0.132,0.669-0.395,0.881s-0.628,0.318-1.094,0.318C132.461,23.693,132.047,23.584,131.659,23.365z"/>
	</g>
	<g clip-path="url(#SVGID_2_)">
		<path fill="#231F20" d="M78.229,33.092v1.59h2.012v0.664h-2.012v2.766h-0.781v-5.723h3.535v0.703H78.229z"/>
		<path fill="#231F20" d="M82.291,33.928v2.668c0,0.646,0.28,0.969,0.84,0.969c0.245,0,0.469-0.07,0.672-0.211
			s0.337-0.304,0.402-0.488v-2.938h0.742v4.184h-0.742v-0.578c-0.083,0.164-0.25,0.314-0.502,0.451s-0.497,0.205-0.736,0.205
			c-0.458,0-0.809-0.132-1.053-0.395s-0.365-0.637-0.365-1.121v-2.746H82.291z"/>
		<path fill="#231F20" d="M88.533,38.111v-2.434c0-0.445-0.067-0.757-0.201-0.936s-0.359-0.268-0.674-0.268
			c-0.169,0-0.346,0.051-0.531,0.152s-0.327,0.227-0.426,0.375v3.109h-0.742v-4.184h0.508l0.234,0.539
			c0.245-0.411,0.645-0.617,1.199-0.617c0.917,0,1.375,0.558,1.375,1.672v2.59H88.533z"/>
		<path fill="#231F20" d="M93.486,34.268l-0.367,0.523c-0.076-0.075-0.209-0.147-0.4-0.215s-0.379-0.102-0.564-0.102
			c-0.404,0-0.724,0.142-0.961,0.424s-0.355,0.67-0.355,1.162c0,0.489,0.121,0.862,0.363,1.119s0.578,0.385,1.008,0.385
			c0.333,0,0.669-0.129,1.008-0.387l0.293,0.625c-0.398,0.258-0.892,0.387-1.48,0.387c-0.57,0-1.042-0.191-1.414-0.574
			s-0.559-0.901-0.559-1.555c0-0.667,0.193-1.202,0.58-1.605s0.916-0.605,1.588-0.605c0.216,0,0.451,0.046,0.703,0.137
			S93.367,34.171,93.486,34.268z"/>
		<path fill="#231F20" d="M94.557,34.514h-0.484v-0.586h0.484v-0.875l0.742-0.285v1.16h1.148v0.586h-1.148v2.078
			c0,0.352,0.059,0.602,0.178,0.75s0.309,0.223,0.572,0.223c0.19,0,0.387-0.048,0.59-0.145l0.109,0.652
			c-0.307,0.078-0.645,0.117-1.012,0.117c-0.331,0-0.61-0.123-0.838-0.369s-0.342-0.557-0.342-0.932V34.514z"/>
		<path fill="#231F20" d="M97.822,38.111v-3.559h-0.574v-0.625h1.316v4.184H97.822z M98.229,32.346c0.127,0,0.236,0.045,0.326,0.135
			s0.135,0.197,0.135,0.322c0,0.128-0.045,0.236-0.135,0.326s-0.199,0.135-0.326,0.135c-0.125,0-0.232-0.045-0.322-0.135
			s-0.135-0.198-0.135-0.326s0.044-0.235,0.133-0.324S98.101,32.346,98.229,32.346z"/>
		<path fill="#231F20" d="M99.471,36.01c0-0.646,0.174-1.167,0.521-1.564s0.805-0.596,1.373-0.596c0.6,0,1.064,0.19,1.395,0.572
			s0.496,0.911,0.496,1.588c0,0.675-0.17,1.206-0.508,1.596s-0.799,0.584-1.383,0.584c-0.596,0-1.061-0.196-1.395-0.59
			S99.471,36.677,99.471,36.01z M100.252,36.01c0,1.05,0.371,1.574,1.113,1.574c0.346,0,0.617-0.141,0.814-0.422
			s0.295-0.665,0.295-1.152c0-1.036-0.369-1.555-1.109-1.555c-0.338,0-0.609,0.138-0.811,0.414S100.252,35.525,100.252,36.01z"/>
		<path fill="#231F20" d="M106.611,38.111v-2.434c0-0.445-0.066-0.757-0.201-0.936s-0.359-0.268-0.674-0.268
			c-0.17,0-0.346,0.051-0.531,0.152s-0.326,0.227-0.426,0.375v3.109h-0.742v-4.184h0.508l0.234,0.539
			c0.244-0.411,0.645-0.617,1.199-0.617c0.916,0,1.375,0.558,1.375,1.672v2.59H106.611z"/>
		<path fill="#231F20" d="M108.135,37.861l0.262-0.703c0.414,0.271,0.748,0.406,1,0.406c0.459,0,0.688-0.192,0.688-0.578
			c0-0.276-0.221-0.513-0.664-0.711c-0.342-0.156-0.57-0.274-0.689-0.355s-0.221-0.173-0.309-0.275s-0.152-0.212-0.195-0.328
			s-0.064-0.24-0.064-0.373c0-0.344,0.125-0.612,0.375-0.805s0.576-0.289,0.98-0.289c0.305,0,0.689,0.097,1.152,0.289l-0.211,0.688
			c-0.295-0.234-0.59-0.352-0.887-0.352c-0.178,0-0.326,0.042-0.447,0.125s-0.182,0.188-0.182,0.316
			c0,0.269,0.152,0.472,0.457,0.609l0.531,0.242c0.326,0.148,0.563,0.317,0.711,0.508s0.223,0.429,0.223,0.715
			c0,0.375-0.131,0.669-0.395,0.881s-0.627,0.318-1.094,0.318C108.938,38.189,108.523,38.08,108.135,37.861z"/>
		<path fill="#231F20" d="M117.158,37.912c-0.377,0.185-0.834,0.277-1.367,0.277c-0.545,0-0.965-0.161-1.262-0.482
			s-0.445-0.776-0.445-1.365c0-0.302,0.045-0.563,0.135-0.785s0.254-0.45,0.494-0.688c-0.367-0.364-0.551-0.743-0.551-1.137
			c0-0.398,0.15-0.739,0.451-1.021s0.703-0.424,1.209-0.424c0.537,0,0.951,0.118,1.242,0.355l-0.324,0.602
			c-0.297-0.247-0.563-0.371-0.797-0.371c-0.693,0-1.039,0.313-1.039,0.938c0,0.339,0.15,0.625,0.453,0.859h1.453v-0.715
			l0.742-0.285v1.012h0.973v0.625h-0.973v1.289c0,0.359,0.049,0.604,0.145,0.734s0.264,0.195,0.5,0.195
			c0.141,0,0.307-0.048,0.496-0.145l0.105,0.691c-0.273,0.078-0.586,0.117-0.938,0.117
			C117.619,38.189,117.385,38.097,117.158,37.912z M116.811,36.885v-1.578h-1.574c-0.248,0.317-0.371,0.651-0.371,1
			c0,0.813,0.396,1.219,1.191,1.219c0.354,0,0.619-0.063,0.797-0.191C116.824,37.214,116.811,37.064,116.811,36.885z"/>
		<path fill="#231F20" d="M125.826,32.6l-0.262,0.668c-0.25-0.183-0.643-0.273-1.18-0.273c-0.502,0-0.906,0.216-1.209,0.648
			s-0.455,0.989-0.455,1.672c0,0.651,0.156,1.179,0.467,1.584s0.713,0.607,1.205,0.607c0.537,0,0.949-0.19,1.238-0.57l0.43,0.598
			c-0.453,0.45-1.037,0.676-1.75,0.676c-0.748,0-1.336-0.27-1.766-0.809s-0.645-1.25-0.645-2.133c0-0.854,0.229-1.563,0.688-2.129
			s1.051-0.848,1.777-0.848C124.988,32.291,125.475,32.394,125.826,32.6z"/>
		<path fill="#231F20" d="M126.959,36.928v-4.715h0.742v4.59c0,0.224,0.064,0.4,0.193,0.529s0.297,0.193,0.506,0.193v0.664
			C127.439,38.189,126.959,37.769,126.959,36.928z"/>
		<path fill="#231F20" d="M131.623,37.631c-0.297,0.372-0.752,0.559-1.363,0.559c-0.328,0-0.613-0.119-0.854-0.357
			s-0.361-0.534-0.361-0.889c0-0.425,0.186-0.783,0.557-1.076s0.844-0.439,1.42-0.439c0.156,0,0.334,0.034,0.531,0.102
			c0-0.677-0.303-1.016-0.906-1.016c-0.463,0-0.82,0.125-1.07,0.375l-0.313-0.621c0.141-0.114,0.336-0.213,0.584-0.295
			s0.486-0.123,0.713-0.123c0.607,0,1.047,0.138,1.322,0.414s0.412,0.715,0.412,1.316v1.5c0,0.367,0.109,0.612,0.328,0.734v0.371
			c-0.303,0-0.527-0.043-0.678-0.129S131.688,37.829,131.623,37.631z M131.553,36.057c-0.234-0.052-0.398-0.078-0.492-0.078
			c-0.375,0-0.682,0.097-0.918,0.289s-0.355,0.421-0.355,0.684c0,0.435,0.256,0.652,0.77,0.652c0.375,0,0.707-0.179,0.996-0.535
			V36.057z"/>
		<path fill="#231F20" d="M133.189,37.861l0.262-0.703c0.414,0.271,0.748,0.406,1,0.406c0.459,0,0.688-0.192,0.688-0.578
			c0-0.276-0.221-0.513-0.664-0.711c-0.342-0.156-0.57-0.274-0.689-0.355s-0.221-0.173-0.309-0.275s-0.152-0.212-0.195-0.328
			s-0.064-0.24-0.064-0.373c0-0.344,0.125-0.612,0.375-0.805s0.576-0.289,0.98-0.289c0.305,0,0.689,0.097,1.152,0.289l-0.211,0.688
			c-0.295-0.234-0.59-0.352-0.887-0.352c-0.178,0-0.326,0.042-0.447,0.125s-0.182,0.188-0.182,0.316
			c0,0.269,0.152,0.472,0.457,0.609l0.531,0.242c0.326,0.148,0.563,0.317,0.711,0.508s0.223,0.429,0.223,0.715
			c0,0.375-0.131,0.669-0.395,0.881s-0.627,0.318-1.094,0.318C133.992,38.189,133.578,38.08,133.189,37.861z"/>
		<path fill="#231F20" d="M136.428,37.861l0.262-0.703c0.414,0.271,0.748,0.406,1,0.406c0.459,0,0.688-0.192,0.688-0.578
			c0-0.276-0.221-0.513-0.664-0.711c-0.342-0.156-0.57-0.274-0.689-0.355s-0.221-0.173-0.309-0.275s-0.152-0.212-0.195-0.328
			s-0.064-0.24-0.064-0.373c0-0.344,0.125-0.612,0.375-0.805s0.576-0.289,0.98-0.289c0.305,0,0.689,0.097,1.152,0.289l-0.211,0.688
			c-0.295-0.234-0.59-0.352-0.887-0.352c-0.178,0-0.326,0.042-0.447,0.125s-0.182,0.188-0.182,0.316
			c0,0.269,0.152,0.472,0.457,0.609l0.531,0.242c0.326,0.148,0.563,0.317,0.711,0.508s0.223,0.429,0.223,0.715
			c0,0.375-0.131,0.669-0.395,0.881s-0.627,0.318-1.094,0.318C137.23,38.189,136.816,38.08,136.428,37.861z"/>
		<path fill="#231F20" d="M143.463,36.092h-3.016c0,0.489,0.135,0.866,0.402,1.129c0.236,0.229,0.541,0.344,0.914,0.344
			c0.424,0,0.779-0.124,1.063-0.371l0.313,0.535c-0.115,0.114-0.291,0.214-0.527,0.297c-0.297,0.109-0.627,0.164-0.992,0.164
			c-0.525,0-0.973-0.179-1.34-0.535c-0.408-0.394-0.613-0.922-0.613-1.586c0-0.69,0.209-1.243,0.629-1.66
			c0.375-0.372,0.818-0.559,1.332-0.559c0.596,0,1.064,0.168,1.402,0.504c0.328,0.323,0.492,0.751,0.492,1.285
			C143.521,35.803,143.502,35.954,143.463,36.092z M141.662,34.475c-0.33,0-0.607,0.106-0.832,0.32
			c-0.213,0.203-0.334,0.456-0.363,0.758h2.316c0-0.3-0.094-0.55-0.281-0.75C142.297,34.584,142.016,34.475,141.662,34.475z"/>
		<path fill="#231F20" d="M144.029,37.861l0.262-0.703c0.414,0.271,0.748,0.406,1,0.406c0.459,0,0.688-0.192,0.688-0.578
			c0-0.276-0.221-0.513-0.664-0.711c-0.342-0.156-0.57-0.274-0.689-0.355s-0.221-0.173-0.309-0.275s-0.152-0.212-0.195-0.328
			s-0.064-0.24-0.064-0.373c0-0.344,0.125-0.612,0.375-0.805s0.576-0.289,0.98-0.289c0.305,0,0.689,0.097,1.152,0.289l-0.211,0.688
			c-0.295-0.234-0.59-0.352-0.887-0.352c-0.178,0-0.326,0.042-0.447,0.125s-0.182,0.188-0.182,0.316
			c0,0.269,0.152,0.472,0.457,0.609l0.531,0.242c0.326,0.148,0.563,0.317,0.711,0.508s0.223,0.429,0.223,0.715
			c0,0.375-0.131,0.669-0.395,0.881s-0.627,0.318-1.094,0.318C144.832,38.189,144.418,38.08,144.029,37.861z"/>
	</g>
	<g clip-path="url(#SVGID_2_)">
		<path fill="#231F20" d="M78.229,42.588v1.59h2.012v0.664h-2.012v2.766h-0.781v-5.723h3.535v0.703H78.229z"/>
		<path fill="#231F20" d="M82.291,43.424v2.668c0,0.646,0.28,0.969,0.84,0.969c0.245,0,0.469-0.07,0.672-0.211
			s0.337-0.304,0.402-0.488v-2.938h0.742v4.184h-0.742v-0.578c-0.083,0.164-0.25,0.314-0.502,0.451s-0.497,0.205-0.736,0.205
			c-0.458,0-0.809-0.132-1.053-0.395s-0.365-0.637-0.365-1.121v-2.746H82.291z"/>
		<path fill="#231F20" d="M88.533,47.607v-2.434c0-0.445-0.067-0.757-0.201-0.936s-0.359-0.268-0.674-0.268
			c-0.169,0-0.346,0.051-0.531,0.152s-0.327,0.227-0.426,0.375v3.109h-0.742v-4.184h0.508l0.234,0.539
			c0.245-0.411,0.645-0.617,1.199-0.617c0.917,0,1.375,0.558,1.375,1.672v2.59H88.533z"/>
		<path fill="#231F20" d="M93.486,43.764l-0.367,0.523c-0.076-0.075-0.209-0.147-0.4-0.215s-0.379-0.102-0.564-0.102
			c-0.404,0-0.724,0.142-0.961,0.424s-0.355,0.67-0.355,1.162c0,0.489,0.121,0.862,0.363,1.119s0.578,0.385,1.008,0.385
			c0.333,0,0.669-0.129,1.008-0.387l0.293,0.625c-0.398,0.258-0.892,0.387-1.48,0.387c-0.57,0-1.042-0.191-1.414-0.574
			s-0.559-0.901-0.559-1.555c0-0.667,0.193-1.202,0.58-1.605s0.916-0.605,1.588-0.605c0.216,0,0.451,0.046,0.703,0.137
			S93.367,43.667,93.486,43.764z"/>
		<path fill="#231F20" d="M94.557,44.01h-0.484v-0.586h0.484v-0.875l0.742-0.285v1.16h1.148v0.586h-1.148v2.078
			c0,0.352,0.059,0.602,0.178,0.75s0.309,0.223,0.572,0.223c0.19,0,0.387-0.048,0.59-0.145l0.109,0.652
			c-0.307,0.078-0.645,0.117-1.012,0.117c-0.331,0-0.61-0.123-0.838-0.369s-0.342-0.557-0.342-0.932V44.01z"/>
		<path fill="#231F20" d="M97.822,47.607v-3.559h-0.574v-0.625h1.316v4.184H97.822z M98.229,41.842c0.127,0,0.236,0.045,0.326,0.135
			s0.135,0.197,0.135,0.322c0,0.128-0.045,0.236-0.135,0.326s-0.199,0.135-0.326,0.135c-0.125,0-0.232-0.045-0.322-0.135
			s-0.135-0.198-0.135-0.326s0.044-0.235,0.133-0.324S98.101,41.842,98.229,41.842z"/>
		<path fill="#231F20" d="M99.471,45.506c0-0.646,0.174-1.167,0.521-1.564s0.805-0.596,1.373-0.596c0.6,0,1.064,0.19,1.395,0.572
			s0.496,0.911,0.496,1.588c0,0.675-0.17,1.206-0.508,1.596s-0.799,0.584-1.383,0.584c-0.596,0-1.061-0.196-1.395-0.59
			S99.471,46.173,99.471,45.506z M100.252,45.506c0,1.05,0.371,1.574,1.113,1.574c0.346,0,0.617-0.141,0.814-0.422
			s0.295-0.665,0.295-1.152c0-1.036-0.369-1.555-1.109-1.555c-0.338,0-0.609,0.138-0.811,0.414S100.252,45.021,100.252,45.506z"/>
		<path fill="#231F20" d="M106.611,47.607v-2.434c0-0.445-0.066-0.757-0.201-0.936s-0.359-0.268-0.674-0.268
			c-0.17,0-0.346,0.051-0.531,0.152s-0.326,0.227-0.426,0.375v3.109h-0.742v-4.184h0.508l0.234,0.539
			c0.244-0.411,0.645-0.617,1.199-0.617c0.916,0,1.375,0.558,1.375,1.672v2.59H106.611z"/>
		<path fill="#231F20" d="M114.529,42.096l-0.262,0.668c-0.25-0.183-0.643-0.273-1.18-0.273c-0.502,0-0.906,0.216-1.209,0.648
			s-0.455,0.989-0.455,1.672c0,0.651,0.156,1.179,0.467,1.584s0.713,0.607,1.205,0.607c0.537,0,0.949-0.19,1.238-0.57l0.43,0.598
			c-0.453,0.45-1.037,0.676-1.75,0.676c-0.748,0-1.336-0.27-1.766-0.809s-0.645-1.25-0.645-2.133c0-0.854,0.229-1.563,0.688-2.129
			s1.051-0.848,1.777-0.848C113.691,41.787,114.178,41.89,114.529,42.096z"/>
		<path fill="#231F20" d="M117.967,47.127c-0.297,0.372-0.752,0.559-1.363,0.559c-0.328,0-0.613-0.119-0.854-0.357
			s-0.361-0.534-0.361-0.889c0-0.425,0.186-0.783,0.557-1.076s0.844-0.439,1.42-0.439c0.156,0,0.334,0.034,0.531,0.102
			c0-0.677-0.303-1.016-0.906-1.016c-0.463,0-0.82,0.125-1.07,0.375l-0.313-0.621c0.141-0.114,0.336-0.213,0.584-0.295
			s0.486-0.123,0.713-0.123c0.607,0,1.047,0.138,1.322,0.414s0.412,0.715,0.412,1.316v1.5c0,0.367,0.109,0.612,0.328,0.734v0.371
			c-0.303,0-0.527-0.043-0.678-0.129S118.031,47.325,117.967,47.127z M117.896,45.553c-0.234-0.052-0.398-0.078-0.492-0.078
			c-0.375,0-0.682,0.097-0.918,0.289s-0.355,0.421-0.355,0.684c0,0.435,0.256,0.652,0.77,0.652c0.375,0,0.707-0.179,0.996-0.535
			V45.553z"/>
		<path fill="#231F20" d="M119.865,46.424v-4.715h0.742v4.59c0,0.224,0.064,0.4,0.193,0.529s0.297,0.193,0.506,0.193v0.664
			C120.346,47.686,119.865,47.265,119.865,46.424z"/>
		<path fill="#231F20" d="M122.225,46.424v-4.715h0.742v4.59c0,0.224,0.064,0.4,0.193,0.529s0.297,0.193,0.506,0.193v0.664
			C122.705,47.686,122.225,47.265,122.225,46.424z"/>
		<path fill="#231F20" d="M124.252,47.357l0.262-0.703c0.414,0.271,0.748,0.406,1,0.406c0.459,0,0.688-0.192,0.688-0.578
			c0-0.276-0.221-0.513-0.664-0.711c-0.342-0.156-0.57-0.274-0.689-0.355s-0.221-0.173-0.309-0.275s-0.152-0.212-0.195-0.328
			s-0.064-0.24-0.064-0.373c0-0.344,0.125-0.612,0.375-0.805s0.576-0.289,0.98-0.289c0.305,0,0.689,0.097,1.152,0.289l-0.211,0.688
			c-0.295-0.234-0.59-0.352-0.887-0.352c-0.178,0-0.326,0.042-0.447,0.125s-0.182,0.188-0.182,0.316
			c0,0.269,0.152,0.472,0.457,0.609l0.531,0.242c0.326,0.148,0.563,0.317,0.711,0.508s0.223,0.429,0.223,0.715
			c0,0.375-0.131,0.669-0.395,0.881s-0.627,0.318-1.094,0.318C125.055,47.686,124.641,47.576,124.252,47.357z"/>
		<path fill="#231F20" d="M133.275,47.408c-0.377,0.185-0.834,0.277-1.367,0.277c-0.545,0-0.965-0.161-1.262-0.482
			s-0.445-0.776-0.445-1.365c0-0.302,0.045-0.563,0.135-0.785s0.254-0.45,0.494-0.688c-0.367-0.364-0.551-0.743-0.551-1.137
			c0-0.398,0.15-0.739,0.451-1.021s0.703-0.424,1.209-0.424c0.537,0,0.951,0.118,1.242,0.355l-0.324,0.602
			c-0.297-0.247-0.563-0.371-0.797-0.371c-0.693,0-1.039,0.313-1.039,0.938c0,0.339,0.15,0.625,0.453,0.859h1.453v-0.715
			l0.742-0.285v1.012h0.973v0.625h-0.973v1.289c0,0.359,0.049,0.604,0.145,0.734s0.264,0.195,0.5,0.195
			c0.141,0,0.307-0.048,0.496-0.145l0.105,0.691c-0.273,0.078-0.586,0.117-0.938,0.117
			C133.736,47.686,133.502,47.593,133.275,47.408z M132.928,46.381v-1.578h-1.574c-0.248,0.317-0.371,0.651-0.371,1
			c0,0.813,0.396,1.219,1.191,1.219c0.354,0,0.619-0.063,0.797-0.191C132.941,46.71,132.928,46.561,132.928,46.381z"/>
		<path fill="#231F20" d="M141.943,42.096l-0.262,0.668c-0.25-0.183-0.643-0.273-1.18-0.273c-0.502,0-0.906,0.216-1.209,0.648
			s-0.455,0.989-0.455,1.672c0,0.651,0.156,1.179,0.467,1.584s0.713,0.607,1.205,0.607c0.537,0,0.949-0.19,1.238-0.57l0.43,0.598
			c-0.453,0.45-1.037,0.676-1.75,0.676c-0.748,0-1.336-0.27-1.766-0.809s-0.645-1.25-0.645-2.133c0-0.854,0.229-1.563,0.688-2.129
			s1.051-0.848,1.777-0.848C141.105,41.787,141.592,41.89,141.943,42.096z"/>
		<path fill="#231F20" d="M143.076,46.424v-4.715h0.742v4.59c0,0.224,0.064,0.4,0.193,0.529s0.297,0.193,0.506,0.193v0.664
			C143.557,47.686,143.076,47.265,143.076,46.424z"/>
		<path fill="#231F20" d="M147.74,47.127c-0.297,0.372-0.752,0.559-1.363,0.559c-0.328,0-0.613-0.119-0.854-0.357
			s-0.361-0.534-0.361-0.889c0-0.425,0.186-0.783,0.557-1.076s0.844-0.439,1.42-0.439c0.156,0,0.334,0.034,0.531,0.102
			c0-0.677-0.303-1.016-0.906-1.016c-0.463,0-0.82,0.125-1.07,0.375l-0.313-0.621c0.141-0.114,0.336-0.213,0.584-0.295
			s0.486-0.123,0.713-0.123c0.607,0,1.047,0.138,1.322,0.414s0.412,0.715,0.412,1.316v1.5c0,0.367,0.109,0.612,0.328,0.734v0.371
			c-0.303,0-0.527-0.043-0.678-0.129S147.805,47.325,147.74,47.127z M147.67,45.553c-0.234-0.052-0.398-0.078-0.492-0.078
			c-0.375,0-0.682,0.097-0.918,0.289s-0.355,0.421-0.355,0.684c0,0.435,0.256,0.652,0.77,0.652c0.375,0,0.707-0.179,0.996-0.535
			V45.553z"/>
		<path fill="#231F20" d="M149.307,47.357l0.262-0.703c0.414,0.271,0.748,0.406,1,0.406c0.459,0,0.688-0.192,0.688-0.578
			c0-0.276-0.221-0.513-0.664-0.711c-0.342-0.156-0.57-0.274-0.689-0.355s-0.221-0.173-0.309-0.275s-0.152-0.212-0.195-0.328
			s-0.064-0.24-0.064-0.373c0-0.344,0.125-0.612,0.375-0.805s0.576-0.289,0.98-0.289c0.305,0,0.689,0.097,1.152,0.289l-0.211,0.688
			c-0.295-0.234-0.59-0.352-0.887-0.352c-0.178,0-0.326,0.042-0.447,0.125s-0.182,0.188-0.182,0.316
			c0,0.269,0.152,0.472,0.457,0.609l0.531,0.242c0.326,0.148,0.563,0.317,0.711,0.508s0.223,0.429,0.223,0.715
			c0,0.375-0.131,0.669-0.395,0.881s-0.627,0.318-1.094,0.318C150.109,47.686,149.695,47.576,149.307,47.357z"/>
		<path fill="#231F20" d="M152.545,47.357l0.262-0.703c0.414,0.271,0.748,0.406,1,0.406c0.459,0,0.688-0.192,0.688-0.578
			c0-0.276-0.221-0.513-0.664-0.711c-0.342-0.156-0.57-0.274-0.689-0.355s-0.221-0.173-0.309-0.275s-0.152-0.212-0.195-0.328
			s-0.064-0.24-0.064-0.373c0-0.344,0.125-0.612,0.375-0.805s0.576-0.289,0.98-0.289c0.305,0,0.689,0.097,1.152,0.289l-0.211,0.688
			c-0.295-0.234-0.59-0.352-0.887-0.352c-0.178,0-0.326,0.042-0.447,0.125s-0.182,0.188-0.182,0.316
			c0,0.269,0.152,0.472,0.457,0.609l0.531,0.242c0.326,0.148,0.563,0.317,0.711,0.508s0.223,0.429,0.223,0.715
			c0,0.375-0.131,0.669-0.395,0.881s-0.627,0.318-1.094,0.318C153.348,47.686,152.934,47.576,152.545,47.357z"/>
		<path fill="#231F20" d="M158.662,47.607v-5.723h0.781v5.723H158.662z"/>
		<path fill="#231F20" d="M163.268,47.607v-2.434c0-0.445-0.066-0.757-0.201-0.936s-0.359-0.268-0.674-0.268
			c-0.17,0-0.346,0.051-0.531,0.152s-0.326,0.227-0.426,0.375v3.109h-0.742v-4.184h0.508l0.234,0.539
			c0.244-0.411,0.645-0.617,1.199-0.617c0.916,0,1.375,0.558,1.375,1.672v2.59H163.268z"/>
		<path fill="#231F20" d="M164.791,47.357l0.262-0.703c0.414,0.271,0.748,0.406,1,0.406c0.459,0,0.688-0.192,0.688-0.578
			c0-0.276-0.221-0.513-0.664-0.711c-0.342-0.156-0.57-0.274-0.689-0.355s-0.221-0.173-0.309-0.275s-0.152-0.212-0.195-0.328
			s-0.064-0.24-0.064-0.373c0-0.344,0.125-0.612,0.375-0.805s0.576-0.289,0.98-0.289c0.305,0,0.689,0.097,1.152,0.289l-0.211,0.688
			c-0.295-0.234-0.59-0.352-0.887-0.352c-0.178,0-0.326,0.042-0.447,0.125s-0.182,0.188-0.182,0.316
			c0,0.269,0.152,0.472,0.457,0.609l0.531,0.242c0.326,0.148,0.563,0.317,0.711,0.508s0.223,0.429,0.223,0.715
			c0,0.375-0.131,0.669-0.395,0.881s-0.627,0.318-1.094,0.318C165.594,47.686,165.18,47.576,164.791,47.357z"/>
		<path fill="#231F20" d="M168.568,44.01h-0.484v-0.586h0.484v-0.875l0.742-0.285v1.16h1.148v0.586h-1.148v2.078
			c0,0.352,0.059,0.602,0.178,0.75s0.309,0.223,0.572,0.223c0.189,0,0.387-0.048,0.59-0.145l0.109,0.652
			c-0.307,0.078-0.645,0.117-1.012,0.117c-0.33,0-0.609-0.123-0.838-0.369s-0.342-0.557-0.342-0.932V44.01z"/>
		<path fill="#231F20" d="M173.838,47.127c-0.297,0.372-0.752,0.559-1.363,0.559c-0.328,0-0.613-0.119-0.854-0.357
			s-0.361-0.534-0.361-0.889c0-0.425,0.186-0.783,0.557-1.076s0.844-0.439,1.42-0.439c0.156,0,0.334,0.034,0.531,0.102
			c0-0.677-0.303-1.016-0.906-1.016c-0.463,0-0.82,0.125-1.07,0.375l-0.313-0.621c0.141-0.114,0.336-0.213,0.584-0.295
			s0.486-0.123,0.713-0.123c0.607,0,1.047,0.138,1.322,0.414s0.412,0.715,0.412,1.316v1.5c0,0.367,0.109,0.612,0.328,0.734v0.371
			c-0.303,0-0.527-0.043-0.678-0.129S173.902,47.325,173.838,47.127z M173.768,45.553c-0.234-0.052-0.398-0.078-0.492-0.078
			c-0.375,0-0.682,0.097-0.918,0.289s-0.355,0.421-0.355,0.684c0,0.435,0.256,0.652,0.77,0.652c0.375,0,0.707-0.179,0.996-0.535
			V45.553z"/>
		<path fill="#231F20" d="M178.252,47.607v-2.434c0-0.445-0.066-0.757-0.201-0.936s-0.359-0.268-0.674-0.268
			c-0.17,0-0.346,0.051-0.531,0.152s-0.326,0.227-0.426,0.375v3.109h-0.742v-4.184h0.508l0.234,0.539
			c0.244-0.411,0.645-0.617,1.199-0.617c0.916,0,1.375,0.558,1.375,1.672v2.59H178.252z"/>
		<path fill="#231F20" d="M183.205,43.764l-0.367,0.523c-0.076-0.075-0.209-0.147-0.4-0.215s-0.379-0.102-0.564-0.102
			c-0.404,0-0.725,0.142-0.961,0.424s-0.355,0.67-0.355,1.162c0,0.489,0.121,0.862,0.363,1.119s0.578,0.385,1.008,0.385
			c0.334,0,0.67-0.129,1.008-0.387l0.293,0.625c-0.398,0.258-0.893,0.387-1.48,0.387c-0.57,0-1.041-0.191-1.414-0.574
			s-0.559-0.901-0.559-1.555c0-0.667,0.193-1.202,0.58-1.605s0.916-0.605,1.588-0.605c0.217,0,0.451,0.046,0.703,0.137
			S183.086,43.667,183.205,43.764z"/>
		<path fill="#231F20" d="M187.533,45.588h-3.016c0,0.489,0.135,0.866,0.402,1.129c0.236,0.229,0.541,0.344,0.914,0.344
			c0.424,0,0.779-0.124,1.063-0.371l0.313,0.535c-0.115,0.114-0.291,0.214-0.527,0.297c-0.297,0.109-0.627,0.164-0.992,0.164
			c-0.525,0-0.973-0.179-1.34-0.535c-0.408-0.394-0.613-0.922-0.613-1.586c0-0.69,0.209-1.243,0.629-1.66
			c0.375-0.372,0.818-0.559,1.332-0.559c0.596,0,1.064,0.168,1.402,0.504c0.328,0.323,0.492,0.751,0.492,1.285
			C187.592,45.299,187.572,45.45,187.533,45.588z M185.732,43.971c-0.33,0-0.607,0.106-0.832,0.32
			c-0.213,0.203-0.334,0.456-0.363,0.758h2.316c0-0.3-0.094-0.55-0.281-0.75C186.367,44.08,186.086,43.971,185.732,43.971z"/>
		<path fill="#231F20" d="M188.1,47.357l0.262-0.703c0.414,0.271,0.748,0.406,1,0.406c0.459,0,0.688-0.192,0.688-0.578
			c0-0.276-0.221-0.513-0.664-0.711c-0.342-0.156-0.57-0.274-0.689-0.355s-0.221-0.173-0.309-0.275s-0.152-0.212-0.195-0.328
			s-0.064-0.24-0.064-0.373c0-0.344,0.125-0.612,0.375-0.805s0.576-0.289,0.98-0.289c0.305,0,0.689,0.097,1.152,0.289l-0.211,0.688
			c-0.295-0.234-0.59-0.352-0.887-0.352c-0.178,0-0.326,0.042-0.447,0.125s-0.182,0.188-0.182,0.316
			c0,0.269,0.152,0.472,0.457,0.609l0.531,0.242c0.326,0.148,0.563,0.317,0.711,0.508s0.223,0.429,0.223,0.715
			c0,0.375-0.131,0.669-0.395,0.881s-0.627,0.318-1.094,0.318C188.902,47.686,188.488,47.576,188.1,47.357z"/>
	</g>
	<g clip-path="url(#SVGID_2_)">
		<defs>
			<rect id="SVGID_3_" x="50.34" y="36.941" width="20.935" height="9"/>
		</defs>
		<clipPath id="SVGID_4_">
			<use xlink:href="#SVGID_3_"  overflow="visible"/>
		</clipPath>
		<g clip-path="url(#SVGID_4_)">
			<path d="M78.458,15.717c0,1.522-0.929,2.34-2.063,2.34c-1.18,0-1.998-0.916-1.998-2.261c0-1.411,0.87-2.333,2.057-2.333
				C77.674,13.463,78.458,14.392,78.458,15.717z M75.004,15.783c0,0.955,0.514,1.806,1.424,1.806s1.424-0.837,1.424-1.846
				c0-0.89-0.461-1.813-1.417-1.813C75.479,13.931,75.004,14.813,75.004,15.783z"/>
			<path d="M79.186,15.836c0-0.409-0.014-0.738-0.026-1.042h0.514l0.033,0.547h0.013c0.231-0.389,0.613-0.612,1.134-0.612
				c0.778,0,1.358,0.652,1.358,1.614c0,1.147-0.705,1.714-1.457,1.714c-0.422,0-0.791-0.185-0.982-0.501h-0.013v1.733h-0.573V15.836
				z M79.759,16.686c0,0.086,0.007,0.165,0.026,0.237c0.105,0.402,0.455,0.679,0.87,0.679c0.613,0,0.969-0.5,0.969-1.232
				c0-0.633-0.336-1.18-0.949-1.18c-0.396,0-0.771,0.277-0.876,0.712c-0.02,0.072-0.04,0.158-0.04,0.23V16.686z"/>
			<path d="M83.636,14.029v0.765h0.83v0.441h-0.83v1.721c0,0.396,0.112,0.62,0.435,0.62c0.158,0,0.251-0.014,0.336-0.04l0.026,0.441
				c-0.112,0.04-0.29,0.079-0.514,0.079c-0.271,0-0.488-0.092-0.626-0.244c-0.158-0.178-0.225-0.461-0.225-0.837v-1.74h-0.494
				v-0.441h0.494v-0.593L83.636,14.029z"/>
			<path d="M85.766,13.897c0,0.198-0.139,0.356-0.369,0.356c-0.211,0-0.35-0.158-0.35-0.356s0.145-0.362,0.362-0.362
				C85.62,13.535,85.766,13.693,85.766,13.897z M85.119,17.984v-3.19h0.58v3.19H85.119z"/>
			<path d="M89.55,16.363c0,1.18-0.824,1.693-1.589,1.693c-0.857,0-1.529-0.633-1.529-1.641c0-1.062,0.705-1.688,1.582-1.688
				C88.93,14.729,89.55,15.394,89.55,16.363z M87.025,16.396c0,0.699,0.396,1.227,0.962,1.227c0.554,0,0.969-0.521,0.969-1.239
				c0-0.541-0.27-1.22-0.956-1.22C87.321,15.163,87.025,15.796,87.025,16.396z"/>
			<path d="M90.282,15.657c0-0.336-0.006-0.6-0.026-0.863h0.515l0.033,0.527h0.013c0.158-0.297,0.527-0.593,1.055-0.593
				c0.441,0,1.127,0.264,1.127,1.357v1.898h-0.58v-1.839c0-0.515-0.191-0.942-0.738-0.942c-0.375,0-0.672,0.27-0.777,0.593
				c-0.026,0.072-0.04,0.171-0.04,0.271v1.918h-0.58V15.657z"/>
			<path d="M97.654,15.901h-1.72v1.602h1.925v0.481h-2.505v-4.443h2.406v0.481h-1.826v1.404h1.72V15.901z"/>
			<path d="M98.854,14.794l0.455,0.686c0.125,0.178,0.224,0.336,0.329,0.515h0.014c0.105-0.186,0.211-0.35,0.323-0.521l0.442-0.679
				h0.633l-1.088,1.542l1.114,1.648h-0.653l-0.475-0.719c-0.125-0.185-0.231-0.362-0.343-0.554h-0.013
				c-0.105,0.191-0.211,0.362-0.336,0.554l-0.462,0.719h-0.639l1.134-1.628l-1.081-1.563H98.854z"/>
			<path d="M101.637,15.836c0-0.409-0.013-0.738-0.026-1.042h0.515l0.033,0.547h0.013c0.23-0.389,0.613-0.612,1.134-0.612
				c0.777,0,1.357,0.652,1.357,1.614c0,1.147-0.705,1.714-1.456,1.714c-0.422,0-0.791-0.185-0.982-0.501h-0.013v1.733h-0.574V15.836
				z M102.211,16.686c0,0.086,0.006,0.165,0.025,0.237c0.105,0.402,0.455,0.679,0.871,0.679c0.612,0,0.969-0.5,0.969-1.232
				c0-0.633-0.336-1.18-0.949-1.18c-0.396,0-0.771,0.277-0.877,0.712c-0.02,0.072-0.039,0.158-0.039,0.23V16.686z"/>
			<path d="M105.389,13.305h0.58v4.68h-0.58V13.305z"/>
			<path d="M107.591,13.897c0,0.198-0.138,0.356-0.369,0.356c-0.211,0-0.349-0.158-0.349-0.356s0.145-0.362,0.362-0.362
				C107.446,13.535,107.591,13.693,107.591,13.897z M106.945,17.984v-3.19h0.58v3.19H106.945z"/>
			<path d="M110.762,17.872c-0.151,0.073-0.487,0.185-0.916,0.185c-0.962,0-1.588-0.652-1.588-1.628c0-0.982,0.672-1.7,1.713-1.7
				c0.344,0,0.646,0.085,0.805,0.171l-0.132,0.441c-0.139-0.072-0.356-0.151-0.673-0.151c-0.731,0-1.127,0.547-1.127,1.206
				c0,0.738,0.475,1.193,1.107,1.193c0.33,0,0.547-0.079,0.712-0.151L110.762,17.872z"/>
			<path d="M112.088,13.897c0,0.198-0.139,0.356-0.369,0.356c-0.211,0-0.35-0.158-0.35-0.356s0.146-0.362,0.363-0.362
				C111.943,13.535,112.088,13.693,112.088,13.897z M111.442,17.984v-3.19h0.58v3.19H111.442z"/>
			<path d="M113.684,14.029v0.765h0.831v0.441h-0.831v1.721c0,0.396,0.112,0.62,0.436,0.62c0.158,0,0.25-0.014,0.336-0.04
				l0.026,0.441c-0.112,0.04-0.29,0.079-0.515,0.079c-0.27,0-0.487-0.092-0.626-0.244c-0.158-0.178-0.224-0.461-0.224-0.837v-1.74
				h-0.494v-0.441h0.494v-0.593L113.684,14.029z"/>
			<path d="M118.807,17.22c0,0.276,0.014,0.547,0.047,0.765h-0.521l-0.046-0.402h-0.02c-0.179,0.251-0.521,0.475-0.976,0.475
				c-0.646,0-0.976-0.455-0.976-0.916c0-0.771,0.686-1.193,1.918-1.187v-0.065c0-0.258-0.072-0.738-0.726-0.732
				c-0.303,0-0.612,0.086-0.837,0.237l-0.132-0.389c0.264-0.165,0.652-0.276,1.055-0.276c0.976,0,1.213,0.665,1.213,1.298V17.22z
				 M118.246,16.356c-0.633-0.014-1.351,0.099-1.351,0.718c0,0.383,0.25,0.555,0.54,0.555c0.422,0,0.692-0.264,0.785-0.534
				c0.02-0.066,0.025-0.132,0.025-0.185V16.356z"/>
			<path d="M119.744,15.789c0-0.375-0.007-0.698-0.026-0.995h0.507l0.027,0.633h0.02c0.145-0.429,0.501-0.698,0.89-0.698
				c0.06,0,0.105,0.006,0.158,0.013v0.547c-0.06-0.013-0.118-0.013-0.198-0.013c-0.408,0-0.698,0.303-0.777,0.738
				c-0.014,0.079-0.02,0.178-0.02,0.27v1.701h-0.58V15.789z"/>
			<path d="M122.157,16.494c0.013,0.785,0.508,1.107,1.095,1.107c0.415,0,0.672-0.072,0.883-0.164l0.105,0.415
				c-0.204,0.093-0.561,0.204-1.068,0.204c-0.981,0-1.568-0.652-1.568-1.615c0-0.962,0.566-1.713,1.496-1.713
				c1.049,0,1.318,0.909,1.318,1.496c0,0.118-0.006,0.204-0.02,0.27H122.157z M123.857,16.079c0.007-0.362-0.151-0.936-0.804-0.936
				c-0.593,0-0.844,0.534-0.89,0.936H123.857z"/>
			<path d="M127.379,17.22c0,0.276,0.013,0.547,0.046,0.765h-0.521l-0.047-0.402h-0.02c-0.178,0.251-0.521,0.475-0.976,0.475
				c-0.646,0-0.976-0.455-0.976-0.916c0-0.771,0.686-1.193,1.918-1.187v-0.065c0-0.258-0.072-0.738-0.725-0.732
				c-0.303,0-0.613,0.086-0.837,0.237l-0.132-0.389c0.264-0.165,0.652-0.276,1.055-0.276c0.976,0,1.213,0.665,1.213,1.298V17.22z
				 M126.818,16.356c-0.633-0.014-1.352,0.099-1.352,0.718c0,0.383,0.251,0.555,0.541,0.555c0.422,0,0.691-0.264,0.784-0.534
				c0.02-0.066,0.026-0.132,0.026-0.185V16.356z"/>
			<path d="M130.003,13.693l-0.626,0.824v0.013l0.995-0.132v0.448l-0.995-0.125v0.02l0.633,0.791l-0.415,0.237l-0.402-0.923h-0.013
				l-0.422,0.93l-0.376-0.237l0.626-0.805v-0.02l-0.976,0.132v-0.448l0.969,0.125v-0.013l-0.619-0.812l0.401-0.23l0.409,0.923h0.013
				l0.402-0.929L130.003,13.693z"/>
		</g>
		
			<rect x="72.088" y="38.037" clip-path="url(#SVGID_4_)" fill="none" stroke="#000000" stroke-width="0.412" width="70.098" height="11.681"/>
		<g clip-path="url(#SVGID_4_)">
			<path d="M78.406,44.069c-0.033-0.62-0.073-1.371-0.073-1.918H78.32c-0.158,0.514-0.336,1.074-0.561,1.688l-0.784,2.155H76.54
				l-0.725-2.116c-0.211-0.633-0.383-1.199-0.508-1.727h-0.013c-0.013,0.554-0.046,1.292-0.085,1.964l-0.119,1.905h-0.547
				l0.31-4.442h0.732l0.758,2.148c0.185,0.547,0.329,1.035,0.448,1.496h0.013c0.119-0.448,0.277-0.936,0.475-1.496l0.791-2.148
				h0.732l0.277,4.442h-0.567L78.406,44.069z"/>
			<path d="M82.224,45.256c0,0.277,0.014,0.547,0.046,0.765h-0.521l-0.046-0.402h-0.02c-0.178,0.251-0.521,0.475-0.976,0.475
				c-0.646,0-0.976-0.454-0.976-0.916c0-0.771,0.686-1.193,1.918-1.187v-0.066c0-0.257-0.072-0.738-0.725-0.731
				c-0.303,0-0.613,0.086-0.837,0.237l-0.132-0.389c0.264-0.165,0.653-0.277,1.055-0.277c0.976,0,1.213,0.666,1.213,1.299V45.256z
				 M81.664,44.393c-0.633-0.014-1.351,0.099-1.351,0.719c0,0.382,0.25,0.553,0.54,0.553c0.422,0,0.692-0.264,0.785-0.533
				c0.02-0.066,0.026-0.132,0.026-0.185V44.393z"/>
			<path d="M83.808,41.934c0,0.197-0.139,0.355-0.369,0.355c-0.211,0-0.35-0.158-0.35-0.355s0.145-0.362,0.362-0.362
				C83.662,41.571,83.808,41.729,83.808,41.934z M83.161,46.021v-3.19h0.58v3.19H83.161z"/>
			<path d="M84.704,43.693c0-0.336-0.007-0.6-0.026-0.863h0.514l0.033,0.527h0.013c0.158-0.297,0.527-0.594,1.055-0.594
				c0.442,0,1.127,0.264,1.127,1.358v1.898h-0.58v-1.839c0-0.515-0.191-0.943-0.738-0.943c-0.376,0-0.673,0.271-0.778,0.594
				c-0.026,0.072-0.039,0.172-0.039,0.271v1.918h-0.58V43.693z"/>
			<path d="M89.821,46.021v-2.749h-0.442V42.83h0.442v-0.151c0-0.448,0.105-0.857,0.369-1.114c0.217-0.211,0.507-0.297,0.778-0.297
				c0.211,0,0.382,0.047,0.494,0.093l-0.079,0.448c-0.085-0.04-0.197-0.072-0.369-0.072c-0.494,0-0.619,0.428-0.619,0.922v0.172
				h0.771v0.441h-0.771v2.749H89.821z"/>
			<path d="M94.356,45.144c0,0.337,0.007,0.626,0.026,0.877h-0.514L93.836,45.5h-0.014c-0.145,0.257-0.487,0.593-1.055,0.593
				c-0.501,0-1.101-0.283-1.101-1.397V42.83h0.58v1.76c0,0.606,0.191,1.021,0.712,1.021c0.389,0,0.659-0.27,0.765-0.533
				c0.033-0.079,0.053-0.185,0.053-0.297V42.83h0.58V45.144z"/>
			<path d="M95.32,43.693c0-0.336-0.007-0.6-0.026-0.863h0.514l0.033,0.527h0.013c0.158-0.297,0.527-0.594,1.055-0.594
				c0.442,0,1.127,0.264,1.127,1.358v1.898h-0.58v-1.839c0-0.515-0.191-0.943-0.738-0.943c-0.376,0-0.673,0.271-0.778,0.594
				c-0.026,0.072-0.039,0.172-0.039,0.271v1.918h-0.58V43.693z"/>
			<path d="M101.254,45.908c-0.151,0.072-0.488,0.185-0.916,0.185c-0.963,0-1.589-0.652-1.589-1.628
				c0-0.982,0.672-1.701,1.714-1.701c0.343,0,0.646,0.086,0.804,0.172l-0.132,0.441c-0.138-0.072-0.356-0.151-0.672-0.151
				c-0.731,0-1.127,0.547-1.127,1.206c0,0.738,0.475,1.193,1.107,1.193c0.329,0,0.547-0.079,0.712-0.151L101.254,45.908z"/>
			<path d="M102.712,42.065v0.765h0.83v0.441h-0.83v1.721c0,0.396,0.112,0.619,0.435,0.619c0.158,0,0.251-0.013,0.336-0.039
				l0.027,0.441c-0.112,0.04-0.291,0.079-0.515,0.079c-0.271,0-0.487-0.092-0.626-0.243c-0.158-0.179-0.225-0.462-0.225-0.838v-1.74
				h-0.494V42.83h0.494v-0.594L102.712,42.065z"/>
			<path d="M104.842,41.934c0,0.197-0.139,0.355-0.369,0.355c-0.211,0-0.35-0.158-0.35-0.355s0.145-0.362,0.362-0.362
				C104.696,41.571,104.842,41.729,104.842,41.934z M104.195,46.021v-3.19h0.58v3.19H104.195z"/>
			<path d="M108.626,44.398c0,1.181-0.824,1.694-1.589,1.694c-0.857,0-1.529-0.633-1.529-1.642c0-1.061,0.705-1.688,1.582-1.688
				C108.006,42.764,108.626,43.43,108.626,44.398z M106.102,44.432c0,0.699,0.395,1.227,0.962,1.227
				c0.554,0,0.969-0.521,0.969-1.239c0-0.541-0.271-1.22-0.956-1.22C106.397,43.199,106.102,43.832,106.102,44.432z"/>
			<path d="M109.358,43.693c0-0.336-0.007-0.6-0.026-0.863h0.515l0.032,0.527h0.014c0.158-0.297,0.527-0.594,1.055-0.594
				c0.441,0,1.127,0.264,1.127,1.358v1.898h-0.58v-1.839c0-0.515-0.191-0.943-0.738-0.943c-0.375,0-0.672,0.271-0.777,0.594
				c-0.026,0.072-0.04,0.172-0.04,0.271v1.918h-0.58V43.693z"/>
			<path d="M116.69,45.908c-0.151,0.072-0.487,0.185-0.916,0.185c-0.963,0-1.589-0.652-1.589-1.628c0-0.982,0.672-1.701,1.714-1.701
				c0.343,0,0.646,0.086,0.804,0.172l-0.131,0.441c-0.139-0.072-0.356-0.151-0.673-0.151c-0.731,0-1.127,0.547-1.127,1.206
				c0,0.738,0.475,1.193,1.107,1.193c0.329,0,0.547-0.079,0.712-0.151L116.69,45.908z"/>
			<path d="M119.611,45.256c0,0.277,0.014,0.547,0.047,0.765h-0.521l-0.046-0.402h-0.02c-0.179,0.251-0.521,0.475-0.976,0.475
				c-0.646,0-0.976-0.454-0.976-0.916c0-0.771,0.686-1.193,1.918-1.187v-0.066c0-0.257-0.072-0.738-0.726-0.731
				c-0.303,0-0.612,0.086-0.837,0.237l-0.132-0.389c0.264-0.165,0.652-0.277,1.055-0.277c0.976,0,1.213,0.666,1.213,1.299V45.256z
				 M119.051,44.393c-0.633-0.014-1.351,0.099-1.351,0.719c0,0.382,0.25,0.553,0.54,0.553c0.422,0,0.692-0.264,0.785-0.533
				c0.02-0.066,0.025-0.132,0.025-0.185V44.393z"/>
			<path d="M120.549,41.34h0.58v4.681h-0.58V41.34z"/>
			<path d="M122.104,41.34h0.58v4.681h-0.58V41.34z"/>
		</g>
		<g clip-path="url(#SVGID_4_)">
			<path d="M78.406,58.089c-0.033-0.62-0.073-1.371-0.073-1.918H78.32c-0.158,0.514-0.336,1.074-0.561,1.688l-0.784,2.155H76.54
				l-0.725-2.116c-0.211-0.633-0.383-1.199-0.508-1.727h-0.013c-0.013,0.554-0.046,1.292-0.085,1.964L75.09,60.04h-0.547l0.31-4.442
				h0.732l0.758,2.148c0.185,0.547,0.329,1.035,0.448,1.496h0.013c0.119-0.448,0.277-0.936,0.475-1.496l0.791-2.148h0.732
				l0.277,4.442h-0.567L78.406,58.089z"/>
			<path d="M82.224,59.275c0,0.277,0.014,0.547,0.046,0.765h-0.521l-0.046-0.402h-0.02c-0.178,0.251-0.521,0.475-0.976,0.475
				c-0.646,0-0.976-0.454-0.976-0.916c0-0.771,0.686-1.193,1.918-1.187v-0.066c0-0.257-0.072-0.738-0.725-0.731
				c-0.303,0-0.613,0.086-0.837,0.237l-0.132-0.389c0.264-0.165,0.653-0.277,1.055-0.277c0.976,0,1.213,0.666,1.213,1.299V59.275z
				 M81.664,58.412c-0.633-0.014-1.351,0.099-1.351,0.719c0,0.382,0.25,0.553,0.54,0.553c0.422,0,0.692-0.264,0.785-0.533
				c0.02-0.066,0.026-0.132,0.026-0.185V58.412z"/>
			<path d="M83.808,55.953c0,0.197-0.139,0.355-0.369,0.355c-0.211,0-0.35-0.158-0.35-0.355s0.145-0.362,0.362-0.362
				C83.662,55.591,83.808,55.749,83.808,55.953z M83.161,60.04v-3.19h0.58v3.19H83.161z"/>
			<path d="M84.704,57.713c0-0.336-0.007-0.6-0.026-0.863h0.514l0.033,0.527h0.013c0.158-0.297,0.527-0.594,1.055-0.594
				c0.442,0,1.127,0.264,1.127,1.358v1.898h-0.58v-1.839c0-0.515-0.191-0.943-0.738-0.943c-0.376,0-0.673,0.271-0.778,0.594
				c-0.026,0.072-0.039,0.172-0.039,0.271v1.918h-0.58V57.713z"/>
			<path d="M89.821,60.04v-2.749h-0.442V56.85h0.442v-0.151c0-0.448,0.105-0.857,0.369-1.114c0.217-0.211,0.507-0.297,0.778-0.297
				c0.211,0,0.382,0.047,0.494,0.093l-0.079,0.448c-0.085-0.04-0.197-0.072-0.369-0.072c-0.494,0-0.619,0.428-0.619,0.922v0.172
				h0.771v0.441h-0.771v2.749H89.821z"/>
			<path d="M94.356,59.163c0,0.337,0.007,0.626,0.026,0.877h-0.514l-0.033-0.521h-0.014c-0.145,0.257-0.487,0.593-1.055,0.593
				c-0.501,0-1.101-0.283-1.101-1.397V56.85h0.58v1.76c0,0.606,0.191,1.021,0.712,1.021c0.389,0,0.659-0.27,0.765-0.533
				c0.033-0.079,0.053-0.185,0.053-0.297V56.85h0.58V59.163z"/>
			<path d="M95.32,57.713c0-0.336-0.007-0.6-0.026-0.863h0.514l0.033,0.527h0.013c0.158-0.297,0.527-0.594,1.055-0.594
				c0.442,0,1.127,0.264,1.127,1.358v1.898h-0.58v-1.839c0-0.515-0.191-0.943-0.738-0.943c-0.376,0-0.673,0.271-0.778,0.594
				c-0.026,0.072-0.039,0.172-0.039,0.271v1.918h-0.58V57.713z"/>
			<path d="M101.254,59.928c-0.151,0.072-0.488,0.185-0.916,0.185c-0.963,0-1.589-0.652-1.589-1.628
				c0-0.982,0.672-1.701,1.714-1.701c0.343,0,0.646,0.086,0.804,0.172l-0.132,0.441c-0.138-0.072-0.356-0.151-0.672-0.151
				c-0.731,0-1.127,0.547-1.127,1.206c0,0.738,0.475,1.193,1.107,1.193c0.329,0,0.547-0.079,0.712-0.151L101.254,59.928z"/>
			<path d="M102.712,56.085v0.765h0.83v0.441h-0.83v1.721c0,0.396,0.112,0.619,0.435,0.619c0.158,0,0.251-0.013,0.336-0.039
				l0.027,0.441c-0.112,0.04-0.291,0.079-0.515,0.079c-0.271,0-0.487-0.092-0.626-0.243c-0.158-0.179-0.225-0.462-0.225-0.838v-1.74
				h-0.494V56.85h0.494v-0.594L102.712,56.085z"/>
			<path d="M104.842,55.953c0,0.197-0.139,0.355-0.369,0.355c-0.211,0-0.35-0.158-0.35-0.355s0.145-0.362,0.362-0.362
				C104.696,55.591,104.842,55.749,104.842,55.953z M104.195,60.04v-3.19h0.58v3.19H104.195z"/>
			<path d="M108.626,58.418c0,1.181-0.824,1.694-1.589,1.694c-0.857,0-1.529-0.633-1.529-1.642c0-1.061,0.705-1.688,1.582-1.688
				C108.006,56.783,108.626,57.449,108.626,58.418z M106.102,58.451c0,0.699,0.395,1.227,0.962,1.227
				c0.554,0,0.969-0.521,0.969-1.239c0-0.541-0.271-1.22-0.956-1.22C106.397,57.219,106.102,57.852,106.102,58.451z"/>
			<path d="M109.358,57.713c0-0.336-0.007-0.6-0.026-0.863h0.515l0.032,0.527h0.014c0.158-0.297,0.527-0.594,1.055-0.594
				c0.441,0,1.127,0.264,1.127,1.358v1.898h-0.58v-1.839c0-0.515-0.191-0.943-0.738-0.943c-0.375,0-0.672,0.271-0.777,0.594
				c-0.026,0.072-0.04,0.172-0.04,0.271v1.918h-0.58V57.713z"/>
		</g>
		<g clip-path="url(#SVGID_4_)">
			<path d="M75.38,84.511l-0.461,1.397h-0.594l1.517-4.443h0.686l1.516,4.443H77.43l-0.475-1.397H75.38z M76.844,84.063
				l-0.442-1.279c-0.099-0.289-0.165-0.553-0.231-0.811h-0.013c-0.066,0.258-0.132,0.534-0.225,0.805l-0.435,1.285H76.844z"/>
			<path d="M81.354,81.229v3.855c0,0.283,0.013,0.606,0.026,0.824h-0.514l-0.026-0.554h-0.02c-0.171,0.356-0.554,0.626-1.074,0.626
				c-0.771,0-1.371-0.652-1.371-1.621c-0.007-1.062,0.659-1.707,1.431-1.707c0.494,0,0.817,0.23,0.962,0.48h0.014v-1.904H81.354z
				 M80.78,84.017c0-0.073-0.007-0.172-0.026-0.244c-0.086-0.362-0.402-0.666-0.837-0.666c-0.6,0-0.956,0.527-0.956,1.227
				c0,0.646,0.323,1.18,0.942,1.18c0.389,0,0.745-0.264,0.851-0.692c0.02-0.079,0.026-0.158,0.026-0.25V84.017z"/>
			<path d="M85.073,81.229v3.855c0,0.283,0.013,0.606,0.026,0.824h-0.514l-0.026-0.554h-0.02c-0.172,0.356-0.554,0.626-1.075,0.626
				c-0.771,0-1.371-0.652-1.371-1.621c-0.006-1.062,0.659-1.707,1.43-1.707c0.495,0,0.817,0.23,0.963,0.48h0.013v-1.904H85.073z
				 M84.499,84.017c0-0.073-0.006-0.172-0.026-0.244c-0.085-0.362-0.402-0.666-0.837-0.666c-0.6,0-0.956,0.527-0.956,1.227
				c0,0.646,0.323,1.18,0.943,1.18c0.389,0,0.745-0.264,0.85-0.692c0.02-0.079,0.026-0.158,0.026-0.25V84.017z"/>
			<path d="M86.688,81.821c0,0.198-0.138,0.356-0.369,0.356c-0.211,0-0.349-0.158-0.349-0.356s0.145-0.362,0.363-0.362
				C86.544,81.459,86.688,81.617,86.688,81.821z M86.043,85.908v-3.19h0.58v3.19H86.043z"/>
			<path d="M88.284,81.953v0.765h0.831v0.441h-0.831v1.721c0,0.396,0.112,0.62,0.436,0.62c0.158,0,0.25-0.014,0.336-0.04
				l0.026,0.441c-0.112,0.04-0.29,0.079-0.514,0.079c-0.27,0-0.488-0.092-0.626-0.244c-0.158-0.178-0.224-0.461-0.224-0.837v-1.74
				h-0.495v-0.441h0.495v-0.593L88.284,81.953z"/>
			<path d="M90.414,81.821c0,0.198-0.138,0.356-0.369,0.356c-0.211,0-0.349-0.158-0.349-0.356s0.145-0.362,0.363-0.362
				C90.27,81.459,90.414,81.617,90.414,81.821z M89.769,85.908v-3.19h0.58v3.19H89.769z"/>
			<path d="M94.198,84.287c0,1.18-0.824,1.693-1.588,1.693c-0.857,0-1.529-0.633-1.529-1.641c0-1.062,0.706-1.688,1.582-1.688
				C93.579,82.652,94.198,83.317,94.198,84.287z M91.674,84.319c0,0.699,0.396,1.227,0.962,1.227c0.554,0,0.969-0.521,0.969-1.239
				c0-0.541-0.271-1.22-0.956-1.22C91.971,83.087,91.674,83.72,91.674,84.319z"/>
			<path d="M94.932,83.581c0-0.336-0.007-0.6-0.026-0.863h0.514l0.033,0.527h0.013c0.158-0.297,0.527-0.593,1.055-0.593
				c0.442,0,1.127,0.264,1.127,1.357v1.898h-0.58v-1.839c0-0.515-0.191-0.942-0.738-0.942c-0.376,0-0.673,0.27-0.778,0.593
				c-0.026,0.072-0.039,0.171-0.039,0.271v1.918h-0.58V83.581z"/>
			<path d="M100.832,85.144c0,0.276,0.014,0.547,0.046,0.765h-0.521l-0.046-0.402h-0.02c-0.178,0.251-0.521,0.475-0.976,0.475
				c-0.646,0-0.976-0.455-0.976-0.916c0-0.771,0.686-1.193,1.918-1.187v-0.065c0-0.258-0.072-0.738-0.725-0.732
				c-0.303,0-0.613,0.086-0.837,0.237l-0.132-0.389c0.264-0.165,0.653-0.276,1.055-0.276c0.976,0,1.213,0.665,1.213,1.298V85.144z
				 M100.272,84.28c-0.633-0.014-1.351,0.099-1.351,0.718c0,0.383,0.25,0.555,0.54,0.555c0.422,0,0.692-0.264,0.785-0.534
				c0.02-0.066,0.026-0.132,0.026-0.185V84.28z"/>
			<path d="M101.77,81.229h0.58v4.68h-0.58V81.229z"/>
			<path d="M104.782,85.908v-2.749h-0.441v-0.441h0.441v-0.151c0-0.448,0.105-0.857,0.369-1.114
				c0.218-0.211,0.508-0.297,0.778-0.297c0.211,0,0.382,0.046,0.494,0.093l-0.079,0.448c-0.086-0.04-0.198-0.073-0.369-0.073
				c-0.495,0-0.62,0.429-0.62,0.924v0.171h0.771v0.441h-0.771v2.749H104.782z"/>
			<path d="M109.318,85.031c0,0.336,0.007,0.627,0.026,0.877h-0.515l-0.032-0.521h-0.014c-0.145,0.257-0.487,0.593-1.055,0.593
				c-0.501,0-1.101-0.283-1.101-1.397v-1.865h0.58v1.76c0,0.606,0.191,1.022,0.712,1.022c0.389,0,0.659-0.271,0.765-0.534
				c0.033-0.079,0.053-0.185,0.053-0.297v-1.951h0.58V85.031z"/>
			<path d="M110.282,83.581c0-0.336-0.007-0.6-0.026-0.863h0.514l0.033,0.527h0.014c0.158-0.297,0.527-0.593,1.055-0.593
				c0.441,0,1.127,0.264,1.127,1.357v1.898h-0.58v-1.839c0-0.515-0.191-0.942-0.738-0.942c-0.376,0-0.673,0.27-0.778,0.593
				c-0.026,0.072-0.039,0.171-0.039,0.271v1.918h-0.58V83.581z"/>
			<path d="M116.215,85.796c-0.151,0.073-0.487,0.185-0.916,0.185c-0.962,0-1.588-0.652-1.588-1.628c0-0.982,0.672-1.7,1.713-1.7
				c0.344,0,0.646,0.085,0.805,0.171l-0.132,0.441c-0.139-0.072-0.356-0.151-0.673-0.151c-0.731,0-1.127,0.547-1.127,1.206
				c0,0.738,0.475,1.193,1.107,1.193c0.33,0,0.547-0.079,0.712-0.151L116.215,85.796z"/>
			<path d="M117.68,81.953v0.765h0.831v0.441h-0.831v1.721c0,0.396,0.112,0.62,0.436,0.62c0.158,0,0.25-0.014,0.336-0.04
				l0.026,0.441c-0.112,0.04-0.29,0.079-0.515,0.079c-0.27,0-0.487-0.092-0.626-0.244c-0.158-0.178-0.224-0.461-0.224-0.837v-1.74
				h-0.494v-0.441h0.494v-0.593L117.68,81.953z"/>
			<path d="M119.81,81.821c0,0.198-0.138,0.356-0.369,0.356c-0.211,0-0.349-0.158-0.349-0.356s0.145-0.362,0.362-0.362
				C119.665,81.459,119.81,81.617,119.81,81.821z M119.164,85.908v-3.19h0.58v3.19H119.164z"/>
			<path d="M123.594,84.287c0,1.18-0.824,1.693-1.588,1.693c-0.857,0-1.529-0.633-1.529-1.641c0-1.062,0.705-1.688,1.582-1.688
				C122.975,82.652,123.594,83.317,123.594,84.287z M121.069,84.319c0,0.699,0.396,1.227,0.962,1.227c0.555,0,0.97-0.521,0.97-1.239
				c0-0.541-0.271-1.22-0.956-1.22C121.366,83.087,121.069,83.72,121.069,84.319z"/>
			<path d="M124.327,83.581c0-0.336-0.007-0.6-0.026-0.863h0.514l0.033,0.527h0.014c0.158-0.297,0.527-0.593,1.055-0.593
				c0.441,0,1.127,0.264,1.127,1.357v1.898h-0.58v-1.839c0-0.515-0.191-0.942-0.738-0.942c-0.376,0-0.673,0.27-0.778,0.593
				c-0.026,0.072-0.039,0.171-0.039,0.271v1.918h-0.58V83.581z"/>
			<path d="M127.907,85.321c0.179,0.105,0.481,0.225,0.771,0.225c0.415,0,0.613-0.204,0.613-0.475c0-0.277-0.165-0.422-0.587-0.58
				c-0.58-0.211-0.851-0.521-0.851-0.903c0-0.514,0.422-0.936,1.101-0.936c0.323,0,0.607,0.085,0.778,0.197l-0.139,0.422
				c-0.125-0.079-0.355-0.191-0.652-0.191c-0.343,0-0.527,0.198-0.527,0.436c0,0.264,0.185,0.382,0.6,0.547
				c0.548,0.204,0.837,0.481,0.837,0.956c0,0.566-0.441,0.962-1.186,0.962c-0.35,0-0.673-0.092-0.896-0.224L127.907,85.321z"/>
			<path d="M132.285,81.617l-0.627,0.824v0.013l0.996-0.132v0.448l-0.996-0.125v0.02l0.633,0.791l-0.415,0.237l-0.401-0.923h-0.014
				l-0.422,0.93l-0.376-0.237l0.626-0.805v-0.02l-0.975,0.132v-0.448l0.969,0.125v-0.013l-0.62-0.812l0.402-0.23l0.409,0.923h0.013
				l0.402-0.929L132.285,81.617z"/>
		</g>
		
			<rect x="72.088" y="24.018" clip-path="url(#SVGID_4_)" fill="none" stroke="#000000" stroke-width="0.412" width="70.098" height="11.684"/>
		<g clip-path="url(#SVGID_4_)">
			<path d="M78.05,31.803c-0.257,0.099-0.771,0.243-1.371,0.243c-0.672,0-1.226-0.171-1.661-0.587
				c-0.382-0.369-0.62-0.962-0.62-1.654c0-1.324,0.917-2.294,2.406-2.294c0.515,0,0.923,0.112,1.114,0.204l-0.145,0.469
				c-0.237-0.112-0.534-0.191-0.982-0.191c-1.081,0-1.787,0.672-1.787,1.786c0,1.128,0.672,1.793,1.714,1.793
				c0.375,0,0.633-0.053,0.765-0.118v-1.325h-0.896v-0.462h1.463V31.803z"/>
			<path d="M78.901,27.32h0.58V32h-0.58V27.32z"/>
			<path d="M83.345,30.379c0,1.18-0.824,1.693-1.588,1.693c-0.857,0-1.529-0.633-1.529-1.641c0-1.062,0.706-1.688,1.582-1.688
				C82.726,28.744,83.345,29.409,83.345,30.379z M80.82,30.411c0,0.699,0.396,1.227,0.962,1.227c0.554,0,0.969-0.521,0.969-1.239
				c0-0.541-0.271-1.22-0.956-1.22C81.117,29.179,80.82,29.812,80.82,30.411z"/>
			<path d="M84.078,27.32h0.573v2.004h0.013c0.205-0.356,0.574-0.58,1.087-0.58c0.798,0,1.352,0.658,1.352,1.621
				c0,1.141-0.725,1.707-1.437,1.707c-0.461,0-0.831-0.178-1.075-0.593h-0.013L84.546,32h-0.494
				c0.013-0.218,0.026-0.541,0.026-0.824V27.32z M84.651,30.721c0,0.073,0.007,0.146,0.026,0.211c0.105,0.402,0.448,0.68,0.87,0.68
				c0.613,0,0.969-0.494,0.969-1.227c0-0.639-0.329-1.187-0.956-1.187c-0.389,0-0.758,0.277-0.876,0.712
				c-0.02,0.072-0.033,0.152-0.033,0.244V30.721z"/>
			<path d="M90.071,31.235c0,0.276,0.013,0.547,0.046,0.765h-0.521l-0.046-0.402h-0.02c-0.178,0.251-0.521,0.475-0.976,0.475
				c-0.646,0-0.976-0.455-0.976-0.916c0-0.771,0.686-1.193,1.918-1.187v-0.065c0-0.258-0.073-0.738-0.725-0.732
				c-0.303,0-0.613,0.086-0.837,0.237l-0.132-0.389c0.264-0.165,0.652-0.276,1.055-0.276c0.976,0,1.213,0.665,1.213,1.298V31.235z
				 M89.511,30.372c-0.633-0.014-1.352,0.099-1.352,0.718c0,0.383,0.251,0.555,0.541,0.555c0.422,0,0.692-0.264,0.784-0.534
				c0.02-0.066,0.026-0.132,0.026-0.185V30.372z"/>
			<path d="M91.008,27.32h0.58V32h-0.58V27.32z"/>
			<path d="M94.186,28.81l0.626,1.786c0.105,0.297,0.191,0.561,0.257,0.824h0.02c0.072-0.264,0.165-0.527,0.271-0.824l0.619-1.786
				h0.606L95.333,32h-0.554l-1.213-3.19H94.186z"/>
			<path d="M99.354,31.235c0,0.276,0.014,0.547,0.046,0.765H98.88l-0.046-0.402h-0.02c-0.178,0.251-0.521,0.475-0.976,0.475
				c-0.646,0-0.976-0.455-0.976-0.916c0-0.771,0.686-1.193,1.918-1.187v-0.065c0-0.258-0.072-0.738-0.725-0.732
				c-0.303,0-0.613,0.086-0.837,0.237l-0.132-0.389c0.264-0.165,0.653-0.276,1.055-0.276c0.976,0,1.213,0.665,1.213,1.298V31.235z
				 M98.794,30.372c-0.633-0.014-1.351,0.099-1.351,0.718c0,0.383,0.25,0.555,0.54,0.555c0.422,0,0.692-0.264,0.785-0.534
				c0.02-0.066,0.026-0.132,0.026-0.185V30.372z"/>
			<path d="M100.292,29.805c0-0.375-0.007-0.698-0.026-0.995h0.507l0.026,0.633h0.02c0.145-0.429,0.501-0.698,0.89-0.698
				c0.06,0,0.105,0.006,0.158,0.013v0.547c-0.06-0.013-0.119-0.013-0.197-0.013c-0.409,0-0.699,0.303-0.778,0.738
				c-0.013,0.079-0.02,0.178-0.02,0.27V32h-0.58V29.805z"/>
			<path d="M103.114,27.913c0,0.198-0.139,0.356-0.369,0.356c-0.211,0-0.35-0.158-0.35-0.356s0.146-0.362,0.362-0.362
				C102.969,27.551,103.114,27.709,103.114,27.913z M102.468,32v-3.19h0.58V32H102.468z"/>
			<path d="M106.252,31.235c0,0.276,0.014,0.547,0.047,0.765h-0.521l-0.046-0.402h-0.02c-0.179,0.251-0.521,0.475-0.976,0.475
				c-0.646,0-0.976-0.455-0.976-0.916c0-0.771,0.686-1.193,1.918-1.187v-0.065c0-0.258-0.072-0.738-0.726-0.732
				c-0.303,0-0.612,0.086-0.837,0.237l-0.132-0.389c0.264-0.165,0.652-0.276,1.055-0.276c0.976,0,1.213,0.665,1.213,1.298V31.235z
				 M105.691,30.372c-0.633-0.014-1.351,0.099-1.351,0.718c0,0.383,0.25,0.555,0.54,0.555c0.422,0,0.692-0.264,0.785-0.534
				c0.02-0.066,0.025-0.132,0.025-0.185V30.372z"/>
			<path d="M107.189,27.32h0.573v2.004h0.013c0.205-0.356,0.574-0.58,1.088-0.58c0.798,0,1.352,0.658,1.352,1.621
				c0,1.141-0.725,1.707-1.438,1.707c-0.461,0-0.83-0.178-1.074-0.593h-0.013L107.657,32h-0.494
				c0.013-0.218,0.026-0.541,0.026-0.824V27.32z M107.763,30.721c0,0.073,0.007,0.146,0.026,0.211c0.105,0.402,0.448,0.68,0.87,0.68
				c0.613,0,0.969-0.494,0.969-1.227c0-0.639-0.329-1.187-0.956-1.187c-0.389,0-0.758,0.277-0.876,0.712
				c-0.021,0.072-0.033,0.152-0.033,0.244V30.721z"/>
			<path d="M110.941,27.32h0.58V32h-0.58V27.32z"/>
			<path d="M112.82,30.51c0.014,0.785,0.508,1.107,1.094,1.107c0.416,0,0.673-0.072,0.884-0.164l0.105,0.415
				c-0.204,0.093-0.561,0.204-1.067,0.204c-0.982,0-1.569-0.652-1.569-1.615c0-0.962,0.567-1.713,1.496-1.713
				c1.048,0,1.318,0.909,1.318,1.496c0,0.118-0.007,0.204-0.02,0.27H112.82z M114.521,30.095c0.006-0.362-0.152-0.936-0.805-0.936
				c-0.594,0-0.844,0.534-0.89,0.936H114.521z"/>
			<path d="M115.722,31.413c0.178,0.105,0.481,0.225,0.771,0.225c0.416,0,0.613-0.204,0.613-0.475c0-0.277-0.164-0.422-0.586-0.58
				c-0.58-0.211-0.851-0.521-0.851-0.903c0-0.514,0.422-0.936,1.101-0.936c0.323,0,0.606,0.085,0.777,0.197l-0.138,0.422
				c-0.126-0.079-0.356-0.191-0.653-0.191c-0.342,0-0.527,0.198-0.527,0.436c0,0.264,0.186,0.382,0.601,0.547
				c0.547,0.204,0.837,0.481,0.837,0.956c0,0.566-0.441,0.962-1.187,0.962c-0.35,0-0.673-0.092-0.896-0.224L115.722,31.413z"/>
			<path d="M120.1,27.709l-0.627,0.824v0.013l0.996-0.132v0.448l-0.996-0.125v0.02l0.633,0.791l-0.415,0.237l-0.401-0.923h-0.014
				l-0.422,0.93l-0.376-0.237l0.626-0.805v-0.02l-0.975,0.132v-0.448l0.969,0.125v-0.013l-0.62-0.812l0.402-0.23l0.409,0.923h0.013
				l0.402-0.929L120.1,27.709z"/>
		</g>
		<polyline clip-path="url(#SVGID_4_)" fill="none" stroke="#000000" stroke-width="0.618" stroke-linejoin="bevel" points="
			72.092,29.936 65.082,29.936 54.569,35.471 51.061,35.471 		"/>
		<polygon clip-path="url(#SVGID_4_)" points="51.689,34.214 52.063,34.588 51.182,35.471 52.063,36.353 51.689,36.727 
			50.434,35.471 		"/>
		<polyline clip-path="url(#SVGID_4_)" fill="none" stroke="#000000" stroke-width="0.618" stroke-linejoin="bevel" points="
			72.092,43.849 65.082,43.849 54.569,41.632 51.061,41.632 		"/>
	</g>
	<polygon clip-path="url(#SVGID_2_)" points="51.689,40.376 52.063,40.749 51.182,41.632 52.063,42.514 51.689,42.888 
		50.434,41.632 	"/>
	<g clip-path="url(#SVGID_2_)">
		<defs>
			<rect id="SVGID_5_" x="3.34" width="200.02" height="60.941"/>
		</defs>
		<clipPath id="SVGID_6_">
			<use xlink:href="#SVGID_5_"  overflow="visible"/>
		</clipPath>
		<defs>
			<filter id="Adobe_OpacityMaskFilter" filterUnits="userSpaceOnUse" x="0" y="4.66" width="48" height="50.4">
				<feColorMatrix  type="matrix" values="1 0 0 0 0  0 1 0 0 0  0 0 1 0 0  0 0 0 1 0"/>
			</filter>
		</defs>
		<mask maskUnits="userSpaceOnUse" x="0" y="4.66" width="48" height="50.4" id="SVGID_7_">
			<g filter="url(#Adobe_OpacityMaskFilter)">
				<g>
					<defs>
						<rect id="SVGID_8_" x="-2.4" y="2.261" width="53.28" height="66.24"/>
					</defs>
					<clipPath id="SVGID_9_" clip-path="url(#SVGID_6_)">
						<use xlink:href="#SVGID_8_"  overflow="visible"/>
					</clipPath>
					<g transform="matrix(1 0 0 1 2.264103e-008 -1.539052e-007)" clip-path="url(#SVGID_9_)">
						
							<image overflow="visible" width="111" height="138" xlink:href="FF0D9131.jpg"  transform="matrix(0.48 0 0 0.48 -2.4004 2.2607)">
						</image>
					</g>
				</g>
			</g>
		</mask>
		<g clip-path="url(#SVGID_6_)" mask="url(#SVGID_7_)">
			<g>
				<defs>
					<rect id="SVGID_10_" y="4.661" width="48" height="50.399"/>
				</defs>
				<clipPath id="SVGID_11_">
					<use xlink:href="#SVGID_10_"  overflow="visible"/>
				</clipPath>
				<rect y="4.66" opacity="0.75" clip-path="url(#SVGID_11_)" fill="#231F20" width="48" height="50.4"/>
			</g>
		</g>
	</g>
	<g clip-path="url(#SVGID_2_)">
		<defs>
			<rect id="SVGID_12_" x="3.34" y="5.001" width="41.438" height="43.924"/>
		</defs>
		<clipPath id="SVGID_13_">
			<use xlink:href="#SVGID_12_"  overflow="visible"/>
		</clipPath>
		<g transform="matrix(1 0 0 1 4.400746e-008 -6.139379e-008)" clip-path="url(#SVGID_13_)">
			
				<image overflow="visible" width="250" height="265" xlink:href="FF0D9133.jpg"  transform="matrix(0.1658 0 0 0.1658 3.3398 5.001)">
			</image>
		</g>
	</g>
	<g clip-path="url(#SVGID_2_)">
		<defs>
			<rect id="SVGID_14_" x="49.873" width="20.935" height="36.679"/>
		</defs>
		<clipPath id="SVGID_15_">
			<use xlink:href="#SVGID_14_"  overflow="visible"/>
		</clipPath>
		
			<rect x="71.62" y="1.236" clip-path="url(#SVGID_15_)" fill="none" stroke="#000000" stroke-width="0.412" width="70.098" height="11.68"/>
		<g clip-path="url(#SVGID_15_)">
			<path d="M77.991,6.952c0,1.522-0.929,2.34-2.063,2.34c-1.18,0-1.998-0.916-1.998-2.261c0-1.41,0.87-2.334,2.057-2.334
				C77.206,4.697,77.991,5.627,77.991,6.952z M74.537,7.018c0,0.956,0.514,1.807,1.424,1.807s1.424-0.837,1.424-1.846
				c0-0.89-0.461-1.813-1.417-1.813C75.011,5.166,74.537,6.049,74.537,7.018z"/>
			<path d="M78.718,7.07c0-0.408-0.014-0.738-0.026-1.041h0.514l0.033,0.547h0.013c0.231-0.389,0.613-0.613,1.134-0.613
				c0.778,0,1.358,0.653,1.358,1.615c0,1.147-0.705,1.714-1.457,1.714c-0.422,0-0.791-0.185-0.982-0.501h-0.013v1.734h-0.573V7.07z
				 M79.291,7.921c0,0.086,0.007,0.165,0.026,0.237c0.105,0.402,0.455,0.68,0.87,0.68c0.613,0,0.969-0.502,0.969-1.233
				c0-0.633-0.336-1.18-0.949-1.18c-0.396,0-0.771,0.276-0.876,0.712c-0.02,0.072-0.04,0.158-0.04,0.23V7.921z"/>
			<path d="M83.168,5.265v0.765h0.83v0.441h-0.83v1.721c0,0.396,0.112,0.619,0.435,0.619c0.158,0,0.251-0.013,0.336-0.039
				l0.026,0.441c-0.112,0.04-0.29,0.079-0.514,0.079c-0.271,0-0.488-0.092-0.626-0.243c-0.158-0.179-0.225-0.462-0.225-0.838v-1.74
				h-0.494V6.029h0.494V5.436L83.168,5.265z"/>
			<path d="M85.298,5.133c0,0.197-0.139,0.355-0.369,0.355c-0.211,0-0.35-0.158-0.35-0.355s0.145-0.362,0.362-0.362
				C85.152,4.771,85.298,4.929,85.298,5.133z M84.651,9.22v-3.19h0.58v3.19H84.651z"/>
			<path d="M89.082,7.598c0,1.181-0.824,1.694-1.589,1.694c-0.857,0-1.529-0.633-1.529-1.642c0-1.061,0.705-1.688,1.582-1.688
				C88.462,5.963,89.082,6.629,89.082,7.598z M86.557,7.631c0,0.699,0.396,1.227,0.962,1.227c0.554,0,0.969-0.521,0.969-1.239
				c0-0.541-0.27-1.22-0.956-1.22C86.854,6.398,86.557,7.031,86.557,7.631z"/>
			<path d="M89.814,6.893c0-0.336-0.006-0.6-0.026-0.863h0.515l0.033,0.527h0.013c0.158-0.297,0.527-0.594,1.055-0.594
				c0.441,0,1.127,0.264,1.127,1.358V9.22h-0.58V7.381c0-0.515-0.191-0.943-0.738-0.943c-0.375,0-0.672,0.271-0.777,0.594
				c-0.026,0.072-0.04,0.172-0.04,0.271V9.22h-0.58V6.893z"/>
			<path d="M97.186,7.137h-1.72v1.602h1.925V9.22h-2.505V4.777h2.406v0.48h-1.826v1.404h1.72V7.137z"/>
			<path d="M98.387,6.029l0.455,0.686c0.125,0.178,0.224,0.336,0.329,0.514h0.014c0.105-0.184,0.211-0.349,0.323-0.521l0.442-0.679
				h0.633l-1.088,1.543l1.114,1.647h-0.653l-0.475-0.719c-0.125-0.185-0.231-0.362-0.343-0.554h-0.013
				c-0.105,0.191-0.211,0.363-0.336,0.554L98.327,9.22h-0.639l1.134-1.628l-1.081-1.563H98.387z"/>
			<path d="M101.169,7.07c0-0.408-0.013-0.738-0.026-1.041h0.515l0.032,0.547h0.014c0.23-0.389,0.613-0.613,1.134-0.613
				c0.778,0,1.358,0.653,1.358,1.615c0,1.147-0.706,1.714-1.457,1.714c-0.422,0-0.791-0.185-0.982-0.501h-0.014v1.734h-0.573V7.07z
				 M101.742,7.921c0,0.086,0.007,0.165,0.027,0.237c0.105,0.402,0.454,0.68,0.869,0.68c0.613,0,0.97-0.502,0.97-1.233
				c0-0.633-0.337-1.18-0.949-1.18c-0.396,0-0.771,0.276-0.877,0.712c-0.02,0.072-0.04,0.158-0.04,0.23V7.921z"/>
			<path d="M104.921,4.539h0.58V9.22h-0.58V4.539z"/>
			<path d="M107.123,5.133c0,0.197-0.139,0.355-0.369,0.355c-0.211,0-0.35-0.158-0.35-0.355s0.146-0.362,0.363-0.362
				C106.979,4.771,107.123,4.929,107.123,5.133z M106.478,9.22v-3.19h0.58v3.19H106.478z"/>
			<path d="M110.295,9.107c-0.152,0.072-0.488,0.185-0.917,0.185c-0.962,0-1.589-0.652-1.589-1.628c0-0.982,0.673-1.701,1.715-1.701
				c0.342,0,0.646,0.086,0.804,0.172l-0.132,0.441c-0.139-0.072-0.355-0.151-0.672-0.151c-0.732,0-1.128,0.547-1.128,1.206
				c0,0.738,0.475,1.193,1.107,1.193c0.33,0,0.548-0.079,0.712-0.151L110.295,9.107z"/>
			<path d="M111.62,5.133c0,0.197-0.138,0.355-0.369,0.355c-0.211,0-0.349-0.158-0.349-0.355s0.145-0.362,0.362-0.362
				C111.476,4.771,111.62,4.929,111.62,5.133z M110.975,9.22v-3.19h0.58v3.19H110.975z"/>
			<path d="M113.216,5.265v0.765h0.831v0.441h-0.831v1.721c0,0.396,0.112,0.619,0.436,0.619c0.158,0,0.25-0.013,0.336-0.039
				l0.026,0.441c-0.112,0.04-0.29,0.079-0.514,0.079c-0.271,0-0.488-0.092-0.627-0.243c-0.158-0.179-0.224-0.462-0.224-0.838v-1.74
				h-0.495V6.029h0.495V5.436L113.216,5.265z"/>
			<path d="M118.339,8.455c0,0.277,0.014,0.547,0.046,0.765h-0.521l-0.046-0.402h-0.02c-0.178,0.251-0.521,0.475-0.976,0.475
				c-0.646,0-0.976-0.454-0.976-0.916c0-0.771,0.686-1.193,1.918-1.187V7.123c0-0.257-0.072-0.738-0.725-0.731
				c-0.304,0-0.613,0.086-0.838,0.237l-0.132-0.389c0.264-0.165,0.653-0.277,1.055-0.277c0.976,0,1.213,0.666,1.213,1.299V8.455z
				 M117.779,7.592c-0.633-0.014-1.352,0.099-1.352,0.719c0,0.382,0.25,0.553,0.54,0.553c0.422,0,0.692-0.264,0.784-0.533
				c0.021-0.066,0.027-0.132,0.027-0.185V7.592z"/>
			<path d="M119.276,7.024c0-0.376-0.007-0.698-0.026-0.995h0.508l0.025,0.633h0.021c0.145-0.429,0.501-0.699,0.89-0.699
				c0.06,0,0.105,0.007,0.158,0.014v0.547c-0.06-0.013-0.119-0.013-0.197-0.013c-0.409,0-0.699,0.303-0.778,0.738
				c-0.013,0.079-0.02,0.178-0.02,0.271v1.7h-0.58V7.024z"/>
			<path d="M121.689,7.73c0.014,0.784,0.508,1.107,1.094,1.107c0.416,0,0.673-0.073,0.884-0.165l0.105,0.415
				c-0.204,0.092-0.561,0.204-1.067,0.204c-0.982,0-1.569-0.652-1.569-1.614c0-0.963,0.567-1.715,1.496-1.715
				c1.048,0,1.318,0.91,1.318,1.497c0,0.118-0.007,0.204-0.02,0.271H121.689z M123.391,7.314c0.006-0.362-0.152-0.936-0.805-0.936
				c-0.594,0-0.844,0.533-0.89,0.936H123.391z"/>
			<path d="M126.911,8.455c0,0.277,0.013,0.547,0.046,0.765h-0.521l-0.046-0.402h-0.021c-0.178,0.251-0.521,0.475-0.976,0.475
				c-0.646,0-0.976-0.454-0.976-0.916c0-0.771,0.686-1.193,1.919-1.187V7.123c0-0.257-0.073-0.738-0.726-0.731
				c-0.304,0-0.613,0.086-0.837,0.237l-0.132-0.389c0.264-0.165,0.652-0.277,1.055-0.277c0.976,0,1.213,0.666,1.213,1.299V8.455z
				 M126.351,7.592c-0.633-0.014-1.352,0.099-1.352,0.719c0,0.382,0.251,0.553,0.541,0.553c0.422,0,0.692-0.264,0.784-0.533
				c0.02-0.066,0.026-0.132,0.026-0.185V7.592z"/>
			<path d="M129.535,4.929l-0.626,0.823v0.014l0.995-0.132v0.448l-0.995-0.125v0.02l0.633,0.791l-0.415,0.237l-0.402-0.923h-0.014
				l-0.422,0.93l-0.375-0.237l0.626-0.805V5.95l-0.976,0.132V5.634l0.969,0.125V5.746l-0.619-0.811l0.402-0.231l0.408,0.923h0.014
				l0.401-0.93L129.535,4.929z"/>
		</g>
		
			<rect x="71.62" y="29.273" clip-path="url(#SVGID_15_)" fill="none" stroke="#000000" stroke-width="0.412" width="70.098" height="11.68"/>
		<g clip-path="url(#SVGID_15_)">
			<path d="M77.938,35.306c-0.033-0.62-0.073-1.371-0.073-1.918h-0.013c-0.158,0.514-0.336,1.074-0.561,1.688l-0.784,2.155h-0.436
				l-0.725-2.116c-0.211-0.633-0.383-1.199-0.508-1.727h-0.013c-0.013,0.554-0.046,1.292-0.085,1.964l-0.119,1.905h-0.547
				l0.31-4.442h0.732l0.758,2.148c0.185,0.547,0.329,1.035,0.448,1.496h0.013c0.119-0.448,0.277-0.936,0.475-1.496l0.791-2.148
				h0.732l0.277,4.442h-0.567L77.938,35.306z"/>
			<path d="M81.756,36.492c0,0.277,0.014,0.547,0.046,0.765h-0.521l-0.046-0.402h-0.02c-0.178,0.251-0.521,0.475-0.976,0.475
				c-0.646,0-0.976-0.454-0.976-0.916c0-0.771,0.686-1.193,1.918-1.187V35.16c0-0.257-0.072-0.738-0.725-0.731
				c-0.303,0-0.613,0.086-0.837,0.237l-0.132-0.389C79.752,34.112,80.141,34,80.543,34c0.976,0,1.213,0.666,1.213,1.299V36.492z
				 M81.196,35.629c-0.633-0.014-1.351,0.099-1.351,0.719c0,0.382,0.25,0.553,0.54,0.553c0.422,0,0.692-0.264,0.785-0.533
				c0.02-0.066,0.026-0.132,0.026-0.185V35.629z"/>
			<path d="M83.34,33.17c0,0.197-0.139,0.355-0.369,0.355c-0.211,0-0.35-0.158-0.35-0.355s0.145-0.362,0.362-0.362
				C83.194,32.808,83.34,32.966,83.34,33.17z M82.693,37.257v-3.19h0.58v3.19H82.693z"/>
			<path d="M84.236,34.93c0-0.336-0.007-0.6-0.026-0.863h0.514l0.033,0.527h0.013C84.928,34.297,85.297,34,85.825,34
				c0.442,0,1.127,0.264,1.127,1.358v1.898h-0.58v-1.839c0-0.515-0.191-0.943-0.738-0.943c-0.376,0-0.673,0.271-0.778,0.594
				c-0.026,0.072-0.039,0.172-0.039,0.271v1.918h-0.58V34.93z"/>
			<path d="M89.353,37.257v-2.749h-0.442v-0.441h0.442v-0.151c0-0.448,0.105-0.857,0.369-1.114c0.217-0.211,0.507-0.297,0.778-0.297
				c0.211,0,0.382,0.047,0.494,0.093l-0.079,0.448c-0.085-0.04-0.197-0.072-0.369-0.072c-0.494,0-0.619,0.428-0.619,0.922v0.172
				h0.771v0.441h-0.771v2.749H89.353z"/>
			<path d="M93.889,36.38c0,0.337,0.007,0.626,0.026,0.877h-0.514l-0.033-0.521h-0.014c-0.145,0.257-0.487,0.593-1.055,0.593
				c-0.501,0-1.101-0.283-1.101-1.397v-1.865h0.58v1.76c0,0.606,0.191,1.021,0.712,1.021c0.389,0,0.659-0.27,0.765-0.533
				c0.033-0.079,0.053-0.185,0.053-0.297v-1.951h0.58V36.38z"/>
			<path d="M94.853,34.93c0-0.336-0.007-0.6-0.026-0.863h0.514l0.033,0.527h0.013C95.544,34.297,95.914,34,96.441,34
				c0.442,0,1.127,0.264,1.127,1.358v1.898h-0.58v-1.839c0-0.515-0.191-0.943-0.738-0.943c-0.376,0-0.673,0.271-0.778,0.594
				c-0.026,0.072-0.039,0.172-0.039,0.271v1.918h-0.58V34.93z"/>
			<path d="M100.786,37.145c-0.151,0.072-0.488,0.185-0.916,0.185c-0.963,0-1.589-0.652-1.589-1.628
				c0-0.982,0.672-1.701,1.714-1.701c0.343,0,0.646,0.086,0.804,0.172l-0.132,0.441c-0.138-0.072-0.356-0.151-0.672-0.151
				c-0.731,0-1.127,0.547-1.127,1.206c0,0.738,0.475,1.193,1.107,1.193c0.329,0,0.547-0.079,0.712-0.151L100.786,37.145z"/>
			<path d="M102.244,33.302v0.765h0.83v0.441h-0.83v1.721c0,0.396,0.111,0.619,0.435,0.619c0.158,0,0.251-0.013,0.337-0.039
				l0.025,0.441c-0.111,0.04-0.289,0.079-0.514,0.079c-0.271,0-0.488-0.092-0.626-0.243c-0.158-0.179-0.225-0.462-0.225-0.838v-1.74
				h-0.494v-0.441h0.494v-0.594L102.244,33.302z"/>
			<path d="M104.374,33.17c0,0.197-0.139,0.355-0.369,0.355c-0.211,0-0.35-0.158-0.35-0.355s0.146-0.362,0.362-0.362
				C104.229,32.808,104.374,32.966,104.374,33.17z M103.728,37.257v-3.19h0.58v3.19H103.728z"/>
			<path d="M108.158,35.635c0,1.181-0.824,1.694-1.589,1.694c-0.856,0-1.529-0.633-1.529-1.642c0-1.061,0.705-1.688,1.582-1.688
				C107.538,34,108.158,34.666,108.158,35.635z M105.633,35.668c0,0.699,0.396,1.227,0.963,1.227c0.554,0,0.969-0.521,0.969-1.239
				c0-0.541-0.27-1.22-0.955-1.22C105.93,34.436,105.633,35.068,105.633,35.668z"/>
			<path d="M108.891,34.93c0-0.336-0.006-0.6-0.026-0.863h0.515l0.033,0.527h0.013c0.158-0.297,0.527-0.594,1.055-0.594
				c0.441,0,1.127,0.264,1.127,1.358v1.898h-0.58v-1.839c0-0.515-0.19-0.943-0.738-0.943c-0.376,0-0.672,0.271-0.777,0.594
				c-0.026,0.072-0.04,0.172-0.04,0.271v1.918h-0.58V34.93z"/>
			<path d="M116.223,37.145c-0.151,0.072-0.488,0.185-0.916,0.185c-0.963,0-1.589-0.652-1.589-1.628
				c0-0.982,0.673-1.701,1.714-1.701c0.343,0,0.646,0.086,0.805,0.172l-0.133,0.441c-0.138-0.072-0.355-0.151-0.672-0.151
				c-0.731,0-1.127,0.547-1.127,1.206c0,0.738,0.475,1.193,1.107,1.193c0.329,0,0.547-0.079,0.712-0.151L116.223,37.145z"/>
			<path d="M119.144,36.492c0,0.277,0.014,0.547,0.046,0.765h-0.521l-0.046-0.402h-0.02c-0.178,0.251-0.521,0.475-0.976,0.475
				c-0.646,0-0.976-0.454-0.976-0.916c0-0.771,0.686-1.193,1.918-1.187V35.16c0-0.257-0.072-0.738-0.725-0.731
				c-0.304,0-0.613,0.086-0.838,0.237l-0.132-0.389c0.264-0.165,0.653-0.277,1.055-0.277c0.976,0,1.213,0.666,1.213,1.299V36.492z
				 M118.584,35.629c-0.633-0.014-1.352,0.099-1.352,0.719c0,0.382,0.25,0.553,0.54,0.553c0.422,0,0.692-0.264,0.784-0.533
				c0.021-0.066,0.027-0.132,0.027-0.185V35.629z"/>
			<path d="M120.081,32.576h0.58v4.681h-0.58V32.576z"/>
			<path d="M121.637,32.576h0.58v4.681h-0.58V32.576z"/>
		</g>
		<g clip-path="url(#SVGID_15_)">
			<path d="M77.938,49.324c-0.033-0.619-0.073-1.371-0.073-1.918h-0.013c-0.158,0.514-0.336,1.074-0.561,1.688l-0.784,2.155h-0.436
				l-0.725-2.116c-0.211-0.633-0.383-1.199-0.508-1.727h-0.013c-0.013,0.554-0.046,1.292-0.085,1.964l-0.119,1.905h-0.547
				l0.31-4.443h0.732l0.758,2.149c0.185,0.547,0.329,1.035,0.448,1.496h0.013c0.119-0.448,0.277-0.936,0.475-1.496l0.791-2.149
				h0.732l0.277,4.443h-0.567L77.938,49.324z"/>
			<path d="M81.756,50.511c0,0.276,0.014,0.547,0.046,0.765h-0.521l-0.046-0.402h-0.02c-0.178,0.251-0.521,0.475-0.976,0.475
				c-0.646,0-0.976-0.455-0.976-0.916c0-0.771,0.686-1.193,1.918-1.187V49.18c0-0.258-0.072-0.738-0.725-0.732
				c-0.303,0-0.613,0.086-0.837,0.237l-0.132-0.389c0.264-0.165,0.653-0.276,1.055-0.276c0.976,0,1.213,0.665,1.213,1.298V50.511z
				 M81.196,49.647c-0.633-0.014-1.351,0.099-1.351,0.718c0,0.383,0.25,0.555,0.54,0.555c0.422,0,0.692-0.264,0.785-0.534
				c0.02-0.066,0.026-0.132,0.026-0.185V49.647z"/>
			<path d="M83.34,47.188c0,0.198-0.139,0.356-0.369,0.356c-0.211,0-0.35-0.158-0.35-0.356s0.145-0.362,0.362-0.362
				C83.194,46.826,83.34,46.984,83.34,47.188z M82.693,51.275v-3.19h0.58v3.19H82.693z"/>
			<path d="M84.236,48.948c0-0.336-0.007-0.6-0.026-0.863h0.514l0.033,0.527h0.013c0.158-0.297,0.527-0.593,1.055-0.593
				c0.442,0,1.127,0.264,1.127,1.357v1.898h-0.58v-1.839c0-0.515-0.191-0.942-0.738-0.942c-0.376,0-0.673,0.27-0.778,0.593
				c-0.026,0.072-0.039,0.171-0.039,0.271v1.918h-0.58V48.948z"/>
			<path d="M89.353,51.275v-2.749h-0.442v-0.441h0.442v-0.151c0-0.448,0.105-0.857,0.369-1.114c0.217-0.211,0.507-0.297,0.778-0.297
				c0.211,0,0.382,0.046,0.494,0.093l-0.079,0.448c-0.085-0.04-0.197-0.073-0.369-0.073c-0.494,0-0.619,0.429-0.619,0.924v0.171
				h0.771v0.441h-0.771v2.749H89.353z"/>
			<path d="M93.889,50.398c0,0.336,0.007,0.627,0.026,0.877h-0.514l-0.033-0.521h-0.014c-0.145,0.257-0.487,0.593-1.055,0.593
				c-0.501,0-1.101-0.283-1.101-1.397v-1.865h0.58v1.76c0,0.606,0.191,1.022,0.712,1.022c0.389,0,0.659-0.271,0.765-0.534
				c0.033-0.079,0.053-0.185,0.053-0.297v-1.951h0.58V50.398z"/>
			<path d="M94.853,48.948c0-0.336-0.007-0.6-0.026-0.863h0.514l0.033,0.527h0.013c0.158-0.297,0.527-0.593,1.055-0.593
				c0.442,0,1.127,0.264,1.127,1.357v1.898h-0.58v-1.839c0-0.515-0.191-0.942-0.738-0.942c-0.376,0-0.673,0.27-0.778,0.593
				c-0.026,0.072-0.039,0.171-0.039,0.271v1.918h-0.58V48.948z"/>
			<path d="M100.786,51.163c-0.151,0.073-0.488,0.185-0.916,0.185c-0.963,0-1.589-0.652-1.589-1.628c0-0.982,0.672-1.7,1.714-1.7
				c0.343,0,0.646,0.085,0.804,0.171l-0.132,0.441c-0.138-0.072-0.356-0.151-0.672-0.151c-0.731,0-1.127,0.547-1.127,1.206
				c0,0.738,0.475,1.193,1.107,1.193c0.329,0,0.547-0.079,0.712-0.151L100.786,51.163z"/>
			<path d="M102.244,47.32v0.765h0.83v0.441h-0.83v1.721c0,0.396,0.111,0.62,0.435,0.62c0.158,0,0.251-0.014,0.337-0.04l0.025,0.441
				c-0.111,0.04-0.289,0.079-0.514,0.079c-0.271,0-0.488-0.092-0.626-0.244c-0.158-0.178-0.225-0.461-0.225-0.837v-1.74h-0.494
				v-0.441h0.494v-0.593L102.244,47.32z"/>
			<path d="M104.374,47.188c0,0.198-0.139,0.356-0.369,0.356c-0.211,0-0.35-0.158-0.35-0.356s0.146-0.362,0.362-0.362
				C104.229,46.826,104.374,46.984,104.374,47.188z M103.728,51.275v-3.19h0.58v3.19H103.728z"/>
			<path d="M108.158,49.654c0,1.18-0.824,1.693-1.589,1.693c-0.856,0-1.529-0.633-1.529-1.641c0-1.062,0.705-1.688,1.582-1.688
				C107.538,48.02,108.158,48.685,108.158,49.654z M105.633,49.687c0,0.699,0.396,1.227,0.963,1.227
				c0.554,0,0.969-0.521,0.969-1.239c0-0.541-0.27-1.22-0.955-1.22C105.93,48.454,105.633,49.087,105.633,49.687z"/>
			<path d="M108.891,48.948c0-0.336-0.006-0.6-0.026-0.863h0.515l0.033,0.527h0.013c0.158-0.297,0.527-0.593,1.055-0.593
				c0.441,0,1.127,0.264,1.127,1.357v1.898h-0.58v-1.839c0-0.515-0.19-0.942-0.738-0.942c-0.376,0-0.672,0.27-0.777,0.593
				c-0.026,0.072-0.04,0.171-0.04,0.271v1.918h-0.58V48.948z"/>
		</g>
		<g clip-path="url(#SVGID_15_)">
			<path d="M74.912,75.746l-0.461,1.397h-0.594l1.517-4.442h0.686l1.516,4.442h-0.613l-0.475-1.397H74.912z M76.376,75.298
				l-0.442-1.278c-0.099-0.291-0.165-0.555-0.231-0.812H75.69c-0.066,0.257-0.132,0.534-0.225,0.805l-0.435,1.285H76.376z"/>
			<path d="M80.886,72.463v3.856c0,0.284,0.013,0.606,0.026,0.824h-0.514l-0.026-0.554h-0.02c-0.171,0.355-0.554,0.626-1.074,0.626
				c-0.771,0-1.371-0.652-1.371-1.621c-0.007-1.062,0.659-1.708,1.431-1.708c0.494,0,0.817,0.231,0.962,0.481h0.014v-1.905H80.886z
				 M80.313,75.252c0-0.072-0.007-0.172-0.026-0.244c-0.086-0.362-0.402-0.666-0.837-0.666c-0.6,0-0.956,0.527-0.956,1.227
				c0,0.646,0.323,1.18,0.942,1.18c0.389,0,0.745-0.264,0.851-0.692c0.02-0.079,0.026-0.158,0.026-0.25V75.252z"/>
			<path d="M84.605,72.463v3.856c0,0.284,0.013,0.606,0.026,0.824h-0.514l-0.026-0.554h-0.02c-0.172,0.355-0.554,0.626-1.075,0.626
				c-0.771,0-1.371-0.652-1.371-1.621c-0.006-1.062,0.659-1.708,1.43-1.708c0.495,0,0.817,0.231,0.963,0.481h0.013v-1.905H84.605z
				 M84.031,75.252c0-0.072-0.006-0.172-0.026-0.244c-0.085-0.362-0.402-0.666-0.837-0.666c-0.6,0-0.956,0.527-0.956,1.227
				c0,0.646,0.323,1.18,0.943,1.18c0.389,0,0.745-0.264,0.85-0.692c0.02-0.079,0.026-0.158,0.026-0.25V75.252z"/>
			<path d="M86.221,73.057c0,0.197-0.138,0.355-0.369,0.355c-0.211,0-0.349-0.158-0.349-0.355s0.145-0.362,0.363-0.362
				C86.076,72.694,86.221,72.853,86.221,73.057z M85.575,77.144v-3.19h0.58v3.19H85.575z"/>
			<path d="M87.816,73.188v0.765h0.831v0.441h-0.831v1.721c0,0.396,0.112,0.619,0.436,0.619c0.158,0,0.25-0.013,0.336-0.039
				l0.026,0.441c-0.112,0.04-0.29,0.079-0.514,0.079c-0.27,0-0.488-0.092-0.626-0.243c-0.158-0.179-0.224-0.462-0.224-0.838v-1.74
				h-0.495v-0.441h0.495v-0.594L87.816,73.188z"/>
			<path d="M89.946,73.057c0,0.197-0.138,0.355-0.369,0.355c-0.211,0-0.349-0.158-0.349-0.355s0.145-0.362,0.363-0.362
				C89.802,72.694,89.946,72.853,89.946,73.057z M89.301,77.144v-3.19h0.58v3.19H89.301z"/>
			<path d="M93.73,75.521c0,1.181-0.824,1.694-1.588,1.694c-0.857,0-1.529-0.633-1.529-1.642c0-1.061,0.706-1.688,1.582-1.688
				C93.111,73.887,93.73,74.553,93.73,75.521z M91.206,75.555c0,0.699,0.396,1.227,0.962,1.227c0.554,0,0.969-0.521,0.969-1.239
				c0-0.541-0.271-1.22-0.956-1.22C91.503,74.322,91.206,74.955,91.206,75.555z"/>
			<path d="M94.464,74.816c0-0.336-0.007-0.6-0.026-0.863h0.514l0.033,0.527h0.013c0.158-0.297,0.527-0.594,1.055-0.594
				c0.442,0,1.127,0.264,1.127,1.358v1.898H96.6v-1.839c0-0.515-0.191-0.943-0.738-0.943c-0.376,0-0.673,0.271-0.778,0.594
				c-0.026,0.072-0.039,0.172-0.039,0.271v1.918h-0.58V74.816z"/>
			<path d="M100.364,76.379c0,0.277,0.014,0.547,0.046,0.765H99.89l-0.046-0.402h-0.02c-0.178,0.251-0.521,0.475-0.976,0.475
				c-0.646,0-0.976-0.454-0.976-0.916c0-0.771,0.686-1.193,1.918-1.187v-0.066c0-0.257-0.072-0.738-0.725-0.731
				c-0.303,0-0.613,0.086-0.837,0.237l-0.132-0.389c0.264-0.165,0.653-0.277,1.055-0.277c0.976,0,1.213,0.666,1.213,1.299V76.379z
				 M99.804,75.516c-0.633-0.014-1.351,0.099-1.351,0.719c0,0.382,0.25,0.553,0.54,0.553c0.422,0,0.692-0.264,0.785-0.533
				c0.02-0.066,0.026-0.132,0.026-0.185V75.516z"/>
			<path d="M101.302,72.463h0.58v4.681h-0.58V72.463z"/>
			<path d="M104.314,77.144v-2.749h-0.441v-0.441h0.441v-0.151c0-0.448,0.105-0.857,0.369-1.114
				c0.218-0.211,0.508-0.297,0.777-0.297c0.211,0,0.383,0.047,0.495,0.093l-0.079,0.448c-0.086-0.04-0.198-0.072-0.369-0.072
				c-0.494,0-0.62,0.428-0.62,0.922v0.172h0.771v0.441h-0.771v2.749H104.314z"/>
			<path d="M108.851,76.267c0,0.337,0.007,0.626,0.026,0.877h-0.514l-0.033-0.521h-0.014c-0.145,0.257-0.487,0.593-1.055,0.593
				c-0.501,0-1.101-0.283-1.101-1.397v-1.865h0.58v1.76c0,0.606,0.191,1.021,0.712,1.021c0.389,0,0.659-0.27,0.765-0.533
				c0.033-0.079,0.053-0.185,0.053-0.297v-1.951h0.58V76.267z"/>
			<path d="M109.814,74.816c0-0.336-0.007-0.6-0.026-0.863h0.514l0.033,0.527h0.013c0.158-0.297,0.527-0.594,1.055-0.594
				c0.442,0,1.128,0.264,1.128,1.358v1.898h-0.58v-1.839c0-0.515-0.191-0.943-0.738-0.943c-0.376,0-0.673,0.271-0.778,0.594
				c-0.026,0.072-0.039,0.172-0.039,0.271v1.918h-0.58V74.816z"/>
			<path d="M115.748,77.031c-0.152,0.072-0.488,0.185-0.917,0.185c-0.962,0-1.589-0.652-1.589-1.628
				c0-0.982,0.673-1.701,1.715-1.701c0.342,0,0.646,0.086,0.804,0.172l-0.132,0.441c-0.139-0.072-0.355-0.151-0.672-0.151
				c-0.732,0-1.128,0.547-1.128,1.206c0,0.738,0.475,1.193,1.107,1.193c0.33,0,0.548-0.079,0.712-0.151L115.748,77.031z"/>
			<path d="M117.212,73.188v0.765h0.831v0.441h-0.831v1.721c0,0.396,0.112,0.619,0.436,0.619c0.158,0,0.25-0.013,0.336-0.039
				l0.026,0.441c-0.112,0.04-0.29,0.079-0.514,0.079c-0.271,0-0.488-0.092-0.627-0.243c-0.158-0.179-0.224-0.462-0.224-0.838v-1.74
				h-0.495v-0.441h0.495v-0.594L117.212,73.188z"/>
			<path d="M119.342,73.057c0,0.197-0.139,0.355-0.369,0.355c-0.211,0-0.35-0.158-0.35-0.355s0.146-0.362,0.363-0.362
				C119.197,72.694,119.342,72.853,119.342,73.057z M118.696,77.144v-3.19h0.58v3.19H118.696z"/>
			<path d="M123.126,75.521c0,1.181-0.823,1.694-1.589,1.694c-0.856,0-1.529-0.633-1.529-1.642c0-1.061,0.706-1.688,1.582-1.688
				C122.507,73.887,123.126,74.553,123.126,75.521z M120.602,75.555c0,0.699,0.396,1.227,0.963,1.227
				c0.553,0,0.969-0.521,0.969-1.239c0-0.541-0.271-1.22-0.956-1.22C120.898,74.322,120.602,74.955,120.602,75.555z"/>
			<path d="M123.859,74.816c0-0.336-0.007-0.6-0.026-0.863h0.514l0.033,0.527h0.013c0.158-0.297,0.527-0.594,1.055-0.594
				c0.442,0,1.128,0.264,1.128,1.358v1.898h-0.58v-1.839c0-0.515-0.191-0.943-0.738-0.943c-0.376,0-0.673,0.271-0.778,0.594
				c-0.026,0.072-0.039,0.172-0.039,0.271v1.918h-0.58V74.816z"/>
			<path d="M127.439,76.557c0.178,0.105,0.481,0.225,0.771,0.225c0.415,0,0.613-0.205,0.613-0.475c0-0.277-0.165-0.422-0.587-0.58
				c-0.58-0.211-0.851-0.521-0.851-0.903c0-0.515,0.422-0.937,1.102-0.937c0.322,0,0.605,0.086,0.777,0.198l-0.139,0.422
				c-0.125-0.079-0.355-0.191-0.652-0.191c-0.343,0-0.527,0.198-0.527,0.436c0,0.264,0.185,0.382,0.6,0.547
				c0.547,0.204,0.838,0.481,0.838,0.956c0,0.566-0.442,0.962-1.188,0.962c-0.349,0-0.672-0.092-0.896-0.224L127.439,76.557z"/>
			<path d="M131.817,72.853l-0.626,0.823v0.014l0.995-0.132v0.448l-0.995-0.125v0.02l0.633,0.791l-0.416,0.237l-0.402-0.923h-0.013
				l-0.422,0.93l-0.376-0.237l0.627-0.805v-0.02l-0.977,0.132v-0.448l0.97,0.125V73.67l-0.62-0.811l0.402-0.231l0.408,0.923h0.014
				l0.402-0.93L131.817,72.853z"/>
		</g>
		
			<rect x="71.62" y="15.253" clip-path="url(#SVGID_15_)" fill="none" stroke="#000000" stroke-width="0.412" width="70.098" height="11.685"/>
		<g clip-path="url(#SVGID_15_)">
			<path d="M77.582,23.039c-0.257,0.099-0.771,0.243-1.371,0.243c-0.672,0-1.226-0.171-1.661-0.587
				c-0.382-0.369-0.62-0.962-0.62-1.654c0-1.324,0.917-2.294,2.406-2.294c0.515,0,0.923,0.112,1.114,0.204l-0.145,0.469
				c-0.237-0.112-0.534-0.191-0.982-0.191c-1.081,0-1.787,0.672-1.787,1.786c0,1.128,0.672,1.793,1.714,1.793
				c0.375,0,0.633-0.053,0.765-0.118v-1.325h-0.896v-0.462h1.463V23.039z"/>
			<path d="M78.434,18.557h0.58v4.68h-0.58V18.557z"/>
			<path d="M82.877,21.615c0,1.18-0.824,1.693-1.588,1.693c-0.857,0-1.529-0.633-1.529-1.641c0-1.062,0.706-1.688,1.582-1.688
				C82.258,19.98,82.877,20.646,82.877,21.615z M80.353,21.647c0,0.699,0.396,1.227,0.962,1.227c0.554,0,0.969-0.521,0.969-1.239
				c0-0.541-0.271-1.22-0.956-1.22C80.649,20.415,80.353,21.048,80.353,21.647z"/>
			<path d="M83.61,18.557h0.573v2.004h0.013c0.205-0.356,0.574-0.58,1.087-0.58c0.798,0,1.352,0.658,1.352,1.621
				c0,1.141-0.725,1.707-1.437,1.707c-0.461,0-0.831-0.178-1.075-0.593h-0.013l-0.033,0.521h-0.494
				c0.013-0.218,0.026-0.541,0.026-0.824V18.557z M84.184,21.957c0,0.073,0.007,0.146,0.026,0.211c0.105,0.402,0.448,0.68,0.87,0.68
				c0.613,0,0.969-0.494,0.969-1.227c0-0.639-0.329-1.187-0.956-1.187c-0.389,0-0.758,0.277-0.876,0.712
				c-0.02,0.072-0.033,0.152-0.033,0.244V21.957z"/>
			<path d="M89.604,22.472c0,0.276,0.013,0.547,0.046,0.765h-0.521l-0.046-0.402h-0.02c-0.178,0.251-0.521,0.475-0.976,0.475
				c-0.646,0-0.976-0.455-0.976-0.916c0-0.771,0.686-1.193,1.918-1.187v-0.065c0-0.258-0.073-0.738-0.725-0.732
				c-0.303,0-0.613,0.086-0.837,0.237l-0.132-0.389c0.264-0.165,0.652-0.276,1.055-0.276c0.976,0,1.213,0.665,1.213,1.298V22.472z
				 M89.043,21.608c-0.633-0.014-1.352,0.099-1.352,0.718c0,0.383,0.251,0.555,0.541,0.555c0.422,0,0.692-0.264,0.784-0.534
				c0.02-0.066,0.026-0.132,0.026-0.185V21.608z"/>
			<path d="M90.54,18.557h0.58v4.68h-0.58V18.557z"/>
			<path d="M93.718,20.046l0.626,1.786c0.105,0.297,0.191,0.561,0.257,0.824h0.02c0.072-0.264,0.165-0.527,0.271-0.824l0.619-1.786
				h0.606l-1.252,3.19h-0.554l-1.213-3.19H93.718z"/>
			<path d="M98.887,22.472c0,0.276,0.014,0.547,0.046,0.765h-0.521l-0.046-0.402h-0.02c-0.178,0.251-0.521,0.475-0.976,0.475
				c-0.646,0-0.976-0.455-0.976-0.916c0-0.771,0.686-1.193,1.918-1.187v-0.065c0-0.258-0.072-0.738-0.725-0.732
				c-0.303,0-0.613,0.086-0.837,0.237l-0.132-0.389c0.264-0.165,0.653-0.276,1.055-0.276c0.976,0,1.213,0.665,1.213,1.298V22.472z
				 M98.327,21.608c-0.633-0.014-1.351,0.099-1.351,0.718c0,0.383,0.25,0.555,0.54,0.555c0.422,0,0.692-0.264,0.785-0.534
				c0.02-0.066,0.026-0.132,0.026-0.185V21.608z"/>
			<path d="M99.824,21.041c0-0.375-0.007-0.698-0.026-0.995h0.507l0.026,0.633h0.02c0.145-0.429,0.501-0.698,0.89-0.698
				c0.06,0,0.105,0.006,0.158,0.013v0.547c-0.06-0.013-0.119-0.013-0.198-0.013c-0.409,0-0.699,0.303-0.778,0.738
				c-0.013,0.079-0.02,0.178-0.02,0.27v1.701h-0.58V21.041z"/>
			<path d="M102.646,19.149c0,0.198-0.139,0.356-0.369,0.356c-0.211,0-0.35-0.158-0.35-0.356s0.145-0.362,0.362-0.362
				C102.501,18.787,102.646,18.945,102.646,19.149z M102,23.236v-3.19h0.58v3.19H102z"/>
			<path d="M105.784,22.472c0,0.276,0.014,0.547,0.046,0.765h-0.521l-0.046-0.402h-0.02c-0.178,0.251-0.521,0.475-0.976,0.475
				c-0.646,0-0.976-0.455-0.976-0.916c0-0.771,0.686-1.193,1.918-1.187v-0.065c0-0.258-0.072-0.738-0.725-0.732
				c-0.304,0-0.613,0.086-0.838,0.237l-0.132-0.389c0.264-0.165,0.653-0.276,1.055-0.276c0.976,0,1.213,0.665,1.213,1.298V22.472z
				 M105.225,21.608c-0.633-0.014-1.352,0.099-1.352,0.718c0,0.383,0.25,0.555,0.54,0.555c0.422,0,0.692-0.264,0.784-0.534
				c0.021-0.066,0.027-0.132,0.027-0.185V21.608z"/>
			<path d="M106.722,18.557h0.573v2.004h0.014c0.204-0.356,0.573-0.58,1.087-0.58c0.798,0,1.352,0.658,1.352,1.621
				c0,1.141-0.726,1.707-1.437,1.707c-0.462,0-0.831-0.178-1.075-0.593h-0.013l-0.033,0.521h-0.494
				c0.013-0.218,0.026-0.541,0.026-0.824V18.557z M107.295,21.957c0,0.073,0.007,0.146,0.026,0.211
				c0.105,0.402,0.448,0.68,0.87,0.68c0.613,0,0.969-0.494,0.969-1.227c0-0.639-0.329-1.187-0.955-1.187
				c-0.39,0-0.759,0.277-0.877,0.712c-0.02,0.072-0.033,0.152-0.033,0.244V21.957z"/>
			<path d="M110.474,18.557h0.58v4.68h-0.58V18.557z"/>
			<path d="M112.353,21.746c0.013,0.785,0.508,1.107,1.095,1.107c0.415,0,0.672-0.072,0.883-0.164l0.105,0.415
				c-0.204,0.093-0.561,0.204-1.068,0.204c-0.981,0-1.568-0.652-1.568-1.615c0-0.962,0.566-1.713,1.496-1.713
				c1.049,0,1.318,0.909,1.318,1.496c0,0.118-0.006,0.204-0.02,0.27H112.353z M114.053,21.331c0.007-0.362-0.151-0.936-0.804-0.936
				c-0.593,0-0.844,0.534-0.89,0.936H114.053z"/>
			<path d="M115.254,22.649c0.178,0.105,0.48,0.225,0.771,0.225c0.415,0,0.612-0.204,0.612-0.475c0-0.277-0.165-0.422-0.587-0.58
				c-0.58-0.211-0.85-0.521-0.85-0.903c0-0.514,0.422-0.936,1.101-0.936c0.323,0,0.606,0.085,0.778,0.197l-0.139,0.422
				c-0.125-0.079-0.356-0.191-0.652-0.191c-0.344,0-0.527,0.198-0.527,0.436c0,0.264,0.184,0.382,0.6,0.547
				c0.547,0.204,0.837,0.481,0.837,0.956c0,0.566-0.441,0.962-1.187,0.962c-0.35,0-0.672-0.092-0.896-0.224L115.254,22.649z"/>
			<path d="M119.632,18.945l-0.626,0.824v0.013l0.995-0.132v0.448l-0.995-0.125v0.02l0.633,0.791l-0.416,0.237l-0.402-0.923h-0.013
				l-0.422,0.93l-0.376-0.237l0.627-0.805v-0.02l-0.977,0.132V19.65l0.97,0.125v-0.013l-0.62-0.812l0.402-0.23l0.408,0.923h0.014
				l0.402-0.929L119.632,18.945z"/>
		</g>
		<polyline clip-path="url(#SVGID_15_)" fill="none" stroke="#000000" stroke-width="0.618" stroke-linejoin="bevel" points="
			71.625,7.259 64.614,7.259 54.102,20.549 50.593,20.549 		"/>
	</g>
	<polygon clip-path="url(#SVGID_2_)" points="51.222,19.293 51.596,19.667 50.714,20.549 51.596,21.431 51.222,21.805 
		49.966,20.549 	"/>
	<g clip-path="url(#SVGID_2_)">
		<defs>
			<rect id="SVGID_16_" x="49.873" width="20.935" height="36.679"/>
		</defs>
		<clipPath id="SVGID_17_">
			<use xlink:href="#SVGID_16_"  overflow="visible"/>
		</clipPath>
		<polyline clip-path="url(#SVGID_17_)" fill="none" stroke="#000000" stroke-width="0.618" stroke-linejoin="bevel" points="
			71.625,21.172 64.614,21.172 54.102,26.707 50.593,26.707 		"/>
	</g>
	<polygon clip-path="url(#SVGID_2_)" points="51.222,25.45 51.596,25.824 50.714,26.706 51.596,27.588 51.222,27.962 49.966,26.706 
			"/>
	<g clip-path="url(#SVGID_2_)">
		<defs>
			<rect id="SVGID_18_" x="49.873" width="20.935" height="36.679"/>
		</defs>
		<clipPath id="SVGID_19_">
			<use xlink:href="#SVGID_18_"  overflow="visible"/>
		</clipPath>
		<polyline clip-path="url(#SVGID_19_)" fill="none" stroke="#000000" stroke-width="0.618" stroke-linejoin="bevel" points="
			71.625,35.085 64.614,35.085 54.102,32.868 50.593,32.868 		"/>
	</g>
	<polygon clip-path="url(#SVGID_2_)" points="51.222,31.611 51.596,31.985 50.714,32.867 51.596,33.749 51.222,34.123 
		49.966,32.867 	"/>
</g>
</svg>
