<?xml version="1.0" encoding="utf-8"?>
<!-- Generator: Adobe Illustrator 14.0.0, SVG Export Plug-In . SVG Version: 6.00 Build 43363)  -->
<!DOCTYPE svg PUBLIC "-//W3C//DTD SVG 1.0//EN" "http://www.w3.org/TR/2001/REC-SVG-20010904/DTD/svg10.dtd">
<svg version="1.0" xmlns="http://www.w3.org/2000/svg" xmlns:xlink="http://www.w3.org/1999/xlink" x="0px" y="0px" width="56.69px"
	 height="56.69px" viewBox="0 0 56.69 56.69" enable-background="new 0 0 56.69 56.69" xml:space="preserve">
<g id="Grids">
	<g>
		
			<line fill-rule="evenodd" clip-rule="evenodd" fill="none" stroke="#D4D4D4" stroke-width="0.27" x1="4.93" y1="0" x2="4.93" y2="56.69"/>
		
			<line fill-rule="evenodd" clip-rule="evenodd" fill="none" stroke="#D4D4D4" stroke-width="0.27" x1="9.61" y1="0" x2="9.61" y2="56.69"/>
		
			<line fill-rule="evenodd" clip-rule="evenodd" fill="none" stroke="#D4D4D4" stroke-width="0.27" x1="18.979" y1="0" x2="18.979" y2="56.69"/>
		
			<line fill-rule="evenodd" clip-rule="evenodd" fill="none" stroke="#D4D4D4" stroke-width="0.27" x1="23.66" y1="0" x2="23.66" y2="56.69"/>
		
			<line fill-rule="evenodd" clip-rule="evenodd" fill="none" stroke="#D4D4D4" stroke-width="0.27" x1="33.029" y1="0" x2="33.029" y2="56.69"/>
		
			<line fill-rule="evenodd" clip-rule="evenodd" fill="none" stroke="#D4D4D4" stroke-width="0.27" x1="37.71" y1="0" x2="37.71" y2="56.69"/>
		
			<line fill-rule="evenodd" clip-rule="evenodd" fill="none" stroke="#D4D4D4" stroke-width="0.27" x1="47.08" y1="0" x2="47.08" y2="56.69"/>
		
			<line fill-rule="evenodd" clip-rule="evenodd" fill="none" stroke="#D4D4D4" stroke-width="0.27" x1="51.76" y1="0" x2="51.76" y2="56.69"/>
		
			<line fill-rule="evenodd" clip-rule="evenodd" fill="none" stroke="#D4D4D4" stroke-width="0.27" x1="56.69" y1="4.93" x2="0" y2="4.93"/>
		
			<line fill-rule="evenodd" clip-rule="evenodd" fill="none" stroke="#D4D4D4" stroke-width="0.27" x1="56.69" y1="9.61" x2="0" y2="9.61"/>
		
			<line fill-rule="evenodd" clip-rule="evenodd" fill="none" stroke="#D4D4D4" stroke-width="0.27" x1="56.69" y1="18.98" x2="0" y2="18.98"/>
		
			<line fill-rule="evenodd" clip-rule="evenodd" fill="none" stroke="#D4D4D4" stroke-width="0.27" x1="56.69" y1="23.66" x2="0" y2="23.66"/>
		
			<line fill-rule="evenodd" clip-rule="evenodd" fill="none" stroke="#D4D4D4" stroke-width="0.27" x1="56.69" y1="33.03" x2="0" y2="33.03"/>
		
			<line fill-rule="evenodd" clip-rule="evenodd" fill="none" stroke="#D4D4D4" stroke-width="0.27" x1="56.69" y1="37.71" x2="0" y2="37.71"/>
		
			<line fill-rule="evenodd" clip-rule="evenodd" fill="none" stroke="#D4D4D4" stroke-width="0.27" x1="56.69" y1="47.08" x2="0" y2="47.08"/>
		
			<line fill-rule="evenodd" clip-rule="evenodd" fill="none" stroke="#D4D4D4" stroke-width="0.27" x1="56.69" y1="51.76" x2="0" y2="51.76"/>
		
			<line fill-rule="evenodd" clip-rule="evenodd" fill="none" stroke="#8A8A8A" stroke-width="0.27" x1="14.3" y1="0" x2="14.3" y2="56.69"/>
		
			<line fill-rule="evenodd" clip-rule="evenodd" fill="none" stroke="#8A8A8A" stroke-width="0.27" x1="0.14" y1="0" x2="0.14" y2="56.69"/>
		
			<line fill-rule="evenodd" clip-rule="evenodd" fill="none" stroke="#8A8A8A" stroke-width="0.27" x1="28.35" y1="28.34" x2="28.35" y2="56.69"/>
		
			<line fill-rule="evenodd" clip-rule="evenodd" fill="none" stroke="#8A8A8A" stroke-width="0.27" x1="42.39" y1="0" x2="42.39" y2="56.69"/>
		
			<line fill-rule="evenodd" clip-rule="evenodd" fill="none" stroke="#8A8A8A" stroke-width="0.27" x1="56.55" y1="0" x2="56.55" y2="56.69"/>
		
			<line fill-rule="evenodd" clip-rule="evenodd" fill="none" stroke="#8A8A8A" stroke-width="0.27" x1="28.35" y1="28.35" x2="0" y2="28.35"/>
		
			<line fill-rule="evenodd" clip-rule="evenodd" fill="none" stroke="#8A8A8A" stroke-width="0.27" x1="56.69" y1="14.3" x2="0" y2="14.3"/>
		
			<line fill-rule="evenodd" clip-rule="evenodd" fill="none" stroke="#8A8A8A" stroke-width="0.27" x1="56.69" y1="0.14" x2="0" y2="0.14"/>
		
			<line fill-rule="evenodd" clip-rule="evenodd" fill="none" stroke="#8A8A8A" stroke-width="0.27" x1="56.69" y1="42.39" x2="0" y2="42.39"/>
		
			<line fill-rule="evenodd" clip-rule="evenodd" fill="none" stroke="#8A8A8A" stroke-width="0.27" x1="56.69" y1="56.55" x2="0" y2="56.55"/>
		<line fill-rule="evenodd" clip-rule="evenodd" fill="none" stroke="#A80000" x1="56.69" y1="28.35" x2="28.34" y2="28.35"/>
		<line fill-rule="evenodd" clip-rule="evenodd" fill="none" stroke="#12AB00" x1="28.35" y1="0" x2="28.35" y2="28.35"/>
	</g>
</g>
<g id="Text">
	<path fill-rule="evenodd" clip-rule="evenodd" d="M52.56,6.51l-0.34,1.13c0.36-0.42,0.67-0.71,0.95-0.88
		c0.28-0.16,0.56-0.25,0.851-0.25c0.289,0,0.539,0.12,0.75,0.351c0.199,0.229,0.3,0.52,0.3,0.89c0,0.72-0.291,1.449-0.87,2.19
		c-0.58,0.739-1.26,1.109-2.04,1.109c-0.16,0-0.3-0.02-0.431-0.06c-0.119-0.03-0.26-0.091-0.42-0.19l-0.359,1.261
		c-0.07,0.25-0.101,0.409-0.101,0.489c0,0.07,0.011,0.13,0.05,0.181C50.94,12.78,51,12.819,51.08,12.85
		c0.09,0.03,0.26,0.04,0.51,0.04l-0.05,0.18h-2.301l0.051-0.18c0.31-0.01,0.51-0.07,0.62-0.159c0.1-0.091,0.21-0.341,0.329-0.75
		l1.23-4.281c0.08-0.27,0.12-0.439,0.12-0.5c0-0.089-0.03-0.159-0.08-0.209s-0.13-0.07-0.23-0.07c-0.089,0-0.229,0.01-0.399,0.029
		V6.76L52.56,6.51z M51.42,10.42c0.2,0.24,0.47,0.36,0.819,0.36c0.171,0,0.341-0.05,0.511-0.141c0.18-0.1,0.35-0.24,0.521-0.42
		c0.17-0.189,0.319-0.4,0.449-0.64c0.13-0.25,0.25-0.53,0.36-0.86s0.159-0.659,0.159-0.979c0-0.26-0.06-0.46-0.18-0.601
		C53.94,7.01,53.8,6.94,53.64,6.94c-0.35,0-0.699,0.199-1.04,0.6c-0.34,0.409-0.59,0.88-0.75,1.42L51.42,10.42z"/>
	<path fill-rule="evenodd" clip-rule="evenodd" d="M53.42,4.17c0.24,0,0.44,0.08,0.601,0.24C54.18,4.569,54.26,4.77,54.26,5
		s-0.08,0.42-0.25,0.58c-0.16,0.16-0.36,0.239-0.59,0.239S53,5.74,52.84,5.58S52.6,5.23,52.6,5s0.08-0.431,0.24-0.59
		C53,4.25,53.19,4.17,53.42,4.17z"/>
	<path fill-rule="evenodd" clip-rule="evenodd" d="M12.989,18.04l1.69-0.28l-0.7,2.38c0.57-0.979,1.08-1.659,1.55-2.05
		c0.261-0.22,0.48-0.33,0.641-0.33c0.109,0,0.2,0.03,0.26,0.101c0.06,0.06,0.091,0.149,0.091,0.27c0,0.22-0.061,0.42-0.171,0.62
		c-0.07,0.14-0.189,0.22-0.329,0.22c-0.08,0-0.141-0.029-0.2-0.08c-0.05-0.04-0.081-0.12-0.101-0.22c0-0.06-0.02-0.101-0.04-0.12
		c-0.03-0.03-0.06-0.04-0.09-0.04c-0.061,0-0.11,0.01-0.16,0.04c-0.08,0.04-0.21,0.17-0.38,0.38c-0.279,0.32-0.57,0.73-0.88,1.24
		c-0.141,0.21-0.26,0.46-0.36,0.729c-0.13,0.37-0.21,0.591-0.229,0.67l-0.16,0.61h-0.74l0.9-3.03c0.1-0.35,0.159-0.6,0.159-0.75
		c0-0.06-0.029-0.109-0.079-0.149c-0.061-0.051-0.15-0.08-0.261-0.08c-0.06,0-0.189,0.021-0.37,0.05L12.989,18.04z"/>
	<path fill-rule="evenodd" clip-rule="evenodd" d="M14.87,15.27c0.24,0,0.439,0.08,0.6,0.24s0.24,0.36,0.24,0.59
		c0,0.23-0.08,0.42-0.25,0.58c-0.16,0.16-0.36,0.24-0.59,0.24c-0.23,0-0.42-0.08-0.58-0.24s-0.24-0.35-0.24-0.58
		c0-0.229,0.08-0.43,0.24-0.59S14.64,15.27,14.87,15.27z"/>
	<path fill-rule="evenodd" clip-rule="evenodd" stroke="#000000" stroke-width="0.25" stroke-linecap="round" d="M49,42.35V42.1
		c-1-0.22-1.43-0.409-1.43-1.479V34.85c0-1.069,0.419-1.229,1.409-1.46v-0.25h-3.209L43.34,39.86L41,33.14h-3.28v0.25
		c0.99,0.23,1.4,0.391,1.4,1.46v5.771c0,1.07-0.42,1.26-1.42,1.479v0.25h3.26V42.1c-0.99-0.22-1.4-0.409-1.4-1.479v-6.471l3,8.32
		h0.34l2.99-8.62v6.771c0,1.07-0.41,1.26-1.4,1.479v0.25H49z M47.68,41.98h-1.9c0.311-0.261,0.48-0.661,0.48-1.36V33.52h1.39
		C47.36,33.78,47.2,34.17,47.2,34.85v5.771C47.2,41.311,47.37,41.72,47.68,41.98z M43.18,40.51l-0.46,1.32l-2.99-8.311h1.01
		L43.18,40.51z M39.649,41.98h-0.64c0.15-0.131,0.25-0.261,0.33-0.45C39.42,41.72,39.521,41.85,39.649,41.98z"/>
</g>
<g id="Vectors">
	<path fill-rule="evenodd" clip-rule="evenodd" d="M28.989,34.5c-1.949,0.02-3.93-0.25-5.89-0.83c-3.51-1.05-6.52-3-8.84-5.51
		l-0.79-0.92l-0.59,0.47c-0.15,0.12-0.46-0.05-0.51-0.229l-0.891-3.131c-0.029-0.109-0.05-0.28,0.041-0.35
		c0.09-0.07,0.25-0.02,0.35,0.04l2.85,1.57c0.16,0.089,0.26,0.43,0.11,0.55l-0.58,0.46l0.739,0.86c2.211,2.39,5.061,4.229,8.4,5.229
		c9.931,2.97,20.4-2.68,23.381-12.61c1.02-3.439,1.02-6.93,0.17-10.17l0.959-0.25c0.9,3.4,0.91,7.09-0.18,10.7
		C45.18,28.88,37.42,34.41,28.989,34.5z"/>
</g>
<g id="Other">
	<path fill-rule="evenodd" clip-rule="evenodd" fill="#FFFFFF" stroke="#000000" d="M49.149,9.8c0,1.09-0.879,1.97-1.97,1.97
		c-1.08,0-1.96-0.88-1.96-1.97c0-1.08,0.88-1.97,1.96-1.97C48.271,7.83,49.149,8.72,49.149,9.8z"/>
	<path fill-rule="evenodd" clip-rule="evenodd" fill="#FFFFFF" stroke="#000000" d="M11.399,19.33c0,1.09-0.879,1.97-1.959,1.97
		c-1.091,0-1.971-0.88-1.971-1.97s0.88-1.97,1.971-1.97C10.521,17.36,11.399,18.24,11.399,19.33z"/>
</g>
</svg>
