<?xml version="1.0" encoding="utf-8"?>
<!-- Generator: Adobe Illustrator 14.0.0, SVG Export Plug-In . SVG Version: 6.00 Build 43363)  -->
<!DOCTYPE svg PUBLIC "-//W3C//DTD SVG 1.0//EN" "http://www.w3.org/TR/2001/REC-SVG-20010904/DTD/svg10.dtd">
<svg version="1.0" id="Layer_1" xmlns="http://www.w3.org/2000/svg" xmlns:xlink="http://www.w3.org/1999/xlink" x="0px" y="0px"
	 width="298.964px" height="240.831px" viewBox="0 0 298.964 240.831" enable-background="new 0 0 298.964 240.831"
	 xml:space="preserve">
<g>
	<defs>
		<rect id="SVGID_1_" x="10.226" y="7.576" width="284.932" height="227.044"/>
	</defs>
	<clipPath id="SVGID_2_">
		<use xlink:href="#SVGID_1_"  overflow="visible"/>
	</clipPath>
	<path clip-path="url(#SVGID_2_)" fill="#D0D2D3" d="M20.394,9.326c0,0-8,0-8,8V224.87c0,0,0,8,8,8h259.615c0,0,8,0,8-8V17.326
		c0,0,0-8-8-8H20.394z"/>
	<path clip-path="url(#SVGID_2_)" fill="#FFFFFF" d="M168.751,208.112h119.426v14.128H168.751V208.112z M105.31,208.112h63.441
		v14.128H105.31V208.112z M12.226,208.112h93.084v14.128H12.226V208.112z M168.751,193.984h119.426v14.128H168.751V193.984z
		 M105.31,193.984h63.441v14.128H105.31V193.984z M12.226,193.984h93.084v14.128H12.226V193.984z M168.751,179.856h119.426v14.128
		H168.751V179.856z M105.31,179.856h63.441v14.128H105.31V179.856z M12.226,179.856h93.084v14.128H12.226V179.856z M168.751,165.729
		h119.426v14.128H168.751V165.729z M105.31,165.729h63.441v14.128H105.31V165.729z M12.226,165.729h93.084v14.128H12.226V165.729z
		 M168.751,151.601h119.426v14.128H168.751V151.601z M105.31,151.601h63.441v14.128H105.31V151.601z M12.226,151.601h93.084v14.128
		H12.226V151.601z M168.751,137.472h119.426v14.129H168.751V137.472z M105.31,137.472h63.441v14.129H105.31V137.472z
		 M12.226,137.472h93.084v14.129H12.226V137.472z M168.751,123.344h119.426v14.128H168.751V123.344z M105.31,123.344h63.441v14.128
		H105.31V123.344z M12.226,123.344h93.084v14.128H12.226V123.344z M168.751,109.216h119.426v14.128H168.751V109.216z
		 M105.31,109.216h63.441v14.128H105.31V109.216z M12.226,109.216h93.084v14.128H12.226V109.216z M168.751,95.088h119.426v14.128
		H168.751V95.088z M105.31,95.088h63.441v14.128H105.31V95.088z M12.226,95.088h93.084v14.128H12.226V95.088z M168.751,80.96
		h119.426v14.128H168.751V80.96z M105.31,80.96h63.441v14.128H105.31V80.96z M12.226,80.96h93.084v14.128H12.226V80.96z
		 M168.751,66.832h119.426V80.96H168.751V66.832z M105.31,66.832h63.441V80.96H105.31V66.832z M12.226,66.832h93.084V80.96H12.226
		V66.832z M168.751,52.705h119.426v14.128H168.751V52.705z M105.31,52.705h63.441v14.128H105.31V52.705z M12.226,52.705h93.084
		v14.128H12.226V52.705z M168.751,38.577h119.426v14.128H168.751V38.577z M105.31,38.577h63.441v14.128H105.31V38.577z
		 M12.226,38.577h93.084v14.128H12.226V38.577z M168.751,24.449h119.426v14.128H168.751V24.449z M105.31,24.449h63.441v14.128
		H105.31V24.449z M12.226,24.449h93.084v14.128H12.226V24.449z"/>
	
		<line clip-path="url(#SVGID_2_)" fill="none" stroke="#231F20" stroke-miterlimit="10" x1="12.226" y1="24.449" x2="105.31" y2="24.449"/>
	
		<line clip-path="url(#SVGID_2_)" fill="none" stroke="#231F20" stroke-miterlimit="10" x1="105.31" y1="24.449" x2="168.751" y2="24.449"/>
	
		<line clip-path="url(#SVGID_2_)" fill="none" stroke="#231F20" stroke-miterlimit="10" x1="168.752" y1="24.449" x2="288.177" y2="24.449"/>
	
		<line clip-path="url(#SVGID_2_)" fill="none" stroke="#231F20" stroke-width="0.25" stroke-miterlimit="10" x1="12.226" y1="38.577" x2="105.31" y2="38.577"/>
	
		<line clip-path="url(#SVGID_2_)" fill="none" stroke="#231F20" stroke-width="0.25" stroke-miterlimit="10" x1="105.31" y1="38.577" x2="168.751" y2="38.577"/>
	
		<line clip-path="url(#SVGID_2_)" fill="none" stroke="#231F20" stroke-width="0.25" stroke-miterlimit="10" x1="168.752" y1="38.577" x2="288.177" y2="38.577"/>
	
		<line clip-path="url(#SVGID_2_)" fill="none" stroke="#231F20" stroke-width="0.25" stroke-miterlimit="10" x1="12.226" y1="52.705" x2="105.31" y2="52.705"/>
	
		<line clip-path="url(#SVGID_2_)" fill="none" stroke="#231F20" stroke-width="0.25" stroke-miterlimit="10" x1="105.31" y1="52.705" x2="168.751" y2="52.705"/>
	
		<line clip-path="url(#SVGID_2_)" fill="none" stroke="#231F20" stroke-width="0.25" stroke-miterlimit="10" x1="168.752" y1="52.705" x2="288.177" y2="52.705"/>
	
		<line clip-path="url(#SVGID_2_)" fill="none" stroke="#231F20" stroke-width="0.25" stroke-miterlimit="10" x1="12.226" y1="66.833" x2="105.31" y2="66.833"/>
	
		<line clip-path="url(#SVGID_2_)" fill="none" stroke="#231F20" stroke-width="0.25" stroke-miterlimit="10" x1="105.31" y1="66.833" x2="168.751" y2="66.833"/>
	
		<line clip-path="url(#SVGID_2_)" fill="none" stroke="#231F20" stroke-width="0.25" stroke-miterlimit="10" x1="168.752" y1="66.833" x2="288.177" y2="66.833"/>
	
		<line clip-path="url(#SVGID_2_)" fill="none" stroke="#231F20" stroke-width="0.25" stroke-miterlimit="10" x1="12.226" y1="80.961" x2="105.31" y2="80.961"/>
	
		<line clip-path="url(#SVGID_2_)" fill="none" stroke="#231F20" stroke-width="0.25" stroke-miterlimit="10" x1="105.31" y1="80.961" x2="168.751" y2="80.961"/>
	
		<line clip-path="url(#SVGID_2_)" fill="none" stroke="#231F20" stroke-width="0.25" stroke-miterlimit="10" x1="168.752" y1="80.961" x2="288.177" y2="80.961"/>
	
		<line clip-path="url(#SVGID_2_)" fill="none" stroke="#231F20" stroke-width="0.25" stroke-miterlimit="10" x1="12.226" y1="95.089" x2="105.31" y2="95.089"/>
	
		<line clip-path="url(#SVGID_2_)" fill="none" stroke="#231F20" stroke-width="0.25" stroke-miterlimit="10" x1="105.31" y1="95.089" x2="168.751" y2="95.089"/>
	
		<line clip-path="url(#SVGID_2_)" fill="none" stroke="#231F20" stroke-width="0.25" stroke-miterlimit="10" x1="168.752" y1="95.089" x2="288.177" y2="95.089"/>
	
		<line clip-path="url(#SVGID_2_)" fill="none" stroke="#231F20" stroke-width="0.25" stroke-miterlimit="10" x1="12.226" y1="109.217" x2="105.31" y2="109.217"/>
	
		<line clip-path="url(#SVGID_2_)" fill="none" stroke="#231F20" stroke-width="0.25" stroke-miterlimit="10" x1="105.31" y1="109.217" x2="168.751" y2="109.217"/>
	
		<line clip-path="url(#SVGID_2_)" fill="none" stroke="#231F20" stroke-width="0.25" stroke-miterlimit="10" x1="168.752" y1="109.217" x2="288.177" y2="109.217"/>
	
		<line clip-path="url(#SVGID_2_)" fill="none" stroke="#231F20" stroke-width="0.25" stroke-miterlimit="10" x1="12.226" y1="123.345" x2="105.31" y2="123.345"/>
	
		<line clip-path="url(#SVGID_2_)" fill="none" stroke="#231F20" stroke-width="0.25" stroke-miterlimit="10" x1="105.31" y1="123.345" x2="168.751" y2="123.345"/>
	
		<line clip-path="url(#SVGID_2_)" fill="none" stroke="#231F20" stroke-width="0.25" stroke-miterlimit="10" x1="168.752" y1="123.345" x2="288.177" y2="123.345"/>
	
		<line clip-path="url(#SVGID_2_)" fill="none" stroke="#231F20" stroke-width="0.25" stroke-miterlimit="10" x1="12.226" y1="137.473" x2="105.31" y2="137.473"/>
	
		<line clip-path="url(#SVGID_2_)" fill="none" stroke="#231F20" stroke-width="0.25" stroke-miterlimit="10" x1="105.31" y1="137.473" x2="168.751" y2="137.473"/>
	
		<line clip-path="url(#SVGID_2_)" fill="none" stroke="#231F20" stroke-width="0.25" stroke-miterlimit="10" x1="168.752" y1="137.473" x2="288.177" y2="137.473"/>
	
		<line clip-path="url(#SVGID_2_)" fill="none" stroke="#231F20" stroke-width="0.25" stroke-miterlimit="10" x1="12.226" y1="151.601" x2="105.31" y2="151.601"/>
	
		<line clip-path="url(#SVGID_2_)" fill="none" stroke="#231F20" stroke-width="0.25" stroke-miterlimit="10" x1="105.31" y1="151.601" x2="168.751" y2="151.601"/>
	
		<line clip-path="url(#SVGID_2_)" fill="none" stroke="#231F20" stroke-width="0.25" stroke-miterlimit="10" x1="168.752" y1="151.601" x2="288.177" y2="151.601"/>
	
		<line clip-path="url(#SVGID_2_)" fill="none" stroke="#231F20" stroke-width="0.25" stroke-miterlimit="10" x1="12.226" y1="165.729" x2="105.31" y2="165.729"/>
	
		<line clip-path="url(#SVGID_2_)" fill="none" stroke="#231F20" stroke-width="0.25" stroke-miterlimit="10" x1="105.31" y1="165.729" x2="168.751" y2="165.729"/>
	
		<line clip-path="url(#SVGID_2_)" fill="none" stroke="#231F20" stroke-width="0.25" stroke-miterlimit="10" x1="168.752" y1="165.729" x2="288.177" y2="165.729"/>
	
		<line clip-path="url(#SVGID_2_)" fill="none" stroke="#231F20" stroke-width="0.25" stroke-miterlimit="10" x1="12.226" y1="179.856" x2="105.31" y2="179.856"/>
	
		<line clip-path="url(#SVGID_2_)" fill="none" stroke="#231F20" stroke-width="0.25" stroke-miterlimit="10" x1="105.31" y1="179.856" x2="168.751" y2="179.856"/>
	
		<line clip-path="url(#SVGID_2_)" fill="none" stroke="#231F20" stroke-width="0.25" stroke-miterlimit="10" x1="168.752" y1="179.856" x2="288.177" y2="179.856"/>
	
		<line clip-path="url(#SVGID_2_)" fill="none" stroke="#231F20" stroke-width="0.25" stroke-miterlimit="10" x1="12.226" y1="193.984" x2="105.31" y2="193.984"/>
	
		<line clip-path="url(#SVGID_2_)" fill="none" stroke="#231F20" stroke-width="0.25" stroke-miterlimit="10" x1="105.31" y1="193.984" x2="168.751" y2="193.984"/>
	
		<line clip-path="url(#SVGID_2_)" fill="none" stroke="#231F20" stroke-width="0.25" stroke-miterlimit="10" x1="168.752" y1="193.984" x2="288.177" y2="193.984"/>
	
		<line clip-path="url(#SVGID_2_)" fill="none" stroke="#231F20" stroke-width="0.25" stroke-miterlimit="10" x1="12.226" y1="208.112" x2="105.31" y2="208.112"/>
	
		<line clip-path="url(#SVGID_2_)" fill="none" stroke="#231F20" stroke-width="0.25" stroke-miterlimit="10" x1="105.31" y1="208.112" x2="168.751" y2="208.112"/>
	
		<line clip-path="url(#SVGID_2_)" fill="none" stroke="#231F20" stroke-width="0.25" stroke-miterlimit="10" x1="168.752" y1="208.112" x2="288.177" y2="208.112"/>
	
		<line clip-path="url(#SVGID_2_)" fill="none" stroke="#231F20" stroke-miterlimit="10" x1="12.226" y1="222.24" x2="105.31" y2="222.24"/>
	
		<line clip-path="url(#SVGID_2_)" fill="none" stroke="#231F20" stroke-miterlimit="10" x1="105.31" y1="222.24" x2="168.751" y2="222.24"/>
	
		<line clip-path="url(#SVGID_2_)" fill="none" stroke="#231F20" stroke-miterlimit="10" x1="168.752" y1="222.24" x2="288.177" y2="222.24"/>
</g>
<text transform="matrix(1 0 0 1 20.2256 20.4492)"><tspan x="0" y="0" fill="#231F20" font-family="'TrebuchetMS-Italic'" font-size="10">V</tspan><tspan x="5.204" y="0" fill="#231F20" font-family="'TrebuchetMS-Italic'" font-size="10">ariable type</tspan></text>
<path fill="#231F20" d="M112.05,17.813c-0.342,0-0.667-0.039-0.977-0.117l-0.488,2.754h-1.016l1.304-7.153
	c0.605-0.065,1.084-0.098,1.436-0.098c1.797,0,2.695,0.693,2.695,2.08c0,0.797-0.277,1.419-0.83,1.865
	C113.62,17.589,112.912,17.813,112.05,17.813L112.05,17.813z M112.548,14.063c-0.267,0-0.552,0.037-0.854,0.112l-0.464,2.642
	c0.179,0.088,0.442,0.132,0.791,0.132c0.579,0,1.048-0.137,1.406-0.408c0.358-0.271,0.537-0.66,0.537-1.164
	C113.964,14.5,113.492,14.063,112.548,14.063L112.548,14.063z M118.813,16.138c-0.195-0.156-0.423-0.234-0.684-0.234
	c-0.329,0-0.643,0.151-0.942,0.456c-0.299,0.305-0.486,0.668-0.562,1.092l-0.532,2.998h-0.928l0.923-5.229h0.928l-0.146,0.835
	c0.449-0.622,1.008-0.933,1.675-0.933c0.114,0,0.292,0.022,0.532,0.068L118.813,16.138z M121.611,18.242
	c-0.469,0-0.864-0.088-1.187-0.264c-0.029,0.156-0.044,0.306-0.044,0.449c0,0.43,0.12,0.76,0.361,0.991
	c0.241,0.23,0.578,0.347,1.011,0.347c0.384,0,0.771-0.142,1.162-0.425l-0.098,0.947c-0.521,0.172-0.981,0.259-1.382,0.259
	c-1.348,0-2.021-0.756-2.021-2.266c0-0.889,0.283-1.638,0.85-2.246c0.566-0.609,1.279-0.913,2.139-0.913
	c0.518,0,0.931,0.11,1.24,0.332c0.309,0.221,0.464,0.537,0.464,0.947c0,0.569-0.241,1.019-0.723,1.348
	C122.901,18.077,122.311,18.242,121.611,18.242L121.611,18.242z M122.358,15.903c-0.843,0-1.434,0.467-1.772,1.401
	c0.247,0.11,0.539,0.166,0.874,0.166c0.508,0,0.923-0.083,1.245-0.247s0.483-0.404,0.483-0.72
	C123.188,16.104,122.911,15.903,122.358,15.903L122.358,15.903z M128.353,20.449l0.796-4.59h-2.28l-0.825,4.932
	c-0.078,0.462-0.29,0.837-0.635,1.125c-0.345,0.288-0.764,0.463-1.255,0.525l-0.083-0.571c0.195-0.039,0.396-0.171,0.601-0.396
	s0.329-0.453,0.371-0.684l0.864-4.932h-0.737l0.107-0.64h0.718c0.286-1.43,1.004-2.144,2.153-2.144c0.273,0,0.504,0.049,0.693,0.146
	l-0.176,0.723c-0.248-0.092-0.439-0.137-0.576-0.137c-0.586,0-0.962,0.47-1.128,1.411h3.232l-0.898,5.229H128.353z M129.852,13.169
	c0.179,0,0.332,0.063,0.459,0.188s0.19,0.279,0.19,0.462c0,0.179-0.063,0.331-0.19,0.456s-0.28,0.188-0.459,0.188
	c-0.179,0-0.332-0.063-0.459-0.188s-0.19-0.277-0.19-0.456c0-0.183,0.063-0.337,0.19-0.462S129.673,13.169,129.852,13.169z
	 M134.059,20.449l-0.918-1.836l-1.44,1.836h-1.133l2.153-2.72l-1.318-2.51h1.094l0.864,1.816l1.328-1.816h1.221l-2.085,2.588
	l1.44,2.642H134.059z"/>
<text transform="matrix(1 0 0 1 172.7456 20.4492)" fill="#231F20" font-family="'TrebuchetMS-Italic'" font-size="10">Example</text>
<text transform="matrix(1 0 0 1.1111 16.2256 34.5771)" fill="#231F20" font-family="'CourierNewPS-ItalicMT'" font-size="9">Boolean</text>
<text transform="matrix(1 0 0 1.1111 109.3125 34.5771)" fill="#231F20" font-family="'CourierNewPS-ItalicMT'" font-size="9">bln</text>
<text transform="matrix(1 0 0 1.1111 172.7534 34.5771)" fill="#231F20" font-family="'CourierNewPS-ItalicMT'" font-size="9">blnSuccess</text>
<text transform="matrix(1 0 0 1.1111 16.2256 48.707)" fill="#231F20" font-family="'CourierNewPS-ItalicMT'" font-size="9">Byte</text>
<text transform="matrix(1 0 0 1.1111 109.3125 48.707)" fill="#231F20" font-family="'CourierNewPS-ItalicMT'" font-size="9">byt</text>
<text transform="matrix(1 0 0 1.1111 172.7534 48.707)" fill="#231F20" font-family="'CourierNewPS-ItalicMT'" font-size="9">bytNumber</text>
<text transform="matrix(1 0 0 1.1111 16.2256 62.8369)" fill="#231F20" font-family="'CourierNewPS-ItalicMT'" font-size="9">Integer</text>
<text transform="matrix(1 0 0 1.1111 109.3125 62.8369)" fill="#231F20" font-family="'CourierNewPS-ItalicMT'" font-size="9">int</text>
<text transform="matrix(1 0 0 1.1111 172.7534 62.8369)" fill="#231F20" font-family="'CourierNewPS-ItalicMT'" font-size="9">intAmount</text>
<text transform="matrix(1 0 0 1.1111 16.2256 76.9668)" fill="#231F20" font-family="'CourierNewPS-ItalicMT'" font-size="9">Long</text>
<text transform="matrix(1 0 0 1.1111 109.3125 76.9668)" fill="#231F20" font-family="'CourierNewPS-ItalicMT'" font-size="9">lng</text>
<text transform="matrix(1 0 0 1.1111 172.7534 76.9668)" fill="#231F20" font-family="'CourierNewPS-ItalicMT'" font-size="9">lngIterations</text>
<text transform="matrix(1 0 0 1.1111 16.2256 91.0967)" fill="#231F20" font-family="'CourierNewPS-ItalicMT'" font-size="9">Single</text>
<text transform="matrix(1 0 0 1.1111 109.3125 91.0967)" fill="#231F20" font-family="'CourierNewPS-ItalicMT'" font-size="9">sng</text>
<text transform="matrix(1 0 0 1.1111 172.7534 91.0967)" fill="#231F20" font-family="'CourierNewPS-ItalicMT'" font-size="9">sngFactor</text>
<text transform="matrix(1 0 0 1.1111 16.2256 105.2266)" fill="#231F20" font-family="'CourierNewPS-ItalicMT'" font-size="9">Double</text>
<text transform="matrix(1 0 0 1.1111 109.3125 105.2266)" fill="#231F20" font-family="'CourierNewPS-ItalicMT'" font-size="9">dbl</text>
<text transform="matrix(1 0 0 1.1111 172.7534 105.2266)" fill="#231F20" font-family="'CourierNewPS-ItalicMT'" font-size="9">dblValue</text>
<text transform="matrix(1 0 0 1.1111 16.2256 119.3564)" fill="#231F20" font-family="'CourierNewPS-ItalicMT'" font-size="9">Decimal</text>
<text transform="matrix(1 0 0 1.1111 109.3125 119.3564)" fill="#231F20" font-family="'CourierNewPS-ItalicMT'" font-size="9">dec</text>
<text transform="matrix(1 0 0 1.1111 172.7534 119.3564)" fill="#231F20" font-family="'CourierNewPS-ItalicMT'" font-size="9">decInput</text>
<text transform="matrix(1 0 0 1.1111 16.2256 133.4863)" fill="#231F20" font-family="'CourierNewPS-ItalicMT'" font-size="9">Currency</text>
<text transform="matrix(1 0 0 1.1111 109.3125 133.4863)" fill="#231F20" font-family="'CourierNewPS-ItalicMT'" font-size="9">cur</text>
<text transform="matrix(1 0 0 1.1111 172.7534 133.4863)" fill="#231F20" font-family="'CourierNewPS-ItalicMT'" font-size="9">curSalary</text>
<text transform="matrix(1 0 0 1.1111 16.2256 147.6172)" fill="#231F20" font-family="'CourierNewPS-ItalicMT'" font-size="9">Date</text>
<text transform="matrix(1 0 0 1.1111 109.3125 147.6172)" fill="#231F20" font-family="'CourierNewPS-ItalicMT'" font-size="9">dtm</text>
<text transform="matrix(1 0 0 1.1111 172.7534 147.6172)" fill="#231F20" font-family="'CourierNewPS-ItalicMT'" font-size="9">dtmToday</text>
<text transform="matrix(1 0 0 1.1111 16.2256 161.7471)" fill="#231F20" font-family="'CourierNewPS-ItalicMT'" font-size="9">String</text>
<text transform="matrix(1 0 0 1.1111 109.3125 161.7471)" fill="#231F20" font-family="'CourierNewPS-ItalicMT'" font-size="9">str</text>
<text transform="matrix(1 0 0 1.1111 172.7534 161.7471)" fill="#231F20" font-family="'CourierNewPS-ItalicMT'" font-size="9">strMessage</text>
<text transform="matrix(1 0 0 1.1111 16.2256 175.877)" fill="#231F20" font-family="'CourierNewPS-ItalicMT'" font-size="9">Error</text>
<text transform="matrix(1 0 0 1.1111 109.3125 175.877)" fill="#231F20" font-family="'CourierNewPS-ItalicMT'" font-size="9">err</text>
<text transform="matrix(1 0 0 1.1111 172.7534 175.877)" fill="#231F20" font-family="'CourierNewPS-ItalicMT'" font-size="9">errProjection</text>
<text transform="matrix(1 0 0 1.1111 16.2256 190.0068)" fill="#231F20" font-family="'CourierNewPS-ItalicMT'" font-size="9">Variant</text>
<text transform="matrix(1 0 0 1.1111 109.3125 190.0068)" fill="#231F20" font-family="'CourierNewPS-ItalicMT'" font-size="9">var</text>
<text transform="matrix(1 0 0 1.1111 172.7534 190.0068)" fill="#231F20" font-family="'CourierNewPS-ItalicMT'" font-size="9">varData</text>
<text transform="matrix(1 0 0 1.1111 16.2256 204.1367)" fill="#231F20" font-family="'CourierNewPS-ItalicMT'" font-size="9">Array</text>
<text transform="matrix(1 0 0 1.1111 109.3125 204.1367)" fill="#231F20" font-family="'CourierNewPS-ItalicMT'" font-size="9">arr</text>
<text transform="matrix(1 0 0 1.1111 172.7534 204.1367)" fill="#231F20" font-family="'CourierNewPS-ItalicMT'" font-size="9">arrNames</text>
<text transform="matrix(1 0 0 1.1111 16.2256 218.2666)" fill="#231F20" font-family="'CourierNewPS-ItalicMT'" font-size="9">Object</text>
<text transform="matrix(1 0 0 1.1111 109.3125 218.2666)" fill="#231F20" font-family="'CourierNewPS-ItalicMT'" font-size="9">obj</text>
<text transform="matrix(1 0 0 1.1111 172.7534 218.2666)" fill="#231F20" font-family="'CourierNewPS-ItalicMT'" font-size="9">objExplorer</text>
<g>
	<defs>
		<rect id="SVGID_3_" x="10.226" y="7.576" width="284.932" height="227.044"/>
	</defs>
	<clipPath id="SVGID_4_">
		<use xlink:href="#SVGID_3_"  overflow="visible"/>
	</clipPath>
	<path clip-path="url(#SVGID_4_)" fill="none" stroke="#231F20" stroke-width="1.5" d="M20.394,9.326c0,0-8,0-8,8V224.87
		c0,0,0,8,8,8h259.615c0,0,8,0,8-8V17.326c0,0,0-8-8-8H20.394z"/>
</g>
<rect x="153.333" y="148.655" fill="#FFFFFF" width="10" height="22.285"/>
</svg>
