<?xml version="1.0" encoding="utf-8"?>
<!-- Generator: Adobe Illustrator 14.0.0, SVG Export Plug-In . SVG Version: 6.00 Build 43363)  -->
<!DOCTYPE svg PUBLIC "-//W3C//DTD SVG 1.0//EN" "http://www.w3.org/TR/2001/REC-SVG-20010904/DTD/svg10.dtd">
<svg version="1.0" xmlns="http://www.w3.org/2000/svg" xmlns:xlink="http://www.w3.org/1999/xlink" x="0px" y="0px" width="56.79px"
	 height="56.69px" viewBox="0 0 56.79 56.69" enable-background="new 0 0 56.79 56.69" xml:space="preserve">
<g id="Grids">
	<g>
		
			<line fill-rule="evenodd" clip-rule="evenodd" fill="none" stroke="#D4D4D4" stroke-width="0.27" x1="4.93" y1="0" x2="4.93" y2="56.69"/>
		
			<line fill-rule="evenodd" clip-rule="evenodd" fill="none" stroke="#D4D4D4" stroke-width="0.27" x1="9.62" y1="0" x2="9.62" y2="56.69"/>
		
			<line fill-rule="evenodd" clip-rule="evenodd" fill="none" stroke="#D4D4D4" stroke-width="0.27" x1="18.98" y1="0" x2="18.98" y2="56.69"/>
		
			<line fill-rule="evenodd" clip-rule="evenodd" fill="none" stroke="#D4D4D4" stroke-width="0.27" x1="23.66" y1="0" x2="23.66" y2="56.69"/>
		
			<line fill-rule="evenodd" clip-rule="evenodd" fill="none" stroke="#D4D4D4" stroke-width="0.27" x1="33.03" y1="0" x2="33.03" y2="56.69"/>
		
			<line fill-rule="evenodd" clip-rule="evenodd" fill="none" stroke="#D4D4D4" stroke-width="0.27" x1="37.71" y1="0" x2="37.71" y2="56.69"/>
		
			<line fill-rule="evenodd" clip-rule="evenodd" fill="none" stroke="#D4D4D4" stroke-width="0.27" x1="47.08" y1="0" x2="47.08" y2="56.69"/>
		
			<line fill-rule="evenodd" clip-rule="evenodd" fill="none" stroke="#D4D4D4" stroke-width="0.27" x1="51.76" y1="0" x2="51.76" y2="56.69"/>
		
			<line fill-rule="evenodd" clip-rule="evenodd" fill="none" stroke="#D4D4D4" stroke-width="0.27" x1="56.69" y1="4.93" x2="0" y2="4.93"/>
		
			<line fill-rule="evenodd" clip-rule="evenodd" fill="none" stroke="#D4D4D4" stroke-width="0.27" x1="56.69" y1="9.61" x2="0" y2="9.61"/>
		
			<line fill-rule="evenodd" clip-rule="evenodd" fill="none" stroke="#D4D4D4" stroke-width="0.27" x1="56.69" y1="18.98" x2="0" y2="18.98"/>
		
			<line fill-rule="evenodd" clip-rule="evenodd" fill="none" stroke="#D4D4D4" stroke-width="0.27" x1="56.69" y1="23.66" x2="0" y2="23.66"/>
		
			<line fill-rule="evenodd" clip-rule="evenodd" fill="none" stroke="#D4D4D4" stroke-width="0.27" x1="56.69" y1="33.03" x2="0" y2="33.03"/>
		
			<line fill-rule="evenodd" clip-rule="evenodd" fill="none" stroke="#D4D4D4" stroke-width="0.27" x1="56.69" y1="37.71" x2="0" y2="37.71"/>
		
			<line fill-rule="evenodd" clip-rule="evenodd" fill="none" stroke="#D4D4D4" stroke-width="0.27" x1="56.69" y1="47.07" x2="0" y2="47.07"/>
		
			<line fill-rule="evenodd" clip-rule="evenodd" fill="none" stroke="#D4D4D4" stroke-width="0.27" x1="56.69" y1="51.76" x2="0" y2="51.76"/>
		
			<line fill-rule="evenodd" clip-rule="evenodd" fill="none" stroke="#8A8A8A" stroke-width="0.27" x1="0.14" y1="0" x2="0.14" y2="56.69"/>
		
			<line fill-rule="evenodd" clip-rule="evenodd" fill="none" stroke="#8A8A8A" stroke-width="0.27" x1="28.35" y1="28.34" x2="28.35" y2="56.69"/>
		
			<line fill-rule="evenodd" clip-rule="evenodd" fill="none" stroke="#8A8A8A" stroke-width="0.27" x1="42.39" y1="0" x2="42.39" y2="56.69"/>
		
			<line fill-rule="evenodd" clip-rule="evenodd" fill="none" stroke="#8A8A8A" stroke-width="0.27" x1="56.56" y1="0" x2="56.56" y2="56.69"/>
		
			<line fill-rule="evenodd" clip-rule="evenodd" fill="none" stroke="#8A8A8A" stroke-width="0.27" x1="28.35" y1="28.34" x2="0" y2="28.34"/>
		
			<line fill-rule="evenodd" clip-rule="evenodd" fill="none" stroke="#8A8A8A" stroke-width="0.27" x1="56.69" y1="14.3" x2="0" y2="14.3"/>
		
			<line fill-rule="evenodd" clip-rule="evenodd" fill="none" stroke="#8A8A8A" stroke-width="0.27" x1="56.69" y1="0.14" x2="0" y2="0.14"/>
		
			<line fill-rule="evenodd" clip-rule="evenodd" fill="none" stroke="#8A8A8A" stroke-width="0.27" x1="56.69" y1="56.55" x2="0" y2="56.55"/>
		
			<line fill-rule="evenodd" clip-rule="evenodd" fill="none" stroke="#8A8A8A" stroke-width="0.27" x1="56.69" y1="28.34" x2="28.35" y2="28.34"/>
		
			<line fill-rule="evenodd" clip-rule="evenodd" fill="none" stroke="#8A8A8A" stroke-width="0.27" x1="28.35" y1="0" x2="28.35" y2="28.34"/>
		
			<line fill-rule="evenodd" clip-rule="evenodd" fill="none" stroke="#8A8A8A" stroke-width="0.27" x1="14.3" y1="56.69" x2="14.3" y2="42.48"/>
		
			<line fill-rule="evenodd" clip-rule="evenodd" fill="none" stroke="#8A8A8A" stroke-width="0.27" x1="0" y1="42.39" x2="14.05" y2="42.39"/>
		<line fill-rule="evenodd" clip-rule="evenodd" fill="none" stroke="#12AB00" x1="14.3" y1="0" x2="14.3" y2="42.48"/>
		<line fill-rule="evenodd" clip-rule="evenodd" fill="none" stroke="#A80000" x1="56.69" y1="42.39" x2="14.05" y2="42.39"/>
	</g>
</g>
<g id="Text">
	<path fill-rule="evenodd" clip-rule="evenodd" d="M20.65,9.7l1.41-0.3c0.1,0.24,0.19,0.48,0.25,0.73c0.08,0.37,0.16,0.81,0.21,1.31
		c0.03,0.26,0.06,0.79,0.11,1.61c0.41-0.45,0.65-0.72,0.73-0.83c0.43-0.58,0.67-0.93,0.74-1.03c0.11-0.17,0.18-0.32,0.22-0.45
		c0.04-0.1,0.06-0.19,0.06-0.28c0-0.08-0.08-0.18-0.23-0.29C24,10.06,23.92,9.93,23.92,9.8c0-0.11,0.04-0.2,0.13-0.28
		c0.08-0.08,0.18-0.12,0.29-0.12c0.14,0,0.26,0.05,0.36,0.16c0.11,0.12,0.16,0.26,0.16,0.42c0,0.17-0.03,0.33-0.08,0.48
		c-0.08,0.25-0.24,0.55-0.47,0.91c-0.23,0.35-0.6,0.83-1.12,1.43c-0.06,0.07-0.43,0.45-1.08,1.13h-0.18
		c-0.08-2.06-0.24-3.34-0.49-3.86c-0.08-0.16-0.22-0.24-0.41-0.24c-0.08,0-0.19,0.01-0.34,0.04L20.65,9.7z"/>
	<polygon fill-rule="evenodd" clip-rule="evenodd" points="23.94,8.68 24.1,8.2 20.59,8.2 20.59,7.95 24.1,7.95 23.94,7.48 
		25.74,8.08 	"/>
	<path fill-rule="evenodd" clip-rule="evenodd" d="M44.93,37.02l0.34,3.66c0.57-0.67,1.02-1.29,1.36-1.87
		c0.2-0.34,0.29-0.59,0.29-0.74c0-0.08-0.01-0.14-0.04-0.19c-0.02-0.03-0.07-0.08-0.16-0.13c-0.09-0.06-0.15-0.12-0.19-0.18
		c-0.03-0.06-0.05-0.12-0.05-0.19c0-0.1,0.04-0.19,0.11-0.26c0.08-0.07,0.17-0.1,0.29-0.1c0.13,0,0.25,0.05,0.34,0.15
		c0.09,0.09,0.14,0.23,0.14,0.39c0,0.17-0.03,0.33-0.07,0.48c-0.1,0.28-0.29,0.64-0.58,1.08c-0.34,0.53-0.7,1.02-1.06,1.48
		c-0.37,0.45-0.64,0.77-0.82,0.95h-0.18l-0.32-3.38l-2.01,3.38H42.1c-0.02-1.39-0.09-2.48-0.21-3.29c-0.05-0.33-0.13-0.55-0.24-0.66
		c-0.09-0.07-0.21-0.11-0.37-0.11c-0.1,0-0.22,0.01-0.37,0.03v-0.18l1.41-0.32c0.19,0.54,0.32,1.37,0.38,2.5
		c0.02,0.43,0.03,0.7,0.04,0.81l2.01-3.31H44.93z"/>
	<path fill-rule="evenodd" clip-rule="evenodd" d="M55.8,8.78l-0.85,2.91c-0.13,0.43-0.19,0.7-0.19,0.82c0,0.06,0.01,0.1,0.03,0.13
		c0.02,0.03,0.05,0.04,0.09,0.04c0.05,0,0.11-0.03,0.18-0.08c0.07-0.05,0.23-0.25,0.5-0.6l0.15,0.11c-0.26,0.41-0.52,0.71-0.79,0.9
		c-0.18,0.13-0.35,0.19-0.52,0.19c-0.12,0-0.22-0.04-0.3-0.11c-0.07-0.07-0.1-0.16-0.1-0.28c0-0.11,0.02-0.26,0.06-0.44
		c0.05-0.24,0.2-0.76,0.44-1.57c-0.55,0.91-1.01,1.53-1.38,1.88c-0.38,0.34-0.72,0.52-1.04,0.52c-0.15,0-0.28-0.05-0.38-0.16
		c-0.11-0.1-0.16-0.24-0.16-0.39c0-0.25,0.07-0.62,0.22-1.13l0.42-1.51c0.11-0.36,0.16-0.58,0.16-0.67c0-0.04-0.02-0.07-0.04-0.1
		c-0.03-0.03-0.06-0.04-0.09-0.04c-0.07,0-0.14,0.02-0.21,0.07c-0.07,0.05-0.22,0.23-0.46,0.54l-0.16-0.1
		c0.25-0.38,0.51-0.66,0.78-0.84c0.21-0.14,0.4-0.21,0.58-0.21c0.12,0,0.22,0.04,0.29,0.12c0.08,0.07,0.12,0.17,0.12,0.29
		c0,0.18-0.07,0.49-0.2,0.94l-0.46,1.58c-0.12,0.43-0.19,0.7-0.19,0.82c0,0.06,0.02,0.11,0.06,0.15c0.04,0.03,0.1,0.05,0.17,0.05
		c0.1,0,0.24-0.05,0.42-0.16c0.17-0.11,0.4-0.35,0.69-0.72c0.29-0.36,0.52-0.71,0.71-1.04c0.19-0.32,0.39-0.83,0.6-1.54l0.11-0.37
		H55.8z"/>
	<polygon fill-rule="evenodd" clip-rule="evenodd" points="54.99,8.08 55.15,7.6 51.64,7.6 51.64,7.35 55.15,7.35 54.99,6.88 
		56.79,7.48 	"/>
	<polygon fill-rule="evenodd" clip-rule="evenodd" points="47.19,35.98 47.35,35.5 41.02,35.5 41.02,35.25 47.35,35.25 47.19,34.78 
		48.99,35.38 	"/>
</g>
<g id="Other">
	<polygon fill-rule="evenodd" clip-rule="evenodd" fill="#FF7D00" points="14.45,42.39 39.34,36.84 51.67,4.86 26.62,10.19 	"/>
</g>
<g id="Vectors">
	<polygon fill-rule="evenodd" clip-rule="evenodd" points="14.77,42.49 13.84,42.13 24.62,13.9 23.57,13.86 26.57,10.19 
		26.37,14.92 25.55,14.26 	"/>
	<polygon fill-rule="evenodd" clip-rule="evenodd" points="14.41,42.8 14.2,41.83 35.13,37.24 34.6,36.34 39.3,36.84 35.24,39.26 
		35.35,38.21 	"/>
	<polygon fill-rule="evenodd" clip-rule="evenodd" points="14.66,42.66 13.95,41.96 48.31,7.37 47.37,6.9 51.59,4.77 49.49,9.01 
		49.02,8.07 	"/>
</g>
</svg>
