<?xml version="1.0" encoding="utf-8"?>
<!-- Generator: Adobe Illustrator 14.0.0, SVG Export Plug-In . SVG Version: 6.00 Build 43363)  -->
<!DOCTYPE svg PUBLIC "-//W3C//DTD SVG 1.0//EN" "http://www.w3.org/TR/2001/REC-SVG-20010904/DTD/svg10.dtd">
<svg version="1.0" id="Layer_1" xmlns="http://www.w3.org/2000/svg" xmlns:xlink="http://www.w3.org/1999/xlink" x="0px" y="0px"
	 width="490.3px" height="245.701px" viewBox="0 0 490.3 245.701" enable-background="new 0 0 490.3 245.701" xml:space="preserve">
<g>
	<rect x="79.512" y="8.079" fill="none" width="329.46" height="81.132"/>
	<polygon fill="none" stroke="#000000" stroke-width="2.135" stroke-linecap="round" stroke-linejoin="round" points="
		98.168,43.674 149.321,43.674 150.249,39.631 163.886,47.802 146.406,56.33 147.402,52.021 95.122,52.021 93.545,56.337 
		81.149,47.802 99.643,39.631 	"/>
	<path fill="none" stroke="#000000" stroke-width="2.135" stroke-linecap="round" stroke-linejoin="round" d="M182.106,47.454
		c13.033-4.743,29.329-4.737,42.544-1.56c1.435,0.342,2.858,0.729,4.265,1.16c0.347,0.104,0.689,0.212,1.03,0.325
		c0.074,0.023,0.222,0.205,0.222,0.051c0-0.051,0.006-0.107,0.006-0.158c0-0.108,0-0.223,0.006-0.33
		c0.005-0.428,0.011-0.86,0.017-1.293c0.011-0.434,0.017-0.86,0.023-1.287c0.005-0.216,0.005-0.427,0.011-0.644
		c0-0.086-0.085-0.358,0.034-0.245c0.068,0.068,0.142,0.132,0.211,0.199c0.558,0.53,1.104,1.071,1.651,1.612
		c2.169,2.175,4.225,4.435,6.172,6.809c0.695,0.855,1.372,1.715,2.033,2.592c0.33,0.433,0.655,0.87,0.973,1.31
		c0.16,0.222,0.319,0.444,0.479,0.666c0.045,0.068,0.114,0.159-0.006,0.182c-0.074,0.018-0.154,0.034-0.228,0.052
		c-1.349,0.291-2.693,0.604-4.031,0.939c-1.537,0.394-3.069,0.814-4.595,1.258c-0.837,0.245-1.668,0.501-2.499,0.764
		c-0.109,0.033-0.217,0.067-0.319,0.103c-0.052,0.011-0.143,0.103-0.143,0.005c0-0.079,0.006-0.165,0.006-0.25
		c0.006-0.331,0.011-0.666,0.017-1.002c0.012-0.661,0.023-1.321,0.034-1.988c0-0.272,0.006-0.539,0.012-0.813
		c0.005-0.239-0.177-0.239-0.342-0.29c-0.211-0.063-0.421-0.131-0.626-0.194c-0.854-0.25-1.708-0.488-2.568-0.711
		c-1.777-0.467-3.564-0.859-5.369-1.202c-3.753-0.706-7.516-1.149-11.325-1.354c-7.277-0.404-14.315,0.006-21.466,1.52
		c-1.93,0.41-3.826,0.9-5.711,1.486c-0.45,0.143-0.894,0.291-1.338,0.439c-0.188,0.067-0.353,0.102-0.387,0.341
		c-0.023,0.16-0.046,0.318-0.068,0.479c-0.092,0.638-0.183,1.275-0.274,1.913c-0.045,0.324-0.091,0.649-0.136,0.968
		c-0.023,0.159-0.046,0.324-0.069,0.484c-0.011,0.068,0.086,0.256-0.045,0.205c-0.04-0.017-0.08-0.029-0.126-0.046
		c-0.324-0.131-0.649-0.256-0.979-0.387c-0.615-0.239-1.23-0.474-1.85-0.7c-1.094-0.405-2.192-0.797-3.297-1.168
		c-0.478-0.159-0.957-0.318-1.435-0.473c-0.222-0.067-0.438-0.137-0.66-0.205c-0.109-0.033-0.211-0.067-0.319-0.103
		c-0.051-0.017-0.103-0.028-0.154-0.045c-0.045-0.018-0.171,0.006-0.119-0.068c1.93-2.916,4.048-5.643,6.365-8.251
		c1.179-1.326,2.403-2.612,3.661-3.859c0.319-0.319,0.638-0.627,0.963-0.935c0.079-0.08,0.159-0.159,0.239-0.232
		c0.022-0.023,0.074-0.053,0.068-0.007c-0.006,0.063-0.017,0.125-0.023,0.188c-0.04,0.245-0.074,0.495-0.108,0.74
		C182.391,45.45,182.248,46.452,182.106,47.454z"/>
	<path fill="none" stroke="#000000" stroke-width="2.135" stroke-linecap="round" stroke-linejoin="round" d="M349.868,47.454
		c12.846-3.69,29.563-5.415,42.897-1.788c1.235,0.336,2.454,0.718,3.649,1.173c0.284,0.108,0.569,0.216,0.849,0.33
		c0.137,0.058,0.272,0.114,0.409,0.171c0.068,0.029,0.138,0.058,0.205,0.091c0.063,0.023,0.018-0.067,0.007-0.107
		c-0.172-0.455-0.349-0.911-0.519-1.361c-0.171-0.455-0.336-0.904-0.507-1.354c-0.086-0.223-0.171-0.45-0.256-0.672
		c-0.04-0.114-0.086-0.223-0.126-0.337c-0.018-0.051-0.125-0.216-0.051-0.147c0.033,0.034,0.073,0.069,0.107,0.103
		c0.581,0.559,1.156,1.121,1.714,1.691c2.204,2.249,4.226,4.617,6.081,7.157c0.718,0.991,1.407,1.998,2.062,3.028
		c0.165,0.257,0.324,0.513,0.483,0.77c0.04,0.068,0.461,0.535,0.354,0.643c-0.085,0.08-0.176,0.159-0.268,0.239
		c-0.518,0.439-1.075,0.82-1.64,1.202c-0.843,0.569-1.703,1.116-2.562,1.656c-0.188,0.12-0.165-0.143-0.212-0.256
		c-0.067-0.193-0.142-0.388-0.216-0.58c-0.147-0.389-0.296-0.775-0.438-1.162c-0.148-0.388-0.29-0.774-0.438-1.156
		c-0.04-0.102-0.365-1.048-0.507-1.104c-1.907-0.793-3.86-1.401-5.87-1.892c-13.408-3.297-30.029-1.64-42.977,1.892
		c-0.319,0.091-0.006,0.597,0.033,0.773c0.068,0.273,0.138,0.546,0.205,0.814c0.143,0.552,0.279,1.099,0.416,1.65
		c0.068,0.274,0.143,0.553,0.211,0.826c0.018,0.068,0.035,0.142,0.051,0.211c0.022,0.079-0.079,0.018-0.125,0.005
		c-0.113-0.027-0.233-0.057-0.348-0.085c-0.455-0.107-0.91-0.217-1.365-0.325c-1.76-0.409-3.525-0.797-5.297-1.149
		c-1.65-0.336-3.308-0.644-4.97-0.922c-0.786-0.138-1.571-0.263-2.358-0.388c-0.381-0.057-0.756-0.113-1.137-0.171
		c-0.188-0.028-0.377-0.051-0.564-0.08c-0.297-0.045,0.057-0.296,0.158-0.421c2.182-2.796,4.487-5.472,6.925-8.051
		c1.213-1.281,2.448-2.54,3.718-3.77c0.313-0.308,0.632-0.609,0.951-0.911c0.08-0.079,0.154-0.153,0.232-0.228
		c0.166-0.153,0.08,0.21,0.109,0.318c0.057,0.24,0.119,0.483,0.182,0.729C349.373,45.49,349.623,46.469,349.868,47.454z"/>
	<path fill="none" stroke="#000000" stroke-width="2.135" stroke-linecap="round" stroke-linejoin="round" d="M264.279,47.454
		c13.079-4.196,29.181-5.107,42.612-1.697c1.332,0.342,2.647,0.724,3.951,1.162c0.319,0.108,0.627,0.216,0.939,0.33
		c0.154,0.051,0.309,0.108,0.462,0.165c0.142,0.051,0.067-0.137,0.051-0.222c-0.079-0.444-0.159-0.882-0.239-1.327
		c-0.08-0.438-0.16-0.876-0.233-1.315c-0.04-0.222-0.08-0.438-0.119-0.654c-0.022-0.114-0.04-0.223-0.063-0.33
		c-0.006-0.034-0.039-0.138,0.006-0.098c0.041,0.034,0.074,0.069,0.108,0.104c0.569,0.541,1.128,1.093,1.681,1.645
		c2.18,2.204,4.224,4.511,6.119,6.964c0.719,0.917,1.407,1.856,2.08,2.813c0.329,0.472,0.653,0.95,0.973,1.429
		c0.091,0.143,0.416,0.348,0.125,0.444c-0.108,0.04-0.211,0.074-0.313,0.107c-0.985,0.348-1.964,0.7-2.938,1.07
		c-1.234,0.467-2.459,0.951-3.672,1.452c-0.347,0.143-0.688,0.285-1.03,0.433c-0.046,0.018-0.085,0.034-0.132,0.052
		c-0.118,0.052-0.062-0.114-0.073-0.177c-0.028-0.182-0.062-0.364-0.097-0.547c-0.063-0.357-0.131-0.723-0.193-1.087
		c-0.131-0.718-0.262-1.435-0.393-2.152c-0.012-0.085-0.028-0.177-0.047-0.268c-0.017-0.086-0.096-0.057-0.147-0.074
		c-0.062-0.022-0.119-0.046-0.183-0.063c-0.238-0.085-0.483-0.171-0.729-0.25c-0.495-0.165-0.99-0.325-1.491-0.479
		c-13.267-4.002-29.483-3.558-42.692-0.238c-0.951,0.238-1.891,0.496-2.83,0.769c-0.233,0.068-0.461,0.137-0.694,0.211
		c-0.063,0.018-0.347-0.022-0.341,0.103c0.005,0.073,0.011,0.147,0.011,0.222c0.017,0.291,0.034,0.587,0.051,0.877
		c0.029,0.592,0.063,1.184,0.097,1.771c0.018,0.297,0.035,0.599,0.045,0.895c0.013,0.147,0.019,0.296,0.029,0.444
		c0.006,0.171-0.171,0.011-0.256-0.018c-1.531-0.461-3.064-0.894-4.607-1.304c-1.395-0.365-2.789-0.712-4.195-1.031
		c-0.639-0.147-1.281-0.29-1.924-0.427c-0.309-0.063-0.615-0.125-0.924-0.188c-0.147-0.027-0.295-0.057-0.449-0.091
		c-0.074-0.011-0.143-0.028-0.217-0.04c-0.147-0.027,0.018-0.147,0.063-0.21c2.062-2.858,4.281-5.563,6.661-8.16
		c1.195-1.309,2.426-2.579,3.695-3.819c0.313-0.313,0.633-0.621,0.957-0.922c0.08-0.08,0.16-0.154,0.238-0.234
		c0.121-0.114,0.063,0.16,0.069,0.245c0.011,0.245,0.022,0.49,0.04,0.733C264.17,45.467,264.227,46.458,264.279,47.454z"/>
	<path fill="none" stroke="#000000" stroke-width="2.135" stroke-linecap="round" stroke-linejoin="round" d="M285.898,72.41
		c-0.165-9.315-1.042-30.325-4.088-39.509c-0.067-0.205-0.211-0.188-0.382-0.188h-0.672h-1.344h-1.344h-0.672
		c-0.136,0-0.643,0.108-0.41-0.04c0.575-0.376,1.162-0.729,1.771-1.059c1.093-0.587,2.209-1.076,3.398-1.43
		c0.541-0.164,1.082-0.291,1.635-0.387c0.711-0.12,1.4-0.052,2.101,0.028c1.748,0.199,3.456,0.547,5.153,1.024
		c1.127,0.313,2.238,0.684,3.33,1.105c0.569,0.216,1.134,0.444,1.697,0.689c0.034,0.011,0.068,0.027,0.102,0.045
		c0.029,0.011-0.016,0.022-0.039,0.022h-0.422h-0.842h-1.691h-1.691c-0.119,0-0.033,0.119-0.005,0.183
		c0.028,0.079,0.062,0.153,0.091,0.233c0.068,0.159,0.131,0.324,0.188,0.483c0.278,0.752,0.522,1.509,0.739,2.271
		c0.576,1.993,1.009,4.015,1.39,6.054c1.213,6.548,1.839,13.123,2.255,19.763c0.137,2.124,0.239,4.248,0.324,6.371
		c0.04,1.088,0.074,2.175,0.104,3.263c0.006,0.273,0.01,0.546,0.022,0.82c0,0.107-0.058,0.256,0.114,0.256h0.283h1.146h2.289h1.144
		h0.285c0.079,0,0.045,0.067,0.018,0.114c-0.074,0.113-0.148,0.232-0.223,0.347c-0.592,0.923-1.185,1.839-1.787,2.762
		c-1.834,2.808-3.701,5.591-5.627,8.341c-0.949,1.367-1.912,2.723-2.892,4.061c-0.063,0.085-0.125,0.171-0.183,0.25
		c-0.107,0.147-0.119-0.143-0.17-0.216c-0.108-0.165-0.217-0.336-0.33-0.501c-0.223-0.336-0.444-0.672-0.666-1.009
		c-0.451-0.677-0.9-1.354-1.351-2.037c-1.685-2.546-3.371-5.092-5.073-7.631c-0.859-1.286-1.725-2.573-2.596-3.854
		c-0.109-0.159-0.217-0.319-0.325-0.479c-0.028-0.04-0.057-0.08-0.085-0.119c-0.052-0.079,0.085-0.028,0.137-0.028h0.398h1.6
		H285.898z"/>
</g>
<g>
	<rect x="79.512" y="8.079" fill="none" width="329.46" height="81.132"/>
	<path fill="none" stroke="#000000" stroke-width="2.135" stroke-linecap="round" stroke-linejoin="round" d="M381.36,65.185
		c-9.029-10.226-12.213-27.427-12.879-39.942c-0.006-0.097,0.051-0.461-0.119-0.461h-0.428h-0.854h-1.709h-1.703h-0.215
		c-0.098,0,0.051-0.086,0.08-0.125c0.051-0.086,0.107-0.166,0.158-0.251c0.108-0.171,0.211-0.336,0.319-0.507
		c0.864-1.361,1.741-2.71,2.636-4.059c1.84-2.779,3.73-5.523,5.688-8.223c0.269-0.37,0.537-0.739,0.804-1.104
		c0.137-0.188,0.272-0.37,0.41-0.552c0.051-0.068,0.114-0.245,0.194-0.114c0.051,0.091,0.102,0.182,0.158,0.272
		c0.434,0.74,0.866,1.476,1.311,2.209c0.894,1.487,1.805,2.956,2.738,4.407c0.945,1.476,1.918,2.934,2.909,4.373
		c0.501,0.729,1.009,1.452,1.521,2.17c0.262,0.364,0.518,0.724,0.779,1.081c0.069,0.092,0.131,0.184,0.2,0.269
		c0.034,0.046,0.062,0.091,0.097,0.137c0.074,0.102-0.125,0.017-0.188,0.017h-0.911h-2.089h-1.048h-0.523
		c-0.08,0-0.24-0.107-0.228,0.045c0.005,0.12,0.011,0.245,0.017,0.365c0.114,1.941,0.279,3.872,0.502,5.802
		c0.432,3.735,1.075,7.413,1.98,11.063c1.754,7.049,4.15,13.449,8.472,19.444c0.524,0.723,1.071,1.429,1.646,2.117
		c0.278,0.33,0.568,0.661,0.864,0.985c0.434,0.479,0.365,0.581,1.077,0.581h2.768h1.383h0.688c0.063,0,0.223-0.068,0.178,0.046
		c-0.018,0.028-0.029,0.063-0.046,0.096c-0.394,0.946-0.798,1.879-1.241,2.803c-0.354,0.733-0.729,1.457-1.173,2.146
		c-0.092,0.144-0.188,0.285-0.285,0.422c-0.045,0.068-0.097,0.131-0.143,0.193c-0.102,0.131-0.211,0.125-0.347,0.103
		c-1.361-0.238-2.71-0.518-4.054-0.825c-3.263-0.746-6.446-1.686-9.589-2.824c-1.525-0.553-3.034-1.146-4.521-1.788
		c-0.188-0.08-0.371-0.159-0.558-0.239c-0.092-0.04-0.184-0.08-0.274-0.12c-0.103-0.045,0.114-0.011,0.165-0.011h0.217h1.725H381.36
		z"/>
</g>
<polygon fill-rule="evenodd" clip-rule="evenodd" fill="#8BEA45" points="98.168,43.674 149.321,43.674 150.249,39.631 
	163.886,47.802 146.406,56.33 147.402,52.021 95.122,52.021 93.545,56.337 81.149,47.802 99.643,39.631 "/>
<polygon fill="none" stroke="#000000" stroke-width="0.427" stroke-linecap="round" stroke-linejoin="round" points="98.168,43.674 
	149.321,43.674 150.249,39.631 163.886,47.802 146.406,56.33 147.402,52.021 95.122,52.021 93.545,56.337 81.149,47.802 
	99.643,39.631 "/>
<g>
	<defs>
		<path id="SVGID_1_" d="M264.279,47.454c13.079-4.196,29.181-5.107,42.612-1.697c1.332,0.342,2.647,0.724,3.951,1.162
			c0.319,0.108,0.627,0.216,0.939,0.33c0.154,0.051,0.309,0.108,0.462,0.165c0.142,0.051,0.067-0.137,0.051-0.222
			c-0.079-0.444-0.159-0.882-0.239-1.327c-0.08-0.438-0.16-0.876-0.233-1.315c-0.04-0.222-0.08-0.438-0.119-0.654
			c-0.022-0.114-0.04-0.223-0.063-0.33c-0.006-0.034-0.039-0.138,0.006-0.098c0.041,0.034,0.074,0.069,0.108,0.104
			c0.569,0.541,1.128,1.093,1.681,1.645c2.18,2.204,4.224,4.511,6.119,6.964c0.719,0.917,1.407,1.856,2.08,2.813
			c0.329,0.472,0.653,0.95,0.973,1.429c0.091,0.143,0.416,0.348,0.125,0.444c-0.108,0.04-0.211,0.074-0.313,0.107
			c-0.985,0.348-1.964,0.7-2.938,1.07c-1.234,0.467-2.459,0.951-3.672,1.452c-0.347,0.143-0.688,0.285-1.03,0.433
			c-0.046,0.018-0.085,0.034-0.132,0.052c-0.118,0.052-0.062-0.114-0.073-0.177c-0.028-0.182-0.062-0.364-0.097-0.547
			c-0.063-0.357-0.131-0.723-0.193-1.087c-0.131-0.718-0.262-1.435-0.393-2.152c-0.012-0.085-0.028-0.177-0.047-0.268
			c-0.017-0.086-0.096-0.057-0.147-0.074c-0.062-0.022-0.119-0.046-0.183-0.063c-0.238-0.085-0.483-0.171-0.729-0.25
			c-0.495-0.165-0.99-0.325-1.491-0.479c-13.267-4.002-29.483-3.558-42.692-0.238c-0.951,0.238-1.891,0.496-2.83,0.769
			c-0.233,0.068-0.461,0.137-0.694,0.211c-0.063,0.018-0.347-0.022-0.341,0.103c0.005,0.073,0.011,0.147,0.011,0.222
			c0.017,0.291,0.034,0.587,0.051,0.877c0.029,0.592,0.063,1.184,0.097,1.771c0.018,0.297,0.035,0.599,0.045,0.895
			c0.013,0.147,0.019,0.296,0.029,0.444c0.006,0.171-0.171,0.011-0.256-0.018c-1.531-0.461-3.064-0.894-4.607-1.304
			c-1.395-0.365-2.789-0.712-4.195-1.031c-0.639-0.147-1.281-0.29-1.924-0.427c-0.309-0.063-0.615-0.125-0.924-0.188
			c-0.147-0.027-0.295-0.057-0.449-0.091c-0.074-0.011-0.143-0.028-0.217-0.04c-0.147-0.027,0.018-0.147,0.063-0.21
			c2.062-2.858,4.281-5.563,6.661-8.16c1.195-1.309,2.426-2.579,3.695-3.819c0.313-0.313,0.633-0.621,0.957-0.922
			c0.08-0.08,0.16-0.154,0.238-0.234c0.121-0.114,0.063,0.16,0.069,0.245c0.011,0.245,0.022,0.49,0.04,0.733
			C264.17,45.467,264.227,46.458,264.279,47.454z"/>
	</defs>
	<clipPath id="SVGID_2_">
		<use xlink:href="#SVGID_1_"  overflow="visible"/>
	</clipPath>
	
		<linearGradient id="SVGID_3_" gradientUnits="userSpaceOnUse" x1="-149.1411" y1="194.1182" x2="-148.1411" y2="194.1182" gradientTransform="matrix(64.7715 0 0 -64.7715 9915.9473 12624.542)">
		<stop  offset="0" style="stop-color:#B4FF59"/>
		<stop  offset="1" style="stop-color:#61D52B"/>
	</linearGradient>
	<rect x="252.248" y="42.347" clip-path="url(#SVGID_2_)" fill="url(#SVGID_3_)" width="70.774" height="17.759"/>
</g>
<path fill="none" d="M230.23,43.719c-0.006,0.217-0.006,0.427-0.012,0.644c-0.005,0.428-0.011,0.854-0.022,1.286
	c-0.006,0.434-0.012,0.866-0.018,1.293c-0.005,0.108-0.005,0.223-0.005,0.33c0,0.052-0.006,0.108-0.006,0.159
	c0,0.154-0.148-0.028-0.222-0.051c-0.342-0.113-0.683-0.221-1.03-0.324c-1.407-0.433-2.831-0.82-4.265-1.162
	c-13.216-3.177-29.511-3.182-42.544,1.562c0.142-1.003,0.284-2.005,0.426-3.014c0.035-0.243,0.069-0.494,0.109-0.739
	c0.006-0.063,0.017-0.125,0.023-0.188c0.005-0.045-0.046-0.017-0.068,0.006c-0.08,0.074-0.16,0.154-0.24,0.233
	c-0.324,0.308-0.643,0.615-0.962,0.934c-1.258,1.247-2.482,2.534-3.661,3.86c-2.318,2.608-4.435,5.335-6.366,8.25
	c-0.051,0.075,0.075,0.052,0.12,0.069c0.051,0.017,0.102,0.028,0.154,0.046c0.108,0.034,0.21,0.067,0.318,0.102
	c0.223,0.069,0.439,0.137,0.661,0.205c0.479,0.154,0.957,0.313,1.435,0.473c1.105,0.37,2.204,0.763,3.296,1.167
	c0.621,0.229,1.236,0.461,1.851,0.701c0.33,0.13,0.655,0.255,0.98,0.388c0.045,0.017,0.085,0.026,0.125,0.045
	c0.13,0.051,0.034-0.137,0.045-0.205c0.023-0.159,0.046-0.325,0.068-0.484c0.046-0.318,0.092-0.643,0.137-0.968
	c0.091-0.637,0.183-1.276,0.274-1.913c0.022-0.159,0.045-0.319,0.068-0.479c0.034-0.237,0.199-0.271,0.387-0.341
	c0.444-0.147,0.888-0.296,1.338-0.438c1.885-0.587,3.78-1.076,5.711-1.487c7.151-1.514,14.189-1.924,21.466-1.52
	c3.808,0.205,7.572,0.648,11.324,1.355c1.806,0.342,3.593,0.734,5.37,1.201c0.859,0.222,1.713,0.461,2.567,0.712
	c0.206,0.063,0.416,0.13,0.627,0.193c0.166,0.052,0.347,0.052,0.342,0.29c-0.006,0.273-0.012,0.541-0.012,0.814
	c-0.011,0.666-0.022,1.326-0.034,1.987c-0.005,0.336-0.012,0.672-0.017,1.002c0,0.085-0.006,0.171-0.006,0.251
	c0,0.096,0.091,0.005,0.143-0.007c0.102-0.033,0.21-0.067,0.318-0.102c0.832-0.262,1.663-0.519,2.5-0.764
	c1.526-0.444,3.058-0.865,4.595-1.258c1.338-0.336,2.682-0.649,4.031-0.939c0.074-0.017,0.154-0.034,0.228-0.052
	c0.119-0.021,0.051-0.114,0.005-0.182c-0.159-0.223-0.318-0.444-0.478-0.666c-0.318-0.439-0.643-0.877-0.973-1.311
	c-0.661-0.876-1.339-1.735-2.033-2.59c-1.947-2.374-4.003-4.635-6.172-6.81c-0.547-0.541-1.093-1.082-1.651-1.611
	c-0.069-0.069-0.143-0.132-0.211-0.2c-0.02-0.019-0.034-0.026-0.044-0.026C230.17,43.447,230.23,43.647,230.23,43.719"/>
<rect x="79.512" y="8.079" fill="none" width="329.46" height="81.132"/>
<g>
	<defs>
		<path id="SVGID_4_" d="M349.868,47.454c12.846-3.69,29.563-5.415,42.897-1.788c1.235,0.336,2.454,0.718,3.649,1.173
			c0.284,0.108,0.569,0.216,0.849,0.33c0.137,0.058,0.272,0.114,0.409,0.171c0.068,0.029,0.138,0.058,0.205,0.091
			c0.063,0.023,0.018-0.067,0.007-0.107c-0.172-0.455-0.349-0.911-0.519-1.361c-0.171-0.455-0.336-0.904-0.507-1.354
			c-0.086-0.223-0.171-0.45-0.256-0.672c-0.04-0.114-0.086-0.223-0.126-0.337c-0.018-0.051-0.125-0.216-0.051-0.147
			c0.033,0.034,0.073,0.069,0.107,0.103c0.581,0.559,1.156,1.121,1.714,1.691c2.204,2.249,4.226,4.617,6.081,7.157
			c0.718,0.991,1.407,1.998,2.062,3.028c0.165,0.257,0.324,0.513,0.483,0.77c0.04,0.068,0.461,0.535,0.354,0.643
			c-0.085,0.08-0.176,0.159-0.268,0.239c-0.518,0.439-1.075,0.82-1.64,1.202c-0.843,0.569-1.703,1.116-2.562,1.656
			c-0.188,0.12-0.165-0.143-0.212-0.256c-0.067-0.193-0.142-0.388-0.216-0.58c-0.147-0.389-0.296-0.775-0.438-1.162
			c-0.148-0.388-0.29-0.774-0.438-1.156c-0.04-0.102-0.365-1.048-0.507-1.104c-1.907-0.793-3.86-1.401-5.87-1.892
			c-13.408-3.297-30.029-1.64-42.977,1.892c-0.319,0.091-0.006,0.597,0.033,0.773c0.068,0.273,0.138,0.546,0.205,0.814
			c0.143,0.552,0.279,1.099,0.416,1.65c0.068,0.274,0.143,0.553,0.211,0.826c0.018,0.068,0.035,0.142,0.051,0.211
			c0.022,0.079-0.079,0.018-0.125,0.005c-0.113-0.027-0.233-0.057-0.348-0.085c-0.455-0.107-0.91-0.217-1.365-0.325
			c-1.76-0.409-3.525-0.797-5.297-1.149c-1.65-0.336-3.308-0.644-4.97-0.922c-0.786-0.138-1.571-0.263-2.358-0.388
			c-0.381-0.057-0.756-0.113-1.137-0.171c-0.188-0.028-0.377-0.051-0.564-0.08c-0.297-0.045,0.057-0.296,0.158-0.421
			c2.182-2.796,4.487-5.472,6.925-8.051c1.213-1.281,2.448-2.54,3.718-3.77c0.313-0.308,0.632-0.609,0.951-0.911
			c0.08-0.079,0.154-0.153,0.232-0.228c0.166-0.153,0.08,0.21,0.109,0.318c0.057,0.24,0.119,0.483,0.182,0.729
			C349.373,45.49,349.623,46.469,349.868,47.454z"/>
	</defs>
	<clipPath id="SVGID_5_">
		<use xlink:href="#SVGID_4_"  overflow="visible"/>
	</clipPath>
	<g clip-path="url(#SVGID_5_)">
		<path fill="none" d="M348.836,43.463c-0.078,0.074-0.153,0.147-0.232,0.228c-0.318,0.302-0.639,0.604-0.951,0.911
			c-1.27,1.23-2.505,2.488-3.718,3.77c-2.437,2.579-4.743,5.256-6.925,8.051c-0.102,0.125-0.454,0.375-0.158,0.421
			c0.188,0.029,0.376,0.052,0.563,0.081c0.383,0.056,0.758,0.113,1.141,0.17c0.785,0.125,1.57,0.251,2.357,0.388
			c1.661,0.278,3.318,0.585,4.971,0.921c1.77,0.354,3.535,0.741,5.293,1.15c0.457,0.109,0.912,0.217,1.367,0.325
			c0.114,0.029,0.233,0.057,0.349,0.086c0.045,0.01,0.147,0.074,0.125-0.007c-0.017-0.067-0.034-0.143-0.052-0.21
			c-0.068-0.273-0.143-0.553-0.211-0.825c-0.137-0.553-0.273-1.099-0.416-1.652c-0.067-0.267-0.137-0.541-0.205-0.813
			c-0.039-0.176-0.353-0.684-0.033-0.775c12.947-3.529,29.566-5.186,42.977-1.889c2.01,0.489,3.962,1.098,5.87,1.889
			c0.143,0.059,0.466,1.003,0.507,1.106c0.147,0.381,0.29,0.768,0.438,1.154c0.142,0.388,0.29,0.774,0.438,1.162
			c0.073,0.194,0.147,0.388,0.217,0.581c0.045,0.113,0.022,0.375,0.21,0.256c0.859-0.541,1.72-1.088,2.562-1.656
			c0.565-0.382,1.123-0.764,1.64-1.201c0.093-0.08,0.184-0.159,0.269-0.24c0.107-0.108-0.313-0.575-0.354-0.643
			c-0.159-0.258-0.318-0.513-0.483-0.77c-0.655-1.03-1.343-2.038-2.062-3.029c-1.855-2.538-3.878-4.907-6.081-7.156
			c-0.558-0.57-1.133-1.133-1.714-1.691c-0.034-0.034-0.074-0.068-0.107-0.103c-0.074-0.068,0.033,0.098,0.051,0.148
			c0.04,0.113,0.085,0.222,0.126,0.336c0.084,0.223,0.17,0.45,0.255,0.671c0.172,0.45,0.337,0.9,0.507,1.355
			c0.171,0.45,0.349,0.906,0.52,1.361c0.011,0.04,0.056,0.132-0.007,0.107c-0.067-0.034-0.137-0.062-0.204-0.091
			c-0.138-0.056-0.274-0.113-0.41-0.171c-0.279-0.113-0.564-0.221-0.849-0.33c-1.195-0.455-2.415-0.837-3.649-1.173
			c-13.335-3.627-30.052-1.901-42.897,1.789c-0.244-0.986-0.494-1.965-0.74-2.944c-0.063-0.245-0.125-0.49-0.183-0.729
			c-0.022-0.091,0.032-0.356-0.043-0.356C348.885,43.426,348.865,43.437,348.836,43.463"/>
		
			<linearGradient id="SVGID_6_" gradientUnits="userSpaceOnUse" x1="-149.1406" y1="194.1201" x2="-148.1406" y2="194.1201" gradientTransform="matrix(64.7681 0 0 -64.7681 9999.8262 12623.8369)">
			<stop  offset="0" style="stop-color:#B4FF59"/>
			<stop  offset="1" style="stop-color:#61D52B"/>
		</linearGradient>
		<rect x="336.556" y="42.039" fill="url(#SVGID_6_)" width="70.778" height="18.021"/>
	</g>
</g>
<rect x="79.512" y="8.079" fill="none" width="329.46" height="81.132"/>
<g>
	<defs>
		<path id="SVGID_7_" d="M182.106,47.454c13.033-4.743,29.329-4.737,42.544-1.56c1.435,0.342,2.858,0.729,4.265,1.16
			c0.347,0.104,0.689,0.212,1.03,0.325c0.074,0.023,0.222,0.205,0.222,0.051c0-0.051,0.006-0.107,0.006-0.158
			c0-0.108,0-0.223,0.006-0.33c0.005-0.428,0.011-0.86,0.017-1.293c0.011-0.434,0.017-0.86,0.023-1.287
			c0.005-0.216,0.005-0.427,0.011-0.644c0-0.086-0.085-0.358,0.034-0.245c0.068,0.068,0.142,0.132,0.211,0.199
			c0.558,0.53,1.104,1.071,1.651,1.612c2.169,2.175,4.225,4.435,6.172,6.809c0.695,0.855,1.372,1.715,2.033,2.592
			c0.33,0.433,0.655,0.87,0.973,1.31c0.16,0.222,0.319,0.444,0.479,0.666c0.045,0.068,0.114,0.159-0.006,0.182
			c-0.074,0.018-0.154,0.034-0.228,0.052c-1.349,0.291-2.693,0.604-4.031,0.939c-1.537,0.394-3.069,0.814-4.595,1.258
			c-0.837,0.245-1.668,0.501-2.499,0.764c-0.109,0.033-0.217,0.067-0.319,0.103c-0.052,0.011-0.143,0.103-0.143,0.005
			c0-0.079,0.006-0.165,0.006-0.25c0.006-0.331,0.011-0.666,0.017-1.002c0.012-0.661,0.023-1.321,0.034-1.988
			c0-0.272,0.006-0.539,0.012-0.813c0.005-0.239-0.177-0.239-0.342-0.29c-0.211-0.063-0.421-0.131-0.626-0.194
			c-0.854-0.25-1.708-0.488-2.568-0.711c-1.777-0.467-3.564-0.859-5.369-1.202c-3.753-0.706-7.516-1.149-11.325-1.354
			c-7.277-0.404-14.315,0.006-21.466,1.52c-1.93,0.41-3.826,0.9-5.711,1.486c-0.45,0.143-0.894,0.291-1.338,0.439
			c-0.188,0.067-0.353,0.102-0.387,0.341c-0.023,0.16-0.046,0.318-0.068,0.479c-0.092,0.638-0.183,1.275-0.274,1.913
			c-0.045,0.324-0.091,0.649-0.136,0.968c-0.023,0.159-0.046,0.324-0.069,0.484c-0.011,0.068,0.086,0.256-0.045,0.205
			c-0.04-0.017-0.08-0.029-0.126-0.046c-0.324-0.131-0.649-0.256-0.979-0.387c-0.615-0.239-1.23-0.474-1.85-0.7
			c-1.094-0.405-2.192-0.797-3.297-1.168c-0.478-0.159-0.957-0.318-1.435-0.473c-0.222-0.067-0.438-0.137-0.66-0.205
			c-0.109-0.033-0.211-0.067-0.319-0.103c-0.051-0.017-0.103-0.028-0.154-0.045c-0.045-0.018-0.171,0.006-0.119-0.068
			c1.93-2.916,4.048-5.643,6.365-8.251c1.179-1.326,2.403-2.612,3.661-3.859c0.319-0.319,0.638-0.627,0.963-0.935
			c0.079-0.08,0.159-0.159,0.239-0.232c0.022-0.023,0.074-0.053,0.068-0.007c-0.006,0.063-0.017,0.125-0.023,0.188
			c-0.04,0.245-0.074,0.495-0.108,0.74C182.391,45.45,182.248,46.452,182.106,47.454z"/>
	</defs>
	<clipPath id="SVGID_8_">
		<use xlink:href="#SVGID_7_"  overflow="visible"/>
	</clipPath>
	
		<linearGradient id="SVGID_9_" gradientUnits="userSpaceOnUse" x1="-149.1572" y1="194.123" x2="-148.1577" y2="194.123" gradientTransform="matrix(65.2731 0 0 -65.2731 9910.6016 12722.417)">
		<stop  offset="0" style="stop-color:#B4FF59"/>
		<stop  offset="1" style="stop-color:#61D52B"/>
	</linearGradient>
	<rect x="171.316" y="42.712" clip-path="url(#SVGID_8_)" fill="url(#SVGID_9_)" width="70.58" height="17.348"/>
</g>
<path fill="none" d="M311.639,43.565c0.023,0.108,0.041,0.217,0.063,0.33c0.04,0.217,0.08,0.433,0.12,0.654
	c0.074,0.439,0.154,0.877,0.233,1.316c0.08,0.443,0.158,0.882,0.238,1.326c0.019,0.085,0.092,0.272-0.051,0.222
	c-0.154-0.058-0.308-0.113-0.461-0.165c-0.313-0.114-0.621-0.223-0.939-0.33c-1.303-0.438-2.618-0.82-3.951-1.162
	c-13.432-3.41-29.534-2.499-42.612,1.698c-0.052-0.997-0.108-1.988-0.159-2.984c-0.018-0.245-0.029-0.489-0.039-0.735
	c-0.008-0.085,0.051-0.357-0.07-0.244c-0.079,0.08-0.158,0.153-0.238,0.233c-0.325,0.302-0.645,0.609-0.957,0.923
	c-1.27,1.241-2.499,2.512-3.695,3.82c-2.38,2.596-4.6,5.301-6.662,8.159c-0.045,0.062-0.211,0.182-0.062,0.211
	c0.073,0.011,0.142,0.028,0.216,0.04c0.154,0.034,0.303,0.062,0.45,0.091c0.308,0.063,0.614,0.125,0.922,0.188
	c0.644,0.136,1.287,0.278,1.925,0.426c1.406,0.319,2.801,0.667,4.196,1.031c1.543,0.409,3.075,0.843,4.606,1.304
	c0.086,0.029,0.262,0.188,0.256,0.017c-0.012-0.147-0.017-0.296-0.028-0.443c-0.013-0.297-0.028-0.599-0.046-0.895
	c-0.034-0.586-0.067-1.179-0.096-1.771c-0.018-0.29-0.034-0.587-0.051-0.876c0-0.075-0.007-0.149-0.013-0.224
	c-0.005-0.125,0.279-0.085,0.342-0.102c0.233-0.074,0.462-0.143,0.695-0.211c0.938-0.273,1.878-0.529,2.829-0.769
	c13.21-3.319,29.426-3.764,42.693,0.239c0.5,0.153,0.996,0.313,1.49,0.479c0.245,0.079,0.49,0.164,0.729,0.25
	c0.062,0.017,0.12,0.041,0.182,0.063c0.052,0.017,0.131-0.012,0.147,0.074c0.019,0.091,0.035,0.183,0.046,0.268
	c0.132,0.717,0.262,1.436,0.394,2.152c0.063,0.364,0.131,0.729,0.193,1.087c0.033,0.183,0.068,0.365,0.097,0.547
	c0.011,0.063-0.046,0.229,0.074,0.177c0.045-0.017,0.086-0.033,0.131-0.051c0.343-0.148,0.685-0.291,1.03-0.433
	c1.213-0.502,2.438-0.985,3.673-1.452c0.974-0.37,1.953-0.724,2.938-1.071c0.102-0.034,0.205-0.067,0.313-0.107
	c0.291-0.097-0.034-0.303-0.125-0.444c-0.318-0.479-0.645-0.957-0.975-1.429c-0.67-0.957-1.36-1.896-2.077-2.813
	c-1.896-2.455-3.94-4.761-6.121-6.965c-0.552-0.551-1.11-1.104-1.679-1.645c-0.035-0.034-0.069-0.068-0.108-0.103
	c-0.008-0.007-0.013-0.01-0.017-0.01C311.61,43.459,311.635,43.537,311.639,43.565"/>
<rect x="79.512" y="8.079" fill="none" width="329.46" height="81.132"/>
<g>
	<defs>
		<polygon id="SVGID_10_" points="211.753,28.01 208.906,69.871 214.378,69.871 202.256,84.379 192.502,69.871 197.968,69.871 
			201.948,28.01 197.046,28.01 207.739,17.089 216.655,28.01 		"/>
	</defs>
	<clipPath id="SVGID_11_">
		<use xlink:href="#SVGID_10_"  overflow="visible"/>
	</clipPath>
	
		<linearGradient id="SVGID_12_" gradientUnits="userSpaceOnUse" x1="-150.3804" y1="197.1465" x2="-149.3804" y2="197.1465" gradientTransform="matrix(0 68.3284 68.3284 0 -13266.1387 10292.9736)">
		<stop  offset="0" style="stop-color:#FFD000"/>
		<stop  offset="1" style="stop-color:#FFA700"/>
	</linearGradient>
	<rect x="192.503" y="17.09" clip-path="url(#SVGID_11_)" fill="url(#SVGID_12_)" width="24.153" height="67.288"/>
	
		<polygon clip-path="url(#SVGID_11_)" fill="none" stroke="#000000" stroke-width="2.135" stroke-linecap="round" stroke-linejoin="round" points="
		211.753,28.01 208.906,69.871 214.378,69.871 202.256,84.379 192.502,69.871 197.968,69.871 201.948,28.01 197.046,28.01 
		207.739,17.089 216.655,28.01 	"/>
	<polygon clip-path="url(#SVGID_11_)" fill="none" points="197.047,28.01 201.949,28.01 197.968,69.871 192.503,69.871 
		202.256,84.379 214.378,69.871 208.907,69.871 211.754,28.01 216.656,28.01 207.74,17.09 	"/>
</g>
<g>
	<defs>
		<polygon id="SVGID_13_" points="133.31,28.016 121.416,69.87 126.887,69.87 111.628,84.379 105.012,69.87 110.478,69.87 
			123.505,28.016 118.597,28.016 131.659,17.095 138.212,28.01 		"/>
	</defs>
	<clipPath id="SVGID_14_">
		<use xlink:href="#SVGID_13_"  overflow="visible"/>
	</clipPath>
	<g clip-path="url(#SVGID_14_)">
		<polygon fill="none" points="118.597,28.015 123.505,28.015 110.478,69.871 105.012,69.871 111.628,84.379 126.887,69.871 
			121.416,69.871 133.31,28.015 138.212,28.01 131.659,17.095 		"/>
		
			<linearGradient id="SVGID_15_" gradientUnits="userSpaceOnUse" x1="-150.3809" y1="197.1465" x2="-149.3804" y2="197.1465" gradientTransform="matrix(0 68.3284 68.3284 0 -13349.1387 10292.9736)">
			<stop  offset="0" style="stop-color:#FFD000"/>
			<stop  offset="1" style="stop-color:#FFA700"/>
		</linearGradient>
		<rect x="105.012" y="17.095" fill="url(#SVGID_15_)" width="33.2" height="67.283"/>
	</g>
	
		<polygon clip-path="url(#SVGID_14_)" fill="none" stroke="#000000" stroke-width="2.135" stroke-linecap="round" stroke-linejoin="round" points="
		133.31,28.016 121.416,69.87 126.887,69.87 111.628,84.379 105.012,69.87 110.478,69.87 123.505,28.016 118.597,28.016 
		131.659,17.095 138.212,28.01 	"/>
</g>
<rect x="79.512" y="8.079" fill="none" width="329.46" height="81.132"/>
<g>
	<defs>
		<path id="SVGID_16_" d="M381.36,65.185c-9.029-10.226-12.213-27.427-12.879-39.942c-0.006-0.097,0.051-0.461-0.119-0.461h-0.428
			h-0.854h-1.709h-1.703h-0.215c-0.098,0,0.051-0.086,0.08-0.125c0.051-0.086,0.107-0.166,0.158-0.251
			c0.108-0.171,0.211-0.336,0.319-0.507c0.864-1.361,1.741-2.71,2.636-4.059c1.84-2.779,3.73-5.523,5.688-8.223
			c0.269-0.37,0.537-0.739,0.804-1.104c0.137-0.188,0.272-0.37,0.41-0.552c0.051-0.068,0.114-0.245,0.194-0.114
			c0.051,0.091,0.102,0.182,0.158,0.272c0.434,0.74,0.866,1.476,1.311,2.209c0.894,1.487,1.805,2.956,2.738,4.407
			c0.945,1.476,1.918,2.934,2.909,4.373c0.501,0.729,1.009,1.452,1.521,2.17c0.262,0.364,0.518,0.724,0.779,1.081
			c0.069,0.092,0.131,0.184,0.2,0.269c0.034,0.046,0.062,0.091,0.097,0.137c0.074,0.102-0.125,0.017-0.188,0.017h-0.911h-2.089
			h-1.048h-0.523c-0.08,0-0.24-0.107-0.228,0.045c0.005,0.12,0.011,0.245,0.017,0.365c0.114,1.941,0.279,3.872,0.502,5.802
			c0.432,3.735,1.075,7.413,1.98,11.063c1.754,7.049,4.15,13.449,8.472,19.444c0.524,0.723,1.071,1.429,1.646,2.117
			c0.278,0.33,0.568,0.661,0.864,0.985c0.434,0.479,0.365,0.581,1.077,0.581h2.768h1.383h0.688c0.063,0,0.223-0.068,0.178,0.046
			c-0.018,0.028-0.029,0.063-0.046,0.096c-0.394,0.946-0.798,1.879-1.241,2.803c-0.354,0.733-0.729,1.457-1.173,2.146
			c-0.092,0.144-0.188,0.285-0.285,0.422c-0.045,0.068-0.097,0.131-0.143,0.193c-0.102,0.131-0.211,0.125-0.347,0.103
			c-1.361-0.238-2.71-0.518-4.054-0.825c-3.263-0.746-6.446-1.686-9.589-2.824c-1.525-0.553-3.034-1.146-4.521-1.788
			c-0.188-0.08-0.371-0.159-0.558-0.239c-0.092-0.04-0.184-0.08-0.274-0.12c-0.103-0.045,0.114-0.011,0.165-0.011h0.217h1.725
			H381.36z"/>
	</defs>
	<clipPath id="SVGID_17_">
		<use xlink:href="#SVGID_16_"  overflow="visible"/>
	</clipPath>
	<g clip-path="url(#SVGID_17_)">
		<path fill="none" d="M373.547,9.961c-0.135,0.181-0.272,0.364-0.409,0.552c-0.267,0.365-0.535,0.735-0.804,1.105
			c-1.957,2.698-3.848,5.442-5.688,8.221c-0.893,1.35-1.77,2.699-2.637,4.06c-0.107,0.171-0.209,0.336-0.317,0.508
			c-0.052,0.085-0.108,0.165-0.16,0.251c-0.028,0.039-0.176,0.125-0.079,0.125h0.215h1.703h1.709h0.854h0.427
			c0.171,0,0.114,0.363,0.12,0.461c0.666,12.515,3.85,29.716,12.88,39.941h-3.438h-1.727h-0.217c-0.051,0-0.268-0.035-0.164,0.012
			c0.091,0.039,0.182,0.079,0.271,0.119c0.188,0.079,0.371,0.159,0.559,0.239c1.486,0.644,2.996,1.235,4.521,1.788
			c3.144,1.138,6.325,2.078,9.589,2.824c1.343,0.307,2.692,0.586,4.054,0.825c0.137,0.022,0.245,0.028,0.348-0.103
			c0.045-0.062,0.096-0.125,0.143-0.193c0.096-0.138,0.192-0.279,0.283-0.422c0.445-0.688,0.82-1.411,1.174-2.146
			c0.443-0.923,0.849-1.856,1.241-2.802c0.018-0.034,0.028-0.069,0.045-0.098c0.047-0.113-0.112-0.045-0.177-0.045h-0.688h-1.385
			h-2.767c-0.712,0-0.643-0.103-1.076-0.581c-0.296-0.324-0.587-0.654-0.866-0.984c-0.574-0.689-1.12-1.396-1.645-2.118
			c-4.322-5.996-6.719-12.396-8.473-19.445c-0.905-3.648-1.549-7.327-1.981-11.062c-0.222-1.932-0.388-3.861-0.501-5.804
			c-0.005-0.118-0.012-0.244-0.018-0.363c-0.012-0.153,0.148-0.045,0.229-0.045h0.523h1.048h2.09h0.911
			c0.063,0,0.262,0.085,0.188-0.018c-0.033-0.046-0.063-0.091-0.098-0.137c-0.068-0.086-0.13-0.176-0.197-0.268
			c-0.263-0.358-0.52-0.719-0.781-1.081c-0.513-0.719-1.019-1.441-1.521-2.171c-0.991-1.439-1.965-2.897-2.91-4.371
			c-0.933-1.453-1.845-2.923-2.737-4.408c-0.444-0.734-0.877-1.469-1.311-2.209c-0.057-0.091-0.107-0.183-0.159-0.273
			c-0.021-0.034-0.04-0.048-0.059-0.048C373.629,9.799,373.586,9.91,373.547,9.961"/>
		
			<linearGradient id="SVGID_18_" gradientUnits="userSpaceOnUse" x1="-153.0415" y1="193.1104" x2="-152.0415" y2="193.1104" gradientTransform="matrix(-17.4231 -56.3684 -56.3684 17.4231 8608.5879 -11921.7471)">
			<stop  offset="0" style="stop-color:#FFD314"/>
			<stop  offset="1" style="stop-color:#FF8100"/>
		</linearGradient>
		<polygon fill="url(#SVGID_18_)" points="366.385,80.82 346.084,15.138 395.06,0 415.362,65.682 		"/>
	</g>
</g>
<text transform="matrix(1 0 0 1 46.9658 100.584)" fill="#231F20" font-family="'TrebuchetMS'" font-size="10">Cases:</text>
<text transform="matrix(1 0 0 1 114.7461 100.584)" fill="#231F20" font-family="'TrebuchetMS'" font-size="10">A.</text>
<text transform="matrix(1 0 0 1 196.9561 100.584)" fill="#231F20" font-family="'TrebuchetMS'" font-size="10">B.</text>
<text transform="matrix(1 0 0 1 283.7563 100.584)" fill="#231F20" font-family="'TrebuchetMS'" font-size="10">C.</text>
<text transform="matrix(1 0 0 1 368.4058 100.584)" fill="#231F20" font-family="'TrebuchetMS'" font-size="10">D.</text>
<path fill="#D0D2D3" d="M8.75,111.334c0,0-8,0-8,8v117.617c0,0,0,8,8,8h472.8c0,0,8,0,8-8V119.334c0,0,0-8-8-8H8.75z"/>
<rect x="178.734" y="208.576" fill="#FFFFFF" width="310.354" height="27.373"/>
<rect x="105.503" y="208.576" fill="#FFFFFF" width="73.231" height="27.373"/>
<rect x="30.883" y="208.576" fill="#FFFFFF" width="74.62" height="27.373"/>
<rect x="1.088" y="208.576" fill="#FFFFFF" width="29.795" height="27.373"/>
<rect x="178.734" y="181.203" fill="#FFFFFF" width="310.354" height="27.373"/>
<rect x="105.503" y="181.203" fill="#FFFFFF" width="73.231" height="27.373"/>
<rect x="30.883" y="181.203" fill="#FFFFFF" width="74.62" height="27.373"/>
<rect x="1.088" y="181.203" fill="#FFFFFF" width="29.795" height="27.373"/>
<rect x="178.734" y="153.83" fill="#FFFFFF" width="310.354" height="27.373"/>
<rect x="105.503" y="153.83" fill="#FFFFFF" width="73.231" height="27.373"/>
<rect x="30.883" y="153.83" fill="#FFFFFF" width="74.62" height="27.373"/>
<rect x="1.088" y="153.83" fill="#FFFFFF" width="29.795" height="27.373"/>
<rect x="178.734" y="126.457" fill="#FFFFFF" width="310.354" height="27.373"/>
<rect x="105.503" y="126.457" fill="#FFFFFF" width="73.231" height="27.373"/>
<rect x="30.883" y="126.457" fill="#FFFFFF" width="74.62" height="27.373"/>
<rect x="1.088" y="126.457" fill="#FFFFFF" width="29.795" height="27.373"/>
<line fill="none" stroke="#FFFFFF" stroke-width="0.25" stroke-miterlimit="10" x1="105.503" y1="153.58" x2="105.503" y2="126.707"/>
<line fill="none" stroke="#FFFFFF" stroke-width="0.25" stroke-miterlimit="10" x1="178.734" y1="153.58" x2="178.734" y2="126.707"/>
<line fill="none" stroke="#FFFFFF" stroke-width="0.25" stroke-miterlimit="10" x1="489.086" y1="153.83" x2="489.086" y2="126.707"/>
<line fill="none" stroke="#FFFFFF" stroke-width="0.25" stroke-miterlimit="10" x1="105.503" y1="180.953" x2="105.503" y2="154.08"/>
<line fill="none" stroke="#FFFFFF" stroke-width="0.25" stroke-miterlimit="10" x1="178.734" y1="180.953" x2="178.734" y2="154.08"/>
<line fill="none" stroke="#FFFFFF" stroke-width="0.25" stroke-miterlimit="10" x1="489.086" y1="181.203" x2="489.086" y2="153.83"/>
<line fill="none" stroke="#FFFFFF" stroke-width="0.25" stroke-miterlimit="10" x1="105.503" y1="208.326" x2="105.503" y2="181.453"/>
<g>
	<defs>
		<rect id="SVGID_19_" x="79.512" y="8.079" width="329.46" height="81.132"/>
	</defs>
	<defs>
		<path id="SVGID_20_" d="M285.898,72.41c-0.165-9.315-1.042-30.325-4.088-39.509c-0.067-0.205-0.211-0.188-0.382-0.188h-0.672
			h-1.344h-1.344h-0.672c-0.136,0-0.643,0.108-0.41-0.04c0.575-0.376,1.162-0.729,1.771-1.059c1.093-0.587,2.209-1.076,3.398-1.43
			c0.541-0.164,1.082-0.291,1.635-0.387c0.711-0.12,1.4-0.052,2.101,0.028c1.748,0.199,3.456,0.547,5.153,1.024
			c1.127,0.313,2.238,0.684,3.33,1.105c0.569,0.216,1.134,0.444,1.697,0.689c0.034,0.011,0.068,0.027,0.102,0.045
			c0.029,0.011-0.016,0.022-0.039,0.022h-0.422h-0.842h-1.691h-1.691c-0.119,0-0.033,0.119-0.005,0.183
			c0.028,0.079,0.062,0.153,0.091,0.233c0.068,0.159,0.131,0.324,0.188,0.483c0.278,0.752,0.522,1.509,0.739,2.271
			c0.576,1.993,1.009,4.015,1.39,6.054c1.213,6.548,1.839,13.123,2.255,19.763c0.137,2.124,0.239,4.248,0.324,6.371
			c0.04,1.088,0.074,2.175,0.104,3.263c0.006,0.273,0.01,0.546,0.022,0.82c0,0.107-0.058,0.256,0.114,0.256h0.283h1.146h2.289h1.144
			h0.285c0.079,0,0.045,0.067,0.018,0.114c-0.074,0.113-0.148,0.232-0.223,0.347c-0.592,0.923-1.185,1.839-1.787,2.762
			c-1.834,2.808-3.701,5.591-5.627,8.341c-0.949,1.367-1.912,2.723-2.892,4.061c-0.063,0.085-0.125,0.171-0.183,0.25
			c-0.107,0.147-0.119-0.143-0.17-0.216c-0.108-0.165-0.217-0.336-0.33-0.501c-0.223-0.336-0.444-0.672-0.666-1.009
			c-0.451-0.677-0.9-1.354-1.351-2.037c-1.685-2.546-3.371-5.092-5.073-7.631c-0.859-1.286-1.725-2.573-2.596-3.854
			c-0.109-0.159-0.217-0.319-0.325-0.479c-0.028-0.04-0.057-0.08-0.085-0.119c-0.052-0.079,0.085-0.028,0.137-0.028h0.398h1.6
			H285.898z"/>
	</defs>
	<clipPath id="SVGID_21_">
		<use xlink:href="#SVGID_19_"  overflow="visible"/>
	</clipPath>
	<clipPath id="SVGID_22_" clip-path="url(#SVGID_21_)">
		<use xlink:href="#SVGID_20_"  overflow="visible"/>
	</clipPath>
	<g clip-path="url(#SVGID_22_)">
		<path fill="none" d="M283.792,29.797c-0.553,0.098-1.094,0.223-1.635,0.388c-1.189,0.354-2.306,0.843-3.398,1.431
			c-0.61,0.328-1.195,0.683-1.771,1.058c-0.234,0.148,0.273,0.04,0.41,0.04h0.672h1.344h1.344h0.672
			c0.171,0,0.313-0.017,0.382,0.188c3.046,9.185,3.923,30.194,4.088,39.51h-3.194h-1.6h-0.398c-0.052,0-0.188-0.052-0.137,0.028
			c0.028,0.039,0.057,0.08,0.085,0.119c0.108,0.16,0.216,0.319,0.325,0.479c0.871,1.281,1.736,2.568,2.596,3.854
			c1.702,2.54,3.389,5.085,5.073,7.63c0.45,0.684,0.899,1.361,1.351,2.039c0.221,0.335,0.443,0.671,0.666,1.007
			c0.112,0.165,0.221,0.336,0.33,0.501c0.051,0.074,0.062,0.365,0.17,0.218c0.058-0.08,0.119-0.166,0.183-0.251
			c0.979-1.338,1.94-2.693,2.893-4.061c1.925-2.75,3.791-5.534,5.625-8.341c0.604-0.923,1.196-1.839,1.788-2.761
			c0.074-0.115,0.148-0.234,0.223-0.349c0.027-0.046,0.062-0.113-0.018-0.113h-0.285h-1.144h-2.289h-1.146h-0.283
			c-0.172,0-0.114-0.148-0.114-0.256c-0.013-0.273-0.017-0.548-0.023-0.82c-0.028-1.088-0.063-2.175-0.102-3.262
			c-0.087-2.124-0.188-4.248-0.325-6.372c-0.416-6.64-1.043-13.216-2.255-19.764c-0.382-2.039-0.813-4.059-1.39-6.053
			c-0.215-0.762-0.461-1.52-0.739-2.271c-0.058-0.16-0.12-0.325-0.188-0.485c-0.029-0.079-0.063-0.153-0.091-0.233
			c-0.028-0.063-0.114-0.182,0.005-0.182h1.691h1.691h0.842h0.422c0.022,0,0.068-0.011,0.041-0.023
			c-0.035-0.017-0.069-0.033-0.104-0.045c-0.564-0.245-1.128-0.473-1.697-0.688c-1.093-0.422-2.203-0.791-3.33-1.105
			c-1.697-0.478-3.404-0.826-5.153-1.024c-0.427-0.049-0.851-0.094-1.278-0.094C284.342,29.732,284.069,29.751,283.792,29.797"/>
		
			<linearGradient id="SVGID_23_" gradientUnits="userSpaceOnUse" x1="-150.3804" y1="197.1455" x2="-149.3809" y2="197.1455" gradientTransform="matrix(0 68.3284 68.3284 0 -13181.3262 10292.9736)">
			<stop  offset="0" style="stop-color:#FFD314"/>
			<stop  offset="1" style="stop-color:#FF8100"/>
		</linearGradient>
		<rect x="276.753" y="29.732" fill="url(#SVGID_23_)" width="25.184" height="58.699"/>
	</g>
</g>
<line fill="none" stroke="#FFFFFF" stroke-width="0.25" stroke-miterlimit="10" x1="178.734" y1="208.326" x2="178.734" y2="181.453"/>
<line fill="none" stroke="#FFFFFF" stroke-width="0.25" stroke-miterlimit="10" x1="489.086" y1="208.576" x2="489.086" y2="181.203"/>
<line fill="none" stroke="#FFFFFF" stroke-width="0.25" stroke-miterlimit="10" x1="105.503" y1="235.699" x2="105.503" y2="208.826"/>
<line fill="none" stroke="#FFFFFF" stroke-width="0.25" stroke-miterlimit="10" x1="178.734" y1="235.699" x2="178.734" y2="208.826"/>
<line fill="none" stroke="#FFFFFF" stroke-width="0.25" stroke-miterlimit="10" x1="489.086" y1="235.699" x2="489.086" y2="208.576"/>
<line fill="none" stroke="#FFFFFF" stroke-width="0.25" stroke-miterlimit="10" x1="30.883" y1="153.83" x2="30.883" y2="126.707"/>
<line fill="none" stroke="#FFFFFF" stroke-width="0.25" stroke-miterlimit="10" x1="30.883" y1="181.203" x2="30.883" y2="153.83"/>
<line fill="none" stroke="#FFFFFF" stroke-width="0.25" stroke-miterlimit="10" x1="30.883" y1="208.576" x2="30.883" y2="181.203"/>
<line fill="none" stroke="#FFFFFF" stroke-width="0.25" stroke-miterlimit="10" x1="30.883" y1="235.699" x2="30.883" y2="208.576"/>
<line fill="none" stroke="#231F20" stroke-width="0.25" stroke-miterlimit="10" x1="1.088" y1="126.457" x2="30.883" y2="126.457"/>
<line fill="none" stroke="#231F20" stroke-width="0.25" stroke-miterlimit="10" x1="30.883" y1="126.457" x2="105.503" y2="126.457"/>
<line fill="none" stroke="#231F20" stroke-width="0.25" stroke-miterlimit="10" x1="105.503" y1="126.457" x2="178.734" y2="126.457"/>
<line fill="none" stroke="#231F20" stroke-width="0.25" stroke-miterlimit="10" x1="178.734" y1="126.457" x2="489.212" y2="126.457"/>
<line fill="none" stroke="#231F20" stroke-width="0.25" stroke-miterlimit="10" x1="1.088" y1="153.83" x2="30.758" y2="153.83"/>
<line fill="none" stroke="#231F20" stroke-width="0.25" stroke-miterlimit="10" x1="31.008" y1="153.83" x2="105.503" y2="153.83"/>
<line fill="none" stroke="#231F20" stroke-width="0.25" stroke-miterlimit="10" x1="105.503" y1="153.83" x2="178.734" y2="153.83"/>
<line fill="none" stroke="#231F20" stroke-width="0.25" stroke-miterlimit="10" x1="178.734" y1="153.83" x2="488.962" y2="153.83"/>
<line fill="none" stroke="#231F20" stroke-width="0.25" stroke-miterlimit="10" x1="1.088" y1="181.203" x2="30.758" y2="181.203"/>
<line fill="none" stroke="#231F20" stroke-width="0.25" stroke-miterlimit="10" x1="31.008" y1="181.203" x2="105.503" y2="181.203"/>
<line fill="none" stroke="#231F20" stroke-width="0.25" stroke-miterlimit="10" x1="105.503" y1="181.203" x2="178.734" y2="181.203"/>
<line fill="none" stroke="#231F20" stroke-width="0.25" stroke-miterlimit="10" x1="178.734" y1="181.203" x2="488.962" y2="181.203"/>
<line fill="none" stroke="#231F20" stroke-width="0.25" stroke-miterlimit="10" x1="1.088" y1="208.576" x2="30.758" y2="208.576"/>
<line fill="none" stroke="#231F20" stroke-width="0.25" stroke-miterlimit="10" x1="31.008" y1="208.576" x2="105.503" y2="208.576"/>
<line fill="none" stroke="#231F20" stroke-width="0.25" stroke-miterlimit="10" x1="105.503" y1="208.576" x2="178.734" y2="208.576"/>
<line fill="none" stroke="#231F20" stroke-width="0.25" stroke-miterlimit="10" x1="178.734" y1="208.576" x2="488.962" y2="208.576"/>
<line fill="none" stroke="#231F20" stroke-width="0.25" stroke-linecap="round" stroke-linejoin="round" stroke-miterlimit="10" stroke-dasharray="0,0.746" x1="105.503" y1="152.834" x2="105.503" y2="127.081"/>
<line fill="none" stroke="#231F20" stroke-width="0.25" stroke-linecap="round" stroke-linejoin="round" stroke-miterlimit="10" x1="105.503" y1="126.707" x2="105.503" y2="126.707"/>
<line fill="none" stroke="#231F20" stroke-width="0.25" stroke-linecap="round" stroke-linejoin="round" stroke-miterlimit="10" x1="105.503" y1="153.58" x2="105.503" y2="153.58"/>
<line fill="none" stroke="#231F20" stroke-width="0.25" stroke-linecap="round" stroke-linejoin="round" stroke-miterlimit="10" stroke-dasharray="0,0.746" x1="178.734" y1="152.834" x2="178.734" y2="127.081"/>
<line fill="none" stroke="#231F20" stroke-width="0.25" stroke-linecap="round" stroke-linejoin="round" stroke-miterlimit="10" x1="178.734" y1="126.707" x2="178.734" y2="126.707"/>
<line fill="none" stroke="#231F20" stroke-width="0.25" stroke-linecap="round" stroke-linejoin="round" stroke-miterlimit="10" x1="178.734" y1="153.58" x2="178.734" y2="153.58"/>
<line fill="none" stroke="#231F20" stroke-width="0.25" stroke-linecap="round" stroke-linejoin="round" stroke-miterlimit="10" stroke-dasharray="0,0.753" x1="489.086" y1="153.077" x2="489.086" y2="127.084"/>
<line fill="none" stroke="#231F20" stroke-width="0.25" stroke-linecap="round" stroke-linejoin="round" stroke-miterlimit="10" x1="489.086" y1="126.707" x2="489.086" y2="126.707"/>
<line fill="none" stroke="#231F20" stroke-width="0.25" stroke-linecap="round" stroke-linejoin="round" stroke-miterlimit="10" x1="489.086" y1="153.83" x2="489.086" y2="153.83"/>
<line fill="none" stroke="#231F20" stroke-width="0.25" stroke-linecap="round" stroke-linejoin="round" stroke-miterlimit="10" stroke-dasharray="0,0.746" x1="105.503" y1="180.207" x2="105.503" y2="154.454"/>
<line fill="none" stroke="#231F20" stroke-width="0.25" stroke-linecap="round" stroke-linejoin="round" stroke-miterlimit="10" x1="105.503" y1="154.08" x2="105.503" y2="154.08"/>
<line fill="none" stroke="#231F20" stroke-width="0.25" stroke-linecap="round" stroke-linejoin="round" stroke-miterlimit="10" x1="105.503" y1="180.953" x2="105.503" y2="180.953"/>
<line fill="none" stroke="#231F20" stroke-width="0.25" stroke-linecap="round" stroke-linejoin="round" stroke-miterlimit="10" stroke-dasharray="0,0.746" x1="178.734" y1="180.207" x2="178.734" y2="154.454"/>
<line fill="none" stroke="#231F20" stroke-width="0.25" stroke-linecap="round" stroke-linejoin="round" stroke-miterlimit="10" x1="178.734" y1="154.08" x2="178.734" y2="154.08"/>
<line fill="none" stroke="#231F20" stroke-width="0.25" stroke-linecap="round" stroke-linejoin="round" stroke-miterlimit="10" x1="178.734" y1="180.953" x2="178.734" y2="180.953"/>
<line fill="none" stroke="#231F20" stroke-width="0.25" stroke-linecap="round" stroke-linejoin="round" stroke-miterlimit="10" stroke-dasharray="0,0.76" x1="489.086" y1="180.442" x2="489.086" y2="154.21"/>
<line fill="none" stroke="#231F20" stroke-width="0.25" stroke-linecap="round" stroke-linejoin="round" stroke-miterlimit="10" x1="489.086" y1="153.83" x2="489.086" y2="153.83"/>
<line fill="none" stroke="#231F20" stroke-width="0.25" stroke-linecap="round" stroke-linejoin="round" stroke-miterlimit="10" x1="489.086" y1="181.203" x2="489.086" y2="181.203"/>
<line fill="none" stroke="#231F20" stroke-width="0.25" stroke-linecap="round" stroke-linejoin="round" stroke-miterlimit="10" stroke-dasharray="0,0.746" x1="105.503" y1="207.58" x2="105.503" y2="181.827"/>
<line fill="none" stroke="#231F20" stroke-width="0.25" stroke-linecap="round" stroke-linejoin="round" stroke-miterlimit="10" x1="105.503" y1="181.453" x2="105.503" y2="181.453"/>
<line fill="none" stroke="#231F20" stroke-width="0.25" stroke-linecap="round" stroke-linejoin="round" stroke-miterlimit="10" x1="105.503" y1="208.326" x2="105.503" y2="208.326"/>
<line fill="none" stroke="#231F20" stroke-width="0.25" stroke-linecap="round" stroke-linejoin="round" stroke-miterlimit="10" stroke-dasharray="0,0.746" x1="178.734" y1="207.58" x2="178.734" y2="181.827"/>
<line fill="none" stroke="#231F20" stroke-width="0.25" stroke-linecap="round" stroke-linejoin="round" stroke-miterlimit="10" x1="178.734" y1="181.453" x2="178.734" y2="181.453"/>
<line fill="none" stroke="#231F20" stroke-width="0.25" stroke-linecap="round" stroke-linejoin="round" stroke-miterlimit="10" x1="178.734" y1="208.326" x2="178.734" y2="208.326"/>
<line fill="none" stroke="#231F20" stroke-width="0.25" stroke-linecap="round" stroke-linejoin="round" stroke-miterlimit="10" stroke-dasharray="0,0.76" x1="489.086" y1="207.815" x2="489.086" y2="181.583"/>
<line fill="none" stroke="#231F20" stroke-width="0.25" stroke-linecap="round" stroke-linejoin="round" stroke-miterlimit="10" x1="489.086" y1="181.203" x2="489.086" y2="181.203"/>
<line fill="none" stroke="#231F20" stroke-width="0.25" stroke-linecap="round" stroke-linejoin="round" stroke-miterlimit="10" x1="489.086" y1="208.576" x2="489.086" y2="208.576"/>
<line fill="none" stroke="#231F20" stroke-width="0.25" stroke-linecap="round" stroke-linejoin="round" stroke-miterlimit="10" stroke-dasharray="0,0.746" x1="105.503" y1="234.953" x2="105.503" y2="209.2"/>
<line fill="none" stroke="#231F20" stroke-width="0.25" stroke-linecap="round" stroke-linejoin="round" stroke-miterlimit="10" x1="105.503" y1="208.826" x2="105.503" y2="208.826"/>
<line fill="none" stroke="#231F20" stroke-width="0.25" stroke-linecap="round" stroke-linejoin="round" stroke-miterlimit="10" x1="105.503" y1="235.699" x2="105.503" y2="235.699"/>
<line fill="none" stroke="#231F20" stroke-width="0.25" stroke-linecap="round" stroke-linejoin="round" stroke-miterlimit="10" stroke-dasharray="0,0.746" x1="178.734" y1="234.953" x2="178.734" y2="209.2"/>
<line fill="none" stroke="#231F20" stroke-width="0.25" stroke-linecap="round" stroke-linejoin="round" stroke-miterlimit="10" x1="178.734" y1="208.826" x2="178.734" y2="208.826"/>
<line fill="none" stroke="#231F20" stroke-width="0.25" stroke-linecap="round" stroke-linejoin="round" stroke-miterlimit="10" x1="178.734" y1="235.699" x2="178.734" y2="235.699"/>
<line fill="none" stroke="#231F20" stroke-width="0.25" stroke-linecap="round" stroke-linejoin="round" stroke-miterlimit="10" stroke-dasharray="0,0.753" x1="489.086" y1="234.946" x2="489.086" y2="208.953"/>
<line fill="none" stroke="#231F20" stroke-width="0.25" stroke-linecap="round" stroke-linejoin="round" stroke-miterlimit="10" x1="489.086" y1="208.576" x2="489.086" y2="208.576"/>
<line fill="none" stroke="#231F20" stroke-width="0.25" stroke-linecap="round" stroke-linejoin="round" stroke-miterlimit="10" x1="489.086" y1="235.699" x2="489.086" y2="235.699"/>
<line fill="none" stroke="#231F20" stroke-width="0.25" stroke-linecap="round" stroke-linejoin="round" stroke-miterlimit="10" stroke-dasharray="0,0.753" x1="30.883" y1="153.077" x2="30.883" y2="127.084"/>
<line fill="none" stroke="#231F20" stroke-width="0.25" stroke-linecap="round" stroke-linejoin="round" stroke-miterlimit="10" x1="30.883" y1="126.707" x2="30.883" y2="126.707"/>
<line fill="none" stroke="#231F20" stroke-width="0.25" stroke-linecap="round" stroke-linejoin="round" stroke-miterlimit="10" x1="30.883" y1="153.83" x2="30.883" y2="153.83"/>
<line fill="none" stroke="#231F20" stroke-width="0.25" stroke-linecap="round" stroke-linejoin="round" stroke-miterlimit="10" stroke-dasharray="0,0.76" x1="30.883" y1="180.442" x2="30.883" y2="154.21"/>
<line fill="none" stroke="#231F20" stroke-width="0.25" stroke-linecap="round" stroke-linejoin="round" stroke-miterlimit="10" x1="30.883" y1="153.83" x2="30.883" y2="153.83"/>
<line fill="none" stroke="#231F20" stroke-width="0.25" stroke-linecap="round" stroke-linejoin="round" stroke-miterlimit="10" x1="30.883" y1="181.203" x2="30.883" y2="181.203"/>
<line fill="none" stroke="#231F20" stroke-width="0.25" stroke-linecap="round" stroke-linejoin="round" stroke-miterlimit="10" stroke-dasharray="0,0.76" x1="30.883" y1="207.815" x2="30.883" y2="181.583"/>
<line fill="none" stroke="#231F20" stroke-width="0.25" stroke-linecap="round" stroke-linejoin="round" stroke-miterlimit="10" x1="30.883" y1="181.203" x2="30.883" y2="181.203"/>
<line fill="none" stroke="#231F20" stroke-width="0.25" stroke-linecap="round" stroke-linejoin="round" stroke-miterlimit="10" x1="30.883" y1="208.576" x2="30.883" y2="208.576"/>
<line fill="none" stroke="#231F20" stroke-width="0.25" stroke-linecap="round" stroke-linejoin="round" stroke-miterlimit="10" stroke-dasharray="0,0.753" x1="30.883" y1="234.946" x2="30.883" y2="208.953"/>
<line fill="none" stroke="#231F20" stroke-width="0.25" stroke-linecap="round" stroke-linejoin="round" stroke-miterlimit="10" x1="30.883" y1="208.576" x2="30.883" y2="208.576"/>
<line fill="none" stroke="#231F20" stroke-width="0.25" stroke-linecap="round" stroke-linejoin="round" stroke-miterlimit="10" x1="30.883" y1="235.699" x2="30.883" y2="235.699"/>
<line fill="none" stroke="#231F20" stroke-width="0.25" stroke-miterlimit="10" x1="1.088" y1="235.949" x2="30.883" y2="235.949"/>
<line fill="none" stroke="#231F20" stroke-width="0.25" stroke-miterlimit="10" x1="30.883" y1="235.949" x2="105.503" y2="235.949"/>
<line fill="none" stroke="#231F20" stroke-width="0.25" stroke-miterlimit="10" x1="105.503" y1="235.949" x2="178.734" y2="235.949"/>
<line fill="none" stroke="#231F20" stroke-width="0.25" stroke-miterlimit="10" x1="178.734" y1="235.949" x2="489.212" y2="235.949"/>
<text transform="matrix(1 0 0 1 7.1582 122.457)" fill="#231F20" font-family="'TrebuchetMS-Italic'" font-size="10">Case</text>
<text transform="matrix(1 0 0 1 42.7085 122.457)" fill="#231F20" font-family="'TrebuchetMS-Italic'" font-size="10">Curvature</text>
<text transform="matrix(1 0 0 1 87.8696 125.7871)" fill="#231F20" font-family="'TrebuchetMS-Italic'" font-size="5.83">min</text>
<text transform="matrix(1 0 0 1 116.124 122.457)" fill="#231F20" font-family="'TrebuchetMS-Italic'" font-size="10">Curvature</text>
<text transform="matrix(1 0 0 1 161.29 125.7871)" fill="#231F20" font-family="'TrebuchetMS-Italic'" font-size="5.83">max</text>
<text transform="matrix(1 0 0 1 298.8325 122.457)" fill="#231F20" font-family="'TrebuchetMS-Italic'" font-size="10">Case description</text>
<text transform="matrix(1 0 0 1 11.2031 143.8271)" fill="#231F20" font-family="'TrebuchetMS'" font-size="10">A.</text>
<text transform="matrix(1 0 0 1 58.4731 143.8271)" fill="#231F20" font-family="'TrebuchetMS'" font-size="10">zero</text>
<text transform="matrix(1 0 0 1 132.4028 143.8271)" fill="#231F20" font-family="'TrebuchetMS'" font-size="10">zero</text>
<path fill="#231F20" d="M183.646,137.827v-7.153h0.977v7.153H183.646z M189.009,131.284c-0.189-0.065-0.365-0.098-0.527-0.098
	c-0.283,0-0.517,0.107-0.701,0.322s-0.276,0.486-0.276,0.815c0,0.088,0.008,0.179,0.024,0.273h1.064v0.781h-1.064v4.448h-0.928
	v-4.448h-0.762v-0.781h0.762c0-0.667,0.165-1.191,0.493-1.572s0.763-0.571,1.304-0.571c0.27,0,0.56,0.049,0.869,0.146
	L189.009,131.284z M195.873,137.451l-0.327,0.474h-0.464v-7.471h0.928v2.529c0.088-0.12,0.253-0.231,0.496-0.332
	c0.242-0.101,0.481-0.151,0.715-0.151c0.716,0,1.296,0.247,1.741,0.742s0.667,1.12,0.667,1.875c0,0.872-0.223,1.559-0.669,2.058
	c-0.446,0.5-1.05,0.75-1.812,0.75c-0.248,0-0.491-0.047-0.73-0.14S195.997,137.581,195.873,137.451z M196.01,133.691v3.018
	c0,0.052,0.115,0.138,0.347,0.256c0.231,0.119,0.407,0.179,0.527,0.179c0.631,0,1.084-0.151,1.357-0.454s0.41-0.811,0.41-1.523
	c0-0.593-0.16-1.055-0.479-1.387c-0.319-0.332-0.749-0.498-1.289-0.498c-0.114,0-0.273,0.049-0.476,0.146
	C196.204,133.525,196.071,133.613,196.01,133.691z M200.31,135.2c0-0.808,0.217-1.459,0.652-1.956
	c0.435-0.496,1.007-0.744,1.716-0.744c0.749,0,1.33,0.238,1.743,0.715c0.414,0.478,0.62,1.139,0.62,1.985
	c0,0.843-0.211,1.508-0.635,1.994c-0.423,0.487-0.999,0.73-1.729,0.73c-0.745,0-1.326-0.246-1.743-0.737
	C200.519,136.696,200.31,136.033,200.31,135.2z M201.287,135.2c0,1.312,0.464,1.968,1.392,1.968c0.433,0,0.772-0.176,1.018-0.527
	c0.246-0.352,0.369-0.832,0.369-1.44c0-1.296-0.462-1.943-1.387-1.943c-0.423,0-0.761,0.173-1.013,0.518
	C201.413,134.119,201.287,134.595,201.287,135.2z M206.354,133.33h-0.605v-0.732h0.605v-1.094l0.928-0.356v1.45h1.436v0.732h-1.436
	v2.598c0,0.439,0.074,0.752,0.222,0.938s0.387,0.278,0.715,0.278c0.238,0,0.483-0.061,0.737-0.181l0.137,0.815
	c-0.384,0.098-0.806,0.146-1.265,0.146c-0.414,0-0.763-0.154-1.047-0.462s-0.427-0.695-0.427-1.164V133.33z M213.205,137.827v-3.286
	c0-0.391-0.096-0.698-0.288-0.923s-0.462-0.337-0.811-0.337c-0.225,0-0.45,0.065-0.676,0.197s-0.399,0.286-0.52,0.462v3.887h-0.928
	v-7.373h0.928v2.72c0.124-0.192,0.323-0.353,0.598-0.481c0.275-0.128,0.559-0.192,0.852-0.192c0.553,0,0.987,0.183,1.301,0.547
	s0.471,0.862,0.471,1.494v3.286H213.205z M221.58,137.539v2.339h-0.928v-7.28h0.928v0.43c0.352-0.352,0.776-0.527,1.274-0.527
	c0.742,0,1.32,0.231,1.733,0.693c0.414,0.462,0.62,1.14,0.62,2.031c0,0.794-0.208,1.442-0.625,1.945
	c-0.417,0.503-1.019,0.755-1.807,0.755c-0.221,0-0.458-0.039-0.71-0.117C221.813,137.729,221.651,137.64,221.58,137.539z
	 M221.58,133.726v3.047c0.059,0.088,0.183,0.172,0.371,0.251c0.189,0.08,0.373,0.12,0.552,0.12c1.152,0,1.729-0.651,1.729-1.953
	c0-0.661-0.137-1.145-0.41-1.45s-0.711-0.459-1.313-0.459c-0.13,0-0.29,0.046-0.479,0.137
	C221.84,133.509,221.69,133.611,221.58,133.726z M229.064,133.491c-0.202-0.14-0.405-0.21-0.61-0.21
	c-0.329,0-0.616,0.151-0.862,0.454c-0.246,0.303-0.369,0.667-0.369,1.094v2.998h-0.928v-5.229h0.928v0.835
	c0.338-0.622,0.841-0.933,1.509-0.933c0.166,0,0.405,0.029,0.718,0.088L229.064,133.491z M230.562,137.827v-4.448h-0.718v-0.781
	h1.646v5.229H230.562z M231.069,130.62c0.159,0,0.295,0.056,0.408,0.168s0.168,0.247,0.168,0.403c0,0.159-0.056,0.295-0.168,0.407
	s-0.249,0.169-0.408,0.169c-0.156,0-0.291-0.057-0.403-0.169s-0.168-0.248-0.168-0.407s0.055-0.295,0.166-0.405
	C230.774,130.676,230.91,130.62,231.069,130.62z M236.18,137.827v-3.042c0-0.557-0.084-0.946-0.251-1.17
	c-0.168-0.223-0.449-0.334-0.842-0.334c-0.212,0-0.433,0.063-0.664,0.19c-0.231,0.127-0.409,0.283-0.532,0.469v3.887h-0.928v-5.229
	h0.635l0.293,0.674c0.306-0.515,0.806-0.771,1.499-0.771c1.146,0,1.719,0.696,1.719,2.09v3.237H236.18z M242.368,133.022
	l-0.459,0.654c-0.095-0.095-0.261-0.184-0.5-0.269s-0.475-0.127-0.706-0.127c-0.505,0-0.905,0.177-1.201,0.529
	c-0.296,0.354-0.444,0.838-0.444,1.453c0,0.612,0.151,1.078,0.454,1.398c0.303,0.321,0.723,0.481,1.26,0.481
	c0.417,0,0.836-0.161,1.26-0.483l0.366,0.781c-0.498,0.322-1.115,0.483-1.851,0.483c-0.713,0-1.302-0.239-1.768-0.718
	c-0.466-0.479-0.698-1.126-0.698-1.943c0-0.833,0.242-1.502,0.725-2.007s1.145-0.757,1.985-0.757c0.27,0,0.563,0.057,0.879,0.171
	C241.985,132.785,242.218,132.902,242.368,133.022z M243.821,137.827v-4.448h-0.718v-0.781h1.646v5.229H243.821z M244.329,130.62
	c0.16,0,0.295,0.056,0.408,0.168s0.168,0.247,0.168,0.403c0,0.159-0.056,0.295-0.168,0.407s-0.248,0.169-0.408,0.169
	c-0.156,0-0.291-0.057-0.403-0.169s-0.168-0.248-0.168-0.407s0.056-0.295,0.166-0.405C244.035,130.676,244.17,130.62,244.329,130.62
	z M247.15,137.539v2.339h-0.928v-7.28h0.928v0.43c0.352-0.352,0.776-0.527,1.274-0.527c0.742,0,1.32,0.231,1.733,0.693
	s0.62,1.14,0.62,2.031c0,0.794-0.208,1.442-0.625,1.945c-0.416,0.503-1.019,0.755-1.807,0.755c-0.221,0-0.458-0.039-0.71-0.117
	S247.222,137.64,247.15,137.539z M247.15,133.726v3.047c0.059,0.088,0.183,0.172,0.371,0.251c0.189,0.08,0.373,0.12,0.552,0.12
	c1.152,0,1.729-0.651,1.729-1.953c0-0.661-0.137-1.145-0.41-1.45s-0.711-0.459-1.313-0.459c-0.13,0-0.29,0.046-0.479,0.137
	C247.411,133.509,247.261,133.611,247.15,133.726z M254.756,137.227c-0.371,0.466-0.939,0.698-1.704,0.698
	c-0.41,0-0.766-0.149-1.067-0.447c-0.301-0.298-0.451-0.668-0.451-1.11c0-0.53,0.232-0.979,0.695-1.346
	c0.465-0.366,1.057-0.549,1.775-0.549c0.195,0,0.417,0.042,0.664,0.127c0-0.847-0.377-1.27-1.133-1.27
	c-0.579,0-1.025,0.156-1.338,0.469l-0.391-0.776c0.176-0.144,0.42-0.267,0.73-0.369s0.607-0.153,0.891-0.153
	c0.759,0,1.31,0.173,1.652,0.518c0.344,0.345,0.516,0.894,0.516,1.646v1.875c0,0.459,0.137,0.765,0.41,0.918v0.464
	c-0.377,0-0.66-0.054-0.848-0.161C254.972,137.651,254.838,137.474,254.756,137.227z M254.668,135.259
	c-0.293-0.065-0.498-0.098-0.615-0.098c-0.469,0-0.852,0.12-1.147,0.361s-0.444,0.525-0.444,0.854c0,0.544,0.32,0.815,0.962,0.815
	c0.469,0,0.884-0.223,1.245-0.669V135.259z M258.927,137.925c-1.201,0-1.802-0.525-1.802-1.577v-5.894h0.928v5.737
	c0,0.28,0.08,0.5,0.242,0.661c0.16,0.161,0.371,0.242,0.632,0.242V137.925L258.927,137.925z M269.158,133.022l-0.459,0.654
	c-0.095-0.095-0.261-0.184-0.501-0.269c-0.238-0.085-0.475-0.127-0.705-0.127c-0.505,0-0.905,0.177-1.201,0.529
	c-0.297,0.354-0.444,0.838-0.444,1.453c0,0.612,0.151,1.078,0.454,1.398c0.303,0.321,0.723,0.481,1.26,0.481
	c0.416,0,0.836-0.161,1.26-0.483l0.366,0.781c-0.498,0.322-1.115,0.483-1.851,0.483c-0.713,0-1.303-0.239-1.768-0.718
	c-0.466-0.479-0.698-1.126-0.698-1.943c0-0.833,0.241-1.502,0.726-2.007c0.482-0.505,1.145-0.757,1.984-0.757
	c0.27,0,0.563,0.057,0.879,0.171C268.775,132.785,269.008,132.902,269.158,133.022z M271.042,132.598v3.335
	c0,0.808,0.35,1.211,1.049,1.211c0.307,0,0.586-0.088,0.84-0.264s0.422-0.379,0.504-0.61v-3.672h0.928v5.229h-0.928v-0.723
	c-0.104,0.205-0.313,0.393-0.628,0.563c-0.313,0.171-0.621,0.257-0.921,0.257c-0.572,0-1.011-0.164-1.315-0.493
	c-0.304-0.329-0.456-0.796-0.456-1.401v-3.433H271.042z M278.463,133.491c-0.201-0.14-0.404-0.21-0.609-0.21
	c-0.329,0-0.616,0.151-0.862,0.454c-0.245,0.303-0.368,0.667-0.368,1.094v2.998h-0.928v-5.229h0.928v0.835
	c0.338-0.622,0.842-0.933,1.508-0.933c0.166,0,0.406,0.029,0.719,0.088L278.463,133.491z M281.397,137.925h-0.244l-2.241-5.342
	h1.016l1.382,3.662l1.411-3.662h0.972L281.397,137.925z M287.367,137.227c-0.371,0.466-0.939,0.698-1.704,0.698
	c-0.41,0-0.766-0.149-1.066-0.447c-0.302-0.298-0.452-0.668-0.452-1.11c0-0.53,0.231-0.979,0.696-1.346
	c0.463-0.366,1.055-0.549,1.774-0.549c0.195,0,0.417,0.042,0.664,0.127c0-0.847-0.378-1.27-1.133-1.27
	c-0.579,0-1.025,0.156-1.338,0.469l-0.391-0.776c0.176-0.144,0.419-0.267,0.729-0.369s0.608-0.153,0.892-0.153
	c0.759,0,1.31,0.173,1.653,0.518c0.343,0.345,0.515,0.894,0.515,1.646v1.875c0,0.459,0.137,0.765,0.41,0.918v0.464
	c-0.378,0-0.66-0.054-0.847-0.161C287.583,137.651,287.448,137.474,287.367,137.227z M287.279,135.259
	c-0.293-0.065-0.498-0.098-0.615-0.098c-0.469,0-0.852,0.12-1.147,0.361c-0.297,0.241-0.444,0.525-0.444,0.854
	c0,0.544,0.32,0.815,0.962,0.815c0.469,0,0.884-0.223,1.245-0.669V135.259z M289.995,133.33h-0.605v-0.732h0.605v-1.094l0.928-0.356
	v1.45h1.436v0.732h-1.436v2.598c0,0.439,0.074,0.752,0.222,0.938c0.148,0.186,0.387,0.278,0.716,0.278
	c0.237,0,0.483-0.061,0.737-0.181l0.137,0.815c-0.384,0.098-0.806,0.146-1.265,0.146c-0.414,0-0.763-0.154-1.048-0.462
	c-0.284-0.308-0.427-0.695-0.427-1.164V133.33z M294.501,132.598v3.335c0,0.808,0.35,1.211,1.05,1.211
	c0.306,0,0.586-0.088,0.84-0.264s0.422-0.379,0.503-0.61v-3.672h0.928v5.229h-0.928v-0.723c-0.104,0.205-0.313,0.393-0.628,0.563
	s-0.621,0.257-0.92,0.257c-0.573,0-1.012-0.164-1.316-0.493s-0.456-0.796-0.456-1.401v-3.433H294.501z M301.924,133.491
	c-0.202-0.14-0.405-0.21-0.61-0.21c-0.329,0-0.616,0.151-0.862,0.454s-0.368,0.667-0.368,1.094v2.998h-0.928v-5.229h0.928v0.835
	c0.339-0.622,0.841-0.933,1.509-0.933c0.166,0,0.405,0.029,0.718,0.088L301.924,133.491z M307.45,134.736
	c0,0.205-0.023,0.394-0.072,0.566h-3.77c0,0.612,0.167,1.082,0.502,1.411c0.297,0.286,0.678,0.43,1.143,0.43
	c0.531,0,0.974-0.154,1.328-0.464l0.391,0.669c-0.143,0.144-0.363,0.267-0.658,0.371c-0.371,0.137-0.785,0.205-1.24,0.205
	c-0.658,0-1.217-0.223-1.676-0.669c-0.511-0.491-0.766-1.152-0.766-1.982c0-0.862,0.262-1.555,0.785-2.075
	c0.469-0.466,1.023-0.698,1.666-0.698c0.744,0,1.329,0.21,1.752,0.63C307.245,133.533,307.45,134.069,307.45,134.736L307.45,134.736
	z M306.176,133.691c-0.258-0.273-0.607-0.41-1.051-0.41c-0.413,0-0.76,0.134-1.039,0.4c-0.268,0.254-0.419,0.569-0.455,0.947h2.896
	C306.528,134.255,306.411,133.942,306.176,133.691L306.176,133.691z M309.633,137.925c-0.551,0-1.068-0.137-1.553-0.41l0.327-0.879
	c0.518,0.339,0.935,0.508,1.25,0.508c0.573,0,0.859-0.241,0.859-0.723c0-0.345-0.276-0.642-0.83-0.889
	c-0.427-0.195-0.714-0.344-0.862-0.444c-0.147-0.101-0.276-0.216-0.385-0.345c-0.109-0.128-0.191-0.265-0.244-0.41
	c-0.055-0.145-0.081-0.3-0.081-0.466c0-0.43,0.156-0.765,0.469-1.006s0.722-0.361,1.226-0.361c0.381,0,0.861,0.12,1.44,0.361
	l-0.264,0.859c-0.368-0.293-0.737-0.439-1.108-0.439c-0.221,0-0.408,0.052-0.559,0.156c-0.152,0.104-0.228,0.236-0.228,0.396
	c0,0.335,0.19,0.589,0.571,0.762l0.664,0.303c0.406,0.186,0.703,0.397,0.889,0.635s0.278,0.535,0.278,0.894
	c0,0.469-0.165,0.836-0.493,1.101C310.672,137.792,310.215,137.925,309.633,137.925L309.633,137.925z M320.647,137.227
	c-0.371,0.466-0.939,0.698-1.705,0.698c-0.41,0-0.766-0.149-1.066-0.447s-0.451-0.668-0.451-1.11c0-0.53,0.231-0.979,0.695-1.346
	s1.056-0.549,1.775-0.549c0.195,0,0.416,0.042,0.664,0.127c0-0.847-0.378-1.27-1.133-1.27c-0.58,0-1.025,0.156-1.338,0.469
	l-0.391-0.776c0.176-0.144,0.418-0.267,0.729-0.369s0.608-0.153,0.892-0.153c0.758,0,1.309,0.173,1.652,0.518
	s0.516,0.894,0.516,1.646v1.875c0,0.459,0.137,0.765,0.41,0.918v0.464c-0.378,0-0.66-0.054-0.848-0.161
	S320.728,137.474,320.647,137.227z M320.559,135.259c-0.293-0.065-0.498-0.098-0.615-0.098c-0.469,0-0.852,0.12-1.148,0.361
	c-0.296,0.241-0.443,0.525-0.443,0.854c0,0.544,0.32,0.815,0.961,0.815c0.469,0,0.885-0.223,1.246-0.669V135.259z M325.784,133.491
	c-0.201-0.14-0.404-0.21-0.609-0.21c-0.329,0-0.617,0.151-0.862,0.454s-0.368,0.667-0.368,1.094v2.998h-0.928v-5.229h0.928v0.835
	c0.338-0.622,0.841-0.933,1.508-0.933c0.166,0,0.406,0.029,0.719,0.088L325.784,133.491z M331.31,134.736
	c0,0.205-0.024,0.394-0.073,0.566h-3.77c0,0.612,0.168,1.082,0.503,1.411c0.296,0.286,0.677,0.43,1.143,0.43
	c0.53,0,0.974-0.154,1.328-0.464l0.391,0.669c-0.144,0.144-0.363,0.267-0.659,0.371c-0.371,0.137-0.785,0.205-1.24,0.205
	c-0.658,0-1.216-0.223-1.675-0.669c-0.511-0.491-0.767-1.152-0.767-1.982c0-0.862,0.262-1.555,0.786-2.075
	c0.469-0.466,1.023-0.698,1.665-0.698c0.745,0,1.33,0.21,1.753,0.63C331.105,133.533,331.31,134.069,331.31,134.736L331.31,134.736z
	 M330.036,133.691c-0.258-0.273-0.607-0.41-1.05-0.41c-0.413,0-0.761,0.134-1.04,0.4c-0.268,0.254-0.418,0.569-0.454,0.947h2.896
	C330.387,134.255,330.27,133.942,330.036,133.691L330.036,133.691z M338.483,136.997h2.9v0.83h-4.355v-0.244l2.975-4.155h-2.926
	v-0.83h4.277v0.264L338.483,136.997z M346.72,134.736c0,0.205-0.024,0.394-0.073,0.566h-3.77c0,0.612,0.168,1.082,0.503,1.411
	c0.296,0.286,0.677,0.43,1.143,0.43c0.53,0,0.974-0.154,1.328-0.464l0.391,0.669c-0.144,0.144-0.363,0.267-0.659,0.371
	c-0.371,0.137-0.785,0.205-1.24,0.205c-0.658,0-1.216-0.223-1.675-0.669c-0.511-0.491-0.767-1.152-0.767-1.982
	c0-0.862,0.262-1.555,0.786-2.075c0.469-0.466,1.023-0.698,1.665-0.698c0.745,0,1.33,0.21,1.753,0.63
	C346.515,133.533,346.72,134.069,346.72,134.736L346.72,134.736z M345.446,133.691c-0.258-0.273-0.607-0.41-1.05-0.41
	c-0.413,0-0.761,0.134-1.04,0.4c-0.268,0.254-0.418,0.569-0.454,0.947h2.896C345.797,134.255,345.68,133.942,345.446,133.691
	L345.446,133.691z M350.534,133.491c-0.201-0.14-0.404-0.21-0.609-0.21c-0.329,0-0.617,0.151-0.862,0.454s-0.368,0.667-0.368,1.094
	v2.998h-0.928v-5.229h0.928v0.835c0.338-0.622,0.841-0.933,1.508-0.933c0.166,0,0.406,0.029,0.719,0.088L350.534,133.491z
	 M351.241,135.2c0-0.808,0.217-1.459,0.652-1.956c0.434-0.496,1.006-0.744,1.716-0.744c0.749,0,1.329,0.238,1.743,0.715
	c0.414,0.478,0.62,1.139,0.62,1.985c0,0.843-0.212,1.508-0.635,1.994c-0.423,0.487-0.999,0.73-1.729,0.73
	c-0.745,0-1.327-0.246-1.743-0.737S351.241,136.033,351.241,135.2z M352.217,135.2c0,1.312,0.464,1.968,1.392,1.968
	c0.433,0,0.772-0.176,1.019-0.527c0.245-0.352,0.368-0.832,0.368-1.44c0-1.296-0.462-1.943-1.387-1.943
	c-0.423,0-0.761,0.173-1.013,0.518C352.343,134.119,352.217,134.595,352.217,135.2z M357.387,139.6l-0.249-0.352
	c0.56-0.459,0.84-0.85,0.84-1.172c0-0.144-0.049-0.286-0.146-0.43c-0.28-0.134-0.42-0.325-0.42-0.576c0-0.173,0.066-0.315,0.2-0.428
	c0.133-0.112,0.301-0.168,0.503-0.168c0.179,0,0.339,0.078,0.481,0.234c0.141,0.156,0.212,0.339,0.212,0.547
	c0,0.433-0.091,0.822-0.271,1.169C358.356,138.771,357.973,139.163,357.387,139.6z M366.155,133.33h-0.605v-0.732h0.605v-1.094
	l0.928-0.356v1.45h1.436v0.732h-1.436v2.598c0,0.439,0.074,0.752,0.222,0.938c0.148,0.186,0.387,0.278,0.716,0.278
	c0.237,0,0.482-0.061,0.736-0.181l0.137,0.815c-0.383,0.098-0.805,0.146-1.264,0.146c-0.414,0-0.763-0.154-1.048-0.462
	c-0.284-0.308-0.427-0.695-0.427-1.164V133.33z M373.004,137.827v-3.286c0-0.391-0.096-0.698-0.287-0.923
	c-0.192-0.225-0.463-0.337-0.811-0.337c-0.225,0-0.45,0.065-0.677,0.197c-0.226,0.132-0.399,0.286-0.521,0.462v3.887h-0.928v-7.373
	h0.928v2.72c0.125-0.192,0.324-0.353,0.599-0.481c0.275-0.128,0.56-0.192,0.853-0.192c0.553,0,0.986,0.183,1.301,0.547
	s0.471,0.862,0.471,1.494v3.286H373.004z M379.72,134.736c0,0.205-0.024,0.394-0.073,0.566h-3.77c0,0.612,0.168,1.082,0.503,1.411
	c0.296,0.286,0.677,0.43,1.143,0.43c0.53,0,0.974-0.154,1.328-0.464l0.391,0.669c-0.144,0.144-0.363,0.267-0.659,0.371
	c-0.371,0.137-0.785,0.205-1.24,0.205c-0.658,0-1.216-0.223-1.675-0.669c-0.511-0.491-0.767-1.152-0.767-1.982
	c0-0.862,0.262-1.555,0.786-2.075c0.469-0.466,1.023-0.698,1.665-0.698c0.745,0,1.33,0.21,1.753,0.63
	C379.515,133.533,379.72,134.069,379.72,134.736L379.72,134.736z M378.446,133.691c-0.258-0.273-0.607-0.41-1.05-0.41
	c-0.413,0-0.761,0.134-1.04,0.4c-0.268,0.254-0.418,0.569-0.454,0.947h2.896C378.797,134.255,378.68,133.942,378.446,133.691
	L378.446,133.691z M387.124,137.925c-0.551,0-1.068-0.137-1.553-0.41l0.327-0.879c0.518,0.339,0.935,0.508,1.25,0.508
	c0.573,0,0.859-0.241,0.859-0.723c0-0.345-0.276-0.642-0.83-0.889c-0.427-0.195-0.714-0.344-0.862-0.444s-0.276-0.216-0.386-0.345
	c-0.108-0.128-0.19-0.265-0.244-0.41c-0.054-0.145-0.08-0.3-0.08-0.466c0-0.43,0.156-0.765,0.469-1.006s0.721-0.361,1.226-0.361
	c0.381,0,0.861,0.12,1.44,0.361l-0.264,0.859c-0.368-0.293-0.737-0.439-1.108-0.439c-0.222,0-0.408,0.052-0.56,0.156
	s-0.227,0.236-0.227,0.396c0,0.335,0.19,0.589,0.571,0.762l0.664,0.303c0.406,0.186,0.703,0.397,0.889,0.635
	s0.278,0.535,0.278,0.894c0,0.469-0.165,0.836-0.493,1.101C388.162,137.792,387.706,137.925,387.124,137.925L387.124,137.925z
	 M390.841,132.598v3.335c0,0.808,0.35,1.211,1.05,1.211c0.306,0,0.586-0.088,0.84-0.264s0.422-0.379,0.503-0.61v-3.672h0.928v5.229
	h-0.928v-0.723c-0.104,0.205-0.313,0.393-0.628,0.563c-0.313,0.171-0.62,0.257-0.92,0.257c-0.573,0-1.012-0.164-1.316-0.493
	c-0.304-0.329-0.456-0.796-0.456-1.401v-3.433H390.841z M398.264,133.491c-0.202-0.14-0.405-0.21-0.61-0.21
	c-0.329,0-0.616,0.151-0.861,0.454c-0.246,0.303-0.369,0.667-0.369,1.094v2.998h-0.928v-5.229h0.928v0.835
	c0.339-0.622,0.842-0.933,1.509-0.933c0.166,0,0.405,0.029,0.718,0.088L398.264,133.491z M402.139,131.284
	c-0.188-0.065-0.364-0.098-0.527-0.098c-0.283,0-0.517,0.107-0.7,0.322s-0.276,0.486-0.276,0.815c0,0.088,0.009,0.179,0.024,0.273
	h1.064v0.781h-1.064v4.448h-0.928v-4.448h-0.762v-0.781h0.762c0-0.667,0.165-1.191,0.493-1.572c0.329-0.381,0.764-0.571,1.304-0.571
	c0.271,0,0.561,0.049,0.869,0.146L402.139,131.284z M405.966,137.227c-0.371,0.466-0.938,0.698-1.704,0.698
	c-0.41,0-0.766-0.149-1.066-0.447c-0.302-0.298-0.452-0.668-0.452-1.11c0-0.53,0.232-0.979,0.696-1.346s1.055-0.549,1.774-0.549
	c0.195,0,0.417,0.042,0.664,0.127c0-0.847-0.378-1.27-1.133-1.27c-0.579,0-1.025,0.156-1.338,0.469l-0.391-0.776
	c0.176-0.144,0.419-0.267,0.73-0.369c0.311-0.103,0.607-0.153,0.891-0.153c0.759,0,1.31,0.173,1.653,0.518
	c0.343,0.345,0.515,0.894,0.515,1.646v1.875c0,0.459,0.137,0.765,0.41,0.918v0.464c-0.378,0-0.66-0.054-0.847-0.161
	C406.182,137.651,406.047,137.474,405.966,137.227z M405.878,135.259c-0.293-0.065-0.498-0.098-0.615-0.098
	c-0.469,0-0.851,0.12-1.147,0.361c-0.296,0.241-0.444,0.525-0.444,0.854c0,0.544,0.321,0.815,0.962,0.815
	c0.469,0,0.884-0.223,1.245-0.669V135.259z M412.208,133.022l-0.459,0.654c-0.095-0.095-0.261-0.184-0.5-0.269
	s-0.475-0.127-0.706-0.127c-0.505,0-0.905,0.177-1.201,0.529c-0.296,0.354-0.444,0.838-0.444,1.453c0,0.612,0.151,1.078,0.454,1.398
	c0.303,0.321,0.723,0.481,1.26,0.481c0.417,0,0.837-0.161,1.26-0.483l0.366,0.781c-0.498,0.322-1.115,0.483-1.851,0.483
	c-0.713,0-1.302-0.239-1.768-0.718s-0.698-1.126-0.698-1.943c0-0.833,0.242-1.502,0.726-2.007s1.145-0.757,1.984-0.757
	c0.271,0,0.563,0.057,0.879,0.171S412.058,132.902,412.208,133.022z M417.69,134.736c0,0.205-0.024,0.394-0.073,0.566h-3.77
	c0,0.612,0.168,1.082,0.503,1.411c0.296,0.286,0.677,0.43,1.143,0.43c0.53,0,0.974-0.154,1.328-0.464l0.391,0.669
	c-0.144,0.144-0.363,0.267-0.659,0.371c-0.371,0.137-0.784,0.205-1.24,0.205c-0.657,0-1.216-0.223-1.675-0.669
	c-0.511-0.491-0.767-1.152-0.767-1.982c0-0.862,0.262-1.555,0.786-2.075c0.469-0.466,1.023-0.698,1.665-0.698
	c0.745,0,1.33,0.21,1.753,0.63C417.485,133.533,417.69,134.069,417.69,134.736L417.69,134.736z M416.416,133.691
	c-0.257-0.273-0.607-0.41-1.05-0.41c-0.413,0-0.76,0.134-1.04,0.4c-0.267,0.254-0.418,0.569-0.454,0.947h2.896
	C416.767,134.255,416.65,133.942,416.416,133.691L416.416,133.691z M424.322,137.827v-4.448h-0.718v-0.781h1.646v5.229H424.322z
	 M424.83,130.62c0.159,0,0.295,0.056,0.407,0.168s0.169,0.247,0.169,0.403c0,0.159-0.057,0.295-0.169,0.407
	s-0.248,0.169-0.407,0.169c-0.156,0-0.291-0.057-0.403-0.169s-0.168-0.248-0.168-0.407s0.055-0.295,0.166-0.405
	C424.535,130.676,424.669,130.62,424.83,130.62z M427.933,137.925c-0.55,0-1.067-0.137-1.553-0.41l0.327-0.879
	c0.518,0.339,0.935,0.508,1.25,0.508c0.573,0,0.859-0.241,0.859-0.723c0-0.345-0.276-0.642-0.83-0.889
	c-0.427-0.195-0.714-0.344-0.861-0.444c-0.148-0.101-0.277-0.216-0.386-0.345c-0.109-0.128-0.19-0.265-0.244-0.41
	c-0.054-0.145-0.081-0.3-0.081-0.466c0-0.43,0.156-0.765,0.469-1.006s0.721-0.361,1.226-0.361c0.381,0,0.861,0.12,1.44,0.361
	l-0.264,0.859c-0.368-0.293-0.737-0.439-1.108-0.439c-0.222,0-0.407,0.052-0.559,0.156s-0.228,0.236-0.228,0.396
	c0,0.335,0.19,0.589,0.571,0.762l0.664,0.303c0.407,0.186,0.703,0.397,0.889,0.635s0.278,0.535,0.278,0.894
	c0,0.469-0.164,0.836-0.493,1.101C428.971,137.792,428.516,137.925,427.933,137.925L427.933,137.925z M437.847,137.925
	c-1.201,0-1.802-0.525-1.802-1.577v-5.894h0.928v5.737c0,0.28,0.08,0.5,0.242,0.661c0.16,0.161,0.371,0.242,0.632,0.242V137.925
	L437.847,137.925z M438.581,135.2c0-0.808,0.217-1.459,0.651-1.956c0.435-0.496,1.007-0.744,1.717-0.744
	c0.748,0,1.329,0.238,1.743,0.715c0.413,0.478,0.62,1.139,0.62,1.985c0,0.843-0.212,1.508-0.635,1.994
	c-0.424,0.487-1,0.73-1.729,0.73c-0.746,0-1.327-0.246-1.743-0.737C438.789,136.696,438.581,136.033,438.581,135.2z M439.557,135.2
	c0,1.312,0.464,1.968,1.392,1.968c0.433,0,0.772-0.176,1.018-0.527c0.246-0.352,0.369-0.832,0.369-1.44
	c0-1.296-0.463-1.943-1.387-1.943c-0.424,0-0.761,0.173-1.014,0.518C439.683,134.119,439.557,134.595,439.557,135.2z
	 M448.227,133.022l-0.459,0.654c-0.094-0.095-0.261-0.184-0.5-0.269s-0.475-0.127-0.706-0.127c-0.504,0-0.904,0.177-1.201,0.529
	c-0.296,0.354-0.444,0.838-0.444,1.453c0,0.612,0.151,1.078,0.454,1.398c0.303,0.321,0.723,0.481,1.26,0.481
	c0.417,0,0.837-0.161,1.26-0.483l0.366,0.781c-0.498,0.322-1.114,0.483-1.851,0.483c-0.713,0-1.302-0.239-1.768-0.718
	c-0.465-0.479-0.698-1.126-0.698-1.943c0-0.833,0.242-1.502,0.726-2.007s1.145-0.757,1.984-0.757c0.271,0,0.563,0.057,0.879,0.171
	C447.845,132.785,448.078,132.902,448.227,133.022z M452.186,137.227c-0.371,0.466-0.939,0.698-1.704,0.698
	c-0.41,0-0.766-0.149-1.066-0.447c-0.302-0.298-0.452-0.668-0.452-1.11c0-0.53,0.232-0.979,0.696-1.346s1.055-0.549,1.774-0.549
	c0.195,0,0.417,0.042,0.664,0.127c0-0.847-0.378-1.27-1.133-1.27c-0.579,0-1.025,0.156-1.338,0.469l-0.391-0.776
	c0.176-0.144,0.419-0.267,0.73-0.369c0.311-0.103,0.607-0.153,0.891-0.153c0.759,0,1.31,0.173,1.653,0.518
	c0.343,0.345,0.515,0.894,0.515,1.646v1.875c0,0.459,0.137,0.765,0.41,0.918v0.464c-0.378,0-0.66-0.054-0.847-0.161
	C452.402,137.651,452.267,137.474,452.186,137.227z M452.098,135.259c-0.293-0.065-0.498-0.098-0.615-0.098
	c-0.469,0-0.852,0.12-1.147,0.361s-0.444,0.525-0.444,0.854c0,0.544,0.32,0.815,0.962,0.815c0.469,0,0.884-0.223,1.245-0.669
	V135.259z M456.357,137.925c-1.201,0-1.802-0.525-1.802-1.577v-5.894h0.928v5.737c0,0.28,0.081,0.5,0.242,0.661
	s0.371,0.242,0.632,0.242V137.925L456.357,137.925z M459.307,137.925c-1.201,0-1.802-0.525-1.802-1.577v-5.894h0.928v5.737
	c0,0.28,0.08,0.5,0.241,0.661s0.372,0.242,0.633,0.242V137.925L459.307,137.925z M462.379,138.716
	c-0.121,0.332-0.374,0.608-0.76,0.83c-0.386,0.221-0.816,0.332-1.291,0.332v-0.83c0.387,0,0.719-0.091,0.996-0.271
	c0.276-0.181,0.415-0.4,0.415-0.661c0-0.286-0.051-0.569-0.151-0.848c-0.102-0.278-0.231-0.622-0.391-1.032l-1.416-3.638h0.947
	l1.538,4.043l1.382-4.043h0.947L462.379,138.716z M475.454,137.925c-0.573,0-0.984-0.119-1.233-0.356s-0.373-0.645-0.373-1.221
	v-4.795c-0.085-0.098-0.227-0.184-0.425-0.257s-0.398-0.109-0.601-0.109c-0.283,0-0.517,0.107-0.701,0.322
	c-0.184,0.215-0.275,0.486-0.275,0.815c0,0.088,0.008,0.179,0.024,0.273h0.918v0.781h-0.918v4.448h-0.928v-4.448h-0.762v-0.781
	h0.762c0-0.667,0.164-1.191,0.493-1.572s0.764-0.571,1.304-0.571c0.479,0,0.848,0.076,1.108,0.229v-0.132h0.928v5.64
	c0,0.603,0.227,0.903,0.679,0.903V137.925z M479.486,137.227c-0.371,0.466-0.939,0.698-1.704,0.698c-0.41,0-0.766-0.149-1.066-0.447
	c-0.302-0.298-0.452-0.668-0.452-1.11c0-0.53,0.232-0.979,0.696-1.346s1.055-0.549,1.774-0.549c0.195,0,0.417,0.042,0.664,0.127
	c0-0.847-0.378-1.27-1.133-1.27c-0.579,0-1.025,0.156-1.338,0.469l-0.391-0.776c0.176-0.144,0.419-0.267,0.73-0.369
	c0.311-0.103,0.607-0.153,0.891-0.153c0.759,0,1.31,0.173,1.653,0.518c0.343,0.345,0.515,0.894,0.515,1.646v1.875
	c0,0.459,0.137,0.765,0.41,0.918v0.464c-0.378,0-0.66-0.054-0.847-0.161C479.702,137.651,479.567,137.474,479.486,137.227z
	 M479.398,135.259c-0.293-0.065-0.498-0.098-0.615-0.098c-0.469,0-0.852,0.12-1.147,0.361s-0.444,0.525-0.444,0.854
	c0,0.544,0.32,0.815,0.962,0.815c0.469,0,0.884-0.223,1.245-0.669V135.259z M482.114,133.33h-0.605v-0.732h0.605v-1.094l0.928-0.356
	v1.45h1.436v0.732h-1.436v2.598c0,0.439,0.074,0.752,0.223,0.938c0.147,0.186,0.386,0.278,0.715,0.278
	c0.237,0,0.483-0.061,0.737-0.181l0.137,0.815c-0.384,0.098-0.806,0.146-1.265,0.146c-0.413,0-0.763-0.154-1.047-0.462
	c-0.285-0.308-0.428-0.695-0.428-1.164V133.33z"/>
<text transform="matrix(1 0 0 1 182.7432 149.8271)" fill="#231F20" font-family="'TrebuchetMS'" font-size="10">(planar).</text>
<text transform="matrix(1 0 0 1 11.333 171.1973)" fill="#231F20" font-family="'TrebuchetMS'" font-size="10">B.</text>
<text transform="matrix(1 0 0 1 58.4829 171.1973)" fill="#231F20" font-family="'TrebuchetMS'" font-size="10">zero</text>
<text transform="matrix(1 0 0 1 122.4229 171.1973)" fill="#231F20" font-family="'TrebuchetMS'" font-size="10">non-zero</text>
<text transform="matrix(1 0 0 1 182.7529 165.1973)"><tspan x="0" y="0" fill="#231F20" font-family="'TrebuchetMS'" font-size="10">If</tspan><tspan x="6.479" y="0" fill="#231F20" font-family="'TrebuchetMS'" font-size="10"> </tspan><tspan x="9.652" y="0" fill="#231F20" font-family="'TrebuchetMS'" font-size="10">one</tspan><tspan x="25.937" y="0" fill="#231F20" font-family="'TrebuchetMS'" font-size="10"> </tspan><tspan x="29.109" y="0" fill="#231F20" font-family="'TrebuchetMS'" font-size="10">of</tspan><tspan x="38.171" y="0" fill="#231F20" font-family="'TrebuchetMS'" font-size="10"> </tspan><tspan x="41.334" y="0" fill="#231F20" font-family="'TrebuchetMS'" font-size="10">the</tspan><tspan x="56.217" y="0" fill="#231F20" font-family="'TrebuchetMS'" font-size="10"> </tspan><tspan x="59.4" y="0" fill="#231F20" font-family="'TrebuchetMS'" font-size="10">principal</tspan><tspan x="98.75" y="0" fill="#231F20" font-family="'TrebuchetMS'" font-size="10"> </tspan><tspan x="101.933" y="0" fill="#231F20" font-family="'TrebuchetMS'" font-size="10">curvatures</tspan><tspan x="149.204" y="0" fill="#231F20" font-family="'TrebuchetMS'" font-size="10"> </tspan><tspan x="152.386" y="0" fill="#231F20" font-family="'TrebuchetMS'" font-size="10">is</tspan><tspan x="159.286" y="0" fill="#231F20" font-family="'TrebuchetMS'" font-size="10"> </tspan><tspan x="162.458" y="0" fill="#231F20" font-family="'TrebuchetMS'" font-size="10">zero,</tspan><tspan x="185.583" y="0" fill="#231F20" font-family="'TrebuchetMS'" font-size="10"> </tspan><tspan x="188.746" y="0" fill="#231F20" font-family="'TrebuchetMS'" font-size="10">the</tspan><tspan x="203.628" y="0" fill="#231F20" font-family="'TrebuchetMS'" font-size="10"> </tspan><tspan x="206.812" y="0" fill="#231F20" font-family="'TrebuchetMS'" font-size="10">product</tspan><tspan x="241.587" y="0" fill="#231F20" font-family="'TrebuchetMS'" font-size="10"> </tspan><tspan x="244.759" y="0" fill="#231F20" font-family="'TrebuchetMS'" font-size="10">of</tspan><tspan x="253.822" y="0" fill="#231F20" font-family="'TrebuchetMS'" font-size="10"> </tspan><tspan x="256.985" y="0" fill="#231F20" font-family="'TrebuchetMS'" font-size="10">both</tspan><tspan x="277.351" y="0" fill="#231F20" font-family="'TrebuchetMS'" font-size="10"> </tspan><tspan x="280.524" y="0" fill="#231F20" font-family="'TrebuchetMS'" font-size="10">must </tspan></text>
<text transform="matrix(1 0 0 1 182.7529 177.1973)" fill="#231F20" font-family="'TrebuchetMS'" font-size="10">also be zero. Hence, we&apos;ve got a cylindrical surface.</text>
<text transform="matrix(1 0 0 1 11.1729 198.5674)" fill="#231F20" font-family="'TrebuchetMS'" font-size="10">C.</text>
<text transform="matrix(1 0 0 1 50.7031 198.5674)" fill="#231F20" font-family="'TrebuchetMS'" font-size="10">positive</text>
<text transform="matrix(1 0 0 1 124.6328 198.5674)" fill="#231F20" font-family="'TrebuchetMS'" font-size="10">positive</text>
<text transform="matrix(1 0 0 1 182.7529 192.5674)"><tspan x="0" y="0" fill="#231F20" font-family="'TrebuchetMS'" font-size="10">If</tspan><tspan x="6.479" y="0" fill="#231F20" font-family="'TrebuchetMS'" font-size="10"> </tspan><tspan x="9.182" y="0" fill="#231F20" font-family="'TrebuchetMS'" font-size="10">both</tspan><tspan x="29.548" y="0" fill="#231F20" font-family="'TrebuchetMS'" font-size="10"> </tspan><tspan x="32.261" y="0" fill="#231F20" font-family="'TrebuchetMS'" font-size="10">principal</tspan><tspan x="71.612" y="0" fill="#231F20" font-family="'TrebuchetMS'" font-size="10"> </tspan><tspan x="74.314" y="0" fill="#231F20" font-family="'TrebuchetMS'" font-size="10">curvatures</tspan><tspan x="121.585" y="0" fill="#231F20" font-family="'TrebuchetMS'" font-size="10"> </tspan><tspan x="124.297" y="0" fill="#231F20" font-family="'TrebuchetMS'" font-size="10">have</tspan><tspan x="145.367" y="0" fill="#231F20" font-family="'TrebuchetMS'" font-size="10"> </tspan><tspan x="148.08" y="0" fill="#231F20" font-family="'TrebuchetMS'" font-size="10">the</tspan><tspan x="162.962" y="0" fill="#231F20" font-family="'TrebuchetMS'" font-size="10"> </tspan><tspan x="165.685" y="0" fill="#231F20" font-family="'TrebuchetMS'" font-size="10">same</tspan><tspan x="188.742" y="0" fill="#231F20" font-family="'TrebuchetMS'" font-size="10"> </tspan><tspan x="191.455" y="0" fill="#231F20" font-family="'TrebuchetMS'" font-size="10">sign,</tspan><tspan x="212.509" y="0" fill="#231F20" font-family="'TrebuchetMS'" font-size="10"> </tspan><tspan x="215.222" y="0" fill="#231F20" font-family="'TrebuchetMS'" font-size="10">the</tspan><tspan x="230.105" y="0" fill="#231F20" font-family="'TrebuchetMS'" font-size="10"> </tspan><tspan x="232.828" y="0" fill="#231F20" font-family="'TrebuchetMS'" font-size="10">product</tspan><tspan x="267.603" y="0" fill="#231F20" font-family="'TrebuchetMS'" font-size="10"> </tspan><tspan x="270.316" y="0" fill="#231F20" font-family="'TrebuchetMS'" font-size="10">of</tspan><tspan x="279.378" y="0" fill="#231F20" font-family="'TrebuchetMS'" font-size="10"> </tspan><tspan x="282.071" y="0" fill="#231F20" font-family="'TrebuchetMS'" font-size="10">both </tspan></text>
<text transform="matrix(1 0 0 1 182.7529 204.5674)" fill="#231F20" font-family="'TrebuchetMS'" font-size="10">must be positive and we have a spherical (synclastic) surface.</text>
<text transform="matrix(1 0 0 1 11.103 225.9375)" fill="#231F20" font-family="'TrebuchetMS'" font-size="10">D.</text>
<text transform="matrix(1 0 0 1 50.7129 225.9375)" fill="#231F20" font-family="'TrebuchetMS'" font-size="10">positive</text>
<text transform="matrix(1 0 0 1 122.9629 225.9375)" fill="#231F20" font-family="'TrebuchetMS'" font-size="10">negative</text>
<text transform="matrix(1 0 0 1 182.7627 219.9375)"><tspan x="0" y="0" fill="#231F20" font-family="'TrebuchetMS'" font-size="10">If</tspan><tspan x="6.479" y="0" fill="#231F20" font-family="'TrebuchetMS'" font-size="10"> </tspan><tspan x="9.462" y="0" fill="#231F20" font-family="'TrebuchetMS'" font-size="10">the</tspan><tspan x="24.345" y="0" fill="#231F20" font-family="'TrebuchetMS'" font-size="10"> </tspan><tspan x="27.338" y="0" fill="#231F20" font-family="'TrebuchetMS'" font-size="10">principa</tspan><tspan x="63.739" y="0" fill="#231F20" font-family="'TrebuchetMS'" font-size="10">l</tspan><tspan x="66.699" y="0" fill="#231F20" font-family="'TrebuchetMS'" font-size="10"> </tspan><tspan x="69.691" y="0" fill="#231F20" font-family="'TrebuchetMS'" font-size="10">curvatures</tspan><tspan x="116.961" y="0" fill="#231F20" font-family="'TrebuchetMS'" font-size="10"> </tspan><tspan x="119.955" y="0" fill="#231F20" font-family="'TrebuchetMS'" font-size="10">have</tspan><tspan x="141.023" y="0" fill="#231F20" font-family="'TrebuchetMS'" font-size="10"> </tspan><tspan x="144.016" y="0" fill="#231F20" font-family="'TrebuchetMS'" font-size="10">opposing</tspan><tspan x="183.274" y="0" fill="#231F20" font-family="'TrebuchetMS'" font-size="10"> </tspan><tspan x="186.257" y="0" fill="#231F20" font-family="'TrebuchetMS'" font-size="10">signs,</tspan><tspan x="211.359" y="0" fill="#231F20" font-family="'TrebuchetMS'" font-size="10"> </tspan><tspan x="214.352" y="0" fill="#231F20" font-family="'TrebuchetMS'" font-size="10">the</tspan><tspan x="229.235" y="0" fill="#231F20" font-family="'TrebuchetMS'" font-size="10"> </tspan><tspan x="232.238" y="0" fill="#231F20" font-family="'TrebuchetMS'" font-size="10">product</tspan><tspan x="267.013" y="0" fill="#231F20" font-family="'TrebuchetMS'" font-size="10"> </tspan><tspan x="270.005" y="0" fill="#231F20" font-family="'TrebuchetMS'" font-size="10">of</tspan><tspan x="279.068" y="0" fill="#231F20" font-family="'TrebuchetMS'" font-size="10"> </tspan><tspan x="282.05" y="0" fill="#231F20" font-family="'TrebuchetMS'" font-size="10">both </tspan></text>
<text transform="matrix(1 0 0 1 182.7627 231.9375)" fill="#231F20" font-family="'TrebuchetMS'" font-size="10">must be negative and we have a hyperbolic surface (anticlastic).</text>
<path fill="#231F20" d="M481.55,245.701H8.75c-8.65,0-8.75-8.662-8.75-8.75V119.334c0-8.65,8.663-8.75,8.75-8.75h472.8
	c8.65,0,8.75,8.662,8.75,8.75v117.617C490.3,245.602,481.638,245.701,481.55,245.701L481.55,245.701z M8.75,112.084
	c-0.294,0.001-7.25,0.111-7.25,7.25v117.617c0.001,0.295,0.111,7.25,7.25,7.25h472.8h-0.002c0.297-0.001,7.252-0.111,7.252-7.25
	V119.334c-0.001-0.295-0.111-7.25-7.25-7.25H8.75L8.75,112.084z"/>
</svg>
