<?xml version="1.0" encoding="utf-8"?>
<!-- Generator: Adobe Illustrator 14.0.0, SVG Export Plug-In . SVG Version: 6.00 Build 43363)  -->
<!DOCTYPE svg PUBLIC "-//W3C//DTD SVG 1.0//EN" "http://www.w3.org/TR/2001/REC-SVG-20010904/DTD/svg10.dtd">
<svg version="1.0" xmlns="http://www.w3.org/2000/svg" xmlns:xlink="http://www.w3.org/1999/xlink" x="0px" y="0px" width="56.69px"
	 height="56.695px" viewBox="0 0 56.69 56.695" enable-background="new 0 0 56.69 56.695" xml:space="preserve">
<g id="Grids">
	<g>
		
			<line fill-rule="evenodd" clip-rule="evenodd" fill="none" stroke="#D4D4D4" stroke-width="0.27" x1="4.93" y1="0" x2="4.93" y2="56.69"/>
		
			<line fill-rule="evenodd" clip-rule="evenodd" fill="none" stroke="#D4D4D4" stroke-width="0.27" x1="9.609" y1="0" x2="9.609" y2="56.69"/>
		
			<line fill-rule="evenodd" clip-rule="evenodd" fill="none" stroke="#D4D4D4" stroke-width="0.27" x1="18.979" y1="0" x2="18.979" y2="56.69"/>
		
			<line fill-rule="evenodd" clip-rule="evenodd" fill="none" stroke="#D4D4D4" stroke-width="0.27" x1="23.66" y1="0" x2="23.66" y2="56.69"/>
		
			<line fill-rule="evenodd" clip-rule="evenodd" fill="none" stroke="#D4D4D4" stroke-width="0.27" x1="33.03" y1="0" x2="33.03" y2="56.69"/>
		
			<line fill-rule="evenodd" clip-rule="evenodd" fill="none" stroke="#D4D4D4" stroke-width="0.27" x1="37.71" y1="0" x2="37.71" y2="56.69"/>
		
			<line fill-rule="evenodd" clip-rule="evenodd" fill="none" stroke="#D4D4D4" stroke-width="0.27" x1="47.08" y1="0" x2="47.08" y2="56.69"/>
		
			<line fill-rule="evenodd" clip-rule="evenodd" fill="none" stroke="#D4D4D4" stroke-width="0.27" x1="51.76" y1="0" x2="51.76" y2="56.69"/>
		
			<line fill-rule="evenodd" clip-rule="evenodd" fill="none" stroke="#D4D4D4" stroke-width="0.27" x1="56.69" y1="4.93" x2="0" y2="4.93"/>
		
			<line fill-rule="evenodd" clip-rule="evenodd" fill="none" stroke="#D4D4D4" stroke-width="0.27" x1="56.69" y1="9.62" x2="0" y2="9.62"/>
		
			<line fill-rule="evenodd" clip-rule="evenodd" fill="none" stroke="#D4D4D4" stroke-width="0.27" x1="56.69" y1="18.98" x2="0" y2="18.98"/>
		
			<line fill-rule="evenodd" clip-rule="evenodd" fill="none" stroke="#D4D4D4" stroke-width="0.27" x1="56.69" y1="23.66" x2="0" y2="23.66"/>
		
			<line fill-rule="evenodd" clip-rule="evenodd" fill="none" stroke="#D4D4D4" stroke-width="0.27" x1="56.69" y1="33.03" x2="0" y2="33.03"/>
		
			<line fill-rule="evenodd" clip-rule="evenodd" fill="none" stroke="#D4D4D4" stroke-width="0.27" x1="56.69" y1="37.71" x2="0" y2="37.71"/>
		
			<line fill-rule="evenodd" clip-rule="evenodd" fill="none" stroke="#D4D4D4" stroke-width="0.27" x1="56.69" y1="47.08" x2="0" y2="47.08"/>
		
			<line fill-rule="evenodd" clip-rule="evenodd" fill="none" stroke="#D4D4D4" stroke-width="0.27" x1="56.69" y1="51.76" x2="0" y2="51.76"/>
		
			<line fill-rule="evenodd" clip-rule="evenodd" fill="none" stroke="#8A8A8A" stroke-width="0.27" x1="14.3" y1="0" x2="14.3" y2="56.69"/>
		
			<line fill-rule="evenodd" clip-rule="evenodd" fill="none" stroke="#8A8A8A" stroke-width="0.27" x1="0.14" y1="0" x2="0.14" y2="56.69"/>
		
			<line fill-rule="evenodd" clip-rule="evenodd" fill="none" stroke="#8A8A8A" stroke-width="0.27" x1="28.351" y1="28.35" x2="28.351" y2="56.69"/>
		
			<line fill-rule="evenodd" clip-rule="evenodd" fill="none" stroke="#8A8A8A" stroke-width="0.27" x1="42.39" y1="0" x2="42.39" y2="56.69"/>
		
			<line fill-rule="evenodd" clip-rule="evenodd" fill="none" stroke="#8A8A8A" stroke-width="0.27" x1="56.55" y1="0" x2="56.55" y2="56.69"/>
		
			<line fill-rule="evenodd" clip-rule="evenodd" fill="none" stroke="#8A8A8A" stroke-width="0.27" x1="28.351" y1="28.35" x2="0" y2="28.35"/>
		
			<line fill-rule="evenodd" clip-rule="evenodd" fill="none" stroke="#8A8A8A" stroke-width="0.27" x1="56.69" y1="14.3" x2="0" y2="14.3"/>
		
			<line fill-rule="evenodd" clip-rule="evenodd" fill="none" stroke="#8A8A8A" stroke-width="0.27" x1="56.69" y1="0.14" x2="0" y2="0.14"/>
		
			<line fill-rule="evenodd" clip-rule="evenodd" fill="none" stroke="#8A8A8A" stroke-width="0.27" x1="56.69" y1="42.39" x2="0" y2="42.39"/>
		
			<line fill-rule="evenodd" clip-rule="evenodd" fill="none" stroke="#8A8A8A" stroke-width="0.27" x1="56.69" y1="56.561" x2="0" y2="56.561"/>
		<line fill-rule="evenodd" clip-rule="evenodd" fill="none" stroke="#A80000" x1="56.69" y1="28.35" x2="28.34" y2="28.35"/>
		<line fill-rule="evenodd" clip-rule="evenodd" fill="none" stroke="#12AB00" x1="28.351" y1="0" x2="28.351" y2="28.35"/>
	</g>
</g>
<g id="Text">
	<path fill-rule="evenodd" clip-rule="evenodd" d="M22.71,17.09l-0.34,1.12c0.359-0.42,0.67-0.71,0.949-0.87
		c0.281-0.17,0.561-0.25,0.851-0.25s0.54,0.109,0.75,0.34c0.2,0.23,0.301,0.53,0.301,0.9c0,0.71-0.291,1.439-0.87,2.18
		c-0.58,0.74-1.261,1.11-2.041,1.11c-0.159,0-0.3-0.01-0.43-0.051c-0.12-0.039-0.26-0.1-0.42-0.189l-0.359,1.26
		C21.03,22.89,21,23.05,21,23.12s0.01,0.14,0.05,0.19c0.04,0.05,0.101,0.089,0.18,0.109c0.09,0.029,0.261,0.04,0.511,0.05
		l-0.05,0.18H19.39l0.051-0.18c0.31-0.021,0.51-0.07,0.619-0.159c0.101-0.091,0.211-0.341,0.33-0.761l1.23-4.28
		c0.08-0.27,0.12-0.43,0.12-0.5c0-0.09-0.03-0.149-0.08-0.2c-0.051-0.05-0.13-0.079-0.23-0.079c-0.09,0-0.229,0.01-0.399,0.04v-0.19
		L22.71,17.09z M21.569,20.99c0.201,0.25,0.471,0.37,0.82,0.37c0.17,0,0.34-0.05,0.511-0.15c0.18-0.09,0.35-0.229,0.52-0.42
		c0.17-0.18,0.32-0.4,0.45-0.641c0.13-0.239,0.25-0.529,0.359-0.85c0.11-0.33,0.16-0.66,0.16-0.98c0-0.259-0.06-0.459-0.18-0.6
		c-0.12-0.14-0.26-0.21-0.42-0.21c-0.35,0-0.7,0.2-1.04,0.61c-0.34,0.399-0.59,0.87-0.75,1.41L21.569,20.99z"/>
	<path fill-rule="evenodd" clip-rule="evenodd" d="M23.569,14.75c0.24,0,0.44,0.08,0.601,0.24c0.16,0.159,0.24,0.35,0.24,0.579
		c0,0.23-0.08,0.431-0.25,0.591c-0.16,0.159-0.36,0.239-0.591,0.239c-0.229,0-0.419-0.08-0.579-0.239
		c-0.16-0.16-0.24-0.36-0.24-0.591c0-0.229,0.08-0.42,0.24-0.579C23.15,14.83,23.34,14.75,23.569,14.75z"/>
	<path fill-rule="evenodd" clip-rule="evenodd" d="M2.94,31.61L4.63,31.34l-0.7,2.37c0.57-0.97,1.08-1.649,1.55-2.04
		c0.261-0.221,0.48-0.33,0.641-0.33c0.109,0,0.199,0.03,0.26,0.09c0.061,0.07,0.091,0.16,0.091,0.28c0,0.21-0.061,0.42-0.171,0.609
		c-0.07,0.15-0.19,0.221-0.329,0.221c-0.081,0-0.141-0.021-0.2-0.07c-0.05-0.05-0.08-0.12-0.101-0.22c0-0.07-0.02-0.11-0.04-0.13
		c-0.029-0.021-0.061-0.03-0.09-0.03c-0.061,0-0.11,0.01-0.16,0.03C5.3,32.17,5.17,32.3,5,32.51c-0.279,0.31-0.57,0.73-0.88,1.24
		c-0.141,0.21-0.261,0.449-0.36,0.72c-0.13,0.37-0.21,0.6-0.229,0.67l-0.16,0.62H2.63l0.9-3.04c0.1-0.35,0.16-0.6,0.16-0.75
		c0-0.06-0.03-0.1-0.081-0.14c-0.06-0.061-0.149-0.08-0.259-0.08c-0.061,0-0.19,0.01-0.371,0.04L2.94,31.61z"/>
	<path fill-rule="evenodd" clip-rule="evenodd" d="M4.819,28.85c0.24,0,0.44,0.08,0.601,0.24s0.24,0.351,0.24,0.58
		s-0.08,0.43-0.25,0.59c-0.16,0.16-0.36,0.24-0.591,0.24c-0.229,0-0.419-0.08-0.579-0.24S4,29.899,4,29.67s0.08-0.42,0.24-0.58
		S4.59,28.85,4.819,28.85z"/>
	<path fill-rule="evenodd" clip-rule="evenodd" d="M33.91,8.319l1.409-0.31c0.101,0.24,0.19,0.49,0.25,0.74
		c0.081,0.37,0.16,0.8,0.211,1.311c0.029,0.25,0.06,0.789,0.109,1.609c0.41-0.45,0.65-0.729,0.73-0.83
		c0.43-0.59,0.67-0.93,0.739-1.029c0.111-0.171,0.181-0.32,0.221-0.45c0.04-0.101,0.06-0.19,0.06-0.28s-0.08-0.181-0.229-0.3
		c-0.15-0.11-0.23-0.23-0.23-0.37c0-0.1,0.041-0.19,0.13-0.271c0.08-0.09,0.181-0.13,0.291-0.13c0.14,0,0.259,0.06,0.359,0.17
		c0.109,0.11,0.16,0.25,0.16,0.42s-0.03,0.32-0.08,0.48c-0.08,0.239-0.24,0.55-0.471,0.9c-0.229,0.359-0.599,0.839-1.119,1.439
		c-0.061,0.07-0.43,0.45-1.08,1.13h-0.18c-0.081-2.06-0.24-3.351-0.49-3.859c-0.08-0.16-0.221-0.25-0.41-0.25
		c-0.08,0-0.189,0.02-0.34,0.05L33.91,8.319z"/>
	<polygon fill-rule="evenodd" clip-rule="evenodd" points="37.16,7.19 37.319,6.71 33.81,6.71 33.81,6.46 37.319,6.46 37.16,5.99 
		38.96,6.59 	"/>
</g>
<g id="Vectors">
	<polygon fill-rule="evenodd" clip-rule="evenodd" points="28.49,19.79 27.88,19 43.569,7.04 42.7,6.449 47.18,4.92 44.521,8.83 
		44.18,7.84 	"/>
</g>
<g id="Other">
	<path fill-rule="evenodd" clip-rule="evenodd" fill="#FFFFFF" stroke="#000000" d="M11.729,33.05c0,1.09-0.879,1.97-1.97,1.97
		c-1.09,0-1.97-0.88-1.97-1.97c0-1.08,0.88-1.96,1.97-1.96C10.851,31.09,11.729,31.97,11.729,33.05z"/>
	<path fill-rule="evenodd" clip-rule="evenodd" fill="#FFFFFF" stroke="#000000" d="M30.3,19.41c0,1.08-0.88,1.96-1.96,1.96
		c-1.09,0-1.97-0.88-1.97-1.96c0-1.091,0.88-1.97,1.97-1.97C29.42,17.44,30.3,18.319,30.3,19.41z"/>
</g>
</svg>
