<?xml version="1.0" encoding="utf-8"?>
<!-- Generator: Adobe Illustrator 14.0.0, SVG Export Plug-In . SVG Version: 6.00 Build 43363)  -->
<!DOCTYPE svg PUBLIC "-//W3C//DTD SVG 1.0//EN" "http://www.w3.org/TR/2001/REC-SVG-20010904/DTD/svg10.dtd">
<svg version="1.0" id="Layer_1" xmlns="http://www.w3.org/2000/svg" xmlns:xlink="http://www.w3.org/1999/xlink" x="0px" y="0px"
	 width="317.46px" height="44.685px" viewBox="0 0 317.46 44.685" enable-background="new 0 0 317.46 44.685" xml:space="preserve">
<rect x="77.92" y="38.91" fill-rule="evenodd" clip-rule="evenodd" fill="#91FF1C" stroke="#000000" stroke-width="0.75" width="128.44" height="5.4"/>
<line fill-rule="evenodd" clip-rule="evenodd" fill="none" stroke="#000000" stroke-width="0.5" stroke-linejoin="bevel" stroke-dasharray="1,1" x1="206.36" y1="38.91" x2="206.36" y2="7.91"/>
<path fill-rule="evenodd" clip-rule="evenodd" d="M2.54,6.64c0.78,0,1.42,0.63,1.42,1.41c0,0.79-0.64,1.42-1.42,1.42
	c-0.78,0-1.42-0.63-1.42-1.42C1.12,7.27,1.76,6.64,2.54,6.64z"/>
<line fill-rule="evenodd" clip-rule="evenodd" fill="none" stroke="#000000" stroke-linejoin="bevel" stroke-dasharray="2.99,2.99" x1="2.54" y1="8.05" x2="59.41" y2="8.05"/>
<line fill-rule="evenodd" clip-rule="evenodd" fill="none" stroke="#000000" stroke-linejoin="bevel" x1="59.41" y1="8.05" x2="257.92" y2="8.05"/>
<line fill-rule="evenodd" clip-rule="evenodd" fill="none" stroke="#000000" stroke-linejoin="bevel" stroke-dasharray="2.99,2.99" x1="257.92" y1="8.05" x2="314.351" y2="8.05"/>
<path fill-rule="evenodd" clip-rule="evenodd" d="M314.36,6.64c0.779,0,1.409,0.63,1.409,1.41c0,0.79-0.63,1.42-1.409,1.42
	c-0.79,0-1.42-0.63-1.42-1.42C312.94,7.27,313.57,6.64,314.36,6.64z"/>
<g>
	<g>
		<path fill-rule="evenodd" clip-rule="evenodd" d="M160.28,3.02c0,1.05-0.149,1.81-0.46,2.3c-0.301,0.49-0.771,0.74-1.4,0.74
			c-0.64,0-1.11-0.25-1.41-0.75c-0.3-0.5-0.45-1.26-0.45-2.28c0-1.05,0.15-1.81,0.46-2.3c0.3-0.49,0.77-0.73,1.4-0.73
			c0.64,0,1.11,0.25,1.41,0.75C160.131,1.26,160.28,2.01,160.28,3.02z M159.28,4.8c0.08-0.2,0.13-0.44,0.16-0.73
			c0.029-0.3,0.05-0.64,0.05-1.05c0-0.39-0.021-0.74-0.05-1.03c-0.03-0.3-0.09-0.54-0.16-0.74c-0.08-0.2-0.19-0.35-0.33-0.45
			c-0.13-0.1-0.31-0.15-0.53-0.15c-0.22,0-0.39,0.05-0.53,0.15s-0.25,0.26-0.33,0.46c-0.08,0.2-0.13,0.45-0.16,0.75
			c-0.03,0.3-0.05,0.64-0.05,1.02c0,0.41,0.02,0.75,0.04,1.02c0.03,0.27,0.08,0.52,0.16,0.74c0.08,0.2,0.19,0.35,0.33,0.46
			c0.13,0.11,0.32,0.16,0.54,0.16c0.22,0,0.39-0.05,0.53-0.15C159.09,5.15,159.2,5,159.28,4.8z"/>
	</g>
</g>
<g>
	<g>
		<rect y="3.11" fill-rule="evenodd" clip-rule="evenodd" width="2.16" height="0.71"/>
	</g>
</g>
<g>
	<g>
		<path fill-rule="evenodd" clip-rule="evenodd" d="M9.19,4.57c0.33,0,0.6-0.11,0.82-0.33c0.21-0.22,0.32-0.52,0.32-0.91
			c0-0.35-0.1-0.64-0.29-0.87c-0.2-0.23-0.46-0.34-0.79-0.34c-0.24,0-0.45,0.06-0.61,0.17C8.47,2.41,8.32,2.58,8.19,2.81
			c-0.06,0.1-0.13,0.26-0.23,0.47c-0.1,0.2-0.17,0.39-0.23,0.56C7.95,4.12,8.17,4.31,8.4,4.42C8.63,4.52,8.89,4.57,9.19,4.57z
			 M5.55,4.7c0.3,0,0.53-0.06,0.71-0.17C6.44,4.41,6.62,4.18,6.8,3.85C6.86,3.74,6.93,3.59,7,3.41c0.07-0.19,0.15-0.39,0.25-0.63
			c-0.18-0.27-0.4-0.47-0.66-0.62c-0.26-0.14-0.56-0.21-0.9-0.21c-0.44,0-0.8,0.13-1.08,0.4c-0.29,0.26-0.43,0.6-0.43,1
			c0,0.41,0.12,0.74,0.36,0.98C4.79,4.58,5.12,4.7,5.55,4.7z M3.45,3.34c0-0.36,0.05-0.69,0.16-0.99c0.11-0.3,0.26-0.55,0.46-0.76
			c0.2-0.2,0.43-0.36,0.7-0.46c0.27-0.11,0.55-0.16,0.85-0.16c0.39,0,0.76,0.1,1.09,0.31C7.04,1.49,7.3,1.8,7.5,2.2h0.03
			c0.2-0.36,0.43-0.62,0.68-0.8c0.25-0.17,0.56-0.26,0.93-0.26c0.54,0,1,0.21,1.36,0.62c0.37,0.42,0.55,0.94,0.55,1.58
			c0,0.66-0.17,1.19-0.52,1.59C10.18,5.32,9.74,5.52,9.2,5.52c-0.33,0-0.65-0.09-0.97-0.28C7.91,5.05,7.67,4.77,7.49,4.42H7.46
			c-0.2,0.42-0.44,0.74-0.73,0.96C6.45,5.6,6.09,5.7,5.64,5.7c-0.62,0-1.14-0.22-1.56-0.67C3.66,4.58,3.45,4.01,3.45,3.34z"/>
	</g>
</g>
<g>
	<g>
		<polygon fill-rule="evenodd" clip-rule="evenodd" points="306.58,5.43 306.58,3.86 305.03,3.86 305.03,3.21 306.58,3.21 
			306.58,1.65 307.25,1.65 307.25,3.21 308.811,3.21 308.811,3.86 307.25,3.86 307.25,5.43 		"/>
	</g>
</g>
<g>
	<g>
		<path fill-rule="evenodd" clip-rule="evenodd" d="M315.601,4.57c0.319,0,0.6-0.11,0.81-0.33c0.221-0.22,0.33-0.52,0.33-0.91
			c0-0.35-0.101-0.64-0.29-0.87c-0.2-0.23-0.46-0.34-0.79-0.34c-0.24,0-0.45,0.06-0.61,0.17c-0.169,0.12-0.32,0.29-0.449,0.52
			c-0.061,0.1-0.131,0.26-0.23,0.47c-0.101,0.2-0.18,0.39-0.23,0.56c0.221,0.28,0.44,0.47,0.671,0.58
			C315.04,4.52,315.3,4.57,315.601,4.57z M311.96,4.7c0.301,0,0.53-0.06,0.71-0.17c0.17-0.12,0.35-0.35,0.54-0.68
			c0.06-0.11,0.12-0.26,0.2-0.44c0.069-0.19,0.15-0.39,0.25-0.63c-0.181-0.27-0.399-0.47-0.66-0.62c-0.26-0.14-0.56-0.21-0.899-0.21
			c-0.44,0-0.801,0.13-1.09,0.4c-0.281,0.26-0.431,0.6-0.431,1c0,0.41,0.13,0.74,0.37,0.98C311.2,4.58,311.53,4.7,311.96,4.7z
			 M309.86,3.34c0-0.36,0.05-0.69,0.159-0.99c0.101-0.3,0.261-0.55,0.46-0.76c0.201-0.2,0.431-0.36,0.701-0.46
			c0.27-0.11,0.549-0.16,0.85-0.16c0.39,0,0.75,0.1,1.09,0.31c0.33,0.21,0.59,0.52,0.78,0.92h0.03c0.209-0.36,0.439-0.62,0.689-0.8
			c0.24-0.17,0.55-0.26,0.92-0.26c0.55,0,1.01,0.21,1.37,0.62c0.37,0.42,0.55,0.94,0.55,1.58c0,0.66-0.17,1.19-0.52,1.59
			c-0.351,0.39-0.79,0.59-1.33,0.59c-0.33,0-0.65-0.09-0.971-0.28c-0.319-0.19-0.569-0.47-0.75-0.82h-0.029
			c-0.19,0.42-0.43,0.74-0.721,0.96c-0.279,0.22-0.649,0.32-1.09,0.32c-0.619,0-1.14-0.22-1.56-0.67
			C310.07,4.58,309.86,4.01,309.86,3.34z"/>
	</g>
</g>
<rect x="170.86" y="18.2" fill-rule="evenodd" clip-rule="evenodd" fill="#29FF8C" stroke="#000000" stroke-width="0.75" width="73.09" height="5.4"/>
<line fill-rule="evenodd" clip-rule="evenodd" fill="none" stroke="#000000" stroke-width="0.5" stroke-linejoin="bevel" stroke-dasharray="1,1" x1="243.95" y1="18.2" x2="243.95" y2="8.45"/>
<line fill-rule="evenodd" clip-rule="evenodd" fill="none" stroke="#000000" stroke-width="0.5" stroke-linejoin="bevel" stroke-dasharray="1,1" x1="170.86" y1="18.2" x2="170.86" y2="8.45"/>
<line fill-rule="evenodd" clip-rule="evenodd" fill="none" stroke="#000000" stroke-width="0.5" stroke-linejoin="bevel" stroke-dasharray="1,1" x1="77.92" y1="38.91" x2="77.92" y2="7.42"/>
<g>
	<g>
		<path fill-rule="evenodd" clip-rule="evenodd" d="M171.83,4.16h-2.05L169.42,5c-0.09,0.2-0.13,0.36-0.13,0.46
			c0,0.08,0.03,0.15,0.11,0.21s0.239,0.1,0.5,0.12v0.14h-1.67V5.79c0.22-0.04,0.37-0.09,0.43-0.15c0.13-0.13,0.28-0.38,0.44-0.76
			l1.869-4.36h0.131l1.85,4.4c0.14,0.36,0.28,0.59,0.4,0.69c0.119,0.11,0.289,0.17,0.51,0.18v0.14h-2.091V5.79
			c0.211-0.01,0.351-0.05,0.421-0.11c0.079-0.06,0.12-0.13,0.12-0.21c0-0.12-0.061-0.3-0.16-0.55L171.83,4.16z M171.72,3.87
			l-0.899-2.14l-0.92,2.14H171.72z"/>
	</g>
</g>
<g>
	<g>
		<path fill-rule="evenodd" clip-rule="evenodd" d="M204.04,5.93V5.79h0.2c0.22,0,0.38-0.07,0.47-0.22
			c0.06-0.08,0.09-0.27,0.09-0.57V1.58c0-0.34-0.039-0.54-0.109-0.63c-0.101-0.11-0.25-0.17-0.45-0.17h-0.2V0.64h2.15
			c0.8,0,1.399,0.09,1.81,0.27c0.41,0.18,0.75,0.48,1,0.9c0.25,0.41,0.37,0.9,0.37,1.45c0,0.74-0.22,1.35-0.67,1.85
			c-0.5,0.55-1.27,0.82-2.29,0.82H204.04z M205.55,5.55c0.331,0.07,0.61,0.11,0.831,0.11c0.609,0,1.109-0.21,1.509-0.64
			c0.391-0.42,0.591-1,0.591-1.72c0-0.73-0.2-1.31-0.591-1.73c-0.399-0.42-0.909-0.64-1.54-0.64c-0.229,0-0.5,0.04-0.8,0.12V5.55z"
			/>
	</g>
</g>
<g>
	<g>
		<path fill-rule="evenodd" clip-rule="evenodd" d="M245.19,3.23c0.37,0.08,0.64,0.2,0.829,0.38c0.25,0.24,0.381,0.53,0.381,0.87
			c0,0.27-0.09,0.52-0.25,0.76c-0.171,0.24-0.4,0.42-0.69,0.53c-0.29,0.11-0.73,0.16-1.329,0.16h-2.5V5.79h0.199
			c0.22,0,0.38-0.07,0.48-0.21c0.06-0.09,0.09-0.29,0.09-0.58V1.58c0-0.33-0.04-0.54-0.12-0.63c-0.1-0.11-0.25-0.17-0.45-0.17
			h-0.199V0.64h2.289c0.431,0,0.771,0.03,1.03,0.09c0.39,0.1,0.689,0.26,0.89,0.5c0.21,0.24,0.311,0.51,0.311,0.82
			c0,0.27-0.08,0.5-0.24,0.71S245.511,3.13,245.19,3.23z M243.15,3.02c0.09,0.02,0.2,0.03,0.329,0.04
			c0.121,0.01,0.261,0.01,0.401,0.01c0.38,0,0.669-0.04,0.859-0.12c0.19-0.08,0.34-0.21,0.44-0.37c0.1-0.17,0.149-0.36,0.149-0.56
			c0-0.31-0.12-0.57-0.38-0.79c-0.25-0.22-0.62-0.33-1.1-0.33c-0.261,0-0.5,0.03-0.7,0.09V3.02z M243.15,5.55
			c0.3,0.07,0.6,0.11,0.89,0.11c0.471,0,0.83-0.11,1.08-0.32s0.37-0.48,0.37-0.79c0-0.2-0.06-0.4-0.17-0.59s-0.29-0.34-0.551-0.45
			c-0.25-0.11-0.56-0.17-0.93-0.17c-0.159,0-0.3,0.01-0.42,0.01c-0.109,0.01-0.2,0.02-0.27,0.03V5.55z"/>
	</g>
</g>
<g>
	<g>
		<path fill-rule="evenodd" clip-rule="evenodd" d="M79.98,0.52l0.12,1.8h-0.12c-0.16-0.54-0.39-0.93-0.69-1.17
			c-0.3-0.23-0.66-0.35-1.08-0.35c-0.35,0-0.67,0.09-0.95,0.27c-0.28,0.17-0.51,0.46-0.67,0.85c-0.16,0.39-0.24,0.88-0.24,1.46
			c0,0.47,0.07,0.89,0.23,1.24c0.15,0.35,0.38,0.62,0.69,0.81c0.31,0.19,0.66,0.28,1.06,0.28c0.34,0,0.64-0.07,0.91-0.22
			c0.26-0.15,0.55-0.44,0.86-0.88l0.13,0.08c-0.27,0.47-0.58,0.82-0.93,1.04c-0.36,0.22-0.78,0.33-1.27,0.33
			c-0.87,0-1.55-0.33-2.03-0.98c-0.36-0.49-0.54-1.06-0.54-1.71c0-0.53,0.11-1.02,0.35-1.46c0.24-0.44,0.56-0.78,0.98-1.03
			c0.42-0.24,0.87-0.36,1.36-0.36c0.38,0,0.76,0.09,1.13,0.28c0.11,0.06,0.19,0.08,0.24,0.08c0.07,0,0.13-0.02,0.18-0.07
			c0.07-0.07,0.12-0.17,0.15-0.29H79.98z"/>
	</g>
</g>
<path fill-rule="evenodd" clip-rule="evenodd" d="M78.43,38.29l0.48-2.819l0.64,0.42l0.51-0.71c6.97-8.53,29.54-6.88,49.72-5.47
	c22.01,1.539,40.71,2.689,40.71-6.11h0.75c0,10.06-21.14,8.29-41.51,6.86c-20.94-1.471-42.49-2.88-49.07,5.17l-0.48,0.659l0.62,0.4
	L78.43,38.29z"/>
<path fill-rule="evenodd" clip-rule="evenodd" d="M206.881,38.669l0.619-2.789l0.62,0.45l0.13-0.161c1.33-1.489,4.12-2.33,7.42-2.93
	c3.561-0.65,7.91-1.06,12.07-1.609c8.57-1.15,15.84-2.891,15.84-8.03h0.75c0,3-2.14,4.92-5.18,6.2
	c-3.05,1.289-7.14,2.01-11.311,2.57c-4.209,0.56-8.49,0.96-12.029,1.609c-3.36,0.609-5.87,1.42-6.99,2.67l-0.09,0.11l0.6,0.43
	L206.881,38.669z"/>
<path fill-rule="evenodd" clip-rule="evenodd" d="M77.94,6.64c0.78,0,1.41,0.63,1.41,1.41c0,0.79-0.63,1.42-1.41,1.42
	c-0.79,0-1.42-0.63-1.42-1.42C76.52,7.27,77.15,6.64,77.94,6.64z"/>
<path fill-rule="evenodd" clip-rule="evenodd" d="M158.36,6.64c0.779,0,1.42,0.63,1.42,1.41c0,0.79-0.641,1.42-1.42,1.42
	c-0.78,0-1.42-0.63-1.42-1.42C156.94,7.27,157.58,6.64,158.36,6.64z"/>
<path fill-rule="evenodd" clip-rule="evenodd" d="M170.86,6.64c0.779,0,1.42,0.63,1.42,1.41c0,0.79-0.641,1.42-1.42,1.42
	c-0.78,0-1.42-0.63-1.42-1.42C169.44,7.27,170.08,6.64,170.86,6.64z"/>
<path fill-rule="evenodd" clip-rule="evenodd" d="M206.4,6.64c0.78,0,1.42,0.63,1.42,1.41c0,0.79-0.64,1.42-1.42,1.42
	s-1.42-0.63-1.42-1.42C204.98,7.27,205.62,6.64,206.4,6.64z"/>
<path fill-rule="evenodd" clip-rule="evenodd" d="M243.97,6.64c0.78,0,1.42,0.63,1.42,1.41c0,0.79-0.64,1.42-1.42,1.42
	c-0.779,0-1.42-0.63-1.42-1.42C242.55,7.27,243.19,6.64,243.97,6.64z"/>
</svg>
