<?xml version="1.0" encoding="utf-8"?>
<!-- Generator: Adobe Illustrator 14.0.0, SVG Export Plug-In . SVG Version: 6.00 Build 43363)  -->
<!DOCTYPE svg PUBLIC "-//W3C//DTD SVG 1.0//EN" "http://www.w3.org/TR/2001/REC-SVG-20010904/DTD/svg10.dtd">
<svg version="1.0" id="Layer_1" xmlns="http://www.w3.org/2000/svg" xmlns:xlink="http://www.w3.org/1999/xlink" x="0px" y="0px"
	 width="203.85px" height="136.8px" viewBox="0 0 203.85 136.8" enable-background="new 0 0 203.85 136.8" xml:space="preserve">
<g>
	<defs>
		<rect id="SVGID_1_" width="203.85" height="136.8"/>
	</defs>
	<clipPath id="SVGID_2_">
		<use xlink:href="#SVGID_1_"  overflow="visible"/>
	</clipPath>
	<path clip-path="url(#SVGID_2_)" fill-rule="evenodd" clip-rule="evenodd" fill="#989500" d="M135.312,48.887
		c1.931,1.707,2.172,4.734,0.54,6.752c-1.626,2.022-4.521,2.273-6.447,0.566c-1.931-1.706-2.177-4.729-0.546-6.752
		C130.49,47.437,133.385,47.18,135.312,48.887"/>
	<path clip-path="url(#SVGID_2_)" fill="none" stroke="#000000" stroke-width="0.401" d="M135.312,48.887
		c1.931,1.707,2.172,4.734,0.54,6.752c-1.626,2.022-4.521,2.273-6.447,0.566c-1.931-1.706-2.177-4.729-0.546-6.752
		C130.49,47.437,133.385,47.18,135.312,48.887z"/>
	<path clip-path="url(#SVGID_2_)" fill-rule="evenodd" clip-rule="evenodd" fill="#610A00" d="M129.378,81.305
		c-1.776,0.091-3.531,0.492-5.201,1.192c-2.647,1.118-4.819,2.905-6.409,5.078c-4.992-2.482-10.439-3.724-15.891-3.724V68.501
		h37.265c0,2.681-0.282,5.291-0.817,7.812c-0.407-0.032-0.813-0.096-1.226-0.193C132.979,75.151,129.945,78.015,129.378,81.305"/>
	
		<path clip-path="url(#SVGID_2_)" fill="none" stroke="#000000" stroke-width="0.401" stroke-linecap="round" stroke-linejoin="round" d="
		M129.378,81.305c-1.776,0.091-3.531,0.492-5.201,1.192c-2.647,1.118-4.819,2.905-6.409,5.078
		c-4.992-2.482-10.439-3.724-15.891-3.724V68.501h37.265c0,2.681-0.282,5.291-0.817,7.812c-0.407-0.032-0.813-0.096-1.226-0.193
		C132.979,75.151,129.945,78.015,129.378,81.305z"/>
	<path clip-path="url(#SVGID_2_)" fill-rule="evenodd" clip-rule="evenodd" fill="#980F00" d="M117.725,49.422
		c2.766,3.696,7.036,5.911,11.546,6.132c0.658,3.226,3.697,5.971,7.753,4.975c0.407-0.096,0.813-0.165,1.221-0.203
		c0.582,2.595,0.888,5.297,0.898,8.069v0.106h-37.266V53.118C107.313,53.118,112.748,51.889,117.725,49.422"/>
	
		<path clip-path="url(#SVGID_2_)" fill="none" stroke="#000000" stroke-width="0.401" stroke-linecap="round" stroke-linejoin="round" d="
		M117.725,49.422c2.766,3.696,7.036,5.911,11.546,6.132c0.658,3.226,3.697,5.971,7.753,4.975c0.407-0.096,0.813-0.165,1.221-0.203
		c0.582,2.595,0.888,5.297,0.898,8.069v0.106h-37.266V53.118C107.313,53.118,112.748,51.889,117.725,49.422z"/>
	<path clip-path="url(#SVGID_2_)" fill-rule="evenodd" clip-rule="evenodd" fill="#BE1200" d="M86.002,49.405
		c4.987,2.478,10.428,3.713,15.875,3.713v15.383H64.606c0.005-2.681,0.289-5.297,0.824-7.816c0.401,0.032,0.813,0.091,1.22,0.187
		c4.125,0.969,7.164-1.889,7.731-5.179c1.771-0.091,3.526-0.487,5.19-1.193C82.23,53.375,84.413,51.589,86.002,49.405"/>
	
		<path clip-path="url(#SVGID_2_)" fill="none" stroke="#000000" stroke-width="0.401" stroke-linecap="round" stroke-linejoin="round" d="
		M86.002,49.405c4.987,2.478,10.428,3.713,15.875,3.713v15.383H64.606c0.005-2.681,0.289-5.297,0.824-7.816
		c0.401,0.032,0.813,0.091,1.22,0.187c4.125,0.969,7.164-1.889,7.731-5.179c1.771-0.091,3.526-0.487,5.19-1.193
		C82.23,53.375,84.413,51.589,86.002,49.405z"/>
	<path clip-path="url(#SVGID_2_)" fill-rule="evenodd" clip-rule="evenodd" fill="#780D00" d="M101.877,83.852
		c-5.436,0-10.883,1.235-15.864,3.713c-2.761-3.682-7.036-5.912-11.535-6.143c-0.664-3.216-3.703-5.949-7.748-4.96
		c-0.412,0.103-0.818,0.171-1.225,0.203c-0.578-2.595-0.888-5.291-0.893-8.057c-0.006-0.038-0.006-0.07-0.006-0.107h37.271V83.852z"
		/>
	
		<path clip-path="url(#SVGID_2_)" fill="none" stroke="#000000" stroke-width="0.401" stroke-linecap="round" stroke-linejoin="round" d="
		M101.877,83.852c-5.436,0-10.883,1.235-15.864,3.713c-2.761-3.682-7.036-5.912-11.535-6.143c-0.664-3.216-3.703-5.949-7.748-4.96
		c-0.412,0.103-0.818,0.171-1.225,0.203c-0.578-2.595-0.888-5.291-0.893-8.057c-0.006-0.038-0.006-0.07-0.006-0.107h37.271V83.852z"
		/>
	<path clip-path="url(#SVGID_2_)" fill-rule="evenodd" clip-rule="evenodd" fill="#FF1200" d="M88.945,41.102
		c3.221-0.663,5.955-3.702,4.965-7.753c-0.101-0.406-0.171-0.813-0.203-1.22c2.595-0.577,5.297-0.889,8.063-0.898h0.107v21.888
		c-5.447,0-10.888-1.235-15.875-3.713C87.763,46.986,88.795,44.098,88.945,41.102"/>
	
		<path clip-path="url(#SVGID_2_)" fill="none" stroke="#000000" stroke-width="0.401" stroke-linecap="round" stroke-linejoin="round" d="
		M88.945,41.102c3.221-0.663,5.955-3.702,4.965-7.753c-0.101-0.406-0.171-0.813-0.203-1.22c2.595-0.577,5.297-0.889,8.063-0.898
		h0.107v21.888c-5.447,0-10.888-1.235-15.875-3.713C87.763,46.986,88.795,44.098,88.945,41.102z"/>
	<path clip-path="url(#SVGID_2_)" fill-rule="evenodd" clip-rule="evenodd" fill="#CB0F00" d="M109.693,32.049
		c-0.037,0.407-0.096,0.813-0.192,1.225c-0.974,4.12,1.894,7.159,5.185,7.727c0.092,1.76,0.481,3.51,1.178,5.169
		c0.502,1.182,1.129,2.268,1.861,3.253c-4.977,2.466-10.412,3.697-15.848,3.697v-21.89
		C104.558,31.229,107.169,31.514,109.693,32.049"/>
	
		<path clip-path="url(#SVGID_2_)" fill="none" stroke="#000000" stroke-width="0.401" stroke-linecap="round" stroke-linejoin="round" d="
		M109.693,32.049c-0.037,0.407-0.096,0.813-0.192,1.225c-0.974,4.12,1.894,7.159,5.185,7.727c0.092,1.76,0.481,3.51,1.178,5.169
		c0.502,1.182,1.129,2.268,1.861,3.253c-4.977,2.466-10.412,3.697-15.848,3.697v-21.89
		C104.558,31.229,107.169,31.514,109.693,32.049z"/>
	<path clip-path="url(#SVGID_2_)" fill-rule="evenodd" clip-rule="evenodd" fill="#9D0D00" d="M86.013,87.564
		c4.981-2.477,10.428-3.713,15.864-3.713v21.91c-2.681,0-5.297-0.284-7.817-0.819c0.032-0.401,0.096-0.813,0.193-1.22
		c0.968-4.12-1.894-7.159-5.185-7.731c-0.091-1.766-0.487-3.515-1.188-5.179C87.383,89.636,86.751,88.543,86.013,87.564"/>
	
		<path clip-path="url(#SVGID_2_)" fill="none" stroke="#000000" stroke-width="0.401" stroke-linecap="round" stroke-linejoin="round" d="
		M86.013,87.564c4.981-2.477,10.428-3.713,15.864-3.713v21.91c-2.681,0-5.297-0.284-7.817-0.819c0.032-0.401,0.096-0.813,0.193-1.22
		c0.968-4.12-1.894-7.159-5.185-7.731c-0.091-1.766-0.487-3.515-1.188-5.179C87.383,89.636,86.751,88.543,86.013,87.564z"/>
	<path clip-path="url(#SVGID_2_)" fill-rule="evenodd" clip-rule="evenodd" fill="#800A00" d="M114.803,95.895
		c-3.221,0.663-5.954,3.697-4.959,7.747c0.097,0.412,0.166,0.819,0.203,1.221c-2.601,0.583-5.297,0.894-8.068,0.898h-0.102v-21.91
		c5.454,0,10.899,1.242,15.891,3.725C115.996,89.993,114.959,92.893,114.803,95.895"/>
	
		<path clip-path="url(#SVGID_2_)" fill="none" stroke="#000000" stroke-width="0.401" stroke-linecap="round" stroke-linejoin="round" d="
		M114.803,95.895c-3.221,0.663-5.954,3.697-4.959,7.747c0.097,0.412,0.166,0.819,0.203,1.221c-2.601,0.583-5.297,0.894-8.068,0.898
		h-0.102v-21.91c5.454,0,10.899,1.242,15.891,3.725C115.996,89.993,114.959,92.893,114.803,95.895z"/>
	<path clip-path="url(#SVGID_2_)" fill-rule="evenodd" clip-rule="evenodd" fill="#CB1400" d="M101.877,23.43
		c4.654,0.096,8.17,4.119,7.816,8.618c-2.524-0.534-5.136-0.817-7.816-0.817V23.43z"/>
	
		<path clip-path="url(#SVGID_2_)" fill="none" stroke="#000000" stroke-width="0.401" stroke-linecap="round" stroke-linejoin="round" d="
		M101.877,23.43c4.654,0.096,8.17,4.119,7.816,8.618c-2.524-0.534-5.136-0.817-7.816-0.817V23.43z"/>
	<path clip-path="url(#SVGID_2_)" fill-rule="evenodd" clip-rule="evenodd" fill="#FF1A00" d="M93.707,32.129
		c-0.407-4.575,3.183-8.684,7.951-8.705c0.075,0,0.149,0,0.219,0.005v7.802h-0.107C99.004,31.241,96.302,31.551,93.707,32.129"/>
	
		<path clip-path="url(#SVGID_2_)" fill="none" stroke="#000000" stroke-width="0.401" stroke-linecap="round" stroke-linejoin="round" d="
		M93.707,32.129c-0.407-4.575,3.183-8.684,7.951-8.705c0.075,0,0.149,0,0.219,0.005v7.802h-0.107
		C99.004,31.241,96.302,31.551,93.707,32.129z"/>
	<path clip-path="url(#SVGID_2_)" fill-rule="evenodd" clip-rule="evenodd" fill="#BE1A00" d="M56.805,68.501
		c0.096-4.655,4.12-8.175,8.625-7.817c-0.535,2.521-0.819,5.137-0.824,7.817H56.805z"/>
	
		<path clip-path="url(#SVGID_2_)" fill="none" stroke="#000000" stroke-width="0.401" stroke-linecap="round" stroke-linejoin="round" d="
		M56.805,68.501c0.096-4.655,4.12-8.175,8.625-7.817c-0.535,2.521-0.819,5.137-0.824,7.817H56.805z"/>
	<path clip-path="url(#SVGID_2_)" fill-rule="evenodd" clip-rule="evenodd" fill="#781200" d="M64.611,68.607
		c0.005,2.767,0.316,5.464,0.893,8.059c-4.574,0.406-8.683-3.185-8.699-7.951c-0.006-0.075,0-0.144,0-0.214h7.801
		C64.606,68.538,64.606,68.571,64.611,68.607"/>
	
		<path clip-path="url(#SVGID_2_)" fill="none" stroke="#000000" stroke-width="0.401" stroke-linecap="round" stroke-linejoin="round" d="
		M64.611,68.607c0.005,2.767,0.316,5.464,0.893,8.059c-4.574,0.406-8.683-3.185-8.699-7.951c-0.006-0.075,0-0.144,0-0.214h7.801
		C64.606,68.538,64.606,68.571,64.611,68.607z"/>
	<path clip-path="url(#SVGID_2_)" fill-rule="evenodd" clip-rule="evenodd" fill="#784500" d="M74.478,81.422
		c-2.269-0.111-4.601,0.284-6.822,1.257c-0.069,0.032-0.144,0.065-0.219,0.092c-0.808-1.953-1.461-3.996-1.932-6.104
		c0.407-0.033,0.814-0.102,1.226-0.204C70.775,75.472,73.814,78.206,74.478,81.422"/>
	
		<path clip-path="url(#SVGID_2_)" fill="none" stroke="#000000" stroke-width="0.401" stroke-linecap="round" stroke-linejoin="round" d="
		M74.478,81.422c-2.269-0.111-4.601,0.284-6.822,1.257c-0.069,0.032-0.144,0.065-0.219,0.092c-0.808-1.953-1.461-3.996-1.932-6.104
		c0.407-0.033,0.814-0.102,1.226-0.204C70.775,75.472,73.814,78.206,74.478,81.422z"/>
	<path clip-path="url(#SVGID_2_)" fill-rule="evenodd" clip-rule="evenodd" fill="#789000" d="M67.437,82.771
		c0.075-0.027,0.15-0.06,0.219-0.091c2.221-0.975,4.554-1.37,6.822-1.257c0.487,2.364-0.299,4.985-2.894,6.591
		c-0.359,0.225-0.696,0.466-1.001,0.728C69.362,86.863,68.308,84.867,67.437,82.771"/>
	
		<path clip-path="url(#SVGID_2_)" fill="none" stroke="#000000" stroke-width="0.401" stroke-linecap="round" stroke-linejoin="round" d="
		M67.437,82.771c0.075-0.027,0.15-0.06,0.219-0.091c2.221-0.975,4.554-1.37,6.822-1.257c0.487,2.364-0.299,4.985-2.894,6.591
		c-0.359,0.225-0.696,0.466-1.001,0.728C69.362,86.863,68.308,84.867,67.437,82.771z"/>
	<path clip-path="url(#SVGID_2_)" fill-rule="evenodd" clip-rule="evenodd" fill="#9D1F00" d="M75.917,95.05
		c0.337-0.332,0.669-0.669,0.995-1.018c2.75-2.69,5.827-4.847,9.101-6.468c0.739,0.979,1.37,2.07,1.867,3.247
		c0.701,1.664,1.097,3.414,1.188,5.18c-2.322-0.396-4.863,0.434-6.415,2.991c-0.214,0.358-0.455,0.695-0.717,1.005
		c-2.204-1.396-4.253-3.022-6.11-4.842C75.853,95.113,75.885,95.082,75.917,95.05"/>
	
		<path clip-path="url(#SVGID_2_)" fill="none" stroke="#000000" stroke-width="0.401" stroke-linecap="round" stroke-linejoin="round" d="
		M75.917,95.05c0.337-0.332,0.669-0.669,0.995-1.018c2.75-2.69,5.827-4.847,9.101-6.468c0.739,0.979,1.37,2.07,1.867,3.247
		c0.701,1.664,1.097,3.414,1.188,5.18c-2.322-0.396-4.863,0.434-6.415,2.991c-0.214,0.358-0.455,0.695-0.717,1.005
		c-2.204-1.396-4.253-3.022-6.11-4.842C75.853,95.113,75.885,95.082,75.917,95.05z"/>
	<path clip-path="url(#SVGID_2_)" fill-rule="evenodd" clip-rule="evenodd" fill="#781F00" d="M86.013,87.564
		c-3.274,1.621-6.351,3.777-9.101,6.469c-0.375,0.363-0.728,0.733-1.086,1.112c-1.974-1.931-3.735-4.077-5.244-6.404
		c0.305-0.262,0.643-0.503,1.001-0.728c2.595-1.605,3.381-4.227,2.895-6.591C78.977,81.652,83.252,83.884,86.013,87.564"/>
	
		<path clip-path="url(#SVGID_2_)" fill="none" stroke="#000000" stroke-width="0.401" stroke-linecap="round" stroke-linejoin="round" d="
		M86.013,87.564c-3.274,1.621-6.351,3.777-9.101,6.469c-0.375,0.363-0.728,0.733-1.086,1.112c-1.974-1.931-3.735-4.077-5.244-6.404
		c0.305-0.262,0.643-0.503,1.001-0.728c2.595-1.605,3.381-4.227,2.895-6.591C78.977,81.652,83.252,83.884,86.013,87.564z"/>
	<path clip-path="url(#SVGID_2_)" fill-rule="evenodd" clip-rule="evenodd" fill="#782945" d="M70.583,88.741
		c1.509,2.327,3.269,4.474,5.243,6.404c-0.005,0.006-0.016,0.011-0.021,0.022c-1.889,1.846-3.938,3.467-6.11,4.853
		C66.811,96.649,67.254,91.577,70.583,88.741"/>
	
		<path clip-path="url(#SVGID_2_)" fill="none" stroke="#000000" stroke-width="0.401" stroke-linecap="round" stroke-linejoin="round" d="
		M70.583,88.741c1.509,2.327,3.269,4.474,5.243,6.404c-0.005,0.006-0.016,0.011-0.021,0.022c-1.889,1.846-3.938,3.467-6.11,4.853
		C66.811,96.649,67.254,91.577,70.583,88.741z"/>
	<path clip-path="url(#SVGID_2_)" fill-rule="evenodd" clip-rule="evenodd" fill="#9D29C6" d="M75.826,95.146
		c1.857,1.819,3.906,3.446,6.11,4.843c-2.943,3.521-8.389,3.89-11.776,0.534c-0.166-0.159-0.321-0.332-0.466-0.503
		c2.173-1.386,4.222-3.007,6.111-4.853C75.81,95.157,75.821,95.151,75.826,95.146"/>
	
		<path clip-path="url(#SVGID_2_)" fill="none" stroke="#000000" stroke-width="0.401" stroke-linecap="round" stroke-linejoin="round" d="
		M75.826,95.146c1.857,1.819,3.906,3.446,6.11,4.843c-2.943,3.521-8.389,3.89-11.776,0.534c-0.166-0.159-0.321-0.332-0.466-0.503
		c2.173-1.386,4.222-3.007,6.111-4.853C75.81,95.157,75.821,95.151,75.826,95.146z"/>
	<path clip-path="url(#SVGID_2_)" fill-rule="evenodd" clip-rule="evenodd" fill="#9D9000" d="M81.936,99.988
		c0.262-0.311,0.503-0.647,0.717-1.006c1.552-2.558,4.093-3.388,6.415-2.991c0.118,2.29-0.278,4.596-1.188,6.752
		c-0.037,0.086-0.075,0.172-0.107,0.257C85.729,102.166,83.782,101.154,81.936,99.988"/>
	
		<path clip-path="url(#SVGID_2_)" fill="none" stroke="#000000" stroke-width="0.401" stroke-linecap="round" stroke-linejoin="round" d="
		M81.936,99.988c0.262-0.311,0.503-0.647,0.717-1.006c1.552-2.558,4.093-3.388,6.415-2.991c0.118,2.29-0.278,4.596-1.188,6.752
		c-0.037,0.086-0.075,0.172-0.107,0.257C85.729,102.166,83.782,101.154,81.936,99.988z"/>
	<path clip-path="url(#SVGID_2_)" fill-rule="evenodd" clip-rule="evenodd" fill="#9D4500" d="M89.068,95.991
		c3.29,0.573,6.153,3.612,5.185,7.731c-0.097,0.406-0.161,0.818-0.193,1.22c-2.172-0.465-4.275-1.118-6.287-1.942
		c0.032-0.086,0.07-0.171,0.107-0.257C88.79,100.587,89.186,98.281,89.068,95.991"/>
	
		<path clip-path="url(#SVGID_2_)" fill="none" stroke="#000000" stroke-width="0.401" stroke-linecap="round" stroke-linejoin="round" d="
		M89.068,95.991c3.29,0.573,6.153,3.612,5.185,7.731c-0.097,0.406-0.161,0.818-0.193,1.22c-2.172-0.465-4.275-1.118-6.287-1.942
		c0.032-0.086,0.07-0.171,0.107-0.257C88.79,100.587,89.186,98.281,89.068,95.991z"/>
	<path clip-path="url(#SVGID_2_)" fill-rule="evenodd" clip-rule="evenodd" fill="#981F00" d="M117.725,49.422
		c3.505-1.734,6.779-4.082,9.668-7.036c0.182-0.183,0.359-0.358,0.535-0.535c1.975,1.932,3.734,4.077,5.244,6.405
		c-0.305,0.262-0.643,0.503-0.996,0.722c-2.596,1.604-3.381,4.221-2.905,6.576C124.761,55.333,120.49,53.118,117.725,49.422"/>
	
		<path clip-path="url(#SVGID_2_)" fill="none" stroke="#000000" stroke-width="0.401" stroke-linecap="round" stroke-linejoin="round" d="
		M117.725,49.422c3.505-1.734,6.779-4.082,9.668-7.036c0.182-0.183,0.359-0.358,0.535-0.535c1.975,1.932,3.734,4.077,5.244,6.405
		c-0.305,0.262-0.643,0.503-0.996,0.722c-2.596,1.604-3.381,4.221-2.905,6.576C124.761,55.333,120.49,53.118,117.725,49.422z"/>
	<path clip-path="url(#SVGID_2_)" fill-rule="evenodd" clip-rule="evenodd" fill="#CB1F00" d="M127.928,41.851
		c-0.177,0.177-0.354,0.353-0.535,0.535c-2.889,2.953-6.164,5.302-9.668,7.036c-0.732-0.985-1.359-2.071-1.861-3.253
		c-0.696-1.659-1.086-3.408-1.178-5.169c2.327,0.401,4.863-0.434,6.41-2.991c0.219-0.358,0.454-0.69,0.717-1
		C124.021,38.404,126.066,40.031,127.928,41.851"/>
	
		<path clip-path="url(#SVGID_2_)" fill="none" stroke="#000000" stroke-width="0.401" stroke-linecap="round" stroke-linejoin="round" d="
		M127.928,41.851c-0.177,0.177-0.354,0.353-0.535,0.535c-2.889,2.953-6.164,5.302-9.668,7.036c-0.732-0.985-1.359-2.071-1.861-3.253
		c-0.696-1.659-1.086-3.408-1.178-5.169c2.327,0.401,4.863-0.434,6.41-2.991c0.219-0.358,0.454-0.69,0.717-1
		C124.021,38.404,126.066,40.031,127.928,41.851z"/>
	<path clip-path="url(#SVGID_2_)" fill-rule="evenodd" clip-rule="evenodd" fill="#CB9500" d="M115.98,33.991
		c2.038,0.835,3.991,1.846,5.832,3.018c-0.262,0.311-0.498,0.643-0.717,1c-1.547,2.559-4.082,3.393-6.41,2.991
		c-0.118-2.301,0.284-4.623,1.199-6.784L115.98,33.991z"/>
	
		<path clip-path="url(#SVGID_2_)" fill="none" stroke="#000000" stroke-width="0.401" stroke-linecap="round" stroke-linejoin="round" d="
		M115.98,33.991c2.038,0.835,3.991,1.846,5.832,3.018c-0.262,0.311-0.498,0.643-0.717,1c-1.547,2.559-4.082,3.393-6.41,2.991
		c-0.118-2.301,0.284-4.623,1.199-6.784L115.98,33.991z"/>
	<path clip-path="url(#SVGID_2_)" fill-rule="evenodd" clip-rule="evenodd" fill="#CB4700" d="M114.686,41
		c-3.29-0.567-6.158-3.606-5.186-7.727c0.098-0.411,0.156-0.818,0.193-1.225c2.172,0.465,4.271,1.118,6.287,1.942l-0.097,0.225
		C114.97,36.377,114.568,38.699,114.686,41"/>
	
		<path clip-path="url(#SVGID_2_)" fill="none" stroke="#000000" stroke-width="0.401" stroke-linecap="round" stroke-linejoin="round" d="
		M114.686,41c-3.29-0.567-6.158-3.606-5.186-7.727c0.098-0.411,0.156-0.818,0.193-1.225c2.172,0.465,4.271,1.118,6.287,1.942
		l-0.097,0.225C114.97,36.377,114.568,38.699,114.686,41z"/>
	<path clip-path="url(#SVGID_2_)" fill-rule="evenodd" clip-rule="evenodd" fill="#FF5C00" d="M88.945,41.102
		c0.112-2.274-0.284-4.612-1.257-6.838c-0.032-0.064-0.059-0.134-0.086-0.198c1.953-0.813,3.997-1.466,6.105-1.937
		c0.032,0.406,0.102,0.813,0.203,1.22C94.9,37.399,92.166,40.438,88.945,41.102"/>
	
		<path clip-path="url(#SVGID_2_)" fill="none" stroke="#000000" stroke-width="0.401" stroke-linecap="round" stroke-linejoin="round" d="
		M88.945,41.102c0.112-2.274-0.284-4.612-1.257-6.838c-0.032-0.064-0.059-0.134-0.086-0.198c1.953-0.813,3.997-1.466,6.105-1.937
		c0.032,0.406,0.102,0.813,0.203,1.22C94.9,37.399,92.166,40.438,88.945,41.102z"/>
	<path clip-path="url(#SVGID_2_)" fill-rule="evenodd" clip-rule="evenodd" fill="#FFC100" d="M81.631,37.206
		c1.878-1.22,3.874-2.273,5.971-3.141c0.027,0.065,0.054,0.134,0.086,0.198c0.973,2.226,1.369,4.563,1.257,6.838
		c-2.36,0.482-4.976-0.305-6.592-2.9C82.134,37.849,81.893,37.512,81.631,37.206"/>
	
		<path clip-path="url(#SVGID_2_)" fill="none" stroke="#000000" stroke-width="0.401" stroke-linecap="round" stroke-linejoin="round" d="
		M81.631,37.206c1.878-1.22,3.874-2.273,5.971-3.141c0.027,0.065,0.054,0.134,0.086,0.198c0.973,2.226,1.369,4.563,1.257,6.838
		c-2.36,0.482-4.976-0.305-6.592-2.9C82.134,37.849,81.893,37.512,81.631,37.206z"/>
	<path clip-path="url(#SVGID_2_)" fill-rule="evenodd" clip-rule="evenodd" fill="#FF2900" d="M81.631,37.206
		c0.262,0.306,0.503,0.643,0.722,0.995c1.616,2.596,4.232,3.383,6.592,2.9c-0.15,2.996-1.182,5.886-2.943,8.304
		c-3.494-1.733-6.757-4.071-9.641-7.02c-0.177-0.183-0.353-0.364-0.535-0.54C77.602,40.117,79.544,38.561,81.631,37.206"/>
	
		<path clip-path="url(#SVGID_2_)" fill="none" stroke="#000000" stroke-width="0.401" stroke-linecap="round" stroke-linejoin="round" d="
		M81.631,37.206c0.262,0.306,0.503,0.643,0.722,0.995c1.616,2.596,4.232,3.383,6.592,2.9c-0.15,2.996-1.182,5.886-2.943,8.304
		c-3.494-1.733-6.757-4.071-9.641-7.02c-0.177-0.183-0.353-0.364-0.535-0.54C77.602,40.117,79.544,38.561,81.631,37.206z"/>
	<path clip-path="url(#SVGID_2_)" fill-rule="evenodd" clip-rule="evenodd" fill="#FF36C6" d="M69.673,36.966
		c0.059-0.064,0.118-0.123,0.177-0.182c3.349-3.388,8.801-3.071,11.781,0.423c-2.087,1.353-4.029,2.91-5.805,4.639
		C73.927,39.983,71.861,38.352,69.673,36.966"/>
	
		<path clip-path="url(#SVGID_2_)" fill="none" stroke="#000000" stroke-width="0.401" stroke-linecap="round" stroke-linejoin="round" d="
		M69.673,36.966c0.059-0.064,0.118-0.123,0.177-0.182c3.349-3.388,8.801-3.071,11.781,0.423c-2.087,1.353-4.029,2.91-5.805,4.639
		C73.927,39.983,71.861,38.352,69.673,36.966z"/>
	<path clip-path="url(#SVGID_2_)" fill-rule="evenodd" clip-rule="evenodd" fill="#BE3645" d="M75.826,41.846
		c-2.06,2.017-3.89,4.27-5.441,6.715c-3.457-2.896-3.874-8.202-0.712-11.596C71.861,38.352,73.927,39.983,75.826,41.846"/>
	
		<path clip-path="url(#SVGID_2_)" fill="none" stroke="#000000" stroke-width="0.401" stroke-linecap="round" stroke-linejoin="round" d="
		M75.826,41.846c-2.06,2.017-3.89,4.27-5.441,6.715c-3.457-2.896-3.874-8.202-0.712-11.596
		C71.861,38.352,73.927,39.983,75.826,41.846z"/>
	<path clip-path="url(#SVGID_2_)" fill-rule="evenodd" clip-rule="evenodd" fill="#BE2900" d="M75.826,41.846
		c0.182,0.177,0.358,0.357,0.535,0.54c2.884,2.947,6.148,5.286,9.641,7.02c-1.589,2.183-3.772,3.97-6.431,5.094
		c-1.664,0.706-3.419,1.103-5.19,1.193c0.396-2.328-0.433-4.864-2.99-6.415c-0.359-0.22-0.696-0.455-1.006-0.717
		C71.936,46.115,73.766,43.862,75.826,41.846"/>
	
		<path clip-path="url(#SVGID_2_)" fill="none" stroke="#000000" stroke-width="0.401" stroke-linecap="round" stroke-linejoin="round" d="
		M75.826,41.846c0.182,0.177,0.358,0.357,0.535,0.54c2.884,2.947,6.148,5.286,9.641,7.02c-1.589,2.183-3.772,3.97-6.431,5.094
		c-1.664,0.706-3.419,1.103-5.19,1.193c0.396-2.328-0.433-4.864-2.99-6.415c-0.359-0.22-0.696-0.455-1.006-0.717
		C71.936,46.115,73.766,43.862,75.826,41.846z"/>
	<path clip-path="url(#SVGID_2_)" fill-rule="evenodd" clip-rule="evenodd" fill="#BEC100" d="M67.372,54.392
		c0.835-2.039,1.846-3.985,3.012-5.832c0.311,0.263,0.648,0.498,1.006,0.718c2.558,1.552,3.387,4.088,2.991,6.415
		c-2.29,0.112-4.596-0.283-6.747-1.193C67.549,54.462,67.458,54.429,67.372,54.392"/>
	
		<path clip-path="url(#SVGID_2_)" fill="none" stroke="#000000" stroke-width="0.401" stroke-linecap="round" stroke-linejoin="round" d="
		M67.372,54.392c0.835-2.039,1.846-3.985,3.012-5.832c0.311,0.263,0.648,0.498,1.006,0.718c2.558,1.552,3.387,4.088,2.991,6.415
		c-2.29,0.112-4.596-0.283-6.747-1.193C67.549,54.462,67.458,54.429,67.372,54.392z"/>
	<path clip-path="url(#SVGID_2_)" fill-rule="evenodd" clip-rule="evenodd" fill="#BE5C00" d="M74.381,55.692
		c-0.567,3.29-3.606,6.147-7.731,5.179c-0.407-0.096-0.819-0.155-1.22-0.187c0.465-2.173,1.118-4.275,1.942-6.292
		c0.086,0.036,0.177,0.068,0.262,0.106C69.785,55.408,72.091,55.804,74.381,55.692"/>
	
		<path clip-path="url(#SVGID_2_)" fill="none" stroke="#000000" stroke-width="0.401" stroke-linecap="round" stroke-linejoin="round" d="
		M74.381,55.692c-0.567,3.29-3.606,6.147-7.731,5.179c-0.407-0.096-0.819-0.155-1.22-0.187c0.465-2.173,1.118-4.275,1.942-6.292
		c0.086,0.036,0.177,0.068,0.262,0.106C69.785,55.408,72.091,55.804,74.381,55.692z"/>
	<path clip-path="url(#SVGID_2_)" fill-rule="evenodd" clip-rule="evenodd" fill="#BE7A00" d="M46.099,68.501
		c0.037-6.041,3.654-11.749,9.604-14.157c3.825-1.546,7.881-1.466,11.669,0.048c-0.824,2.018-1.477,4.12-1.942,6.292
		c-4.505-0.357-8.529,3.162-8.625,7.817H46.099z"/>
	
		<path clip-path="url(#SVGID_2_)" fill="none" stroke="#000000" stroke-width="0.401" stroke-linecap="round" stroke-linejoin="round" d="
		M46.099,68.501c0.037-6.041,3.654-11.749,9.604-14.157c3.825-1.546,7.881-1.466,11.669,0.048c-0.824,2.018-1.477,4.12-1.942,6.292
		c-4.505-0.357-8.529,3.162-8.625,7.817H46.099z"/>
	<path clip-path="url(#SVGID_2_)" fill-rule="evenodd" clip-rule="evenodd" fill="#785C00" d="M67.437,82.771
		c-7.828,3.301-16.87-0.385-20.15-8.256c-0.824-1.969-1.203-4.007-1.187-6.014h10.706c0,0.069-0.006,0.14,0,0.215
		c0.016,4.767,4.125,8.356,8.699,7.949C65.975,78.773,66.628,80.817,67.437,82.771"/>
	
		<path clip-path="url(#SVGID_2_)" fill="none" stroke="#000000" stroke-width="0.401" stroke-linecap="round" stroke-linejoin="round" d="
		M67.437,82.771c-7.828,3.301-16.87-0.385-20.15-8.256c-0.824-1.969-1.203-4.007-1.187-6.014h10.706c0,0.069-0.006,0.14,0,0.215
		c0.016,4.767,4.125,8.356,8.699,7.949C65.975,78.773,66.628,80.817,67.437,82.771z"/>
	<path clip-path="url(#SVGID_2_)" fill-rule="evenodd" clip-rule="evenodd" fill="#78BE59" d="M46.099,68.501
		c-0.016,2.006,0.364,4.045,1.188,6.014c3.28,7.87,12.322,11.558,20.149,8.255c0.872,2.099,1.927,4.095,3.146,5.973
		c-3.328,2.835-3.772,7.906-0.888,11.277c-9.877,6.276-22.327,7.657-33.568,3.28C21.91,97.772,12.488,84.151,12.327,68.902
		c0-0.134-0.005-0.268-0.005-0.401H46.099z"/>
	
		<path clip-path="url(#SVGID_2_)" fill="none" stroke="#000000" stroke-width="0.401" stroke-linecap="round" stroke-linejoin="round" d="
		M46.099,68.501c-0.016,2.006,0.364,4.045,1.188,6.014c3.28,7.87,12.322,11.558,20.149,8.255c0.872,2.099,1.927,4.095,3.146,5.973
		c-3.328,2.835-3.772,7.906-0.888,11.277c-9.877,6.276-22.327,7.657-33.568,3.28C21.91,97.772,12.488,84.151,12.327,68.902
		c0-0.134-0.005-0.268-0.005-0.401H46.099z"/>
	<path clip-path="url(#SVGID_2_)" fill-rule="evenodd" clip-rule="evenodd" fill="#BEFF59" d="M67.372,54.392
		c-3.788-1.514-7.844-1.594-11.669-0.048c-5.95,2.407-9.567,8.116-9.604,14.157H12.322c0-15.099,9.09-28.721,23.06-34.51
		c11.386-4.708,24.173-3.446,34.291,2.975c-3.162,3.393-2.745,8.699,0.711,11.594C69.218,50.406,68.207,52.353,67.372,54.392"/>
	
		<path clip-path="url(#SVGID_2_)" fill="none" stroke="#000000" stroke-width="0.401" stroke-linecap="round" stroke-linejoin="round" d="
		M67.372,54.392c-3.788-1.514-7.844-1.594-11.669-0.048c-5.95,2.407-9.567,8.116-9.604,14.157H12.322
		c0-15.099,9.09-28.721,23.06-34.51c11.386-4.708,24.173-3.446,34.291,2.975c-3.162,3.393-2.745,8.699,0.711,11.594
		C69.218,50.406,68.207,52.353,67.372,54.392z"/>
	<path clip-path="url(#SVGID_2_)" fill-rule="evenodd" clip-rule="evenodd" fill="#FF7A00" d="M87.602,34.065
		c-3.301-7.838,0.396-16.891,8.266-20.166c1.969-0.817,4.008-1.197,6.009-1.182v10.711c-0.07-0.005-0.145-0.005-0.22-0.005
		c-4.767,0.021-8.357,4.131-7.95,8.705C91.599,32.6,89.555,33.253,87.602,34.065"/>
	
		<path clip-path="url(#SVGID_2_)" fill="none" stroke="#000000" stroke-width="0.401" stroke-linecap="round" stroke-linejoin="round" d="
		M87.602,34.065c-3.301-7.838,0.396-16.891,8.266-20.166c1.969-0.817,4.008-1.197,6.009-1.182v10.711
		c-0.07-0.005-0.145-0.005-0.22-0.005c-4.767,0.021-8.357,4.131-7.95,8.705C91.599,32.6,89.555,33.253,87.602,34.065z"/>
	<path clip-path="url(#SVGID_2_)" fill-rule="evenodd" clip-rule="evenodd" fill="#CB5E00" d="M101.877,12.718
		c6.041,0.043,11.749,3.665,14.156,9.615c1.525,3.788,1.482,7.901-0.053,11.657c-2.017-0.823-4.115-1.477-6.287-1.941
		c0.354-4.5-3.162-8.523-7.816-8.62V12.718z"/>
	
		<path clip-path="url(#SVGID_2_)" fill="none" stroke="#000000" stroke-width="0.401" stroke-linecap="round" stroke-linejoin="round" d="
		M101.877,12.718c6.041,0.043,11.749,3.665,14.156,9.615c1.525,3.788,1.482,7.901-0.053,11.657
		c-2.017-0.823-4.115-1.477-6.287-1.941c0.354-4.5-3.162-8.523-7.816-8.62V12.718z"/>
	<path clip-path="url(#SVGID_2_)" fill-rule="evenodd" clip-rule="evenodd" fill="#CB29C6" d="M134.064,36.977
		c-2.183,1.386-4.242,3.012-6.137,4.874c-1.861-1.819-3.906-3.445-6.115-4.842c2.948-3.526,8.395-3.891,11.787-0.54
		C133.76,36.635,133.921,36.8,134.064,36.977"/>
	
		<path clip-path="url(#SVGID_2_)" fill="none" stroke="#000000" stroke-width="0.401" stroke-linecap="round" stroke-linejoin="round" d="
		M134.064,36.977c-2.183,1.386-4.242,3.012-6.137,4.874c-1.861-1.819-3.906-3.445-6.115-4.842c2.948-3.526,8.395-3.891,11.787-0.54
		C133.76,36.635,133.921,36.8,134.064,36.977z"/>
	<path clip-path="url(#SVGID_2_)" fill-rule="evenodd" clip-rule="evenodd" fill="#982945" d="M133.172,48.255
		c-1.51-2.327-3.27-4.473-5.244-6.404c1.895-1.861,3.955-3.488,6.138-4.875C136.943,40.347,136.494,45.425,133.172,48.255"/>
	
		<path clip-path="url(#SVGID_2_)" fill="none" stroke="#000000" stroke-width="0.401" stroke-linecap="round" stroke-linejoin="round" d="
		M133.172,48.255c-1.51-2.327-3.27-4.473-5.244-6.404c1.895-1.861,3.955-3.488,6.138-4.875
		C136.943,40.347,136.494,45.425,133.172,48.255z"/>
	<path clip-path="url(#SVGID_2_)" fill-rule="evenodd" clip-rule="evenodd" fill="#984700" d="M129.271,55.553
		c2.284,0.112,4.627-0.289,6.864-1.257c0.058-0.027,0.112-0.054,0.171-0.081c0.813,1.959,1.467,4.002,1.938,6.111
		c-0.407,0.037-0.814,0.106-1.221,0.203C132.968,61.524,129.929,58.779,129.271,55.553"/>
	
		<path clip-path="url(#SVGID_2_)" fill="none" stroke="#000000" stroke-width="0.401" stroke-linecap="round" stroke-linejoin="round" d="
		M129.271,55.553c2.284,0.112,4.627-0.289,6.864-1.257c0.058-0.027,0.112-0.054,0.171-0.081c0.813,1.959,1.467,4.002,1.938,6.111
		c-0.407,0.037-0.814,0.106-1.221,0.203C132.968,61.524,129.929,58.779,129.271,55.553z"/>
	<path clip-path="url(#SVGID_2_)" fill-rule="evenodd" clip-rule="evenodd" fill="#611700" d="M126.836,94.033
		c-2.738-2.687-5.805-4.837-9.068-6.458c1.589-2.172,3.761-3.959,6.41-5.077c1.669-0.701,3.424-1.104,5.199-1.194
		c-0.4,2.328,0.429,4.864,2.986,6.41c0.358,0.22,0.696,0.46,1.006,0.723c-1.552,2.445-3.382,4.692-5.441,6.71
		c-0.032-0.032-0.064-0.064-0.09-0.097C127.517,94.707,127.178,94.365,126.836,94.033"/>
	
		<path clip-path="url(#SVGID_2_)" fill="none" stroke="#000000" stroke-width="0.401" stroke-linecap="round" stroke-linejoin="round" d="
		M126.836,94.033c-2.738-2.687-5.805-4.837-9.068-6.458c1.589-2.172,3.761-3.959,6.41-5.077c1.669-0.701,3.424-1.104,5.199-1.194
		c-0.4,2.328,0.429,4.864,2.986,6.41c0.358,0.22,0.696,0.46,1.006,0.723c-1.552,2.445-3.382,4.692-5.441,6.71
		c-0.032-0.032-0.064-0.064-0.09-0.097C127.517,94.707,127.178,94.365,126.836,94.033z"/>
	<path clip-path="url(#SVGID_2_)" fill-rule="evenodd" clip-rule="evenodd" fill="#801700" d="M117.768,87.575
		c3.264,1.621,6.33,3.771,9.068,6.458c0.358,0.38,0.723,0.749,1.092,1.113c-1.771,1.732-3.719,3.29-5.811,4.644
		c-0.257-0.305-0.502-0.637-0.722-0.99c-1.61-2.6-4.233-3.387-6.592-2.904C114.959,92.894,115.996,89.993,117.768,87.575"/>
	
		<path clip-path="url(#SVGID_2_)" fill="none" stroke="#000000" stroke-width="0.401" stroke-linecap="round" stroke-linejoin="round" d="
		M117.768,87.575c3.264,1.621,6.33,3.771,9.068,6.458c0.358,0.38,0.723,0.749,1.092,1.113c-1.771,1.732-3.719,3.29-5.811,4.644
		c-0.257-0.305-0.502-0.637-0.722-0.99c-1.61-2.6-4.233-3.387-6.592-2.904C114.959,92.894,115.996,89.993,117.768,87.575z"/>
	<path clip-path="url(#SVGID_2_)" fill-rule="evenodd" clip-rule="evenodd" fill="#803600" d="M114.803,95.895
		c-0.111,2.274,0.279,4.602,1.253,6.822c0.032,0.069,0.063,0.145,0.096,0.214c-1.958,0.813-3.996,1.46-6.104,1.932
		c-0.037-0.401-0.106-0.809-0.203-1.221C108.849,99.592,111.582,96.558,114.803,95.895"/>
	
		<path clip-path="url(#SVGID_2_)" fill="none" stroke="#000000" stroke-width="0.401" stroke-linecap="round" stroke-linejoin="round" d="
		M114.803,95.895c-0.111,2.274,0.279,4.602,1.253,6.822c0.032,0.069,0.063,0.145,0.096,0.214c-1.958,0.813-3.996,1.46-6.104,1.932
		c-0.037-0.401-0.106-0.809-0.203-1.221C108.849,99.592,111.582,96.558,114.803,95.895z"/>
	<path clip-path="url(#SVGID_2_)" fill-rule="evenodd" clip-rule="evenodd" fill="#807300" d="M122.117,99.79
		c-1.878,1.22-3.874,2.274-5.966,3.141c-0.032-0.069-0.063-0.145-0.096-0.214c-0.974-2.221-1.364-4.548-1.253-6.822
		c2.361-0.481,4.981,0.306,6.593,2.905C121.614,99.153,121.86,99.485,122.117,99.79"/>
	
		<path clip-path="url(#SVGID_2_)" fill="none" stroke="#000000" stroke-width="0.401" stroke-linecap="round" stroke-linejoin="round" d="
		M122.117,99.79c-1.878,1.22-3.874,2.274-5.966,3.141c-0.032-0.069-0.063-0.145-0.096-0.214c-0.974-2.221-1.364-4.548-1.253-6.822
		c2.361-0.481,4.981,0.306,6.593,2.905C121.614,99.153,121.86,99.485,122.117,99.79z"/>
	<path clip-path="url(#SVGID_2_)" fill-rule="evenodd" clip-rule="evenodd" fill="#801FC6" d="M134.076,100.031
		c-0.054,0.059-0.113,0.122-0.172,0.182c-3.355,3.392-8.802,3.071-11.787-0.423c2.092-1.354,4.039-2.91,5.811-4.645
		C129.828,97.008,131.888,98.64,134.076,100.031"/>
	
		<path clip-path="url(#SVGID_2_)" fill="none" stroke="#000000" stroke-width="0.401" stroke-linecap="round" stroke-linejoin="round" d="
		M134.076,100.031c-0.054,0.059-0.113,0.122-0.172,0.182c-3.355,3.392-8.802,3.071-11.787-0.423c2.092-1.354,4.039-2.91,5.811-4.645
		C129.828,97.008,131.888,98.64,134.076,100.031z"/>
	<path clip-path="url(#SVGID_2_)" fill-rule="evenodd" clip-rule="evenodd" fill="#611F45" d="M127.928,95.146
		c2.061-2.017,3.891-4.264,5.441-6.709c3.457,2.895,3.869,8.202,0.707,11.595C131.887,98.64,129.827,97.008,127.928,95.146"/>
	
		<path clip-path="url(#SVGID_2_)" fill="none" stroke="#000000" stroke-width="0.401" stroke-linecap="round" stroke-linejoin="round" d="
		M127.928,95.146c2.061-2.017,3.891-4.264,5.441-6.709c3.457,2.895,3.869,8.202,0.707,11.595
		C131.887,98.64,129.827,97.008,127.928,95.146z"/>
	<path clip-path="url(#SVGID_2_)" fill-rule="evenodd" clip-rule="evenodd" fill="#617300" d="M129.378,81.305
		c2.278-0.112,4.575,0.277,6.726,1.182c0.09,0.038,0.188,0.075,0.278,0.113c-0.835,2.044-1.847,3.997-3.013,5.837
		c-0.311-0.262-0.647-0.503-1.006-0.722C129.806,86.168,128.977,83.632,129.378,81.305"/>
	
		<path clip-path="url(#SVGID_2_)" fill="none" stroke="#000000" stroke-width="0.401" stroke-linecap="round" stroke-linejoin="round" d="
		M129.378,81.305c2.278-0.112,4.575,0.277,6.726,1.182c0.09,0.038,0.188,0.075,0.278,0.113c-0.835,2.044-1.847,3.997-3.013,5.837
		c-0.311-0.262-0.647-0.503-1.006-0.722C129.806,86.168,128.977,83.632,129.378,81.305z"/>
	<path clip-path="url(#SVGID_2_)" fill-rule="evenodd" clip-rule="evenodd" fill="#613600" d="M136.381,82.6
		c-0.09-0.037-0.187-0.075-0.277-0.112c-2.15-0.905-4.445-1.295-6.727-1.183c0.567-3.29,3.602-6.153,7.722-5.185
		c0.412,0.096,0.819,0.16,1.226,0.192C137.858,78.485,137.205,80.587,136.381,82.6"/>
	
		<path clip-path="url(#SVGID_2_)" fill="none" stroke="#000000" stroke-width="0.401" stroke-linecap="round" stroke-linejoin="round" d="
		M136.381,82.6c-0.09-0.037-0.187-0.075-0.277-0.112c-2.15-0.905-4.445-1.295-6.727-1.183c0.567-3.29,3.602-6.153,7.722-5.185
		c0.412,0.096,0.819,0.16,1.226,0.192C137.858,78.485,137.205,80.587,136.381,82.6z"/>
	<path clip-path="url(#SVGID_2_)" fill-rule="evenodd" clip-rule="evenodd" fill="#610F00" d="M146.943,68.501
		c-0.096,4.649-4.114,8.165-8.62,7.812c0.536-2.52,0.819-5.131,0.819-7.812H146.943z"/>
	
		<path clip-path="url(#SVGID_2_)" fill="none" stroke="#000000" stroke-width="0.401" stroke-linecap="round" stroke-linejoin="round" d="
		M146.943,68.501c-0.096,4.649-4.114,8.165-8.62,7.812c0.536-2.52,0.819-5.131,0.819-7.812H146.943z"/>
	<path clip-path="url(#SVGID_2_)" fill-rule="evenodd" clip-rule="evenodd" fill="#981400" d="M138.244,60.325
		c4.574-0.406,8.684,3.189,8.704,7.956c0,0.075,0,0.145-0.005,0.22h-7.801v-0.107C139.131,65.622,138.826,62.921,138.244,60.325"/>
	
		<path clip-path="url(#SVGID_2_)" fill="none" stroke="#000000" stroke-width="0.401" stroke-linecap="round" stroke-linejoin="round" d="
		M138.244,60.325c4.574-0.406,8.684,3.189,8.704,7.956c0,0.075,0,0.145-0.005,0.22h-7.801v-0.107
		C139.131,65.622,138.826,62.921,138.244,60.325z"/>
	<path clip-path="url(#SVGID_2_)" fill-rule="evenodd" clip-rule="evenodd" fill="#985E00" d="M146.943,68.501
		c0.005-0.075,0.005-0.145,0.005-0.219c-0.021-4.769-4.13-8.363-8.705-7.956c-0.471-2.108-1.123-4.152-1.937-6.111
		c7.629-3.488,16.795,0.498,20.074,8.063c0.883,2.033,1.291,4.146,1.273,6.223H146.943z"/>
	
		<path clip-path="url(#SVGID_2_)" fill="none" stroke="#000000" stroke-width="0.401" stroke-linecap="round" stroke-linejoin="round" d="
		M146.943,68.501c0.005-0.075,0.005-0.145,0.005-0.219c-0.021-4.769-4.13-8.363-8.705-7.956c-0.471-2.108-1.123-4.152-1.937-6.111
		c7.629-3.488,16.795,0.498,20.074,8.063c0.883,2.033,1.291,4.146,1.273,6.223H146.943z"/>
	<path clip-path="url(#SVGID_2_)" fill-rule="evenodd" clip-rule="evenodd" fill="#614700" d="M138.324,76.313
		c4.504,0.353,8.522-3.162,8.619-7.812h10.711c-0.043,6.02-3.644,11.723-9.588,14.142c-3.836,1.562-7.881,1.476-11.685-0.043
		C137.205,80.588,137.859,78.484,138.324,76.313"/>
	
		<path clip-path="url(#SVGID_2_)" fill="none" stroke="#000000" stroke-width="0.401" stroke-linecap="round" stroke-linejoin="round" d="
		M138.324,76.313c4.504,0.353,8.522-3.162,8.619-7.812h10.711c-0.043,6.02-3.644,11.723-9.588,14.142
		c-3.836,1.562-7.881,1.476-11.685-0.043C137.205,80.588,137.859,78.484,138.324,76.313z"/>
	<path clip-path="url(#SVGID_2_)" fill-rule="evenodd" clip-rule="evenodd" fill="#619559" d="M191.432,68.501v0.401
		c-0.166,15.249-9.593,28.87-23.799,34.397c-11.235,4.371-23.68,2.996-33.557-3.269c3.162-3.393,2.75-8.7-0.707-11.595
		c1.166-1.841,2.178-3.794,3.013-5.838c3.804,1.521,7.849,1.605,11.685,0.043c5.944-2.418,9.545-8.122,9.588-14.141H191.432z"/>
	
		<path clip-path="url(#SVGID_2_)" fill="none" stroke="#000000" stroke-width="0.401" stroke-linecap="round" stroke-linejoin="round" d="
		M191.432,68.501v0.401c-0.166,15.249-9.593,28.87-23.799,34.397c-11.235,4.371-23.68,2.996-33.557-3.269
		c3.162-3.393,2.75-8.7-0.707-11.595c1.166-1.841,2.178-3.794,3.013-5.838c3.804,1.521,7.849,1.605,11.685,0.043
		c5.944-2.418,9.545-8.122,9.588-14.141H191.432z"/>
	<path clip-path="url(#SVGID_2_)" fill-rule="evenodd" clip-rule="evenodd" fill="#9D1200" d="M94.06,104.942
		c2.52,0.535,5.136,0.819,7.817,0.819v7.811C97.222,113.472,93.702,109.447,94.06,104.942"/>
	
		<path clip-path="url(#SVGID_2_)" fill="none" stroke="#000000" stroke-width="0.401" stroke-linecap="round" stroke-linejoin="round" d="
		M94.06,104.942c2.52,0.535,5.136,0.819,7.817,0.819v7.811C97.222,113.472,93.702,109.447,94.06,104.942z"/>
	<path clip-path="url(#SVGID_2_)" fill-rule="evenodd" clip-rule="evenodd" fill="#800F00" d="M101.877,105.761h0.102
		c2.771-0.005,5.468-0.315,8.068-0.898c0.4,4.575-3.189,8.688-7.945,8.716c-0.075,0-0.15,0-0.225-0.005V105.761z"/>
	
		<path clip-path="url(#SVGID_2_)" fill="none" stroke="#000000" stroke-width="0.401" stroke-linecap="round" stroke-linejoin="round" d="
		M101.877,105.761h0.102c2.771-0.005,5.468-0.315,8.068-0.898c0.4,4.575-3.189,8.688-7.945,8.716c-0.075,0-0.15,0-0.225-0.005
		V105.761z"/>
	<path clip-path="url(#SVGID_2_)" fill-rule="evenodd" clip-rule="evenodd" fill="#9D5C00" d="M94.06,104.942
		c-0.358,4.505,3.162,8.529,7.817,8.63v10.701c-6.035-0.037-11.744-3.654-14.152-9.604c-1.546-3.819-1.477-7.886,0.048-11.669
		C89.785,103.824,91.888,104.478,94.06,104.942"/>
	
		<path clip-path="url(#SVGID_2_)" fill="none" stroke="#000000" stroke-width="0.401" stroke-linecap="round" stroke-linejoin="round" d="
		M94.06,104.942c-0.358,4.505,3.162,8.529,7.817,8.63v10.701c-6.035-0.037-11.744-3.654-14.152-9.604
		c-1.546-3.819-1.477-7.886,0.048-11.669C89.785,103.824,91.888,104.478,94.06,104.942z"/>
	<path clip-path="url(#SVGID_2_)" fill-rule="evenodd" clip-rule="evenodd" fill="#804700" d="M116.152,102.931
		c3.301,7.828-0.392,16.875-8.257,20.155c-1.969,0.818-4.012,1.204-6.019,1.188v-10.701c0.075,0.006,0.15,0.006,0.225,0.006
		c4.756-0.026,8.346-4.142,7.945-8.716C112.154,104.392,114.193,103.744,116.152,102.931"/>
	
		<path clip-path="url(#SVGID_2_)" fill="none" stroke="#000000" stroke-width="0.401" stroke-linecap="round" stroke-linejoin="round" d="
		M116.152,102.931c3.301,7.828-0.392,16.875-8.257,20.155c-1.969,0.818-4.012,1.204-6.019,1.188v-10.701
		c0.075,0.006,0.15,0.006,0.225,0.006c4.756-0.026,8.346-4.142,7.945-8.716C112.154,104.392,114.193,103.744,116.152,102.931z"/>
	<path clip-path="url(#SVGID_2_)" fill-rule="evenodd" clip-rule="evenodd" fill="#9DBEFF" d="M87.773,103
		c-1.525,3.783-1.594,7.85-0.048,11.669c2.408,5.95,8.116,9.567,14.152,9.604v3.248c0,4.365,3.476,7.913,7.817,8.024H9.631
		c-4.431,0-8.026-3.59-8.026-8.024v-51c0-4.431,3.595-8.021,8.026-8.021h2.691c0,0.133,0.005,0.268,0.005,0.401
		c0.161,15.249,9.583,28.871,23.799,34.397c11.241,4.376,23.691,2.996,33.568-3.279c0.144,0.171,0.3,0.342,0.466,0.503
		c3.386,3.354,8.833,2.984,11.776-0.535C83.782,101.154,85.729,102.165,87.773,103"/>
	
		<path clip-path="url(#SVGID_2_)" fill="none" stroke="#000000" stroke-width="0.401" stroke-linecap="round" stroke-linejoin="round" d="
		M87.773,103c-1.525,3.783-1.594,7.85-0.048,11.669c2.408,5.95,8.116,9.567,14.152,9.604v3.248c0,4.365,3.476,7.913,7.817,8.024
		H9.631c-4.431,0-8.026-3.59-8.026-8.024v-51c0-4.431,3.595-8.021,8.026-8.021h2.691c0,0.133,0.005,0.268,0.005,0.401
		c0.161,15.249,9.583,28.871,23.799,34.397c11.241,4.376,23.691,2.996,33.568-3.279c0.144,0.171,0.3,0.342,0.466,0.503
		c3.386,3.354,8.833,2.984,11.776-0.535C83.782,101.154,85.729,102.165,87.773,103z"/>
	<path clip-path="url(#SVGID_2_)" fill-rule="evenodd" clip-rule="evenodd" fill="#8095FF" d="M134.076,100.031
		c9.877,6.265,22.321,7.64,33.557,3.269c14.205-5.527,23.633-19.149,23.799-34.398v-0.4h2.781c4.361,0,7.914,3.478,8.027,7.812
		c0.004,17.067,0.004,34.136,0.004,51.208c0,4.437-3.6,8.026-8.031,8.026h-84.311c-4.436,0-8.026-3.59-8.026-8.026v-3.247
		c2.006,0.017,4.051-0.37,6.02-1.188c7.865-3.28,11.557-12.327,8.255-20.155c2.093-0.867,4.088-1.921,5.966-3.141
		c2.985,3.494,8.432,3.814,11.787,0.423C133.963,100.153,134.022,100.09,134.076,100.031"/>
	
		<path clip-path="url(#SVGID_2_)" fill="none" stroke="#000000" stroke-width="0.401" stroke-linecap="round" stroke-linejoin="round" d="
		M134.076,100.031c9.877,6.265,22.321,7.64,33.557,3.269c14.205-5.527,23.633-19.149,23.799-34.398v-0.4h2.781
		c4.361,0,7.914,3.478,8.027,7.812c0.004,17.067,0.004,34.136,0.004,51.208c0,4.437-3.6,8.026-8.031,8.026h-84.311
		c-4.436,0-8.026-3.59-8.026-8.026v-3.247c2.006,0.017,4.051-0.37,6.02-1.188c7.865-3.28,11.557-12.327,8.255-20.155
		c2.093-0.867,4.088-1.921,5.966-3.141c2.985,3.494,8.432,3.814,11.787,0.423C133.963,100.153,134.022,100.09,134.076,100.031z"/>
	<path clip-path="url(#SVGID_2_)" fill-rule="evenodd" clip-rule="evenodd" fill="#98C659" d="M157.654,68.501
		c0.017-2.076-0.391-4.189-1.272-6.223c-3.28-7.565-12.445-11.552-20.075-8.063c-0.867-2.092-1.921-4.082-3.135-5.96
		c3.322-2.83,3.771-7.908,0.893-11.279c10.118-6.431,22.91-7.698,34.313-2.984c13.97,5.789,23.06,19.411,23.055,34.51H157.654z"/>
	
		<path clip-path="url(#SVGID_2_)" fill="none" stroke="#000000" stroke-width="0.401" stroke-linecap="round" stroke-linejoin="round" d="
		M157.654,68.501c0.017-2.076-0.391-4.189-1.272-6.223c-3.28-7.565-12.445-11.552-20.075-8.063c-0.867-2.092-1.921-4.082-3.135-5.96
		c3.322-2.83,3.771-7.908,0.893-11.279c10.118-6.431,22.91-7.698,34.313-2.984c13.97,5.789,23.06,19.411,23.055,34.51H157.654z"/>
	<path clip-path="url(#SVGID_2_)" fill-rule="evenodd" clip-rule="evenodd" fill="#CBC6FF" d="M191.432,68.501
		c0.005-15.099-9.085-28.721-23.055-34.51c-11.402-4.714-24.194-3.446-34.313,2.984c-0.144-0.176-0.305-0.342-0.465-0.508
		c-3.393-3.349-8.839-2.984-11.787,0.541c-1.841-1.172-3.794-2.183-5.832-3.018c1.535-3.756,1.578-7.87,0.053-11.659
		c-2.406-5.949-8.115-9.571-14.156-9.614V9.631c0-4.431,3.59-8.026,8.025-8.026h84.312c4.43,0,8.03,3.596,8.03,8.026
		c0,22.231,0,44.456-0.004,66.682c-0.113-4.334-3.666-7.812-8.026-7.812H191.432z"/>
	
		<path clip-path="url(#SVGID_2_)" fill="none" stroke="#000000" stroke-width="0.401" stroke-linecap="round" stroke-linejoin="round" d="
		M191.432,68.501c0.005-15.099-9.085-28.721-23.055-34.51c-11.402-4.714-24.194-3.446-34.313,2.984
		c-0.144-0.176-0.305-0.342-0.465-0.508c-3.393-3.349-8.839-2.984-11.787,0.541c-1.841-1.172-3.794-2.183-5.832-3.018
		c1.535-3.756,1.578-7.87,0.053-11.659c-2.406-5.949-8.115-9.571-14.156-9.614V9.631c0-4.431,3.59-8.026,8.025-8.026h84.312
		c4.43,0,8.03,3.596,8.03,8.026c0,22.231,0,44.456-0.004,66.682c-0.113-4.334-3.666-7.812-8.026-7.812H191.432z"/>
</g>
<line fill="none" stroke="#000000" stroke-width="0" stroke-linecap="round" stroke-linejoin="round" x1="127.917" y1="95.13" x2="127.934" y2="95.146"/>
<g>
	<defs>
		<rect id="SVGID_3_" width="203.85" height="136.8"/>
	</defs>
	<clipPath id="SVGID_4_">
		<use xlink:href="#SVGID_3_"  overflow="visible"/>
	</clipPath>
	
		<path clip-path="url(#SVGID_4_)" fill="none" stroke="#000000" stroke-width="0" stroke-linecap="round" stroke-linejoin="round" d="
		M75.81,95.167c0.005-0.011,0.011-0.016,0.016-0.021"/>
	
		<path clip-path="url(#SVGID_4_)" fill="none" stroke="#000000" stroke-width="0" stroke-linecap="round" stroke-linejoin="round" d="
		M75.826,95.146c0.005-0.005,0.011-0.011,0.016-0.011"/>
	
		<path clip-path="url(#SVGID_4_)" fill="none" stroke="#000000" stroke-width="0" stroke-linecap="round" stroke-linejoin="round" d="
		M127.934,95.146c0.005,0.006,0.011,0.017,0.016,0.021"/>
</g>
<line fill="none" stroke="#000000" stroke-width="0.535" stroke-linecap="round" stroke-linejoin="round" x1="139.148" y1="68.501" x2="64.612" y2="68.501"/>
<line fill="none" stroke="#000000" stroke-width="0.535" stroke-linecap="round" stroke-linejoin="round" x1="146.949" y1="68.501" x2="139.147" y2="68.501"/>
<line fill="none" stroke="#000000" stroke-width="1.07" stroke-linecap="round" stroke-linejoin="round" x1="157.66" y1="68.501" x2="146.949" y2="68.501"/>
<line fill="none" stroke="#000000" stroke-width="1.605" stroke-linecap="round" stroke-linejoin="round" x1="191.438" y1="68.501" x2="157.66" y2="68.501"/>
<line fill="none" stroke="#000000" stroke-width="1.605" stroke-linecap="round" stroke-linejoin="round" x1="101.882" y1="113.572" x2="101.882" y2="124.273"/>
<line fill="none" stroke="#000000" stroke-width="1.07" stroke-linecap="round" stroke-linejoin="round" x1="101.882" y1="105.761" x2="101.882" y2="113.573"/>
<line fill="none" stroke="#000000" stroke-width="0.535" stroke-linecap="round" stroke-linejoin="round" x1="101.882" y1="83.852" x2="101.882" y2="105.761"/>
<line fill="none" stroke="#000000" stroke-width="0.535" stroke-linecap="round" stroke-linejoin="round" x1="101.882" y1="53.118" x2="101.882" y2="83.852"/>
<line fill="none" stroke="#000000" stroke-width="0.535" stroke-linecap="round" stroke-linejoin="round" x1="101.882" y1="31.23" x2="101.882" y2="53.118"/>
<line fill="none" stroke="#000000" stroke-width="1.07" stroke-linecap="round" stroke-linejoin="round" x1="101.882" y1="23.424" x2="101.882" y2="31.229"/>
<line fill="none" stroke="#000000" stroke-width="1.605" stroke-linecap="round" stroke-linejoin="round" x1="101.882" y1="12.718" x2="101.882" y2="23.424"/>
<g>
	<defs>
		<rect id="SVGID_5_" width="203.85" height="136.8"/>
	</defs>
	<clipPath id="SVGID_6_">
		<use xlink:href="#SVGID_5_"  overflow="visible"/>
	</clipPath>
	
		<path clip-path="url(#SVGID_6_)" fill="none" stroke="#000000" stroke-width="0" stroke-linecap="round" stroke-linejoin="round" d="
		M127.934,95.146c0.005,0.006,0.011,0.017,0.016,0.021"/>
	
		<path clip-path="url(#SVGID_6_)" fill="none" stroke="#000000" stroke-width="0.535" stroke-linecap="round" stroke-linejoin="round" d="
		M126.842,94.033c0.375,0.364,0.738,0.732,1.091,1.113"/>
	
		<path clip-path="url(#SVGID_6_)" fill="none" stroke="#000000" stroke-width="0.535" stroke-linecap="round" stroke-linejoin="round" d="
		M129.276,55.553c-0.481-2.354,0.31-4.97,2.905-6.576c0.353-0.219,0.685-0.46,0.99-0.722"/>
	
		<path clip-path="url(#SVGID_6_)" fill="none" stroke="#000000" stroke-width="0.535" stroke-linecap="round" stroke-linejoin="round" d="
		M138.249,60.325c-0.407,0.037-0.813,0.103-1.226,0.203c-4.051,0.996-7.09-1.749-7.748-4.976"/>
	
		<path clip-path="url(#SVGID_6_)" fill="none" stroke="#000000" stroke-width="0.535" stroke-linecap="round" stroke-linejoin="round" d="
		M146.949,68.501c0.004-0.075,0.004-0.15,0.004-0.219c-0.021-4.769-4.129-8.363-8.705-7.956"/>
	
		<path clip-path="url(#SVGID_6_)" fill="none" stroke="#000000" stroke-width="0.535" stroke-linecap="round" stroke-linejoin="round" d="
		M138.329,76.313c4.5,0.353,8.522-3.162,8.619-7.812"/>
	
		<path clip-path="url(#SVGID_6_)" fill="none" stroke="#000000" stroke-width="0.535" stroke-linecap="round" stroke-linejoin="round" d="
		M129.378,81.305c0.567-3.29,3.606-6.153,7.726-5.186c0.412,0.098,0.819,0.161,1.225,0.193"/>
	
		<path clip-path="url(#SVGID_6_)" fill="none" stroke="#000000" stroke-width="0.535" stroke-linecap="round" stroke-linejoin="round" d="
		M133.369,88.437c-0.311-0.262-0.643-0.503-1.006-0.722c-2.553-1.547-3.387-4.083-2.984-6.41"/>
	
		<path clip-path="url(#SVGID_6_)" fill="none" stroke="#000000" stroke-width="1.07" stroke-linecap="round" stroke-linejoin="round" d="
		M134.081,100.031c3.161-3.397,2.75-8.7-0.712-11.595"/>
	
		<path clip-path="url(#SVGID_6_)" fill="none" stroke="#000000" stroke-width="1.07" stroke-linecap="round" stroke-linejoin="round" d="
		M122.123,99.79c2.979,3.494,8.432,3.815,11.787,0.423c0.059-0.064,0.117-0.123,0.17-0.182"/>
	
		<path clip-path="url(#SVGID_6_)" fill="none" stroke="#000000" stroke-width="0.535" stroke-linecap="round" stroke-linejoin="round" d="
		M114.809,95.895c2.359-0.481,4.98,0.306,6.592,2.905c0.219,0.354,0.461,0.686,0.723,0.99"/>
	
		<path clip-path="url(#SVGID_6_)" fill="none" stroke="#000000" stroke-width="0.535" stroke-linecap="round" stroke-linejoin="round" d="
		M110.047,104.862c-0.031-0.401-0.102-0.808-0.203-1.22c-0.99-4.045,1.744-7.084,4.965-7.747"/>
	
		<path clip-path="url(#SVGID_6_)" fill="none" stroke="#000000" stroke-width="1.07" stroke-linecap="round" stroke-linejoin="round" d="
		M101.882,113.572c0.075,0.005,0.15,0.005,0.219,0.005c4.762-0.025,8.352-4.135,7.946-8.715"/>
	
		<path clip-path="url(#SVGID_6_)" fill="none" stroke="#000000" stroke-width="1.07" stroke-linecap="round" stroke-linejoin="round" d="
		M94.065,104.942c-0.358,4.505,3.162,8.529,7.817,8.63"/>
	
		<path clip-path="url(#SVGID_6_)" fill="none" stroke="#000000" stroke-width="0.535" stroke-linecap="round" stroke-linejoin="round" d="
		M89.073,95.997c3.29,0.566,6.153,3.605,5.179,7.726c-0.096,0.407-0.155,0.813-0.187,1.22"/>
	
		<path clip-path="url(#SVGID_6_)" fill="none" stroke="#000000" stroke-width="0.535" stroke-linecap="round" stroke-linejoin="round" d="
		M81.941,99.988c0.262-0.311,0.503-0.647,0.717-1.006c1.552-2.558,4.088-3.388,6.415-2.985"/>
	
		<path clip-path="url(#SVGID_6_)" fill="none" stroke="#000000" stroke-width="1.07" stroke-linecap="round" stroke-linejoin="round" d="
		M69.694,100.021c0.15,0.171,0.305,0.342,0.471,0.503c3.381,3.354,8.833,2.984,11.776-0.535"/>
	
		<path clip-path="url(#SVGID_6_)" fill="none" stroke="#000000" stroke-width="1.07" stroke-linecap="round" stroke-linejoin="round" d="
		M70.588,88.741c-3.328,2.836-3.777,7.908-0.894,11.279"/>
	
		<path clip-path="url(#SVGID_6_)" fill="none" stroke="#000000" stroke-width="0.535" stroke-linecap="round" stroke-linejoin="round" d="
		M74.478,81.422c0.487,2.365-0.3,4.987-2.895,6.592c-0.358,0.225-0.69,0.466-0.995,0.728"/>
	
		<path clip-path="url(#SVGID_6_)" fill="none" stroke="#000000" stroke-width="0.535" stroke-linecap="round" stroke-linejoin="round" d="
		M65.51,76.666c0.407-0.032,0.813-0.103,1.22-0.203c4.05-0.99,7.084,1.744,7.747,4.959"/>
	
		<path clip-path="url(#SVGID_6_)" fill="none" stroke="#000000" stroke-width="0.535" stroke-linecap="round" stroke-linejoin="round" d="
		M56.811,68.501c-0.005,0.07-0.005,0.139-0.005,0.214c0.021,4.767,4.13,8.357,8.705,7.951"/>
	
		<path clip-path="url(#SVGID_6_)" fill="none" stroke="#000000" stroke-width="0.535" stroke-linecap="round" stroke-linejoin="round" d="
		M65.436,60.684c-4.51-0.357-8.534,3.162-8.625,7.817"/>
	
		<path clip-path="url(#SVGID_6_)" fill="none" stroke="#000000" stroke-width="0.535" stroke-linecap="round" stroke-linejoin="round" d="
		M74.381,55.692c-0.562,3.29-3.606,6.152-7.726,5.179c-0.412-0.096-0.819-0.155-1.22-0.187"/>
	
		<path clip-path="url(#SVGID_6_)" fill="none" stroke="#000000" stroke-width="1.07" stroke-linecap="round" stroke-linejoin="round" d="
		M70.39,48.56c0.31,0.263,0.642,0.498,1.001,0.718c2.557,1.552,3.392,4.088,2.99,6.415"/>
	
		<path clip-path="url(#SVGID_6_)" fill="none" stroke="#000000" stroke-width="1.605" stroke-linecap="round" stroke-linejoin="round" d="
		M69.678,36.966c-3.167,3.392-2.75,8.7,0.712,11.594"/>
	
		<path clip-path="url(#SVGID_6_)" fill="none" stroke="#000000" stroke-width="1.605" stroke-linecap="round" stroke-linejoin="round" d="
		M88.945,41.097c-2.354,0.486-4.976-0.301-6.586-2.896c-0.22-0.358-0.46-0.69-0.723-0.995"/>
	
		<path clip-path="url(#SVGID_6_)" fill="none" stroke="#000000" stroke-width="1.07" stroke-linecap="round" stroke-linejoin="round" d="
		M93.707,32.129c0.037,0.407,0.107,0.813,0.203,1.22c0.995,4.051-1.739,7.09-4.965,7.747"/>
	
		<path clip-path="url(#SVGID_6_)" fill="none" stroke="#000000" stroke-width="1.07" stroke-linecap="round" stroke-linejoin="round" d="
		M101.882,23.424h-0.219c-4.768,0.021-8.358,4.13-7.956,8.705"/>
	
		<path clip-path="url(#SVGID_6_)" fill="none" stroke="#000000" stroke-width="1.07" stroke-linecap="round" stroke-linejoin="round" d="
		M109.693,32.049c0.358-4.505-3.162-8.523-7.812-8.625"/>
	
		<path clip-path="url(#SVGID_6_)" fill="none" stroke="#000000" stroke-width="1.07" stroke-linecap="round" stroke-linejoin="round" d="
		M114.691,41c-3.291-0.567-6.158-3.612-5.19-7.727c0.097-0.411,0.161-0.818,0.192-1.225"/>
	
		<path clip-path="url(#SVGID_6_)" fill="none" stroke="#000000" stroke-width="1.07" stroke-linecap="round" stroke-linejoin="round" d="
		M121.818,37.009c-0.263,0.31-0.504,0.642-0.718,1.001c-1.552,2.557-4.088,3.392-6.409,2.989"/>
	
		<path clip-path="url(#SVGID_6_)" fill="none" stroke="#000000" stroke-width="1.07" stroke-linecap="round" stroke-linejoin="round" d="
		M134.07,36.971c-0.15-0.171-0.305-0.337-0.471-0.503c-3.388-3.349-8.834-2.984-11.781,0.54"/>
	
		<path clip-path="url(#SVGID_6_)" fill="none" stroke="#000000" stroke-width="1.07" stroke-linecap="round" stroke-linejoin="round" d="
		M133.172,48.255c3.328-2.836,3.776-7.908,0.898-11.284"/>
	
		<path clip-path="url(#SVGID_6_)" fill="none" stroke="#000000" stroke-width="0.535" stroke-linecap="round" stroke-linejoin="round" d="
		M64.611,68.501v0.107c0.011,2.766,0.321,5.463,0.899,8.058"/>
	
		<path clip-path="url(#SVGID_6_)" fill="none" stroke="#000000" stroke-width="0.535" stroke-linecap="round" stroke-linejoin="round" d="
		M65.436,60.684c-0.54,2.521-0.824,5.137-0.824,7.817"/>
	
		<path clip-path="url(#SVGID_6_)" fill="none" stroke="#000000" stroke-width="0.535" stroke-linecap="round" stroke-linejoin="round" d="
		M67.377,54.392c-0.824,2.018-1.477,4.12-1.942,6.292"/>
	
		<path clip-path="url(#SVGID_6_)" fill="none" stroke="#000000" stroke-width="1.07" stroke-linecap="round" stroke-linejoin="round" d="
		M70.39,48.56c-1.166,1.842-2.178,3.793-3.012,5.832"/>
	
		<path clip-path="url(#SVGID_6_)" fill="none" stroke="#000000" stroke-width="1.07" stroke-linecap="round" stroke-linejoin="round" d="
		M75.831,41.851c-2.06,2.012-3.89,4.264-5.441,6.709"/>
	
		<path clip-path="url(#SVGID_6_)" fill="none" stroke="#000000" stroke-width="1.605" stroke-linecap="round" stroke-linejoin="round" d="
		M81.636,37.206c-2.092,1.354-4.034,2.911-5.805,4.645"/>
	
		<path clip-path="url(#SVGID_6_)" fill="none" stroke="#000000" stroke-width="1.605" stroke-linecap="round" stroke-linejoin="round" d="
		M93.707,32.129c-2.108,0.471-4.147,1.124-6.105,1.931"/>
	
		<path clip-path="url(#SVGID_6_)" fill="none" stroke="#000000" stroke-width="1.07" stroke-linecap="round" stroke-linejoin="round" d="
		M101.882,31.23h-0.107c-2.771,0.011-5.468,0.315-8.068,0.898"/>
	
		<path clip-path="url(#SVGID_6_)" fill="none" stroke="#000000" stroke-width="1.07" stroke-linecap="round" stroke-linejoin="round" d="
		M109.693,32.049c-2.52-0.535-5.131-0.819-7.812-0.819"/>
	
		<path clip-path="url(#SVGID_6_)" fill="none" stroke="#000000" stroke-width="1.605" stroke-linecap="round" stroke-linejoin="round" d="
		M115.98,33.991c-2.012-0.824-4.113-1.478-6.287-1.942"/>
	
		<path clip-path="url(#SVGID_6_)" fill="none" stroke="#000000" stroke-width="1.605" stroke-linecap="round" stroke-linejoin="round" d="
		M121.818,37.009c-1.842-1.172-3.793-2.184-5.838-3.019"/>
	
		<path clip-path="url(#SVGID_6_)" fill="none" stroke="#000000" stroke-width="1.07" stroke-linecap="round" stroke-linejoin="round" d="
		M127.934,41.851c-1.862-1.819-3.911-3.446-6.116-4.842"/>
	
		<path clip-path="url(#SVGID_6_)" fill="none" stroke="#000000" stroke-width="0.535" stroke-linecap="round" stroke-linejoin="round" d="
		M133.172,48.255c-1.504-2.327-3.265-4.473-5.238-6.404"/>
	
		<path clip-path="url(#SVGID_6_)" fill="none" stroke="#000000" stroke-width="0.535" stroke-linecap="round" stroke-linejoin="round" d="
		M136.313,54.216c-0.867-2.093-1.922-4.082-3.142-5.96"/>
</g>
<line fill="none" stroke="#000000" stroke-width="0.535" stroke-linecap="round" stroke-linejoin="round" x1="64.611" y1="68.501" x2="56.811" y2="68.501"/>
<g>
	<defs>
		<rect id="SVGID_7_" width="203.85" height="136.8"/>
	</defs>
	<clipPath id="SVGID_8_">
		<use xlink:href="#SVGID_7_"  overflow="visible"/>
	</clipPath>
	
		<path clip-path="url(#SVGID_8_)" fill="none" stroke="#000000" stroke-width="0.535" stroke-linecap="round" stroke-linejoin="round" d="
		M139.148,68.501v-0.107c-0.012-2.771-0.322-5.473-0.9-8.067"/>
	
		<path clip-path="url(#SVGID_8_)" fill="none" stroke="#000000" stroke-width="0.535" stroke-linecap="round" stroke-linejoin="round" d="
		M138.329,76.313c0.535-2.52,0.819-5.131,0.819-7.812"/>
	
		<path clip-path="url(#SVGID_8_)" fill="none" stroke="#000000" stroke-width="0.535" stroke-linecap="round" stroke-linejoin="round" d="
		M136.387,82.6c0.824-2.013,1.477-4.114,1.942-6.287"/>
	
		<path clip-path="url(#SVGID_8_)" fill="none" stroke="#000000" stroke-width="0.535" stroke-linecap="round" stroke-linejoin="round" d="
		M133.369,88.437c1.172-1.841,2.184-3.793,3.018-5.837"/>
	
		<path clip-path="url(#SVGID_8_)" fill="none" stroke="#000000" stroke-width="0.535" stroke-linecap="round" stroke-linejoin="round" d="
		M127.934,95.146c2.06-2.012,3.89-4.264,5.436-6.709"/>
</g>
<line fill="none" stroke="#000000" stroke-width="0" stroke-linecap="round" stroke-linejoin="round" x1="127.934" y1="95.146" x2="127.934" y2="95.146"/>
<g>
	<defs>
		<rect id="SVGID_9_" width="203.85" height="136.8"/>
	</defs>
	<clipPath id="SVGID_10_">
		<use xlink:href="#SVGID_9_"  overflow="visible"/>
	</clipPath>
	
		<path clip-path="url(#SVGID_10_)" fill="none" stroke="#000000" stroke-width="0.535" stroke-linecap="round" stroke-linejoin="round" d="
		M122.123,99.79c2.092-1.354,4.033-2.911,5.811-4.644"/>
	
		<path clip-path="url(#SVGID_10_)" fill="none" stroke="#000000" stroke-width="1.07" stroke-linecap="round" stroke-linejoin="round" d="
		M116.152,102.931c2.096-0.867,4.092-1.921,5.971-3.141"/>
	
		<path clip-path="url(#SVGID_10_)" fill="none" stroke="#000000" stroke-width="1.07" stroke-linecap="round" stroke-linejoin="round" d="
		M110.047,104.862c2.107-0.471,4.152-1.118,6.105-1.932"/>
	
		<path clip-path="url(#SVGID_10_)" fill="none" stroke="#000000" stroke-width="0.535" stroke-linecap="round" stroke-linejoin="round" d="
		M101.882,105.761h0.102c2.771-0.005,5.468-0.315,8.063-0.898"/>
	
		<path clip-path="url(#SVGID_10_)" fill="none" stroke="#000000" stroke-width="0.535" stroke-linecap="round" stroke-linejoin="round" d="
		M94.065,104.942c2.52,0.54,5.136,0.819,7.817,0.819"/>
	
		<path clip-path="url(#SVGID_10_)" fill="none" stroke="#000000" stroke-width="1.07" stroke-linecap="round" stroke-linejoin="round" d="
		M87.773,103c2.017,0.824,4.12,1.478,6.292,1.942"/>
	
		<path clip-path="url(#SVGID_10_)" fill="none" stroke="#000000" stroke-width="1.07" stroke-linecap="round" stroke-linejoin="round" d="
		M81.941,99.988c1.841,1.166,3.793,2.178,5.832,3.012"/>
	
		<path clip-path="url(#SVGID_10_)" fill="none" stroke="#000000" stroke-width="0.535" stroke-linecap="round" stroke-linejoin="round" d="
		M75.826,95.146c1.862,1.819,3.911,3.44,6.115,4.843"/>
</g>
<line fill="none" stroke="#000000" stroke-width="0" stroke-linecap="round" stroke-linejoin="round" x1="75.826" y1="95.146" x2="75.826" y2="95.146"/>
<g>
	<defs>
		<rect id="SVGID_11_" width="203.85" height="136.8"/>
	</defs>
	<clipPath id="SVGID_12_">
		<use xlink:href="#SVGID_11_"  overflow="visible"/>
	</clipPath>
	
		<path clip-path="url(#SVGID_12_)" fill="none" stroke="#000000" stroke-width="0.535" stroke-linecap="round" stroke-linejoin="round" d="
		M70.588,88.741c1.503,2.327,3.264,4.474,5.238,6.404"/>
	
		<path clip-path="url(#SVGID_12_)" fill="none" stroke="#000000" stroke-width="0.535" stroke-linecap="round" stroke-linejoin="round" d="
		M67.442,82.771c0.872,2.097,1.926,4.093,3.146,5.971"/>
	
		<path clip-path="url(#SVGID_12_)" fill="none" stroke="#000000" stroke-width="0.535" stroke-linecap="round" stroke-linejoin="round" d="
		M65.51,76.666c0.471,2.107,1.124,4.151,1.932,6.104"/>
	
		<path clip-path="url(#SVGID_12_)" fill="none" stroke="#000000" stroke-width="0.535" stroke-linecap="round" stroke-linejoin="round" d="
		M129.276,55.553c2.284,0.112,4.623-0.284,6.864-1.257c0.059-0.027,0.113-0.054,0.172-0.081"/>
	
		<path clip-path="url(#SVGID_12_)" fill="none" stroke="#000000" stroke-width="0.535" stroke-linecap="round" stroke-linejoin="round" d="
		M117.73,49.422c2.766,3.696,7.035,5.911,11.545,6.132"/>
	
		<path clip-path="url(#SVGID_12_)" fill="none" stroke="#000000" stroke-width="1.07" stroke-linecap="round" stroke-linejoin="round" d="
		M114.691,41c0.091,1.76,0.481,3.51,1.177,5.163c0.498,1.188,1.129,2.273,1.862,3.259"/>
	
		<path clip-path="url(#SVGID_12_)" fill="none" stroke="#000000" stroke-width="1.605" stroke-linecap="round" stroke-linejoin="round" d="
		M115.98,33.991c-0.027,0.074-0.059,0.149-0.091,0.225c-0.915,2.161-1.315,4.483-1.198,6.784"/>
	
		<path clip-path="url(#SVGID_12_)" fill="none" stroke="#000000" stroke-width="1.605" stroke-linecap="round" stroke-linejoin="round" d="
		M101.882,12.718c6.042,0.043,11.744,3.66,14.157,9.615c1.525,3.788,1.482,7.901-0.059,11.657"/>
	
		<path clip-path="url(#SVGID_12_)" fill="none" stroke="#000000" stroke-width="1.605" stroke-linecap="round" stroke-linejoin="round" d="
		M88.945,41.097c0.118-2.274-0.278-4.607-1.257-6.832c-0.027-0.07-0.054-0.135-0.086-0.204"/>
	
		<path clip-path="url(#SVGID_12_)" fill="none" stroke="#000000" stroke-width="1.07" stroke-linecap="round" stroke-linejoin="round" d="
		M86.008,49.405c1.755-2.413,2.793-5.308,2.937-8.309"/>
	
		<path clip-path="url(#SVGID_12_)" fill="none" stroke="#000000" stroke-width="0.535" stroke-linecap="round" stroke-linejoin="round" d="
		M74.381,55.692c1.771-0.091,3.531-0.487,5.195-1.193c2.659-1.124,4.837-2.911,6.431-5.094"/>
	
		<path clip-path="url(#SVGID_12_)" fill="none" stroke="#000000" stroke-width="0.535" stroke-linecap="round" stroke-linejoin="round" d="
		M67.377,54.392c0.086,0.037,0.171,0.07,0.262,0.107c2.151,0.91,4.457,1.306,6.742,1.193"/>
	
		<path clip-path="url(#SVGID_12_)" fill="none" stroke="#000000" stroke-width="1.07" stroke-linecap="round" stroke-linejoin="round" d="
		M46.099,68.501c0.043-6.041,3.66-11.749,9.609-14.157c3.82-1.552,7.881-1.466,11.67,0.048"/>
	
		<path clip-path="url(#SVGID_12_)" fill="none" stroke="#000000" stroke-width="1.07" stroke-linecap="round" stroke-linejoin="round" d="
		M67.442,82.771c-7.828,3.301-16.875-0.385-20.155-8.256c-0.819-1.969-1.198-4.007-1.188-6.014"/>
	
		<path clip-path="url(#SVGID_12_)" fill="none" stroke="#000000" stroke-width="0.535" stroke-linecap="round" stroke-linejoin="round" d="
		M74.478,81.422c-2.269-0.111-4.596,0.284-6.816,1.257c-0.075,0.032-0.145,0.065-0.22,0.092"/>
	
		<path clip-path="url(#SVGID_12_)" fill="none" stroke="#000000" stroke-width="0.535" stroke-linecap="round" stroke-linejoin="round" d="
		M86.019,87.559c-2.766-3.676-7.036-5.906-11.541-6.137"/>
	
		<path clip-path="url(#SVGID_12_)" fill="none" stroke="#000000" stroke-width="0.535" stroke-linecap="round" stroke-linejoin="round" d="
		M89.073,95.997c-0.091-1.771-0.487-3.521-1.193-5.186c-0.498-1.177-1.124-2.268-1.862-3.253"/>
	
		<path clip-path="url(#SVGID_12_)" fill="none" stroke="#000000" stroke-width="1.07" stroke-linecap="round" stroke-linejoin="round" d="
		M87.773,103c0.037-0.086,0.075-0.171,0.107-0.257c0.91-2.151,1.311-4.462,1.193-6.747"/>
	
		<path clip-path="url(#SVGID_12_)" fill="none" stroke="#000000" stroke-width="1.605" stroke-linecap="round" stroke-linejoin="round" d="
		M101.882,124.273c-6.035-0.037-11.744-3.654-14.157-9.604c-1.541-3.819-1.471-7.886,0.048-11.669"/>
	
		<path clip-path="url(#SVGID_12_)" fill="none" stroke="#000000" stroke-width="1.605" stroke-linecap="round" stroke-linejoin="round" d="
		M116.152,102.931c3.301,7.828-0.386,16.875-8.257,20.155c-1.969,0.824-4.007,1.204-6.014,1.188"/>
	
		<path clip-path="url(#SVGID_12_)" fill="none" stroke="#000000" stroke-width="1.07" stroke-linecap="round" stroke-linejoin="round" d="
		M114.809,95.895c-0.111,2.274,0.278,4.602,1.252,6.822c0.032,0.069,0.064,0.145,0.092,0.214"/>
	
		<path clip-path="url(#SVGID_12_)" fill="none" stroke="#000000" stroke-width="0.535" stroke-linecap="round" stroke-linejoin="round" d="
		M117.773,87.575c-1.771,2.418-2.814,5.318-2.965,8.32"/>
	
		<path clip-path="url(#SVGID_12_)" fill="none" stroke="#000000" stroke-width="0.535" stroke-linecap="round" stroke-linejoin="round" d="
		M129.378,81.305c-1.771,0.091-3.531,0.492-5.195,1.197c-2.649,1.113-4.821,2.896-6.409,5.073"/>
	
		<path clip-path="url(#SVGID_12_)" fill="none" stroke="#000000" stroke-width="0.535" stroke-linecap="round" stroke-linejoin="round" d="
		M136.387,82.6c-0.096-0.037-0.188-0.075-0.283-0.112c-2.146-0.905-4.447-1.295-6.726-1.183"/>
	
		<path clip-path="url(#SVGID_12_)" fill="none" stroke="#000000" stroke-width="1.07" stroke-linecap="round" stroke-linejoin="round" d="
		M157.66,68.501c-0.043,6.019-3.645,11.723-9.588,14.141c-3.836,1.563-7.887,1.478-11.686-0.043"/>
	
		<path clip-path="url(#SVGID_12_)" fill="none" stroke="#000000" stroke-width="1.07" stroke-linecap="round" stroke-linejoin="round" d="
		M136.313,54.216c7.629-3.488,16.795,0.498,20.074,8.063c0.877,2.033,1.289,4.147,1.273,6.223"/>
	
		<path clip-path="url(#SVGID_12_)" fill="none" stroke="#000000" stroke-width="0.535" stroke-linecap="round" stroke-linejoin="round" d="
		M117.773,87.575c3.258,1.621,6.328,3.771,9.068,6.458"/>
	
		<path clip-path="url(#SVGID_12_)" fill="none" stroke="#000000" stroke-width="0.535" stroke-linecap="round" stroke-linejoin="round" d="
		M101.882,83.852c5.447,0,10.899,1.24,15.891,3.724"/>
	
		<path clip-path="url(#SVGID_12_)" fill="none" stroke="#000000" stroke-width="0.535" stroke-linecap="round" stroke-linejoin="round" d="
		M86.019,87.559c4.981-2.472,10.423-3.708,15.864-3.708"/>
	
		<path clip-path="url(#SVGID_12_)" fill="none" stroke="#000000" stroke-width="0.535" stroke-linecap="round" stroke-linejoin="round" d="
		M76.917,94.033c2.75-2.691,5.827-4.848,9.101-6.475"/>
	
		<path clip-path="url(#SVGID_12_)" fill="none" stroke="#000000" stroke-width="1.07" stroke-linecap="round" stroke-linejoin="round" d="
		M69.694,100.021c2.183-1.392,4.243-3.019,6.132-4.874"/>
	
		<path clip-path="url(#SVGID_12_)" fill="none" stroke="#000000" stroke-width="1.605" stroke-linecap="round" stroke-linejoin="round" d="
		M12.327,68.501c0,0.134,0,0.268,0.005,0.401c0.161,15.249,9.583,28.87,23.794,34.397c11.241,4.377,23.696,2.996,33.568-3.28"/>
	
		<path clip-path="url(#SVGID_12_)" fill="none" stroke="#000000" stroke-width="1.605" stroke-linecap="round" stroke-linejoin="round" d="
		M75.831,41.851c-1.899-1.867-3.965-3.499-6.153-4.885"/>
	
		<path clip-path="url(#SVGID_12_)" fill="none" stroke="#000000" stroke-width="1.07" stroke-linecap="round" stroke-linejoin="round" d="
		M86.008,49.405c-3.494-1.733-6.758-4.077-9.641-7.02c-0.177-0.183-0.354-0.358-0.535-0.535"/>
	
		<path clip-path="url(#SVGID_12_)" fill="none" stroke="#000000" stroke-width="0.535" stroke-linecap="round" stroke-linejoin="round" d="
		M101.882,53.118c-5.447,0-10.893-1.235-15.875-3.713"/>
	
		<path clip-path="url(#SVGID_12_)" fill="none" stroke="#000000" stroke-width="0.535" stroke-linecap="round" stroke-linejoin="round" d="
		M117.73,49.422c-4.977,2.467-10.412,3.696-15.849,3.696"/>
	
		<path clip-path="url(#SVGID_12_)" fill="none" stroke="#000000" stroke-width="0.535" stroke-linecap="round" stroke-linejoin="round" d="
		M127.934,41.851c-0.182,0.177-0.358,0.353-0.535,0.535c-2.889,2.953-6.164,5.297-9.668,7.036"/>
	
		<path clip-path="url(#SVGID_12_)" fill="none" stroke="#000000" stroke-width="1.07" stroke-linecap="round" stroke-linejoin="round" d="
		M134.07,36.971c-2.184,1.392-4.243,3.019-6.137,4.881"/>
	
		<path clip-path="url(#SVGID_12_)" fill="none" stroke="#000000" stroke-width="1.605" stroke-linecap="round" stroke-linejoin="round" d="
		M191.438,68.501c0-15.099-9.086-28.721-23.056-34.51c-11.401-4.714-24.194-3.446-34.312,2.979"/>
	
		<path clip-path="url(#SVGID_12_)" fill="none" stroke="#000000" stroke-width="1.605" stroke-linecap="round" stroke-linejoin="round" d="
		M134.081,100.031c9.877,6.265,22.321,7.64,33.558,3.269c14.205-5.527,23.633-19.149,23.799-34.398v-0.4"/>
	
		<path clip-path="url(#SVGID_12_)" fill="none" stroke="#000000" stroke-width="1.07" stroke-linecap="round" stroke-linejoin="round" d="
		M127.934,95.146c1.894,1.862,3.959,3.494,6.147,4.886"/>
	
		<path clip-path="url(#SVGID_12_)" fill="none" stroke="#000000" stroke-width="0.535" stroke-linecap="round" stroke-linejoin="round" d="
		M75.826,95.146c0.358-0.38,0.717-0.749,1.091-1.112"/>
	
		<path clip-path="url(#SVGID_12_)" fill="none" stroke="#000000" stroke-width="0" stroke-linecap="round" stroke-linejoin="round" d="
		M75.81,95.167c0.005-0.005,0.011-0.016,0.016-0.021"/>
</g>
<line fill="none" stroke="#000000" stroke-width="1.07" stroke-linecap="round" stroke-linejoin="round" x1="56.811" y1="68.501" x2="46.1" y2="68.501"/>
<line fill="none" stroke="#000000" stroke-width="1.605" stroke-linecap="round" stroke-linejoin="round" x1="46.099" y1="68.501" x2="12.327" y2="68.501"/>
<g>
	<defs>
		<rect id="SVGID_13_" width="203.85" height="136.8"/>
	</defs>
	<clipPath id="SVGID_14_">
		<use xlink:href="#SVGID_13_"  overflow="visible"/>
	</clipPath>
	
		<path clip-path="url(#SVGID_14_)" fill="none" stroke="#000000" stroke-width="0.535" stroke-linecap="round" stroke-linejoin="round" d="
		M138.249,60.325c-0.476-2.107-1.124-4.151-1.937-6.109"/>
	
		<path clip-path="url(#SVGID_14_)" fill="none" stroke="#000000" stroke-width="2.14" stroke-linecap="round" stroke-linejoin="round" d="
		M101.882,124.273v3.248c0,4.435,3.59,8.025,8.02,8.025h84.316c4.431,0,8.026-3.591,8.026-8.025V9.631
		c0-4.431-3.596-8.025-8.026-8.025h-84.316c-4.43,0-8.02,3.595-8.02,8.025v3.087"/>
	
		<path clip-path="url(#SVGID_14_)" fill="none" stroke="#000000" stroke-width="2.14" stroke-linecap="round" stroke-linejoin="round" d="
		M81.636,37.206c-2.98-3.499-8.432-3.809-11.787-0.423c-0.059,0.06-0.118,0.118-0.171,0.183"/>
	
		<path clip-path="url(#SVGID_14_)" fill="none" stroke="#000000" stroke-width="2.14" stroke-linecap="round" stroke-linejoin="round" d="
		M87.602,34.061c-2.092,0.872-4.088,1.926-5.966,3.146"/>
	
		<path clip-path="url(#SVGID_14_)" fill="none" stroke="#000000" stroke-width="2.14" stroke-linecap="round" stroke-linejoin="round" d="
		M87.602,34.061c-3.296-7.838,0.396-16.886,8.272-20.16c1.969-0.819,4.007-1.199,6.008-1.183"/>
	
		<path clip-path="url(#SVGID_14_)" fill="none" stroke="#000000" stroke-width="2.14" stroke-linecap="round" stroke-linejoin="round" d="
		M69.678,36.966c-10.118-6.42-22.905-7.689-34.291-2.976c-13.97,5.789-23.06,19.411-23.06,34.511"/>
	
		<path clip-path="url(#SVGID_14_)" fill="none" stroke="#000000" stroke-width="2.14" stroke-linecap="round" stroke-linejoin="round" d="
		M12.327,68.501H9.63c-4.43,0-8.025,3.59-8.025,8.02v51c0,4.437,3.595,8.026,8.025,8.026h184.588c4.431,0,8.026-3.59,8.026-8.026
		v-51c0-4.43-3.596-8.02-8.026-8.02h-2.781"/>
</g>
</svg>
