<?xml version="1.0" encoding="utf-8"?>
<!-- Generator: Adobe Illustrator 14.0.0, SVG Export Plug-In . SVG Version: 6.00 Build 43363)  -->
<!DOCTYPE svg PUBLIC "-//W3C//DTD SVG 1.1//EN" "http://www.w3.org/Graphics/SVG/1.1/DTD/svg11.dtd">
<svg version="1.1" id="Layer_1" xmlns="http://www.w3.org/2000/svg" xmlns:xlink="http://www.w3.org/1999/xlink" x="0px" y="0px"
	 width="471.804px" height="112.66px" viewBox="0 0 471.804 112.66" enable-background="new 0 0 471.804 112.66"
	 xml:space="preserve">
<rect x="7.446" fill="#FFFFFF" width="90.65" height="90.489"/>
<g>
	<g>
		<defs>
			<rect id="SVGID_1_" x="7.445" width="90.653" height="90.49"/>
		</defs>
		<clipPath id="SVGID_2_">
			<use xlink:href="#SVGID_1_"  overflow="visible"/>
		</clipPath>
		
			<ellipse clip-path="url(#SVGID_2_)" fill="none" stroke="#000000" stroke-width="1.6251" cx="52.132" cy="30.376" rx="28.054" ry="28.004"/>
	</g>
	<g>
		<defs>
			<rect id="SVGID_3_" x="7.445" width="90.653" height="90.49"/>
		</defs>
		<clipPath id="SVGID_4_">
			<use xlink:href="#SVGID_3_"  overflow="visible"/>
		</clipPath>
		
			<ellipse clip-path="url(#SVGID_4_)" fill="none" stroke="#000000" stroke-width="1.6251" cx="40.155" cy="58.466" rx="28.054" ry="28.004"/>
	</g>
	<g>
		<defs>
			<rect id="SVGID_5_" x="7.445" width="90.653" height="90.49"/>
		</defs>
		<clipPath id="SVGID_6_">
			<use xlink:href="#SVGID_5_"  overflow="visible"/>
		</clipPath>
		
			<ellipse clip-path="url(#SVGID_6_)" fill="none" stroke="#000000" stroke-width="1.6251" cx="66.836" cy="58.466" rx="28.054" ry="28.004"/>
	</g>
</g>
<rect x="132.015" fill="#FFFFFF" width="90.65" height="90.489"/>
<g>
	<g>
		<defs>
			<rect id="SVGID_7_" x="132.014" width="90.653" height="90.49"/>
		</defs>
		<clipPath id="SVGID_8_">
			<use xlink:href="#SVGID_7_"  overflow="visible"/>
		</clipPath>
		
			<ellipse clip-path="url(#SVGID_8_)" fill="none" stroke="#000000" stroke-width="1.6251" cx="176.7" cy="30.376" rx="28.054" ry="28.004"/>
	</g>
	<g>
		<defs>
			<rect id="SVGID_9_" x="132.014" width="90.653" height="90.49"/>
		</defs>
		<clipPath id="SVGID_10_">
			<use xlink:href="#SVGID_9_"  overflow="visible"/>
		</clipPath>
		
			<ellipse clip-path="url(#SVGID_10_)" fill="none" stroke="#000000" stroke-width="1.6251" cx="164.724" cy="58.466" rx="28.054" ry="28.004"/>
	</g>
	<g>
		<defs>
			<rect id="SVGID_11_" x="132.014" width="90.653" height="90.49"/>
		</defs>
		<clipPath id="SVGID_12_">
			<use xlink:href="#SVGID_11_"  overflow="visible"/>
		</clipPath>
		
			<ellipse clip-path="url(#SVGID_12_)" fill="none" stroke="#000000" stroke-width="1.6251" cx="191.405" cy="58.466" rx="28.054" ry="28.004"/>
	</g>
</g>
<rect x="256.583" fill="#FFFFFF" width="90.65" height="90.489"/>
<g>
	<g>
		<defs>
			<rect id="SVGID_13_" x="256.583" width="90.652" height="90.49"/>
		</defs>
		<clipPath id="SVGID_14_">
			<use xlink:href="#SVGID_13_"  overflow="visible"/>
		</clipPath>
		
			<ellipse clip-path="url(#SVGID_14_)" fill="none" stroke="#000000" stroke-width="1.6251" cx="301.269" cy="30.376" rx="28.055" ry="28.004"/>
	</g>
	<g>
		<defs>
			<rect id="SVGID_15_" x="256.583" width="90.652" height="90.49"/>
		</defs>
		<clipPath id="SVGID_16_">
			<use xlink:href="#SVGID_15_"  overflow="visible"/>
		</clipPath>
		
			<ellipse clip-path="url(#SVGID_16_)" fill="none" stroke="#000000" stroke-width="1.6251" cx="289.292" cy="58.466" rx="28.054" ry="28.004"/>
	</g>
	<g>
		<defs>
			<rect id="SVGID_17_" x="256.583" width="90.652" height="90.49"/>
		</defs>
		<clipPath id="SVGID_18_">
			<use xlink:href="#SVGID_17_"  overflow="visible"/>
		</clipPath>
		
			<ellipse clip-path="url(#SVGID_18_)" fill="none" stroke="#000000" stroke-width="1.6251" cx="315.974" cy="58.466" rx="28.054" ry="28.004"/>
	</g>
</g>
<rect x="381.153" fill="#FFFFFF" width="90.649" height="90.489"/>
<g>
	<g>
		<defs>
			<rect id="SVGID_19_" x="381.152" width="90.652" height="90.49"/>
		</defs>
		<clipPath id="SVGID_20_">
			<use xlink:href="#SVGID_19_"  overflow="visible"/>
		</clipPath>
		
			<ellipse clip-path="url(#SVGID_20_)" fill="none" stroke="#000000" stroke-width="1.6251" cx="425.837" cy="30.376" rx="28.055" ry="28.004"/>
	</g>
	<g>
		<defs>
			<rect id="SVGID_21_" x="381.152" width="90.652" height="90.49"/>
		</defs>
		<clipPath id="SVGID_22_">
			<use xlink:href="#SVGID_21_"  overflow="visible"/>
		</clipPath>
		
			<ellipse clip-path="url(#SVGID_22_)" fill="none" stroke="#000000" stroke-width="1.6251" cx="413.861" cy="58.466" rx="28.055" ry="28.004"/>
	</g>
	<g>
		<defs>
			<rect id="SVGID_23_" x="381.152" width="90.652" height="90.49"/>
		</defs>
		<clipPath id="SVGID_24_">
			<use xlink:href="#SVGID_23_"  overflow="visible"/>
		</clipPath>
		
			<ellipse clip-path="url(#SVGID_24_)" fill="none" stroke="#000000" stroke-width="1.6251" cx="440.542" cy="58.466" rx="28.053" ry="28.004"/>
	</g>
</g>
<g enable-background="new    ">
	<path fill="#231F20" d="M26.363,95.676c0-0.3,0.039-0.617,0.117-0.953s0.228-0.724,0.449-1.164s0.383-0.706,0.484-0.797
		c0.031-0.028,0.065-0.043,0.102-0.043c0.047,0,0.086,0.016,0.119,0.047s0.049,0.069,0.049,0.113c0,0.026-0.009,0.055-0.027,0.086
		c-0.287,0.526-0.491,1.003-0.613,1.43s-0.184,0.854-0.184,1.281c0,0.43,0.061,0.858,0.184,1.285s0.327,0.902,0.613,1.426
		c0.018,0.031,0.027,0.06,0.027,0.086c0,0.044-0.016,0.083-0.049,0.115s-0.072,0.049-0.119,0.049c-0.037,0-0.07-0.015-0.102-0.043
		c-0.096-0.089-0.254-0.348-0.473-0.777s-0.37-0.81-0.453-1.141S26.363,96.012,26.363,95.676z"/>
	<path fill="#231F20" d="M32.281,96.094h-2.156l-0.441,1.199h0.629c0.078,0,0.134,0.015,0.168,0.045s0.051,0.069,0.051,0.119
		c0,0.047-0.017,0.086-0.051,0.117s-0.09,0.047-0.168,0.047h-1.227c-0.078,0-0.134-0.016-0.168-0.047s-0.051-0.07-0.051-0.117
		c0-0.05,0.017-0.089,0.051-0.119s0.09-0.045,0.168-0.045h0.254l1.449-3.914H29.82c-0.078,0-0.134-0.015-0.168-0.045
		s-0.051-0.069-0.051-0.119s0.017-0.089,0.051-0.119s0.09-0.045,0.168-0.045h1.652l1.602,4.242h0.254
		c0.078,0,0.134,0.015,0.168,0.045s0.051,0.069,0.051,0.119c0,0.047-0.017,0.086-0.051,0.117s-0.09,0.047-0.168,0.047h-1.223
		c-0.081,0-0.138-0.016-0.172-0.047s-0.051-0.07-0.051-0.117c0-0.05,0.017-0.089,0.051-0.119s0.091-0.045,0.172-0.045h0.625
		L32.281,96.094z M32.156,95.766l-0.906-2.387h-0.121l-0.879,2.387H32.156z"/>
	<path fill="#231F20" d="M41.883,96.094h-2.156l-0.441,1.199h0.629c0.078,0,0.134,0.015,0.168,0.045s0.051,0.069,0.051,0.119
		c0,0.047-0.017,0.086-0.051,0.117s-0.09,0.047-0.168,0.047h-1.227c-0.078,0-0.134-0.016-0.168-0.047s-0.051-0.07-0.051-0.117
		c0-0.05,0.017-0.089,0.051-0.119s0.09-0.045,0.168-0.045h0.254l1.449-3.914h-0.969c-0.078,0-0.134-0.015-0.168-0.045
		s-0.051-0.069-0.051-0.119s0.017-0.089,0.051-0.119s0.09-0.045,0.168-0.045h1.652l1.602,4.242h0.254
		c0.078,0,0.134,0.015,0.168,0.045s0.051,0.069,0.051,0.119c0,0.047-0.017,0.086-0.051,0.117s-0.09,0.047-0.168,0.047h-1.223
		c-0.081,0-0.138-0.016-0.172-0.047s-0.051-0.07-0.051-0.117c0-0.05,0.017-0.089,0.051-0.119s0.091-0.045,0.172-0.045h0.625
		L41.883,96.094z M41.758,95.766l-0.906-2.387H40.73l-0.879,2.387H41.758z"/>
	<path fill="#231F20" d="M44.543,94.238v0.496c0.229-0.231,0.436-0.392,0.621-0.48s0.393-0.133,0.625-0.133
		c0.25,0,0.478,0.054,0.684,0.16c0.146,0.078,0.278,0.208,0.396,0.389s0.178,0.366,0.178,0.557v2.066h0.277
		c0.078,0,0.134,0.015,0.168,0.045s0.051,0.069,0.051,0.119c0,0.047-0.017,0.086-0.051,0.117s-0.09,0.047-0.168,0.047h-0.879
		c-0.081,0-0.138-0.016-0.172-0.047s-0.051-0.07-0.051-0.117c0-0.05,0.017-0.089,0.051-0.119s0.091-0.045,0.172-0.045h0.273v-2.012
		c0-0.231-0.084-0.428-0.254-0.588s-0.396-0.24-0.68-0.24c-0.216,0-0.404,0.044-0.563,0.131s-0.385,0.304-0.68,0.65v2.059h0.371
		c0.078,0,0.134,0.015,0.168,0.045s0.051,0.069,0.051,0.119c0,0.047-0.017,0.086-0.051,0.117s-0.09,0.047-0.168,0.047h-1.07
		c-0.078,0-0.134-0.016-0.168-0.047s-0.051-0.07-0.051-0.117c0-0.05,0.017-0.089,0.051-0.119s0.09-0.045,0.168-0.045h0.371V94.57
		h-0.277c-0.078,0-0.134-0.016-0.168-0.047s-0.051-0.071-0.051-0.121c0-0.047,0.017-0.086,0.051-0.117s0.09-0.047,0.168-0.047
		H44.543z"/>
	<path fill="#231F20" d="M52.012,92.719v4.574h0.438c0.081,0,0.138,0.015,0.172,0.045s0.051,0.069,0.051,0.119
		c0,0.047-0.017,0.086-0.051,0.117s-0.091,0.047-0.172,0.047h-0.77v-0.652c-0.38,0.521-0.863,0.781-1.449,0.781
		c-0.297,0-0.582-0.079-0.854-0.236s-0.487-0.382-0.645-0.674s-0.236-0.593-0.236-0.902c0-0.313,0.079-0.614,0.236-0.904
		s0.373-0.515,0.645-0.674s0.558-0.238,0.857-0.238c0.573,0,1.055,0.261,1.445,0.781v-1.852h-0.438
		c-0.081,0-0.138-0.016-0.172-0.047s-0.051-0.071-0.051-0.121c0-0.047,0.017-0.086,0.051-0.117s0.091-0.047,0.172-0.047H52.012z
		 M51.68,95.938c0-0.417-0.141-0.769-0.422-1.055s-0.616-0.43-1.004-0.43c-0.391,0-0.727,0.144-1.008,0.43s-0.422,0.638-0.422,1.055
		c0,0.414,0.141,0.765,0.422,1.053s0.617,0.432,1.008,0.432c0.388,0,0.723-0.144,1.004-0.432S51.68,96.352,51.68,95.938z"/>
	<path fill="#231F20" d="M58.605,97.293v-3.914h-0.441c-0.078,0-0.134-0.015-0.168-0.045s-0.051-0.069-0.051-0.119
		s0.017-0.089,0.051-0.119s0.09-0.045,0.168-0.045h2.063c0.409,0,0.742,0.118,0.998,0.354s0.385,0.513,0.385,0.83
		c0,0.401-0.215,0.726-0.645,0.973c0.341,0.122,0.591,0.285,0.75,0.488s0.238,0.427,0.238,0.672c0,0.219-0.052,0.419-0.156,0.6
		s-0.264,0.335-0.479,0.463s-0.449,0.191-0.701,0.191h-2.453c-0.078,0-0.134-0.016-0.168-0.047s-0.051-0.07-0.051-0.117
		c0-0.05,0.017-0.089,0.051-0.119s0.09-0.045,0.168-0.045H58.605z M58.934,95.082h1.16c0.248,0,0.474-0.046,0.68-0.137
		c0.159-0.073,0.283-0.179,0.371-0.316s0.133-0.278,0.133-0.422c0-0.206-0.096-0.396-0.289-0.568s-0.444-0.26-0.754-0.26h-1.301
		V95.082z M58.934,97.293h1.66c0.211,0,0.395-0.047,0.551-0.141s0.275-0.21,0.355-0.348s0.121-0.281,0.121-0.43
		c0-0.167-0.058-0.328-0.174-0.484s-0.277-0.274-0.482-0.355s-0.49-0.121-0.852-0.121h-1.18V97.293z"/>
	<path fill="#231F20" d="M64.902,95.68c0,0.3-0.039,0.616-0.117,0.951s-0.228,0.723-0.449,1.164s-0.383,0.706-0.484,0.795
		c-0.031,0.031-0.065,0.047-0.102,0.047c-0.047,0-0.086-0.017-0.119-0.049s-0.049-0.071-0.049-0.115
		c0-0.026,0.009-0.055,0.027-0.086c0.287-0.523,0.491-0.999,0.613-1.426s0.184-0.854,0.184-1.281c0-0.43-0.061-0.858-0.184-1.285
		s-0.327-0.903-0.613-1.43c-0.018-0.031-0.027-0.06-0.027-0.086c0-0.044,0.016-0.082,0.049-0.113s0.072-0.047,0.119-0.047
		c0.037,0,0.07,0.015,0.102,0.043c0.096,0.089,0.254,0.348,0.473,0.777s0.37,0.81,0.453,1.141S64.902,95.344,64.902,95.68z"/>
	<path fill="#231F20" d="M76.414,95.348c0,0.438-0.088,0.843-0.266,1.217s-0.421,0.665-0.732,0.873s-0.645,0.313-1.002,0.313
		c-0.529,0-0.994-0.225-1.396-0.674s-0.604-1.025-0.604-1.729c0-0.706,0.201-1.282,0.604-1.73s0.868-0.672,1.396-0.672
		c0.357,0,0.69,0.104,1,0.313s0.554,0.499,0.732,0.871S76.414,94.907,76.414,95.348z M76.082,95.348
		c0-0.534-0.155-1.013-0.465-1.438s-0.711-0.637-1.203-0.637c-0.461,0-0.855,0.202-1.182,0.607s-0.49,0.894-0.49,1.467
		c0,0.609,0.171,1.107,0.514,1.494s0.729,0.58,1.158,0.58c0.492,0,0.893-0.212,1.203-0.635S76.082,95.884,76.082,95.348z"/>
	<path fill="#231F20" d="M78.816,94.238v0.828c0.427-0.386,0.747-0.634,0.959-0.744s0.408-0.166,0.588-0.166
		c0.195,0,0.377,0.065,0.545,0.197s0.252,0.231,0.252,0.299c0,0.05-0.016,0.091-0.049,0.123s-0.074,0.049-0.123,0.049
		c-0.026,0-0.048-0.005-0.066-0.014s-0.052-0.038-0.102-0.088c-0.091-0.091-0.17-0.153-0.238-0.188s-0.134-0.051-0.199-0.051
		c-0.143,0-0.316,0.058-0.518,0.172s-0.551,0.395-1.049,0.84v1.797h1.453c0.081,0,0.138,0.015,0.172,0.045s0.051,0.069,0.051,0.119
		c0,0.047-0.017,0.086-0.051,0.117s-0.091,0.047-0.172,0.047h-2.574c-0.078,0-0.134-0.015-0.168-0.045s-0.051-0.068-0.051-0.115
		c0-0.044,0.016-0.081,0.049-0.111s0.089-0.045,0.17-0.045h0.793V94.57h-0.605c-0.078,0-0.134-0.016-0.168-0.047
		s-0.051-0.071-0.051-0.121c0-0.047,0.016-0.086,0.049-0.117s0.089-0.047,0.17-0.047H78.816z"/>
</g>
<g enable-background="new    ">
	<path fill="#231F20" d="M2.363,105.277c0-0.3,0.039-0.617,0.117-0.953s0.228-0.724,0.449-1.164s0.383-0.706,0.484-0.797
		c0.031-0.028,0.065-0.043,0.102-0.043c0.047,0,0.086,0.016,0.119,0.047s0.049,0.069,0.049,0.113c0,0.026-0.009,0.055-0.027,0.086
		c-0.287,0.526-0.491,1.003-0.613,1.43s-0.184,0.854-0.184,1.281c0,0.43,0.061,0.858,0.184,1.285s0.327,0.902,0.613,1.426
		c0.018,0.031,0.027,0.06,0.027,0.086c0,0.044-0.016,0.083-0.049,0.115s-0.072,0.049-0.119,0.049c-0.037,0-0.07-0.015-0.102-0.043
		c-0.096-0.089-0.254-0.348-0.473-0.777s-0.37-0.81-0.453-1.141S2.363,105.613,2.363,105.277z"/>
	<path fill="#231F20" d="M5.801,106.895v-3.914H5.359c-0.078,0-0.134-0.015-0.168-0.045s-0.051-0.069-0.051-0.119
		s0.017-0.089,0.051-0.119s0.09-0.045,0.168-0.045h2.063c0.409,0,0.742,0.118,0.998,0.354s0.385,0.513,0.385,0.83
		c0,0.401-0.215,0.726-0.645,0.973c0.341,0.122,0.591,0.285,0.75,0.488s0.238,0.427,0.238,0.672c0,0.219-0.052,0.419-0.156,0.6
		s-0.264,0.335-0.479,0.463s-0.449,0.191-0.701,0.191H5.359c-0.078,0-0.134-0.016-0.168-0.047s-0.051-0.07-0.051-0.117
		c0-0.05,0.017-0.089,0.051-0.119s0.09-0.045,0.168-0.045H5.801z M6.129,104.684h1.16c0.248,0,0.474-0.046,0.68-0.137
		c0.159-0.073,0.283-0.179,0.371-0.316s0.133-0.278,0.133-0.422c0-0.206-0.096-0.396-0.289-0.568s-0.444-0.26-0.754-0.26H6.129
		V104.684z M6.129,106.895h1.66c0.211,0,0.395-0.047,0.551-0.141s0.275-0.21,0.355-0.348s0.121-0.281,0.121-0.43
		c0-0.167-0.058-0.328-0.174-0.484s-0.277-0.274-0.482-0.355s-0.49-0.121-0.852-0.121h-1.18V106.895z"/>
	<path fill="#231F20" d="M17.883,105.695h-2.156l-0.441,1.199h0.629c0.078,0,0.134,0.015,0.168,0.045s0.051,0.069,0.051,0.119
		c0,0.047-0.017,0.086-0.051,0.117s-0.09,0.047-0.168,0.047h-1.227c-0.078,0-0.134-0.016-0.168-0.047s-0.051-0.07-0.051-0.117
		c0-0.05,0.017-0.089,0.051-0.119s0.09-0.045,0.168-0.045h0.254l1.449-3.914h-0.969c-0.078,0-0.134-0.015-0.168-0.045
		s-0.051-0.069-0.051-0.119s0.017-0.089,0.051-0.119s0.09-0.045,0.168-0.045h1.652l1.602,4.242h0.254
		c0.078,0,0.134,0.015,0.168,0.045s0.051,0.069,0.051,0.119c0,0.047-0.017,0.086-0.051,0.117s-0.09,0.047-0.168,0.047h-1.223
		c-0.081,0-0.138-0.016-0.172-0.047s-0.051-0.07-0.051-0.117c0-0.05,0.017-0.089,0.051-0.119s0.091-0.045,0.172-0.045h0.625
		L17.883,105.695z M17.758,105.367l-0.906-2.387H16.73l-0.879,2.387H17.758z"/>
	<path fill="#231F20" d="M20.543,103.84v0.496c0.229-0.231,0.436-0.392,0.621-0.48s0.393-0.133,0.625-0.133
		c0.25,0,0.478,0.054,0.684,0.16c0.146,0.078,0.278,0.208,0.396,0.389s0.178,0.366,0.178,0.557v2.066h0.277
		c0.078,0,0.134,0.015,0.168,0.045s0.051,0.069,0.051,0.119c0,0.047-0.017,0.086-0.051,0.117s-0.09,0.047-0.168,0.047h-0.879
		c-0.081,0-0.138-0.016-0.172-0.047s-0.051-0.07-0.051-0.117c0-0.05,0.017-0.089,0.051-0.119s0.091-0.045,0.172-0.045h0.273v-2.012
		c0-0.231-0.084-0.428-0.254-0.588s-0.396-0.24-0.68-0.24c-0.216,0-0.404,0.044-0.563,0.131s-0.385,0.304-0.68,0.65v2.059h0.371
		c0.078,0,0.134,0.015,0.168,0.045s0.051,0.069,0.051,0.119c0,0.047-0.017,0.086-0.051,0.117s-0.09,0.047-0.168,0.047h-1.07
		c-0.078,0-0.134-0.016-0.168-0.047s-0.051-0.07-0.051-0.117c0-0.05,0.017-0.089,0.051-0.119s0.09-0.045,0.168-0.045h0.371v-2.723
		h-0.277c-0.078,0-0.134-0.016-0.168-0.047s-0.051-0.071-0.051-0.121c0-0.047,0.017-0.086,0.051-0.117s0.09-0.047,0.168-0.047
		H20.543z"/>
	<path fill="#231F20" d="M28.012,102.32v4.574h0.438c0.081,0,0.138,0.015,0.172,0.045s0.051,0.069,0.051,0.119
		c0,0.047-0.017,0.086-0.051,0.117s-0.091,0.047-0.172,0.047h-0.77v-0.652c-0.38,0.521-0.863,0.781-1.449,0.781
		c-0.297,0-0.582-0.079-0.854-0.236s-0.487-0.382-0.645-0.674s-0.236-0.593-0.236-0.902c0-0.313,0.079-0.614,0.236-0.904
		s0.373-0.515,0.645-0.674s0.558-0.238,0.857-0.238c0.573,0,1.055,0.261,1.445,0.781v-1.852h-0.438
		c-0.081,0-0.138-0.016-0.172-0.047s-0.051-0.071-0.051-0.121c0-0.047,0.017-0.086,0.051-0.117s0.091-0.047,0.172-0.047H28.012z
		 M27.68,105.539c0-0.417-0.141-0.769-0.422-1.055s-0.616-0.43-1.004-0.43c-0.391,0-0.727,0.144-1.008,0.43
		s-0.422,0.638-0.422,1.055c0,0.414,0.141,0.765,0.422,1.053s0.617,0.432,1.008,0.432c0.388,0,0.723-0.144,1.004-0.432
		S27.68,105.953,27.68,105.539z"/>
	<path fill="#231F20" d="M37.449,103.102v-0.23c0-0.078,0.015-0.134,0.045-0.168s0.07-0.051,0.119-0.051s0.089,0.017,0.119,0.051
		s0.045,0.09,0.045,0.168v0.91c0,0.081-0.015,0.138-0.045,0.172s-0.07,0.051-0.119,0.051c-0.044,0-0.082-0.016-0.111-0.047
		s-0.047-0.082-0.053-0.152c-0.013-0.219-0.131-0.413-0.355-0.582c-0.302-0.231-0.646-0.348-1.031-0.348
		c-0.252,0-0.491,0.056-0.715,0.168c-0.167,0.081-0.299,0.18-0.398,0.297c-0.172,0.203-0.309,0.429-0.41,0.676
		c-0.073,0.183-0.109,0.388-0.109,0.617v0.574c0,0.489,0.177,0.915,0.531,1.275s0.766,0.541,1.234,0.541
		c0.281,0,0.533-0.062,0.756-0.184s0.438-0.308,0.646-0.555c0.044-0.055,0.094-0.082,0.148-0.082c0.047,0,0.084,0.015,0.113,0.043
		s0.043,0.065,0.043,0.109c0,0.06-0.056,0.151-0.168,0.273c-0.213,0.239-0.454,0.42-0.721,0.541s-0.537,0.182-0.811,0.182
		c-0.237,0-0.478-0.046-0.723-0.137c-0.188-0.07-0.342-0.152-0.465-0.246s-0.273-0.252-0.451-0.475s-0.3-0.429-0.365-0.617
		s-0.098-0.396-0.098-0.623v-0.668c0-0.323,0.086-0.653,0.26-0.99s0.41-0.597,0.711-0.777s0.627-0.271,0.979-0.271
		C36.592,102.547,37.059,102.731,37.449,103.102z"/>
	<path fill="#231F20" d="M40.902,105.281c0,0.3-0.039,0.616-0.117,0.951s-0.228,0.723-0.449,1.164s-0.383,0.706-0.484,0.795
		c-0.031,0.031-0.065,0.047-0.102,0.047c-0.047,0-0.086-0.017-0.119-0.049s-0.049-0.071-0.049-0.115
		c0-0.026,0.009-0.055,0.027-0.086c0.287-0.523,0.491-0.999,0.613-1.426s0.184-0.854,0.184-1.281c0-0.43-0.061-0.858-0.184-1.285
		s-0.327-0.903-0.613-1.43c-0.018-0.031-0.027-0.06-0.027-0.086c0-0.044,0.016-0.082,0.049-0.113s0.072-0.047,0.119-0.047
		c0.037,0,0.07,0.015,0.102,0.043c0.096,0.089,0.254,0.348,0.473,0.777s0.37,0.81,0.453,1.141S40.902,104.945,40.902,105.281z"/>
	<path fill="#231F20" d="M52.414,104.949c0,0.438-0.088,0.843-0.266,1.217s-0.421,0.665-0.732,0.873s-0.645,0.313-1.002,0.313
		c-0.529,0-0.994-0.225-1.396-0.674s-0.604-1.025-0.604-1.729c0-0.706,0.201-1.282,0.604-1.73s0.868-0.672,1.396-0.672
		c0.357,0,0.69,0.104,1,0.313s0.554,0.499,0.732,0.871S52.414,104.509,52.414,104.949z M52.082,104.949
		c0-0.534-0.155-1.013-0.465-1.438s-0.711-0.637-1.203-0.637c-0.461,0-0.855,0.202-1.182,0.607s-0.49,0.894-0.49,1.467
		c0,0.609,0.171,1.107,0.514,1.494s0.729,0.58,1.158,0.58c0.492,0,0.893-0.212,1.203-0.635S52.082,105.485,52.082,104.949z"/>
	<path fill="#231F20" d="M54.816,103.84v0.828c0.427-0.386,0.747-0.634,0.959-0.744s0.408-0.166,0.588-0.166
		c0.195,0,0.377,0.065,0.545,0.197s0.252,0.231,0.252,0.299c0,0.05-0.016,0.091-0.049,0.123s-0.074,0.049-0.123,0.049
		c-0.026,0-0.048-0.005-0.066-0.014s-0.052-0.038-0.102-0.088c-0.091-0.091-0.17-0.153-0.238-0.188s-0.134-0.051-0.199-0.051
		c-0.143,0-0.316,0.058-0.518,0.172s-0.551,0.395-1.049,0.84v1.797h1.453c0.081,0,0.138,0.015,0.172,0.045s0.051,0.069,0.051,0.119
		c0,0.047-0.017,0.086-0.051,0.117s-0.091,0.047-0.172,0.047h-2.574c-0.078,0-0.134-0.015-0.168-0.045s-0.051-0.068-0.051-0.115
		c0-0.044,0.016-0.081,0.049-0.111s0.089-0.045,0.17-0.045h0.793v-2.734h-0.605c-0.078,0-0.134-0.016-0.168-0.047
		s-0.051-0.071-0.051-0.121c0-0.047,0.016-0.086,0.049-0.117s0.089-0.047,0.17-0.047H54.816z"/>
	<path fill="#231F20" d="M64.773,105.277c0-0.3,0.039-0.617,0.117-0.953s0.228-0.724,0.449-1.164s0.383-0.706,0.484-0.797
		c0.031-0.028,0.065-0.043,0.102-0.043c0.047,0,0.086,0.016,0.119,0.047s0.049,0.069,0.049,0.113c0,0.026-0.009,0.055-0.027,0.086
		c-0.287,0.526-0.491,1.003-0.613,1.43s-0.184,0.854-0.184,1.281c0,0.43,0.061,0.858,0.184,1.285s0.327,0.902,0.613,1.426
		c0.018,0.031,0.027,0.06,0.027,0.086c0,0.044-0.016,0.083-0.049,0.115s-0.072,0.049-0.119,0.049c-0.037,0-0.07-0.015-0.102-0.043
		c-0.096-0.089-0.254-0.348-0.473-0.777s-0.37-0.81-0.453-1.141S64.773,105.613,64.773,105.277z"/>
	<path fill="#231F20" d="M70.691,105.695h-2.156l-0.441,1.199h0.629c0.078,0,0.134,0.015,0.168,0.045s0.051,0.069,0.051,0.119
		c0,0.047-0.017,0.086-0.051,0.117s-0.09,0.047-0.168,0.047h-1.227c-0.078,0-0.134-0.016-0.168-0.047s-0.051-0.07-0.051-0.117
		c0-0.05,0.017-0.089,0.051-0.119s0.09-0.045,0.168-0.045h0.254l1.449-3.914H68.23c-0.078,0-0.134-0.015-0.168-0.045
		s-0.051-0.069-0.051-0.119s0.017-0.089,0.051-0.119s0.09-0.045,0.168-0.045h1.652l1.602,4.242h0.254
		c0.078,0,0.134,0.015,0.168,0.045s0.051,0.069,0.051,0.119c0,0.047-0.017,0.086-0.051,0.117s-0.09,0.047-0.168,0.047h-1.223
		c-0.081,0-0.138-0.016-0.172-0.047s-0.051-0.07-0.051-0.117c0-0.05,0.017-0.089,0.051-0.119s0.091-0.045,0.172-0.045h0.625
		L70.691,105.695z M70.566,105.367l-0.906-2.387h-0.121l-0.879,2.387H70.566z"/>
	<path fill="#231F20" d="M80.293,105.695h-2.156l-0.441,1.199h0.629c0.078,0,0.134,0.015,0.168,0.045s0.051,0.069,0.051,0.119
		c0,0.047-0.017,0.086-0.051,0.117s-0.09,0.047-0.168,0.047h-1.227c-0.078,0-0.134-0.016-0.168-0.047s-0.051-0.07-0.051-0.117
		c0-0.05,0.017-0.089,0.051-0.119s0.09-0.045,0.168-0.045h0.254l1.449-3.914h-0.969c-0.078,0-0.134-0.015-0.168-0.045
		s-0.051-0.069-0.051-0.119s0.017-0.089,0.051-0.119s0.09-0.045,0.168-0.045h1.652l1.602,4.242h0.254
		c0.078,0,0.134,0.015,0.168,0.045s0.051,0.069,0.051,0.119c0,0.047-0.017,0.086-0.051,0.117s-0.09,0.047-0.168,0.047h-1.223
		c-0.081,0-0.138-0.016-0.172-0.047s-0.051-0.07-0.051-0.117c0-0.05,0.017-0.089,0.051-0.119s0.091-0.045,0.172-0.045h0.625
		L80.293,105.695z M80.168,105.367l-0.906-2.387h-0.121l-0.879,2.387H80.168z"/>
	<path fill="#231F20" d="M82.953,103.84v0.496c0.229-0.231,0.436-0.392,0.621-0.48s0.393-0.133,0.625-0.133
		c0.25,0,0.478,0.054,0.684,0.16c0.146,0.078,0.278,0.208,0.396,0.389s0.178,0.366,0.178,0.557v2.066h0.277
		c0.078,0,0.134,0.015,0.168,0.045s0.051,0.069,0.051,0.119c0,0.047-0.017,0.086-0.051,0.117s-0.09,0.047-0.168,0.047h-0.879
		c-0.081,0-0.138-0.016-0.172-0.047s-0.051-0.07-0.051-0.117c0-0.05,0.017-0.089,0.051-0.119s0.091-0.045,0.172-0.045h0.273v-2.012
		c0-0.231-0.084-0.428-0.254-0.588s-0.396-0.24-0.68-0.24c-0.216,0-0.404,0.044-0.563,0.131s-0.385,0.304-0.68,0.65v2.059h0.371
		c0.078,0,0.134,0.015,0.168,0.045s0.051,0.069,0.051,0.119c0,0.047-0.017,0.086-0.051,0.117s-0.09,0.047-0.168,0.047h-1.07
		c-0.078,0-0.134-0.016-0.168-0.047s-0.051-0.07-0.051-0.117c0-0.05,0.017-0.089,0.051-0.119s0.09-0.045,0.168-0.045h0.371v-2.723
		h-0.277c-0.078,0-0.134-0.016-0.168-0.047s-0.051-0.071-0.051-0.121c0-0.047,0.017-0.086,0.051-0.117s0.09-0.047,0.168-0.047
		H82.953z"/>
	<path fill="#231F20" d="M90.422,102.32v4.574h0.438c0.081,0,0.138,0.015,0.172,0.045s0.051,0.069,0.051,0.119
		c0,0.047-0.017,0.086-0.051,0.117s-0.091,0.047-0.172,0.047h-0.77v-0.652c-0.38,0.521-0.863,0.781-1.449,0.781
		c-0.297,0-0.582-0.079-0.854-0.236s-0.487-0.382-0.645-0.674s-0.236-0.593-0.236-0.902c0-0.313,0.079-0.614,0.236-0.904
		s0.373-0.515,0.645-0.674s0.558-0.238,0.857-0.238c0.573,0,1.055,0.261,1.445,0.781v-1.852h-0.438
		c-0.081,0-0.138-0.016-0.172-0.047s-0.051-0.071-0.051-0.121c0-0.047,0.017-0.086,0.051-0.117s0.091-0.047,0.172-0.047H90.422z
		 M90.09,105.539c0-0.417-0.141-0.769-0.422-1.055s-0.616-0.43-1.004-0.43c-0.391,0-0.727,0.144-1.008,0.43
		s-0.422,0.638-0.422,1.055c0,0.414,0.141,0.765,0.422,1.053s0.617,0.432,1.008,0.432c0.388,0,0.723-0.144,1.004-0.432
		S90.09,105.953,90.09,105.539z"/>
	<path fill="#231F20" d="M99.859,103.102v-0.23c0-0.078,0.015-0.134,0.045-0.168s0.07-0.051,0.119-0.051s0.089,0.017,0.119,0.051
		s0.045,0.09,0.045,0.168v0.91c0,0.081-0.015,0.138-0.045,0.172s-0.07,0.051-0.119,0.051c-0.044,0-0.082-0.016-0.111-0.047
		s-0.047-0.082-0.053-0.152c-0.013-0.219-0.131-0.413-0.355-0.582c-0.302-0.231-0.646-0.348-1.031-0.348
		c-0.252,0-0.491,0.056-0.715,0.168c-0.167,0.081-0.299,0.18-0.398,0.297c-0.172,0.203-0.309,0.429-0.41,0.676
		c-0.073,0.183-0.109,0.388-0.109,0.617v0.574c0,0.489,0.177,0.915,0.531,1.275s0.766,0.541,1.234,0.541
		c0.281,0,0.533-0.062,0.756-0.184s0.438-0.308,0.646-0.555c0.044-0.055,0.094-0.082,0.148-0.082c0.047,0,0.084,0.015,0.113,0.043
		s0.043,0.065,0.043,0.109c0,0.06-0.056,0.151-0.168,0.273c-0.213,0.239-0.454,0.42-0.721,0.541s-0.537,0.182-0.811,0.182
		c-0.237,0-0.478-0.046-0.723-0.137c-0.188-0.07-0.342-0.152-0.465-0.246s-0.273-0.252-0.451-0.475s-0.3-0.429-0.365-0.617
		s-0.098-0.396-0.098-0.623v-0.668c0-0.323,0.086-0.653,0.26-0.99s0.41-0.597,0.711-0.777s0.627-0.271,0.979-0.271
		C99.002,102.547,99.469,102.731,99.859,103.102z"/>
	<path fill="#231F20" d="M103.313,105.281c0,0.3-0.039,0.616-0.117,0.951s-0.228,0.723-0.449,1.164s-0.383,0.706-0.484,0.795
		c-0.031,0.031-0.065,0.047-0.102,0.047c-0.047,0-0.086-0.017-0.119-0.049s-0.049-0.071-0.049-0.115
		c0-0.026,0.009-0.055,0.027-0.086c0.287-0.523,0.491-0.999,0.613-1.426s0.184-0.854,0.184-1.281c0-0.43-0.061-0.858-0.184-1.285
		s-0.327-0.903-0.613-1.43c-0.018-0.031-0.027-0.06-0.027-0.086c0-0.044,0.016-0.082,0.049-0.113s0.072-0.047,0.119-0.047
		c0.037,0,0.07,0.015,0.102,0.043c0.096,0.089,0.254,0.348,0.473,0.777s0.37,0.81,0.453,1.141S103.313,104.945,103.313,105.281z"/>
</g>
<g enable-background="new    ">
	<path fill="#231F20" d="M122.131,95.676c0-0.3,0.039-0.617,0.117-0.953s0.228-0.724,0.449-1.164s0.383-0.706,0.484-0.797
		c0.031-0.028,0.065-0.043,0.102-0.043c0.047,0,0.086,0.016,0.119,0.047s0.049,0.069,0.049,0.113c0,0.026-0.009,0.055-0.027,0.086
		c-0.287,0.526-0.491,1.003-0.613,1.43s-0.184,0.854-0.184,1.281c0,0.43,0.061,0.858,0.184,1.285s0.327,0.902,0.613,1.426
		c0.018,0.031,0.027,0.06,0.027,0.086c0,0.044-0.016,0.083-0.049,0.115s-0.072,0.049-0.119,0.049c-0.037,0-0.07-0.015-0.102-0.043
		c-0.096-0.089-0.254-0.348-0.473-0.777s-0.37-0.81-0.453-1.141S122.131,96.012,122.131,95.676z"/>
	<path fill="#231F20" d="M126.932,95.676c0-0.3,0.039-0.617,0.117-0.953s0.228-0.724,0.449-1.164s0.383-0.706,0.484-0.797
		c0.031-0.028,0.065-0.043,0.102-0.043c0.047,0,0.086,0.016,0.119,0.047s0.049,0.069,0.049,0.113c0,0.026-0.009,0.055-0.027,0.086
		c-0.287,0.526-0.491,1.003-0.613,1.43s-0.184,0.854-0.184,1.281c0,0.43,0.061,0.858,0.184,1.285s0.327,0.902,0.613,1.426
		c0.018,0.031,0.027,0.06,0.027,0.086c0,0.044-0.016,0.083-0.049,0.115s-0.072,0.049-0.119,0.049c-0.037,0-0.07-0.015-0.102-0.043
		c-0.096-0.089-0.254-0.348-0.473-0.777s-0.37-0.81-0.453-1.141S126.932,96.012,126.932,95.676z"/>
	<path fill="#231F20" d="M130.37,97.293v-3.914h-0.441c-0.078,0-0.134-0.015-0.168-0.045s-0.051-0.069-0.051-0.119
		s0.017-0.089,0.051-0.119s0.09-0.045,0.168-0.045h2.063c0.409,0,0.742,0.118,0.998,0.354s0.385,0.513,0.385,0.83
		c0,0.401-0.215,0.726-0.645,0.973c0.341,0.122,0.591,0.285,0.75,0.488s0.238,0.427,0.238,0.672c0,0.219-0.052,0.419-0.156,0.6
		s-0.264,0.335-0.479,0.463s-0.449,0.191-0.701,0.191h-2.453c-0.078,0-0.134-0.016-0.168-0.047s-0.051-0.07-0.051-0.117
		c0-0.05,0.017-0.089,0.051-0.119s0.09-0.045,0.168-0.045H130.37z M130.698,95.082h1.16c0.248,0,0.474-0.046,0.68-0.137
		c0.159-0.073,0.283-0.179,0.371-0.316s0.133-0.278,0.133-0.422c0-0.206-0.096-0.396-0.289-0.568s-0.444-0.26-0.754-0.26h-1.301
		V95.082z M130.698,97.293h1.66c0.211,0,0.395-0.047,0.551-0.141s0.275-0.21,0.355-0.348s0.121-0.281,0.121-0.43
		c0-0.167-0.058-0.328-0.174-0.484s-0.277-0.274-0.482-0.355s-0.49-0.121-0.852-0.121h-1.18V97.293z"/>
	<path fill="#231F20" d="M142.452,96.094h-2.156l-0.441,1.199h0.629c0.078,0,0.134,0.015,0.168,0.045s0.051,0.069,0.051,0.119
		c0,0.047-0.017,0.086-0.051,0.117s-0.09,0.047-0.168,0.047h-1.227c-0.078,0-0.134-0.016-0.168-0.047s-0.051-0.07-0.051-0.117
		c0-0.05,0.017-0.089,0.051-0.119s0.09-0.045,0.168-0.045h0.254l1.449-3.914h-0.969c-0.078,0-0.134-0.015-0.168-0.045
		s-0.051-0.069-0.051-0.119s0.017-0.089,0.051-0.119s0.09-0.045,0.168-0.045h1.652l1.602,4.242h0.254
		c0.078,0,0.134,0.015,0.168,0.045s0.051,0.069,0.051,0.119c0,0.047-0.017,0.086-0.051,0.117s-0.09,0.047-0.168,0.047h-1.223
		c-0.081,0-0.138-0.016-0.172-0.047s-0.051-0.07-0.051-0.117c0-0.05,0.017-0.089,0.051-0.119s0.091-0.045,0.172-0.045h0.625
		L142.452,96.094z M142.327,95.766l-0.906-2.387h-0.121l-0.879,2.387H142.327z"/>
	<path fill="#231F20" d="M145.112,94.238v0.496c0.229-0.231,0.436-0.392,0.621-0.48s0.393-0.133,0.625-0.133
		c0.25,0,0.478,0.054,0.684,0.16c0.146,0.078,0.278,0.208,0.396,0.389s0.178,0.366,0.178,0.557v2.066h0.277
		c0.078,0,0.134,0.015,0.168,0.045s0.051,0.069,0.051,0.119c0,0.047-0.017,0.086-0.051,0.117s-0.09,0.047-0.168,0.047h-0.879
		c-0.081,0-0.138-0.016-0.172-0.047s-0.051-0.07-0.051-0.117c0-0.05,0.017-0.089,0.051-0.119s0.091-0.045,0.172-0.045h0.273v-2.012
		c0-0.231-0.084-0.428-0.254-0.588s-0.396-0.24-0.68-0.24c-0.216,0-0.404,0.044-0.563,0.131s-0.385,0.304-0.68,0.65v2.059h0.371
		c0.078,0,0.134,0.015,0.168,0.045s0.051,0.069,0.051,0.119c0,0.047-0.017,0.086-0.051,0.117s-0.09,0.047-0.168,0.047h-1.07
		c-0.078,0-0.134-0.016-0.168-0.047s-0.051-0.07-0.051-0.117c0-0.05,0.017-0.089,0.051-0.119s0.09-0.045,0.168-0.045h0.371V94.57
		h-0.277c-0.078,0-0.134-0.016-0.168-0.047s-0.051-0.071-0.051-0.121c0-0.047,0.017-0.086,0.051-0.117s0.09-0.047,0.168-0.047
		H145.112z"/>
	<path fill="#231F20" d="M152.581,92.719v4.574h0.438c0.081,0,0.138,0.015,0.172,0.045s0.051,0.069,0.051,0.119
		c0,0.047-0.017,0.086-0.051,0.117s-0.091,0.047-0.172,0.047h-0.77v-0.652c-0.38,0.521-0.863,0.781-1.449,0.781
		c-0.297,0-0.582-0.079-0.854-0.236s-0.487-0.382-0.645-0.674s-0.236-0.593-0.236-0.902c0-0.313,0.079-0.614,0.236-0.904
		s0.373-0.515,0.645-0.674s0.558-0.238,0.857-0.238c0.573,0,1.055,0.261,1.445,0.781v-1.852h-0.438
		c-0.081,0-0.138-0.016-0.172-0.047s-0.051-0.071-0.051-0.121c0-0.047,0.017-0.086,0.051-0.117s0.091-0.047,0.172-0.047H152.581z
		 M152.249,95.938c0-0.417-0.141-0.769-0.422-1.055s-0.616-0.43-1.004-0.43c-0.391,0-0.727,0.144-1.008,0.43
		s-0.422,0.638-0.422,1.055c0,0.414,0.141,0.765,0.422,1.053s0.617,0.432,1.008,0.432c0.388,0,0.723-0.144,1.004-0.432
		S152.249,96.352,152.249,95.938z"/>
	<path fill="#231F20" d="M162.018,93.5v-0.23c0-0.078,0.015-0.134,0.045-0.168s0.07-0.051,0.119-0.051s0.089,0.017,0.119,0.051
		s0.045,0.09,0.045,0.168v0.91c0,0.081-0.015,0.138-0.045,0.172s-0.07,0.051-0.119,0.051c-0.044,0-0.082-0.016-0.111-0.047
		s-0.047-0.082-0.053-0.152c-0.013-0.219-0.131-0.413-0.355-0.582c-0.302-0.231-0.646-0.348-1.031-0.348
		c-0.252,0-0.491,0.056-0.715,0.168c-0.167,0.081-0.299,0.18-0.398,0.297c-0.172,0.203-0.309,0.429-0.41,0.676
		c-0.073,0.183-0.109,0.388-0.109,0.617v0.574c0,0.489,0.177,0.915,0.531,1.275s0.766,0.541,1.234,0.541
		c0.281,0,0.533-0.062,0.756-0.184s0.438-0.308,0.646-0.555c0.044-0.055,0.094-0.082,0.148-0.082c0.047,0,0.084,0.015,0.113,0.043
		s0.043,0.065,0.043,0.109c0,0.06-0.056,0.151-0.168,0.273c-0.213,0.239-0.454,0.42-0.721,0.541s-0.537,0.182-0.811,0.182
		c-0.237,0-0.478-0.046-0.723-0.137c-0.188-0.07-0.342-0.152-0.465-0.246s-0.273-0.252-0.451-0.475s-0.3-0.429-0.365-0.617
		s-0.098-0.396-0.098-0.623v-0.668c0-0.323,0.086-0.653,0.26-0.99s0.41-0.597,0.711-0.777s0.627-0.271,0.979-0.271
		C161.161,92.945,161.627,93.13,162.018,93.5z"/>
	<path fill="#231F20" d="M165.471,95.68c0,0.3-0.039,0.616-0.117,0.951s-0.228,0.723-0.449,1.164s-0.383,0.706-0.484,0.795
		c-0.031,0.031-0.065,0.047-0.102,0.047c-0.047,0-0.086-0.017-0.119-0.049s-0.049-0.071-0.049-0.115
		c0-0.026,0.009-0.055,0.027-0.086c0.287-0.523,0.491-0.999,0.613-1.426s0.184-0.854,0.184-1.281c0-0.43-0.061-0.858-0.184-1.285
		s-0.327-0.903-0.613-1.43c-0.018-0.031-0.027-0.06-0.027-0.086c0-0.044,0.016-0.082,0.049-0.113s0.072-0.047,0.119-0.047
		c0.037,0,0.07,0.015,0.102,0.043c0.096,0.089,0.254,0.348,0.473,0.777s0.37,0.81,0.453,1.141S165.471,95.344,165.471,95.68z"/>
	<path fill="#231F20" d="M176.057,96.094h-2.156l-0.441,1.199h0.629c0.078,0,0.134,0.015,0.168,0.045s0.051,0.069,0.051,0.119
		c0,0.047-0.017,0.086-0.051,0.117s-0.09,0.047-0.168,0.047h-1.227c-0.078,0-0.134-0.016-0.168-0.047s-0.051-0.07-0.051-0.117
		c0-0.05,0.017-0.089,0.051-0.119s0.09-0.045,0.168-0.045h0.254l1.449-3.914h-0.969c-0.078,0-0.134-0.015-0.168-0.045
		s-0.051-0.069-0.051-0.119s0.017-0.089,0.051-0.119s0.09-0.045,0.168-0.045h1.652l1.602,4.242h0.254
		c0.078,0,0.134,0.015,0.168,0.045s0.051,0.069,0.051,0.119c0,0.047-0.017,0.086-0.051,0.117s-0.09,0.047-0.168,0.047h-1.223
		c-0.081,0-0.138-0.016-0.172-0.047s-0.051-0.07-0.051-0.117c0-0.05,0.017-0.089,0.051-0.119s0.091-0.045,0.172-0.045h0.625
		L176.057,96.094z M175.932,95.766l-0.906-2.387h-0.121l-0.879,2.387H175.932z"/>
	<path fill="#231F20" d="M178.717,94.238v0.496c0.229-0.231,0.436-0.392,0.621-0.48s0.393-0.133,0.625-0.133
		c0.25,0,0.478,0.054,0.684,0.16c0.146,0.078,0.278,0.208,0.396,0.389s0.178,0.366,0.178,0.557v2.066h0.277
		c0.078,0,0.134,0.015,0.168,0.045s0.051,0.069,0.051,0.119c0,0.047-0.017,0.086-0.051,0.117s-0.09,0.047-0.168,0.047h-0.879
		c-0.081,0-0.138-0.016-0.172-0.047s-0.051-0.07-0.051-0.117c0-0.05,0.017-0.089,0.051-0.119s0.091-0.045,0.172-0.045h0.273v-2.012
		c0-0.231-0.084-0.428-0.254-0.588s-0.396-0.24-0.68-0.24c-0.216,0-0.404,0.044-0.563,0.131s-0.385,0.304-0.68,0.65v2.059h0.371
		c0.078,0,0.134,0.015,0.168,0.045s0.051,0.069,0.051,0.119c0,0.047-0.017,0.086-0.051,0.117s-0.09,0.047-0.168,0.047h-1.07
		c-0.078,0-0.134-0.016-0.168-0.047s-0.051-0.07-0.051-0.117c0-0.05,0.017-0.089,0.051-0.119s0.09-0.045,0.168-0.045h0.371V94.57
		h-0.277c-0.078,0-0.134-0.016-0.168-0.047s-0.051-0.071-0.051-0.121c0-0.047,0.017-0.086,0.051-0.117s0.09-0.047,0.168-0.047
		H178.717z"/>
	<path fill="#231F20" d="M186.186,92.719v4.574h0.438c0.081,0,0.138,0.015,0.172,0.045s0.051,0.069,0.051,0.119
		c0,0.047-0.017,0.086-0.051,0.117s-0.091,0.047-0.172,0.047h-0.77v-0.652c-0.38,0.521-0.863,0.781-1.449,0.781
		c-0.297,0-0.582-0.079-0.854-0.236s-0.487-0.382-0.645-0.674s-0.236-0.593-0.236-0.902c0-0.313,0.079-0.614,0.236-0.904
		s0.373-0.515,0.645-0.674s0.558-0.238,0.857-0.238c0.573,0,1.055,0.261,1.445,0.781v-1.852h-0.438
		c-0.081,0-0.138-0.016-0.172-0.047s-0.051-0.071-0.051-0.121c0-0.047,0.017-0.086,0.051-0.117s0.091-0.047,0.172-0.047H186.186z
		 M185.854,95.938c0-0.417-0.141-0.769-0.422-1.055s-0.616-0.43-1.004-0.43c-0.391,0-0.727,0.144-1.008,0.43
		s-0.422,0.638-0.422,1.055c0,0.414,0.141,0.765,0.422,1.053s0.617,0.432,1.008,0.432c0.388,0,0.723-0.144,1.004-0.432
		S185.854,96.352,185.854,95.938z"/>
	<path fill="#231F20" d="M195.788,97.621h-0.422l-2.418-4.09v3.762h0.605c0.081,0,0.138,0.015,0.172,0.045s0.051,0.069,0.051,0.119
		c0,0.047-0.017,0.086-0.051,0.117s-0.091,0.047-0.172,0.047h-1.207c-0.081,0-0.138-0.016-0.172-0.047s-0.051-0.07-0.051-0.117
		c0-0.05,0.017-0.089,0.051-0.119s0.091-0.045,0.172-0.045h0.273v-3.914h-0.441c-0.078,0-0.134-0.015-0.168-0.045
		s-0.051-0.069-0.051-0.119s0.017-0.089,0.051-0.119s0.09-0.045,0.168-0.045h0.859l2.422,4.098v-3.77h-0.605
		c-0.078,0-0.134-0.015-0.168-0.045s-0.051-0.069-0.051-0.119s0.016-0.089,0.049-0.119s0.089-0.045,0.17-0.045h1.211
		c0.078,0,0.134,0.015,0.168,0.045s0.051,0.069,0.051,0.119s-0.017,0.089-0.051,0.119s-0.09,0.045-0.168,0.045h-0.277V97.621z"/>
	<path fill="#231F20" d="M200.815,95.938c0,0.5-0.179,0.927-0.537,1.281s-0.79,0.531-1.295,0.531c-0.51,0-0.944-0.178-1.301-0.533
		s-0.535-0.782-0.535-1.279c0-0.5,0.178-0.928,0.535-1.283s0.791-0.533,1.301-0.533c0.505,0,0.937,0.177,1.295,0.531
		S200.815,95.435,200.815,95.938z M200.483,95.938c0-0.411-0.146-0.762-0.439-1.051s-0.648-0.434-1.064-0.434
		s-0.771,0.146-1.064,0.436s-0.439,0.64-0.439,1.049c0,0.406,0.146,0.755,0.439,1.047s0.648,0.438,1.064,0.438
		s0.771-0.146,1.064-0.436S200.483,96.347,200.483,95.938z"/>
	<path fill="#231F20" d="M203.108,94.238h1.781c0.078,0,0.134,0.016,0.168,0.047s0.051,0.071,0.051,0.121
		c0,0.047-0.017,0.086-0.051,0.117s-0.09,0.047-0.168,0.047h-1.781v2.184c0,0.19,0.076,0.349,0.229,0.477s0.375,0.191,0.67,0.191
		c0.221,0,0.461-0.033,0.719-0.1s0.458-0.142,0.602-0.225c0.052-0.034,0.095-0.051,0.129-0.051c0.042,0,0.078,0.017,0.109,0.049
		s0.047,0.071,0.047,0.115c0,0.039-0.017,0.075-0.051,0.109c-0.083,0.086-0.286,0.179-0.607,0.279s-0.629,0.15-0.924,0.15
		c-0.383,0-0.688-0.09-0.914-0.27s-0.34-0.422-0.34-0.727V94.57h-0.605c-0.078,0-0.134-0.016-0.168-0.047s-0.051-0.071-0.051-0.121
		c0-0.047,0.017-0.086,0.051-0.117s0.09-0.047,0.168-0.047h0.605V93.27c0-0.078,0.016-0.134,0.047-0.168s0.07-0.051,0.117-0.051
		c0.049,0,0.09,0.017,0.121,0.051s0.047,0.09,0.047,0.168V94.238z"/>
	<path fill="#231F20" d="M214.463,96.094h-2.156l-0.441,1.199h0.629c0.078,0,0.134,0.015,0.168,0.045s0.051,0.069,0.051,0.119
		c0,0.047-0.017,0.086-0.051,0.117s-0.09,0.047-0.168,0.047h-1.227c-0.078,0-0.134-0.016-0.168-0.047s-0.051-0.07-0.051-0.117
		c0-0.05,0.017-0.089,0.051-0.119s0.09-0.045,0.168-0.045h0.254l1.449-3.914h-0.969c-0.078,0-0.134-0.015-0.168-0.045
		s-0.051-0.069-0.051-0.119s0.017-0.089,0.051-0.119s0.09-0.045,0.168-0.045h1.652l1.602,4.242h0.254
		c0.078,0,0.134,0.015,0.168,0.045s0.051,0.069,0.051,0.119c0,0.047-0.017,0.086-0.051,0.117s-0.09,0.047-0.168,0.047h-1.223
		c-0.081,0-0.138-0.016-0.172-0.047s-0.051-0.07-0.051-0.117c0-0.05,0.017-0.089,0.051-0.119s0.091-0.045,0.172-0.045h0.625
		L214.463,96.094z M214.338,95.766l-0.906-2.387h-0.121l-0.879,2.387H214.338z"/>
	<path fill="#231F20" d="M218.28,95.68c0,0.3-0.039,0.616-0.117,0.951s-0.228,0.723-0.449,1.164s-0.383,0.706-0.484,0.795
		c-0.031,0.031-0.065,0.047-0.102,0.047c-0.047,0-0.086-0.017-0.119-0.049s-0.049-0.071-0.049-0.115
		c0-0.026,0.009-0.055,0.027-0.086c0.287-0.523,0.491-0.999,0.613-1.426s0.184-0.854,0.184-1.281c0-0.43-0.061-0.858-0.184-1.285
		s-0.327-0.903-0.613-1.43c-0.018-0.031-0.027-0.06-0.027-0.086c0-0.044,0.016-0.082,0.049-0.113s0.072-0.047,0.119-0.047
		c0.037,0,0.07,0.015,0.102,0.043c0.096,0.089,0.254,0.348,0.473,0.777s0.37,0.81,0.453,1.141S218.28,95.344,218.28,95.68z"/>
	<path fill="#231F20" d="M229.792,95.348c0,0.438-0.088,0.843-0.266,1.217s-0.421,0.665-0.732,0.873s-0.645,0.313-1.002,0.313
		c-0.529,0-0.994-0.225-1.396-0.674s-0.604-1.025-0.604-1.729c0-0.706,0.201-1.282,0.604-1.73s0.868-0.672,1.396-0.672
		c0.357,0,0.69,0.104,1,0.313s0.554,0.499,0.732,0.871S229.792,94.907,229.792,95.348z M229.459,95.348
		c0-0.534-0.155-1.013-0.465-1.438s-0.711-0.637-1.203-0.637c-0.461,0-0.855,0.202-1.182,0.607s-0.49,0.894-0.49,1.467
		c0,0.609,0.171,1.107,0.514,1.494s0.729,0.58,1.158,0.58c0.492,0,0.893-0.212,1.203-0.635S229.459,95.884,229.459,95.348z"/>
	<path fill="#231F20" d="M232.194,94.238v0.828c0.427-0.386,0.747-0.634,0.959-0.744s0.408-0.166,0.588-0.166
		c0.195,0,0.377,0.065,0.545,0.197s0.252,0.231,0.252,0.299c0,0.05-0.016,0.091-0.049,0.123s-0.074,0.049-0.123,0.049
		c-0.026,0-0.048-0.005-0.066-0.014s-0.052-0.038-0.102-0.088c-0.091-0.091-0.17-0.153-0.238-0.188s-0.134-0.051-0.199-0.051
		c-0.143,0-0.316,0.058-0.518,0.172s-0.551,0.395-1.049,0.84v1.797h1.453c0.081,0,0.138,0.015,0.172,0.045s0.051,0.069,0.051,0.119
		c0,0.047-0.017,0.086-0.051,0.117s-0.091,0.047-0.172,0.047h-2.574c-0.078,0-0.134-0.015-0.168-0.045s-0.051-0.068-0.051-0.115
		c0-0.044,0.016-0.081,0.049-0.111s0.089-0.045,0.17-0.045h0.793V94.57h-0.605c-0.078,0-0.134-0.016-0.168-0.047
		s-0.051-0.071-0.051-0.121c0-0.047,0.016-0.086,0.049-0.117s0.089-0.047,0.17-0.047H232.194z"/>
</g>
<g enable-background="new    ">
	<path fill="#231F20" d="M124.531,105.277c0-0.3,0.039-0.617,0.117-0.953s0.228-0.724,0.449-1.164s0.383-0.706,0.484-0.797
		c0.031-0.028,0.065-0.043,0.102-0.043c0.047,0,0.086,0.016,0.119,0.047s0.049,0.069,0.049,0.113c0,0.026-0.009,0.055-0.027,0.086
		c-0.287,0.526-0.491,1.003-0.613,1.43s-0.184,0.854-0.184,1.281c0,0.43,0.061,0.858,0.184,1.285s0.327,0.902,0.613,1.426
		c0.018,0.031,0.027,0.06,0.027,0.086c0,0.044-0.016,0.083-0.049,0.115s-0.072,0.049-0.119,0.049c-0.037,0-0.07-0.015-0.102-0.043
		c-0.096-0.089-0.254-0.348-0.473-0.777s-0.37-0.81-0.453-1.141S124.531,105.613,124.531,105.277z"/>
	<path fill="#231F20" d="M130.449,105.695h-2.156l-0.441,1.199h0.629c0.078,0,0.134,0.015,0.168,0.045s0.051,0.069,0.051,0.119
		c0,0.047-0.017,0.086-0.051,0.117s-0.09,0.047-0.168,0.047h-1.227c-0.078,0-0.134-0.016-0.168-0.047s-0.051-0.07-0.051-0.117
		c0-0.05,0.017-0.089,0.051-0.119s0.09-0.045,0.168-0.045h0.254l1.449-3.914h-0.969c-0.078,0-0.134-0.015-0.168-0.045
		s-0.051-0.069-0.051-0.119s0.017-0.089,0.051-0.119s0.09-0.045,0.168-0.045h1.652l1.602,4.242h0.254
		c0.078,0,0.134,0.015,0.168,0.045s0.051,0.069,0.051,0.119c0,0.047-0.017,0.086-0.051,0.117s-0.09,0.047-0.168,0.047h-1.223
		c-0.081,0-0.138-0.016-0.172-0.047s-0.051-0.07-0.051-0.117c0-0.05,0.017-0.089,0.051-0.119s0.091-0.045,0.172-0.045h0.625
		L130.449,105.695z M130.324,105.367l-0.906-2.387h-0.121l-0.879,2.387H130.324z"/>
	<path fill="#231F20" d="M140.051,105.695h-2.156l-0.441,1.199h0.629c0.078,0,0.134,0.015,0.168,0.045s0.051,0.069,0.051,0.119
		c0,0.047-0.017,0.086-0.051,0.117s-0.09,0.047-0.168,0.047h-1.227c-0.078,0-0.134-0.016-0.168-0.047s-0.051-0.07-0.051-0.117
		c0-0.05,0.017-0.089,0.051-0.119s0.09-0.045,0.168-0.045h0.254l1.449-3.914h-0.969c-0.078,0-0.134-0.015-0.168-0.045
		s-0.051-0.069-0.051-0.119s0.017-0.089,0.051-0.119s0.09-0.045,0.168-0.045h1.652l1.602,4.242h0.254
		c0.078,0,0.134,0.015,0.168,0.045s0.051,0.069,0.051,0.119c0,0.047-0.017,0.086-0.051,0.117s-0.09,0.047-0.168,0.047h-1.223
		c-0.081,0-0.138-0.016-0.172-0.047s-0.051-0.07-0.051-0.117c0-0.05,0.017-0.089,0.051-0.119s0.091-0.045,0.172-0.045h0.625
		L140.051,105.695z M139.926,105.367l-0.906-2.387h-0.121l-0.879,2.387H139.926z"/>
	<path fill="#231F20" d="M142.711,103.84v0.496c0.229-0.231,0.436-0.392,0.621-0.48s0.393-0.133,0.625-0.133
		c0.25,0,0.478,0.054,0.684,0.16c0.146,0.078,0.278,0.208,0.396,0.389s0.178,0.366,0.178,0.557v2.066h0.277
		c0.078,0,0.134,0.015,0.168,0.045s0.051,0.069,0.051,0.119c0,0.047-0.017,0.086-0.051,0.117s-0.09,0.047-0.168,0.047h-0.879
		c-0.081,0-0.138-0.016-0.172-0.047s-0.051-0.07-0.051-0.117c0-0.05,0.017-0.089,0.051-0.119s0.091-0.045,0.172-0.045h0.273v-2.012
		c0-0.231-0.084-0.428-0.254-0.588s-0.396-0.24-0.68-0.24c-0.216,0-0.404,0.044-0.563,0.131s-0.385,0.304-0.68,0.65v2.059h0.371
		c0.078,0,0.134,0.015,0.168,0.045s0.051,0.069,0.051,0.119c0,0.047-0.017,0.086-0.051,0.117s-0.09,0.047-0.168,0.047h-1.07
		c-0.078,0-0.134-0.016-0.168-0.047s-0.051-0.07-0.051-0.117c0-0.05,0.017-0.089,0.051-0.119s0.09-0.045,0.168-0.045h0.371v-2.723
		h-0.277c-0.078,0-0.134-0.016-0.168-0.047s-0.051-0.071-0.051-0.121c0-0.047,0.017-0.086,0.051-0.117s0.09-0.047,0.168-0.047
		H142.711z"/>
	<path fill="#231F20" d="M150.18,102.32v4.574h0.438c0.081,0,0.138,0.015,0.172,0.045s0.051,0.069,0.051,0.119
		c0,0.047-0.017,0.086-0.051,0.117s-0.091,0.047-0.172,0.047h-0.77v-0.652c-0.38,0.521-0.863,0.781-1.449,0.781
		c-0.297,0-0.582-0.079-0.854-0.236s-0.487-0.382-0.645-0.674s-0.236-0.593-0.236-0.902c0-0.313,0.079-0.614,0.236-0.904
		s0.373-0.515,0.645-0.674s0.558-0.238,0.857-0.238c0.573,0,1.055,0.261,1.445,0.781v-1.852h-0.438
		c-0.081,0-0.138-0.016-0.172-0.047s-0.051-0.071-0.051-0.121c0-0.047,0.017-0.086,0.051-0.117s0.091-0.047,0.172-0.047H150.18z
		 M149.848,105.539c0-0.417-0.141-0.769-0.422-1.055s-0.616-0.43-1.004-0.43c-0.391,0-0.727,0.144-1.008,0.43
		s-0.422,0.638-0.422,1.055c0,0.414,0.141,0.765,0.422,1.053s0.617,0.432,1.008,0.432c0.388,0,0.723-0.144,1.004-0.432
		S149.848,105.953,149.848,105.539z"/>
	<path fill="#231F20" d="M159.781,107.223h-0.422l-2.418-4.09v3.762h0.605c0.081,0,0.138,0.015,0.172,0.045s0.051,0.069,0.051,0.119
		c0,0.047-0.017,0.086-0.051,0.117s-0.091,0.047-0.172,0.047h-1.207c-0.081,0-0.138-0.016-0.172-0.047s-0.051-0.07-0.051-0.117
		c0-0.05,0.017-0.089,0.051-0.119s0.091-0.045,0.172-0.045h0.273v-3.914h-0.441c-0.078,0-0.134-0.015-0.168-0.045
		s-0.051-0.069-0.051-0.119s0.017-0.089,0.051-0.119s0.09-0.045,0.168-0.045h0.859l2.422,4.098v-3.77h-0.605
		c-0.078,0-0.134-0.015-0.168-0.045s-0.051-0.069-0.051-0.119s0.016-0.089,0.049-0.119s0.089-0.045,0.17-0.045h1.211
		c0.078,0,0.134,0.015,0.168,0.045s0.051,0.069,0.051,0.119s-0.017,0.089-0.051,0.119s-0.09,0.045-0.168,0.045h-0.277V107.223z"/>
	<path fill="#231F20" d="M164.809,105.539c0,0.5-0.179,0.927-0.537,1.281s-0.79,0.531-1.295,0.531c-0.51,0-0.944-0.178-1.301-0.533
		s-0.535-0.782-0.535-1.279c0-0.5,0.178-0.928,0.535-1.283s0.791-0.533,1.301-0.533c0.505,0,0.937,0.177,1.295,0.531
		S164.809,105.036,164.809,105.539z M164.477,105.539c0-0.411-0.146-0.762-0.439-1.051s-0.648-0.434-1.064-0.434
		s-0.771,0.146-1.064,0.436s-0.439,0.64-0.439,1.049c0,0.406,0.146,0.755,0.439,1.047s0.648,0.438,1.064,0.438
		s0.771-0.146,1.064-0.436S164.477,105.948,164.477,105.539z"/>
	<path fill="#231F20" d="M167.102,103.84h1.781c0.078,0,0.134,0.016,0.168,0.047s0.051,0.071,0.051,0.121
		c0,0.047-0.017,0.086-0.051,0.117s-0.09,0.047-0.168,0.047h-1.781v2.184c0,0.19,0.076,0.349,0.229,0.477s0.375,0.191,0.67,0.191
		c0.221,0,0.461-0.033,0.719-0.1s0.458-0.142,0.602-0.225c0.052-0.034,0.095-0.051,0.129-0.051c0.042,0,0.078,0.017,0.109,0.049
		s0.047,0.071,0.047,0.115c0,0.039-0.017,0.075-0.051,0.109c-0.083,0.086-0.286,0.179-0.607,0.279s-0.629,0.15-0.924,0.15
		c-0.383,0-0.688-0.09-0.914-0.27s-0.34-0.422-0.34-0.727v-2.184h-0.605c-0.078,0-0.134-0.016-0.168-0.047s-0.051-0.071-0.051-0.121
		c0-0.047,0.017-0.086,0.051-0.117s0.09-0.047,0.168-0.047h0.605v-0.969c0-0.078,0.016-0.134,0.047-0.168s0.07-0.051,0.117-0.051
		c0.049,0,0.09,0.017,0.121,0.051s0.047,0.09,0.047,0.168V103.84z"/>
	<path fill="#231F20" d="M175.977,106.895v-3.914h-0.441c-0.078,0-0.134-0.015-0.168-0.045s-0.051-0.069-0.051-0.119
		s0.017-0.089,0.051-0.119s0.09-0.045,0.168-0.045h2.063c0.409,0,0.742,0.118,0.998,0.354s0.385,0.513,0.385,0.83
		c0,0.401-0.215,0.726-0.645,0.973c0.341,0.122,0.591,0.285,0.75,0.488s0.238,0.427,0.238,0.672c0,0.219-0.052,0.419-0.156,0.6
		s-0.264,0.335-0.479,0.463s-0.449,0.191-0.701,0.191h-2.453c-0.078,0-0.134-0.016-0.168-0.047s-0.051-0.07-0.051-0.117
		c0-0.05,0.017-0.089,0.051-0.119s0.09-0.045,0.168-0.045H175.977z M176.305,104.684h1.16c0.248,0,0.474-0.046,0.68-0.137
		c0.159-0.073,0.283-0.179,0.371-0.316s0.133-0.278,0.133-0.422c0-0.206-0.096-0.396-0.289-0.568s-0.444-0.26-0.754-0.26h-1.301
		V104.684z M176.305,106.895h1.66c0.211,0,0.395-0.047,0.551-0.141s0.275-0.21,0.355-0.348s0.121-0.281,0.121-0.43
		c0-0.167-0.058-0.328-0.174-0.484s-0.277-0.274-0.482-0.355s-0.49-0.121-0.852-0.121h-1.18V106.895z"/>
	<path fill="#231F20" d="M188.059,105.695h-2.156l-0.441,1.199h0.629c0.078,0,0.134,0.015,0.168,0.045s0.051,0.069,0.051,0.119
		c0,0.047-0.017,0.086-0.051,0.117s-0.09,0.047-0.168,0.047h-1.227c-0.078,0-0.134-0.016-0.168-0.047s-0.051-0.07-0.051-0.117
		c0-0.05,0.017-0.089,0.051-0.119s0.09-0.045,0.168-0.045h0.254l1.449-3.914h-0.969c-0.078,0-0.134-0.015-0.168-0.045
		s-0.051-0.069-0.051-0.119s0.017-0.089,0.051-0.119s0.09-0.045,0.168-0.045h1.652l1.602,4.242h0.254
		c0.078,0,0.134,0.015,0.168,0.045s0.051,0.069,0.051,0.119c0,0.047-0.017,0.086-0.051,0.117s-0.09,0.047-0.168,0.047h-1.223
		c-0.081,0-0.138-0.016-0.172-0.047s-0.051-0.07-0.051-0.117c0-0.05,0.017-0.089,0.051-0.119s0.091-0.045,0.172-0.045h0.625
		L188.059,105.695z M187.934,105.367l-0.906-2.387h-0.121l-0.879,2.387H187.934z"/>
	<path fill="#231F20" d="M190.719,103.84v0.496c0.229-0.231,0.436-0.392,0.621-0.48s0.393-0.133,0.625-0.133
		c0.25,0,0.478,0.054,0.684,0.16c0.146,0.078,0.278,0.208,0.396,0.389s0.178,0.366,0.178,0.557v2.066h0.277
		c0.078,0,0.134,0.015,0.168,0.045s0.051,0.069,0.051,0.119c0,0.047-0.017,0.086-0.051,0.117s-0.09,0.047-0.168,0.047h-0.879
		c-0.081,0-0.138-0.016-0.172-0.047s-0.051-0.07-0.051-0.117c0-0.05,0.017-0.089,0.051-0.119s0.091-0.045,0.172-0.045h0.273v-2.012
		c0-0.231-0.084-0.428-0.254-0.588s-0.396-0.24-0.68-0.24c-0.216,0-0.404,0.044-0.563,0.131s-0.385,0.304-0.68,0.65v2.059h0.371
		c0.078,0,0.134,0.015,0.168,0.045s0.051,0.069,0.051,0.119c0,0.047-0.017,0.086-0.051,0.117s-0.09,0.047-0.168,0.047h-1.07
		c-0.078,0-0.134-0.016-0.168-0.047s-0.051-0.07-0.051-0.117c0-0.05,0.017-0.089,0.051-0.119s0.09-0.045,0.168-0.045h0.371v-2.723
		h-0.277c-0.078,0-0.134-0.016-0.168-0.047s-0.051-0.071-0.051-0.121c0-0.047,0.017-0.086,0.051-0.117s0.09-0.047,0.168-0.047
		H190.719z"/>
	<path fill="#231F20" d="M198.188,102.32v4.574h0.438c0.081,0,0.138,0.015,0.172,0.045s0.051,0.069,0.051,0.119
		c0,0.047-0.017,0.086-0.051,0.117s-0.091,0.047-0.172,0.047h-0.77v-0.652c-0.38,0.521-0.863,0.781-1.449,0.781
		c-0.297,0-0.582-0.079-0.854-0.236s-0.487-0.382-0.645-0.674s-0.236-0.593-0.236-0.902c0-0.313,0.079-0.614,0.236-0.904
		s0.373-0.515,0.645-0.674s0.558-0.238,0.857-0.238c0.573,0,1.055,0.261,1.445,0.781v-1.852h-0.438
		c-0.081,0-0.138-0.016-0.172-0.047s-0.051-0.071-0.051-0.121c0-0.047,0.017-0.086,0.051-0.117s0.091-0.047,0.172-0.047H198.188z
		 M197.855,105.539c0-0.417-0.141-0.769-0.422-1.055s-0.616-0.43-1.004-0.43c-0.391,0-0.727,0.144-1.008,0.43
		S195,105.122,195,105.539c0,0.414,0.141,0.765,0.422,1.053s0.617,0.432,1.008,0.432c0.388,0,0.723-0.144,1.004-0.432
		S197.855,105.953,197.855,105.539z"/>
	<path fill="#231F20" d="M207.789,107.223h-0.422l-2.418-4.09v3.762h0.605c0.081,0,0.138,0.015,0.172,0.045s0.051,0.069,0.051,0.119
		c0,0.047-0.017,0.086-0.051,0.117s-0.091,0.047-0.172,0.047h-1.207c-0.081,0-0.138-0.016-0.172-0.047s-0.051-0.07-0.051-0.117
		c0-0.05,0.017-0.089,0.051-0.119s0.091-0.045,0.172-0.045h0.273v-3.914h-0.441c-0.078,0-0.134-0.015-0.168-0.045
		s-0.051-0.069-0.051-0.119s0.017-0.089,0.051-0.119s0.09-0.045,0.168-0.045h0.859l2.422,4.098v-3.77h-0.605
		c-0.078,0-0.134-0.015-0.168-0.045s-0.051-0.069-0.051-0.119s0.016-0.089,0.049-0.119s0.089-0.045,0.17-0.045h1.211
		c0.078,0,0.134,0.015,0.168,0.045s0.051,0.069,0.051,0.119s-0.017,0.089-0.051,0.119s-0.09,0.045-0.168,0.045h-0.277V107.223z"/>
	<path fill="#231F20" d="M212.816,105.539c0,0.5-0.179,0.927-0.537,1.281s-0.79,0.531-1.295,0.531c-0.51,0-0.944-0.178-1.301-0.533
		s-0.535-0.782-0.535-1.279c0-0.5,0.178-0.928,0.535-1.283s0.791-0.533,1.301-0.533c0.505,0,0.937,0.177,1.295,0.531
		S212.816,105.036,212.816,105.539z M212.484,105.539c0-0.411-0.146-0.762-0.439-1.051s-0.648-0.434-1.064-0.434
		s-0.771,0.146-1.064,0.436s-0.439,0.64-0.439,1.049c0,0.406,0.146,0.755,0.439,1.047s0.648,0.438,1.064,0.438
		s0.771-0.146,1.064-0.436S212.484,105.948,212.484,105.539z"/>
	<path fill="#231F20" d="M215.109,103.84h1.781c0.078,0,0.134,0.016,0.168,0.047s0.051,0.071,0.051,0.121
		c0,0.047-0.017,0.086-0.051,0.117s-0.09,0.047-0.168,0.047h-1.781v2.184c0,0.19,0.076,0.349,0.229,0.477s0.375,0.191,0.67,0.191
		c0.221,0,0.461-0.033,0.719-0.1s0.458-0.142,0.602-0.225c0.052-0.034,0.095-0.051,0.129-0.051c0.042,0,0.078,0.017,0.109,0.049
		s0.047,0.071,0.047,0.115c0,0.039-0.017,0.075-0.051,0.109c-0.083,0.086-0.286,0.179-0.607,0.279s-0.629,0.15-0.924,0.15
		c-0.383,0-0.688-0.09-0.914-0.27s-0.34-0.422-0.34-0.727v-2.184h-0.605c-0.078,0-0.134-0.016-0.168-0.047s-0.051-0.071-0.051-0.121
		c0-0.047,0.017-0.086,0.051-0.117s0.09-0.047,0.168-0.047h0.605v-0.969c0-0.078,0.016-0.134,0.047-0.168s0.07-0.051,0.117-0.051
		c0.049,0,0.09,0.017,0.121,0.051s0.047,0.09,0.047,0.168V103.84z"/>
	<path fill="#231F20" d="M226.828,103.102v-0.23c0-0.078,0.015-0.134,0.045-0.168s0.07-0.051,0.119-0.051s0.089,0.017,0.119,0.051
		s0.045,0.09,0.045,0.168v0.91c0,0.081-0.015,0.138-0.045,0.172s-0.07,0.051-0.119,0.051c-0.044,0-0.082-0.016-0.111-0.047
		s-0.047-0.082-0.053-0.152c-0.013-0.219-0.131-0.413-0.355-0.582c-0.302-0.231-0.646-0.348-1.031-0.348
		c-0.252,0-0.491,0.056-0.715,0.168c-0.167,0.081-0.299,0.18-0.398,0.297c-0.172,0.203-0.309,0.429-0.41,0.676
		c-0.073,0.183-0.109,0.388-0.109,0.617v0.574c0,0.489,0.177,0.915,0.531,1.275s0.766,0.541,1.234,0.541
		c0.281,0,0.533-0.062,0.756-0.184s0.438-0.308,0.646-0.555c0.044-0.055,0.094-0.082,0.148-0.082c0.047,0,0.084,0.015,0.113,0.043
		s0.043,0.065,0.043,0.109c0,0.06-0.056,0.151-0.168,0.273c-0.213,0.239-0.454,0.42-0.721,0.541s-0.537,0.182-0.811,0.182
		c-0.237,0-0.478-0.046-0.723-0.137c-0.188-0.07-0.342-0.152-0.465-0.246s-0.273-0.252-0.451-0.475s-0.3-0.429-0.365-0.617
		s-0.098-0.396-0.098-0.623v-0.668c0-0.323,0.086-0.653,0.26-0.99s0.41-0.597,0.711-0.777s0.627-0.271,0.979-0.271
		C225.971,102.547,226.438,102.731,226.828,103.102z"/>
	<path fill="#231F20" d="M230.281,105.281c0,0.3-0.039,0.616-0.117,0.951s-0.228,0.723-0.449,1.164s-0.383,0.706-0.484,0.795
		c-0.031,0.031-0.065,0.047-0.102,0.047c-0.047,0-0.086-0.017-0.119-0.049s-0.049-0.071-0.049-0.115
		c0-0.026,0.009-0.055,0.027-0.086c0.287-0.523,0.491-0.999,0.613-1.426s0.184-0.854,0.184-1.281c0-0.43-0.061-0.858-0.184-1.285
		s-0.327-0.903-0.613-1.43c-0.018-0.031-0.027-0.06-0.027-0.086c0-0.044,0.016-0.082,0.049-0.113s0.072-0.047,0.119-0.047
		c0.037,0,0.07,0.015,0.102,0.043c0.096,0.089,0.254,0.348,0.473,0.777s0.37,0.81,0.453,1.141S230.281,104.945,230.281,105.281z"/>
</g>
<g enable-background="new    ">
	<path fill="#231F20" d="M265.899,95.676c0-0.3,0.039-0.617,0.117-0.953s0.228-0.724,0.449-1.164s0.383-0.706,0.484-0.797
		c0.031-0.028,0.065-0.043,0.102-0.043c0.047,0,0.087,0.016,0.119,0.047s0.049,0.069,0.049,0.113c0,0.026-0.009,0.055-0.027,0.086
		c-0.286,0.526-0.491,1.003-0.613,1.43s-0.184,0.854-0.184,1.281c0,0.43,0.062,0.858,0.184,1.285s0.327,0.902,0.613,1.426
		c0.019,0.031,0.027,0.06,0.027,0.086c0,0.044-0.017,0.083-0.049,0.115s-0.072,0.049-0.119,0.049c-0.036,0-0.07-0.015-0.102-0.043
		c-0.097-0.089-0.254-0.348-0.473-0.777s-0.37-0.81-0.453-1.141S265.899,96.012,265.899,95.676z"/>
	<path fill="#231F20" d="M269.336,97.293v-3.914h-0.441c-0.078,0-0.134-0.015-0.168-0.045s-0.051-0.069-0.051-0.119
		s0.017-0.089,0.051-0.119s0.09-0.045,0.168-0.045h2.063c0.409,0,0.741,0.118,0.998,0.354s0.385,0.513,0.385,0.83
		c0,0.401-0.215,0.726-0.645,0.973c0.341,0.122,0.591,0.285,0.75,0.488s0.238,0.427,0.238,0.672c0,0.219-0.052,0.419-0.156,0.6
		s-0.264,0.335-0.479,0.463s-0.448,0.191-0.701,0.191h-2.453c-0.078,0-0.134-0.016-0.168-0.047s-0.051-0.07-0.051-0.117
		c0-0.05,0.017-0.089,0.051-0.119s0.09-0.045,0.168-0.045H269.336z M269.665,95.082h1.16c0.247,0,0.474-0.046,0.68-0.137
		c0.159-0.073,0.282-0.179,0.371-0.316s0.133-0.278,0.133-0.422c0-0.206-0.097-0.396-0.289-0.568s-0.444-0.26-0.754-0.26h-1.301
		V95.082z M269.665,97.293h1.66c0.211,0,0.395-0.047,0.551-0.141s0.274-0.21,0.355-0.348s0.121-0.281,0.121-0.43
		c0-0.167-0.058-0.328-0.174-0.484s-0.276-0.274-0.482-0.355s-0.489-0.121-0.852-0.121h-1.18V97.293z"/>
	<path fill="#231F20" d="M281.418,96.094h-2.156l-0.441,1.199h0.629c0.078,0,0.134,0.015,0.168,0.045s0.051,0.069,0.051,0.119
		c0,0.047-0.017,0.086-0.051,0.117s-0.09,0.047-0.168,0.047h-1.227c-0.078,0-0.134-0.016-0.168-0.047s-0.051-0.07-0.051-0.117
		c0-0.05,0.017-0.089,0.051-0.119s0.09-0.045,0.168-0.045h0.254l1.449-3.914h-0.969c-0.078,0-0.134-0.015-0.168-0.045
		s-0.051-0.069-0.051-0.119s0.017-0.089,0.051-0.119s0.09-0.045,0.168-0.045h1.652l1.602,4.242h0.254
		c0.078,0,0.134,0.015,0.168,0.045s0.051,0.069,0.051,0.119c0,0.047-0.017,0.086-0.051,0.117s-0.09,0.047-0.168,0.047h-1.223
		c-0.081,0-0.138-0.016-0.172-0.047s-0.051-0.07-0.051-0.117c0-0.05,0.017-0.089,0.051-0.119s0.091-0.045,0.172-0.045h0.625
		L281.418,96.094z M281.293,95.766l-0.906-2.387h-0.121l-0.879,2.387H281.293z"/>
	<path fill="#231F20" d="M284.079,94.238v0.496c0.229-0.231,0.437-0.392,0.621-0.48s0.394-0.133,0.625-0.133
		c0.25,0,0.478,0.054,0.684,0.16c0.146,0.078,0.278,0.208,0.396,0.389s0.178,0.366,0.178,0.557v2.066h0.277
		c0.078,0,0.134,0.015,0.168,0.045s0.051,0.069,0.051,0.119c0,0.047-0.017,0.086-0.051,0.117s-0.09,0.047-0.168,0.047h-0.879
		c-0.081,0-0.138-0.016-0.172-0.047s-0.051-0.07-0.051-0.117c0-0.05,0.017-0.089,0.051-0.119s0.091-0.045,0.172-0.045h0.273v-2.012
		c0-0.231-0.085-0.428-0.254-0.588s-0.396-0.24-0.68-0.24c-0.216,0-0.403,0.044-0.563,0.131s-0.386,0.304-0.68,0.65v2.059h0.371
		c0.078,0,0.134,0.015,0.168,0.045s0.051,0.069,0.051,0.119c0,0.047-0.017,0.086-0.051,0.117s-0.09,0.047-0.168,0.047h-1.07
		c-0.078,0-0.134-0.016-0.168-0.047s-0.051-0.07-0.051-0.117c0-0.05,0.017-0.089,0.051-0.119s0.09-0.045,0.168-0.045h0.371V94.57
		h-0.277c-0.078,0-0.134-0.016-0.168-0.047s-0.051-0.071-0.051-0.121c0-0.047,0.017-0.086,0.051-0.117s0.09-0.047,0.168-0.047
		H284.079z"/>
	<path fill="#231F20" d="M291.547,92.719v4.574h0.438c0.081,0,0.138,0.015,0.172,0.045s0.051,0.069,0.051,0.119
		c0,0.047-0.017,0.086-0.051,0.117s-0.091,0.047-0.172,0.047h-0.77v-0.652c-0.38,0.521-0.863,0.781-1.449,0.781
		c-0.297,0-0.581-0.079-0.854-0.236s-0.487-0.382-0.645-0.674s-0.236-0.593-0.236-0.902c0-0.313,0.079-0.614,0.236-0.904
		s0.372-0.515,0.645-0.674s0.558-0.238,0.857-0.238c0.573,0,1.055,0.261,1.445,0.781v-1.852h-0.438
		c-0.081,0-0.138-0.016-0.172-0.047s-0.051-0.071-0.051-0.121c0-0.047,0.017-0.086,0.051-0.117s0.091-0.047,0.172-0.047H291.547z
		 M291.215,95.938c0-0.417-0.141-0.769-0.422-1.055s-0.616-0.43-1.004-0.43c-0.391,0-0.727,0.144-1.008,0.43
		s-0.422,0.638-0.422,1.055c0,0.414,0.141,0.765,0.422,1.053s0.617,0.432,1.008,0.432c0.388,0,0.723-0.144,1.004-0.432
		S291.215,96.352,291.215,95.938z"/>
	<path fill="#231F20" d="M301.149,97.621h-0.422l-2.418-4.09v3.762h0.605c0.081,0,0.138,0.015,0.172,0.045s0.051,0.069,0.051,0.119
		c0,0.047-0.017,0.086-0.051,0.117s-0.091,0.047-0.172,0.047h-1.207c-0.081,0-0.138-0.016-0.172-0.047s-0.051-0.07-0.051-0.117
		c0-0.05,0.017-0.089,0.051-0.119s0.091-0.045,0.172-0.045h0.273v-3.914h-0.441c-0.078,0-0.134-0.015-0.168-0.045
		s-0.051-0.069-0.051-0.119s0.017-0.089,0.051-0.119s0.09-0.045,0.168-0.045h0.859l2.422,4.098v-3.77h-0.605
		c-0.078,0-0.134-0.015-0.168-0.045s-0.051-0.069-0.051-0.119s0.017-0.089,0.049-0.119s0.089-0.045,0.17-0.045h1.211
		c0.078,0,0.134,0.015,0.168,0.045s0.051,0.069,0.051,0.119s-0.017,0.089-0.051,0.119s-0.09,0.045-0.168,0.045h-0.277V97.621z"/>
	<path fill="#231F20" d="M306.176,95.938c0,0.5-0.179,0.927-0.537,1.281s-0.79,0.531-1.295,0.531c-0.511,0-0.944-0.178-1.301-0.533
		s-0.535-0.782-0.535-1.279c0-0.5,0.179-0.928,0.535-1.283s0.79-0.533,1.301-0.533c0.505,0,0.937,0.177,1.295,0.531
		S306.176,95.435,306.176,95.938z M305.844,95.938c0-0.411-0.146-0.762-0.439-1.051s-0.647-0.434-1.064-0.434
		s-0.771,0.146-1.064,0.436s-0.439,0.64-0.439,1.049c0,0.406,0.146,0.755,0.439,1.047s0.647,0.438,1.064,0.438
		s0.771-0.146,1.064-0.436S305.844,96.347,305.844,95.938z"/>
	<path fill="#231F20" d="M308.469,94.238h1.781c0.078,0,0.134,0.016,0.168,0.047s0.051,0.071,0.051,0.121
		c0,0.047-0.017,0.086-0.051,0.117s-0.09,0.047-0.168,0.047h-1.781v2.184c0,0.19,0.076,0.349,0.229,0.477s0.376,0.191,0.67,0.191
		c0.222,0,0.461-0.033,0.719-0.1s0.458-0.142,0.602-0.225c0.052-0.034,0.095-0.051,0.129-0.051c0.042,0,0.078,0.017,0.109,0.049
		s0.047,0.071,0.047,0.115c0,0.039-0.017,0.075-0.051,0.109c-0.083,0.086-0.286,0.179-0.607,0.279s-0.63,0.15-0.924,0.15
		c-0.383,0-0.688-0.09-0.914-0.27s-0.34-0.422-0.34-0.727V94.57h-0.605c-0.078,0-0.134-0.016-0.168-0.047s-0.051-0.071-0.051-0.121
		c0-0.047,0.017-0.086,0.051-0.117s0.09-0.047,0.168-0.047h0.605V93.27c0-0.078,0.016-0.134,0.047-0.168s0.07-0.051,0.117-0.051
		c0.05,0,0.09,0.017,0.121,0.051s0.047,0.09,0.047,0.168V94.238z"/>
	<path fill="#231F20" d="M320.188,93.5v-0.23c0-0.078,0.015-0.134,0.045-0.168s0.069-0.051,0.119-0.051s0.089,0.017,0.119,0.051
		s0.045,0.09,0.045,0.168v0.91c0,0.081-0.015,0.138-0.045,0.172s-0.069,0.051-0.119,0.051c-0.044,0-0.081-0.016-0.111-0.047
		s-0.048-0.082-0.053-0.152c-0.013-0.219-0.132-0.413-0.355-0.582c-0.302-0.231-0.646-0.348-1.031-0.348
		c-0.253,0-0.491,0.056-0.715,0.168c-0.167,0.081-0.3,0.18-0.398,0.297c-0.172,0.203-0.309,0.429-0.41,0.676
		c-0.073,0.183-0.109,0.388-0.109,0.617v0.574c0,0.489,0.177,0.915,0.531,1.275s0.766,0.541,1.234,0.541
		c0.281,0,0.533-0.062,0.756-0.184s0.438-0.308,0.646-0.555c0.044-0.055,0.094-0.082,0.148-0.082c0.047,0,0.085,0.015,0.113,0.043
		s0.043,0.065,0.043,0.109c0,0.06-0.056,0.151-0.168,0.273c-0.214,0.239-0.454,0.42-0.721,0.541s-0.537,0.182-0.811,0.182
		c-0.237,0-0.478-0.046-0.723-0.137c-0.188-0.07-0.343-0.152-0.465-0.246s-0.272-0.252-0.451-0.475s-0.3-0.429-0.365-0.617
		s-0.098-0.396-0.098-0.623v-0.668c0-0.323,0.087-0.653,0.26-0.99s0.41-0.597,0.711-0.777s0.627-0.271,0.979-0.271
		C319.332,92.945,319.797,93.13,320.188,93.5z"/>
	<path fill="#231F20" d="M323.641,95.68c0,0.3-0.039,0.616-0.117,0.951s-0.228,0.723-0.449,1.164s-0.383,0.706-0.484,0.795
		c-0.031,0.031-0.065,0.047-0.102,0.047c-0.047,0-0.087-0.017-0.119-0.049s-0.049-0.071-0.049-0.115
		c0-0.026,0.009-0.055,0.027-0.086c0.286-0.523,0.491-0.999,0.613-1.426s0.184-0.854,0.184-1.281c0-0.43-0.062-0.858-0.184-1.285
		s-0.327-0.903-0.613-1.43c-0.019-0.031-0.027-0.06-0.027-0.086c0-0.044,0.017-0.082,0.049-0.113s0.072-0.047,0.119-0.047
		c0.036,0,0.07,0.015,0.102,0.043c0.097,0.089,0.254,0.348,0.473,0.777s0.37,0.81,0.453,1.141S323.641,95.344,323.641,95.68z"/>
	<path fill="#231F20" d="M335.153,95.348c0,0.438-0.089,0.843-0.266,1.217s-0.421,0.665-0.732,0.873s-0.646,0.313-1.002,0.313
		c-0.528,0-0.994-0.225-1.396-0.674s-0.604-1.025-0.604-1.729c0-0.706,0.201-1.282,0.604-1.73s0.868-0.672,1.396-0.672
		c0.356,0,0.69,0.104,1,0.313s0.554,0.499,0.732,0.871S335.153,94.907,335.153,95.348z M334.821,95.348
		c0-0.534-0.155-1.013-0.465-1.438s-0.711-0.637-1.203-0.637c-0.461,0-0.854,0.202-1.182,0.607s-0.49,0.894-0.49,1.467
		c0,0.609,0.171,1.107,0.514,1.494s0.729,0.58,1.158,0.58c0.492,0,0.894-0.212,1.203-0.635S334.821,95.884,334.821,95.348z"/>
	<path fill="#231F20" d="M337.555,94.238v0.828c0.427-0.386,0.747-0.634,0.959-0.744s0.408-0.166,0.588-0.166
		c0.195,0,0.377,0.065,0.545,0.197s0.252,0.231,0.252,0.299c0,0.05-0.017,0.091-0.049,0.123s-0.073,0.049-0.123,0.049
		c-0.026,0-0.048-0.005-0.066-0.014s-0.052-0.038-0.102-0.088c-0.091-0.091-0.171-0.153-0.238-0.188s-0.134-0.051-0.199-0.051
		c-0.144,0-0.315,0.058-0.518,0.172s-0.552,0.395-1.049,0.84v1.797h1.453c0.081,0,0.138,0.015,0.172,0.045s0.051,0.069,0.051,0.119
		c0,0.047-0.017,0.086-0.051,0.117s-0.091,0.047-0.172,0.047h-2.574c-0.078,0-0.134-0.015-0.168-0.045s-0.051-0.068-0.051-0.115
		c0-0.044,0.017-0.081,0.049-0.111s0.089-0.045,0.17-0.045h0.793V94.57h-0.605c-0.078,0-0.134-0.016-0.168-0.047
		s-0.051-0.071-0.051-0.121c0-0.047,0.017-0.086,0.049-0.117s0.089-0.047,0.17-0.047H337.555z"/>
</g>
<g enable-background="new    ">
	<path fill="#231F20" d="M273.099,105.277c0-0.3,0.039-0.617,0.117-0.953s0.229-0.724,0.449-1.164s0.383-0.706,0.484-0.797
		c0.031-0.028,0.064-0.043,0.102-0.043c0.047,0,0.086,0.016,0.119,0.047s0.049,0.069,0.049,0.113c0,0.026-0.01,0.055-0.027,0.086
		c-0.287,0.526-0.49,1.003-0.613,1.43s-0.184,0.854-0.184,1.281c0,0.43,0.061,0.858,0.184,1.285s0.326,0.902,0.613,1.426
		c0.018,0.031,0.027,0.06,0.027,0.086c0,0.044-0.016,0.083-0.049,0.115s-0.072,0.049-0.119,0.049c-0.037,0-0.07-0.015-0.102-0.043
		c-0.096-0.089-0.254-0.348-0.473-0.777s-0.369-0.81-0.453-1.141S273.099,105.613,273.099,105.277z"/>
	<path fill="#231F20" d="M279.38,103.102v-0.23c0-0.078,0.016-0.134,0.045-0.168s0.07-0.051,0.119-0.051s0.09,0.017,0.119,0.051
		s0.045,0.09,0.045,0.168v0.91c0,0.081-0.016,0.138-0.045,0.172s-0.07,0.051-0.119,0.051c-0.045,0-0.082-0.016-0.111-0.047
		s-0.047-0.082-0.053-0.152c-0.014-0.219-0.131-0.413-0.355-0.582c-0.303-0.231-0.646-0.348-1.031-0.348
		c-0.252,0-0.49,0.056-0.715,0.168c-0.166,0.081-0.299,0.18-0.398,0.297c-0.172,0.203-0.309,0.429-0.41,0.676
		c-0.072,0.183-0.109,0.388-0.109,0.617v0.574c0,0.489,0.178,0.915,0.531,1.275s0.766,0.541,1.234,0.541
		c0.281,0,0.533-0.062,0.756-0.184s0.438-0.308,0.646-0.555c0.045-0.055,0.094-0.082,0.148-0.082c0.047,0,0.084,0.015,0.113,0.043
		s0.043,0.065,0.043,0.109c0,0.06-0.057,0.151-0.168,0.273c-0.213,0.239-0.453,0.42-0.721,0.541s-0.537,0.182-0.811,0.182
		c-0.236,0-0.479-0.046-0.723-0.137c-0.188-0.07-0.342-0.152-0.465-0.246s-0.273-0.252-0.451-0.475s-0.301-0.429-0.365-0.617
		s-0.098-0.396-0.098-0.623v-0.668c0-0.323,0.086-0.653,0.26-0.99s0.41-0.597,0.711-0.777s0.627-0.271,0.979-0.271
		C278.523,102.547,278.99,102.731,279.38,103.102z"/>
	<path fill="#231F20" d="M288.619,105.695h-2.156l-0.441,1.199h0.629c0.078,0,0.135,0.015,0.168,0.045s0.051,0.069,0.051,0.119
		c0,0.047-0.018,0.086-0.051,0.117s-0.09,0.047-0.168,0.047h-1.227c-0.078,0-0.135-0.016-0.168-0.047s-0.051-0.07-0.051-0.117
		c0-0.05,0.018-0.089,0.051-0.119s0.09-0.045,0.168-0.045h0.254l1.449-3.914h-0.969c-0.078,0-0.135-0.015-0.168-0.045
		s-0.051-0.069-0.051-0.119s0.018-0.089,0.051-0.119s0.09-0.045,0.168-0.045h1.652l1.602,4.242h0.254
		c0.078,0,0.135,0.015,0.168,0.045s0.051,0.069,0.051,0.119c0,0.047-0.018,0.086-0.051,0.117s-0.09,0.047-0.168,0.047h-1.223
		c-0.08,0-0.139-0.016-0.172-0.047s-0.051-0.07-0.051-0.117c0-0.05,0.018-0.089,0.051-0.119s0.092-0.045,0.172-0.045h0.625
		L288.619,105.695z M288.494,105.367l-0.906-2.387h-0.121l-0.879,2.387H288.494z"/>
	<path fill="#231F20" d="M291.279,103.84v0.496c0.229-0.231,0.436-0.392,0.621-0.48s0.393-0.133,0.625-0.133
		c0.25,0,0.479,0.054,0.684,0.16c0.146,0.078,0.277,0.208,0.396,0.389s0.178,0.366,0.178,0.557v2.066h0.277
		c0.078,0,0.135,0.015,0.168,0.045s0.051,0.069,0.051,0.119c0,0.047-0.018,0.086-0.051,0.117s-0.09,0.047-0.168,0.047h-0.879
		c-0.08,0-0.139-0.016-0.172-0.047s-0.051-0.07-0.051-0.117c0-0.05,0.018-0.089,0.051-0.119s0.092-0.045,0.172-0.045h0.273v-2.012
		c0-0.231-0.084-0.428-0.254-0.588s-0.396-0.24-0.68-0.24c-0.217,0-0.404,0.044-0.563,0.131s-0.385,0.304-0.68,0.65v2.059h0.371
		c0.078,0,0.135,0.015,0.168,0.045s0.051,0.069,0.051,0.119c0,0.047-0.018,0.086-0.051,0.117s-0.09,0.047-0.168,0.047h-1.07
		c-0.078,0-0.135-0.016-0.168-0.047s-0.051-0.07-0.051-0.117c0-0.05,0.018-0.089,0.051-0.119s0.09-0.045,0.168-0.045h0.371v-2.723
		h-0.277c-0.078,0-0.135-0.016-0.168-0.047s-0.051-0.071-0.051-0.121c0-0.047,0.018-0.086,0.051-0.117s0.09-0.047,0.168-0.047
		H291.279z"/>
	<path fill="#231F20" d="M298.748,102.32v4.574h0.438c0.08,0,0.139,0.015,0.172,0.045s0.051,0.069,0.051,0.119
		c0,0.047-0.018,0.086-0.051,0.117s-0.092,0.047-0.172,0.047h-0.77v-0.652c-0.381,0.521-0.863,0.781-1.449,0.781
		c-0.297,0-0.582-0.079-0.854-0.236s-0.486-0.382-0.645-0.674s-0.236-0.593-0.236-0.902c0-0.313,0.078-0.614,0.236-0.904
		s0.373-0.515,0.645-0.674s0.559-0.238,0.857-0.238c0.572,0,1.055,0.261,1.445,0.781v-1.852h-0.438c-0.08,0-0.139-0.016-0.172-0.047
		s-0.051-0.071-0.051-0.121c0-0.047,0.018-0.086,0.051-0.117s0.092-0.047,0.172-0.047H298.748z M298.416,105.539
		c0-0.417-0.141-0.769-0.422-1.055s-0.615-0.43-1.004-0.43c-0.391,0-0.727,0.144-1.008,0.43s-0.422,0.638-0.422,1.055
		c0,0.414,0.141,0.765,0.422,1.053s0.617,0.432,1.008,0.432c0.389,0,0.723-0.144,1.004-0.432S298.416,105.953,298.416,105.539z"/>
	<path fill="#231F20" d="M308.349,107.223h-0.422l-2.418-4.09v3.762h0.605c0.08,0,0.139,0.015,0.172,0.045s0.051,0.069,0.051,0.119
		c0,0.047-0.018,0.086-0.051,0.117s-0.092,0.047-0.172,0.047h-1.207c-0.08,0-0.139-0.016-0.172-0.047s-0.051-0.07-0.051-0.117
		c0-0.05,0.018-0.089,0.051-0.119s0.092-0.045,0.172-0.045h0.273v-3.914h-0.441c-0.078,0-0.135-0.015-0.168-0.045
		s-0.051-0.069-0.051-0.119s0.018-0.089,0.051-0.119s0.09-0.045,0.168-0.045h0.859l2.422,4.098v-3.77h-0.605
		c-0.078,0-0.135-0.015-0.168-0.045s-0.051-0.069-0.051-0.119s0.016-0.089,0.049-0.119s0.09-0.045,0.17-0.045h1.211
		c0.078,0,0.135,0.015,0.168,0.045s0.051,0.069,0.051,0.119s-0.018,0.089-0.051,0.119s-0.09,0.045-0.168,0.045h-0.277V107.223z"/>
	<path fill="#231F20" d="M313.376,105.539c0,0.5-0.18,0.927-0.537,1.281s-0.789,0.531-1.295,0.531c-0.51,0-0.943-0.178-1.301-0.533
		s-0.535-0.782-0.535-1.279c0-0.5,0.178-0.928,0.535-1.283s0.791-0.533,1.301-0.533c0.506,0,0.938,0.177,1.295,0.531
		S313.376,105.036,313.376,105.539z M313.044,105.539c0-0.411-0.146-0.762-0.439-1.051s-0.648-0.434-1.064-0.434
		s-0.771,0.146-1.064,0.436s-0.439,0.64-0.439,1.049c0,0.406,0.146,0.755,0.439,1.047s0.648,0.438,1.064,0.438
		s0.771-0.146,1.064-0.436S313.044,105.948,313.044,105.539z"/>
	<path fill="#231F20" d="M315.669,103.84h1.781c0.078,0,0.135,0.016,0.168,0.047s0.051,0.071,0.051,0.121
		c0,0.047-0.018,0.086-0.051,0.117s-0.09,0.047-0.168,0.047h-1.781v2.184c0,0.19,0.076,0.349,0.229,0.477s0.375,0.191,0.67,0.191
		c0.221,0,0.461-0.033,0.719-0.1s0.459-0.142,0.602-0.225c0.053-0.034,0.096-0.051,0.129-0.051c0.041,0,0.078,0.017,0.109,0.049
		s0.047,0.071,0.047,0.115c0,0.039-0.018,0.075-0.051,0.109c-0.084,0.086-0.285,0.179-0.607,0.279s-0.629,0.15-0.924,0.15
		c-0.383,0-0.688-0.09-0.914-0.27s-0.34-0.422-0.34-0.727v-2.184h-0.605c-0.078,0-0.135-0.016-0.168-0.047s-0.051-0.071-0.051-0.121
		c0-0.047,0.018-0.086,0.051-0.117s0.09-0.047,0.168-0.047h0.605v-0.969c0-0.078,0.016-0.134,0.047-0.168s0.07-0.051,0.117-0.051
		c0.049,0,0.09,0.017,0.121,0.051s0.047,0.09,0.047,0.168V103.84z"/>
	<path fill="#231F20" d="M324.544,106.895v-3.914h-0.441c-0.078,0-0.135-0.015-0.168-0.045s-0.051-0.069-0.051-0.119
		s0.018-0.089,0.051-0.119s0.09-0.045,0.168-0.045h2.063c0.408,0,0.742,0.118,0.998,0.354s0.385,0.513,0.385,0.83
		c0,0.401-0.215,0.726-0.645,0.973c0.342,0.122,0.592,0.285,0.75,0.488s0.238,0.427,0.238,0.672c0,0.219-0.053,0.419-0.156,0.6
		s-0.264,0.335-0.479,0.463s-0.449,0.191-0.701,0.191h-2.453c-0.078,0-0.135-0.016-0.168-0.047s-0.051-0.07-0.051-0.117
		c0-0.05,0.018-0.089,0.051-0.119s0.09-0.045,0.168-0.045H324.544z M324.873,104.684h1.16c0.248,0,0.475-0.046,0.68-0.137
		c0.158-0.073,0.283-0.179,0.371-0.316s0.133-0.278,0.133-0.422c0-0.206-0.096-0.396-0.289-0.568s-0.443-0.26-0.754-0.26h-1.301
		V104.684z M324.873,106.895h1.66c0.211,0,0.395-0.047,0.551-0.141s0.275-0.21,0.355-0.348s0.121-0.281,0.121-0.43
		c0-0.167-0.059-0.328-0.174-0.484s-0.277-0.274-0.482-0.355s-0.49-0.121-0.852-0.121h-1.18V106.895z"/>
	<path fill="#231F20" d="M330.841,105.281c0,0.3-0.039,0.616-0.117,0.951s-0.229,0.723-0.449,1.164s-0.383,0.706-0.484,0.795
		c-0.031,0.031-0.064,0.047-0.102,0.047c-0.047,0-0.086-0.017-0.119-0.049s-0.049-0.071-0.049-0.115c0-0.026,0.01-0.055,0.027-0.086
		c0.287-0.523,0.49-0.999,0.613-1.426s0.184-0.854,0.184-1.281c0-0.43-0.061-0.858-0.184-1.285s-0.326-0.903-0.613-1.43
		c-0.018-0.031-0.027-0.06-0.027-0.086c0-0.044,0.016-0.082,0.049-0.113s0.072-0.047,0.119-0.047c0.037,0,0.07,0.015,0.102,0.043
		c0.096,0.089,0.254,0.348,0.473,0.777s0.369,0.81,0.453,1.141S330.841,104.945,330.841,105.281z"/>
</g>
<g enable-background="new    ">
	<path fill="#231F20" d="M398.785,100.896h-2.156l-0.441,1.199h0.629c0.078,0,0.135,0.015,0.168,0.045s0.051,0.069,0.051,0.119
		c0,0.047-0.018,0.086-0.051,0.117s-0.09,0.047-0.168,0.047h-1.227c-0.078,0-0.135-0.016-0.168-0.047s-0.051-0.07-0.051-0.117
		c0-0.05,0.018-0.089,0.051-0.119s0.09-0.045,0.168-0.045h0.254l1.449-3.914h-0.969c-0.078,0-0.135-0.015-0.168-0.045
		s-0.051-0.069-0.051-0.119s0.018-0.089,0.051-0.119s0.09-0.045,0.168-0.045h1.652l1.602,4.242h0.254
		c0.078,0,0.135,0.015,0.168,0.045s0.051,0.069,0.051,0.119c0,0.047-0.018,0.086-0.051,0.117s-0.09,0.047-0.168,0.047h-1.223
		c-0.08,0-0.139-0.016-0.172-0.047s-0.051-0.07-0.051-0.117c0-0.05,0.018-0.089,0.051-0.119s0.092-0.045,0.172-0.045h0.625
		L398.785,100.896z M398.66,100.567l-0.906-2.387h-0.121l-0.879,2.387H398.66z"/>
	<path fill="#231F20" d="M408.386,100.896h-2.156l-0.441,1.199h0.629c0.078,0,0.135,0.015,0.168,0.045s0.051,0.069,0.051,0.119
		c0,0.047-0.018,0.086-0.051,0.117s-0.09,0.047-0.168,0.047h-1.227c-0.078,0-0.135-0.016-0.168-0.047s-0.051-0.07-0.051-0.117
		c0-0.05,0.018-0.089,0.051-0.119s0.09-0.045,0.168-0.045h0.254l1.449-3.914h-0.969c-0.078,0-0.135-0.015-0.168-0.045
		s-0.051-0.069-0.051-0.119s0.018-0.089,0.051-0.119s0.09-0.045,0.168-0.045h1.652l1.602,4.242h0.254
		c0.078,0,0.135,0.015,0.168,0.045s0.051,0.069,0.051,0.119c0,0.047-0.018,0.086-0.051,0.117s-0.09,0.047-0.168,0.047h-1.223
		c-0.08,0-0.139-0.016-0.172-0.047s-0.051-0.07-0.051-0.117c0-0.05,0.018-0.089,0.051-0.119s0.092-0.045,0.172-0.045h0.625
		L408.386,100.896z M408.261,100.567l-0.906-2.387h-0.121l-0.879,2.387H408.261z"/>
	<path fill="#231F20" d="M411.046,99.04v0.496c0.229-0.231,0.436-0.392,0.621-0.48s0.393-0.133,0.625-0.133
		c0.25,0,0.479,0.054,0.684,0.16c0.146,0.078,0.277,0.208,0.396,0.389s0.178,0.366,0.178,0.557v2.066h0.277
		c0.078,0,0.135,0.015,0.168,0.045s0.051,0.069,0.051,0.119c0,0.047-0.018,0.086-0.051,0.117s-0.09,0.047-0.168,0.047h-0.879
		c-0.08,0-0.139-0.016-0.172-0.047s-0.051-0.07-0.051-0.117c0-0.05,0.018-0.089,0.051-0.119s0.092-0.045,0.172-0.045h0.273v-2.012
		c0-0.231-0.084-0.428-0.254-0.588s-0.396-0.24-0.68-0.24c-0.217,0-0.404,0.044-0.563,0.131s-0.385,0.304-0.68,0.65v2.059h0.371
		c0.078,0,0.135,0.015,0.168,0.045s0.051,0.069,0.051,0.119c0,0.047-0.018,0.086-0.051,0.117s-0.09,0.047-0.168,0.047h-1.07
		c-0.078,0-0.135-0.016-0.168-0.047s-0.051-0.07-0.051-0.117c0-0.05,0.018-0.089,0.051-0.119s0.09-0.045,0.168-0.045h0.371v-2.723
		h-0.277c-0.078,0-0.135-0.016-0.168-0.047s-0.051-0.071-0.051-0.121c0-0.047,0.018-0.086,0.051-0.117s0.09-0.047,0.168-0.047
		H411.046z"/>
	<path fill="#231F20" d="M418.515,97.521v4.574h0.438c0.08,0,0.139,0.015,0.172,0.045s0.051,0.069,0.051,0.119
		c0,0.047-0.018,0.086-0.051,0.117s-0.092,0.047-0.172,0.047h-0.77v-0.652c-0.381,0.521-0.863,0.781-1.449,0.781
		c-0.297,0-0.582-0.079-0.854-0.236s-0.486-0.382-0.645-0.674S415,101.049,415,100.739c0-0.313,0.078-0.614,0.236-0.904
		s0.373-0.515,0.645-0.674s0.559-0.238,0.857-0.238c0.572,0,1.055,0.261,1.445,0.781v-1.852h-0.438c-0.08,0-0.139-0.016-0.172-0.047
		s-0.051-0.071-0.051-0.121c0-0.047,0.018-0.086,0.051-0.117s0.092-0.047,0.172-0.047H418.515z M418.183,100.739
		c0-0.417-0.141-0.769-0.422-1.055s-0.615-0.43-1.004-0.43c-0.391,0-0.727,0.144-1.008,0.43s-0.422,0.638-0.422,1.055
		c0,0.414,0.141,0.765,0.422,1.053s0.617,0.432,1.008,0.432c0.389,0,0.723-0.144,1.004-0.432S418.183,101.153,418.183,100.739z"/>
	<path fill="#231F20" d="M425.109,102.095v-3.914h-0.441c-0.078,0-0.135-0.015-0.168-0.045s-0.051-0.069-0.051-0.119
		s0.018-0.089,0.051-0.119s0.09-0.045,0.168-0.045h2.063c0.408,0,0.742,0.118,0.998,0.354s0.385,0.513,0.385,0.83
		c0,0.401-0.215,0.726-0.645,0.973c0.342,0.122,0.592,0.285,0.75,0.488s0.238,0.427,0.238,0.672c0,0.219-0.053,0.419-0.156,0.6
		s-0.264,0.335-0.479,0.463s-0.449,0.191-0.701,0.191h-2.453c-0.078,0-0.135-0.016-0.168-0.047s-0.051-0.07-0.051-0.117
		c0-0.05,0.018-0.089,0.051-0.119s0.09-0.045,0.168-0.045H425.109z M425.437,99.884h1.16c0.248,0,0.475-0.046,0.68-0.137
		c0.158-0.073,0.283-0.179,0.371-0.316s0.133-0.278,0.133-0.422c0-0.206-0.096-0.396-0.289-0.568s-0.443-0.26-0.754-0.26h-1.301
		V99.884z M425.437,102.095h1.66c0.211,0,0.395-0.047,0.551-0.141s0.275-0.21,0.355-0.348s0.121-0.281,0.121-0.43
		c0-0.167-0.059-0.328-0.174-0.484s-0.277-0.274-0.482-0.355s-0.49-0.121-0.852-0.121h-1.18V102.095z"/>
	<path fill="#231F20" d="M437.191,100.896h-2.156l-0.441,1.199h0.629c0.078,0,0.135,0.015,0.168,0.045s0.051,0.069,0.051,0.119
		c0,0.047-0.018,0.086-0.051,0.117s-0.09,0.047-0.168,0.047h-1.227c-0.078,0-0.135-0.016-0.168-0.047s-0.051-0.07-0.051-0.117
		c0-0.05,0.018-0.089,0.051-0.119s0.09-0.045,0.168-0.045h0.254l1.449-3.914h-0.969c-0.078,0-0.135-0.015-0.168-0.045
		s-0.051-0.069-0.051-0.119s0.018-0.089,0.051-0.119s0.09-0.045,0.168-0.045h1.652l1.602,4.242h0.254
		c0.078,0,0.135,0.015,0.168,0.045s0.051,0.069,0.051,0.119c0,0.047-0.018,0.086-0.051,0.117s-0.09,0.047-0.168,0.047h-1.223
		c-0.08,0-0.139-0.016-0.172-0.047s-0.051-0.07-0.051-0.117c0-0.05,0.018-0.089,0.051-0.119s0.092-0.045,0.172-0.045h0.625
		L437.191,100.896z M437.066,100.567l-0.906-2.387h-0.121l-0.879,2.387H437.066z"/>
	<path fill="#231F20" d="M439.851,99.04v0.496c0.229-0.231,0.436-0.392,0.621-0.48s0.393-0.133,0.625-0.133
		c0.25,0,0.479,0.054,0.684,0.16c0.146,0.078,0.277,0.208,0.396,0.389s0.178,0.366,0.178,0.557v2.066h0.277
		c0.078,0,0.135,0.015,0.168,0.045s0.051,0.069,0.051,0.119c0,0.047-0.018,0.086-0.051,0.117s-0.09,0.047-0.168,0.047h-0.879
		c-0.08,0-0.139-0.016-0.172-0.047s-0.051-0.07-0.051-0.117c0-0.05,0.018-0.089,0.051-0.119s0.092-0.045,0.172-0.045h0.273v-2.012
		c0-0.231-0.084-0.428-0.254-0.588s-0.396-0.24-0.68-0.24c-0.217,0-0.404,0.044-0.563,0.131s-0.385,0.304-0.68,0.65v2.059h0.371
		c0.078,0,0.135,0.015,0.168,0.045s0.051,0.069,0.051,0.119c0,0.047-0.018,0.086-0.051,0.117s-0.09,0.047-0.168,0.047h-1.07
		c-0.078,0-0.135-0.016-0.168-0.047s-0.051-0.07-0.051-0.117c0-0.05,0.018-0.089,0.051-0.119s0.09-0.045,0.168-0.045h0.371v-2.723
		h-0.277c-0.078,0-0.135-0.016-0.168-0.047s-0.051-0.071-0.051-0.121c0-0.047,0.018-0.086,0.051-0.117s0.09-0.047,0.168-0.047
		H439.851z"/>
	<path fill="#231F20" d="M447.32,97.521v4.574h0.438c0.08,0,0.139,0.015,0.172,0.045s0.051,0.069,0.051,0.119
		c0,0.047-0.018,0.086-0.051,0.117s-0.092,0.047-0.172,0.047h-0.77v-0.652c-0.381,0.521-0.863,0.781-1.449,0.781
		c-0.297,0-0.582-0.079-0.854-0.236s-0.486-0.382-0.645-0.674s-0.236-0.593-0.236-0.902c0-0.313,0.078-0.614,0.236-0.904
		s0.373-0.515,0.645-0.674s0.559-0.238,0.857-0.238c0.572,0,1.055,0.261,1.445,0.781v-1.852h-0.438c-0.08,0-0.139-0.016-0.172-0.047
		s-0.051-0.071-0.051-0.121c0-0.047,0.018-0.086,0.051-0.117s0.092-0.047,0.172-0.047H447.32z M446.988,100.739
		c0-0.417-0.141-0.769-0.422-1.055s-0.615-0.43-1.004-0.43c-0.391,0-0.727,0.144-1.008,0.43s-0.422,0.638-0.422,1.055
		c0,0.414,0.141,0.765,0.422,1.053s0.617,0.432,1.008,0.432c0.389,0,0.723-0.144,1.004-0.432S446.988,101.153,446.988,100.739z"/>
	<path fill="#231F20" d="M456.757,98.302v-0.23c0-0.078,0.016-0.134,0.045-0.168s0.07-0.051,0.119-0.051s0.09,0.017,0.119,0.051
		s0.045,0.09,0.045,0.168v0.91c0,0.081-0.016,0.138-0.045,0.172s-0.07,0.051-0.119,0.051c-0.045,0-0.082-0.016-0.111-0.047
		s-0.047-0.082-0.053-0.152c-0.014-0.219-0.131-0.413-0.355-0.582c-0.303-0.231-0.646-0.348-1.031-0.348
		c-0.252,0-0.49,0.056-0.715,0.168c-0.166,0.081-0.299,0.18-0.398,0.297c-0.172,0.203-0.309,0.429-0.41,0.676
		c-0.072,0.183-0.109,0.388-0.109,0.617v0.574c0,0.489,0.178,0.915,0.531,1.275s0.766,0.541,1.234,0.541
		c0.281,0,0.533-0.062,0.756-0.184s0.438-0.308,0.646-0.555c0.045-0.055,0.094-0.082,0.148-0.082c0.047,0,0.084,0.015,0.113,0.043
		s0.043,0.065,0.043,0.109c0,0.06-0.057,0.151-0.168,0.273c-0.213,0.239-0.453,0.42-0.721,0.541s-0.537,0.182-0.811,0.182
		c-0.236,0-0.479-0.046-0.723-0.137c-0.188-0.07-0.342-0.152-0.465-0.246s-0.273-0.252-0.451-0.475s-0.301-0.429-0.365-0.617
		s-0.098-0.396-0.098-0.623v-0.668c0-0.323,0.086-0.653,0.26-0.99s0.41-0.597,0.711-0.777s0.627-0.271,0.979-0.271
		C455.9,97.747,456.367,97.932,456.757,98.302z"/>
</g>
</svg>
