<?xml version="1.0" encoding="UTF-8" standalone="no"?>
<!DOCTYPE svg PUBLIC "-//W3C//DTD SVG 1.1//EN" "http://www.w3.org/Graphics/SVG/1.1/DTD/svg11.dtd">
<svg width="100%" height="100%" viewBox="0 0 274 210" version="1.1" xmlns="http://www.w3.org/2000/svg" xmlns:xlink="http://www.w3.org/1999/xlink" xml:space="preserve" xmlns:serif="http://www.serif.com/" style="fill-rule:evenodd;clip-rule:evenodd;stroke-linecap:round;stroke-linejoin:round;stroke-miterlimit:79.8403;">
    <g id="Document" transform="matrix(1,0,0,-1,0,0)">
        <g transform="matrix(1,0,0,1,0,-209.549)">
            <path d="M68.094,86.693C67.482,86.031 67.352,86.329 67.087,86.359C66.905,86.554 66.588,86.479 66.753,87.366C66.53,86.915 67.304,88.481 67.579,89.039C67.965,89.821 68.351,90.603 68.737,91.384C69.516,92.945 70.264,94.52 71.074,96.065C72.694,99.154 74.23,102.287 75.937,105.329C79.249,111.468 82.715,117.524 86.36,123.471C93.656,135.358 101.666,146.831 110.702,157.466C119.683,168.166 130.293,177.372 141.44,185.735C152.687,193.89 164.866,201.263 178.455,204.706C185.205,206.326 192.372,206.929 199.169,205.203C205.978,203.667 212.304,200.231 217.488,195.569C227.906,186.108 234.177,173.148 239.125,160.205C249.487,134.121 252.022,105.986 257.926,78.78L257.921,78.779C251.661,105.911 248.721,134.024 238.113,159.81C233.042,172.642 226.669,185.35 216.473,194.416C211.399,198.884 205.322,202.105 198.782,203.526C192.302,205.117 185.441,204.499 178.91,202.886C165.74,199.46 153.765,192.16 142.676,184.061C131.662,175.746 121.182,166.638 112.302,156.093C103.342,145.585 95.337,134.227 87.996,122.459C84.328,116.571 80.825,110.573 77.463,104.494C75.735,101.482 74.164,98.379 72.516,95.32C71.693,93.791 70.923,92.226 70.126,90.679C69.731,89.904 69.335,89.128 68.94,88.353C68.658,87.799 67.866,86.246 68.094,86.693Z" style="fill-rule:nonzero;"/>
        </g>
        <g transform="matrix(1,0,0,1,0,-209.549)">
            <path d="M67.424,87.03L73.424,85.53" style="fill:none;stroke:rgb(119,119,119);stroke-width:0.38px;"/>
        </g>
        <g transform="matrix(1,0,0,1,0,-209.549)">
            <path d="M70.424,91.53L74.924,90.03" style="fill:none;stroke:rgb(119,119,119);stroke-width:0.38px;"/>
        </g>
        <g transform="matrix(1,0,0,1,0,-209.549)">
            <path d="M72.674,96.03L77.174,93.78" style="fill:none;stroke:rgb(119,119,119);stroke-width:0.38px;"/>
        </g>
        <g transform="matrix(1,0,0,1,0,-209.549)">
            <path d="M74.924,99.78L78.674,98.28" style="fill:none;stroke:rgb(119,119,119);stroke-width:0.38px;"/>
        </g>
        <g transform="matrix(1,0,0,1,0,-209.549)">
            <path d="M77.174,103.53L80.924,102.03" style="fill:none;stroke:rgb(119,119,119);stroke-width:0.38px;"/>
        </g>
        <g transform="matrix(1,0,0,1,0,-209.549)">
            <path d="M81.674,112.53L84.674,109.53" style="fill:none;stroke:rgb(119,119,119);stroke-width:0.38px;"/>
        </g>
        <g transform="matrix(1,0,0,1,0,-209.549)">
            <path d="M86.174,120.03L89.924,117.03" style="fill:none;stroke:rgb(119,119,119);stroke-width:0.38px;"/>
        </g>
        <g transform="matrix(1,0,0,1,0,-209.549)">
            <path d="M90.674,127.53L94.424,124.53" style="fill:none;stroke:rgb(119,119,119);stroke-width:0.38px;"/>
        </g>
        <g transform="matrix(1,0,0,1,0,-209.549)">
            <path d="M95.174,134.28L98.924,131.28" style="fill:none;stroke:rgb(119,119,119);stroke-width:0.38px;"/>
        </g>
        <g transform="matrix(1,0,0,1,0,-209.549)">
            <path d="M99.674,141.03L104.174,137.28" style="fill:none;stroke:rgb(119,119,119);stroke-width:0.38px;"/>
        </g>
        <g transform="matrix(1,0,0,1,0,-209.549)">
            <path d="M104.924,147.78L109.424,143.28" style="fill:none;stroke:rgb(119,119,119);stroke-width:0.38px;"/>
        </g>
        <g transform="matrix(1,0,0,1,0,-209.549)">
            <path d="M109.424,153.78L114.674,148.53" style="fill:none;stroke:rgb(119,119,119);stroke-width:0.38px;"/>
        </g>
        <g transform="matrix(1,0,0,1,0,-209.549)">
            <path d="M113.924,159.78L119.924,153.03" style="fill:none;stroke:black;stroke-width:0.38px;"/>
        </g>
        <g transform="matrix(1,0,0,1,0,-209.549)">
            <path d="M119.174,165.03L125.174,157.53" style="fill:none;stroke:black;stroke-width:0.38px;"/>
        </g>
        <g transform="matrix(1,0,0,1,0,-209.549)">
            <path d="M124.424,169.53L130.424,162.03" style="fill:none;stroke:black;stroke-width:0.38px;"/>
        </g>
        <g transform="matrix(1,0,0,1,0,-209.549)">
            <path d="M129.674,174.78L135.674,165.78" style="fill:none;stroke:black;stroke-width:0.38px;"/>
        </g>
        <g transform="matrix(1,0,0,1,0,-209.549)">
            <path d="M134.924,179.28L140.924,168.78" style="fill:none;stroke:black;stroke-width:0.38px;"/>
        </g>
        <g transform="matrix(1,0,0,1,0,-209.549)">
            <path d="M140.174,183.03L146.174,171.78" style="fill:none;stroke:black;stroke-width:0.38px;"/>
        </g>
        <g transform="matrix(1,0,0,1,0,-209.549)">
            <path d="M145.424,187.53L151.424,174.03" style="fill:none;stroke:black;stroke-width:0.38px;"/>
        </g>
        <g transform="matrix(1,0,0,1,0,-209.549)">
            <path d="M150.674,191.28L156.674,176.28" style="fill:none;stroke:black;stroke-width:0.38px;"/>
        </g>
        <g transform="matrix(1,0,0,1,0,-209.549)">
            <path d="M156.674,195.03L161.924,177.78" style="fill:none;stroke:black;stroke-width:0.38px;"/>
        </g>
        <g transform="matrix(1,0,0,1,0,-209.549)">
            <path d="M162.674,198.03L167.174,178.53" style="fill:none;stroke:black;stroke-width:0.38px;"/>
        </g>
        <g transform="matrix(1,0,0,1,0,-209.549)">
            <path d="M169.424,201.03L171.674,179.28" style="fill:none;stroke:black;stroke-width:0.38px;"/>
        </g>
        <g transform="matrix(1,0,0,1,0,-209.549)">
            <path d="M176.174,203.28L176.174,179.28" style="fill:none;stroke:black;stroke-width:0.38px;"/>
        </g>
        <g transform="matrix(1,0,0,1,0,-209.549)">
            <path d="M182.924,204.78L182.174,180.03" style="fill:none;stroke:black;stroke-width:0.38px;"/>
        </g>
        <g transform="matrix(1,0,0,1,0,-209.549)">
            <path d="M189.674,204.78L186.674,179.28" style="fill:none;stroke:black;stroke-width:0.38px;"/>
        </g>
        <g transform="matrix(1,0,0,1,0,-209.549)">
            <path d="M197.174,204.78L191.174,178.53" style="fill:none;stroke:black;stroke-width:0.38px;"/>
        </g>
        <g transform="matrix(1,0,0,1,0,-209.549)">
            <path d="M204.674,202.53L195.674,177.03" style="fill:none;stroke:black;stroke-width:0.38px;"/>
        </g>
        <g transform="matrix(1,0,0,1,0,-209.549)">
            <path d="M211.424,199.53L200.174,175.53" style="fill:none;stroke:black;stroke-width:0.38px;"/>
        </g>
        <g transform="matrix(1,0,0,1,0,-209.549)">
            <path d="M216.674,195.03L204.674,173.28" style="fill:none;stroke:black;stroke-width:0.38px;"/>
        </g>
        <g transform="matrix(1,0,0,1,0,-209.549)">
            <path d="M221.924,189.78L208.424,170.28" style="fill:none;stroke:black;stroke-width:0.38px;"/>
        </g>
        <g transform="matrix(1,0,0,1,0,-209.549)">
            <path d="M226.424,183.78L212.174,167.28" style="fill:none;stroke:black;stroke-width:0.38px;"/>
        </g>
        <g transform="matrix(1,0,0,1,0,-209.549)">
            <path d="M230.174,177.78L216.674,163.53" style="fill:none;stroke:black;stroke-width:0.38px;"/>
        </g>
        <g transform="matrix(1,0,0,1,0,-209.549)">
            <path d="M233.924,171.03L220.424,159.78" style="fill:none;stroke:black;stroke-width:0.38px;"/>
        </g>
        <g transform="matrix(1,0,0,1,0,-209.549)">
            <path d="M236.924,164.28L224.924,155.28" style="fill:none;stroke:black;stroke-width:0.38px;"/>
        </g>
        <g transform="matrix(1,0,0,1,0,-209.549)">
            <path d="M227.924,150.03L239.174,157.53" style="fill:none;stroke:black;stroke-width:0.38px;"/>
        </g>
        <g transform="matrix(1,0,0,1,0,-209.549)">
            <path d="M231.674,144.03L242.174,150.03" style="fill:none;stroke:black;stroke-width:0.38px;"/>
        </g>
        <g transform="matrix(1,0,0,1,0,-209.549)">
            <path d="M235.424,138.03L244.424,142.53" style="fill:none;stroke:black;stroke-width:0.38px;"/>
        </g>
        <g transform="matrix(1,0,0,1,0,-209.549)">
            <path d="M238.424,131.28L246.674,135.03" style="fill:none;stroke:black;stroke-width:0.38px;"/>
        </g>
        <g transform="matrix(1,0,0,1,0,-209.549)">
            <path d="M241.424,123.78L248.924,126.03" style="fill:none;stroke:rgb(131,62,62);stroke-width:0.38px;"/>
        </g>
        <g transform="matrix(1,0,0,1,0,-209.549)">
            <path d="M244.424,116.28L250.424,117.78" style="fill:none;stroke:rgb(131,62,62);stroke-width:0.38px;"/>
        </g>
        <g transform="matrix(1,0,0,1,0,-209.549)">
            <path d="M251.924,88.53L255.674,89.28" style="fill:none;stroke:rgb(131,62,62);stroke-width:0.38px;"/>
        </g>
        <g transform="matrix(1,0,0,1,0,-209.549)">
            <path d="M253.424,78.78L257.924,78.78" style="fill:none;stroke:black;stroke-width:0.38px;"/>
        </g>
        <g transform="matrix(1,0,0,1,0,-209.549)">
            <path d="M113.547,106.529C114.414,106.282 114.207,106.032 114.299,105.782C114.208,105.532 114.417,105.282 113.552,105.03C113.842,105.032 111.884,105.016 111.05,105.009C109.967,105 108.884,104.991 107.8,104.982C105.634,104.961 103.465,104.955 101.301,104.918C96.981,104.786 92.643,104.739 88.342,104.522C79.748,104.115 71.135,103.277 62.867,101.408C54.594,99.431 46.463,96.561 38.953,92.676C31.467,88.875 25.057,83.198 19.859,76.6C14.74,70.011 10.741,62.301 9.992,54.184C9.27,46.056 11.741,37.736 16.286,30.858C25.5,17.061 42.673,9.307 59.384,9.293C76.379,9.19 93.007,15.074 108.507,22.382C116.277,26.084 123.795,30.395 131.395,34.59C139.062,38.704 147.425,41.228 155.699,43.805C188.799,54.27 221.868,64.827 254.549,76.532L254.55,76.527C221.998,64.476 189.026,53.544 156.042,42.771C147.742,40.099 139.539,37.539 132.009,33.415C124.508,29.187 116.973,24.784 109.175,20.993C93.617,13.519 76.843,7.408 59.365,7.409C42.11,7.363 24.343,15.187 14.548,29.711C9.762,36.92 7.117,45.693 7.88,54.374C8.692,63.081 12.903,71.092 18.198,77.899C23.567,84.7 30.233,90.574 38.001,94.488C45.728,98.448 53.988,101.315 62.435,103.284C70.914,105.146 79.598,105.923 88.264,106.263C92.599,106.445 96.94,106.45 101.279,106.544C103.448,106.56 105.618,106.542 107.788,106.541C108.873,106.539 109.958,106.537 111.043,106.535C111.877,106.533 113.837,106.529 113.547,106.529Z" style="fill-rule:nonzero;"/>
        </g>
        <g transform="matrix(1,0,0,1,0,-209.549)">
            <path d="M113.55,105.78L128.55,91.53" style="fill:none;stroke:rgb(119,119,119);stroke-width:0.38px;"/>
        </g>
        <g transform="matrix(1,0,0,1,0,-209.549)">
            <path d="M109.244,105.702L127.05,90.03" style="fill:none;stroke:rgb(119,119,119);stroke-width:0.38px;"/>
        </g>
        <g transform="matrix(1,0,0,1,0,-209.549)">
            <path d="M104.722,105.528L125.55,88.53" style="fill:none;stroke:rgb(119,119,119);stroke-width:0.38px;"/>
        </g>
        <g transform="matrix(1,0,0,1,0,-209.549)">
            <path d="M100.201,105.441L124.05,87.78" style="fill:none;stroke:rgb(119,119,119);stroke-width:0.38px;"/>
        </g>
        <g transform="matrix(1,0,0,1,0,-209.549)">
            <path d="M94.81,105.528L122.55,86.28" style="fill:none;stroke:rgb(119,119,119);stroke-width:0.38px;"/>
        </g>
        <g transform="matrix(1,0,0,1,0,-209.549)">
            <path d="M89.55,105.03L121.8,84.78" style="fill:none;stroke:rgb(119,119,119);stroke-width:0.38px;"/>
        </g>
        <g transform="matrix(1,0,0,1,0,-209.549)">
            <path d="M82.8,105.03L121.05,83.28" style="fill:none;stroke:rgb(119,119,119);stroke-width:0.38px;"/>
        </g>
        <g transform="matrix(1,0,0,1,0,-209.549)">
            <path d="M75.3,104.28L120.3,81.78" style="fill:none;stroke:rgb(119,119,119);stroke-width:0.38px;"/>
        </g>
        <g transform="matrix(1,0,0,1,0,-209.549)">
            <path d="M66.3,102.78L119.55,80.28" style="fill:none;stroke:rgb(119,119,119);stroke-width:0.38px;"/>
        </g>
        <g transform="matrix(1,0,0,1,0,-209.549)">
            <path d="M57.3,101.28L118.8,79.53" style="fill:none;stroke:rgb(137,137,137);stroke-width:0.38px;"/>
        </g>
        <g transform="matrix(1,0,0,1,0,-209.549)">
            <path d="M47.335,98.051L118.8,78.03" style="fill:none;stroke:rgb(137,137,137);stroke-width:0.38px;"/>
        </g>
        <g transform="matrix(1,0,0,1,0,-209.549)">
            <path d="M37.05,93.03L118.8,76.53" style="fill:none;stroke:rgb(137,137,137);stroke-width:0.38px;"/>
        </g>
        <g transform="matrix(1,0,0,1,0,-209.549)">
            <path d="M28.05,86.28L118.05,75.78" style="fill:none;stroke:rgb(137,137,137);stroke-width:0.38px;"/>
        </g>
        <g transform="matrix(1,0,0,1,0,-209.549)">
            <path d="M118.004,74.918L19.33,77.776" style="fill:none;stroke:rgb(137,137,137);stroke-width:0.38px;"/>
        </g>
        <g transform="matrix(1,0,0,1,0,-209.549)">
            <path d="M12.456,68.249L118.481,73.352" style="fill:none;stroke:rgb(137,137,137);stroke-width:0.38px;"/>
        </g>
        <g transform="matrix(1,0,0,1,0,-209.549)">
            <path d="M9.394,57.292L118.617,71.923" style="fill:none;stroke:rgb(137,137,137);stroke-width:0.38px;"/>
        </g>
        <g transform="matrix(1,0,0,1,0,-209.549)">
            <path d="M9.802,46.132L118.889,71.039" style="fill:none;stroke:rgb(137,137,137);stroke-width:0.38px;"/>
        </g>
        <g transform="matrix(1,0,0,1,0,-209.549)">
            <path d="M12.388,35.516L118.889,70.086" style="fill:none;stroke:rgb(137,137,137);stroke-width:0.38px;"/>
        </g>
        <g transform="matrix(1,0,0,1,0,-209.549)">
            <path d="M18.105,26.193L119.502,68.997" style="fill:none;stroke:rgb(137,137,137);stroke-width:0.38px;"/>
        </g>
        <g transform="matrix(1,0,0,1,0,-209.549)">
            <path d="M26.611,18.911L119.774,67.976" style="fill:none;stroke:rgb(137,137,137);stroke-width:0.38px;"/>
        </g>
        <g transform="matrix(1,0,0,1,0,-209.549)">
            <path d="M36.138,13.535L120.59,67.024" style="fill:none;stroke:rgb(137,137,137);stroke-width:0.38px;"/>
        </g>
        <g transform="matrix(1,0,0,1,0,-209.549)">
            <path d="M46.482,9.928L121.271,66.139" style="fill:none;stroke:rgb(137,137,137);stroke-width:0.38px;"/>
        </g>
        <g transform="matrix(1,0,0,1,0,-209.549)">
            <path d="M57.438,8.635L122.088,65.254" style="fill:none;stroke:rgb(137,137,137);stroke-width:0.38px;"/>
        </g>
        <g transform="matrix(1,0,0,1,0,-209.549)">
            <path d="M67.442,8.771L122.768,64.302" style="fill:none;stroke:rgb(137,137,137);stroke-width:0.38px;"/>
        </g>
        <g transform="matrix(1,0,0,1,0,-209.549)">
            <path d="M77.105,10.473L123.789,63.893" style="fill:none;stroke:rgb(137,137,137);stroke-width:0.38px;"/>
        </g>
        <g transform="matrix(1,0,0,1,0,-209.549)">
            <path d="M85.884,12.718L124.401,62.873" style="fill:none;stroke:rgb(137,137,137);stroke-width:0.38px;"/>
        </g>
        <g transform="matrix(1,0,0,1,0,-209.549)">
            <path d="M92.893,15.032L125.422,62.124" style="fill:none;stroke:rgb(137,137,137);stroke-width:0.38px;"/>
        </g>
        <g transform="matrix(1,0,0,1,0,-209.549)">
            <path d="M99.562,17.754L126.375,61.307" style="fill:none;stroke:rgb(137,137,137);stroke-width:0.38px;"/>
        </g>
        <g transform="matrix(1,0,0,1,0,-209.549)">
            <path d="M105.211,20.068L127.532,60.763" style="fill:none;stroke:rgb(137,137,137);stroke-width:0.38px;"/>
        </g>
        <g transform="matrix(1,0,0,1,0,-209.549)">
            <path d="M110.247,22.722L128.757,60.15" style="fill:none;stroke:rgb(137,137,137);stroke-width:0.38px;"/>
        </g>
        <g transform="matrix(1,0,0,1,0,-209.549)">
            <path d="M114.398,24.491L129.845,59.674" style="fill:none;stroke:rgb(137,137,137);stroke-width:0.38px;"/>
        </g>
        <g transform="matrix(1,0,0,1,0,-209.549)">
            <path d="M118.549,26.669L131.138,58.994" style="fill:none;stroke:rgb(137,137,137);stroke-width:0.38px;"/>
        </g>
        <g transform="matrix(1,0,0,1,0,-209.549)">
            <path d="M121.951,28.438L132.499,58.517" style="fill:none;stroke:rgb(137,137,137);stroke-width:0.38px;"/>
        </g>
        <g transform="matrix(1,0,0,1,0,-209.549)">
            <path d="M125.218,30.48L133.997,57.973" style="fill:none;stroke:rgb(137,137,137);stroke-width:0.38px;"/>
        </g>
        <g transform="matrix(1,0,0,1,0,-209.549)">
            <path d="M128.28,32.045L135.426,57.633" style="fill:none;stroke:rgb(137,137,137);stroke-width:0.38px;"/>
        </g>
        <g transform="matrix(1,0,0,1,0,-209.549)">
            <path d="M131.002,33.61L136.719,57.088" style="fill:none;stroke:rgb(137,137,137);stroke-width:0.38px;"/>
        </g>
        <g transform="matrix(1,0,0,1,0,-209.549)">
            <path d="M133.52,35.039L138.352,56.952" style="fill:none;stroke:rgb(137,137,137);stroke-width:0.38px;"/>
        </g>
        <g transform="matrix(1,0,0,1,0,-209.549)">
            <path d="M136.174,36.4L139.781,56.408" style="fill:none;stroke:rgb(137,137,137);stroke-width:0.38px;"/>
        </g>
        <g transform="matrix(1,0,0,1,0,-209.549)">
            <path d="M138.692,37.693L141.278,56.272" style="fill:none;stroke:rgb(119,119,119);stroke-width:0.38px;"/>
        </g>
        <g transform="matrix(1,0,0,1,0,-209.549)">
            <path d="M141.142,38.442L143.388,56.203" style="fill:none;stroke:rgb(119,119,119);stroke-width:0.38px;"/>
        </g>
        <g transform="matrix(1,0,0,1,0,-209.549)">
            <path d="M143.592,39.395L145.157,55.999" style="fill:none;stroke:rgb(119,119,119);stroke-width:0.38px;"/>
        </g>
        <g transform="matrix(1,0,0,1,0,-209.549)">
            <path d="M145.565,40.211L146.858,55.727" style="fill:none;stroke:rgb(119,119,119);stroke-width:0.38px;"/>
        </g>
        <g transform="matrix(1,0,0,1,0,-209.549)">
            <path d="M147.607,40.96L148.628,55.863" style="fill:none;stroke:rgb(119,119,119);stroke-width:0.38px;"/>
        </g>
        <g transform="matrix(1,0,0,1,0,-209.549)">
            <path d="M152.098,42.457L152.575,55.795" style="fill:none;stroke:rgb(119,119,119);stroke-width:0.38px;"/>
        </g>
        <g transform="matrix(1,0,0,1,0,-209.549)">
            <path d="M160.265,45.179L160.333,56.067" style="fill:none;stroke:rgb(119,119,119);stroke-width:0.38px;"/>
        </g>
        <g transform="matrix(1,0,0,1,0,-209.549)">
            <path d="M164.552,46.336L164.688,56.203" style="fill:none;stroke:rgb(72,72,72);stroke-width:0.38px;"/>
        </g>
        <g transform="matrix(1,0,0,1,0,-209.549)">
            <path d="M169.043,47.765L168.771,56.34" style="fill:none;stroke:rgb(72,72,72);stroke-width:0.38px;"/>
        </g>
        <g transform="matrix(1,0,0,1,0,-209.549)">
            <path d="M173.671,49.466L173.194,56.884" style="fill:none;stroke:rgb(72,72,72);stroke-width:0.38px;"/>
        </g>
        <g transform="matrix(1,0,0,1,0,-209.549)">
            <path d="M178.026,50.895L177.345,57.156" style="fill:none;stroke:rgb(72,72,72);stroke-width:0.38px;"/>
        </g>
        <g transform="matrix(1,0,0,1,0,-209.549)">
            <path d="M182.722,52.12L181.905,58.109" style="fill:none;stroke:rgb(72,72,72);stroke-width:0.38px;"/>
        </g>
        <g transform="matrix(1,0,0,1,0,-209.549)">
            <path d="M187.893,54.026L186.601,58.789" style="fill:none;stroke:rgb(72,72,72);stroke-width:0.38px;"/>
        </g>
        <g transform="matrix(1,0,0,1,0,-209.549)">
            <path d="M192.385,55.523L191.568,59.878" style="fill:none;stroke:rgb(72,72,72);stroke-width:0.38px;"/>
        </g>
        <g transform="matrix(1,0,0,1,0,-209.549)">
            <path d="M197.489,57.224L196.536,61.035" style="fill:none;stroke:rgb(72,72,72);stroke-width:0.38px;"/>
        </g>
        <g transform="matrix(1,0,0,1,0,-209.549)">
            <path d="M202.32,58.926L201.708,62.192" style="fill:none;stroke:rgb(72,72,72);stroke-width:0.38px;"/>
        </g>
        <g transform="matrix(1,0,0,1,0,-209.549)">
            <path d="M207.697,60.695L206.744,63.893" style="fill:none;stroke:rgb(72,72,72);stroke-width:0.38px;"/>
        </g>
        <g transform="matrix(1,0,0,1,0,-209.549)">
            <path d="M212.868,62.396L212.12,65.459" style="fill:none;stroke:black;stroke-width:0.38px;"/>
        </g>
        <g transform="matrix(1,0,0,1,0,-209.549)">
            <path d="M218.517,64.166L217.768,67.092" style="fill:none;stroke:black;stroke-width:0.38px;"/>
        </g>
        <g transform="matrix(1,0,0,1,0,-209.549)">
            <path d="M224.301,66.139L223.416,68.725" style="fill:none;stroke:black;stroke-width:0.38px;"/>
        </g>
        <g transform="matrix(1,0,0,1,0,-209.549)">
            <path d="M230.154,68.181L229.405,70.767" style="fill:none;stroke:black;stroke-width:0.38px;"/>
        </g>
        <g transform="matrix(1,0,0,1,0,-209.549)">
            <path d="M236.006,70.426L235.325,72.672" style="fill:none;stroke:black;stroke-width:0.38px;"/>
        </g>
        <g transform="matrix(1,0,0,1,0,-209.549)">
            <path d="M242.131,72.604L241.586,74.645" style="fill:none;stroke:black;stroke-width:0.38px;"/>
        </g>
        <g transform="matrix(1,0,0,1,0,-209.549)">
            <path d="M248.255,74.441L247.371,76.075" style="fill:none;stroke:black;stroke-width:0.38px;"/>
        </g>
        <g transform="matrix(1,0,0,1,0,-209.549)">
            <path d="M254.652,76.687L253.699,78.048" style="fill:none;stroke:black;stroke-width:0.75px;"/>
        </g>
        <g transform="matrix(1,0,0,1,0,-209.549)">
            <path d="M247.47,108.125L251.912,109.077" style="fill:none;stroke:rgb(122,66,66);stroke-width:0.38px;"/>
        </g>
        <g transform="matrix(1,0,0,1,0,-209.549)">
            <path d="M249.881,98.798L253.879,99.687" style="fill:none;stroke:rgb(122,66,66);stroke-width:0.38px;"/>
        </g>
        <g transform="matrix(1,0,0,1,0,-209.549)">
            <path d="M156.355,55.531L156.355,43.36" style="fill:none;stroke:rgb(115,115,115);stroke-width:0.38px;"/>
        </g>
        <g transform="matrix(1,0,0,1,0,-209.549)">
            <path d="M73.05,85.53C84.3,113.28 100.05,135.03 119.55,153.03C136.874,169.022 162.148,182.205 185.55,179.28C209.55,176.28 225.3,155.28 234.3,138.03C243.867,119.693 248.55,102.78 253.05,78.78" style="fill:none;stroke:black;stroke-width:3px;"/>
        </g>
        <g transform="matrix(1,0,0,1,0,-209.549)">
            <path d="M128.924,91.53C119.924,84.78 115.965,75.586 119.924,68.28C128.567,52.33 158.924,55.53 173.174,57.03C200.641,59.921 226.674,71.03 253.424,78.03" style="fill:none;stroke:black;stroke-width:3px;"/>
        </g>
        <g id="Group" transform="matrix(1,0,0,1,0,-209.549)">
            <path d="M110.235,121.949L113.798,121.949C116.742,121.949 119.651,124.107 119.651,126.427C119.651,128.063 118.278,129.599 115.531,129.599L108.798,129.599C108.404,129.599 108.176,129.599 108.176,129.208C108.176,128.946 108.339,128.946 108.764,128.946C109.026,128.946 109.419,128.913 109.647,128.913C110.007,128.848 110.105,128.814 110.105,128.553C110.105,128.488 110.105,128.423 110.038,128.162L107.228,116.98C107.032,116.162 106.998,115.999 105.33,115.999C105.004,115.999 104.776,115.999 104.776,115.608C104.776,115.346 105.004,115.346 105.069,115.346C105.659,115.346 107.13,115.411 107.718,115.411C108.176,115.411 108.634,115.377 109.059,115.377C109.515,115.377 109.973,115.346 110.398,115.346C110.561,115.346 110.823,115.346 110.823,115.771C110.823,115.999 110.628,115.999 110.235,115.999C109.484,115.999 108.896,115.999 108.896,116.359C108.896,116.488 108.927,116.587 108.961,116.719L110.235,121.949ZM111.739,128.162C111.936,128.879 111.967,128.946 112.884,128.946L114.878,128.946C116.61,128.946 117.721,128.39 117.721,126.95C117.721,126.134 117.297,124.335 116.481,123.584C115.434,122.636 114.192,122.473 113.275,122.473L110.333,122.473L111.739,128.162Z"/>
            <path d="M140.315,122.178C140.643,122.178 141.034,122.178 141.034,122.571C141.034,122.996 140.643,122.996 140.348,122.996L127.859,122.996C127.566,122.996 127.173,122.996 127.173,122.571C127.173,122.178 127.566,122.178 127.859,122.178L140.315,122.178ZM140.348,118.125C140.643,118.125 141.034,118.125 141.034,118.549C141.034,118.941 140.643,118.941 140.315,118.941L127.859,118.941C127.566,118.941 127.173,118.941 127.173,118.549C127.173,118.125 127.566,118.125 127.859,118.125L140.348,118.125Z"/>
            <path d="M157.12,115.476C160.357,116.685 163.431,120.412 163.431,124.433C163.431,127.802 161.207,130.057 158.102,130.057C153.622,130.057 149.013,125.316 149.013,120.445C149.013,116.98 151.366,114.888 154.373,114.888C154.896,114.888 155.585,114.986 156.401,115.214C156.336,113.906 156.336,113.873 156.336,113.58C156.336,112.925 156.336,111.291 158.068,111.291C160.52,111.291 161.533,115.116 161.533,115.346C161.533,115.476 161.403,115.541 161.305,115.541C161.142,115.541 161.108,115.442 161.044,115.313C160.554,113.842 159.342,113.318 158.625,113.318C157.643,113.318 157.348,113.873 157.12,115.476ZM153.197,115.639C151.563,116.294 150.843,117.894 150.843,119.792C150.843,121.23 151.4,124.205 152.969,126.427C154.505,128.553 156.466,129.534 158.003,129.534C160.062,129.534 161.6,127.9 161.6,125.119C161.6,123.027 160.52,118.125 157.022,116.195C156.924,116.915 156.727,118.418 155.191,118.418C154.08,118.418 153.065,117.405 153.065,116.294C153.065,115.9 153.197,115.672 153.197,115.639ZM154.471,115.411C154.179,115.411 153.524,115.411 153.524,116.294C153.524,117.143 154.308,117.961 155.191,117.961C156.074,117.961 156.466,117.47 156.466,116.195C156.466,115.9 156.434,115.869 156.237,115.771C155.681,115.541 155.062,115.411 154.471,115.411Z"/>
            <path d="M177.644,120.15L183.463,120.15C183.758,120.15 184.149,120.15 184.149,120.577C184.149,120.968 183.758,120.968 183.463,120.968L177.644,120.968L177.644,126.82C177.644,127.115 177.644,127.507 177.22,127.507C176.793,127.507 176.793,127.115 176.793,126.82L176.793,120.968L170.974,120.968C170.681,120.968 170.288,120.968 170.288,120.577C170.288,120.15 170.681,120.15 170.974,120.15L176.793,120.15L176.793,114.3C176.793,114.005 176.793,113.611 177.22,113.611C177.644,113.611 177.644,114.005 177.644,114.3L177.644,120.15Z"/>
            <path d="M194.237,123.682L196.199,123.682C196.624,123.682 196.852,123.682 196.852,124.107C196.852,124.335 196.624,124.335 196.264,124.335L194.433,124.335C195.187,127.31 195.283,127.703 195.283,127.833C195.283,128.193 195.021,128.39 194.664,128.39C194.597,128.39 194.009,128.39 193.845,127.639L193.027,124.335L191.067,124.335C190.642,124.335 190.445,124.335 190.445,123.943C190.445,123.682 190.609,123.682 191.033,123.682L192.864,123.682C191.36,117.765 191.263,117.405 191.263,117.045C191.263,115.9 192.048,115.116 193.19,115.116C195.316,115.116 196.494,118.156 196.494,118.319C196.494,118.549 196.329,118.549 196.264,118.549C196.067,118.549 196.036,118.485 195.938,118.254C195.055,116.064 193.944,115.574 193.224,115.574C192.799,115.574 192.571,115.836 192.571,116.522C192.571,117.045 192.636,117.177 192.701,117.535L194.237,123.682Z"/>
            <path d="M207.837,124.238C207.87,124.531 207.87,125.055 207.347,125.055C206.987,125.055 206.726,124.762 206.791,124.5L206.791,124.238L207.086,121.002L204.403,122.931C204.209,123.027 204.175,123.094 204.044,123.094C203.751,123.094 203.456,122.799 203.456,122.504C203.456,122.178 203.686,122.079 203.88,121.981L206.856,120.577L203.979,119.171C203.652,119.008 203.456,118.909 203.456,118.614C203.456,118.288 203.751,118.026 204.044,118.026C204.175,118.026 204.209,118.026 204.732,118.418L207.086,120.085L206.757,116.587C206.757,116.162 207.151,116.064 207.314,116.064C207.575,116.064 207.87,116.195 207.87,116.587L207.575,120.085L210.224,118.156C210.419,118.058 210.452,118.026 210.616,118.026C210.911,118.026 211.172,118.319 211.172,118.614C211.172,118.909 210.975,119.008 210.714,119.137C209.471,119.759 209.44,119.759 207.803,120.543L210.68,121.949C211.009,122.113 211.172,122.178 211.172,122.504C211.172,122.799 210.911,123.094 210.616,123.094C210.452,123.094 210.419,123.094 209.896,122.701L207.575,121.002L207.837,124.238Z"/>
            <path d="M227.574,127.768C227.279,127.473 226.593,126.885 226.593,126.525C226.593,126.331 226.79,126.101 226.986,126.101C227.181,126.101 227.279,126.264 227.411,126.396C227.639,126.689 228.131,127.279 229.045,127.735C229.177,127.833 229.405,127.931 229.405,128.162C229.405,128.39 229.242,128.488 229.11,128.586C228.654,128.913 228.424,129.273 228.26,129.762C228.196,129.959 228.131,130.254 227.836,130.254C227.541,130.254 227.411,129.959 227.411,129.796C227.411,129.697 227.574,129.043 227.901,128.586L220.872,128.586C220.546,128.586 220.153,128.586 220.153,128.162C220.153,127.768 220.546,127.768 220.872,127.768L227.574,127.768Z" style="stroke:black;stroke-width:0.5px;stroke-linecap:butt;stroke-linejoin:miter;"/>
            <path d="M226.949,123.094C226.949,124.238 226.392,124.565 226.032,124.565C225.509,124.565 224.986,124.008 224.986,123.55C224.986,123.289 225.084,123.159 225.314,122.931C225.771,122.504 226.032,121.981 226.032,121.23C226.032,120.347 224.758,115.574 222.339,115.574C221.259,115.574 220.77,116.294 220.77,117.405C220.77,118.549 221.358,120.085 221.979,121.818C222.142,122.178 222.241,122.473 222.241,122.864C222.241,123.78 221.586,124.565 220.54,124.565C218.579,124.565 217.794,121.525 217.794,121.361C217.794,121.131 217.991,121.131 218.023,121.131C218.253,121.131 218.253,121.196 218.351,121.525C218.97,123.617 219.853,124.107 220.475,124.107C220.638,124.107 220.998,124.107 220.998,123.454C220.998,122.931 220.77,122.341 220.638,121.981C219.724,119.562 219.462,118.614 219.462,117.7C219.462,115.442 221.293,115.116 222.241,115.116C225.739,115.116 226.949,122.014 226.949,123.094Z" style="stroke:black;stroke-width:0.5px;stroke-linecap:butt;stroke-linejoin:miter;"/>
        </g>
    </g>
</svg>
